<?xml version="1.0" encoding="UTF-8"?>
<svg width="200px" height="200px" viewBox="0 0 200 200" version="1.1" xmlns="http://www.w3.org/2000/svg" xmlns:xlink="http://www.w3.org/1999/xlink">
    <!-- Generator: Sketch 56.3 (81716) - https://sketch.com -->
    <title>alligator</title>
    <desc>Created with Sketch.</desc>
    <g id="alligator" stroke="none" stroke-width="1" fill="none" fill-rule="evenodd">
        <g id="typeText" transform="translate(10.000000, 6.000000)" fill="#725F5F" fill-opacity="0.87" font-family="Roboto-Black, Roboto Black" font-size="17" font-weight="700">
            <g id="vegetable">
                <text>
                    <tspan x="0" y="16">animal</tspan>
                </text>
            </g>
        </g>
        <g id="firstLetter" transform="translate(10.000000, 152.000000)">
            <g id="Group" transform="translate(0.000000, -5.000000)">
                <rect id="Rectangle" stroke="#979797" x="0.5" y="6.5" width="34" height="38"></rect>
                <text id="C" fill="#131313" font-family="Roboto-Bold, Roboto" font-size="43" font-weight="bold">
                    <tspan x="3.03369141" y="40">A</tspan>
                </text>
            </g>
        </g>
        <g id="nameText" transform="translate(104.000000, 161.000000)" fill="#454545" fill-opacity="0.87" font-family="Roboto-Black, Roboto Black" font-size="26" font-weight="700">
            <text id="Carrot">
                <tspan x="-15.2832031" y="28">Alligator</tspan>
            </text>
        </g>
        <g id="colorText" transform="translate(133.000000, 5.000000)" fill="#454545" fill-opacity="0.87" font-family="Roboto-Black, Roboto Black" font-size="18" font-weight="700">
            <text id="orange">
                <tspan x="10.0751953" y="17">green</tspan>
            </text>
        </g>
        <g transform="translate(99.500000, 100.500000) scale(-1, 1) translate(-99.500000, -100.500000) translate(9.000000, 47.000000)">
            <path d="M154.451327,99.7182071 C155.12934,100.87405 156.485364,101.004286 157.032675,100.922888 C157.098026,100.922888 157.171545,100.906609 157.236896,100.87405 C157.294078,100.841491 157.351259,100.792652 157.383935,100.735674 C157.7597,100.336827 158.413206,99.1484255 157.841389,97.9437445 C156.763104,98.5542247 155.635807,99.1484255 154.451327,99.7182071 Z M143.627638,103.560163 C144.052417,104.829962 145.351259,105.236949 145.89857,105.277647 C145.963921,105.285787 146.03744,105.285787 146.11096,105.269508 C146.17631,105.245088 146.241661,105.212529 146.290674,105.163691 C146.73179,104.846241 147.630361,103.820634 147.319946,102.518277 C146.135466,102.892704 144.901974,103.242713 143.627638,103.560163 Z M153.405718,102.640373 C153.479238,102.640373 153.544588,102.632233 153.618108,102.607814 C153.683458,102.575255 153.732471,102.534556 153.781484,102.477578 C154.181756,102.10315 154.933288,100.971727 154.451327,99.7182071 C153.32403,100.24729 152.155888,100.760093 150.930565,101.240338 C151.51872,102.445019 152.858407,102.672932 153.405718,102.640373 Z M147.319946,102.518277 C147.818244,103.755517 149.149762,104.081106 149.697073,104.081106 C149.762423,104.089246 149.835943,104.081106 149.901293,104.056687 C149.974813,104.032268 150.031995,103.999709 150.072839,103.942731 C150.505786,103.600862 151.322668,102.518277 150.930565,101.240338 C149.770592,101.688023 148.569775,102.119429 147.319946,102.518277 Z M70.9741321,24.3116853 C70.8515997,24.2709866 70.7208986,24.2465674 70.5901974,24.2628468 C70.4513274,24.2791263 70.3287951,24.319825 70.2226004,24.3930826 C69.2831858,24.8407681 67.2899932,26.452436 67.437032,28.9757545 C67.4452008,28.9757545 67.4615385,28.9757545 67.4697073,28.9838942 C69.7079646,28.7234226 72.1014295,28.4792305 74.6010892,28.2513179 C74.609258,28.2513179 74.6174268,28.2513179 74.6174268,28.2431781 C74.2579986,25.7442789 71.9788972,24.5640171 70.9741321,24.3116853 Z M138.170865,106.978852 C138.236215,107.003272 138.309735,107.003272 138.383254,106.995132 C138.448604,106.986992 138.513955,106.954433 138.571137,106.913734 C139.053097,106.645123 140.057862,105.725333 139.886317,104.390416 C138.669163,104.626468 137.411164,104.846241 136.112321,105.033455 C136.390061,106.335813 137.631722,106.881176 138.170865,106.978852 Z M139.886317,104.390416 C140.237577,105.684634 141.520082,106.164879 142.059224,106.229997 C142.124575,106.246276 142.198094,106.254416 142.271613,106.238136 C142.345133,106.221857 142.402314,106.189298 142.451327,106.148599 C142.91695,105.855569 143.864534,104.8788 143.627638,103.560163 C142.426821,103.869473 141.176991,104.146224 139.886317,104.390416 Z M64.3982301,25.2721742 C64.3002042,25.2233358 64.1858407,25.1989166 64.0633084,25.1989166 C63.940776,25.2070563 63.8264125,25.2396153 63.7283867,25.2965934 C62.8706603,25.6466021 61,26.9733792 61,29.236226 C61.0163376,29.236226 61.0408441,29.2443658 61.0571818,29.2525055 C62.1354663,29.4071605 63.3689585,29.4397194 64.7985024,29.2932042 C65.6398911,29.1955273 66.5139551,29.0897108 67.4043567,28.9838942 C67.4206943,28.9838942 67.4288632,28.9757545 67.437032,28.9757545 C67.2573179,26.7210474 65.2804629,25.5489253 64.3982301,25.2721742 Z M166.99047,91.0249682 C168.019741,91.8796406 169.334922,91.5459113 169.825051,91.2854398 C169.890402,91.2610206 169.947583,91.2284616 169.996596,91.1714834 C170.045609,91.122645 170.078285,91.0575271 170.094622,90.9924092 C170.307012,90.4877456 170.519401,89.1528287 169.579986,88.2086192 C168.787611,89.1609685 167.921715,90.0970382 166.99047,91.0249682 Z M161.09258,95.9006705 C161.942138,96.9262774 163.298162,96.8286005 163.820967,96.6739455 C163.894486,96.6576661 163.959837,96.6332469 164.017018,96.5925482 C164.0742,96.5437097 164.115044,96.4867316 164.14772,96.4297534 C164.441797,95.9739282 164.899251,94.6959895 164.14772,93.597125 C163.191967,94.3866795 162.170865,95.1518148 161.09258,95.9006705 Z M176.28659,76.5850751 C178.132743,76.9757824 179.554118,75.689704 179.995235,75.0548046 C180.052417,74.9815469 180.10143,74.9001496 180.134105,74.8024727 C180.158611,74.7047959 180.158611,74.607119 180.134105,74.5094422 C180.060585,73.7443069 179.447924,71.9291456 177.634445,71.3837833 L177.634445,71.391923 C177.381212,72.938473 176.956433,74.6966561 176.28659,76.5850751 Z M180.926481,69.0883775 C180.967325,69.0069801 181,68.917443 181,68.8116264 C181,68.7139496 180.983662,68.6162727 180.942818,68.5267356 C180.705922,67.7941593 179.709326,66.166212 177.830497,66.0196967 C177.863172,66.8092512 177.887679,67.6150851 177.887679,68.4453383 C177.887679,69.2918709 177.80599,70.276779 177.634445,71.3756435 L177.634445,71.3837833 C179.529612,71.3675038 180.632403,69.8046743 180.926481,69.0883775 Z M176.28659,76.5850751 C175.820967,77.9037124 175.232811,79.2956074 174.522124,80.7119216 C176.000681,81.2654237 177.332199,80.3781924 177.773315,79.9142274 C177.830497,79.8572493 177.887679,79.7921314 177.920354,79.7188738 C177.953029,79.6374764 177.961198,79.556079 177.961198,79.4746816 C177.993873,78.8316424 177.716133,77.2606732 176.28659,76.5850751 Z M164.14772,93.5889853 C165.095303,94.5413345 166.443159,94.3297013 166.949626,94.1180682 C167.014976,94.1017887 167.080327,94.0692298 167.12934,94.0203913 C167.186521,93.9715529 167.227366,93.9145748 167.243703,93.8494569 C167.505106,93.3692124 167.848196,92.0587148 166.99047,91.0249682 C166.108237,91.89592 165.160654,92.7587321 164.14772,93.5889853 Z M172.267529,84.6027158 C171.475153,85.8073969 170.584752,87.0120779 169.579986,88.2086192 C170.886998,89.0795711 172.381892,88.5342087 172.921035,88.1760603 C172.994554,88.1435014 173.059905,88.0946629 173.108918,88.0214053 C173.157931,87.9562874 173.190606,87.8830298 173.206943,87.8016324 C173.386658,87.1911521 173.484683,85.5957637 172.267529,84.6027158 Z M174.522124,80.7119216 C173.876787,81.9898603 173.133424,83.2922182 172.267529,84.6027158 C173.664398,85.3271524 175.093941,84.6108556 175.584071,84.195729 C175.649421,84.1550303 175.714772,84.0980522 175.755616,84.0247945 C175.79646,83.9515369 175.820967,83.8701395 175.820967,83.7887422 C175.943499,83.1538427 175.853642,81.5584543 174.522124,80.7119216 Z M78.2443839,23.6605063 C78.1218516,23.6116679 77.9993193,23.5872487 77.8604493,23.5953884 C77.7215793,23.6116679 77.599047,23.6523666 77.4928523,23.7174845 C76.5452689,24.1488905 74.519401,25.7198597 74.6174268,28.2431781 C74.6255956,28.2513179 74.6337645,28.2513179 74.6419333,28.2513179 C76.95371,28.0396847 79.3553438,27.844331 81.8141593,27.6652568 C81.8141593,27.6571171 81.8141593,27.6571171 81.8141593,27.6571171 C81.503744,25.1500781 79.2409803,23.9291176 78.2443839,23.6605063 Z M157.841389,97.9356047 C158.609258,99.0344692 159.973451,99.0588884 160.504425,98.9367924 C160.577944,98.9286526 160.643295,98.9123732 160.708645,98.8716745 C160.765827,98.8309758 160.81484,98.7821374 160.847515,98.7251592 C161.182437,98.2937532 161.746086,97.0565132 161.084411,95.9006705 C160.063308,96.6006879 158.985024,97.2844258 157.841389,97.9356047 Z M170.021103,43.9365907 C171.49966,42.3656215 171.074881,40.216731 170.707284,39.4190368 C170.66644,39.3132202 170.617427,39.2155434 170.535739,39.134146 C170.45405,39.0527486 170.356025,38.9957705 170.24983,38.9632115 C169.457454,38.5806439 167.309054,38.1085392 165.699796,39.5574123 C165.707965,39.5574123 165.707965,39.565552 165.707965,39.565552 C167.276378,40.9004689 168.72226,42.349342 170.021103,43.9365907 Z M159.793737,35.4305657 C161.917631,36.6515263 163.894486,38.0271418 165.699796,39.5574123 C167.072158,37.432941 166.116406,35.0479981 165.520082,34.2014655 C165.454731,34.0956489 165.373043,33.9898323 165.258679,33.9165747 C165.144316,33.8351773 165.021784,33.7944786 164.899251,33.7700594 C163.894486,33.5014481 161.329476,33.4281905 159.793737,35.4305657 Z M85.506467,23.1232837 C85.3839346,23.0744453 85.2614023,23.050026 85.1225323,23.0581658 C84.9836624,23.0663055 84.86113,23.1070042 84.7467665,23.1721221 C83.7991831,23.5872487 81.7488087,25.1337987 81.8141593,27.6571171 L81.8223281,27.6571171 C84.1831178,27.4861826 86.5929204,27.3233879 89.0108918,27.1768726 C89.0190606,27.1768726 89.0190606,27.1768726 89.0190606,27.1768726 C88.7413206,24.6616939 86.5030633,23.4081745 85.506467,23.1232837 Z M177.291355,60.6718896 C177.560926,62.3730946 177.74064,64.155697 177.830497,66.0196967 C179.692988,65.7429456 180.575221,64.0498804 180.763104,63.3010246 C180.795779,63.2114875 180.812117,63.1138107 180.803948,63.0161338 C180.795779,62.9103172 180.754935,62.8207801 180.705922,62.7393828 C180.371001,62.0475051 179.170184,60.5742128 177.291355,60.6718896 Z M173.443839,49.0402057 C175.191967,47.7704068 175.167461,45.5889573 174.955071,44.7342849 C174.946903,44.6203286 174.906059,44.514512 174.848877,44.4168352 C174.783526,44.3272981 174.693669,44.2540405 174.603812,44.1970623 C173.884956,43.6761191 171.867257,42.8214468 170.021103,43.9365907 C171.311777,45.5075599 172.455412,47.2087649 173.443839,49.0402057 Z M153.291355,32.2967671 C153.993873,29.8711255 152.400953,27.8606105 151.59224,27.225711 C151.502383,27.1361739 151.388019,27.0629163 151.265487,27.0140779 C151.134786,26.9733792 151.004084,26.9652395 150.873383,26.9815189 C149.835943,27.0059381 147.352621,27.6571171 146.445882,30.0176408 C148.831178,30.6769594 151.118448,31.433955 153.291355,32.2967671 Z M173.443839,49.0402057 C174.399592,50.7983888 175.208305,52.6786681 175.861811,54.689183 C177.789653,53.7612531 178.181756,51.6367817 178.140912,50.7658299 C178.140912,50.6518736 178.132743,50.546057 178.08373,50.4321007 C178.042886,50.3262841 177.969367,50.2448867 177.887679,50.1716291 C177.291355,49.5204502 175.477876,48.2994896 173.443839,49.0402057 Z M175.86998,54.7054625 C176.474472,56.577602 176.956433,58.5636978 177.291355,60.6718896 C179.358067,60.0695491 180.093261,58.0183354 180.183118,57.1473836 C180.207624,57.041567 180.215793,56.9276107 180.183118,56.8136544 C180.158611,56.699698 180.10143,56.6020212 180.036079,56.5206238 C179.54595,55.7880475 177.969367,54.3147552 175.86998,54.7054625 Z M159.793737,35.4305657 C160.790334,33.1107408 159.475153,30.9211515 158.748128,30.1804355 C158.66644,30.0827587 158.568414,29.9932216 158.445882,29.9362434 C158.323349,29.8792652 158.200817,29.854846 158.070116,29.854846 C157.040844,29.7490294 154.492172,30.0746189 153.291355,32.2967671 C155.586794,33.2165573 157.7597,34.2584436 159.793737,35.4305657 Z M114.652825,22.0895371 C114.538462,22.0325589 114.415929,22 114.277059,22 C114.138189,22 114.015657,22.0325589 113.893125,22.0895371 C112.921035,22.4395458 110.764466,23.8395805 110.658271,26.3628989 C111.785568,26.3466195 112.896528,26.3384797 113.974813,26.3384797 C115.281824,26.3384797 116.580667,26.3547592 117.871341,26.3791784 C117.773315,23.85586 115.624915,22.4476855 114.652825,22.0895371 Z M107.33356,22.154655 C107.219197,22.0976768 107.088496,22.0651179 106.949626,22.0651179 C106.818924,22.0732576 106.688223,22.1058166 106.57386,22.1709345 C105.609939,22.5372226 103.486045,23.9860958 103.437032,26.5175539 C105.920354,26.4361566 108.338325,26.3873181 110.650102,26.3628989 C110.650102,26.3628989 110.650102,26.3628989 110.658271,26.3628989 C110.494894,23.8395805 108.313819,22.4802445 107.33356,22.154655 Z M92.76855,22.6918776 C92.6541865,22.6430392 92.5234854,22.6104803 92.3846154,22.61862 C92.2539142,22.6267597 92.1232131,22.6674584 92.0170184,22.7325763 C91.0612662,23.1314234 88.9863853,24.6454145 89.0190606,27.1768726 C91.4206943,27.0303574 93.8304969,26.9001216 96.2239619,26.794305 C95.987066,24.2791263 93.7651464,22.9930479 92.76855,22.6918776 Z M100.046971,22.3662882 C99.9244384,22.30931 99.8019061,22.2767511 99.6630361,22.2848908 C99.5241661,22.2930305 99.4016338,22.3337292 99.2872703,22.3907074 C98.331518,22.7814147 96.2321307,24.2628468 96.2239619,26.794305 C98.6664398,26.6803487 101.076242,26.5908116 103.437032,26.5175539 C103.232811,23.9942355 101.027229,22.6755982 100.046971,22.3662882 Z M146.445882,30.0176408 C146.911504,27.535021 145.130701,25.6873008 144.256637,25.1256589 C144.158611,25.0442616 144.044248,24.9791437 143.913547,24.9547245 C143.782845,24.9221655 143.652144,24.9221655 143.521443,24.9547245 C142.492172,25.0768205 140.082369,25.9640518 139.412526,28.4059729 C141.838666,28.8536584 144.183118,29.390881 146.445882,30.0176408 Z M129.446562,22.773275 C129.332199,22.7081571 129.209666,22.6593187 129.070796,22.6511789 C128.940095,22.6348995 128.809394,22.6593187 128.686862,22.7081571 C127.682097,22.9686287 125.419333,24.1733097 125.084411,26.6803487 C127.526889,26.8350037 129.920354,27.0466368 132.264806,27.3233879 C132.272975,27.3233879 132.272975,27.3233879 132.272975,27.3233879 C132.395507,24.8000695 130.377808,23.2128208 129.446562,22.773275 Z M139.412526,28.4059729 C139.690265,25.8907942 137.770592,24.1814495 136.863853,23.6930653 C136.757658,23.6116679 136.635126,23.5628295 136.496256,23.5384103 C136.365555,23.5221308 136.234854,23.5384103 136.112321,23.5791089 C135.099387,23.7744626 132.754935,24.8407681 132.272975,27.3233879 L132.281144,27.3233879 C134.715453,27.6164184 137.100749,27.9745668 139.412526,28.4059729 Z M122.03744,22.2686113 C121.923077,22.2116332 121.800545,22.1709345 121.661675,22.1627947 C121.522805,22.154655 121.392103,22.1872139 121.27774,22.2360524 C120.289312,22.5453624 118.08373,23.8639997 117.871341,26.3791784 L117.87951,26.3791784 C120.313819,26.4280168 122.723622,26.5256937 125.084411,26.6803487 C125.084411,24.1488905 122.993193,22.6593187 122.03744,22.2686113 L122.03744,22.2686113 Z" id="Fill-76" fill="#84B140"></path>
            <path d="M14.2276786,15.8849295 C13.5398996,15.2806236 12.8763951,14.684484 12.2290737,14.1128434 L11.7597656,16.6770601 L14.2276786,15.8849295 Z M10.796875,35.9985152 C11.4118304,36.1128434 12.0429687,36.2271715 12.6902902,36.3496659 L12.0348772,34.5857461 L10.796875,35.9985152 Z M23.5086496,38.3994061 C24.1478795,38.5219005 24.7790179,38.6362287 25.4101562,38.7587231 L24.7547433,36.9703044 L23.5086496,38.3994061 Z M8.68498884,35.5902004 C9.28376116,35.7045286 9.91489955,35.827023 10.562221,35.9495174 L9.91489955,34.1855976 L8.68498884,35.5902004 Z M28.8166853,28.6488493 C28.1693638,28.0853749 27.4977679,27.5055679 26.8099888,26.9012621 L26.3730469,29.4736451 L28.8166853,28.6488493 Z M25.6286272,38.7995546 C26.2678571,38.9138827 26.9070871,39.0363771 27.5301339,39.1507053 L26.874721,37.3704529 L25.6286272,38.7995546 Z M6.56501116,35.190052 C7.15569196,35.3043801 7.77873884,35.4187082 8.4422433,35.549369 L7.79492188,33.7854491 L6.56501116,35.190052 Z M4.453125,34.7899035 C5.00334821,34.8960653 5.63448661,35.0103935 6.32226563,35.1410542 L5.6749442,33.393467 L4.453125,34.7899035 Z M29.8685826,39.5916852 C30.6291853,39.7305122 31.3736049,39.8693393 32.0856585,40 L31.3250558,37.9339272 L29.8685826,39.5916852 Z M21.3886719,37.9992576 C22.0279018,38.121752 22.6590402,38.2360802 23.2901786,38.3585746 L22.6347656,36.5783222 L21.3886719,37.9992576 Z M27.7486049,39.1915367 C28.3959263,39.3140312 29.0270647,39.4365256 29.6501116,39.5508537 L28.9946987,37.7706013 L27.7486049,39.1915367 Z M30.9123884,30.4699332 C30.2731585,29.9146251 29.6015625,29.3348181 28.8976004,28.722346 L28.46875,31.2865627 L30.9123884,30.4699332 Z M33,32.2828508 C32.3850446,31.7438753 31.7053571,31.1640683 30.9933036,30.5434298 L30.5644531,33.0994803 L33,32.2828508 Z M12.15625,14.047513 C11.4603795,13.4268745 10.796875,12.830735 10.1576451,12.2672606 L9.68833705,14.8396437 L12.15625,14.047513 Z M24.6414621,25.0230141 C23.9779576,24.4432071 23.2982701,23.8552339 22.6185826,23.2590943 L22.1816406,25.8478099 L24.6414621,25.0230141 Z M26.7290737,26.8359317 C26.0736607,26.264291 25.3939732,25.6763177 24.7142857,25.0801782 L24.2773438,27.6607275 L26.7290737,26.8359317 Z M8.02957589,10.3481811 C7.30133929,9.67854491 6.63783482,9.07423905 6.05524554,8.53526355 L5.54547991,11.0994803 L8.02957589,10.3481811 Z M4.43694196,7 L4,9.03340757 L5.99051339,8.46993318 C5.36746652,7.8982925 4.84960938,7.40014848 4.43694196,7 Z M22.561942,23.2019302 C21.890346,22.6221232 21.2106585,22.0259837 20.5390625,21.4380104 L20.0859375,24.0185598 L22.561942,23.2019302 Z M10.0848214,12.2019302 C9.38085938,11.5731255 8.71735491,10.9688196 8.10239955,10.4053452 L7.60881696,12.9777283 L10.0848214,12.2019302 Z M12.9168527,36.3986637 C13.531808,36.5129918 14.1629464,36.6354863 14.8102679,36.7579807 L14.1548549,34.9858946 L12.9168527,36.3986637 Z M15.0368304,36.7988122 C15.6598772,36.9131403 16.2910156,37.0356347 16.9302455,37.1581292 L16.2748326,35.3778768 L15.0368304,36.7988122 Z M17.1487165,37.1989607 C17.7798549,37.3214551 18.4109933,37.4357832 19.0502232,37.5582777 L18.3948103,35.7780252 L17.1487165,37.1989607 Z M19.2686942,37.5991091 C19.8998326,37.7216036 20.5390625,37.8359317 21.1702009,37.9584261 L20.5147879,36.1781737 L19.2686942,37.5991091 Z M16.3071987,17.722346 C15.6275112,17.1180401 14.9559152,16.5300668 14.3005022,15.9502598 L13.8392857,18.5226429 L16.3071987,17.722346 Z M18.3867188,19.5515961 C17.7070312,18.9554566 17.0354353,18.3674833 16.3719308,17.77951 L15.9188058,20.3600594 L18.3867188,19.5515961 Z M20.4743304,21.3808463 C19.7946429,20.7847068 19.1230469,20.1967335 18.4595424,19.6087602 L17.9983259,22.1893096 L20.4743304,21.3808463 L20.4743304,21.3808463 Z" id="Fill-77" fill="#DBE597"></path>
            <path d="M60,55.8198913 C60,52.0505641 57.0548647,49 53.4257498,49 C50.0702268,49 47.3021214,51.6243209 46.9078274,55.0091935 C43.0051207,56.839532 40.3979517,58.9874634 39.5932699,59.8232344 C38.5954645,60.759298 38,62.0881738 38,62.9573757 C38,62.9573757 38.6839795,62.631425 39.7381127,62.1299624 C38.7322604,63.2415378 38.1287491,64.6707062 38.1287491,65.6318429 C38.1287491,65.6318429 39.2472568,65.0969494 40.8888076,64.3196824 C40.1485004,65.3226076 39.7139722,66.4676139 39.7139722,67.2783117 C39.7139722,67.2783117 40.9209949,66.7099875 42.6671544,65.8825742 C41.8463789,66.9189302 41.3716167,68.1475136 41.3716167,69 C41.3716167,69 51.3013899,64.2946093 55.405267,62.3305474 C58.0687637,61.4613456 60,58.8704555 60,55.8198913" id="Fill-78" fill="#85AE3F"></path>
            <path d="M113.895547,25.9928827 C98.8772114,25.9928827 78.131752,27.2708993 64.571825,28.966729 C59.43462,29.5074284 56.706248,27.6723276 55.354352,26.5008123 C53.6255637,24.9688309 51.5444631,23.3713101 49.2093699,21.8393286 C41.8271982,16.981227 34.805532,14.6054269 33.5355691,16.5388366 L10.5697229,3.50470559 C10.4058567,2.39053726 9.79135852,1.34190824 8.77538816,0.670130272 C6.88273369,-0.566924277 4.34280778,-0.042609766 3.10561807,1.84164551 C2.08964771,3.37362697 2.31086706,5.25788224 3.42515713,6.60963059 C6.07978937,9.71455558 37.558484,36.5774818 37.558484,36.5774818 C38.7383205,37.3557612 39.0660529,38.9450895 38.2876885,40.1247972 C37.77151,40.9030765 36.9030192,41.3045048 36.0345284,41.2635428 C25.2685199,39.3219406 1.62262907,34.8488824 1.62262907,34.8488824 C0.877037918,34.701419 0.254346406,35.2093487 0.229766477,35.9630508 C0.229766477,35.9630508 -0.0733859695,36.4054411 0.0167404336,36.8232543 C0.0986735274,37.2492598 0.754138277,37.8145364 1.45876288,38.0848861 L34.1254874,50.3571226 C34.1910338,50.3816998 34.2647736,50.3980846 34.3385134,50.406277 L34.3385134,50.4144695 L37.0423055,51.7252557 C40.4916887,57.8695664 56.1327163,66.6600269 69.7581898,66.6600269 C71.2411788,66.6600269 72.6913946,66.5862951 74.1088371,66.4552165 L121.392426,66.4552165 L145.947774,63.7025653 C152.297588,63.7025653 158.188578,67.5284228 158.188578,78.0065206 C158.188578,89.328437 144.497558,99.5771472 126.898329,106 C168.356475,104.468019 178,77.8180951 178,68.3722415 C178,35.0209231 148.790852,25.9928827 113.895547,25.9928827" id="Fill-79" fill="#98C64D"></path>
            <path d="M40.6705283,25.1036644 C41.2772617,24.1764222 41.0230896,22.937364 40.0965913,22.3301435 C39.1782921,21.7229229 37.940228,21.9772991 37.3334946,22.8963356 C36.7185621,23.8235778 36.9809333,25.062636 37.8992325,25.6698565 C38.8257308,26.2770771 40.0637949,26.0227009 40.6705283,25.1036644" id="Fill-80" fill="#212830"></path>
            <path d="M7.92014176,5.77341742 C8.06885917,5.541607 8.00342351,5.23252644 7.77737304,5.08393002 C7.54537388,4.92938974 7.23604166,4.99477216 7.08137555,5.22658258 C6.93265813,5.45244914 6.9921451,5.76747356 7.22414426,5.91606998 C7.45614343,6.07061026 7.76547565,6.00522784 7.92014176,5.77341742" id="Fill-81" fill="#212830"></path>
            <path d="M92,65.1678414 C92,63.3608596 91.4588634,61.6776438 90.515974,60.2832149 C89.1549336,57.9069102 85.7687306,54.2681935 78.242013,50.8027491 C74.0769013,48.797742 69.0344925,50.6789832 66.9929319,54.9942866 C64.9923664,59.2270795 66.599378,64.2107186 70.5841108,66.2982363 C67.7472434,67.9649501 65.8450664,69.5326511 65.0989539,70.2834974 L65.107153,70.2834974 C63.7953068,71.4716498 63,73.1713678 63,74.2852606 C63,74.2852606 63.9100933,73.8644567 65.3039299,73.2291252 C63.9674866,74.6400561 63.1721798,76.46354 63.1721798,77.6929476 C63.1721798,77.6929476 64.6562058,77.0163609 66.820752,76.0179828 C65.8368674,77.3051479 65.2711337,78.7655852 65.2711337,79.8052185 C65.2711337,79.8052185 66.8617472,79.0708744 69.1574781,78.0147389 C68.083404,79.3431593 67.452078,80.9108603 67.452078,82 C67.452078,82 80.5377439,75.9932297 85.9491094,73.4766569 C89.458298,72.3627641 92,69.0623408 92,65.1678414" id="Fill-82" fill="#98C64D"></path>
            <path d="M66.0485035,60 C65.8121524,62.1715006 66.4473462,64.3203026 67.7842076,65.9394704 C68.3750856,65.9773014 68.9733495,66 69.5568415,66 C69.6676311,66 69.7784208,66 69.8892104,66 C69.9261403,65.9773014 69.9630701,65.9546028 70,65.9319042 C67.7472777,64.7288777 66.3365566,62.4741488 66.0485035,60" id="Fill-83" fill="#84B140"></path>
            <path d="M139.747322,60.0816476 C141.148078,58.48233 142,56.3858153 142,54.082135 C142,49.3670485 138.436673,45.4889106 133.890359,45.0497197 C133.636421,45.0165732 133.390674,45 133.128544,45 C133.10397,45 133.079395,45 133.05482,45 C133.046629,45 133.030246,45 133.022054,45 C132.989288,45 132.964713,45.0082866 132.931947,45.0082866 C125.657845,45.1160127 119.792691,51.1155252 119.792691,58.4989032 C119.792691,60.7362905 120.333333,62.8410919 121.283554,64.6972947 C119.710775,65.7745552 118.621298,66.7026566 118.097038,67.2330002 L118.10523,67.2330002 C116.794581,68.4262735 116,70.1333171 116,71.2520107 C116,71.2520107 116.909263,70.8293931 118.301827,70.1913234 C116.966604,71.6083354 116.172023,73.4396783 116.172023,74.6743846 C116.172023,74.6743846 117.654694,73.9948818 119.817265,72.9922008 C118.834279,74.2766269 118.269061,75.7516451 118.269061,76.7957592 C118.269061,76.7957592 119.858223,76.0582501 122.151859,74.9975628 C121.078765,76.3317085 120.448015,77.8978796 120.448015,79 C120.448015,79 123.05293,77.7984402 126.411468,76.2405557 C126.411468,76.2405557 135.069943,72.2629783 137.773157,71.0779917 L137.764965,71.0697051 C140.181474,70.1084572 141.89351,67.738484 141.89351,64.9541799 C141.89351,63.0233975 141.057971,61.291494 139.747322,60.0816476" id="Fill-84" fill="#98C64D"></path>
            <path d="M121.009009,64.0103093 C119.963964,62.1628866 119.369369,60.0680412 119.369369,57.8412371 C119.369369,54.4515464 120.738739,51.3587629 123,49 C119.936937,51.457732 118,55.0701031 118,59.0948454 C118,61.214433 118.540541,63.2185567 119.495495,65 C119.945946,64.6865979 120.441441,64.356701 121.009009,64.0103093" id="Fill-85" fill="#84B140"></path>
            <path d="M79.507165,50.983871 C78.056962,50.3064516 76.5078815,50.0887097 75,50.266129 C75.8486984,50.3709677 76.6973967,50.6048387 77.5048961,50.983871 C85.0690232,54.3709677 88.4720564,57.9274194 89.8398615,60.25 C90.7874373,61.6129032 91.3312634,63.2580645 91.3312634,65.0241935 C91.3312634,65.3548387 91.3065441,65.6774194 91.2735849,66 L93.2758538,66 C93.308813,65.6774194 93.3335324,65.3548387 93.3335324,65.0241935 C93.3335324,63.2580645 92.7897062,61.6129032 91.8421304,60.25 C90.4743253,57.9274194 87.0712921,54.3709677 79.507165,50.983871 Z M141.734058,59.6774194 C143.143062,58.1209677 144,56.0806452 144,53.8387097 C144,49.25 140.415691,45.4758065 135.834368,45.0483871 C135.587175,45.016129 135.339981,45 135.076308,45 C135.051588,45 135.026869,45 135.00215,45 C134.99391,45 134.97743,45 134.96919,45 C134.936231,45 134.911512,45.0080645 134.878553,45.0080645 C134.557201,45.0080645 134.235849,45.0322581 133.922737,45.0564516 C138.462861,45.5241935 141.997731,49.2741935 141.997731,53.8387097 C141.997731,56.0806452 141.140793,58.1209677 139.731789,59.6774194 C140.893599,60.7096774 141.676379,62.1370968 141.849415,63.7419355 L143.818725,63.5241935 C143.59625,62.0080645 142.83819,60.6612903 141.734058,59.6774194 L141.734058,59.6774194 Z" id="Fill-86" fill="#84B140"></path>
            <path d="M97.1970482,39.9326923 C98.8226957,41.3533654 101.458215,41.3533654 103.083863,39.9326923 C104.167628,38.9807692 105.932851,38.9807692 107.016616,39.9326923 C107.796599,40.6177885 108.847522,41 109.955918,41 C111.064314,41 112.107028,40.6177885 112.89522,39.9326923 C113.420682,39.4711538 114.118561,39.2115385 114.857492,39.2115385 C115.604633,39.2115385 116.302512,39.4711538 116.827974,39.9326923 C117.090705,40.1634615 117.534063,40.1634615 117.796794,39.9326923 C118.067735,39.6947115 118.067735,39.3125 117.796794,39.0745192 C117.016812,38.3822115 115.974098,38 114.857492,38 C113.749096,38 112.706383,38.3822115 111.91819,39.0745192 C111.392728,39.5360577 110.694849,39.7884615 109.955918,39.7884615 C109.208777,39.7884615 108.510898,39.5360577 107.993647,39.0745192 C106.367999,37.6466346 103.724269,37.6466346 102.106832,39.0745192 C101.023067,40.0264423 99.2578438,40.0264423 98.1740788,39.0745192 C97.9031375,38.8365385 97.4679894,38.8365385 97.1970482,39.0745192 C96.9343173,39.3125 96.9343173,39.6947115 97.1970482,39.9326923" id="Fill-87" fill="#84B140"></path>
            <path d="M58.1939909,45.9854327 C58.9386022,46.6366752 59.93403,47 61,47 C62.0581319,47 63.0535598,46.6366752 63.8060091,45.9854327 C64.0646636,45.7592117 64.0646636,45.3958869 63.8060091,45.1696658 C63.5473547,44.9434447 63.1319399,44.9434447 62.8732854,45.1696658 C62.3716525,45.6083976 61.7054213,45.848329 61,45.848329 C60.2867407,45.848329 59.6205095,45.6083976 59.1188766,45.1696658 C58.8680601,44.9434447 58.4448073,44.9434447 58.1939909,45.1696658 C57.9353364,45.3958869 57.9353364,45.7592117 58.1939909,45.9854327" id="Fill-88" fill="#84B140"></path>
            <path d="M146.193928,46.9854327 C146.946131,47.6366752 147.941234,48 148.999021,48 C150.064643,48 151.059745,47.6366752 151.811949,46.9854327 C152.062684,46.7592117 152.062684,46.3958869 151.811949,46.1696658 C151.553379,45.9434447 151.130264,45.9434447 150.87953,46.1696658 C150.378061,46.6083976 149.712047,46.848329 148.999021,46.848329 C148.29383,46.848329 147.627816,46.6083976 147.126347,46.1696658 C146.867777,45.9434447 146.452498,45.9434447 146.193928,46.1696658 C145.935357,46.3958869 145.935357,46.7592117 146.193928,46.9854327" id="Fill-89" fill="#84B140"></path>
            <path d="M105.193991,51.9794521 C105.938602,52.6369863 106.93403,53 108,53 C109.058132,53 110.05356,52.6369863 110.806009,51.9794521 C111.064664,51.760274 111.064664,51.390411 110.806009,51.1643836 C110.547355,50.9452055 110.13194,50.9452055 109.873285,51.1643836 C109.371653,51.6027397 108.705421,51.8424658 108,51.8424658 C107.286741,51.8424658 106.620509,51.6027397 106.118877,51.1643836 C105.86806,50.9452055 105.444807,50.9452055 105.193991,51.1643836 C104.935336,51.390411 104.935336,51.760274 105.193991,51.9794521" id="Fill-90" fill="#84B140"></path>
            <path d="M76.1939909,34.97902 C76.9386022,35.6368326 77.93403,36 79,36 C80.0581319,36 81.0535598,35.6368326 81.8060091,34.97902 C82.0646636,34.7597492 82.0646636,34.3897296 81.8060091,34.1704587 C81.5473547,33.9443356 81.1319399,33.9443356 80.8732854,34.1704587 C80.3716525,34.6021482 79.7054213,34.848828 79,34.848828 C78.2867407,34.848828 77.6205095,34.6021482 77.1267146,34.1704587 C76.8680601,33.9443356 76.4526453,33.9443356 76.1939909,34.1636065 C75.9353364,34.3897296 75.9353364,34.7597492 76.1939909,34.97902" id="Fill-91" fill="#84B140"></path>
            <path d="M57.8060091,48.0171821 C57.0535598,47.3573883 56.0581319,47 55,47 C53.93403,47 52.9386022,47.3573883 52.1939909,48.0171821 C51.9353364,48.2439863 51.9353364,48.6082474 52.1939909,48.8350515 C52.4448073,49.0549828 52.8680601,49.0549828 53.1188766,48.8350515 C53.6205095,48.395189 54.2867407,48.1546392 55,48.1546392 C55.7054213,48.1546392 56.3716525,48.395189 56.8732854,48.8350515 C57.1319399,49.0549828 57.5473547,49.0549828 57.8060091,48.8350515 C58.0646636,48.6082474 58.0646636,48.2439863 57.8060091,48.0171821" id="Fill-92" fill="#84B140"></path>
            <path d="M156.806009,50.0162532 C155.26192,48.6612489 152.745918,48.6612489 151.193991,50.0162532 C150.935336,50.2420873 150.935336,50.6047904 151.193991,50.8306245 C151.452645,51.0564585 151.86806,51.0564585 152.126715,50.8306245 C152.628347,50.3926433 153.294579,50.1531223 154,50.1531223 C154.713259,50.1531223 155.379491,50.3926433 155.873285,50.8306245 C156.13194,51.0564585 156.547355,51.0564585 156.806009,50.8306245 C157.064664,50.6047904 157.064664,50.2420873 156.806009,50.0162532" id="Fill-93" fill="#84B140"></path>
            <path d="M130.806009,33.0172291 C130.061398,32.3574668 129.06597,32.0000955 128.007838,32.0000955 C126.941868,31.993223 125.94644,32.3574668 125.193991,33.0172291 C124.935336,33.2440224 124.935336,33.6082661 125.193991,33.8350594 C125.452645,34.0549802 125.86806,34.0549802 126.126715,33.8350594 C126.628347,33.3952179 127.294579,33.1546795 128.007838,33.1546795 C128.713259,33.1546795 129.379491,33.3952179 129.881123,33.8350594 C130.13194,34.0549802 130.555193,34.0549802 130.806009,33.8350594 C131.064664,33.6082661 131.064664,33.2440224 130.806009,33.0172291" id="Fill-94" fill="#84B140"></path>
            <path d="M87.1970482,45.9301205 C88.8226957,47.3542169 91.4582152,47.3542169 93.0838628,45.9301205 C94.1676278,44.9759036 95.9328511,44.9759036 97.0166162,45.9301205 C97.7965986,46.6168675 98.8393119,47 99.9559183,47 C101.064314,47 102.107028,46.6168675 102.89522,45.9301205 C103.420682,45.4674699 104.118561,45.2144578 104.857492,45.2144578 C105.604633,45.2144578 106.302512,45.4674699 106.827974,45.9301205 C107.090705,46.1686747 107.534063,46.1686747 107.796794,45.9301205 C108.067735,45.6915663 108.067735,45.3084337 107.796794,45.0698795 C107.016812,44.3759036 105.965888,44 104.857492,44 C103.749096,44 102.706383,44.3759036 101.91819,45.0698795 C101.392728,45.5325301 100.694849,45.7855422 99.9559183,45.7855422 C99.2087772,45.7855422 98.5108983,45.5325301 97.9936468,45.0698795 C96.3679992,43.6457831 93.7242694,43.6457831 92.1068322,45.0698795 C91.0230671,46.0240964 89.2578438,46.0240964 88.1740788,45.0698795 C87.9031375,44.8313253 87.4679894,44.8313253 87.1970482,45.0698795 C86.9343173,45.3084337 86.9343173,45.6915663 87.1970482,45.9301205" id="Fill-95" fill="#84B140"></path>
        </g>
    </g>
</svg>