<?xml version="1.0" encoding="UTF-8"?>
<svg width="200px" height="200px" viewBox="0 0 200 200" version="1.1" xmlns="http://www.w3.org/2000/svg" xmlns:xlink="http://www.w3.org/1999/xlink">
    <!-- Generator: Sketch 56.3 (81716) - https://sketch.com -->
    <title>apple</title>
    <desc>Created with Sketch.</desc>
    <g id="apple" stroke="none" stroke-width="1" fill="none" fill-rule="evenodd">
        <g id="typeText" transform="translate(10.000000, 6.000000)" fill="#725F5F" fill-opacity="0.87" font-family="Roboto-Black, Roboto Black" font-size="17" font-weight="700">
            <g id="vegetable">
                <text>
                    <tspan x="0" y="16">fruit</tspan>
                </text>
            </g>
        </g>
        <g id="firstLetter" transform="translate(10.000000, 152.000000)">
            <g id="Group" transform="translate(0.000000, -5.000000)">
                <rect id="Rectangle" stroke="#979797" x="0.5" y="6.5" width="34" height="38"></rect>
                <text id="C" fill="#131313" font-family="Roboto-Bold, Roboto" font-size="43" font-weight="bold">
                    <tspan x="3.03369141" y="40">A</tspan>
                </text>
            </g>
        </g>
        <g id="nameText" transform="translate(104.000000, 161.000000)" fill="#454545" fill-opacity="0.87" font-family="Roboto-Black, Roboto Black" font-size="26" font-weight="700">
            <text id="Carrot">
                <tspan x="17.7119141" y="28">Apple</tspan>
            </text>
        </g>
        <g id="colorText" transform="translate(133.000000, 5.000000)" fill="#454545" fill-opacity="0.87" font-family="Roboto-Black, Roboto Black" font-size="18" font-weight="700">
            <text id="orange">
                <tspan x="30.2548828" y="17">red</tspan>
            </text>
        </g>
        <g transform="translate(40.000000, 26.000000)">
            <path d="M25.024628,10.9345787 C25.3447922,11.9524366 33.1026167,35.7636387 56.9671626,28.6886915 L56.9917907,28.7053777 L56.9835813,28.6886915 L57,28.6803484 L56.975372,28.6636622 C49.9645972,4.42696211 26.0590046,10.6342271 25.0410467,10.9095494 L25.0164187,10.9012063 L25.0164187,10.9178925 L25,10.9178925 L25.024628,10.9345787" id="Fill-1228" fill="#526631"></path>
            <path d="M54.57346,39 C54.4186823,39 54.2639046,38.9917689 54.1091269,38.9753068 C52.1540402,38.7201435 50.7773333,36.9093075 51.0298653,34.93385 C53.066414,19.1384211 63.4691046,5.84523837 78.172986,0.231646657 C80.014026,-0.46799454 82.0750132,0.470347771 82.7674398,2.33057025 C83.4680125,4.19902379 82.5312001,6.27325416 80.6901601,6.98112643 C68.4545757,11.6481448 59.803317,22.7189378 58.1089085,35.8639612 C57.8726688,37.6830283 56.3411842,39 54.57346,39" id="Fill-1229" fill="#3F4E3F"></path>
            <path d="M61.0218378,34.7503548 C59.6362168,34.979911 58.2668973,35.242261 56.92203,35.5374047 C54.9903114,35.9555249 53.0096886,35.9555249 51.0861207,35.5374047 C49.7331027,35.242261 48.3637832,34.979911 46.9781622,34.7503548 C20.7654748,30.4297787 1,45.1951629 1,68.0360072 C1,90.8768515 15.9647059,131 38.6725875,131 C42.0225298,131 45.46213,130.245744 48.8854287,128.884803 C52.1620146,127.58945 55.8379854,127.58945 59.1145713,128.884803 C62.5460208,130.245744 65.9774702,131 69.3274125,131 C92.0352941,131 107,90.8768515 107,68.0360072 C107,45.1951629 87.2345252,30.4297787 61.0218378,34.7503548" id="Fill-1230" fill="#AF2A30"></path>
            <path d="M60.5339874,34.1581594 L60.4686689,33.7556785 C59.0724844,33.9856676 57.7007943,34.2485123 56.3372691,34.5442126 C55.3983146,34.74956 54.4511953,34.8481267 53.504076,34.8481267 C52.5487919,34.8481267 51.6016726,34.74956 50.6627181,34.5442126 C49.3073577,34.2485123 47.9275029,33.9856676 46.5394832,33.7556785 C43.436851,33.2464169 40.4240318,33 37.5255201,33 C26.6009888,33 17.211444,36.4991199 10.5571143,42.5774034 C3.90278473,48.6556869 0,57.30492 0,67.5065795 C0,79.0388903 3.76398276,94.8424273 10.3856531,107.820384 C13.7005707,114.309362 17.7258277,120.083731 22.379776,124.256391 C27.0337244,128.42905 32.3326936,131 38.1460466,131 C41.5671068,131 45.0534857,130.236108 48.5235348,128.856173 C50.1156751,128.223703 51.8057931,127.911575 53.504076,127.911575 C55.1941941,127.911575 56.8843122,128.223703 58.4764524,128.856173 C61.9465016,130.236108 65.4410452,131 68.8539407,131 C74.6672937,131 79.9662629,128.42905 84.6202112,124.256391 C91.6011337,117.997402 97.1777068,108.124298 101.031503,97.6680077 C104.885298,87.2035035 107,76.1558126 107,67.5065795 C107.008152,57.30492 103.097203,48.6556869 96.4428729,42.5774034 C89.7885433,36.4991199 80.4071632,33 69.4744671,33 C66.5759554,33 63.5631363,33.2464169 60.4686689,33.7556785 L60.5339874,34.1581594 L60.599306,34.5688542 C63.6529493,34.0595927 66.6167795,33.8213897 69.4744671,33.8213897 C80.235702,33.8213897 89.4047967,37.2630123 95.8958298,43.1852317 C102.378698,49.1156651 106.183505,57.5102674 106.183505,67.5065795 C106.19167,78.8663985 102.452182,94.5960104 95.887665,107.442545 C92.6135716,113.865812 88.6291386,119.566256 84.0731682,123.648563 C79.5171977,127.730869 74.4141842,130.17861 68.8539407,130.17861 C65.5635176,130.17861 62.1669518,129.43936 58.7785508,128.092281 C57.0884327,127.418741 55.292172,127.090185 53.504076,127.090185 C51.7078153,127.090185 49.9115545,127.418741 48.2214364,128.092281 C44.8330355,129.43936 41.4446345,130.17861 38.1460466,130.17861 C32.5858031,130.17861 27.4827896,127.730869 22.9268191,123.648563 C16.0928634,117.52921 10.5489495,107.754673 6.73597783,97.3805213 C2.91484132,87.00637 0.816482161,76.0243902 0.816482161,67.5065795 C0.816482161,57.5102674 4.62945385,49.1156651 11.1123222,43.1852317 C17.5951906,37.2630123 26.7724501,33.8213897 37.5255201,33.8213897 C40.3832077,33.8213897 43.3470379,34.0595927 46.4006812,34.5688542 C47.7805361,34.7988433 49.1440613,35.0534741 50.4912569,35.3491744 C51.4873651,35.5627357 52.4916382,35.6695164 53.504076,35.6695164 C54.5083491,35.6695164 55.520787,35.5627357 56.5087304,35.3491744 C57.855926,35.0534741 59.2194512,34.7988433 60.599306,34.5688542 L60.5339874,34.1581594" id="Fill-1231" fill="#D8252D"></path>
            <path d="M47,130 C47.6023778,129.744898 48.2126816,129.459184 48.8150594,129.153061 C50.1624835,128.469388 51.5733157,128.081633 53,128 C50.994716,129.010204 48.9815059,129.693878 47,130" id="Fill-1232" fill="#F1B4B3"></path>
            <path d="M70.0174768,130 C67.1747679,130 64.2583288,129.360016 61.3500819,128.211327 C59.9574003,127.661597 58.4827963,127.390835 57,127.390835 C56.3855816,127.390835 55.7711633,127.431859 55.1649372,127.530318 C54.5341344,127.448269 53.8951393,127.407244 53.2561442,127.407244 C51.4538504,127.407244 49.6515565,127.735441 47.9557619,128.408245 C46.251775,129.081049 44.5477881,129.606164 42.8519934,129.958975 C24.2146368,128.662598 12,95.6952171 12,76.7746648 C12,59.7248349 25.0830147,48 43.4664118,48 C45.8995085,48 48.4391043,48.2051231 51.0442381,48.6317791 C52.2157291,48.8286972 53.3790279,49.0502301 54.5259421,49.2963778 C55.3451666,49.4686812 56.1725833,49.5589354 57,49.5589354 C57.835609,49.5589354 58.6630257,49.4686812 59.4822501,49.2963778 C60.6291644,49.0502301 61.7842709,48.8286972 62.9639541,48.6317791 C65.5690879,48.2051231 68.1004915,48 70.5417804,48 C88.9169853,48 102,59.7248349 102,76.7746648 C102,96.0808485 89.2938285,130 70.0174768,130" id="Fill-1233" fill="#BC262E"></path>
            <path d="M44.1097804,130 C43.7345309,130 43.3672655,129.981013 43,129.952532 C44.6526946,129.544304 46.3133733,128.936709 47.9740519,128.158228 C49.6267465,127.379747 51.3832335,127 53.1397206,127 C53.762475,127 54.3852295,127.047468 55,127.142405 C54.1696607,127.294304 53.3473054,127.560127 52.5568862,127.93038 C52.5329341,127.939873 52.508982,127.949367 52.4850299,127.968354 C51.0479042,128.044304 49.6267465,128.405063 48.2694611,129.041139 C47.6626747,129.325949 47.0479042,129.591772 46.4411178,129.829114 C45.6586826,129.943038 44.8762475,130 44.1097804,130" id="Fill-1234" fill="#D8252D"></path>
            <path d="M74.3128293,117 C73.6127967,117 72.9288568,116.668895 72.4702148,116.056351 C71.697765,115.005094 71.8989238,113.515123 72.9127641,112.720471 C80.7740499,106.586756 90.3733477,84.4606813 90.3733477,67.3756765 C90.3733477,66.0678128 91.4113271,65 92.690697,65 C93.970067,65 95,66.0678128 95,67.3756765 C95,84.8911175 85.6260001,108.772047 75.7128946,116.511621 C75.2944843,116.842725 74.8036568,117 74.3128293,117" id="Fill-1235" fill="#FFFFFE"></path>
            <path d="M14.2919024,70 C13.0301582,70 12,68.922848 12,67.5951955 C12,56.9990259 18.0212349,48.9579611 28.0992168,46.0855557 C29.3210323,45.7348551 30.5827765,46.4947065 30.9181769,47.7722589 C31.2535772,49.0498112 30.5268765,50.3691137 29.3050609,50.7198143 C21.2235096,53.0244186 16.5917905,59.17838 16.5917905,67.5951955 C16.5917905,68.922848 15.5616323,70 14.2919024,70" id="Fill-1236" fill="#FFFFFE"></path>
        </g>
    </g>
</svg>