<?xml version="1.0" encoding="UTF-8"?>
<svg width="200px" height="200px" viewBox="0 0 200 200" version="1.1" xmlns="http://www.w3.org/2000/svg" xmlns:xlink="http://www.w3.org/1999/xlink">
    <!-- Generator: Sketch 56.3 (81716) - https://sketch.com -->
    <title>ball</title>
    <desc>Created with Sketch.</desc>
    <g id="ball" stroke="none" stroke-width="1" fill="none" fill-rule="evenodd">
        <g id="typeText" transform="translate(10.000000, 6.000000)" fill="#725F5F" fill-opacity="0.87" font-family="Roboto-Black, Roboto Black" font-size="17" font-weight="700">
            <g id="vegetable">
                <text>
                    <tspan x="0" y="16">toy</tspan>
                </text>
            </g>
        </g>
        <g id="firstLetter" transform="translate(10.000000, 152.000000)">
            <g id="Group" transform="translate(0.000000, -5.000000)">
                <rect id="Rectangle" stroke="#979797" x="0.5" y="6.5" width="34" height="38"></rect>
                <text id="C" fill="#131313" font-family="Roboto-Bold, Roboto" font-size="43" font-weight="bold">
                    <tspan x="3.77905273" y="40">B</tspan>
                </text>
            </g>
        </g>
        <g id="nameText" transform="translate(104.000000, 161.000000)" fill="#454545" fill-opacity="0.87" font-family="Roboto-Black, Roboto Black" font-size="26" font-weight="700">
            <text id="Carrot">
                <tspan x="41.1347656" y="28">Ball</tspan>
            </text>
        </g>
        <g id="colorText" transform="translate(133.000000, 5.000000)" fill="#454545" fill-opacity="0.87" font-family="Roboto-Black, Roboto Black" font-size="18" font-weight="700">
            <text id="orange">
                <tspan x="6.71777344" y="17">brown</tspan>
            </text>
        </g>
        <g transform="translate(39.000000, 37.000000)">
            <path d="M107.097368,20.2332322 C129.889567,45.4179861 127.951175,84.307366 102.766385,107.099532 C77.5815954,129.889911 38.6921602,127.949733 15.8999613,102.766768 C-6.88866117,77.5820139 -4.95026924,38.692634 20.2309441,15.9004675 C45.4157337,-6.88991078 84.3087453,-4.94973342 107.097368,20.2332322" id="Fill-373" fill="#A16C20"></path>
            <path d="M5,84.9426997 C6.8979941,89.5088154 9.37573264,93.8958678 12.4349995,98 C30.1020423,96.9220386 97.8358149,67.3157025 103,15.7293388 C99.2361207,12.2644628 95.1315301,9.3546832 90.7986093,7 C85.8395646,50.0038567 26.3542175,82.6202479 5,84.9426997" id="Fill-374" fill="#A07F3E"></path>
            <path d="M12,97.918132 C13.1460716,99.4568941 14.3632173,100.959995 15.6745364,102.413172 C18.2261004,105.242854 20.9926639,107.762287 23.9067063,110 C43.560501,109.616647 105.306217,78.3867296 113,29.0910677 C111.070335,25.9582693 108.849266,22.9467175 106.294149,20.1170356 C104.986383,18.6656424 103.616428,17.2980519 102.203828,16 C96.8412793,66.8950473 30.1150382,96.6236461 12,97.918132" id="Fill-375" fill-opacity="0.592192963" fill="#7986CB"></path>
            <path d="M24,109.889878 C30.0108529,114.508544 36.7056932,117.892834 43.7210407,120 C70.6132062,111.416371 114.268435,88.4566345 122,49.5266104 C120.590843,42.3732897 117.871008,35.4123393 113.853029,29 C107.49123,73.2326724 52.2995323,106.674803 24,109.889878" id="Fill-376" fill-opacity="0.447770979" fill="#E53935"></path>
            <path d="M74.2287746,109.139514 C53.2707406,111.123214 30.7678315,107.632265 12,97.454711 C13.2355445,99.1829749 14.5421994,100.87863 15.9821865,102.501821 C38.6415386,128.014548 77.3043025,129.980131 102.3423,106.891322 C105.634715,103.855085 108.512911,100.530803 111,97 C99.7556565,103.53262 87.3877676,107.894947 74.2287746,109.139514" id="Fill-377" fill="#EC407A"></path>
            <path d="M112.742899,84.582497 C98.1381611,93.5891672 79.7557542,98.3033042 62.6905607,98.9010212 C48.2775465,99.4044555 33.1455681,98.6519725 19.8172135,92.8437998 C13.8098678,90.2252301 8.59782076,86.3631956 4,81.8394029 C6.60779873,89.3980325 10.7440622,96.5670787 16.4371939,102.87157 C39.0641528,127.924095 77.6716454,129.854223 102.673849,107.181892 C111.081293,99.5574426 116.864961,90.1184949 120,80 C117.537769,81.659732 115.031158,83.1700348 112.742899,84.582497" id="Fill-378" fill="#81411C"></path>
        </g>
    </g>
</svg>