<?xml version="1.0" encoding="UTF-8"?>
<svg width="200px" height="200px" viewBox="0 0 200 200" version="1.1" xmlns="http://www.w3.org/2000/svg" xmlns:xlink="http://www.w3.org/1999/xlink">
    <!-- Generator: Sketch 56.3 (81716) - https://sketch.com -->
    <title>banana</title>
    <desc>Created with Sketch.</desc>
    <g id="banana" stroke="none" stroke-width="1" fill="none" fill-rule="evenodd">
        <g id="typeText" transform="translate(10.000000, 6.000000)" fill="#725F5F" fill-opacity="0.87" font-family="Roboto-Black, Roboto Black" font-size="17" font-weight="700">
            <g id="vegetable">
                <text>
                    <tspan x="0" y="16">fruit</tspan>
                </text>
            </g>
        </g>
        <g id="firstLetter" transform="translate(10.000000, 152.000000)">
            <g id="Group" transform="translate(0.000000, -5.000000)">
                <rect id="Rectangle" stroke="#979797" x="0.5" y="6.5" width="34" height="38"></rect>
                <text id="C" fill="#131313" font-family="Roboto-Bold, Roboto" font-size="43" font-weight="bold">
                    <tspan x="3.77905273" y="40">B</tspan>
                </text>
            </g>
        </g>
        <g id="nameText" transform="translate(104.000000, 161.000000)" fill="#454545" fill-opacity="0.87" font-family="Roboto-Black, Roboto Black" font-size="26" font-weight="700">
            <text id="Carrot">
                <tspan x="-1.49609375" y="28">Banana</tspan>
            </text>
        </g>
        <g id="colorText" transform="translate(133.000000, 5.000000)" fill="#454545" fill-opacity="0.87" font-family="Roboto-Black, Roboto Black" font-size="18" font-weight="700">
            <text id="orange">
                <tspan x="4.80175781" y="17">yellow</tspan>
            </text>
        </g>
        <g id="BANANA" transform="translate(22.000000, 32.000000)">
            <path d="M1.47764729,13.7310341 C1.62988226,13.4913617 1.80192476,13.2483513 2,13 C1.91624247,13.1048149 1.83814423,13.1989481 1.76513936,13.2837347 L1.71081015,13.3458225 C1.65817872,13.4059075 1.60611323,13.4646573 1.5591411,13.5153957 L1.51896012,13.5574552 L1.38200524,13.6976535 L1.36332958,13.715679 L1.23599549,13.8345138 L1.23542956,13.8345138 C1.1567654,13.8745704 1.09904061,13.9106214 1.05942556,13.9393287 L1.05659592,13.9413315 L1.00056892,13.9960756 L1,13.9967432 C0.99943706,14.0127659 1.07923309,13.971374 1.23542956,13.8345138 L1.23656142,13.8338461 C1.30220922,13.8004656 1.38370303,13.7657498 1.47764729,13.7310341" id="Fill-4" fill="#F9F399"></path>
            <path d="M136.745816,42.8956517 C137.931588,41.5836887 139.070161,40.2161271 140.178924,38.8145424 C142.006436,36.5059523 143.737895,34.090314 145.34763,31.5543502 L145.394829,31.4788356 C145.482603,31.3394239 145.573688,31.1950333 145.669743,31.0398549 C145.718598,30.9593613 145.772421,30.8713992 145.822932,30.7867564 C145.890005,30.6780486 145.956249,30.5701705 146.025805,30.4539942 C146.086253,30.3552443 146.147529,30.2506856 146.208805,30.1469567 C146.275877,30.0349295 146.34295,29.9220724 146.412506,29.8034066 C146.480406,29.6880601 146.549963,29.5693942 146.619519,29.4490687 C146.684936,29.3370415 146.750352,29.2241845 146.816596,29.1080081 C146.893605,28.9744053 146.970614,28.8391429 147.050107,28.7005611 C147.113867,28.5877041 147.179283,28.4715277 147.244699,28.3553513 C147.329989,28.2043221 147.41445,28.0532928 147.501396,27.8964548 C147.555219,27.7977049 147.610699,27.6964655 147.666178,27.5968857 C147.767201,27.4126632 147.868223,27.2276109 147.97173,27.0367497 L148.056191,26.8799117 C148.615955,25.8401333 149.20056,24.7082437 149.78351,23.5141168 L149.805039,23.4726252 C149.946636,23.1813545 150.088233,22.8867645 150.229002,22.5896849 L150.274545,22.4925947 C150.414486,22.1955152 150.554427,21.896776 150.69354,21.5930578 L150.730802,21.5109045 C150.874055,21.198888 151.015652,20.8835522 151.168014,20.5391723 C153.526309,15.2000391 155.44822,9.23438341 154.908329,4.92424074 C154.875207,4.66782293 154.832976,4.41804377 154.782465,4.17407343 L154.772529,4.13258188 C154.663226,3.62389542 154.514176,3.14259339 154.308819,2.67871781 C154.211109,2.45798274 154.10429,2.24305649 153.983394,2.03891804 L153.876575,1.8804203 C153.778037,1.72607172 153.681155,1.57089331 153.566883,1.42816236 C153.41121,1.22983273 153.242287,1.04312073 153.055975,0.867196544 C152.902785,0.721976104 152.738003,0.599161103 152.564111,0.492112892 C152.492071,0.447302013 152.41175,0.416598263 152.336397,0.378426033 C152.232062,0.325316843 152.129384,0.269718161 152.020081,0.228226606 C151.912434,0.188394714 151.798162,0.16266995 151.685547,0.133625862 C151.600258,0.111220423 151.515796,0.0838359967 151.427195,0.067239375 C151.290566,0.0423444423 151.147313,0.0307268071 151.00406,0.0191091719 L150.792078,0.001682719 C150.626468,-0.00329626753 150.455061,0.00334238118 150.281169,0.0141301853 L150.121355,0.0240881584 C149.925935,0.0415146112 149.726374,0.0705586993 149.522673,0.107071267 L149.41751,0.126157382 C149.195592,0.169308599 148.967877,0.22324762 148.736023,0.287144613 L148.683855,0.301251742 C148.437096,0.370957553 148.184539,0.451451169 147.921219,0.545222082 C143.103607,2.26297243 136.628233,7.71828201 131.850367,12.2416913 L131.796544,12.292311 C130.96021,13.0847997 130.1777,13.8465846 129.464747,14.5544305 L129.343023,14.6772455 C129.004349,15.0141569 128.678096,15.3419402 128.370889,15.6547865 C128.070305,15.9601644 127.794564,16.2456263 127.532899,16.516981 L127.381365,16.6746489 C127.133778,16.9327264 126.899439,17.1791862 126.694081,17.3982617 C121.430149,23.0079198 115.495493,27.4541548 109.101269,30.8199497 C108.035565,31.3809155 106.956612,31.9120074 105.866066,32.4132254 C102.594429,33.9168793 99.2176288,35.1549873 95.7596797,36.1358476 C94.6078581,36.4628011 93.4460998,36.7623701 92.276889,37.032895 C89.9384675,37.5739449 87.56858,38.0029676 85.174679,38.3232824 C83.9773144,38.4826099 82.7749815,38.6153829 81.5668523,38.7216013 C73.1116037,39.4609808 64.4137356,38.8834184 55.8069534,37.1200273 C54.5772948,36.8685885 53.3501203,36.5922547 52.124602,36.2926857 C49.6752214,35.6927178 47.2374335,34.9981492 44.8178628,34.2114693 C41.1893348,33.0306197 36.6781024,32.5908092 33.1630177,31.0066617 C30.8187998,29.9502867 28.5060479,28.8067795 26.2313865,27.5794593 C19.3941534,23.8875408 12.5461556,14.7054598 4.92475631,13.4167321 C4.82373385,13.3993056 4.72767971,13.3860283 4.62996946,13.3719212 C4.49582488,13.3528351 4.36333641,13.3345788 4.23581626,13.3204717 C4.14473044,13.3105137 4.05695683,13.3022154 3.97001127,13.2947469 C3.84414722,13.284789 3.72159538,13.2756608 3.60318381,13.2706818 C3.52534684,13.2665327 3.44750986,13.2632133 3.37215704,13.2607238 C3.24960521,13.2582344 3.13202169,13.2582344 3.01692233,13.259894 L2.83723484,13.2632133 C2.70391832,13.2681923 2.57888233,13.2764906 2.4579866,13.2872784 L2.3594483,13.2947469 C1.88497396,13.3420473 1.50738182,13.4275199 1.21756329,13.5179715 C0.964179094,13.8565426 0.756337806,14.1876452 0.584930847,14.512939 L0.518686612,14.6623086 C0.387026194,14.9295142 0.275239047,15.1934005 0.194917912,15.4539674 C0.170076324,15.5336312 0.15765553,15.6116353 0.137782259,15.6904693 C0.0789905006,15.9203325 0.0334475889,16.1493659 0.0119182125,16.3742501 C0.00529378893,16.4555735 0.00446573599,16.536897 0.00198157717,16.6173906 C-0.00464284635,16.8032728 0.00612184187,16.9874953 0.0226829007,17.1708879 C6.83507444,20.9839618 15.4666983,28.6350044 20.5418348,34.5558492 C28.6989843,44.0748417 35.2828332,51.6794137 46.4126928,57.6093867 C56.9049516,63.1999587 69.3828813,66.4993672 81.3614952,66.9541146 C82.1166794,66.9856482 82.8702076,67.0022448 83.6204236,67 C85.2492037,66.9939465 86.8622508,66.9358583 88.4579089,66.8246609 C91.6483968,66.6039259 94.7718125,66.175733 97.8173912,65.5517001 C99.3410087,65.2388537 100.843925,64.8778772 102.327796,64.4687705 C115.665244,60.7942784 127.375569,53.2677104 136.745816,42.8956517" id="Fill-5" fill="#F9F399"></path>
            <path d="M136.745816,42.9642636 C137.931588,41.656035 139.070161,40.2923661 140.178924,38.8947709 C142.006436,36.5927522 143.737895,34.1839899 145.34763,31.6552445 L145.394829,31.5799449 C145.482603,31.4409301 145.573688,31.2969505 145.669743,31.1422138 C145.718598,31.0619493 145.772421,30.9742375 145.822932,30.8898357 C145.890005,30.7814373 145.956249,30.6738663 146.025805,30.5580206 C146.086253,30.4595518 146.147529,30.3552907 146.208805,30.2518571 C146.275877,30.1401488 146.34295,30.027613 146.412506,29.9092849 C146.480406,29.7942667 146.549963,29.6759387 146.619519,29.5559557 C146.684936,29.4442473 146.750352,29.3317116 146.816596,29.2158659 C146.893605,29.0826434 146.970614,28.9477659 147.050107,28.8095786 C147.113867,28.6970428 147.179283,28.5811972 147.244699,28.4653515 C147.329989,28.3147521 147.41445,28.1641528 147.501396,28.0077611 C147.555219,27.9092923 147.610699,27.8083411 147.666178,27.7090448 C147.767201,27.5253467 147.868223,27.3408211 147.97173,27.1505032 L148.056191,26.9941116 C148.615955,25.9572929 149.20056,24.8286252 149.78351,23.6378973 L149.805039,23.5965238 C149.946636,23.3060822 150.088233,23.0123307 150.229002,22.7160968 L150.274545,22.6192829 C150.414486,22.323049 150.554427,22.0251602 150.69354,21.7223065 L150.730802,21.6403871 C150.874055,21.3292587 151.015652,21.0148205 151.168014,20.6714209 C153.526309,15.3474852 155.44822,9.39881049 154.908329,5.10093643 C154.875207,4.84524851 154.832976,4.59618033 154.782465,4.35290444 L154.772529,4.31153099 C154.663226,3.80429249 154.514176,3.32436046 154.308819,2.86180528 C154.211109,2.64169852 154.10429,2.42738405 153.983394,2.22382667 L153.876575,2.06578009 C153.778037,1.91187085 153.681155,1.75713415 153.566883,1.61480948 C153.41121,1.41704438 153.242287,1.23086385 153.055975,1.05544042 L152.983934,1 C152.986418,5.14479229 151.235086,10.3818437 149.131004,15.1315158 C148.977814,15.4773979 148.835389,15.793491 148.691308,16.1071018 L148.653217,16.1898487 C148.513276,16.4943573 148.372507,16.795556 148.23091,17.0934448 L148.185367,17.1902587 C148.04377,17.488975 147.901345,17.7852089 147.758092,18.0773055 L147.737391,18.118679 C147.149473,19.3193365 146.561556,20.4554514 145.996824,21.5005448 L145.912362,21.6577639 C145.808027,21.8497367 145.706177,22.0350898 145.604326,22.2196154 C145.548019,22.3213941 145.492539,22.4223453 145.43706,22.5208141 C145.350114,22.6780332 145.263997,22.8302875 145.179535,22.9817143 C145.113291,23.0992149 145.047875,23.2158881 144.983287,23.3292513 C144.903794,23.4682661 144.825957,23.603971 144.74812,23.738021 C144.681047,23.8546942 144.615631,23.9680574 144.550215,24.0805932 C144.479002,24.2014037 144.409446,24.3213867 144.340718,24.4372323 C144.271161,24.5563879 144.203261,24.6689237 144.136189,24.7822869 C144.074085,24.886548 144.011981,24.9908091 143.952361,25.0901054 C143.881976,25.2067785 143.814904,25.315177 143.747004,25.4252303 C143.695664,25.5096322 143.641841,25.5973439 143.592158,25.6784359 C143.496104,25.8348275 143.40419,25.9796346 143.315588,26.1194768 L143.268389,26.195604 C141.646233,28.7425536 139.902354,31.1695202 138.061592,33.4889159 C136.944549,34.8956132 135.797695,36.2692118 134.602815,37.5881974 C125.16384,48.0068597 113.367397,55.5666166 99.9322385,59.2579559 C98.4376029,59.6683805 96.9230941,60.0316394 95.388712,60.3452502 C92.3199478,60.9724717 89.1741747,61.4027556 85.9596731,61.6245173 C84.3524224,61.7353981 82.7277825,61.7949759 81.0874096,61.7999407 C80.3305693,61.8024231 79.5720728,61.7858737 78.8119202,61.7544299 C66.7447047,61.2968396 54.174861,57.9836536 43.6055933,52.3676214 C32.3937565,46.410672 25.7618805,38.7723055 17.5442831,29.2109011 C13.3808329,24.3677249 6.84169886,18.3727119 0.851563894,14.244469 C0.765446388,14.3834838 0.656971453,14.5258085 0.584930847,14.6623409 L0.518686612,14.8112853 C0.387026194,15.0777303 0.275239047,15.3408655 0.194917912,15.6006907 C0.170076324,15.6801278 0.15765553,15.7579099 0.137782259,15.8365194 C0.0789905006,16.0657283 0.0334475889,16.2941098 0.0119182125,16.5183539 C0.00529378893,16.5994458 0.00446573599,16.6805378 0.00198157717,16.7608023 C-0.00464284635,16.9461554 0.00612184187,17.1298535 0.0226829007,17.3127241 C6.83507444,21.1149443 15.4666983,28.7442086 20.5418348,34.6482 C28.6989843,44.140097 35.2828332,51.7230231 46.4126928,57.6361166 C56.9049516,63.2107754 69.3828813,66.4999647 81.3614952,66.9542452 C82.1166794,66.985689 82.8702076,67.0022384 83.6204236,67 C85.2492037,66.9939637 86.8622508,66.9360409 88.4579089,66.82516 C91.6483968,66.6050533 94.7718125,66.1780793 97.8173912,65.5558226 C99.3410087,65.2438667 100.843925,64.8839177 102.327796,64.4759755 C115.665244,60.8119427 127.375569,53.3067988 136.745816,42.9642636" id="Fill-6" fill="#F4DD28"></path>
            <path d="M134.699642,37.9152 C135.894061,36.6031431 137.040472,35.2367601 138.157084,33.8374523 C139.997136,31.5302406 141.740342,29.116023 143.361872,26.5824527 L143.409053,26.5067255 C143.49762,26.3676178 143.589499,26.2235714 143.685516,26.0680013 C143.73518,25.9873353 143.788982,25.9000844 143.840302,25.8161259 C143.908176,25.7066506 143.975222,25.5988216 144.04558,25.4827614 C144.105177,25.3839867 144.167257,25.2802733 144.229337,25.1765599 C144.296383,25.0637922 144.364257,24.9518475 144.433787,24.8333179 C144.502489,24.7180808 144.572018,24.5987281 144.643203,24.4785522 C144.708594,24.3666076 144.773985,24.2538398 144.841032,24.1377796 C144.918839,24.0044338 144.996646,23.8694418 145.076108,23.7311572 C145.140671,23.6183895 145.206062,23.5023292 145.272281,23.3854459 C145.35671,23.2348145 145.442794,23.08336 145.529706,22.9269668 C145.585164,22.8290152 145.640622,22.7285943 145.696908,22.6273503 C145.798719,22.443794 145.90053,22.2594146 146.004825,22.0684503 L146.089254,21.912057 C146.653768,20.8724536 147.241459,19.7423067 147.829149,18.5479563 L147.849843,18.5068002 C147.993041,18.2162381 148.135411,17.9215603 148.276953,17.6244132 L148.322478,17.5281079 C148.464021,17.2317839 148.604736,16.9321674 148.744622,16.6292584 L148.782698,16.5469461 C148.926724,16.2349828 149.069094,15.9205501 149.222225,15.576485 C151.081314,11.4007858 152.659802,6.84809656 153,3 C152.289805,5.61341317 151.259277,8.33383224 150.11121,10.9143205 C149.957252,11.2583856 149.814882,11.5728183 149.670856,11.8856048 L149.63278,11.967917 C149.493721,12.2700029 149.353007,12.5696194 149.211464,12.8667665 L149.165111,12.9622487 C149.022741,13.260219 148.880371,13.5548967 148.738001,13.8454589 L148.717307,13.886615 C148.129617,15.0801423 147.541098,16.2111123 146.977412,17.2498925 L146.892155,17.4071089 C146.788688,17.5980733 146.686877,17.7816295 146.584238,17.9660089 C146.52878,18.0656067 146.473322,18.1676739 146.418692,18.2656254 C146.330952,18.4220186 146.245695,18.5734731 146.159611,18.7241045 C146.09422,18.8401648 146.028829,18.956225 145.964266,19.0698159 C145.883976,19.2081004 145.806169,19.3430925 145.730017,19.4764383 C145.662971,19.5916754 145.596752,19.7052662 145.530534,19.8163878 C145.460176,19.9373867 145.390647,20.0559163 145.321945,20.1719766 C145.253243,20.289683 145.184541,20.4024508 145.117495,20.5143954 C145.055415,20.6181088 144.993335,20.7226454 144.933738,20.82142 C144.86338,20.9366571 144.796334,21.0453093 144.729288,21.1539614 C144.67714,21.2379199 144.624165,21.325994 144.573674,21.40666 C144.477657,21.5614069 144.385778,21.7062765 144.297211,21.8453841 L144.25003,21.9211114 C142.629328,24.4546817 140.885294,26.8680761 139.045242,29.1752878 C137.92863,30.5754188 136.781391,31.9418017 135.588627,33.2530355 C126.152466,43.6169679 114.360576,51.1370128 100.930601,54.8097843 C99.4365423,55.218053 97.9226178,55.5785805 96.388,55.8905439 C93.3212477,56.5144705 90.1766884,56.9424941 86.964255,57.1630909 C85.3567967,57.2742124 83.7327837,57.3326541 82.0930438,57.3384159 C81.3373232,57.3408853 80.5782916,57.3244228 79.8176046,57.2931442 C67.7558731,56.8371345 55.1908797,53.5413529 44.6256902,47.9548222 C33.4181796,42.0299882 26.7888626,34.4309235 18.5744361,24.9205689 C15.8851302,21.8066974 12.2008887,18.2195306 8.31633575,14.9607895 C7.23448817,14.5344122 6.15181285,14.2035171 5.07162072,14.0224302 C4.97063725,14.0051446 4.87462017,13.9919746 4.77694762,13.9779816 C4.64285481,13.9590498 4.51041746,13.9409411 4.38294651,13.926948 C4.29189584,13.9170705 4.20415609,13.9088393 4.11724408,13.9014312 C3.9914286,13.8915537 3.86892406,13.8824994 3.75055818,13.8775607 C3.67275123,13.873445 3.59494429,13.8701526 3.51962055,13.8676832 C3.397116,13.8652138 3.27957786,13.8652138 3.16452291,13.8668601 L2.98490476,13.8701526 C2.85163967,13.8750913 2.72665193,13.8833225 2.60580285,13.8940231 L2.50730257,13.9014312 C2.03301132,13.9483492 1.65556487,14.0331308 1.36585817,14.1228511 C1.21934936,14.3171079 1.11753815,14.5039567 1,14.6940979 C6.98782361,18.8006549 13.5244345,24.7641756 17.6862781,29.5819102 C25.9007047,39.0930879 32.5300217,46.6913295 43.7375323,52.6169866 C54.3027217,58.2035174 66.8677151,61.4992989 78.9302744,61.9544856 C79.6901336,61.9857642 80.4483375,62.0022266 81.2048858,62 C82.8446257,61.9948185 84.4686387,61.9355537 86.0752693,61.8252554 C89.2885304,61.6046586 92.4330897,61.176635 95.5006698,60.5527083 C97.0344598,60.240745 98.5483843,59.8793943 100.042443,59.4711257 C113.472418,55.7991773 125.264308,48.2791323 134.699642,37.9152" id="Fill-7" fill="#F4E92A"></path>
            <path d="M18.2752968,24.3669282 C26.5034937,33.9403511 33.143924,41.5898093 44.3702225,47.5539342 C54.9531232,53.1775123 67.5391803,56.4951499 79.6211317,56.9541837 C80.3830939,56.9856698 81.1433979,57.0022414 81.9003854,57 C83.5428741,56.9939556 85.1696096,56.9351264 86.7797626,56.823268 C89.9975813,56.6012083 93.147412,56.1703463 96.2193054,55.542282 C97.7564957,55.2282498 99.2729581,54.8653314 100.769522,54.4543553 C114.22201,50.7572277 126.033668,43.1873132 135.485648,32.7546519 C136.680411,31.4347227 137.829573,30.0592785 138.948057,28.6498625 C140.791193,26.3273504 142.538151,23.8979514 144.16157,21.3475796 L144.20883,21.2713502 C144.297546,21.13132 144.389578,20.9854898 144.485756,20.8297166 C144.536333,20.7485157 144.589396,20.6598575 144.641631,20.5753423 C144.70879,20.4659696 144.775949,20.3565969 144.846424,20.2405956 C144.906121,20.1411659 144.968305,20.0359361 145.030489,19.931535 C145.097648,19.818848 145.166465,19.7053324 145.235282,19.5868453 C145.304099,19.4700154 145.373745,19.3506998 145.44422,19.2288984 C145.51055,19.11704 145.57688,19.0026958 145.644038,18.8866945 C145.720317,18.7524644 145.798255,18.6165772 145.87868,18.4773756 C145.943351,18.3630314 146.008852,18.2462015 146.074352,18.1293716 C146.160581,17.9777414 146.24598,17.8252825 146.333867,17.6678521 C146.388589,17.569251 146.44414,17.466507 146.499691,17.3662487 C146.602502,17.1806466 146.704484,16.9958731 146.808124,16.8036423 L146.893524,16.6453834 C147.458155,15.5997144 148.04766,14.4612443 148.636336,13.2598021 L148.657064,13.218373 C148.799673,12.925884 148.942282,12.6292521 149.084891,12.3293058 L149.131321,12.2331904 C149.273101,11.9340728 149.414052,11.6324693 149.553344,11.3283802 L149.591483,11.2455221 C149.735751,10.9306614 149.878359,10.6141435 150.032576,10.2677967 C151.182567,7.67019579 152.214822,4.93173614 152.926208,2.30099199 C152.97181,1.79141478 153,1.29178054 153,0.810375077 C152.865682,0.692716598 152.728048,0.582515348 152.579636,0.491371456 C152.507502,0.446628091 152.427077,0.4159706 152.351627,0.377855882 C152.247158,0.324826709 152.144347,0.269311793 152.034903,0.227882751 C151.927117,0.188110871 151.812699,0.162424865 151.699938,0.133424536 C151.614539,0.111052854 151.529968,0.0837096862 151.441252,0.0671380695 C151.304448,0.0422806446 151.16101,0.0306805129 151.017572,0.0190803812 L150.805317,0.00168018375 C150.639492,-0.00329130125 150.467864,0.00333734542 150.293749,0.0141088962 L150.133729,0.0240518662 C149.938056,0.0414520637 149.738238,0.0704523929 149.534274,0.10690995 L149.428976,0.125967309 C149.206771,0.169053512 148.978763,0.222911266 148.746609,0.28671199 L148.694375,0.300797864 C148.447296,0.370398654 148.194415,0.450770995 147.930754,0.544400629 C143.106928,2.25956295 136.623202,7.70665335 131.839173,12.2232475 L131.785281,12.2737909 C130.947868,13.0650856 130.164349,13.8257228 129.450476,14.5325022 L129.328595,14.6551322 C128.989484,14.991536 128.662811,15.3188255 128.355207,15.6312004 C128.054236,15.9361182 127.778139,16.22115 127.516136,16.4920959 L127.364407,16.6495263 C127.1165,16.9072149 126.881859,17.1533034 126.676237,17.3720488 C121.405515,22.9732552 115.463204,27.4127913 109.060732,30.7735152 C107.993653,31.3336358 106.913308,31.8639275 105.821356,32.3643903 C102.545499,33.8657788 99.1643432,35.1020214 95.7019339,36.081404 C94.5486265,36.4078648 93.3853697,36.7069825 92.2146509,36.9770998 C89.8732131,37.5173345 87.5002687,37.9457108 85.1032799,38.265543 C83.9043709,38.4246306 82.7004872,38.5572035 81.4907996,38.6632618 C73.0246449,39.4015274 64.3155577,38.8248351 55.6976739,37.0641008 C54.4664292,36.8130408 53.2376718,36.5371234 52.0105727,36.2380057 C49.5580328,35.6389418 47.1171005,34.9454196 44.6944089,34.159925 C41.0612006,32.9808545 36.5441493,32.5417066 33.0245305,30.9599458 C30.6772889,29.9051624 28.3615539,28.763378 26.0839585,27.537907 C20.208807,24.3735568 14.5682967,16.9337295 8,14.3411001 C11.8910649,17.6214516 15.5814826,21.2324069 18.2752968,24.3669282" id="Fill-8" fill="#F9F39A"></path>
            <path d="M155.815411,5.28781069 C155.112425,6.35964639 152.610876,6.20394318 150.228241,4.94023081 C147.844732,3.67651844 146.482476,1.78370221 147.184589,0.711866515 C147.887575,-0.359182801 150.388249,-0.204265976 152.771759,1.0594464 C155.155268,2.32315877 156.517524,4.215975 155.815411,5.28781069" id="Fill-9" fill="#8D5C38"></path>
            <path d="M4.8735589,16.8196061 C5.21206014,16.5486061 5.58469596,16.2826061 6,16.0216061 C5.82458619,16.1316061 5.66244694,16.2286061 5.51168589,16.3166061 L5.39885214,16.3786061 C5.29075931,16.4396061 5.18361465,16.4996061 5.08879638,16.5486061 L5.00820085,16.5896061 C4.91053802,16.6396061 4.81477157,16.6866061 4.73227967,16.7256061 L4.69530054,16.7416061 C4.60237863,16.7836061 4.51704218,16.8216061 4.44308393,16.8506061 L4.44213575,16.8506061 C4.30085652,16.8706061 4.19276368,16.8936061 4.11880543,16.9166061 L4.11216815,16.9176061 L4.00028259,16.9696061 L4.00028259,16.9706061 C3.99269712,16.9926061 4.13776908,16.9726061 4.44213575,16.8506061 L4.44498029,16.8506061 C4.56350314,16.8346061 4.7085751,16.8236061 4.8735589,16.8196061" id="Fill-10" fill="#F9F399"></path>
            <path d="M127.87299,82.7529585 C129.379708,81.8175068 130.857323,80.816424 132.314149,79.7746333 C134.715585,78.058254 137.054657,76.2122739 139.308913,74.2167545 L139.375435,74.1577696 C139.497668,74.0481074 139.626554,73.9342913 139.762092,73.810506 L139.979951,73.6102894 C140.074745,73.5238889 140.167875,73.4383192 140.267658,73.3461033 C140.352473,73.2671797 140.440614,73.1841023 140.529587,73.1018557 C140.625212,73.0113013 140.720837,72.9215777 140.819788,72.8277002 C140.917076,72.7346535 141.016859,72.6391145 141.118305,72.5427447 C141.212267,72.4530211 141.306229,72.3624667 141.402685,72.26942 C141.513278,72.1622502 141.625533,72.0534187 141.740283,71.942095 C141.833414,71.8507099 141.928207,71.7576632 142.023001,71.6629549 C142.146898,71.5416619 142.270794,71.4195381 142.398017,71.2924297 C142.477012,71.2135061 142.558501,71.1312595 142.63999,71.0498436 C142.788001,70.9003043 142.936843,70.7507649 143.089844,70.5954102 L143.214572,70.4683017 C144.041936,69.6217429 144.919192,68.694599 145.812247,67.7068086 L145.843013,67.6719161 C146.060872,67.4309916 146.278731,67.186744 146.496589,66.9400041 L146.567269,66.859419 C146.785127,66.6126791 147.002986,66.3626161 147.220014,66.1100608 L147.279883,66.0411065 C147.503563,65.7794127 147.727242,65.5160573 147.969215,65.2269479 C151.720211,60.7407677 155.223413,55.5309833 155.892788,51.2333888 C155.93187,50.9775104 155.960142,50.7257858 155.978435,50.4765536 L155.98093,50.4341841 C156.015854,49.9141195 156.004212,49.4098396 155.934364,48.9080521 C155.901104,48.6671276 155.857033,48.430357 155.796332,48.2010633 L155.738125,48.0191238 C155.684908,47.8429997 155.634185,47.6668755 155.564337,47.4982284 C155.467881,47.2647809 155.357288,47.0379795 155.225076,46.8169936 C155.116978,46.6358849 154.99225,46.4705608 154.854217,46.3201907 L154.665462,46.1482205 C154.579815,46.0684662 154.496663,45.9853888 154.401038,45.9156037 C154.30957,45.8474803 154.20563,45.7918184 154.105847,45.7320026 C154.028516,45.6871408 153.955342,45.6372944 153.873853,45.5974172 C153.749125,45.5351092 153.614418,45.484432 153.47888,45.4337547 L153.279315,45.3589851 C153.120494,45.3074771 152.953358,45.2667691 152.782896,45.2293843 L152.624907,45.1944918 C152.432825,45.157107 152.231597,45.1305222 152.024548,45.1089221 L151.918113,45.098122 C151.691107,45.0773527 151.456618,45.0665526 151.215477,45.0640603 L151.161428,45.0640603 C150.903656,45.0623987 150.638401,45.0698757 150.358178,45.0873219 C145.232676,45.4088315 137.475407,48.8673441 131.614008,51.8988389 L131.548318,51.9329006 C130.521388,52.464596 129.555991,52.9813375 128.672914,53.4656788 L128.520746,53.549587 C128.100827,53.7805422 127.695876,54.0048512 127.312544,54.2216833 C126.93836,54.4326999 126.593278,54.6304241 126.265658,54.8190099 L126.076071,54.9295028 C125.765913,55.10895 125.471555,55.2809203 125.21212,55.4354442 C118.582395,59.3791289 111.625881,62.016006 104.52302,63.4864761 C103.339764,63.7315545 102.151519,63.9450634 100.96078,64.1253414 C97.3877294,64.6678369 93.7855759,64.9253769 90.1767703,64.9137461 C88.9743894,64.9095922 87.7703455,64.8755304 86.5671331,64.8132224 C84.1598768,64.6869447 81.7542836,64.4443587 79.354511,64.0904489 C78.1554562,63.913494 76.957233,63.7082928 75.7623358,63.4756761 C67.3963926,61.8498511 59.1601668,58.8881414 51.3388705,54.8115329 C50.2221364,54.2291602 49.112886,53.6243567 48.0136139,52.9971222 C45.8142381,51.7426533 43.6531124,50.3992916 41.5352257,48.9736832 C38.3588116,46.8336091 34.1255329,45.1629224 31.1686405,42.6664462 C29.1979333,41.0015749 27.2821065,39.2611031 25.4261493,37.4508463 C19.8449734,32.0067836 15.7705154,21.2765052 8.76993141,17.9293163 C8.67680094,17.8844545 8.58782808,17.8454081 8.49719218,17.8047002 C8.3732954,17.7490383 8.25023014,17.695038 8.13132249,17.6460223 C8.04650724,17.6111298 7.96418656,17.5795604 7.88186588,17.547991 C7.76295822,17.5031292 7.64737666,17.4607597 7.53512119,17.4233749 L7.31393632,17.3502668 C7.1958602,17.3128819 7.0827732,17.2813125 6.97134925,17.2514046 L6.79756114,17.2040505 C6.6678437,17.1724811 6.54394692,17.1458963 6.42420775,17.1226347 L6.32775119,17.1026961 C5.85627819,17.0162956 5.4679574,16.9938647 5.16362034,17.0013416 C4.82602239,17.2572201 4.53332663,17.5180831 4.27804937,17.7839308 L4.17327759,17.9093777 C3.97204926,18.1303637 3.79160898,18.3538419 3.64110349,18.5823048 L3.52136432,18.7933214 C3.40079362,18.9993534 3.29352728,19.2062161 3.2112066,19.4172327 C3.1812718,19.493664 3.15882071,19.5717567 3.13387505,19.6481879 C3.07566851,19.8251428 3.03492393,20.00459 3,20.1865296 C8.52380089,25.7394237 14.7427542,35.4902194 18.0056467,42.5916765 C23.2517192,54.0081743 27.5057859,63.1466895 36.6117838,71.9312949 C45.1955857,80.213282 56.3296658,86.8387056 67.7664199,90.5896507 C68.486518,90.8280828 69.2091106,91.0532226 69.9341978,91.2584238 C71.5082691,91.702888 73.0806772,92.092521 74.6514223,92.427323 C77.7937441,93.0969269 80.9260876,93.5480373 84.0384746,93.7897925 C85.5950839,93.9110856 87.1458725,93.979209 88.6916719,93.9958245 C102.580585,94.1478562 115.9631,90.143525 127.87299,82.7529585" id="Fill-11" fill="#F9F399"></path>
            <path d="M127.87299,82.8330455 C129.379708,81.9042549 130.857323,80.9103006 132.314149,79.8759281 C134.715585,78.1717707 137.054657,76.3389353 139.308913,74.3576254 L139.375435,74.2990605 C139.497668,74.1901792 139.626554,74.0771736 139.762092,73.9542697 L139.979951,73.7554788 C140.074745,73.6696935 140.167875,73.5847331 140.267658,73.4931738 C140.352473,73.4148123 140.440614,73.3323264 140.529587,73.2506654 C140.625212,73.1607559 140.720837,73.0716712 140.819788,72.9784622 C140.917076,72.886078 141.016859,72.7912193 141.118305,72.6955357 C141.212267,72.606451 141.306229,72.5165415 141.402685,72.4241573 C141.513278,72.3177506 141.625533,72.2096941 141.740283,72.0991631 C141.833414,72.0084287 141.928207,71.9160446 142.023001,71.8220107 C142.146898,71.7015814 142.270794,71.5803272 142.398017,71.4541238 C142.477012,71.3757623 142.558501,71.2941013 142.63999,71.2132652 C142.788001,71.0647907 142.936843,70.9163162 143.089844,70.7620676 L143.214572,70.6358643 C144.041936,69.7953336 144.919192,68.8747916 145.812247,67.894035 L145.843013,67.8593909 C146.060872,67.620182 146.278731,67.3776736 146.496589,67.1326907 L146.567269,67.0526794 C146.785127,66.8076965 147.002986,66.5594141 147.220014,66.3086571 L147.279883,66.2401939 C147.503563,65.9803635 147.727242,65.7188834 147.969215,65.4318327 C151.720211,60.9775973 155.223413,55.8049103 155.892788,51.5379177 C155.93187,51.2838614 155.960142,51.0339293 155.978435,50.7864717 L155.98093,50.744404 C156.015854,50.2280426 156.004212,49.7273536 155.934364,49.2291391 C155.901104,48.9899301 155.857033,48.7548455 155.796332,48.5271846 L155.738125,48.3465406 C155.684908,48.1716706 155.634185,47.9968006 155.564337,47.8293544 C155.467881,47.5975692 155.357288,47.3723828 155.225076,47.1529705 L155.171027,47.0803829 C154.02519,51.0520761 150.884531,55.5896222 147.537655,59.5629651 C147.294019,59.8524904 147.069508,60.1164451 146.842502,60.3779252 L146.783464,60.4472133 C146.563943,60.69962 146.345252,60.9495521 146.125731,61.1970096 L146.055051,61.276196 C145.834698,61.5236536 145.616007,61.7686365 145.396486,62.0094952 L145.364888,62.0441392 C144.465181,63.0323196 143.582105,63.9594604 142.748088,64.8057651 L142.622528,64.9336182 C142.469528,65.0886916 142.319023,65.2379909 142.169349,65.3872903 C142.088691,65.4689513 142.00637,65.5506123 141.925713,65.6306235 C141.797658,65.7568269 141.67293,65.8797308 141.549033,66.000985 C141.452577,66.0950188 141.356952,66.1890527 141.26299,66.2797871 C141.14824,66.3919678 141.035153,66.5000243 140.923729,66.6072559 C140.826441,66.7004649 140.731647,66.7920242 140.636854,66.8811089 C140.534576,66.9776173 140.434794,67.0733009 140.336674,67.165685 C140.23606,67.2597189 140.139603,67.3496284 140.043978,67.439538 C139.954174,67.5220238 139.865201,67.6053345 139.779554,67.684521 C139.679772,67.7769051 139.58581,67.8618655 139.490185,67.9493005 L139.269831,68.1489162 C139.133462,68.2718201 139.004576,68.3864755 138.880679,68.4961816 L138.814157,68.5555714 C136.543271,70.5517288 134.187569,72.3977619 131.76784,74.1142922 C130.300203,75.1560884 128.811779,76.1574665 127.294251,77.0928559 C115.296219,84.484412 101.815584,88.4899244 87.8243944,88.3381505 C86.2677852,88.3208284 84.7045238,88.2531901 83.1371047,88.1319359 C80.0014351,87.8902524 76.845809,87.4390548 73.6810361,86.7692698 C72.0994812,86.4343773 70.5146002,86.0450441 68.9288877,85.5996206 C68.1988113,85.3942308 67.470398,85.1698693 66.7444793,84.9314853 C55.2237415,81.1792044 44.0081723,74.552292 35.3611746,66.2698888 C26.188655,57.4834971 21.9029905,48.3424163 16.6186679,36.9247263 C13.941167,31.1399943 9.2904642,23.5999637 4.65057124,18 C4.52916902,18.1088813 4.38531571,18.215288 4.27804937,18.3266439 L4.17327759,18.4511975 C3.97204926,18.6706099 3.79160898,18.8924968 3.64110349,19.1193329 L3.52136432,19.3288469 C3.40079362,19.5334118 3.29352728,19.7388015 3.2112066,19.9483155 C3.1812718,20.0242025 3.15882071,20.1017392 3.13387505,20.1776262 C3.07566851,20.353321 3.03492393,20.5314904 3,20.7121344 C8.52380089,26.225488 14.7427542,35.9060262 18.0056467,42.9577407 C23.2508877,54.2929448 27.5057859,63.3663872 36.6117838,72.08844 C45.1955857,80.3114534 56.3296658,86.8896991 67.7664199,90.6139348 C68.486518,90.8506692 69.2091106,91.0742058 69.9341978,91.2779458 C71.5082691,91.7192451 73.0806772,92.1061036 74.6514223,92.4385216 C77.7937441,93.1033575 80.9260876,93.5512556 84.0384746,93.7912894 C85.5950839,93.9117187 87.1458725,93.9793571 88.6916719,93.9958542 C102.580585,94.1468033 115.9631,90.1709858 127.87299,82.8330455" id="Fill-12" fill="#F4DD28"></path>
            <path d="M126.613156,76.7178133 C128.130306,75.7797022 129.61836,74.7754104 131.085631,73.730583 C133.504758,72.0090582 135.859874,70.1576539 138.130195,68.1556885 L138.1967,68.0961259 C138.320566,67.9861005 138.44942,67.8711116 138.585756,67.7478501 L138.806054,67.5476535 C138.901655,67.4599641 138.995594,67.3747565 139.095352,67.2821036 C139.180977,67.2026867 139.269928,67.1191336 139.35971,67.0364078 C139.455311,66.9462366 139.551744,66.8560655 139.652333,66.761758 C139.750428,66.6691051 139.850186,66.5731431 139.952438,66.4763538 C140.047208,66.3870099 140.141978,66.2951842 140.239241,66.201704 C140.350638,66.0941604 140.463696,65.9857896 140.578418,65.8732824 C140.672357,65.782284 140.767958,65.6879766 140.86439,65.5936691 C140.988256,65.4720621 141.112954,65.3488006 141.240976,65.2222301 C141.321614,65.141986 141.403914,65.0600874 141.484551,64.9781888 C141.634188,64.828455 141.784656,64.6787213 141.937618,64.5231967 L142.063147,64.3949716 C142.896956,63.5462045 143.779812,62.616366 144.679295,61.6253104 L144.710885,61.5905655 C144.930352,61.3490061 145.148988,61.1033103 145.369287,60.8551328 L145.439949,60.775716 C145.659416,60.5275384 145.878052,60.2768791 146.097519,60.0237381 L146.156542,59.9542484 C146.383491,59.6920074 146.607946,59.4272847 146.851522,59.136917 C149.809341,55.6152779 152.599234,51.6518827 154,48.0284908 C152.587596,50.3580505 150.834352,52.7025009 149.007122,54.8781906 C148.763546,55.1685583 148.53826,55.433281 148.312142,55.6946947 L148.253119,55.7641844 C148.033652,56.0181527 147.814184,56.268812 147.595549,56.5161623 L147.524055,56.5964064 C147.303757,56.8445839 147.08429,57.0902797 146.866485,57.3310119 L146.834895,57.3657567 C145.935412,58.3568123 145.052556,59.2866508 144.217915,60.1354179 L144.093218,60.2644703 C143.938594,60.4199949 143.789788,60.5697286 143.640151,60.7194624 C143.557851,60.801361 143.477214,60.8832596 143.396576,60.9626764 C143.268554,61.0900742 143.143856,61.2125084 143.019159,61.3349427 C142.923558,61.4292501 142.827125,61.5227303 142.733187,61.6137288 C142.617634,61.7262359 142.506238,61.835434 142.39401,61.9429776 C142.297578,62.0364578 142.201976,62.1274563 142.107206,62.2168002 C142.005786,62.3144167 141.905197,62.4095514 141.807102,62.5022043 C141.707344,62.597339 141.610911,62.6875102 141.513647,62.7776814 C141.425528,62.8604072 141.335746,62.9439603 141.250952,63.0225499 C141.151194,63.1152028 141.056424,63.2012377 140.960823,63.2880998 L140.741356,63.4891236 C140.60502,63.6123851 140.476166,63.7273741 140.3523,63.8365722 L140.284964,63.896962 C138.014642,65.8981002 135.659527,67.7495046 133.241231,69.4718566 C131.773129,70.516684 130.285075,71.5209758 128.767925,72.4582596 C116.77371,79.8721497 103.29643,83.8884894 89.3078914,83.7362738 C87.7516696,83.7197286 86.1896285,83.6510662 84.6225996,83.5302865 C81.4868791,83.2878997 78.3320383,82.8353894 75.1688844,82.1628283 C73.5868918,81.8277886 72.0024053,81.4364954 70.4170874,80.9897758 C69.6871928,80.7846157 68.9589607,80.5596014 68.234054,80.3196965 C56.7161835,76.5573251 45.5034056,69.9111309 36.8585601,61.6038017 C27.687492,52.7918448 23.4028941,43.6249941 18.1198867,32.1732556 C16.3907513,28.4241204 13.8319635,23.944516 10.9905286,19.725498 C10.0636122,19.0157102 9.11009383,18.3977482 8.11833493,17.9253836 C8.02522764,17.8807117 7.93627693,17.8418305 7.84566358,17.8012949 C7.72179764,17.7458686 7.598763,17.6920968 7.47988495,17.6432885 C7.39509081,17.6085437 7.31279061,17.5771078 7.23049042,17.545672 C7.11161236,17.5010001 6.99605957,17.4588099 6.88383203,17.4215832 L6.66270222,17.3487845 C6.54465548,17.3115579 6.43159662,17.2801221 6.3202004,17.2503407 L6.14645555,17.203187 C6.0167704,17.1717512 5.89290445,17.1452789 5.77319508,17.1221157 L5.67676253,17.1022615 C5.20540687,17.0162266 4.81718273,16.9938906 4.51292141,17.001336 C4.31756236,17.148588 4.16709433,17.3016308 4,17.4530191 C8.63873817,23.0692766 13.2882834,30.6312459 15.965118,36.4328093 C21.2481254,47.8837205 25.5327233,57.0513985 34.70296,65.8633553 C43.3478056,74.1698573 54.5605835,80.8160515 66.078454,84.5792501 C66.804192,84.8183278 67.5324241,85.0433421 68.2623187,85.2493295 C69.8476366,85.696049 71.4321231,86.086515 73.0132844,86.4223819 C76.1772696,87.0941158 79.3321104,87.5466261 82.4669996,87.7890129 C84.0340285,87.9106199 85.5969009,87.978455 87.1531227,87.9958275 C101.14083,88.148043 114.61811,84.1308761 126.613156,76.7178133" id="Fill-13" fill="#F4E92A"></path>
            <path d="M19.1048902,32.4448508 C24.3697664,43.893915 28.6396596,53.058625 37.7792525,61.868524 C46.394429,70.1739132 57.5687247,76.8185554 69.0470659,80.5800482 C69.7694848,80.8198971 70.4952175,81.0448588 71.2226072,81.249971 C72.8024842,81.6965862 74.3815328,82.0877881 75.958096,82.4227495 C79.110394,83.0951536 82.2544074,83.5475583 85.3793661,83.7898884 C86.941017,83.9106399 88.4976971,83.9792863 90.048578,83.9958276 C103.989108,84.1480076 117.420135,80.1326059 129.373184,72.7204471 C130.885128,71.7833822 132.368075,70.779325 133.831139,69.7347416 C136.241135,68.0127917 138.588167,66.1618197 140.850697,64.1611489 L140.917803,64.1007731 C141.041244,63.9916005 141.169655,63.8766384 141.305523,63.7534057 L141.524237,63.5524289 C141.61951,63.465587 141.713955,63.3795722 141.81337,63.2869409 C141.897873,63.2083697 141.987347,63.1248361 142.075164,63.0421296 C142.172094,62.9519795 142.268196,62.8618294 142.367611,62.7667169 C142.46537,62.6740856 142.565614,62.5789731 142.666686,62.4813794 C142.761131,62.3920563 142.856404,62.3010791 142.952505,62.2076208 C143.064348,62.1001023 143.175362,61.9909297 143.290518,61.8784488 C143.384134,61.7874716 143.480236,61.6940132 143.575509,61.5997278 C143.699778,61.4773221 143.824047,61.3549165 143.951631,61.2275484 C144.031991,61.1481502 144.112352,61.0662707 144.19437,60.9843913 C144.343493,60.8346925 144.491788,60.6849936 144.645882,60.5295054 L144.770151,60.4004832 C145.601927,59.5519143 146.481754,58.6222929 147.378149,57.6314687 L147.409631,57.596732 C147.626688,57.356056 147.845402,57.1104176 148.064944,56.8622981 L148.136192,56.7820727 C148.354078,56.5347802 148.572792,56.2841795 148.791506,56.0302704 L148.850326,55.960797 C149.075668,55.6994443 149.300181,55.4347835 149.542921,55.1444836 C151.36388,52.969302 153.111107,50.625399 154.518664,48.2963833 C154.702582,47.8199937 154.867446,47.3485665 155,46.8862371 C154.903898,46.7357112 154.801998,46.5926289 154.684356,46.4644338 L154.496295,46.2932313 C154.410964,46.213833 154.328117,46.1311265 154.232844,46.061653 C154.141713,45.9938337 154.038156,45.9384203 153.93874,45.8788716 C153.861693,45.8342101 153.788789,45.7845861 153.707599,45.744887 C153.58333,45.6828571 153.449119,45.6324061 153.31408,45.5819552 L153.115249,45.5075193 C152.957013,45.4562412 152.790492,45.415715 152.620657,45.3784971 L152.463249,45.3437604 C152.271875,45.3065424 152.071387,45.2800763 151.8651,45.2585727 L151.759057,45.2478208 C151.532886,45.2271442 151.29926,45.2163923 151.059006,45.2139111 L151.005156,45.2139111 C150.748333,45.212257 150.484054,45.2197006 150.204862,45.237069 C145.098222,45.5571432 137.3695,49.0002158 131.529671,52.0181769 L131.464223,52.0520866 C130.441072,52.5814084 129.479228,53.0958429 128.599401,53.578022 L128.447792,53.6615556 C128.029419,53.8914797 127.625958,54.1147873 127.244037,54.3306513 C126.871229,54.5407259 126.527417,54.7375674 126.201003,54.9253113 L126.012114,55.0353109 C125.703098,55.213957 125.409822,55.3851595 125.151342,55.5389937 C118.546014,59.4650724 111.615101,62.0901775 104.538379,63.554083 C103.359477,63.7980672 102.175605,64.010623 100.989247,64.1900962 C97.4293461,64.7301698 93.8404486,64.98656 90.2449235,64.9749811 C89.0469674,64.9708458 87.8473544,64.9369361 86.6485699,64.8749062 C84.2501724,64.7491923 81.8534317,64.5076892 79.4624904,64.1553594 C78.2678481,63.9791945 77.0740344,63.7749094 75.8835345,63.5433311 C67.5483781,61.9247644 59.3424619,58.9762768 51.5499481,54.9178677 C50.4373237,54.3380949 49.3321553,53.7359914 48.2369285,53.1115572 C46.0456465,51.8626887 43.8924737,50.5253241 41.782381,49.1060802 C38.6176561,46.9755601 34.399956,45.3123319 31.453945,42.8270008 C29.4904901,41.1695621 27.5817136,39.4368604 25.7325864,37.6346852 C20.9598167,32.9832703 17.5929471,24.2949498 12,20 C14.8316832,24.2180328 17.3816893,28.6965911 19.1048902,32.4448508" id="Fill-14" fill="#F9F39A"></path>
            <path d="M155.595796,51.6132763 C154.693571,52.5598877 152.577386,51.7088937 150.867948,49.7130996 C149.158511,47.7173055 148.502847,45.3329574 149.405072,44.386346 C150.305726,43.4406038 152.422697,44.2907287 154.132134,46.2865228 C155.841572,48.2823169 156.496451,50.6666649 155.595796,51.6132763" id="Fill-15" fill="#8D5C38"></path>
            <path d="M8.80615009,18.705 C9.17275171,18.553 9.56808931,18.415 10,18.295 C9.81800538,18.346 9.64994335,18.388 9.49581393,18.424 L9.38086996,18.448 C9.27027993,18.473 9.16056068,18.497 9.06477403,18.514 L8.98291999,18.527 C8.88452098,18.544 8.78960513,18.56 8.70600951,18.571 L8.66943643,18.575 C8.57800372,18.586 8.49266653,18.595 8.42039115,18.6 L8.41952036,18.6 C8.289773,18.574 8.18963242,18.563 8.11909862,18.562 L8.1130031,18.561 L8.00154228,18.575 L8.00067149,18.576 C7.98935125,18.595 8.12084019,18.621 8.41952036,18.6 L8.42213273,18.601 C8.5301104,18.623 8.66072855,18.658 8.80615009,18.705" id="Fill-16" fill="#F9F399"></path>
            <path d="M106.239945,116.518706 C107.948637,116.075426 109.64905,115.559505 111.342841,114.999833 C114.132711,114.078604 116.902712,113.015393 119.634632,111.785436 L119.715762,111.74829 C119.865604,111.680601 120.020412,111.60961 120.185155,111.533667 C120.271252,111.493218 120.363144,111.449468 120.45338,111.407369 C120.567624,111.352888 120.682696,111.299232 120.803563,111.241449 C120.907872,111.19192 121.017149,111.138265 121.12477,111.08626 C121.243154,111.029302 121.359881,110.971519 121.483231,110.912085 C121.602442,110.85265 121.726621,110.791565 121.850799,110.729655 C121.966698,110.671872 122.082598,110.614088 122.201809,110.553829 C122.339233,110.484489 122.477485,110.414324 122.619048,110.342507 C122.73412,110.283073 122.852503,110.222814 122.971714,110.161728 C123.124867,110.081657 123.278848,110.002412 123.436968,109.919864 C123.535483,109.86786 123.637309,109.814204 123.738307,109.760548 C123.923747,109.663142 124.110014,109.564911 124.300421,109.462552 L124.456885,109.377528 C125.493359,108.818682 126.601028,108.1971 127.74264,107.521862 L127.782377,107.498748 C128.060536,107.334479 128.339523,107.166082 128.620166,106.996035 L128.710402,106.940728 C128.991045,106.77068 129.271687,106.59733 129.553158,106.421504 L129.630148,106.373627 C129.919898,106.191197 130.210474,106.007116 130.526715,105.80405 C135.419336,102.651563 140.289604,98.7388151 142.195325,94.8582605 C142.307914,94.6271277 142.40974,94.3959949 142.499148,94.1656876 L142.514877,94.1260648 C142.701972,93.6423369 142.841052,93.1610854 142.922182,92.6633244 C142.961091,92.4255878 142.989238,92.1878512 143,91.9517655 L142.998344,91.7619064 C143,91.5803021 143.003311,91.3978723 142.985926,91.2170934 C142.964402,90.9669747 142.925493,90.7185069 142.865888,90.4708646 C142.816216,90.266147 142.746676,90.0738115 142.659752,89.8897307 C142.624154,89.8129616 142.573655,89.7444473 142.531434,89.67098 C142.472657,89.5702722 142.418846,89.4670879 142.349306,89.3729838 C142.281422,89.2813562 142.199465,89.1971578 142.121646,89.1113085 L141.942002,88.9156711 C141.841831,88.819916 141.727587,88.7324158 141.614171,88.64409 L141.446117,88.5136651 C141.311177,88.4187355 141.163819,88.3304098 141.012321,88.2445605 L140.873242,88.1653149 C140.701048,88.0736873 140.518092,87.9886634 140.326858,87.9077669 L140.229171,87.8656678 C140.019723,87.7798184 139.800342,87.7005729 139.570198,87.6271057 L139.520527,87.6105962 C139.275482,87.5330016 139.020503,87.4620108 138.748967,87.3959729 C133.781011,86.1924314 125.383254,87.1904298 118.914399,88.3419664 L118.841547,88.355174 C117.709042,88.5574152 116.637799,88.7629583 115.655135,88.9627231 L115.486253,88.997393 C115.018515,89.093148 114.566506,89.1872521 114.138506,89.2797052 C113.720439,89.3696819 113.333831,89.4555312 112.967091,89.5389042 L112.753505,89.5867817 C112.405806,89.6660272 112.073836,89.7436218 111.782431,89.8129616 C104.312699,91.6034154 96.9199579,92.0574262 89.7316966,91.3623769 C88.533791,91.245985 87.3416804,91.0982251 86.1561926,90.9199226 C82.5980736,90.3825389 79.0970765,89.5661448 75.6697585,88.4930282 C74.5273192,88.1347724 73.3931584,87.7484504 72.2672762,87.3348878 C70.0163396,86.5069371 67.8001728,85.5683728 65.6237431,84.5257988 C64.5351143,84.0049245 63.4572477,83.4568096 62.3893152,82.8855813 C54.915444,78.8795546 47.9589819,73.6443966 41.7277204,67.4731508 C40.8377768,66.5915443 39.9619066,65.6909518 39.1017657,64.7721989 C37.3814839,62.9346932 35.7232911,61.0237202 34.1313267,59.0467092 C31.7437941,56.0816056 28.2121664,53.2494033 26.1392186,50.0094167 C24.7575292,47.8499759 23.449519,45.6352284 22.2193271,43.3701269 C18.5229563,36.561615 17.8192799,25.1799754 12.1526153,19.942341 C12.0764527,19.8730012 12.0044293,19.8086142 11.9299224,19.7442272 C11.8280963,19.6542505 11.7279259,19.5667502 11.6285833,19.4858537 L11.419964,19.3191079 C11.3206214,19.2415133 11.2237624,19.1680461 11.1277313,19.0987063 L10.9389805,18.964154 C10.8379822,18.8948141 10.7394675,18.8304271 10.6434364,18.769342 L10.4902833,18.673587 C10.3768672,18.6050727 10.2667625,18.5439876 10.1599693,18.4862044 L10.0747003,18.4391523 C9.65083873,18.2187507 9.28906628,18.0825474 8.99766146,18 C8.60029126,18.1428071 8.2459695,18.3054255 7.92393406,18.482077 L7.78733805,18.5704027 C7.53070313,18.7206391 7.29310887,18.8799556 7.0828338,19.0516542 L6.90650077,19.2175746 C6.73182346,19.3768911 6.56790825,19.541986 6.42717297,19.717812 L6.28478198,19.9142749 C6.17798874,20.0653367 6.08609688,20.2238277 6,20.3856207 C9.61027386,27.281633 12.6418774,38.3644508 13.6452371,46.064475 C15.2595536,58.4416366 16.6039894,68.366314 22.6655407,79.3830939 C28.3802209,89.768386 37.0081214,99.3331566 46.7734942,106.259711 C47.3877623,106.698864 48.0086532,107.123983 48.6378227,107.532593 C50.002127,108.418327 51.3829885,109.25123 52.7779235,110.030478 C55.5669656,111.59145 58.4114739,112.941926 61.2998586,114.086859 C62.7444649,114.659738 64.1990054,115.181438 65.6626523,115.651958 C78.8238845,119.88499 92.7310137,120.025321 106.239945,116.518706" id="Fill-17" fill="#F9F399"></path>
            <path d="M106.239945,117.511832 C107.948637,117.067325 109.64905,116.549974 111.342841,115.988752 C114.132711,115.064971 116.902712,113.998815 119.634632,112.765451 L119.715762,112.728202 C119.865604,112.660325 120.020412,112.589138 120.185155,112.512984 C120.271252,112.472424 120.363144,112.428552 120.45338,112.386337 C120.567624,112.331704 120.682696,112.2779 120.803563,112.219957 C120.907872,112.170291 121.017149,112.116486 121.12477,112.064338 C121.243154,112.007222 121.359881,111.949279 121.483231,111.88968 C121.602442,111.830081 121.726621,111.768827 121.850799,111.706745 C121.966698,111.648802 122.082598,111.590858 122.201809,111.530432 C122.339233,111.4609 122.477485,111.39054 122.619048,111.318525 C122.73412,111.258926 122.852503,111.1985 122.971714,111.137245 C123.124867,111.056952 123.278848,110.977487 123.436968,110.894711 C123.535483,110.842562 123.637309,110.788758 123.738307,110.734953 C123.923747,110.637278 124.110014,110.538774 124.300421,110.436132 L124.456885,110.350872 C125.493359,109.790478 126.601028,109.167174 127.74264,108.490066 L127.782377,108.466888 C128.060536,108.302164 128.339523,108.133301 128.620166,107.962782 L128.710402,107.907322 C128.991045,107.736803 129.271687,107.562973 129.553158,107.38666 L129.630148,107.33865 C129.919898,107.155715 130.210474,106.971124 130.526715,106.767495 C135.419336,103.606276 140.289604,99.682689 142.195325,95.7913847 C142.307914,95.5596117 142.40974,95.3278386 142.499148,95.0968933 L142.514877,95.0571607 C142.701972,94.5720928 142.841052,94.0895082 142.922182,93.5903683 C142.961091,93.3519732 142.989238,93.113578 143,92.8768384 L142.998344,92.6864533 C143,92.5043459 143.003311,92.3214108 142.985926,92.1401311 C142.964402,91.8893195 142.925493,91.6401635 142.865888,91.3918352 L142.835257,91.3057481 C140.564452,94.7740665 136.227322,98.1960303 131.8637,101.016212 C131.544976,101.221497 131.251916,101.407743 130.959683,101.591506 L130.882692,101.639516 C130.598738,101.817485 130.31644,101.99297 130.034141,102.164316 L129.94225,102.220604 C129.659951,102.392778 129.378481,102.562469 129.098666,102.728022 L129.058929,102.752027 C127.908211,103.433274 126.793919,104.061545 125.748338,104.626078 L125.591046,104.711337 C125.398984,104.814807 125.211888,104.914138 125.024793,105.01347 C124.923795,105.067274 124.821141,105.121079 124.720971,105.173227 C124.561195,105.257659 124.407214,105.337952 124.251577,105.417417 C124.132366,105.479499 124.013983,105.540753 123.898083,105.600352 C123.754864,105.673195 123.614957,105.744383 123.477533,105.813914 C123.356666,105.875169 123.239939,105.93394 123.123211,105.991883 C122.998205,106.054793 122.874027,106.116875 122.75316,106.175646 C122.628982,106.2369 122.511427,106.294016 122.392216,106.351959 C122.283767,106.404936 122.17449,106.45874 122.069352,106.508406 C121.94683,106.568005 121.831758,106.621809 121.715031,106.676441 C121.625622,106.719485 121.532075,106.763356 121.446806,106.803917 C121.280407,106.880898 121.123115,106.952914 120.973273,107.02079 L120.892143,107.058867 C118.138699,108.300508 115.349657,109.374942 112.538263,110.306173 C110.832054,110.870706 109.119223,111.391368 107.397286,111.840014 C93.7906676,115.382003 79.7808844,115.240456 66.5227932,110.965071 C65.0475563,110.489108 63.5822537,109.962652 62.1268853,109.38322 C59.2178043,108.22601 56.3517717,106.86186 53.5420333,105.285803 C52.1379919,104.498602 50.7463683,103.656769 49.3721297,102.76196 C48.7388209,102.349735 48.1129629,101.920127 47.4945555,101.477275 C37.6563316,94.4802114 28.9646863,84.8177576 23.2086133,74.3267151 C17.1023579,63.1982967 15.7479878,53.1732837 14.1220814,40.6699543 C13.298366,34.3359274 11.1202806,25.7371465 8.37594267,19 C8.2277567,19.0687042 8.05887436,19.1291307 7.92393406,19.2036292 L7.78733805,19.2921996 C7.53070313,19.4428521 7.29310887,19.60261 7.0828338,19.7747843 L6.90650077,19.9411642 C6.73182346,20.1009221 6.56790825,20.2664743 6.42717297,20.4427874 L6.28478198,20.6397945 C6.17798874,20.7912747 6.08609688,20.9502048 6,21.112446 C9.61027386,28.0275611 12.6418774,39.1410798 13.6452371,46.8624341 C15.2595536,59.273882 16.6039894,69.2260521 22.6655407,80.2733499 C28.3802209,90.6874106 37.0081214,100.278677 46.7734942,107.224419 C47.3877623,107.664788 48.0086532,108.091085 48.6378227,108.500827 C50.002127,109.389014 51.3829885,110.224225 52.7779235,111.005631 C55.5669656,112.570927 58.4114739,113.925144 61.2998586,115.073249 C62.7444649,115.647715 64.1990054,116.17086 65.6626523,116.642683 C78.8238845,120.887442 92.7310137,121.028161 106.239945,117.511832" id="Fill-18" fill="#F4DD28"></path>
            <path d="M107.331354,111.483753 C109.058683,111.033353 110.776876,110.510656 112.488426,109.943917 C115.308622,109.009046 118.106396,107.930413 120.868461,106.683919 L120.949845,106.645693 C121.100156,106.577551 121.25794,106.505255 121.42486,106.427972 C121.510396,106.387253 121.604237,106.34321 121.693925,106.299998 C121.811018,106.245153 121.92645,106.191138 122.049356,106.131306 C122.154822,106.081446 122.264441,106.027432 122.37323,105.974248 C122.492814,105.916078 122.610738,105.858739 122.735305,105.797246 C122.85655,105.738245 122.981117,105.67592 123.106514,105.612765 C123.223607,105.554595 123.3407,105.495594 123.461945,105.4341 C123.599799,105.364297 123.740145,105.292831 123.883812,105.219703 C124.000074,105.159872 124.118828,105.098378 124.238412,105.036053 C124.394536,104.956278 124.548999,104.875671 124.709276,104.790909 C124.80976,104.738557 124.912735,104.684542 125.014049,104.630527 C125.20173,104.530807 125.389411,104.431088 125.582075,104.327213 L125.73986,104.241621 C126.788713,103.674881 127.906494,103.044155 129.060815,102.360245 L129.100676,102.336146 C129.381367,102.169947 129.663719,101.999593 129.946901,101.826746 L130.039081,101.770238 C130.322263,101.598222 130.605445,101.422051 130.890288,101.243386 L130.96752,101.195189 C131.260667,101.010707 131.554645,100.823733 131.874367,100.617646 C135.743417,98.1155165 139.585892,95.14055 142,92.0791598 C139.958763,93.8948866 137.588669,95.6241898 135.197814,97.1706738 C134.878922,97.3767609 134.584944,97.563735 134.291797,97.7482162 L134.213735,97.796414 C133.928891,97.9750781 133.64654,98.1504184 133.363357,98.3232656 L133.271178,98.3797733 C132.987996,98.5517895 132.705644,98.7221438 132.424953,98.889174 L132.384261,98.9132729 C131.230771,99.5971828 130.11216,100.227909 129.064136,100.794648 L128.906352,100.880241 C128.712858,100.984116 128.526007,101.083835 128.338326,101.182724 C128.236181,101.237569 128.134037,101.291584 128.033553,101.344768 C127.873276,101.428699 127.717983,101.509305 127.562689,101.589081 C127.443105,101.651406 127.324351,101.712899 127.207258,101.772731 C127.064422,101.84669 126.924076,101.917324 126.786222,101.987128 C126.664977,102.048622 126.547884,102.107622 126.430791,102.165792 C126.305394,102.228117 126.179996,102.290442 126.059581,102.350273 C125.935014,102.411767 125.816261,102.469937 125.697507,102.527276 C125.587888,102.580459 125.478269,102.634474 125.373633,102.684334 C125.249896,102.744166 125.135295,102.79818 125.018202,102.853026 C124.928513,102.896238 124.834673,102.940281 124.748307,102.980999 C124.581387,103.058282 124.424432,103.130579 124.273291,103.198721 L124.191907,103.236946 C121.430673,104.483441 118.631238,105.562074 115.811873,106.496945 C114.100323,107.063684 112.382129,107.586381 110.655631,108.03595 C97.0055838,111.592614 82.9527699,111.450513 69.6523404,107.158418 C68.1733154,106.680595 66.7025948,106.15125 65.2435005,105.570384 C62.3253119,104.408651 59.4503065,103.04 56.6317714,101.456952 C55.2225039,100.665844 53.8273539,99.8215518 52.4479824,98.9232449 C51.812691,98.5094087 51.1857039,98.0781217 50.56453,97.6327077 C40.6963355,90.6091275 31.9774788,80.9089084 26.203385,70.376862 C20.0780124,59.2057796 18.7194021,49.1407531 17.0884054,36.5885549 C16.5544283,32.4792785 15.4474433,27.4234974 13.9925012,22.5339155 C13.3190092,21.5782698 12.5940295,20.7023998 11.7884965,19.9553342 C11.7120954,19.8855305 11.6398466,19.8207128 11.5651064,19.7558951 C11.4629615,19.6653165 11.3624775,19.5772309 11.2628239,19.4957932 L11.0535514,19.327932 C10.9538978,19.2498183 10.8567356,19.1758597 10.7604038,19.106056 L10.571062,18.9706036 C10.4697476,18.9007999 10.3709245,18.8359822 10.2745927,18.7744885 L10.1209601,18.6780929 C10.0071889,18.6091202 9.89673957,18.5476265 9.78961198,18.4894568 L9.704076,18.44209 C9.27888745,18.220214 8.91598237,18.0830996 8.62366524,18 C8.39280115,18.0839306 8.20428981,18.1861432 8,18.2808767 C10.7529298,25.0443551 12.9378343,33.6767441 13.7641284,40.0355273 C15.3951252,52.5877255 16.7537355,62.651921 22.8791081,73.8238344 C28.6532019,84.3558808 37.3720586,94.0560999 47.2410835,101.080511 C47.861427,101.525094 48.4892445,101.956381 49.124536,102.370217 C50.503077,103.268524 51.8990574,104.113647 53.3074945,104.903925 C56.1260295,106.486142 59.001035,107.855623 61.9192236,109.017356 C63.3791484,109.599054 64.8490385,110.127567 66.328894,110.60539 C79.628493,114.897486 93.6821373,115.039586 107.331354,111.483753" id="Fill-19" fill="#F4E92A"></path>
            <path d="M17.0985999,37.0516077 C18.7310168,49.6010982 20.0908101,59.6639536 26.2215163,70.8326263 C32.0006379,81.3624008 40.7270865,91.0605275 50.6038736,98.0825926 C51.2255884,98.5279105 51.8531214,98.9591045 52.4889661,99.3728514 C53.8695386,100.270965 55.2659034,101.115075 56.676398,101.906012 C59.4973873,103.488719 62.3748961,104.857074 65.2956257,106.018556 C66.7559905,106.599298 68.2279917,107.128528 69.7083046,107.606248 C83.0203153,111.897417 97.0853656,112.039487 110.747299,108.48359 C112.4753,108.034118 114.19499,107.511535 115.90803,106.944917 C118.729851,106.010248 121.531723,104.931848 124.295362,103.685622 L124.376816,103.647405 C124.528089,103.579278 124.68518,103.506997 124.852245,103.429731 C124.938687,103.389021 125.032609,103.344987 125.122375,103.301785 C125.23957,103.246951 125.354272,103.192948 125.478116,103.133129 C125.582843,103.08328 125.692557,103.029277 125.802272,102.976105 C125.921129,102.918778 126.039986,102.860621 126.164662,102.799141 C126.285181,102.739322 126.410688,102.677011 126.536195,102.614699 C126.653389,102.556542 126.770584,102.497554 126.891935,102.436074 C127.029909,102.366285 127.170377,102.295666 127.313338,102.221723 C127.430533,102.161904 127.54939,102.100424 127.669079,102.038112 C127.824507,101.958354 127.979936,101.877765 128.140352,101.793852 C128.240923,101.74068 128.343157,101.686677 128.445391,101.631843 C128.633235,101.532976 128.820248,101.433278 129.013911,101.329425 L129.171833,101.243851 C130.220769,100.677234 131.340354,100.046644 132.494849,99.3628816 L132.535576,99.3387879 C132.816511,99.1717937 133.099109,99.0014762 133.382538,98.8294971 L133.474798,98.7730015 C133.758226,98.6001916 134.040824,98.4248892 134.325915,98.2462636 L134.404045,98.1980762 C134.697448,98.0136348 134.991682,97.826701 135.310851,97.6206584 C137.703788,96.074508 140.075946,94.3455778 142.11896,92.5302427 C142.436467,92.1281273 142.734857,91.7243502 143,91.3205732 C142.952623,91.1485941 142.898597,90.9799382 142.823792,90.822083 C142.788052,90.744817 142.73735,90.6758592 142.694961,90.6019165 C142.635948,90.5005568 142.581922,90.3967047 142.512104,90.3019916 C142.443948,90.2097709 142.361662,90.1250275 142.283532,90.0386226 L142.103168,89.8417189 C142.002597,89.7453442 141.887895,89.6572776 141.774025,89.5683802 L141.605298,89.4371111 C141.469817,89.3415671 141.321869,89.2526697 141.169765,89.1662647 L141.030128,89.0865063 C140.857245,88.9942856 140.673557,88.9087115 140.481556,88.8272914 L140.383478,88.7849197 C140.173193,88.6985148 139.952933,88.6187563 139.721867,88.5448136 L139.671997,88.5281973 C139.425971,88.4501005 139.169971,88.3786502 138.897347,88.3121849 C133.909499,87.1008537 125.478116,88.1053114 118.983357,89.2643011 L118.910214,89.2775942 C117.773174,89.4811444 116.697641,89.6880178 115.711043,89.8890755 L115.541484,89.9239698 C115.071874,90.0203446 114.618055,90.1150577 114.18834,90.2081092 C113.7686,90.2986683 113.380444,90.3850733 113.012236,90.4689858 L112.797794,90.5171732 C112.448703,90.5969316 112.115404,90.6750284 111.822832,90.744817 C104.32319,92.5468591 96.900846,93.0038084 89.6838012,92.3042605 C88.4810989,92.1871153 87.2842149,92.0383991 86.0939801,91.8589426 C82.5216136,91.3180807 79.0065978,90.4964027 75.5655561,89.4163407 C74.4185422,89.0557661 73.27984,88.6669437 72.1494494,88.2507044 C69.8894996,87.417395 67.6644588,86.4727561 65.4793142,85.4234342 C64.3863263,84.8991887 63.3041436,84.3475262 62.2319349,83.7726009 C54.7281367,79.740646 47.7438194,74.4716047 41.4876066,68.2604169 C40.5940993,67.3731044 39.714722,66.4666831 38.8511369,65.5419838 C37.1239667,63.6925851 35.4591342,61.7692438 33.8607952,59.7794371 C31.4637024,56.7951425 27.9179333,53.9446094 25.8366849,50.6836528 C24.449463,48.5102355 23.1362152,46.2811536 21.9010973,44.0013918 C18.7152246,38.1200383 18.0793799,28.783317 14,23 C15.456209,27.8885271 16.5641579,32.9432177 17.0985999,37.0516077" id="Fill-20" fill="#F9F39A"></path>
            <path d="M142.10555,95.8684053 C140.926231,96.4625901 139.025847,94.9886039 137.863161,92.5761629 C136.699643,90.1637219 136.714613,87.7257794 137.894764,87.1315947 C139.074916,86.5374099 140.974468,88.0113961 142.137154,90.4238371 C143.29984,92.8362781 143.285702,95.2742206 142.10555,95.8684053" id="Fill-21" fill="#8D5C38"></path>
        </g>
    </g>
</svg>