<?xml version="1.0" encoding="UTF-8"?>
<svg width="200px" height="200px" viewBox="0 0 200 200" version="1.1" xmlns="http://www.w3.org/2000/svg" xmlns:xlink="http://www.w3.org/1999/xlink">
    <!-- Generator: Sketch 56.3 (81716) - https://sketch.com -->
    <title>beet</title>
    <desc>Created with Sketch.</desc>
    <g id="beet" stroke="none" stroke-width="1" fill="none" fill-rule="evenodd">
        <g id="typeText" transform="translate(10.000000, 6.000000)" fill="#725F5F" fill-opacity="0.87" font-family="Roboto-Black, Roboto Black" font-size="17" font-weight="700">
            <g id="vegetable">
                <text>
                    <tspan x="0" y="16">vegetable</tspan>
                </text>
            </g>
        </g>
        <g id="firstLetter" transform="translate(10.000000, 152.000000)">
            <g id="Group" transform="translate(0.000000, -5.000000)">
                <rect id="Rectangle" stroke="#979797" x="0.5" y="6.5" width="34" height="38"></rect>
                <text id="C" fill="#131313" font-family="Roboto-Bold, Roboto" font-size="43" font-weight="bold">
                    <tspan x="3.77905273" y="40">B</tspan>
                </text>
            </g>
        </g>
        <g id="nameText" transform="translate(104.000000, 161.000000)" fill="#454545" fill-opacity="0.87" font-family="Roboto-Black, Roboto Black" font-size="26" font-weight="700">
            <text id="Carrot">
                <tspan x="31.9941406" y="28">Beet</tspan>
            </text>
        </g>
        <g id="colorText" transform="translate(133.000000, 5.000000)" fill="#454545" fill-opacity="0.87" font-family="Roboto-Black, Roboto Black" font-size="18" font-weight="700">
            <text id="orange">
                <tspan x="30.2548828" y="17">red</tspan>
            </text>
        </g>
        <g transform="translate(48.000000, 20.000000)">
            <path d="M62.5355605,25.3136631 C61.7343619,24.090782 60.2632536,23.1426304 58.8403967,23.191769 C59.2870032,17.3554432 60.1027894,11.2108845 57.0629477,5.92625121 C55.7601584,3.66252518 53.8794738,1.73830221 51.4467028,0.704157997 C48.9230395,-0.367956948 46.0627381,-0.160234677 43.5929368,0.950967792 C37.9710812,3.48383935 35.8132313,9.6641353 36.4045921,15.4423881 C36.4764083,16.1370293 36.5863767,16.8272033 36.7311311,17.5106766 C36.8040693,17.8512964 36.8859846,18.1907995 36.9757547,18.5269522 C37.0554257,18.8217838 37.3797204,19.5175417 37.2764847,19.8313587 C37.1485622,20.2233507 36.3204326,20.3964526 35.9793061,20.5226495 C35.3049078,20.7694593 34.6888602,21.0654077 34.1367737,21.534458 C31.6512627,23.6507682 31.7915286,27.1407257 32.3077069,30.0510711 C32.6656654,32.0657537 33.0595319,34.0737357 33.4365666,36.085068 C33.8068684,38.0595463 34.1019878,40.0664115 34.6013343,42.0129702 C35.2162598,44.4006595 36.492118,46.8140349 38.6005944,48.0134635 C37.6557636,49.0677099 37.1384631,50.4994301 37.0419602,51.9948071 C36.8556871,54.891751 37.5727262,57.9897165 38.1932624,60.8029014 C38.7621807,63.3815612 39.3243662,66.2595198 40.8650464,68.4651729 C41.1859747,68.9241721 41.5394447,69.3351495 41.9636086,69.703689 C42.2699493,69.9694842 43.2091695,70.3871623 43.3101609,70.7099136 C43.4302284,71.0974385 43.1250099,71.8468021 43.1216436,72.2778817 C43.117155,72.8284574 43.1755056,73.3913177 43.3124051,73.9240248 C43.9239643,76.3161813 45.796794,78.3498494 48.2261987,78.9607315 C48.8702995,79.1215488 49.3718902,78.7664107 49.5951934,78.2962436 C49.8285958,78.3275136 50.077708,78.2973604 50.3155989,78.2136014 C56.2718483,76.1196269 59.4833754,69.2759598 57.8955659,63.3547583 C59.3330104,62.2268041 60.8579808,61.1334702 62.1394497,59.8513994 C63.4669258,58.5235404 63.8574259,56.9834919 63.6711529,55.1519622 C63.3064616,51.5726618 62.0126493,48.0302153 60.1869489,44.9188484 C63.8821127,42.1838385 65.3509768,37.5078539 64.9301792,32.9848689 C64.6945326,30.4363624 63.9561731,27.4802288 62.5355605,25.3136631" id="Fill-13" fill="#359044"></path>
            <path d="M47.1831782,18.0225151 C46.7925004,37.9331752 47.0253835,57.8538811 47.8948865,77.7500307 C48.143005,83.432572 48.443359,89.113997 48.793772,94.7931897 C48.8318603,95.4082123 49.1757439,95.9462176 49.8243343,95.9975625 C50.3597479,96.0388617 51.0355444,95.5499689 50.9985443,94.9405272 C49.7720989,75.0655853 49.1703027,55.1515766 49.2040381,35.2375678 C49.2138322,29.5472132 49.2758619,23.8579748 49.3879505,18.1698526 C49.4162447,16.7143362 47.2125606,16.5625339 47.1831782,18.0225151" id="Fill-14" fill="#A52170"></path>
            <path d="M43.4818594,50.8275319 C42.3395453,46.6867437 39.5073709,43.2375888 35.773488,41.2212637 C37.1204292,38.805053 37.1822671,35.6442663 35.7172718,33.2674809 C34.2882549,30.9503968 31.7630212,29.5660038 29.1096145,29.4815209 C29.9528582,24.8991687 29.2175497,19.886517 25.2160775,16.9645354 C23.3991685,15.6375907 21.0223457,14.9572218 18.7950581,15.4506019 C17.621263,15.7096828 16.4924408,16.339362 15.6930458,17.2315013 C14.6440507,14.9470839 13.3207203,12.7775632 11.1867517,11.3706414 C8.67388563,9.71365023 5.38860835,9.39712099 2.92970985,11.3244574 C0.516908677,13.2146213 -0.252129536,16.4689024 0.0694273772,19.3908841 C0.271805854,21.226979 0.890184534,22.9921082 1.56815243,24.6997891 C2.18653111,26.2565272 2.85213144,27.8008745 3.81118055,29.1818882 C5.24469477,31.2477766 7.72945273,32.8799861 10.222081,32.7346755 C10.0410647,34.0773903 10.2929134,35.5023351 10.6796812,36.8011188 C11.3182977,38.9447314 12.1952711,41.0444129 13.5523312,42.8365767 C14.9251319,44.6490163 16.8589707,45.9106275 19.1222367,46.2384212 C21.075189,46.5200308 23.020271,46.0807198 24.8900233,45.4780751 C24.6595367,50.0311399 27.6850949,54.4997217 31.9991294,55.9483217 C30.90741,57.6548762 30.6847937,59.9190177 31.5909995,61.7720092 C32.814265,64.2693235 35.91178,65.5557164 38.5483218,64.7705887 C38.6798678,64.7311633 38.7956733,64.6748414 38.8957382,64.6061287 C39.3702033,64.9812327 40.1426145,65.0533248 40.6283228,64.4427951 C43.6134054,60.6906281 44.7635897,55.4740911 43.4818594,50.8275319" id="Fill-15" fill="#56B046"></path>
            <path d="M24.4046191,31.6052402 C20.7075844,26.9790259 16.465676,22.7973391 11.7216734,19.2288324 C10.5486191,18.3453617 9.30013813,20.2440977 10.4664378,21.1219839 C27.9969571,34.3137313 36.9648558,55.2489708 42.3404164,75.7910602 C44.0155649,82.1898005 45.4047674,88.6555549 46.7354297,95.1302446 C47.0303819,96.5587642 49.2672906,96.1019506 48.9734642,94.6711972 C44.4219685,72.5308189 38.8448948,49.6767391 24.4046191,31.6052402" id="Fill-16" fill="#A52170"></path>
            <path d="M87.1943211,20.0229608 C86.2118663,18.5408288 84.7437536,17.5389967 83.0038506,17.1812791 C81.0378271,16.7767574 78.9069473,17.1523051 76.9320126,17.3161197 C72.9932822,17.6415201 68.5978552,17.6025166 65.1236187,19.7443645 C62.0604093,21.6321327 60.3539232,25.2739427 60.7337611,28.8188013 C59.7223451,29.243382 58.9403913,30.1660927 58.5884007,31.2191865 C58.1829431,32.4282942 58.3433439,33.6608039 58.6886511,34.8498527 C57.4678229,34.9401179 56.2960061,35.4705651 55.3625626,36.3431286 C53.8109078,37.7940578 53.1615074,39.8757289 52.8930589,41.9295404 C52.6079019,44.1137349 52.4541845,46.5430941 53.3274777,48.6191933 C53.7095434,49.5274171 54.3077047,50.3420325 55.0595834,50.9527154 C53.8320718,51.4508455 52.6045603,51.9723777 51.5140577,52.6499237 C49.7362823,53.7531648 49.9033665,55.6375898 50.1539927,57.461838 C50.5215779,60.1608784 51.4761853,63.2610973 53.7886299,64.7187129 C52.5733712,65.8386698 51.7936452,67.4188676 51.7680256,69.1038177 C51.7290393,71.6167558 53.2762386,73.8912155 55.5519247,74.9030771 C55.7936398,75.0089436 56.0175325,75.0223162 56.2146918,74.9710545 C56.2469948,74.9766265 56.2804116,74.9799696 56.3138284,74.9821984 C58.9103161,75.1393267 61.5123733,74.0684027 63.0796226,71.944385 C64.3639428,70.20483 64.7872226,68.0050341 64.3906763,65.9222486 C67.8348376,65.5043543 71.5385362,64.8223507 74.0804431,62.3383866 C76.2035257,60.2634018 77.5012126,56.9447634 76.3895461,54.0997386 C79.974058,52.0425839 83.6677317,49.5630774 85.3485982,45.6593868 C86.7075493,42.504563 86.5504902,38.5050354 84.3015376,35.8739725 C89.2316339,32.6110533 90.4279564,24.8995094 87.1943211,20.0229608" id="Fill-17" fill="#56B046"></path>
            <g id="Group-21" transform="translate(25.000000, 26.000000)">
                <path d="M50.2259574,0.887610687 C37.9322128,14.6854122 33.4666809,33.4879466 29.2796809,50.9573817 C27.8858936,56.7722977 26.5744255,62.6051679 25.2629574,68.4391603 C24.959617,69.7890916 27.1010426,70.0628931 27.4021277,68.7241832 C29.6585745,58.6866641 31.8947234,48.6345573 34.5943404,38.7025191 C36.8710851,30.3257634 39.5695745,21.984916 43.6314043,14.2769542 C45.9182979,9.93877099 48.6754255,5.85531298 51.943383,2.18592366 C52.8658085,1.15131298 51.1427447,-0.141389313 50.2259574,0.887610687" id="Fill-18" fill="#A52170"></path>
                <path d="M51.4246596,85.5685878 C50.6736383,80.3540153 48.8389362,74.8847176 44.7568085,71.3006107 C40.3521702,67.4314809 34.4206809,66.7009695 28.7350213,66.6930827 C18.7608723,66.680771 9.52985106,70.2626336 7.51359574,71.7371221 C2.35906383,75.5075038 0.576234043,81.8879771 0.325893617,87.9755725 C0.193957447,91.1658092 0.312361702,94.4132748 0.580744681,97.5956565 C0.819808511,100.439153 1.31597872,103.324168 2.73795745,105.841122 C5.68791489,111.059061 11.9148511,111.236359 17.1663617,112.949863 C21.7356383,114.440061 23.6233404,123.735847 23.6549149,126.552412 C23.7248298,132.659084 23.7958723,138.766878 23.8657872,144.87355 C23.8883404,146.890031 26.8811489,147.34113 27.4235532,145.352702 C28.987617,139.623069 27.6941915,116.960382 36.9759574,112.866824 C41.9771277,110.65958 47.3639574,108.218931 49.8628511,103.231031 C52.5681064,97.8290611 52.2636383,91.3857481 51.4246596,85.5685878" id="Fill-20" fill="#9C1416"></path>
            </g>
            <path d="M37.4389227,121.951176 C40.6165298,121.719286 43.7753996,121.045088 46.7953938,120.2324 C47.1701376,120.131485 47.3971883,119.924287 47.5007939,119.685956 C48.4982738,119.224323 47.8975815,117.764276 46.6113285,118.032667 C41.2690249,119.151321 35.5685103,118.670364 30.1159879,118.534021 C29.1747196,118.510403 28.6048886,119.558202 29.3257193,120.083174 C31.5532406,121.707477 34.521432,122.163742 37.4389227,121.951176" id="Fill-22" fill="#3B142A"></path>
            <path d="M50.602875,131.018252 C50.1581513,131.091434 49.7112315,131.165879 49.2632136,131.236537 C45.7284841,131.750076 42.1421447,131.770264 38.5887478,131.333693 C38.3252078,131.302149 38.1099835,131.350096 37.9452711,131.449776 C36.8845228,131.612544 36.5583921,133.255362 37.7981279,133.524118 C41.697421,134.366977 45.6307547,133.951856 49.5234593,133.344947 C50.0812855,133.266718 50.6380136,133.175871 51.1947418,133.07493 C52.6090728,132.818791 52.0007348,130.787349 50.602875,131.018252" id="Fill-23" fill="#3B142A"></path>
            <path d="M71.3227364,125.121509 C67.2609843,126.95693 62.6461566,127.64316 58.0610168,127.17035 C56.8647022,127.046676 56.6843754,128.436648 57.4980452,128.894135 C59.9038692,130.244706 62.9540317,130.070686 65.7106133,129.845226 C68.2175962,129.641656 70.9323947,129.21153 72.5971193,127.491029 C72.9038949,127.174728 72.9192886,126.810271 72.7697493,126.507104 C73.4701651,125.835102 72.4530778,124.610394 71.3227364,125.121509" id="Fill-24" fill="#3B142A"></path>
            <path d="M28.492681,103 C27.8783189,104.230556 27.3861376,105.535067 27,106.883223 C32.793216,107.249359 38.6244694,106.752287 44.2378721,105.423529 C45.4101166,105.144684 45.1634496,103.588 43.9531677,103.577088 C41.058865,103.551629 38.1645623,103.526169 35.269107,103.500709 C33.0272038,103.480099 30.6711884,103.546779 28.492681,103" id="Fill-25" fill="#3B142A"></path>
            <path d="M76.7362696,114 C72.1049336,115.813318 67.1066684,116.828681 62.0269908,117.005473 C60.6234861,117.053255 60.6922854,118.71845 62.0269908,118.857017 C65.5552454,119.220158 69.0949666,118.851044 72.5521287,118.20599 C74.0450724,117.927661 75.5242562,117.596773 77,117.255133 C76.9438139,116.16332 76.8520816,115.07509 76.7362696,114" id="Fill-26" fill="#3B142A"></path>
            <path d="M61.3922729,110.478818 C63.0449715,109.781285 64.6645018,109.035838 66.2565824,108.250278 C66.5013419,108.153336 66.7449577,108.054166 66.9874298,107.952768 C67.1532715,107.882569 67.2756513,107.795655 67.3614315,107.6976 C67.4083247,107.6742 67.4552178,107.651915 67.502111,107.628515 C68.6584282,107.037952 67.5913224,105.543716 66.4281428,106.136507 C66.0221165,106.344876 65.612659,106.548787 65.2020578,106.751584 C58.0148203,109.62083 50.0452673,111.019239 42.0345398,110.845413 C40.8221796,110.81867 40.6083009,112.275021 41.752037,112.541332 C43.8851048,113.036068 46.1760081,112.933555 48.3719814,112.966983 C50.6525911,113.00264 52.9755191,113.096238 55.2080919,112.647188 C57.3800467,112.209279 59.4204719,111.313406 61.3922729,110.478818" id="Fill-27" fill="#3B142A"></path>
        </g>
    </g>
</svg>