<?xml version="1.0" encoding="UTF-8"?>
<svg width="200px" height="200px" viewBox="0 0 200 200" version="1.1" xmlns="http://www.w3.org/2000/svg" xmlns:xlink="http://www.w3.org/1999/xlink">
    <!-- Generator: Sketch 56.3 (81716) - https://sketch.com -->
    <title>carrot</title>
    <desc>Created with Sketch.</desc>
    <g id="carrot" stroke="none" stroke-width="1" fill="none" fill-rule="evenodd">
        <g id="typeText" transform="translate(10.000000, 6.000000)" fill="#725F5F" fill-opacity="0.87" font-family="Roboto-Black, Roboto Black" font-size="17" font-weight="700">
            <g id="vegetable">
                <text>
                    <tspan x="0" y="16">vegetable</tspan>
                </text>
            </g>
        </g>
        <g id="firstLetter" transform="translate(10.000000, 152.000000)">
            <g id="Group" transform="translate(0.000000, -5.000000)">
                <rect id="Rectangle" stroke="#979797" x="0.5" y="6.5" width="34" height="38"></rect>
                <text id="C" fill="#131313" font-family="Roboto-Bold, Roboto" font-size="43" font-weight="bold">
                    <tspan x="3.43261719" y="40">C</tspan>
                </text>
            </g>
        </g>
        <g id="nameText" transform="translate(104.000000, 161.000000)" fill="#454545" fill-opacity="0.87" font-family="Roboto-Black, Roboto Black" font-size="26" font-weight="700">
            <text id="Carrot">
                <tspan x="11.9101562" y="28">Carrot</tspan>
            </text>
        </g>
        <g id="colorText" transform="translate(133.000000, 5.000000)" fill="#454545" fill-opacity="0.87" font-family="Roboto-Black, Roboto Black" font-size="18" font-weight="700">
            <text id="orange">
                <tspan x="0.213867188" y="17">orange</tspan>
            </text>
        </g>
        <g transform="translate(104.500000, 101.500000) rotate(-52.000000) translate(-104.500000, -101.500000) translate(65.000000, 13.000000)">
            <path d="M55.7905514,14.690011 C55.4090756,15.8001404 55.0275997,16.9117078 54.6446789,18.0232752 C52.9338176,18.7983525 51.2229562,19.5748679 49.5106499,20.3499453 C49.8935707,19.7445509 50.2764915,19.1377185 50.6594123,18.5323241 C51.6882411,17.9973913 52.7170699,17.4638965 53.7473437,16.9289637 C54.5059604,16.534954 53.995881,15.2982814 53.2300393,15.698043 C52.8442285,15.8979238 52.4584177,16.0992426 52.071162,16.2991234 C52.3644938,15.8346522 52.6578256,15.370181 52.9511574,14.9071477 C53.4077724,14.1852761 52.341374,13.3742489 51.880424,14.1033105 C51.1868316,15.200498 50.4932392,16.2976855 49.8010917,17.3934349 C49.6045738,16.9361536 49.409501,16.4788724 49.2129831,16.0201531 C48.8748568,15.2321338 47.6365053,15.7440588 47.9760766,16.534954 C48.2766333,17.2381318 48.57719,17.9413096 48.8777468,18.6444874 C48.8950866,18.6833132 48.9153164,18.719263 48.9398811,18.7552128 C48.399457,19.6093797 47.8590329,20.4649846 47.3186088,21.3191515 C47.3128288,21.3306554 47.3070489,21.3421594 47.301269,21.3507873 C46.1279418,21.8842821 44.9546145,22.4163389 43.7798424,22.9483958 C44.4806597,21.6067498 45.1800321,20.2665418 45.8779595,18.9248958 C46.2767751,18.1613223 45.0340887,17.6594633 44.638163,18.4172848 C44.2826969,19.0988927 43.9272307,19.7790627 43.5732096,20.4592326 L42.8145929,18.2289079 C42.5386009,17.4135668 41.3016944,17.9312437 41.5776864,18.7422709 C41.9548273,19.8538382 42.3319681,20.9668436 42.710554,22.078411 C42.711999,22.0856009 42.714889,22.0913529 42.7177789,22.0985428 C42.4172222,22.6751774 42.1166655,23.2532499 41.8146638,23.8298845 C41.8059939,23.8500164 41.8002139,23.8701483 41.792989,23.8902801 C40.8653091,24.3259915 39.8234755,24.6984313 38.9839396,24.3389335 C39.6081728,22.0237673 40.2887604,19.724419 41.0271474,17.4437646 C41.1774257,16.9735414 41.334929,16.5061942 41.4924323,16.040285 C42.8434926,15.3931888 44.1959978,14.7446547 45.5485031,14.0961206 C45.6077474,14.1263184 45.6669918,14.1493263 45.7291261,14.1579542 C46.9920423,14.360711 48.2535136,14.5620298 49.5164298,14.7633486 C50.3704155,14.8999578 50.5452586,13.5755677 49.6941629,13.4403965 C49.0005704,13.3296712 48.305533,13.2189458 47.6119406,13.1082205 C48.7419183,12.5660977 49.8733409,12.023975 51.0047636,11.4818522 C51.7792751,11.1108504 51.2677507,9.87705376 50.4874592,10.2509315 C49.5265447,10.7110888 48.5656302,11.171246 47.6032707,11.6328413 C48.0598857,10.8016822 48.5179457,9.97052321 48.9745607,9.13936416 C49.3878262,8.38585666 48.1436948,7.88543565 47.7333193,8.63175319 C47.0021572,9.96189526 46.2709952,11.2905993 45.5412781,12.6207414 C44.3939607,13.1700541 43.2466432,13.7208048 42.0993257,14.2701176 C42.6397498,12.7271528 43.2018487,11.1928159 43.7942922,9.66854501 C46.5383173,8.30532914 49.2823424,6.94211327 52.0249225,5.57889741 C52.7936541,5.19639169 52.2835746,3.96259505 51.5090631,4.34653876 C50.7952409,4.70028465 50.0828636,5.05546853 49.3690414,5.40921442 C49.9253604,4.4069344 50.4802343,3.40609237 51.0365532,2.40381235 C51.4541537,1.65174284 50.2100222,1.15132183 49.7967568,1.89620138 C48.952886,3.41615831 48.1104601,4.93467725 47.2680343,6.45463418 C46.3562493,6.90760148 45.4430192,7.36200677 44.5297892,7.81497407 C45.369325,5.73851446 46.2536554,3.67931074 47.1871152,1.64023891 C47.5454713,0.856533586 46.3042298,0.353236589 45.9458737,1.13406593 C45.0846631,3.0163967 44.2653571,4.92173533 43.4836206,6.83857789 C43.3015526,6.21305163 43.1180396,5.58896335 42.9345266,4.96199909 C43.168614,3.72964044 43.4041464,2.4972818 43.6396789,1.26492315 C43.8000721,0.417946203 42.4706866,0.246825224 42.3088484,1.0880502 C42.2423791,1.43892011 42.1744649,1.79122801 42.1079956,2.14353591 C42.0025117,1.78547604 41.8984729,1.42741618 41.792989,1.06935632 C41.5516766,0.246825224 40.3162151,0.767378118 40.5560825,1.58271925 L41.0979516,3.4348522 C40.690466,3.07679234 40.2829805,2.71729448 39.8754949,2.35779663 C39.229587,1.78979002 38.4232858,2.85677965 39.0677487,3.42622425 L41.7857641,5.82047997 C41.791544,5.82479394 41.795879,5.82623193 41.8002139,5.82910792 C42.0949907,6.83570191 42.3897675,7.84085791 42.6830993,8.84601391 C42.0473062,10.4795722 41.4418578,12.1231964 40.8624192,13.7783245 C40.3696795,12.4870082 39.8754949,11.1985679 39.3827553,9.90868957 C39.0749736,9.10629036 37.8380671,9.62109129 38.1444038,10.4234905 C38.8249914,12.2008479 39.505579,13.9782053 40.1847216,15.7570007 C39.3755304,18.1828922 38.6270285,20.6303536 37.944996,23.0965089 C37.5476253,22.1042948 37.4493664,20.8043506 37.2860832,20.0292732 L37.1300249,19.2887076 C37.3279877,19.0198032 37.4638162,18.6890652 37.6025347,18.384211 C38.0837145,17.3244113 38.5417745,16.2531077 39.0128393,15.1875561 C39.3596355,14.3980988 38.1183941,13.8933638 37.7715979,14.6799451 C37.4479214,15.4133207 37.1256899,16.1452584 36.8020134,16.878634 C36.7615539,16.9721034 36.7225393,17.0670109 36.6835247,17.1619183 C36.5346913,16.4558645 36.385858,15.7483727 36.2370246,15.040881 C36.1878951,14.8050504 36.1373207,14.5692198 36.0881912,14.3319512 C36.0939711,14.3132573 36.1011961,14.2945634 36.105531,14.2758695 C36.841028,11.2877233 37.57508,8.29957718 38.310577,5.312869 C38.5157647,4.47739598 37.1834893,4.30915099 36.9811915,5.13455806 C36.472557,7.20095173 35.9653676,9.26446942 35.4567331,11.3294251 C34.9871132,9.09622442 34.5174933,6.86302375 34.0478735,4.62982307 C33.8730304,3.79291207 32.5407549,3.95828108 32.718488,4.79950606 L34.3123056,12.3820348 C33.5218992,11.7263107 32.7314928,11.0691486 31.9410864,10.4134246 C31.6217449,9.05308468 31.3038484,7.68986881 30.9859518,6.32809094 C30.792324,5.49836989 29.4600485,5.66086292 29.6551214,6.49633593 L30.24034,9.00275498 C29.8978787,8.71803268 29.5554174,8.43331038 29.2129562,8.15002607 C28.5497084,7.59927535 27.7419622,8.664827 28.40521,9.21557771 C28.9239593,9.64697514 29.4427087,10.0769346 29.961458,10.506894 C29.2895403,10.5917355 28.6176227,10.675139 27.94426,10.7585425 C27.0873843,10.8649539 27.2564475,12.189344 28.1133232,12.0829326 C29.1999513,11.9477614 30.2851345,11.8140282 31.3717626,11.677419 C32.4988503,12.6135514 33.627383,13.5496838 34.7544708,14.4858163 L35.1807411,16.5105082 C35.3006748,17.0813908 35.4177185,17.6508354 35.5347622,18.221718 C35.5304273,18.22028 35.5246474,18.218842 35.5203124,18.217404 C34.0464285,17.7256109 32.6014442,16.8297423 31.1969195,16.1625143 C30.416628,15.7915125 29.9094386,17.0296231 30.6868401,17.3963109 C31.7358987,17.8952939 32.7835122,18.3942769 33.8311258,18.890384 C34.3917797,19.1564124 35.1605113,19.7057251 35.8656636,19.8164505 C36.0217219,20.567082 36.1806702,21.3162755 36.3468434,22.065469 C35.4943027,21.7160371 34.643207,21.3680432 33.7921112,21.0200493 C32.993035,20.6921872 32.4815105,21.9274219 33.2820318,22.2538459 L36.4075327,23.5322203 C36.5332464,23.583988 36.6502901,23.5940539 36.7572189,23.576798 C36.929172,24.0427072 37.1531446,24.4798566 37.4739311,24.8436685 C35.9538077,30.6071381 34.7833704,36.4597631 33.9712893,42.3627179 C33.4005205,41.016758 32.8297517,39.670798 32.258983,38.3234 C33.5320141,34.7399254 34.8064902,31.1564508 36.0809663,27.5729762 C36.3685182,26.764825 35.1287217,26.254338 34.8411698,27.0653652 C34.5117134,27.9914317 34.182257,28.9146222 33.8542456,29.8406886 C33.7343119,29.2352943 33.6143782,28.6298999 33.4944445,28.0245055 C33.3282713,27.1847185 31.9959958,27.3500875 32.163614,28.1927505 C32.4164862,29.4668109 32.6679135,30.7408713 32.9193408,32.0134937 C32.9352356,32.0968972 32.9670252,32.1673588 33.0031498,32.2320684 C32.4974054,33.6542419 31.9916609,35.0764154 31.4859164,36.5000269 C31.0567561,35.4876809 30.6290407,34.476773 30.1998804,33.464427 C30.1998804,33.4572371 30.2042154,33.4514851 30.2042154,33.4457331 C30.4541976,31.1722687 30.7027349,28.8959283 30.9527172,26.6224638 C32.441051,26.6469097 33.2314574,25.2966358 33.7429818,24.0973509 C34.0782181,23.3050176 32.8384216,22.7974067 32.5017403,23.5897399 C32.2864377,24.0973509 31.799478,25.254934 31.0957706,25.3124537 C31.1896946,24.4554108 31.2836186,23.5954919 31.3775426,22.737011 C31.4714665,21.8828441 30.142081,21.7045332 30.0481571,22.5587001 L29.8805389,24.0959129 C29.5799822,23.6228137 29.2794254,23.1511526 28.9788687,22.6780534 C28.5193637,21.9533057 27.4645252,22.7815888 27.9240302,23.5034605 C28.406655,24.2627199 28.9008396,25.418865 29.6609013,26.088969 C29.4846132,27.7067094 29.3068801,29.3230117 29.1305921,30.9407521 L26.7449231,25.3138917 C26.4096867,24.5229964 25.1713352,25.0363593 25.5080166,25.8286926 C26.2464035,27.5729762 26.9847905,29.3158218 27.7246224,31.0572294 C26.5354004,30.112469 25.3447333,29.1677087 24.1569563,28.2229483 C23.4821487,27.6865775 22.6729575,28.7521291 23.3492101,29.2884999 C25.1713352,30.7379953 26.9934604,32.1860526 28.8155855,33.63411 C29.3415598,34.8750966 29.867534,36.1160832 30.3935083,37.3556318 C30.1261862,37.2779803 29.8603091,37.1988907 29.592987,37.1183632 C29.6031019,36.9529942 29.5554174,36.7804352 29.4614935,36.6351981 L27.6465932,33.8483707 C27.1784184,33.127937 26.1235799,33.9533441 26.5903098,34.6709018 C27.0093552,35.313684 27.4284006,35.9579041 27.8460011,36.6006863 C27.0917193,36.3777976 26.3359925,36.152033 25.5802658,35.9277063 C24.7595147,35.6846858 24.2422104,36.9184824 25.0716313,37.1643789 L26.8879765,37.7036257 C26.4039068,38.0530576 25.9198371,38.4039275 25.4343224,38.7533595 C24.73784,39.2595324 25.564371,40.3107042 26.2622983,39.8045312 C27.0108002,39.2638464 27.757857,38.7231616 28.5049139,38.1824769 C29.3588996,38.4355634 30.2114403,38.6886499 31.063981,38.9417363 C31.4237821,39.7887133 31.7835831,40.6371282 32.1419392,41.4826672 C31.0423062,41.3791318 29.9441182,41.2755964 28.8444852,41.172061 C27.9847196,41.0900955 27.8055415,42.4130476 28.6653071,42.4950131 C29.961458,42.6172424 31.2576089,42.7394717 32.5537597,42.861701 C32.6144491,42.8674529 32.6708035,42.8645769 32.7242679,42.857387 L33.633163,45.0028702 C33.1794379,48.8106715 32.8731013,52.6357286 32.718488,56.4694138 C32.258983,55.5490992 31.799478,54.6273467 31.339973,53.7055942 C31.704109,52.8485514 31.1998095,51.3386604 31.0957706,50.5362612 C30.8978078,49.0119903 30.699845,47.4848434 30.5004371,45.9605725 C30.3906183,45.1078435 29.0583429,45.2760885 29.1696066,46.1288175 L29.7374855,50.4931214 C29.2187361,49.4534536 28.6999868,48.4137858 28.1812374,47.374118 C27.7997616,46.6091066 26.5585201,47.1167176 26.9428859,47.888919 C27.6942777,49.394496 28.4456695,50.900073 29.1970613,52.407088 C28.9427441,52.2747928 28.6725321,52.1583155 28.4384446,52.0303342 L25.739214,50.563583 C24.9820423,50.1523174 24.4791878,51.3889901 25.2291346,51.7973796 C26.4284715,52.4502277 27.6292534,53.1016379 28.8285904,53.754486 C29.2086212,53.9615567 29.6926909,54.246279 30.1565309,54.3296825 C30.8891379,55.7993098 31.6217449,57.268937 32.3557969,58.7385642 C32.4193762,58.8651075 32.5205251,58.9700808 32.6375688,59.0419804 C32.6317889,59.3166368 32.623119,59.5912931 32.618784,59.8659495 C32.5797695,62.1494799 32.5985543,64.4344482 32.6650235,66.7179786 C31.978656,65.9673471 31.2922885,65.2152776 30.605921,64.4632081 C30.2547898,61.961103 29.5294077,59.5481534 28.4254398,57.264623 C28.0526338,56.4938596 26.8128373,57.0029086 27.1870883,57.7794239 C27.9384801,59.3310167 28.5049139,60.9343771 28.8921697,62.5880672 C28.0685286,61.6864466 27.2448876,60.784826 26.4212466,59.8817674 C25.8446979,59.2519272 24.7826345,60.0687063 25.3649631,60.7071745 C26.5354004,61.9884248 27.7072826,63.2711132 28.8777198,64.5523635 C27.3619314,64.6745928 25.8461429,64.7953841 24.3303544,64.9176133 C23.4676988,64.9866369 23.6410969,66.311027 24.4994176,66.2420034 C26.3388825,66.0953283 28.1783475,65.9472152 30.0163674,65.8005401 C30.4368578,66.2592593 30.8573482,66.7179786 31.2763937,67.1795739 L28.9109545,67.5822114 C28.0613037,67.7260106 28.2289219,69.0504007 29.0800176,68.9066015 C30.1319662,68.7268526 31.1839147,68.5485417 32.2358632,68.3687928 C32.2719878,68.3630408 32.3052225,68.3515369 32.3384571,68.3400329 C32.4728406,68.488146 32.6072242,68.6333832 32.7401627,68.7814963 C32.8600964,71.515118 33.0537243,74.2487397 33.3253813,76.9722954 C33.4120804,77.8307763 34.7429109,77.6582173 34.6576568,76.8040504 C34.4047846,74.2760615 34.2241615,71.7408826 34.1056728,69.2042658 C34.1591372,69.1496221 34.2068217,69.0877885 34.2458363,69.0130129 C34.9293138,67.655549 35.744285,66.3843646 36.6762998,65.2052116 C38.2311028,64.8183919 39.7859059,64.4315722 41.339264,64.0461905 C42.1686849,63.8391198 42.0068467,62.5118537 41.1702008,62.7203625 C40.1847216,62.966259 39.1992423,63.2107175 38.215208,63.4566141 C38.856781,62.799452 39.5373686,62.1768017 40.2613057,61.5972912 C40.9317784,61.0580444 40.1066924,60.0025587 39.4333297,60.5446814 C38.9102454,60.9660129 38.4073909,61.4074763 37.9247662,61.8661956 L38.4449605,59.8084298 C38.6544832,58.9743948 37.3236527,58.8061498 37.11413,59.6315569 C36.7572189,61.0479784 36.3988628,62.4644 36.0419517,63.8822595 C35.3006748,64.7709382 34.6200872,65.7099466 34.0117489,66.7021607 C33.9322747,63.965663 33.9250498,61.2291654 33.998744,58.4941057 L36.8338031,56.1142299 C37.4132418,56.4420919 38.2022032,56.4636618 38.8163215,56.5643212 C40.0445581,56.764202 41.2742397,56.9640828 42.5024763,57.1654016 C43.356462,57.3034488 43.5313051,55.9804967 42.6816543,55.8424495 C41.9591622,55.7245342 41.2352251,55.6066189 40.512733,55.4887036 C39.7989108,55.3722263 38.7845318,55.3880442 38.128509,55.0990079 C38.1082792,55.09038 38.0938293,55.080314 38.0764895,55.0731241 L40.3364449,53.1749754 C40.3740145,53.1778514 40.4130291,53.1821654 40.4534886,53.1778514 C42.3883225,53.0239863 44.3246014,52.8686832 46.2608803,52.7148182 C47.1235359,52.6457946 46.9501378,51.3214045 46.0903722,51.3904281 C44.7552067,51.4968394 43.4185963,51.6046888 42.0819859,51.7111001 L45.187257,49.1040217 C45.8447248,48.551833 45.0225288,47.4963473 44.360726,48.05285 L41.337819,50.5894668 L41.8580133,47.1397254 C41.9866169,46.2869965 40.6572314,46.1129996 40.5286278,46.9628525 C40.2800905,48.6064767 40.0329982,50.2486629 39.7844609,51.8937251 C38.9868296,52.5623911 38.1906433,53.2296191 37.393012,53.8997231 C37.3800071,53.5445392 37.4320266,53.1620335 37.4508114,52.7982217 L37.5851949,50.4212218 C37.6328794,49.5670549 36.3049388,49.387306 36.2558094,50.2443489 C36.1907851,51.39618 36.1214259,52.5480112 36.0621815,53.7012803 C36.0390617,54.1240498 35.9986022,54.584207 36.0737414,55.0069765 C35.4018237,55.5706691 34.729906,56.1357997 34.0579883,56.6980544 C34.1967068,53.1562815 34.4625839,49.6188226 34.8570646,46.0943057 C34.9509886,46.0526039 35.0376877,45.9878943 35.1056019,45.8987388 C35.5968966,45.2545187 36.106976,44.6275544 36.6343953,44.0178461 C38.0230251,44.3025684 39.4131,44.5887286 40.8017298,44.872013 C41.6499356,45.0460099 41.8218887,43.7216198 40.9809079,43.5490608 L37.666114,42.8688909 C38.2238779,42.2735625 38.7975367,41.6940519 39.3885352,41.1332353 C39.8205855,41.347496 40.3638996,41.4898571 40.694801,41.6293423 C41.5964712,42.008972 42.4995863,42.3871638 43.4012565,42.7667935 C44.1974428,43.1004075 44.7075222,41.8666109 43.9113359,41.5329969 L40.512733,40.1021954 C40.8479693,39.8074072 41.1875406,39.5140569 41.5343368,39.2293346 C43.7942922,39.4306534 46.013788,39.2135167 48.2058291,38.5980564 C49.0352501,38.3636638 48.5107208,37.1341811 47.6885247,37.3656977 C46.194411,37.7855912 44.6742876,37.9825961 43.1397143,37.9739681 C44.8158961,36.7329815 46.5888917,35.6156622 48.4514764,34.645018 C49.2100931,34.2481323 48.7000137,33.0143357 47.9341721,33.4126593 C46.1221618,34.3574197 44.3910707,35.4287233 42.7466786,36.6165042 C43.165724,35.6559259 43.5862145,34.6939097 44.0052599,33.7333314 L48.0483258,31.3361997 C48.7867128,30.8990503 47.9544018,29.8507546 47.2203498,30.285028 L44.90982,31.6539958 C45.1612473,31.0744853 45.4141195,30.4949747 45.6669918,29.9154642 C46.010898,29.1260069 44.7696566,28.6198339 44.4271953,29.4078532 C44.1136337,30.1268489 43.8000721,30.8458446 43.4879555,31.5648404 L42.7972531,30.0017437 C42.4504568,29.2166004 41.2106604,29.7299633 41.5589016,30.5165446 C41.9591622,31.4224792 42.3594228,32.3284138 42.7596835,33.2343484 C42.0270765,34.9153604 41.2959144,36.5949343 40.5633074,38.2759463 C40.5560825,38.2917642 40.5546375,38.3061441 40.5503026,38.320524 C40.3205501,38.5117769 40.0922426,38.7059057 39.866825,38.9014726 C39.6919819,37.7036257 39.5185838,36.5057789 39.3451857,35.30937 C39.2209171,34.4595171 37.8900866,34.6277621 38.0129102,35.479053 L38.4348456,38.3751677 C38.5013149,38.836763 38.492645,39.498239 38.5981288,40.0461138 C37.3785621,41.1936309 36.2240197,42.4130476 35.1475065,43.7043639 C35.648916,39.8160351 36.3078288,35.9492762 37.118465,32.1112771 C37.1907142,32.1040871 37.2644084,32.0868312 37.3409926,32.0508815 C39.3321808,31.114749 41.0444872,29.8162428 42.4851365,28.1611147 C43.0501253,27.5111425 41.977947,26.7087433 41.4144031,27.3558395 C40.2887604,28.6500317 38.9738248,29.6954515 37.4710411,30.4949747 C37.8351772,28.8671685 38.2238779,27.2436761 38.6443683,25.6288118 C39.5821631,25.9509219 40.6095469,25.7380991 41.5372268,25.4016091 C41.9519373,25.249182 42.3608678,25.083813 42.7697984,24.9098161 C44.818786,25.6403157 46.8677737,26.3693774 48.9167613,27.098439 C49.7288425,27.3874753 50.2418119,26.1536786 49.4268408,25.8632044 C49.0135753,25.7179672 48.6017548,25.5698541 48.1899343,25.423179 C49.0468099,25.0536152 49.9036856,24.6826134 50.7605612,24.3116116 C51.5524126,23.9693697 51.0365532,22.737011 50.2432569,23.080691 C48.944216,23.6415076 47.6437302,24.2037623 46.3432444,24.7660169 C45.734906,24.5503182 45.1265677,24.3331815 44.5196743,24.1160448 C45.2638412,23.7651749 46.0036731,23.405677 46.74495,23.070625 L48.3676673,22.3343734 C49.6204687,22.1905743 50.874715,22.0482131 52.1289613,21.902976 C52.1419662,21.9173559 52.1535261,21.9317358 52.1694209,21.9446778 C53.2849487,22.8506124 54.4019215,23.7565469 55.5174494,24.6624815 C56.1879221,25.2060423 56.9956683,24.1404907 56.3266406,23.5969299 C55.5434591,22.9627757 54.7602776,22.3257455 53.9785412,21.6915913 C55.1619833,21.5549821 56.3454254,21.4198109 57.5288675,21.2846397 C58.3886331,21.1854183 58.21668,19.8610282 57.3598043,19.9602496 C55.6850676,20.1515025 54.0103308,20.3441933 52.3355941,20.5354462 L57.4725131,18.2073381 C58.2571395,17.8521542 57.7441701,16.6169195 56.9566537,16.9749794 C56.744241,17.0713248 56.5332733,17.1662323 56.3208606,17.2625777 C56.557838,16.5737798 56.7948155,15.8864199 57.0317929,15.196184 C57.3092298,14.3865949 56.0708783,13.8746699 55.7905514,14.690011" id="Fill-1" fill="#1D3520"></path>
            <path d="M77.799173,31.180346 C77.0862836,31.9927867 76.3719713,32.8023615 75.659082,33.6148021 C73.9430249,33.6692514 72.2283908,33.7251335 70.5137567,33.7795828 C71.0502024,33.3984379 71.5866481,33.0172929 72.1230937,32.6390137 C73.177487,32.5473096 74.2333032,32.4556055 75.2891194,32.3639015 C76.0674637,32.2979892 76.0731554,31.0642831 75.2891194,31.1330611 C74.8921211,31.1674502 74.4965458,31.2018392 74.1009705,31.2347953 C74.5107751,30.9439215 74.9220027,30.6530477 75.3332303,30.3607411 C75.9721272,29.9079523 75.361689,28.8390269 74.7156775,29.2975472 C73.7452372,29.9853276 72.7733741,30.6745409 71.8029339,31.3637542 C71.800088,30.9052339 71.7958192,30.4467136 71.7929733,29.9853276 C71.7872816,29.1943801 70.5635593,29.1929472 70.569251,29.9853276 C70.5749428,30.6917354 70.5792116,31.3981432 70.5849033,32.1031181 C70.5849033,32.1403729 70.5891721,32.1804934 70.5977097,32.219181 C69.8407094,32.7550766 69.0837091,33.292405 68.3267088,33.8297335 C68.3167483,33.835465 68.3096336,33.8440622 68.301096,33.8512266 C67.1243305,33.8884814 65.948988,33.9257362 64.7736454,33.9644238 C65.8351534,33.0688764 66.8980842,32.1747619 67.9610151,31.2806474 C68.5657616,30.7705436 67.6949266,29.9036537 67.0958719,30.408026 C66.5565803,30.8622476 66.0172888,31.3164693 65.4765743,31.7706909 L65.6288281,29.6013169 C65.6828995,28.8103694 64.4591773,28.8132351 64.4036829,29.6013169 C64.3296904,30.6831381 64.2542749,31.7635265 64.1788595,32.8439149 C64.1788595,32.8510793 64.1802824,32.8568108 64.1788595,32.8639752 C63.722098,33.2494188 63.2653366,33.6334295 62.8071522,34.0188731 C62.7929229,34.0332019 62.7815394,34.0475306 62.768733,34.0632922 C61.8324432,34.1048456 60.8250067,34.0532621 60.2444501,33.4500214 C61.5876987,31.70048 62.9722124,29.981029 64.3994141,28.3002656 C64.6939612,27.9535096 64.9913542,27.6124852 65.2873242,27.2700279 C66.6533398,27.1969512 68.0207783,27.1224417 69.3867938,27.049365 C69.4266359,27.0966499 69.4693239,27.1367704 69.5191266,27.1668608 C70.5094879,27.7858632 71.5012721,28.4048655 72.4916334,29.022435 C73.1632577,29.4408348 73.7779647,28.376208 73.1091862,27.9578083 C72.5642029,27.6182167 72.0192196,27.2786251 71.4742364,26.9376007 C72.6168515,26.8774199 73.7608895,26.8158062 74.9035046,26.7541926 C75.6875406,26.7126392 75.6918094,25.4803659 74.9035046,25.5233522 C73.9330644,25.5749357 72.9612012,25.6265193 71.9879151,25.6781028 C72.6666541,25.13361 73.3439702,24.5862514 74.0227091,24.0403257 C74.6374161,23.5445507 73.7665812,22.6790937 73.157566,23.1677043 C72.0718682,24.0431915 70.9875933,24.9158128 69.9033185,25.7913 C68.7436282,25.8529137 67.5839379,25.9145273 66.4242476,25.976141 C67.4231465,24.8541992 68.4391205,23.7465862 69.4750157,22.6590334 C72.26681,22.4684609 75.0571813,22.2778884 77.8489757,22.0887488 C78.6301658,22.0342995 78.6358575,20.8020263 77.8489757,20.8550427 C77.1232799,20.9037605 76.399007,20.955344 75.6733113,21.0040618 C76.4943436,20.3478047 77.3167988,19.6901146 78.137831,19.0338575 C78.7553839,18.5409482 77.884549,17.6740583 77.2726878,18.1612361 C76.0276216,19.1585177 74.7811324,20.1543664 73.5346432,21.1487823 C72.6068909,21.2118288 71.6777158,21.2763082 70.7485406,21.3393547 C72.1899716,19.8677912 73.6612842,18.427751 75.1667472,17.0206669 C75.7458809,16.4804727 74.8793147,15.6107171 74.301604,16.1494784 C72.9099756,17.4490968 71.5482289,18.7802385 70.2135178,20.1371719 C70.2803957,19.5396627 70.3472735,18.9421534 70.4141514,18.3446442 C71.0473565,17.377453 71.6805616,16.4116947 72.3137668,15.4445035 C72.7477613,14.781082 71.6890992,14.1620796 71.2565276,14.8226354 C71.0758152,15.0991804 70.8951027,15.3742926 70.7143902,15.6508376 C70.7528094,15.3083803 70.7912286,14.9673559 70.8296478,14.6248985 C70.9164467,13.8382497 69.6927244,13.8454141 69.6059255,14.6248985 L69.4081378,16.3945002 C69.191852,15.9445772 68.9755662,15.4946542 68.7592804,15.0447311 C68.4163536,14.331159 67.3619603,14.9558928 67.7020413,15.6665993 L69.1448952,18.6684742 C69.1477411,18.6742057 69.150587,18.6770714 69.1534328,18.6828029 C69.0452899,19.6442626 68.93857,20.6028566 68.83185,21.5643162 C67.7176936,22.7306772 66.627727,23.9156655 65.5562585,25.1207141 C65.5961006,23.8468875 65.6373657,22.5730608 65.6772078,21.3006671 C65.7013977,20.5068539 64.4790983,20.5082867 64.4534855,21.3006671 C64.3979912,23.05594 64.3424968,24.8112129 64.2870024,26.5664858 C62.7488119,28.3461176 61.2533095,30.1658699 59.8090326,32.0243099 C59.8261078,31.0384913 60.2017621,29.8950564 60.3369407,29.1786185 L60.4678505,28.492271 C60.7296702,28.3332217 60.9601853,28.1010959 61.1850087,27.8890302 C61.9647759,27.1568307 62.7288909,26.4060037 63.5015434,25.6666398 C64.0721395,25.1178483 63.2055734,24.2466598 62.6364003,24.7940184 C62.1056463,25.3041222 61.5748923,25.814226 61.0441384,26.3243298 C60.9758376,26.3888092 60.9089597,26.4547215 60.8420819,26.5234995 C60.9673,25.8686753 61.0925181,25.213851 61.2163132,24.5590268 C61.2575783,24.3397968 61.3002663,24.1205668 61.3415313,23.9013368 C61.3529148,23.887008 61.3657212,23.875545 61.3756817,23.8597834 C63.0504737,21.5757793 64.7238428,19.2903423 66.3986348,17.0063382 C66.8653568,16.3672756 65.8038488,15.7525718 65.3413957,16.3844701 C64.1845512,17.9634992 63.0277068,19.5410956 61.8708624,21.1215576 C62.2650148,19.0524849 62.6577442,16.984845 63.0518967,14.9172052 C63.1998817,14.1420194 62.0202703,13.8095922 61.8722853,14.5890766 L60.5361513,21.613034 C60.1007339,20.7748017 59.6681623,19.9351364 59.2341677,19.096904 C59.4476077,17.8245103 59.6610476,16.5506837 59.8744875,15.2797228 C60.0039744,14.504537 58.8243631,14.169244 58.6934532,14.9515942 L58.3021467,17.2929134 C58.1143196,16.9289629 57.9264924,16.5650124 57.7386653,16.2024948 C57.3743945,15.4989528 56.3185783,16.1208209 56.6814262,16.8243629 C56.9660127,17.3745873 57.2505993,17.9248116 57.5351859,18.4750359 C56.9403999,18.3088223 56.3441911,18.1426087 55.7494051,17.9749623 C54.989559,17.7628966 54.6651303,18.9507507 55.4235535,19.1642492 C56.3854561,19.432197 57.3473587,19.7030105 58.3092614,19.9709583 C58.9268142,21.1674096 59.54579,22.363861 60.1647658,23.5603123 L59.8076097,25.4359468 C59.7080044,25.964678 59.6041303,26.4919763 59.5031021,27.0192746 C59.4988333,27.014976 59.4959874,27.0121102 59.4917186,27.0092445 C58.4245189,26.0692779 57.5238024,24.7940184 56.5775521,23.7293916 C56.0510669,23.1376139 55.1887696,24.0116682 55.7124089,24.6005802 C56.4196065,25.3958263 57.1253812,26.1910724 57.8311559,26.9863184 C58.2096561,27.4104497 58.6621487,28.1498136 59.2170925,28.4951367 C59.0833369,29.1900815 58.952427,29.8835934 58.8272089,30.5799711 C58.2338459,29.981029 57.6404829,29.3835197 57.045697,28.7845776 C56.4893302,28.2243232 55.6227641,29.0940788 56.1819767,29.657199 L58.360487,31.8523648 C58.4487088,31.9412031 58.5440453,31.9899209 58.6408047,32.0128469 C58.6194607,32.4699343 58.6536111,32.9227231 58.7944815,33.3454214 C55.4790479,37.7171257 52.4268569,42.2879996 49.6578295,47.0279529 C49.6535607,45.6781839 49.6478689,44.3298477 49.6436001,42.9815115 C51.9814789,40.379409 54.3207805,37.7787393 56.6586592,35.1766368 C57.1865673,34.5905906 56.3228471,33.7165363 55.793516,34.3068811 C55.1901925,34.977467 54.586869,35.6480529 53.9835454,36.3200717 C54.0959571,35.762683 54.2083688,35.2052943 54.3222034,34.6464727 C54.4787261,33.8727198 53.2991147,33.5417254 53.1425921,34.319777 C52.9035394,35.4933023 52.6659096,36.6668277 52.4282798,37.840353 C52.4140505,37.9162954 52.4140505,37.9879392 52.4225881,38.0552844 C51.4948358,39.0883878 50.5656606,40.1229242 49.6364855,41.1545948 C49.6336396,40.1401187 49.6307937,39.1270755 49.6265249,38.1140323 C49.6307937,38.1083008 49.6350625,38.1040021 49.6379084,38.0982706 C50.6510366,36.2498608 51.6641648,34.4014509 52.677293,32.5530411 C53.9209364,33.1003997 55.0635515,32.230644 55.9173112,31.3895459 C56.4807926,30.8335901 55.6156494,29.9624016 55.052168,30.5169245 C54.692166,30.8722777 53.8725567,31.689017 53.2606955,31.4869815 C53.6434645,30.7891709 54.0248105,30.0927933 54.4075794,29.3935499 C54.7889254,28.6986051 53.7316863,28.076737 53.3517632,28.7716818 L52.6673325,30.0211495 C52.5819565,29.5110457 52.4951576,29.0038076 52.4097817,28.4951367 C52.2774489,27.7142194 51.0978375,28.0466466 51.2301703,28.8232653 C51.3681948,29.6414374 51.3767324,30.8006339 51.7794224,31.6417321 C51.0579954,32.9571121 50.3379914,34.2710592 49.6179873,35.5850064 L49.5980663,29.9495057 C49.5952204,29.1556925 48.3714981,29.1542596 48.374344,29.9495057 C48.3800357,31.6961814 48.3871504,33.4414241 48.3928421,35.1880998 C47.7254866,33.9629909 47.0581311,32.7350163 46.3921985,31.5099075 C46.0136984,30.8135298 44.9564592,31.4353979 45.3349594,32.1317756 C46.3566252,34.0102758 47.3797139,35.8887761 48.4013797,37.7687092 C48.4056485,39.0110125 48.4099173,40.2533159 48.4156091,41.4970521 C48.2178214,41.3351372 48.0214567,41.1732222 47.8250919,41.0113072 C47.8919698,40.8737511 47.9133138,40.7089704 47.8848551,40.552787 L47.3427177,37.5365833 C47.2032703,36.7570988 46.0236589,37.0866603 46.1631063,37.863279 C46.2883244,38.5610895 46.4135425,39.2560343 46.5387606,39.9509791 C45.9823938,39.4938917 45.4246042,39.0353714 44.8682374,38.5768512 C44.2634909,38.0796432 43.392656,38.9465331 44.0030942,39.4494726 L45.3420741,40.5513541 C44.8113201,40.6774472 44.2791432,40.8049731 43.7483892,40.9324991 C42.9828513,41.1159072 43.3058571,42.3037612 44.0728179,42.1203531 C44.8924273,41.9240491 45.7134595,41.729178 46.5344918,41.532874 C47.1634281,42.0501422 47.7923645,42.5688433 48.4198779,43.0861114 C48.4227237,43.9343739 48.4255696,44.7812036 48.4298384,45.6308989 C47.5405053,45.1523184 46.6525952,44.6751708 45.7632622,44.1980231 C45.0688709,43.8240425 44.4498951,44.8886693 45.1457093,45.261217 C46.1944108,45.8257701 47.2416894,46.3888903 48.288968,46.9505776 C48.3373478,46.9778022 48.3871504,46.9949968 48.4341072,47.0078926 L48.4412219,49.1572064 C46.7137813,52.2393223 45.1044443,55.3902163 43.6203253,58.5998582 C43.5591392,57.6527273 43.497953,56.7055964 43.4367669,55.7584654 C44.0472051,55.1566576 44.155348,53.6922585 44.3502898,52.9715219 C44.7230982,51.6016926 45.0944837,50.2332962 45.4658692,48.8634669 C45.6750403,48.0983112 44.4940061,47.7701826 44.2862579,48.5367712 L43.2219041,52.4542537 C43.1536033,51.3853283 43.0838796,50.316403 43.0141559,49.2474776 C42.9629303,48.4593959 41.7406309,48.4536644 41.7904336,49.2474776 C41.8914618,50.7964164 41.9910671,52.3453552 42.0920954,53.8928611 C41.9227663,53.6908256 41.7377851,53.4959545 41.5855313,53.3039491 L39.8324779,51.0987532 C39.3401432,50.4797508 38.4792688,51.355238 38.9673348,51.9699417 C39.745679,52.9500288 40.5254463,53.9301158 41.3052135,54.9102029 C41.5528038,55.221137 41.8587344,55.636671 42.2201593,55.8702297 C42.3183417,57.3804809 42.4151011,58.8921649 42.5132835,60.4038489 C42.5218211,60.5356735 42.5702008,60.6603337 42.6441933,60.7635008 C42.5417421,60.9941938 42.437868,61.2248868 42.3382627,61.4570127 C41.4973094,63.3899622 40.7047358,65.3415391 39.9562731,67.3103105 C39.6432279,66.427659 39.3301826,65.5450075 39.0185603,64.6609231 C39.6076546,62.4041436 39.8495531,60.0929149 39.7271809,57.7573272 C39.6844929,56.9692455 38.4607707,56.963514 38.5020357,57.7573272 C38.5859887,59.3449537 38.496344,60.9096541 38.2387931,62.4557271 C37.8645618,61.3968319 37.4889075,60.3379366 37.1146761,59.2790414 C36.8514336,58.5368117 35.6689763,58.856343 35.9350648,59.6057371 C36.4672417,61.1116896 37.0008415,62.619075 37.5330184,64.1250275 C36.2139596,63.692299 34.8949009,63.2595705 33.5758421,62.8254091 C32.8245335,62.5789545 32.5029507,63.7682414 33.2499905,64.0132632 C34.8507899,64.5405615 36.4501665,65.064994 38.050966,65.5908595 C38.2430619,66.1310537 38.4337349,66.6712479 38.6244079,67.2114421 L36.4914315,66.7170999 C35.7244707,66.5394233 35.3971962,67.7258445 36.1655799,67.904954 C37.1146761,68.124184 38.0623494,68.3448469 39.0114457,68.5640769 C39.0441731,68.5726741 39.0769006,68.574107 39.1067822,68.5769727 C39.1679683,68.7489178 39.2291544,68.9208629 39.2903405,69.092808 C38.4251973,71.4670833 37.6240861,73.859986 36.8898528,76.2786804 C36.6593376,77.0395375 37.838949,77.3648003 38.0694641,76.6053761 C38.751049,74.3629254 39.492397,72.140535 40.2906623,69.9367719 C40.3532714,69.9095473 40.4158804,69.8737254 40.4756436,69.8235747 C41.5300369,68.9093999 42.6655373,68.1155867 43.8664927,67.4421351 C45.3107695,67.662798 46.7564693,67.8848937 48.2021691,68.1041237 C48.9719758,68.2216195 49.3049421,67.0351983 48.5265978,66.9162696 C47.611652,66.7758478 46.6952832,66.635426 45.7789144,66.496437 C46.551567,66.1625769 47.3455635,65.8760018 48.1580582,65.6367115 C48.9136356,65.4146158 48.5920527,64.2253288 47.8336295,64.4488574 C47.2445353,64.6208025 46.6654016,64.8199723 46.0976514,65.0392023 L47.2616105,63.4702032 C47.7326013,62.8354392 46.6710934,62.2193026 46.2043714,62.8483351 C45.4032602,63.9287235 44.600726,65.0105448 43.7996148,66.0909331 C42.861902,66.5838424 41.9583397,67.1440969 41.0960423,67.7716965 C41.993913,65.4146158 42.9558156,63.080461 43.9831732,60.7778295 L47.2103849,59.7547562 C47.5817704,60.2376353 48.2391654,60.5371064 48.7201167,60.8394432 C49.6848652,61.4441168 50.6467678,62.0502233 51.6115163,62.6563297 C52.2802948,63.0761624 52.8950018,62.0115356 52.2290692,61.591703 C51.661319,61.2363498 51.0949917,60.8795637 50.5286644,60.5227776 C49.9680288,60.171723 49.1085774,59.8264 48.6575077,59.3463865 C48.6447013,59.3334907 48.6361637,59.3205948 48.6247802,59.306266 L51.1974428,58.4909597 C51.2287474,58.5081542 51.2600519,58.5224829 51.2942023,58.5339459 C52.9775319,59.0884689 54.6622844,59.6429918 56.345614,60.194649 C57.0969226,60.4425366 57.4185054,59.2532496 56.6714656,59.006795 C55.5089295,58.62565 54.3449704,58.2430721 53.1824342,57.8604943 L56.7184224,56.7399854 C57.4668851,56.502128 57.1467252,55.312841 56.3925708,55.5521313 L52.9519191,56.6425498 L54.6096359,53.8885624 C55.0194406,53.2079464 53.9607785,52.5889441 53.5538197,53.2666943 C52.7640919,54.5777757 51.9743642,55.89029 51.1846364,57.2028043 C50.2782282,57.4908123 49.370397,57.7788204 48.4639888,58.0653955 C48.5778234,57.7587601 48.75569,57.4506918 48.9022521,57.1469221 L49.8541942,55.1709863 C50.1956981,54.4602799 49.1413048,53.835546 48.7969551,54.5505511 C48.3359248,55.5077122 47.8706258,56.4648732 47.4124414,57.4249 C47.2445353,57.7788204 47.0467476,58.1542338 46.9627946,58.5425432 C46.1972567,58.7846992 45.4317188,59.0268552 44.6676039,59.2704441 C46.0364653,56.3015254 47.5077779,53.3813244 49.0858105,50.5198713 C49.179724,50.5170056 49.2750605,50.4926467 49.3647053,50.4410632 C50.0050251,50.0670826 50.6553054,49.7131622 51.3155463,49.3793022 C52.3841689,50.1143675 53.4527915,50.8494328 54.521414,51.5844981 C55.1745402,52.0315554 55.7864014,50.9640628 55.1389669,50.5184385 L52.5904941,48.7688971 C53.2692331,48.457963 53.9579326,48.1670892 54.6523239,47.8977085 C54.9397563,48.2344344 55.348138,48.5468013 55.5758073,48.7817929 C56.2018978,49.4251542 56.8279882,50.0670826 57.4540787,50.7104438 C58.0061767,51.2778627 58.8713199,50.4052413 58.3192219,49.8392553 L55.9614221,47.4176951 C56.3498828,47.2858706 56.7383435,47.1569117 57.1310729,47.0365502 C58.9623876,48.0066071 60.9061139,48.6069821 62.9707895,48.8591682 C63.7505567,48.9551709 63.743442,47.7214648 62.9707895,47.626895 C61.5635089,47.4563828 60.2145685,47.0852679 58.9253913,46.5350436 C60.775204,46.0707918 62.662013,45.7483948 64.5730119,45.5793154 C65.3513562,45.5105374 65.3584708,44.2782642 64.5730119,44.3484751 C62.7146616,44.5118229 60.8776552,44.811294 59.0762222,45.2411567 C59.7677676,44.5691379 60.4593129,43.8985521 61.1522813,43.2279662 L65.4025818,42.6189939 C66.1780802,42.5086625 65.8479598,41.3193755 65.0781531,41.4311398 L62.6477837,41.7793287 C63.064703,41.3752577 63.4830453,40.9697538 63.8999646,40.5656828 C64.4691378,40.0154585 63.6025717,39.14427 63.0348215,39.6959272 C62.5168739,40.1960009 62.0003493,40.6975074 61.4824017,41.1975811 L61.453943,39.6242834 C61.4382908,38.8319031 60.2145685,38.8290373 60.2302208,39.6242834 C60.2472959,40.5384582 60.2643711,41.4497672 60.2800234,42.363942 C59.0705305,43.5346016 57.8610375,44.7081269 56.6501216,45.8802193 C56.6401611,45.8902495 56.6330464,45.9031454 56.6245088,45.9131755 C56.3626892,45.9948494 56.1022925,46.0793891 55.8433187,46.1653616 C56.1207906,45.0849733 56.3954166,44.003152 56.6714656,42.9227636 C56.8678304,42.1533093 55.688219,41.8266136 55.4918543,42.594635 L54.8230758,45.2124992 C54.7177788,45.6266003 54.4758802,46.1882877 54.3705832,46.69266 C52.9391127,47.2371528 51.5375238,47.869051 50.1743541,48.5883547 C51.9700954,45.4532223 53.8910548,42.3911667 55.9286947,39.409352 C55.9913037,39.4294123 56.0596045,39.4408753 56.1378658,39.4380095 C58.1427782,39.3463055 60.0438165,38.8462318 61.8409808,37.9449529 C62.5467555,37.5910326 61.9277797,36.5292716 61.2248508,36.881759 C59.8204161,37.5838682 58.3434118,38.0094323 56.7966837,38.1584514 C57.6774792,36.9003864 58.5781957,35.6552173 59.5031021,34.4286756 C60.1789952,35.0347821 61.1195538,35.2196231 62.0188474,35.2583107 C62.4201145,35.2769381 62.8242274,35.2812367 63.2297633,35.278371 C64.6953841,36.6238414 66.1638509,37.9707447 67.6308947,39.317648 C68.2114513,39.8506778 69.0794403,38.982355 68.4960378,38.4464595 C68.2000678,38.174213 67.9055207,37.9048324 67.6095507,37.632586 C68.4618875,37.6196901 69.3142242,37.6082271 70.166561,37.5967641 C70.9534429,37.5838682 70.9562888,36.3530278 70.166561,36.363058 C68.874538,36.3816854 67.581092,36.4017456 66.287646,36.420373 C65.8522286,36.0191678 65.4168111,35.6208283 64.9813936,35.2210559 C65.7327022,35.1838012 66.4825878,35.1408149 67.2253588,35.116456 L68.8503481,35.0648725 C69.955967,35.3858367 71.0630088,35.7068008 72.1686276,36.0291979 C72.1757423,36.0463924 72.1800111,36.0621541 72.1899716,36.0779157 C72.8089474,37.2457095 73.4279232,38.4120704 74.046899,39.5798643 C74.4182845,40.2791077 75.4755236,39.6558067 75.1041381,38.9565633 C74.6701436,38.139824 74.2361491,37.320219 73.8007316,36.5034798 C74.8451643,36.8058166 75.8895971,37.1095863 76.9340298,37.413356 C77.692453,37.632586 78.0154588,36.4447319 77.2598814,36.2255019 C75.7814542,35.7956391 74.3044499,35.3657764 72.8260226,34.9373465 L77.9741937,34.7725658 C78.7596527,34.7482069 78.7624986,33.5145008 77.9741937,33.5402926 C77.7621767,33.5474569 77.5501597,33.5546213 77.3381427,33.5603528 C77.7806749,33.0574134 78.223207,32.554474 78.6643162,32.0529674 C79.1851096,31.4611897 78.3228123,30.5857026 77.799173,31.180346" id="Fill-2" fill="#2D6434"></path>
            <path d="M1.75273194,18.8168652 C2.28002643,19.8616239 2.80732093,20.9078178 3.33318644,21.9525765 C5.11512747,22.4835665 6.89849747,23.0159916 8.68186748,23.5469816 C8.22316413,23.0030756 7.76446079,22.4562994 7.30718643,21.9095232 C6.22544677,21.522044 5.14370711,21.1359999 4.06339644,20.7485208 C3.26459529,20.4629342 3.59469022,19.1727721 4.3992073,19.4597937 C4.80503829,19.6047396 5.21086929,19.7511206 5.61670028,19.8946314 C5.26517062,19.477015 4.91506993,19.0579634 4.56354027,18.640347 C4.017669,17.9888079 4.95079449,17.0402014 5.50238169,17.698916 C6.33119147,18.6877055 7.16143023,19.676495 7.99166899,20.6652845 C8.1202774,20.1859584 8.24888582,19.7066323 8.37892321,19.2287413 C8.60041548,18.3992488 9.88364166,18.7364992 9.6607204,19.5659917 C9.46352084,20.3022021 9.26489229,21.0384126 9.06626374,21.7746231 C9.05626086,21.8148061 9.04054205,21.8549891 9.02196528,21.8923019 C9.66786532,22.662955 10.3151943,23.433608 10.9625233,24.2042611 C10.9696683,24.2143068 10.9753842,24.2243526 10.9839581,24.2343983 C12.205738,24.5989158 13.4289469,24.9634333 14.6521558,25.3279507 C13.7819056,24.0980631 12.9130843,22.8696105 12.042834,21.6397229 C11.5484061,20.9393901 12.697308,20.2735 13.1888779,20.9680923 C13.6304334,21.5923643 14.071989,22.2166363 14.5121156,22.8394733 L14.9479552,20.5303843 C15.1065722,19.6879759 16.3883694,20.0295316 16.2311814,20.8676347 C16.013976,22.0200265 15.7967707,23.1709832 15.5809944,24.3205048 C15.5795654,24.3291155 15.5767074,24.3348559 15.5752785,24.3420314 C15.9482429,24.8715863 16.3240652,25.3997061 16.6970296,25.9306961 C16.7098905,25.9464823 16.7170354,25.9680089 16.7270383,25.9866653 C17.6958883,26.2894731 18.7661961,26.5147851 19.5407046,26.0440697 C18.610437,23.8411787 17.6287261,21.6626846 16.5912849,19.5085874 C16.3783666,19.065139 16.1597323,18.6259959 15.9425269,18.1854177 C14.5292634,17.7319235 13.1159998,17.2769943 11.7027362,16.822065 C11.6498639,16.8593778 11.5941336,16.8909502 11.5341163,16.9081715 C10.3251972,17.2812996 9.1177071,17.6544277 7.90878801,18.0275558 C7.09141009,18.2801348 6.73702246,16.994278 7.55154242,16.743134 C8.2174482,16.5393487 8.88192501,16.3341282 9.54640181,16.1274727 C8.36463339,15.7486041 7.18143598,15.3683005 5.99966756,14.9879968 C5.18943455,14.7282423 5.52238744,13.436645 6.3369074,13.6992698 C7.34148201,14.0236042 8.34605662,14.3450684 9.35063123,14.6694028 C8.79047014,13.9116658 8.22888006,13.1510585 7.66586101,12.3933214 C7.15714328,11.7044695 8.30747409,11.0400144 8.81190487,11.7216908 C9.71073479,12.9357922 10.6095647,14.1498937 11.5069656,15.36256 C12.7058818,15.7486041 13.906227,16.1332131 15.1051433,16.5192572 C14.3635014,15.0683629 13.6018538,13.6303846 12.8130555,12.2053222 C9.93794299,11.233754 7.06283044,10.2650561 4.1877179,9.29348787 C3.38320083,9.02081733 3.71329576,7.73065515 4.52495774,8.00332569 C5.27231553,8.25590471 6.01967331,8.50848374 6.76703109,8.76249787 C6.08397752,7.8468989 5.40235292,6.93273504 4.71929935,6.02000629 C4.20772366,5.33258951 5.35805447,4.66669935 5.86534321,5.34694059 C6.89992645,6.73325502 7.93308071,8.11813434 8.96766395,9.50444876 C9.92508214,9.8287832 10.8810714,10.1502474 11.8370606,10.4745818 C10.7295992,8.53575079 9.57926841,6.62131658 8.38463914,4.73701964 C7.92736478,4.01085494 9.07340865,3.34065946 9.53068301,4.06395394 C10.6352864,5.80761029 11.6984493,7.57566347 12.7273166,9.36524328 C12.8202004,8.72087974 12.9145133,8.07795131 13.0073971,7.43502288 C12.6072821,6.24962359 12.208596,5.06278918 11.8084809,3.87595478 C11.5355453,3.06224849 12.8144845,2.70921189 13.0859912,3.51861286 C13.2003098,3.85729838 13.3160573,4.19598389 13.4289469,4.5346694 C13.4832483,4.16728173 13.5361206,3.79845894 13.588993,3.42963616 C13.7133144,2.58292238 14.9951116,2.92734833 14.8722191,3.76832167 L14.5964255,5.67414524 C14.9450972,5.26370432 15.2951979,4.85182829 15.6452986,4.44138737 C16.1997438,3.7898483 17.1357272,4.73414943 16.582711,5.3842534 L14.2491828,8.12387477 C14.2463248,8.12818009 14.2420379,8.13248542 14.237751,8.13679074 C14.0877078,9.17150368 13.9376647,10.2062166 13.7861925,11.2394945 C14.6350081,12.7664495 15.453815,14.3077556 16.2483292,15.8634128 C16.5541314,14.5201516 16.8599336,13.1783255 17.1657358,11.8350643 C17.3572195,10.9998314 18.6404457,11.339952 18.448962,12.1751849 C18.0274122,14.0250393 17.6058624,15.8763287 17.1843126,17.7261831 C18.3103507,20.0137454 19.3792295,22.3300099 20.3866621,24.6735414 C20.639592,23.6373934 20.556711,22.3386205 20.6110124,21.5521813 L20.6610267,20.7973144 C20.4309606,20.5576514 20.2523378,20.2519734 20.075144,19.9678219 C19.4578236,18.9876431 18.8605089,17.990243 18.2546204,17.0028886 C17.8059199,16.2709835 18.9519638,15.5993529 19.3992353,16.3298229 C19.8164982,17.0114993 20.233761,17.6903054 20.6510239,18.3705466 C20.7038962,18.4566531 20.7553396,18.5456298 20.8067829,18.6360416 C20.8553683,17.9156174 20.9039537,17.1966282 20.9525391,16.477639 C20.9682579,16.2365409 20.9839768,15.9954427 20.9996956,15.7543446 C20.9925506,15.7371233 20.9839768,15.719902 20.9754029,15.7026807 C19.8450778,12.8496858 18.7147527,9.99812595 17.5844277,7.14656615 C17.2686226,6.34864604 18.5504198,5.99847967 18.8619379,6.78778912 C19.6435913,8.75819255 20.4252446,10.7300311 21.206898,12.7004345 C21.3583701,10.4286584 21.5112712,8.15831736 21.6641724,5.88654123 C21.7213317,5.03552213 23.0488563,5.01399551 22.991697,5.86931994 L22.4729764,13.583026 C23.15603,12.826724 23.8405125,12.0689869 24.5235661,11.312685 C24.6493165,9.92206522 24.773638,8.53288058 24.8979595,7.14369593 C24.9736955,6.29698215 26.3012202,6.27402042 26.2240551,7.12790974 L25.9954179,9.68383728 C26.2926463,9.35663263 26.5884456,9.02799287 26.885674,8.70078823 C27.4586959,8.06360023 28.3961083,9.00790136 27.8216574,9.64221914 C27.372957,10.1402017 26.9242565,10.635314 26.475556,11.1332965 C27.1457488,11.1232507 27.8159415,11.1132049 28.4861342,11.1045943 C29.3406657,11.0916783 29.3563845,12.4234586 28.501853,12.4363746 C27.4201134,12.4521608 26.3369447,12.467947 25.2552051,12.4837332 C24.2792101,13.5629345 23.3046441,14.6435709 22.3286492,15.7227722 L22.1900379,17.7850225 C22.1514554,18.3633711 22.1143018,18.9431548 22.0771483,19.5243735 C22.0814352,19.5215033 22.0857222,19.5186331 22.0914381,19.517198 C23.4675481,18.8283461 24.7593482,17.7448395 26.0425744,16.8938204 C26.7570656,16.4202347 27.4229713,17.5711914 26.7127671,18.0419069 C25.7539199,18.6790949 24.7965017,19.3148478 23.8376546,19.9520358 C23.3260789,20.2907213 22.6487412,20.937955 21.9728326,21.1474808 C21.9228182,21.9095232 21.8699458,22.6715656 21.8099286,23.433608 C22.5972979,22.9729383 23.3818092,22.5122686 24.1691785,22.0487287 C24.9065334,21.6181963 25.5767261,22.7662828 24.8379422,23.1996854 L21.9528268,24.893113 C21.8356502,24.9619982 21.7227606,24.986395 21.615587,24.9849599 C21.5112712,25.4671562 21.3526542,25.9321312 21.0897214,26.3353966 C23.3703773,31.82325 25.3195093,37.4474387 26.9285434,43.1692147 C27.3015078,41.7613736 27.6759012,40.3506623 28.0502946,38.9428213 C26.3083651,35.5746226 24.5692935,32.2092941 22.827364,28.8425305 C22.4343939,28.0833583 23.5790087,27.4074224 23.9734079,28.1694648 C24.4221083,29.0391403 24.8722378,29.9073807 25.3209383,30.7770562 C25.3552338,30.1628299 25.3895294,29.5471685 25.422396,28.9329423 C25.4695524,28.0804881 26.7970771,28.0603965 26.7499206,28.9171561 C26.6784715,30.2101885 26.6055934,31.5032209 26.5355733,32.7962533 C26.5298574,32.8809247 26.5098516,32.9555503 26.4827009,33.0230004 C27.1728994,34.3605211 27.8645269,35.6966068 28.5561544,37.0341275 C28.8362349,35.9750177 29.1177444,34.915908 29.397825,33.8567982 C29.396396,33.8496226 29.3921091,33.8438822 29.3906801,33.8381418 C28.8333769,31.62377 28.2775028,29.4108333 27.7201997,27.1978966 C26.2669246,27.4275139 25.3052195,26.2004964 24.6407427,25.0854174 C24.2020451,24.3477719 25.3466599,23.6761413 25.7867865,24.4123517 C26.0668671,24.8845023 26.7027642,25.9622685 27.4001076,25.9235206 C27.1900472,25.0868526 26.9799868,24.2516196 26.7699264,23.4163867 C26.559866,22.584024 27.8388052,22.225247 28.0474366,23.0576097 L28.423259,24.5529923 C28.6533252,24.043529 28.8819623,23.5369358 29.1105995,23.0289075 C29.4621292,22.2496438 30.6081731,22.9212744 30.2580724,23.6976679 C29.8893949,24.5142444 29.5635869,25.7254757 28.911971,26.4932585 C29.3063701,28.0675721 29.7036272,29.6404506 30.0994553,31.2161993 L31.6613331,25.3265156 C31.8813964,24.4984582 33.1646225,24.8357086 32.9431303,25.6652011 C32.4601342,27.4892235 31.9757092,29.3132459 31.4927131,31.1372683 C32.5272964,30.0408457 33.5618796,28.942988 34.5964629,27.8465654 C35.1837746,27.2222934 36.122616,28.1637243 35.5338753,28.7879964 C33.9491339,30.4699431 32.3629634,32.1518897 30.776793,33.8338364 C30.4324082,35.1326093 30.0880235,36.4313821 29.7436387,37.7301549 C29.9937106,37.6153463 30.2452115,37.5005377 30.4952834,37.385729 C30.4624169,37.2235618 30.4852806,37.0456084 30.5581587,36.8891816 L31.9514165,33.8855003 C32.31152,33.1091069 33.4575639,33.7793023 33.0988893,34.5528256 C32.7773683,35.2474179 32.4558473,35.9405751 32.1343262,36.6337324 C32.8431015,36.3079628 33.5518768,35.9821933 34.260652,35.6578588 C35.0308735,35.3048223 35.7067822,36.4514736 34.9308447,36.8088155 L33.2246398,37.5909495 C33.7476473,37.8707955 34.2692259,38.1506416 34.7922335,38.4304877 C35.5453072,38.8337531 34.8794014,39.9861449 34.1263277,39.5828795 C33.3189526,39.1494769 32.5130066,38.7189444 31.7070605,38.2869769 C30.9054014,38.6543646 30.1051713,39.0217522 29.3035121,39.3891399 C29.069159,40.2760367 28.8333769,41.1629335 28.5975949,42.0483952 C29.6607577,41.7943811 30.7224916,41.5418021 31.7856545,41.2877879 C32.6158933,41.089743 32.9731389,42.3741648 32.1414711,42.5707746 C30.8896826,42.8707122 29.636465,43.1692147 28.3832475,43.4677171 C28.3260882,43.4820682 28.2703579,43.4878087 28.2160566,43.4878087 L27.6215999,45.7323177 C28.5904499,49.4334615 29.4164018,53.1733533 30.0937394,56.940512 C30.4181184,55.9660736 30.7410684,54.9945054 31.0640184,54.020067 C30.5881673,53.2221469 30.8753928,51.6607493 30.8668189,50.8542186 C30.852529,49.3186529 30.8368102,47.7845223 30.8210914,46.2489567 C30.8125175,45.390762 32.1400422,45.3749758 32.1471871,46.2331705 L32.1929145,50.6246013 C32.557305,49.5253085 32.9216955,48.4260156 33.287515,47.3281579 C33.5561637,46.518757 34.8408189,46.8517021 34.5707412,47.6654084 C34.0405887,49.2569432 33.5118652,50.8499132 32.9831418,52.4414481 C33.2160659,52.2764107 33.4632798,52.1242892 33.6761982,51.9649922 L36.1183291,50.1452752 C36.8028117,49.6329416 37.4658595,50.7882036 36.7870929,51.2933616 C35.7010662,52.1041977 34.6164686,52.9135987 33.530442,53.7229997 C33.1860573,53.9784489 32.7516466,54.3286153 32.3086621,54.4735612 C31.7927994,56.0263482 31.2769368,57.5805702 30.7610742,59.1333572 C30.7167757,59.2682574 30.6324658,59.3845011 30.5267211,59.4734778 C30.5695905,59.7432782 30.616747,60.0145136 30.6581874,60.2843139 C31.0097171,62.5359985 31.3069454,64.799164 31.5541594,67.0637646 C32.1243234,66.2270966 32.6930583,65.3889934 33.2632223,64.5523254 C33.2617933,62.0308405 33.6404737,59.5452332 34.4078372,57.1385569 C34.667912,56.3234155 35.9511382,56.6577957 35.6910634,57.4758073 C35.1694848,59.1132657 34.8351029,60.7751209 34.6822018,62.462808 C35.3652554,61.4582323 36.048309,60.4536567 36.7313625,59.449081 C37.2086427,58.7473131 38.3618314,59.4074629 37.8788354,60.1192765 C36.9071274,61.547209 35.9368483,62.9751416 34.9651403,64.4030742 C36.4684298,64.3155326 37.9702903,64.2265559 39.4707218,64.1390143 C40.3252532,64.0873504 40.3366851,65.4205658 39.4878695,65.4707946 C37.665917,65.5784277 35.8439645,65.6846257 34.022012,65.7922588 C33.6733403,66.3031573 33.3246686,66.8154909 32.9774258,67.3278245 L35.3495366,67.401015 C36.2026391,67.428282 36.2212158,68.7586273 35.3666844,68.7327953 C34.3120954,68.6997878 33.2575064,68.6682154 32.2029174,68.635208 C32.1657638,68.6337729 32.1314683,68.6280324 32.0986017,68.622292 C31.9857121,68.7858943 31.8756804,68.9480615 31.7642198,69.1116639 C32.0228656,71.8326288 32.2086333,74.5578991 32.317236,77.2903449 C32.3515316,78.1485396 31.0240069,78.1614556 30.9897114,77.3061311 C30.8896826,74.7731653 30.7182047,72.2416346 30.4852806,69.7172795 C30.4266923,69.671356 30.370962,69.6168219 30.3223766,69.5479367 C29.4664161,68.3008278 28.4932791,67.1556115 27.4186844,66.1194635 C25.8425168,65.9501207 24.2677783,65.7822131 22.6916107,65.6128703 C21.8513691,65.5224585 21.8285053,64.1906782 22.6744629,64.28109 C23.6733216,64.387288 24.6721803,64.4949211 25.6710389,64.6025542 C24.9522608,64.0399918 24.1991871,63.5190476 23.4118178,63.0454619 C22.6816078,62.6034486 23.3432267,61.4496217 24.0777236,61.891635 C24.6478876,62.2360609 25.2009037,62.6034486 25.7367721,62.9909278 L24.9451159,61.0276999 C24.6235949,60.23265 25.9053921,59.8839187 26.2226261,60.670358 C26.7670684,62.0207947 27.3129397,63.3712314 27.857382,64.7245384 C28.7061975,65.5009319 29.5021407,66.3361648 30.2337797,67.2316722 C29.9351224,64.5164477 29.5664449,61.8112689 29.1191734,59.1190061 L26.0139947,57.1557782 C25.4924161,57.5590436 24.7221946,57.6882033 24.1334539,57.8718972 C22.9588304,58.2378498 21.7827779,58.6052374 20.6067254,58.9726251 C19.7893475,59.2280743 19.4349599,57.9436526 20.2494798,57.6882033 C20.9411073,57.4729371 21.6327348,57.2576709 22.3243622,57.0409696 C23.0088448,56.8285736 24.0034165,56.7065894 24.6078761,56.329156 C24.6250238,56.3191102 24.6378847,56.3076294 24.6550325,56.2961485 L22.180035,54.7318807 C22.1428815,54.7404913 22.1042989,54.749102 22.0657164,54.7519722 C20.1480221,54.8639106 18.2317567,54.9772841 16.3140623,55.0906577 C15.4609599,55.1408865 15.448099,53.807671 16.2983435,53.7574423 C17.6215812,53.6799464 18.9462479,53.6024506 20.2694856,53.5235196 L16.8685075,51.3737277 C16.1497294,50.9187984 16.8099192,49.7621013 17.5344133,50.2213359 L20.8439365,52.3122884 L19.8593676,48.9742269 C19.6164406,48.1504749 20.8953798,47.7945681 21.1368779,48.616885 C21.6055841,50.2084199 22.0757193,51.7985197 22.5444255,53.3886195 C23.4161048,53.939701 24.289213,54.4922176 25.1623212,55.0432991 C25.1265967,54.6916976 25.0237099,54.3200046 24.9536898,53.9626627 L24.4949865,51.6334823 C24.3320825,50.7953791 25.6081637,50.4322968 25.7739257,51.2747052 C25.9954179,52.4041353 26.2211972,53.5321303 26.4398315,54.6629955 C26.5184255,55.0791768 26.6227412,55.5283657 26.6055934,55.9560279 C27.3429483,56.422438 28.0774453,56.887413 28.8133712,57.3523881 C28.1903349,53.8693807 27.4444061,50.409335 26.5727268,46.9808618 C26.475556,46.9507245 26.3812432,46.8990606 26.3012202,46.8201297 C25.7324852,46.2518269 25.1480314,45.7021805 24.5464298,45.1726256 C23.2260501,45.6447761 21.9042414,46.1169267 20.5824327,46.5890773 C19.7764866,46.8760989 19.424957,45.5916771 20.2251871,45.3060906 L23.3775222,44.1780957 C22.750199,43.6657621 22.1085859,43.1720849 21.452683,42.6984992 C21.0597128,42.9697346 20.5467081,43.186436 20.2423349,43.3686947 C19.4106672,43.8681123 18.5789994,44.3660948 17.7473317,44.8655124 C17.0128347,45.3060906 16.344071,44.1551339 17.0785679,43.7145557 L20.2108973,41.8359992 C19.8407909,41.5891606 19.4678265,41.3466274 19.0905751,41.1127047 C16.9042321,41.620733 14.7007412,41.7125799 12.4686708,41.4040317 C11.6255712,41.2877879 11.9685269,39.9990609 12.8059106,40.1153046 C14.3277768,40.3248304 15.8439271,40.3104793 17.3443586,40.0923429 C15.532409,39.0949428 13.6432943,38.2367481 11.6841594,37.53211 C10.8867873,37.2436533 11.2168822,35.952056 12.0213993,36.2419478 C13.9262328,36.9279295 15.7696201,37.7488114 17.5415582,38.6959827 C16.9999739,37.8033455 16.4569606,36.9107082 15.9139473,36.018071 L11.6255712,34.2055294 C10.8410598,33.8740195 11.5112526,32.7244979 12.290048,33.0517025 L14.7421817,34.0892857 C14.4149448,33.549685 14.0891368,33.0115195 13.7618998,32.473354 C13.3160573,31.7400137 14.4621012,31.0698182 14.9065147,31.8017234 C15.3123457,32.4690486 15.7181767,33.1363739 16.1225787,33.8051343 L16.58414,32.1648057 C16.8156352,31.3410537 18.1002903,31.676869 17.8673662,32.5049263 C17.6001465,33.4549679 17.3329268,34.4050095 17.0657071,35.355051 C18.0131224,36.9150135 18.9619667,38.4764112 19.909382,40.0363737 C19.9179559,40.0492896 19.9222428,40.0650758 19.9279588,40.0794269 C20.1794597,40.2358537 20.4295316,40.3965858 20.6767455,40.558753 C20.6838905,39.350392 20.6896064,38.1434661 20.6953223,36.9365402 C20.7010382,36.0797806 22.0271339,36.0625593 22.0228469,36.9221891 L22.0085571,39.8426341 C22.0056992,40.306174 22.1042989,40.9591482 22.0771483,41.5174052 C23.4303946,42.483233 24.7279106,43.5294268 25.9596934,44.6574218 C24.933684,40.8830875 23.7576315,37.1503713 22.4343939,33.469319 C22.3643737,33.4721892 22.2900666,33.4664488 22.2086146,33.4406168 C20.1308743,32.7905129 18.2746262,31.7414488 16.6370124,30.3020354 C15.9939703,29.7380379 16.9342407,28.7980421 17.5758538,29.3606045 C18.854793,30.4842941 20.2866334,31.3367483 21.8685168,31.9208373 C21.28835,30.3608748 20.6838905,28.8109581 20.0508513,27.2725222 C19.176314,27.7188408 18.1403018,27.6513907 17.1857416,27.4447352 C16.7599048,27.3528883 16.3340681,27.2452551 15.9110893,27.1290114 C14.0048268,28.132152 12.0985643,29.1338574 10.1908729,30.1355629 C9.43637017,30.5345229 8.76331947,29.3850013 9.52210911,28.9860413 C9.90507639,28.7851261 10.2894727,28.5813408 10.6738689,28.3804257 C9.78218391,28.132152 8.89192789,27.8838782 8.00167187,27.6356045 C7.180007,27.4059873 7.51581786,26.1158251 8.33891171,26.3468775 C9.68930005,26.7228758 11.0411174,27.1003092 12.3915057,27.4777427 C12.9573827,27.1806753 13.5232598,26.8836079 14.0891368,26.5851054 C13.3117704,26.3397019 12.5372619,26.0871229 11.7641825,25.8560705 L10.0751253,25.3523476 C8.82762368,25.3824848 7.57869308,25.4126221 6.33119147,25.4427594 C6.31975961,25.4571104 6.31118571,25.4743317 6.29689589,25.4886828 C5.32804584,26.5377468 4.35919579,27.5868109 3.39034574,28.6358749 C2.81017889,29.2644522 1.87276645,28.3230213 2.4529333,27.6930089 C3.13169993,26.9567984 3.81189554,26.2234582 4.49066217,25.4872477 C3.31318069,25.5145148 2.13427023,25.544652 0.956788752,25.5733542 C0.102257291,25.5934457 0.0879674668,24.2602303 0.939640963,24.2401388 C2.6072634,24.1999557 4.27345685,24.1597727 5.94107928,24.1195897 L0.588111298,22.5237495 C-0.227837638,22.2797811 0.105115255,20.9896189 0.925351139,21.2350224 C1.14541443,21.3010374 1.36690669,21.3656172 1.58696998,21.4316322 C1.261162,20.7843985 0.933925034,20.1342945 0.608117052,19.4870607 C0.223720793,18.7250183 1.36690669,18.0476473 1.75273194,18.8168652" id="Fill-3" fill="#2D6434"></path>
            <path d="M48.97093,107.287834 C48.8593867,102.231375 48.4503946,97.1892406 47.7310834,92.1843488 C47.3692827,89.6575517 46.9231095,87.142214 46.3897038,84.6469303 C45.9092096,82.3937263 45.3915343,80.0703335 44.1702783,78.0849929 C42.0452356,74.6342819 25.8500075,74.2919324 23.3302731,77.5664552 C20.5788719,81.1417871 19.938213,85.7470324 19.5964329,90.1187925 C19.1774306,95.4646013 18.8485209,100.820437 18.5539322,106.173408 C17.4170486,126.866215 17.531452,148.11337 23.9652119,168.026937 C24.7431548,170.433411 26.6250904,176.594269 31.2312564,176.282001 C35.8374223,175.969732 37.9195638,171.456162 39.1336696,167.618696 C42.228281,157.835236 44.7651758,147.845506 46.5098273,137.729723 C48.2430385,127.685562 49.1983067,117.485266 48.97093,107.287834" id="Fill-4" fill="#E3652A"></path>
            <path d="M30.7252143,91.3436933 C31.7550566,91.1714125 31.7283075,89.3765591 30.7252143,89.1792192 C27.1140787,88.4681691 23.501457,87.7555529 19.8903214,87.0445028 C19.786297,87.9685547 19.7060495,88.8910403 19.6391766,89.8056951 C19.5856783,90.5198776 19.5381243,91.2371924 19.4875981,91.9529411 C23.2428819,92.1863033 26.9981657,91.9701692 30.7252143,91.3436933" id="Fill-5" fill="#CA562C"></path>
            <path d="M41.9327771,135.359657 C41.1088737,135.779459 41.277681,136.860647 42.1976032,137.08771 C43.645629,137.445465 45.1308233,137.640845 46.6160176,137.680449 C46.6872574,137.342495 46.7584971,137.007182 46.8266395,136.669228 C47.029518,135.675168 47.2184582,134.678469 47.4012037,133.680449 C45.4808274,133.928634 43.6239473,134.49497 41.9327771,135.359657" id="Fill-6" fill="#CA562C"></path>
            <path d="M27.852516,156.948516 C25.4435777,156.457701 23.0361375,155.9655 20.6271993,155.474685 C20.9178299,156.811254 21.2339281,158.145049 21.5784902,159.474685 L27.5663797,158.899295 C28.6824612,158.793923 29.1288937,157.210561 27.852516,156.948516" id="Fill-7" fill="#CA562C"></path>
            <path d="M35.6462745,101.562857 C39.1069909,101.614456 42.5690871,101.666055 46.0311833,101.717653 C46.8991222,101.731232 47.8125967,101.742095 48.6915745,101.65655 C48.6143018,100.346213 48.5163309,99.0358758 48.3949023,97.7268967 C44.238731,98.8430594 39.9694102,99.4826124 35.6462745,99.6170408 C34.3767932,99.6564188 34.3698939,101.543847 35.6462745,101.562857" id="Fill-8" fill="#CA562C"></path>
            <path d="M42.6231183,124.638145 C38.3427299,124.662184 34.0623415,124.683679 29.7833547,124.706439 C28.6046361,124.712761 28.4770935,126.146596 29.5156553,126.485457 C33.8829408,127.910442 38.663689,128.012859 43.1080608,126.800294 C43.9153639,126.580287 43.970025,125.757159 43.5635703,125.307031 C43.4710669,124.944147 43.1585172,124.635632 42.6231183,124.638145" id="Fill-9" fill="#CA562C"></path>
            <path d="M39.679255,145.5342 C40.8724631,145.103761 40.389068,143.037656 39.2083615,143.39123 C39.2083615,142.842421 38.8874872,142.293612 38.2471276,142.299761 C34.6063846,142.332044 30.9670307,142.362789 27.3276767,142.393535 C26.1428031,142.402759 26.05807,144.124513 27.0637541,144.558026 C30.9239696,146.225976 35.6648532,146.977707 39.679255,145.5342" id="Fill-10" fill="#CA562C"></path>
            <path d="M28.9365111,135.625156 C30.2998315,135.593961 30.3072408,133.583327 28.9365111,133.59467 C25.1799706,133.620193 21.4752956,133.038839 17.9617818,131.88322 C18.0180928,133.218917 18.0892226,134.551778 18.1781348,135.88322 C21.7627784,135.796726 25.3503857,135.71165 28.9365111,135.625156" id="Fill-11" fill="#CA562C"></path>
            <path d="M22.6603667,112.171469 C27.4596506,113.183458 32.3611695,113.22178 37.1762926,112.293532 C38.2936776,112.079212 38.0474497,110.608776 37.1359746,110.350456 C36.9732626,110.116265 36.7025559,109.95446 36.3224146,109.961557 C31.8600741,110.032524 27.3977337,110.103491 22.9339533,110.174458 C21.8064888,110.192909 21.4882644,111.925923 22.6603667,112.171469" id="Fill-12" fill="#CA562C"></path>
        </g>
    </g>
</svg>