<?xml version="1.0" encoding="UTF-8"?>
<svg width="200px" height="200px" viewBox="0 0 200 200" version="1.1" xmlns="http://www.w3.org/2000/svg" xmlns:xlink="http://www.w3.org/1999/xlink">
    <!-- Generator: Sketch 56.3 (81716) - https://sketch.com -->
    <title>cucumber</title>
    <desc>Created with Sketch.</desc>
    <g id="cucumber" stroke="none" stroke-width="1" fill="none" fill-rule="evenodd">
        <g id="typeText" transform="translate(10.000000, 6.000000)" fill="#725F5F" fill-opacity="0.87" font-family="Roboto-Black, Roboto Black" font-size="17" font-weight="700">
            <g id="vegetable">
                <text>
                    <tspan x="0" y="16">vegetable</tspan>
                </text>
            </g>
        </g>
        <g id="firstLetter" transform="translate(10.000000, 152.000000)">
            <g id="Group" transform="translate(0.000000, -5.000000)">
                <rect id="Rectangle" stroke="#979797" x="0.5" y="6.5" width="34" height="38"></rect>
                <text id="C" fill="#131313" font-family="Roboto-Bold, Roboto" font-size="43" font-weight="bold">
                    <tspan x="3.43261719" y="40">C</tspan>
                </text>
            </g>
        </g>
        <g id="nameText" transform="translate(104.000000, 161.000000)" fill="#454545" fill-opacity="0.87" font-family="Roboto-Black, Roboto Black" font-size="26" font-weight="700">
            <text id="Carrot">
                <tspan x="-34.9355469" y="28">Cucumber</tspan>
            </text>
        </g>
        <g id="colorText" transform="translate(133.000000, 5.000000)" fill="#454545" fill-opacity="0.87" font-family="Roboto-Black, Roboto Black" font-size="18" font-weight="700">
            <text id="orange">
                <tspan x="10.0751953" y="17">green</tspan>
            </text>
        </g>
        <g transform="translate(100.500000, 96.500000) rotate(-152.000000) translate(-100.500000, -96.500000) translate(1.000000, 76.000000)">
            <path d="M198.526768,14.5389021 C195.421652,14.2415687 192.396434,14.4493209 189.652674,15.1373809 C191.007303,13.8394062 191.855308,12.246004 192.058684,10.5001232 C192.098633,10.176106 191.559324,9.87114861 191.181625,10.056029 C187.927609,11.6494312 185.761292,14.096714 185.013158,16.9995268 C184.998632,17.0605183 185.000447,17.1157918 185.01679,17.1653474 C184.668146,20.2244508 189.82518,22.397272 193.407866,22.9881269 C193.905411,23.0700841 194.154184,22.7117593 193.901779,22.4048959 C192.548966,20.7562202 190.685896,19.3515104 188.497788,18.3146554 C192.559861,18.4061426 196.345923,17.3025782 198.897203,15.2059963 C199.129632,15.013492 198.951678,14.5808338 198.526768,14.5389021" id="Fill-338" fill="#F6BC34"></path>
            <path d="M9.68070037,7.28722694 C11.5301577,4.56255711 13.9893465,7.00301242 14.2343443,9.39420388 C14.4369741,11.3818107 13.6706651,13.4262605 12.5027807,14.976177 C12.239362,15.3267082 11.9538382,15.6412389 11.6554198,15.9349273 C9.69359499,13.3656281 7.98966269,9.78073562 9.68070037,7.28722694 Z M25.0474066,21.9034321 C20.9027064,22.2388052 16.8059005,21.0337357 13.6669809,18.1688534 C13.4459302,17.9661137 13.2083008,17.7330578 12.965145,17.4772647 C13.8069797,16.673885 14.5401311,15.7170295 15.1093366,14.5820662 C16.7874796,11.2264401 16.7487958,3.49201576 11.3385804,4.02633905 C8.86281287,4.27076354 7.2362483,6.70174503 7.11651252,9.11567366 C6.98204002,11.8005535 8.25676559,14.5403814 9.73780513,16.6814641 C9.85017256,16.8444137 9.97359252,16.9997843 10.0933283,17.1608392 C7.48493031,18.7429667 4.18022269,18.8509682 1.2199857,17.8789546 C-0.00131928692,17.4791595 -0.524472556,19.4478187 0.689464079,19.8476138 C4.28153758,21.0242619 8.30650199,20.6907835 11.3938431,18.7145452 C14.9214435,22.449124 19.9042942,24.3590455 25.0474066,23.9440923 C26.3129217,23.8436699 26.3221322,21.8011149 25.0474066,21.9034321 L25.0474066,21.9034321 Z" id="Fill-340" fill="#359044"></path>
            <path d="M180.207469,8.6172679 C175.235129,4.80147038 168.588562,3.38608219 162.497585,2.55873863 C155.427801,1.59783289 148.341237,1.70171459 141.224843,1.63493349 C133.096083,1.55516719 124.971052,1.29917299 116.842291,1.13778535 C99.0541028,0.783474544 81.2248977,0.855820729 63.7499275,4.56588152 C56.0704863,6.19459821 35.4782484,11.0863134 33.0172476,11.3200472 C28.5371074,11.7448491 23.4659542,13.4607523 20.3188562,16.7960969 C16.5919315,20.7436016 17.6285349,25.9209914 21.499018,29.3527977 C26.0593271,33.3949089 32.1596261,34.7861817 37.9411136,36.1366438 C44.4795453,37.6651889 50.540692,40.0748733 57.2953935,40.6907434 C64.3670421,41.336294 71.4741141,40.7630896 78.5588134,40.8113204 C86.4694396,40.8651163 94.3427778,40.6221073 102.236624,40.0971337 C118.124995,39.0416214 134.026416,37.9452984 149.847668,36.1422089 C157.023723,35.3241405 164.114015,34.6767349 170.960072,32.2280948 C176.351901,30.2988632 183.637955,27.601649 185.554553,21.6080458 C187.174712,16.5345376 184.143206,11.6354024 180.207469,8.6172679" id="Fill-341" fill="#2D783C"></path>
            <path d="M152.061766,6.76993721 C104.405294,4.22225646 74.4000594,8.42335179 35.8419133,13.1382502 C34.6222034,13.2875908 34.7772355,14.1302989 35.987606,13.9827361 C74.3757773,9.28917212 113.26827,6.95127946 152.086048,7.85621281 C153.322568,7.88643652 153.29455,6.83571822 152.061766,6.76993721" id="Fill-342" fill="#45A947"></path>
            <path d="M179.797531,18.0157176 C130.637477,23.7611238 81.3711898,25.051495 32.0396716,21.209099 C30.7462312,21.1076307 30.6157689,21.7815337 31.896163,21.8810875 C81.2295451,25.725398 117.06008,27.2723118 180.228056,19.0169997 C181.500995,18.8504384 181.089107,17.8644723 179.797531,18.0157176" id="Fill-343" fill="#45A947"></path>
            <path d="M105.186748,33.6308256 C85.7937582,34.6226055 66.0863173,36.140959 46.9347801,32.0293289 C45.9221744,31.8115728 45.6058521,32.8706591 46.624073,33.0884151 C65.9216051,37.2297393 83.1845671,38.5600308 105.267233,34.7275243 C106.287325,34.5493603 106.225558,33.579356 105.186748,33.6308256" id="Fill-344" fill="#45A947"></path>
            <path d="M48.5188192,8.8746841 C48.6654122,8.95822803 48.8303294,9 48.9952466,9 C49.2114714,9 49.4276961,8.92784842 49.609105,8.78544399 C49.9572635,8.51392621 50.0837,8.07532056 49.9444366,7.64051236 C49.746536,7.02152776 49.3140865,6.9873507 49.1381748,7.00254051 C48.5921157,7.0462112 48.0900345,7.65380344 48.0075759,8.16835812 C47.9800897,8.35253452 48.0277325,8.52911601 48.1450069,8.66582427 C48.2402924,8.77974781 48.375891,8.85379812 48.5188192,8.8746841" id="Fill-345" fill="#275D31"></path>
            <path d="M72.5982136,2.22187883 C72.2605987,1.9554029 71.7291379,1.87303762 71.3026769,2.29293908 C70.9214467,2.66923538 70.8972159,3.28455252 71.2477539,3.66407883 C71.4512921,3.8853346 71.7259071,4 72.0102144,4 C72.1814449,4 72.3542908,3.95800985 72.5190599,3.87079955 C72.6240597,3.81588936 72.7064442,3.7415991 72.7726749,3.64308376 C72.7920595,3.62370369 72.8243671,3.59463359 72.8502132,3.54941344 C73.1555205,3.0487617 72.9552131,2.5028898 72.5982136,2.22187883" id="Fill-346" fill="#275D31"></path>
            <path d="M64.8613899,13.0075862 C64.5213118,12.96646 64.1760284,13.0937551 63.9018838,13.3600956 C63.5722162,13.3933882 63.2737803,13.610769 63.1158869,13.9417363 C62.8521528,14.5018347 63.0759798,15.1285182 63.4125877,15.5045283 C63.698878,15.8198285 64.0979492,16 64.5178416,16 C64.5317223,16 64.5473382,16 64.562954,16 C64.9897868,15.9862913 65.3905931,15.7845775 65.6630026,15.4477351 C65.9926702,15.0384325 66.0898354,14.4607086 65.9128559,13.9358611 C65.7428169,13.422764 65.3385403,13.0663377 64.8613899,13.0075862" id="Fill-347" fill="#275D31"></path>
            <path d="M87.9257732,15.2688256 C87.7782379,14.8804706 87.4232979,14.582925 86.9742775,14.4631339 C86.8417095,14.2544656 86.625752,14.092168 86.3755835,14.0322724 C85.8795228,13.9086171 85.3898767,14.1481993 85.1910247,14.6157709 C84.8980923,15.2958752 84.9429944,15.9276766 85.3193163,16.3971803 C85.6314924,16.7874674 86.0997566,17 86.570159,17 C86.7946693,17 87.0170413,16.9516971 87.224446,16.8531593 C87.8509365,16.5498174 88.1502834,15.8697131 87.9257732,15.2688256" id="Fill-348" fill="#275D31"></path>
            <path d="M75.2824478,29.0125832 C75.0350371,29.0380222 74.8125754,29.1191088 74.6483279,29.2478934 L74.4612106,29.3337498 C74.2117208,29.448225 74.0474734,29.6406069 74.0079708,29.8616077 C73.9705474,30.0841984 74.0661851,30.3036092 74.267856,30.4673723 C74.5589274,30.6979127 74.9643483,30.9666114 75.5153049,30.9984101 C75.5506493,31 75.5859936,31 75.621338,31 C76.1036849,31 76.5631619,30.8155677 76.8126517,30.5134804 C77.1182767,30.1446158 77.0434297,29.6469667 76.6359298,29.3273901 C76.309514,29.0730007 75.8292462,28.9601154 75.2824478,29.0125832" id="Fill-349" fill="#275D31"></path>
            <path d="M49.2096344,27.0317983 C49.0142492,26.9679868 48.8188641,27.0008594 48.6597198,27.1246151 C48.5194837,27.2348349 48.412337,27.4069326 48.3587636,27.6119029 C48.2988876,27.6795818 48.2484656,27.7588627 48.2106491,27.8536131 C48.0499291,28.2461505 47.8671494,28.8339898 48.1397432,29.4063597 C48.2784036,29.702213 48.5116052,29.909117 48.7778963,29.9767958 C48.839348,29.9922653 48.9023755,30 48.965403,30 C49.1718179,30 49.3750815,29.9168517 49.5452556,29.7621571 C49.9013608,29.4353649 50.0731106,28.7837141 49.970691,28.139798 C49.8808768,27.5712956 49.5972533,27.1574876 49.2096344,27.0317983" id="Fill-350" fill="#275D31"></path>
            <path d="M122.830379,37.4215983 C122.698275,37.2275704 122.487953,37.1105377 122.244605,37.0920589 C121.935205,36.9334488 121.577136,36.9811858 121.328573,37.2244906 C121.076534,37.4724152 120.960075,37.8019546 121.012221,38.1268744 C121.062629,38.4471744 121.272951,38.7289769 121.587565,38.9014461 C121.707501,38.967662 121.848295,39 121.990828,39 C122.129884,39 122.26894,38.9692019 122.39409,38.9045259 C122.677417,38.7582351 122.879048,38.5210898 122.960744,38.2408273 C123.042439,37.9605648 122.995508,37.6695229 122.830379,37.4215983" id="Fill-353" fill="#275D31"></path>
            <path d="M109.25575,29.0295712 C109.091656,28.9825117 108.933696,28.99162 108.788004,29.0568961 C108.639245,29.0720766 108.49202,29.1312805 108.364732,29.2284357 C108.03961,29.480432 107.913855,29.9449553 108.06108,30.3563468 C108.203705,30.7510398 108.584036,31 108.99964,31 C109.077853,31 109.159134,30.9908917 109.238881,30.9726751 C109.688224,30.8664116 109.987275,30.5066338 109.999544,30.0542549 C110.013346,29.5760692 109.712762,29.1646776 109.25575,29.0295712" id="Fill-354" fill="#275D31"></path>
            <path d="M129.775646,0.46783203 C129.683521,0.236143787 129.534006,0.0782677269 129.358817,0.0208582506 C129.201751,-0.0262995334 129.029583,0.00650588158 128.878558,0.119274496 C128.655041,0.125425511 128.440585,0.283301571 128.300132,0.553946244 C128.028287,1.07473221 127.943713,1.55861208 128.035838,2.02813958 C128.152127,2.60838536 128.523649,3 128.95256,3 C128.966152,3 128.981255,2.99794966 128.996357,2.99794966 C129.37392,2.97539594 129.725808,2.65144247 129.894956,2.17576395 C130.067124,1.67958205 130.027858,1.09113491 129.775646,0.469882368 L129.775646,0.46783203" id="Fill-355" fill="#275D31"></path>
            <path d="M149.804822,1.34998586 C149.694074,1.18192887 149.481367,1.05359443 149.247565,1.01387187 C149.040132,0.977204889 148.837973,1.01387187 148.681519,1.11623386 C148.456506,1.26290178 148.04164,1.53637635 148.002966,1.99776919 C147.96605,2.44388412 148.2772,2.85180429 148.744803,2.96791639 C148.830941,2.98930546 148.920594,3 149.006732,3 C149.171975,3 149.335461,2.96333302 149.486641,2.88999906 C149.718685,2.77541474 149.892718,2.58291309 149.964792,2.35985563 C150.026319,2.16582619 150.006982,1.95651884 149.908539,1.76401719 C149.929634,1.62193264 149.894476,1.47984809 149.804822,1.34998586" id="Fill-356" fill="#275D31"></path>
            <path d="M159.896748,13.5016398 L159.896748,13.5016398 C159.754869,13.1301456 159.346323,12.9258237 158.942906,13.0248889 C158.814701,13.0573946 158.698462,13.1255019 158.594189,13.2276628 C158.255729,13.4196015 158.060857,13.6688122 158.011285,13.9691034 C157.937781,14.4148965 158.230088,14.8436628 158.691624,14.9659464 C158.775385,14.9876169 158.862564,15 158.949743,15 C159.286494,15 159.624955,14.8390192 159.818116,14.5712337 C160.030081,14.2802299 160.057432,13.9195709 159.896748,13.5016398" id="Fill-357" fill="#275D31"></path>
            <path d="M142.298425,14.0931897 C142.014726,13.9902927 141.691394,13.9726073 141.391007,14.0401335 C141.332599,14.0304869 141.267932,14.0224481 141.194922,14.0224481 C140.802751,14.0224481 140.450214,14.1639314 140.224924,14.4083118 C139.995462,14.6591233 139.937053,14.9822842 140.070559,15.2748976 C140.291676,15.7572274 140.950858,16 141.551631,16 C141.666362,16 141.781093,15.9919612 141.889565,15.9742757 C142.267135,15.9099651 142.615499,15.7154255 142.815757,15.4533596 C143.003499,15.2121948 143.047305,14.9372668 142.949262,14.6784165 C142.849133,14.4179584 142.615499,14.2089489 142.298425,14.0931897" id="Fill-358" fill="#275D31"></path>
            <path d="M154.690959,28.3182103 C154.46081,28.0527467 154.049706,27.9403151 153.643872,28.030885 C153.429535,28.0777315 153.264391,28.1854785 153.160736,28.3416335 C153.072893,28.4743653 153.04127,28.6367665 153.067623,28.7991678 C152.907749,29.1879938 153.035999,29.5939969 153.403182,29.8313526 C153.575354,29.9422226 153.782664,30 153.995243,30 C154.077816,30 154.162145,29.9921922 154.24296,29.9734536 C154.532842,29.9109916 154.775288,29.7423442 154.907052,29.5112347 C155.038817,29.2848099 155.028275,29.0365234 154.889484,28.8288372 C154.894754,28.652382 154.82448,28.4712422 154.690959,28.3182103" id="Fill-359" fill="#275D31"></path>
        </g>
    </g>
</svg>