<?xml version="1.0" encoding="UTF-8"?>
<svg width="200px" height="200px" viewBox="0 0 200 200" version="1.1" xmlns="http://www.w3.org/2000/svg" xmlns:xlink="http://www.w3.org/1999/xlink">
    <!-- Generator: Sketch 56.3 (81716) - https://sketch.com -->
    <title>doll</title>
    <desc>Created with Sketch.</desc>
    <g id="doll" stroke="none" stroke-width="1" fill="none" fill-rule="evenodd">
        <g id="typeText" transform="translate(10.000000, 6.000000)" fill="#725F5F" fill-opacity="0.87" font-family="Roboto-Black, Roboto Black" font-size="17" font-weight="700">
            <g id="vegetable">
                <text>
                    <tspan x="0" y="16">toy</tspan>
                </text>
            </g>
        </g>
        <g id="firstLetter" transform="translate(10.000000, 152.000000)">
            <g id="Group" transform="translate(0.000000, -5.000000)">
                <rect id="Rectangle" stroke="#979797" x="0.5" y="6.5" width="34" height="38"></rect>
                <text id="C" fill="#131313" font-family="Roboto-Bold, Roboto" font-size="43" font-weight="bold">
                    <tspan x="3.52709961" y="40">D</tspan>
                </text>
            </g>
        </g>
        <g id="nameText" transform="translate(104.000000, 161.000000)" fill="#454545" fill-opacity="0.87" font-family="Roboto-Black, Roboto Black" font-size="26" font-weight="700">
            <text id="Carrot">
                <tspan x="40.296875" y="28">Doll</tspan>
            </text>
        </g>
        <g id="colorText" transform="translate(133.000000, 5.000000)" fill="#454545" fill-opacity="0.87" font-family="Roboto-Black, Roboto Black" font-size="18" font-weight="700">
            <text id="orange">
                <tspan x="10.0751953" y="17">green</tspan>
            </text>
        </g>
        <g transform="translate(52.000000, 11.000000)">
            <path d="M39.8025373,50.177638 C40.21022,53.1295988 41.6077563,63.8760997 38.0299329,70.5784627 C37.0205105,72.4804408 61.87611,74.1325003 61.9967841,71.9935864 C62.1239811,69.8546724 58.4320065,53.5596536 59.0745144,47.1883516 C59.470782,43.3064987 39.8025373,50.177638 39.8025373,50.177638" id="Fill-382" fill="#FFDB91"></path>
            <path d="M82.8251671,31.3440009 C85.0456354,28.3814886 85.7173598,24.4396604 82.6724278,21.3985409 C82.1846475,20.9154336 81.5014265,20.5174841 80.7130946,20.2227068 C80.9430247,18.0004132 80.1514081,15.4948058 78.3497412,13.5378117 C76.6761782,11.7151052 73.9876379,11.3548218 71.50275,11.9869554 C70.9673413,10.031599 69.9014508,8.16303821 68.5563595,6.78741061 C63.161213,1.2586978 57.6724521,9.93989052 56.1319201,14.1175405 C55.8215144,14.9609312 56.0908612,15.6241803 56.6065616,16.0319556 C56.5113048,16.6706398 56.6558324,17.3240629 57.1978106,17.7482148 C62.0197741,21.5213648 66.8269564,21.9749943 68.9242477,28.6402376 C70.1100303,32.3953734 70.3186098,36.4092582 71.2334033,40.2004223 C64.724738,41.1781005 63.1447894,51.6295949 71.1529278,53.8158602 C77.0933372,55.4371356 85.2624266,45.9584064 82.705275,40.8440195 C85.9275817,38.1844728 85.5596935,33.4352823 82.8251671,31.3440009" id="Fill-383" fill="#6D4C41"></path>
            <path d="M25.4942165,39.3749445 C24.7862675,39.3915757 24.1157503,39.5761825 23.4875473,39.8738816 C23.4598803,39.7607892 23.4436056,39.6526862 23.4143112,39.5362675 C22.8186575,37.4041427 19.7997025,37.5438451 19.2658927,39.6294024 C18.9794582,40.7470216 17.9020737,41.4338918 17.6302864,42.5531741 C17.2608509,44.0865743 17.7328169,43.329853 17.0346327,44.2761704 C16.9158275,44.2412448 16.7953948,44.2046561 16.6749621,44.1597518 C16.6456676,43.7639283 16.4959405,43.3597892 16.1688192,42.9855863 C14.1182083,40.6555498 9.94700524,40.0318784 8.03635664,43.0986788 C6.98012927,44.7967282 7.05987525,46.4116214 7.74666716,47.8618654 C6.00853028,49.0892508 4.90998871,51.3993298 5.19967819,53.4798978 C4.21180451,54.3264278 3.44689408,55.5754338 3.11814535,56.9890891 C2.14003648,61.191803 7.47325237,63.5085345 10.3359703,60.8974301 C11.4784536,59.8613039 12.4712096,57.9753215 12.8146056,56.0677185 C14.1995817,55.7683562 15.5048119,54.9301418 16.2892519,53.5181496 C16.7286685,52.7215133 16.9744164,51.7751958 17.0443975,50.8072578 C17.1176336,50.7806478 17.1859873,50.7440591 17.2592234,50.7157859 C17.4870691,51.1265775 17.7360718,51.5074329 17.9850746,51.7951533 C21.3441706,55.6669056 29.2308853,56.5350563 32.0122298,51.2779218 C34.7496327,46.1022804 31.5467737,39.2851358 25.4942165,39.3749445" id="Fill-384" fill="#6D4C41"></path>
            <path d="M71.3570301,40.5117519 C72.0792244,40.4905406 72.7731951,40.6504416 73.4240001,40.9212943 C73.4455829,40.808711 73.453884,40.6993909 73.4870883,40.5835442 C74.0117168,38.4705666 77.0930792,38.4950412 77.7173207,40.5199102 C78.0460437,41.6000578 79.1766513,42.2347669 79.4970731,43.3230728 C79.9303897,44.8094995 79.4207032,44.08505 80.1678007,44.9889802 C80.2873363,44.9514524 80.406872,44.9073981 80.5313882,44.8649754 C80.5463302,44.4701178 80.6824679,44.0671019 81.0012296,43.6901924 C83.003451,41.3259418 87.2320233,40.5558063 89.2940125,43.4846054 C90.4379019,45.1162484 90.4146589,46.7022053 89.7738152,48.147841 C91.5900924,49.2867278 92.8003904,51.5090255 92.5862225,53.558369 C93.6255182,54.3497159 94.4506459,55.5424469 94.8391367,56.9162902 C95.9946476,61.0002926 90.6487494,63.4771266 87.6288151,61.0280305 C86.4268181,60.0539396 85.3443567,58.2411843 84.917681,56.3843746 C83.4965354,56.1477864 82.1285168,55.3711244 81.280146,54.020124 C80.7986831,53.2581467 80.5147861,52.3395317 80.406872,51.3931788 C80.330502,51.3654409 80.2557922,51.332808 80.1844029,51.3067018 C79.9669145,51.7227707 79.7295035,52.1029435 79.4887721,52.3966392 C76.2081836,56.3207406 68.200958,57.4759438 65.1644214,52.4260088 C62.1776914,47.457656 65.184344,40.6504416 71.3570301,40.5117519" id="Fill-385" fill="#6D4C41"></path>
            <path d="M29,123.566697 C29.6638126,130.475132 28.8480429,160.601744 31.2265713,169.552212 C33.8786225,179.543586 41.4636808,178.752961 43.1304102,171.499768 C44.8003387,164.244916 46,129.440856 46,121.148413 C46,112.855971 29,123.566697 29,123.566697" id="Fill-386" fill="#FFECA4"></path>
            <path d="M42.9235705,170.614596 C43.3101868,168.968929 43.6727398,165.875594 44,162 C41.8904549,164.044912 38.8392346,165.370858 35.8874757,165.150138 C33.7570757,164.999204 31.7357626,163.923191 30,162.428458 C30.2470494,165.000827 30.5646843,167.175574 30.9849891,168.706012 C33.6447806,178.490751 41.2503724,177.716606 42.9235705,170.614596" id="Fill-387" fill="#197541"></path>
            <path d="M69,123.566697 C68.3347131,130.475132 69.14873,160.601744 66.7722484,169.552212 C64.1222954,179.543586 56.5354657,178.752961 54.8658514,171.499768 C53.1978363,164.244916 52,129.440856 52,121.148413 C52,112.855971 69,123.566697 69,123.566697" id="Fill-388" fill="#FFECA4"></path>
            <path d="M55.0749484,170.614596 C54.6882879,168.968929 54.3256933,165.875594 54,162 C56.1097868,164.044912 59.1661701,165.370858 62.113454,165.150138 C64.2424937,164.999204 66.2640385,163.923191 68,162.428458 C67.7545267,165.000827 67.4368554,167.175574 67.0197112,168.706012 C64.3612193,178.490751 56.7483383,177.716606 55.0749484,170.614596" id="Fill-389" fill="#197541"></path>
            <path d="M18.3369224,71 C15.5698529,75.1412918 1.4987983,90.3287881 1.0373434,95.8477507 C0.575888502,101.373337 4.45841731,103.97634 8.95677263,100.267226 C8.81402039,102.404934 10.3129189,102.812274 12.387806,100.056932 C14.464353,97.2916557 25.6753832,80.1899918 27.7486105,77.8866983 C29.8268174,75.5867166 18.3369224,71 18.3369224,71" id="Fill-390" fill="#FFECA4"></path>
            <path d="M79.6605767,71 C82.4292548,75.1412918 96.4983888,90.3287881 96.9631549,95.8477507 C97.4212815,101.373337 93.5404845,103.97634 89.0388928,100.267226 C89.1833022,102.404934 87.6860914,102.812274 85.6095828,100.056932 C83.5330743,97.2916557 72.3272314,80.1899918 70.2507229,77.8866983 C68.1758742,75.5867166 79.6605767,71 79.6605767,71" id="Fill-391" fill="#FFECA4"></path>
            <path d="M71,37.5008158 C71,49.9267612 60.9247643,60 48.5,60 C36.0703408,60 26,49.9267612 26,37.5008158 C26,25.0716073 36.0703408,15 48.5,15 C60.9247643,15 71,25.0716073 71,37.5008158" id="Fill-392" fill="#FFECA4"></path>
            <path d="M87,122.203177 C78.0198902,103.706759 70.6382136,86.4995201 70.6382136,86.4995201 C70.6382136,86.4995201 85.0027789,76.604242 85.6034222,72.7317456 C83.281263,69.229475 77.6555655,63.7653378 73.3525962,59.8019376 C71.2142404,57.8334599 68.0108094,57.6466942 65.6591103,59.3507249 C58.3693355,64.6264435 44.7531126,67.2279414 33.5361808,59.1507368 C31.1926872,57.4615813 27.9892563,57.648347 25.860747,59.6036024 C21.529879,63.5818777 15.7532001,69.1716272 13.3982189,72.7317456 C13.9972211,76.604242 28.3634275,86.4995201 28.3634275,86.4995201 C28.3634275,86.4995201 20.9784687,103.706759 12,122.203177 C31.9557997,136.180857 74.6572723,131.447254 87,122.203177" id="Fill-393" fill="#197541"></path>
            <path d="M34.808123,76.6762544 C33.2827232,76.6762544 32.0488221,77.8968711 32.0488221,79.4074866 C32.0488221,80.9164638 33.2827232,82.1387189 34.808123,82.1387189 C36.3351791,82.1387189 37.5707364,80.9164638 37.5707364,79.4074866 C37.5707364,77.8968711 36.3351791,76.6762544 34.808123,76.6762544 L34.808123,76.6762544 Z M34.808123,123.121948 C36.3351791,123.121948 37.5707364,121.896416 37.5707364,120.387439 C37.5707364,118.881739 36.3351791,117.654568 34.808123,117.654568 C33.2827232,117.654568 32.0488221,118.881739 32.0488221,120.387439 C32.0488221,121.896416 33.2827232,123.121948 34.808123,123.121948 L34.808123,123.121948 Z M34.808123,97.1678689 C33.2827232,97.1678689 32.0488221,98.390124 32.0488221,99.8974627 C32.0488221,101.40644 33.2827232,102.628695 34.808123,102.628695 C36.3351791,102.628695 37.5707364,101.40644 37.5707364,99.8974627 C37.5707364,98.390124 36.3351791,97.1678689 34.808123,97.1678689 L34.808123,97.1678689 Z M27.2159049,89.6524747 C27.2159049,89.4312891 27.1860925,89.2133804 27.134749,89.0069405 C26.7505006,89.8671066 26.2917213,90.8927523 25.7666922,92.0560246 C26.6279386,91.5939925 27.2159049,90.6895893 27.2159049,89.6524747 L27.2159049,89.6524747 Z M14.8222382,123.025282 C15.9965145,122.70743 16.8594171,121.647377 16.8594171,120.387439 C16.8594171,118.881739 15.6222035,117.654568 14.0951475,117.654568 C13.9874917,117.654568 13.8765234,117.66276 13.7688676,117.675868 C13.1875263,118.87027 12.5962475,120.074502 12,121.285288 C12.8960275,121.90297 13.840086,122.479691 14.8222382,123.025282 L14.8222382,123.025282 Z M24.4516352,107.40958 C22.9295479,107.40958 21.6906781,108.633474 21.6906781,110.144089 C21.6906781,111.64979 22.9295479,112.87696 24.4516352,112.87696 C25.9770351,112.87696 27.2159049,111.64979 27.2159049,110.144089 C27.2159049,108.633474 25.9770351,107.40958 24.4516352,107.40958 L24.4516352,107.40958 Z M45.1629545,112.87696 C46.6883544,112.87696 47.9288804,111.64979 47.9288804,110.144089 C47.9288804,108.633474 46.6883544,107.40958 45.1629545,107.40958 C43.6408672,107.40958 42.4053099,108.633474 42.4053099,110.144089 C42.4053099,111.64979 43.6408672,112.87696 45.1629545,112.87696 L45.1629545,112.87696 Z M45.1629545,66.4279895 C43.6408672,66.4279895 42.4053099,67.6535214 42.4053099,69.1657754 C42.4053099,70.6698373 43.6408672,71.8970076 45.1629545,71.8970076 C46.6883544,71.8970076 47.9288804,70.6698373 47.9288804,69.1657754 C47.9288804,67.6535214 46.6883544,66.4279895 45.1629545,66.4279895 L45.1629545,66.4279895 Z M32.2111339,58 C32.1067906,58.286722 32.0488221,58.5963818 32.0488221,58.9175105 C32.0488221,60.4281261 33.2827232,61.6503812 34.808123,61.6503812 C35.639557,61.6503812 36.3832101,61.2882922 36.8883643,60.7115713 C35.8200875,60.1545113 34.7683732,59.512254 33.7348775,58.7815224 C33.2578795,58.445648 32.7427879,58.1867789 32.2111339,58 L32.2111339,58 Z M45.1629545,127.899556 C43.9141473,127.899556 42.8607767,128.720401 42.5212469,129.847628 C44.2950832,129.944294 46.072232,129.993446 47.851037,130 C47.5611945,128.797406 46.4697303,127.899556 45.1629545,127.899556 L45.1629545,127.899556 Z M45.1629545,92.3853453 C46.6883544,92.3853453 47.9288804,91.1614518 47.9288804,89.6524747 C47.9288804,88.1434976 46.6883544,86.9212425 45.1629545,86.9212425 C43.6408672,86.9212425 42.4053099,88.1434976 42.4053099,89.6524747 C42.4053099,91.1614518 43.6408672,92.3853453 45.1629545,92.3853453 L45.1629545,92.3853453 Z M76.2340741,117.654568 C74.7103305,117.654568 73.4764294,118.881739 73.4764294,120.387439 C73.4764294,121.896416 74.7103305,123.121948 76.2340741,123.121948 C77.7611302,123.121948 79,121.896416 79,120.387439 C79,118.881739 77.7611302,117.654568 76.2340741,117.654568 L76.2340741,117.654568 Z M55.5210986,97.1678689 C53.997355,97.1678689 52.7601414,98.390124 52.7601414,99.8974627 C52.7601414,101.40644 53.997355,102.628695 55.5210986,102.628695 C57.0448422,102.628695 58.2820557,101.40644 58.2820557,99.8974627 C58.2820557,98.390124 57.0448422,97.1678689 55.5210986,97.1678689 L55.5210986,97.1678689 Z M55.5210986,76.6762544 C53.997355,76.6762544 52.7601414,77.8968711 52.7601414,79.4074866 C52.7601414,80.9164638 53.997355,82.1387189 55.5210986,82.1387189 C57.0448422,82.1387189 58.2820557,80.9164638 58.2820557,79.4074866 C58.2820557,77.8968711 57.0448422,76.6762544 55.5210986,76.6762544 L55.5210986,76.6762544 Z M65.8792426,107.40958 C64.3538427,107.40958 63.1199417,108.633474 63.1199417,110.144089 C63.1199417,111.64979 64.3538427,112.87696 65.8792426,112.87696 C67.4029862,112.87696 68.6401997,111.64979 68.6401997,110.144089 C68.6401997,108.633474 67.4029862,107.40958 65.8792426,107.40958 L65.8792426,107.40958 Z M55.5210986,123.121948 C57.0448422,123.121948 58.2820557,121.896416 58.2820557,120.387439 C58.2820557,118.881739 57.0448422,117.654568 55.5210986,117.654568 C53.997355,117.654568 52.7601414,118.881739 52.7601414,120.387439 C52.7601414,121.896416 53.997355,123.121948 55.5210986,123.121948 L55.5210986,123.121948 Z M65.8792426,86.9212425 C64.3538427,86.9212425 63.1199417,88.1434976 63.1199417,89.6524747 C63.1199417,91.1614518 64.3538427,92.3853453 65.8792426,92.3853453 C67.4029862,92.3853453 68.6401997,91.1614518 68.6401997,89.6524747 C68.6401997,88.1434976 67.4029862,86.9212425 65.8792426,86.9212425 L65.8792426,86.9212425 Z M73.4847107,59.0698828 C73.5625541,60.5084082 74.7633303,61.6503812 76.2340741,61.6503812 C76.2688552,61.6503812 76.3019801,61.6471043 76.3334487,61.6454659 C75.5036709,60.8721356 74.6871431,60.1233815 73.9169901,59.4254181 C73.7762094,59.3008989 73.6321163,59.1812948 73.4847107,59.0698828 L73.4847107,59.0698828 Z M65.8792426,127.899556 C64.996465,127.899556 64.2147183,128.309159 63.7079079,128.946501 C64.9683089,128.769553 66.2071787,128.577859 67.4178924,128.363227 C66.9773317,128.069951 66.4489902,127.899556 65.8792426,127.899556 L65.8792426,127.899556 Z M76.2340741,76.6762544 C74.7103305,76.6762544 73.4764294,77.8968711 73.4764294,79.4074866 C73.4764294,80.9164638 74.7103305,82.1387189 76.2340741,82.1387189 C76.2887301,82.1387189 76.3466986,82.135442 76.4013547,82.1321652 C77.2013201,81.5275913 78.0410353,80.8771419 78.8741255,80.2053931 C78.951969,79.9530777 79,79.6843782 79,79.4074866 C79,77.8968711 77.7611302,76.6762544 76.2340741,76.6762544 L76.2340741,76.6762544 Z M63.1199417,69.1657754 C63.1199417,70.6698373 64.3538427,71.8970076 65.8792426,71.8970076 C67.4029862,71.8970076 68.6401997,70.6698373 68.6401997,69.1657754 C68.6401997,67.6535214 67.4029862,66.4279895 65.8792426,66.4279895 C64.3538427,66.4279895 63.1199417,67.6535214 63.1199417,69.1657754 L63.1199417,69.1657754 Z M24.4516352,71.8970076 C25.9770351,71.8970076 27.2159049,70.6698373 27.2159049,69.1657754 C27.2159049,67.6535214 25.9770351,66.4279895 24.4516352,66.4279895 C22.9295479,66.4279895 21.6906781,67.6535214 21.6906781,69.1657754 C21.6906781,70.6698373 22.9295479,71.8970076 24.4516352,71.8970076 L24.4516352,71.8970076 Z M76.2440116,97.1678689 C76.8899464,98.5785414 77.582256,100.089157 78.3242528,101.683331 C77.8174425,102.261691 77.0704768,102.628695 76.2340741,102.628695 C74.7103305,102.628695 73.4764294,101.40644 73.4764294,99.8974627 C73.4764294,98.390124 74.7103305,97.1678689 76.2340741,97.1678689 L76.2440116,97.1678689 Z" id="Fill-394" fill="#FFFFFF"></path>
            <path d="M54.4125887,0.265113266 C49.5117272,-0.890961716 45.539553,1.86966561 43.406831,5.90762291 C42.8952384,0.735183985 28.2952985,-1.56533879 27.5507194,12.1182039 C22.2963052,7.66498977 12.6721733,13.7808922 18.3208723,22.6507778 C15.275756,21.1658194 7.69310663,30.1636042 13.7246854,36.0187253 C9.50323198,36.3991006 7.57742805,42.0548984 10.1842692,45.5181403 C14.1026774,50.7271218 21.4947015,49.8069127 23.9695713,44.649423 C27.997141,45.7722775 32.8263143,40.8406875 35.2083154,37.8458553 C35.8225524,37.0751387 36.3357743,36.1698788 36.7512396,35.1832286 C50.3654677,32.4458557 62.2526636,21.6093137 60.8938476,6.39596493 C60.5565875,2.58889042 56.2748509,0.706946521 54.4125887,0.265113266" id="Fill-395" fill="#6D4C41"></path>
            <path d="M14,42.6780492 C13.0506366,38.6739152 11.9458025,31.23528 8.28728015,32.0638368 C4.62710383,32.890723 3.53550131,39.4206186 1.19682562,40.7853985 C-1.14350402,42.1501784 0.0721442341,45.4928033 3.76539942,46.4900783 C7.45865461,47.4890237 11.8631054,46.7122517 11.8631054,46.7122517 L14,42.6780492 Z" id="Fill-396" fill="#197541"></path>
            <path d="M18.1049313,44.5616707 C22.1926467,44.1650885 29.5651929,42.8210233 29.9782954,46.5611752 C30.3980608,50.301327 24.5963033,53.4407979 24.0715966,56.1007196 C23.5485556,58.758982 19.9972071,58.6876304 17.8500738,55.501698 C15.7046062,52.3157656 15,47.8853283 15,47.8853283 L18.1049313,44.5616707 Z" id="Fill-397" fill="#197541"></path>
            <path d="M13.7309539,41.0518681 C12.6797176,41.3734691 9.30993069,46.5495518 10.1262251,47.4991209 C10.9459494,48.4537679 14.3260257,50.9385584 15.4938755,50.9994934 C16.6582955,51.0587356 20.06924,45.9046572 19.998929,44.8958458 C19.9251881,43.8853418 15.4287091,40.5457698 13.7309539,41.0518681" id="Fill-398" fill="#50EF69"></path>
            <path d="M47.7790489,52 C47.6488739,52 47.5203677,51.9969275 47.3868549,51.993855 C42.5353306,51.8402296 38.9288139,48.8906226 37.2048288,47.1454384 C36.9511544,46.8904203 36.9177761,46.4433705 37.1914776,46.2037149 C37.46351,45.9625231 37.8456907,45.9179717 38.1127164,46.1653086 C38.121061,46.1729898 38.2295402,46.2774551 38.2378847,46.2851363 C39.80833,47.8813039 43.0944158,50.5774291 47.4335844,50.7141557 C50.5995085,50.8001859 53.7654327,49.498979 56.8195398,46.8043901 C57.1015858,46.5570532 57.5421783,46.567807 57.8058662,46.8212889 C58.0712231,47.076307 58.0645474,47.4818779 57.7858393,47.7261423 C54.5715167,50.5651391 51.2069921,52 47.7790489,52" id="Fill-399" fill="#EF5350"></path>
            <path d="M37.7653879,42.3090976 C37.2465722,43.6130145 36.0310609,44.3109103 35.0576637,43.8656704 C34.0859136,43.4151301 33.7153309,41.9981364 34.2357937,40.6924528 C34.7579035,39.3867691 35.9651796,38.6871064 36.9418708,39.13588 C37.9169151,39.5846535 38.2825567,41.003414 37.7653879,42.3090976" id="Fill-400" fill="#EF5350"></path>
            <path d="M59.2354638,43.3094629 C59.754445,44.6160982 60.9670488,45.3127346 61.942404,44.863634 C62.9161117,44.4180696 63.2835175,42.9947389 62.7645362,41.6898717 C62.2439074,40.3850046 61.0313036,39.6901363 60.057596,40.1339326 C59.0838883,40.5812651 58.7164825,42.0045958 59.2354638,43.3094629" id="Fill-401" fill="#EF5350"></path>
            <path d="M56.0019776,38.4552644 C55.9596333,39.2844231 56.6024964,39.9761608 57.4301346,39.9993216 C58.2616222,40.0240265 58.9622275,39.3708903 58.9987975,38.5448198 C59.0315181,37.7110289 58.3925045,37.0208353 57.5648664,37.0007626 C56.7372282,36.9745136 56.0327734,37.6291939 56.0019776,38.4552644" id="Fill-402" fill="#6D4C41"></path>
            <path d="M39.0016463,37.4559757 C38.963172,38.2862507 39.6037685,38.9745456 40.4309651,38.9992378 C41.2639329,39.0254733 41.9622408,38.3711301 41.9987914,37.5439417 C42.0314945,36.7136667 41.3966692,36.0222852 40.5637014,36.0006796 C39.7422758,35.9759874 39.0401205,36.627244 39.0016463,37.4559757" id="Fill-403" fill="#6D4C41"></path>
            <path d="M45,40 C45.6898599,45.7291263 51.1721681,44.6115349 52,40.9764219 C50.0185229,43.5376389 46.609119,43.39815 45,40" id="Fill-404" fill="#FFC182"></path>
            <path d="M81.7475021,44.6542541 C78.7010305,39.1651311 75.6149515,33.7895762 72.9678548,28.1407996 C72.9645542,27.4560994 72.67575,26.7730451 72.1509515,26.3500452 C71.652558,25.2341155 71.167367,24.1148941 70.7135318,22.9693379 C70.0682608,21.3530505 69.3421245,19.6478836 68.3073804,18.3327984 C68.5483256,17.9246117 68.6473442,17.4522344 68.5945343,16.9831489 C69.6342293,16.2408418 69.9659416,14.323352 68.566479,13.6616946 C63.4653719,11.263598 57.6546317,15.7306084 58.0160495,21.4847236 C58.2767984,25.6423022 60.4271519,28.6971185 63.4521695,30.0879157 C62.7045792,33.3122612 64.1634529,37.484653 67.2165257,39.5338159 C65.4903019,41.5862705 64.7146563,44.2263165 66.8749116,46.3841097 C68.427853,47.9329147 71.0138882,47.6695685 72.9282474,47.2498604 C74.2451945,46.9585336 75.2436318,46.0779697 76.2602225,45.2764096 C75.7304731,45.6961176 78.5442511,47.468767 78.7653926,47.6284206 C80.6368437,48.9550272 82.7343872,46.4384248 81.7475021,44.6542541" id="Fill-405" fill="#6D4C41"></path>
            <path d="M83,43.3254775 C83.3602714,39.2309722 83.3786186,31.727437 87.144789,32.0076313 C90.9176312,32.2811542 92.962505,38.5688466 95.4944123,39.5728759 C98.0279876,40.5769053 97.3057768,44.0593195 93.7664439,45.5870453 C90.2254431,47.1131033 85.7153789,46.9980235 85.7153789,46.9980235 L83,43.3254775 Z" id="Fill-406" fill="#197541"></path>
            <path d="M79.4426482,47 C75.3462028,47.2078635 67.8637842,46.9463578 68.0018853,50.7415427 C68.1366587,54.5384039 74.327915,56.8265785 75.2363875,59.4097851 C76.1465238,61.9879628 79.6423125,61.3945461 81.2978621,57.8960696 C82.9517478,54.3959168 83,49.8648281 83,49.8648281 L79.4426482,47 Z" id="Fill-407" fill="#197541"></path>
            <path d="M82.5124574,42.0121873 C83.576448,42.1729088 87.5840339,46.7601687 86.9278504,47.8048586 C86.2750234,48.8528968 83.3683489,51.7659742 82.2472989,51.9919889 C81.1228925,52.2163293 77.0783858,47.6625531 77.0011878,46.6630661 C76.9223115,45.661905 80.7922835,41.7543632 82.5124574,42.0121873" id="Fill-408" fill="#50EF69"></path>
            <path d="M38.0592334,37.2114407 C37.7324816,37.4454407 37.3670151,37.4394407 37,37.4294407 C37.5234224,37.9474407 38.1924119,38.0694407 38.8335269,37.9574407 C38.8149439,36.5414407 40.9457995,36.1454407 41,37.1514407 C40.3372048,34.6774407 38.4603175,36.9334407 38.0592334,37.2114407" id="Fill-409" fill="#361818"></path>
            <path d="M58.9365325,37.1925911 C59.2678019,37.3843884 59.6346749,37.3776587 60,37.3726114 C59.4783282,37.8083615 58.7693498,38.0741858 58.130031,37.981652 C57.9582043,36.6390708 56.4055728,36.2184626 56,37.1404357 C56.9179567,34.6638949 58.5402477,36.9570506 58.9365325,37.1925911" id="Fill-410" fill="#361818"></path>
        </g>
    </g>
</svg>