<?xml version="1.0" encoding="UTF-8"?>
<svg width="200px" height="200px" viewBox="0 0 200 200" version="1.1" xmlns="http://www.w3.org/2000/svg" xmlns:xlink="http://www.w3.org/1999/xlink">
    <!-- Generator: Sketch 56.3 (81716) - https://sketch.com -->
    <title>dolphin</title>
    <desc>Created with Sketch.</desc>
    <g id="dolphin" stroke="none" stroke-width="1" fill="none" fill-rule="evenodd">
        <g id="typeText" transform="translate(10.000000, 6.000000)" fill="#725F5F" fill-opacity="0.87" font-family="Roboto-Black, Roboto Black" font-size="17" font-weight="700">
            <g id="vegetable">
                <text>
                    <tspan x="0" y="16">animal</tspan>
                </text>
            </g>
        </g>
        <g id="firstLetter" transform="translate(10.000000, 152.000000)">
            <g id="Group" transform="translate(0.000000, -5.000000)">
                <rect id="Rectangle" stroke="#979797" x="0.5" y="6.5" width="34" height="38"></rect>
                <text id="C" fill="#131313" font-family="Roboto-Bold, Roboto" font-size="43" font-weight="bold">
                    <tspan x="3.52709961" y="40">D</tspan>
                </text>
            </g>
        </g>
        <g id="nameText" transform="translate(104.000000, 161.000000)" fill="#454545" fill-opacity="0.87" font-family="Roboto-Black, Roboto Black" font-size="26" font-weight="700">
            <text id="Carrot">
                <tspan x="-3.6796875" y="28">Dolphin</tspan>
            </text>
        </g>
        <g id="colorText" transform="translate(133.000000, 5.000000)" fill="#454545" fill-opacity="0.87" font-family="Roboto-Black, Roboto Black" font-size="18" font-weight="700">
            <text id="orange">
                <tspan x="21.9667969" y="17">blue</tspan>
            </text>
        </g>
        <g transform="translate(100.000000, 100.000000) rotate(9.000000) translate(-100.000000, -100.000000) translate(9.000000, 56.000000)">
            <path d="M46.8887087,30 C43.4471767,32.0667465 33.3959408,46.7726006 38.3444572,53.7284984 C38.5056695,53.956156 39.0313618,54.4430139 39.7463033,53.0578687 C41.2112323,50.2217495 45.2976135,42.881851 58.9165474,44.1757961 C71.0635431,45.330541 57.6268491,36.1851536 57.6268491,36.1851536 L46.8887087,30" id="Fill-547" fill="#4F787C"></path>
            <path d="M161.095854,57.8632536 C153.805637,42.8488668 146.004552,31.2139549 133.757539,22.4722971 C131.458635,20.176675 127.917081,15.5029037 130.547358,10.2645113 C133.177635,5.02611877 139.846527,3.81297391 137.658081,1.63013845 C131.375792,-4.62608532 108.897622,9.29344519 102.925995,7.15393633 C89.7469939,2.77726181 76.7820051,0.727157047 66.7234382,0.573794631 C66.3230285,0.566917393 65.9157152,0.56279105 65.5153055,0.56279105 C39.6888821,0.56279105 12.6612298,12.4507853 12.1434586,22.7858992 C8.53977165,23.3498327 4.68755453,24.5677917 2.45078329,25.4707731 C2.31961461,25.5175383 2.18154231,25.5718685 2.05727724,25.6337636 C0.84224102,26.2183289 0,27.4548563 0,28.890136 C0,30.8879738 1.62925312,32.5089388 3.63130145,32.5089388 C18.9159049,33.4497451 46.8755453,42.5613982 72.2187156,44.0234991 C86.7370178,44.8611467 103.133103,42.6920657 117.547851,44.7992516 C128.172515,46.352132 137.36813,49.8437059 146.494708,58.0688831 C156.159769,66.6585538 136.035732,76.2302942 139.929371,88 C144.603118,86.0606188 162.131396,78.2996552 162.131396,72.4794484 C164.078216,76.2302942 177.712855,75.4545417 182,76.6174827 C178.230626,63.4248763 167.978758,69.375063 161.095854,57.8632536" id="Fill-548" fill="#7099B0"></path>
            <path d="M25,20.9993218 C25,19.8952187 25.8949153,19 27,19 C28.1050847,19 29,19.8952187 29,20.9993218 C29,22.1041031 28.1050847,23 27,23 C25.8949153,23 25,22.1041031 25,20.9993218" id="Fill-549" fill="#212830"></path>
            <path d="M108.988342,37.9467941 C95.5784207,37.9467941 93.3112758,37.9467941 67.9040921,37.9467941 C51.448341,37.9467941 28.7631095,30 0,30 C0.516826356,31.3807917 1.83990183,32.3663818 3.39727191,32.3663818 C18.6539859,33.3098997 46.5626091,42.4478163 71.8595365,43.9141316 C86.3513475,44.7541937 102.717515,42.5788605 117.105961,44.6921201 C127.711238,46.2494766 136.890074,49.7511146 146,58 C141.134941,51.5671109 125.581913,37.9467941 108.988342,37.9467941" id="Fill-550" fill="#B3DDE1"></path>
            <path d="M49.9359946,34.1497421 C48.6573833,39.1214186 46.1069619,60.4967756 63.1097717,63.9791056 C63.456629,64.0507556 64.3611785,64.0451906 63.7830829,62.1148139 C62.6064885,58.1615415 59.8248288,47.6651616 73.2162418,36.8967899 C85.1522143,27.2991656 65.0344897,30.5192427 65.0344897,30.5192427 L49.9359946,34.1497421" id="Fill-551" fill="#709CB0"></path>
        </g>
    </g>
</svg>