<?xml version="1.0" encoding="UTF-8"?>
<svg width="200px" height="200px" viewBox="0 0 200 200" version="1.1" xmlns="http://www.w3.org/2000/svg" xmlns:xlink="http://www.w3.org/1999/xlink">
    <!-- Generator: Sketch 56.3 (81716) - https://sketch.com -->
    <title>dress</title>
    <desc>Created with Sketch.</desc>
    <g id="dress" stroke="none" stroke-width="1" fill="none" fill-rule="evenodd">
        <g transform="translate(72.000000, 26.000000)">
            <path d="M38.9556847,5 C39.8274979,5.04058393 40.1500085,6.08193072 39.9361512,6.93419328 C39.8274979,7.37784945 39.6050174,7.76800861 39.3411451,8.12680746 C38.9634456,8.64333022 38.4977887,8.93479664 38.0157475,9.26592463 C38.0157475,9.26592463 38.0157475,9.26592463 38.0114359,9.26592463 C37.6130405,9.33417942 37.2146451,9.39690004 36.8119381,9.45408649 C34.9708685,9.72341622 33.1177264,9.89497557 31.2550986,9.96599745 C30.2789437,10.0065814 29.3053758,10.0065814 28.3326702,9.98813414 C27.3599646,10.0065814 26.382085,10.0065814 25.4093794,9.96599745 C23.5433023,9.89497557 21.6892979,9.72341622 19.8490906,9.45408649 C19.4877753,9.40151185 19.1273224,9.34709249 18.7668694,9.28437187 C18.7625578,9.28437187 18.7625578,9.28437187 18.7625578,9.28437187 C18.0873552,9.03256702 17.5294292,8.6876036 17.1939838,7.93403378 C16.8714732,7.21274663 16.8628499,5.31452547 17.8614254,5.06364298 C21.0899801,6.28853983 24.4823772,6.91205659 27.8040633,6.95264053 C27.9722172,6.95632997 28.1438204,6.95264053 28.316286,6.95264053 C28.3197353,6.95264053 28.3240469,6.95264053 28.3283585,6.95264053 C28.5042734,6.95264053 28.6801882,6.95632997 28.8569654,6.95264053 C32.2329782,6.91205659 35.6797019,6.27009259 38.9556847,5" id="Fill-158" fill="#AC262A"></path>
            <path d="M12.7898802,87.1403027 C12.8027518,87.1031113 12.7358194,87.0823533 12.7272383,87.1238693 C11.304496,92.9205373 10.1228818,98.8296445 9.38490932,104.75259 C9.02192981,107.705414 8.80397049,110.69197 8.70013947,113.661227 C8.58343684,116.816441 8.8168421,119.907651 9.08028113,123.054216 C9.08457166,123.129464 9.19698376,123.129464 9.19698376,123.054216 C9.31368639,120.067661 9.60630107,117.101863 9.72214559,114.119632 C9.83970633,111.141726 10.0645305,108.176793 10.2945033,105.206671 C10.7613139,99.1245809 11.5464823,93.1177382 12.7898802,87.1403027 Z M18.7992075,51.7375546 C18.8120791,51.7072825 18.7614508,51.6865245 18.7485791,51.7159317 C16.6668102,56.2627959 15.181426,60.9065308 14.7969938,65.9334235 C14.7806897,66.1306243 15.101622,66.1773298 15.1393787,65.9783991 C16.0532633,61.1841688 17.104445,56.3259348 18.7992075,51.7375546 Z M22.3509147,59.913607 C22.3552053,59.8547927 22.2711107,59.8591173 22.2633878,59.913607 C21.0440169,69.6179663 19.6959299,79.3093518 18.7408562,89.045713 C17.7892149,98.7457477 17.1713774,108.47 16.3578914,118.183008 C16.3578914,118.203766 16.3913576,118.203766 16.3956482,118.183008 C17.5601002,108.46654 18.9159101,98.7794794 19.9422068,89.045713 C20.965071,79.3551924 21.594922,69.6300751 22.3509147,59.913607 Z M29.3736671,102.07308 C29.4071333,95.11137 29.5204035,88.1496598 29.4534711,81.1888146 C29.3865387,74.2236448 29.0355727,67.2619347 28.7146405,60.305414 C28.7103499,60.2630331 28.6562892,60.2630331 28.6562892,60.305414 C28.5558906,67.2619347 28.4220258,74.2279694 28.5773433,81.1888146 C28.726654,88.1548493 29.0613159,95.11137 29.3110252,102.07308 C29.3153158,102.111136 29.3736671,102.111136 29.3736671,102.07308 Z M40.3488629,123.815342 C40.3488629,123.827451 40.3746062,123.827451 40.3746062,123.815342 C39.5731337,115.53723 38.825722,107.263442 38.2207562,98.968896 C37.9289996,94.9556851 37.6698511,90.9684216 37.015115,86.9932669 C36.3097506,82.7153916 35.7090753,78.4297321 35.1830554,74.1224496 C35.1744743,74.0299036 35.028596,74.0299036 35.036319,74.1224496 C35.4044471,78.223882 35.6962037,82.3158004 35.9047238,86.4258819 C36.1175345,90.5350986 36.6306828,94.5604184 37.2030406,98.6315787 C38.3795061,107.010886 39.3852081,115.406628 40.3488629,123.815342 Z M44.21807,74.1518568 C44.2558267,74.3490577 44.58534,74.3032171 44.5724684,74.1016916 C44.1760227,67.7160157 42.6691858,61.1625459 40.3780386,55.198949 C40.3617346,55.1565682 40.2948022,55.1730016 40.3076738,55.219707 C41.0713895,58.3576228 41.9054701,61.4661315 42.511294,64.6421036 C43.1119693,67.805102 43.6542933,70.9810741 44.21807,74.1518568 Z M46.8885008,118.191658 C47.5518179,111.091561 46.4585889,103.776965 45.2529477,96.7858476 C45.2443666,96.7391422 45.1731437,96.7555756 45.1817248,96.802281 C46.2208931,103.919676 46.1539607,111.040531 46.6044671,118.191658 C46.6173388,118.37675 46.8713386,118.372425 46.8885008,118.191658 Z M24.9964604,147.172403 C25.0385076,147.269274 25.0796968,147.36182 25.1217441,147.454366 C25.2049805,147.626484 25.2839264,147.790818 25.368021,147.950828 C25.4049196,148.013102 25.4383858,148.076241 25.480433,148.140244 C25.3345548,148.161002 25.1835278,148.173976 25.0342171,148.186085 C23.3523263,148.337445 21.332341,148.518213 19.6839164,148.08489 C19.0205992,147.908447 18.7202616,147.538263 18.6027009,147.075533 C18.5529306,146.894765 18.532336,146.705348 18.523755,146.503823 C18.5151739,146.179479 18.5486401,145.838702 18.5692347,145.49879 C18.6284441,144.589764 18.6576197,143.680737 18.6945184,142.772575 C18.7700318,140.799701 18.8361061,138.826827 18.9450858,136.859143 C18.9493763,136.799464 18.8618493,136.803788 18.8575588,136.859143 C18.5863968,139.36567 18.2397214,141.860088 17.9265121,144.362291 C17.8269716,145.132066 17.6519177,146.057526 17.7394446,146.882656 C16.2283172,147.390362 14.5129602,146.806544 14.4091291,144.825886 L14.4091291,144.812912 C14.7300614,143.003507 14.9471626,141.17421 15.0346896,139.336263 C15.2063111,135.617988 14.8433316,131.820141 14.3379062,128.134734 C14.3336157,128.113976 14.2924265,128.1183 14.2924265,128.143383 C14.5550074,131.815817 14.4211427,135.441545 14.1542712,139.10879 C14.0873388,139.975436 14.0212645,140.842082 13.9457511,141.708728 C12.7855896,140.504765 11.2667392,140.791917 9.94353734,141.489904 C10.1314629,138.882182 9.10087571,135.626637 9.98129408,133.552569 C10.0147603,133.472996 9.90663872,133.405533 9.86459145,133.48078 C9.10087571,134.907027 9.18411214,136.412846 9.38061878,137.973155 C9.52649706,139.142522 9.75561179,140.504765 9.52649706,141.717377 C9.51791599,141.7883 9.50504438,141.851439 9.48444979,141.918902 C9.34286204,142.545967 9.06740951,143.122001 8.58343684,143.604624 C6.98907297,145.208179 4.35983137,144.67366 2.82038639,143.294119 C2.2437381,142.772575 1.77263704,142.187891 1.38477242,141.552178 C1.55553583,137.876284 1.50576559,134.191742 1.58127905,130.511523 C1.66022495,126.612481 1.79408973,122.712574 1.97772475,118.813532 C2.64533244,104.815729 3.92991948,90.8724159 5.97908036,77.0078099 C6.93930273,70.5096948 7.97418047,63.9051951 9.44326063,57.4953014 C10.3863209,53.3990585 11.7798875,49.1626992 14.2254941,45.688331 L14.742933,44.9816945 C14.7472235,44.9730453 14.7515141,44.9687208 14.7558046,44.9652611 C14.8510545,44.636593 14.9222775,44.295816 14.9763383,43.9472548 C15.1857165,42.6005803 15.1393787,41.149251 15.1265071,39.921935 C15.0973314,37.6843969 14.8098654,35.4797256 14.3876765,33.288893 C14.0461496,31.4959218 13.6205283,29.7254384 13.2026299,27.9549551 L13.2026299,27.9506305 C13.0739138,26.5165995 13.0567516,24.4131234 14.208332,24.3326862 C14.3962575,24.4719377 14.5927642,24.6103243 14.7969938,24.7409266 C17.4262354,26.4197289 21.1315439,26.8028867 24.1821163,25.789205 C24.2868054,25.7511487 24.2447581,25.6118972 24.132346,25.6413043 C20.9230237,26.469894 17.4176543,25.923267 14.8433316,24.1017536 C13.4952446,23.1555353 12.5101371,21.8642155 11.7721646,20.4760251 C11.6460228,20.2450925 11.5293201,20.0089703 11.4211986,19.7737131 C11.3585567,19.6387862 11.3002054,19.5047242 11.2418541,19.3697973 C11.1500366,19.1639473 11.065942,18.9615569 10.9869962,18.7600314 C10.9869962,18.7557068 10.9827056,18.7513823 10.9827056,18.7513823 C10.9784151,18.7219751 10.9372259,18.7306243 10.9372259,18.7600314 C10.9415165,18.9866394 10.9449489,19.2141124 10.9449489,19.4459099 C10.8411179,21.1238473 10.6780774,22.7983249 10.3571452,24.4555043 C10.2155574,25.1863585 10.052517,25.9102933 9.88518603,26.6299035 C8.31656539,27.017386 6.75995825,27.3451892 5.09866199,27.3322154 C4.1135545,27.3192417 3.15419023,27.2059377 2.21113001,27.0208456 C2.08155577,21.7846432 1.10073881,16.5813076 1.00463077,11.3442403 C0.954860526,8.61456491 1.28437383,6.38481106 3.06666326,4.23203475 C3.79691281,3.34376586 4.68162171,2.71756656 5.61181032,2.15710089 C7.64380905,1.21953178 9.80624013,0.640037955 11.959232,0 C12.1849143,0.51289528 12.4269007,1.0223309 12.6774681,1.52657701 C12.7143667,1.61479846 12.756414,1.70388483 12.8027518,1.79210627 C12.8070423,1.79556594 12.8104747,1.79556594 12.8190558,1.8042151 C13.9380281,3.99245297 15.2981286,6.06133242 16.904506,7.91225299 C16.9748708,7.99614986 17.0460937,8.07572214 17.1216072,8.16048393 C17.3884786,8.22275789 17.6562082,8.28157219 17.9265121,8.33692682 C21.3778207,9.06864589 24.9544131,9.46477749 28.5018298,9.41807202 C31.7437602,9.46045291 35.0080014,9.13178477 38.18729,8.5176943 C38.4833371,8.45888 38.7802423,8.4000657 39.0762894,8.33692682 C39.3474514,8.28157219 39.6143229,8.22275789 39.8820524,8.16048393 C39.9524172,8.07572214 40.0279307,7.99614986 40.0991536,7.91225299 C41.705531,6.06133242 43.0656315,3.99245297 44.1837457,1.8042151 C44.1880362,1.79556594 44.1966173,1.79556594 44.2009078,1.79210627 C44.2429551,1.70388483 44.2841443,1.61479846 44.3261915,1.52657701 C44.576759,1.0223309 44.8144548,0.51289528 45.0444276,0 C46.117062,0.319154061 47.1974195,0.627064213 48.2614729,0.966976262 C49.3255263,1.30861814 50.3732756,1.69091108 51.3875588,2.15710089 C52.3177474,2.71756656 53.2024563,3.34376586 53.9369964,4.23203475 C55.6394818,6.29312995 56.0153329,8.42168861 55.9995291,10.9904896 C55.8651641,13.2833823 55.5099075,15.5754101 55.130624,17.805164 C54.6964216,20.383479 54.3960839,22.9912012 53.9996382,25.5790304 C53.9164018,26.1126837 53.8451788,26.6506615 53.7739559,27.1895043 C53.160409,27.2734011 52.5391391,27.3235663 51.9007071,27.3322154 C50.0223096,27.3486488 48.2777769,26.923975 46.5006361,26.4785432 C46.4671699,26.469894 46.4337037,26.4569203 46.4045281,26.4439465 C46.2500687,25.0021313 46.1410891,23.5551266 46.0870283,22.1081219 C46.0621432,21.4810576 46.0458391,20.8548583 46.0458391,20.2277941 C46.0458391,20.2104958 46.0458391,20.1940624 46.0458391,20.1767641 C46.0458391,20.0340529 46.0458391,19.8956663 46.0492715,19.7520902 C46.0535621,19.4199624 46.0578526,19.0886996 46.0664337,18.7600314 C46.0664337,18.7306243 46.020954,18.7219751 46.0166635,18.7513823 C45.8827987,19.0921592 45.7369204,19.4329362 45.5781705,19.7737131 C45.4700489,20.0089703 45.3524882,20.2450925 45.231495,20.4760251 C45.1731437,20.5806799 45.1147924,20.6905243 45.0521506,20.7951791 C44.9646236,20.9560535 44.8685155,21.1151981 44.7689751,21.270883 C44.0927863,22.3563528 43.244976,23.3406274 42.160328,24.1017536 C39.5817148,25.923267 36.0797778,26.469894 32.867023,25.6413043 C32.7537528,25.6118972 32.7168542,25.7511487 32.8206852,25.789205 C35.8678252,26.8028867 39.5774242,26.4197289 42.2058077,24.7409266 C42.4821184,24.5644837 42.7404088,24.3793917 42.9823951,24.1856505 C43.4663678,24.004883 43.9795161,24.0005584 44.2884348,24.5558346 C44.2970159,24.5644837 44.3013064,24.5809171 44.305597,24.5938909 C43.7006311,27.883167 42.7232466,31.1179534 42.0187403,34.402905 C41.8351053,35.2479281 41.6634837,36.1024653 41.5133149,36.9647867 C40.1909712,37.363513 38.8385936,37.7051549 37.4321553,37.9611701 C33.7268468,38.642724 29.891106,38.8658724 26.1068516,38.776786 C26.0811083,38.776786 26.0853989,38.8061932 26.1068516,38.8105177 C29.9503154,39.2187582 33.7723265,39.0336661 37.5531485,38.3400033 C38.8343031,38.1047462 40.1360523,37.8227835 41.4300785,37.4776819 C41.1752205,39.0890207 41.0207612,40.715928 41.0919841,42.3108334 C41.1125787,42.7943215 41.154626,43.27435 41.2258489,43.749189 C41.2636056,44.0346113 41.3090853,44.3174389 41.3674366,44.595077 C41.3794501,44.6660001 41.3923218,44.7421127 41.4094839,44.8139008 C39.6735323,45.5075635 37.8912429,46.080138 36.0128454,46.4961627 C35.4876836,46.6094667 34.9616636,46.7149865 34.4313531,46.8032079 C30.5381191,47.4588144 26.5110202,47.4129738 22.6220767,46.8282905 C22.6049146,46.8239659 22.5963335,46.8490485 22.6134956,46.8576976 C27.2618644,47.8964619 32.4285301,47.8800285 37.3025811,46.7651516 C38.9638773,46.4373484 40.5994304,45.9997008 42.2229699,45.4530738 C44.0842052,48.8634382 45.3276031,52.66215 46.2663728,56.3760999 C48.0400811,63.3879752 48.9333711,70.6645148 49.9262016,77.8199662 C52.1881731,94.1193111 53.7533613,110.53196 54.6629554,126.969692 C54.9263944,131.651483 55.4850224,136.803788 54.675827,141.522771 C54.2836718,142.166268 53.8074221,142.76479 53.2230509,143.294119 C51.6836059,144.67366 49.0543643,145.208179 47.4600004,143.604624 C46.9760277,143.122001 46.7005752,142.545967 46.5589874,141.918902 C46.5383929,141.851439 46.5255213,141.7883 46.5169402,141.717377 C46.5169402,141.713052 46.5126496,141.708728 46.5126496,141.704403 C46.5426834,140.674288 46.7340414,139.613901 46.7881022,138.785311 C46.9391291,136.542584 46.9425615,134.25488 46.7091563,132.021667 C46.7091563,132.000044 46.6799806,132.000044 46.6799806,132.021667 C46.6842712,132.913395 46.667109,133.796475 46.6302104,134.67523 C46.5504064,136.702593 46.3667714,138.713523 46.1127715,140.75732 C46.0998999,140.846406 46.0913188,140.934628 46.0793053,141.027174 C46.0664337,141.169885 46.0535621,141.312596 46.0415486,141.460497 C45.9874878,141.435414 45.933427,141.406007 45.8785081,141.38006 C44.6102252,140.765969 43.1952058,140.573093 42.0976862,141.708728 C42.0230308,140.842082 41.9560984,139.975436 41.889166,139.10879 C41.6222946,135.441545 41.4884298,131.815817 41.7518688,128.143383 C41.7518688,128.1183 41.7098216,128.113976 41.705531,128.134734 C41.2009638,131.820141 40.8379843,135.617988 41.0130382,139.336263 C41.1005652,141.17421 41.3133759,143.003507 41.6343081,144.812912 L41.6343081,144.825886 C41.5304771,146.806544 39.81512,147.390362 38.3048507,146.882656 C38.3915196,146.057526 38.2164656,145.132066 38.1212157,144.362291 C37.8037159,141.860088 37.4570404,139.36567 37.1858784,136.859143 C37.1815879,136.803788 37.0940609,136.799464 37.0983515,136.859143 C37.2073311,138.826827 37.2734054,140.799701 37.3489189,142.772575 C37.3866756,143.680737 37.4158513,144.589764 37.4742026,145.49879 C37.4990877,145.838702 37.5282634,146.179479 37.5196823,146.503823 C37.5119593,146.705348 37.4905066,146.894765 37.4407364,147.075533 C37.3231756,147.538263 37.022838,147.908447 36.3595208,148.08489 C34.8990218,148.468048 33.1424756,148.371177 31.5944495,148.23625 C31.6519427,148.148029 31.710294,148.051158 31.7652129,147.950828 C31.9608614,147.584103 32.148787,147.168079 32.3289896,146.701889 C33.1793742,144.513651 33.2677593,141.84279 33.1047188,139.31118 C32.8961987,136.06861 32.5495232,133.149518 32.3075369,130.558229 C31.518936,122.145189 30.8642,116.251651 30.442011,111.886419 C30.442011,111.873445 30.4214164,111.873445 30.4214164,111.886419 C30.7088825,115.634101 31.0598485,120.48801 31.5232266,127.016397 C31.6648143,128.971973 31.8398683,131.11264 32.0243614,133.455698 C32.2243005,135.954441 32.6954015,139.117439 32.4954624,142.145511 C32.3744693,143.941941 31.9316858,146.731296 30.4668961,148.127271 C30.0249707,148.551944 29.4157144,148.817474 28.814181,148.942887 C28.2092151,149.073489 27.554479,148.980943 27.0207361,148.656599 C26.5865337,148.3928 26.2398582,148.000993 25.9686963,147.571994 C25.2212846,146.389654 24.8042443,145.03606 24.6703795,143.64268 C24.3417243,140.207233 24.5081972,136.513177 24.6120282,132.740412 C24.4077986,134.759991 24.1821163,136.950824 24.0328056,139.31118 C23.8654746,141.84279 23.9572921,144.513651 24.8042443,146.701889 C24.8668861,146.865358 24.929528,147.021043 24.9964604,147.172403 L24.9964604,147.172403 Z" id="Fill-159" fill="#D92D2E"></path>
            <path d="M46.7896184,118.866429 C47.4848397,111.954241 46.3390287,104.83323 45.075399,98.0271374 C45.0664051,97.981668 44.9917566,97.9976665 45.0007504,98.0431359 C46.0899003,104.972165 46.0197486,111.904561 46.4919234,118.866429 C46.5054142,119.046623 46.7716308,119.042412 46.7896184,118.866429" id="Fill-160" fill="#0A0B09"></path>
            <path d="M46.1323641,18.9753079 C46.1194078,19.0471644 46.115089,19.1224839 46.1029964,19.1986691 C46.0986776,19.1986691 46.0943589,19.1986691 46.0900401,19.1986691 C46.1029964,19.1268126 46.1194078,19.0471644 46.1323641,18.9753079 C45.9976182,19.3164098 45.8507796,19.6575117 45.6909847,19.9986136 C45.5821514,20.2340951 45.4638168,20.4704424 45.3420272,20.7015952 C45.2832918,20.8063498 45.2245563,20.9162989 45.1615021,21.0210536 C45.073399,21.1820814 44.9766583,21.3413777 44.8764626,21.497211 C44.1958227,22.5837158 43.3424315,23.5689289 42.2506436,24.3307808 C39.6550561,26.154031 36.1300669,26.7011793 32.8961636,25.8717995 C32.7821478,25.8423643 32.7450063,25.9817486 32.8495208,26.0198412 C35.9167192,27.0344895 39.6507374,26.6501006 42.2972865,24.9705633 C42.5745522,24.7939522 42.8345428,24.6086836 43.0781221,24.4147577 C43.5652806,24.2338178 44.0818068,24.2294891 44.3927591,24.7852948 C44.4013966,24.7939522 44.4057154,24.8104013 44.4100342,24.8233874 C43.8010861,28.1157998 42.8172677,31.3536706 42.1081238,34.6417543 C41.92328,35.4875831 41.7505288,36.3429351 41.5993714,37.2060787 C40.2683231,37.6051853 38.9070432,37.9471529 37.4913468,38.2034122 C33.7616474,38.885616 29.900657,39.1089771 26.091492,39.0198058 C26.0655793,39.0198058 26.0698981,39.049241 26.091492,39.0535697 C29.9602562,39.4621994 33.8074264,39.2769308 37.6131364,38.5826067 C38.9027245,38.3471252 40.2130427,38.0648936 41.5155871,37.719463 C41.2590515,39.3323383 41.1035753,40.9607968 41.1752671,42.5572229 C41.1959973,43.041172 41.2383213,43.5216582 41.3100131,43.9969499 C41.3480184,44.2826444 41.3937974,44.5657417 41.4525329,44.8436445 C41.4646254,44.9146352 41.4775818,44.9908204 41.4948569,45.0626769 C39.7474781,45.7570011 37.9534564,46.3301215 36.062694,46.7465429 C35.5340751,46.8599549 35.0045926,46.9655753 34.4707912,47.0538809 C30.5519292,47.7101124 26.4983212,47.6642282 22.5837779,47.0789874 C22.5665028,47.0746587 22.5578653,47.0997651 22.5751404,47.1084226 C27.2541079,48.1481773 32.4547842,48.1317282 37.3609196,47.0157883 C39.0331517,46.6876725 40.679471,46.2496076 42.3136978,45.7024594 C44.1871851,49.1160756 45.4387679,52.9184094 46.3837172,56.6359006 C48.1691013,63.6544617 49.0682716,70.9379394 50.0676375,78.1002135 C52.344499,94.4150998 53.9199903,110.843398 54.8355719,127.296803 C55.1007451,131.983058 55.6630504,137.140276 54.8485283,141.863758 C54.4537917,142.50787 53.974407,143.106962 53.386189,143.636796 C51.8366103,145.017652 49.1900612,145.55268 47.5852021,143.947597 C47.0980436,143.464513 46.8207779,142.88793 46.6782581,142.260268 C46.6575279,142.19274 46.6445716,142.129541 46.635934,142.057684 C46.635934,142.054221 46.6316152,142.049893 46.6316152,142.045564 C46.6618467,141.014467 46.8544643,139.953068 46.908881,139.123689 C47.0609021,136.878823 47.0643571,134.588938 46.8294154,132.353595 C46.8294154,132.331952 46.8000477,132.331952 46.8000477,132.353595 C46.8043665,133.246174 46.7870914,134.130095 46.7499498,135.009688 C46.6696205,137.038985 46.4847767,139.051832 46.2291048,141.097578 C46.2161485,141.186749 46.2075109,141.275055 46.1954183,141.367689 C46.182462,141.510536 46.1695057,141.653383 46.1574131,141.801425 C46.1029964,141.776319 46.0485798,141.746883 45.9932994,141.720911 C44.7166677,141.106235 43.2923336,140.913175 42.1875894,142.049893 C42.1124426,141.18242 42.0450696,140.314948 41.9776967,139.447476 C41.7090685,135.776735 41.5743225,132.147549 41.8394957,128.471613 C41.8394957,128.446507 41.7971716,128.442178 41.7928528,128.462956 C41.2849642,132.151878 40.9195953,135.953346 41.0958015,139.675166 C41.1839047,141.514865 41.3981162,143.345907 41.721161,145.157037 L41.721161,145.170023 C41.6166465,147.152569 39.8899978,147.736944 38.3697869,147.228755 C38.4570262,146.402838 38.28082,145.476495 38.184943,144.705986 C37.8653532,142.201397 37.5163957,139.704601 37.2434487,137.195684 C37.23913,137.140276 37.1510268,137.135948 37.1553456,137.195684 C37.2650426,139.165244 37.3315519,141.139999 37.4075624,143.114754 C37.4455677,144.023782 37.4749354,144.933676 37.5336708,145.843569 C37.5587198,146.183805 37.5880875,146.524907 37.5794499,146.84956 C37.5716761,147.051278 37.5500822,147.240875 37.4999843,147.421815 C37.3816497,147.884986 37.0793351,148.255523 36.4116515,148.432134 C34.9415384,148.815657 33.1734294,148.718695 31.6152131,148.583639 C31.6730848,148.495333 31.7318202,148.39837 31.7871006,148.297944 C31.984037,147.93087 32.1731996,147.514449 32.3545885,147.047815 C33.2105709,144.85749 33.2995378,142.184083 33.1354241,139.650059 C32.9255313,136.404397 32.5765738,133.481656 32.3329945,130.888762 C31.5392026,122.4677 30.8801566,116.568542 30.4551885,112.199148 C30.4551885,112.186162 30.4344583,112.186162 30.4344583,112.199148 C30.7238167,115.950403 31.077093,120.808941 31.5435213,127.343553 C31.6860411,129.300993 31.8622474,131.443702 32.047955,133.788994 C32.2492102,136.290119 32.7234124,139.456133 32.5221572,142.487092 C32.4003675,144.285236 31.9546693,147.07725 30.4802374,148.474556 C30.035403,148.899634 29.422136,149.165417 28.8166429,149.290949 C28.2076948,149.421676 27.5486488,149.329042 27.0113924,149.004389 C26.5743317,148.740338 26.2253742,148.348157 25.9524272,147.91875 C25.2000956,146.735282 24.78031,145.380398 24.6455641,143.985689 C24.3147454,140.546967 24.4823141,136.849387 24.5868286,133.073026 C24.3812547,135.094531 24.1540868,137.287452 24.0037932,139.650059 C23.8353607,142.184083 23.9277826,144.85749 24.78031,147.047815 C24.8433642,147.21144 24.9064185,147.367273 24.9737914,147.518778 C25.0161155,147.615741 25.0575758,147.708375 25.0998998,147.801009 C25.1836842,147.973292 25.2640135,148.137782 25.3477979,148.297944 C25.3849394,148.360278 25.4186259,148.423477 25.46095,148.487542 C25.3141114,148.508319 25.1620903,148.521306 25.0117967,148.533426 C23.3188345,148.684931 21.2855523,148.86587 19.6262766,148.432134 C18.958593,148.255523 18.6562783,147.884986 18.5379437,147.421815 C18.4878459,147.240875 18.4671157,147.051278 18.4584782,146.84956 C18.4498406,146.524907 18.4835271,146.183805 18.5042572,145.843569 C18.5638564,144.933676 18.5932241,144.023782 18.6303657,143.114754 C18.7063762,141.139999 18.7728854,139.165244 18.8825825,137.195684 C18.8869013,137.135948 18.7987981,137.140276 18.7944793,137.195684 C18.5215324,139.704601 18.1725749,142.201397 17.8573038,144.705986 C17.7571081,145.476495 17.5809018,146.402838 17.669005,147.228755 C16.1479302,147.736944 14.4212815,147.152569 14.316767,145.170023 L14.316767,145.157037 C14.6398119,143.345907 14.8583422,141.514865 14.9464453,139.675166 C15.1191966,135.953346 14.7538277,132.151878 14.2450753,128.462956 C14.2407565,128.442178 14.1992962,128.446507 14.1992962,128.471613 C14.4636056,132.147549 14.3288596,135.776735 14.0602314,139.447476 C13.9928584,140.314948 13.9263492,141.18242 13.8503387,142.049893 C12.6825402,140.844781 11.1536917,141.132207 9.82177959,141.83086 C10.0109422,139.220652 8.97357097,135.962003 9.85978486,133.885957 C9.89347135,133.806308 9.78463807,133.738781 9.74231401,133.8141 C8.97357097,135.241707 9.05735532,136.748962 9.2551555,138.310758 C9.40199406,139.48124 9.63261697,140.844781 9.40199406,142.057684 C9.3933565,142.129541 9.38126391,142.19274 9.35967,142.260268 C9.21715022,142.88793 8.93988447,143.464513 8.45272596,143.947597 C6.84786688,145.55268 4.20131778,145.017652 2.65173909,143.636796 C2.0712949,143.114754 1.59709273,142.529513 1.20667491,141.893194 C1.3785624,138.213795 1.32846454,134.525739 1.40447509,130.842012 C1.48394066,126.939252 1.61868664,123.035626 1.80353047,119.132867 C2.47553282,105.121717 3.7685759,91.1651086 5.83122579,77.2872828 C6.79776901,70.7829718 7.83945903,64.1721747 9.3182097,57.7561693 C10.2674778,53.6560206 11.6702179,49.4156219 14.1319232,45.9379409 L14.6527682,45.2306307 C14.657087,45.2219732 14.6614058,45.2176445 14.6657245,45.2141816 C14.7616015,44.8852001 14.8332933,44.5440982 14.8877099,44.1952046 C15.0984664,42.8472461 15.0518236,41.394533 15.0388672,40.1660467 C15.0094995,37.9263751 14.7201412,35.7196017 14.2951731,33.5266801 C13.9513981,31.7319993 13.522975,29.9598278 13.1023258,28.1876563 L13.1023258,28.1833276 C12.9727623,26.7479293 12.9554872,24.6424475 14.1146481,24.5619336 C14.3038107,24.7013179 14.5016109,24.8398364 14.7071848,24.9705633 C17.3537339,26.6501006 21.0834334,27.0344895 24.1540868,26.0198412 C24.259465,25.9817486 24.217141,25.8423643 24.1039889,25.8717995 C20.8735406,26.7011793 17.3450964,26.154031 14.7538277,24.3307808 C13.3968666,23.3836603 12.4052745,22.0911092 11.6624441,20.7015952 C11.535472,20.4704424 11.4180011,20.2340951 11.3091678,19.9986136 C11.2461136,19.863558 11.1873782,19.7293682 11.1286428,19.5943126 C11.0362209,19.3882663 10.9515727,19.185683 10.8721072,18.9839653 C10.8721072,18.9796366 10.8677884,18.9753079 10.8677884,18.9753079 C10.8634696,18.9458727 10.8220093,18.9545301 10.8220093,18.9839653 C10.8263281,19.2107894 10.8297831,19.4384793 10.8297831,19.6704978 C10.7252686,21.3500351 10.5611549,23.0261094 10.2381101,24.6848688 C10.0955903,25.4164198 9.93147663,26.1410449 9.76304416,26.8613413 C8.18409777,27.2491932 6.61724396,27.577309 4.94501189,27.5643229 C3.95341974,27.5513368 2.98774027,27.4379247 2.03847217,27.2526562 C1.90804498,22.0114611 0.920771601,16.8031641 0.824030902,11.5611033 C0.773933041,8.82882518 1.10561543,6.59694527 2.89963713,4.4421163 C3.63469369,3.55300044 4.52522636,2.92620407 5.46153812,2.365204 C7.50691288,1.42674092 9.68357859,0.84669455 11.850743,0.206046322 C12.0779109,0.719430646 12.3214901,1.22935201 12.5737069,1.73407892 C12.6108485,1.82238449 12.6531725,1.91155579 12.6998154,1.99986136 C12.7041341,2.00332432 12.7075892,2.00332432 12.7162267,2.01198173 C13.8425649,4.20230608 15.2116185,6.27315819 16.8285702,8.12584361 C16.8993982,8.20982047 16.9710899,8.28946863 17.0471005,8.37431123 C17.3157287,8.43664457 17.5852206,8.49551495 17.8573038,8.55092237 C21.3313314,9.28333912 24.9314674,9.67984843 28.5022357,9.63309843 C31.7655067,9.67551973 35.0512354,9.34653821 38.2514523,8.7318622 C38.5494482,8.67299183 38.8483078,8.61412145 39.1463037,8.55092237 C39.4192507,8.49551495 39.6878789,8.43664457 39.9573708,8.37431123 C40.0281988,8.28946863 40.1042094,8.20982047 40.1759011,8.12584361 C41.7928528,6.27315819 43.1619064,4.20230608 44.2873808,2.01198173 C44.2916996,2.00332432 44.3003372,2.00332432 44.3046559,1.99986136 C44.34698,1.91155579 44.3884403,1.82238449 44.4307644,1.73407892 C44.6829812,1.22935201 44.9222417,0.719430646 45.1537283,0.206046322 C46.2334236,0.525504695 47.3208927,0.833708438 48.3919504,1.17394459 C49.4630082,1.51504649 50.5176545,1.89856968 51.5386144,2.365204 C52.4749262,2.92620407 53.3654588,3.55300044 54.1048342,4.4421163 C55.8185265,6.50517674 56.1968518,8.63576497 56.180944,11.2070153 C56.0456944,13.5020943 55.6880993,15.7963075 55.3063191,18.0281874 C54.8692584,20.6089609 54.5669438,23.2191696 54.1678884,25.8094662 C54.084104,26.3436283 54.0124123,26.8821191 53.9407205,27.4214757 C53.3231348,27.5054525 52.6977753,27.5556655 52.0551406,27.5643229 C50.1643782,27.580772 48.4083618,27.1556932 46.6195227,26.7098367 C46.5858362,26.7011793 46.5521497,26.6881932 46.522782,26.675207 C46.3673058,25.232017 46.2576088,23.7836326 46.2031921,22.3352482 C46.1781432,21.707586 46.1617318,21.0807897 46.1617318,20.4531276 C46.1617318,20.4358127 46.1617318,20.4193637 46.1617318,20.4020488 C46.1617318,20.2592016 46.1617318,20.1206831 46.1660506,19.9769701 C46.1695057,19.6445256 46.1738244,19.3129469 46.182462,18.9839653 C46.182462,18.9545301 46.1366829,18.9458727 46.1323641,18.9753079 Z M18.0136437,4.52176445 C21.247547,5.6714683 24.6455641,6.25670912 27.9727531,6.29480171 C28.1411855,6.29826468 28.313073,6.29480171 28.4858243,6.29480171 C28.4892793,6.29480171 28.4935981,6.29480171 28.4979169,6.29480171 C28.6741231,6.29480171 28.8503294,6.29826468 29.0265357,6.29480171 C32.4090051,6.25670912 35.8614388,5.65415348 39.1428487,4.46202834 C40.0161062,4.50012093 40.3391511,5.47754235 40.1249395,6.2774869 C40.0161062,6.69390824 39.7932571,7.06011662 39.5289477,7.39688981 C39.1506225,7.88170469 38.6841941,8.1552788 38.2013544,8.46607976 C38.2013544,8.46607976 38.2013544,8.46607976 38.1970356,8.46607976 C37.7979802,8.53014459 37.3989249,8.58901496 36.9955507,8.6426909 C35.1514311,8.89548722 33.295219,9.05651502 31.4295055,9.12317707 C30.4517335,9.16126966 29.4765527,9.16126966 28.5022357,9.14395485 C27.5279186,9.16126966 26.5484191,9.16126966 25.574102,9.12317707 C23.7049335,9.05651502 21.8478576,8.89548722 20.0046018,8.6426909 C19.642688,8.59334367 19.2816379,8.54226496 18.9205878,8.48339458 C18.916269,8.48339458 18.916269,8.48339458 18.916269,8.48339458 C18.2399478,8.24704733 17.6810976,7.92326025 17.3450964,7.21594998 C17.0220516,6.53894063 17.013414,4.75724597 18.0136437,4.52176445 Z M45.8801473,21.1353313 C45.8300495,21.8088777 45.8041368,22.4780954 45.8041368,23.1429844 C45.8041368,24.2675817 45.8844661,25.3878504 46.0485798,26.5029246 C46.0520348,26.5245681 46.0520348,26.5453459 46.0606724,26.5704524 C46.072765,26.6881932 46.0900401,26.8067996 46.115089,26.9245404 C46.2662464,27.0041886 46.4174037,27.0751793 46.5728798,27.1435728 C48.0386741,27.7998044 49.7402739,28.1157998 51.4582851,28.1365776 C52.2650334,28.145235 53.0752367,28.0906933 53.8698925,27.9729526 C54.2352614,27.9175452 54.5963115,27.8508831 54.9530428,27.7703692 C54.9824105,27.7617118 55.016097,27.7573831 55.0454647,27.7495914 C55.0748324,27.5729803 55.1085189,27.3963692 55.1387504,27.2188923 C55.5498983,24.6969892 55.7174671,22.1413222 56.0033704,19.606433 C56.0370569,19.3086182 56.0707434,19.0090718 56.1087486,18.7138542 C56.2970475,17.2161225 56.4447498,15.7123307 56.6002259,14.2094046 C56.7470645,12.7610201 57.0156927,11.3342792 56.9992813,9.87723735 C56.986325,8.55525107 56.7721134,7.25404257 56.2512684,6.10087576 C56.1631653,5.90694981 56.0707434,5.72081553 55.9662289,5.53987569 C55.8945371,5.40568586 55.8142078,5.27582473 55.7304234,5.14423212 C55.3736921,4.60141261 54.9236751,4.10447737 54.3777811,3.6707412 C53.5710328,3.03961612 52.6761814,2.42061141 51.731232,1.89077801 C50.8450181,1.50292611 49.9251178,1.1782733 48.992261,0.900370483 C47.7406782,0.5298334 46.4640465,0.248467624 45.2288751,0.0337638931 C45.2167825,0.0294351889 45.2038262,0.0294351889 45.1908698,0.0251064846 C45.1364532,0.0129861127 45.0863553,0.00865740849 45.0353937,0 C45.0103448,0.0510787101 44.9852959,0.0960972342 44.9602469,0.147175944 C44.6492947,0.74453713 44.3262499,1.32977794 43.9893849,1.90722709 C43.9772923,1.92887061 43.960881,1.94878265 43.9479246,1.96956043 C40.9152765,3.47335229 37.802299,4.68971818 34.5468018,5.35114419 C33.3997335,5.58229699 32.2448914,5.75457942 31.0814118,5.86885722 C30.4007719,5.93551926 29.7114944,5.98226927 29.0265357,6.01170446 C28.8503294,6.01603316 28.6741231,6.02036186 28.4979169,6.02469057 C28.3260294,6.02036186 28.1489594,6.01603316 27.9770719,6.01170446 C27.2921132,5.98226927 26.6036994,5.93551926 25.9187408,5.86885722 C24.7595799,5.75457942 23.6038741,5.58229699 22.4576695,5.35114419 C19.2021723,4.68971818 16.084876,3.47335229 13.0522279,1.96956043 C13.0392716,1.94878265 13.027179,1.92887061 13.0150864,1.90722709 C12.6782215,1.32977794 12.3508578,0.74453713 12.0442244,0.147175944 C12.0191754,0.0960972342 11.9932628,0.0510787101 11.9690776,0 C11.9137972,0.00865740849 11.8636993,0.0129861127 11.8127377,0.0251064846 C11.8006451,0.0294351889 11.7876888,0.0294351889 11.7747324,0.0337638931 C10.536106,0.248467624 9.26379306,0.5298334 8.0078915,0.900370483 C7.07848979,1.1782733 6.1585894,1.50292611 5.27323926,1.89077801 C4.32742619,2.42061141 3.43257473,3.03961612 2.62237138,3.6707412 C2.07561368,4.10447737 1.63077922,4.60141261 1.2740479,5.14423212 C0.37055888,6.50950544 0.0224651177,8.17605658 0.000420453648,9.87723735 C-0.0120851317,11.3342792 0.257406813,12.7610201 0.404245373,14.2094046 C0.559721495,15.7123307 0.706560055,17.2161225 0.891403889,18.7138542 C1.24381643,21.543961 1.40879387,24.4026373 1.86572092,27.2188923 C1.8700397,27.2405358 1.87435848,27.2569849 1.87435848,27.2786284 C1.90372619,27.433596 1.92877513,27.5937581 1.95468781,27.7495914 C1.98751055,27.7573831 2.01774202,27.7617118 2.05142851,27.7703692 C3.18122166,28.0231655 4.36543146,28.1495637 5.54186745,28.1365776 C6.95756392,28.1201285 8.35598526,27.9019618 9.62484317,27.463897 C9.89779014,27.3660682 10.1664183,27.2613136 10.426409,27.1435728 C10.4523216,27.1305867 10.4773706,27.1219293 10.5024195,27.1089432 C10.6328467,27.0509386 10.7589551,26.9920682 10.8893823,26.9245404 C10.9101124,26.8067996 10.9308426,26.6881932 10.9437989,26.5704524 C10.947254,26.5453459 10.9515727,26.5245681 10.9515727,26.5029246 C11.1156864,25.3878504 11.1960158,24.2675817 11.1994708,23.1429844 C11.1994708,22.4780954 11.1701031,21.8088777 11.124324,21.1353313 C11.1156864,21.0426971 11.1070489,20.9457341 11.0992751,20.8530998 C11.0949563,20.7950952 11.0863187,20.7310304 11.0819999,20.6678313 C11.0819999,20.6167526 11.0863187,20.5674053 11.0906375,20.5163266 C11.0949563,20.5206553 11.0949563,20.5206553 11.0992751,20.524984 C11.1329616,20.6046322 11.1701031,20.6851461 11.2037896,20.7647943 C11.2504324,21.0089332 11.329898,21.4253545 11.3679032,21.6314009 C11.6278939,25.32898 12.7041341,29.0334851 13.4849698,32.6038004 C13.9807659,34.8815645 14.3755025,37.1801065 14.5560275,39.5046207 C14.6441306,40.5997829 14.6354931,41.6897506 14.5560275,42.7849128 C14.5016109,43.4619221 14.3668649,44.1320055 14.2580316,44.8055519 C12.5227453,46.5898438 11.2538874,48.7126404 10.2838892,50.9981962 C9.3182097,53.2846178 8.65052613,55.7398588 8.10808722,58.1899054 C6.63797411,64.876022 5.73448509,71.6712219 4.78953577,78.4447783 C3.81089996,85.4425616 3.01710798,92.4697801 2.37447334,99.505656 C1.70678977,106.733726 1.22308628,113.979977 0.963095656,121.242677 C0.722971423,127.843951 0.387834004,134.555174 0.79466319,141.165971 L0.79466319,141.169434 C0.811938315,141.48543 0.836987246,141.801425 0.857717396,142.116555 C0.954458094,142.310481 1.05551757,142.500078 1.16435086,142.68881 C1.48825945,143.241152 1.87867726,143.750208 2.34942441,144.19693 C3.69774789,145.463509 5.57555394,146.150041 7.38166823,145.442731 C9.04526273,144.790828 9.64557332,143.535504 9.79673066,142.045564 C9.83041715,142.029115 9.86410364,142.016129 9.89779014,141.99968 C11.1372803,141.435217 12.5020152,141.165971 13.5186563,142.260268 C13.6361271,142.395323 13.7328678,142.533842 13.795922,142.685347 C14.2994919,143.813407 13.4011854,145.376069 14.0265449,146.596764 C14.0308637,146.596764 14.0308637,146.605421 14.0308637,146.605421 C14.7616015,148.011384 16.5219367,148.57931 17.8287999,147.939528 C18.0050061,148.402699 18.3202772,148.794014 18.8661711,149.051139 C20.4831228,149.81732 22.8688175,149.577509 24.5833736,149.417347 C25.0912623,149.367134 25.6121073,149.312593 26.1372711,149.236408 C26.7548568,149.720357 27.5607414,149.956704 28.4979169,149.994797 C29.4679151,150.036352 30.2703447,149.82944 30.8965679,149.358477 C31.0814118,149.380121 31.2705744,149.400033 31.4554182,149.417347 C33.1691106,149.577509 35.5591241,149.81732 37.1726207,149.051139 C37.7185147,148.794014 38.0329219,148.402699 38.209992,147.939528 C39.5159914,148.57931 41.2763266,148.011384 42.0070644,146.605421 C42.0070644,146.605421 42.0070644,146.596764 42.0113831,146.596764 C42.6367427,145.376069 41.7384362,143.813407 42.2420061,142.685347 C42.309379,142.533842 42.401801,142.395323 42.5235906,142.260268 C43.4685399,141.233499 44.7373978,141.41011 45.909515,141.897522 C45.9889806,141.931286 46.0693099,141.96505 46.1444567,141.99968 C46.1781432,142.016129 46.2075109,142.029115 46.2411974,142.045564 C46.317208,142.807416 46.5141444,143.511263 46.908881,144.099967 C46.908881,144.099967 46.908881,144.099967 46.908881,144.104296 C47.2872062,144.66443 47.8460565,145.127601 48.6571236,145.442731 C50.4623741,146.150041 52.3401802,145.463509 53.6885037,144.19693 C54.0331424,143.873143 54.3311383,143.514726 54.5963115,143.126874 C55.0921075,142.395323 55.4574764,141.569407 55.7476985,140.719249 C55.8565318,140.394596 55.9575913,140.070809 56.0456944,139.738365 C56.1467539,139.363499 56.2426308,138.988633 56.330734,138.618096 C56.3350528,138.521133 56.3350528,138.425036 56.3350528,138.327207 L56.3350528,138.322878 C56.3566467,137.759281 56.3687393,137.191355 56.3773768,136.622563 C56.4827551,135.031332 56.5034852,133.45222 56.4827551,131.932845 C56.4188371,127.010243 56.192533,122.080714 55.8694882,117.158112 L55.8694882,117.1382 C55.5879036,111.252028 55.1715731,105.370184 54.629998,99.505656 C53.9830445,92.4697801 53.1892526,85.4425616 52.209753,78.4447783 C51.2648037,71.6712219 50.3664972,64.876022 48.8920653,58.1899054 C47.9756199,54.0256919 46.6860319,49.8623442 44.1958227,46.5110614 C43.9436058,46.1067604 43.6870702,45.7111168 43.4098045,45.3232649 C43.1912742,45.0029408 42.96497,44.6956028 42.7248458,44.3882648 C42.7049794,44.3588296 42.6833855,44.3337231 42.6626553,44.3042879 C42.5745522,43.799561 42.4864491,43.2939684 42.4484438,42.7849128 C42.3646594,41.6897506 42.3603407,40.5997829 42.444125,39.5046207 C42.4985417,38.8016391 42.5745522,38.0986575 42.6669741,37.3948102 C42.6920231,37.2138704 42.7127532,37.0329306 42.7421209,36.8519907 C42.9433761,35.4252498 43.2128681,34.0097635 43.5195015,32.6038004 C44.3003372,29.0291564 45.3800325,25.3116652 45.6365681,21.6028314 C45.6572982,21.3967851 45.6780284,21.1942017 45.703941,20.9881554 C45.7747691,20.8314563 45.842142,20.6764887 45.9051962,20.5163266 C45.9051962,20.5076692 45.9051962,20.4955489 45.909515,20.4868915 L45.909515,20.4825627 C45.9224714,20.4868915 45.9388827,20.478234 45.9475203,20.4574563 C45.9302452,20.5873174 45.9181526,20.7232387 45.9051962,20.8530998 C45.8922399,20.9457341 45.8879211,21.0426971 45.8801473,21.1353313 L45.8801473,21.1353313 Z" id="Fill-161" fill="#0A0B09"></path>
            <path d="M44.6674172,73.8741005 C44.7028131,74.0702284 45.0117225,74.0246373 44.9996557,73.8242083 C44.6279991,67.4732783 43.215382,60.9554676 41.0674962,55.02432 C41.0522116,54.9821697 40.9894644,54.9985137 41.0015312,55.0449651 C41.7174931,58.1658067 42.4994201,61.2574013 43.0673629,64.4160922 C43.6304791,67.5618799 44.1388925,70.7205709 44.6674172,73.8741005" id="Fill-162" fill="#0A0B09"></path>
            <path d="M37.4354975,99.6914358 C38.7577196,108.109232 39.8880218,116.543538 40.9710673,124.990877 C40.9710673,125.003041 41,125.003041 41,124.990877 C40.0992301,116.67474 39.2592189,108.362948 38.5793016,100.030303 C38.2513982,95.9986576 37.9601429,91.9930793 37.2242891,87.9996655 C36.4315345,83.7021405 35.7564393,79.3967955 35.1652488,75.0697283 C35.1556046,74.9767572 34.9916529,74.9767572 35.0003327,75.0697283 C35.4140696,79.19 35.741973,83.3007138 35.9763274,87.4296743 C36.215504,91.5577659 36.7922282,95.6015753 37.4354975,99.6914358" id="Fill-163" fill="#0A0B09"></path>
            <path d="M29.831343,102.97134 C29.8357763,103.009553 29.8960697,103.009553 29.8960697,102.97134 C29.9306496,95.9810022 30.0476896,88.9906639 29.9785296,82.0011942 C29.9093697,75.007382 29.5467231,68.0170438 29.2151099,61.0319164 C29.2106765,60.9893612 29.1548166,60.9893612 29.1548166,61.0319164 C29.0510766,68.0170438 28.9127566,75.0117244 29.0732433,82.0011942 C29.2275232,88.9958748 29.5733231,95.9810022 29.831343,102.97134" id="Fill-164" fill="#0A0B09"></path>
            <path d="M21.9122146,61.0422658 C20.6914566,70.6921408 19.3418359,80.329115 18.3856757,90.0108122 C17.4329518,99.6563869 16.8144114,109.326043 16,118.984519 C16,119.00516 16.0335043,119.00516 16.0377997,118.984519 C17.2035764,109.322603 18.5609288,99.6899293 19.588393,90.0108122 C20.6124209,80.3746981 21.2429884,70.7041817 21.9998412,61.0422658 C22.0041366,60.9837817 21.9199464,60.988082 21.9122146,61.0422658" id="Fill-165" fill="#0A0B09"></path>
            <path d="M17.9473584,52.014818 C15.8681321,56.7495796 14.3845622,61.585215 14.0005995,66.8198421 C13.9843154,67.0251923 14.3048556,67.0738278 14.3425662,66.8666764 C15.2553346,61.8743264 16.3052325,56.8153277 17.997925,52.0364338 C18.0107808,52.0058114 17.9602143,51.9841956 17.9473584,52.014818" id="Fill-166" fill="#0A0B09"></path>
            <path d="M12.9376259,88.0228713 C11.5570724,93.8179843 10.4104968,99.7255063 9.69440755,105.646863 C9.34219154,108.598895 9.1306954,111.584649 9.0299433,114.55311 C8.91670128,117.707477 9.14318533,120.797859 9.39881255,123.943579 C9.40297586,124.018807 9.51205458,124.018807 9.51205458,123.943579 C9.62529661,120.957825 9.90923433,117.992823 10.0216437,115.011392 C10.1357184,112.034285 10.3538758,109.070148 10.5770292,106.100822 C11.0299973,100.020364 11.791883,94.0151323 12.9984102,88.0393003 C13.0109001,88.0021189 12.9459525,87.9813664 12.9376259,88.0228713" id="Fill-167" fill="#0A0B09"></path>
        </g>
        <g id="typeText" transform="translate(10.000000, 6.000000)" fill="#725F5F" fill-opacity="0.87" font-family="Roboto-Black, Roboto Black" font-size="17" font-weight="700">
            <g id="vegetable">
                <text>
                    <tspan x="0" y="16">clothing</tspan>
                </text>
            </g>
        </g>
        <g id="firstLetter" transform="translate(10.000000, 152.000000)">
            <g id="Group" transform="translate(0.000000, -5.000000)">
                <rect id="Rectangle" stroke="#979797" x="0.5" y="6.5" width="34" height="38"></rect>
                <text id="C" fill="#131313" font-family="Roboto-Bold, Roboto" font-size="43" font-weight="bold">
                    <tspan x="3.52709961" y="40">D</tspan>
                </text>
            </g>
        </g>
        <g id="nameText" transform="translate(104.000000, 161.000000)" fill="#454545" fill-opacity="0.87" font-family="Roboto-Black, Roboto Black" font-size="26" font-weight="700">
            <text id="Carrot">
                <tspan x="18.5498047" y="28">Dress</tspan>
            </text>
        </g>
        <g id="colorText" transform="translate(133.000000, 5.000000)" fill="#454545" fill-opacity="0.87" font-family="Roboto-Black, Roboto Black" font-size="18" font-weight="700">
            <text id="orange">
                <tspan x="30.2548828" y="17">red</tspan>
            </text>
        </g>
    </g>
</svg>