<?xml version="1.0" encoding="UTF-8"?>
<svg width="200px" height="200px" viewBox="0 0 200 200" version="1.1" xmlns="http://www.w3.org/2000/svg" xmlns:xlink="http://www.w3.org/1999/xlink">
    <!-- Generator: Sketch 56.3 (81716) - https://sketch.com -->
    <title>drum</title>
    <desc>Created with Sketch.</desc>
    <g id="drum" stroke="none" stroke-width="1" fill="none" fill-rule="evenodd">
        <g id="typeText" transform="translate(10.000000, 6.000000)" fill="#725F5F" fill-opacity="0.87" font-family="Roboto-Black, Roboto Black" font-size="17" font-weight="700">
            <g id="vegetable">
                <text>
                    <tspan x="0" y="16">toy</tspan>
                </text>
            </g>
        </g>
        <g id="firstLetter" transform="translate(10.000000, 152.000000)">
            <g id="Group" transform="translate(0.000000, -5.000000)">
                <rect id="Rectangle" stroke="#979797" x="0.5" y="6.5" width="34" height="38"></rect>
                <text id="C" fill="#131313" font-family="Roboto-Bold, Roboto" font-size="43" font-weight="bold">
                    <tspan x="3.52709961" y="40">D</tspan>
                </text>
            </g>
        </g>
        <g id="nameText" transform="translate(104.000000, 161.000000)" fill="#454545" fill-opacity="0.87" font-family="Roboto-Black, Roboto Black" font-size="26" font-weight="700">
            <text id="Carrot">
                <tspan x="22.2822266" y="28">Drum</tspan>
            </text>
        </g>
        <g id="colorText" transform="translate(133.000000, 5.000000)" fill="#454545" fill-opacity="0.87" font-family="Roboto-Black, Roboto Black" font-size="18" font-weight="700">
            <text id="orange">
                <tspan x="5.01269531" y="17">purple</tspan>
            </text>
        </g>
        <g transform="translate(38.000000, 30.000000)">
            <path d="M7.99038726,127.932886 C12.9779199,130.775214 18.7496045,132.593719 24.3644587,133.747551 C34.2594752,135.780571 44.6641904,136.292483 54.7536112,135.855327 C70.0756122,135.193904 84.8389049,131.228621 96,121.411295 L96,42 L1,42 L1,122.272607 C3.12374467,124.430761 5.38634957,126.449155 7.99038726,127.932886" id="Fill-126" fill="#4F1A85"></path>
            <polygon id="Fill-127" fill="#FDD835" points="96.9429766 53 0 53 0.0896081428 42.2563729 97 42"></polygon>
            <path d="M97,53.4975739 C97,62.6116748 75.2837037,70 48.4991854,70 C21.7130381,70 0,62.6116748 0,53.4975739 C0,44.3883252 21.7130381,37 48.4991854,37 C75.2837037,37 97,44.3883252 97,53.4975739" id="Fill-128" fill="#FDD835"></path>
            <path d="M97,42.4991913 C97,51.6132922 75.2837037,59 48.4991854,59 C21.7130381,59 0,51.6132922 0,42.4991913 C0,33.3867078 21.7130381,26 48.4991854,26 C75.2837037,26 97,33.3867078 97,42.4991913" id="Fill-129" fill="#FDD835"></path>
            <path d="M97,42 C97,42 96.9967294,42.1059505 96.9901881,42.3145406 C96.9738351,42.5214752 96.9967294,42.8327049 96.9035168,43.2300193 C96.7857745,44.0312701 96.4161946,45.2000368 95.5363983,46.4466109 C93.8062411,48.9612802 90.2281846,51.6580521 85.485788,53.66449 C80.7548385,55.709004 74.9560321,57.3843465 68.6273855,58.4173641 C62.3003743,59.46197 55.4778643,59.9917226 48.6406366,60 C45.2506406,59.9685459 41.8083148,59.8178975 38.4706487,59.5463993 C35.1199002,59.2749011 31.8329287,58.8825531 28.6718761,58.3759772 C22.3448648,57.3644808 16.5378819,55.7454244 11.7725909,53.7936172 C7.00402927,51.8716086 3.35565446,49.2890647 1.54536719,46.8339925 C0.62795873,45.617217 0.228943287,44.4484503 0.104659788,43.6538214 C-0.0392474206,42.8591925 0.0212590195,42.4204911 0,42.4238021 C0.0212590195,42.4204911 -0.0228943287,42.860848 0.1422719,43.645544 C0.295990964,44.43024 0.72771259,45.5658972 1.66965068,46.7330084 C3.52572662,49.1053067 7.21825477,51.4693277 11.963922,53.2870413 C21.4781509,57.0184862 35.0970059,58.9951255 48.6471778,59.0249241 C62.1989851,59.1027315 75.8309225,57.0532512 85.2813743,53.1562586 C89.9992414,51.2491493 93.6263571,48.7808333 95.4055735,46.3489377 C96.3131701,45.152028 96.7187268,44.0097489 96.862634,43.2233974 C96.9672938,42.8327049 96.9591173,42.5198197 96.9771057,42.3128851 C96.9934588,42.1059505 97,42 97,42" id="Fill-130" fill="#FDD835"></path>
            <path d="M92,42 C92,49.7311741 72.2988468,56 47.9991881,56 C23.6979057,56 4,49.7311741 4,42 C4,34.2688259 23.6979057,28 47.9991881,28 C72.2988468,28 92,34.2688259 92,42" id="Fill-131" fill="#FFF9C4"></path>
            <path d="M95.9657599,116.088342 C95.8157556,116.363004 95.647816,116.645697 95.4472668,116.934815 C93.7564576,119.419623 90.1987471,122.08272 85.4850253,124.085665 C80.776195,126.101459 75.0026603,127.78798 68.6894362,128.804712 C62.3811036,129.839111 55.5705827,130.370767 48.7584313,130.378798 C41.9528019,130.316156 35.1439114,129.776469 28.8355788,128.766162 C22.5272462,127.757462 16.7406676,126.149645 11.9992277,124.217374 C7.25778769,122.296346 3.62996653,119.752108 1.85926371,117.321911 C1.51849309,116.862535 1.27065992,116.422433 1.06358878,116 L1,123.934681 L1.03424011,123.934681 C1.53153694,132.8363 22.5843131,140 48.5073372,140 C74.7368918,140 96,132.664436 96,123.613439 C96,123.322714 95.9788037,123.03199 95.9331503,122.746085 L95.9657599,116.088342 Z" id="Fill-132" fill="#FDD835"></path>
            <path d="M120.033734,16.1502155 C82.4979694,27.4907218 65.7854772,32.0052858 58.4373354,34.1691292 C57.2814846,32.3036339 55.0318202,31.3118724 52.8082768,31.9020115 C50.0786405,32.6282104 48.449348,35.436289 49.1709384,38.1787965 C49.8941614,40.9180254 52.6874675,42.5507436 55.4203689,41.8294625 C57.674931,41.2278485 59.1507631,39.2066221 59.2013724,36.9772077 L121.618947,22.1778306 C125.734625,21.1680371 124.064519,14.9633802 120.033734,16.1502155" id="Fill-139" fill="#7135E5"></path>
            <path d="M90.416275,5.83672898 C56.3892413,24.9721868 41.6235591,33.8611049 34.9978492,37.6503852 C35.5307655,39.7674927 34.6858981,42.0671377 32.724831,43.2601498 C30.3234579,44.7204487 27.1941991,43.9528139 25.7368029,41.5407129 C24.2810314,39.1302417 25.0495358,35.9928807 27.4509088,34.5325817 C29.4379719,33.3249014 31.8994605,33.6573802 33.5242055,35.1616837 L87.2106532,0.536626015 C90.7785931,-1.72390376 94.0459553,3.75873658 90.416275,5.83672898" id="Fill-140" fill="#7135E5"></path>
            <g id="hardware" transform="translate(5.000000, 54.000000)" fill="#A458D3">
                <polygon id="Fill-133" points="3 74 5 74 5 4 3 4"></polygon>
                <polygon id="Fill-134" points="41 81 43 81 43 11 41 11"></polygon>
                <polygon id="Fill-135" points="81 74 83 74 83 4 81 4"></polygon>
                <path d="M7,3.5 C7,5.43378995 5.43414745,7 3.4992011,7 C1.56745035,7 0,5.43378995 0,3.5 C0,1.56621005 1.56745035,0 3.4992011,0 C5.43414745,0 7,1.56621005 7,3.5" id="Fill-136"></path>
                <path d="M46,10.4992011 C46,12.4325496 44.4341475,14 42.4992011,14 C40.5674504,14 39,12.4325496 39,10.4992011 C39,8.56745035 40.5674504,7 42.4992011,7 C44.4341475,7 46,8.56745035 46,10.4992011" id="Fill-137"></path>
                <path d="M86,4.4992011 C86,6.43254965 84.4341475,8 82.4992011,8 C80.5674504,8 79,6.43254965 79,4.4992011 C79,2.56745035 80.5674504,1 82.4992011,1 C84.4341475,1 86,2.56745035 86,4.4992011" id="Fill-138"></path>
                <path d="M7,73.5 C7,75.4353881 5.43095184,77 3.4992011,77 C1.56745035,77 0,75.4353881 0,73.5 C0,71.56621 1.56745035,70 3.4992011,70 C5.43095184,70 7,71.56621 7,73.5" id="Fill-141"></path>
                <path d="M46,81.5007993 C46,83.4350308 44.4341475,85 42.4992011,85 C40.5674504,85 39,83.4350308 39,81.5007993 C39,79.5649692 40.5674504,78 42.4992011,78 C44.4341475,78 46,79.5649692 46,81.5007993" id="Fill-142"></path>
                <path d="M86,74.5007989 C86,76.4325496 84.4341475,78 82.5023967,78 C80.5674504,78 79,76.4325496 79,74.5007989 C79,72.5674504 80.5674504,71 82.5023967,71 C84.4341475,71 86,72.5674504 86,74.5007989" id="Fill-143"></path>
            </g>
        </g>
    </g>
</svg>