<?xml version="1.0" encoding="UTF-8"?>
<svg width="200px" height="200px" viewBox="0 0 200 200" version="1.1" xmlns="http://www.w3.org/2000/svg" xmlns:xlink="http://www.w3.org/1999/xlink">
    <!-- Generator: Sketch 56.3 (81716) - https://sketch.com -->
    <title>eggplant</title>
    <desc>Created with Sketch.</desc>
    <g id="eggplant" stroke="none" stroke-width="1" fill="none" fill-rule="evenodd">
        <g id="typeText" transform="translate(10.000000, 6.000000)" fill="#725F5F" fill-opacity="0.87" font-family="Roboto-Black, Roboto Black" font-size="17" font-weight="700">
            <g id="vegetable">
                <text>
                    <tspan x="0" y="16">vegetable</tspan>
                </text>
            </g>
        </g>
        <g id="firstLetter" transform="translate(10.000000, 152.000000)">
            <g id="Group" transform="translate(0.000000, -5.000000)">
                <rect id="Rectangle" stroke="#979797" x="0.5" y="6.5" width="34" height="38"></rect>
                <text id="C" fill="#131313" font-family="Roboto-Bold, Roboto" font-size="43" font-weight="bold">
                    <tspan x="5.40625" y="40">E</tspan>
                </text>
            </g>
        </g>
        <g id="nameText" transform="translate(104.000000, 161.000000)" fill="#454545" fill-opacity="0.87" font-family="Roboto-Black, Roboto Black" font-size="26" font-weight="700">
            <text id="Carrot">
                <tspan x="-17.6318359" y="28">Eggplant</tspan>
            </text>
        </g>
        <g id="colorText" transform="translate(133.000000, 5.000000)" fill="#454545" fill-opacity="0.87" font-family="Roboto-Black, Roboto Black" font-size="18" font-weight="700">
            <text id="orange">
                <tspan x="5.01269531" y="17">purple</tspan>
            </text>
        </g>
        <g transform="translate(78.000000, 24.000000)">
            <path d="M46.1695109,47.0683299 C43.3561015,38.6434763 35.6741583,21.1202394 33.0259057,18.8316714 C30.376217,16.5416704 22.8235269,11.9731327 17.0057008,15.0083155 C13.0922038,17.0504003 8.02979036,19.843399 7.77559258,23.5220177 C7.52283094,27.2020694 5.42031369,57.5882908 4.56437087,72.3901811 C3.91523302,83.5994352 2.6155212,94.7184076 0.940975346,105.817317 C0.112319295,111.301569 -0.57559448,116.927692 0.722681204,122.400479 C1.79548202,126.91886 4.23118507,131.140602 8.05994942,133.859082 C12.2965791,136.869903 17.7726026,137.19807 22.7919317,136.921493 C27.2482917,136.67501 31.8884784,136.356874 36.1696286,135.021279 C40.5541813,133.649858 44.5323048,131.008762 46.584557,126.785587 C48.8924431,122.043651 49.3792964,116.423261 50.1059862,111.265743 C53.1060945,89.9392127 53.0558294,67.6883705 46.1695109,47.0683299" id="Fill-164" fill="#3B2554"></path>
            <path d="M31.6478932,12.0034453 C27.6148633,11.9129039 22.4883508,13.6260047 18.6633281,14.8921472 C15.1084261,13.5369005 8.24707512,13.5886384 3.60735736,16.4442855 C2.40842656,17.1815512 3.15811944,18.7308153 4.35416125,18.8285425 C7.73572391,19.1073525 11.141843,18.9018379 14.4612924,18.2407419 C12.7134535,20.2628333 11.3108489,22.5709205 10.3531487,25.090271 C10.0324709,25.9338869 10.4585969,27.0893677 11.5491906,26.9945148 C16.5038082,26.5576166 20.0991561,22.5795435 20.3071634,17.9346258 C22.1171156,18.8357283 24.1971883,19.1648391 26.2267037,18.7954877 C29.0521358,18.2824197 31.5019992,16.4198537 32.843935,13.9062519 C33.3278408,12.9994007 32.6185938,12.0250028 31.6478932,12.0034453" id="Fill-165" fill="#2D783C"></path>
            <path d="M19.9905657,14.7845342 C19.5424994,9.03581423 16.6913037,3.44361885 11.6804282,0.0569967197 C10.8649474,-0.495108065 7.30281984,3.1319927 8.12128773,3.68552043 C12.3540213,6.54565089 15.6607511,10.6850138 16.7958525,15.4888946 C17.0154051,16.4195042 17.766663,17.1992811 18.6971475,16.9545336 C19.7023097,16.6927107 20.0652434,15.737911 19.9905657,14.7845342" id="Fill-166" fill="#359044"></path>
            <path d="M42.3271304,62.735289 C41.6932132,58.9224615 40.6667327,55.1660881 39.5530159,51.4386656 C38.5236275,47.9993041 37.5931069,44.4499294 35.9545183,41.1857205 C35.0981485,39.4805152 33.9815238,37.6812196 32.4694279,36.3682984 C30.9006283,35.0061607 28.2748155,34.2664663 26.7423644,36.0643144 C26.092454,36.8271694 25.9441522,37.711618 26.0168492,38.6163322 C26.0081255,38.7335832 26.0095795,38.8551767 26.0226649,38.9767703 C26.9197449,47.0106324 27.8197328,55.0444945 28.7168128,63.0783566 C29.1166459,66.6639199 29.4219729,70.2958046 30.4615389,73.798858 C31.3179086,76.6780205 32.8416361,81.4375409 36.7658159,81.9499711 C41.5376418,82.573862 42.4274521,77.2136113 42.7822131,74.172324 C43.2227564,70.3797621 42.9566857,66.5133755 42.3271304,62.735289" id="Fill-167" fill="#482B69"></path>
            <path d="M36.6974832,125.962002 C30.7957837,127.462925 24.2369112,126.025381 19.6195563,121.973465 C14.7864773,117.731412 12.2620757,111.583677 11.1863121,105.333672 C10.4891372,101.286077 10.419134,97.1491755 10.5062809,93.0540464 C10.5248531,92.1307338 10.001972,91.5545637 9.33908442,91.3255361 C9.05907157,91.1238766 8.70048368,91 8.26189212,91 C6.57324317,91 5.63177138,96.9201479 5.52462361,97.5380903 C4.00883974,106.31028 2.57163091,115.664402 6.7403937,123.946847 C8.40332718,127.251183 10.9891602,130.237185 14.2635962,131.987301 C18.0837716,134.031265 22.4868308,134.266054 26.7113105,133.793595 C30.8329282,133.332658 35.8117282,132.701752 38.5375676,129.149663 C39.6347608,127.719321 38.6832886,125.456413 36.6974832,125.962002" id="Fill-168" fill="#2A1D43"></path>
            <path d="M9.93872838,31.4131821 C9.74366164,31.4264873 9.56766157,31.5462347 9.52072822,31.804948 C8.98686134,34.6744488 8.85779463,37.5705602 9.15992808,40.4755417 C9.23179477,41.1688935 10.1777951,41.1807204 10.2379285,40.4755417 L10.9976621,31.5211025 C11.0533955,30.861753 10.0956618,30.8307074 9.93872838,31.4131821" id="Fill-169" fill="#2A1D43"></path>
            <path d="M17.9680266,43.2245604 C17.9662504,42.9505796 17.772647,42.7834815 17.534639,42.7202551 C17.5364152,42.7112228 17.5381914,42.7021905 17.5399676,42.6946635 C17.6785095,41.9976685 16.420975,41.6980962 16.2806569,42.4011127 C15.7993125,44.826294 15.9325259,47.2364213 16.7158207,49.6074086 C16.9147527,50.2050479 18.001774,50.0921438 18,49.4598805 L17.9680266,43.2245604" id="Fill-170" fill="#2A1D43"></path>
            <path d="M12.3996928,68.3914582 C12.1538316,67.7034092 10.9331221,67.9976306 11.1807026,68.6918093 C11.2116502,68.7776239 11.2391591,68.8649709 11.2683874,68.9523178 C11.2340012,69.0044196 11.2099309,69.0657157 11.1961764,69.1408034 C10.8867007,70.9827522 10.9399993,72.7771965 11.3801425,74.5976916 C11.5142486,75.146292 12.4495528,75.1217735 12.5991327,74.5976916 C13.1905751,72.5274147 13.1303993,70.4264898 12.3996928,68.3914582" id="Fill-171" fill="#2A1D43"></path>
            <path d="M30.7461765,89.3585482 C30.6525073,88.9735327 30.1204664,88.9248992 29.7532833,89.0883619 C29.4423017,89.1140296 29.1538006,89.2720886 29.1444337,89.5625389 C29.0975991,91.2133773 29.0470178,92.8655667 29.0001832,94.5164052 C28.9833227,95.0837965 30.1354535,95.1824145 30.3546393,94.6487965 C31.0646516,92.9060947 31.178928,91.1458308 30.7461765,89.3585482" id="Fill-172" fill="#2A1D43"></path>
            <path d="M40.9852753,104.676816 C41.1380833,103.996861 40.0546747,103.706923 39.9018668,104.389822 C39.8820017,104.475184 39.8636648,104.56349 39.8437997,104.650324 C39.8407436,104.662099 39.8376874,104.673873 39.8346313,104.685647 C38.8948622,108.890479 37.953565,113.096783 37.0122679,117.301615 C36.8854372,117.863829 37.7778358,118.314189 38.0391375,117.718124 C38.0574744,117.675443 38.0758114,117.632762 38.0941484,117.588609 L38.0972045,117.582722 C39.8575525,113.533897 40.826355,109.255477 40.9440172,104.865202 L40.9852753,104.676816" id="Fill-173" fill="#2A1D43"></path>
        </g>
    </g>
</svg>