<?xml version="1.0" encoding="UTF-8"?>
<svg width="200px" height="200px" viewBox="0 0 200 200" version="1.1" xmlns="http://www.w3.org/2000/svg" xmlns:xlink="http://www.w3.org/1999/xlink">
    <!-- Generator: Sketch 56.3 (81716) - https://sketch.com -->
    <title>giraffe</title>
    <desc>Created with Sketch.</desc>
    <g id="giraffe" stroke="none" stroke-width="1" fill="none" fill-rule="evenodd">
        <g transform="translate(100.500000, 100.500000) scale(-1, 1) translate(-100.500000, -100.500000) translate(45.000000, 16.000000)">
            <path d="M99,95.1849423 C101.5501,109.806299 106.817518,130.789786 106.871267,131 L108,130.736945 C107.946251,130.527306 102.690776,109.581726 100.146649,95 L99,95.1849423" id="Fill-96" fill="#F8C648"></path>
            <path d="M105.613166,124 C104.168796,132.986953 105.135456,138.677488 110.024959,144 C112.216805,137.105644 110.699373,131.539099 105.613166,124" id="Fill-97" fill="#E8A040"></path>
            <path d="M87.2758621,138.231861 L87.2758621,108.7402 L82.738657,108.7402 L82.738657,105.047513 C82.4603751,105.019121 82.1760436,105 81.891712,105 C74.7713249,105 69,114.051225 69,125.217937 C69,136.384069 74.7713249,145.435874 81.891712,145.435874 L81.891712,163.661742 L80.584997,163.661742 C79.0483969,163.661742 77.8021779,164.857099 77.8021779,166.33116 L77.8021779,169 L85.9509982,169 C87.2093164,169 89,165.715809 89,163.661742 L89,139.887283 C89,138.973527 88.2256503,138.231861 87.2758621,138.231861" id="Fill-98" fill="#FFD700"></path>
            <path d="M49.6518405,125.505506 C47.0636503,123.737059 44.797546,121.535775 42.8937883,119 L42.8937883,163.574524 L41.6514571,163.574524 C40.184816,163.574524 39,164.789412 39,166.287557 L39,169 L46.747316,169 C47.943635,169 49.6518405,165.662152 49.6518405,163.574524 L49.6518405,143.854838 C49.6518405,140.607679 50.2442485,131.867911 54,128.023026 C52.1595092,125.901831 49.6518405,125.505506 49.6518405,125.505506" id="Fill-99" fill="#FFD700"></path>
            <path d="M101.340426,138.175037 L101.340426,97.7219535 C101.340426,91.7672169 96.5183752,86.9415467 90.5647969,86.9415467 C83.410058,85.678966 74.0618956,80.5833647 60.4255319,68.9182807 C39.2340426,50.7963302 30.4545455,24.9578352 27.6460348,18 L19,21.5851485 L22.2901354,28.7612505 L20.8568665,31.5975581 C20.8568665,37.7554686 31.0812379,76.2487948 37.3539652,88.986637 C37.3539652,88.986637 37.3597679,88.985476 37.3597679,88.9848955 C36.7388781,91.8920237 36.4313346,94.964013 36.4313346,98.1439748 C36.4313346,112.843896 44.3578337,125.283363 57.0251451,129.449009 C57.0193424,129.449009 57.0193424,129.449009 57.0193424,129.447848 L57.0193424,163.651883 L55.7659574,163.651883 C54.2920696,163.651883 53.0909091,164.849448 53.0909091,166.326232 L53.0909091,169 L60.9071567,169 C62.1141199,169 63.8375242,165.709744 63.8375242,163.651883 L63.8375242,144.213365 C63.8375242,141.382863 64.3133462,134.999719 67.040619,130.939144 L84.3326886,130.939144 C85.8529981,139.297718 90.582205,145.392354 96.1818182,145.392354 L96.1818182,163.651883 L94.9284333,163.651883 C93.4487427,163.651883 92.2533849,164.849448 92.2533849,166.326232 L92.2533849,169 L100.069632,169 C101.276596,169 103,165.709744 103,163.651883 L103,139.833517 C103,138.918073 102.257253,138.175037 101.340426,138.175037" id="Fill-100" fill="#FFEE00"></path>
            <path d="M43.4293112,136.718238 L42,136.39662 L42,142 L43.503884,141.520153 C44.9083376,141.07241 46.058001,139.9413 46.058001,139.006256 C46.058001,138.071213 44.8772657,137.041576 43.4293112,136.718238 Z M45.0450544,122.14624 C44.9953392,122.105536 44.9518384,122.064259 44.9083376,122.022408 C44.6224754,121.762706 44.3366132,121.497271 44.0631797,121.227249 C43.9948213,121.158454 43.9202486,121.090232 43.8518902,121.020863 C43.6033143,120.76976 43.3547385,120.512351 43.112377,120.251502 C43.0378042,120.17296 42.9632315,120.094992 42.8886587,120.014158 C42.5841533,119.68222 42.2858622,119.345123 42,119 L42,133.777238 C43.0688762,133.777811 44.0445365,132.957427 44.286898,131.777587 L46.0766442,123.032553 C46.0766442,123.031407 46.0766442,123.03026 46.0704298,123.029113 C45.7224236,122.742466 45.3806318,122.447793 45.0450544,122.14624 Z M49.3019161,125.333184 C48.9911963,125.143423 48.6929052,124.947357 48.3946142,124.747277 L46.8969446,132.363494 C46.6359399,133.714175 47.5991714,135.083776 49.0471258,135.407687 L49.3764889,135.481642 C49.6561367,135.543558 49.9171414,135.550437 50.1719316,135.529799 C50.8430865,132.596824 52.0113931,129.617986 54,127.784018 C52.0113931,125.719011 49.3019161,125.333184 49.3019161,125.333184 L49.3019161,125.333184 Z" id="Fill-101" fill="#D9823D"></path>
            <path d="M83.1690952,131 L79.8854626,132.891987 C78.6814639,133.583991 77.6963741,134.915673 77.6963741,135.851083 C77.6963741,136.785906 78.6814639,137.792458 79.873941,138.088191 C81.0779397,138.382748 82.6391054,137.639593 83.3534395,136.435495 L84.586242,134.355955 C84.2636394,133.286494 83.9928838,132.165295 83.7854964,131 L83.1690952,131 Z M79.4649271,140.619268 C78.4971196,140.379976 77.6963741,141.335377 77.6963741,142.742903 L77.6963741,144.134554 C77.6963741,144.268016 77.7078956,144.386192 77.7194171,144.4979 C78.0420197,144.686629 78.3703829,144.856543 78.7045069,145 C78.8139614,144.879473 78.9291766,144.728372 79.0501525,144.53788 L79.8797018,143.210314 C80.6228397,142.025029 80.4384954,140.858559 79.4649271,140.619268 Z M85.732633,137.435579 C84.2866825,139.160591 84.6784141,141.303628 87,139.839661 C86.5391393,139.094742 86.1128431,138.291618 85.732633,137.435579 Z M70,131 C70.334124,132.889048 70.8237885,134.666387 71.457472,136.283806 L80.6113182,131 L70,131 Z M73.0071162,136.853519 L71.9471366,137.464388 C72.8400542,139.43751 73.9403592,141.130774 75.1904439,142.45834 L75.1904439,138.156392 C75.1904439,136.748278 74.2111149,136.162103 73.0071162,136.853519 L73.0071162,136.853519 Z" id="Fill-102" fill="#D9823D"></path>
            <g id="spots" transform="translate(19.000000, 17.000000)" fill="#E8A040">
                <path d="M40.8876558,117.320701 L38,116 L38,122 L41.1573457,119.921728 C42.3808172,119.11847 42.2558389,117.948114 40.8876558,117.320701" id="Fill-103"></path>
                <path d="M45,120 L42.9278049,121.174563 C41.5826958,121.941221 41.7135713,123.058019 43.233181,123.655941 L44.1056842,124 C44.2511014,122.791994 44.5273941,121.403091 45,120" id="Fill-104"></path>
                <path d="M71,105.135138 C71,104.351758 69.9446963,103.585533 68.6500453,103.431716 L65,103 L65,107.274278 C65,107.855809 65.0163191,108.430477 65.0435177,109 L68.7969175,107.463547 C70.0099728,106.966073 71,105.917945 71,105.135138" id="Fill-105"></path>
                <path d="M69.9112678,113.286478 L69.7788292,112.709948 C69.458769,111.358506 68.189565,110.661551 66.9589889,111.162451 L65,111.957725 C65.3310967,114.520403 65.9381073,116.902153 66.7658491,119 L68.6420638,117.361166 C69.657427,116.472228 70.231328,114.638502 69.9112678,113.286478" id="Fill-106"></path>
                <path d="M77,112.11286 C77,112.93513 77.9562842,114.066076 79.1256831,114.625553 L82,116 L82,111.579454 L79.3278689,111.06534 C78.0491803,110.819232 77,111.290069 77,112.11286" id="Fill-108"></path>
                <path d="M73.0665589,113.965971 C73.583423,113.754854 74,112.82012 74,111.888896 C74,110.95667 73.4368496,110.119722 72.7425545,110.028455 C72.040545,109.937188 71.4156795,110.080106 71.1533902,110.249602 C70.9528161,110.378479 70.891101,111.064987 71.3308212,112.229894 C71.7782558,113.394801 72.5574091,114.175584 73.0665589,113.965971" id="Fill-109"></path>
                <path d="M70.1326503,97.454026 L70.0022398,99.6821964 C69.9960298,99.8524157 70.0022398,100.0215 70.0270799,100.186613 C70.05192,101.748091 71.0331033,104.773455 72.9271596,106.504585 C73.2687108,107.044748 74.2747341,107.577534 75.4484281,107.793713 L82,109 L82,95.0471253 C82,95.0471253 75.1689771,95 72.6104486,95 C71.3249743,94.9932226 70.2133805,96.0973783 70.1326503,97.454026" id="Fill-110"></path>
                <path d="M47.0002169,84.9733961 C46.9814592,85.0537955 48.1819527,84.9458306 49.6575594,84.7321979 L51.8209488,84.4197887 C53.2965555,84.2055816 55.2911255,83.1644091 56.2477688,82.1071568 L58.298612,79.829556 C59.2552553,78.7711551 59.230245,77.0603702 58.2423389,76.0278119 L55.9914134,73.6812974 C55.0035073,72.6493134 53.6466995,72.8078151 52.9714218,74.0339063 L48.2569836,82.5941475 C47.5817059,83.8213873 47.012722,84.8906996 47.0002169,84.9733961" id="Fill-112"></path>
                <path d="M50.513067,101.663832 L62.5002005,102.420312 C63.4406013,102.479243 64.571463,102.588686 65,103 L65,93.9384702 C64.3988578,94.0629467 62.8632667,93.8675126 62.0478559,93.0809653 L56.1911829,87.4446445 C55.1615036,86.4512377 53.1676159,85.8210377 51.7570148,86.045336 L50.0964337,86.3105251 C48.6858326,86.534222 47.3228467,87.8745996 47.0669149,89.2901442 L46.0908027,94.6011423 C45.8348709,96.0166869 46.1384179,98.1478211 46.7693197,99.3378647 C47.4061734,100.526706 49.090562,101.573631 50.513067,101.663832" id="Fill-113"></path>
                <path d="M30.4891745,59.6940388 L32.9143573,63.8893694 C33.6212234,65.1148979 35.0636899,65.3650179 36.1153687,64.4451254 L46,55.8121045 C45.9597718,55.7762878 45.9137968,55.7392772 45.8678218,55.7034604 C45.6149591,55.4951266 45.3620965,55.2814202 45.1034869,55.0683108 C44.9195868,54.913702 44.7356867,54.7602871 44.5517866,54.6032905 C44.4081146,54.4821106 44.2644426,54.358543 44.1207707,54.2361692 C43.01737,53.3019501 41.8852349,52.3247508 40.7243654,51.2902449 C40.12669,50.7583667 39.5405084,50.2193253 38.9658205,49.6761052 C38.8738705,49.5937267 38.7876673,49.5107513 38.7014641,49.4283729 C38.1899919,48.9442504 37.6900135,48.4571431 37.1957819,47.9658573 C36.9888943,47.7605081 36.7820066,47.5539651 36.5808659,47.3474221 C36.4659283,47.2316147 36.3452439,47.1164043 36.2360532,47 L30.6328465,55.3351453 C29.851271,56.5075456 29.7823084,58.4685104 30.4891745,59.6940388" id="Fill-115"></path>
                <path d="M8.25825242,17.2378789 L11.7105405,23.7621211 C12.3578445,24.9926059 14.0315044,26 15.425249,26 L19,26 C16.7023624,22.0959121 14.8012713,18.364371 13.2325796,15 L9.61700768,15 C8.22326301,15 7.61094841,16.0073941 8.25825242,17.2378789" id="Fill-116"></path>
                <path d="M16.2479606,30.3055749 L19.8393062,37.6944251 C20.4525975,38.9629999 22.0438399,40 23.36435,40 L29,40 C28.8066199,39.7403012 28.6132397,39.4806024 28.4198596,39.2209036 C28.3590829,39.1341378 28.2927812,39.0473721 28.2264794,38.9612047 C25.5302077,35.3038795 23.1654447,31.604069 21.1045649,28 L17.5353199,28 C16.2092846,28 15.6291442,29.0375985 16.2479606,30.3055749" id="Fill-117"></path>
                <path d="M57.7318285,71.3781916 L60.5254702,74.68652 C61.4489401,75.7713861 63.278456,76.2887652 64.5968691,75.835983 L70.3642001,73.861249 C71.6826132,73.4084668 73.2391537,71.9631861 73.8199524,70.6501178 L74,70.2468398 C73.088146,69.9872447 72.1298282,69.836921 71.1424704,69.836921 C67.756414,69.2157039 63.8824867,67.7028077 59.294177,65 L57.5924368,67.3158299 C56.7502787,68.4646892 56.8141665,70.2933255 57.7318285,71.3781916" id="Fill-120"></path>
                <path d="M47.3294789,80.6435804 L51.7298475,71.6177168 C52.3618153,70.320594 51.8468785,68.7480298 50.5829429,68.1219162 L42.9642197,64.3446072 C41.7002841,63.7178869 39.7926775,63.9702738 38.7218431,64.9045905 L36.966377,66.4352925 C35.889691,67.3702159 34.3975448,69.0859612 33.6426943,70.2502169 C32.8878439,71.4120458 32.7825159,73.4275005 33.4086322,74.7264434 L36.2524874,80.6375134 C36.8786036,81.9370631 38.540445,83 39.9389663,83 L43.6312969,83 C45.0356698,83 46.6975111,81.9394898 47.3294789,80.6435804" id="Fill-121"></path>
                <path d="M33.743845,81.5335665 L31.8903105,77.9900235 C31.2335946,76.7377456 30.0245009,76.6635322 29.2020717,77.824066 L27.1521362,80.7300751 C26.3297069,81.8906089 25.3906646,83.3994196 25.0653754,84.0831177 C24.7400863,84.7656471 25.660716,85.1530761 27.115311,84.9427074 L32.3015251,84.1918082 C33.7499825,83.9808552 34.4005608,82.7858444 33.743845,81.5335665" id="Fill-122"></path>
                <path d="M34.4134285,92.3069316 C35.0839233,93.5701159 36.6887143,94.8584902 37.9747454,95.1693712 L41.1513521,95.9398153 C42.4373832,96.2513107 43.6849433,95.3223541 43.9267611,93.8773105 L44.9599827,87.6302005 C45.2018005,86.1839281 44.322463,85 43.0034567,85 L39.590528,85 C38.2770177,85 36.1336325,85.1812448 34.8311138,85.4030394 L33.4351655,85.6401936 C32.1381427,85.8619881 31.6215319,87.0760213 32.2975226,88.3392057 L34.4134285,92.3069316" id="Fill-123"></path>
                <path d="M19.8133878,44.5056152 L18.0466864,53.4937982 C17.7757922,54.8718572 18.712144,56 20.1196161,56 L23.876801,56 C25.2842731,56 27.0980866,55.057241 27.9048802,53.9050453 L34,45.1972846 C33.8174409,45.0072075 33.6407707,44.8141971 33.4582116,44.6235334 C33.2344294,44.3876969 33.0106472,44.1518605 32.792754,43.9148508 C32.1979646,43.2795005 31.6149531,42.6423902 31.0496087,42 L22.8697812,42 C21.4623091,42 20.084282,43.1269695 19.8133878,44.5056152" id="Fill-124"></path>
                <path d="M68.9972492,83.8017795 L68.8084488,79.8564032 C68.7435487,78.466482 67.5930466,77.6851964 66.2478441,78.1206004 L64.8082415,78.5903019 C63.4630391,79.0257058 61.6281357,80.2598349 60.7254341,81.3311961 L59.4805318,82.8129648 C58.5778301,83.8837447 58.9849309,84.9196458 60.3832334,85.1143859 L66.5723447,85.9753115 C67.9706473,86.1700516 69.0621493,85.1911193 68.9972492,83.8017795" id="Fill-129"></path>
                <path d="M74.3844347,83.0479984 C73.477543,83.0545167 72.6927328,83.3472478 72.268354,83.778641 C70.3789962,85.6689492 67.3909042,87.3068212 67.0827935,89.4169739 C66.7804963,90.0113247 67.3327701,90.8213721 68.3036093,91.2183961 C68.483825,91.29069 68.6931077,91.3600211 68.9256441,91.4269818 C69.6232531,91.6272715 70.5359582,91.7937846 71.4021561,91.8832631 L71.8614154,91.9680011 C74.4774493,91.9680011 82,92 82,92 L82,83 L74.3844347,83.0479984" id="Fill-130"></path>
                <path d="M17.7929067,71.362501 C17.7095157,71.7243493 17.6320812,72.0878703 17.5606032,72.4536214 L22.8142369,77.3711905 C23.8208855,78.3151184 25.2980977,78.1807495 26.0962688,77.0729026 L31.367772,69.73725 C32.1659431,68.6299606 32.2135951,66.7867085 31.4809455,65.642621 L28.5563036,61.0807673 C27.823654,59.9361223 26.0545733,59 24.6309696,59 L20.3839846,59 C18.9603809,59 17.5665597,60.0716063 17.2925607,61.381843 L16,67.5789836 C16.6194761,69.0074203 17.2210827,70.2842041 17.7869502,71.3641736 C17.7869502,71.3641736 17.7929067,71.3630585 17.7929067,71.362501" id="Fill-131"></path>
                <path d="M14.6778144,32.0202474 L13.8416747,30.4127746 C13.154182,29.0858425 11.3766108,28 9.89014009,28 L4,28 C4.89188241,31.6964985 5.94479914,35.7862548 7.09681393,40 L13.6496722,35.8739237 C14.9069786,35.081146 15.3715007,33.3465533 14.6778144,32.0202474" id="Fill-132"></path>
                <path d="M9.72687504,23.7621211 L6.08193995,17.2378789 C5.39119083,16.0073941 3.62114621,15 2.14713693,15 L1,15 C1.12334806,16.9398437 1.93744523,20.9339812 3.19559542,26 L8.28987017,26 C9.76387946,26 10.4114568,24.9926059 9.72687504,23.7621211" id="Fill-133"></path>
                <path d="M17.1948928,39.3134529 L17.1711146,39.2737714 C16.5112702,38.036643 14.9775779,37.6299078 13.7708355,38.3686836 L7,42.510146 C9.16975852,50.0519608 11.6248551,57.8032705 13.9253936,64 L17.9022935,44.0536387 C18.1757425,42.6828771 17.8547371,40.5494142 17.1948928,39.3134529" id="Fill-134"></path>
                <path d="M22.0819372,80.2324823 L18.2317487,76 C18.0790052,77.5944957 18,79.2254934 18,80.8883578 C18,84.7900054 18.5109005,88.5305812 19.4747644,92 L22.7350471,84.3021546 C23.2670157,83.0448669 22.9720628,81.2139779 22.0819372,80.2324823" id="Fill-135"></path>
                <path d="M2.97774869,11.715121 C3.38045375,11.4060484 3.4938918,10.8756048 3.19328098,10.2659274 C2.72251309,9.31270161 2.83027923,8.25665323 3.43150087,7.91975806 C4.03272251,7.58225806 5.04232112,8.3546371 5.67190227,9.63568548 L5.68891798,9.66955645 C6.31849913,10.9512097 7.94633508,12 9.30759162,12 L13,12 C10.9467714,7.04516129 9.26788831,2.21794355 8.43411867,0 L0,3.73004032 L3.21596859,11.2070565 L2.97774869,11.715121" id="Fill-136"></path>
                <path d="M31.3109539,94.5842727 L28.7115772,90.2087914 C28.0236727,89.0442985 27.5162022,88.0553005 27.595142,88.0105776 C27.6684433,87.9647226 26.7831892,88.0722839 25.6272841,88.249477 C24.4657405,88.426104 23.0617388,89.5804068 22.5035212,90.8145314 L20,96.3437495 C20.0789399,96.5169798 20.1466026,96.6924746 20.2255425,96.8634405 C20.2706509,96.9693035 20.321398,97.0740342 20.372145,97.1793311 C20.6146032,97.7029849 20.8683384,98.2164487 21.1333508,98.7214208 C21.2348449,98.9116345 21.336339,99.1018482 21.4378331,99.2886652 C21.5731586,99.5360563 21.7141226,99.7811828 21.8550867,100.022913 C22.0637134,100.371638 22.2723402,100.715834 22.4922441,101.054369 C22.6162924,101.251376 22.7516179,101.444987 22.8813048,101.638031 C23.084293,101.935806 23.2872812,102.229618 23.5015465,102.517769 C23.6030407,102.66043 23.7101733,102.803656 23.817306,102.944052 C24.1217883,103.351086 24.4431863,103.750762 24.7702228,104.140247 C24.832247,104.216106 24.8999097,104.289134 24.9675725,104.364427 C25.3002476,104.748251 25.6385613,105.12415 25.9881521,105.48816 C26.0219834,105.523825 26.0558148,105.560622 26.0896462,105.596854 C26.4956226,106.015211 26.9128761,106.422245 27.3470453,106.814561 C27.3583225,106.824185 27.3695996,106.833809 27.3808767,106.843433 C27.8206845,107.242542 28.2717694,107.629763 28.73977,108 L31.7733159,99.0339147 C32.2074852,97.7511044 31.9988584,95.7487655 31.3109539,94.5842727" id="Fill-137"></path>
            </g>
            <path d="M86.8641069,116.720186 L86.9938937,114.26745 C87.0705859,112.865468 86.4157525,111.433582 85.5426414,111.085872 C84.7580212,110.772757 83.678431,111.34211 83,112.36765 L83,118.851597 L84.1739806,118.984114 C85.5780377,119.140671 86.7874147,118.122167 86.8641069,116.720186" id="Fill-107" fill="#E8A040"></path>
            <path d="M64.0409643,80.2276851 L70.7263177,83.7047053 C71.9658339,84.3486904 73.6586917,83.9037666 74.4907743,82.7162631 L76,80.5702702 C74.0144787,79.242987 71.9027104,77.6929299 69.6474796,75.8970103 C69.6360026,75.8913941 69.6302641,75.885778 69.6245256,75.8789138 C69.2916925,75.6162029 68.9588595,75.3460037 68.6202879,75.0720604 C68.5629029,75.0258832 68.5055179,74.981578 68.4481329,74.9347768 C68.1669464,74.7051387 67.8800213,74.4686364 67.5930963,74.2302621 C67.5012803,74.1528841 67.4094643,74.0786261 67.3176483,74 L63.6966542,77.3072877 C62.6465086,78.2688972 62.8014481,79.583076 64.0409643,80.2276851" id="Fill-111" fill="#E8A040"></path>
            <path d="M81.6392793,104.50615 L79.1874642,104.044516 C77.8961749,103.800634 77.6128541,104.583815 78.5608892,105.782176 L79.5961001,107.095946 C80.5386868,108.295033 81.9117032,108.302291 82.6472478,107.111914 C83.3827923,105.920811 82.9305686,104.74858 81.6392793,104.50615" id="Fill-114" fill="#E8A040"></path>
            <path d="M91.9659567,93.0434727 C91.3820088,93.2407507 90.9440479,94.4392431 91.0058116,95.7084362 C91.0619605,96.9770592 92.2130116,98.0090627 93.5549687,97.99994 L97.8391248,97.9731421 C99.1866968,97.9640194 99.3888326,97.3071863 98.2995452,96.5123726 L95.0204533,94.1302122 C93.9311659,93.3365389 92.5555195,92.8467649 91.9659567,93.0434727" id="Fill-118" fill="#E8A040"></path>
            <path d="M96.1757295,92.411775 L100,95 C99.3857666,92.7592267 97.9917239,90.8369069 96.1223179,89.5388401 C96.1062944,89.529877 96.0956121,89.5193322 96.0795886,89.5103691 C95.8766245,89.3706503 95.6629782,89.2462214 95.4493318,89.1223199 C95.3798967,89.0827768 95.3158028,89.0379613 95.2463677,89 C95.2463677,89.0010545 95.2463677,89.0015817 95.2463677,89.0036907 L95.2303442,89.0289982 C94.6962282,90.1757469 95.123521,91.6973638 96.1757295,92.411775" id="Fill-119" fill="#E8A040"></path>
            <path d="M71.7945024,122.105839 L70.3919279,122.005531 C69.1824615,121.919219 68.659037,122.853482 69.2332794,124.082837 L72.4805443,131 L74,131 L74,124.803071 C74,123.406342 73.0090506,122.192733 71.7945024,122.105839" id="Fill-125" fill="#E8A040"></path>
            <path d="M61.9166382,120.911949 C61.9166382,120.911949 58.4689795,126.369599 58.0147272,130.067422 C57.7235398,132.470446 61.8118107,133.892987 64.8343358,134 C65.2303506,133.015035 65.7078979,132.074331 66.2902727,131.238399 L69.9592338,131.238399 L70,131.217108 L64.2403135,120.876652 C63.58223,119.694469 62.5397792,119.709597 61.9166382,120.911949" id="Fill-126" fill="#E8A040"></path>
            <path d="M59.3463229,115.599578 L56.7571797,115.05906 C55.3416201,114.764019 53.7990232,115.603659 53.3332194,116.924926 L50,126.377874 C51.6514862,127.411681 53.4239604,128.295052 55.3053237,129 C55.3053237,128.995918 55.3053237,128.993586 55.3113731,128.989504 L60.7497837,118.410623 C61.3910201,117.161075 60.7558331,115.895201 59.3463229,115.599578" id="Fill-127" fill="#E8A040"></path>
            <path d="M82.5299296,122 C82.1338028,122.396685 81.0774648,122.773709 80.1690141,122.711835 L79.2975352,122.651696 C78.0352113,122.566114 77,123.628373 77,125.012143 L77,131 L83,131 C82.693662,129.167502 82.5299296,127.230339 82.5299296,125.219738 L82.5299296,122" id="Fill-128" fill="#E8A040"></path>
            <path d="M24.7354336,12.7430606 C25.0158956,13.3445799 25.6391445,13.7651592 26.3621131,13.7651592 C27.3530788,13.7651592 28.1508373,12.9881464 28.1508373,12.0301938 C29.3412426,11.2525758 33.2365479,10.7381982 35.4927088,11.1400179 C35.9601454,11.2223183 36.0287028,11.8165758 35.9913079,12.1887431 C35.8354956,13.901318 30.1203037,17.0238928 28.4749267,18 C27.9700952,18 26.7111325,18 26.7111325,18 L24,12.8967688 L24.7354336,12.7430606" id="Fill-138" fill="#F8C648"></path>
            <path d="M11.2585807,12.7430606 C10.978212,13.3445799 10.361401,13.7651592 9.63867294,13.7651592 C8.64803706,13.7651592 7.85054401,12.9881464 7.85054401,12.0301938 C6.66053486,11.2525758 2.76029545,10.7381982 0.504885442,11.1400179 C0.043834777,11.2223183 -0.0246997814,11.8165758 0.00645229062,12.1887431 C0.168443065,13.901318 5.88173306,17.0238928 7.52033205,18 C8.03122603,18 9.28353932,18 9.28353932,18 L12,12.8967688 L11.2585807,12.7430606" id="Fill-139" fill="#F8C648"></path>
            <path d="M28,16.5190069 C28,14.5908437 27.0845711,12.8678407 25.6477721,11.7020277 C25.6477721,11.7020277 25.6477721,11.7020277 25.6538345,11.7014562 C25.6538345,11.7014562 22.3013034,8.79378148 19.5974538,8.20401727 C19.0882085,8.07543496 18.5547135,8 17.9969688,8 C17.4452865,8 16.9117915,8.07543496 16.4025462,8.20401727 C13.6986966,8.79378148 10.3461655,11.7014562 10.3461655,11.7014562 C10.3461655,11.7020277 10.3522279,11.7020277 10.3522279,11.7020277 C8.91542892,12.8678407 8,14.5908437 8,16.5190069 C8,17.0830547 8.0848742,17.6271007 8.23037284,18.1477162 L8.2243104,18.1500021 L12.4558957,35 L17.9969688,32.4380688 L23.5441043,35 L27.7696272,18.1500021 L27.7635647,18.1477162 C27.9090634,17.6271007 28,17.0830547 28,16.5190069" id="Fill-140" fill="#F8C648"></path>
            <path d="M19.6943522,17.720348 C19.6943522,16.7705123 18.9368771,16 17.9971523,16 C17.0631229,16 16.3056478,16.7705123 16.3056478,17.720348 C16.3056478,26.9526123 14.6938776,30.7710445 12,32.5463464 L12.7289986,35.6926049 C12.7346939,35.7238419 12.7916469,35.9448147 12.7916469,35.9448147 L12.7916469,35.9430793 C12.8941623,36.3607293 13.0422402,36.7587116 13.2358804,37.1312416 C13.2301851,37.1318201 13.2301851,37.1318201 13.2301851,37.1318201 C13.2358804,37.1445463 13.2871381,37.2371003 13.304224,37.2706511 C13.3668723,37.3869221 13.4409112,37.5049285 13.5206455,37.6240918 C13.5320361,37.6460734 13.5434267,37.6674765 13.5605126,37.6888796 C14.6198386,39.2530427 16.9036545,41 17.9971523,41 C19.0052207,41 20.9985762,39.534754 22.1433318,38.086862 C22.1547224,38.0770281 22.1604177,38.0660373 22.166113,38.0562034 C22.2572378,37.9445601 22.336972,37.8323384 22.4110109,37.721852 C22.4451827,37.6767319 22.4736592,37.6310334 22.5021357,37.5853348 C22.5704794,37.4841038 22.6274324,37.3840298 22.6843854,37.2856911 C22.7071666,37.2463557 22.7242525,37.2070202 22.7470337,37.1671063 C22.752729,37.1561155 22.7641196,37.1439678 22.7698149,37.1318201 C22.7641196,37.1318201 22.7641196,37.1318201 22.7641196,37.1312416 C22.9577598,36.7587116 23.1058377,36.3607293 23.2083531,35.9430793 L23.2083531,35.9448147 C23.2083531,35.9448147 23.2596108,35.7238419 23.2710014,35.6926049 L24,32.5463464 C21.3061224,30.7710445 19.6943522,26.9526123 19.6943522,17.720348" id="Fill-141" fill="#FADB58"></path>
            <path d="M10,18.5 C10,17.671072 10.6748166,17 11.5036675,17 C12.3251834,17 13,17.671072 13,18.5 C13,19.3281938 12.3251834,20 11.5036675,20 C10.6748166,20 10,19.3281938 10,18.5" id="Fill-142" fill="#212830"></path>
            <path d="M26,18.5 C26,17.671072 25.3308824,17 24.5,17 C23.6691176,17 23,17.671072 23,18.5 C23,19.3281938 23.6691176,20 24.5,20 C25.3308824,20 26,19.3281938 26,18.5" id="Fill-143" fill="#212830"></path>
            <path d="M15.8470765,35.9561477 C15.4572714,35.5017339 15.0434783,34.4517361 15.0434783,33.6110355 C15.0434783,33.2739125 14.8095952,33 14.5217391,33 C14.2338831,33 14,33.2739125 14,33.6110355 C14,34.8520697 14.5697151,36.1914315 15.1094453,36.8214301 C15.3133433,37.0595233 15.6431784,37.0595233 15.8470765,36.8214301 C16.0509745,36.5819323 16.0509745,36.1949432 15.8470765,35.9561477" id="Fill-144" fill="#CA6B2E"></path>
            <path d="M19.8934624,36.8214301 C20.4257967,36.1914315 21,34.8520697 21,33.6110355 C21,33.2739125 20.7667299,33 20.4796283,33 C20.1925266,33 19.9592566,33.2739125 19.9592566,33.6110355 C19.9592566,34.4517361 19.5405667,35.5017339 19.1577645,35.9561477 C18.9484196,36.1949432 18.9484196,36.5819323 19.1517832,36.8214301 C19.3551469,37.0595233 19.6900988,37.0595233 19.8934624,36.8214301" id="Fill-145" fill="#CA6B2E"></path>
            <path d="M16.015015,1.18473041 C16.015015,1.18473041 16.009009,1.18413626 16.003003,1.18354211 C15.9189189,0.518690895 15.3543544,0 14.6576577,0 C14.009009,0 13.4684685,0.453334654 13.3363363,1.05758281 C13.3363363,1.0587711 13.3363363,1.06233599 13.3363363,1.06411843 C13.3303303,1.07540724 13.3303303,1.08729019 13.3303303,1.098579 C13.1681682,2.23993662 11.5585586,10.2829133 11,12 C11,12 14.3213213,8.97697678 17,8.36381641 L16.015015,1.18473041" id="Fill-146" fill="#E8A040"></path>
            <path d="M20.984985,1.18473041 C20.984985,1.18473041 20.990991,1.18413626 20.996997,1.18354211 C21.0750751,0.518690895 21.6456456,0 22.3363363,0 C22.990991,0 23.5315315,0.453334654 23.6636637,1.05758281 C23.6636637,1.0587711 23.6636637,1.06233599 23.6636637,1.06411843 C23.6636637,1.07540724 23.6696697,1.08729019 23.6696697,1.098579 C23.8258258,2.23993662 25.4354354,10.2829133 26,12 C26,12 22.6786787,8.97697678 20,8.36381641 L20.984985,1.18473041" id="Fill-147" fill="#E8A040"></path>
        </g>
        <g id="typeText" transform="translate(10.000000, 6.000000)" fill="#725F5F" fill-opacity="0.87" font-family="Roboto-Black, Roboto Black" font-size="17" font-weight="700">
            <g id="vegetable">
                <text>
                    <tspan x="0" y="16">animal</tspan>
                </text>
            </g>
        </g>
        <g id="firstLetter" transform="translate(10.000000, 152.000000)">
            <g id="Group" transform="translate(0.000000, -5.000000)">
                <rect id="Rectangle" stroke="#979797" x="0.5" y="6.5" width="34" height="38"></rect>
                <text id="C" fill="#131313" font-family="Roboto-Bold, Roboto" font-size="43" font-weight="bold">
                    <tspan x="2.85522461" y="40">G</tspan>
                </text>
            </g>
        </g>
        <g id="nameText" transform="translate(104.000000, 161.000000)" fill="#454545" fill-opacity="0.87" font-family="Roboto-Black, Roboto Black" font-size="26" font-weight="700">
            <text id="Carrot">
                <tspan x="4.48339844" y="28">Giraffe</tspan>
            </text>
        </g>
        <g id="colorText" transform="translate(133.000000, 5.000000)" fill="#454545" fill-opacity="0.87" font-family="Roboto-Black, Roboto Black" font-size="18" font-weight="700">
            <text id="orange">
                <tspan x="4.80175781" y="17">yellow</tspan>
            </text>
        </g>
    </g>
</svg>