<?xml version="1.0" encoding="UTF-8"?>
<svg width="200px" height="200px" viewBox="0 0 200 200" version="1.1" xmlns="http://www.w3.org/2000/svg" xmlns:xlink="http://www.w3.org/1999/xlink">
    <!-- Generator: Sketch 56.3 (81716) - https://sketch.com -->
    <title>grapes</title>
    <desc>Created with Sketch.</desc>
    <g id="grapes" stroke="none" stroke-width="1" fill="none" fill-rule="evenodd">
        <g id="typeText" transform="translate(10.000000, 6.000000)" fill="#725F5F" fill-opacity="0.87" font-family="Roboto-Black, Roboto Black" font-size="17" font-weight="700">
            <g id="vegetable">
                <text>
                    <tspan x="0" y="16">fruit</tspan>
                </text>
            </g>
        </g>
        <g id="firstLetter" transform="translate(10.000000, 152.000000)">
            <g id="Group" transform="translate(0.000000, -5.000000)">
                <rect id="Rectangle" stroke="#979797" x="0.5" y="6.5" width="34" height="38"></rect>
                <text id="C" fill="#131313" font-family="Roboto-Bold, Roboto" font-size="43" font-weight="bold">
                    <tspan x="2.85522461" y="40">G</tspan>
                </text>
            </g>
        </g>
        <g id="nameText" transform="translate(104.000000, 161.000000)" fill="#454545" fill-opacity="0.87" font-family="Roboto-Black, Roboto Black" font-size="26" font-weight="700">
            <text id="Carrot">
                <tspan x="2.515625" y="28">Grapes</tspan>
            </text>
        </g>
        <g id="colorText" transform="translate(133.000000, 5.000000)" fill="#454545" fill-opacity="0.87" font-family="Roboto-Black, Roboto Black" font-size="18" font-weight="700">
            <text id="orange">
                <tspan x="5.01269531" y="17">purple</tspan>
            </text>
        </g>
        <g id="grape" transform="translate(54.000000, 28.000000)">
            <path d="M53.0395139,23.6094013 C62.3680312,27.770673 66.5517737,38.7067464 62.3897086,48.035105 C58.2276436,57.3641862 47.2949971,61.5521929 37.9664798,57.3909212 C28.6379625,53.228927 24.4469942,42.2928536 28.6090592,32.964495 C32.7711243,23.6361364 43.7109966,19.4474071 53.0395139,23.6094013" id="Fill-1196" fill="#5E3060"></path>
            <path d="M53.5927231,22.9849443 L53.4398496,23.317588 C60.2390816,26.348504 64.2720308,33.0203042 64.2720308,40.0101904 C64.2720308,42.4966479 63.7624524,45.0231391 62.685058,47.4419032 C59.6494266,54.2381719 52.981229,58.2713864 45.9854453,58.2721143 C43.5030705,58.2721143 40.9770175,57.7618665 38.5528801,56.682412 C31.7609278,53.6507681 27.7279786,46.9789679 27.7279786,39.9890817 C27.7279786,37.5026242 28.237557,34.976133 29.3149514,32.5573689 C32.3433031,25.7611003 39.0187804,21.7278857 46.0072844,21.7278857 C48.496939,21.7278857 51.022992,22.2381335 53.4398496,23.317588 L53.5927231,22.9849443 L53.738317,22.6523005 C51.2268233,21.5313565 48.5988547,21 46.0072844,21 C38.7421521,20.9992721 31.804606,25.1948052 28.6524995,32.2603915 C27.5241472,34.7737808 27,37.4029039 27,39.9890817 C26.9927298,47.2570203 31.1931119,54.1944987 38.2616925,57.3469716 C40.7731861,58.4686435 43.4011548,59 45.9854453,59 C53.2578573,59 60.1954035,54.8051948 63.34751,47.7388806 C64.4685825,45.2254913 65,42.5963682 65,40.0101904 C65,32.7422518 60.8068976,25.8047734 53.738317,22.6523005 L53.5927231,22.9849443" id="Fill-1197" fill="#43214B"></path>
            <path d="M34.9444363,48.5847836 C34.9049747,48.6865786 34.8392053,48.7796483 34.7537051,48.8523589 C34.4774736,49.0901229 34.0762803,49.0348627 33.8658183,48.7287508 C30.781234,44.3413883 30.1366939,38.4743635 32.175545,33.4158814 C32.3202377,33.0617804 32.6951232,32.9032711 33.0173932,33.0610533 C33.3330863,33.2188355 33.4777789,33.6340135 33.3330863,33.9881145 C31.4849664,38.5717958 32.070314,43.8905821 34.865513,47.8671292 C35.0167826,48.0787173 35.0365134,48.355745 34.9444363,48.5847836" id="Fill-1198" fill="#FFFFFE"></path>
            <path d="M65.0415063,61.4501288 C55.1273195,58.9875709 49.0863135,48.9545261 51.550408,39.0407072 C54.0145026,29.1276109 64.0443068,23.0868291 73.9584937,25.5501096 C83.8726805,28.011945 89.9136865,38.0449898 87.449592,47.9588087 C84.9854974,57.8726276 74.9556932,63.9126868 65.0415063,61.4501288" id="Fill-1199" fill="#5E3060"></path>
            <path d="M65.5084291,61.0821186 L65.5957854,60.7290873 C57.2823755,58.6647639 51.7279693,51.2081601 51.7279693,43.0134661 C51.7279693,41.5554832 51.902682,40.0749354 52.2666667,38.5958433 C54.3340996,30.2832296 61.7885057,24.7278996 69.9854406,24.7278996 C71.4413793,24.7278996 72.9264368,24.9033234 74.4042146,25.2709127 C82.7176245,27.3345082 88.2720307,34.7903841 88.2720307,42.9850781 C88.2720307,44.443061 88.097318,45.9243367 87.7333333,47.4034288 C85.6659004,55.7167704 78.2114943,61.2721004 70.0145594,61.2721004 C68.5586207,61.2721004 67.0735632,61.0966766 65.5957854,60.7290873 L65.4210728,61.4351499 C66.9570881,61.8172972 68.5003831,62 70.0145594,62 C78.5390805,62 86.291954,56.2233886 88.4394636,47.5788526 C88.8180077,46.0422565 89,44.501293 89,42.9850781 C89,34.4613734 83.2272031,26.712154 74.5789272,24.5641222 C73.0429119,24.1827028 71.4996169,24 69.9854406,24 C61.4609195,23.9992721 53.708046,29.7766114 51.5605364,38.4204195 C51.1819923,39.9570156 51,41.4972512 51,43.0134661 C51,51.5371708 56.7727969,59.2871181 65.4210728,61.4351499 L65.5084291,61.0821186" id="Fill-1200" fill="#43214B"></path>
            <path d="M79.0228295,32.5160625 C79.0441603,32.4109659 79.1010424,32.3108067 79.1792553,32.2247545 C79.4281146,31.9454374 79.8618408,31.9235716 80.1462514,32.1753802 C84.1777719,35.7860475 85.870015,41.2687037 84.5688365,46.4826229 C84.476403,46.8479923 84.1066692,47.0701763 83.7369354,46.979892 C83.3672016,46.8889024 83.1467834,46.5193009 83.2321066,46.1539316 C84.4195209,41.4288173 82.8837036,36.4603585 79.2290272,33.1868467 C79.0299398,33.0119208 78.9588371,32.7523534 79.0228295,32.5160625" id="Fill-1201" fill="#FFFFFE"></path>
            <path d="M39,43.5003614 C39,53.717227 30.7167416,62 20.503614,62 C10.2832584,62 2,53.717227 2,43.5003614 C2,33.282773 10.2832584,25 20.503614,25 C30.7167416,25 39,33.282773 39,43.5003614" id="Fill-1202" fill="#5E3060"></path>
            <path d="M38.6359456,43.000364 L38.2718912,43.000364 C38.2718912,48.0465963 36.2259053,52.6123043 32.9202912,55.9206407 C29.6146771,59.2275209 25.0494348,61.271933 20.0036405,61.271933 C14.9505652,61.271933 10.3853229,59.2275209 7.07970876,55.9206407 C3.77409465,52.6123043 1.72810883,48.0465963 1.72810883,43.000364 C1.72810883,37.9534037 3.77409465,33.3876957 7.07970876,30.0793593 C10.3853229,26.7724791 14.9505652,24.728067 20.0036405,24.728067 C25.0494348,24.728067 29.6146771,26.7724791 32.9202912,30.0793593 C36.2259053,33.3876957 38.2718912,37.9534037 38.2718912,43.000364 L39,43.000364 C39,32.5067346 30.4956888,24 20.0036405,24 C9.50431117,24 1,32.5060066 1,43.000364 C1,53.4939934 9.50431117,62 20.0036405,62 C30.4956888,62 39,53.4939934 39,43.000364 L38.6359456,43.000364" id="Fill-1203" fill="#43214B"></path>
            <path d="M7.70105847,38 C7.59205076,38 7.47577586,37.9730255 7.37403532,37.9168894 C7.02521063,37.7331713 6.90166855,37.3066829 7.08334808,36.963305 C9.69953329,32.0510328 14.7647586,29 20.3023506,29 C20.6875112,29 21,29.3149453 21,29.7035237 C21,30.0928311 20.6875112,30.4077764 20.3023506,30.4077764 C15.2807284,30.4077764 10.6951371,33.1744836 8.31876887,37.6274605 C8.19522679,37.8643985 7.95540982,38 7.70105847,38" id="Fill-1204" fill="#FFFFFE"></path>
            <path d="M43.1382853,72.9986662 C50.0403523,80.5304228 49.5344417,92.233158 41.9963726,99.1375693 C34.4655308,106.041258 22.7645396,105.532443 15.8624725,98.0006868 C8.96040547,90.4689302 9.46631614,78.766195 16.9971579,71.8625064 C24.5279997,64.9588178 36.2289909,65.4676324 43.1382853,72.9986662" id="Fill-1205" fill="#5E3060"></path>
            <path d="M42.7367816,72.4068668 L42.467433,72.6529488 C45.6850575,76.1621644 47.264751,80.5829024 47.2720307,84.9949037 C47.264751,89.9398399 45.2773946,94.8643906 41.3463602,98.4689811 C37.8375479,101.684791 33.4114943,103.271219 29.0072797,103.271947 C24.0570881,103.271219 19.1360153,101.278538 15.532567,97.3463234 C12.3149425,93.8378358 10.7279693,89.4163698 10.7279693,85.0050965 C10.7279693,80.0601603 12.7226054,75.1348815 16.6536398,71.5310191 C20.1624521,68.3152088 24.5812261,66.7287813 28.9927203,66.7280532 C33.9356322,66.7287813 38.8639847,68.7214624 42.467433,72.6529488 L42.7367816,72.4068668 L43.0061303,72.161513 C39.2570881,68.0742233 34.1321839,65.9992721 28.9927203,66 C24.4065134,66 19.8057471,67.6512245 16.1586207,70.994444 C12.0747126,74.7402768 10,79.8657701 10,85.0050965 C10,89.5903744 11.6524904,94.1923976 14.9938697,97.8384872 C18.7429119,101.925777 23.8678161,104 29.0072797,104 C33.5862069,104 38.1869732,102.348776 41.8340996,99.0055562 C45.9252874,95.2597234 48,90.133502 48,84.9949037 C48,80.4096257 46.3475096,75.8076025 43.0061303,72.161513 L42.7367816,72.4068668" id="Fill-1206" fill="#43214B"></path>
            <path d="M15.6228838,89.8098998 C15.5360974,89.8871905 15.4348466,89.9464716 15.3263636,89.9772378 C14.9502892,90.07629 14.5669827,89.8429172 14.4729641,89.454963 C13.0988462,83.9020411 14.7694843,78.0527131 18.826748,74.1904308 C19.116036,73.9202886 19.5572001,73.9397989 19.8175593,74.2347041 C20.0779185,74.5303597 20.0562219,74.9888509 19.7741661,75.2589931 C16.0929767,78.7588347 14.5814471,84.0611248 15.8253853,89.0947735 C15.8904751,89.3626644 15.8036887,89.6343074 15.6228838,89.8098998" id="Fill-1207" fill="#FFFFFE"></path>
            <path d="M46.8654275,69.9991362 C39.9559914,77.5308046 40.4691399,89.2334026 48.0001362,96.1370103 C55.5311325,103.041341 67.2323638,102.532532 74.1345725,95.0008638 C81.0440086,87.4691954 80.5308601,75.7665974 72.9998638,68.8629897 C65.4688675,61.9586593 53.7676362,62.4674679 46.8654275,69.9991362" id="Fill-1208" fill="#5E3060"></path>
            <path d="M47.2642269,70.4068669 L46.9948266,70.161513 C43.645526,73.8076026 42,78.4096258 42,82.9949037 C42,88.133502 44.0751102,93.2589953 48.1598007,97.0055562 C51.807626,100.348048 56.4092738,102 60.9963595,102 C66.1295267,102 71.2554129,99.9257769 75.0051734,95.8384872 C78.3471929,92.1923977 80,87.5903745 80,83.0050965 C80,77.8657702 77.9248898,72.7402768 73.8401993,68.994444 C70.192374,65.6512245 65.5907262,63.9992722 61.0036405,64 C55.8631922,63.9992722 50.737306,66.0742233 46.9948266,70.161513 L47.2642269,70.4068669 L47.526346,70.6529488 C51.1304848,66.7214625 56.0597816,64.7280533 61.0036405,64.7280533 C65.4159801,64.7280533 69.8356007,66.3144808 73.3450853,69.5310191 C77.276873,73.1348816 79.2718912,78.0601603 79.2718912,83.0050965 C79.2718912,87.4163698 77.6846139,91.8378358 74.4663729,95.3463234 C70.8622341,99.2785378 65.9402184,101.271219 60.9963595,101.271947 C56.5840199,101.271219 52.1571182,99.6847914 48.6549147,96.4689811 C44.7158459,92.8643906 42.7281088,87.9391119 42.7281088,82.9949037 C42.7281088,78.5829024 44.3153861,74.1614364 47.526346,70.6529488 L47.2642269,70.4068669" id="Fill-1209" fill="#43214B"></path>
            <path d="M74.3771162,87.8095989 C74.4639026,87.8876407 74.5651534,87.9461721 74.6808686,87.9769385 C75.0497108,88.076742 75.4330173,87.843367 75.5270359,87.4554091 C76.9011538,81.9024333 75.2305157,76.0530488 71.173252,72.190729 C70.883964,71.9198339 70.4427999,71.9400947 70.1824407,72.2350027 C69.9220815,72.5299108 69.9437781,72.9884065 70.2258339,73.2593017 C73.9070233,76.7591772 75.4185529,82.0607682 74.1746147,87.0952161 C74.1095249,87.3631096 74.1963113,87.6347552 74.3771162,87.8095989" id="Fill-1210" fill="#FFFFFE"></path>
            <path d="M38,55.5 C38,65.716666 29.7167416,74 19.496386,74 C9.28325845,74 1,65.716666 1,55.5 C1,45.2826112 9.28325845,37 19.496386,37 C29.7167416,37 38,45.2826112 38,55.5" id="Fill-1211" fill="#5E3060"></path>
            <path d="M37.6359456,55 L37.2718912,55 C37.2718912,60.0461356 35.2259053,64.6124842 31.9202912,67.9200291 C28.6073961,71.226846 24.0421537,73.2712189 18.9963595,73.271947 C13.9505652,73.2712189 9.38532286,71.226846 6.07970876,67.9200291 C2.76681357,64.6124842 0.728108833,60.0461356 0.728108833,55 C0.728108833,49.9531364 2.76681357,45.3875158 6.07970876,42.0799709 C9.38532286,38.7724259 13.9505652,36.728053 18.9963595,36.728053 C24.0421537,36.728053 28.6073961,38.7724259 31.9202912,42.0799709 C35.2259053,45.3875158 37.2718912,49.9531364 37.2718912,55 L38,55 C38,44.5065716 29.4884077,36 18.9963595,36 C8.50431117,36 0,44.5065716 0,55 C0,65.4934284 8.50431117,73.9992719 18.9963595,74 C29.4884077,73.9992719 38,65.4934284 38,55 L37.6359456,55" id="Fill-1212" fill="#43214B"></path>
            <path d="M5.7043233,50 C5.58807695,50 5.47909599,49.9730255 5.37011504,49.9168894 C5.02864137,49.7339004 4.89786423,49.3066829 5.08676455,48.964034 C7.70230751,44.0517618 12.7590239,41 18.2952565,41 C18.6875879,41 19,41.3149453 19,41.7035237 C19,42.0928311 18.6875879,42.4085055 18.2952565,42.4085055 C13.2821325,42.4085055 8.69040151,45.1744836 6.32188206,49.6274605 C6.19110491,49.8651276 5.95134681,50 5.7043233,50" id="Fill-1213" fill="#FFFFFE"></path>
            <path d="M90,55.5 C90,65.716666 81.7183594,74 71.5,74 C61.2816406,74 53,65.716666 53,55.5 C53,45.2826112 61.2816406,37 71.5,37 C81.7183594,37 90,45.2826112 90,55.5" id="Fill-1214" fill="#5E3060"></path>
            <path d="M89.6360153,55 L89.2720307,55 C89.2720307,60.0461356 87.2264368,64.6124842 83.9214559,67.9200291 C80.6091954,71.226846 76.0448276,73.2712189 71,73.271947 C65.9551724,73.2712189 61.3908046,71.226846 58.0785441,67.9200291 C54.7735632,64.6124842 52.7279693,60.0461356 52.7279693,55 C52.7279693,49.9531364 54.7735632,45.3875158 58.0785441,42.0799709 C61.3908046,38.7724259 65.9551724,36.728053 71,36.728053 C76.0448276,36.728053 80.6091954,38.7724259 83.9214559,42.0799709 C87.2264368,45.3875158 89.2720307,49.9531364 89.2720307,55 L90,55 C90,44.5065716 81.4900383,36 71,36 C60.5099617,36 52,44.5065716 52,55 C52,65.4934284 60.5099617,73.9992719 71,74 C81.4900383,73.9992719 90,65.4934284 90,55 L89.6360153,55" id="Fill-1215" fill="#43214B"></path>
            <path d="M58.6993352,50 C58.5903729,50 58.4741465,49.9730255 58.3724483,49.9168894 C58.0310331,49.7339004 57.9002784,49.3066829 58.0818822,48.964034 C60.6969774,44.0517618 65.7600923,41 71.2953771,41 C71.6803773,41 72,41.3149453 72,41.7035237 C72,42.0928311 71.6803773,42.4085055 71.2953771,42.4085055 C66.2831113,42.4085055 61.6921664,45.1744836 59.3240524,49.6274605 C59.1932977,49.8651276 58.9535806,50 58.6993352,50" id="Fill-1216" fill="#FFFFFE"></path>
            <path d="M57.5329879,95.3509865 C63.8779503,102.06836 63.4057671,112.505353 56.4853313,118.662707 C49.5648955,124.820776 38.8153487,124.366745 32.4703862,117.649372 C26.1254238,110.931998 26.5902291,100.495005 33.5106649,94.3369353 C40.4311007,88.1795819 51.1880254,88.6328971 57.5329879,95.3509865" id="Fill-1217" fill="#5E3060"></path>
            <path d="M57.2697536,95.7570572 L57.0025489,96.0011471 C59.8695837,99.1266542 61.277825,103.065313 61.277825,106.995306 C61.277825,111.40048 59.5012744,115.7876 55.9987256,118.999044 C52.8789295,121.863852 48.9358539,123.277118 45.0072218,123.27784 C40.6019541,123.277118 36.21113,121.50205 33.0046729,117.999575 C30.1376381,114.873346 28.722175,110.934687 28.722175,107.004694 C28.722175,102.59952 30.4987256,98.2116779 34.0012744,95.000956 C37.1282923,92.1361485 41.0641461,90.722882 45,90.7221599 C49.4052676,90.722882 53.78887,92.4979505 57.0025489,96.0011471 L57.5369584,95.5129672 C54.1788445,91.8559506 49.5930331,89.9992781 45,90 C40.8980459,90 36.7744265,91.4775389 33.5174172,94.4687243 C29.8559898,97.8202674 28,102.406703 28,107.004694 C28,111.107283 29.4804588,115.225038 32.4702634,118.487033 C35.8211555,122.14405 40.4069669,124 45.0072218,124 C49.1091759,124 53.2255735,122.522461 56.4898046,119.531276 C60.1440102,116.179733 62,111.593297 62,106.995306 C62,102.892717 60.526763,98.7749625 57.5369584,95.5129672 L57.2697536,95.7570572" id="Fill-1218" fill="#43214B"></path>
            <path d="M33.3526551,109.83341 C33.2789833,109.901979 33.1986141,109.953042 33.0981525,109.980032 C32.7900705,110.066837 32.475291,109.862589 32.3949218,109.52339 C31.2496602,104.664467 32.6360295,99.546586 36.0249321,96.1670046 C36.2593424,95.9299305 36.6277013,95.9474375 36.8487167,96.2056659 C37.0630347,96.4638942 37.0496398,96.8650964 36.8085321,97.101441 C33.7411064,100.164437 32.4819884,104.803064 33.520091,109.208264 C33.5736705,109.442421 33.5066961,109.680954 33.3526551,109.83341" id="Fill-1219" fill="#FFFFFE"></path>
            <path d="M59.1345725,65.9989228 C66.0440086,73.530643 65.5308601,85.2333215 57.9998638,92.1369768 C50.4688675,99.0413548 38.7676362,98.5325426 31.8654275,91.0008225 C24.9559914,83.4691023 25.4691399,71.7664237 33.0001362,64.8627685 C40.5311325,57.9583905 52.2323638,58.4679253 59.1345725,65.9989228" id="Fill-1220" fill="#5E3060"></path>
            <path d="M58.7357731,65.4068669 L58.473654,65.6529488 C61.6846139,69.1614364 63.2718912,73.5829024 63.2718912,77.9949037 C63.2718912,82.9398399 61.276873,87.8643906 57.3450853,91.4689811 C53.8428818,94.6847914 49.4159801,96.2712189 45.0036405,96.271947 C40.0597816,96.2712189 35.1377659,94.2785378 31.5336271,90.3463234 C28.3153861,86.8378358 26.7281088,82.4163698 26.7281088,78.0050965 C26.7281088,73.0601603 28.723127,68.1348816 32.6549147,64.5310191 C36.1643993,61.3144808 40.5840199,59.7280533 44.9963595,59.7280533 C49.9402184,59.7280533 54.8622341,61.7214625 58.473654,65.6529488 L58.7357731,65.4068669 L59.0051734,65.161513 C55.262694,61.0742233 50.1368078,58.9992722 44.9963595,59 C40.4092738,58.9992722 35.807626,60.6512245 32.1598007,63.994444 C28.0751102,67.7402768 26,72.8657702 26,78.0050965 C26,82.5903745 27.6528071,87.1923977 30.9948266,90.8384872 C34.737306,94.9257769 39.8631922,97 45.0036405,97 C49.5907262,97 54.192374,95.3480477 57.8401993,92.0055562 C61.9248898,88.2589953 64,83.133502 64,77.9949037 C64,73.4096258 62.3471929,68.8076026 59.0051734,65.161513 L58.7357731,65.4068669" id="Fill-1221" fill="#43214B"></path>
            <path d="M31.6228838,82.8096411 C31.5360974,82.8876846 31.4348466,82.9462172 31.3191314,82.9769844 C30.9502892,83.07679 30.5669827,82.8426595 30.4729641,82.4554437 C29.0988462,76.9015986 30.7694843,71.0528392 34.826748,67.1904367 C35.116036,66.9202862 35.5572001,66.939797 35.8175593,67.2347114 C36.0779185,67.5303761 36.0562219,67.9881313 35.7741661,68.2590322 C32.0929767,71.7589827 30.5814471,77.0606873 31.8253853,82.095243 C31.8904751,82.3631423 31.8036887,82.6347937 31.6228838,82.8096411" id="Fill-1222" fill="#FFFFFE"></path>
            <path d="M55.9854881,13.418134 L55.9854881,13.4066341 L55.9709763,13.4188527 C52.7856201,13.4986327 50.2460422,14.2015592 48.2143799,15.2753549 C48.3667546,10.7178324 46.9953826,5.55872559 42.8667546,0.0294682893 L42.8740106,0.00359369381 L42.8522427,0.0143747753 L42.8449868,0 L42.8377309,0.0258745955 C38.810686,2.99139073 36.2203166,6.18690327 34.6385224,9.39463437 C31.6490765,6.20630922 27.2592348,3.57931904 20.8522427,2.34165089 L20.8377309,2.32008873 L20.8377309,2.3380572 L20.8159631,2.3344635 L20.8304749,2.35602566 C19.5824538,8.78586264 20.4386544,13.8436273 22.3542216,17.8060341 C19.1108179,18.4953046 15.6497361,20.0003436 12.0290237,22.6532083 L12,22.6488959 L12.0145119,22.6639894 L12,22.6747705 L12.0217678,22.6783642 C16.1649077,28.1989966 20.7506596,30.9984841 25.1985488,32.1808094 C23.5659631,33.7915029 22.1510554,35.9965935 21.1497361,38.9930154 L21.1352243,39.0002028 L21.1424802,39.0037964 L21.1424802,39.0152963 L21.1569921,39.0081089 C30.8436675,42.169122 36.5032982,37.1178259 39.3186016,33.0619831 C40.0079156,32.410087 40.8641161,31.546163 41.7638522,30.4888983 C43.048153,29.9405006 44.1292876,29.3834781 44.9637203,28.9177354 C49.701847,27.424915 56.224934,23.5343821 55.9854881,13.4303525 L56,13.418134 L55.9854881,13.418134" id="Fill-1223" fill="#526631"></path>
            <path d="M44.3458641,43 C44.2023028,43 44.0587415,42.9907182 43.9151802,42.9721545 C42.0775955,42.7343971 40.7855437,41.064383 41.0295979,39.2422898 C42.9389633,24.6662585 52.6867762,12.3942611 66.4758398,7.21571814 C68.2057536,6.56599057 70.1294751,7.43348398 70.7826791,9.15276311 C71.435883,10.8720422 70.5673371,12.7919515 68.8374233,13.4409651 C57.3668748,17.7505867 49.2556609,27.9663034 47.6621304,40.1026434 C47.4396103,41.7790833 46.0039973,43 44.3458641,43" id="Fill-1224" fill="#3F4E3F"></path>
            <path d="M64,47.4996386 C64,57.717227 55.7167416,66 45.503614,66 C35.2832584,66 27,57.717227 27,47.4996386 C27,37.282773 35.2832584,29 45.503614,29 C55.7167416,29 64,37.282773 64,47.4996386" id="Fill-1225" fill="#5E3060"></path>
            <path d="M63.6359456,47.999636 L63.2718912,47.999636 C63.2718912,53.0465963 61.2259053,57.6123043 57.9202912,60.9199126 C54.6146771,64.2275209 50.0494348,66.271933 45.0036405,66.271933 C39.9505652,66.271933 35.3853229,64.2275209 32.0797088,60.9199126 C28.7740947,57.6123043 26.7281088,53.0465963 26.7281088,47.999636 C26.7281088,42.9526756 28.7740947,38.3869676 32.0797088,35.0793593 C35.3853229,31.7724791 39.9505652,29.728067 45.0036405,29.728067 C50.0494348,29.728067 54.6146771,31.7724791 57.9202912,35.0793593 C61.2259053,38.3869676 63.2718912,42.9526756 63.2718912,47.999636 L64,47.999636 C64,37.5060066 55.4956888,29 45.0036405,29 C34.5043112,29 26,37.5060066 26,47.999636 C26,58.4932654 34.5043112,67 45.0036405,67 C55.4956888,67 64,58.4932654 64,47.999636 L63.6359456,47.999636" id="Fill-1226" fill="#43214B"></path>
            <path d="M32.7010585,41 C32.5920508,41 32.4757759,40.9730277 32.3740353,40.9161672 C32.0252106,40.7331929 31.9016685,40.30601 32.0833481,39.963389 C34.6995333,35.0515147 39.7647586,32 45.3023506,32 C45.6875112,32 46,32.3149198 46,32.7041957 C46,33.0927426 45.6875112,33.4083914 45.3023506,33.4083914 C40.2807284,33.4083914 35.6951371,36.1741455 33.3187689,40.6274907 C33.1952268,40.8644095 32.9554098,41 32.7010585,41" id="Fill-1227" fill="#FFFFFE"></path>
        </g>
    </g>
</svg>