<?xml version="1.0" encoding="UTF-8"?>
<svg width="200px" height="200px" viewBox="0 0 200 200" version="1.1" xmlns="http://www.w3.org/2000/svg" xmlns:xlink="http://www.w3.org/1999/xlink">
    <!-- Generator: Sketch 56.3 (81716) - https://sketch.com -->
    <title>hat</title>
    <desc>Created with Sketch.</desc>
    <g id="hat" stroke="none" stroke-width="1" fill="none" fill-rule="evenodd">
        <g id="typeText" transform="translate(10.000000, 6.000000)" fill="#725F5F" fill-opacity="0.87" font-family="Roboto-Black, Roboto Black" font-size="17" font-weight="700">
            <g id="vegetable">
                <text>
                    <tspan x="0" y="16">clothing</tspan>
                </text>
            </g>
        </g>
        <g id="firstLetter" transform="translate(10.000000, 152.000000)">
            <g id="Group" transform="translate(0.000000, -5.000000)">
                <rect id="Rectangle" stroke="#979797" x="0.5" y="6.5" width="34" height="38"></rect>
                <text id="C" fill="#131313" font-family="Roboto-Bold, Roboto" font-size="43" font-weight="bold">
                    <tspan x="2.30932617" y="40">H</tspan>
                </text>
            </g>
        </g>
        <g id="nameText" transform="translate(104.000000, 161.000000)" fill="#454545" fill-opacity="0.87" font-family="Roboto-Black, Roboto Black" font-size="26" font-weight="700">
            <text id="Carrot">
                <tspan x="45.0068359" y="28">Hat</tspan>
            </text>
        </g>
        <g id="colorText" transform="translate(133.000000, 5.000000)" fill="#454545" fill-opacity="0.87" font-family="Roboto-Black, Roboto Black" font-size="18" font-weight="700">
            <text id="orange">
                <tspan x="6.71777344" y="17">brown</tspan>
            </text>
        </g>
        <g transform="translate(26.000000, 46.000000)">
            <path d="M119.916645,55.4661437 C120.429645,56.3841437 120.402645,57.4671437 120.395645,58.4601437 C120.382645,60.2931437 120.342645,62.1241437 120.315645,63.9551437 C120.284645,66.0761437 120.177645,68.1001437 119.453645,69.8561437 C118.956645,70.4261437 118.442645,70.9801437 117.910645,71.5151437 C111.870645,77.5921437 103.925645,81.2181437 95.7006446,83.4091437 C86.8266446,85.7781437 77.4866446,87.0941437 68.2176446,87.3521437 C58.6066446,87.6191437 48.5846446,86.1671437 39.8866446,81.2141437 C34.9966446,78.4291437 30.6936446,74.3421437 27.6666446,69.5061437 C27.8776446,68.4481437 27.5906446,67.2321437 27.5486446,66.1601437 C27.4996446,64.8881437 27.4506446,63.6141437 27.4846446,62.3401437 C27.5156446,61.1381437 27.5836446,59.9301437 27.7156446,58.7321437 C27.8006446,57.9791437 27.8826446,57.2151437 28.0326446,56.4691437 C28.1626446,55.8111437 28.0566446,54.8161437 28.9836446,54.7441437 C29.8386446,54.6781437 30.0946446,55.7761437 30.4826446,56.3371437 C30.9936446,57.0791437 31.5446446,57.7981437 32.1236446,58.4891437 C33.2806446,59.8701437 34.5586446,61.1481437 35.9306446,62.3161437 C44.3456446,69.4791437 55.5126446,71.9541437 65.9676446,72.2051437 C84.6736446,72.6531437 105.226645,68.4831437 117.887645,54.2651437 C118.629645,54.2051437 119.515645,54.7441437 119.916645,55.4661437" id="Fill-140-Copy" fill="#D78865"></path>
            <path d="M35.5026446,60.0701437 C37.1246446,61.6501437 38.9046446,63.0691437 40.8156446,64.2781437 C50.3136446,70.2881437 61.3486446,71.4321437 72.0316446,71.0271437 C81.5156446,70.6691437 91.0296446,69.1341437 99.7026446,65.4701437 C106.716645,62.5071437 112.840645,58.1131437 117.702645,52.3721437 C117.584645,43.2841437 116.713645,34.1791437 114.998645,25.1771437 C114.199645,20.9781437 113.488645,16.4501437 111.635645,12.5231437 C110.109645,9.29114366 107.307645,6.33114366 103.823645,5.78714366 C101.341645,5.91614366 98.8296446,6.88814366 96.5836446,7.93014366 C94.7336446,8.78714366 92.8866446,9.65614366 91.0396446,10.5251437 C90.7076446,10.6811437 90.3806446,10.8351437 90.0506446,10.9931437 C87.2866446,12.2911437 84.5276446,13.6011437 81.7626446,14.9041437 C76.9876446,17.1541437 72.2556446,19.6261437 67.3326446,21.5601437 C63.3646446,23.1171437 58.9826446,24.1031437 54.7686446,22.2951437 C51.5496446,20.9141437 48.4936446,18.2501437 47.9276446,14.6031437 C47.9256446,14.5881437 47.9476446,14.5811437 47.9516446,14.5991437 C49.2036446,19.8671437 54.4056446,22.1061437 59.1966446,21.9631437 C65.0746446,21.7891437 70.4766446,18.5311437 75.5926446,16.1051437 C76.5196446,15.6661437 77.4466446,15.2291437 78.3696446,14.7881437 C78.3696446,14.7601437 78.3816446,14.7331437 78.4086446,14.7151437 C79.9036446,13.7751437 82.3176446,12.6681437 81.7536446,10.3871437 C81.5176446,9.42914366 80.9056446,8.75214366 80.1416446,8.24414366 C75.1986446,6.77214366 70.2886446,5.16814366 65.3466446,3.71114366 C57.1226446,1.28114366 47.5016446,-0.879856336 40.6576446,5.18314366 C40.0696446,5.70514366 39.5216446,6.26014366 39.0136446,6.84514366 C37.8036446,9.33114366 36.7876446,11.9121437 35.8596446,14.5161437 C33.6006446,20.8491437 31.4106446,27.0661437 30.2376446,33.7151437 C29.6536446,37.0231437 29.0786446,40.5441437 29.0186446,44.0241437 C28.9516446,47.7661437 29.4796446,51.4591437 31.2286446,54.7961437 C32.2686446,56.7831437 33.9036446,58.5131437 35.5026446,60.0701437" id="Fill-141-Copy" fill="#884037"></path>
            <path d="M83.7026446,105.074144 C77.0426446,105.865144 70.2936446,106.150144 63.4706446,105.956144 C51.8696446,105.624144 39.9216446,104.078144 28.9206446,100.715144 C19.5476446,97.8481437 11.2126446,92.4111437 6.64328899,85.6211437 C6.64164456,85.6191437 6.64864456,85.6171437 6.65064456,85.6191437 C9.60164456,89.3641437 13.6406446,92.3881437 18.2626446,95.0191437 C27.0656446,100.029144 37.7946446,102.755144 48.3846446,104.027144 C60.0876446,105.435144 72.0396446,105.575144 83.6626446,104.963144 C83.7536446,104.958144 83.7986446,105.063144 83.7026446,105.074144 Z M138.380645,57.7651437 C137.624645,57.2191437 136.843645,56.7181437 136.035645,56.2551437 C133.901645,55.3661437 131.733645,54.6091437 129.421645,54.4911437 C127.076645,54.3681437 124.674645,54.9651437 122.897645,56.3991437 C122.910645,59.5361437 122.787645,62.6571437 122.554645,65.7661437 C122.464645,66.9471437 122.360645,68.1231437 122.240645,69.2991437 C121.652645,70.0601437 121.035645,70.7981437 120.393645,71.5081437 C119.252645,72.7711437 118.028645,73.9561437 116.731645,75.0521437 C110.024645,80.7031437 101.513645,84.1071437 92.9196446,85.8911437 C83.2576446,87.9001437 73.1096446,88.9541437 63.1346446,88.4551437 C53.4716446,87.9711437 43.5756446,85.3341437 35.5516446,79.2221437 C32.3466446,76.7791437 29.5376446,73.7651437 27.4106446,70.3641437 C27.2396446,70.0941437 27.0766446,69.8201437 26.9156446,69.5441437 C26.8656446,69.0341437 26.8226446,68.5211437 26.7806446,68.0071437 C26.4866446,64.5481437 26.1646446,60.9901437 26.2796446,57.5131437 C26.3216446,56.1971437 26.1276446,55.1701437 25.2656446,54.1121437 C24.5106446,53.1811437 23.4796446,52.4371437 22.3656446,51.9931437 C19.9866446,51.0471437 18.2386446,51.9871437 16.1656446,53.0901437 C14.9696446,53.7261437 13.8056446,54.4191437 12.6806446,55.1771437 C10.4686446,56.6641437 8.42364456,58.4091437 6.67064456,60.4221437 C4.03564456,63.4511437 2.09764456,67.1421437 1.47364456,71.1971437 C0.841644562,75.3151437 1.71464456,79.5741437 3.59864456,83.3941437 C7.63764456,91.5781437 15.1886446,97.0351437 23.4946446,100.303144 C31.9436446,103.631144 41.1076446,105.339144 49.9906446,106.384144 C67.9566446,108.493144 86.0976446,107.195144 103.259645,102.641144 C111.804645,100.372144 120.079645,97.2381437 127.969645,93.4091437 C134.865645,90.0581437 143.363645,86.0221437 146.526645,78.5651437 C149.767645,70.9311437 144.872645,62.4651437 138.380645,57.7651437 L138.380645,57.7651437 Z" id="Fill-142-Copy" fill="#884037"></path>
            <path d="M146.526645,78.5651437 C143.363645,86.0221437 134.865645,90.0581437 127.969645,93.4091437 C120.079645,97.2381437 111.804645,100.372144 103.259645,102.641144 C86.0976446,107.195144 67.9566446,108.493144 49.9906446,106.384144 C41.1076446,105.339144 31.9436446,103.631144 23.4946446,100.303144 C15.1886446,97.0351437 7.63764456,91.5781437 3.59864456,83.3941437 C1.71464456,79.5741437 0.841644562,75.3151437 1.47364456,71.1971437 C2.09764456,67.1421437 4.03564456,63.4511437 6.67064456,60.4221437 C8.42364456,58.4091437 10.4686446,56.6641437 12.6806446,55.1771437 C13.8056446,54.4191437 14.9696446,53.7261437 16.1656446,53.0901437 C18.2386446,51.9871437 19.9866446,51.0471437 22.3656446,51.9931437 C23.4796446,52.4371437 24.5106446,53.1811437 25.2656446,54.1121437 C26.1276446,55.1701437 26.3216446,56.1971437 26.2796446,57.5131437 C26.1646446,60.9901437 26.4866446,64.5481437 26.7806446,68.0071437 C26.8226446,68.5211437 26.8656446,69.0341437 26.9156446,69.5441437 C27.0766446,69.8201437 27.2396446,70.0941437 27.4106446,70.3641437 C29.5376446,73.7651437 32.3466446,76.7791437 35.5516446,79.2221437 C43.5756446,85.3341437 53.4716446,87.9711437 63.1346446,88.4551437 C73.1096446,88.9541437 83.2576446,87.9001437 92.9196446,85.8911437 C101.513645,84.1071437 110.024645,80.7031437 116.731645,75.0521437 C118.028645,73.9561437 119.252645,72.7711437 120.393645,71.5081437 C121.035645,70.7981437 121.652645,70.0601437 122.240645,69.2991437 C122.360645,68.1231437 122.464645,66.9471437 122.554645,65.7661437 C122.787645,62.6571437 122.910645,59.5361437 122.897645,56.3991437 C124.674645,54.9651437 127.076645,54.3681437 129.421645,54.4911437 C131.733645,54.6091437 133.901645,55.3661437 136.035645,56.2551437 C136.843645,56.7181437 137.624645,57.2191437 138.380645,57.7651437 C144.872645,62.4651437 149.767645,70.9311437 146.526645,78.5651437 Z M27.4846446,62.3401437 C27.5156446,61.1371437 27.5836446,59.9301437 27.7156446,58.7321437 C27.8006446,57.9791437 27.8826446,57.2151437 28.0326446,56.4691437 C28.1626446,55.8111437 28.0566446,54.8161437 28.9836446,54.7441437 C29.8386446,54.6781437 30.0946446,55.7761437 30.4826446,56.3371437 C30.9936446,57.0791437 31.5446446,57.7981437 32.1236446,58.4891437 C33.2806446,59.8701437 34.5586446,61.1481437 35.9306446,62.3161437 C44.3456446,69.4791437 55.5116446,71.9541437 65.9676446,72.2051437 C84.6736446,72.6531437 105.226645,68.4831437 117.887645,54.2651437 C118.629645,54.2051437 119.515645,54.7441437 119.916645,55.4661437 C120.429645,56.3841437 120.402645,57.4671437 120.395645,58.4601437 C120.388645,59.4561437 120.419645,60.4711437 120.325645,61.4601437 C120.243645,62.3211437 120.165645,63.1881437 120.168645,64.0591437 C120.174645,65.8881437 119.973645,67.5901437 119.165645,69.2561437 C118.059645,71.5401437 116.174645,73.3211437 114.147645,74.7451437 C113.116645,75.4701437 112.148645,76.2761437 111.067645,76.9571437 C109.920645,77.6801437 108.741645,78.3481437 107.535645,78.9661437 C103.775645,80.8911437 99.7776446,82.3221437 95.7006446,83.4091437 C86.8266446,85.7781437 77.4866446,87.0941437 68.2176446,87.3521437 C58.6066446,87.6191437 48.5846446,86.1671437 39.8866446,81.2141437 C34.9966446,78.4291437 30.6936446,74.3421437 27.6666446,69.5061437 C27.8776446,68.4481437 27.5906446,67.2321437 27.5486446,66.1601437 C27.4996446,64.8881437 27.4506446,63.6141437 27.4846446,62.3401437 Z M29.0186446,44.0241437 C29.0786446,40.5441437 29.6536446,37.0231437 30.2376446,33.7151437 C31.4106446,27.0661437 33.6006446,20.8491437 35.8596446,14.5161437 C36.7876446,11.9121437 37.8036446,9.33114366 39.0136446,6.84514366 C39.5216446,6.26014366 40.0696446,5.70514366 40.6576446,5.18314366 C47.5016446,-0.879856336 57.1226446,1.28114366 65.3466446,3.71114366 C70.2886446,5.16814366 75.1986446,6.77214366 80.1416446,8.24414366 C80.9056446,8.75214366 81.5176446,9.42914366 81.7536446,10.3871437 C82.3176446,12.6681437 79.9036446,13.7751437 78.4086446,14.7151437 C78.3816446,14.7331437 78.3696446,14.7601437 78.3696446,14.7881437 C77.4466446,15.2291437 76.5196446,15.6661437 75.5926446,16.1051437 C70.4766446,18.5311437 65.0746446,21.7891437 59.1966446,21.9631437 C54.4056446,22.1061437 49.2036446,19.8671437 47.9516446,14.5991437 C47.9476446,14.5811437 47.9256446,14.5881437 47.9276446,14.6031437 C48.4936446,18.2501437 51.5496446,20.9141437 54.7686446,22.2951437 C58.9826446,24.1031437 63.3646446,23.1171437 67.3326446,21.5601437 C72.2556446,19.6261437 76.9876446,17.1541437 81.7626446,14.9041437 C84.5276446,13.6011437 87.2866446,12.2911437 90.0506446,10.9931437 C90.3806446,10.8351437 90.7076446,10.6811437 91.0396446,10.5251437 C92.8866446,9.65614366 94.7336446,8.78714366 96.5836446,7.93014366 C98.8296446,6.88814366 101.341645,5.91614366 103.823645,5.78714366 C107.307645,6.33114366 110.109645,9.29114366 111.635645,12.5231437 C113.488645,16.4501437 114.199645,20.9781437 114.998645,25.1771437 C116.713645,34.1791437 117.584645,43.2841437 117.702645,52.3721437 C112.840645,58.1131437 106.716645,62.5071437 99.7026446,65.4701437 C91.0296446,69.1341437 81.5156446,70.6691437 72.0316446,71.0271437 C61.3486446,71.4321437 50.3136446,70.2881437 40.8156446,64.2781437 C38.9046446,63.0691437 37.1246446,61.6501437 35.5026446,60.0701437 C33.9036446,58.5131437 32.2686446,56.7831437 31.2286446,54.7961437 C29.4796446,51.4591437 28.9516446,47.7661437 29.0186446,44.0241437 Z M148.860645,71.5171437 C148.390645,67.5831437 146.488645,63.7171437 143.877645,60.6591437 C138.540645,54.4171437 130.969645,51.8381437 123.286645,50.5371437 C123.102645,50.5061437 122.916645,50.4771437 122.732645,50.4481437 C122.692645,49.6301437 122.645645,48.8171437 122.589645,48.0001437 C122.538645,47.2441437 122.483645,46.4921437 122.417645,45.7391437 C122.417645,45.7371437 122.417645,45.7371437 122.417645,45.7371437 C121.798645,38.3771437 120.577645,31.0531437 118.727645,23.8321437 C116.842645,16.4881437 114.034645,4.58714366 104.690645,4.18314366 C99.6026446,3.96314366 94.8516446,7.01214366 90.4856446,9.08114366 C89.9776446,9.32014366 89.4696446,9.56314366 88.9616446,9.79914366 L88.9596446,9.79914366 C86.7676446,9.03914366 84.5746446,8.30414366 82.3646446,7.61414366 C77.4936446,6.09914366 72.6016446,4.65614366 67.7186446,3.18814366 C59.4766446,0.706143664 50.0476446,-2.15985634 42.3006446,2.44414366 C36.1616446,6.09514366 33.1686446,13.4681437 31.2926446,20.2031437 C29.0766446,28.1621437 27.5956446,36.4041437 26.8266446,44.7141437 L26.8266446,44.7171437 C26.7406446,45.6371437 26.6666446,46.5581437 26.5976446,47.4781437 L26.5976446,47.4811437 C26.5926446,47.5431437 26.5886446,47.6051437 26.5856446,47.6681437 C26.5816446,47.7031437 26.5796446,47.7421437 26.5766446,47.7771437 C26.5686446,47.8841437 26.5616446,47.9911437 26.5556446,48.1001437 C26.5506446,48.1711437 26.5456446,48.2451437 26.5416446,48.3161437 C20.4856446,49.8041437 14.6076446,51.8821437 9.74664456,55.7071437 C3.34964456,60.7411437 -1.04835544,68.4681437 0.217644562,77.0301437 C1.50764456,85.7821437 7.60164456,93.1261437 15.0726446,97.7571437 C23.2226446,102.811144 32.7656446,105.092144 41.9786446,106.700144 C60.8116446,109.983144 80.1056446,109.511144 98.3906446,105.366144 C107.451645,103.312144 116.245645,100.381144 124.650645,96.6031437 C128.802645,94.7361437 132.884645,92.6341437 136.758645,90.2751437 C140.149645,88.2101437 143.425645,85.8221437 145.808645,82.6191437 C148.150645,79.4761437 149.343645,75.5491437 148.860645,71.5171437 L148.860645,71.5171437 Z" id="Fill-143-Copy" fill="#0A0B09"></path>
            <path d="M83.6626446,104.963144 C72.0396446,105.575144 60.0876446,105.435144 48.3846446,104.027144 C37.7946446,102.755144 27.0656446,100.029144 18.2626446,95.0191437 C13.6406446,92.3881437 9.60164456,89.3641437 6.65064456,85.6191437 C6.64864456,85.6171437 6.64164456,85.6191437 6.64328899,85.6211437 C11.2126446,92.4111437 19.5476446,97.8481437 28.9206446,100.715144 C39.9216446,104.078144 51.8696446,105.624144 63.4706446,105.956144 C70.2936446,106.150144 77.0426446,105.865144 83.7026446,105.074144 C83.7986446,105.063144 83.7536446,104.958144 83.6626446,104.963144" id="Fill-144-Copy" fill="#0A0B09"></path>
        </g>
    </g>
</svg>