<?xml version="1.0" encoding="UTF-8"?>
<svg width="200px" height="200px" viewBox="0 0 200 200" version="1.1" xmlns="http://www.w3.org/2000/svg" xmlns:xlink="http://www.w3.org/1999/xlink">
    <!-- Generator: Sketch 56.3 (81716) - https://sketch.com -->
    <title>lion</title>
    <desc>Created with Sketch.</desc>
    <g id="lion" stroke="none" stroke-width="1" fill="none" fill-rule="evenodd">
        <g transform="translate(11.000000, 22.000000)">
            <path d="M166.883811,71 C163.477602,77.9019112 153.494788,86.5197442 141,89.6366559 L142.125824,94 C155.975489,90.5448896 167.137375,80.8019437 171,72.9635464 L166.883811,71" id="Fill-19" fill="#F8C648"></path>
            <path d="M178.300484,60 C167.169571,60.7834101 163.253427,66.5565402 165.699287,77 C176.449656,76.2449992 180.834561,70.817947 178.300484,60" id="Fill-20" fill="#E8A040"></path>
            <path d="M121.42736,127.62411 L121.42736,101.314826 L116.699554,101.314826 C116.646647,97.9382382 115.792682,96 112.616562,96 C106.200669,96 101,105.48851 101,117.194583 C101,128.899805 109.000647,138.388315 115.416541,138.388315 L115.416541,150.067137 L111.426964,150.067137 C109.568579,150.067137 108.062361,151.619601 108.062361,153.533994 C108.062361,155.447536 109.568579,157 111.426964,157 L120.314643,157 C121.830781,157 124,152.734343 124,150.067137 L124,130.274285 C124,128.810387 122.848429,127.62411 121.42736,127.62411" id="Fill-21" fill="#E8A040"></path>
            <path d="M41.3829555,101 L41.3829555,149.084331 L37.3777686,149.084331 C35.5129415,149.084331 34,150.632945 34,152.54259 C34,154.451386 35.5129415,156 37.3777686,156 L46.300223,156 C47.8231236,156 50,151.744922 50,149.084331 L50,101 L41.3829555,101" id="Fill-22" fill="#E8A040"></path>
            <path d="M146.369399,126.896926 L146.369399,100.831979 C146.369399,92.3259004 140.452872,85.2583125 132.658311,83.8063226 L132.660002,83.8029479 C107.00678,78.9972918 103.008875,70.3781586 88.9739292,61.5464156 C88.9730836,61.5489467 88.972238,61.5523214 88.9713924,61.5548525 C83.5994193,58.0451036 77.1941468,56 70.3111213,56 C51.3616615,56 36,71.4445822 36,90.4959376 C36,106.337898 46.6264105,119.676631 61.1002125,123.72381 L61.1002125,149.131523 L57.0202864,149.131523 C55.1194214,149.131523 53.5779281,150.669569 53.5779281,152.566183 C53.5779281,154.461954 55.1194214,156 57.0202864,156 L66.1102772,156 C67.6619174,156 69.8798752,151.773959 69.8798752,149.131523 L69.8798752,124.980907 C70.0236239,124.982595 70.166527,124.991032 70.3111213,124.991032 L126.905826,124.991032 L126.905826,124.874602 C129.538964,132.337037 135.328654,137.561163 140.221183,137.561163 L140.221183,149.131523 L136.139566,149.131523 C134.239546,149.131523 132.698053,150.669569 132.698053,152.566183 C132.698053,154.461954 134.239546,156 136.139566,156 L145.231248,156 C146.782042,156 149,151.773959 149,149.131523 L149,129.522489 C149,128.072186 147.822952,126.896926 146.369399,126.896926" id="Fill-23" fill="#F8AE48"></path>
            <path d="M87.2876801,18.9754073 L87.2834257,18.9855015 C81.973948,8.87700475 71.1031327,1.94313285 58.5467284,1.94313285 C54.2863831,1.94313285 50.2225905,2.74898622 46.5,4.19750343 C46.4829824,4.19077397 46.4642631,4.18488569 46.4463947,4.17815622 C44.0264981,1.05316118 39.0905558,0 36.992291,0 C39.1986173,0.693976018 40.3319865,1.52422369 41.0314081,2.60262036 C38.9067662,2.17445819 36.7089487,1.94313285 34.4532716,1.94313285 C21.8968673,1.94313285 11.0269029,8.87700475 5.71572345,18.9855015 L5.71231994,18.9754073 C-0.503342673,30.5601803 -2.85006375,46.9682969 4.88186317,64.3033973 C5.25624942,63.5959623 5.68083746,62.9760104 6.22199576,62.3257759 C9.58551586,69.0417814 14.4550897,77.0321792 21.2246738,84.8888289 C21.3854897,84.5422615 21.8577269,83.6993961 22.1300078,83.166086 C28.1440124,90.6063501 36.6910803,100.295938 46.5,106 C56.3089197,100.295938 64.8559876,90.6063501 70.8699922,83.166086 C71.1422731,83.6993961 71.6145103,84.5422615 71.7753262,84.8888289 C78.5449103,77.0321792 83.4144841,69.0417814 86.7780042,62.3257759 C87.3191625,62.9760104 87.7428997,63.5959623 88.1181368,64.3033973 C95.8500638,46.9682969 93.5033427,30.5601803 87.2876801,18.9754073" id="Fill-24" fill="#BD432C"></path>
            <path d="M36,59 L36,69.2761711 C36,72.9895112 40.7006555,76 46.5,76 C52.2984948,76 57,72.9895112 57,69.2761711 L57,59 L36,59" id="Fill-25" fill="#E8A040"></path>
            <path d="M75,26.0644373 C75,23.7289547 73.0793033,21.835843 70.7108421,21.835843 C69.571388,21.835843 68.5376915,22.2773728 67.7700952,22.9930717 C64.8617578,19.9225471 60.7227077,18 56.1265113,18 C52.5085737,18 49.173794,19.1917101 46.5,21.194994 C43.8253531,19.1917101 40.4914263,18 36.8734887,18 C32.2764394,18 28.1382422,19.9225471 25.2299048,22.9930717 C24.4614556,22.2773728 23.428612,21.835843 22.2891579,21.835843 C19.9206967,21.835843 18,23.7289547 18,26.0644373 C18,28.0820184 19.4336994,29.7665599 21.3509846,30.1887465 C21.088296,31.3199039 20.9450114,32.4964758 20.9450114,33.705847 C20.9450114,37.9470565 22.6524868,41.7921506 25.4226568,44.6179415 L25.4226568,60 L67.5773432,60 L67.5773432,44.6179415 C70.3475132,41.7921506 72.0541357,37.9470565 72.0541357,33.705847 C72.0541357,32.4964758 71.911704,31.3199039 71.6481626,30.1887465 C73.5654477,29.7665599 75,28.0820184 75,26.0644373" id="Fill-26" fill="#F8C648"></path>
            <path d="M70.7107779,21 C69.5713067,21 68.5375948,21.4228756 67.769987,22.1083367 C69.6497733,24.0108739 71.0118508,26.3741442 71.6481124,29 C73.5654262,28.5956504 75,26.9822795 75,25.0499396 C75,22.8131293 73.0792746,21 70.7107779,21 Z M18,25.0499396 C18,26.9822795 19.4337209,28.5956504 21.3501818,29 C21.9864434,26.3741442 23.3493738,24.0108739 25.230013,22.1083367 C24.4615523,21.4228756 23.4278404,21 22.2883692,21 C19.9198725,21 18,22.8131293 18,25.0499396 L18,25.0499396 Z" id="Fill-27" fill="#E8A040"></path>
            <path d="M57.5004249,51 L36.4995751,51 C30.7008457,51 26,55.2527859 26,60.4991323 C26,65.7463464 30.7008457,70 36.4995751,70 C42.2991543,70 46.9991502,65.7463464 47,60.5 C47.0008498,65.7463464 51.7008457,70 57.5004249,70 C63.2991543,70 68,65.7463464 68,60.4991323 C68,55.2527859 63.2991543,51 57.5004249,51" id="Fill-28" fill="#FDEEA3"></path>
            <path d="M46.5,25 C45.1191079,25 44,26.2100636 44,27.7031881 L44,50 L49,50 L49,27.7031881 C49,26.2100636 47.8808921,25 46.5,25" id="Fill-29" fill="#FDEEA3"></path>
            <path d="M36,58.4995823 C36,58.2230576 36.2238931,58 36.4995823,58 C36.7761069,58 37,58.2230576 37,58.4995823 C37,58.7761069 36.7761069,59 36.4995823,59 C36.2238931,59 36,58.7761069 36,58.4995823" id="Fill-30" fill="#212830"></path>
            <path d="M33,58.4995823 C33,58.2230576 33.2238931,58 33.5004177,58 C33.7761069,58 34,58.2230576 34,58.4995823 C34,58.7761069 33.7761069,59 33.5004177,59 C33.2238931,59 33,58.7761069 33,58.4995823" id="Fill-31" fill="#212830"></path>
            <path d="M31,58.4995823 C31,58.2230576 31.2240803,58 31.5,58 C31.7767559,58 32,58.2230576 32,58.4995823 C32,58.7761069 31.7767559,59 31.5,59 C31.2240803,59 31,58.7761069 31,58.4995823" id="Fill-32" fill="#212830"></path>
            <path d="M36,60.4995823 C36,60.2230576 36.2238931,60 36.4995823,60 C36.7761069,60 37,60.2230576 37,60.4995823 C37,60.7761069 36.7761069,61 36.4995823,61 C36.2238931,61 36,60.7761069 36,60.4995823" id="Fill-33" fill="#212830"></path>
            <path d="M33,60.4995823 C33,60.2230576 33.2238931,60 33.5004177,60 C33.7761069,60 34,60.2230576 34,60.4995823 C34,60.7761069 33.7761069,61 33.5004177,61 C33.2238931,61 33,60.7761069 33,60.4995823" id="Fill-34" fill="#212830"></path>
            <path d="M31,60.4995823 C31,60.2230576 31.2240803,60 31.5,60 C31.7767559,60 32,60.2230576 32,60.4995823 C32,60.7761069 31.7767559,61 31.5,61 C31.2240803,61 31,60.7761069 31,60.4995823" id="Fill-35" fill="#212830"></path>
            <path d="M34,59.5004177 C34,59.2238931 34.2240803,59 34.5,59 C34.7767559,59 35,59.2238931 35,59.5004177 C35,59.7761069 34.7767559,60 34.5,60 C34.2240803,60 34,59.7761069 34,59.5004177" id="Fill-36" fill="#212830"></path>
            <path d="M32,59.5004177 C32,59.2238931 32.2230576,59 32.5004177,59 C32.7761069,59 33,59.2238931 33,59.5004177 C33,59.7761069 32.7761069,60 32.5004177,60 C32.2230576,60 32,59.7761069 32,59.5004177" id="Fill-37" fill="#212830"></path>
            <path d="M57,58.4995823 C57,58.2230576 56.7761069,58 56.4995823,58 C56.2230576,58 56,58.2230576 56,58.4995823 C56,58.7761069 56.2230576,59 56.4995823,59 C56.7761069,59 57,58.7761069 57,58.4995823" id="Fill-38" fill="#212830"></path>
            <path d="M59,58.4995823 C59,58.2230576 58.7767559,58 58.5,58 C58.2232441,58 58,58.2230576 58,58.4995823 C58,58.7761069 58.2232441,59 58.5,59 C58.7767559,59 59,58.7761069 59,58.4995823" id="Fill-39" fill="#212830"></path>
            <path d="M62,58.4995823 C62,58.2230576 61.7769424,58 61.5004177,58 C61.2238931,58 61,58.2230576 61,58.4995823 C61,58.7761069 61.2238931,59 61.5004177,59 C61.7769424,59 62,58.7761069 62,58.4995823" id="Fill-40" fill="#212830"></path>
            <path d="M57,60.4995823 C57,60.2230576 56.7761069,60 56.4995823,60 C56.2230576,60 56,60.2230576 56,60.4995823 C56,60.7761069 56.2230576,61 56.4995823,61 C56.7761069,61 57,60.7761069 57,60.4995823" id="Fill-41" fill="#212830"></path>
            <path d="M59,60.4995823 C59,60.2230576 58.7767559,60 58.5,60 C58.2232441,60 58,60.2230576 58,60.4995823 C58,60.7761069 58.2232441,61 58.5,61 C58.7767559,61 59,60.7761069 59,60.4995823" id="Fill-42" fill="#212830"></path>
            <path d="M62,60.4995823 C62,60.2230576 61.7769424,60 61.5004177,60 C61.2238931,60 61,60.2230576 61,60.4995823 C61,60.7761069 61.2238931,61 61.5004177,61 C61.7769424,61 62,60.7761069 62,60.4995823" id="Fill-43" fill="#212830"></path>
            <path d="M58,59.5004177 C58,59.2238931 57.7761069,59 57.5004177,59 C57.2238931,59 57,59.2238931 57,59.5004177 C57,59.7761069 57.2238931,60 57.5004177,60 C57.7761069,60 58,59.7761069 58,59.5004177" id="Fill-44" fill="#212830"></path>
            <path d="M61,59.5004177 C61,59.2238931 60.7761069,59 60.4995823,59 C60.2238931,59 60,59.2238931 60,59.5004177 C60,59.7761069 60.2238931,60 60.4995823,60 C60.7761069,60 61,59.7761069 61,59.5004177" id="Fill-45" fill="#212830"></path>
            <path d="M34,42.9995824 C34,41.8953853 34.8953853,41 35.9995824,41 C37.1046147,41 38,41.8953853 38,42.9995824 C38,44.1046147 37.1046147,45 35.9995824,45 C34.8953853,45 34,44.1046147 34,42.9995824" id="Fill-46" fill="#212830"></path>
            <path d="M59,42.9995824 C59,41.8953853 58.1046147,41 56.9995824,41 C55.8953853,41 55,41.8953853 55,42.9995824 C55,44.1046147 55.8953853,45 56.9995824,45 C58.1046147,45 59,44.1046147 59,42.9995824" id="Fill-47" fill="#212830"></path>
            <path d="M49.9480019,53 L43.0528771,53 C41.3668943,53 40,54.2247242 40,55.7355325 C40,57.247129 41.3668943,58.4726413 43.0528771,58.4726413 L44.3670295,58.4726413 C44.8144567,58.4726413 45.2416661,58.6026796 45.6011901,58.8012835 L45.6011901,59.1937627 C45.6011901,59.6390453 46.0037866,60 46.5004395,60 C46.9970924,60 47.399689,59.6390453 47.399689,59.1937627 L47.399689,58.8012835 C47.7583339,58.6026796 48.1864223,58.4726413 48.6329705,58.4726413 L49.9480019,58.4726413 C51.6331057,58.4726413 53,57.247129 53,55.7355325 C53,54.2247242 51.6331057,53 49.9480019,53" id="Fill-48" fill="#212830"></path>
        </g>
        <g id="typeText" transform="translate(10.000000, 6.000000)" fill="#725F5F" fill-opacity="0.87" font-family="Roboto-Black, Roboto Black" font-size="17" font-weight="700">
            <g id="vegetable">
                <text>
                    <tspan x="0" y="16">animal</tspan>
                </text>
            </g>
        </g>
        <g id="firstLetter" transform="translate(10.000000, 152.000000)">
            <g id="Group" transform="translate(0.000000, -5.000000)">
                <rect id="Rectangle" stroke="#979797" x="0.5" y="6.5" width="34" height="38"></rect>
                <text id="C" fill="#131313" font-family="Roboto-Bold, Roboto" font-size="43" font-weight="bold">
                    <tspan x="5.85766602" y="40">L</tspan>
                </text>
            </g>
        </g>
        <g id="nameText" transform="translate(104.000000, 161.000000)" fill="#454545" fill-opacity="0.87" font-family="Roboto-Black, Roboto Black" font-size="26" font-weight="700">
            <text id="Carrot">
                <tspan x="35.4980469" y="28">Lion</tspan>
            </text>
        </g>
        <g id="colorText" transform="translate(133.000000, 5.000000)" fill="#454545" fill-opacity="0.87" font-family="Roboto-Black, Roboto Black" font-size="18" font-weight="700">
            <text id="orange">
                <tspan x="0.213867188" y="17">orange</tspan>
            </text>
        </g>
    </g>
</svg>