<?xml version="1.0" encoding="UTF-8"?>
<svg width="200px" height="200px" viewBox="0 0 200 200" version="1.1" xmlns="http://www.w3.org/2000/svg" xmlns:xlink="http://www.w3.org/1999/xlink">
    <!-- Generator: Sketch 56.3 (81716) - https://sketch.com -->
    <title>monkey</title>
    <desc>Created with Sketch.</desc>
    <g id="monkey" stroke="none" stroke-width="1" fill="none" fill-rule="evenodd">
        <g id="typeText" transform="translate(10.000000, 6.000000)" fill="#725F5F" fill-opacity="0.87" font-family="Roboto-Black, Roboto Black" font-size="17" font-weight="700">
            <g id="vegetable">
                <text>
                    <tspan x="0" y="16">animal</tspan>
                </text>
            </g>
        </g>
        <g id="firstLetter" transform="translate(10.000000, 152.000000)">
            <g id="Group" transform="translate(0.000000, -5.000000)">
                <rect id="Rectangle" stroke="#979797" x="0.5" y="6.5" width="39" height="38"></rect>
                <text id="C" fill="#131313" font-family="Roboto-Bold, Roboto" font-size="43" font-weight="bold">
                    <tspan x="1.16650391" y="40">M</tspan>
                </text>
            </g>
        </g>
        <g id="nameText" transform="translate(104.000000, 161.000000)" fill="#454545" fill-opacity="0.87" font-family="Roboto-Black, Roboto Black" font-size="26" font-weight="700">
            <text id="Carrot">
                <tspan x="-7.89453125" y="28">Monkey</tspan>
            </text>
        </g>
        <g id="colorText" transform="translate(133.000000, 5.000000)" fill="#454545" fill-opacity="0.87" font-family="Roboto-Black, Roboto Black" font-size="18" font-weight="700">
            <text id="orange">
                <tspan x="6.71777344" y="17">brown</tspan>
            </text>
        </g>
        <g transform="translate(24.000000, 25.000000)">
            <path d="M2.4027221,101.153 C11.1627221,101.153 43.6927221,120.653 68.2227221,123.765 C92.7527221,126.877 113.352722,131.363 126.902722,130.265 C129.122722,134.452 129.192722,140.426 124.342722,143.814 C104.202722,143.814 85.3427221,140.152 59.9827221,132.737 C34.6227221,125.321 14.9427221,112.138 4.2327221,112.138 C-0.297277898,107.608 -1.6272779,101.153 2.4027221,101.153" id="Fill-929" fill="#3F2B23"></path>
            <path d="M139.892722,12.916 C138.642722,13.259 137.502722,13.926 136.582722,14.844 C135.162722,16.261 134.382722,18.145 134.382722,20.15 C134.382722,22.154 135.162722,24.039 136.582722,25.457 C139.512722,28.384 144.272722,28.383 147.192722,25.457 C147.612722,25.045 147.842722,24.487 147.842722,23.904 C147.842722,24.487 147.612722,25.045 147.192722,25.457 C150.012722,22.641 151.562722,18.896 151.562722,14.911 C151.562722,10.926 150.012722,7.18 147.192722,4.362 C141.382722,-1.454 131.912722,-1.454 126.102722,4.362 C123.282722,7.179 121.732722,10.925 121.732722,14.909 L121.732722,58.859 C121.732722,60.071 122.712722,61.055 123.932722,61.055 C125.142722,61.055 126.122722,60.071 126.122722,58.859 L126.122722,14.909 C126.122722,12.099 127.222722,9.456 129.202722,7.469 C133.312722,3.366 139.982722,3.366 144.092722,7.469 C146.082722,9.456 147.172722,12.1 147.172722,14.911 C147.172722,17.722 146.072722,20.363 144.092722,22.35 C143.672722,22.762 143.442722,23.321 143.442722,23.904 C143.442722,23.321 143.672722,22.762 144.092722,22.351 C142.872722,23.563 140.902722,23.563 139.692722,22.35 C139.102722,21.762 138.782722,20.981 138.782722,20.15 C138.782722,19.319 139.102722,18.538 139.692722,17.951 C140.072722,17.57 140.542722,17.294 141.052722,17.153 C142.222722,16.829 142.912722,15.62 142.592722,14.45 C142.272722,13.28 141.062722,12.593 139.892722,12.916" id="Fill-930" fill="#8E6E58"></path>
            <path d="M92.6427221,116.856 C92.6427221,116.854 92.6427221,116.852 92.6427221,116.851 C91.7827221,111.542 89.8627221,104.406 87.0527221,99.963 C87.0527221,99.962 87.0527221,99.961 87.0527221,99.959 C93.4527221,97.29 101.842722,90.897 110.012722,79.442 C107.472722,76.155 111.412722,72.868 107.592722,69.116 C103.772722,65.367 92.0227221,68.212 84.7427221,77.822 C79.1227221,85.245 75.4127221,92.084 75.5527221,96.613 C75.5527221,96.615 75.5527221,96.618 75.5527221,96.62 C75.5827221,97.421 75.7227221,98.147 76.0027221,98.793 C77.5127221,104.494 82.4127221,117.533 85.1027221,122.717 L78.8427221,121.909 C76.2327221,121.574 74.1727221,124.321 73.9427221,126.174 L90.3127221,128.283 C91.4327221,128.428 92.4527221,127.787 92.8627221,126.795 L92.8727221,126.798 C93.4527221,125.763 93.3327221,122.941 93.0727221,120.381 C92.9927221,119.362 92.8527221,118.165 92.6427221,116.856" id="Fill-931" fill="#8E6E58"></path>
            <path d="M49.9427221,73.586 C47.2727221,63.268 42.3027221,56.223 38.6327221,56.58 C31.3327221,57.29 34.3227221,66.621 37.0027221,76.94 C38.0627221,81.04 39.5027221,84.71 41.0727221,87.591 C39.0427221,89.402 25.1727221,101.136 21.1427221,103.599 L17.0927221,101.891 C15.0427221,101.026 12.7427221,102.803 12.1227221,104.262 L21.0627221,108.032 C22.2527221,108.534 23.7527221,108.1 26.1127221,106.776 C32.1827221,103.368 45.0127221,96.127 48.6627221,93.821 C51.9327221,92.4 52.5227221,83.555 49.9427221,73.586" id="Fill-932" fill="#8E6E58"></path>
            <path d="M102.642722,42.517 L59.7127221,42.517 C57.5127221,42.517 54.9027221,40.32 54.9027221,37.84 L47.2627221,49.52 C35.7227221,53.365 25.1027221,55.913 25.1027221,55.913 C29.1327221,63.252 50.0027221,77.9 62.8227221,78.998 C75.6427221,80.097 88.6127221,82.844 104.092722,77.717 L104.092722,93.696 C117.562722,92.943 128.252722,81.785 128.252722,68.128 C128.252722,53.984 116.782722,42.517 102.642722,42.517" id="Fill-933" fill="#AB896F"></path>
            <path d="M112.762722,119.575 C112.762722,119.573 112.762722,119.571 112.762722,119.571 C111.232722,114.415 108.412722,107.582 105.072722,103.535 C105.062722,103.534 105.062722,103.533 105.062722,103.532 C111.062722,100.068 118.572722,92.654 125.212722,80.247 C125.902722,75.794 125.762722,73.549 121.492722,70.317 C117.222722,67.086 105.932722,71.409 99.9427221,81.872 C95.3127221,89.951 92.5127221,97.207 93.2327221,101.683 C93.2327221,101.685 93.2327221,101.688 93.2327221,101.69 C93.3627221,102.48 93.6027221,103.182 93.9527221,103.787 C96.1827221,109.248 102.702722,121.556 106.042722,126.352 L99.7227221,126.352 C97.0927221,126.352 95.4027221,129.339 95.4027221,131.207 L111.922722,131.207 C113.042722,131.207 113.982722,130.441 114.252722,129.405 L114.262722,129.407 C114.712722,128.306 114.232722,125.523 113.642722,123.017 C113.432722,122.016 113.142722,120.848 112.762722,119.575" id="Fill-934" fill="#AB896F"></path>
            <path d="M61.2527221,78.721 C57.9827221,68.575 52.6127221,61.831 48.9727221,62.401 C41.7227221,63.532 45.2527221,72.675 48.5227221,82.821 C49.8227221,86.853 51.4727221,90.433 53.2127221,93.217 L53.2027221,93.217 C51.2827221,95.143 38.1227221,107.661 34.2327221,110.354 L30.1027221,108.885 C28.0027221,108.139 25.8027221,110.047 25.2727221,111.539 L34.4127221,114.784 C35.6327221,115.217 37.1127221,114.696 39.3827221,113.237 C45.2427221,109.484 57.6327221,101.511 61.1427221,98.997 C64.3227221,97.388 64.4027221,88.524 61.2527221,78.721" id="Fill-935" fill="#AB896F"></path>
            <path d="M52.3427221,27.879 C54.1427221,26.793 56.4727221,29.877 54.5927221,34.24 C52.6327221,32.287 52.3427221,27.879 52.3427221,27.879" id="Fill-936" fill="#8E6E58"></path>
            <path d="M16.9027221,27.879 C15.1027221,26.793 12.7827221,29.877 14.6627221,34.24 C16.6127221,32.287 16.9027221,27.879 16.9027221,27.879" id="Fill-937" fill="#8E6E58"></path>
            <path d="M14.3427221,37.84 C14.3427221,26.535 23.4227221,17.371 34.6227221,17.371 C45.8227221,17.371 54.9027221,26.535 54.9027221,37.84 C54.9027221,49.145 45.8227221,58.309 34.6227221,58.309 C23.4227221,58.309 14.3427221,49.145 14.3427221,37.84" id="Fill-938" fill="#C49B7D"></path>
            <path d="M24.2427221,20.256 C27.3027221,22.009 30.8427221,23.017 34.6227221,23.017 C38.4027221,23.017 41.9427221,22.009 45.0027221,20.256 C41.9727221,18.425 38.4227221,17.371 34.6227221,17.371 C30.8327221,17.371 27.2827221,18.425 24.2427221,20.256" id="Fill-939" fill="#8E6E58"></path>
            <path d="M49.6427221,35.788 C49.6427221,30.682 42.9127221,26.542 34.6227221,26.542 C26.3327221,26.542 19.6127221,30.682 19.6127221,35.788 C19.6127221,38.614 21.6727221,41.143 24.9127221,42.839 C24.9127221,44.76 25.3427221,48.754 27.5327221,51.645 C29.7327221,50.946 34.6227221,48.238 34.6227221,48.238 C34.6227221,48.238 39.5227221,50.946 41.7227221,51.645 C43.9027221,48.754 44.3327221,44.76 44.3327221,42.839 C47.5827221,41.143 49.6427221,38.614 49.6427221,35.788" id="Fill-940" fill="#EFD3BC"></path>
            <path d="M34.6227221,48.238 C34.6227221,48.238 29.7327221,50.946 27.5327221,51.645 C28.9827221,53.574 31.2127221,55.013 34.6227221,55.013 C38.0327221,55.013 40.2627221,53.574 41.7227221,51.645 C39.5227221,50.946 34.6227221,48.238 34.6227221,48.238" id="Fill-941" fill="#DCB89B"></path>
            <path d="M25.1927221,36.888 C25.1927221,35.775 26.0927221,34.872 27.2127221,34.872 C28.3227221,34.872 29.2227221,35.775 29.2227221,36.888 C29.2227221,37.999 28.3227221,38.901 27.2127221,38.901 C26.0927221,38.901 25.1927221,37.999 25.1927221,36.888" id="Fill-942" fill="#212830"></path>
            <path d="M32.0527221,43.227 C32.0527221,42.279 32.3227221,41.51 32.6527221,41.51 C32.9927221,41.51 33.2627221,42.279 33.2627221,43.227 C33.2627221,44.174 32.9927221,44.943 32.6527221,44.943 C32.3227221,44.943 32.0527221,44.174 32.0527221,43.227" id="Fill-943" fill="#212830"></path>
            <path d="M44.0527221,36.888 C44.0527221,35.775 43.1527221,34.872 42.0427221,34.872 C40.9327221,34.872 40.0227221,35.775 40.0227221,36.888 C40.0227221,37.999 40.9327221,38.901 42.0427221,38.901 C43.1527221,38.901 44.0527221,37.999 44.0527221,36.888" id="Fill-944" fill="#212830"></path>
            <path d="M37.2027221,43.227 C37.2027221,42.279 36.9227221,41.51 36.5927221,41.51 C36.2627221,41.51 35.9927221,42.279 35.9927221,43.227 C35.9927221,44.174 36.2627221,44.943 36.5927221,44.943 C36.9227221,44.943 37.2027221,44.174 37.2027221,43.227" id="Fill-945" fill="#212830"></path>
        </g>
    </g>
</svg>