<?xml version="1.0" encoding="UTF-8"?>
<svg width="200px" height="200px" viewBox="0 0 200 200" version="1.1" xmlns="http://www.w3.org/2000/svg" xmlns:xlink="http://www.w3.org/1999/xlink">
    <!-- Generator: Sketch 56.3 (81716) - https://sketch.com -->
    <title>octopus</title>
    <desc>Created with Sketch.</desc>
    <g id="octopus" stroke="none" stroke-width="1" fill="none" fill-rule="evenodd">
        <g transform="translate(31.000000, 15.000000)">
            <path d="M45.1605565,60.6871265 C37.646969,66.8040989 27.5707376,69.7940125 19.0774659,66.1419676 C14.9158138,64.3612916 11.4668583,61.1398533 10.2887569,56.8750789 C8.8983785,52.4628365 9.12305665,47.2277228 11.57555,43.9222277 C13.9733327,40.4095401 18.3771703,40.5562708 21.7327531,44.1176228 C24.9263925,47.4098458 26.8573115,52.8027503 25.3276035,57.0129615 C24.6426269,59.0929975 22.8400954,60.5639908 21.0018196,60.2749535 C19.0665237,59.9306157 17.1086141,58.1492024 16.1267414,55.9371825 C15.0507665,53.8143807 14.7954505,51.0773747 16.0202382,49.2613064 C17.1968806,47.2586911 19.8266362,47.8647845 21.1564682,50.0709057 C21.692632,50.9461282 22.0544513,51.396643 22.5752961,51.2277921 C23.022464,51.0958082 23.1822189,50.3569936 22.5016192,49.2288635 C21.7473426,47.9259837 20.5955023,46.7189582 18.9381362,46.2352632 C17.2041753,45.7397707 15.3286963,46.6688191 14.3439057,47.9761228 C12.2918939,50.7109168 12.591708,54.2442499 13.7231229,57.0092748 C14.8246294,59.8030559 16.982415,62.4891854 20.4065684,63.401275 C24.1604443,64.2388932 27.5262397,61.4664949 28.7079884,58.4655212 C31.2341586,52.2689161 29.1186825,45.6291697 25.2014044,40.8858617 C23.1523105,38.5322726 20.3124662,36.4352777 16.6439389,36.0496489 C12.8630725,35.6610707 9.36524219,37.6010122 7.14034492,40.2016102 C2.68836197,45.6335938 2.33529631,52.6302127 3.71473261,58.662391 C5.10146366,65.2239794 9.03260181,71.6373624 14.6648745,74.4215581 C26.6114786,80.6631409 41.4015744,80.6137391 51,73.7151864 L45.1605565,60.6871265" id="Fill-564" fill="#795FA5"></path>
            <path d="M75,79 C86.991982,77.8252644 99.178596,78.1167675 111.433036,76.4804247 C119.295725,75.5303137 123.750879,73.1946543 129.613429,69.6130192 C135.808476,65.8830882 139.07962,58.2334948 137.678859,51.4177021 C136.489688,44.7167659 130.815872,38.4454514 123.478837,38.047815 C116.497153,37.4350043 109.120307,42.7823776 109.109249,50.0808588 C109.003823,53.5701725 110.752562,56.9206406 113.537863,58.9880589 C116.362975,61.1354408 120.496692,61.3069987 123.436077,59.5179985 C126.515538,58.000147 128.297452,53.9692627 127.044878,50.7423745 C126.113003,47.4616927 121.985184,45.2278049 118.771545,46.8750518 C117.417969,47.5162132 117.215964,48.3674603 117.56468,48.6495132 C117.981222,49.0304299 118.486233,48.749831 119.421056,48.3158476 C121.814144,47.3163046 124.445361,48.9889943 125.015987,51.3704509 C125.68614,53.7300993 124.450522,56.2220509 122.155487,57.2245016 C117.514547,59.7491655 112.176176,55.0153299 112.818314,50.2029847 C113.04391,45.4248058 118.38007,42.0198171 123.046813,42.7307648 C127.788018,43.1996413 131.366591,47.7073985 131.92837,52.3263775 C132.553551,56.9969693 130.098535,61.7322588 126.004629,63.8367511 C121.66817,66.1753182 115.44732,66.5787701 109.940858,67.0621855 C98.7620541,67.8938052 91.4707285,66.2349273 80.2705447,61.5149036 L75,79" id="Fill-565" fill="#795FA5"></path>
            <path d="M120.980802,94.4787868 C120.969796,88.059057 116.214394,82.1133361 110.163932,80.6824768 C104.307179,78.7599437 96.7921614,82.3827263 95.3444823,88.5794364 C94.4874681,91.4779569 94.8499382,94.9123136 96.7591429,97.4435508 C98.6243229,99.9343058 101.780161,101.311434 104.789249,101.027323 C107.910601,100.728492 110.68269,98.3150206 111.208051,95.2891654 C112.021775,92.3582592 110.113304,88.8179129 107.115955,88.1569501 C105.861985,87.7911389 105.219958,88.2577874 105.272787,88.7075071 C105.309474,89.2735209 105.802551,89.4207286 106.663234,89.6871747 C108.77055,90.3827313 109.849155,92.7321669 109.149163,94.7974915 C108.642145,96.8996182 106.605268,98.3290054 104.61315,98.3827362 C100.104287,98.5240556 97.0922632,93.6971136 98.8642576,89.7041035 C100.289191,85.6235048 104.869227,83.7399817 108.854197,85.2584296 C112.814953,86.539873 115.482116,90.510802 115.183482,94.501604 C115.104971,98.6778877 112.567681,102.511177 109.087528,104.380716 C105.507586,106.283376 101.477858,106.074341 97.7254852,104.072316 C95.4413367,102.815897 93.2408352,101.202501 91.0748196,99.3771245 C82.8546734,91.5096065 74.8817992,78.6546901 80.2234635,67.7473322 C80.5998747,66.9803799 82.3711354,65.6672868 82.3711354,65.6672868 C95.6027606,55.5048 104.68946,45.830307 104.68946,25.4228972 C104.68946,5.01475134 81.750387,-8.01902247 59.8693746,5.58886155 C34.8039085,21.1759537 42.4069751,53.6315815 46.73387,65.7784286 C46.73387,65.7784286 46.8996963,66.2384528 46.8996963,66.9391617 C46.8996963,74.4636856 44.0388242,78.6738272 41.9997466,81.9359508 C36.3653181,90.644761 31.7236466,100.289813 25.2388075,106.259087 C22.0697624,109.100932 18.205127,110.266081 14.2766558,109.274637 C10.4531101,108.290554 7.07714893,105.174166 6.00954982,101.138465 C4.7724556,97.3324089 6.41897958,92.8381565 9.9600334,90.6469692 C13.4710037,88.2202495 18.3658172,88.9548161 20.7196714,92.5768627 C23.3890361,96.0303564 21.610438,101.440241 17.1969613,102.379426 C15.2503355,102.804121 12.9331685,101.902473 11.9411452,99.9821484 C10.7693542,98.1442596 11.259496,95.60419 13.1415521,94.425792 C13.913452,93.9613516 14.3581015,93.6993218 14.2583122,93.1414044 C14.204015,92.6924208 13.4680687,92.392117 12.3381012,93.0479275 C9.58435591,94.406655 8.5703202,98.2995638 10.0576215,100.952247 C11.2866445,103.764651 14.5532777,105.4465 17.6548182,104.990156 C20.6448294,104.547061 23.3816986,102.455238 24.6033842,99.5898397 C25.8558871,96.6751263 25.389959,93.2540183 23.8703729,90.6425529 C20.9918909,84.9713745 12.8333792,83.250516 7.60177667,86.5170558 C2.0664037,89.3530131 -1.13859487,96.2636807 0.374387511,102.500873 C1.54837966,108.584969 6.27589929,113.846174 12.2808691,115.845255 C18.2667616,118.02761 25.4809433,116.242716 30.1534321,112.463157 C34.0063276,109.292302 37.0748496,105.818199 39.7977776,102.264604 C39.8872945,102.151254 39.9753439,102.043793 40.0685295,101.916458 C44.9281233,95.281805 47.0192968,102.932928 44.3712108,107.703931 C41.8838149,112.06864 39.2907597,116.403172 36.6712898,120.65306 C33.9938539,124.957415 31.2298361,129.211718 28.2963233,133.240058 C26.8317681,135.239876 25.303377,137.215404 23.7309613,138.867074 C22.2135764,140.538618 20.9229188,141.209886 18.847154,141.611763 C15.0668992,142.320568 10.695246,140.034432 9.25196939,136.294619 C7.60177667,132.771202 9.88665889,127.811037 13.7931178,126.870379 C17.5807099,125.598504 22.2774123,129.952909 20.3146441,133.830361 C19.4268126,135.639545 17.3246329,136.887866 15.404422,136.139315 C13.4644,135.526195 12.2449156,133.070769 13.536307,131.323413 C14.0646035,130.663923 14.3779126,130.273822 14.1306405,129.778468 C13.9464705,129.355246 13.1305459,129.302987 12.2683955,130.358467 C10.087705,132.905161 11.6865356,137.032866 14.618581,138.111899 C17.6041898,139.492707 21.1767946,137.776265 22.6501548,135.070587 C26.1347102,129.024028 19.4554286,121.689403 13.0593727,123.238028 C6.64350558,124.365639 2.60937506,131.648007 4.77539058,137.873422 C6.69046527,143.977391 13.1026636,148.019716 19.5163295,147.388195 C22.5569692,147.266012 26.0870168,145.492159 28.1106858,143.440083 C30.2128654,141.511662 31.9569775,139.520677 33.6695386,137.497306 C37.0631096,133.450565 40.185195,129.290475 43.2258347,125.076653 C47.0794639,119.676337 50.803954,114.289269 54.39637,108.721136 C54.4029737,108.711568 54.4110449,108.701999 54.4176486,108.691695 C57.4700282,104.04729 61.7301522,104.746527 63.1081254,109.264333 C63.1110604,109.274637 63.1161966,109.284942 63.1198654,109.295246 C64.3151361,113.124856 65.5654378,116.931648 66.8626991,120.756841 C68.5569165,125.672108 70.345787,130.558669 72.4266881,135.417997 C73.4818136,137.850605 74.577295,140.261868 76.0315778,142.718029 C77.3860712,145.25221 80.2498783,147.985122 83.1261591,148.985399 C89.0775655,151.362804 96.3849329,149.485169 99.9861538,144.160665 C103.849322,138.827328 102.080262,130.69042 96.2645987,127.753626 C90.5868792,124.420842 82.0820398,129.50687 83.6794029,136.304188 C84.3089561,139.32121 87.2358653,141.998183 90.4907586,141.540367 C93.6077077,141.357829 96.3277008,137.871214 94.9739411,134.80046 C94.4537158,133.541098 93.6568686,133.353408 93.3589681,133.705971 C92.9788882,134.108584 93.1667269,134.573024 93.4822373,135.356906 C94.2152486,137.404565 92.3405299,139.400702 90.3073223,139.424992 C88.252836,139.584712 86.5997083,137.782889 86.272458,135.793377 C85.5078956,131.512575 91.2567884,128.705324 94.5168179,131.017957 C97.9837634,133.048688 98.7475921,138.459309 96.1538032,141.354149 C93.6854847,144.548557 88.8412996,145.336855 85.4337874,143.651326 C83.5642049,142.663562 82.5259556,141.640468 81.5442046,139.612682 C80.5162278,137.576062 79.62326,135.241348 78.7985305,132.901481 C77.1527403,128.194513 75.7336773,123.3212 74.4122023,118.424335 C73.3064485,114.256883 72.2410506,110.034965 71.2475598,105.805687 C69.6421255,98.5490809 74.608846,96.7318013 79.5579567,101.10976 C79.5851052,101.133313 79.614455,101.154658 79.6416036,101.177475 C83.9494211,104.88711 88.6123711,108.480452 94.4265672,111.272246 C99.8621509,113.826301 107.292054,113.835869 112.587492,110.285218 C117.944565,106.908273 121.285306,100.668872 120.980802,94.4787868" id="Fill-566" fill="#9772C5"></path>
            <path d="M44,70.5 C44,68.0147215 46.2385795,66 49,66 C51.7614205,66 54,68.0147215 54,70.5 C54,72.9845955 51.7614205,75 49,75 C46.2385795,75 44,72.9845955 44,70.5" id="Fill-567" fill="#DD7D90"></path>
            <path d="M73,69.5 C73,67.0147215 75.2387493,65 77.9996206,65 C80.7612507,65 83,67.0147215 83,69.5 C83,71.9852785 80.7612507,74 77.9996206,74 C75.2387493,74 73,71.9852785 73,69.5" id="Fill-568" fill="#DD7D90"></path>
            <path d="M50,70 C50,68.8952949 49.1040424,68 47.9993373,68 C46.8952949,68 46,68.8952949 46,70 C46,71.1047051 46.8952949,72 47.9993373,72 C49.1040424,72 50,71.1047051 50,70" id="Fill-569" fill="#212830"></path>
            <path d="M80,70 C80,68.8956608 79.1047051,68 77.9993373,68 C76.8952949,68 76,68.8956608 76,70 C76,71.1043392 76.8952949,72 77.9993373,72 C79.1047051,72 80,71.1043392 80,70" id="Fill-570" fill="#212830"></path>
            <path d="M91.2164251,19.0131374 C89.3117901,14.7383508 89.6842807,10.3717834 92.0500603,9.25939904 C94.415125,8.14774895 97.8776427,10.7117398 99.7829926,14.9857921 C101.688342,19.2620471 101.315852,23.6286146 98.9500723,24.7402646 C96.5850076,25.852649 93.1224899,23.2893924 91.2164251,19.0131374" id="Fill-571" fill="#DD7D90"></path>
            <path d="M83.242074,14.2233215 C81.9006623,12.7111282 81.5981003,10.9381137 82.5685517,10.2618312 C83.5390032,9.58554878 85.4139217,10.2646818 86.7569428,11.776875 C88.0999639,13.2897809 88.4017212,15.0627954 87.4312697,15.7383652 C86.4608183,16.4139351 84.5858998,15.7362274 83.242074,14.2233215" id="Fill-572" fill="#DD7D90"></path>
            <path d="M98.0426276,32.2634054 C98.2696927,30.335443 99.3276743,28.8772417 100.409072,29.0081704 C101.49047,29.1376605 102.183018,30.8073622 101.957372,32.7346051 C101.731017,34.6640063 100.672326,36.1214882 99.590928,35.9919982 C98.5095302,35.8610695 97.8169816,34.1928065 98.0426276,32.2634054" id="Fill-573" fill="#DD7D90"></path>
            <path d="M86.7344344,20.2165651 C86.0225315,19.4891863 85.7874566,18.5783305 86.2101907,18.1826468 C86.6335926,17.7869632 87.5538573,18.0553229 88.2657602,18.7833547 C88.9776631,19.5113864 89.212738,20.4215893 88.7893361,20.8179259 C88.366602,21.2129566 87.4463373,20.9439439 86.7344344,20.2165651" id="Fill-574" fill="#DD7D90"></path>
            <path d="M79.4452103,9.99381345 C78.6175304,9.93196177 77.9704842,9.43819672 78.0010391,8.88886999 C78.0306954,8.34059159 78.7262701,7.94536988 79.5539501,8.00617322 C80.38163,8.06697656 81.0286762,8.56178995 80.99902,9.11006835 C80.968465,9.66044341 80.273789,10.0546168 79.4452103,9.99381345" id="Fill-575" fill="#DD7D90"></path>
            <path d="M94.2171848,28.3832149 C93.7880123,27.3001205 94.0145675,26.2497122 94.7233005,26.0372534 C95.4320334,25.8262803 96.3544977,26.532743 96.7828152,27.6158373 C97.2119877,28.6996745 96.9854325,29.7500829 96.2766995,29.9625417 C95.5679666,30.1742576 94.6463572,29.467052 94.2171848,28.3832149" id="Fill-576" fill="#DD7D90"></path>
            <path d="M101.029128,26.6193939 C100.897484,25.7937644 101.224399,25.0708585 101.760847,25.0046161 C102.297295,24.9402938 102.839229,25.5556758 102.970872,26.3822654 C103.102516,27.2078949 102.775601,27.9298407 102.239153,27.9951231 C101.702705,28.0613654 101.161868,27.4450234 101.029128,26.6193939" id="Fill-577" fill="#DD7D90"></path>
            <path d="M91.5259215,28.5146183 C91.040021,28.0406143 90.8580011,27.4271042 91.1194619,27.1417506 C91.3824652,26.858775 91.9879126,27.0125489 92.4745844,27.4865528 C92.960485,27.9597641 93.1425048,28.5740669 92.8795015,28.8578352 C92.6188121,29.1416034 92.011822,28.9870369 91.5259215,28.5146183" id="Fill-578" fill="#DD7D90"></path>
            <path d="M98.1324779,37.7125853 C98.472263,36.6199707 99.359974,35.8623075 100.115151,36.0210072 C100.870328,36.1797069 101.207445,37.1948 100.867659,38.2874147 C100.527874,39.3800293 99.6401633,40.1376925 98.8849864,39.9789928 C98.1289199,39.8202931 97.7926928,38.8052 98.1324779,37.7125853" id="Fill-579" fill="#DD7D90"></path>
            <path d="M82.0724353,8.60380042 C81.2793715,8.04255089 80.826761,7.0939854 81.0623574,6.48432138 C81.2986174,5.87465736 82.1334913,5.83520851 82.9272188,6.39645803 C83.7216099,6.95770756 84.1735567,7.90716961 83.9372967,8.51683364 C83.7017003,9.12560109 82.8668265,9.16415338 82.0724353,8.60380042" id="Fill-580" fill="#DD7D90"></path>
        </g>
        <g id="typeText" transform="translate(10.000000, 6.000000)" fill="#725F5F" fill-opacity="0.87" font-family="Roboto-Black, Roboto Black" font-size="17" font-weight="700">
            <g id="vegetable">
                <text>
                    <tspan x="0" y="16">animal</tspan>
                </text>
            </g>
        </g>
        <g id="firstLetter" transform="translate(10.000000, 152.000000)">
            <g id="Group" transform="translate(0.000000, -5.000000)">
                <rect id="Rectangle" stroke="#979797" x="0.5" y="6.5" width="34" height="38"></rect>
                <text id="C" fill="#131313" font-family="Roboto-Bold, Roboto" font-size="43" font-weight="bold">
                    <tspan x="2.65576172" y="40">O</tspan>
                </text>
            </g>
        </g>
        <g id="nameText" transform="translate(104.000000, 161.000000)" fill="#454545" fill-opacity="0.87" font-family="Roboto-Black, Roboto Black" font-size="26" font-weight="700">
            <text id="Carrot">
                <tspan x="-11.6015625" y="28">Octopus</tspan>
            </text>
        </g>
        <g id="colorText" transform="translate(133.000000, 5.000000)" fill="#454545" fill-opacity="0.87" font-family="Roboto-Black, Roboto Black" font-size="18" font-weight="700">
            <text id="orange">
                <tspan x="5.01269531" y="17">purple</tspan>
            </text>
        </g>
    </g>
</svg>