<?xml version="1.0" encoding="UTF-8"?>
<svg width="200px" height="200px" viewBox="0 0 200 200" version="1.1" xmlns="http://www.w3.org/2000/svg" xmlns:xlink="http://www.w3.org/1999/xlink">
    <!-- Generator: Sketch 56.3 (81716) - https://sketch.com -->
    <title>orange</title>
    <desc>Created with Sketch.</desc>
    <g id="orange" stroke="none" stroke-width="1" fill="none" fill-rule="evenodd">
        <g id="typeText" transform="translate(10.000000, 6.000000)" fill="#725F5F" fill-opacity="0.87" font-family="Roboto-Black, Roboto Black" font-size="17" font-weight="700">
            <g id="vegetable">
                <text>
                    <tspan x="0" y="16">fruit</tspan>
                </text>
            </g>
        </g>
        <g id="firstLetter" transform="translate(10.000000, 152.000000)">
            <g id="Group" transform="translate(0.000000, -5.000000)">
                <rect id="Rectangle" stroke="#979797" x="0.5" y="6.5" width="34" height="38"></rect>
                <text id="C" fill="#131313" font-family="Roboto-Bold, Roboto" font-size="43" font-weight="bold">
                    <tspan x="2.65576172" y="40">O</tspan>
                </text>
            </g>
        </g>
        <g id="nameText" transform="translate(104.000000, 161.000000)" fill="#454545" fill-opacity="0.87" font-family="Roboto-Black, Roboto Black" font-size="26" font-weight="700">
            <text id="Carrot">
                <tspan x="0.624023438" y="28">Orange</tspan>
            </text>
        </g>
        <g id="colorText" transform="translate(133.000000, 5.000000)" fill="#454545" fill-opacity="0.87" font-family="Roboto-Black, Roboto Black" font-size="18" font-weight="700">
            <text id="orange">
                <tspan x="0.213867188" y="17">orange</tspan>
            </text>
        </g>
        <g transform="translate(28.000000, 26.000000)">
            <path d="M53.9755418,33.951875 C53.9439828,32.6469762 52.8812347,2.05680333 22.0473384,2.02524593 L22.0228802,2 L22.0236692,2.02445699 L22,2.02366806 L22.0236692,2.04891398 C22.0560172,32.880501 52.6476984,33.9439856 53.9518726,33.9747541 L53.9763308,34 L53.9763308,33.975543 L54,33.9763319 L53.9755418,33.951875" id="Fill-1366" fill="#526631"></path>
            <path d="M54.0312165,34.968711 C54.8865477,35.419513 75.0469223,45.7815781 85.9758072,25.4053236 L86,25.3981427 L85.9843918,25.3901639 L85.9929763,25.3742063 L85.9687835,25.3813872 C66.0159984,14.250166 54.5064872,34.0934368 54.0241928,34.9447746 L54,34.9519555 L54.0156082,34.9607322 L54.0070237,34.9758919 L54.0312165,34.968711" id="Fill-1367" fill="#526631"></path>
            <path d="M54.3494849,36 C54.2057493,36 54.0604255,35.9905209 53.9135134,35.9715626 C52.0814804,35.7337947 50.7894484,34.0638893 51.0284783,32.2415281 C52.938335,17.6657982 62.6877368,5.39428481 76.4720584,0.215524488 C78.2024442,-0.43379537 80.1313598,0.433544294 80.7833317,2.15242508 C81.4360977,3.87130588 80.5641547,5.79161801 78.8361513,6.44093787 C67.3658932,10.7499887 59.252377,20.9661125 57.6625503,33.1017584 C57.4425793,34.7779832 56.0052235,36 54.3494849,36" id="Fill-1368" fill="#3F4E3F"></path>
            <path d="M90,77 C90,101.852619 69.8526193,122 45,122 C20.1473807,122 0,101.852619 0,77 C0,52.1473807 20.1473807,32 45,32 C69.8526193,32 90,52.1473807 90,77" id="Fill-1369" fill="#EB9031"></path>
            <path d="M59,119 C65.0169866,116.861399 70.4558398,113.419231 75,109 C71.7142226,114.736675 65.8095636,118.663701 59,119" id="Fill-1370" fill="#FEF1DD"></path>
            <path d="M57.9996015,119 C46.9537965,119 38,110.045585 38,99 C38,87.954415 46.9537965,79 57.9996015,79 C69.0462035,79 78,87.954415 78,99 C78,102.731272 76.9783029,106.224259 75.1994979,109.21358 C70.5891096,113.528212 65.0709888,116.888907 58.9663087,118.976889 C58.6459325,118.992031 58.3231655,119 57.9996015,119" id="Fill-1371" fill="#EC973A"></path>
            <path d="M14.7033388,62 C14.4322666,62 14.157208,61.934785 13.9012839,61.7971089 C13.0713246,61.34785 12.757997,60.305215 13.2012798,59.4670814 C19.5563289,47.4594694 31.8534407,40 45.2954341,40 C46.2362141,40 47,40.7705032 47,41.7205489 C47,42.6713998 46.2362141,43.4427081 45.2954341,43.4427081 C33.1139266,43.4427081 21.9680745,50.2041354 16.2077897,61.0902104 C15.9016375,61.6698994 15.3116568,62 14.7033388,62" id="Fill-1372" fill="#F0DABB"></path>
            <path d="M98.4996061,133 C73.4109352,133 53,112.588277 53,87.4996061 C53,62.4109352 73.4109352,42 98.4996061,42 C123.589065,42 144,62.4109352 144,87.4996061 C144,112.588277 123.589065,133 98.4996061,133" id="Fill-1373" fill="#F0DABB"></path>
            <path d="M141,86.9996039 C141,110.747888 121.747888,130 97.9996039,130 C74.2521116,130 55,110.747888 55,86.9996039 C55,63.2513195 74.2521116,44 97.9996039,44 C121.747888,44 141,63.2513195 141,86.9996039" id="Fill-1374" fill="#EEC991"></path>
            <path d="M110.203766,50.3194058 C109.255396,49.5703392 104.37784,49 98.5004404,49 C92.6214808,49 87.7439254,49.5703392 86.7955551,50.3194058 C86.1778666,50.6117245 85.829247,51.3528477 86.0842775,52.0629915 L97.2135893,83.0837239 C97.6518986,84.3054254 99.3482022,84.3054254 99.7865115,83.0837239 L110.915823,52.0629915 C111.170854,51.3528477 110.821454,50.6117245 110.203766,50.3194058" id="Fill-1375" fill="#EB9031"></path>
            <path d="M80.0760276,52.0856559 C78.8535663,52.2401647 74.9067853,55.3735726 70.6397787,59.6405792 C66.3735726,63.9067853 63.2401647,67.8535663 63.0856559,69.0760276 C62.8446861,69.7324902 63.1200801,70.5138408 63.8117675,70.8356675 L93.9962361,84.8639521 C95.1850738,85.4163414 96.4163414,84.1850738 95.8639521,82.9962361 L81.834867,52.8117675 C81.5138408,52.1200801 80.7324902,51.8446861 80.0760276,52.0856559" id="Fill-1376" fill="#EB9031"></path>
            <path d="M61.3193759,75.7955519 C60.5711206,76.7446982 60,81.6214541 60,87.50039 C60,93.3785459 60.5711206,98.2560817 61.3193759,99.2044481 C61.6116879,99.8221341 62.3527943,100.170752 63.0637163,99.9157229 L94.0837447,88.7864559 C95.3054184,88.3481484 95.3054184,86.6518516 94.0837447,86.2135441 L63.0637163,75.0842771 C62.3527943,74.8292477 61.6116879,75.1778659 61.3193759,75.7955519" id="Fill-1377" fill="#EB9031"></path>
            <path d="M63.0856547,104.923974 C63.2401614,106.145635 66.3743259,110.093216 70.6404721,114.359422 C74.9066184,118.626428 78.8541446,121.759835 80.0765889,121.914344 C80.7322417,122.155314 81.5135813,121.87992 81.8354035,121.188233 L95.8642921,91.002967 C96.415873,89.81493 95.1846227,88.5836626 93.9966022,89.1360517 L63.8117561,103.164335 C63.1200784,103.486161 62.8446883,104.267512 63.0856547,104.923974" id="Fill-1378" fill="#EB9031"></path>
            <path d="M85.7951452,124.67983 C86.7442933,125.428879 91.6218379,126 97.5,126 C103.378171,126 108.255716,125.428879 109.204084,124.67983 C109.821771,124.388312 110.17039,123.647206 109.91614,122.937078 L98.7868526,91.9162553 C98.3485443,90.6945816 96.6514645,90.6945816 96.2131562,91.9162553 L85.0838691,122.937078 C84.8296191,123.647206 85.178238,124.388312 85.7951452,124.67983" id="Fill-1379" fill="#EB9031"></path>
            <path d="M115.923967,121.914676 C117.146428,121.760166 121.093208,118.626732 125.359412,114.35969 C129.626418,110.092649 132.759824,106.145835 132.914333,104.923364 C133.155303,104.267696 132.879909,103.485539 132.189022,103.16451 L102.003763,89.1361103 C100.814926,88.5837165 99.5836588,89.8141936 100.136048,91.0030411 L114.165128,121.188558 C114.486154,121.880251 115.267505,122.154847 115.923967,121.914676" id="Fill-1380" fill="#EB9031"></path>
            <path d="M134.680602,99.2037658 C135.429664,98.2553956 136,93.3778401 136,87.4996605 C136,81.6214808 135.429664,76.7439254 134.679807,75.7955551 C134.389079,75.1778666 133.64796,74.829247 132.937026,75.0842775 L116.570449,80.9554379 L101.915675,86.2135893 C100.694775,86.6518986 100.694775,88.3474223 101.915675,88.7865115 L132.937026,99.9158234 C133.64796,100.170854 134.389079,99.8214543 134.680602,99.2037658" id="Fill-1381" fill="#EB9031"></path>
            <path d="M132.914676,70.0762483 C132.760165,68.8538039 129.626726,64.9070776 125.359676,60.6401301 C121.092627,56.3739832 117.145806,53.2406188 115.923332,53.0853115 C115.267664,52.8451456 114.486305,53.1197353 114.165276,53.8122136 L100.136049,83.9962639 C99.5836544,85.1850851 100.814934,86.4163356 102.003784,85.863954 L132.188557,71.8350633 C132.880251,71.5140415 133.154847,70.7319012 132.914676,70.0762483" id="Fill-1382" fill="#EB9031"></path>
        </g>
    </g>
</svg>