<?xml version="1.0" encoding="UTF-8"?>
<svg width="200px" height="200px" viewBox="0 0 200 200" version="1.1" xmlns="http://www.w3.org/2000/svg" xmlns:xlink="http://www.w3.org/1999/xlink">
    <!-- Generator: Sketch 56.3 (81716) - https://sketch.com -->
    <title>pail</title>
    <desc>Created with Sketch.</desc>
    <g id="pail" stroke="none" stroke-width="1" fill="none" fill-rule="evenodd">
        <g id="bucket" transform="translate(43.000000, 18.000000)">
            <path d="M20.1285148,49.140599 L98.8714852,49.140599 C95.7199892,24.9250465 79.0141492,6.85940103 59.5,6.85940103 C39.9858508,6.85940103 23.2784787,24.9250465 20.1285148,49.140599 L20.1285148,49.140599 Z M102,52 L17,52 L17.1639329,50.418237 C19.930876,23.9562363 38.1320296,4 59.5,4 C80.8695025,4 99.0675919,23.9562363 101.836067,50.418237 L102,52 Z" id="Fill-173" fill="#CB8F79"></path>
            <path d="M67.7334388,0.0470256511 C62.2281985,1.12061861 57.8350801,1.13266453 52.2665612,0.0470256511 C49.9584734,-0.40469649 48,2.47277355 48,5.46467987 C48,8.45658618 50.0565553,11.6623076 52.2665612,10.8808283 C57.5408345,9.01822738 62.0731659,8.87969925 67.7334388,10.8808283 C69.9418628,11.6623076 72,8.45658618 72,5.46467987 C72,2.47277355 70.0446905,-0.40469649 67.7334388,0.0470256511" id="Fill-174" fill="#FDA035"></path>
            <path d="M16.0330556,45.7790866 C15.7505936,44.2900768 17.3041346,39.208741 19.7065481,38.1570829 C22.107475,37.1083021 25.6382499,41.4875734 26.9063555,46.0423608 C28.1804078,50.5957096 16.0330556,45.7790866 16.0330556,45.7790866" id="Fill-175" fill="#CB8F79"></path>
            <path d="M103.966922,45.7790866 C104.249351,44.2900768 102.69748,39.208741 100.295351,38.1570829 C97.8947079,37.1083021 94.3628643,41.4875734 93.0934222,46.0423608 C91.8210071,50.5957096 103.966922,45.7790866 103.966922,45.7790866" id="Fill-176" fill="#CB8F79"></path>
            <path d="M14,46 L28.8197059,125.419571 C29.1331229,127.091677 30.4513177,128.375867 32.1044386,128.619879 C52.2184329,131.593381 65.5248265,131.959399 86.5652446,128.698088 C88.4165555,128.411843 89.8899225,126.966543 90.2402121,125.092658 L105,46 C70.1554085,49.7587196 48.8138644,50.791077 14,46" id="Fill-177" fill="#7986CB"></path>
            <path d="M14,46 L28.8197059,125.419571 C29.1331229,127.091677 30.4513177,128.375867 32.1044386,128.619879 C52.2184329,131.593381 65.5248265,131.959399 86.5652446,128.698088 C88.4165555,128.411843 89.8899225,126.966543 90.2402121,125.092658 L105,46 C70.1554085,49.7587196 48.8138644,50.791077 14,46" id="Fill-178" fill="#EC6B00"></path>
            <path d="M17.70973,63.309439 C49.9988968,65.6003458 70.4013,65.5180757 102.249028,63.3347529 L105,48.3315287 C104.444001,48.0989574 103.842179,47.9818806 103.229663,48.0325084 C95.0729791,48.684341 87.6785017,49.1653048 80.6597817,49.4785642 C62.5852413,50.8091254 46.9409039,50.8027969 27.5878719,48.738133 C24.2518796,48.5213828 20.8211843,48.282483 17.2209399,48.0103588 C16.4388758,47.9518204 15.6690314,48.1432567 15,48.537204 L17.70973,63.309439 Z" id="Fill-179" fill="#BF4C06"></path>
            <path d="M23,93 L29.0318148,125.40041 C29.3441767,127.077105 30.6659443,128.366025 32.3216159,128.612506 C52.4651077,131.595391 65.793572,131.962757 86.8664557,128.689433 C88.7206233,128.402134 90.1962637,126.95151 90.545555,125.072293 L94,106.528168 C66.9445408,118.850623 42.2941138,108.407386 23,93" id="Fill-180" fill="#BF4C06"></path>
            <path d="M68.6323339,76.900062 C67.3943057,82.3672743 63.3621813,88.6385339 60.2950362,87.9475799 C57.2278911,87.2550767 56.2923886,79.8590803 57.5288654,74.3949665 C58.768445,68.9308527 61.7099256,67.468385 64.7770706,68.159339 C67.8426643,68.8533915 69.8672593,71.4390467 68.6323339,76.900062" id="Fill-181" fill="#FFFFFF"></path>
            <path d="M76.4819507,87.4101158 C71.7788169,90.4163611 64.7248848,92.2830044 63.2688967,89.9493111 C61.814446,87.614061 66.5160424,81.9705398 71.2176387,78.9611808 C75.9176976,75.9580492 78.8358239,76.734909 80.291812,79.0686023 C81.7462627,81.4007388 81.1850846,84.4054273 76.4819507,87.4101158" id="Fill-182" fill="#FFFFFF"></path>
            <path d="M44.876786,80.9207912 C47.8326498,85.6022561 53.4675997,90.2225255 55.868379,88.706404 C58.2737456,87.1887526 56.5305047,80.1084193 53.5776992,75.4284842 C50.627952,70.7531388 47.5864552,70.246745 45.1826177,71.7659263 C42.7818385,73.2835777 41.9270388,76.2439158 44.876786,80.9207912" id="Fill-183" fill="#FFFFFF"></path>
            <path d="M50.3783113,110.262349 C51.5244786,104.786673 54.9874281,98.4304786 57.4897256,99.040785 C59.9934611,99.6541974 60.5859591,106.998063 59.4383537,112.476845 C58.2921865,117.950968 55.8387845,119.483722 53.3379252,118.874969 C50.8356277,118.261556 49.2292678,115.739577 50.3783113,110.262349" id="Fill-184" fill="#FFFFFF"></path>
            <path d="M75.1805948,101.625941 C69.7081851,100.433274 63.3950593,96.6814682 64.0465367,93.8960821 C64.698014,91.110696 72.0690149,90.3525435 77.5398735,91.5437119 C83.0122832,92.7393752 84.50913,95.4393568 83.8576527,98.2232446 C83.2061753,101.007132 80.6514534,102.821604 75.1805948,101.625941" id="Fill-185" fill="#FFFFFF"></path>
            <path d="M42.7788195,84.3931791 C48.2512551,85.6211131 54.5866158,89.4003184 53.9564942,92.1700943 C53.3248206,94.9383314 45.9651242,95.6461631 40.4911366,94.4228454 C35.018701,93.1933726 33.5023739,90.4928411 34.1340475,87.7261428 C34.7672732,84.9563669 37.3048319,83.1667839 42.7788195,84.3931791" id="Fill-186" fill="#FFFFFF"></path>
            <path d="M41.4299599,98.4210633 C46.1085684,95.4697966 53.1907392,93.7280906 54.7053967,96.1288619 C56.2246439,98.5326915 51.6026439,104.170681 46.9240354,107.123477 C42.243897,110.071685 39.2849602,109.219947 37.7672429,106.816117 C36.2479956,104.413817 36.7482915,101.375388 41.4299599,98.4210633" id="Fill-187" fill="#FFFFFF"></path>
            <path d="M73.0809399,106.14616 C70.1011529,101.456134 64.4579208,96.7952478 62.090757,98.2813941 C59.72205,99.769074 61.5244277,106.837854 64.5026716,111.52788 C67.4793724,116.217906 70.5054533,116.748563 72.8726171,115.263951 C75.2428672,113.779338 76.0576407,110.839253 73.0809399,106.14616" id="Fill-188" fill="#FFFFFF"></path>
            <path d="M64.8508701,95.3229822 C64.1214105,98.5533569 60.907229,100.581838 57.6778504,99.8509769 C54.4454325,99.1216355 52.4181426,95.9079748 53.1491219,92.6776001 C53.881621,89.4457059 57.0942827,87.420264 60.325181,88.148086 C63.5545596,88.8804663 65.5818494,92.0895686 64.8508701,95.3229822" id="Fill-189" fill="#FDD835"></path>
            <path d="M67.3092472,11.8639679 C68.808319,12.4697826 70.2362324,10.9741776 71,8.88308433 C63.8683396,5.49086635 50.3577174,7.55098046 48.0395325,8.39258097 C48.0395325,8.39258097 48.0094878,8.3960231 48,8.3960231 C48.7100034,10.7349497 50.2359574,12.5162513 51.8488828,11.8639679 C57.120935,9.73501122 61.6513579,9.57667329 67.3092472,11.8639679" id="Fill-190" fill="#FDD835"></path>
            <path d="M71,2.21154617 C70.2324863,0.733557802 69.0248491,-0.233365219 67.6828583,0.0489826122 C62.3071739,1.17364185 58.0202162,1.18626075 52.5827601,0.0489826122 C51.0724414,-0.268067188 49.7304507,0.996977287 49,2.80147963 C51.7210445,3.50813789 62.328794,5.38835362 71,2.21154617" id="Fill-191" fill="#FDD835"></path>
            <path d="M107,56.1796469 C107,58.3179523 105.394388,60.0814217 103.323225,60.2253461 C70.0847485,62.5360445 49.4007763,62.6388476 15.8826621,60.2474883 C13.6916545,60.0924928 12,58.2198939 12,55.9582248 L12,49.0577613 C12,47.9285083 12.4563319,46.8530293 13.2599062,46.084378 C14.061944,45.3173084 15.1405467,44.9298196 16.2329775,45.0104806 C49.3239528,47.4983167 69.900372,47.6422411 102.750121,45.0326228 C103.845625,44.9440539 104.925764,45.3331243 105.732411,46.1001939 C106.537522,46.8672635 107,47.9474874 107,49.078322 L107,56.1796469 Z" id="Fill-192" fill="#FDA035"></path>
            <path d="M49.6790897,132.368869 C50.0821593,129.430839 50.4155252,126.255175 48.6517167,123.138147 C46.9530661,121.380576 45.3286652,120.632181 43.3648372,119.2002 C41.4434376,117.799081 39.4902168,116.214335 37.2081759,115.476741 C35.8050087,115.021532 35.0564508,113.938287 34.8200641,112.765544 C16.8501289,106.724375 0,118.124671 0,118.124671 C1.53802886,120.099817 3.66096327,125.133354 6.14756953,128.827494 C8.22201436,131.905944 25.6024981,141.02865 36.0535178,141.996163 C42.9814665,142.190591 48.1046937,134.942731 49.6790897,132.368869" id="Fill-193" fill="#973503"></path>
            <path d="M83.5402133,149.705359 C82.6084495,149.312185 82.0930058,148.404622 82.3873272,147.666451 C82.6846986,146.932941 83.6805116,146.651659 84.6138002,147.041724 C85.5470889,147.436452 86.0594827,148.347123 85.7697362,149.079078 C85.4708399,149.81725 84.471977,150.095424 83.5402133,149.705359 M84.9370963,144.559913 C80.7586469,142.716815 50.7226108,129.743639 47.2731026,128 C47.1694038,128.00777 47.068755,128.017095 46.9681063,128.024865 L45.260127,130.172556 C45.0252798,130.989984 44.9749554,131.857142 45.1305035,132.568895 C45.1503283,132.662138 43.9806675,134.056117 44.000243,134.144697 C49.8533713,137.719003 72.1775759,148.863066 80.0891801,153.522096 C89.3869924,159.001661 92.0846847,147.709964 84.9370963,144.559913" id="Fill-194" fill="#973503"></path>
            <path d="M48.6978142,122.141283 C52.1429567,126.294063 49.1365388,136.842278 35.0388556,133.275682 C20.9411725,129.71218 0.311880915,118.525194 0.0055434016,118.246796 C-0.300794112,117.969944 12.191311,101 12.191311,101 C12.191311,101 36.3873565,107.296449 48.6978142,122.141283" id="Fill-195" fill="#D28D11"></path>
        </g>
        <g id="typeText" transform="translate(10.000000, 6.000000)" fill="#725F5F" fill-opacity="0.87" font-family="Roboto-Black, Roboto Black" font-size="17" font-weight="700">
            <g id="vegetable">
                <text>
                    <tspan x="0" y="16">toy</tspan>
                </text>
            </g>
        </g>
        <g id="firstLetter" transform="translate(10.000000, 152.000000)">
            <g id="Group" transform="translate(0.000000, -5.000000)">
                <rect id="Rectangle" stroke="#979797" x="0.5" y="6.5" width="34" height="38"></rect>
                <text id="C" fill="#131313" font-family="Roboto-Bold, Roboto" font-size="43" font-weight="bold">
                    <tspan x="3.63208008" y="40">P</tspan>
                </text>
            </g>
        </g>
        <g id="nameText" transform="translate(104.000000, 161.000000)" fill="#454545" fill-opacity="0.87" font-family="Roboto-Black, Roboto Black" font-size="26" font-weight="700">
            <text id="Carrot">
                <tspan x="40.9824219" y="28">Pail</tspan>
            </text>
        </g>
        <g id="colorText" transform="translate(133.000000, 5.000000)" fill="#454545" fill-opacity="0.87" font-family="Roboto-Black, Roboto Black" font-size="18" font-weight="700">
            <text id="orange">
                <tspan x="0.213867188" y="17">orange</tspan>
            </text>
        </g>
    </g>
</svg>