<?xml version="1.0" encoding="UTF-8"?>
<svg width="200px" height="200px" viewBox="0 0 200 200" version="1.1" xmlns="http://www.w3.org/2000/svg" xmlns:xlink="http://www.w3.org/1999/xlink">
    <!-- Generator: Sketch 56.3 (81716) - https://sketch.com -->
    <title>pants</title>
    <desc>Created with Sketch.</desc>
    <defs>
        <polygon id="path-1" points="0.723890211 0.349563262 66.9719306 0.349563262 66.9719306 149 0.723890211 149"></polygon>
    </defs>
    <g id="pants" stroke="none" stroke-width="1" fill="none" fill-rule="evenodd">
        <g transform="translate(71.000000, 20.000000)">
            <path d="M31.9358245,4.64508588 C31.955516,4.69385144 31.9700706,4.74697106 31.9794882,4.79573662 C32.0111658,4.95248305 32.0060289,5.11445436 31.9649337,5.26423429 C31.9623652,5.26771754 31.9623652,5.27294242 31.9606529,5.2781673 C31.8938731,5.52025346 31.7380537,5.73099033 31.5000438,5.86770805 C30.9846411,6.16639708 30.3519458,5.93737313 30.097669,5.40095201 C30.0659915,5.33564099 30.0428754,5.26771754 30.0266085,5.20414815 C30.0137663,5.15451178 30.0060609,5.10661704 30.0043486,5.05698067 C29.9675341,4.67730598 30.1678734,4.32549733 30.4760876,4.11214802 C30.9332721,3.90576522 31.5128861,3.97020542 31.8202442,4.42302844 C31.8699009,4.49269352 31.9067154,4.56758348 31.9358245,4.64508588" id="Fill-199" fill="#151062"></path>
            <path d="M30.3938332,5.21195945 C30.3210698,4.7186778 30.5082925,4.29153446 30.8189675,4.04443434 C31.0356225,3.81295021 31.3160477,3.69537097 31.5964728,3.69537097 C31.9488437,3.69537097 32.2963093,3.88368147 32.5064237,4.26397683 C32.5767344,4.39074195 32.6257884,4.52761153 32.6560383,4.66356253 C32.6699369,4.72051497 32.6797477,4.78114177 32.6862883,4.84176856 C33.0345714,4.90515112 33.3681383,4.98414967 33.6665499,5.04661364 C33.6878066,5.05212517 33.6812661,5.08611292 33.662462,5.0879501 C33.3566924,5.11734491 33.0206727,5.1853204 32.6699369,5.25605167 C32.5930857,5.67676488 32.33637,6.04879295 31.9423032,6.21873169 C31.8090399,6.27660272 31.673324,6.30232318 31.5384256,6.30232318 C30.991474,6.30232318 30.4870357,5.85680809 30.3938332,5.21195945 Z M33.6322121,6.99493839 C34.0074749,6.99034545 34.3835552,6.98483393 34.7571829,6.97472946 C34.7768045,6.6173988 34.7972436,6.25823097 34.8176828,5.9018189 C34.8225882,5.8411921 34.8250409,5.77872813 34.8299463,5.71718275 C34.8348517,5.59776633 34.8438449,5.47651274 34.8503854,5.35617774 C34.8528381,5.31667846 34.8552908,5.27442342 34.8577435,5.23492415 C34.9018921,4.51658848 34.950946,3.79825281 35,3.07899855 C33.8652184,3.08175432 32.7337071,3.07899855 31.6013782,3.06338256 C30.4314413,3.05235951 29.2615043,3.02939481 28.0940201,3 C28.0752161,3.61912819 28.062135,4.23550061 28.0474188,4.85462879 C28.0425134,4.9593478 28.0400607,5.06406681 28.037608,5.16970441 C28.0351553,5.27993495 28.0327026,5.39292125 28.0318851,5.50315179 C28.024527,5.7282058 28.0196216,5.95601558 28.0147162,6.18198818 C28.0098108,6.40428643 28.0049054,6.62842186 28,6.8516387 C29.1723896,6.9269629 30.3488671,6.9719737 31.5237094,6.99310122 C32.2259986,7.00044992 32.9299229,7.00320568 33.6322121,6.99493839 L33.6322121,6.99493839 Z" id="Fill-200" fill="#151062"></path>
            <path d="M23.0579219,6.35933148 C23.0400998,6.42804085 23.0196043,6.49675023 23,6.5636026 C23.2869364,6.59517177 23.5720905,6.62674095 23.859918,6.65831012 C25.1573695,6.80687094 26.4583853,6.92014856 27.7611834,7 C27.7700945,6.78551532 27.7834611,6.56917363 27.7968277,6.35376045 C27.808412,6.12256267 27.8217786,5.89229341 27.8369275,5.65923863 C27.8440563,5.53389044 27.8520763,5.40947075 27.8600962,5.28505107 C27.8654429,5.18384401 27.8725717,5.08077994 27.8797006,4.98050139 C27.9180182,4.3630455 27.9590091,3.74187558 28,3.12441968 C26.5492782,3.09192201 25.1012297,3.05199629 23.6531813,3 C23.6032793,3.51903435 23.5364463,4.04178273 23.4500089,4.55617456 C23.441989,4.60631383 23.4321868,4.65645311 23.4241668,4.70473538 C23.3707004,5.00371402 23.3118874,5.30362117 23.2459455,5.59795729 C23.1906968,5.85236769 23.1265372,6.10677809 23.0579219,6.35933148" id="Fill-201" fill="#151062"></path>
            <path d="M20.0804626,5.9175535 C20.0656988,6.11652889 20.0553642,6.31466825 20.0450295,6.51447967 C20.015502,7.09301316 20.0022146,7.67238269 20,8.2651287 C20.4303642,8.67812804 20.9094488,8.97408304 21.4800689,9 C21.7878937,8.29355376 22.0514272,7.57540308 22.2625492,6.83718766 C22.3260335,6.62232768 22.382874,6.4074677 22.4352854,6.18759153 C22.4500492,6.13241348 22.4625984,6.08057956 22.4751476,6.02540151 C22.5275591,5.79883709 22.5770177,5.56892855 22.6183563,5.33818398 C22.6589567,5.12081591 22.6966043,4.9026118 22.7283465,4.68106357 C22.7364665,4.62086934 22.7453248,4.55900304 22.7534449,4.49964483 C22.7600886,4.45867931 22.7637795,4.41604173 22.7682087,4.37591224 C22.8287402,3.91776722 22.8715551,3.45627808 22.9032972,2.99562497 C22.9099409,2.88108871 22.9173228,2.76404436 22.9239665,2.64950811 C22.9306102,2.5416601 22.9372539,2.43464813 22.9431594,2.32680012 C22.9431594,2.31091553 22.945374,2.29586697 22.945374,2.27998238 C22.949065,2.20808371 22.9512795,2.13618504 22.9557087,2.06679446 C22.9579232,2.03168116 22.9601378,1.99573183 22.9623524,1.95978249 L22.972687,1.68974446 L22.9785925,1.54427506 L23,1.05686895 C22.3171752,1.00670709 21.6535433,0.980790125 20.9721949,1.01673946 C20.8777067,1.3193827 20.789124,1.62369801 20.7130906,1.92634125 C20.710876,1.93135743 20.710876,1.93637362 20.7086614,1.93971774 C20.6879921,2.01914069 20.6665846,2.09521952 20.6496063,2.17464247 C20.6496063,2.17715056 20.6496063,2.17715056 20.6496063,2.17715056 C20.6370571,2.2239683 20.6245079,2.2724581 20.613435,2.32011187 C20.5994094,2.38197817 20.5839075,2.44384447 20.5720965,2.50571077 C20.5425689,2.63696764 20.5130413,2.76906055 20.4857283,2.90031743 C20.3292323,3.65692553 20.2192421,4.41353363 20.1439469,5.18017411 C20.1181102,5.41927899 20.0996555,5.65754784 20.0826772,5.89665273 C20.0826772,5.90417701 20.0826772,5.91002922 20.0804626,5.9175535" id="Fill-202" fill="#151062"></path>
            <path d="M45.0273197,1.68974446 L45.0376569,1.95978249 C45.039872,1.99573183 45.0420871,2.03168116 45.0435639,2.06679446 C45.045779,2.09103937 45.045779,2.11695633 45.0479941,2.14120123 C45.0502092,2.20306753 45.0546394,2.26493382 45.0568545,2.32680012 C45.0634999,2.43464813 45.0694068,2.5416601 45.0753138,2.64950811 C45.0819591,2.76655246 45.0908196,2.88526887 45.0982033,3.00314925 C45.1299532,3.46129426 45.1705636,3.92027531 45.2318484,4.37591224 C45.2362786,4.41604173 45.2399705,4.45867931 45.2466158,4.49964483 C45.2547379,4.55900304 45.2635983,4.62086934 45.2717204,4.68106357 C45.3034703,4.9026118 45.3418656,5.12081591 45.3809993,5.33818398 C45.4238248,5.56642046 45.4718189,5.79382091 45.5227664,6.01787723 C45.5227664,6.02038532 45.5249815,6.02289341 45.5249815,6.02540151 C45.5604233,6.1758871 45.5966035,6.32637269 45.6364755,6.47351415 C45.864632,7.34047836 46.1614571,8.17818147 46.5195668,9 C47.0918041,8.97408304 47.5702683,8.67812804 48,8.2651287 C47.9977849,7.54446993 47.9793256,6.83718766 47.9328083,6.13492158 C47.928378,6.05382656 47.9246862,5.97523964 47.9180409,5.89665273 C47.9113955,5.80552534 47.9054886,5.71523399 47.8966281,5.6241066 C47.8862909,5.47612911 47.8715235,5.32815161 47.8567561,5.18017411 C47.7807039,4.40684539 47.6669948,3.63853285 47.5089835,2.87440046 C47.4838789,2.74983184 47.4565592,2.62860733 47.4292395,2.50571077 C47.4159488,2.44384447 47.4019198,2.38197817 47.386414,2.32011187 C47.3635245,2.21978815 47.3384199,2.12197251 47.3125769,2.02164879 C47.3066699,1.99573183 47.2978095,1.96730677 47.2919025,1.93971774 C47.2896874,1.93637362 47.2896874,1.93135743 47.2874723,1.92634125 C47.2121585,1.62369801 47.123554,1.3193827 47.0283042,1.01673946 C46.3475265,0.980790125 45.6829929,1.00670709 45,1.05686895 L45.0206744,1.54427506 L45.0273197,1.68974446" id="Fill-203" fill="#151062"></path>
            <path d="M48.5149617,5 C48.677801,4.96591956 48.8392484,4.93183912 49,4.89775867 C48.9721642,4.77156893 48.9464161,4.64630028 48.9227557,4.51918944 C48.7654836,3.70125883 48.6604036,2.85661652 48.6068198,2 C48.4043145,2.01565858 48.2025052,2.03131716 48,2.04697574 C48.2066806,2.86766963 48.3660404,3.71415413 48.466945,4.56984955 C48.4850383,4.71169788 48.5010438,4.85630949 48.5149617,5" id="Fill-204" fill="#151062"></path>
            <path d="M19.505814,6 C19.505814,5.99749513 19.505814,5.99749513 19.505814,5.99499026 C19.5219638,5.75702755 19.5458656,5.51822989 19.5755814,5.28277206 C19.6679587,4.51962149 19.8113695,3.7606457 20,3.02922349 C19.8133075,3.02254384 19.629199,3.01252435 19.4450904,3 L19.4431525,3 C19.3914729,3.7606457 19.2958656,4.509602 19.1537468,5.23684943 C19.1072351,5.47314222 19.0574935,5.70442527 19,5.93570832 C19.1679587,5.95658224 19.3378553,5.97912608 19.505814,6" id="Fill-205" fill="#151062"></path>
            <path d="M5.29029701,11.0814057 C7.98408245,12.3081191 11.2584619,12.3513866 13.9454168,10.9371807 C15.9108983,9.90036342 17.4682564,8.2257513 18.2853571,6.255478 C18.2973105,6.23063926 18.3101177,6.20339677 18.3203635,6.17775677 C18.3656157,6.06638305 18.4074526,5.95100307 18.4467281,5.8372256 C18.4492895,5.8324181 18.4518509,5.8260081 18.4518509,5.8212006 C18.5295481,5.59925441 18.5978533,5.37891071 18.6533512,5.15536201 C18.8420443,4.45747342 18.9436482,3.74516233 19,3.02964624 C18.7686162,3.02003125 18.5363786,3.0112175 18.3075563,3 C18.3468317,3.95829478 18.1513082,4.88934707 17.7764835,5.75229312 C17.7192779,5.88049309 17.6586571,6.00709056 17.5954748,6.12968178 C16.6400561,8.01742635 14.8214307,9.546211 12.7628835,10.3106033 C10.2714521,11.2344444 7.40861133,11.1222694 5.02134537,10.0405821 C5.01195341,10.3402496 5.00512289,10.6423208 5,10.9443919 C5.01451485,10.9516032 5.02646826,10.9572119 5.03927548,10.9620194 C5.12209551,11.0036844 5.20406172,11.0453494 5.29029701,11.0814057" id="Fill-206" fill="#151062"></path>
            <path d="M12.2173204,9.51589767 C14.4698166,8.75569331 16.0469882,7.30205388 17.0090713,5.45503885 C17.0676108,5.34241598 17.1227566,5.22979312 17.1762057,5.11556135 C17.5707107,4.27410764 17.8455916,3.35784017 18,2.39491466 C14.0439209,2.20667358 10.0971742,1.87202277 6.2929583,1 C6.13854989,1.48508278 6.00026105,1.97016556 5.87894016,2.45685723 C5.85009463,2.57591569 5.8212491,2.69819195 5.79240358,2.81725041 C5.30712002,4.88307558 5.08229459,6.97303421 5,9.11045535 C7.2728578,10.0379851 9.75102787,10.3485024 12.2173204,9.51589767" id="Fill-207" fill="#151062"></path>
            <path d="M45,6.27477477 C44.9975581,6.26666667 44.9951162,6.25675676 44.9934883,6.24954955 C44.9308131,6.0045045 44.8730216,5.75765766 44.8209279,5.51081081 C44.7606946,5.22522523 44.7077869,4.93423423 44.6581351,4.64414414 C44.6516234,4.5972973 44.6418558,4.54864865 44.6353441,4.5 C44.5563896,4.0036036 44.4961563,3.5018018 44.4513883,3 C41.653794,3.12522523 38.849688,3.18558559 36.0463959,3.19279279 C36.0301167,3.89009009 36.023605,4.58738739 36.0162793,5.28198198 C36.0162793,5.33513514 36.0138374,5.39009009 36.0138374,5.44324324 C36.0113955,5.54414414 36.0113955,5.64414414 36.0113955,5.74234234 C36.0113955,5.82432432 36.0097676,5.90990991 36.0097676,5.99189189 C36.0048838,6.32882883 36.0024419,6.66306306 36,7 C38.6339875,6.92342342 41.2647192,6.72432432 43.8848693,6.41891892 C44.2568509,6.37567568 44.6280184,6.32612613 45,6.27477477" id="Fill-208" fill="#151062"></path>
            <path d="M49.4335792,4.82522331 C49.4728403,4.96575964 49.514662,5.10541762 49.5581906,5.24419725 C49.5675791,5.27406122 49.5778211,5.30656025 49.5880632,5.33642422 C49.6196427,5.4321646 49.6512223,5.52526992 49.6853624,5.61749689 C50.4936292,7.81425544 52.0666342,9.68338866 54.0578553,10.8349082 C56.7429738,12.3851997 60.0161556,12.3377687 62.7106627,10.9930116 C62.7951594,10.9534858 62.8779492,10.9078115 62.9615924,10.8621372 C62.9726879,10.856867 62.9854905,10.8507186 63,10.8428134 C62.998293,10.6249821 62.993172,10.4062724 62.988051,10.1910762 C60.7595562,11.3522576 57.9114186,11.540225 55.6906054,10.5916047 C53.4330915,9.62629578 51.466622,7.54196629 50.6011705,5.138795 C50.5456929,4.98069163 50.4919222,4.82258825 50.4458331,4.66272817 C50.3237822,4.24814599 50.233311,3.82653699 50.1821008,3.40053624 C50.1821008,3.3847259 50.2017314,3.3847259 50.2059989,3.39790118 C50.3289032,3.82390194 50.4671706,4.23584906 50.6250686,4.63462091 C50.6865208,4.79008923 50.7505334,4.94028743 50.8162531,5.09136399 C51.8686216,7.4611579 53.620862,9.27934671 56.1685667,10.1576988 C58.559227,10.9807147 60.8406389,10.6899801 62.9701274,9.68602372 C62.8950192,7.27582561 62.6714016,4.91569357 62.1661281,2.58718221 C62.1371091,2.4571861 62.10809,2.32367658 62.0782174,2.19368048 C61.9860391,1.79490863 61.8861794,1.39613679 61.7743705,1 C58.0667561,1.49187716 54.3113455,1.71761365 50.59861,1.9934162 C50.065171,2.03294205 49.533439,2.07071119 49,2.10408856 C49.0563312,2.91129413 49.1587514,3.71147287 49.3507895,4.49671963 C49.3781016,4.60651364 49.4045601,4.717186 49.4335792,4.82522331" id="Fill-209" fill="#151062"></path>
            <g id="Group-213">
                <mask id="mask-2" fill="white">
                    <use xlink:href="#path-1"></use>
                </mask>
                <g id="Clip-211"></g>
                <path d="M59.094,141.230113 C55.861038,142.156102 50.8691139,142.64435 49.5825443,138.645763 C49.5783038,138.628927 49.6071392,138.61209 49.6190127,138.637345 C51.3991772,141.457401 56.1519367,141.390056 59.0744937,141.087006 C59.1576076,141.078588 59.1686329,141.204859 59.094,141.230113 Z M49.6096835,119.359102 C49.5562532,119.26987 49.6851646,119.163802 49.7572532,119.246299 C52.1896076,122.06804 54.0342278,125.087605 57.8269367,126.201316 C57.8659494,126.21226 57.8498354,126.265294 57.8108228,126.261085 C56.1197089,125.994232 54.4803291,125.309 53.1522025,124.222226 C51.5866076,122.938469 50.6146835,121.075548 49.6096835,119.359102 Z M43.968962,38.6591864 C42.2905696,38.3014181 40.2033924,37.9091356 38.8956203,36.7381808 C38.7717975,36.627904 38.8718734,36.4182938 39.0287722,36.4182938 C40.8182658,36.4233446 42.7171646,37.4040508 44.3879241,37.9840565 C46.2749494,38.6356158 48.1806329,39.1928927 50.1431392,39.5868588 C50.1957215,39.5969605 50.1719747,39.6744068 50.1185443,39.6668305 C48.0602025,39.3907175 46.0010127,39.0944011 43.968962,38.6591864 Z M38.9702532,31.7597288 C40.6732405,30.4742881 42.6128481,29.7284463 44.5278608,28.8176102 C44.5626329,28.8016158 44.5940127,28.8487571 44.5600886,28.8706441 C42.7510886,29.9835141 41.0608228,31.2075028 39.0457342,31.9381921 C38.9320886,31.9785989 38.8905316,31.8194972 38.9702532,31.7597288 Z M48.2612025,31.548435 C48.3502532,31.5198136 48.3816329,31.6545028 48.2968228,31.6856497 C46.4615316,32.4045537 44.7509114,33.354113 42.9419114,34.1159492 C41.7189494,34.6328192 40.5757089,34.8542147 39.3510506,34.2312768 C39.0796582,34.094904 39.2272278,33.7076723 39.4986203,33.6925198 C40.978557,33.6184407 42.4169367,33.0081299 43.8570127,32.7067627 C45.3496709,32.394452 46.807557,32.0072203 48.2612025,31.548435 Z M28.8032152,36.7381808 C27.4937468,37.9091356 25.4082658,38.3014181 23.726481,38.6591864 C21.6978228,39.0944011 19.6360886,39.3907175 17.5777468,39.6668305 C17.5277089,39.6744068 17.5022658,39.5969605 17.5565443,39.5868588 C19.5148101,39.1928927 21.423038,38.6356158 23.3100633,37.9840565 C24.9791266,37.4040508 26.8780253,36.4233446 28.667519,36.4182938 C28.8278101,36.4182938 28.927038,36.627904 28.8032152,36.7381808 Z M18.0891519,119.359102 C17.0833038,121.075548 16.1105316,122.938469 14.5432405,124.222226 C13.215962,125.309 11.5765823,125.994232 9.88631646,126.261085 C9.8498481,126.265294 9.83203797,126.21226 9.86850633,126.201316 C13.6612152,125.087605 15.5075316,122.06804 17.9415823,119.246299 C18.0111266,119.163802 18.1417342,119.26987 18.0891519,119.359102 Z M18.0789747,138.637345 C18.0891519,138.61209 18.1205316,138.628927 18.1128987,138.645763 C16.8288734,142.64435 11.8361013,142.156102 8.60483544,141.230113 C8.52935443,141.204859 8.53953165,141.078588 8.62434177,141.087006 C11.5477468,141.390056 16.2962658,141.457401 18.0789747,138.637345 Z M19.4376329,31.548435 C20.8878861,32.0072203 22.3491646,32.394452 23.8384304,32.7067627 C25.2818987,33.0081299 26.7202785,33.6184407 28.2002152,33.6925198 C28.4716076,33.7076723 28.6191772,34.094904 28.3452405,34.2312768 C27.1222785,34.8542147 25.979038,34.6328192 24.7535316,34.1159492 C22.9445316,33.354113 21.2347595,32.4045537 19.3994684,31.6856497 C19.3146582,31.6545028 19.3477342,31.5198136 19.4376329,31.548435 Z M23.1675823,28.8176102 C25.0859873,29.7284463 27.0230506,30.4742881 28.726038,31.7597288 C28.8074557,31.8194972 28.7650506,31.9785989 28.650557,31.9381921 C26.6380127,31.2075028 24.9477468,29.9835141 23.1387468,28.8706441 C23.1048228,28.8487571 23.1336582,28.8016158 23.1675823,28.8176102 Z M65.0103544,53.2443503 C66.0153544,46.2127288 65.5098861,39.2602373 64.9764304,32.2143051 C64.6863797,28.353774 64.5354177,24.4865085 64.2334937,20.6318701 C64.0197722,17.9448192 63.7390506,15.2914407 63.0580253,12.7188757 C62.9910253,12.4612825 62.9206329,12.2045311 62.8426076,11.9494633 L62.8426076,11.9444124 C62.7849367,11.7524802 62.7264177,11.5622316 62.6611139,11.3719831 C60.057443,12.8459887 56.7931013,12.9949887 53.951962,11.538661 C51.4068101,10.2330169 49.8496962,8.11755367 49.0456962,5.6729435 C48.8150127,5.71419209 48.583481,5.75207345 48.3527975,5.78827119 C48.4036835,6.35733333 48.4138608,6.92723729 48.3816329,7.4920904 C48.3748481,7.63183051 48.3621266,7.7690452 48.3502532,7.9079435 L48.3502532,7.91046893 C48.1857215,8.09566667 48.0110127,8.2690791 47.8244304,8.42481356 C47.3698481,8.80951977 46.8516582,9.08142373 46.3063291,9.11257062 C46.2647722,9.11762147 46.221519,9.11762147 46.1782658,9.11762147 C46.1155063,9.02586441 46.054443,8.93494915 45.9984684,8.84150847 C45.9840506,8.81709605 45.9670886,8.79015819 45.9526709,8.76406215 C45.4828228,7.99044068 45.1122025,7.14358192 44.8289367,6.25379096 C44.395557,6.30514124 43.9596329,6.35312429 43.5287975,6.40110734 C40.7987595,6.70415819 38.0551519,6.88851412 35.3081519,6.95838418 C35.2894937,8.92232203 35.2793165,10.8862599 35.2555696,12.8527232 C35.2267342,15.0818305 35.1385316,17.3336667 35.2241899,19.562774 C35.3056076,21.6395141 35.7059114,23.6463842 35.9747595,25.7020791 C35.9815443,25.7500621 35.9382911,25.7795254 35.895038,25.7795254 C35.8678987,25.7795254 35.8382152,25.7668983 35.8271899,25.7408023 C34.915481,23.9881582 34.7416203,21.9518249 34.6330633,20.009774 C34.5066962,17.7840339 34.5092405,15.557452 34.5406203,13.3291864 C34.572,11.2061469 34.664443,9.09068362 34.7925063,6.97353672 C34.3370759,6.98363842 33.8824937,6.98953107 33.4270633,6.9920565 C31.557,7.00720904 29.6801519,6.98448023 27.8033038,6.9179774 C27.7201899,10.6657062 27.6989873,14.4184859 27.8397722,18.1586384 C27.9432405,20.9593333 27.7159494,24.2575367 29.0042152,26.8385198 C30.5859241,30.0079266 34.5847215,28.1466893 36.1172405,25.9453616 C36.1494684,25.9015876 36.1783038,25.8552881 36.2071392,25.8131977 C36.2919494,25.6827175 36.4878608,25.7980452 36.4149241,25.9352599 C35.2894937,28.0793446 32.7825063,29.2814463 30.3654177,28.8824294 C27.6871139,28.4404802 27.1375443,24.7095876 26.9823418,22.538565 C26.7134937,18.7984124 27.1536582,14.961452 27.2681519,11.2162486 C27.3114051,9.77844068 27.3767089,8.34147458 27.4547342,6.90619209 C25.9943038,6.84810734 24.5381139,6.76392655 23.089557,6.64354802 C22.9759114,6.63344633 22.8622658,6.62502825 22.7486203,6.61240113 C22.4814684,7.37171186 22.1481646,8.09566667 21.7436203,8.76406215 C21.6732278,8.88444068 21.5977468,9.00229379 21.5188734,9.11762147 C21.4747722,9.11762147 21.4306709,9.11762147 21.389962,9.11257062 C20.845481,9.08142373 20.326443,8.80951977 19.8710127,8.42481356 C19.6852785,8.2690791 19.5097215,8.09566667 19.346038,7.91046893 L19.346038,7.9079435 C19.3333165,7.7690452 19.321443,7.63183051 19.3146582,7.4920904 C19.287519,7.05266667 19.2900633,6.60987571 19.3146582,6.16540113 C19.0525949,6.12246893 18.7913797,6.07616949 18.5293165,6.03071186 C17.6888481,8.32379661 16.1631139,10.2978362 13.7443291,11.538661 C10.9031899,12.9949887 7.638,12.8459887 5.03432911,11.3719831 C4.96902532,11.5622316 4.91135443,11.7524802 4.85283544,11.9444124 L4.85283544,11.9494633 C4.77565823,12.2045311 4.70526582,12.4612825 4.63741772,12.7188757 C3.95724051,15.2914407 3.67651899,17.9448192 3.46364557,20.6318701 C3.16002532,24.4865085 3.00991139,28.353774 2.71986076,32.2143051 C2.18725316,39.2602373 1.68008861,46.2127288 2.68593671,53.2443503 C3.62732911,59.854226 5.21412658,66.388339 5.77811392,73.0520904 C6.37856962,80.1106497 5.08097468,86.9924294 4.4245443,93.9903785 C4.09802532,97.485565 4.03187342,100.920983 4.35160759,104.319362 L4.35160759,104.331989 C4.52546835,106.19996 4.81382278,108.056147 5.24041772,109.906441 C5.24041772,109.911492 5.24296203,109.919068 5.24296203,109.924119 C5.3616962,110.626186 5.48467089,111.325729 5.61103797,112.024429 C5.70772152,112.569921 5.80694937,113.11878 5.90363291,113.666797 C6.28188608,115.80078 6.6304557,117.943181 6.79498734,120.102418 C7.04941772,123.41409 6.42012658,126.495949 6.02067089,129.764689 C5.73910127,132.062825 5.94518987,134.461977 7.17408861,136.372881 C7.53622785,135.320621 7.71093671,134.209435 7.87377215,133.072994 C7.88479747,132.988814 8.02558228,133.014068 8.02812658,133.098249 C8.07137975,134.302034 8.10021519,135.522655 7.79829114,136.701186 C7.76691139,136.827458 7.72789873,136.945311 7.68379747,137.063164 C7.60407595,137.282034 7.5023038,137.492486 7.39374684,137.69452 C7.01803797,138.384802 6.52698734,139.00774 6.25729114,139.756949 C5.91126582,140.725028 6.12413924,141.634181 6.66946835,142.341299 C6.72035443,142.408644 6.77378481,142.475989 6.8314557,142.534915 C7.22667089,142.972655 7.75418987,143.317797 8.34786076,143.528249 C9.74044304,144.008079 11.2051139,143.856554 12.6468861,143.890226 C12.688443,143.890226 12.6926835,143.940734 12.6562152,143.957571 C10.8590886,144.521582 8.42758228,144.732034 6.84672152,143.65452 C6.85350633,144.361638 6.86537975,145.077175 6.87555696,145.784294 C6.88573418,146.440904 6.99429114,146.988079 7.16391139,147.526836 C7.50993671,147.484746 7.86359494,147.459492 8.22234177,147.46791 C9.59032911,147.46791 10.8429747,147.964576 12.1694051,148.217119 C13.7536582,148.520169 15.9816203,148.60435 17.5489114,148.132938 C18.4275443,147.863559 18.6963924,147.063842 18.6896076,146.154689 C18.2681013,146.63452 17.7041139,146.937571 16.9526962,146.920734 C16.9357342,146.920734 16.9331899,146.89548 16.9484557,146.887062 C17.7694177,146.541921 18.2876076,146.003164 18.6217595,145.338136 C18.6794304,145.228701 18.7311646,145.110847 18.7786582,144.992994 C19.1246835,144.13435 19.220519,143.132599 19.2951519,142.156102 C19.4155823,140.624011 19.3265316,139.100339 18.7328608,137.660847 C18.7209873,137.627175 18.7082658,137.601921 18.6963924,137.576667 C18.6505949,137.576667 18.6047975,137.551412 18.5827468,137.492486 C18.4716456,137.223107 18.3698734,136.953729 18.2748861,136.675932 L18.2723418,136.675932 C17.3479114,134.874463 16.1944937,133.367627 16.4175443,131.145254 C16.4251772,131.069492 16.5269494,131.069492 16.532038,131.145254 C16.6066709,132.248023 17.0883924,133.333955 17.6311772,134.369379 C16.2623418,127.885774 18.2587722,120.965271 19.3146582,114.546486 C19.8973038,110.985638 20.2764051,107.392802 20.0550506,103.783972 C19.823519,99.9688983 19.220519,96.1807627 19.2077975,92.353904 C19.1976203,88.7770621 19.9337722,85.4662316 21.0558101,82.0863729 C22.2762278,78.4127232 23.1209367,74.7180282 23.5984177,70.8768588 C24.4583924,63.9083729 24.3345696,56.878435 25.7373291,49.9697175 C26.3988481,46.7077119 27.2842658,43.4381299 28.8227215,40.4648644 C30.0143038,38.161678 31.3483671,35.733904 33.608557,34.3710169 C33.6882785,34.3196667 33.768,34.274209 33.8511139,34.2312768 C33.9325316,34.274209 34.0131013,34.3221921 34.0902785,34.3710169 C36.3496203,35.7364294 37.6845316,38.161678 38.8735696,40.4648644 C40.4111772,43.4381299 41.297443,46.7077119 41.958962,49.9697175 C43.3617215,56.878435 43.2378987,63.9083729 44.1004177,70.8768588 C44.5745063,74.7180282 45.4226076,78.4127232 46.640481,82.0863729 C47.7642152,85.4662316 48.5003671,88.7770621 48.4876456,92.353904 C48.4766203,96.1807627 47.8761646,99.9688983 47.6403924,103.783972 C47.4207342,107.392802 47.7981392,110.985638 48.3841772,114.546486 C49.4400633,120.967797 51.4356456,127.888299 50.0651139,134.369379 C50.6070506,133.333955 51.0896203,132.248023 51.1651013,131.145254 C51.1701899,131.069492 51.2711139,131.069492 51.2778987,131.145254 C51.5009494,133.367627 50.3483797,134.874463 49.4231013,136.675932 L49.420557,136.675932 C49.3264177,136.953729 49.2246456,137.223107 49.1135443,137.492486 C49.0914937,137.551412 49.0456962,137.576667 48.9998987,137.576667 L48.9634304,137.660847 C48.3697595,139.100339 48.2798608,140.624011 48.4011392,142.156102 C48.4766203,143.132599 48.5707595,144.13435 48.9167848,144.992994 C48.9659747,145.110847 49.0160127,145.228701 49.0745316,145.338136 C49.4086835,146.003164 49.9268734,146.541921 50.7478354,146.887062 C50.7622532,146.89548 50.7597089,146.920734 50.7435949,146.920734 C49.9921772,146.937571 49.4281899,146.63452 49.0066835,146.154689 C48.9998987,147.063842 49.2678987,147.863559 50.1473797,148.132938 C51.7146709,148.60435 53.9426329,148.520169 55.526038,148.217119 C56.8541646,147.964576 58.105962,147.46791 59.4747975,147.46791 C59.8326962,147.459492 60.1855063,147.484746 60.5332278,147.526836 C60.702,146.988079 60.8114051,146.440904 60.8207342,145.784294 C60.8300633,145.077175 60.8427848,144.361638 60.8504177,143.65452 C59.2678608,144.732034 56.8363544,144.521582 55.0392278,143.957571 C55.0036076,143.940734 55.0078481,143.890226 55.0494051,143.890226 C56.4903291,143.856554 57.9558481,144.008079 59.3484304,143.528249 C59.9412532,143.317797 60.4696203,142.972655 60.8639873,142.534915 C60.9225063,142.475989 60.9759367,142.408644 61.0268228,142.341299 C61.5713038,141.634181 61.7841772,140.725028 61.4381519,139.756949 C61.1701519,139.00774 60.6774051,138.384802 60.3025443,137.69452 C60.1931392,137.492486 60.0913671,137.282034 60.0116456,137.063164 C59.9683924,136.945311 59.9293797,136.827458 59.898,136.701186 C59.5952278,135.522655 59.6240633,134.302034 59.6681646,133.098249 C59.6707089,133.014068 59.8106456,132.988814 59.8233671,133.072994 C59.9853544,134.209435 60.1592152,135.320621 60.5230506,136.372881 C61.7502532,134.461977 61.9563418,132.062825 61.6756203,129.764689 C61.2761646,126.495949 60.6460253,123.41409 60.9004557,120.102418 C61.0658354,117.943181 61.4144051,115.80078 61.7918101,113.666797 C61.8884937,113.11878 61.9877215,112.569921 62.0852532,112.024429 C62.2107722,111.325729 62.3345949,110.626186 62.452481,109.924119 C62.452481,109.919068 62.4550253,109.911492 62.4550253,109.906441 C62.8816203,108.056147 63.1699747,106.19996 63.3446835,104.331989 L63.3446835,104.319362 C63.6644177,100.920983 63.5991139,97.485565 63.2717468,93.9903785 C62.6153165,86.9924294 61.3168734,80.1106497 61.9173291,73.0520904 C62.4821646,66.388339 64.068962,59.854226 65.0103544,53.2443503 L65.0103544,53.2443503 Z" id="Fill-210" fill="#2B437F" mask="url(#mask-2)"></path>
                <path d="M63.2717468,93.9903785 C63.5991139,97.485565 63.6644177,100.920983 63.3446835,104.319362 L63.3446835,104.331989 C63.1699747,106.19996 62.8816203,108.056147 62.4550253,109.906441 C62.4550253,109.911492 62.452481,109.919068 62.452481,109.924119 C62.3345949,110.626186 62.2107722,111.325729 62.0852532,112.024429 C61.9877215,112.569921 61.8884937,113.11878 61.7918101,113.666797 C61.4144051,115.80078 61.0658354,117.943181 60.9004557,120.102418 C60.6460253,123.41409 61.2761646,126.495949 61.6756203,129.764689 C61.9563418,132.062825 61.7502532,134.461977 60.5230506,136.372881 C60.1592152,135.320621 59.9853544,134.209435 59.8233671,133.072994 C59.8106456,132.988814 59.6707089,133.014068 59.6681646,133.098249 C59.6240633,134.302034 59.5952278,135.522655 59.898,136.701186 C59.9293797,136.827458 59.9683924,136.945311 60.0116456,137.063164 C60.0913671,137.282034 60.1931392,137.492486 60.3025443,137.69452 C60.6774051,138.384802 61.1701519,139.00774 61.4381519,139.756949 C61.7841772,140.725028 61.5713038,141.634181 61.0268228,142.341299 C60.9759367,142.408644 60.9225063,142.475989 60.8639873,142.534915 C60.4696203,142.972655 59.9412532,143.317797 59.3484304,143.528249 C57.9558481,144.008079 56.4903291,143.856554 55.0494051,143.890226 C55.0078481,143.890226 55.0036076,143.940734 55.0392278,143.957571 C56.8363544,144.521582 59.2678608,144.732034 60.8504177,143.65452 C60.8427848,144.361638 60.8300633,145.077175 60.8207342,145.784294 C60.8114051,146.440904 60.702,146.988079 60.5332278,147.526836 C60.1855063,147.484746 59.8326962,147.459492 59.4747975,147.46791 C58.105962,147.46791 56.8541646,147.964576 55.526038,148.217119 C53.9426329,148.520169 51.7146709,148.60435 50.1473797,148.132938 C49.2678987,147.863559 48.9998987,147.063842 49.0066835,146.154689 C49.4281899,146.63452 49.9921772,146.937571 50.7435949,146.920734 C50.7597089,146.920734 50.7622532,146.89548 50.7478354,146.887062 C49.9268734,146.541921 49.4086835,146.003164 49.0745316,145.338136 C49.0160127,145.228701 48.9659747,145.110847 48.9167848,144.992994 C48.5707595,144.13435 48.4766203,143.132599 48.4011392,142.156102 C48.2798608,140.624011 48.3697595,139.100339 48.9634304,137.660847 L48.9998987,137.576667 C49.0456962,137.576667 49.0914937,137.551412 49.1135443,137.492486 C49.2246456,137.223107 49.3264177,136.953729 49.420557,136.675932 L49.4231013,136.675932 C50.3483797,134.874463 51.5009494,133.367627 51.2778987,131.145254 C51.2711139,131.069492 51.1701899,131.069492 51.1651013,131.145254 C51.0896203,132.248023 50.6070506,133.333955 50.0651139,134.369379 C51.4356456,127.888299 49.4400633,120.967797 48.3841772,114.546486 C47.7981392,110.985638 47.4207342,107.392802 47.6403924,103.783972 C47.8761646,99.9688983 48.4766203,96.1807627 48.4876456,92.353904 C48.5003671,88.7770621 47.7642152,85.4662316 46.640481,82.0863729 C45.4226076,78.4127232 44.5745063,74.7180282 44.1004177,70.8768588 C43.2378987,63.9083729 43.3617215,56.878435 41.958962,49.9697175 C41.297443,46.7077119 40.4111772,43.4381299 38.8735696,40.4648644 C37.6845316,38.161678 36.3496203,35.7364294 34.0902785,34.3710169 C34.0131013,34.3221921 33.9325316,34.274209 33.8511139,34.2312768 C33.768,34.274209 33.6882785,34.3196667 33.608557,34.3710169 C31.3483671,35.733904 30.0143038,38.161678 28.8227215,40.4648644 C27.2842658,43.4381299 26.3988481,46.7077119 25.7373291,49.9697175 C24.3345696,56.878435 24.4583924,63.9083729 23.5984177,70.8768588 C23.1209367,74.7180282 22.2762278,78.4127232 21.0558101,82.0863729 C19.9337722,85.4662316 19.1976203,88.7770621 19.2077975,92.353904 C19.220519,96.1807627 19.823519,99.9688983 20.0550506,103.783972 C20.2764051,107.392802 19.8973038,110.985638 19.3146582,114.546486 C18.2587722,120.965271 16.2623418,127.885774 17.6311772,134.369379 C17.0883924,133.333955 16.6066709,132.248023 16.532038,131.145254 C16.5269494,131.069492 16.4251772,131.069492 16.4175443,131.145254 C16.1944937,133.367627 17.3479114,134.874463 18.2723418,136.675932 L18.2748861,136.675932 C18.3698734,136.953729 18.4716456,137.223107 18.5827468,137.492486 C18.6047975,137.551412 18.6505949,137.576667 18.6963924,137.576667 C18.7082658,137.601921 18.7209873,137.627175 18.7328608,137.660847 C19.3265316,139.100339 19.4155823,140.624011 19.2951519,142.156102 C19.220519,143.132599 19.1246835,144.13435 18.7786582,144.992994 C18.7311646,145.110847 18.6794304,145.228701 18.6217595,145.338136 C18.2876076,146.003164 17.7694177,146.541921 16.9484557,146.887062 C16.9331899,146.89548 16.9357342,146.920734 16.9526962,146.920734 C17.7041139,146.937571 18.2681013,146.63452 18.6896076,146.154689 C18.6963924,147.063842 18.4275443,147.863559 17.5489114,148.132938 C15.9816203,148.60435 13.7536582,148.520169 12.1694051,148.217119 C10.8429747,147.964576 9.59032911,147.46791 8.22234177,147.46791 C7.86359494,147.459492 7.50993671,147.484746 7.16391139,147.526836 C6.99429114,146.988079 6.88573418,146.440904 6.87555696,145.784294 C6.86537975,145.077175 6.85350633,144.361638 6.84672152,143.65452 C8.42758228,144.732034 10.8590886,144.521582 12.6562152,143.957571 C12.6926835,143.940734 12.688443,143.890226 12.6468861,143.890226 C11.2051139,143.856554 9.74044304,144.008079 8.34786076,143.528249 C7.75418987,143.317797 7.22667089,142.972655 6.8314557,142.534915 C6.77378481,142.475989 6.72035443,142.408644 6.66946835,142.341299 C6.12413924,141.634181 5.91126582,140.725028 6.25729114,139.756949 C6.52698734,139.00774 7.01803797,138.384802 7.39374684,137.69452 C7.5023038,137.492486 7.60407595,137.282034 7.68379747,137.063164 C7.72789873,136.945311 7.76691139,136.827458 7.79829114,136.701186 C8.10021519,135.522655 8.07137975,134.302034 8.02812658,133.098249 C8.02558228,133.014068 7.88479747,132.988814 7.87377215,133.072994 C7.71093671,134.209435 7.53622785,135.320621 7.17408861,136.372881 C5.94518987,134.461977 5.73910127,132.062825 6.02067089,129.764689 C6.42012658,126.495949 7.04941772,123.41409 6.79498734,120.102418 C6.6304557,117.943181 6.28188608,115.80078 5.90363291,113.666797 C5.80694937,113.11878 5.70772152,112.569921 5.61103797,112.024429 C5.48467089,111.325729 5.3616962,110.626186 5.24296203,109.924119 C5.24296203,109.919068 5.24041772,109.911492 5.24041772,109.906441 C4.81382278,108.056147 4.52546835,106.19996 4.35160759,104.331989 L4.35160759,104.319362 C4.03187342,100.920983 4.09802532,97.485565 4.4245443,93.9903785 C5.08097468,86.9924294 6.37856962,80.1106497 5.77811392,73.0520904 C5.21412658,66.388339 3.62732911,59.854226 2.68593671,53.2443503 C1.68008861,46.2127288 2.18725316,39.2602373 2.71986076,32.2143051 C3.00991139,28.353774 3.16002532,24.4865085 3.46364557,20.6318701 C3.67651899,17.9448192 3.95724051,15.2914407 4.63741772,12.7188757 C4.70526582,12.4612825 4.77565823,12.2045311 4.85283544,11.9494633 L4.85283544,11.9444124 C4.91135443,11.7524802 4.96902532,11.5622316 5.03432911,11.3719831 C7.638,12.8459887 10.9031899,12.9949887 13.7443291,11.538661 C16.1631139,10.2978362 17.6888481,8.32379661 18.5293165,6.03071186 C18.7913797,6.07616949 19.0525949,6.12246893 19.3146582,6.16540113 C19.2900633,6.60987571 19.287519,7.05266667 19.3146582,7.4920904 C19.321443,7.63183051 19.3333165,7.7690452 19.346038,7.9079435 L19.346038,7.91046893 C19.5097215,8.09566667 19.6852785,8.2690791 19.8710127,8.42481356 C20.326443,8.80951977 20.845481,9.08142373 21.389962,9.11257062 C21.4306709,9.11762147 21.4747722,9.11762147 21.5188734,9.11762147 C21.5977468,9.00229379 21.6732278,8.88444068 21.7436203,8.76406215 C22.1481646,8.09566667 22.4814684,7.37171186 22.7486203,6.61240113 C22.8622658,6.62502825 22.9759114,6.63344633 23.089557,6.64354802 C24.5381139,6.76392655 25.9943038,6.84810734 27.4547342,6.90619209 C27.3767089,8.34147458 27.3114051,9.77844068 27.2681519,11.2162486 C27.1536582,14.961452 26.7134937,18.7984124 26.9823418,22.538565 C27.1375443,24.7095876 27.6871139,28.4404802 30.3654177,28.8824294 C32.7825063,29.2814463 35.2894937,28.0793446 36.4149241,25.9352599 C36.4878608,25.7980452 36.2919494,25.6827175 36.2071392,25.8131977 C36.1783038,25.8552881 36.1494684,25.9015876 36.1172405,25.9453616 C34.5847215,28.1466893 30.5859241,30.0079266 29.0042152,26.8385198 C27.7159494,24.2575367 27.9432405,20.9593333 27.8397722,18.1586384 C27.6989873,14.4184859 27.7201899,10.6657062 27.8033038,6.9179774 C29.6801519,6.98448023 31.557,7.00720904 33.4270633,6.9920565 C33.8824937,6.98953107 34.3370759,6.98363842 34.7925063,6.97353672 C34.664443,9.09068362 34.572,11.2061469 34.5406203,13.3291864 C34.5092405,15.557452 34.5066962,17.7840339 34.6330633,20.009774 C34.7416203,21.9518249 34.915481,23.9881582 35.8271899,25.7408023 C35.8382152,25.7668983 35.8678987,25.7795254 35.895038,25.7795254 C35.9382911,25.7795254 35.9815443,25.7500621 35.9747595,25.7020791 C35.7059114,23.6463842 35.3056076,21.6395141 35.2241899,19.562774 C35.1385316,17.3336667 35.2267342,15.0818305 35.2555696,12.8527232 C35.2793165,10.8862599 35.2894937,8.92232203 35.3081519,6.95838418 C38.0551519,6.88851412 40.7987595,6.70415819 43.5287975,6.40110734 C43.9596329,6.35312429 44.395557,6.30514124 44.8289367,6.25379096 C45.1122025,7.14358192 45.4828228,7.99044068 45.9526709,8.76406215 C45.9670886,8.79015819 45.9840506,8.81709605 45.9984684,8.84150847 C46.054443,8.93494915 46.1155063,9.02586441 46.1782658,9.11762147 C46.221519,9.11762147 46.2647722,9.11762147 46.3063291,9.11257062 C46.8516582,9.08142373 47.3698481,8.80951977 47.8244304,8.42481356 C48.0110127,8.2690791 48.1857215,8.09566667 48.3502532,7.91046893 L48.3502532,7.9079435 C48.3621266,7.7690452 48.3748481,7.63183051 48.3816329,7.4920904 C48.4138608,6.92723729 48.4036835,6.35733333 48.3527975,5.78827119 C48.583481,5.75207345 48.8150127,5.71419209 49.0456962,5.6729435 C49.8496962,8.11755367 51.4068101,10.2330169 53.951962,11.538661 C56.7931013,12.9949887 60.057443,12.8459887 62.6611139,11.3719831 C62.7264177,11.5622316 62.7849367,11.7524802 62.8426076,11.9444124 L62.8426076,11.9494633 C62.9206329,12.2045311 62.9910253,12.4612825 63.0580253,12.7188757 C63.7390506,15.2914407 64.0197722,17.9448192 64.2334937,20.6318701 C64.5354177,24.4865085 64.6863797,28.353774 64.9764304,32.2143051 C65.5098861,39.2602373 66.0153544,46.2127288 65.0103544,53.2443503 C64.068962,59.854226 62.4821646,66.388339 61.9173291,73.0520904 C61.3168734,80.1106497 62.6153165,86.9924294 63.2717468,93.9903785 Z M4.88421519,9.92070621 C7.25550633,11.0571469 10.0991899,11.175 12.5739494,10.2043955 C14.6187215,9.40131073 16.4251772,7.79514124 17.3742025,5.81184181 C17.436962,5.6830452 17.4971772,5.55003955 17.554,5.41535028 C17.9263165,4.50872316 18.1205316,3.53054237 18.081519,2.52374011 C18.3088101,2.53552542 18.5394937,2.54478531 18.7693291,2.55488701 C18.7133544,3.30662147 18.6124304,4.0549887 18.425,4.78820339 C18.3698734,5.0230678 18.3020253,5.25456497 18.2248481,5.48774576 C18.2248481,5.49279661 18.2223038,5.49953107 18.2197595,5.50458192 C18.1807468,5.62411864 18.1391899,5.74533898 18.0942405,5.86235028 C18.0840633,5.88928814 18.0713418,5.9179096 18.0594684,5.94400565 C17.2478354,8.0140113 15.7008987,9.77338983 13.7485696,10.8626893 C11.0795949,12.3484802 7.82712658,12.3030226 5.15136709,11.0142147 C5.06570886,10.9763333 4.98429114,10.9325593 4.90202532,10.8887853 C4.8893038,10.8837345 4.87743038,10.8778418 4.86301266,10.8702655 C4.86810127,10.552904 4.87488608,10.2355424 4.88421519,9.92070621 Z M5.69160759,2.95811299 C5.72044304,2.83352542 5.74927848,2.70557062 5.77811392,2.58098305 C5.89939241,2.07168927 6.03763291,1.5640791 6.19198734,1.05646893 C9.99487342,1.9689887 13.9402405,2.31918079 17.8949367,2.51616384 C17.7405823,3.52380791 17.4657975,4.48262712 17.0714304,5.36315819 C17.018,5.48269492 16.9628734,5.60054802 16.9043544,5.71840113 C15.9426076,7.65119209 14.3659873,9.17233898 12.1142785,9.96784746 C9.6488481,10.8391186 7.1715443,10.5141808 4.89948101,9.54357627 C4.98174684,7.30689266 5.20649367,5.11987571 5.69160759,2.95811299 Z M18.8982405,4.83113559 C19.0848228,4.0979209 19.2103418,3.34281921 19.2781899,2.5759322 L19.2807342,2.5759322 C19.522443,2.58855932 19.7641519,2.59866102 20.0092532,2.60539548 C19.7616076,3.34281921 19.5733291,4.1080226 19.4520506,4.87743503 C19.413038,5.11482486 19.3816582,5.35558192 19.3604557,5.59549718 C19.3604557,5.5980226 19.3604557,5.5980226 19.3604557,5.60054802 C19.1399494,5.57950282 18.9168987,5.55677401 18.6963924,5.53572881 C18.7718734,5.30254802 18.8371772,5.06936723 18.8982405,4.83113559 Z M20.426519,2.62223164 C20.4578987,2.4900678 20.4918228,2.35706215 20.5257468,2.22489831 C20.5393165,2.16260452 20.5571266,2.10031073 20.5732405,2.03801695 C20.585962,1.9900339 20.6003797,1.94120904 20.6147975,1.8940678 C20.6147975,1.8940678 20.6147975,1.8940678 20.6147975,1.89154237 C20.6343038,1.81157062 20.6588987,1.7349661 20.6826456,1.65499435 C20.6851899,1.65162712 20.6851899,1.64657627 20.6877342,1.64152542 C20.7750886,1.33679096 20.8768608,1.03037288 20.9854177,0.725638418 C21.7682152,0.689440678 22.5306582,0.715536723 23.3151519,0.766045198 L23.290557,1.25681921 L23.2837722,1.40329379 L23.2718987,1.67519774 C23.2693544,1.71139548 23.2668101,1.74759322 23.2642658,1.78294915 C23.2591772,1.85281921 23.2566329,1.92521469 23.2523924,1.99761017 C23.2523924,2.01360452 23.2498481,2.02875706 23.2498481,2.04475141 C23.2430633,2.15334463 23.2354304,2.26109605 23.2277975,2.36968927 C23.2201646,2.48501695 23.2116835,2.60287006 23.2040506,2.71819774 C23.1675823,3.1820339 23.1183924,3.64671186 23.0488481,4.1080226 C23.0437595,4.14842938 23.039519,4.19136158 23.0318861,4.23261017 C23.022557,4.29237853 23.0123797,4.35467232 23.0030506,4.41528249 C22.9665823,4.63836158 22.9233291,4.85807345 22.8766835,5.0769435 C22.8291899,5.30928249 22.7723671,5.54077966 22.7121519,5.7689096 C22.6977342,5.82446893 22.6833165,5.87666102 22.6663544,5.93222034 C22.6061392,6.15361582 22.5408354,6.36996045 22.4678987,6.58630508 C22.2253418,7.32962147 21.9225696,8.05273446 21.5689114,8.76406215 C20.9133291,8.7379661 20.3629114,8.4399661 19.8684684,8.02411299 C19.8710127,7.42727119 19.8862785,6.84389831 19.9202025,6.26136723 C19.9320759,6.06017514 19.9439494,5.86066667 19.9609114,5.66031638 C19.9634557,5.65274011 19.9634557,5.64684746 19.9634557,5.63927119 C19.982962,5.39851412 20.0041646,5.15859887 20.0338481,4.91784181 C20.1203544,4.14590395 20.2467215,3.3840678 20.426519,2.62223164 Z M23.3609494,4.27638418 C23.3685823,4.23261017 23.3779114,4.18715254 23.3855443,4.14169492 C23.4678101,3.67533333 23.5314177,3.20139548 23.5789114,2.73082486 C24.9570759,2.7779661 26.3352405,2.81416384 27.7159494,2.84362712 C27.6769367,3.40342938 27.6379241,3.96659887 27.6014557,4.52640113 C27.5946709,4.61731638 27.5878861,4.71075706 27.5827975,4.80251412 C27.5751646,4.91531638 27.5675316,5.02811864 27.5607468,5.14176271 C27.5463291,5.3530565 27.5336076,5.56182486 27.5225823,5.77143503 C27.5098608,5.96673446 27.4971392,6.16287571 27.4886582,6.35733333 C26.2487342,6.28493785 25.0105063,6.18223729 23.7756709,6.04754802 C23.5017342,6.01892655 23.2303418,5.99030508 22.9572532,5.96168362 C22.9759114,5.90107345 22.9954177,5.83877966 23.0123797,5.77648588 C23.0776835,5.54751412 23.1387468,5.31685876 23.1913291,5.08620339 C23.2540886,4.81935028 23.3100633,4.54744633 23.3609494,4.27638418 Z M31.5502152,2.9059209 C32.7248354,2.92023164 33.8986076,2.92275706 35.0757722,2.92023164 C35.0248861,3.57936723 34.974,4.23766102 34.9282025,4.8959548 C34.9256582,4.93215254 34.9231139,4.97087571 34.9205696,5.00707345 C34.9137848,5.11735028 34.9044557,5.22846893 34.8993671,5.33790395 C34.8942785,5.39430508 34.8917342,5.45154802 34.8866456,5.50710734 C34.865443,5.83372881 34.8442405,6.16287571 34.8238861,6.49033898 C34.4363038,6.49959887 34.0461772,6.50464972 33.6568987,6.50885876 C32.9283797,6.51643503 32.1981646,6.5139096 31.4696456,6.50717514 C30.2509241,6.48781356 29.0305063,6.44656497 27.8143291,6.37753672 C27.8194177,6.1729774 27.8245063,5.96757627 27.8295949,5.76385876 C27.8346835,5.55677401 27.8397722,5.34800565 27.8474051,5.14176271 C27.8482532,5.04074576 27.8507975,4.93720339 27.8533418,4.83618644 C27.8558861,4.73937853 27.8584304,4.64341243 27.863519,4.54744633 C27.8787848,3.9800678 27.8923544,3.41521469 27.9118608,2.84783616 C29.1229494,2.87477401 30.3365823,2.89581921 31.5502152,2.9059209 Z M44.1190759,2.74008475 C44.1657215,3.20897175 44.228481,3.67785876 44.3107468,4.14169492 C44.3175316,4.18715254 44.3277089,4.23261017 44.3344937,4.27638418 C44.3862278,4.54744633 44.4413544,4.81935028 44.5041139,5.08620339 C44.5583924,5.31685876 44.6186076,5.54751412 44.6839114,5.77648588 C44.6856076,5.78322034 44.6881519,5.79248023 44.6906962,5.8000565 C44.3031139,5.84803955 43.9163797,5.89433898 43.5287975,5.93474576 C40.7987595,6.22011864 38.0576962,6.40615819 35.3132405,6.47771186 C35.3157848,6.16287571 35.3183291,5.85056497 35.3234177,5.53572881 C35.3234177,5.45912429 35.3251139,5.37915254 35.3251139,5.30254802 C35.3251139,5.21079096 35.3251139,5.11735028 35.3276582,5.0230678 C35.3276582,4.97340113 35.3302025,4.92205085 35.3302025,4.87238418 C35.3378354,4.22335028 35.3446203,3.57179096 35.3615823,2.92023164 C38.282443,2.91349718 41.2041519,2.85709605 44.1190759,2.74008475 Z M46.7108734,0.725638418 C46.8202785,1.03037288 46.9220506,1.33679096 47.008557,1.64152542 C47.0111013,1.64657627 47.0111013,1.65162712 47.0136456,1.65499435 C47.0204304,1.68277401 47.0306076,1.71139548 47.0373924,1.73749153 C47.0670759,1.83850847 47.0959114,1.937 47.1222025,2.03801695 C47.1400127,2.10031073 47.1561266,2.16260452 47.1713924,2.22489831 C47.2027722,2.34864407 47.2341519,2.47070621 47.2629873,2.59613559 C47.444481,3.36554802 47.5750886,4.13916949 47.662443,4.91784181 C47.6794051,5.06684181 47.6963671,5.21584181 47.7082405,5.36484181 C47.7184177,5.45659887 47.7252025,5.54751412 47.7328354,5.63927119 C47.7404684,5.71840113 47.7447089,5.79753107 47.7497975,5.87918644 C47.8032278,6.58630508 47.8244304,7.29847458 47.8269747,8.02411299 C47.3333797,8.4399661 46.7838101,8.7379661 46.1265316,8.76406215 C45.7152025,7.93656497 45.3742658,7.09307345 45.1122025,6.22011864 C45.0664051,6.07196045 45.0248481,5.92043503 44.9841392,5.7689096 C44.9841392,5.76638418 44.9815949,5.76385876 44.9815949,5.76133333 C44.9230759,5.53572881 44.8679494,5.30675706 44.8187595,5.0769435 C44.7738101,4.85807345 44.7297089,4.63836158 44.6932405,4.41528249 C44.6839114,4.35467232 44.6737342,4.29237853 44.6644051,4.23261017 C44.6567722,4.19136158 44.6525316,4.14842938 44.647443,4.1080226 C44.5770506,3.64923729 44.5304051,3.18708475 44.4939367,2.72577401 C44.4854557,2.6070791 44.4752785,2.48754237 44.4676456,2.36968927 C44.4608608,2.26109605 44.4540759,2.15334463 44.446443,2.04475141 C44.4438987,1.98245763 44.4388101,1.92016384 44.4362658,1.85787006 C44.4337215,1.83345763 44.4337215,1.80736158 44.4311772,1.78294915 C44.429481,1.74759322 44.4269367,1.71139548 44.4243924,1.67519774 L44.412519,1.40329379 L44.4048861,1.25681921 L44.3811392,0.766045198 C45.1656329,0.715536723 45.9289241,0.689440678 46.7108734,0.725638418 Z M48.4138608,2.52879096 C48.4791646,3.31167232 48.6072278,4.08361017 48.7988987,4.83113559 C48.8277342,4.94730508 48.8591139,5.06179096 48.893038,5.17711864 C48.6971266,5.20826554 48.5003671,5.23941243 48.3019114,5.27055932 C48.2849494,5.13923729 48.265443,5.00707345 48.2433924,4.87743503 C48.1204177,4.09539548 47.9262025,3.32177401 47.6743165,2.57172316 C47.9211139,2.55741243 48.1670633,2.54310169 48.4138608,2.52879096 Z M50.5103671,2.38905085 C54.1996076,2.12472316 57.9312532,1.90837853 61.6154051,1.4369661 C61.7265063,1.81662147 61.8257342,2.19880226 61.9173291,2.58098305 C61.9470127,2.70557062 61.9758481,2.83352542 62.0046835,2.95811299 C62.5067595,5.18974576 62.728962,7.45168362 62.8035949,9.76160452 C60.6875823,10.723791 58.4206076,11.0024294 56.0450759,10.2136554 C53.5134937,9.37184746 51.7723418,7.62930508 50.7266329,5.35810734 C50.6613291,5.21331638 50.5977215,5.06936723 50.5366582,4.92036723 C50.3797595,4.53818644 50.2423671,4.14337853 50.1202405,3.73510169 C50.116,3.72247458 50.0964937,3.72247458 50.0964937,3.73762712 C50.1473797,4.14590395 50.2372785,4.54997175 50.358557,4.94730508 C50.4043544,5.10051412 50.4577848,5.25203955 50.5129114,5.40356497 C51.3728861,7.70675141 53.3269114,9.70436158 55.5701392,10.6295085 C57.7768987,11.538661 60.6070127,11.3585141 62.8214051,10.2456441 C62.8264937,10.451887 62.8315823,10.6614972 62.8332785,10.8702655 C62.8188608,10.8778418 62.8061392,10.8837345 62.7951139,10.8887853 C62.712,10.9325593 62.6297342,10.9763333 62.5457722,11.0142147 C59.8683165,12.3030226 56.6158481,12.3484802 53.9477215,10.8626893 C51.9691013,9.7590791 50.4060506,7.96771186 49.6028987,5.86235028 C49.5689747,5.77396045 49.5375949,5.68472881 49.5062152,5.59297175 C49.496038,5.56435028 49.4858608,5.53320339 49.4765316,5.50458192 C49.4332785,5.37157627 49.3917215,5.23772881 49.3527089,5.10303955 C49.3238734,4.99949718 49.2975823,4.89342938 49.270443,4.78820339 C49.0796203,4.03562712 48.9778481,3.26874011 48.9218734,2.49511864 C49.4519367,2.46312994 49.9803038,2.4269322 50.5103671,2.38905085 Z M66.7201266,49.8282938 C67.4036962,42.697339 66.5454177,35.5251356 65.9263038,28.4211186 C65.6379494,25.0892429 65.3207595,21.7304294 64.8314051,18.4229661 C64.5014937,16.2090113 64.0274051,14.001791 63.222557,11.9183164 L63.222557,11.915791 C63.2836203,11.5908531 63.3294177,11.262548 63.3658861,10.9325593 C63.3803038,10.8054463 63.3930253,10.6749661 63.4048987,10.5453277 C63.4244051,10.3264576 63.4388228,10.110113 63.4456076,9.89208475 C63.4557848,9.74055932 63.4608734,9.58819209 63.4634177,9.43750847 C63.5058228,7.21345198 63.1216329,4.95824859 62.4414557,2.81163842 C62.4075316,2.69967797 62.368519,2.5860339 62.3295063,2.47323164 C62.2082278,2.10957062 62.0801646,1.75011864 61.9419241,1.3940339 C61.8571139,1.17011299 61.7680633,0.949559322 61.6730759,0.730689266 C61.6637468,0.706276836 61.6535696,0.681864407 61.6442405,0.658293785 L61.6416962,0.658293785 C61.6154051,0.593474576 61.5882658,0.530338983 61.5611266,0.468045198 C61.4847975,0.478146893 61.4042278,0.48740678 61.3270506,0.496666667 C60.9589747,0.544649718 60.593443,0.590949153 60.224519,0.634723164 C60.2219747,0.63640678 60.2177342,0.63640678 60.216038,0.63640678 C56.4326582,1.10024294 52.6611519,1.45632768 48.8667468,1.60280226 C48.6971266,1.61037853 48.5266582,1.6179548 48.3578861,1.62132203 C48.0186456,1.63394915 47.6794051,1.64405085 47.3384684,1.65162712 C47.3333797,1.64152542 47.3282911,1.62889831 47.3232025,1.61963842 C47.2002278,1.31911299 47.0696203,1.02532203 46.9288354,0.737423729 C46.9144177,0.706276836 46.8991519,0.674288136 46.883038,0.643141243 C46.8626835,0.601050847 46.841481,0.557276836 46.8202785,0.513502825 C46.7524304,0.49919209 46.6862785,0.484881356 46.6184304,0.473096045 C45.8746456,0.333355932 45.1020253,0.307259887 44.3616329,0.420062147 C44.2428987,0.439423729 44.1241646,0.460468927 44.0079747,0.48740678 C44.0079747,0.590949153 44.0079747,0.691966102 44.010519,0.792983051 C44.0130633,0.951242938 44.0156076,1.11034463 44.0223924,1.26860452 C44.0223924,1.33679096 44.0249367,1.40581921 44.0300253,1.47316384 C44.0300253,1.53798305 44.0342658,1.60532768 44.0368101,1.67014689 C44.0393544,1.7139209 44.0393544,1.75432768 44.044443,1.79725989 C44.044443,1.82419774 44.0461392,1.84776836 44.0486835,1.87470621 C42.8816962,1.92268927 41.7164051,1.96646328 40.5494177,1.99761017 C40.5443291,2.00013559 40.5392405,2.00013559 40.5341519,1.99761017 C40.0863544,2.0110791 39.6368608,2.02370621 39.1890633,2.03128249 C39.0771139,2.03549153 38.9651646,2.03801695 38.8540633,2.03970056 C37.6964051,2.0649548 36.5370506,2.086 35.376,2.09862712 C35.2988228,2.10031073 35.2191013,2.10283616 35.1385316,2.10283616 C33.2523544,2.12472316 31.3602405,2.13145763 29.4672785,2.11967232 C28.9558734,2.11714689 28.4478608,2.11209605 27.9364557,2.10788701 C27.880481,2.10536158 27.8245063,2.10536158 27.7693797,2.10536158 C26.6982278,2.08852542 25.6279241,2.06916384 24.5576203,2.03801695 C24.2497595,2.03128249 23.9452911,2.02118079 23.6399747,2.0110791 C23.6467595,1.94120904 23.6493038,1.86712994 23.6518481,1.79725989 C23.6569367,1.75432768 23.6569367,1.7139209 23.659481,1.67014689 C23.6620253,1.60532768 23.6662658,1.53798305 23.6662658,1.47316384 C23.6713544,1.40581921 23.6738987,1.33679096 23.6738987,1.26860452 C23.6806835,1.11034463 23.6832278,0.951242938 23.6857722,0.792983051 C23.6883165,0.691966102 23.6883165,0.590949153 23.6883165,0.48740678 C23.5721266,0.460468927 23.4533924,0.439423729 23.3346582,0.420062147 C22.5934177,0.307259887 21.8207975,0.333355932 21.0770127,0.473096045 C21.0091646,0.484881356 20.9447089,0.49919209 20.8768608,0.513502825 C20.853962,0.557276836 20.8327595,0.601050847 20.8141013,0.643141243 C20.7962911,0.674288136 20.7818734,0.706276836 20.7674557,0.737423729 C20.6266709,1.02532203 20.4969114,1.31911299 20.3722405,1.61963842 C20.368,1.62889831 20.3629114,1.64152542 20.3578228,1.65162712 C20.3289873,1.72486441 20.3001519,1.80231073 20.2713165,1.87638983 C19.9558228,1.86039548 19.6437215,1.84524294 19.3316203,1.82840678 C19.1586076,1.81914689 18.9898354,1.80988701 18.8202152,1.79725989 C16.7203165,1.68024859 14.622962,1.52367232 12.5357848,1.32163842 C11.4383418,1.21557062 10.3315696,1.09266667 9.22225316,0.939457627 C9.21037975,0.936932203 9.20020253,0.936932203 9.18832911,0.93440678 L9.1815443,0.93440678 C8.61416456,0.840966102 8.04763291,0.741632768 7.48110127,0.63640678 C7.47855696,0.63640678 7.47346835,0.63640678 7.47092405,0.634723164 C7.169,0.598525424 6.86537975,0.562327684 6.5634557,0.521079096 C6.4981519,0.513502825 6.4345443,0.506768362 6.36924051,0.496666667 C6.29206329,0.48740678 6.21234177,0.478146893 6.13431646,0.468045198 C6.10802532,0.530338983 6.08088608,0.593474576 6.05459494,0.658293785 L6.05205063,0.658293785 C6.00625316,0.768570621 5.95960759,0.879689266 5.91635443,0.989124294 L5.91381013,0.989124294 C5.71535443,1.47737288 5.53131646,1.97067232 5.36678481,2.47323164 C5.32777215,2.5860339 5.28960759,2.69967797 5.25568354,2.81163842 C4.59416456,4.89342938 4.21082278,7.07623729 4.23117722,9.23463277 C4.23117722,9.34827684 4.23372152,9.4610791 4.23796203,9.57472316 C4.24474684,9.89881921 4.26510127,10.2229153 4.29139241,10.5453277 C4.30326582,10.6749661 4.31513924,10.8054463 4.32955696,10.9325593 C4.36602532,11.262548 4.41267089,11.5908531 4.47288608,11.915791 L4.47288608,11.9183164 C3.66888608,14.001791 3.19394937,16.2090113 2.86488608,18.4229661 C2.37553165,21.7304294 2.05834177,25.0892429 1.76998734,28.4211186 C1.15002532,35.5251356 0.292594937,42.697339 0.975316456,49.8282938 C1.63937975,56.7487966 3.50350633,63.4672655 4.36348101,70.3625141 C5.27179747,77.6651977 4.35924051,84.8441356 3.63241772,92.1198814 C2.98107595,98.6489435 2.38994937,105.931424 5.04196203,112.125446 C5.45074684,115.366407 5.88497468,118.604 5.86546835,121.871056 C5.84596203,125.409175 4.56702532,128.87574 4.77565823,132.399548 C4.88167089,134.201017 5.4948481,136.052994 6.81534177,137.248362 C6.66692405,137.559831 6.5006962,137.854463 6.30393671,138.149096 C5.51435443,139.344463 5.01312658,140.489322 5.52622785,141.920395 C5.74927848,142.534915 6.08597468,143.014746 6.5006962,143.385141 C6.48797468,143.452486 6.47779747,143.519831 6.46677215,143.595593 C6.29375949,144.664689 6.15127848,145.733785 6.20725316,146.786045 C6.22167089,147.07226 6.25305063,147.375311 6.31835443,147.653107 C6.38874684,147.964576 6.49560759,148.250791 6.66183544,148.494915 C6.94086076,148.478079 7.22158228,148.452825 7.49975949,148.435989 C8.44793671,148.38548 9.39187342,148.38548 10.3315696,148.520169 C12.2185949,148.797966 13.8571266,149.143107 15.7933418,148.941073 C16.7008101,148.848475 18.4326329,148.949492 18.9245316,148.015085 C19.1840506,147.518418 19.1764177,146.819718 19.0458101,146.095763 C19.0263038,145.986328 19.0042532,145.868475 18.9796582,145.75904 C19.9202025,144.243785 19.9202025,141.617345 19.8370886,140.27887 C19.7429494,138.797288 19.2586835,137.509322 18.5997089,136.196102 C17.6651013,129.58791 18.9703291,123.089994 20.1381646,116.565141 C20.7021519,113.406678 21.2152532,110.207808 21.2127089,106.987893 C21.2076203,103.307508 20.6826456,99.6582712 20.368,95.9980904 C20.0457215,92.2377345 20.0821899,88.5430395 21.1236582,84.8845424 C22.0650506,81.5745537 23.2184684,78.3672655 23.843519,74.973096 C25.1021013,68.1174124 25.2454304,61.1194633 26.0952278,54.2149548 C26.5481139,50.5514068 27.260519,46.9291073 28.5157089,43.4482316 C29.5978861,40.4387684 31.1185316,36.5462486 33.8511139,34.541904 C33.8723165,34.5578983 33.8960633,34.5747345 33.9181139,34.5915706 C36.6065949,36.6135932 38.1102785,40.4648644 39.1839747,43.4482316 C40.4349241,46.9291073 41.1498734,50.5514068 41.6002152,54.2149548 C42.4500127,61.1194633 42.5933418,68.1174124 43.8553165,74.973096 C44.4803671,78.3672655 45.6329367,81.5745537 46.5751772,84.8845424 C47.6141013,88.5430395 47.6531139,92.2377345 47.3282911,95.9980904 C47.0136456,99.6582712 46.4903671,103.307508 46.4852785,106.987893 C46.4801899,110.207808 46.9966835,113.406678 47.561519,116.565141 C48.725962,123.089994 50.0337342,129.579492 49.0982785,136.187684 C49.0982785,136.196102 49.0957342,136.196102 49.0957342,136.196102 C48.4376076,137.509322 47.9533418,138.797288 47.8583544,140.27887 C47.7769367,141.617345 47.7769367,144.243785 48.7157848,145.75904 C48.692038,145.868475 48.6699873,145.986328 48.650481,146.095763 C48.5207215,146.819718 48.5130886,147.518418 48.7717595,148.015085 C49.2628101,148.949492 50.9946329,148.848475 51.9037975,148.941073 C53.8383165,149.143107 55.4785443,148.797966 57.3647215,148.520169 C58.3044177,148.38548 59.2492025,148.38548 60.1956835,148.435989 C60.4738608,148.452825 60.7554304,148.478079 61.0336076,148.494915 C61.2015316,148.250791 61.3075443,147.964576 61.3779367,147.653107 C61.4432405,147.375311 61.4746203,147.07226 61.4898861,146.786045 C61.5450127,145.733785 61.4016835,144.664689 61.2303671,143.595593 C61.2176456,143.519831 61.2074684,143.452486 61.196443,143.385141 C61.6103165,143.014746 61.9470127,142.534915 62.1692152,141.920395 C62.6831646,140.489322 62.1819367,139.344463 61.3923544,138.149096 C61.196443,137.854463 61.0293671,137.559831 60.8817975,137.248362 C62.2005949,136.052994 62.8137722,134.201017 62.9206329,132.399548 C63.1284177,128.87574 61.849481,125.409175 61.8308228,121.871056 C61.8113165,118.604 62.2446962,115.366407 62.6543291,112.125446 C65.3063418,105.931424 64.7152152,98.6489435 64.0638734,92.1198814 C63.3370506,84.8441356 62.4236456,77.6651977 63.331962,70.3625141 C64.1919367,63.4672655 66.0569114,56.7487966 66.7201266,49.8282938 L66.7201266,49.8282938 Z" id="Fill-212" fill="#0A0B09" mask="url(#mask-2)"></path>
            </g>
            <path d="M49.971405,39.9256777 C48.0664905,39.5619112 46.2167312,39.0473526 44.3850826,38.4457387 C42.7633533,37.9101936 40.9201797,37.0046637 39.1832006,37 C39.0309062,37 38.9337671,37.1935424 39.0539562,37.295366 C40.3233504,38.3765609 42.3492772,38.7387729 43.9784155,39.0691164 C45.9508334,39.4709696 47.9495942,39.7445717 49.9475318,39.9995192 C49.9993942,40.0065147 50.0224442,39.9350051 49.971405,39.9256777" id="Fill-214" fill="#0A0B09"></path>
            <path d="M53.4464562,123.973858 C54.7339776,125.053728 56.323236,125.734606 57.962647,125.999764 C58.0004669,126.003947 58.0160882,125.95125 57.9782683,125.940376 C54.3015151,124.833739 52.513291,121.833357 50.1553017,119.029544 C50.0854171,118.94757 49.9604469,119.052964 50.0122438,119.141629 C50.9865176,120.847171 51.9287267,122.698257 53.4464562,123.973858" id="Fill-215" fill="#0A0B09"></path>
            <path d="M58.9273563,141.273469 C55.8708741,141.553252 50.9003209,141.615426 49.0385808,139.011889 C49.0261633,138.988574 48.9960065,139.004118 49.0004413,139.019661 C50.3459676,142.711243 55.566645,142.260482 58.9477565,141.405589 C59.0258094,141.382274 59.0142789,141.265698 58.9273563,141.273469" id="Fill-216" fill="#0A0B09"></path>
            <path d="M39.2872471,34.1020246 C39.0200019,34.1168524 38.8746874,34.4957872 39.1419325,34.6292381 C40.3478765,35.2388288 41.4736468,35.022177 42.6779204,34.5163815 C44.4592767,33.7708685 46.1437565,32.8416546 47.9510021,32.138154 C48.0345162,32.1076745 48.003616,31.9758711 47.9159261,32.0038793 C46.4844941,32.4528346 45.0488863,32.8317694 43.5790378,33.1373885 C42.160968,33.4322986 40.7445685,34.0295327 39.2872471,34.1020246" id="Fill-217" fill="#0A0B09"></path>
            <path d="M39.1240596,31.9937803 C41.2656216,31.2935106 43.0619739,30.1204783 44.9845126,29.0539386 C45.0205658,29.0329628 44.9872165,28.9877841 44.950262,29.0031126 C42.915057,29.8760294 40.8537134,30.5908207 39.0438411,31.8227467 C38.959116,31.8800268 39.0032812,32.0325049 39.1240596,31.9937803" id="Fill-218" fill="#0A0B09"></path>
            <path d="M30.5721381,4.29175476 C30.9688339,4.12473573 31.4717609,4.17688513 31.7384533,4.54334038 C31.7815401,4.59971811 31.8134838,4.66032417 31.8387416,4.7230444 C31.8558277,4.76250881 31.8684566,4.80479211 31.8766282,4.84496124 C31.9041146,4.97181113 31.8996574,5.10288936 31.8639993,5.22410148 C31.8617707,5.22692037 31.8617707,5.2311487 31.860285,5.23537703 C31.8023406,5.43128964 31.6671372,5.60183228 31.4606177,5.71247357 C31.0134064,5.95419309 30.4644211,5.7688513 30.243787,5.33474278 C30.2163006,5.28188865 30.1962429,5.22692037 30.1821283,5.17547569 C30.1709851,5.13530655 30.1642993,5.09654686 30.1628135,5.05637773 C30.1308698,4.7491191 30.3047028,4.46441156 30.5721381,4.29175476 Z M31.0542646,6 C31.1768391,6 31.3001565,5.98026779 31.4212453,5.93587033 C31.7793115,5.80549683 32.0125745,5.52008457 32.0824049,5.19732206 C32.4010986,5.14305849 32.7064206,5.09090909 32.9842562,5.068358 C33.0013424,5.06694856 33.0072854,5.04087385 32.9879706,5.03664553 C32.7168209,4.98872445 32.4137275,4.92811839 32.0972624,4.8794926 C32.0913194,4.83298097 32.0824049,4.78646934 32.069776,4.7427766 C32.0422896,4.6384778 31.997717,4.53347428 31.9338297,4.43622269 C31.7429106,4.14446794 31.4271883,4 31.1070088,4 C30.8522024,4 30.5973959,4.09020437 30.4005338,4.26779422 C30.1182409,4.45736434 29.9481224,4.7850599 30.0142383,5.16349542 C30.0989262,5.65821001 30.5572806,6 31.0542646,6 L31.0542646,6 Z" id="Fill-219" fill="#0A0B09"></path>
            <path d="M28.8749005,31.9937803 C28.9966013,32.0325049 29.0416756,31.8800268 28.9551329,31.8227467 C27.1449464,30.5908207 25.0859494,29.8760294 23.0467851,29.0031126 C23.0107256,28.9877841 22.980075,29.0329628 23.0161345,29.0539386 C24.9390069,30.1204783 26.7356711,31.2935106 28.8749005,31.9937803" id="Fill-220" fill="#0A0B09"></path>
            <path d="M19.0483386,32.138154 C20.8553358,32.8416546 22.5387491,33.7708685 24.3198605,34.5163815 C25.5264737,35.022177 26.6520893,35.2388288 27.8561974,34.6292381 C28.125911,34.4957872 27.9806164,34.1168524 27.7134079,34.1020246 C26.2562868,34.0295327 24.8400819,33.4322986 23.418867,33.1373885 C21.9525605,32.8317694 20.51381,32.4528346 19.0859148,32.0038793 C18.997402,31.9758711 18.9648359,32.1076745 19.0483386,32.138154" id="Fill-221" fill="#0A0B09"></path>
            <path d="M28.8142423,37 C27.077292,37.0046637 25.2341489,37.9101936 23.6140928,38.4457387 C21.7824745,39.0473526 19.9302763,39.5619112 18.0295093,39.9256777 C17.9768245,39.9350051 18.0015205,40.0065147 18.0500892,39.9995192 C20.0479938,39.7445717 22.0491911,39.4709696 24.0182836,39.0691164 C25.6506877,38.7387729 27.6749346,38.3765609 28.9459542,37.295366 C29.0661413,37.1935424 28.969827,37 28.8142423,37" id="Fill-222" fill="#0A0B09"></path>
            <path d="M17.845153,119.029544 C15.4856721,121.833357 13.6959194,124.833739 10.0194042,125.940376 C9.98405307,125.95125 10.0013176,126.003947 10.0366687,125.999764 C11.6751514,125.734606 13.2643071,125.053728 14.550923,123.973858 C16.0701985,122.698257 17.0131688,120.847171 17.9882017,119.141629 C18.039173,119.052964 17.9125667,118.94757 17.845153,119.029544" id="Fill-223" fill="#0A0B09"></path>
            <path d="M8.07361478,141.273469 C7.98490235,141.265698 7.97425685,141.382274 8.05321092,141.405589 C11.4331545,142.260482 16.6556553,142.711243 17.9987615,139.019661 C18.0067457,139.004118 17.9739221,138.988574 17.9632766,139.011889 C16.0985413,141.615426 11.1315323,141.553252 8.07361478,141.273469" id="Fill-224" fill="#0A0B09"></path>
        </g>
        <g id="typeText" transform="translate(10.000000, 6.000000)" fill="#725F5F" fill-opacity="0.87" font-family="Roboto-Black, Roboto Black" font-size="17" font-weight="700">
            <g id="vegetable">
                <text>
                    <tspan x="0" y="16">clothing</tspan>
                </text>
            </g>
        </g>
        <g id="firstLetter" transform="translate(10.000000, 152.000000)">
            <g id="Group" transform="translate(0.000000, -5.000000)">
                <rect id="Rectangle" stroke="#979797" x="0.5" y="6.5" width="34" height="38"></rect>
                <text id="C" fill="#131313" font-family="Roboto-Bold, Roboto" font-size="43" font-weight="bold">
                    <tspan x="3.63208008" y="40">P</tspan>
                </text>
            </g>
        </g>
        <g id="nameText" transform="translate(104.000000, 161.000000)" fill="#454545" fill-opacity="0.87" font-family="Roboto-Black, Roboto Black" font-size="26" font-weight="700">
            <text id="Carrot">
                <tspan x="18.3720703" y="28">Pants</tspan>
            </text>
        </g>
        <g id="colorText" transform="translate(133.000000, 5.000000)" fill="#454545" fill-opacity="0.87" font-family="Roboto-Black, Roboto Black" font-size="18" font-weight="700">
            <text id="orange">
                <tspan x="21.9667969" y="17">blue</tspan>
            </text>
        </g>
    </g>
</svg>