<?xml version="1.0" encoding="UTF-8"?>
<svg width="200px" height="200px" viewBox="0 0 200 200" version="1.1" xmlns="http://www.w3.org/2000/svg" xmlns:xlink="http://www.w3.org/1999/xlink">
    <!-- Generator: Sketch 56.3 (81716) - https://sketch.com -->
    <title>pear</title>
    <desc>Created with Sketch.</desc>
    <g id="pear" stroke="none" stroke-width="1" fill="none" fill-rule="evenodd">
        <g id="typeText" transform="translate(10.000000, 6.000000)" fill="#725F5F" fill-opacity="0.87" font-family="Roboto-Black, Roboto Black" font-size="17" font-weight="700">
            <g id="vegetable">
                <text>
                    <tspan x="0" y="16">fruit</tspan>
                </text>
            </g>
        </g>
        <g id="firstLetter" transform="translate(10.000000, 152.000000)">
            <g id="Group" transform="translate(0.000000, -5.000000)">
                <rect id="Rectangle" stroke="#979797" x="0.5" y="6.5" width="34" height="38"></rect>
                <text id="C" fill="#131313" font-family="Roboto-Bold, Roboto" font-size="43" font-weight="bold">
                    <tspan x="3.63208008" y="40">P</tspan>
                </text>
            </g>
        </g>
        <g id="nameText" transform="translate(104.000000, 161.000000)" fill="#454545" fill-opacity="0.87" font-family="Roboto-Black, Roboto Black" font-size="26" font-weight="700">
            <text id="Carrot">
                <tspan x="31.2705078" y="28">Pear</tspan>
            </text>
        </g>
        <g id="colorText" transform="translate(133.000000, 5.000000)" fill="#454545" fill-opacity="0.87" font-family="Roboto-Black, Roboto Black" font-size="18" font-weight="700">
            <text id="orange">
                <tspan x="10.0751953" y="17">green</tspan>
            </text>
        </g>
        <g id="Pear" transform="translate(51.000000, 26.000000)">
            <path d="M21.0221648,9.84018601 C21.3118362,10.7573896 28.3388504,32.1870918 49.9663706,25.8198937 L49.9877711,25.8322363 L49.982421,25.8152653 L50,25.8106369 L49.9778352,25.7990657 C43.6241731,3.98365976 21.9553804,9.57096476 21.0336294,9.81858659 L21.0114646,9.80624407 L21.0168147,9.82321504 L21,9.82861489 L21.0221648,9.84018601" id="Fill-653" fill="#526631"></path>
            <path d="M48.2376815,35 C48.0988779,35 47.9577988,34.9908937 47.8159613,34.9726812 C46.0448884,34.7419891 44.7956562,33.1180382 45.027754,31.3468692 C46.8739174,17.1752412 56.3004246,5.24451368 69.6194999,0.209506879 C71.2957616,-0.421860967 73.1616457,0.421986443 73.791192,2.09298644 C74.4207383,3.76398644 73.5788149,5.63077117 71.9101381,6.26213902 C60.8210219,10.4517807 52.9782407,20.3836826 51.440024,32.1831281 C51.227647,33.812391 49.8380943,35 48.2376815,35" id="Fill-654" fill="#3F4E3F"></path>
            <path d="M79.2530117,64.632681 C80.0671696,61.3391984 80.3867456,57.849249 80.1204322,54.2473593 C78.9258267,38.1683106 65.884082,25.1847548 49.8132133,24.0798199 C30.7025681,22.7639498 14.7907265,37.889602 14.7907265,56.7344147 C14.7907265,59.4293592 15.1171505,62.0481538 15.7304321,64.5542466 C16.6533981,68.3183355 15.2503072,72.2095948 12.1915083,74.5869943 C4.56048976,80.516786 -0.27195601,89.8801762 0.0118579201,100.36297 C0.475243131,117.452527 14.8280103,131.221189 31.9093479,130.997308 C35.1697841,130.953903 38.3099988,130.414 41.258468,129.449181 C45.3064307,128.125696 49.6945137,128.125696 53.7401937,129.449181 C56.6924673,130.414 59.8273558,130.953903 63.0915964,130.997308 C80.1736949,131.221189 94.5241794,117.452527 94.9883255,100.36297 C95.2698568,89.8794147 90.4381719,80.515263 82.8063925,74.5854713 C79.7704204,72.2263478 78.3247194,68.3655485 79.2530117,64.632681" id="Fill-655" fill="#84BE42"></path>
            <path d="M79.829395,65.1044434 L80.1955219,65.1960258 C80.8286164,62.6309571 81.1718604,59.9491209 81.1718604,57.1886766 C81.1718604,56.3552773 81.1413498,55.5142461 81.072701,54.6678727 C79.8675333,38.3616372 66.6488265,25.2043078 50.343975,24.0808977 C49.5560393,24.0267115 48.7742059,24 47.9984745,24 C29.6783995,24 14.8273769,38.8592346 14.8273769,57.1886766 C14.8273769,59.920883 15.1576539,62.5760077 15.7808324,65.1158912 C15.9623703,65.8577082 16.0500882,66.6033411 16.0500882,67.3413421 C16.0500882,70.2101589 14.716776,72.9545763 12.3689873,74.7793544 C4.84431661,80.6253604 0,89.7652779 0,100.037 C0,100.33159 0.00381382193,100.626943 0.0122042302,100.924586 C0.481304327,118.124512 14.8060195,131.99771 31.9567767,132 C32.0955998,132 32.2351857,132 32.3740088,131.99771 C35.6821179,131.953446 38.8681848,131.405478 41.8597467,130.427073 C43.849799,129.776839 45.9245181,129.451721 47.9984745,129.451721 C50.0731936,129.451721 52.1486755,129.776839 54.1394905,130.427073 C57.1295269,131.405478 60.3178821,131.953446 63.6206518,131.99771 C63.7655771,132 63.9028747,132 64.0401723,132 C81.1871156,131.99771 95.5118308,118.124512 95.9847447,100.924586 C95.9923724,100.626943 96,100.33159 96,100.037 C96,89.7645147 91.1488185,80.623834 83.6279617,74.777828 C81.286275,72.9606818 79.9285544,70.2246594 79.9285544,67.3718695 C79.9285544,66.6498954 80.0200861,65.9210526 80.1955219,65.1960258 L79.829395,65.1044434 L79.4556405,65.0120979 C79.2649494,65.7974165 79.16579,66.5888405 79.16579,67.3718695 C79.16579,70.4681158 80.6379253,73.4239358 83.1550478,75.3807451 C90.5080964,81.0893776 95.2372356,90.0079711 95.2372356,100.037 C95.2372356,100.324722 95.229608,100.613969 95.2219803,100.903217 C94.7719493,117.683391 80.7752229,131.239103 64.0401723,131.237577 C63.9028747,131.236814 63.7655771,131.236051 63.6359071,131.234524 C60.4017861,131.191786 57.2973351,130.656792 54.3759475,129.702046 C52.308856,129.026627 50.1525211,128.688535 47.9984745,128.688535 C45.8444278,128.688535 43.6903812,129.026627 41.6232897,129.702046 C38.7034277,130.656792 35.5936373,131.191786 32.3640929,131.234524 C32.2283208,131.236051 32.0925487,131.236814 31.9567767,131.237577 C15.2247771,131.239103 1.2272879,117.683391 0.774968615,100.903217 C0.766578207,100.613969 0.762764385,100.324722 0.762764385,100.037 C0.762764385,90.0087342 5.49037805,81.090904 12.8373246,75.3822715 C15.3681768,73.4155407 16.8136153,70.4482729 16.8128526,67.3413421 C16.8128526,66.5430494 16.717507,65.7355984 16.5214766,64.9342529 C15.9127906,62.4531347 15.5901413,59.859065 15.5901413,57.1886766 C15.5901413,48.2334502 19.2170859,40.1291763 25.0819813,34.2602747 C30.9484022,28.3921364 39.0481972,24.7631862 47.9984745,24.7631862 C48.757425,24.7631862 49.5217149,24.7891345 50.2913442,24.8417943 C66.2140508,25.9354401 79.1429071,38.8019956 80.3175642,54.7243485 C80.3785854,55.5516423 80.409096,56.3735938 80.409096,57.1886766 C80.409096,59.8865397 80.0811073,62.5065577 79.4556405,65.0120979 L79.829395,65.1044434" id="Fill-656" fill="#3BAB48"></path>
            <path d="M65.1474983,127 C65.02528,127 64.9107003,127 64.7961206,126.997712 C62.0156535,126.961111 59.3344888,126.502066 56.8213743,125.681579 C55.0950403,125.11883 53.2999585,124.837455 51.5002935,124.837455 C49.7021563,124.837455 47.904019,125.11883 46.1784489,125.681579 C43.6638067,126.502066 40.9864613,126.961111 38.2075219,126.997712 C38.0898868,127 37.9730155,127 37.8561442,127 C23.4473664,127 11.4019857,115.361449 11.0101232,100.944226 C10.7679781,92.0294455 14.8882637,84.0663069 21.3956262,79.0229095 C24.0034599,77.0006704 25.1989079,73.6912744 24.4128913,70.4901583 C23.8888802,68.3588768 23.6108335,66.1322786 23.6108335,63.8401026 C23.6108335,48.4636121 36.0962002,36 51.5002935,36 C52.1541616,36 52.8110852,36.0221135 53.4756474,36.0678655 C67.1793781,37.0080694 78.2936079,48.0503188 79.3095478,61.7240718 C79.3935729,62.8472838 79.4088502,63.9567702 79.3630183,65.0502434 C79.1873295,65.7929512 79.1033044,66.5394716 79.1033044,67.2783667 C79.1033044,67.4346861 79.110943,67.5902429 79.1185817,67.7457998 C78.981086,68.6989668 78.7977585,69.6368832 78.5685992,70.5564987 C77.7818186,73.7324513 79.0116406,77.0151585 81.6011416,79.0213845 C88.1092679,84.0647818 92.2341367,92.028683 91.9897,100.944226 C91.6001291,115.362974 79.5539845,127.001525 65.1474983,127" id="Fill-657" fill="#76BA43"></path>
            <path d="M79.35,68 C79.34,67.8268741 79.33,67.6537482 79.33,67.4797737 C79.33,66.6574257 79.44,65.8265912 79.67,65 C79.62,66.0132956 79.51,67.01471 79.35,68" id="Fill-658" fill="#33A747"></path>
            <path d="M27.9593089,46 C27.5887038,46 27.2142779,45.8936611 26.8826436,45.6716688 C25.9779086,45.0670116 25.7280366,43.8305304 26.3232973,42.9122898 C31.1595036,35.4530401 39.2769027,31 48.0384671,31 C49.1212455,31 50,31.8918499 50,32.9917206 C50,34.0923674 49.1212455,34.9842173 48.0384671,34.9842173 C40.6011475,34.9842173 33.7071275,38.7673997 29.5991412,45.1034929 C29.222423,45.6848642 28.5973611,46 27.9593089,46" id="Fill-659" fill="#FFFFFE"></path>
            <path d="M25.928666,51 C25.7054814,51 25.479291,50.9630511 25.2576094,50.8856006 C24.258915,50.535297 23.7501744,49.4850965 24.1213972,48.5414793 L24.2739442,48.1627534 C24.6601963,47.2241101 25.7776219,46.7594071 26.7703047,47.1246324 C27.7629874,47.4905683 28.2544443,48.5471637 27.8681923,49.4858071 L27.7366862,49.8105307 C27.4481244,50.5452447 26.7116905,51 25.928666,51" id="Fill-660" fill="#FFFFFE"></path>
        </g>
    </g>
</svg>