<?xml version="1.0" encoding="UTF-8"?>
<svg width="200px" height="200px" viewBox="0 0 200 200" version="1.1" xmlns="http://www.w3.org/2000/svg" xmlns:xlink="http://www.w3.org/1999/xlink">
    <!-- Generator: Sketch 56.3 (81716) - https://sketch.com -->
    <title>pepper</title>
    <desc>Created with Sketch.</desc>
    <g id="pepper" stroke="none" stroke-width="1" fill="none" fill-rule="evenodd">
        <g id="typeText" transform="translate(10.000000, 6.000000)" fill="#725F5F" fill-opacity="0.87" font-family="Roboto-Black, Roboto Black" font-size="17" font-weight="700">
            <g id="vegetable">
                <text>
                    <tspan x="0" y="16">vegetable</tspan>
                </text>
            </g>
        </g>
        <g id="firstLetter" transform="translate(10.000000, 152.000000)">
            <g id="Group" transform="translate(0.000000, -5.000000)">
                <rect id="Rectangle" stroke="#979797" x="0.5" y="6.5" width="34" height="38"></rect>
                <text id="C" fill="#131313" font-family="Roboto-Bold, Roboto" font-size="43" font-weight="bold">
                    <tspan x="3.63208008" y="40">P</tspan>
                </text>
            </g>
        </g>
        <g id="nameText" transform="translate(104.000000, 161.000000)" fill="#454545" fill-opacity="0.87" font-family="Roboto-Black, Roboto Black" font-size="26" font-weight="700">
            <text id="Carrot">
                <tspan x="1.63964844" y="28">Pepper</tspan>
            </text>
        </g>
        <g id="colorText" transform="translate(133.000000, 5.000000)" fill="#454545" fill-opacity="0.87" font-family="Roboto-Black, Roboto Black" font-size="18" font-weight="700">
            <text id="orange">
                <tspan x="4.80175781" y="17">yellow</tspan>
            </text>
        </g>
        <g transform="translate(56.000000, 35.000000)">
            <path d="M19.1452729,49.7924152 C26.5361248,53.5320682 35.0443313,53.4962509 43.0452425,52.2247363 C50.1082284,51.1030033 59.7713065,50.0561609 63.6208785,43.1076024 C63.691019,42.9822418 63.7252736,42.8585092 63.7415854,42.7396609 C64.0351968,42.3798597 64.1298049,41.840972 63.7513724,41.3932556 C57.8563076,34.4300445 44.1968518,31.6965323 39.0847507,40.7518001 C34.3706562,36.1883489 27.3663927,34.6742534 21.2136022,37.3475273 C18.6396088,38.4643763 14.6840105,40.8836729 14.0690577,43.9232602 C13.4638919,46.91889 16.9758107,48.693475 19.1452729,49.7924152" id="Fill-428" fill="#F2AF2A"></path>
            <path d="M19.1246845,5.53188079 C19.162319,5.78583457 19.3046756,6.02839298 19.5926613,6.1976955 C20.0475478,6.46630046 20.5007981,6.73653333 20.9540483,7.00513829 C21.4416605,7.29327815 22.0258134,7.09304537 22.3236168,6.64699834 C24.7387697,3.04280817 29.8766967,2.30699337 32.9349087,5.59699714 C35.5153262,8.37258172 35.8785809,13.2449129 36.1567489,16.8230565 C36.7212664,24.0444601 34.9998972,36.8219166 32.9970874,38.0558715 C30.9942777,39.2930822 27.3322775,36.1512182 25.1789297,35.7002874 C24.1300726,35.4788918 26.6973999,39.3402916 27.0508369,39.4688964 L22.6705087,39.4200591 C21.6167427,39.4086638 21.3909357,40.7386653 22.1648974,41.2758752 C26.8250299,44.512158 32.1085861,42.3421555 37.2219688,41.5721546 C41.8051961,41.6242477 43.3825724,43.3563427 47.9167112,42.5342487 C49.1095611,42.3177369 51.8045184,39.297966 50.7671153,39.2035473 C47.5338211,38.9137795 44.9206779,40.1119204 41.7577439,38.1112204 C38.5931736,36.1105205 40.1034623,26.994231 40.2703631,21.1337591 C40.4127197,16.1197999 40.1410968,10.7656077 37.4886829,6.3442073 C33.6417827,-0.0616139914 23.4591968,-3.1758036 19.1345022,4.58769366 C18.9414209,4.93281033 18.9725102,5.26653165 19.1246845,5.53188079" id="Fill-429" fill="#24A848"></path>
            <path d="M0.0115146942,64.3664855 C0.197384612,55.9596544 2.96118948,46.979299 10.6157976,42.5028923 C15.7749,39.4829785 22.4177293,39.8118639 26.9270951,43.157423 C29.6521097,40.8600851 42.8504902,37.8903951 48.2391016,42.3473603 C52.454308,38.8754314 58.7431763,38.0329662 63.8424771,40.1553305 C71.9027665,43.5089902 75.8852316,51.89962 76.8064998,60.1655001 C77.8667665,69.6918379 74.2495763,79.7042132 73.7000478,89.1932881 C71.9140803,120.032376 57.1430788,128.528314 50.186695,122.376698 C48.3554723,124.586549 45.5350983,126.036561 42.5353195,126 C39.8975829,125.968516 37.6429,125.100129 35.7292479,123.721402 C29.5114951,124.659455 21.8714333,124.612471 18.1556512,119.546339 C12.7654236,112.20231 9.62179759,99.3077313 6.00460736,90.9576047 C2.36640574,82.5588743 -0.193750346,73.5995805 0.0115146942,64.3664855" id="Fill-430" fill="#F9C82C"></path>
            <path d="M26.0154439,44.4858521 C26.5629226,43.5171011 27.9389737,44.1477645 27.8752374,45.0628767 C28.1285484,45.21079 28.305049,45.4838608 28.2887064,45.8869652 C27.2918048,70.6795147 29.532382,95.4980709 34.9777528,119.71197 C35.1771331,120.601076 33.9890225,121.495057 33.3058997,120.679096 C25.1901401,110.976957 25.7801097,96.8081604 24.8698241,84.9230806 C24.2945629,77.4038822 23.6277828,69.8863091 23.1522117,62.360609 C22.7665252,56.224644 22.913609,49.9732741 26.0154439,44.4858521" id="Fill-431" fill="#E3A02E"></path>
            <path d="M50.3993375,44.0719087 C53.0306454,49.0772641 56.9544093,72.4491231 56.9974912,78.8722836 C57.0886259,92.2854018 54.6826693,114.439215 52.0994142,120.436872 C51.5990018,121.599699 50.7622194,120.795789 50.9229479,119.529022 C52.5269189,106.859723 54.8102579,99.3987881 54.8052869,86.6304221 C54.8036299,80.4086451 52.0314775,49.1470987 49.1582483,43.6821341 C48.5617301,42.5469156 49.8011623,42.933442 50.3993375,44.0719087" id="Fill-432" fill="#E3A02E"></path>
            <path d="M35.776983,45.0958596 C38.0424736,43.3612801 41.374173,43.8403391 43.5568986,45.45435 C46.805833,47.8560754 47.9320869,52.3814148 48.5731105,56.1238624 C49.2222482,59.896854 50.0223104,76.0707223 43.5666357,76.5465662 C43.0181143,76.8584368 42.3576167,77.0320555 41.5478174,76.9950812 C37.8801892,76.8198549 36.4812974,72.5758421 35.4718882,69.7288169 C33.8977292,65.282249 33.07657,60.5527469 33.0197704,55.8441434 C32.9791993,52.4730469 32.7552468,47.4107756 35.776983,45.0958596" id="Fill-433" fill="#FBD45E"></path>
            <path d="M4.35077154,57.1007238 C6.12870492,50.8137863 10.3667832,42.5719916 18.1575103,44.2112883 C18.3087553,44.2436535 18.4326475,44.3002925 18.5340138,44.3731142 C20.4825001,44.8294633 21.3175657,46.7082624 20.8911834,48.7456509 C20.5082439,50.5694291 19.5074525,52.328477 18.8686837,54.0761971 C18.1848631,55.9388136 17.5798831,57.832177 17.0537435,59.7449595 C15.903316,63.9297781 15.1277831,68.2181653 14.7657605,72.5437725 C14.5067132,75.6281747 15.2565023,79.7968107 13.7794499,82.6336193 C12.8076203,84.4978541 10.712716,85.620926 8.717569,84.6337878 C6.39740617,83.486442 5.45614732,80.2224129 4.72405711,77.9633229 C2.5519213,71.2621111 2.43768305,63.8747573 4.35077154,57.1007238" id="Fill-434" fill="#FBD45E"></path>
            <path d="M61.111685,113.378618 C61.1855776,112.785015 62.0116971,112.933416 61.9998743,113.518391 C61.9584945,115.566668 61.2535588,117.445837 59.9737386,118.852194 C59.6574781,119.200764 59.2215116,118.872901 59.1963881,118.488095 C58.9954002,118.312084 58.9037734,117.977319 59.1417076,117.725383 C60.2427077,116.557158 60.8988742,115.095582 61.111685,113.378618" id="Fill-435" fill="#F2AF2A"></path>
            <path d="M61.9182435,107.270481 C61.9567217,107.721971 61.4635009,107.853586 61.132938,107.68032 C61.0927107,107.730301 61.0559815,107.780281 61.0140053,107.828596 C60.791881,108.083496 60.4928003,108.025185 60.3039072,107.841924 C60.099273,107.746961 59.9506071,107.550371 60.0153205,107.277145 L60.7481557,104.223344 C60.8338572,100.438162 61.7276014,96.7779322 63.4031531,93.260979 C63.6637556,92.7145267 64.5120255,93.1143698 64.3825988,93.652492 C64.3458696,93.8024331 64.3108893,93.9523743 64.2741601,94.1006495 C64.602974,94.0056867 65.0437246,94.1789521 64.9965013,94.565467 C64.4962844,98.7904757 64.3336265,103.103783 61.8832633,106.690709 C61.8955064,106.883966 61.8990044,107.077224 61.9182435,107.270481" id="Fill-436" fill="#F2AF2A"></path>
            <path d="M67.1149859,107.876321 C67.1149859,107.859747 67.1109859,107.849802 67.1119859,107.83157 C67.1929859,106.717778 67.2739859,105.602327 67.3559859,104.488535 C67.4009859,103.842137 67.9249859,103.832192 67.9669859,104.488535 C68.0609859,105.96199 67.9119859,107.375777 67.5619859,108.73487 C67.4069859,109.331544 66.8799859,108.816084 67.0329859,108.222724 C67.0639859,108.108361 67.0889859,107.990684 67.1149859,107.876321" id="Fill-437" fill="#F2AF2A"></path>
            <path d="M47.5379567,101.356514 C47.6290644,100.872236 48.4665536,100.890173 48.5699257,101.356514 C49.2392162,104.342075 49.1270837,107.296656 48.2352804,110.213734 C48.2475449,110.314829 48.2528011,110.417554 48.2650656,110.52028 C48.3053632,110.862698 48.0127676,111.014341 47.721924,110.986621 C47.3645019,111.061627 46.9299886,110.815412 47.0701542,110.394727 C47.0999394,110.300154 47.1244684,110.203951 47.1542535,110.109378 C46.8581538,107.171103 46.989559,104.27033 47.5379567,101.356514" id="Fill-438" fill="#F2AF2A"></path>
            <path d="M33.033709,77.4845814 C33.0546648,76.9426586 33.7970963,76.7958879 33.9318117,77.3523264 C34.7475883,80.6812806 35.0978484,84.0408793 34.9766045,87.482734 C34.9706172,87.6698264 34.8808069,87.7956299 34.7655504,87.8714346 C34.5365342,88.0778814 34.123407,88.0569141 34.0261125,87.6520849 C33.2193169,84.3086149 32.8870189,80.9361134 33.033709,77.4845814" id="Fill-439" fill="#F2AF2A"></path>
            <path d="M70.0730156,77.3195546 C70.0696954,77.2885469 70.0580747,77.2637408 70.0597348,77.2296324 C70.2390255,74.642045 70.4199762,72.0544575 70.5992669,69.4668701 C70.634129,68.9598952 71.4641785,68.7909036 71.5969864,69.3412891 C72.2826073,72.1552324 72.0966762,74.9738267 71.0142917,77.6792432 C70.7868581,78.2451326 69.8040795,78.0001722 70.0348333,77.4265309 C70.0497742,77.3908721 70.0597348,77.3552134 70.0730156,77.3195546" id="Fill-440" fill="#F2AF2A"></path>
        </g>
    </g>
</svg>