<?xml version="1.0" encoding="UTF-8"?>
<svg width="200px" height="200px" viewBox="0 0 200 200" version="1.1" xmlns="http://www.w3.org/2000/svg" xmlns:xlink="http://www.w3.org/1999/xlink">
    <!-- Generator: Sketch 56.3 (81716) - https://sketch.com -->
    <title>potato</title>
    <desc>Created with Sketch.</desc>
    <g id="potato" stroke="none" stroke-width="1" fill="none" fill-rule="evenodd">
        <g id="typeText" transform="translate(10.000000, 6.000000)" fill="#725F5F" fill-opacity="0.87" font-family="Roboto-Black, Roboto Black" font-size="17" font-weight="700">
            <g id="vegetable">
                <text>
                    <tspan x="0" y="16">vegetable</tspan>
                </text>
            </g>
        </g>
        <g id="firstLetter" transform="translate(10.000000, 152.000000)">
            <g id="Group" transform="translate(0.000000, -5.000000)">
                <rect id="Rectangle" stroke="#979797" x="0.5" y="6.5" width="34" height="38"></rect>
                <text id="C" fill="#131313" font-family="Roboto-Bold, Roboto" font-size="43" font-weight="bold">
                    <tspan x="3.63208008" y="40">P</tspan>
                </text>
            </g>
        </g>
        <g id="nameText" transform="translate(104.000000, 161.000000)" fill="#454545" fill-opacity="0.87" font-family="Roboto-Black, Roboto Black" font-size="26" font-weight="700">
            <text id="Carrot">
                <tspan x="8.22851562" y="28">Potato</tspan>
            </text>
        </g>
        <g id="colorText" transform="translate(133.000000, 5.000000)" fill="#454545" fill-opacity="0.87" font-family="Roboto-Black, Roboto Black" font-size="18" font-weight="700">
            <text id="orange">
                <tspan x="6.71777344" y="17">brown</tspan>
            </text>
        </g>
        <g transform="translate(31.000000, 52.000000)">
            <path d="M138.145328,24.7754007 C135.644428,11.8790066 125.160968,4.95556561 112.861816,2.81048701 C105.058663,1.4517212 97.1323023,0.00654739775 89.2167494,0 C49.2996234,-0.0301760024 36.4449557,10.2134924 13.4267354,21.4681345 C2.03110603,27.0392903 -1.48355509,42.1239669 0.541806209,54.6185638 C2.64498288,67.5970454 11.9612125,77.4669992 23.9426188,82.2021576 C37.5257248,87.5702547 52.5743538,85.9285027 66.7929521,85.101146 C80.5943735,84.2997118 94.8345872,84.409882 108.473893,81.990458 C120.651999,79.8280978 130.912821,73.3626192 135.404498,61.468558 C137.665467,55.4783234 138.216659,48.9026745 138.666259,42.5668079 C139.092082,36.6176171 139.28662,30.6641059 138.145328,24.7754007" id="Fill-360" fill="#754D27"></path>
            <path d="M75.4780713,7.38230225 C63.0521373,8.13040231 51.1527259,11.2482066 39.8077751,16.3378815 C36.2983406,17.9097565 36.4229868,21.4837721 38.2991266,23.8772599 C38.3850895,24.5669822 38.6300837,25.2480559 39.0921341,25.8815626 C46.3710408,35.8598336 61.3070909,32.8544605 71.9299535,31.4987995 C78.5404988,30.6555653 85.20692,29.5420638 91.6240488,27.7107321 C96.5368273,26.3096661 101.615084,23.4318592 101.976128,17.6892184 C102.771285,5.03421942 83.4919606,6.89798314 75.4780713,7.38230225" id="Fill-361" fill="#85542B"></path>
            <path d="M131.42371,41.2896865 C131.014295,41.4538752 130.650371,41.7563279 130.36443,42.2251297 C116.494149,65.027906 98.0249904,69.9838102 86.5483776,74.5465258 C84.4059899,75.3977142 84.3778291,79.2799112 87.1505857,78.9839396 C97.8646904,77.845421 111.228077,78.6145152 120.064073,71.5219984 C128.371511,64.8572362 133.230334,54.1115224 134.963307,43.8259688 C135.33373,41.6267053 132.810088,40.4060925 131.42371,41.2896865" id="Fill-362" fill="#6A4123"></path>
            <path d="M16.335659,63.1574972 C15.4971405,62.596869 14.7047187,63.6579814 15.1086124,64.3818577 C15.1042222,64.4763697 15.0998321,64.5687338 15.1305631,64.6739858 C15.922985,67.3847628 17.3739292,69.7797837 19.4285189,71.7559445 C19.9663121,72.2736126 21.052874,71.9234885 20.9979971,71.1222842 C20.7719045,67.848731 19.108038,65.0047779 16.335659,63.1574972" id="Fill-363" fill="#57341E"></path>
            <path d="M30.4053795,41.1713031 C29.7409478,40.6599009 29.1012775,41.390789 29.1652445,42.0865593 C29.0682623,42.2248354 28.9960414,42.3916447 29.0001683,42.6155204 C29.035247,44.7664822 30.0091966,46.6365022 31.6702759,47.8524541 C32.2624868,48.2848413 32.906284,47.6900345 32.9681875,47.06011 C33.1972308,44.7181953 32.1737583,42.5387003 30.4053795,41.1713031" id="Fill-364" fill="#57341E"></path>
            <path d="M49.0841769,64.3624574 C48.7208601,64.4514737 48.4059856,64.725036 48.3861683,65.196171 C48.2584569,68.5049718 48.1307456,71.8137725 48.0008323,75.1204021 C47.9589958,76.1733997 49.5069455,76.3145231 49.8108105,75.3613974 C50.9073666,71.9288423 51.2508661,68.4333245 50.8192898,64.8553037 C50.7069919,63.9130337 49.4540995,63.750199 49.0841769,64.3624574" id="Fill-365" fill="#57341E"></path>
            <path d="M70.1719583,41.1882846 C69.2549542,40.6952566 68.3178208,41.2273793 68.0829783,42.1243862 C68.0807417,42.1330739 68.0829783,42.1417616 68.0807417,42.1504493 C67.9622022,42.2851089 67.8705018,42.4480037 67.8503724,42.6630247 C67.5685614,45.8058066 67.2867504,48.9464165 67.0027028,52.0870265 C66.9512611,52.6604158 67.6446057,53.1404122 68.1880983,52.962314 C69.4763772,52.5474755 70.0534187,51.6873915 70.2972076,50.408125 C70.6841386,48.4012622 70.7020313,46.2727714 70.8921419,44.2420174 C70.9860789,43.2298983 71.2857827,41.7877371 70.1719583,41.1882846" id="Fill-366" fill="#57341E"></path>
            <path d="M50.0780691,22.12952 C49.7634003,22.2602295 49.5680886,22.4685478 49.4487314,22.7136282 C49.1731249,22.8300414 48.9691326,23.0689948 49.0038547,23.4509117 C49.1535937,25.0418918 49.2989924,26.632872 49.4487314,28.2238521 C49.5311963,29.1265649 49.4964743,30.3335857 50.5251159,30.7910691 C53.194376,31.979709 53.0836994,27.7622841 52.9383006,26.5511785 C52.7994123,25.4074701 52.2916019,21.2145532 50.0780691,22.12952" id="Fill-367" fill="#57341E"></path>
            <path d="M97.240407,62.1645012 C97.0012092,62.2342025 96.7817797,62.3941054 96.6730534,62.6954608 C96.1116303,64.2247886 95.0797188,66.067772 95.002622,67.720102 C94.9512241,68.8086718 95.6589335,70.0202438 96.8213166,69.9997434 C99.75495,69.9505425 99.0334027,64.355991 98.566868,62.6196095 C98.4186048,62.0681494 97.653567,61.8057447 97.240407,62.1645012" id="Fill-368" fill="#57341E"></path>
            <path d="M110.536123,17.1404218 C109.895378,15.9402172 107.874565,15.455286 107.106118,16.845422 C106.891043,17.2353875 107.027705,17.5990859 107.294309,17.8395309 C107.285348,17.9344966 107.278627,18.0314828 107.305511,18.1365512 C107.677412,19.5529543 108.049313,20.9693574 108.421215,22.3857605 C108.593723,23.0404176 109.812484,23.2687393 110.135097,22.5857946 C110.896823,20.9814807 111.423309,18.8033316 110.536123,17.1404218" id="Fill-369" fill="#57341E"></path>
        </g>
    </g>
</svg>