<?xml version="1.0" encoding="UTF-8"?>
<svg width="200px" height="200px" viewBox="0 0 200 200" version="1.1" xmlns="http://www.w3.org/2000/svg" xmlns:xlink="http://www.w3.org/1999/xlink">
    <!-- Generator: Sketch 56.3 (81716) - https://sketch.com -->
    <title>robot</title>
    <desc>Created with Sketch.</desc>
    <g id="robot" stroke="none" stroke-width="1" fill="none" fill-rule="evenodd">
        <g id="typeText" transform="translate(10.000000, 6.000000)" fill="#725F5F" fill-opacity="0.87" font-family="Roboto-Black, Roboto Black" font-size="17" font-weight="700">
            <g id="vegetable">
                <text>
                    <tspan x="0" y="16">toy</tspan>
                </text>
            </g>
        </g>
        <g id="firstLetter" transform="translate(10.000000, 152.000000)">
            <g id="Group" transform="translate(0.000000, -5.000000)">
                <rect id="Rectangle" stroke="#979797" x="0.5" y="6.5" width="34" height="38"></rect>
                <text id="C" fill="#131313" font-family="Roboto-Bold, Roboto" font-size="43" font-weight="bold">
                    <tspan x="3.77905273" y="40">R</tspan>
                </text>
            </g>
        </g>
        <g id="nameText" transform="translate(104.000000, 161.000000)" fill="#454545" fill-opacity="0.87" font-family="Roboto-Black, Roboto Black" font-size="26" font-weight="700">
            <text id="Carrot">
                <tspan x="16.2773438" y="28">Robot</tspan>
            </text>
        </g>
        <g id="colorText" transform="translate(133.000000, 5.000000)" fill="#454545" fill-opacity="0.87" font-family="Roboto-Black, Roboto Black" font-size="18" font-weight="700">
            <text id="orange">
                <tspan x="21.9667969" y="17">blue</tspan>
            </text>
        </g>
        <g transform="translate(44.000000, 15.000000)">
            <path d="M36.556499,160 L36.2250656,159.535997 L35.5049356,159.753115 C35.2828231,159.003707 35.2689411,158.958182 41.8403451,156.564627 C42.2498649,156.415796 42.6854135,156.256459 43.127903,156.095372 C42.6628552,156.177666 42.2064836,156.261712 41.777876,156.340505 C34.9097437,157.59594 34.8941264,157.553917 34.7153953,156.790501 C34.534929,156.030586 34.5245175,155.985061 41.2104482,153.980219 C41.6095565,153.861154 42.0329582,153.733334 42.4615658,153.603763 C42.017341,153.659794 41.5783219,153.715825 41.1670669,153.766602 C34.246877,154.640328 34.2416712,154.593053 34.1028509,153.827886 C33.9640307,153.059217 33.9553544,153.013692 40.7263126,151.366044 C41.1028625,151.274994 41.5002355,151.176941 41.9062848,151.078887 C41.4932945,151.108653 41.0889805,151.140171 40.7054895,151.169937 C33.754065,151.698725 33.7453888,151.651449 33.6430088,150.879278 C33.5423641,150.105356 33.5354231,150.059832 40.3879382,148.723853 C40.7315183,148.657317 41.0941862,148.585528 41.4637952,148.513739 C41.0803042,148.525996 40.7037543,148.538252 40.3462921,148.550509 C33.3931324,148.776382 33.3896619,148.732608 33.3167812,147.958686 C33.2473711,147.181263 33.2439006,147.133987 40.146738,146.081663 C40.4747008,146.030886 40.8217515,145.978357 41.1757431,145.924077 C40.8061342,145.920575 40.4469368,145.918824 40.1033566,145.917073 C33.1554027,145.871549 33.1519322,145.824273 33.1102861,145.0486 C33.06864,144.269425 33.0651695,144.22215 40.0148587,143.425465 C40.311587,143.390446 40.6221974,143.355427 40.9397487,143.318657 C40.6048448,143.304649 40.2803525,143.292393 39.9680069,143.278385 C33.0200529,142.994731 33.0200529,142.947455 33.0079061,142.16828 C32.9888184,141.392607 32.9888184,141.345331 39.9593306,140.785026 C40.2491179,140.762264 40.5545225,140.73775 40.8651328,140.711486 C40.5389052,140.686973 40.2196186,140.66421 39.9124788,140.639697 C32.9870831,140.124916 32.9888184,140.079391 33.0009651,139.301968 C33.0061709,138.526295 33.0079061,138.479019 39.9992414,138.137583 C40.2595294,138.125326 40.5319642,138.11307 40.8078695,138.099062 C40.5076706,138.067545 40.2126776,138.036028 39.9315666,138.006261 C33.040876,137.291872 33.0426112,137.246347 33.075581,136.470674 C33.1050803,135.693251 33.1068156,135.645975 40.1311207,135.497144 C40.3827324,135.491891 40.6412851,135.486638 40.9067789,135.481385 C40.6048448,135.441113 40.3081165,135.402592 40.023535,135.365822 C33.1762257,134.465831 33.177961,134.434314 33.2300186,133.648136 C33.2820762,132.86721 33.3011639,132.821685 40.3167928,132.863708 C40.564934,132.865459 40.8217515,132.86721 41.08551,132.868961 C40.7801054,132.821685 40.4816418,132.772659 40.1953251,132.727134 C33.3809856,131.641542 33.3844561,131.611776 33.4608072,130.825597 C33.5319526,130.048173 33.5371584,130.002649 40.6031096,130.232024 C40.8338983,130.239027 41.0750985,130.247782 41.3215044,130.254786 C41.0091588,130.197005 40.7054895,130.140974 40.413967,130.086694 C33.6620966,128.827758 33.6638319,128.797992 33.7575355,128.018817 C33.849504,127.237892 33.856445,127.192367 40.941484,127.607343 C41.1497143,127.617849 41.3648857,127.631856 41.5852629,127.644113 C41.2694468,127.577577 40.9640422,127.51104 40.6690492,127.449757 C34.0056768,126.040239 34.0091473,126.008722 34.1219387,125.236551 C34.2382007,124.453874 34.246877,124.408349 41.4013261,125.001923 C41.5974097,125.017681 41.8004343,125.035191 42.0051942,125.0527 C41.6286442,124.961651 41.2607705,124.874103 40.9119846,124.791808 C34.54187,123.277233 34.4238728,123.233459 34.5574873,122.457786 C34.6876313,121.678611 34.7015133,121.617328 42.052046,122.421016 C42.2377181,122.440276 42.4251255,122.461288 42.6142681,122.482299 C42.031223,122.324713 41.4603247,122.17238 40.9449545,122.034055 C34.9218905,120.423177 34.9218905,120.423177 35.0711222,119.665014 C35.2550591,118.726502 36.1157447,118.754517 42.7530883,119.920653 C44.8197749,120.283101 47.643032,120.789126 48.1323734,120.692824 L48.2260771,121.212857 L49,121.396708 C48.8125927,122.223158 48.1306381,122.167128 43.1018742,121.284647 C48.7032717,122.800973 48.6789782,122.930544 48.5557752,123.630925 C48.4100139,124.39084 48.4065434,124.404847 41.914961,123.697462 C41.880256,123.69396 41.8420804,123.688707 41.8056401,123.685205 C48.2781347,125.227796 48.2659879,125.30834 48.1375791,126.055997 C48.0282582,126.805406 48.0247877,126.838674 41.3770325,126.288874 C47.8981142,127.670377 47.8894379,127.72991 47.7922637,128.484571 C47.6968248,129.249738 47.6916191,129.288259 41.0438639,128.897796 C47.5927096,130.121714 47.5857686,130.179495 47.4990059,130.939409 C47.4209196,131.699323 47.4157138,131.737844 40.7922522,131.522477 C47.3376274,132.567797 47.3341569,132.627329 47.2699525,133.383742 C47.2109539,134.13315 47.2144244,134.190932 40.6308736,134.15066 C47.1484848,135.010378 47.1467495,135.069911 47.1068387,135.824572 C47.0651926,136.579233 47.0617221,136.635264 40.4903181,136.77534 C47.0235466,137.454711 47.0218113,137.514243 47.0044588,138.267154 C46.9871062,139.034072 46.985371,139.079596 40.5146117,139.39827 C46.9749595,139.881534 46.9732242,139.942817 46.9732242,140.697478 C46.9801652,141.439883 46.9801652,141.504668 40.6100506,142.019449 C46.9905767,142.283843 46.992312,142.348628 47.0218113,143.094535 C47.0443696,143.842192 47.0461049,143.906978 40.7141658,144.637126 C47.0912214,144.6809 47.0946919,144.747436 47.1450143,145.493343 C47.2022776,146.228743 47.2074834,146.297031 41.0351876,147.244297 C47.273423,147.039435 47.2786288,147.111224 47.3601857,147.850127 C47.4400073,148.580275 47.4469484,148.652064 41.4429721,149.825204 C47.547593,149.366454 47.5545341,149.438243 47.6690608,150.164889 C47.780117,150.881029 47.7922637,150.959822 42.0641928,152.360586 C47.9085257,151.630438 47.9258782,151.70748 48.07511,152.413114 C48.219136,153.1205 48.2364886,153.204546 42.7392063,154.859198 C48.3891909,153.834889 48.4065434,153.917184 48.5922155,154.60706 C48.7865639,155.347714 48.7987106,155.393239 42.2724232,157.771035 C40.0270055,158.588731 36.953872,159.709342 36.556499,160" id="Fill-28" fill="#1A237E"></path>
            <path d="M54.7048319,167 C54.8915346,166.41443 55,165.807047 55,165.181208 C55,160.66443 49.8523386,157 43.5008891,157 C37.1458833,157 32,160.66443 32,165.181208 C32,165.807047 32.1066873,166.41443 32.29339,167 L54.7048319,167 Z" id="Fill-30" fill="#29B6F6"></path>
            <polygon id="Fill-32" fill="#212121" points="32 169 54 169 54 167 32 167"></polygon>
            <path d="M72.9878472,159 C72.4965278,158.777073 69.3003472,158.60505 66.9652778,158.480421 C60.5833333,158.138131 60,158.02579 60,157.153389 C60,156.280988 60.5850694,156.168647 66.9722222,155.824602 C67.2135417,155.812314 67.4635417,155.798272 67.7204861,155.784229 C67.4635417,155.771942 67.2135417,155.757899 66.9722222,155.745612 C60.5850694,155.401566 60,155.29098 60,154.41858 C60,153.547934 60.5833333,153.437348 66.9600694,153.095058 C67.1857639,153.082771 67.4184028,153.070483 67.6579861,153.058196 C67.4236111,153.044153 67.1944444,153.033621 66.9722222,153.021334 C60.5850694,152.680799 60,152.568458 60,151.699568 C60,150.827167 60.5850694,150.716581 66.9722222,150.374291 C67.1996528,150.362004 67.4340278,150.349716 67.6736111,150.335674 C67.4322917,150.323386 67.1944444,150.311099 66.9652778,150.298812 C60.5833333,149.958277 60,149.845936 60,148.97529 C60,148.1064 60.5833333,147.994059 66.953125,147.65528 C67.1857639,147.641237 67.4253472,147.62895 67.6701389,147.616662 C67.4322917,147.602619 67.1979167,147.590332 66.9722222,147.578045 C60.5850694,147.23751 60,147.125169 60,146.254523 C60,145.385633 60.5833333,145.273292 66.9652778,144.932757 C67.1892361,144.92047 67.421875,144.909938 67.6597222,144.895895 C67.4236111,144.883608 67.1944444,144.871321 66.9722222,144.859033 C60.5850694,144.518499 60,144.406157 60,143.533756 C60,142.657845 60.5173611,142.559546 66.9479167,142.219012 C67.1631944,142.206724 67.3836806,142.196192 67.609375,142.18215 C67.3940972,142.171618 67.1822917,142.161086 66.9774306,142.148798 C60.5850694,141.810019 60,141.699433 60,140.827032 C60,139.949365 60.5190972,139.851067 66.9722222,139.508777 C67.1805556,139.496489 67.3958333,139.485957 67.6145833,139.47367 C67.3958333,139.461383 67.1805556,139.450851 66.9722222,139.438563 C60.5850694,139.098029 60,138.987443 60,138.116797 C60,137.246152 60.5833333,137.13381 66.9652778,136.795031 C67.1857639,136.782744 67.4114583,136.770456 67.6440972,136.758169 C67.4149306,136.745882 67.1892361,136.733594 66.9722222,136.723062 C60.5850694,136.380772 60,136.270186 60,135.399541 C60,134.521874 60.5173611,134.423575 66.953125,134.07953 C67.1805556,134.067243 67.4149306,134.054955 67.6545139,134.042668 C67.4184028,134.028625 67.1892361,134.018093 66.9652778,134.005806 C60.5833333,133.665271 60,133.55293 60,132.68404 C60,131.813395 60.5833333,131.702809 66.9652778,131.362274 C67.1840278,131.351742 67.4097222,131.339454 67.6388889,131.325412 C67.4045139,131.313124 67.1753472,131.300837 66.953125,131.28855 C60.5173611,130.948015 60,130.847961 60,129.97205 C60,129.101404 60.5833333,128.990818 66.9652778,128.650284 C67.1892361,128.637996 67.4201389,128.625709 67.65625,128.613422 C67.4184028,128.601134 67.1840278,128.588847 66.9600694,128.57656 C60.5833333,128.236025 60,128.125439 60,127.254793 C60,126.384148 60.5850694,126.273562 66.9722222,125.933027 C67.1840278,125.922495 67.4027778,125.910208 67.6267361,125.897921 C67.3993056,125.885633 67.1753472,125.873346 66.9600694,125.862814 C60.5190972,125.518769 60,125.42047 60,124.542803 C60,123.666892 60.5173611,123.566838 66.953125,123.226303 C67.1701389,123.214016 67.3940972,123.201728 67.6232639,123.189441 C67.3993056,123.177154 67.1788194,123.164866 66.9652778,123.154334 C60.5190972,122.812044 60,122.713746 60,121.834324 C60,120.958412 60.5173611,120.858358 66.953125,120.517823 C69.2934028,120.391439 72.4982639,120.221172 72.9895833,120 L73.2013889,120.480961 L74,120.480961 C74,121.351607 73.4131944,121.462193 67.0208333,121.802728 C66.8194444,121.81326 66.6111111,121.823792 66.3993056,121.836079 C66.6145833,121.846611 66.828125,121.857143 67.0329861,121.86943 C73.4791667,122.21172 74,122.310019 74,123.189441 C74,124.060086 73.4131944,124.170672 67.0208333,124.511207 C66.8177083,124.521739 66.609375,124.532271 66.3975694,124.544558 C66.6128472,124.55509 66.8229167,124.565622 67.0260417,124.57791 C73.4131944,124.916689 74,125.029031 74,125.899676 C74,126.777343 73.4791667,126.875641 67.0381944,127.219687 C66.8177083,127.230219 66.5885417,127.242506 66.3576389,127.254793 C66.5850694,127.267081 66.8090278,127.279368 67.0260417,127.291655 C73.4131944,127.63219 74,127.742776 74,128.613422 C74,129.484067 73.4149306,129.596408 67.0329861,129.935188 C66.8229167,129.947475 66.6059028,129.958007 66.3836806,129.970294 C66.6006944,129.982582 66.8142361,129.993114 67.0208333,130.003646 C73.4131944,130.34418 74,130.454766 74,131.325412 C74,132.196057 73.4149306,132.306643 67.0329861,132.647178 C66.8142361,132.659465 66.5868056,132.669997 66.3576389,132.68404 C66.5868056,132.696327 66.8142361,132.708615 67.0329861,132.719147 C73.4149306,133.059681 74,133.172023 74,134.040913 C74,134.911558 73.4131944,135.0239 67.0208333,135.364434 C66.8055556,135.376722 66.5833333,135.387254 66.3559028,135.401296 C66.5885417,135.411828 66.8177083,135.425871 67.0381944,135.436403 C73.4149306,135.778693 74,135.887524 74,136.758169 C74,137.628814 73.4149306,137.7394 67.0329861,138.079935 C66.8090278,138.092223 66.5798611,138.10451 66.34375,138.116797 C66.5815972,138.129085 66.8142361,138.141372 67.0381944,138.153659 C73.4149306,138.494194 74,138.60478 74,139.475425 C74,140.351337 73.4791667,140.451391 67.0381944,140.793681 C66.8246528,140.804213 66.6024306,140.8165 66.3767361,140.828787 C66.6041667,140.841075 66.828125,140.853362 67.0451389,140.863894 C73.4809028,141.206184 74,141.304483 74,142.18215 C74,143.052795 73.4131944,143.165136 67.015625,143.503916 C66.8055556,143.514448 66.5885417,143.526735 66.3680556,143.537267 C66.5972222,143.55131 66.8211806,143.563597 67.0381944,143.574129 C73.4149306,143.916419 74,144.027005 74,144.897651 C74,145.766541 73.4149306,145.878882 67.0329861,146.219417 C66.8090278,146.231704 66.5798611,146.242236 66.34375,146.256279 C66.5815972,146.268566 66.8142361,146.280853 67.0381944,146.293141 C73.4149306,146.633675 74,146.744261 74,147.614907 C74,148.485552 73.4131944,148.597894 67.0208333,148.940184 C66.8020833,148.950716 66.5729167,148.963003 66.3385417,148.977046 C66.5763889,148.989333 66.8072917,149.00162 67.0329861,149.013908 C73.4149306,149.354442 74,149.465028 74,150.335674 C74,151.208075 73.4149306,151.318661 67.0381944,151.659195 C66.8090278,151.671483 66.5729167,151.685525 66.3298611,151.697813 C66.5729167,151.7101 66.8090278,151.722387 67.0381944,151.734675 C73.4791667,152.07872 74,152.177019 74,153.054685 C74,153.927086 73.4131944,154.037672 67.0260417,154.379962 C66.7916667,154.39225 66.546875,154.406292 66.296875,154.420335 C66.5503472,154.432622 66.8003472,154.446665 67.0381944,154.458952 C73.4149306,154.801242 74,154.913584 74,155.784229 C74,156.65663 73.4149306,156.767216 67.0381944,157.111261 C66.7864583,157.123548 66.5225694,157.137591 66.2534722,157.153389 C66.5208333,157.167432 66.7829861,157.181474 67.0329861,157.195517 C73.4149306,157.537807 74,157.648393 74,158.522549 L72.7291667,158.522549 L73.3645833,158.522549 L72.9878472,159 Z" id="Fill-34" fill="#1A237E"></path>
            <path d="M78.7083881,167 C78.8986471,166.41443 79,165.807047 79,165.181208 C79,160.66443 73.8541167,157 67.5008891,157 C61.1494395,157 56,160.66443 56,165.181208 C56,165.807047 56.1066873,166.41443 56.2951681,167 L78.7083881,167 Z" id="Fill-35" fill="#29B6F6"></path>
            <polygon id="Fill-36" fill="#212121" points="56 169 78 169 78 167 56 167"></polygon>
            <polygon id="Fill-37" fill="#0288D1" points="32 125 52 125 52 115 32 115"></polygon>
            <polygon id="Fill-38" fill="#0288D1" points="56 125 76 125 76 115 56 115"></polygon>
            <path d="M2.07030528,104 L1.85168271,103.475162 L1.10942382,103.528859 C1.05476818,102.782308 1.24518139,102.756325 6.13774295,102.092917 C6.58732968,102.03056 7.09157206,101.963007 7.60639296,101.890257 C7.40716432,101.879864 7.21322495,101.867739 7.028101,101.857346 C1.34920342,101.526508 1.01069105,101.462419 1,100.69335 C0.993060198,99.9190846 1.30160012,99.8948347 6.45157212,99.482586 C6.7054564,99.4618004 6.97168227,99.4410147 7.2431974,99.4184969 C7.10743983,99.4046398 6.97520844,99.3907827 6.84650322,99.3786578 C1.27691692,98.8035882 1.00540179,98.737767 1.03361116,97.9721623 C1.0530051,97.1961648 1.47438247,97.1788434 6.63140682,96.9744512 C6.8359247,96.9657906 7.04749493,96.9571299 7.26435442,96.9484692 C7.12683377,96.9276835 6.99107621,96.9103622 6.85708173,96.8913087 C1.52022269,96.1343647 1.11823925,96.0598828 1.17113181,95.2838853 C1.23107671,94.5026914 1.65598025,94.5009592 6.85355556,94.48537 C7.04396876,94.48537 7.24143431,94.48537 7.44418911,94.4836378 C7.29785304,94.4576558 7.15504313,94.4316737 7.0157594,94.4074238 C1.72826675,93.4547483 1.32980948,93.3646772 1.41796374,92.5904118 C1.506118,91.8126822 1.92925846,91.8265393 7.14799079,92.0153422 C7.33487783,92.0222708 7.53058029,92.0291993 7.72980892,92.0361279 C7.57289434,92.0014851 7.41774284,91.9668424 7.26964367,91.9339318 C2.05267443,90.7820605 1.65950642,90.6764001 1.77058079,89.9125276 C1.8887075,89.16078 2.10556699,89.1486551 7.54292189,89.5609037 C7.73509818,89.5747608 7.9360899,89.5903501 8.1388447,89.6059393 C7.96077309,89.5591716 7.78622765,89.5124039 7.61697147,89.4673683 C2.29069094,88.0556764 2.09146231,87.9725339 2.24308764,87.2225184 C2.39294988,86.4811637 2.60980937,86.4794315 8.0436381,87.1341794 C8.24815599,87.1584293 8.4614893,87.1844114 8.68011187,87.2103935 C8.48617249,87.1480365 8.29575929,87.0874117 8.11239842,87.0302512 C2.85311513,85.3656673 2.65564958,85.2721319 2.84606279,84.529045 C3.02589749,83.7928866 3.24628314,83.8015473 8.64485017,84.7213122 C8.87228816,84.7594192 9.10854159,84.7992584 9.35008427,84.8408297 C9.12969861,84.7576871 8.91283912,84.6762766 8.70479506,84.5983305 C3.55834923,82.6721938 3.36617294,82.5699977 3.59537402,81.8390358 C3.82281202,81.1132703 4.03790842,81.1305916 9.38534597,82.346552 C9.63041482,82.4019804 9.88782527,82.4591409 10.150525,82.5197657 C9.90898229,82.4123732 9.67449195,82.308445 9.45058012,82.2097132 C4.43107643,79.9908453 4.24771556,79.8765243 4.51570452,79.1611516 C4.78898273,78.4405825 5.00584222,78.4752252 10.2686517,80.0254881 C10.5472191,80.1086307 10.8416544,80.1935054 11.143142,80.2818444 C10.8698637,80.138077 10.6018748,79.9960417 10.3497536,79.8626672 C5.68815621,77.4013001 5.30556671,77.19864 5.64584216,76.4763388 C5.98259144,75.7540376 6.38633797,75.9081978 11.3229767,77.7650489 C11.6209381,77.8776379 11.9365303,77.9971553 12.2591749,78.1184049 C11.9612135,77.929602 11.6685414,77.7425312 11.3935001,77.5693174 C6.96991918,74.7667193 6.61024979,74.5380772 7.0034178,73.8452223 C7.40716432,73.147171 7.79680616,73.3359739 12.5483209,75.6033416 C12.8744917,75.759234 13.2253456,75.9255192 13.5797258,76.0952686 C13.2623704,75.8493051 12.9485413,75.6068059 12.6558691,75.3816281 C8.51967111,72.1858348 8.18115875,71.9260142 8.64308708,71.2729985 C9.09972616,70.6303755 9.45410629,70.8226428 13.997577,73.5784732 C14.3325632,73.7811332 14.6922326,73.9993825 15.0571912,74.2193639 C14.7468882,73.9197042 14.4383483,73.6235087 14.1527285,73.3480989 C10.3691475,69.715807 10.0606076,69.4178794 10.6001117,68.8168278 C11.1378527,68.2123119 11.4781282,68.4807932 15.6160892,71.6904435 C15.9669432,71.9606569 16.3477696,72.2568524 16.7303591,72.5513158 C16.4306346,72.1806384 16.1309101,71.8116931 15.8558688,71.4721942 C12.5553732,67.4068681 12.2856212,67.0742977 12.9062272,66.5442637 C13.5180178,66.017694 13.8177423,66.3225501 17.5061166,70.043181 C17.8322874,70.3722871 18.1884306,70.7325716 18.5445738,71.0893919 C18.2889265,70.6632861 18.0297529,70.2354482 17.7934995,69.8457173 C15.0783482,65.3664104 14.8561995,64.9991973 15.5455658,64.5575023 C16.2173013,64.1140751 16.4782379,64.453574 19.5953726,68.6488105 C19.8774663,69.0281486 20.1860062,69.4438615 20.4963092,69.8578423 C20.3023698,69.3953617 20.1066674,68.932881 19.9285957,68.5102395 C17.8887061,63.6827729 17.721213,63.2878456 18.465235,62.9431503 C19.1986785,62.6053836 19.4031963,62.9708645 21.8662264,67.5402426 C22.0936644,67.961152 22.3422594,68.4219005 22.5908545,68.8809169 C22.4692016,68.4080434 22.3457856,67.9369021 22.2347112,67.5038678 C20.9018188,62.3871343 20.8189538,61.9939391 21.587659,61.7583684 C22.3687057,61.5245299 22.5115156,61.9211893 24.2922317,66.7607809 C24.4509094,67.192083 24.6236918,67.6632244 24.7982372,68.1309014 C24.7453446,67.6770815 24.6924521,67.2232615 24.6430857,66.8058164 C24.0242428,61.550512 23.9960334,61.1486561 24.7894218,61.0187458 C25.5880994,60.8905677 25.6815429,61.2924235 26.8152067,66.3156216 C27.2260056,68.1309014 27.7866667,70.6199827 28,70.9941244 L27.5151516,71.2591414 L27.5944904,72.0056925 C27.0214877,72.0697816 26.8310745,71.9277463 26.221047,69.4022902 C26.4943252,72.0108889 26.3691461,72.1702456 25.7996696,72.3001559 C25.2636917,72.4248697 25.0591738,72.32787 24.2534439,70.2770195 C24.7700278,72.4421911 24.6519011,72.6067442 24.1370802,72.8024757 C23.6398902,72.9912786 23.4195045,72.932386 22.4057305,71.1638738 C23.1620941,73.0813498 23.0580721,73.2597599 22.5873283,73.5161162 C22.1289261,73.7724725 21.9014881,73.7447583 20.6320668,72.1269421 C21.6669978,73.930097 21.5911851,74.1206321 21.1662816,74.4445418 C20.720221,74.7771121 20.51394,74.7909692 18.816089,73.1385103 C20.2723974,74.9988257 20.2371357,75.1997536 19.8351522,75.5929488 C19.417301,76.0069296 19.2145462,76.0225188 16.9824803,74.3319529 C18.9518465,76.2719466 18.981819,76.4988566 18.6168603,76.9561408 C18.2360339,77.4428714 18.0332791,77.4653892 15.2705245,75.8146624 C17.7952626,77.7944953 17.844629,77.9884946 17.5114059,78.5133322 C17.1658412,79.0606876 16.9595602,79.078009 13.6766955,77.5294783 C16.6157586,79.4123115 16.8220395,79.6634714 16.5152627,80.2454695 C16.2173013,80.8395926 16.0180727,80.8603782 12.2891474,79.4677399 C15.7923978,81.3332517 15.9087614,81.4960726 15.6495878,82.1127135 C15.3851251,82.738015 15.1823703,82.7691935 11.1501943,81.589608 C14.9831416,83.2940311 15.1171361,83.444727 14.8967504,84.0890821 C14.6710755,84.7472943 14.4683207,84.7767406 10.1628666,83.8050116 C14.288486,85.3570066 14.4418745,85.4921133 14.2567505,86.1607183 C14.0663373,86.8310554 13.8159792,86.8622339 9.36595203,86.1122184 C13.708431,87.4927318 13.8723979,87.6157136 13.7207726,88.2999078 C13.5656211,88.9858342 13.3663925,89.0291376 8.80000167,88.4852465 C13.2394503,89.6665641 13.4104696,89.779153 13.2923429,90.4702758 C13.1654007,91.1683271 12.9168057,91.2185591 8.25168216,90.8686674 C12.8639132,91.8923605 13.0437479,91.9910923 12.9503043,92.6960722 C12.8586239,93.3975878 12.611792,93.4599447 7.89730202,93.2936595 C12.5818195,94.1406747 12.7651804,94.2307458 12.6999462,94.9409221 C12.6364752,95.6476341 12.3861171,95.7151874 7.61873455,95.734241 C12.3878801,96.4132388 12.5765303,96.4946492 12.5377424,97.2082898 C12.5007176,97.9150018 12.2538857,97.9964122 7.52881721,98.1904116 C12.0863926,98.6615529 12.4707452,98.7291063 12.4654559,99.4600682 C12.4513512,100.168512 12.2098085,100.268976 7.65928551,100.641386 C12.1745468,100.902939 12.4548774,100.947974 12.488376,101.663347 C12.5165854,102.43588 12.1110758,102.545005 6.3105253,103.331395 C4.57564942,103.566966 2.41410691,103.861429 2.07030528,104" id="Fill-39" fill="#1A237E"></path>
            <path d="M98.4945348,103 L98.33951,102.453003 L97.6044483,102.395147 C97.6601876,101.692116 97.8361146,101.660558 102.143716,101.543094 C97.9458513,101.083757 97.6741224,100.952267 97.6845735,100.254495 C97.6915409,99.5199058 97.9719791,99.4690632 102.521698,99.0851132 C97.9214654,98.7993423 97.6793479,98.7081761 97.6584457,97.9928721 C97.6323179,97.2460106 98.0137836,97.1706231 102.5426,96.6008344 C97.8378565,96.4903831 97.5905135,96.4167488 97.5399997,95.6979385 C97.4929697,94.9773749 97.6758642,94.8914683 102.347512,94.120062 C97.6514783,94.1972026 97.4145864,94.128828 97.3344612,93.4205368 C97.2578197,92.6999732 97.4389723,92.6035474 102.033979,91.6568216 C97.5156138,91.9075286 97.1498248,91.8742179 97.0453137,91.1501479 C96.9390607,90.4418567 97.1132459,90.3366649 101.610709,89.2181259 C97.0035092,89.6686972 96.7997125,89.6231141 96.6655898,88.9183293 C96.5262416,88.2223105 96.6917176,88.1030932 101.037639,86.8109877 C96.5558531,87.466683 96.3555401,87.4263595 96.1900641,86.7320939 C96.0228463,86.0501006 96.1778712,85.9203641 100.361801,84.4389134 C96.1709038,85.2804475 95.8155659,85.2892135 95.6065436,84.6037139 C95.4097143,83.9392526 95.5508043,83.7937373 99.4560374,82.1580054 C95.3626843,83.2379741 95.1641131,83.209923 94.9219956,82.5594873 C94.6833618,81.9195707 94.8087752,81.7600299 98.4318282,79.9524847 C94.6067203,81.251603 94.397698,81.2288115 94.1190016,80.6081801 C93.843789,80.0033274 93.9448164,79.8280078 97.1985967,77.8854666 C93.7236012,79.3809428 93.52503,79.3616577 93.2010454,78.783103 C92.8927376,78.2273398 92.9902813,78.0116967 95.7389244,76.0165596 C92.7568731,77.638266 92.5252067,77.6295 92.1629014,77.1140603 C91.8197565,76.6143995 91.8720121,76.386484 94.0893902,74.4001128 C91.6055086,76.1112322 91.4139049,76.0849343 91.0097951,75.6291033 C90.6370387,75.1995702 90.6422643,74.9681484 92.3057333,73.0641775 C90.4036305,74.7314669 90.1789315,74.7367265 89.7521777,74.3580361 C89.3445842,73.998631 89.288845,73.7987666 90.5151091,71.9403788 C89.0658879,73.5831235 88.8377052,73.6041618 88.3900491,73.3061185 C87.9511023,73.0133348 87.8622679,72.8257428 88.7314522,70.9726146 C87.6166667,72.6626956 87.3919677,72.6995127 86.9251513,72.4768568 C86.4409163,72.2454349 86.3311796,72.0718685 86.9582465,70.0223823 C86.0559669,71.9456384 85.8330098,72.0157662 85.3383238,71.8597318 C84.8053169,71.6966845 84.6816454,71.5336373 85.0770459,69.1422779 C84.3785631,71.4266923 84.190443,71.5529225 83.6347921,71.4600031 C82.904956,71.333773 82.8875374,71.1216362 83.1679757,65.7480903 C83.2672613,63.8739238 83.4013839,61.3072448 83.3003565,60.8882309 C83.3003565,60.8882309 83.2446172,60.0589692 83.9187141,60.0046201 C84.7077732,59.9397518 84.7025476,60.4937618 84.4255931,65.8147118 C84.402949,66.2319725 84.3785631,66.6860502 84.3576609,67.1418812 C84.4900416,66.6807906 84.6224224,66.2214533 84.7426102,65.798933 C86.1900896,60.7584944 86.3259541,60.3710381 87.0854017,60.5393449 C87.8762027,60.7286901 87.7978193,61.1547167 86.8467679,66.3687217 C86.7683846,66.808774 86.6812919,67.2873965 86.5941993,67.7677722 C86.8067053,67.2909029 87.0174695,66.8105272 87.2090732,66.3739813 C89.3010379,61.6105477 89.4665139,61.2213381 90.220736,61.5106155 C90.964507,61.7998928 90.8530284,62.1908556 89.1808501,67.2453198 C89.0362764,67.6836188 88.8777678,68.1604881 88.7244848,68.6391106 C89.0031812,68.1937988 89.2818776,67.7449806 89.5344462,67.3347328 C92.2900566,62.8973936 92.521723,62.5379884 93.2219477,62.9342107 C93.9273979,63.3321862 93.7357941,63.7178893 91.3790678,68.4374931 C91.1700456,68.8547537 90.9418629,69.3123379 90.7171639,69.7681689 C91.0568251,69.3649338 91.3999701,68.9599455 91.7117616,68.5900211 C95.0700531,64.5997469 95.3470076,64.2754057 95.9845256,64.7698069 C96.6237854,65.2642082 96.379926,65.6166006 93.4013585,69.9399821 C93.147048,70.3099065 92.8683516,70.7148948 92.5896552,71.119883 C92.9571861,70.7902822 93.3229751,70.4589281 93.6608945,70.1556252 C97.5434834,66.6422203 97.8622424,66.3564494 98.4248608,66.9350041 C98.9927046,67.5100524 98.705299,67.8291341 95.1919827,71.7264889 C94.9150282,72.0350514 94.6136877,72.3681586 94.3123473,72.7047723 C94.6833618,72.4470524 95.047409,72.1910858 95.3870702,71.9544044 C99.6824782,68.9406604 100.032591,68.7004725 100.523793,69.3351295 C101.016737,69.975046 100.697978,70.2573106 96.7753265,73.7076004 C96.4879209,73.9600606 96.179613,74.231806 95.8678214,74.5070578 C96.2301267,74.3071935 96.5889483,74.1108355 96.9216421,73.9267499 C101.483554,71.4126668 101.866761,71.1970237 102.295257,71.8860297 C102.720269,72.5697762 102.37364,72.8169768 98.1304877,75.8552656 C97.8517913,76.0551299 97.5521927,76.2672666 97.2491104,76.484663 C97.5852879,76.3409009 97.9127561,76.198892 98.221064,76.0656491 C103.221922,73.8899328 103.423977,73.8390901 103.772348,74.526343 C104.118976,75.2206086 103.951758,75.3538515 99.271401,78.1256545 C99.0136069,78.2781825 98.740136,78.4412297 98.4579559,78.6060302 C98.7680057,78.5008384 99.0728298,78.3973998 99.3584936,78.2992209 C104.284452,76.6143995 104.692046,76.4706374 104.99687,77.2210053 C105.299952,77.960854 104.918486,78.1501992 100.239871,80.4679244 C99.9977535,80.5871417 99.7451849,80.7133718 99.4856489,80.8413551 C99.7643452,80.7677209 100.036074,80.6958399 100.293868,80.6274652 C105.549037,79.230168 105.756317,79.2056232 106.005402,79.9331996 C106.252745,80.6677887 106.068109,80.7764869 101.053316,82.8627902 C100.837326,82.9522032 100.610885,83.0468758 100.380961,83.1433015 C100.630046,83.0942121 100.872163,83.0451226 101.105572,82.9977863 C106.409512,81.9230771 106.625502,81.9108047 106.829299,82.6506535 C107.029612,83.397515 106.83975,83.4974471 101.703027,85.3084987 C101.506198,85.3768733 101.304143,85.4487544 101.096862,85.5223886 C101.325045,85.4873247 101.549744,85.4557671 101.763992,85.4242096 C107.109737,84.6335182 107.323985,84.631765 107.494686,85.3786265 C107.65842,86.1360072 107.459849,86.2254202 102.246485,87.7717391 C102.067074,87.824335 101.878954,87.8804373 101.689092,87.9365395 C101.899856,87.9155012 102.107137,87.896216 102.305708,87.8769309 C107.4703,87.3667508 107.89357,87.3229209 108.025951,88.110106 C108.154848,88.8674866 107.954535,88.9481337 102.650595,90.2630307 C102.497312,90.301601 102.340545,90.3401713 102.178553,90.3804948 C102.375382,90.3699757 102.566986,90.3594565 102.751622,90.3489373 C107.900538,90.0544004 108.329033,90.0316088 108.426577,90.8223002 C108.527605,91.5989661 108.135688,91.6971451 102.958903,92.7595819 C102.812587,92.7893862 102.664529,92.8191905 102.512988,92.8507481 C102.701108,92.8472417 102.885745,92.8454885 103.061672,92.8419821 C108.447479,92.7525691 108.65476,92.778867 108.724434,93.5397541 C108.794108,94.3251859 108.398708,94.4093394 103.148764,95.2719118 C103.016384,95.2929502 102.880519,95.3157417 102.741171,95.3385333 C102.948451,95.3437929 103.150506,95.3490524 103.343852,95.3525588 C108.457931,95.4682698 108.874233,95.4770358 108.912554,96.265974 C108.957842,97.053159 108.555474,97.1215336 103.239341,97.7895013 C103.117411,97.8052801 102.99374,97.8210589 102.868326,97.8368376 C103.098251,97.8508632 103.32295,97.8648888 103.538939,97.8771611 C108.581602,98.1822173 108.992679,98.206762 108.999647,98.9921938 C109.01184,99.7688597 108.740111,99.8302215 103.162699,100.300078 C103.028577,100.31235 102.889228,100.324623 102.74988,100.335142 C103.086058,100.371959 103.413526,100.407023 103.725318,100.440334 C108.70179,100.969799 108.999647,101.001357 108.973519,101.774516 C108.943907,102.579233 108.593795,102.637088 102.722011,102.794876 C100.995835,102.842212 98.846389,102.898315 98.4945348,103" id="Fill-40" fill="#1A237E"></path>
            <polygon id="Fill-41" fill="#512DA8" points="51 63 59 63 59 54 51 54"></polygon>
            <polygon id="Fill-42" fill="#512DA8" points="54.117 17 55.883 17 55.883 3 54.117 3"></polygon>
            <path d="M80,34.5008731 C80,45.2693083 68.5851725,54 54.5026257,54 C40.416578,54 29,45.2693083 29,34.5008731 C29,23.7306917 40.416578,15 54.5026257,15 C68.5851725,15 80,23.7306917 80,34.5008731" id="Fill-43" fill="#29B6F6"></path>
            <path d="M48.0001585,42.2783228 C47.9475806,41.742224 60.9959555,42.1455745 60.9959555,42.1455745 C61.0666637,45.4302435 60.2562394,50.030482 54.9023626,49.9998478 C50.9046321,49.9777231 48.5694498,48.0426616 48.0001585,42.2783228" id="Fill-44" fill="#6D2C4B"></path>
            <path d="M53.2370345,30.2938714 C45.0448258,30.2938714 37.2919856,29.6222817 30.3531148,28.4256309 C29.4883817,30.3828352 29,32.4708687 29,34.6513548 C29,36.8824282 29.5181397,39.0175602 30.4196327,41.0148855 C37.5265488,42.2848006 45.5209542,43 53.9757337,43 C62.8891368,43 71.2914021,42.2028143 78.687146,40.7985812 C79.529123,38.864054 80,36.8004419 80,34.6513548 C80,32.3103849 79.436348,30.0775672 78.4438304,28 C70.9325553,29.4600535 62.3517419,30.2938714 53.2370345,30.2938714" id="Fill-45" fill="#01579B"></path>
            <path d="M49,35.5 C49,38.5384365 46.5370461,41 43.5008956,41 C40.4629539,41 38,38.5384365 38,35.5 C38,32.463355 40.4629539,30 43.5008956,30 C46.5370461,30 49,32.463355 49,35.5" id="Fill-46" fill="#6D2C4B"></path>
            <path d="M45,36 C45,37.1055694 44.1020747,38 43,38 C41.8979253,38 41,37.1055694 41,36 C41,34.8960931 41.8979253,34 43,34 C44.1020747,34 45,34.8960931 45,36" id="Fill-47" fill="#FFFFFF"></path>
            <path d="M43.99,35 C43.99,35.544 43.548,35.99 43.002,35.99 C42.45,35.99 42.01,35.544 42.01,35 C42.01,34.454 42.45,34.01 43.002,34.01 C43.548,34.01 43.99,34.454 43.99,35" id="Fill-48" fill="#000000"></path>
            <path d="M60,35.5 C60,38.5384365 62.4601727,41 65.5008959,41 C68.5398273,41 71,38.5384365 71,35.5 C71,32.463355 68.5398273,30 65.5008959,30 C62.4601727,30 60,32.463355 60,35.5" id="Fill-49" fill="#6D2C4B"></path>
            <path d="M64,36 C64,37.1055694 64.8953488,38 66.0016611,38 C67.1079734,38 68,37.1055694 68,36 C68,34.8960931 67.1079734,34 66.0016611,34 C64.8953488,34 64,34.8960931 64,36" id="Fill-50" fill="#FFFFFF"></path>
            <path d="M65.008,35 C65.008,35.544 65.454,35.99 66,35.99 C66.548,35.99 66.992,35.544 66.992,35 C66.992,34.454 66.548,34.01 66,34.01 C65.454,34.01 65.008,34.454 65.008,35" id="Fill-51" fill="#000000"></path>
            <path d="M61,6.5 C61,10.0876738 58.0904255,13 54.5035461,13 C50.9131206,13 48,10.0876738 48,6.5 C48,2.91055359 50.9131206,0 54.5035461,0 C58.0904255,0 61,2.91055359 61,6.5" id="Fill-52" fill="#01579B"></path>
            <path d="M60,6.00082878 C60,8.76230731 57.534074,11 54.499088,11 C51.4641021,11 49,8.76230731 49,6.00082878 C49,3.23935024 51.4641021,1 54.499088,1 C57.534074,1 60,3.23935024 60,6.00082878" id="Fill-53" fill="#94DBFB"></path>
            <path d="M60,6.00082878 C60,8.76230731 57.534074,11 54.499088,11 C51.4641021,11 49,8.76230731 49,6.00082878 C49,3.23935024 51.4641021,1 54.499088,1 C57.534074,1 60,3.23935024 60,6.00082878" id="Fill-54" fill="#94DBFB"></path>
            <path d="M87.3106491,69.2719305 C81.7182886,54.2426898 28.4711282,54.2426898 22.8770069,69.2719305 C19.3377611,78.7918277 27.802017,95.0493866 25.5763421,109.34646 C23.4809677,122.792496 89.8180551,121.857045 84.6940724,108.628075 C79.3182926,94.7582424 90.8534165,78.7918277 87.3106491,69.2719305" id="Fill-55" fill="#29B6F6"></path>
            <path d="M9.78387229,106.949038 L10.2953336,105.134568 L9.78387229,106.949038 L10.2953336,105.134568 L9.78039296,106.949038 C9.71950471,106.931641 9.65861646,106.914245 9.5977282,106.900327 C9.23587802,106.813344 8.86532951,106.769853 8.49652067,106.769853 L8.49652067,103 L8.49652067,103 C9.19064675,103 9.88303316,103.085244 10.5597626,103.253991 C10.6397871,103.274867 10.7198117,103.295743 10.7980966,103.318359 L9.78387229,106.949038 Z M16.6764224,113.820712 L13.0492223,112.790831 C13.1692591,112.368093 13.2301474,111.931437 13.2301474,111.496521 C13.2301474,109.395006 11.8158002,107.526607 9.79083095,106.950778 L10.8067949,103.321838 C14.4600901,104.356938 17,107.71623 17,111.494781 C17,112.27763 16.8921408,113.062219 16.6764224,113.820712 L16.6764224,113.820712 Z M8.49130168,120 L8.49130168,120 C8.15206713,120 7.81283258,119.979124 7.47359804,119.939112 C7.47185837,119.937372 7.47011871,119.937372 7.46837904,119.937372 C7.46489971,119.937372 7.46316005,119.935632 7.45794106,119.935632 L7.4509824,119.935632 C7.44228408,119.937372 7.43880475,119.933893 7.43184609,119.932153 C7.42836676,119.932153 7.42314777,119.932153 7.41792878,119.930413 C7.0212853,119.879963 6.6263815,119.799939 6.23669668,119.692079 L6.17928776,119.676422 C2.54164961,118.644801 0,115.28377 0,111.505219 C0,110.72063 0.10785919,109.939521 0.325317233,109.179288 L0.344453541,109.111441 C0.346193205,109.104482 0.347932869,109.097524 0.349672534,109.090565 C1.40912812,105.505117 4.75450266,103 8.49304134,103 L8.49478101,103 L8.49478101,106.769853 C6.41414245,106.769853 4.5527016,108.165063 3.96469505,110.162198 L3.96295538,110.170896 L0.334015555,109.144494 L3.95773639,110.188293 L0.361850184,109.191465 L3.95077773,110.209169 C3.83074089,110.633647 3.76985264,111.068563 3.76985264,111.505219 C3.76985264,113.606734 5.18419975,115.475133 7.20916905,116.049222 L6.69422841,117.861953 L7.21090872,116.049222 L6.19320508,119.679902 L7.21960704,116.052702 L6.21582071,119.68686 L7.23178469,116.056181 L6.22799836,119.69034 L7.23874335,116.057921 L6.23669668,119.692079 L7.24570201,116.05966 C7.65452313,116.172738 8.07378223,116.230147 8.49304134,116.230147 L8.49130168,120 Z M8.49304134,120 L8.49304134,116.230147 L8.62351617,116.228408 L8.67744576,118.112464 L8.62873516,116.228408 L8.68440442,118.112464 L8.63569382,116.228408 L8.75225133,119.996521 L8.68440442,118.112464 L8.74007368,119.996521 L8.67744576,118.112464 L8.73311502,119.996521 L8.49304134,120 Z" id="Fill-56" fill="#29B6F6"></path>
            <path d="M94.4835277,113.326374 C94.1617557,112.414697 94,111.463003 94,110.50261 C94,106.904616 96.2802333,103.682428 99.6736239,102.485416 L100.315429,104.258315 L99.691017,102.478457 C100.600675,102.161805 101.54512,102 102.496521,102 L102.498261,102 L102.498261,105.770238 C101.969511,105.770238 101.442501,105.86071 100.936362,106.038174 C99.0387763,106.706274 97.7690812,108.500051 97.7690812,110.50261 C97.7708205,111.036741 97.8595253,111.563914 98.0404133,112.073687 L94.4835277,113.326374 Z M102.780029,119 L102.653059,115.231501 C103.136587,115.215843 103.613157,115.125371 104.070595,114.963566 C105.961224,114.297206 107.230919,112.505168 107.229179,110.50261 C107.229179,109.970218 107.136996,109.441306 106.959587,108.933272 L108.735421,108.305189 L106.957847,108.931532 L108.735421,108.305189 L106.957847,108.931532 L108.735421,108.305189 L106.949151,108.903695 C106.947411,108.901955 106.947411,108.900215 106.945672,108.896735 C106.943933,108.893256 106.942194,108.888036 106.942194,108.884556 C106.940454,108.884556 106.940454,108.882816 106.940454,108.882816 C106.938715,108.877597 106.936976,108.872377 106.935236,108.867158 L106.935236,108.867158 C106.253427,107.014226 104.475854,105.770238 102.498261,105.770238 L102.498261,102 L102.5,102 C106.036014,102 109.217209,104.21134 110.455596,107.5153 L110.455596,107.51704 C110.457336,107.52226 110.459075,107.525739 110.460814,107.529219 L110.469511,107.558796 L110.474729,107.570975 L110.490383,107.610992 C110.492122,107.619691 110.495601,107.62665 110.49734,107.63361 L108.735421,108.305189 L110.512994,107.677106 C110.834766,108.590523 110.998261,109.540477 111,110.50087 C111,114.100604 108.719767,117.322792 105.322897,118.519804 C104.501944,118.810357 103.646204,118.972163 102.780029,119 L102.780029,119 Z" id="Fill-57" fill="#29B6F6"></path>
            <path d="M73,85.5 C73,95.7189148 64.7189148,104 54.5017427,104 C44.2828278,104 36,95.7189148 36,85.5 C36,75.2828278 44.2828278,67 54.5017427,67 C64.7189148,67 73,75.2828278 73,85.5" id="Fill-58" fill="#6D2C4B"></path>
            <path d="M71,86.0094122 C70.9964691,94.8459079 63.6037223,102.006841 54.4902955,102 C45.3786335,101.996572 37.9929459,94.8270814 38,85.9888742 C38.0035347,77.1506669 45.3962815,69.9948682 54.5061787,70 C63.6231351,70.0034258 71.0035283,77.171205 71,86.0094122" id="Fill-59" fill="#81D4FA"></path>
            <path d="M60.3462123,71 C54.7373562,77.7658521 46.4820925,87.7381149 41,94.3805776 C41.8352507,95.7327198 42.8667245,96.9529038 44.0527458,98 L65,73.5654713 C63.6160191,72.4686766 62.046234,71.6032371 60.3462123,71" id="Fill-60" fill="#ECEFF1"></path>
            <path d="M68,76.0834797 C67.7148466,75.7076861 67.4125153,75.3476969 67.0981595,75 C61.2525153,82.3086587 52.4161963,93.362961 47,100.162367 C47.4930061,100.467918 48.0031902,100.748886 48.5305521,101 L68,76.0834797 Z" id="Fill-61" fill="#ECEFF1"></path>
            <path d="M55.5867987,1 C53.7861386,3.2304038 51.7531353,5.74406176 50,7.92280285 C50.2446645,8.70665083 50.6459846,9.41745843 51.1933993,10 L58,1.85510689 C57.2994499,1.37945368 56.470407,1.09263658 55.5867987,1" id="Fill-62" fill="#ECEFF1"></path>
            <path d="M59,4.70108696 C58.9172749,4.45652174 58.8134631,4.22826087 58.7047851,4 C56.865369,6.51630435 54.7453366,9.41485507 53,11.8097826 C53.2497972,11.8949275 53.5093268,11.9619565 53.7753447,12 L59,4.70108696 Z" id="Fill-63" fill="#ECEFF1"></path>
            <path d="M59,3.49741789 C58.8642804,3.32390002 58.7216008,3.15533981 58.5650012,3 C56.4648272,5.44412312 53.9801143,8.33278248 52,10.643049 C52.2174994,10.775253 52.4436987,10.8991944 52.689038,11 L59,3.49741789 Z" id="Fill-64" fill="#ECEFF1"></path>
        </g>
    </g>
</svg>