<?xml version="1.0" encoding="UTF-8"?>
<svg width="200px" height="200px" viewBox="0 0 200 200" version="1.1" xmlns="http://www.w3.org/2000/svg" xmlns:xlink="http://www.w3.org/1999/xlink">
    <!-- Generator: Sketch 56.3 (81716) - https://sketch.com -->
    <title>shirt</title>
    <desc>Created with Sketch.</desc>
    <g id="shirt" stroke="none" stroke-width="1" fill="none" fill-rule="evenodd">
        <g transform="translate(25.000000, 28.000000)">
            <path d="M75.465,22.3836345 C75.999,21.9906345 76.27,21.3036345 75.884,20.6356345 C75.201,19.4526345 73.257,19.8316345 72.965,21.0846345 C72.957,21.1286345 72.954,21.1676345 72.948,21.2096345 C72.903,21.6976345 73.113,22.1796345 73.689,22.5056345 C74.299,22.8516345 74.988,22.7356345 75.465,22.3836345" id="Fill-145" fill="#EEA32D"></path>
            <path d="M74.163,34.0196345 C74.692,34.3196345 75.425,34.2276345 75.934,33.8886345 C76.205,33.7056345 76.414,33.4546345 76.492,33.1506345 C76.58,32.8176345 76.532,32.4516345 76.36,32.1496345 C75.905,31.3656345 74.788,31.2336345 74.044,31.7416345 C73.208,32.3136345 73.284,33.5226345 74.163,34.0196345" id="Fill-146" fill="#EEA32D"></path>
            <path d="M76.777,43.0196345 C76.093,41.8376345 74.149,42.2146345 73.858,43.4716345 C73.849,43.5126345 73.847,43.5546345 73.84,43.5966345 C73.784,44.2176345 74.198,44.7506345 74.792,45.0176345 C75.234,45.2146345 75.97,45.1266345 76.411,44.8336345 C76.487,44.7846345 76.555,44.7276345 76.611,44.6636345 C76.997,44.2306345 77.057,43.5046345 76.777,43.0196345" id="Fill-147" fill="#EEA32D"></path>
            <path d="M76.918,44.6486345 C75.994,45.9156345 73.665,45.5866345 73.481,43.9766345 C73.355,42.8776345 74.407,41.8856345 75.598,42.0176345 C76.925,42.1636345 77.678,43.6066345 76.918,44.6486345 Z M75.178,31.1466345 C76.505,31.2916345 77.261,32.7366345 76.499,33.7786345 C75.588,35.0266345 73.244,34.6816345 73.062,33.1066345 C72.936,32.0076345 73.988,31.0156345 75.178,31.1466345 Z M72.589,21.5926345 C72.463,20.4946345 73.515,19.5016345 74.705,19.6326345 C76.032,19.7786345 76.786,21.2226345 76.026,22.2646345 C75.55,22.9146345 74.788,23.2476345 73.945,23.0346345 C73.219,22.8516345 72.668,22.2836345 72.589,21.5926345 Z M78.579,31.8916345 C78.521,28.4266345 78.546,24.9626345 78.507,21.5006345 C78.485,19.4376345 78.265,17.3216345 77.517,15.3946345 C76.626,15.5026345 75.761,15.7406345 74.894,16.0366345 C74.851,16.0506345 74.806,16.0646345 74.764,16.0816345 C74.754,16.0836345 74.746,16.0856345 74.739,16.0896345 C74.681,16.1086345 74.622,16.1296345 74.566,16.1506345 C74.517,16.1336345 74.47,16.1156345 74.421,16.1006345 C74.36,16.0776345 74.297,16.0566345 74.237,16.0366345 C74.082,15.9836345 73.927,15.9316345 73.772,15.8836345 C73.705,15.8636345 73.64,15.8426345 73.573,15.8236345 C72.638,15.8836345 71.71,15.9316345 70.796,16.0296345 C70.286,16.7016345 70.053,17.6946345 70.053,18.4826345 C70.053,19.9476345 70.168,21.4156345 70.224,22.8806345 C70.34,25.8266345 70.452,28.7706345 70.56,31.7166345 C70.753,37.0746345 71.181,42.4596345 71.145,47.8266345 C73.537,48.5106345 76.039,48.7996345 78.572,48.8056345 C78.629,48.3566345 78.678,47.9096345 78.712,47.4576345 C78.841,45.7396345 78.693,44.0476345 78.669,42.3296345 C78.617,38.8506345 78.638,35.3706345 78.579,31.8916345 L78.579,31.8916345 Z" id="Fill-148" fill="#31B9D2"></path>
            <path d="M59.036,11.1636345 C58.855,11.0306345 58.678,10.8886345 58.5,10.7436345 C58.416,10.6716345 58.33,10.5996345 58.247,10.5266345 C55.909,8.47263451 54.149,5.37163451 54.582,2.39863451 C54.521,2.44363451 54.46,2.48963451 54.4,2.53763451 C54.398,2.53763451 54.398,2.53963451 54.398,2.53963451 C54.208,2.68963451 54.022,2.84363451 53.837,3.00063451 C51.939,4.63263451 50.434,6.63563451 49.379,8.86263451 C49.259,9.10763451 49.147,9.35563451 49.044,9.60763451 C48.952,9.81763451 48.867,10.0296345 48.786,10.2436345 C49.894,13.2166345 51.766,15.9716345 53.898,18.3736345 C55.75,20.4586345 57.897,22.2426345 60.054,24.0226345 C61.009,21.2456345 62.377,18.6176345 64.879,16.7066345 C65.872,15.9466345 67.188,15.2896345 68.585,14.9146345 C67.423,14.7336345 66.316,14.5476345 65.177,14.1736345 C62.982,13.4526345 60.864,12.5156345 59.036,11.1636345" id="Fill-149" fill="#31B9D2"></path>
            <path d="M89.787,10.4086345 C92.515,8.29163451 94.201,5.40663451 94.078,2.16363451 C94.044,2.15663451 94.01,2.15063451 93.977,2.14463451 C93.972,2.14463451 93.965,2.14263451 93.961,2.14263451 C92.9,1.96463451 91.836,1.81163451 90.762,1.69263451 C87.852,1.37263451 84.883,1.21863451 81.958,1.06263451 C79.496,0.931634507 77.032,0.833634507 74.566,0.758634507 C72.1,0.833634507 69.634,0.931634507 67.172,1.06263451 C64.247,1.21863451 61.278,1.37263451 58.368,1.69263451 C57.294,1.81163451 56.229,1.96463451 55.169,2.14263451 C55.165,2.14263451 55.158,2.14463451 55.153,2.14463451 C55.12,2.15063451 55.086,2.15663451 55.053,2.16363451 C54.929,5.40663451 56.615,8.29163451 59.344,10.4086345 C61.083,10.2266345 62.823,10.0796345 64.567,9.95663451 C66.251,9.83963451 67.935,9.74463451 69.623,9.66863451 C71.253,9.59663451 72.907,9.55663451 74.566,9.56163451 C76.225,9.55663451 77.878,9.59663451 79.507,9.66863451 C81.195,9.74463451 82.884,9.83963451 84.567,9.95663451 C86.31,10.0796345 88.049,10.2296345 89.787,10.4086345" id="Fill-150" fill="#31B9D2"></path>
            <path d="M100.086,9.60763451 C99.983,9.35563451 99.871,9.10763451 99.752,8.86263451 C98.696,6.63563451 97.191,4.63263451 95.293,3.00063451 C95.109,2.84363451 94.923,2.68963451 94.733,2.53963451 C94.733,2.53963451 94.733,2.53763451 94.73,2.53763451 C94.67,2.48963451 94.609,2.44363451 94.548,2.39863451 C94.981,5.37163451 93.221,8.47263451 90.883,10.5266345 C90.8,10.5996345 90.715,10.6716345 90.629,10.7436345 C90.453,10.8886345 90.275,11.0306345 90.094,11.1636345 C88.267,12.5156345 86.148,13.4526345 83.953,14.1736345 C82.815,14.5476345 81.707,14.7336345 80.546,14.9146345 C81.942,15.2896345 83.258,15.9466345 84.251,16.7066345 C86.754,18.6176345 88.121,21.2456345 89.076,24.0226345 C91.232,22.2426345 93.38,20.4586345 95.232,18.3736345 C97.364,15.9716345 99.236,13.2166345 100.344,10.2436345 C100.263,10.0296345 100.178,9.81763451 100.086,9.60763451" id="Fill-151" fill="#31B9D2"></path>
            <path d="M66.5,13.8866345 C67.247,14.1006345 67.966,14.3336345 68.706,14.5216345 C68.975,14.5896345 69.249,14.6526345 69.526,14.7046345 L69.528,14.7046345 C71.335,14.3986345 73.185,14.6176345 74.566,15.7366345 C75.259,15.1746345 76.068,14.8396345 76.931,14.6836345 C77.012,14.6706345 77.093,14.6586345 77.173,14.6466345 C77.18,14.6466345 77.185,14.6436345 77.191,14.6436345 C77.306,14.6266345 77.418,14.6146345 77.535,14.6066345 C78.211,14.5476345 78.909,14.5876345 79.602,14.7046345 L79.604,14.7046345 C79.882,14.6526345 80.155,14.5896345 80.424,14.5216345 C81.164,14.3336345 81.884,14.1006345 82.63,13.8866345 C83.361,13.6766345 84.081,13.4356345 84.785,13.1606345 C85.112,12.8796345 85.361,12.5446345 85.451,12.0816345 C85.585,11.3696345 85.204,10.6996345 84.529,10.4636345 C83.687,10.4376345 82.846,10.4146345 82.003,10.3996345 L81.989,10.3996345 C79.521,10.4326345 77.048,10.4146345 74.575,10.3956345 L74.555,10.3956345 C72.082,10.4146345 69.609,10.4326345 67.141,10.3996345 L67.128,10.3996345 C66.287,10.4146345 65.446,10.4376345 64.605,10.4636345 C64.029,10.5746345 63.498,10.8996345 63.314,11.4486345 C63.114,12.0406345 63.408,12.5676345 63.852,12.9606345 C64.713,13.3186345 65.596,13.6266345 66.5,13.8866345" id="Fill-152" fill="#EEA32D"></path>
            <path d="M146.341,55.0746345 C145.467,52.7166345 144.527,50.3786345 143.487,48.0806345 C141.474,43.6416345 139.055,39.3326345 136.389,35.2056345 C133.838,31.2606345 130.937,27.4476345 127.224,24.3646345 C123.283,21.0866345 118.4,18.9216345 113.764,16.6416345 C109.372,14.4816345 105.002,12.3346345 100.75,9.97763451 C100.72,10.0896345 100.689,10.2046345 100.658,10.3166345 C100.617,10.4596345 100.572,10.6036345 100.527,10.7476345 L100.527,10.7486345 C99.676,13.4956345 98.185,16.0296345 96.23,18.3166345 C94.214,20.6776345 91.869,22.8596345 89.332,24.7946345 C89.255,24.8556345 89.181,24.9136345 89.105,24.9696345 C89.011,24.7256345 88.915,24.4826345 88.814,24.2416345 C88.798,24.2066345 88.785,24.1706345 88.769,24.1346345 C88.051,22.4206345 87.182,20.7586345 85.998,19.3066345 C83.94,17.2806345 81.162,15.9136345 78.221,15.3386345 C78.221,15.3386345 78.221,15.3386345 78.218,15.3386345 C78.126,15.3426345 78.032,15.3466345 77.94,15.3536345 C78.631,16.2426345 78.875,17.4816345 78.987,18.6926345 C79.072,19.1026345 79.142,19.5186345 79.205,19.9366345 C79.747,23.5916345 79.693,27.3806345 79.788,31.0656345 C79.886,34.8206345 80.097,38.5746345 80.151,42.3296345 C80.178,44.1646345 80.016,46.0196345 79.859,47.8486345 C79.844,48.0276345 79.828,48.2066345 79.812,48.3856345 C79.808,48.5186345 79.803,48.6546345 79.799,48.7876345 C79.796,48.8766345 79.792,48.9636345 79.788,49.0516345 C79.772,49.0556345 79.754,49.0576345 79.738,49.0616345 C79.539,49.1056345 79.339,49.1426345 79.14,49.1736345 C78.929,49.2086345 78.72,49.2386345 78.51,49.2656345 C76.01,49.5696345 73.481,49.2116345 71.141,48.3646345 C71.035,48.3296345 70.932,48.2896345 70.829,48.2496345 C70.818,48.1156345 70.804,47.9846345 70.793,47.8506345 C70.789,47.8066345 70.786,47.7616345 70.782,47.7176345 C70.208,41.2476345 70.208,34.7006345 69.923,28.2236345 C69.847,26.4426345 69.775,24.6616345 69.701,22.8806345 C69.632,21.2046345 69.403,19.4546345 69.562,17.7816345 C69.618,17.2016345 69.762,16.6056345 70.073,16.1156345 C68.706,16.2996345 67.376,16.6236345 66.11,17.2826345 C64.735,17.9936345 63.527,18.9606345 62.534,20.0926345 C61.646,21.3446345 60.951,22.7226345 60.361,24.1346345 C60.346,24.1706345 60.332,24.2066345 60.316,24.2416345 C60.216,24.4826345 60.119,24.7256345 60.025,24.9696345 C59.949,24.9136345 59.875,24.8556345 59.799,24.7946345 C57.261,22.8596345 54.916,20.6776345 52.9,18.3166345 C50.945,16.0296345 49.455,13.4956345 48.603,10.7486345 L48.603,10.7476345 C48.558,10.6036345 48.513,10.4596345 48.473,10.3166345 C48.441,10.2046345 48.41,10.0896345 48.38,9.97763451 C44.127,12.3346345 39.758,14.4816345 35.366,16.6416345 C30.73,18.9216345 25.847,21.0866345 21.906,24.3646345 C18.193,27.4476345 15.292,31.2606345 12.741,35.2056345 C10.075,39.3326345 7.656,43.6416345 5.643,48.0806345 C4.603,50.3786345 3.663,52.7166345 2.789,55.0746345 C2.161,56.7656345 1.478,58.4306345 0.8,60.1006345 C3.751,63.2196345 7.315,65.8756345 11.082,67.9866345 C15.232,70.3096345 19.837,71.6306345 24.576,72.2236345 C26.419,70.5706345 27.968,68.5686345 29.316,66.6066345 C30.932,64.2556345 32.331,61.7986345 33.714,59.3346345 C33.557,53.9016345 33.866,48.4626345 34.952,43.0266345 C34.956,43.0006345 35.003,43.0046345 34.999,43.0326345 C34.445,47.9076345 34.355,52.8216345 34.622,57.7166345 L34.622,57.7186345 C34.646,58.1476345 34.671,58.5766345 34.7,59.0046345 C34.71,59.1546345 34.718,59.3056345 34.73,59.4566345 C34.748,59.6846345 34.763,59.9156345 34.781,60.1466345 C34.786,60.2176345 34.793,60.2866345 34.797,60.3566345 C35.559,69.9466345 37.604,79.4436345 39.119,88.9476345 C39.419,90.8336345 39.718,92.7206345 39.991,94.6126345 C40.079,92.9626345 40.122,91.3086345 40.097,89.6436345 C40.097,89.6196345 40.15,89.6196345 40.153,89.6436345 C40.44,93.1166345 40.837,96.6116345 40.926,100.085635 C40.944,100.805635 40.946,101.525635 40.933,102.245635 C40.886,105.003635 40.635,107.765635 40.352,110.513635 C40.265,111.371635 40.166,112.225635 40.061,113.081635 C39.424,118.269635 38.469,123.439635 37.272,128.576635 C36.613,131.406635 35.978,134.356635 37.543,137.112635 C39.005,139.686635 42.365,140.785635 45.968,141.350635 C54.221,142.649635 62.794,143.080635 71.21,143.304635 C72.329,143.332635 73.447,143.352635 74.566,143.360635 C75.685,143.352635 76.801,143.332635 77.92,143.304635 C86.336,143.080635 94.909,142.649635 103.162,141.350635 C106.765,140.785635 110.125,139.686635 111.587,137.112635 C113.152,134.356635 112.518,131.406635 111.858,128.576635 C110.661,123.439635 109.706,118.269635 109.069,113.081635 C108.964,112.225635 108.865,111.371635 108.778,110.513635 C108.495,107.765635 108.244,105.003635 108.197,102.245635 C108.184,101.525635 108.186,100.805635 108.204,100.085635 C108.294,96.6116345 108.69,93.1166345 108.978,89.6436345 C108.98,89.6196345 109.034,89.6196345 109.034,89.6436345 C109.009,91.3086345 109.051,92.9626345 109.139,94.6126345 C109.412,92.7206345 109.711,90.8336345 110.011,88.9476345 C111.526,79.4436345 113.571,69.9466345 114.334,60.3566345 C114.351,60.1096345 114.372,59.8596345 114.389,59.6126345 C114.394,59.5596345 114.396,59.5076345 114.4,59.4566345 C114.412,59.3056345 114.421,59.1546345 114.43,59.0046345 C114.461,58.5446345 114.488,58.0846345 114.513,57.6266345 C114.773,52.7606345 114.683,47.8776345 114.131,43.0326345 C114.127,43.0046345 114.174,43.0006345 114.179,43.0266345 C115.268,48.4856345 115.575,53.9466345 115.414,59.4036345 L115.414,59.4066345 C116.515,61.4636345 117.768,63.4486345 119.066,65.3346345 C120.472,67.3776345 122.079,69.3116345 123.828,71.1086345 C124.18,71.4706345 124.539,71.8286345 124.906,72.1776345 C129.523,71.5646345 134.002,70.2516345 138.048,67.9866345 C141.815,65.8756345 145.379,63.2196345 148.33,60.1006345 C147.653,58.4306345 146.969,56.7656345 146.341,55.0746345" id="Fill-153" fill="#EEA32D"></path>
            <path d="M76.611,44.6636345 C76.555,44.7276345 76.487,44.7846345 76.411,44.8336345 C75.97,45.1266345 75.234,45.2146345 74.792,45.0176345 C74.198,44.7506345 73.784,44.2176345 73.84,43.5966345 C73.847,43.5546345 73.849,43.5126345 73.858,43.4716345 C74.149,42.2146345 76.093,41.8376345 76.777,43.0196345 C77.057,43.5046345 76.997,44.2306345 76.611,44.6636345 Z M75.598,42.0176345 C74.407,41.8856345 73.355,42.8776345 73.481,43.9766345 C73.665,45.5866345 75.994,45.9156345 76.918,44.6486345 C77.678,43.6066345 76.925,42.1636345 75.598,42.0176345 L75.598,42.0176345 Z" id="Fill-154" fill="#0A0B09"></path>
            <path d="M76.492,33.1506345 C76.414,33.4546345 76.205,33.7056345 75.934,33.8886345 C75.425,34.2276345 74.692,34.3196345 74.163,34.0196345 C73.284,33.5226345 73.208,32.3136345 74.044,31.7416345 C74.788,31.2336345 75.905,31.3656345 76.36,32.1496345 C76.532,32.4516345 76.58,32.8176345 76.492,33.1506345 Z M75.178,31.1466345 C73.988,31.0156345 72.936,32.0076345 73.062,33.1066345 C73.244,34.6816345 75.588,35.0266345 76.499,33.7786345 C77.261,32.7366345 76.505,31.2916345 75.178,31.1466345 L75.178,31.1466345 Z" id="Fill-155" fill="#0A0B09"></path>
            <path d="M75.884,20.6356345 C76.27,21.3036345 75.999,21.9906345 75.465,22.3836345 C74.988,22.7356345 74.299,22.8516345 73.689,22.5056345 C73.113,22.1796345 72.903,21.6976345 72.948,21.2096345 C72.954,21.1676345 72.957,21.1286345 72.965,21.0846345 C73.257,19.8316345 75.201,19.4526345 75.884,20.6356345 Z M72.589,21.5926345 C72.668,22.2836345 73.219,22.8516345 73.945,23.0346345 C74.788,23.2476345 75.55,22.9146345 76.026,22.2646345 C76.786,21.2226345 76.032,19.7786345 74.705,19.6326345 C73.515,19.5016345 72.463,20.4946345 72.589,21.5926345 L72.589,21.5926345 Z" id="Fill-156" fill="#0A0B09"></path>
            <path d="M138.048,67.9866345 C134.002,70.2516345 129.523,71.5646345 124.906,72.1776345 C124.539,71.8286345 124.18,71.4706345 123.828,71.1086345 C122.079,69.3116345 120.472,67.3776345 119.066,65.3346345 C117.768,63.4486345 116.515,61.4636345 115.414,59.4066345 L115.414,59.4036345 C115.575,53.9466345 115.268,48.4856345 114.179,43.0266345 C114.174,43.0006345 114.127,43.0046345 114.131,43.0326345 C114.683,47.8776345 114.773,52.7606345 114.513,57.6266345 C114.488,58.0846345 114.461,58.5446345 114.43,59.0046345 C114.421,59.1546345 114.412,59.3056345 114.4,59.4566345 C114.396,59.5076345 114.394,59.5596345 114.389,59.6126345 C114.372,59.8596345 114.351,60.1096345 114.334,60.3566345 C113.571,69.9466345 111.526,79.4436345 110.011,88.9476345 C109.711,90.8336345 109.412,92.7206345 109.139,94.6126345 C109.051,92.9626345 109.009,91.3086345 109.034,89.6436345 C109.034,89.6196345 108.98,89.6196345 108.978,89.6436345 C108.69,93.1166345 108.294,96.6116345 108.204,100.085635 C108.186,100.805635 108.184,101.525635 108.197,102.245635 C108.244,105.003635 108.495,107.765635 108.778,110.513635 C108.865,111.371635 108.964,112.225635 109.069,113.081635 C109.706,118.269635 110.661,123.439635 111.858,128.576635 C112.518,131.406635 113.152,134.356635 111.587,137.112635 C110.125,139.686635 106.765,140.785635 103.162,141.350635 C94.909,142.649635 86.336,143.080635 77.92,143.304635 C76.801,143.332635 75.685,143.352635 74.566,143.360635 C73.447,143.352635 72.329,143.332635 71.21,143.304635 C62.794,143.080635 54.221,142.649635 45.968,141.350635 C42.365,140.785635 39.005,139.686635 37.543,137.112635 C35.978,134.356635 36.613,131.406635 37.272,128.576635 C38.469,123.439635 39.424,118.269635 40.061,113.081635 C40.166,112.225635 40.265,111.371635 40.352,110.513635 C40.635,107.765635 40.886,105.003635 40.933,102.245635 C40.946,101.525635 40.944,100.805635 40.926,100.085635 C40.837,96.6116345 40.44,93.1166345 40.153,89.6436345 C40.15,89.6196345 40.097,89.6196345 40.097,89.6436345 C40.122,91.3086345 40.079,92.9626345 39.991,94.6126345 C39.718,92.7206345 39.419,90.8336345 39.119,88.9476345 C37.604,79.4436345 35.559,69.9466345 34.797,60.3566345 C34.793,60.2866345 34.786,60.2176345 34.781,60.1466345 C34.763,59.9156345 34.748,59.6846345 34.73,59.4566345 C34.718,59.3056345 34.71,59.1546345 34.7,59.0046345 C34.671,58.5766345 34.646,58.1476345 34.622,57.7186345 L34.622,57.7166345 C34.355,52.8216345 34.445,47.9076345 34.999,43.0326345 C35.003,43.0046345 34.956,43.0006345 34.952,43.0266345 C33.866,48.4626345 33.557,53.9016345 33.714,59.3346345 C32.331,61.7986345 30.932,64.2556345 29.316,66.6066345 C27.968,68.5686345 26.419,70.5706345 24.576,72.2236345 C19.837,71.6306345 15.232,70.3096345 11.082,67.9866345 C7.315,65.8756345 3.751,63.2196345 0.8,60.1006345 C1.478,58.4306345 2.161,56.7656345 2.789,55.0746345 C3.663,52.7166345 4.603,50.3786345 5.643,48.0806345 C7.656,43.6416345 10.075,39.3326345 12.741,35.2056345 C15.292,31.2606345 18.193,27.4476345 21.906,24.3646345 C25.847,21.0866345 30.73,18.9216345 35.366,16.6416345 C39.758,14.4816345 44.127,12.3346345 48.38,9.97763451 C48.41,10.0896345 48.441,10.2046345 48.473,10.3166345 C48.513,10.4596345 48.558,10.6036345 48.603,10.7476345 L48.603,10.7486345 C49.455,13.4956345 50.945,16.0296345 52.9,18.3166345 C54.916,20.6776345 57.261,22.8596345 59.799,24.7946345 C59.875,24.8556345 59.949,24.9136345 60.025,24.9696345 C60.119,24.7256345 60.216,24.4826345 60.316,24.2416345 C60.332,24.2066345 60.346,24.1706345 60.361,24.1346345 C60.951,22.7226345 61.646,21.3446345 62.534,20.0926345 C63.527,18.9606345 64.735,17.9936345 66.11,17.2826345 C67.376,16.6236345 68.706,16.2996345 70.073,16.1156345 C69.762,16.6056345 69.618,17.2016345 69.562,17.7816345 C69.403,19.4546345 69.632,21.2046345 69.701,22.8806345 C69.775,24.6616345 69.847,26.4426345 69.923,28.2236345 C70.208,34.7006345 70.208,41.2476345 70.782,47.7176345 C70.786,47.7616345 70.789,47.8066345 70.793,47.8506345 C70.804,47.9846345 70.818,48.1156345 70.829,48.2496345 C70.932,48.2896345 71.035,48.3296345 71.141,48.3646345 C73.481,49.2116345 76.01,49.5696345 78.51,49.2656345 C78.72,49.2386345 78.929,49.2086345 79.14,49.1736345 C79.339,49.1426345 79.539,49.1056345 79.738,49.0616345 C79.754,49.0576345 79.772,49.0556345 79.788,49.0516345 C79.792,48.9636345 79.796,48.8766345 79.799,48.7876345 C79.803,48.6546345 79.808,48.5186345 79.812,48.3856345 C79.828,48.2066345 79.844,48.0276345 79.859,47.8486345 C80.016,46.0196345 80.178,44.1646345 80.151,42.3296345 C80.097,38.5746345 79.886,34.8206345 79.788,31.0656345 C79.693,27.3806345 79.747,23.5916345 79.205,19.9366345 C79.142,19.5186345 79.072,19.1026345 78.987,18.6926345 C78.875,17.4816345 78.631,16.2426345 77.94,15.3536345 C78.032,15.3466345 78.126,15.3426345 78.218,15.3386345 C78.221,15.3386345 78.221,15.3386345 78.221,15.3386345 C81.162,15.9136345 83.94,17.2806345 85.998,19.3066345 C87.182,20.7586345 88.051,22.4206345 88.769,24.1346345 C88.785,24.1706345 88.798,24.2066345 88.814,24.2416345 C88.915,24.4826345 89.011,24.7256345 89.105,24.9696345 C89.181,24.9136345 89.255,24.8556345 89.332,24.7946345 C91.869,22.8596345 94.214,20.6776345 96.23,18.3166345 C98.185,16.0296345 99.676,13.4956345 100.527,10.7486345 L100.527,10.7476345 C100.572,10.6036345 100.617,10.4596345 100.658,10.3166345 C100.689,10.2046345 100.72,10.0896345 100.75,9.97763451 C105.002,12.3346345 109.372,14.4816345 113.764,16.6416345 C118.4,18.9216345 123.283,21.0866345 127.224,24.3646345 C130.937,27.4476345 133.838,31.2606345 136.389,35.2056345 C139.055,39.3326345 141.474,43.6416345 143.487,48.0806345 C144.527,50.3786345 145.467,52.7166345 146.341,55.0746345 C146.969,56.7656345 147.653,58.4306345 148.33,60.1006345 C145.379,63.2196345 141.815,65.8756345 138.048,67.9866345 Z M49.044,9.60763451 C49.147,9.35563451 49.259,9.10763451 49.379,8.86263451 C50.434,6.63563451 51.939,4.63263451 53.837,3.00063451 C54.022,2.84363451 54.208,2.68963451 54.398,2.53963451 C54.398,2.53963451 54.398,2.53763451 54.4,2.53763451 C54.46,2.48963451 54.521,2.44363451 54.582,2.39863451 C54.149,5.37163451 55.909,8.47263451 58.247,10.5266345 C58.33,10.5996345 58.416,10.6716345 58.5,10.7436345 C58.678,10.8886345 58.855,11.0306345 59.036,11.1636345 C60.864,12.5156345 62.982,13.4526345 65.177,14.1736345 C66.316,14.5476345 67.423,14.7336345 68.585,14.9146345 C67.188,15.2896345 65.872,15.9466345 64.879,16.7066345 C62.377,18.6176345 61.009,21.2456345 60.054,24.0226345 C57.897,22.2426345 55.75,20.4586345 53.898,18.3736345 C51.766,15.9716345 49.894,13.2166345 48.786,10.2436345 C48.867,10.0296345 48.952,9.81763451 49.044,9.60763451 Z M55.053,2.16363451 C55.086,2.15663451 55.12,2.15063451 55.153,2.14463451 C55.158,2.14463451 55.165,2.14263451 55.169,2.14263451 C56.229,1.96463451 57.294,1.81163451 58.368,1.69263451 C61.278,1.37263451 64.247,1.21863451 67.172,1.06263451 C69.634,0.931634507 72.1,0.833634507 74.566,0.758634507 C77.032,0.833634507 79.496,0.931634507 81.958,1.06263451 C84.883,1.21863451 87.852,1.37263451 90.762,1.69263451 C91.836,1.81163451 92.9,1.96463451 93.961,2.14263451 C93.965,2.14263451 93.972,2.14463451 93.977,2.14463451 C94.01,2.15063451 94.044,2.15663451 94.078,2.16363451 C94.201,5.40663451 92.515,8.29163451 89.787,10.4086345 C88.049,10.2296345 86.31,10.0796345 84.567,9.95663451 C82.884,9.83963451 81.195,9.74463451 79.507,9.66863451 C77.878,9.59663451 76.225,9.55663451 74.566,9.56163451 C72.907,9.55663451 71.253,9.59663451 69.623,9.66863451 C67.935,9.74463451 66.251,9.83963451 64.567,9.95663451 C62.823,10.0796345 61.083,10.2266345 59.344,10.4086345 C56.615,8.29163451 54.929,5.40663451 55.053,2.16363451 Z M77.191,14.6436345 C77.185,14.6436345 77.18,14.6466345 77.173,14.6466345 C77.093,14.6586345 77.012,14.6706345 76.931,14.6836345 C76.068,14.8396345 75.259,15.1746345 74.566,15.7366345 C73.185,14.6176345 71.335,14.3986345 69.528,14.7046345 L69.526,14.7046345 C69.249,14.6526345 68.975,14.5896345 68.706,14.5216345 C67.966,14.3336345 67.247,14.1006345 66.5,13.8866345 C65.596,13.6266345 64.713,13.3186345 63.852,12.9606345 C63.408,12.5676345 63.114,12.0406345 63.314,11.4486345 C63.498,10.8996345 64.029,10.5746345 64.605,10.4636345 C65.446,10.4376345 66.287,10.4146345 67.128,10.3996345 L67.141,10.3996345 C69.609,10.4326345 72.082,10.4146345 74.555,10.3956345 L74.575,10.3956345 C77.048,10.4146345 79.521,10.4326345 81.989,10.3996345 L82.003,10.3996345 C82.846,10.4146345 83.687,10.4376345 84.529,10.4636345 C85.204,10.6996345 85.585,11.3696345 85.451,12.0816345 C85.361,12.5446345 85.112,12.8796345 84.785,13.1606345 C84.081,13.4356345 83.361,13.6766345 82.63,13.8866345 C81.884,14.1006345 81.164,14.3336345 80.424,14.5216345 C80.155,14.5896345 79.882,14.6526345 79.604,14.7046345 L79.602,14.7046345 C78.909,14.5876345 78.211,14.5476345 77.535,14.6066345 C77.418,14.6146345 77.306,14.6266345 77.191,14.6436345 Z M74.566,16.1506345 C74.622,16.1296345 74.681,16.1086345 74.739,16.0896345 C74.746,16.0856345 74.754,16.0836345 74.764,16.0816345 C74.806,16.0646345 74.851,16.0506345 74.894,16.0366345 C75.761,15.7406345 76.626,15.5026345 77.517,15.3946345 C78.265,17.3216345 78.485,19.4376345 78.507,21.5006345 C78.546,24.9626345 78.521,28.4266345 78.579,31.8916345 C78.638,35.3706345 78.617,38.8506345 78.669,42.3296345 C78.693,44.0476345 78.841,45.7396345 78.712,47.4576345 C78.678,47.9096345 78.629,48.3566345 78.572,48.8056345 C76.039,48.7996345 73.537,48.5106345 71.145,47.8266345 C71.181,42.4596345 70.753,37.0746345 70.56,31.7166345 C70.452,28.7706345 70.34,25.8266345 70.224,22.8806345 C70.168,21.4156345 70.053,19.9476345 70.053,18.4826345 C70.053,17.6946345 70.286,16.7016345 70.796,16.0296345 C71.71,15.9316345 72.638,15.8836345 73.573,15.8236345 C73.64,15.8426345 73.705,15.8636345 73.772,15.8836345 C73.927,15.9316345 74.082,15.9836345 74.237,16.0366345 C74.297,16.0566345 74.36,16.0776345 74.421,16.1006345 C74.47,16.1156345 74.517,16.1336345 74.566,16.1506345 Z M94.548,2.39863451 C94.609,2.44363451 94.67,2.48963451 94.73,2.53763451 C94.733,2.53763451 94.733,2.53963451 94.733,2.53963451 C94.923,2.68963451 95.109,2.84363451 95.293,3.00063451 C97.191,4.63263451 98.696,6.63563451 99.752,8.86263451 C99.871,9.10763451 99.983,9.35563451 100.086,9.60763451 C100.178,9.81763451 100.263,10.0296345 100.344,10.2436345 C99.236,13.2166345 97.364,15.9716345 95.232,18.3736345 C93.38,20.4586345 91.232,22.2426345 89.076,24.0226345 C88.121,21.2456345 86.754,18.6176345 84.251,16.7066345 C83.258,15.9466345 81.942,15.2896345 80.546,14.9146345 C81.707,14.7336345 82.815,14.5476345 83.953,14.1736345 C86.148,13.4526345 88.267,12.5156345 90.094,11.1636345 C90.275,11.0306345 90.453,10.8886345 90.629,10.7436345 C90.715,10.6716345 90.8,10.5996345 90.883,10.5266345 C93.221,8.47263451 94.981,5.37163451 94.548,2.39863451 Z M148.935,59.4456345 C148.476,57.3696345 147.89,55.3556345 147.11,53.3126345 C146.137,50.7676345 145.03,48.2686345 143.859,45.7966345 C141.745,41.3306345 139.27,37.0176345 136.434,32.9116345 C133.719,28.9786345 130.644,25.2666345 126.695,22.3296345 C122.532,19.2296345 117.553,17.1316345 112.847,14.8546345 C108.792,12.8896345 104.753,10.9676345 100.606,9.21963451 C99.721,6.92463451 98.176,4.84863451 96.223,3.17763451 L96.221,3.17563451 C96.048,3.03063451 95.874,2.88463451 95.694,2.74563451 C95.526,2.61263451 95.355,2.48163451 95.181,2.35463451 C95.055,2.26063451 94.927,2.16863451 94.797,2.08163451 C94.689,2.00663451 94.582,1.93463451 94.475,1.86363451 C94.463,1.85563451 94.452,1.84863451 94.441,1.84063451 L94.053,1.77663451 C94.024,1.76963451 93.995,1.76563451 93.965,1.75963451 C93.82,1.73063451 93.676,1.70163451 93.531,1.67363451 C92.634,1.49863451 91.733,1.34063451 90.836,1.18963451 C88.89,0.858634507 86.966,0.581634507 85.018,0.388634507 C84.852,0.369634507 84.682,0.355634507 84.514,0.337634507 C84.514,0.337634507 84.514,0.337634507 84.511,0.337634507 C83.805,0.271634507 83.094,0.217634507 82.379,0.175634507 C79.788,0.0226345071 77.201,-0.0193654929 74.613,0.0076345071 C74.582,0.0056345071 74.55,0.0056345071 74.517,0.0076345071 C71.93,-0.0193654929 69.343,0.0226345071 66.751,0.175634507 C66.036,0.217634507 65.325,0.271634507 64.619,0.337634507 L64.617,0.337634507 C64.469,0.344634507 64.321,0.352634507 64.173,0.359634507 C64.146,0.361634507 64.124,0.373634507 64.112,0.388634507 C62.164,0.581634507 60.24,0.858634507 58.295,1.18963451 C57.397,1.34063451 56.497,1.49863451 55.6,1.67363451 C55.454,1.70163451 55.311,1.73063451 55.165,1.75963451 C55.135,1.76563451 55.106,1.76963451 55.077,1.77663451 L54.69,1.84063451 C54.678,1.84863451 54.667,1.85563451 54.656,1.86363451 C54.548,1.93463451 54.441,2.00663451 54.333,2.08163451 C54.203,2.16863451 54.075,2.26063451 53.949,2.35463451 C53.775,2.48163451 53.604,2.61263451 53.436,2.74563451 C53.257,2.88463451 53.082,3.03063451 52.909,3.17563451 L52.907,3.17763451 C50.954,4.84863451 49.41,6.92463451 48.524,9.21963451 C44.376,10.9676345 40.339,12.8896345 36.283,14.8546345 C31.577,17.1316345 26.598,19.2296345 22.435,22.3296345 C18.487,25.2666345 15.411,28.9786345 12.696,32.9116345 C9.86,37.0176345 7.385,41.3306345 5.271,45.7966345 C4.101,48.2686345 2.993,50.7676345 2.02,53.3126345 C1.24,55.3556345 0.655,57.3696345 0.195,59.4456345 C0.128,59.7506345 0.063,60.0566345 5.68434189e-14,60.3676345 C0.15,60.5646345 0.303,60.7626345 0.455,60.9566345 C2.134,63.0746345 4.087,64.9946345 6.354,66.6086345 C11.205,70.0626345 17.316,72.4446345 23.39,73.1996345 C23.437,73.2076345 23.482,73.2116345 23.529,73.2186345 C23.923,73.2666345 24.32,73.3056345 24.717,73.3386345 C24.771,73.3456345 24.822,73.3496345 24.876,73.3536345 C25.053,73.3686345 25.23,73.3806345 25.408,73.3936345 L25.41,73.3936345 C25.897,73.1286345 26.347,72.8086345 26.769,72.4466345 C27.266,72.0196345 27.717,71.5356345 28.111,71.0296345 C30.196,68.3526345 31.806,65.2836345 33.555,62.4106345 C33.645,62.2606345 33.736,62.1126345 33.826,61.9626345 C34.552,75.0996345 37.734,88.2166345 39.088,101.259635 C39.168,102.027635 39.245,102.796635 39.319,103.568635 C39.207,105.364635 39.104,107.164635 38.938,108.958635 C38.341,115.438635 37.303,121.885635 35.776,128.283635 C35.129,131.010635 34.429,133.869635 35.561,136.592635 C36.559,138.993635 38.991,140.759635 42.231,141.702635 C45.854,142.756635 49.977,143.041635 53.822,143.406635 C58.225,143.824635 62.644,144.127635 67.078,144.289635 C69.546,144.379635 72.028,144.411635 74.508,144.400635 L74.622,144.400635 C77.102,144.411635 79.583,144.379635 82.052,144.289635 C86.486,144.127635 90.905,143.824635 95.309,143.406635 C99.153,143.041635 103.276,142.756635 106.899,141.702635 C110.139,140.759635 112.571,138.993635 113.569,136.592635 C114.701,133.869635 114.002,131.010635 113.354,128.283635 C111.827,121.885635 110.789,115.438635 110.192,108.958635 C110.027,107.164635 109.923,105.364635 109.812,103.568635 C109.885,102.796635 109.961,102.027635 110.043,101.259635 C111.397,88.2166345 114.578,75.0996345 115.304,61.9626345 C115.376,62.0836345 115.45,62.2046345 115.524,62.3256345 C116.129,63.6106345 116.831,64.8716345 117.647,66.1056345 C117.945,66.5586345 118.252,67.0056345 118.568,67.4476345 C119.331,68.6806345 120.131,69.8896345 121.019,71.0296345 C121.414,71.5356345 121.864,72.0196345 122.362,72.4466345 C122.761,72.7896345 123.187,73.0956345 123.644,73.3496345 C123.669,73.3666345 123.696,73.3786345 123.72,73.3936345 L123.723,73.3936345 C123.899,73.3806345 124.077,73.3686345 124.254,73.3536345 C124.705,73.3166345 125.155,73.2726345 125.601,73.2186345 C125.727,73.2046345 125.85,73.1876345 125.976,73.1676345 C131.971,72.3816345 137.985,70.0186345 142.776,66.6086345 C145.043,64.9946345 146.996,63.0746345 148.675,60.9566345 C148.828,60.7626345 148.98,60.5646345 149.13,60.3676345 C149.067,60.0566345 149.003,59.7506345 148.935,59.4456345 L148.935,59.4456345 Z" id="Fill-157" fill="#0A0B09"></path>
        </g>
        <g id="typeText" transform="translate(10.000000, 6.000000)" fill="#725F5F" fill-opacity="0.87" font-family="Roboto-Black, Roboto Black" font-size="17" font-weight="700">
            <g id="vegetable">
                <text>
                    <tspan x="0" y="16">clothing</tspan>
                </text>
            </g>
        </g>
        <g id="firstLetter" transform="translate(10.000000, 152.000000)">
            <g id="Group" transform="translate(0.000000, -5.000000)">
                <rect id="Rectangle" stroke="#979797" x="0.5" y="6.5" width="34" height="38"></rect>
                <text id="C" fill="#131313" font-family="Roboto-Bold, Roboto" font-size="43" font-weight="bold">
                    <tspan x="4.28295898" y="40">S</tspan>
                </text>
            </g>
        </g>
        <g id="nameText" transform="translate(104.000000, 161.000000)" fill="#454545" fill-opacity="0.87" font-family="Roboto-Black, Roboto Black" font-size="26" font-weight="700">
            <text id="Carrot">
                <tspan x="29.125" y="28">Shirt</tspan>
            </text>
        </g>
        <g id="colorText" transform="translate(133.000000, 5.000000)" fill="#454545" fill-opacity="0.87" font-family="Roboto-Black, Roboto Black" font-size="18" font-weight="700">
            <text id="orange">
                <tspan x="0.213867188" y="17">orange</tspan>
            </text>
        </g>
    </g>
</svg>