<?xml version="1.0" encoding="UTF-8"?>
<svg width="200px" height="200px" viewBox="0 0 200 200" version="1.1" xmlns="http://www.w3.org/2000/svg" xmlns:xlink="http://www.w3.org/1999/xlink">
    <!-- Generator: Sketch 56.3 (81716) - https://sketch.com -->
    <title>shoe</title>
    <desc>Created with Sketch.</desc>
    <g id="shoe" stroke="none" stroke-width="1" fill="none" fill-rule="evenodd">
        <g id="typeText" transform="translate(10.000000, 6.000000)" fill="#725F5F" fill-opacity="0.87" font-family="Roboto-Black, Roboto Black" font-size="17" font-weight="700">
            <g id="vegetable">
                <text>
                    <tspan x="0" y="16">clothing</tspan>
                </text>
            </g>
        </g>
        <g id="firstLetter" transform="translate(10.000000, 152.000000)">
            <g id="Group" transform="translate(0.000000, -5.000000)">
                <rect id="Rectangle" stroke="#979797" x="0.5" y="6.5" width="34" height="38"></rect>
                <text id="C" fill="#131313" font-family="Roboto-Bold, Roboto" font-size="43" font-weight="bold">
                    <tspan x="4.28295898" y="40">S</tspan>
                </text>
            </g>
        </g>
        <g id="nameText" transform="translate(104.000000, 161.000000)" fill="#454545" fill-opacity="0.87" font-family="Roboto-Black, Roboto Black" font-size="26" font-weight="700">
            <text id="Carrot">
                <tspan x="26.2939453" y="28">Shoe</tspan>
            </text>
        </g>
        <g id="colorText" transform="translate(133.000000, 5.000000)" fill="#454545" fill-opacity="0.87" font-family="Roboto-Black, Roboto Black" font-size="18" font-weight="700">
            <text id="orange">
                <tspan x="4.80175781" y="17">yellow</tspan>
            </text>
        </g>
        <g transform="translate(38.000000, 39.000000)">
            <path d="M99.0104617,30.688 C95.8874617,38.84 92.7794617,46.996 89.6544617,55.145 C89.0294617,56.773 88.4054617,58.403 87.7804617,60.031 C86.4274617,63.559 85.0734617,67.084 83.7204617,70.613 C82.3264617,74.252 80.9944617,77.926 79.4134617,81.492 C78.5054617,83.356 77.5524617,85.199 76.6084617,87.056 C76.5584617,87.155 76.5094617,87.25 76.4564617,87.349 C73.6884617,92.034 69.8704617,96.329 64.4774617,97.67 C63.1294617,98.005 61.7544617,98.128 60.3824617,98.098 C60.5214617,98.03 60.6564617,97.959 60.7914617,97.885 C62.2754617,97.107 63.6554617,96.107 64.8994617,94.902 C69.7074617,90.235 72.0514617,83.694 73.9404617,77.424 C75.9584617,70.721 77.9244617,64.171 80.8744617,57.8 C83.6954617,51.706 87.0984617,45.879 91.0274617,40.431 C93.5004617,36.998 96.1944617,33.791 99.0104617,30.688" id="Fill-225" fill="#ACA547"></path>
            <path d="M109.743462,53.834 C106.580462,57.471 103.458462,61.067 100.864462,65.162 L100.864462,65.165 C100.557462,71.823 100.422462,78.467 100.634462,85.156 C100.880462,92.969 102.228462,100.559 103.528462,108.216 C104.458462,108.711 105.436462,109.124 106.448462,109.493 C105.909462,107.026 105.488462,104.54 105.165462,102.097 C104.802462,99.356 104.430462,96.578 104.230462,93.822 C104.028462,90.982 104.194462,88.124 104.360462,85.288 C104.689462,79.664 105.646462,74.028 107.058462,68.577 C107.749462,65.903 108.608462,63.291 109.549462,60.698 C110.410462,58.327 111.020462,55.856 109.743462,53.834" id="Fill-226" fill="#4E1E3D"></path>
            <path d="M107.783462,8.203 C108.516462,6.335 109.048462,4.587 109.177462,2.585 C109.183462,2.511 109.180926,2.444 109.177462,2.375 C109.081462,1.093 107.270462,0.822 106.245462,0.96 C105.457462,1.068 104.667462,1.453 103.938462,1.948 C103.111462,2.514 102.360462,3.218 101.787462,3.822 C87.8054617,18.536 74.7124617,34.06 63.8374617,51.143 C55.1744617,64.755 47.0594617,80.569 32.3974617,88.604 C34.1684617,88.973 35.8914617,89.518 37.5774617,90.164 C38.1774617,90.388 38.7744617,90.628 39.3644617,90.88 C40.9774617,91.56 42.5674617,92.305 44.1454617,93.049 C47.3054617,94.536 50.2454617,96.291 53.6144617,97.251 C55.3404617,97.744 57.3704617,97.879 59.1764617,98.033 C59.6294617,97.821 60.0744617,97.59 60.5124617,97.344 C63.5694617,95.603 66.1944617,92.991 68.1444617,89.8 C71.9124617,83.645 73.0974617,76.394 75.2014617,69.592 C77.0534617,63.599 79.4094617,57.803 82.3264617,52.248 C86.8984617,43.541 92.8114617,34.96 100.030462,28.024 C100.554462,26.655 101.076462,25.289 101.603462,23.919 C103.624462,18.666 105.732462,13.445 107.783462,8.203" id="Fill-227" fill="#4E361E"></path>
            <path d="M121.858462,25.237 C122.510462,27.612 122.929462,30.063 122.907363,32.531 C122.889462,35.158 122.274462,37.401 121.328462,39.825 C120.052462,43.015 118.726462,46.104 117.228462,49.199 C115.714462,52.331 114.183462,55.462 112.983462,58.729 C108.925462,69.78 106.826462,82.193 108.144462,93.945 C108.500462,97.123 108.989462,100.3 109.592462,103.438 C109.906462,105.072 110.236462,106.696 110.659462,108.29 C109.463462,108.717 108.273462,109.176 107.085462,109.665 C106.729462,108.043 106.424462,106.407 106.190462,104.737 C105.863462,102.389 105.544462,100.042 105.424462,97.67 C105.301462,95.304 105.436462,92.892 105.427462,90.517 C105.403462,80.993 107.008462,71.57 110.029462,62.543 C110.728462,60.461 111.739462,58.247 111.432462,55.995 C111.297462,55.013 110.884462,54.01 110.195462,53.318 C110.011462,53.136 109.808462,52.973 109.586462,52.841 C109.460462,52.939 109.340462,53.044 109.217462,53.149 C106.227462,55.711 103.723462,58.855 101.486462,62.08 C101.314462,62.326 101.145462,62.572 100.979462,62.824 C100.781462,63.11 100.591462,63.396 100.403462,63.688 C98.2284617,67.014 96.3454617,70.534 94.8604617,74.219 C93.0944617,78.606 91.7894617,83.19 91.0484617,87.86 C90.2114617,93.102 90.2674617,98.479 88.9064617,103.638 C87.6094617,108.561 84.8984617,113.086 80.0624617,115.166 C75.1244617,117.289 69.2154617,117.583 63.9394617,118.202 C52.4604617,119.543 40.8144617,120.023 29.2624617,119.792 C23.1244617,119.669 16.9714617,119.675 10.8614617,118.99 C8.28346172,118.701 5.60446172,118.233 3.17146172,117.276 C2.41046172,115.962 1.90046172,114.48 1.63946172,113.006 C0.882461723,108.714 2.68846172,104.654 5.64746172,101.599 C12.2494617,94.785 23.1644617,93.218 31.4054617,89.275 C31.6834617,89.142 40.9804617,92.69 49.7694617,97.43 C54.2144617,99.83 62.8964617,100.774 68.9624617,97.661 C73.7034617,95.231 76.2534617,90.727 78.4064617,86.097 C79.0134617,84.903 79.5394617,83.691 80.0694617,82.433 C80.2654617,81.968 80.4624617,81.495 80.6624617,81.014 C82.8094617,75.856 84.7724617,70.438 86.7564617,65.214 C87.3714617,63.593 87.9934617,61.971 88.6144617,60.35 C90.4794617,55.487 92.3614617,50.617 94.2504617,45.747 C97.7514617,36.717 101.252462,27.679 104.621462,18.641 C105.587462,16.047 107.048462,12.624 108.029462,9.968 C108.906462,7.584 109.949462,4.972 109.854462,2.367 C109.848462,2.255 109.842462,2.145 109.835462,2.035 C112.611462,4.197 114.751462,8.516 116.228462,11.624 C118.335462,16.056 120.550462,20.487 121.858462,25.237" id="Fill-228" fill="#FFE433"></path>
            <path d="M121.328462,39.825 C120.052462,43.015 118.726462,46.104 117.228462,49.199 C115.714462,52.331 114.183462,55.462 112.983462,58.729 C108.925462,69.78 106.826462,82.193 108.144462,93.945 C108.500462,97.123 108.989462,100.3 109.592462,103.438 C109.906462,105.072 110.236462,106.696 110.659462,108.29 C109.463462,108.717 108.273462,109.176 107.085462,109.665 C106.729462,108.043 106.424462,106.407 106.190462,104.737 C105.863462,102.389 105.544462,100.042 105.424462,97.67 C105.301462,95.304 105.436462,92.892 105.427462,90.517 C105.403462,80.993 107.008462,71.57 110.029462,62.543 C110.728462,60.461 111.739462,58.247 111.432462,55.995 C111.297462,55.013 110.884462,54.01 110.195462,53.318 C110.011462,53.136 109.808462,52.973 109.586462,52.841 C109.460462,52.939 109.340462,53.044 109.217462,53.149 C106.227462,55.711 103.723462,58.855 101.486462,62.08 C101.314462,62.326 101.145462,62.572 100.979462,62.824 C100.781462,63.11 100.591462,63.396 100.403462,63.688 C98.2284617,67.014 96.3454617,70.534 94.8604617,74.219 C93.0944617,78.606 91.7894617,83.19 91.0484617,87.86 C90.2114617,93.102 90.2674617,98.479 88.9064617,103.638 C87.6094617,108.561 84.8984617,113.086 80.0624617,115.166 C75.1244617,117.289 69.2154617,117.583 63.9394617,118.202 C52.4604617,119.543 40.8144617,120.023 29.2624617,119.792 C23.1244617,119.669 16.9714617,119.675 10.8614617,118.99 C8.28346172,118.701 5.60446172,118.233 3.17146172,117.276 C2.41046172,115.962 1.90046172,114.48 1.63946172,113.006 C0.882461723,108.714 2.68846172,104.654 5.64746172,101.599 C12.2494617,94.785 23.1644617,93.218 31.4054617,89.275 C31.6834617,89.142 40.9804617,92.69 49.7694617,97.43 C54.2144617,99.83 62.8964617,100.774 68.9624617,97.661 C73.7034617,95.231 76.2534617,90.727 78.4064617,86.097 C79.0134617,84.903 79.5394617,83.691 80.0694617,82.433 C80.2654617,81.968 80.4624617,81.495 80.6624617,81.014 C82.8094617,75.856 84.7724617,70.438 86.7564617,65.214 C87.3714617,63.593 87.9934617,61.971 88.6144617,60.35 C90.4794617,55.487 92.3614617,50.617 94.2504617,45.747 C97.7514617,36.717 101.252462,27.679 104.621462,18.641 C105.587462,16.047 107.048462,12.624 108.029462,9.968 C108.906462,7.584 109.949462,4.972 109.854462,2.367 C109.848462,2.255 109.842462,2.145 109.835462,2.035 C112.611462,4.197 114.751462,8.516 116.228462,11.624 C118.335462,16.056 120.550462,20.487 121.858462,25.237 C122.510462,27.612 122.929462,30.063 122.907363,32.531 C122.889462,35.158 122.274462,37.401 121.328462,39.825 Z M103.528462,108.216 C102.228462,100.559 100.880462,92.969 100.634462,85.156 C100.422462,78.467 100.557462,71.823 100.864462,65.165 L100.864462,65.162 C103.458462,61.067 106.580462,57.471 109.743462,53.834 C111.020462,55.856 110.410462,58.327 109.549462,60.698 C108.608462,63.291 107.749462,65.903 107.058462,68.577 C105.646462,74.028 104.689462,79.664 104.360462,85.288 C104.194462,88.124 104.028462,90.982 104.230462,93.822 C104.430462,96.578 104.802462,99.356 105.165462,102.097 C105.488462,104.54 105.909462,107.026 106.448462,109.493 C105.436462,109.124 104.458462,108.711 103.528462,108.216 Z M99.0104617,30.688 C95.8874617,38.84 92.7794617,46.996 89.6544617,55.145 C89.0294617,56.773 88.4054617,58.403 87.7804617,60.031 C86.4274617,63.559 85.0734617,67.084 83.7204617,70.613 C82.3264617,74.252 80.9944617,77.926 79.4134617,81.492 C78.5054617,83.356 77.5524617,85.199 76.6084617,87.056 C76.5584617,87.155 76.5094617,87.25 76.4564617,87.349 C73.6884617,92.034 69.8704617,96.329 64.4774617,97.67 C63.1294617,98.005 61.7544617,98.128 60.3824617,98.098 C60.5214617,98.03 60.6564617,97.959 60.7914617,97.885 C62.2754617,97.107 63.6554617,96.107 64.8994617,94.902 C69.7074617,90.235 72.0514617,83.694 73.9404617,77.424 C75.9584617,70.721 77.9244617,64.171 80.8744617,57.8 C83.6954617,51.706 87.0984617,45.879 91.0274617,40.431 C93.5004617,36.998 96.1944617,33.791 99.0104617,30.688 Z M63.8374617,51.143 C74.7124617,34.06 87.8054617,18.536 101.787462,3.822 C102.360462,3.218 103.111462,2.514 103.938462,1.948 C104.667462,1.453 105.457462,1.068 106.245462,0.96 C107.270462,0.822 109.081462,1.093 109.177462,2.375 C109.180926,2.444 109.183462,2.511 109.177462,2.585 C109.048462,4.587 108.516462,6.335 107.783462,8.203 C105.732462,13.445 103.624462,18.666 101.603462,23.919 C101.076462,25.289 100.554462,26.655 100.030462,28.024 C92.8114617,34.96 86.8984617,43.541 82.3264617,52.248 C79.4094617,57.803 77.0534617,63.599 75.2014617,69.592 C73.0974617,76.394 71.9124617,83.645 68.1444617,89.8 C66.1944617,92.991 63.5694617,95.603 60.5124617,97.344 C60.0744617,97.59 59.6294617,97.821 59.1764617,98.033 C57.3704617,97.879 55.3404617,97.744 53.6144617,97.251 C50.2454617,96.291 47.3054617,94.536 44.1454617,93.049 C42.5674617,92.305 40.9774617,91.56 39.3644617,90.88 C38.7744617,90.628 38.1774617,90.388 37.5774617,90.164 C35.8914617,89.518 34.1684617,88.973 32.3974617,88.604 C47.0594617,80.569 55.1744617,64.755 63.8374617,51.143 Z M124.107462,31.82 C124.101462,31.124 124.064462,30.432 123.999462,29.737 C123.331462,22.344 119.790462,15.05 116.455462,8.666 C115.320462,6.492 114.034462,4.228 112.355462,2.425 C110.805462,0.764 109.011462,-5.68434189e-14 106.663462,-5.68434189e-14 C105.750462,-5.68434189e-14 104.574462,0.594 103.242462,1.585 C99.2464617,4.547 93.8194617,11.057 89.6734617,15.69 C82.3784617,23.846 75.5864617,32.216 69.2884617,41.16 C63.5214617,49.352 58.6194617,58.108 52.9844617,66.386 C49.6584617,71.269 45.7114617,76.431 41.4474617,80.538 C36.7564617,85.054 30.8034617,88.681 24.6814617,90.843 C18.3214617,93.089 10.8594617,94.84 5.76146172,99.452 C2.79846172,102.131 0.371461723,105.798 0.0394617232,109.865 C-0.133538277,112.037 0.260461723,114.381 1.25746172,116.387 C1.41146172,116.692 1.57446172,116.987 1.75246172,117.273 C2.13146172,117.482 2.51946172,117.676 2.91546172,117.851 C3.19846172,117.981 3.48746172,118.1 3.77946172,118.214 C4.68846172,118.565 5.62946172,118.851 6.58246172,119.082 C11.5114617,120.276 16.6704617,120.429 21.7124617,120.755 C33.8094617,121.534 45.8744617,121.1 57.9314617,119.928 C63.6254617,119.371 69.3714617,118.752 74.9984617,117.695 C79.5394617,116.839 83.7104617,115.144 86.5344617,111.332 C89.4634617,107.385 90.4734617,102.497 90.9954617,97.707 C91.5924617,92.252 92.1154617,86.903 93.5954617,81.599 C95.0744617,76.295 97.3094617,71.115 100.129462,66.374 C99.5644617,72.717 99.5674617,79.147 100.013462,85.448 C100.538462,92.843 101.135462,100.466 102.735462,107.773 C102.781462,107.985 102.827462,108.195 102.876462,108.407 C103.003462,108.493 103.132462,108.576 103.264462,108.656 C103.387462,108.733 103.513462,108.81 103.640462,108.88 C104.467462,109.361 105.344462,109.745 106.264462,110.006 C106.368462,110.034 106.476462,110.062 106.580462,110.089 C106.630462,110.102 106.676462,110.114 106.725462,110.124 C106.869462,110.081 107.014462,110.038 107.155462,109.995 C107.285462,109.957 107.411462,109.917 107.540462,109.874 C108.639462,109.541 109.725462,109.188 110.801462,108.81 C111.041462,108.727 111.281462,108.644 111.518462,108.557 C111.789462,108.462 112.060462,108.364 112.327462,108.265 C112.284462,108.093 112.241462,107.917 112.201462,107.746 C111.684462,105.588 111.250462,103.416 110.897462,101.236 L110.888462,101.19 C110.611462,99.476 110.386462,97.759 110.211462,96.037 C110.186462,95.707 110.164462,95.375 110.150462,95.042 C109.860462,89.066 109.958462,83.116 110.565462,77.16 C111.174462,71.189 112.525462,65.389 114.508462,59.72 C115.237462,57.631 116.031462,55.573 116.847462,53.521 C117.760462,51.481 118.733462,49.463 119.714462,47.439 C121.624462,43.498 123.421462,39.437 123.946462,35.044 C124.076462,33.97 124.125462,32.894 124.107462,31.82 L124.107462,31.82 Z" id="Fill-229" fill="#0A0B09"></path>
        </g>
    </g>
</svg>