<?xml version="1.0" encoding="UTF-8"?>
<svg width="200px" height="200px" viewBox="0 0 200 200" version="1.1" xmlns="http://www.w3.org/2000/svg" xmlns:xlink="http://www.w3.org/1999/xlink">
    <!-- Generator: Sketch 56.3 (81716) - https://sketch.com -->
    <title>strawberry</title>
    <desc>Created with Sketch.</desc>
    <g id="strawberry" stroke="none" stroke-width="1" fill="none" fill-rule="evenodd">
        <g id="typeText" transform="translate(10.000000, 6.000000)" fill="#725F5F" fill-opacity="0.87" font-family="Roboto-Black, Roboto Black" font-size="17" font-weight="700">
            <g id="vegetable">
                <text>
                    <tspan x="0" y="16">fruit</tspan>
                </text>
            </g>
        </g>
        <g id="firstLetter" transform="translate(10.000000, 152.000000)">
            <g id="Group" transform="translate(0.000000, -5.000000)">
                <rect id="Rectangle" stroke="#979797" x="0.5" y="6.5" width="34" height="38"></rect>
                <text id="C" fill="#131313" font-family="Roboto-Bold, Roboto" font-size="43" font-weight="bold">
                    <tspan x="4.28295898" y="40">S</tspan>
                </text>
            </g>
        </g>
        <g id="nameText" transform="translate(104.000000, 161.000000)" fill="#454545" fill-opacity="0.87" font-family="Roboto-Black, Roboto Black" font-size="26" font-weight="700">
            <text id="Carrot">
                <tspan x="-43.6953125" y="28">Strawberry</tspan>
            </text>
        </g>
        <g id="colorText" transform="translate(133.000000, 5.000000)" fill="#454545" fill-opacity="0.87" font-family="Roboto-Black, Roboto Black" font-size="18" font-weight="700">
            <text id="orange">
                <tspan x="30.2548828" y="17">red</tspan>
            </text>
        </g>
        <g id="STRAWBERRY" transform="translate(69.000000, 47.000000)">
            <path d="M29.8979804,22 C29.8166861,22 29.7342467,21.9938585 29.6506624,21.9828038 C28.6127281,21.8372506 27.8805064,20.8171497 28.0161878,19.703084 C29.0982042,10.7960862 34.623358,3.29610286 42.4339138,0.132009016 C43.4145985,-0.265345161 44.5074924,0.264665125 44.8773244,1.31485932 C45.2471565,2.36566766 44.7525204,3.53930573 43.7735532,3.93604575 C37.2740121,6.56951517 32.6768734,12.8123362 31.7757656,20.2287953 C31.6509616,21.2531952 30.8363005,22 29.8979804,22" id="Fill-1283" fill="#526631"></path>
            <path d="M30.237245,21.7012655 L30.237245,21.4025311 C30.1674594,21.4025311 30.0947416,21.3977513 30.0208509,21.3881918 L30.0220238,21.3881918 C29.1916335,21.278855 28.5858474,20.5547227 28.5864338,19.7254359 C28.5864338,19.6525447 28.5911253,19.579056 28.6005082,19.5055673 C29.6953802,10.9486177 35.2823351,3.74613003 43.182185,0.706208245 C43.3751218,0.632122101 43.5715771,0.597468904 43.7645138,0.597468904 C44.4307026,0.597468904 45.0581868,1.01151486 45.3068348,1.68366737 C45.3795526,1.87963717 45.4135657,2.07978926 45.4135657,2.27695399 C45.4135657,2.9550812 45.0071671,3.5949704 44.3468426,3.84829721 C37.5881929,6.44907935 32.8064116,12.6161534 31.8698767,19.9399272 C31.7619729,20.7859432 31.0518016,21.4025311 30.237245,21.4025311 L30.237245,22 C31.344432,22 32.3038378,21.164141 32.4510327,20.0170007 C33.3605915,12.9101081 37.9975237,6.93063929 44.5544402,4.40752811 C45.4487517,4.06219108 46.000586,3.19705611 46,2.27695399 C46,2.00928793 45.9530848,1.73684211 45.8551504,1.47276085 C45.5173645,0.56162077 44.6682083,0 43.7645138,0 C43.5017915,0 43.2343777,0.0477975124 42.9751739,0.147574819 C34.8724179,3.26457009 29.1412002,10.654663 28.0187659,19.4278964 C28.0058643,19.5276737 28,19.6268535 28,19.7254359 C28,20.8528597 28.8204209,21.8303188 29.9457874,21.980881 L29.9586889,21.9820759 L29.9469603,21.980881 C30.0437218,21.9934278 30.1404834,22 30.237245,22 L30.237245,21.7012655" id="Fill-1284" fill="#165E34"></path>
            <path d="M63,39.5186574 C63,40.7490583 62.9207831,42.0508044 62.7659231,43.4069662 C62.6319096,44.5908114 62.440717,45.8151661 62.1947278,47.0697519 C58.9295637,63.8521787 46.1357427,86 31.9994044,86 C18.0578323,86 5.4224451,64.4567983 1.94405057,47.7668783 L1.93869003,47.7360427 C1.61944012,46.2003088 1.376429,44.7050845 1.22156897,43.2745545 C1.07564317,41.9673669 1,40.7091535 1,39.5186574 C1,34.1194042 2.53370992,29.3314214 5.16692605,25.323398 L5.16990413,25.3203749 C5.21576652,25.2460067 5.26460699,25.1722431 5.31582992,25.0984795 C5.36169232,25.0241113 5.41351087,24.9527661 5.46175572,24.8790025 L5.4647338,24.8790025 C5.55288489,24.752637 5.63746229,24.6262715 5.72918708,24.5029291 C5.81733818,24.3765636 5.90846735,24.2532212 5.9990009,24.1298788 C6.45524238,23.5131668 6.93769093,22.9182211 7.44515534,22.3450417 C7.64885584,22.1134724 7.85553442,21.8885539 8.06816915,21.6666585 C8.2772302,21.4411354 8.49343862,21.2222631 8.71202951,21.0064139 C8.9306204,20.7911693 9.15516744,20.5777386 9.3803101,20.3709586 C9.50777182,20.2542671 9.63523354,20.1369709 9.76567333,20.0226977 C9.89373067,19.9060062 10.0241705,19.7917331 10.1575883,19.6810877 C10.2880281,19.5662099 10.4220416,19.4555645 10.5554595,19.3443145 C10.689473,19.2330645 10.8258689,19.1224191 10.9622649,19.0147968 C11.0414817,18.9501025 11.1236767,18.8884313 11.2022979,18.823737 C11.305935,18.7433226 11.4089765,18.6629082 11.5126136,18.5861215 C11.6067208,18.515381 11.6972544,18.4446405 11.7913617,18.3763185 C11.9075067,18.2934856 12.0224605,18.207025 12.1380099,18.1235875 C12.3083559,18.0032682 12.4781063,17.8829489 12.6478567,17.7656527 C12.8122466,17.6550073 12.9760409,17.5443619 13.1434088,17.436135 C13.3685515,17.2873986 13.5990547,17.140476 13.8295579,16.9983904 C14.0302803,16.875048 14.2310027,16.7547287 14.4341076,16.6344094 C14.6378081,16.5140901 14.8415086,16.3967939 15.0481872,16.2801023 C15.6735835,15.9312368 16.3144658,15.6011145 16.9702384,15.2933631 C17.1590486,15.2032748 17.3502411,15.1143957 17.5444118,15.0279351 C17.6117163,14.9964948 17.6784253,14.9662639 17.7481123,14.9384514 C17.8970162,14.870734 18.0488981,14.8060397 18.2037581,14.7413454 C18.3067996,14.6947896 18.4163929,14.6518617 18.5230081,14.608329 C19.0846735,14.3773643 19.6558687,14.1615151 20.2359982,13.958363 C20.4665014,13.8779485 20.6976002,13.8005572 20.9281034,13.7267936 C21.1592023,13.6494023 21.3897055,13.5786618 21.6267604,13.5079213 C21.7971065,13.4553194 21.9704306,13.4057406 22.140181,13.3561618 C22.6232252,13.220727 23.1092474,13.0943615 23.6012258,12.9776699 C23.7471516,12.9401835 23.8960555,12.9063248 24.0413857,12.8760938 C24.2027975,12.8386074 24.3636137,12.8053533 24.5244298,12.77089 C24.8162814,12.7092188 25.108133,12.6505707 25.4053452,12.5985734 C25.5756912,12.5671332 25.7454416,12.5362976 25.9157877,12.5084851 C26.0861337,12.4776495 26.2558841,12.4504416 26.4292082,12.4250476 C26.5781121,12.4002582 26.729994,12.3790965 26.8788979,12.3573302 C27.0730686,12.3295177 27.2678348,12.3053329 27.464388,12.2805435 C27.6287778,12.2587772 27.7961458,12.2406386 27.9629181,12.2225 C28.3453033,12.1789674 28.7342402,12.1420856 29.1231771,12.1142731 C29.2965012,12.098553 29.4698254,12.0864606 29.6425538,12.0737636 C29.9254712,12.0586481 30.207793,12.0435326 30.4901147,12.0308356 C30.653909,12.0241848 30.8182988,12.0187432 30.9820931,12.0157201 C31.0672661,12.0120924 31.1524391,12.0090693 31.2405902,12.0090693 C31.4925356,12.0030231 31.7480546,12 31.9994044,12 C32.2519454,12 32.5074644,12.0030231 32.7588141,12.0090693 C32.8469652,12.0090693 32.9321383,12.0120924 33.0173113,12.0157201 C33.1811055,12.0187432 33.3454954,12.0241848 33.5092897,12.0308356 C33.7951851,12.0435326 34.0804849,12.0586481 34.3628067,12.0767867 C34.4932465,12.0834375 34.6213038,12.0925068 34.7517436,12.1045992 C34.9977328,12.1203193 35.2467001,12.1420856 35.4926893,12.166875 C35.5933483,12.1759443 35.6963898,12.1850136 35.7994313,12.1977106 C36.5439507,12.2744973 37.2848963,12.3730503 38.0169078,12.4963927 C38.1509213,12.518159 38.2843392,12.5393207 38.4147789,12.5641101 C39.5416835,12.7648438 40.6501239,13.0175748 41.7347398,13.3229077 C41.8955559,13.3658357 42.0569677,13.4117868 42.2177839,13.4613656 C42.2993832,13.486155 42.3815782,13.5109444 42.4607951,13.5357338 C42.6644956,13.597405 42.8676004,13.6590762 43.0713009,13.7267936 C43.1683863,13.7576292 43.2654716,13.7878602 43.365535,13.8223235 C43.5269468,13.8779485 43.687763,13.9305504 43.8456011,13.9891986 C44.0004611,14.0418005 44.149365,14.0968208 44.3012469,14.1488181 C44.5263896,14.2322556 44.7479586,14.3187162 44.9695275,14.4051769 C45.1184314,14.463825 45.2673353,14.5218684 45.4162392,14.5841443 L45.5222587,14.6270723 C45.6229177,14.6669771 45.7229812,14.7105098 45.8200665,14.7504147 C45.9564624,14.8090628 46.0904759,14.8677109 46.2238938,14.9257543 C46.4305724,15.0158427 46.6342729,15.1077449 46.8373778,15.2032748 C47.4544354,15.4904691 48.0619632,15.7927789 48.651027,16.1162504 C48.821373,16.2093618 48.9911234,16.301264 49.1584914,16.399817 C49.2281784,16.4366988 49.2978654,16.4772083 49.3645743,16.5171132 C49.5349204,16.6156662 49.7046708,16.7142192 49.8720387,16.8157953 C50.1090937,16.9548578 50.3395969,17.0999665 50.5706957,17.2511214 C50.7618883,17.3744638 50.9536765,17.4972016 51.1412954,17.6271948 C51.4724576,17.8490902 51.7946856,18.0740087 52.1133399,18.3086011 C52.3533729,18.4875685 52.593406,18.6665359 52.8274829,18.8485264 C54.8168386,20.4023989 56.5816474,22.1969099 58.0575826,24.2072701 C58.1183354,24.2870799 58.1761101,24.3699128 58.2368628,24.4533503 C58.3375219,24.5954359 58.4375853,24.7375215 58.5376487,24.8820256 C58.6377121,25.0271343 58.735393,25.1752662 58.8324783,25.323398 L58.8354564,25.3258164 C61.4656945,29.3344445 63,34.1194042 63,39.5186574" id="Fill-1285" fill="#AF2A30"></path>
            <path d="M62.700271,39.9684094 L62.4005422,39.9684094 C62.4005422,41.1919589 62.3214138,42.4890551 62.1667537,43.8420711 C62.0330747,45.0236808 61.8418477,46.2466225 61.5960701,47.5005633 C59.9631475,55.8885332 55.9341927,65.6447148 50.5540605,73.2777674 C47.8642941,77.0949016 44.8376325,80.3814055 41.6143488,82.7057241 C38.3904657,85.0312584 34.9777534,86.3927839 31.4997002,86.3921761 C28.0696036,86.3921761 24.7030496,85.0683356 21.5181312,82.8011524 C16.7416527,79.4022011 12.3931871,73.88316 8.92112848,67.6456711 C5.44847042,61.4087899 2.84862267,54.4546766 1.54420286,48.1971295 L1.25046862,48.2603431 L1.54540178,48.2025999 L1.5394072,48.1716008 L1.53880774,48.1685617 L1.53820828,48.1667383 C1.21869737,46.6313751 0.975917025,45.1379517 0.821256956,43.7107812 C0.674989294,42.4057832 0.599457632,41.1518425 0.599457632,39.9684094 C0.60005709,34.5995008 2.12507731,29.8487491 4.74350824,25.8662868 L4.49413387,25.6979196 L4.69555163,25.9228145 L4.69914838,25.9197753 L4.72972072,25.8912076 L4.75190065,25.855346 C4.79446214,25.7860541 4.84002092,25.7167622 4.88857699,25.6468624 L4.89397211,25.6395685 L4.89816831,25.6322746 C4.93533468,25.5714922 4.98568912,25.5022003 5.04023977,25.4201441 L4.79086539,25.251169 L4.79086539,25.555081 L4.94912221,25.555081 L5.0384414,25.4268302 C5.1289595,25.2967558 5.21288357,25.1721519 5.29980492,25.0560576 L5.30220275,25.0524106 L5.30460058,25.0487637 C5.39032303,24.9259833 5.48024167,24.8044185 5.57195869,24.6804224 C6.02514866,24.0677359 6.50531422,23.4763232 7.01005755,22.9067922 L7.01665158,22.8994983 L7.01065701,22.9061844 C7.21267423,22.676427 7.41768874,22.4533556 7.62869782,22.2333233 L7.6304962,22.2314999 L7.63169511,22.2302842 C7.838508,22.0078207 8.05251437,21.7914354 8.27131641,21.5756579 L8.27071695,21.5762657 C8.48832007,21.3623117 8.71191776,21.1501811 8.93611492,20.9447367 C9.06379939,20.8268188 9.19088441,20.7107244 9.31796943,20.5994927 L9.32036726,20.5976692 L9.32336455,20.5946301 C9.44865119,20.4803592 9.57633567,20.3691274 9.70701743,20.2603269 L9.71001472,20.2578956 L9.71301201,20.2554643 C9.84009703,20.1436247 9.97257716,20.0336086 10.1074551,19.9223768 C10.2399353,19.8123607 10.3754127,19.7023446 10.5108901,19.5959754 L10.5144869,19.5929363 L10.5162852,19.5917206 C10.5876207,19.5327617 10.6709453,19.4707637 10.7572672,19.3996483 L10.5684381,19.1638126 L10.7512726,19.4045109 C10.8549788,19.3242781 10.9568866,19.2446532 11.0575955,19.1698908 L11.0587944,19.169283 C11.156506,19.0957363 11.2464246,19.0258366 11.3351444,18.9620151 C11.4544364,18.8763119 11.5701318,18.7893931 11.6840287,18.7079447 L11.6816309,18.7097681 C11.8530758,18.5882034 12.0227223,18.4678542 12.1917693,18.3517599 L12.1899709,18.3535833 C12.3548218,18.2417437 12.5184737,18.1311198 12.6833246,18.0247506 L12.6851229,18.0235349 C12.9093201,17.8758337 13.1389124,17.7293482 13.3679052,17.5889408 L13.3685046,17.588333 C13.568124,17.4655526 13.7683429,17.3458113 13.9721585,17.2248543 L13.99254,17.2133057 L13.9721585,17.2254621 C14.1747752,17.1057208 14.3785908,16.9884108 14.5848042,16.8717086 L14.5830058,16.8729243 C15.2070412,16.5258568 15.846063,16.1970241 16.4994719,15.890073 L16.5012702,15.8894652 C16.6894999,15.8001151 16.879528,15.7119806 17.0719539,15.6262774 L17.0767496,15.6238461 C17.1432894,15.5928471 17.2050335,15.5648872 17.2661782,15.5405743 L17.2727722,15.538143 L17.2793662,15.5351039 C17.424435,15.4688511 17.5742994,15.4056374 17.7295589,15.3406002 L17.7307578,15.3399924 L17.734954,15.3381689 C17.8314667,15.2950134 17.9387696,15.2524657 18.0484704,15.2074868 C18.6089633,14.9777293 19.1790475,14.7625597 19.7581235,14.5595465 L19.7575241,14.5601543 C19.9877158,14.4799216 20.2173081,14.4033357 20.4474998,14.329789 L20.4498977,14.3285734 L20.4510966,14.3285734 C20.6788905,14.2525954 20.9078833,14.1820878 21.1452685,14.1109724 L21.1488653,14.1097568 L21.1476663,14.1103646 C21.3143156,14.0586996 21.4869594,14.0100737 21.6596032,13.9596243 L21.6566059,13.9602321 C22.1391693,13.8246874 22.6247299,13.6988678 23.1156857,13.5827735 L23.1180836,13.5821656 L23.1204814,13.58095 C23.2619534,13.5450884 23.4076216,13.5122659 23.5514914,13.4818747 L23.5532898,13.4812669 L23.5568866,13.480659 C23.7151434,13.4441896 23.8751986,13.4107593 24.038251,13.3761133 L24.0376516,13.3761133 C24.3295874,13.3147231 24.6197249,13.256372 24.9140586,13.2053148 L24.9164565,13.204707 C25.0873019,13.1731001 25.2563489,13.1427089 25.4241971,13.1153569 L25.4295922,13.114749 C25.5974403,13.0843579 25.764689,13.0570058 25.9355344,13.0326928 L25.9367334,13.032085 L25.9421285,13.0314772 C26.0865978,13.0071642 26.2376611,12.9864982 26.3887244,12.9640087 L26.3875255,12.9646165 C26.5799514,12.9366566 26.7741757,12.9123437 26.9725961,12.8874229 L26.9779913,12.8868151 L26.974994,12.8874229 C27.1350492,12.8661491 27.3010989,12.8479144 27.4695465,12.8296796 L27.4707454,12.8290718 C27.8520005,12.7859163 28.2392501,12.7494469 28.6259003,12.7220948 L28.6282981,12.721487 L28.6312954,12.721487 C28.8021408,12.7062914 28.9747846,12.6941349 29.1486274,12.6813706 L29.1276463,12.3780665 L29.1438317,12.6819784 C29.4279746,12.666175 29.7115181,12.6509794 29.9938626,12.6388229 L29.9926637,12.6388229 C30.1569151,12.6321369 30.3199676,12.6260586 30.4812217,12.6236273 L30.4860173,12.6230195 L30.4884152,12.6230195 C30.5723392,12.6193726 30.6538655,12.6169413 30.7359912,12.6169413 L30.7425852,12.6169413 C30.9937579,12.610863 31.2485274,12.6084317 31.4997002,12.6084317 C31.7514724,12.6084317 32.0062419,12.610863 32.2574146,12.6169413 L32.2640087,12.6169413 C32.3461344,12.6169413 32.4276606,12.6193726 32.5115847,12.6230195 L32.513383,12.6230195 L32.5187782,12.6236273 C32.6806317,12.6260586 32.8430847,12.6321369 33.0079356,12.6388229 L33.0061372,12.6388229 C33.2920785,12.6509794 33.5774203,12.666175 33.8591654,12.6844097 L33.8615633,12.6850175 L33.8639611,12.6850175 C33.9910461,12.6910958 34.1151338,12.6996053 34.2416194,12.7117618 L34.2464151,12.7123696 L34.2512107,12.7123696 C34.4939911,12.7275652 34.7409676,12.7494469 34.9861458,12.7737598 L34.9891431,12.7743677 L34.9897425,12.7743677 C35.0898519,12.783485 35.1905608,12.7926024 35.2888719,12.804151 L35.2912697,12.8047589 L35.294267,12.8047589 C36.036995,12.8813447 36.7767257,12.9798121 37.5068651,13.1025926 L37.508064,13.1025926 C37.6441409,13.1250821 37.7754221,13.1457481 37.9013082,13.1694532 L37.9043055,13.170061 C39.0294875,13.3706429 40.1360863,13.622282 41.2175079,13.9268018 L41.2211046,13.9274096 C41.3799609,13.9699573 41.5388171,14.0155441 41.6964745,14.06417 L41.7030685,14.0659935 L41.6982729,14.0647778 C41.7815975,14.0896986 41.8637232,14.1140116 41.9398543,14.1377167 L41.9422521,14.1383245 C42.1478661,14.2009304 42.3498833,14.2623206 42.5495027,14.3285734 L42.5513011,14.3291812 L42.5536989,14.329789 C42.6514105,14.3607881 42.7473237,14.3911793 42.843237,14.4240018 C43.0080878,14.4805294 43.168143,14.5328022 43.3198058,14.588722 L43.3246014,14.5905455 L43.3275987,14.5917611 C43.4780626,14.6428184 43.6273275,14.6981303 43.7849849,14.7522267 L43.8808981,14.4641181 L43.7783909,14.7497954 C44.0013891,14.8324594 44.222589,14.9187704 44.4467861,15.0056892 L44.4449877,15.0050814 C44.5948522,15.0640403 44.7429182,15.1223914 44.8891859,15.182566 L44.9982871,15.2269371 L45.0000855,15.227545 C45.0959987,15.2664457 45.1961082,15.3089934 45.2962176,15.3503254 L45.4095151,15.0689029 L45.2932203,15.3491097 C45.4292972,15.406853 45.5629762,15.4658119 45.6978542,15.5247709 C45.9028687,15.6135131 46.1054854,15.7052946 46.3075026,15.8001151 L46.3087015,15.8007229 C46.9243445,16.087008 47.5297967,16.3878808 48.1160663,16.7094196 L48.1166657,16.7100275 C48.2887101,16.8030245 48.4565582,16.8941981 48.6184118,16.9896265 L48.6250058,16.9932734 L48.6298015,16.9963125 C48.6939434,17.0303507 48.7604832,17.0680358 48.8246252,17.1069365 L48.8264236,17.1081521 L48.828222,17.10876 C48.9996668,17.2078353 49.1693133,17.3063027 49.3335647,17.4059858 L49.3371615,17.4084171 L49.3377609,17.4084171 C49.57095,17.5451775 49.7987439,17.6880161 50.0277367,17.8381486 L50.0301345,17.8393643 C50.2231599,17.9639682 50.4131879,18.085533 50.596622,18.2125682 L50.5990198,18.2137838 L50.6002187,18.2143916 C50.9299204,18.4356396 51.2506302,18.6593188 51.5677433,18.8921153 L51.565945,18.8908997 C51.8075264,19.0708155 52.0473094,19.2495158 52.279899,19.4294316 L52.2792995,19.4294316 C54.2611065,20.9757357 56.0175173,22.7596988 57.4855891,24.757616 L57.4879869,24.7600473 L57.4891858,24.7618708 C57.5449354,24.8342018 57.6018839,24.9162581 57.6654264,25.0043925 L57.9064083,24.823261 L57.6630285,25.0001378 C57.7637374,25.1435842 57.8638468,25.2852072 57.9639563,25.4292615 C58.0622673,25.5708844 58.15878,25.71737 58.2558921,25.865679 L58.2768731,25.8972859 L58.3074455,25.9258536 L58.5088632,25.7003509 L58.2594889,25.869326 C60.8749225,29.8517882 62.3999427,34.5995008 62.4005422,39.9684094 L63,39.9684094 C63,34.4821908 61.4372138,29.6092665 58.7582376,25.5319837 L58.7378561,25.5009847 L58.7072837,25.4730248 L58.505866,25.6979196 L58.7552403,25.5295524 C58.6569293,25.3800277 58.5580188,25.2292874 58.4549121,25.0797627 C58.3524048,24.9326693 58.2510965,24.7892229 58.1503876,24.6463843 L58.1497881,24.6457764 L58.1473903,24.6421295 C58.0892429,24.5631124 58.0298966,24.4774092 57.9633568,24.3898826 L57.7259716,24.5758767 L57.9663541,24.3941373 C56.4635138,22.3494177 54.6675387,20.525946 52.6443692,18.9474273 C52.4057851,18.762041 52.1624053,18.5809095 51.9208239,18.4009936 L51.919625,18.3997779 C51.5941195,18.161511 51.2668156,17.9329692 50.9305199,17.7074665 L50.7650696,17.9609291 L50.9341166,17.7098978 C50.7392929,17.5755687 50.5438697,17.4497492 50.3508443,17.3263609 L50.3532422,17.3275766 C50.1176553,17.1737971 49.881469,17.0248803 49.6368903,16.8820416 L49.4876253,17.1452294 L49.641686,16.8844729 C49.4696416,16.780535 49.2969978,16.6802441 49.1255529,16.5811688 L48.9768874,16.8449644 L49.1297491,16.5836001 C49.0590131,16.5410524 48.9846804,16.4985048 48.9085493,16.4577806 L48.7694751,16.7270465 L48.919939,16.4638588 C48.7454968,16.3611365 48.5710546,16.2669238 48.4008087,16.1739268 L48.4014081,16.1745346 C47.801351,15.8457019 47.1839097,15.5387508 46.5586754,15.248211 L46.5598743,15.248211 C46.3518625,15.151567 46.1444501,15.0573543 45.9340405,14.9661807 L45.93464,14.9661807 C45.8003615,14.9078296 45.664884,14.8482628 45.5258099,14.7886961 L45.5222131,14.7874804 C45.4274988,14.7479719 45.325591,14.7048164 45.219487,14.6622687 L45.1139825,14.619721 L45.1169798,14.6203289 C44.9629191,14.5565074 44.8112564,14.4969406 44.6619914,14.4385895 L44.6607925,14.4379817 C44.4377943,14.3516707 44.2135971,14.2635362 43.9834054,14.1790487 L43.9810075,14.1778331 L43.9768113,14.1760096 C43.8293448,14.1255602 43.6788809,14.0696404 43.5170273,14.0149363 L43.422313,14.3036526 L43.5248203,14.0179754 C43.3587705,13.9565852 43.1945191,13.9030967 43.0356629,13.8483925 L43.0350634,13.8477847 C42.9301583,13.8119231 42.8294494,13.7803162 42.7317378,13.7493172 L42.6430181,14.039857 L42.7365335,13.7511407 C42.5261239,13.6812409 42.319311,13.6186351 42.1148959,13.556637 L42.1166943,13.5572449 C42.0339692,13.5311084 41.9506445,13.5067955 41.8691183,13.4818747 L41.8709167,13.4824825 C41.7054664,13.4314253 41.5394166,13.384015 41.3745658,13.3396439 L41.2978352,13.6338307 L41.3781625,13.3408595 C40.2769588,13.0314772 39.1517769,12.7749755 38.0080117,12.5719623 L37.9564583,12.8710117 L38.0116084,12.5725701 C37.8743326,12.5464337 37.7370568,12.524552 37.6033778,12.5026704 L37.5967838,12.5014547 L37.6051762,12.5026704 C36.8612492,12.3774586 36.1095294,12.2777755 35.3548122,12.1999741 L35.3242399,12.5026704 L35.3596079,12.2005819 C35.2505066,12.1872098 35.1432037,12.1780924 35.0418953,12.168975 L35.0155192,12.4716714 L35.0448926,12.168975 C34.7949188,12.1440543 34.5407488,12.1215648 34.2883771,12.1057614 L34.2697939,12.4090655 L34.297369,12.106977 C34.1612921,12.0936049 34.0282125,12.0844875 33.8927351,12.0778015 L33.8783481,12.3811056 L33.8975307,12.0778015 C33.61099,12.0595667 33.3214519,12.0437633 33.0319139,12.0316068 L33.030715,12.030999 C32.8652647,12.0249208 32.698016,12.0188425 32.5295684,12.0158034 L32.5241733,12.3197154 L32.5361624,12.0158034 C32.4492411,12.0121565 32.3593224,12.0091174 32.2640087,12.0091174 L32.2640087,12.3130293 L32.2712022,12.0091174 C32.0152337,12.0030391 31.7556686,12 31.4997002,12 C31.2443312,12 30.9847661,12.0030391 30.7287977,12.0091174 L30.7359912,12.3130293 L30.7359912,12.0091174 C30.6406774,12.0091174 30.5507588,12.0121565 30.4638374,12.0158034 L30.4758265,12.3197154 L30.4710309,12.0158034 C30.3019838,12.0188425 30.1347352,12.0249208 29.9692849,12.030999 L29.960293,12.0316068 L29.9680859,12.0316068 C29.6809457,12.0443711 29.3962034,12.0595667 29.1120604,12.0747623 L29.1066653,12.0753702 C28.9328226,12.0875266 28.7565821,12.1002909 28.5791426,12.1160944 L28.6049193,12.4187907 L28.5839383,12.1154865 C28.1882962,12.1440543 27.7926542,12.1811315 27.4036062,12.2255027 L27.4048051,12.2248948 C27.236957,12.2437374 27.0661115,12.2619721 26.8970645,12.2850694 L26.8988629,12.2844616 C26.7004424,12.3093824 26.5032208,12.3336953 26.3042009,12.362263 L26.303002,12.362263 C26.1543365,12.3841447 25.9996764,12.4060264 25.8450163,12.431555 L25.8935724,12.7312122 L25.8516104,12.4309472 C25.6735715,12.4558679 25.4991293,12.4844357 25.3240877,12.5160425 L25.3768399,12.8150919 L25.3294828,12.5148269 C25.1550406,12.5433946 24.9817974,12.5750014 24.809753,12.6066083 L24.8121508,12.6060004 C24.5076264,12.6588811 24.2108948,12.7190557 23.9159617,12.7810537 L23.9153622,12.7816615 C23.7541081,12.8156997 23.5904562,12.8497378 23.4244064,12.8880307 L23.4903468,13.1846488 L23.4298015,12.8868151 C23.2805366,12.9184219 23.126476,12.9530679 22.9742137,12.9919686 L23.0473476,13.2867632 L22.9790094,12.990753 C22.4796612,13.1092786 21.986907,13.2375295 21.4971501,13.3748977 L21.4941529,13.3755055 C21.3245063,13.4247392 21.1488653,13.4745808 20.9732242,13.5286771 L20.975622,13.5280693 C20.7358389,13.5997925 20.5002521,13.6715158 20.2634663,13.7511407 L20.3569817,14.039857 L20.2670631,13.749925 C20.0320757,13.8246874 19.7970883,13.9037045 19.5632998,13.9851529 L19.5627004,13.9851529 C18.974033,14.1912052 18.3943574,14.4100218 17.8236738,14.644034 C17.7193681,14.6871895 17.6066701,14.7315606 17.4945715,14.7814022 L17.6150625,15.0597856 L17.5005661,14.7789709 C17.3441077,14.8446159 17.1888481,14.9102609 17.0335886,14.9807685 L17.1564774,15.2579362 L17.0473761,14.9746902 C16.9676483,15.0062971 16.8951139,15.0403352 16.8261763,15.071942 L16.9514629,15.3478941 L16.8315714,15.0695107 C16.6325515,15.1576452 16.4377277,15.248211 16.2465007,15.3393846 L16.2476997,15.3387767 C15.5811028,15.651806 14.9300918,15.986717 14.2946667,16.3398627 L14.2904705,16.342294 L14.2928683,16.3410784 C14.0836576,16.4589962 13.8768447,16.5781297 13.6712308,16.6996945 L13.6706313,16.6996945 C13.4644179,16.8218671 13.2612017,16.9434319 13.0573861,17.0692514 L13.0579856,17.0686436 C12.8223987,17.2133057 12.5874114,17.3634382 12.359018,17.5135707 L12.3614158,17.512355 C12.1893715,17.622979 12.0227223,17.7360342 11.857272,17.847266 L11.8554736,17.8490895 C11.6822303,17.968223 11.510186,18.0897877 11.3387411,18.2107447 L11.3351444,18.213176 L11.3369427,18.2125682 C11.2176507,18.2982713 11.1019553,18.3845823 10.9880584,18.4666386 C10.8873495,18.5389696 10.7938341,18.6113007 10.7021171,18.6805926 L10.703316,18.6793769 C10.5960131,18.7596097 10.4905086,18.8416659 10.3862029,18.9225065 L10.3826062,18.9255456 L10.3796089,18.9273691 C10.307674,18.9869358 10.2249488,19.0483261 10.1380275,19.1200493 L10.3268566,19.355885 L10.1434226,19.1157945 C10.003749,19.2258106 9.86407533,19.3388659 9.72739899,19.4519211 C9.59312048,19.5637607 9.45644414,19.676816 9.32096672,19.7953416 L9.51698936,20.0257069 L9.3269613,19.790479 C9.18908604,19.9047499 9.05360862,20.0226678 8.92172794,20.1436247 L9.12254624,20.3691274 L8.92712305,20.1387621 C8.79164563,20.25668 8.66156332,20.3764213 8.53327939,20.4937313 C8.30488603,20.7040384 8.07589322,20.9204237 7.85349444,21.1398481 L7.83371233,21.1592985 L7.85289498,21.1404559 C7.63109565,21.3592726 7.41049525,21.5817361 7.19588941,21.813317 L7.41409199,22.0218006 L7.1988867,21.8096701 C6.98188304,22.0357806 6.77087395,22.265538 6.56346161,22.5013737 L6.56406107,22.5007659 C6.04792805,23.0830612 5.55637279,23.6884538 5.09239258,24.3157281 C5.00007611,24.4397241 4.90716017,24.5661515 4.81544316,24.6974415 L5.06002187,24.8731026 L4.82023882,24.6907554 C4.72312668,24.8220454 4.63620533,24.9515119 4.54928397,25.0755079 L4.79386268,25.251169 L4.79386268,24.9472571 L4.63081021,24.9472571 L4.54149102,25.082194 C4.49833007,25.1484468 4.44437888,25.2219935 4.38982824,25.3107358 L4.64399827,25.4718091 L4.39941956,25.296148 C4.34486892,25.3745573 4.29211664,25.4535744 4.24296112,25.5338072 L4.49713115,25.6948805 L4.29571339,25.4699857 L4.2927161,25.4730248 L4.26514105,25.4979456 L4.24475949,25.5289446 C1.56278605,29.6062274 0,34.4821908 0,39.9684094 C0,41.1785868 0.0773300345,42.4544092 0.22539607,43.7782496 C0.382453969,45.2273018 0.628831056,46.7395677 0.951339262,48.29195 L1.2450735,48.2293441 L0.950739804,48.2864796 L0.956134923,48.3174786 L0.956734381,48.3199099 L0.957333838,48.322949 C2.71854036,56.7583292 6.78466148,66.3953773 12.1833769,73.948805 C14.8833341,77.7246071 17.9177886,80.980112 21.1740425,83.2989602 C24.4290974,85.6165928 27.9143441,87 31.4997002,87 C35.1360102,87 38.6680145,85.5776921 41.9620342,83.2011006 C46.9045624,79.6343899 51.3321565,73.9171982 54.8437793,67.5046559 C58.3536037,61.090898 60.9438602,53.9817896 62.184138,47.6184811 C62.4329129,46.3499526 62.6271372,45.1112075 62.7620151,43.9119709 C62.919073,42.5382889 63,41.2187031 63,39.9684094 L62.700271,39.9684094" id="Fill-1286" fill="#D8252D"></path>
            <path d="M43,83 C46.2776899,80.48359 49.3186313,76.9997546 52,73 C49.3987342,77.1512791 46.3299051,80.7222256 43,83" id="Fill-1287" fill="#E88688"></path>
            <path d="M35.5003027,85 C24.0322202,85 13.6382297,67.7559072 10.777415,54.3962656 L10.7725713,54.3717448 C10.5098002,53.1427152 10.3099973,51.9453832 10.18285,50.8006812 C10.0629682,49.7540623 10,48.747514 10,47.7947917 C10,43.4731528 11.2617858,39.6401354 13.4281339,36.432099 L13.4311612,36.4297067 C13.4686999,36.3699 13.5086605,36.3112893 13.5510429,36.2514825 C13.5885817,36.1928718 13.6303586,36.1360554 13.6703192,36.0762486 L13.6733466,36.0762486 C13.7453967,35.9751751 13.8156305,35.8741016 13.8907079,35.7754204 C13.9627581,35.6743469 14.0378355,35.5756657 14.112913,35.4769845 C14.4876948,34.9829804 14.8848788,34.5069183 15.3020431,34.0476022 C15.4697565,33.8627992 15.6392863,33.6827807 15.8148707,33.5045565 C15.9868223,33.3251361 16.164223,33.1499022 16.3440457,32.9770605 C16.5238683,32.8036208 16.7085347,32.6337696 16.8938065,32.4681047 C16.9985516,32.3748061 17.1032968,32.2809095 17.2110693,32.1894051 C17.3158145,32.0955084 17.423587,32.0046021 17.5331758,31.91549 C17.6409483,31.8245836 17.7505372,31.7348734 17.8607315,31.6463594 C17.9709259,31.5572473 18.0829366,31.4687332 18.1955528,31.3820134 C18.2603374,31.3311776 18.3281493,31.2809399 18.3929339,31.229506 C18.4776988,31.1649147 18.5630691,31.1015195 18.647834,31.0393204 C18.7253333,30.982504 18.8004108,30.9256875 18.8779101,30.8718614 C18.9723624,30.8048778 19.0674201,30.7361 19.1624779,30.6691164 C19.3023399,30.5728274 19.442202,30.4765385 19.582064,30.3832399 C19.7170824,30.2941278 19.8521007,30.2056137 19.9895409,30.1188939 C20.1742073,30.0004764 20.3643228,29.882059 20.5544383,29.7684261 C20.7191243,29.6697449 20.8838104,29.5734559 21.0515237,29.477167 C21.2186317,29.380878 21.386345,29.2869814 21.5558748,29.1930847 C22.0711241,28.9149831 22.5978773,28.650039 23.1373452,28.403635 C23.2923439,28.3318669 23.4497643,28.2606968 23.6102121,28.1907229 C23.6647039,28.1662021 23.719801,28.1416813 23.7773201,28.1195528 C23.8996237,28.0657267 24.0243491,28.0136947 24.1521019,27.9622609 C24.2368668,27.9245826 24.3264754,27.8898947 24.4142676,27.8558048 C24.8762362,27.6710018 25.3460758,27.4975621 25.8237864,27.3348876 C26.0132965,27.2702963 26.203412,27.2092934 26.392922,27.1494866 C26.5830375,27.0884836 26.773153,27.0310691 26.9675068,26.9742527 C26.9741669,26.9724585 26.9802215,26.9706643 26.9868816,26.9688701 C27.3229138,27.2523543 27.6359384,27.566938 27.9513848,27.8863063 C28.4835872,28.4221751 29.0176059,28.9652208 29.6999632,29.3790838 C30.3792932,29.7929469 31.2075671,30.0650678 32.2786319,30.0650678 C32.2816592,30.0650678 32.2846865,30.0650678 32.2877138,30.0650678 C32.2901357,30.0650678 32.293163,30.0650678 32.2961903,30.0650678 C33.3672551,30.0650678 34.1955291,29.7929469 34.8754645,29.3790838 C35.5572163,28.9652208 36.091235,28.4221751 36.6234374,27.8863063 C37.1544288,27.3492413 37.6775492,26.8253338 38.3163131,26.4395799 C38.6117792,26.2613557 38.9314639,26.1106426 39.2929256,26 C39.6804222,26.0472474 40.0667078,26.1022696 40.4499662,26.1650668 C40.559555,26.1824107 40.6697494,26.1997547 40.7769164,26.2194909 C41.7038809,26.3797731 42.6163143,26.5819201 43.5081619,26.8265299 C43.621989,26.8564333 43.7364216,26.8881309 43.8508542,26.9216227 C44.2086831,27.2176663 44.5386606,27.548996 44.8716655,27.8863063 C45.4038678,28.4221751 45.9378866,28.9652208 46.6202438,29.3790838 C47.2995738,29.7929469 48.1284532,30.0650678 49.199518,30.0650678 C49.2019399,30.0650678 49.2049672,30.0650678 49.2079945,30.0650678 C49.2104163,30.0650678 49.2134437,30.0650678 49.216471,30.0650678 C49.7450405,30.0650678 50.2142747,29.9992803 50.6356772,29.882059 C50.6822979,29.9113643 50.7295241,29.9406696 50.7761447,29.970573 C50.9335652,30.0692542 51.0909857,30.1679354 51.2459844,30.2719993 C51.5184429,30.4496254 51.7830304,30.6296439 52.0451961,30.8174372 C52.2431826,30.9603755 52.4399582,31.1039118 52.6324956,31.2492423 C54.2690632,32.4932236 55.7209645,33.9291847 56.9349186,35.5385855 C56.9851721,35.6025788 57.0323982,35.6689643 57.0826517,35.7359479 C57.1649947,35.8495808 57.2473377,35.9632138 57.3296808,36.0792389 C57.4120238,36.194666 57.491945,36.3136816 57.5718661,36.432099 L57.5748935,36.4344913 C59.7382142,39.6431258 61,43.4731528 61,47.7947917 C61,48.7792116 60.9352154,49.8210459 60.8080681,50.9065392 C60.6978738,51.8544769 60.5404533,52.8347102 60.3382285,53.8382682 C59.8435649,56.3118772 59.0831028,58.9314148 58.0986193,61.5593253 C56.2731471,65.588509 54.0510964,69.5112366 51.5366068,72.9866094 C48.8198924,76.742476 45.7629076,79.9762293 42.5073309,82.2632411 C41.0614842,83.2793585 39.5780988,84.1082807 38.0680731,84.7159177 C37.2198188,84.9025149 36.3630881,85 35.5003027,85" id="Fill-1288" fill="#C4262D"></path>
            <path d="M37,84 C38.507723,83.396472 39.9888462,82.5731553 41.432488,81.5639092 C44.6831001,79.2923629 47.735423,76.0804773 50.4479944,72.350009 C52.9586495,68.8981379 55.1773116,65.001937 57,61 C55.5684491,64.8029391 53.6623341,68.6225109 51.4116314,72.0369586 C48.6797147,75.9099925 45.5814467,79.2834526 42.2419672,81.7201374 C40.5522776,82.8190811 38.7948795,83.6079444 37,84" id="Fill-1289" fill="#D8252D"></path>
            <path d="M4.375,25.686 C4.452,25.564 4.533,25.436 4.625,25.314 C4.539,25.436 4.457,25.558 4.38,25.681 L4.375,25.686" id="Fill-1290" fill="#FFFFFE"></path>
            <path d="M4.625,25.3185 C4.544,25.4405 4.457,25.5635 4.375,25.6815 C4.452,25.5585 4.539,25.4405 4.62,25.3185 L4.625,25.3185" id="Fill-1291" fill="#FFFFFE"></path>
            <path d="M10.827823,26.8828793 C11.8728817,27.9714418 12.8608399,29 14.8742284,29 C16.8882118,29 17.8755752,27.9714418 18.9212286,26.8828793 C19.9639082,25.7961352 21.0428703,24.6730248 23.1841402,24.6730248 C25.326005,24.6730248 26.4049671,25.7961352 27.4482414,26.8828793 C28.4938949,27.9714418 29.4818531,29 31.4958364,29 C33.5098198,29 34.4971831,27.9714418 35.5428366,26.8828793 C36.5867057,25.7961352 37.6650731,24.6730248 39.8069378,24.6730248 C41.9488025,24.6730248 43.0271699,25.7961352 44.071039,26.8828793 C45.1166925,27.9714418 46.1040558,29 48.1180392,29 C50.1320225,29 51.1199807,27.9714418 52.1656342,26.8828793 C53.2089085,25.7961352 54.2884654,24.6730248 56.4297354,24.6730248 C57.0298858,24.6730248 57.5449801,24.7633343 58,24.9142541 C52.453516,16.8021606 42.3758669,12 31.4994052,12 C20.6247279,12 10.5476736,16.8015545 5,24.9118297 C5.45442507,24.7627282 5.96714026,24.6730248 6.56431666,24.6730248 C8.7055866,24.6730248 9.78454874,25.7961352 10.827823,26.8828793" id="Fill-1292" fill="#526631"></path>
            <path d="M10.7572087,27.6631363 L10.5390173,27.8679696 C11.0756336,28.3923428 11.6146945,28.9237388 12.3034946,29.3287235 C12.9910724,29.7348786 13.8302229,30.0017471 14.9150678,30 C16.0005239,30.0017471 16.8390631,29.7348786 17.5272521,29.3287235 C18.2160522,28.9237388 18.754502,28.3923428 19.2917294,27.8679696 C19.8277345,27.3424259 20.355183,26.8297575 20.9999782,26.4522791 C21.6459957,26.0753858 22.4063039,25.8231483 23.4538668,25.8219778 C24.5020409,25.8231483 25.2629603,26.0753858 25.9083666,26.4522791 C26.5531618,26.8297575 27.0812215,27.3424259 27.6172266,27.8679696 C28.154454,28.3923428 28.6935149,28.9237388 29.3823151,29.3287235 C30.0698928,29.7348786 30.9090433,30.0017471 31.9944994,30 C33.0799555,30.0017471 33.9184948,29.7348786 34.6066837,29.3287235 C35.2948726,28.9237388 35.8339336,28.3923428 36.371161,27.8679696 C36.9071661,27.3424259 37.4352258,26.8297575 38.080021,26.4522791 C38.7260385,26.0753858 39.4863467,25.8231483 40.5345208,25.8219778 C41.5826949,25.8231483 42.3430031,26.0753858 42.9884094,26.4522791 C43.6338157,26.8297575 44.1612643,27.3424259 44.6972693,27.8679696 C45.2344968,28.3923428 45.7735577,28.9237388 46.4623578,29.3287235 C47.1499356,29.7348786 47.9890861,30.0017471 49.0745422,30 C50.1599983,30.0017471 50.9991487,29.7348786 51.6873377,29.3287235 C52.3755266,28.9237388 52.9145876,28.3923428 53.451815,27.8679696 C53.9878201,27.3424259 54.5158798,26.8297575 55.1612861,26.4522791 C55.8066924,26.0753858 56.5676118,25.8231483 57.6151747,25.8219778 C58.2019078,25.8219778 58.6963526,25.9044964 59.1345688,26.0402716 L60,26.3100662 L59.4798856,25.5949055 C53.709733,17.6701987 43.2603846,13.0011705 31.9981665,13 C20.7371707,13.0011705 10.2884334,17.668443 4.51828084,25.5925645 L4,26.3047991 L4.86298649,26.0385158 C5.29998035,25.9039111 5.79259162,25.8219778 6.37626874,25.8219778 C7.42444284,25.8231483 8.18413987,26.0753858 8.83015738,26.4522791 C9.47495252,26.8297575 10.0030122,27.3424259 10.5390173,27.8679696 L10.9754,27.4583031 C10.4393949,26.9345151 9.87710912,26.3802948 9.14919346,25.9530711 C8.42250016,25.5252622 7.52895466,25.2349842 6.37626874,25.2367399 C5.73269596,25.2361546 5.17163251,25.328037 4.67535416,25.4813693 L4.76886473,25.7599426 L5.02005981,25.9273206 C10.6496409,18.1881342 20.9101347,13.5846527 31.9981665,13.5858232 C43.0880318,13.5846527 53.3485255,18.1893047 58.9781067,25.9296616 L59.2286905,25.7622835 L59.3234235,25.4842955 C58.8253116,25.3286222 58.2618034,25.2361546 57.6151747,25.2367399 C56.4631,25.2349842 55.5683321,25.5252622 54.8416388,25.9530711 C54.1143344,26.3802948 53.5514374,26.9345151 53.0148211,27.4583031 C52.4775937,27.9850172 51.9721476,28.4754466 51.3676904,28.8301008 C50.7620108,29.1835845 50.0585423,29.413583 49.0745422,29.4147535 C48.090542,29.413583 47.3870735,29.1835845 46.7820051,28.8301008 C46.1775479,28.4754466 45.6714906,27.9850172 45.1342632,27.4583031 C44.5982581,26.9345151 44.0353611,26.3802948 43.3080567,25.9530711 C42.5807522,25.5252622 41.6872067,25.2349842 40.5345208,25.2367399 C39.3818349,25.2349842 38.4876782,25.5252622 37.7609849,25.9530711 C37.0330692,26.3802948 36.4707834,26.9345151 35.9347783,27.4583031 C35.3975509,27.9850172 34.8914937,28.4754466 34.2870364,28.8301008 C33.6813568,29.1835845 32.9784996,29.413583 31.9944994,29.4147535 C31.009888,29.413583 30.3070308,29.1835845 29.7013511,28.8301008 C29.0968939,28.4754466 28.5914478,27.9850172 28.0542204,27.4583031 C27.5176042,26.9345151 26.9553184,26.3802948 26.2274027,25.9530711 C25.5007094,25.5252622 24.6065527,25.2349842 23.4538668,25.2367399 C22.3017921,25.2349842 21.4076354,25.5252622 20.6809421,25.9530711 C19.9536376,26.3802948 19.3907406,26.9345151 18.8547356,27.4583031 C18.3175081,27.9850172 17.8120621,28.4754466 17.2076048,28.8301008 C16.6019252,29.1835845 15.899068,29.413583 14.9150678,29.4147535 C13.9310676,29.413583 13.2282103,29.1835845 12.6225307,28.8301008 C12.0180735,28.4754466 11.5126274,27.9850172 10.9754,27.4583031 L10.7572087,27.6631363" id="Fill-1293" fill="#165E34"></path>
            <path d="M43.727945,25 C42.2460046,25 41.5196333,24.2561565 40.7497632,23.468733 C39.9816807,22.6819066 39.1885714,21.8694098 37.6124828,21.8694098 C36.0363942,21.8694098 35.2426891,22.6819066 34.4746066,23.468733 C33.7053323,24.2561565 32.9783652,25 31.4964248,25 C30.0144843,25 29.2881131,24.2561565 28.5182429,23.468733 C27.7507563,22.6819066 26.9564553,21.8694098 25.3803667,21.8694098 C23.8048739,21.8694098 23.0111688,22.6819066 22.2430863,23.468733 C21.4744079,24.2561565 20.7474408,25 19.2655004,25 C17.7841558,25 17.0571887,24.2561565 16.2879144,23.468733 C15.5204278,22.6819066 14.7267227,21.8694098 13.1506341,21.8694098 C12.7108785,21.8694098 12.3342857,21.9338842 12,22.0425355 C14.6999083,18.1609379 18.8579221,15.3276462 23.6797403,13.8536898 C26.2187624,13.2919268 28.8662338,13 31.5631627,13 C31.5649503,13 31.5649503,13 31.5661421,13 C34.0986096,12.999404 36.5863866,13.2573016 38.9823988,13.7533963 C43.9478228,15.1969065 48.2375248,18.0719871 51,22.0443264 C50.6645225,21.9344811 50.2861421,21.8694098 49.8445989,21.8694098 C48.2679144,21.8694098 47.4742093,22.6819066 46.7067227,23.468733 C45.9368526,24.2561565 45.2104813,25 43.727945,25" id="Fill-1294" fill="#2C6132"></path>
            <path d="M24,14 C26.5805849,12.6908338 29.3430941,12 32.1760056,12 C34.8805732,12 37.5203458,12.6297255 40,13.8259969 C37.4948016,12.965303 34.8936568,12.5178664 32.2457848,12.5189021 C32.2445388,12.5189021 32.2445388,12.5189021 32.2426697,12.5189021 C29.4228418,12.5189021 26.6547253,13.0253755 24,14" id="Fill-1295" fill="#165E34"></path>
            <path d="M59,25.7366976 C58.4773575,25.4863381 57.8690064,25.3327232 57.1198055,25.3327232 C55.0903703,25.3327232 54.0942328,26.4433259 53.0429542,27.6166819 C51.9910762,28.7900379 50.9032365,30 48.7449387,30 C46.5872403,30 45.4994006,28.7900379 44.4475226,27.6166819 C43.3932472,26.4433259 42.4001066,25.3327232 40.3706713,25.3327232 C38.3406367,25.3327232 37.3444992,26.4433259 36.2902238,27.6166819 C35.2383458,28.7900379 34.1535029,30 31.9952051,30 C29.8375067,30 28.7490677,28.7900379 27.6983884,27.6166819 C26.6435136,26.4433259 25.6503729,25.3327232 23.6203383,25.3327232 C21.590903,25.3327232 20.5947656,26.4433259 19.5434869,27.6166819 C18.491609,28.7900379 17.4037693,30 15.2460709,30 C13.087773,30 11.9999334,28.7900379 10.9480554,27.6166819 C9.89677677,26.4433259 8.90063932,25.3327232 6.87120405,25.3327232 C6.125,25.3327232 5.52024507,25.4830697 5,25.7334292 C5.04615077,25.6530265 5.09529835,25.5732776 5.14684337,25.4935286 C5.19599094,25.4163943 5.24813532,25.3359916 5.29668354,25.2562426 C5.75219766,25.096091 6.26884656,25 6.87120405,25 C9.0289025,25 10.1167421,26.2099621 11.1680208,27.3833181 C12.2198988,28.5566741 13.2160362,29.6666231 15.2460709,29.6666231 C17.2749068,29.6666231 18.2686468,28.5566741 19.3229222,27.3833181 C20.3748002,26.2099621 21.4626399,25 23.6203383,25 C25.7786361,25 26.863479,26.2099621 27.9147576,27.3833181 C28.9696324,28.5566741 29.9657698,29.6666231 31.9952051,29.6666231 C34.0252397,29.6666231 35.0183804,28.5566741 36.0726558,27.3833181 C37.1245338,26.2099621 38.2123735,25 40.3706713,25 C42.5283697,25 43.6132126,26.2099621 44.6650906,27.3833181 C45.719366,28.5566741 46.7161028,29.6666231 48.7449387,29.6666231 C50.7749734,29.6666231 51.768114,28.5566741 52.8223895,27.3833181 C53.8742674,26.2099621 54.9621071,25 57.1198055,25 C57.7251598,25 58.2418087,25.096091 58.7033165,25.259511 C58.8040091,25.4163943 58.9023042,25.576546 59,25.7366976" id="Fill-1296" fill="#526631"></path>
            <path d="M12,34.5 C12,35.8803922 10.8808995,37 9.49967316,37 C8.11910054,37 7,35.8803922 7,34.5 C7,33.1196078 8.11910054,32 9.49967316,32 C10.8808995,32 12,33.1196078 12,34.5" id="Fill-1297" fill="#FFFFFE"></path>
            <path d="M27,34.5 C27,35.8803922 25.8803922,37 24.5,37 C23.1196078,37 22,35.8803922 22,34.5 C22,33.1196078 23.1196078,32 24.5,32 C25.8803922,32 27,33.1196078 27,34.5" id="Fill-1298" fill="#FFFFFE"></path>
            <path d="M43,34.5 C43,35.8803922 41.8810458,37 40.5,37 C39.1196078,37 38,35.8803922 38,34.5 C38,33.1196078 39.1196078,32 40.5,32 C41.8810458,32 43,33.1196078 43,34.5" id="Fill-1299" fill="#FFFFFE"></path>
            <path d="M59,34.5 C59,35.8803922 57.8810458,37 56.5,37 C55.1196078,37 54,35.8803922 54,34.5 C54,33.1196078 55.1196078,32 56.5,32 C57.8810458,32 59,33.1196078 59,34.5" id="Fill-1300" fill="#FFFFFE"></path>
            <path d="M1.47718332,48 L1.49527931,48 C2.32612116,48 3,46.8803922 3,45.5006536 C3,44.1202614 2.32612116,43 1.49527931,43 C1.32100708,43 1.15460268,43.0503268 1,43.1437908 L1.47718332,48" id="Fill-1301" fill="#FFFFFE"></path>
            <path d="M20,45.5 C20,46.8810458 18.8808995,48 17.4996732,48 C16.1191005,48 15,46.8810458 15,45.5 C15,44.1189542 16.1191005,43 17.4996732,43 C18.8808995,43 20,44.1189542 20,45.5" id="Fill-1302" fill="#FFFFFE"></path>
            <path d="M35,45.5 C35,46.8810458 33.8810458,48 32.5,48 C31.1196078,48 30,46.8810458 30,45.5 C30,44.1189542 31.1196078,43 32.5,43 C33.8810458,43 35,44.1189542 35,45.5" id="Fill-1303" fill="#FFFFFE"></path>
            <path d="M51,45.5 C51,46.8810458 49.8810458,48 48.5,48 C47.1196078,48 46,46.8810458 46,45.5 C46,44.1189542 47.1196078,43 48.5,43 C49.8810458,43 51,44.1189542 51,45.5" id="Fill-1304" fill="#FFFFFE"></path>
            <path d="M63,44 C62.7814634,44.9696269 62.4673171,45.9724331 62.0643902,47 C61.4078049,46.6592935 61,46.1923077 61,45.6772862 C61,44.9468471 61.8107317,44.3159459 63,44" id="Fill-1305" fill="#FFFFFE"></path>
            <path d="M12,57.5003268 C12,58.8808995 10.8803922,60 9.49934641,60 C8.11895425,60 7,58.8808995 7,57.5003268 C7,56.1197542 8.11895425,55 9.49934641,55 C10.8803922,55 12,56.1197542 12,57.5003268" id="Fill-1306" fill="#FFFFFE"></path>
            <path d="M27,57.5003268 C27,58.8808995 25.8808995,60 24.4996732,60 C23.1191005,60 22,58.8808995 22,57.5003268 C22,56.1197542 23.1191005,55 24.4996732,55 C25.8808995,55 27,56.1197542 27,57.5003268" id="Fill-1307" fill="#FFFFFE"></path>
            <path d="M43,57.5003268 C43,58.8808995 41.8808995,60 40.5003268,60 C39.1191005,60 38,58.8808995 38,57.5003268 C38,56.1197542 39.1191005,55 40.5003268,55 C41.8808995,55 43,56.1197542 43,57.5003268" id="Fill-1308" fill="#FFFFFE"></path>
            <path d="M58,57.5003268 C58,58.8808995 56.8810458,60 55.5006536,60 C54.1196078,60 53,58.8808995 53,57.5003268 C53,56.1197542 54.1196078,55 55.5006536,55 C56.8810458,55 58,56.1197542 58,57.5003268" id="Fill-1309" fill="#FFFFFE"></path>
            <path d="M19,68.4996732 C19,69.8805385 17.8803922,71 16.4993464,71 C15.1189542,71 14,69.8805385 14,68.4996732 C14,67.1194615 15.1189542,66 16.4993464,66 C17.8803922,66 19,67.1194615 19,68.4996732" id="Fill-1310" fill="#FFFFFE"></path>
            <path d="M35,68.4996732 C35,69.8805385 33.8803922,71 32.5,71 C31.1189542,71 30,69.8805385 30,68.4996732 C30,67.1194615 31.1189542,66 32.5,66 C33.8803922,66 35,67.1194615 35,68.4996732" id="Fill-1311" fill="#FFFFFE"></path>
            <path d="M51,68.4996732 C51,69.8805385 49.8808995,71 48.5003268,71 C47.1191005,71 46,69.8805385 46,68.4996732 C46,67.1194615 47.1191005,66 48.5003268,66 C49.8808995,66 51,67.1194615 51,68.4996732" id="Fill-1312" fill="#FFFFFE"></path>
            <path d="M1.47718332,48 L1.49527931,48 C2.32612116,48 3,46.8803922 3,45.5006536 C3,44.1202614 2.32612116,43 1.49527931,43 C1.32100708,43 1.15460268,43.0503268 1,43.1437908 L1.47718332,48" id="Fill-1313" fill="#FFFFFE"></path>
            <path d="M20,45.5 C20,46.8810458 18.8808995,48 17.4996732,48 C16.1191005,48 15,46.8810458 15,45.5 C15,44.1189542 16.1191005,43 17.4996732,43 C18.8808995,43 20,44.1189542 20,45.5" id="Fill-1314" fill="#FFFFFE"></path>
            <path d="M35,45.5 C35,46.8810458 33.8810458,48 32.5,48 C31.1196078,48 30,46.8810458 30,45.5 C30,44.1189542 31.1196078,43 32.5,43 C33.8810458,43 35,44.1189542 35,45.5" id="Fill-1315" fill="#FFFFFE"></path>
            <path d="M51,45.5 C51,46.8810458 49.8810458,48 48.5,48 C47.1196078,48 46,46.8810458 46,45.5 C46,44.1189542 47.1196078,43 48.5,43 C49.8810458,43 51,44.1189542 51,45.5" id="Fill-1316" fill="#FFFFFE"></path>
            <path d="M63,44 C62.7814634,44.9696269 62.4673171,45.9724331 62.0643902,47 C61.4078049,46.6592935 61,46.1923077 61,45.6772862 C61,44.9468471 61.8107317,44.3159459 63,44" id="Fill-1317" fill="#FFFFFE"></path>
            <path d="M12,57.5003268 C12,58.8808995 10.8803922,60 9.49934641,60 C8.11895425,60 7,58.8808995 7,57.5003268 C7,56.1197542 8.11895425,55 9.49934641,55 C10.8803922,55 12,56.1197542 12,57.5003268" id="Fill-1318" fill="#FFFFFE"></path>
            <path d="M27,57.5003268 C27,58.8808995 25.8808995,60 24.4996732,60 C23.1191005,60 22,58.8808995 22,57.5003268 C22,56.1197542 23.1191005,55 24.4996732,55 C25.8808995,55 27,56.1197542 27,57.5003268" id="Fill-1319" fill="#FFFFFE"></path>
            <path d="M43,57.5003268 C43,58.8808995 41.8808995,60 40.5003268,60 C39.1191005,60 38,58.8808995 38,57.5003268 C38,56.1197542 39.1191005,55 40.5003268,55 C41.8808995,55 43,56.1197542 43,57.5003268" id="Fill-1320" fill="#FFFFFE"></path>
            <path d="M58,57.5003268 C58,58.8808995 56.8810458,60 55.5006536,60 C54.1196078,60 53,58.8808995 53,57.5003268 C53,56.1197542 54.1196078,55 55.5006536,55 C56.8810458,55 58,56.1197542 58,57.5003268" id="Fill-1321" fill="#FFFFFE"></path>
            <path d="M19,68.4996732 C19,69.8805385 17.8803922,71 16.4993464,71 C15.1189542,71 14,69.8805385 14,68.4996732 C14,67.1194615 15.1189542,66 16.4993464,66 C17.8803922,66 19,67.1194615 19,68.4996732" id="Fill-1322" fill="#FFFFFE"></path>
            <path d="M35,68.4996732 C35,69.8805385 33.8803922,71 32.5,71 C31.1189542,71 30,69.8805385 30,68.4996732 C30,67.1194615 31.1189542,66 32.5,66 C33.8803922,66 35,67.1194615 35,68.4996732" id="Fill-1323" fill="#FFFFFE"></path>
            <path d="M51,68.4996732 C51,69.8805385 49.8808995,71 48.5003268,71 C47.1191005,71 46,69.8805385 46,68.4996732 C46,67.1194615 47.1191005,66 48.5003268,66 C49.8808995,66 51,67.1194615 51,68.4996732" id="Fill-1324" fill="#FFFFFE"></path>
            <path d="M27,78.4996732 C27,79.8808995 25.8803922,81 24.5,81 C23.1189542,81 22,79.8808995 22,78.4996732 C22,77.1184469 23.1189542,76 24.5,76 C25.8803922,76 27,77.1184469 27,78.4996732" id="Fill-1325" fill="#FFFFFE"></path>
            <path d="M42,78.4996732 C42,79.8808995 40.8803922,81 39.5,81 C38.1196078,81 37,79.8808995 37,78.4996732 C37,77.1184469 38.1196078,76 39.5,76 C40.8803922,76 42,77.1184469 42,78.4996732" id="Fill-1326" fill="#FFFFFE"></path>
            <path d="M12,57.5003268 C12,58.8808995 10.8803922,60 9.49934641,60 C8.11895425,60 7,58.8808995 7,57.5003268 C7,56.1197542 8.11895425,55 9.49934641,55 C10.8803922,55 12,56.1197542 12,57.5003268" id="Fill-1327" fill="#FFFFFE"></path>
            <path d="M27,57.5003268 C27,58.8808995 25.8808995,60 24.4996732,60 C23.1191005,60 22,58.8808995 22,57.5003268 C22,56.1197542 23.1191005,55 24.4996732,55 C25.8808995,55 27,56.1197542 27,57.5003268" id="Fill-1328" fill="#FFFFFE"></path>
            <path d="M43,57.5003268 C43,58.8808995 41.8808995,60 40.5003268,60 C39.1191005,60 38,58.8808995 38,57.5003268 C38,56.1197542 39.1191005,55 40.5003268,55 C41.8808995,55 43,56.1197542 43,57.5003268" id="Fill-1329" fill="#FFFFFE"></path>
            <path d="M58,57.5003268 C58,58.8808995 56.8810458,60 55.5006536,60 C54.1196078,60 53,58.8808995 53,57.5003268 C53,56.1197542 54.1196078,55 55.5006536,55 C56.8810458,55 58,56.1197542 58,57.5003268" id="Fill-1330" fill="#FFFFFE"></path>
            <path d="M19,68.4996732 C19,69.8805385 17.8803922,71 16.4993464,71 C15.1189542,71 14,69.8805385 14,68.4996732 C14,67.1194615 15.1189542,66 16.4993464,66 C17.8803922,66 19,67.1194615 19,68.4996732" id="Fill-1331" fill="#FFFFFE"></path>
            <path d="M35,68.4996732 C35,69.8805385 33.8803922,71 32.5,71 C31.1189542,71 30,69.8805385 30,68.4996732 C30,67.1194615 31.1189542,66 32.5,66 C33.8803922,66 35,67.1194615 35,68.4996732" id="Fill-1332" fill="#FFFFFE"></path>
            <path d="M51,68.4996732 C51,69.8805385 49.8808995,71 48.5003268,71 C47.1191005,71 46,69.8805385 46,68.4996732 C46,67.1194615 47.1191005,66 48.5003268,66 C49.8808995,66 51,67.1194615 51,68.4996732" id="Fill-1333" fill="#FFFFFE"></path>
            <path d="M27,78.4996732 C27,79.8808995 25.8803922,81 24.5,81 C23.1189542,81 22,79.8808995 22,78.4996732 C22,77.1184469 23.1189542,76 24.5,76 C25.8803922,76 27,77.1184469 27,78.4996732" id="Fill-1334" fill="#FFFFFE"></path>
            <path d="M42,78.4996732 C42,79.8808995 40.8803922,81 39.5,81 C38.1196078,81 37,79.8808995 37,78.4996732 C37,77.1184469 38.1196078,76 39.5,76 C40.8803922,76 42,77.1184469 42,78.4996732" id="Fill-1335" fill="#FFFFFE"></path>
        </g>
    </g>
</svg>