<?xml version="1.0" encoding="UTF-8"?>
<svg width="200px" height="200px" viewBox="0 0 200 200" version="1.1" xmlns="http://www.w3.org/2000/svg" xmlns:xlink="http://www.w3.org/1999/xlink">
    <!-- Generator: Sketch 56.3 (81716) - https://sketch.com -->
    <title>tie</title>
    <desc>Created with Sketch.</desc>
    <g id="tie" stroke="none" stroke-width="1" fill="none" fill-rule="evenodd">
        <g id="typeText" transform="translate(10.000000, 6.000000)" fill="#725F5F" fill-opacity="0.87" font-family="Roboto-Black, Roboto Black" font-size="17" font-weight="700">
            <g id="vegetable">
                <text>
                    <tspan x="0" y="16">clothing</tspan>
                </text>
            </g>
        </g>
        <g id="firstLetter" transform="translate(10.000000, 152.000000)">
            <g id="Group" transform="translate(0.000000, -5.000000)">
                <rect id="Rectangle" stroke="#979797" x="0.5" y="6.5" width="34" height="38"></rect>
                <text id="C" fill="#131313" font-family="Roboto-Bold, Roboto" font-size="43" font-weight="bold">
                    <tspan x="4.19897461" y="40">T</tspan>
                </text>
            </g>
        </g>
        <g id="nameText" transform="translate(104.000000, 161.000000)" fill="#454545" fill-opacity="0.87" font-family="Roboto-Black, Roboto Black" font-size="26" font-weight="700">
            <text id="Carrot">
                <tspan x="48.3076172" y="28">Tie</tspan>
            </text>
        </g>
        <g id="colorText" transform="translate(133.000000, 5.000000)" fill="#454545" fill-opacity="0.87" font-family="Roboto-Black, Roboto Black" font-size="18" font-weight="700">
            <text id="orange">
                <tspan x="5.01269531" y="17">purple</tspan>
            </text>
        </g>
        <g id="Group" transform="translate(60.000000, 20.000000)">
            <path d="M41.8407759,125.485845 C34.3187759,121.564845 26.4187759,118.574845 18.2857759,116.244845 C17.9417759,117.609845 17.5977759,118.994845 17.2447759,120.380845 C24.1407759,122.481845 30.8607759,125.461845 37.0647759,128.728845 C42.0177759,131.336845 46.8887759,134.235845 51.3977759,137.559845 C53.0167759,138.753845 54.6787759,139.980845 56.3077759,141.275845 C57.2577759,139.761845 58.1467759,138.194845 58.9867759,136.604845 C53.4947759,132.582845 47.9727759,128.680845 41.8407759,125.485845" id="Fill-1" fill="#8A619A"></path>
            <path d="M23.6017759,93.4918451 C28.5777759,94.4948451 33.4687759,95.9028451 38.2067759,97.7518451 C42.7817759,99.5328451 47.6907759,101.639845 52.1277759,104.275845 C51.7607759,102.689845 51.3977759,101.103845 51.0447759,99.5138451 C50.9867759,99.2558451 50.9247759,98.9938451 50.8727759,98.7358451 C50.8727759,98.7358451 50.8727759,98.7308451 50.8677759,98.7308451 C50.5907759,97.4888451 50.3137759,96.2468451 50.0417759,95.0008451 C46.9507759,93.3248451 43.7517759,91.8528451 40.4507759,90.6168451 C35.4937759,88.7628451 30.3257759,87.3728451 25.0867759,86.4948451 C24.7667759,88.0758451 24.4367759,89.6558451 24.0927759,91.2368451 C23.9307759,91.9868451 23.7687759,92.7418451 23.6017759,93.4918451" id="Fill-2" fill="#8A619A"></path>
            <path d="M29.0317759,62.5188451 C32.4177759,63.2588451 35.7417759,64.2768451 38.9607759,65.5898451 C40.9857759,66.4158451 43.0637759,67.3428451 45.0787759,68.3978451 C44.9117759,67.2428451 44.7497759,66.0868451 44.5967759,64.9308451 C39.7727759,62.2848451 34.7777759,60.0738451 29.5187759,58.4538451 C29.3657759,59.8108451 29.2037759,61.1618451 29.0317759,62.5188451" id="Fill-3" fill="#8A619A"></path>
            <path d="M29.8387759,49.0788451 C30.0347759,49.1128451 30.2357759,49.1408451 30.4357759,49.1508451 C31.2047759,49.1988451 32.0117759,49.0698451 32.8807759,48.8168451 C33.4257759,48.6588451 33.9507759,48.4728451 34.4667759,48.3008451 C34.4717759,48.2958451 34.4767759,48.2958451 34.4807759,48.2958451 C34.4857759,48.2908451 34.4907759,48.2908451 34.4957759,48.2908451 C35.1687759,47.9038451 35.9657759,47.7318451 36.8207759,47.6838451 L36.8687759,47.6838451 C36.8737759,47.6798451 36.8737759,47.6798451 36.8827759,47.6838451 C36.8827759,47.6838451 36.8827759,47.6838451 36.8877759,47.6838451 L36.8927759,47.6838451 C37.0647759,47.6648451 37.2367759,47.6558451 37.4137759,47.6558451 C39.7867759,45.2678451 41.7697759,42.5408451 43.2257759,39.4458451 C44.2527759,37.2588451 45.0407759,34.8988451 45.4417759,32.5108451 C45.6237759,31.4408451 45.6477759,30.3568451 45.6757759,29.2828451 C45.2937759,29.0488451 44.8827759,28.8478451 44.4437759,28.6758451 C44.2237759,28.5898451 44.0037759,28.5138451 43.7847759,28.4518451 C40.9047759,36.1458451 34.3087759,43.6198451 26.4857759,46.7098451 C26.7437759,47.0588451 27.0207759,47.3888451 27.3167759,47.6798451 C28.1197759,48.4728451 28.9507759,48.9068451 29.8387759,49.0788451" id="Fill-4" fill="#8A619A"></path>
            <path d="M20.0907759,13.8368451 C21.7097759,13.3968451 23.2287759,13.0438451 24.6567759,12.7628451 C20.5877759,10.0498451 16.2847759,8.2248451 11.5987759,7.5988451 C9.96077592,8.7548451 8.40377592,10.0738451 6.94677592,11.5488451 C6.94177592,11.5538451 6.93777592,11.5588451 6.93277592,11.5678451 C6.83777592,11.6638451 6.74177592,11.7588451 6.65177592,11.8548451 C10.9447759,11.3438451 15.4197759,12.0168451 19.1497759,14.0988451 C19.4607759,14.0088451 19.7757759,13.9228451 20.0907759,13.8368451" id="Fill-5" fill="#8A619A"></path>
            <path d="M53.1927759,16.3728451 C53.2357759,16.3918451 53.2797759,16.4108451 53.3227759,16.4308451 C53.8807759,16.6738451 54.4397759,16.9268451 54.9887759,17.1988451 C55.3957759,15.5608451 55.7817759,13.9178451 55.8397759,12.1458451 C55.8867759,10.5028451 55.7727759,8.8748451 55.5197759,7.2698451 C54.4837759,6.5578451 53.4127759,5.9088451 52.3147759,5.3208451 C53.4277759,8.8078451 53.9097759,12.8288451 53.1927759,16.3728451" id="Fill-6" fill="#8A619A"></path>
            <g id="background" transform="translate(1.408180, 0.788845)" fill="#683AAC">
                <path d="M72.8665961,97.995 C72.2175961,97.445 71.5485961,96.929 70.8605961,96.447 C64.7855961,97.66 57.5595961,94.001 53.3235961,90.152 C51.3985961,88.404 49.7745961,86.413 48.3845961,84.263 C48.7435961,86.174 49.1055961,88.084 49.4735961,89.99 C49.7405961,91.37 50.0175961,92.75 50.3045961,94.126 C50.3815961,94.513 50.4625961,94.894 50.5435961,95.282 L50.5435961,95.287 C50.9345961,97.135 51.3365961,98.978 51.7565961,100.822 C51.9475961,101.032 52.1385961,101.237 52.3395961,101.438 C54.6895961,103.864 57.4875961,105.851 60.6015961,107.284 C63.9355961,108.812 67.6085961,109.586 71.2715961,109.586 L71.2765961,109.586 C73.9365961,107.694 75.9475961,105.025 76.8925961,101.92 L76.8925961,101.915 C75.5655961,100.597 74.2995961,99.212 72.8665961,97.995" id="Fill-7"></path>
                <path d="M35.3655961,128.441 C28.9695961,125.003 22.4035961,122.491 15.6405961,120.365 C14.5125961,124.792 13.3005961,129.253 11.7475961,133.528 C14.1885961,138.457 17.0155961,143.204 20.5885961,147.24 C24.3805961,151.529 29.6485961,155.192 35.2505961,157.317 C40.8525961,155.192 46.1155961,151.529 49.9085961,147.24 C51.4985961,145.449 52.9415961,143.51 54.2635961,141.48 C52.4205961,139.89 50.5485961,138.328 48.5715961,136.876 C44.3445961,133.781 39.9835961,130.925 35.3655961,128.441" id="Fill-8"></path>
                <path d="M51.0215961,104.776 C49.7025961,103.95 48.3705961,103.133 46.9945961,102.398 C43.3935961,100.463 39.6685961,98.787 35.8525961,97.311 C31.3725961,95.578 26.7825961,94.159 22.1165961,93.061 C20.5455961,100.248 18.9115961,107.417 17.1065961,114.548 C17.0495961,114.768 16.9965961,114.987 16.9395961,115.207 C25.0345961,117.261 32.8915961,120.289 40.3755961,123.995 C46.4315961,126.995 52.6685961,130.428 58.2085961,134.593 C58.3955961,134.24 58.5725961,133.886 58.7485961,133.528 C56.5135961,127.372 54.9805961,120.829 53.3905961,114.548 C52.5685961,111.295 51.7805961,108.043 51.0215961,104.776" id="Fill-9"></path>
                <path d="M48.3795961,93.056 C48.1885961,92.186 48.0025961,91.317 47.8115961,90.448 C46.9855961,86.642 46.2255961,82.835 45.5385961,79.019 C45.5385961,79.015 45.5335961,79.015 45.5335961,79.01 C45.3995961,78.284 45.2705961,77.558 45.1465961,76.832 C44.6885961,74.21 44.2585961,71.578 43.8665961,68.947 L43.8665961,68.942 C41.7225961,67.724 39.5305961,66.582 37.2185961,65.594 C34.0715961,64.256 30.8475961,63.134 27.5615961,62.231 C26.5775961,69.916 25.3165961,77.558 23.7835961,85.18 C29.1945961,85.849 34.4955961,87.148 39.6545961,89.106 C42.6385961,90.238 45.5625961,91.551 48.3795961,93.056" id="Fill-10"></path>
                <path d="M28.6595961,33.145 C28.5925961,33.098 28.5215961,33.055 28.4495961,33.007 C26.1425961,31.493 23.5255961,30.461 21.0135961,32.195 C19.6145961,33.16 19.3125961,34.497 19.5855961,35.935 C19.6235961,36.154 19.6765961,36.374 19.7425961,36.594 C20.0435961,37.649 20.6025961,38.738 21.2045961,39.765 C21.4725961,40.224 21.7535961,40.663 22.0205961,41.088 C22.0495961,41.126 22.0735961,41.164 22.0975961,41.203 C22.2835961,41.489 22.4655961,41.771 22.6325961,42.034 C22.7995961,42.291 22.9565961,42.53 23.0955961,42.76 C23.3395961,43.156 23.5825961,43.581 23.8405961,44.011 C23.9505961,44.197 24.0605961,44.388 24.1795961,44.575 C24.3135961,44.794 24.4515961,45.019 24.5955961,45.233 C28.0295961,43.447 31.2295961,41.513 34.1335961,38.662 C37.4285961,35.433 40.0075961,31.67 42.0085961,27.558 C37.1705961,26.263 32.6855961,29.043 29.2905961,32.491 C29.1995961,32.582 29.1085961,32.677 29.0175961,32.768 C29.9115961,33.513 30.7275961,34.344 31.4445961,35.146 C31.4585961,35.166 31.4395961,35.199 31.4155961,35.18 C30.5795961,34.55 29.6485961,33.81 28.6595961,33.145" id="Fill-11"></path>
                <path d="M47.4195961,40.873 C47.5255961,40.519 47.6115961,40.166 47.6825961,39.803 C47.7205961,39.645 47.7495961,39.483 47.7735961,39.326 C47.8265961,39.03 47.8695961,38.733 47.9075961,38.433 C47.9735961,37.831 48.0125961,37.219 48.0215961,36.608 C48.0265961,36.288 48.0265961,35.973 48.0125961,35.653 C47.9885961,34.731 47.9025961,33.805 47.7685961,32.893 C47.1955961,31.35 46.2925961,29.998 45.0175961,29.009 C44.8075961,32.305 43.5175961,35.901 42.3195961,38.528 C40.8905961,41.666 38.8855961,44.527 36.3875961,46.876 C36.4975961,46.886 36.6115961,46.895 36.7265961,46.91 C36.7365961,46.91 36.7455961,46.915 36.7505961,46.915 L36.7555961,46.915 C38.3785961,47.034 39.9165961,47.445 41.3875961,47.321 C41.5595961,47.311 41.7315961,47.287 41.8985961,47.259 C42.8735961,47.087 43.8185961,46.638 44.7405961,45.668 C46.0545961,44.278 46.9135961,42.64 47.4195961,40.873" id="Fill-12"></path>
                <path d="M35.8005961,47.698 L35.7905961,47.698 C35.6465961,47.727 35.4985961,47.755 35.3555961,47.793 L35.3505961,47.793 C35.2075961,47.827 35.0735961,47.86 34.9305961,47.903 C33.8515961,48.195 32.7625961,48.615 31.6785961,48.94 C31.6735961,48.945 31.6685961,48.949 31.6635961,48.954 C31.6545961,48.964 31.6355961,48.959 31.6355961,48.949 C30.7275961,49.217 29.8255961,49.417 28.9365961,49.398 C28.7175961,51.968 28.4595961,54.533 28.1725961,57.092 C33.3215961,58.373 38.3545961,60.254 43.0065961,62.786 C42.4005961,58.11 41.8935961,53.415 41.4975961,48.701 C39.7305961,48.93 37.6915961,48.028 35.8005961,47.698" id="Fill-13"></path>
                <path d="M60.2725961,32.888 C56.8905961,35.424 53.1035961,36.331 49.1775961,36.56 C49.1395961,37.229 49.0675961,37.897 48.9525961,38.557 C49.8745961,38.638 50.7915961,38.657 51.7465961,38.652 C51.7895961,38.652 51.7945961,38.709 51.7565961,38.724 C50.8635961,39.03 49.8455961,39.249 48.8145961,39.311 C48.7765961,39.536 48.7235961,39.755 48.6665961,39.975 C49.6125961,40.209 50.5335961,40.61 51.3605961,41.107 C51.3985961,41.126 51.3745961,41.184 51.3315961,41.174 C50.3475961,40.945 49.3835961,40.868 48.4275961,40.859 C48.2265961,41.541 47.9835961,42.21 47.7015961,42.855 C47.5925961,43.113 47.4775961,43.366 47.3525961,43.615 C47.3525961,43.615 47.3525961,43.619 47.3485961,43.619 C52.6545961,43.018 57.5115961,47.54 62.7745961,45.826 C66.5095961,44.608 66.9875961,40.701 66.4385961,37.329 C66.1035961,35.285 65.7405961,33.398 65.7455961,31.412 C64.8195961,34.478 63.4005961,37.492 62.3735961,40.462 C62.2975961,40.677 61.9585961,40.648 61.9625961,40.405 C62.0205961,36.985 64.2695961,33.843 65.2345961,30.638 C65.9125961,28.389 66.1705961,26.067 66.0655961,23.756 C65.5455961,27.376 63.2855961,30.628 60.2725961,32.888" id="Fill-14"></path>
                <path d="M21.4725961,42.091 C19.4325961,42.225 17.4265961,42.487 15.4445961,43.175 C15.4115961,43.185 15.3915961,43.137 15.4205961,43.118 C17.0585961,42.053 18.9025961,41.308 20.7985961,41.131 C20.7935961,41.126 20.7885961,41.117 20.7835961,41.107 C19.2745961,40.845 17.8475961,40.047 16.7865961,38.915 C16.7195961,38.843 16.7865961,38.705 16.8875961,38.738 C17.8185961,39.044 18.7495961,39.273 19.6855961,39.469 C19.3655961,38.967 19.0555961,38.456 18.7685961,37.931 C18.5395961,37.506 18.3575961,37.066 18.2335961,36.618 C13.3765961,36.651 8.63859609,35.987 4.50259609,32.888 C3.42859609,32.09 2.45359609,31.159 1.61859609,30.137 C1.71359609,30.352 1.81359609,30.561 1.91859609,30.776 C3.59059609,34.062 5.35259609,37.253 3.80059609,40.916 C3.70459609,41.136 3.38559609,40.969 3.43259609,40.758 C4.00559609,38.084 3.09359609,35.725 1.93259609,33.408 C0.744596088,39.455 1.26959609,47.602 8.72959609,48.801 C13.9635961,49.642 17.8475961,44.579 22.8085961,44.049 C22.3745961,43.39 21.9255961,42.741 21.4725961,42.091" id="Fill-15"></path>
                <path d="M4.98959609,21.645 C7.67859609,17.241 11.7665961,15.168 16.4085961,13.712 C12.7505961,12.05 8.86359609,11.171 4.87959609,11.453 C4.46459609,11.892 4.06859609,12.346 3.68559609,12.814 C1.64659609,15.336 0.0995960876,18.297 0.0035960876,21.597 C-0.0774039124,24.625 1.21659609,27.395 3.21359609,29.582 C2.27759609,26.994 3.48059609,24.119 4.98959609,21.645" id="Fill-16"></path>
                <path d="M39.2525961,11.553 C43.3225961,12.289 47.2905961,13.54 51.0065961,15.249 C51.0165961,15.254 51.0305961,15.259 51.0405961,15.264 C51.2885961,13.626 51.5035961,11.993 51.4315961,10.283 C51.3505961,8.229 50.9875961,6.232 50.4245961,4.279 C44.8845961,1.409 38.6805961,0.043 32.3855961,5.68434189e-14 C24.6335961,0.052 17.0115961,2.121 10.6065961,6.519 C15.4635961,7.059 20.2685961,8.816 24.0125961,11.82 C32.4375961,10.259 37.4045961,11.219 39.2525961,11.553" id="Fill-17"></path>
                <path d="M59.5845961,20.9 C61.4615961,23.254 62.4595961,26.684 61.7145961,29.406 C63.6245961,27.247 64.8475961,24.544 64.7665961,21.597 C64.7375961,20.465 64.5375961,19.376 64.1985961,18.33 C63.9115961,17.428 63.5245961,16.558 63.0615961,15.727 C63.0565961,15.723 63.0565961,15.718 63.0565961,15.713 C62.1395961,14.051 60.9315961,12.532 59.6375961,11.171 C58.0175961,9.476 56.2655961,7.98 54.4115961,6.686 C54.7085961,8.358 54.8565961,10.053 54.8275961,11.773 C54.7985961,13.33 54.7175961,15.121 54.3785961,16.816 C56.3465961,17.852 58.1615961,19.123 59.5845961,20.9" id="Fill-18"></path>
            </g>
            <path d="M78.3007759,102.708845 C77.3557759,105.813845 75.3447759,108.482845 72.6847759,110.374845 L72.6797759,110.374845 C69.0167759,110.374845 65.3437759,109.600845 62.0097759,108.072845 C58.8957759,106.639845 56.0977759,104.652845 53.7477759,102.226845 C53.5467759,102.025845 53.3557759,101.820845 53.1647759,101.610845 C52.7447759,99.7668451 52.3427759,97.9238451 51.9517759,96.0758451 L51.9517759,96.0708451 C51.8707759,95.6828451 51.7897759,95.3018451 51.7127759,94.9148451 C51.4257759,93.5388451 51.1487759,92.1588451 50.8817759,90.7788451 C50.5137759,88.8728451 50.1517759,86.9628451 49.7927759,85.0518451 C51.1827759,87.2018451 52.8067759,89.1928451 54.7317759,90.9408451 C58.9677759,94.7898451 66.1937759,98.4488451 72.2687759,97.2358451 C72.9567759,97.7178451 73.6257759,98.2338451 74.2747759,98.7838451 C75.7077759,100.000845 76.9737759,101.385845 78.3007759,102.703845 L78.3007759,102.708845 Z M38.2067759,97.7518451 C33.4687759,95.9028451 28.5777759,94.4948451 23.6017759,93.4918451 C23.7687759,92.7418451 23.9307759,91.9868451 24.0927759,91.2368451 C24.4367759,89.6558451 24.7667759,88.0758451 25.0867759,86.4948451 C30.3257759,87.3728451 35.4937759,88.7628451 40.4507759,90.6168451 C43.7517759,91.8528451 46.9507759,93.3248451 50.0417759,95.0008451 C50.3137759,96.2468451 50.5907759,97.4888451 50.8677759,98.7308451 C50.8727759,98.7308451 50.8727759,98.7358451 50.8727759,98.7358451 C50.9247759,98.9938451 50.9867759,99.2558451 51.0447759,99.5138451 C51.3977759,101.103845 51.7607759,102.689845 52.1277759,104.275845 C47.6907759,101.639845 42.7817759,99.5328451 38.2067759,97.7518451 Z M54.7987759,115.336845 C56.3887759,121.617845 57.9217759,128.160845 60.1567759,134.316845 C59.9807759,134.674845 59.8037759,135.028845 59.6167759,135.381845 C54.0767759,131.216845 47.8397759,127.783845 41.7837759,124.783845 C34.2997759,121.077845 26.4427759,118.049845 18.3477759,115.995845 C18.4047759,115.775845 18.4577759,115.556845 18.5147759,115.336845 C20.3197759,108.205845 21.9537759,101.036845 23.5247759,93.8498451 C28.1907759,94.9478451 32.7807759,96.3668451 37.2607759,98.0998451 C41.0767759,99.5758451 44.8017759,101.251845 48.4027759,103.186845 C49.7787759,103.921845 51.1107759,104.738845 52.4297759,105.564845 C53.1887759,108.831845 53.9767759,112.083845 54.7987759,115.336845 Z M56.3077759,141.275845 C54.6787759,139.980845 53.0167759,138.753845 51.3977759,137.559845 C46.8887759,134.235845 42.0177759,131.336845 37.0647759,128.728845 C30.8607759,125.461845 24.1407759,122.481845 17.2447759,120.380845 C17.5977759,118.994845 17.9417759,117.609845 18.2857759,116.244845 C26.4187759,118.574845 34.3187759,121.564845 41.8407759,125.485845 C47.9727759,128.680845 53.4947759,132.582845 58.9867759,136.604845 C58.1467759,138.194845 57.2577759,139.761845 56.3077759,141.275845 Z M51.3167759,148.028845 C47.5237759,152.317845 42.2607759,155.980845 36.6587759,158.105845 C31.0567759,155.980845 25.7887759,152.317845 21.9967759,148.028845 C18.4237759,143.992845 15.5967759,139.245845 13.1557759,134.316845 C14.7087759,130.041845 15.9207759,125.580845 17.0487759,121.153845 C23.8117759,123.279845 30.3777759,125.791845 36.7737759,129.229845 C41.3917759,131.713845 45.7527759,134.569845 49.9797759,137.664845 C51.9567759,139.116845 53.8287759,140.678845 55.6717759,142.268845 C54.3497759,144.298845 52.9067759,146.237845 51.3167759,148.028845 Z M28.9697759,63.0198451 C32.2557759,63.9228451 35.4797759,65.0448451 38.6267759,66.3828451 C40.9387759,67.3708451 43.1307759,68.5128451 45.2747759,69.7308451 L45.2747759,69.7358451 C45.6667759,72.3668451 46.0967759,74.9988451 46.5547759,77.6208451 C46.6787759,78.3468451 46.8077759,79.0728451 46.9417759,79.7988451 C46.9417759,79.8038451 46.9467759,79.8038451 46.9467759,79.8078451 C47.6337759,83.6238451 48.3937759,87.4308451 49.2197759,91.2368451 C49.4107759,92.1058451 49.5967759,92.9748451 49.7877759,93.8448451 C46.9707759,92.3398451 44.0467759,91.0268451 41.0627759,89.8948451 C35.9037759,87.9368451 30.6027759,86.6378451 25.1917759,85.9688451 C26.7247759,78.3468451 27.9857759,70.7048451 28.9697759,63.0198451 Z M29.5187759,58.4538451 C34.7777759,60.0738451 39.7727759,62.2848451 44.5967759,64.9308451 C44.7497759,66.0868451 44.9117759,67.2428451 45.0787759,68.3978451 C43.0637759,67.3428451 40.9857759,66.4158451 38.9607759,65.5898451 C35.7417759,64.2768451 32.4177759,63.2588451 29.0317759,62.5188451 C29.2037759,61.1618451 29.3657759,59.8108451 29.5187759,58.4538451 Z M30.3447759,50.1868451 C31.2337759,50.2058451 32.1357759,50.0058451 33.0437759,49.7378451 C33.0437759,49.7478451 33.0627759,49.7528451 33.0717759,49.7428451 C33.0767759,49.7378451 33.0817759,49.7338451 33.0867759,49.7288451 C34.1707759,49.4038451 35.2597759,48.9838451 36.3387759,48.6918451 C36.4817759,48.6488451 36.6157759,48.6158451 36.7587759,48.5818451 L36.7637759,48.5818451 C36.9067759,48.5438451 37.0547759,48.5158451 37.1987759,48.4868451 L37.2087759,48.4868451 C39.0997759,48.8168451 41.1387759,49.7188451 42.9057759,49.4898451 C43.3017759,54.2038451 43.8087759,58.8988451 44.4147759,63.5748451 C39.7627759,61.0428451 34.7297759,59.1618451 29.5807759,57.8808451 C29.8677759,55.3218451 30.1257759,52.7568451 30.3447759,50.1868451 Z M27.3167759,47.6798451 C27.0207759,47.3888451 26.7437759,47.0588451 26.4857759,46.7098451 C34.3087759,43.6198451 40.9047759,36.1458451 43.7847759,28.4518451 C44.0037759,28.5138451 44.2237759,28.5898451 44.4437759,28.6758451 C44.8827759,28.8478451 45.2937759,29.0488451 45.6757759,29.2828451 C45.6477759,30.3568451 45.6237759,31.4408451 45.4417759,32.5108451 C45.0407759,34.8988451 44.2527759,37.2588451 43.2257759,39.4458451 C41.7697759,42.5408451 39.7867759,45.2678451 37.4137759,47.6558451 C37.2367759,47.6558451 37.0647759,47.6648451 36.8927759,47.6838451 L36.8877759,47.6838451 C36.8827759,47.6838451 36.8827759,47.6838451 36.8827759,47.6838451 C36.8737759,47.6798451 36.8737759,47.6798451 36.8687759,47.6838451 L36.8207759,47.6838451 C35.9657759,47.7318451 35.1687759,47.9038451 34.4957759,48.2908451 C34.4907759,48.2908451 34.4857759,48.2908451 34.4807759,48.2958451 C34.4767759,48.2958451 34.4717759,48.2958451 34.4667759,48.3008451 C33.9507759,48.4728451 33.4257759,48.6588451 32.8807759,48.8168451 C32.0117759,49.0698451 31.2047759,49.1988451 30.4357759,49.1508451 C30.2357759,49.1408451 30.0347759,49.1128451 29.8387759,49.0788451 C28.9507759,48.9068451 28.1197759,48.4728451 27.3167759,47.6798451 Z M25.5877759,45.3638451 C25.4687759,45.1768451 25.3587759,44.9858451 25.2487759,44.7998451 C24.9907759,44.3698451 24.7477759,43.9448451 24.5037759,43.5488451 C24.3647759,43.3188451 24.2077759,43.0798451 24.0407759,42.8228451 C23.8737759,42.5598451 23.6917759,42.2778451 23.5057759,41.9918451 C23.4817759,41.9528451 23.4577759,41.9148451 23.4287759,41.8768451 C23.1617759,41.4518451 22.8807759,41.0128451 22.6127759,40.5538451 C22.0107759,39.5268451 21.4517759,38.4378451 21.1507759,37.3828451 C21.0847759,37.1628451 21.0317759,36.9428451 20.9937759,36.7238451 C20.7207759,35.2858451 21.0227759,33.9488451 22.4217759,32.9838451 C24.9337759,31.2498451 27.5507759,32.2818451 29.8577759,33.7958451 C29.9297759,33.8438451 30.0007759,33.8868451 30.0677759,33.9338451 C31.0567759,34.5988451 31.9877759,35.3388451 32.8237759,35.9688451 C32.8477759,35.9878451 32.8667759,35.9548451 32.8527759,35.9348451 C32.1357759,35.1328451 31.3197759,34.3018451 30.4257759,33.5568451 C30.5167759,33.4658451 30.6077759,33.3708451 30.6987759,33.2798451 C34.0937759,29.8318451 38.5787759,27.0518451 43.4167759,28.3468451 C41.4157759,32.4588451 38.8367759,36.2218451 35.5417759,39.4508451 C32.6377759,42.3018451 29.4377759,44.2358451 26.0037759,46.0218451 C25.8597759,45.8078451 25.7217759,45.5828451 25.5877759,45.3638451 Z M10.1377759,49.5898451 C2.67777592,48.3908451 2.15277592,40.2438451 3.34077592,34.1968451 C4.50177592,36.5138451 5.41377592,38.8728451 4.84077592,41.5468451 C4.79377592,41.7578451 5.11277592,41.9248451 5.20877592,41.7048451 C6.76077592,38.0418451 4.99877592,34.8508451 3.32677592,31.5648451 C3.22177592,31.3498451 3.12177592,31.1408451 3.02677592,30.9258451 C3.86177592,31.9478451 4.83677592,32.8788451 5.91077592,33.6768451 C10.0467759,36.7758451 14.7847759,37.4398451 19.6417759,37.4068451 C19.7657759,37.8548451 19.9477759,38.2948451 20.1767759,38.7198451 C20.4637759,39.2448451 20.7737759,39.7558451 21.0937759,40.2578451 C20.1577759,40.0618451 19.2267759,39.8328451 18.2957759,39.5268451 C18.1947759,39.4938451 18.1277759,39.6318451 18.1947759,39.7038451 C19.2557759,40.8358451 20.6827759,41.6338451 22.1917759,41.8958451 C22.1967759,41.9058451 22.2017759,41.9148451 22.2067759,41.9198451 C20.3107759,42.0968451 18.4667759,42.8418451 16.8287759,43.9068451 C16.7997759,43.9258451 16.8197759,43.9738451 16.8527759,43.9638451 C18.8347759,43.2758451 20.8407759,43.0138451 22.8807759,42.8798451 C23.3337759,43.5298451 23.7827759,44.1788451 24.2167759,44.8378451 C19.2557759,45.3678451 15.3717759,50.4308451 10.1377759,49.5898451 Z M5.09377592,13.6028451 C5.47677592,13.1348451 5.87277592,12.6808451 6.28777592,12.2418451 C10.2717759,11.9598451 14.1587759,12.8388451 17.8167759,14.5008451 C13.1747759,15.9568451 9.08677592,18.0298451 6.39777592,22.4338451 C4.88877592,24.9078451 3.68577592,27.7828451 4.62177592,30.3708451 C2.62477592,28.1838451 1.33077592,25.4138451 1.41177592,22.3858451 C1.50777592,19.0858451 3.05477592,16.1248451 5.09377592,13.6028451 Z M6.93277592,11.5678451 C6.93777592,11.5588451 6.94177592,11.5538451 6.94677592,11.5488451 C8.40377592,10.0738451 9.96077592,8.7548451 11.5987759,7.5988451 C16.2847759,8.2248451 20.5877759,10.0498451 24.6567759,12.7628451 C23.2287759,13.0438451 21.7097759,13.3968451 20.0907759,13.8368451 C19.7757759,13.9228451 19.4607759,14.0088451 19.1497759,14.0988451 C15.4197759,12.0168451 10.9447759,11.3438451 6.65177592,11.8548451 C6.74177592,11.7588451 6.83777592,11.6638451 6.93277592,11.5678451 Z M33.7937759,0.788845102 C40.0887759,0.831845102 46.2927759,2.1978451 51.8327759,5.0678451 C52.3957759,7.0208451 52.7587759,9.0178451 52.8397759,11.0718451 C52.9117759,12.7818451 52.6967759,14.4148451 52.4487759,16.0528451 C52.4387759,16.0478451 52.4247759,16.0428451 52.4147759,16.0378451 C48.6987759,14.3288451 44.7307759,13.0778451 40.6607759,12.3418451 C38.8127759,12.0078451 33.8457759,11.0478451 25.4207759,12.6088451 C21.6767759,9.6048451 16.8717759,7.8478451 12.0147759,7.3078451 C18.4197759,2.9098451 26.0417759,0.840845102 33.7937759,0.788845102 Z M55.5197759,7.2698451 C55.7727759,8.8748451 55.8867759,10.5028451 55.8397759,12.1458451 C55.7817759,13.9178451 55.3957759,15.5608451 54.9887759,17.1988451 C54.4397759,16.9268451 53.8807759,16.6738451 53.3227759,16.4308451 C53.2797759,16.4108451 53.2357759,16.3918451 53.1927759,16.3728451 C53.9097759,12.8288451 53.4277759,8.8078451 52.3147759,5.3208451 C53.4127759,5.9088451 54.4837759,6.5578451 55.5197759,7.2698451 Z M61.0457759,11.9598451 C62.3397759,13.3208451 63.5477759,14.8398451 64.4647759,16.5018451 C64.4647759,16.5068451 64.4647759,16.5118451 64.4697759,16.5158451 C64.9327759,17.3468451 65.3197759,18.2168451 65.6067759,19.1188451 C65.9457759,20.1648451 66.1457759,21.2538451 66.1747759,22.3858451 C66.2557759,25.3328451 65.0327759,28.0358451 63.1227759,30.1948451 C63.8677759,27.4728451 62.8697759,24.0428451 60.9927759,21.6888451 C59.5697759,19.9118451 57.7547759,18.6408451 55.7867759,17.6048451 C56.1257759,15.9098451 56.2067759,14.1188451 56.2357759,12.5618451 C56.2647759,10.8418451 56.1167759,9.1468451 55.8197759,7.4748451 C57.6737759,8.7688451 59.4257759,10.2648451 61.0457759,11.9598451 Z M67.4737759,24.5448451 C67.5787759,26.8558451 67.3207759,29.1778451 66.6427759,31.4268451 C65.6777759,34.6318451 63.4287759,37.7738451 63.3707759,41.1938451 C63.3667759,41.4368451 63.7057759,41.4658451 63.7817759,41.2508451 C64.8087759,38.2808451 66.2277759,35.2668451 67.1537759,32.2008451 C67.1487759,34.1868451 67.5117759,36.0738451 67.8467759,38.1178451 C68.3957759,41.4898451 67.9177759,45.3968451 64.1827759,46.6148451 C58.9197759,48.3288451 54.0627759,43.8068451 48.7567759,44.4078451 C48.7607759,44.4078451 48.7607759,44.4038451 48.7607759,44.4038451 C48.8857759,44.1548451 49.0007759,43.9018451 49.1097759,43.6438451 C49.3917759,42.9988451 49.6347759,42.3298451 49.8357759,41.6478451 C50.7917759,41.6568451 51.7557759,41.7338451 52.7397759,41.9628451 C52.7827759,41.9728451 52.8067759,41.9148451 52.7687759,41.8958451 C51.9417759,41.3988451 51.0207759,40.9978451 50.0747759,40.7638451 C50.1317759,40.5438451 50.1847759,40.3248451 50.2227759,40.0998451 C51.2537759,40.0378451 52.2717759,39.8188451 53.1647759,39.5128451 C53.2027759,39.4978451 53.1977759,39.4408451 53.1547759,39.4408451 C52.1997759,39.4458451 51.2827759,39.4268451 50.3607759,39.3458451 C50.4757759,38.6858451 50.5477759,38.0178451 50.5857759,37.3488451 C54.5117759,37.1198451 58.2987759,36.2128451 61.6807759,33.6768451 C64.6937759,31.4168451 66.9537759,28.1648451 67.4737759,24.5448451 Z M44.0467759,26.9898451 C38.7357759,25.6098451 33.7557759,28.9858451 30.4307759,33.0648451 C30.3447759,33.1648451 30.2687759,33.2658451 30.1877759,33.3658451 C28.1337759,31.7178451 25.6737759,30.5578451 23.0327759,31.1688451 C20.2437759,31.8138451 19.1067759,34.1918451 19.4607759,36.5948451 C15.5297759,36.1938451 11.6127759,35.2908451 8.32277592,33.3418451 C4.39677592,30.0418451 6.00577592,23.9048451 9.55477592,20.4948451 C12.0907759,18.0488451 15.3007759,16.6448451 18.5767759,15.3988451 C18.7917759,15.3218451 19.0017759,15.2458451 19.2127759,15.1738451 C19.2557759,15.1548451 19.3027759,15.1408451 19.3457759,15.1258451 C19.6657759,15.0158451 19.9857759,14.9068451 20.3057759,14.8068451 C22.0537759,14.2378451 23.8207759,13.7748451 25.6027759,13.4068451 C25.8077759,13.3688451 26.0177759,13.3258451 26.2227759,13.2868451 C28.7687759,12.7908451 31.3477759,12.4898451 33.9367759,12.3508451 C33.9557759,12.3468451 33.9697759,12.3508451 33.9887759,12.3508451 C38.4257759,12.5858451 42.8197759,13.3108451 47.1087759,14.6488451 C48.8757759,15.3368451 50.6287759,16.0578451 52.3197759,16.8978451 C52.5487759,17.0078451 52.7687759,17.1228451 52.9927759,17.2418451 C53.5857759,17.5478451 54.1677759,17.8678451 54.7407759,18.2118451 C55.0037759,18.3698451 55.2667759,18.5268451 55.5287759,18.6938451 C56.1497759,19.0908451 56.7567759,19.5108451 57.3487759,19.9598451 C59.6127759,21.6788451 61.6037759,24.0578451 61.9047759,26.9898451 C62.1147759,29.0538451 60.8977759,31.7948451 59.3117759,33.3178451 C56.7037759,34.8698451 53.7047759,35.7588451 50.6147759,36.2648451 C50.6097759,34.9798451 50.4707759,33.7008451 50.1847759,32.4588451 C49.7597759,31.2648451 49.1147759,30.1758451 48.1927759,29.2678451 C47.6907759,28.7668451 47.1037759,28.3228451 46.4257759,27.9448451 C46.2107759,27.8258451 45.9857759,27.7108451 45.7527759,27.6058451 C45.6857759,27.5728451 45.6237759,27.5438451 45.5567759,27.5158451 C45.1267759,27.3288451 44.6967759,27.1758451 44.2667759,27.0568451 C44.1957759,27.0328451 44.1187759,27.0138451 44.0467759,26.9898451 Z M46.1487759,46.4568451 C45.2267759,47.4268451 44.2817759,47.8758451 43.3067759,48.0478451 C43.1397759,48.0758451 42.9677759,48.0998451 42.7957759,48.1098451 C41.3247759,48.2338451 39.7867759,47.8228451 38.1637759,47.7038451 L38.1587759,47.7038451 C38.1537759,47.7038451 38.1447759,47.6988451 38.1347759,47.6988451 C38.0197759,47.6838451 37.9057759,47.6748451 37.7957759,47.6648451 C40.2937759,45.3158451 42.2987759,42.4548451 43.7277759,39.3168451 C44.9257759,36.6898451 46.2157759,33.0938451 46.4257759,29.7978451 C47.7007759,30.7868451 48.6037759,32.1388451 49.1767759,33.6818451 C49.3107759,34.5938451 49.3967759,35.5198451 49.4207759,36.4418451 C49.4347759,36.7618451 49.4347759,37.0768451 49.4297759,37.3968451 C49.4207759,38.0078451 49.3817759,38.6198451 49.3157759,39.2218451 C49.2777759,39.5218451 49.2347759,39.8188451 49.1817759,40.1148451 C49.1577759,40.2718451 49.1287759,40.4338451 49.0907759,40.5918451 C49.0197759,40.9548451 48.9337759,41.3078451 48.8277759,41.6618451 C48.3217759,43.4288451 47.4627759,45.0668451 46.1487759,46.4568451 Z M78.6497759,101.304845 C77.3077759,99.5278451 75.5027759,98.0718451 73.5107759,96.9158451 C72.9137759,96.5668451 72.3017759,96.2428451 71.6817759,95.9508451 C71.2657759,95.9988451 70.8507759,96.0418451 70.4347759,96.0708451 L70.4297759,96.0708451 C68.0667759,96.2568451 65.7497759,96.1418451 63.3237759,95.3068451 C59.7697759,94.0838451 56.5317759,91.9108451 53.9287759,89.2118451 C52.1997759,87.4158451 50.7387759,85.4388451 49.4727759,83.3278451 C49.4677759,83.3278451 49.4677759,83.3228451 49.4677759,83.3228451 C48.6897759,79.1678451 47.9347759,75.0078451 47.1947759,70.8488451 C47.1087759,70.3708451 47.0277759,69.8978451 46.9417759,69.4248451 L46.9417759,69.4198451 C46.7357759,68.2448451 46.5307759,67.0758451 46.3257759,65.8998451 C46.2447759,65.4418451 46.1627759,64.9788451 46.0867759,64.5198451 C45.2077759,59.4808451 44.3577759,54.4288451 43.5217759,49.3848451 C43.5217759,49.3798451 43.5217759,49.3798451 43.5217759,49.3748451 C45.7997759,48.8018451 47.4427759,46.8678451 48.5277759,44.8568451 C48.5507759,44.8088451 48.5797759,44.7618451 48.5987759,44.7138451 C48.6367759,44.7188451 48.6797759,44.7238451 48.7177759,44.7278451 C52.8067759,45.2348451 57.5017759,48.0618451 61.7717759,48.0618451 C63.3567759,48.0618451 64.8797759,47.6748451 66.2947759,46.6338451 C70.9887759,43.1848451 68.2377759,37.0388451 67.5497759,32.1478451 C67.5027759,31.8188451 67.4637759,31.4938451 67.4407759,31.1788451 C67.5737759,30.6578451 67.6977759,30.1328451 67.7937759,29.6068451 C68.2757759,26.9998451 68.1517759,24.3728451 67.5257759,21.8368451 L67.5257759,21.8318451 C67.5257759,21.8318451 67.5257759,21.8318451 67.5257759,21.8268451 C67.4787759,21.3488451 67.3977759,20.8718451 67.2827759,20.3898451 C65.9837759,14.9398451 61.1547759,10.4978451 56.7567759,7.3848451 C56.3937759,7.1268451 56.0257759,6.8778451 55.6527759,6.6348451 C55.5627759,6.5728451 55.4717759,6.5148451 55.3767759,6.4528451 C54.3107759,5.7658451 53.2027759,5.1298451 52.0567759,4.5478451 C51.9087759,4.4658451 51.7607759,4.3948451 51.6127759,4.3228451 C48.6657759,2.8518451 45.4897759,1.7198451 42.2277759,0.984845102 C42.1697759,0.965845102 42.1127759,0.950845102 42.0507759,0.941845102 C39.3717759,0.282845102 36.5917759,-0.0181548979 33.7987759,-4.26325641e-14 C30.9997759,-0.0181548979 28.2197759,0.282845102 25.5407759,0.941845102 C25.4827759,0.950845102 25.4207759,0.965845102 25.3637759,0.984845102 C20.2007759,2.1448451 15.2617759,4.2988451 11.0787759,7.2168451 C10.9977759,7.2698451 10.9157759,7.3268451 10.8347759,7.3848451 C10.7867759,7.4178451 10.7347759,7.4558451 10.6867759,7.4898451 C8.86177592,8.7928451 6.96577592,10.3218451 5.28977592,12.0558451 C5.18977592,12.1608451 5.08477592,12.2698451 4.98877592,12.3748451 C2.79677592,14.7058451 1.01577592,17.3948451 0.303775923,20.3898451 C-0.0542240773,21.8898451 -0.0832240773,23.3648451 0.150775923,24.7838451 C0.150775923,24.8078451 0.155775923,24.8308451 0.155775923,24.8548451 L0.155775923,24.8598451 C0.169775923,25.7818451 0.270775923,26.7028451 0.470775923,27.6248451 C0.938775923,29.7698451 2.09477592,31.7608451 3.12677592,33.7718451 C1.03977592,39.1258451 1.45977592,45.5928451 6.47977592,49.2178451 C12.9077759,53.8648451 18.4287759,46.7098451 24.6377759,45.4968451 C24.6617759,45.5308451 24.6807759,45.5688451 24.7047759,45.6018451 C24.8717759,45.8738451 25.0387759,46.1518451 25.2107759,46.4288451 C25.3397759,46.6338451 25.4687759,46.8388451 25.6027759,47.0398451 C26.2517759,48.0188451 26.9917759,48.9408451 28.0097759,49.5418451 C28.5487759,49.8628451 29.1037759,50.0488451 29.6617759,50.1348451 C29.2517759,52.6228451 28.8357759,55.1108451 28.4107759,57.5988451 C28.3867759,57.7668451 28.3587759,57.9288451 28.3247759,58.0968451 L28.3247759,58.1008451 C28.0957759,59.4758451 27.8607759,60.8478451 27.6227759,62.2228451 C27.5987759,62.3608451 27.5747759,62.4998451 27.5507759,62.6388451 L27.5507759,62.6428451 C26.2227759,70.3658451 24.8427759,78.0748451 23.3907759,85.7678451 C23.3577759,85.9168451 23.3337759,86.0648451 23.3047759,86.2128451 C23.0137759,87.7358451 22.7227759,89.2548451 22.4307759,90.7788451 C22.2777759,91.5768451 22.1207759,92.3788451 21.9587759,93.1758451 C21.9397759,93.2768451 21.9157759,93.3818451 21.8967759,93.4818451 C20.5017759,100.368845 18.8867759,107.207845 17.1627759,114.013845 C17.0297759,114.543845 16.8907759,115.069845 16.7477759,115.599845 C16.7337759,115.665845 16.7187759,115.732845 16.6947759,115.799845 C16.3417759,117.161845 15.9637759,118.522845 15.5827759,119.888845 C15.5157759,120.136845 15.4437759,120.384845 15.3767759,120.638845 C14.2827759,124.539845 13.1557759,128.451845 12.2197759,132.387845 C12.1287759,132.764845 12.0437759,133.141845 11.9577759,133.518845 C12.0867759,133.833845 12.2107759,134.154845 12.3437759,134.469845 C12.4777759,134.789845 12.6117759,135.104845 12.7457759,135.414845 C14.9277759,140.544845 17.5167759,145.444845 21.1697759,149.895845 C23.8977759,153.224845 27.1447759,156.142845 30.9377759,158.205845 C31.6587759,158.597845 32.3797759,158.936845 33.1147759,159.228845 C34.2757759,159.691845 35.4557759,160.025845 36.6587759,160.250845 C37.8627759,160.025845 39.0377759,159.691845 40.1977759,159.228845 C40.9337759,158.936845 41.6547759,158.597845 42.3757759,158.205845 C46.1677759,156.142845 49.4157759,153.224845 52.1427759,149.895845 C53.8997759,147.756845 55.4047759,145.520845 56.7367759,143.195845 C56.9477759,142.836845 57.1527759,142.478845 57.3487759,142.115845 C58.2317759,140.511845 59.0347759,138.863845 59.7887759,137.191845 C59.9757759,136.776845 60.1617759,136.355845 60.3427759,135.935845 C60.4197759,135.763845 60.4907759,135.586845 60.5677759,135.414845 C60.8397759,134.789845 61.1027759,134.154845 61.3557759,133.518845 C61.2697759,133.141845 61.1837759,132.764845 61.0927759,132.387845 C59.6267759,126.225845 57.6967759,120.117845 56.1497759,114.013845 C55.5437759,111.611845 54.9457759,109.203845 54.3727759,106.792845 L54.3727759,106.787845 C54.2637759,106.352845 54.1627759,105.918845 54.0577759,105.483845 C53.8287759,104.518845 53.6047759,103.549845 53.3847759,102.584845 C55.8347759,105.359845 58.8527759,107.608845 62.3157759,109.094845 C64.9947759,110.245845 68.1187759,111.018845 71.2947759,111.253845 C71.9107759,111.300845 72.5317759,111.324845 73.1477759,111.329845 C73.7157759,111.018845 74.2507759,110.661845 74.7427759,110.268845 C76.9067759,108.540845 78.3487759,106.080845 78.8887759,103.281845 L78.8887759,103.277845 C78.9747759,102.827845 79.0417759,102.374845 79.0797759,101.911845 C78.9457759,101.705845 78.7977759,101.500845 78.6497759,101.304845 L78.6497759,101.304845 Z" id="Fill-19" fill="#0A0B09"></path>
        </g>
    </g>
</svg>