<?xml version="1.0" encoding="UTF-8"?>
<svg width="200px" height="200px" viewBox="0 0 200 200" version="1.1" xmlns="http://www.w3.org/2000/svg" xmlns:xlink="http://www.w3.org/1999/xlink">
    <!-- Generator: Sketch 56.3 (81716) - https://sketch.com -->
    <title>train</title>
    <desc>Created with Sketch.</desc>
    <g id="train" stroke="none" stroke-width="1" fill="none" fill-rule="evenodd">
        <g id="typeText" transform="translate(10.000000, 6.000000)" fill="#725F5F" fill-opacity="0.87" font-family="Roboto-Black, Roboto Black" font-size="17" font-weight="700">
            <g id="vegetable">
                <text>
                    <tspan x="0" y="16">toy</tspan>
                </text>
            </g>
        </g>
        <g id="firstLetter" transform="translate(10.000000, 152.000000)">
            <g id="Group" transform="translate(0.000000, -5.000000)">
                <rect id="Rectangle" stroke="#979797" x="0.5" y="6.5" width="34" height="38"></rect>
                <text id="C" fill="#131313" font-family="Roboto-Bold, Roboto" font-size="43" font-weight="bold">
                    <tspan x="4.19897461" y="40">T</tspan>
                </text>
            </g>
        </g>
        <g id="nameText" transform="translate(104.000000, 161.000000)" fill="#454545" fill-opacity="0.87" font-family="Roboto-Black, Roboto Black" font-size="26" font-weight="700">
            <text id="Carrot">
                <tspan x="24.1484375" y="28">Train</tspan>
            </text>
        </g>
        <g id="colorText" transform="translate(133.000000, 5.000000)" fill="#454545" fill-opacity="0.87" font-family="Roboto-Black, Roboto Black" font-size="18" font-weight="700">
            <text id="orange">
                <tspan x="30.2548828" y="17">red</tspan>
            </text>
        </g>
        <g transform="translate(6.000000, 62.000000)">
            <polygon id="Fill-196" fill="#E53935" points="124 61 137 61 137 58 124 58"></polygon>
            <path d="M134,62.2045376 C134,62.6425512 133.572583,63 133.048209,63 L131.955023,63 C131.429033,63 131,62.6425512 131,62.2036115 L131,55.72601 C131,55.3268897 131.391058,55 131.869378,55 L133.092647,55 C133.592782,55 134,55.3407802 134,55.7584211 L134,62.2045376 Z" id="Fill-197" fill="#E53935"></path>
            <polygon id="Fill-198" fill="#E53935" points="2 61 9 61 9 58 2 58"></polygon>
            <path d="M0,62.2045376 C0,62.6425512 0.427532328,63 0.951239224,63 L2.0471444,63 C2.57085129,63 3,62.6425512 3,62.2036115 L3,55.72601 C3,55.3268897 2.60883621,55 2.13200431,55 L0.909213362,55 C0.408135776,55 0,55.3407802 0,55.7584211 L0,62.2045376 Z" id="Fill-199" fill="#E53935"></path>
            <polygon id="Fill-200" fill="#E53935" points="175 61 182 61 182 58 175 58"></polygon>
            <path d="M184,62.2045376 C184,62.6425512 183.572583,63 183.048209,63 L181.953407,63 C181.429033,63 181,62.6425512 181,62.2036115 L181,55.72601 C181,55.3268897 181.391058,55 181.867762,55 L183.091032,55 C183.591166,55 184,55.3407802 184,55.7584211 L184,62.2045376 Z" id="Fill-201" fill="#E53935"></path>
            <polygon id="Fill-202" fill="#E53935" points="76 61 89 61 89 58 76 58"></polygon>
            <polygon id="Fill-203" fill="#E53935" points="27.492399 31 29 21 19 21 20.3384906 31"></polygon>
            <path d="M12.1056976,30.0073045 C12.0721116,30.0073045 12.0421566,30 12.0085706,30 C8.13801693,30 5,35.3697546 5,41.993152 C5,48.6183755 8.13801693,53.9899562 12.0085706,53.9899562 L12.0103861,53.9899562 L12.0103861,54 L48,54 L48,30.0073045 L12.1056976,30.0073045 Z" id="Fill-204" fill="#E53935"></path>
            <polygon id="Fill-205" fill="#FDD835" points="12.0535 54 12.9465 54 12.9465 30 12.0535 30"></polygon>
            <polygon id="Fill-206" fill="#7D3959" points="18 22 29 22 29 20 18 20"></polygon>
            <path d="M11.7481769,30 C9.3746653,30 7.28001393,31.978658 6,35 L48,35 L48,30.0072346 L11.8460065,30.0072346 C11.8121775,30.0072346 11.7820058,30 11.7481769,30" id="Fill-207" fill="#E53935"></path>
            <path d="M6,48 C7.24760584,51.5960591 9.43068856,53.9881773 11.9186203,53.9881773 L11.9204403,53.9881773 L11.9204403,54 L48,54 L48,48 L6,48 Z" id="Fill-208" fill="#E53935"></path>
            <path d="M73,10 C70.0654744,4.12821221 63.1124583,0 55.0009094,0 C46.8875417,0 39.9363443,4.12821221 37,10 L73,10 Z" id="Fill-209" fill="#B82525"></path>
            <polygon id="Fill-210" fill="#EF5350" points="38 55 72 55 72 13 38 13"></polygon>
            <path d="M72,54 L76,54 L76,34.3373324 C76,32.5019344 74.448828,31 72.5532606,31 L72,31 L72,54 Z" id="Fill-211" fill="#B82525"></path>
            <path d="M65,33.9060132 C65,35.0577521 64.0519963,36 62.8932219,36 L47.1513463,36 C45.9684308,36 45,35.037449 45,33.8607927 L45,19.0930639 C45,17.941325 45.9470752,17 47.1067781,17 L62.8932219,17 C64.0519963,17 65,17.941325 65,19.0930639 L65,33.9060132 Z" id="Fill-212" fill="#6D2C4B"></path>
            <path d="M63,32.1262852 C63,33.1560848 62.1942702,34 61.2090944,34 L48.7909056,34 C47.8057298,34 47,33.1560848 47,32.1262852 L47,19.8727854 C47,18.8429858 47.8057298,18 48.7909056,18 L61.2090944,18 C62.1942702,18 63,18.8429858 63,19.8727854 L63,32.1262852 Z" id="Fill-213" fill="#81D4FA"></path>
            <path d="M52.593819,34 C55.9757174,29.6706642 59.6454746,24.9769373 63,20.6881919 L63,19.9787823 C63,19.6180812 62.8966887,19.2850554 62.7280353,19 C58.9735099,23.7979705 54.7253863,29.2287823 51,34 L52.593819,34 Z" id="Fill-214" fill="#ECEFF1"></path>
            <path d="M57.3267191,19 L47,30.8622765 L47,32.4528235 C47,33.1166578 47.3843602,33.692866 47.9408627,34 L61,19 L57.3267191,19 Z" id="Fill-215" fill="#ECEFF1"></path>
            <polygon id="Fill-216" fill="#7986CB" points="37 14 74 14 74 9 37 9"></polygon>
            <path d="M79,62.0805259 C79,63.6863767 77.7289186,65 76.1750736,65 L9.23416578,65 C7.456278,65 6,63.4959154 6,61.6575897 L6,56.0529837 C6,54.3743095 7.32980224,53 8.95411232,53 L76.2943222,53 C77.7822191,53 79,54.2585389 79,55.797168 L79,62.0805259 Z" id="Fill-217" fill="#7986CB"></path>
            <path d="M31,65.4995443 C31,71.298902 26.5228303,76 20.999551,76 C15.4771697,76 11,71.298902 11,65.4995443 C11,59.7020095 15.4771697,55 20.999551,55 C26.5228303,55 31,59.7020095 31,65.4995443" id="Fill-218" fill="#6D2C4B"></path>
            <path d="M28,65.9990619 C28,69.8649156 25.0901844,73 21.5,73 C17.9098156,73 15,69.8649156 15,65.9990619 C15,62.1332083 17.9098156,59 21.5,59 C25.0901844,59 28,62.1332083 28,65.9990619" id="Fill-219" fill="#B82525"></path>
            <path d="M23,65.9989733 C23,67.1036961 22.3292618,68 21.5,68 C20.6707382,68 20,67.1036961 20,65.9989733 C20,64.8963039 20.6707382,64 21.5,64 C22.3292618,64 23,64.8963039 23,65.9989733" id="Fill-220" fill="#6D2C4B"></path>
            <path d="M67,65.4995443 C67,71.298902 62.5224283,76 56.998653,76 C51.4775717,76 47,71.298902 47,65.4995443 C47,59.7020095 51.4775717,55 56.998653,55 C62.5224283,55 67,59.7020095 67,65.4995443" id="Fill-221" fill="#6D2C4B"></path>
            <path d="M63,65.9990619 C63,69.8649156 60.0892832,73 56.4981977,73 C52.9098156,73 50,69.8649156 50,65.9990619 C50,62.1332083 52.9098156,59 56.4981977,59 C60.0892832,59 63,62.1332083 63,65.9990619" id="Fill-222" fill="#B82525"></path>
            <path d="M58,65.9989733 C58,67.1036961 57.3280255,68 56.4992038,68 C55.6703822,68 55,67.1036961 55,65.9989733 C55,64.8963039 55.6703822,64 56.4992038,64 C57.3280255,64 58,64.8963039 58,65.9989733" id="Fill-223" fill="#6D2C4B"></path>
            <path d="M84,62.2045376 C84,62.6425512 83.5725828,63 83.048209,63 L81.9534069,63 C81.4290331,63 81,62.6425512 81,62.2036115 L81,55.72601 C81,55.3268897 81.3910584,55 81.8677619,55 L83.0910315,55 C83.5911662,55 84,55.3407802 84,55.7584211 L84,62.2045376 Z" id="Fill-224" fill="#E53935"></path>
            <polygon id="Fill-225" fill="#EF5350" points="89 54 126 54 126 29 89 29"></polygon>
            <polygon id="Fill-226" fill="#E53935" points="95 54 102 54 102 29 95 29"></polygon>
            <polygon id="Fill-227" fill="#E53935" points="112 54 119 54 119 29 112 29"></polygon>
            <polygon id="Fill-228" fill="#B82525" points="86 29 128 29 128 24 86 24"></polygon>
            <path d="M126.258641,53 L87.9940693,53 C86.3468734,53 85,54.3742026 85,56.0527462 L85,61.6569161 C85,63.4950988 86.4759754,65 88.2788263,65 L126.136864,65 C127.712642,65 129,63.6846118 129,62.0807531 L129,55.7969504 C129,54.258441 127.765748,53 126.258641,53" id="Fill-229" fill="#7986CB"></path>
            <path d="M118,65.4995443 C118,71.298902 113.522428,76 107.998653,76 C102.477572,76 98,71.298902 98,65.4995443 C98,59.7020095 102.477572,55 107.998653,55 C113.522428,55 118,59.7020095 118,65.4995443" id="Fill-230" fill="#6D2C4B"></path>
            <path d="M114,65.9990619 C114,69.8649156 111.089283,73 107.498198,73 C103.909816,73 101,69.8649156 101,65.9990619 C101,62.1332083 103.909816,59 107.498198,59 C111.089283,59 114,62.1332083 114,65.9990619" id="Fill-231" fill="#B82525"></path>
            <path d="M109,65.9989733 C109,67.1036961 108.328025,68 107.499204,68 C106.670382,68 106,67.1036961 106,65.9989733 C106,64.8963039 106.670382,64 107.499204,64 C108.328025,64 109,64.8963039 109,65.9989733" id="Fill-232" fill="#6D2C4B"></path>
            <polygon id="Fill-233" fill="#EF5350" points="138 54 175 54 175 29 138 29"></polygon>
            <polygon id="Fill-234" fill="#E53935" points="146 54 153 54 153 29 146 29"></polygon>
            <polygon id="Fill-235" fill="#E53935" points="162 54 168 54 168 29 162 29"></polygon>
            <polygon id="Fill-236" fill="#B82525" points="136 29 178 29 178 24 136 24"></polygon>
            <path d="M176.258641,53 L137.994069,53 C136.346873,53 135,54.3742026 135,56.0527462 L135,61.6569161 C135,63.4950988 136.475975,65 138.278826,65 L176.136864,65 C177.712642,65 179,63.6846118 179,62.0807531 L179,55.7969504 C179,54.258441 177.765748,53 176.258641,53" id="Fill-237" fill="#7986CB"></path>
            <path d="M169,65.4995443 C169,71.298902 164.522428,76 158.998653,76 C153.477572,76 149,71.298902 149,65.4995443 C149,59.7020095 153.477572,55 158.998653,55 C164.522428,55 169,59.7020095 169,65.4995443" id="Fill-238" fill="#6D2C4B"></path>
            <path d="M165,65.9990619 C165,69.8649156 162.089283,73 158.498198,73 C154.909816,73 152,69.8649156 152,65.9990619 C152,62.1332083 154.909816,59 158.498198,59 C162.089283,59 165,62.1332083 165,65.9990619" id="Fill-239" fill="#B82525"></path>
            <path d="M160,65.9989733 C160,67.1036961 159.328025,68 158.499204,68 C157.670382,68 157,67.1036961 157,65.9989733 C157,64.8963039 157.670382,64 158.499204,64 C159.328025,64 160,64.8963039 160,65.9989733" id="Fill-240" fill="#6D2C4B"></path>
        </g>
    </g>
</svg>