<?xml version="1.0" encoding="UTF-8"?>
<svg width="195px" height="196px" viewBox="0 0 195 196" version="1.1" xmlns="http://www.w3.org/2000/svg" xmlns:xlink="http://www.w3.org/1999/xlink">
    <!-- Generator: Sketch 57.1 (83088) - https://sketch.com -->
    <title>bathroom</title>
    <desc>Created with Sketch.</desc>
    <g id="bathroom" stroke="none" stroke-width="1" fill="none" fill-rule="evenodd">
        <g id="Group-22" fill="#B091AB">
            <polygon id="Fill-15" points="0 151.554 195 151.554 195 0.505 0 0.505"></polygon>
        </g>
        <polygon id="Fill-14" fill="#D3CCB6" points="0 195.502 195 195.502 195 148.045 0 148.045"></polygon>
        <path d="M164.54,151.555 L165.46,151.555 L165.46,151.554 L164.54,151.554 L164.54,151.555 Z M149.54,151.555 L150.461,151.555 L150.461,151.554 L149.54,151.554 L149.54,151.555 Z M134.539,151.555 L135.461,151.555 L135.461,151.554 L134.539,151.554 L134.539,151.555 Z M119.539,151.555 L120.459,151.555 L120.459,151.554 L119.539,151.554 L119.539,151.555 Z M104.539,151.555 L105.46,151.555 L105.46,151.554 L104.539,151.554 L104.539,151.555 Z M89.54,151.555 L90.461,151.555 L90.461,151.554 L89.54,151.554 L89.54,151.555 Z M74.538,151.555 L75.459,151.555 L75.459,151.554 L74.538,151.554 L74.538,151.555 Z M59.539,151.555 L60.461,151.555 L60.461,151.554 L59.539,151.554 L59.539,151.555 Z M44.539,151.555 L45.46,151.555 L45.46,151.554 L44.539,151.554 L44.539,151.555 Z M29.54,151.555 L30.46,151.555 L30.46,151.554 L29.54,151.554 L29.54,151.555 Z" id="Fill-150" fill="#B5B09D"></path>
        <path d="M165.46,151.554 L164.54,151.554 L164.54,136.914 L150.461,136.914 L150.461,151.554 L149.54,151.554 L149.54,136.914 L135.461,136.914 L135.461,151.554 L134.539,151.554 L134.539,136.914 L120.459,136.914 L120.459,151.554 L119.539,151.554 L119.539,136.914 L105.46,136.914 L105.46,151.554 L104.539,151.554 L104.539,136.914 L90.461,136.914 L90.461,151.554 L89.54,151.554 L89.54,136.914 L75.459,136.914 L75.459,151.554 L74.538,151.554 L74.538,136.914 L60.461,136.914 L60.461,151.554 L59.539,151.554 L59.539,136.914 L45.46,136.914 L45.46,151.554 L44.539,151.554 L44.539,136.914 L30.46,136.914 L30.46,151.554 L29.54,151.554 L29.54,136.914 L15.463,136.914 L15.463,151.554 L14.538,151.554 L14.538,136.914 L0,136.914 L0,135.985 L14.538,135.985 L14.538,121.81 L0,121.81 L0,120.878 L14.538,120.878 L14.538,113.803 C14.804,114.171 15.115,114.504 15.463,114.794 L15.463,120.878 L29.54,120.878 L29.54,118.196 C29.863,118.069 30.171,117.911 30.46,117.726 L30.46,120.878 L44.539,120.878 L44.539,119.481 C44.836,119.594 45.143,119.697 45.46,119.787 L45.46,120.878 L59.539,120.878 L59.539,118.411 C59.825,118.634 60.133,118.83 60.461,118.993 L60.461,120.878 L74.538,120.878 L74.538,116.558 C74.831,116.701 75.139,116.819 75.459,116.907 L75.459,120.878 L89.54,120.878 L89.54,106.705 L82.198,106.705 C82.111,106.326 81.919,106.01 81.65,105.775 L89.54,105.775 L89.54,91.599 L75.459,91.599 L75.459,105.775 L78.812,105.775 C78.565,105.966 78.369,106.21 78.247,106.497 C77.813,106.383 77.357,106.323 76.887,106.323 C76.233,106.323 75.607,106.44 75.028,106.655 C74.914,106.226 74.748,105.818 74.538,105.439 L74.538,91.599 L60.461,91.599 L60.461,105.71 C60.42,105.926 60.398,106.151 60.398,106.385 C60.398,106.63 60.42,106.871 60.461,107.104 L60.461,109.325 C60.288,109.41 60.121,109.505 59.96,109.608 C59.861,109.196 59.721,108.807 59.539,108.447 L59.539,106.705 L57.918,106.705 C57.123,106.236 56.092,105.966 54.789,105.966 C53.799,105.966 52.872,106.236 52.077,106.705 L45.46,106.705 L45.46,108.809 C45.137,108.864 44.83,108.926 44.539,108.996 L44.539,106.705 L41.71,106.705 C41.547,106.378 41.345,106.066 41.111,105.775 L44.539,105.775 L44.539,91.599 L30.46,91.599 L30.46,100.373 C30.138,100.451 29.829,100.56 29.54,100.698 L29.54,91.599 L15.463,91.599 L15.463,105.775 L17.079,105.775 C16.015,106.02 15.149,106.575 14.538,107.366 L14.538,106.705 L0,106.705 L0,105.775 L14.538,105.775 L14.538,91.599 L0,91.599 L0,90.667 L14.538,90.667 L14.538,76.493 L0,76.493 L0,75.563 L14.538,75.563 L14.538,61.388 L0,61.388 L0,60.458 L14.538,60.458 L14.538,46.283 L0,46.283 L0,45.352 L14.538,45.352 L14.538,31.176 L0,31.176 L0,30.246 L14.538,30.246 L14.538,16.072 L0.396,16.072 C0.459,15.758 0.533,15.448 0.615,15.14 L14.538,15.14 L14.538,1.145 C14.843,1.06 15.149,0.987 15.463,0.922 L15.463,15.14 L29.54,15.14 L29.54,0.505 L30.46,0.505 L30.46,15.14 L44.539,15.14 L44.539,0.505 L45.46,0.505 L45.46,15.14 L59.539,15.14 L59.539,0.505 L60.461,0.505 L60.461,15.14 L74.538,15.14 L74.538,0.505 L75.459,0.505 L75.459,15.14 L89.54,15.14 L89.54,0.505 L90.461,0.505 L90.461,15.14 L104.539,15.14 L104.539,0.505 L105.46,0.505 L105.46,15.14 L119.539,15.14 L119.539,0.505 L120.459,0.505 L120.459,15.14 L134.539,15.14 L134.539,0.505 L135.461,0.505 L135.461,15.14 L149.54,15.14 L149.54,0.505 L150.461,0.505 L150.461,15.14 L164.54,15.14 L164.54,0.505 L165.46,0.505 L165.46,15.14 L179.539,15.14 L179.539,0.922 C179.851,0.987 180.159,1.06 180.462,1.145 L180.462,15.14 L194.391,15.14 C194.469,15.448 194.541,15.758 194.604,16.072 L180.462,16.072 L180.462,30.246 L195,30.246 L195,31.176 L180.462,31.176 L180.462,45.352 L195,45.352 L195,46.283 L180.462,46.283 L180.462,60.458 L195,60.458 L195,61.388 L180.462,61.388 L180.462,75.563 L195,75.563 L195,76.493 L180.462,76.493 L180.462,90.667 L195,90.667 L195,91.599 L180.462,91.599 L180.462,105.775 L195,105.775 L195,106.705 L180.462,106.705 L180.462,120.878 L195,120.878 L195,121.81 L180.462,121.81 L180.462,135.985 L195,135.985 L195,136.914 L180.462,136.914 L180.462,151.554 L179.539,151.554 L179.539,136.914 L165.46,136.914 L165.46,151.554 L165.46,151.554 Z M165.46,135.985 L179.539,135.985 L179.539,121.81 L165.46,121.81 L165.46,135.985 Z M150.461,135.985 L164.54,135.985 L164.54,121.81 L150.461,121.81 L150.461,135.985 Z M135.461,135.985 L149.54,135.985 L149.54,121.81 L135.461,121.81 L135.461,135.985 Z M120.459,135.985 L134.539,135.985 L134.539,121.81 L120.459,121.81 L120.459,135.985 Z M105.46,135.985 L119.539,135.985 L119.539,121.81 L105.46,121.81 L105.46,135.985 Z M90.461,135.985 L104.539,135.985 L104.539,121.81 L90.461,121.81 L90.461,135.985 Z M75.459,135.985 L89.54,135.985 L89.54,121.81 L75.459,121.81 L75.459,135.985 Z M60.461,135.985 L74.538,135.985 L74.538,121.81 L60.461,121.81 L60.461,135.985 Z M45.46,135.985 L59.539,135.985 L59.539,121.81 L45.46,121.81 L45.46,135.985 Z M30.46,135.985 L44.539,135.985 L44.539,121.81 L30.46,121.81 L30.46,135.985 Z M15.463,135.985 L29.54,135.985 L29.54,121.81 L15.463,121.81 L15.463,135.985 Z M165.46,120.878 L179.539,120.878 L179.539,106.705 L165.46,106.705 L165.46,120.878 Z M150.461,120.878 L164.54,120.878 L164.54,106.705 L150.461,106.705 L150.461,120.878 Z M135.461,120.878 L149.54,120.878 L149.54,106.705 L135.461,106.705 L135.461,120.878 Z M120.459,120.878 L134.539,120.878 L134.539,106.705 L120.459,106.705 L120.459,120.878 Z M105.46,120.878 L119.539,120.878 L119.539,106.705 L105.46,106.705 L105.46,120.878 Z M90.461,120.878 L104.539,120.878 L104.539,106.705 L90.461,106.705 L90.461,120.878 Z M165.46,105.775 L179.539,105.775 L179.539,91.599 L165.46,91.599 L165.46,105.775 Z M150.461,105.775 L164.54,105.775 L164.54,91.599 L150.461,91.599 L150.461,105.775 Z M135.461,105.775 L149.54,105.775 L149.54,91.599 L135.461,91.599 L135.461,105.775 Z M120.459,105.775 L134.539,105.775 L134.539,91.599 L120.459,91.599 L120.459,105.775 Z M105.46,105.775 L119.539,105.775 L119.539,91.599 L105.46,91.599 L105.46,105.775 Z M90.461,105.775 L104.539,105.775 L104.539,91.599 L90.461,91.599 L90.461,105.775 Z M45.46,105.775 L59.539,105.775 L59.539,91.599 L45.46,91.599 L45.46,105.775 Z M165.46,90.667 L179.539,90.667 L179.539,76.493 L165.46,76.493 L165.46,90.667 Z M150.461,90.667 L164.54,90.667 L164.54,76.493 L150.461,76.493 L150.461,90.667 Z M135.461,90.667 L149.54,90.667 L149.54,76.493 L135.461,76.493 L135.461,90.667 Z M120.459,90.667 L134.539,90.667 L134.539,76.493 L120.459,76.493 L120.459,90.667 Z M105.46,90.667 L119.539,90.667 L119.539,76.493 L105.46,76.493 L105.46,90.667 Z M90.461,90.667 L104.539,90.667 L104.539,76.493 L90.461,76.493 L90.461,90.667 Z M75.459,90.667 L89.54,90.667 L89.54,76.493 L75.459,76.493 L75.459,90.667 Z M60.461,90.667 L74.538,90.667 L74.538,76.493 L60.461,76.493 L60.461,90.667 Z M45.46,90.667 L59.539,90.667 L59.539,76.493 L45.46,76.493 L45.46,90.667 Z M30.46,90.667 L44.539,90.667 L44.539,76.493 L30.46,76.493 L30.46,90.667 Z M15.463,90.667 L29.54,90.667 L29.54,76.493 L15.463,76.493 L15.463,90.667 Z M165.46,75.563 L179.539,75.563 L179.539,61.388 L165.46,61.388 L165.46,75.563 Z M150.461,75.563 L164.54,75.563 L164.54,61.388 L150.461,61.388 L150.461,75.563 Z M135.461,75.563 L149.54,75.563 L149.54,61.388 L135.461,61.388 L135.461,75.563 Z M120.459,75.563 L134.539,75.563 L134.539,61.388 L120.459,61.388 L120.459,75.563 Z M105.46,75.563 L119.539,75.563 L119.539,61.388 L105.46,61.388 L105.46,75.563 Z M90.461,75.563 L104.539,75.563 L104.539,61.388 L90.461,61.388 L90.461,75.563 Z M75.459,75.563 L89.54,75.563 L89.54,61.388 L75.459,61.388 L75.459,75.563 Z M60.461,75.563 L74.538,75.563 L74.538,61.388 L60.461,61.388 L60.461,75.563 Z M45.46,75.563 L59.539,75.563 L59.539,61.388 L45.46,61.388 L45.46,75.563 Z M30.46,75.563 L44.539,75.563 L44.539,61.388 L30.46,61.388 L30.46,75.563 Z M15.463,75.563 L29.54,75.563 L29.54,61.388 L15.463,61.388 L15.463,75.563 Z M165.46,60.458 L179.539,60.458 L179.539,46.283 L165.46,46.283 L165.46,60.458 Z M150.461,60.458 L164.54,60.458 L164.54,46.283 L150.461,46.283 L150.461,60.458 Z M135.461,60.458 L149.54,60.458 L149.54,46.283 L135.461,46.283 L135.461,60.458 Z M120.459,60.458 L134.539,60.458 L134.539,46.283 L120.459,46.283 L120.459,60.458 Z M105.46,60.458 L119.539,60.458 L119.539,46.283 L105.46,46.283 L105.46,60.458 Z M90.461,60.458 L104.539,60.458 L104.539,46.283 L90.461,46.283 L90.461,60.458 Z M75.459,60.458 L89.54,60.458 L89.54,46.283 L75.459,46.283 L75.459,60.458 Z M60.461,60.458 L74.538,60.458 L74.538,46.283 L60.461,46.283 L60.461,60.458 Z M45.46,60.458 L59.539,60.458 L59.539,46.283 L45.46,46.283 L45.46,60.458 Z M30.46,60.458 L44.539,60.458 L44.539,46.283 L30.46,46.283 L30.46,60.458 Z M15.463,60.458 L29.54,60.458 L29.54,46.283 L15.463,46.283 L15.463,60.458 Z M165.46,45.352 L179.539,45.352 L179.539,31.176 L165.46,31.176 L165.46,45.352 Z M150.461,45.352 L164.54,45.352 L164.54,31.176 L150.461,31.176 L150.461,45.352 Z M135.461,45.352 L149.54,45.352 L149.54,31.176 L135.461,31.176 L135.461,45.352 Z M120.459,45.352 L134.539,45.352 L134.539,31.176 L120.459,31.176 L120.459,45.352 Z M105.46,45.352 L119.539,45.352 L119.539,31.176 L105.46,31.176 L105.46,45.352 Z M90.461,45.352 L104.539,45.352 L104.539,31.176 L90.461,31.176 L90.461,45.352 Z M75.459,45.352 L89.54,45.352 L89.54,31.176 L75.459,31.176 L75.459,45.352 Z M60.461,45.352 L74.538,45.352 L74.538,31.176 L60.461,31.176 L60.461,45.352 Z M45.46,45.352 L59.539,45.352 L59.539,31.176 L45.46,31.176 L45.46,45.352 Z M30.46,45.352 L44.539,45.352 L44.539,31.176 L30.46,31.176 L30.46,45.352 Z M15.463,45.352 L29.54,45.352 L29.54,31.176 L15.463,31.176 L15.463,45.352 Z M165.46,30.246 L179.539,30.246 L179.539,16.072 L165.46,16.072 L165.46,30.246 Z M150.461,30.246 L164.54,30.246 L164.54,16.072 L150.461,16.072 L150.461,30.246 Z M135.461,30.246 L149.54,30.246 L149.54,16.072 L135.461,16.072 L135.461,30.246 Z M120.459,30.246 L134.539,30.246 L134.539,16.072 L120.459,16.072 L120.459,30.246 Z M105.46,30.246 L119.539,30.246 L119.539,16.072 L105.46,16.072 L105.46,30.246 Z M90.461,30.246 L104.539,30.246 L104.539,16.072 L90.461,16.072 L90.461,30.246 Z M75.459,30.246 L89.54,30.246 L89.54,16.072 L75.459,16.072 L75.459,30.246 Z M60.461,30.246 L74.538,30.246 L74.538,16.072 L60.461,16.072 L60.461,30.246 Z M45.46,30.246 L59.539,30.246 L59.539,16.072 L45.46,16.072 L45.46,30.246 Z M30.46,30.246 L44.539,30.246 L44.539,16.072 L30.46,16.072 L30.46,30.246 Z M15.463,30.246 L29.54,30.246 L29.54,16.072 L15.463,16.072 L15.463,30.246 Z M28.444,106.705 L24.111,106.705 C24.222,106.45 24.284,106.168 24.284,105.871 C24.284,105.839 24.284,105.807 24.282,105.775 L27.812,105.775 C27.98,106.114 28.193,106.427 28.444,106.705 L28.444,106.705 Z M20.144,105.875 C20.007,105.837 19.869,105.804 19.73,105.775 L20.146,105.775 C20.144,105.807 20.144,105.839 20.144,105.871 C20.144,105.872 20.144,105.874 20.144,105.875 L20.144,105.875 Z" id="Fill-151" fill="#987E94"></path>
        <path d="M24.248,110.642 C24.248,113.618 21.847,116.033 18.885,116.033 C15.922,116.033 13.519,113.618 13.519,110.642 C13.519,107.666 15.41,105.633 18.372,105.633 C21.334,105.633 24.248,107.666 24.248,110.642" id="Fill-2446" fill="#B2CAC2"></path>
        <path d="M42.201,111 C42.201,113.975 39.798,116.388 36.836,116.388 C33.875,116.388 31.472,113.975 31.472,111 C31.472,108.023 33.875,105.61 36.836,105.61 C39.798,105.61 42.201,108.023 42.201,111" id="Fill-2447" fill="#B2CAC2"></path>
        <path d="M42.201,108.769 C42.201,111.747 39.305,114.158 35.735,114.158 C32.166,114.158 29.273,111.747 29.273,108.769 C29.273,105.793 32.166,103.38 35.735,103.38 C39.305,103.38 42.201,105.793 42.201,108.769" id="Fill-2448" fill="#B2CAC2"></path>
        <path d="M60.154,111.355 C60.154,114.332 57.751,116.745 54.789,116.745 C51.826,116.745 49.425,114.332 49.425,111.355 C49.425,108.381 51.826,105.966 54.789,105.966 C58.689,105.966 60.154,108.381 60.154,111.355" id="Fill-2449" fill="#B2CAC2"></path>
        <path d="M82.251,111.712 C82.251,114.69 79.85,117.1 76.887,117.1 C73.925,117.1 71.521,114.69 71.521,111.712 C71.521,108.735 73.925,106.323 76.887,106.323 C79.85,106.323 82.251,108.735 82.251,111.712" id="Fill-2450" fill="#B2CAC2"></path>
        <path d="M75.211,108.055 C75.211,111.03 72.809,113.443 69.846,113.443 C66.883,113.443 64.481,111.03 64.481,108.055 C64.481,105.077 65.639,102.665 69.846,102.665 C72.809,102.665 75.211,105.077 75.211,108.055" id="Fill-2451" fill="#B2CAC2"></path>
        <path d="M55.178,114.511 C55.178,117.837 53.957,120.27 48.991,120.27 C44.027,120.27 40.001,117.575 40.001,114.246 C40.001,110.922 41.895,109.096 46.84,108.631 C50.932,108.249 55.178,111.185 55.178,114.511" id="Fill-2452" fill="#B2CAC2"></path>
        <path d="M68.199,114.158 C68.199,117.136 65.8,119.548 62.836,119.548 C59.873,119.548 57.472,117.136 57.472,114.158 C57.472,111.183 59.873,108.769 62.836,108.769 C65.8,108.769 68.199,111.183 68.199,114.158" id="Fill-2453" fill="#B2CAC2"></path>
        <path d="M32.944,113.176 C32.944,116.155 30.543,118.568 27.578,118.568 C24.614,118.568 22.215,116.155 22.215,113.176 C22.215,110.201 24.614,107.788 27.578,107.788 C30.543,107.788 32.944,110.201 32.944,113.176" id="Fill-2454" fill="#B2CAC2"></path>
        <path d="M35.558,103.951 C35.558,106.216 33.728,108.055 31.472,108.055 C29.216,108.055 27.388,106.216 27.388,103.951 C27.388,101.685 29.406,100.232 31.662,100.232 C33.918,100.232 35.558,101.685 35.558,103.951" id="Fill-2455" fill="#B2CAC2"></path>
        <path d="M64.574,109.058 C64.029,108.871 63.444,108.769 62.836,108.769 C62.311,108.769 61.803,108.845 61.323,108.986 C60.889,108.454 60.585,107.81 60.461,107.104 L60.461,106.705 L64.574,106.705 C64.51,107.137 64.481,107.589 64.481,108.055 C64.481,108.398 64.513,108.733 64.574,109.058 M64.78,105.775 L60.461,105.775 L60.461,105.71 C60.817,103.835 62.649,102.665 64.672,102.665 C65.514,102.665 66.27,102.868 66.886,103.24 C65.767,103.783 65.116,104.678 64.78,105.775" id="Fill-2456" fill="#E5DCD7"></path>
        <path d="M60.461,107.104 C60.42,106.871 60.398,106.63 60.398,106.385 C60.398,106.151 60.42,105.926 60.461,105.71 L60.461,105.775 L64.78,105.775 C64.69,106.071 64.622,106.382 64.574,106.705 L60.461,106.705 L60.461,107.104" id="Fill-2457" fill="#DFD7D1"></path>
        <path d="M66.313,110.055 C65.806,109.621 65.218,109.279 64.574,109.058 C64.513,108.733 64.481,108.398 64.481,108.055 C64.481,107.589 64.51,107.137 64.574,106.705 C64.622,106.382 64.69,106.071 64.78,105.775 C65.116,104.678 65.767,103.783 66.886,103.24 C67.922,103.864 68.565,104.965 68.565,106.385 C68.565,107.99 67.649,109.38 66.313,110.055" id="Fill-2458" fill="#E5E9DC"></path>
        <path d="M64.481,110.49 C63.209,110.49 62.072,109.904 61.323,108.986 C61.803,108.845 62.311,108.769 62.836,108.769 C63.444,108.769 64.029,108.871 64.574,109.058 C65.218,109.279 65.806,109.621 66.313,110.055 C65.762,110.333 65.14,110.49 64.481,110.49" id="Fill-2459" fill="#E5E9DC"></path>
        <path d="M45.857,117.088 C43.602,117.088 41.773,115.252 41.773,112.985 C41.773,110.72 43.793,109.266 46.048,109.266 C48.304,109.266 49.941,110.72 49.941,112.985 C49.941,115.252 48.115,117.088 45.857,117.088" id="Fill-2460" fill="#E5E9DC"></path>
        <path d="M38.931,104.083 C37.988,103.636 36.897,103.38 35.735,103.38 C35.664,103.38 35.592,103.381 35.522,103.383 C35.439,102.75 35.219,102.195 34.889,101.734 C35.011,101.725 35.135,101.721 35.259,101.721 C37.026,101.721 38.411,102.61 38.931,104.083" id="Fill-2461" fill="#E5DCD7"></path>
        <path d="M35.068,109.543 C33.79,109.543 32.65,108.954 31.901,108.033 C33.955,107.817 35.558,106.071 35.558,103.951 C35.558,103.756 35.545,103.566 35.522,103.383 C35.592,103.381 35.664,103.38 35.735,103.38 C36.897,103.38 37.988,103.636 38.931,104.083 C39.075,104.493 39.152,104.948 39.152,105.441 C39.152,107.705 37.324,109.543 35.068,109.543" id="Fill-2462" fill="#E5E9DC"></path>
        <path d="M31.901,108.033 C31.327,107.326 30.982,106.423 30.982,105.441 C30.982,103.298 32.787,101.883 34.889,101.734 C35.219,102.195 35.439,102.75 35.522,103.383 C35.545,103.566 35.558,103.756 35.558,103.951 C35.558,106.071 33.955,107.817 31.901,108.033" id="Fill-2463" fill="#E5E9DC"></path>
        <path d="M20.164,116.388 C19.557,116.388 18.98,116.255 18.462,116.016 C18.602,116.027 18.742,116.033 18.885,116.033 C20.243,116.033 21.483,115.525 22.428,114.688 C22.508,114.962 22.608,115.226 22.727,115.48 C22.027,116.048 21.135,116.388 20.164,116.388" id="Fill-2464" fill="#E5DCD7"></path>
        <path d="M18.885,116.033 C18.742,116.033 18.602,116.027 18.462,116.016 C17.057,115.368 16.081,113.942 16.081,112.286 C16.081,110.022 18.1,108.565 20.354,108.565 C21.617,108.565 22.685,109.021 23.382,109.82 C22.651,110.74 22.215,111.907 22.215,113.176 C22.215,113.701 22.289,114.208 22.428,114.688 C21.483,115.525 20.243,116.033 18.885,116.033" id="Fill-2465" fill="#E5E9DC"></path>
        <path d="M22.727,115.48 C22.608,115.226 22.508,114.962 22.428,114.688 C22.289,114.208 22.215,113.701 22.215,113.176 C22.215,111.907 22.651,110.74 23.382,109.82 C23.93,110.448 24.248,111.289 24.248,112.286 C24.248,113.577 23.655,114.728 22.727,115.48" id="Fill-2466" fill="#E5E9DC"></path>
        <path d="M81.43,108.845 C80.829,107.886 79.936,107.131 78.876,106.705 L82.198,106.705 C82.233,106.856 82.251,107.018 82.251,107.188 C82.251,107.864 81.929,108.465 81.43,108.845 M81.65,105.775 L78.812,105.775 C79.206,105.47 79.728,105.3 80.276,105.3 C80.825,105.3 81.302,105.47 81.65,105.775" id="Fill-2467" fill="#E5DCD7"></path>
        <path d="M82.198,106.705 L78.876,106.705 C78.672,106.623 78.462,106.554 78.247,106.497 C78.369,106.21 78.565,105.966 78.812,105.775 L81.65,105.775 C81.919,106.01 82.111,106.326 82.198,106.705" id="Fill-2468" fill="#DFD7D1"></path>
        <path d="M80.182,109.266 C79.037,109.266 78.11,108.334 78.11,107.188 C78.11,106.937 78.159,106.706 78.247,106.497 C78.462,106.554 78.672,106.623 78.876,106.705 C79.936,107.131 80.829,107.886 81.43,108.845 C81.083,109.109 80.65,109.266 80.182,109.266" id="Fill-2469" fill="#E5E9DC"></path>
        <path d="M73.924,104.553 C73.067,103.546 71.846,102.86 70.466,102.701 C70.868,102.355 71.424,102.16 72.012,102.16 C73.156,102.16 73.986,102.897 73.986,104.046 C73.986,104.221 73.965,104.39 73.924,104.553" id="Fill-2470" fill="#E5DCD7"></path>
        <path d="M71.917,106.126 C70.772,106.126 69.846,105.193 69.846,104.046 C69.846,103.488 70.087,103.027 70.466,102.701 C71.846,102.86 73.067,103.546 73.924,104.553 C73.699,105.455 72.886,106.126 71.917,106.126" id="Fill-2471" fill="#E5E9DC"></path>
        <path d="M55.178,110.58 C54.035,110.58 53.106,109.651 53.106,108.501 C53.106,107.354 54.131,106.614 55.273,106.614 C56.418,106.614 57.247,107.354 57.247,108.501 C57.247,109.651 56.322,110.58 55.178,110.58" id="Fill-2472" fill="#E5E9DC"></path>
        <path d="M23.15,107.726 C22.818,107.337 22.424,106.995 21.986,106.705 L24.111,106.705 C23.918,107.147 23.576,107.509 23.15,107.726 M24.282,105.775 L20.146,105.775 C20.202,104.68 21.199,103.984 22.309,103.984 C23.423,103.984 24.237,104.68 24.282,105.775" id="Fill-2473" fill="#E5DCD7"></path>
        <path d="M24.111,106.705 L21.986,106.705 C21.431,106.339 20.804,106.057 20.144,105.875 C20.144,105.874 20.144,105.872 20.144,105.871 C20.144,105.839 20.144,105.807 20.146,105.775 L24.282,105.775 C24.284,105.807 24.284,105.839 24.284,105.871 C24.284,106.168 24.222,106.45 24.111,106.705" id="Fill-2474" fill="#DFD7D1"></path>
        <path d="M22.215,107.95 C21.071,107.95 20.145,107.02 20.144,105.875 C20.804,106.057 21.431,106.339 21.986,106.705 C22.424,106.995 22.818,107.337 23.15,107.726 C22.869,107.87 22.551,107.95 22.215,107.95" id="Fill-2475" fill="#E5E9DC"></path>
        <path d="M39.152,113.696 C38.951,113.696 38.757,113.667 38.573,113.613 C39.16,113.374 39.697,113.062 40.168,112.693 C40.107,112.949 40.063,113.217 40.036,113.498 C39.768,113.625 39.468,113.696 39.152,113.696" id="Fill-2476" fill="#E5E9DC"></path>
        <path d="M38.573,113.613 C37.712,113.361 37.083,112.563 37.083,111.616 C37.083,110.467 38.107,109.73 39.25,109.73 C40.112,109.73 40.797,110.15 41.081,110.849 C40.634,111.373 40.336,111.987 40.168,112.693 C39.697,113.062 39.16,113.374 38.573,113.613" id="Fill-2477" fill="#E5E9DC"></path>
        <path d="M40.036,113.498 C40.063,113.217 40.107,112.949 40.168,112.693 C40.336,111.987 40.634,111.373 41.081,110.849 C41.174,111.077 41.224,111.334 41.224,111.616 C41.224,112.448 40.738,113.165 40.036,113.498" id="Fill-2478" fill="#E5E9DC"></path>
        <path d="M175.938,130.002 C171.641,130.002 168.338,130.002 165.137,130.002 C161.936,130.002 158.632,130.002 154.333,130.002 C154.333,130.449 154.339,130.873 154.344,131.292 L175.93,131.292 C175.934,130.873 175.938,130.449 175.938,130.002" id="Fill-2479" fill="#B8B5A1"></path>
        <path d="M175.93,131.292 L154.344,131.292 C154.462,140.185 155.846,143.353 159.451,145.584 L159.14,151.405 L171.131,151.405 L170.822,145.584 C174.43,143.353 175.811,140.185 175.93,131.292" id="Fill-2480" fill="#D5D3C1"></path>
        <path d="M145.188,106.575 C145.188,107.599 144.354,108.435 143.33,108.435 C142.302,108.435 141.471,107.599 141.471,106.575 C141.471,105.549 142.302,104.717 143.33,104.717 C144.354,104.717 145.188,105.549 145.188,106.575" id="Fill-2481" fill="#5A5955"></path>
        <path d="M145.905,108.969 L145.905,116.564 C146.546,116.564 147.066,114.864 147.066,112.767 C147.066,110.669 146.546,108.969 145.905,108.969" id="Fill-2482" fill="#B8B5A1"></path>
        <polyline id="Fill-2485" fill="#555552" points="115.562 95.379 115.079 94.899 116.052 93.924 116.534 94.408 115.562 95.379"></polyline>
        <polyline id="Fill-2486" fill="#555552" points="110.204 95.379 110.687 94.899 109.713 93.924 109.23 94.408 110.204 95.379"></polyline>
        <path d="M114.144,88.938 C114.144,88.505 113.792,88.154 113.36,88.154 L112.406,88.154 C111.975,88.154 111.623,88.505 111.623,88.938 L111.623,90.899 L114.144,90.899 L114.144,88.938" id="Fill-2487" fill="#5A5955"></path>
        <polygon id="Fill-2488" fill="#5A5955" points="111.623 96.95 114.144 96.95 114.144 90.899 111.623 90.899"></polygon>
        <path d="M11.074,118.568 C11.703,127.279 15.393,136.114 18.526,140.4 C20.561,143.177 23.427,145.243 28.425,145.243 C30.291,145.243 38.314,145.243 47.637,145.243 C56.957,145.243 64.98,145.243 66.845,145.243 C71.845,145.243 74.712,143.177 76.743,140.4 C79.877,136.114 83.566,127.279 84.195,118.568 L11.074,118.568" id="Fill-2489" fill="#D5D3C1"></path>
        <path d="M84.413,112.286 L10.858,112.286 C8.787,112.286 8.582,113.962 8.582,116.033 C11.168,116.033 29.379,116.033 47.637,116.033 C65.893,116.033 84.103,116.033 86.689,116.033 C86.689,113.962 86.482,112.286 84.413,112.286" id="Fill-2490" fill="#F4F1E5"></path>
        <path d="M84.199,118.533 C84.225,118.161 84.244,117.789 84.261,117.417 L84.27,117.2 C84.282,116.809 84.293,116.422 84.293,116.033 C83.307,116.033 59.992,116.033 47.637,116.033 C31.626,116.033 15.302,116.033 10.979,116.033 C10.979,116.871 11.014,117.72 11.074,118.568 L79.492,118.568 C78.836,126.651 75.298,134.943 73.201,137.807 C72.044,139.391 70.474,140.854 66.845,140.854 L21.576,140.854 C20.232,140.854 18.965,140.246 17.839,139.401 C18.072,139.754 18.301,140.09 18.526,140.4 C20.561,143.177 23.427,145.243 28.425,145.243 C30.291,145.243 38.314,145.243 47.637,145.243 C56.957,145.243 64.98,145.243 66.845,145.243 C71.845,145.243 74.712,143.177 76.743,140.4 C79.877,136.114 83.566,127.279 84.195,118.568 L84.199,118.533" id="Fill-2491" fill="#B8B5A1"></path>
        <path d="M66.007,150.519 L65,150.519 L65,143.44 C65,143.156 64.771,142.924 64.486,142.924 L61.86,142.924 C61.574,142.924 61.346,143.156 61.346,143.44 C61.346,143.508 62.637,148.824 63.047,150.519 L62.184,150.519 C61.9,150.519 61.672,150.75 61.672,151.032 C61.672,151.317 61.9,151.548 62.184,151.548 L66.007,151.548 C66.289,151.548 66.52,151.317 66.52,151.032 C66.52,150.75 66.289,150.519 66.007,150.519" id="Fill-2492" fill="#383733"></path>
        <path d="M28.091,150.519 L29.098,150.519 L29.098,143.44 C29.098,143.156 29.328,142.924 29.611,142.924 L32.237,142.924 C32.521,142.924 32.752,143.156 32.752,143.44 C32.752,143.508 31.461,148.824 31.049,150.519 L31.912,150.519 C32.197,150.519 32.426,150.75 32.426,151.032 C32.426,151.317 32.197,151.548 31.912,151.548 L28.091,151.548 C27.809,151.548 27.578,151.317 27.578,151.032 C27.578,150.75 27.809,150.519 28.091,150.519" id="Fill-2493" fill="#383733"></path>
        <path d="M129.687,98.952 C129.486,98.242 128.598,96.95 127.305,96.95 L98.461,96.95 C97.168,96.95 96.281,98.242 96.08,98.952 C95.879,99.665 96.182,100.028 96.994,100.028 L128.772,100.028 C129.585,100.028 129.888,99.665 129.687,98.952" id="Fill-2494" fill="#F4F1E5"></path>
        <polyline id="Fill-2495" fill="#383733" points="114.554 114.049 111.213 114.049 110.915 112.16 114.851 112.16 114.554 114.049"></polyline>
        <polygon id="Fill-2496" fill="#4D4C44" points="111.623 117.401 114.144 117.401 114.144 114.049 111.623 114.049"></polygon>
        <path d="M115.221,118.43 C115.148,117.81 114.764,117.401 114.192,117.401 L111.575,117.401 C111.004,117.401 110.618,117.81 110.542,118.43 C110.469,119.049 110.246,120.894 110.246,120.894 L115.521,120.894 C115.521,120.894 115.299,119.049 115.221,118.43" id="Fill-2497" fill="#5A5955"></path>
        <path d="M112.883,120.894 L110.246,120.894 C110.246,120.894 110.469,122.738 110.542,123.355 C110.618,123.974 111.004,124.386 111.575,124.386 L114.192,124.386 C114.764,124.386 115.148,123.974 115.221,123.355 C115.299,122.738 115.521,120.894 115.521,120.894 L112.883,120.894" id="Fill-2498" fill="#4D4C44"></path>
        <polyline id="Fill-2499" fill="#5A5955" points="115.97 95.579 114.851 94.455 112.883 94.455 112.883 96.95 115.97 96.95 115.97 95.579"></polyline>
        <path d="M114.144,90.899 C114.144,91.075 113.792,91.219 113.36,91.219 L112.406,91.219 C111.975,91.219 111.623,91.075 111.623,90.899 C111.623,90.721 111.975,90.577 112.406,90.577 L113.36,90.577 C113.792,90.577 114.144,90.721 114.144,90.899" id="Fill-2500" fill="#383733"></path>
        <polyline id="Fill-2501" fill="#5A5955" points="109.798 95.579 110.915 94.455 112.883 94.455 112.883 96.95 109.798 96.95 109.798 95.579"></polyline>
        <path d="M117.459,95.227 C117.248,95.438 116.907,95.438 116.695,95.227 L115.193,93.724 C114.983,93.513 114.983,93.174 115.193,92.963 C115.404,92.751 115.743,92.751 115.955,92.963 L117.459,94.467 C117.671,94.679 117.671,95.018 117.459,95.227" id="Fill-2502" fill="#383733"></path>
        <path d="M108.264,95.227 C108.054,95.016 108.054,94.677 108.264,94.467 L109.768,92.963 C109.978,92.751 110.318,92.751 110.529,92.963 C110.739,93.174 110.739,93.513 110.529,93.724 L109.025,95.227 C108.815,95.438 108.473,95.438 108.264,95.227" id="Fill-2503" fill="#383733"></path>
        <path d="M177.227,128.712 C177.227,129.425 176.651,130.002 175.938,130.002 L154.333,130.002 C153.622,130.002 153.046,129.425 153.046,128.712 L153.046,125.749 C153.046,125.037 153.622,124.459 154.333,124.459 L175.938,124.459 C176.651,124.459 177.227,125.037 177.227,125.749 L177.227,128.712" id="Fill-2504" fill="#F4F1E5"></path>
        <path d="M165.137,29.128 L149.415,29.128 C149.415,29.128 149.809,36.148 151.197,41.891 C151.972,45.091 153.074,47.155 156.136,47.155 C157.271,47.155 160.955,47.155 165.137,47.155 C169.317,47.155 173.003,47.155 174.14,47.155 C177.199,47.155 178.304,45.091 179.076,41.891 C180.462,36.148 180.859,29.128 180.859,29.128 L165.137,29.128" id="Fill-2506" fill="#D5D3C1"></path>
        <path d="M165.137,27.277 C156.455,27.277 149.415,27.292 149.415,29.128 L180.859,29.128 C180.859,27.292 173.82,27.277 165.137,27.277" id="Fill-2507" fill="#F4F1E5"></path>
        <path d="M68.523,43.67 C68.523,44.873 67.548,45.848 66.348,45.848 C65.144,45.848 64.171,44.873 64.171,43.67 C64.171,42.47 65.144,41.496 66.348,41.496 C67.548,41.496 68.523,42.47 68.523,43.67" id="Fill-2515" fill="#383733"></path>
        <path d="M62.021,101.467 C58.587,101.467 56.846,99.13 56.846,94.52 C56.846,90.486 55.6,88.844 52.539,88.844 C49.66,88.844 48.375,90.592 48.375,94.52 L47.263,94.52 C47.263,90.014 49.038,87.728 52.539,87.728 C57.397,87.728 57.961,91.605 57.961,94.52 C57.961,99.75 60.277,100.354 62.021,100.354 C65.789,100.354 65.789,95.963 65.789,94.52 L65.789,41.559 L66.904,41.559 L66.904,94.52 C66.904,100.262 64.249,101.467 62.021,101.467" id="Fill-2516" fill="#5A5955"></path>
        <path d="M65.593,41.897 L65.593,45.249 C65.593,45.358 65.929,45.447 66.348,45.447 C66.765,45.447 67.102,45.358 67.102,45.249 L67.102,41.897 L65.593,41.897" id="Fill-2517" fill="#504D42"></path>
        <path d="M65.036,38.649 L65.036,44.466 C65.036,44.658 65.624,44.811 66.348,44.811 C67.071,44.811 67.657,44.658 67.657,44.466 L67.657,38.649 L65.036,38.649" id="Fill-2518" fill="#5A5955"></path>
        <polyline id="Fill-2519" fill="#5A5955" points="53.69 97.719 47.923 98.113 42.157 97.719 42.157 96.247 47.923 95.855 53.69 96.247 53.69 97.719"></polyline>
        <path d="M44.62,96.982 C44.62,97.383 44.019,97.629 43.833,97.952 C43.641,98.285 43.723,98.924 43.389,99.116 C43.064,99.306 42.557,98.919 42.157,98.919 C41.755,98.919 41.249,99.306 40.924,99.116 C40.591,98.924 40.672,98.285 40.479,97.952 C40.291,97.629 39.691,97.383 39.691,96.982 C39.691,96.582 40.291,96.338 40.479,96.014 C40.672,95.681 40.591,95.042 40.924,94.849 C41.249,94.663 41.755,95.047 42.157,95.047 C42.557,95.047 43.064,94.663 43.389,94.849 C43.723,95.042 43.641,95.681 43.833,96.017 C44.019,96.338 44.62,96.582 44.62,96.982" id="Fill-2520" fill="#43423D"></path>
        <path d="M42.891,96.982 C42.891,97.389 42.561,97.719 42.157,97.719 C41.751,97.719 41.421,97.389 41.421,96.982 C41.421,96.578 41.751,96.247 42.157,96.247 C42.561,96.247 42.891,96.578 42.891,96.982" id="Fill-2521" fill="#7F3824"></path>
        <path d="M55.609,98.524 C55.36,98.837 54.74,98.654 54.391,98.788 C54.031,98.927 53.695,99.477 53.314,99.419 C52.943,99.362 52.789,98.743 52.479,98.494 C52.165,98.241 51.528,98.223 51.393,97.876 C51.253,97.516 51.719,97.069 51.775,96.687 C51.833,96.319 51.518,95.753 51.77,95.44 C52.02,95.129 52.639,95.313 52.99,95.178 C53.348,95.04 53.685,94.49 54.065,94.547 C54.436,94.605 54.59,95.225 54.903,95.473 C55.216,95.726 55.851,95.743 55.986,96.093 C56.126,96.451 55.662,96.898 55.604,97.28 C55.546,97.648 55.861,98.214 55.609,98.524" id="Fill-2522" fill="#43423D"></path>
        <path d="M54.262,97.444 C54.008,97.759 53.547,97.81 53.229,97.555 C52.912,97.302 52.863,96.839 53.117,96.524 C53.371,96.208 53.832,96.158 54.149,96.41 C54.467,96.664 54.516,97.126 54.262,97.444" id="Fill-2523" fill="#184856"></path>
        <polyline id="Fill-2524" fill="#5A5955" points="49.245 97.205 46.391 97.205 46.784 94.52 48.854 94.52 49.245 97.205"></polyline>
        <path d="M48.902,100.195 C48.902,100.627 46.735,100.627 46.735,100.195 L46.735,97.035 C46.735,96.603 47.089,96.247 47.521,96.247 L48.115,96.247 C48.549,96.247 48.902,96.603 48.902,97.035 L48.902,100.195" id="Fill-2525" fill="#43423D"></path>
        <path d="M70.998,37.777 C70.998,38.825 68.914,39.675 66.348,39.675 C63.777,39.675 61.695,38.825 61.695,37.777 C61.695,36.729 63.777,36.275 66.348,36.275 C68.914,36.275 70.998,36.729 70.998,37.777" id="Fill-2526" fill="#383733"></path>
        <path d="M66.348,37.206 C63.777,37.206 61.695,37.461 61.695,37.777 L61.695,39.828 L70.998,39.828 L70.998,37.777 C70.998,37.461 68.914,37.206 66.348,37.206" id="Fill-2527" fill="#5A5955"></path>
        <path d="M70.998,39.828 C70.998,40.191 68.914,40.485 66.348,40.485 C63.777,40.485 61.695,40.191 61.695,39.828 C61.695,39.467 63.777,39.173 66.348,39.173 C68.914,39.173 70.998,39.467 70.998,39.828" id="Fill-2528" fill="#383733"></path>
        <polygon id="Fill-2529" fill="#504D42" points="47.129 94.52 48.509 94.52 48.509 93.622 47.129 93.622"></polygon>
        <path d="M131.141,81.163 C131.141,82.245 130.254,83.134 129.171,83.134 L96.597,83.134 C95.511,83.134 94.625,82.245 94.625,81.163 L94.625,42.611 C94.625,41.526 95.511,40.64 96.597,40.64 L129.171,40.64 C130.254,40.64 131.141,41.526 131.141,42.611 L131.141,81.163" id="Fill-2530" fill="#30312E"></path>
        <polygon id="Fill-2531" fill="#30312E" points="94.625 84.957 131.141 84.957 131.141 83.922 94.625 83.922"></polygon>
        <path d="M108.643,82.739 L121.604,41.033 L129.171,41.033 C130.04,41.033 130.747,41.741 130.747,42.611 L130.747,81.163 C130.747,82.033 130.04,82.739 129.171,82.739 L108.643,82.739" id="Fill-2532" fill="#C4C4B7"></path>
        <path d="M123.409,83.744 C123.426,83.533 123.799,78.565 123.968,77.498 C124.057,76.934 124.431,76.537 124.604,76.121 C124.773,75.723 124.933,75.344 125.009,74.851 L125.125,74.114 L125.004,74.034 L125.269,72.354 C125.269,72.354 125.366,72.323 125.47,72.341 C125.576,72.359 125.658,72.413 125.658,72.413 L125.269,74.892 C125.182,75.432 125.007,75.849 124.837,76.256 C124.666,76.665 124.503,77.054 124.423,77.571 C124.258,78.621 123.807,83.727 123.801,83.78 C123.801,83.78 123.723,83.867 123.587,83.86 C123.451,83.85 123.409,83.744 123.409,83.744" id="Fill-2533" fill="#78AC41"></path>
        <polyline id="Fill-2534" fill="#E2DAC6" points="125.013 73.972 124.169 73.857 124.425 72.221 125.263 72.396 125.013 73.972"></polyline>
        <path d="M123.502,83.674 C123.4,83.489 120.972,79.138 120.525,78.158 C120.288,77.637 120.381,77.098 120.297,76.658 C120.216,76.231 120.14,75.827 119.933,75.375 L119.626,74.695 L119.479,74.695 L118.773,73.149 C118.773,73.149 118.837,73.069 118.934,73.027 C119.031,72.982 119.133,72.9849585 119.133,72.9849585 L120.174,75.266 C120.4,75.763 120.482,76.209 120.565,76.64 C120.647,77.077 120.729,77.49 120.941,77.965 C121.387,78.935 123.824,83.442 123.85,83.488 C123.85,83.488 123.832,83.604 123.716,83.672 C123.596,83.739 123.502,83.674 123.502,83.674" id="Fill-2535" fill="#C3A333"></path>
        <polyline id="Fill-2536" fill="#E2DAC6" points="119.452 74.638 118.682 75.009 117.996 73.501 118.792 73.186 119.452 74.638"></polyline>
        <path d="M121.615,83.602 C121.612,83.391 121.617,78.406 121.53,77.332 C121.483,76.764 121.141,76.338 121.001,75.911 C120.861,75.498 120.732,75.111 120.692,74.614 L120.633,73.872 L120.76,73.799 L120.622,72.104 C120.622,72.104 120.527,72.066 120.422,72.075 C120.315,72.082 120.23,72.134 120.23,72.134 L120.432,74.633 C120.475,75.179 120.618,75.61 120.756,76.025 C120.897,76.449 121.028,76.849 121.071,77.369 C121.155,78.43 121.219,83.553 121.221,83.606 C121.221,83.606 121.291,83.7 121.427,83.702029 C121.564,83.704 121.615,83.602 121.615,83.602" id="Fill-2537" fill="#187091"></path>
        <polyline id="Fill-2538" fill="#E2DAC6" points="120.754 73.737 121.608 73.683 121.473 72.033 120.625 72.147 120.754 73.737"></polyline>
        <polyline id="Fill-2539" fill="#994843" points="124.228 83.922 120.563 83.922 120.168 78.555 124.621 78.555 124.228 83.922"></polyline>
        <polygon id="Fill-2540" fill="#802623" points="119.9 78.97 124.888 78.97 124.888 78.555 119.9 78.555"></polygon>
        <path d="M102.396,75.219 C102.396,75.219 102.117,74.989 101.495,74.87 L101.495,74.039 L99.967,74.039 L99.967,74.87 C99.343,74.989 99.065,75.219 99.065,75.219 C98.88,75.371 98.728,75.692 98.728,75.935 L98.728,83.488 C98.728,83.727 98.924,83.922 99.165,83.922 L102.297,83.922 C102.536,83.922 102.734,83.727 102.734,83.488 L102.734,75.935 C102.734,75.692 102.582,75.371 102.396,75.219" id="Fill-2541" fill="#789B94"></path>
        <polygon id="Fill-2542" fill="#A9363B" points="99.883 74.605 101.577 74.605 101.577 73.804 99.883 73.804"></polygon>
        <path d="M101.782,73.598 C101.782,73.712 101.691,73.804 101.577,73.804 L99.893,73.804 C99.779,73.804 99.688,73.712 99.688,73.598 C99.688,73.485 99.779,73.39 99.893,73.39 L101.577,73.39 C101.691,73.39 101.782,73.485 101.782,73.598" id="Fill-2543" fill="#B75356"></path>
        <polyline id="Fill-2544" fill="#FFFCEA" points="103.731 83.704 103.717 83.349 104.586 83.316 104.601 83.666 103.731 83.704"></polyline>
        <polyline id="Fill-2545" fill="#9BA795" points="113.498 83.912 113.657 83.446 114.18 83.427 114.154 82.784 113.632 82.807 113.435 82.354 113.498 83.912"></polyline>
        <path d="M113.435,82.354 C113.435,82.354 111.276,82.441 109.148,82.528 C107.021,82.614 104.586,83.316 104.586,83.316 L104.601,83.666 C104.601,83.666 106.285,83.912 108.084,83.912 C109.895,83.912 113.498,83.912 113.498,83.912 L113.435,82.354" id="Fill-2546" fill="#FFFCEA"></path>
        <polyline id="Fill-2547" fill="#FFFCEA" points="113.801 83.571 113.765 82.669 114.833 82.722 114.861 83.43 113.801 83.571"></polyline>
        <path d="M138.997,106.955 C138.597,106.955 138.273,107.281 138.273,107.679 L138.273,111.661 C138.273,112.06 138.597,112.386 138.997,112.386 L145.632,112.386 C146.03,112.386 146.357,112.06 146.357,111.661 L146.357,107.679 C146.357,107.281 146.03,106.955 145.632,106.955 L138.997,106.955 Z M145.632,113.146 L138.997,113.146 C138.178,113.146 137.51,112.48 137.51,111.661 L137.51,107.679 C137.51,106.861 138.178,106.195 138.997,106.195 L145.632,106.195 C146.451,106.195 147.117,106.861 147.117,107.679 L147.117,111.661 C147.117,112.48 146.451,113.146 145.632,113.146 L145.632,113.146 Z" id="Fill-2548" fill="#383733"></path>
        <path d="M137.505,112.767 C137.505,114.864 138.025,116.564 138.664,116.564 L145.905,116.564 L145.905,112.767 L137.505,112.767" id="Fill-2549" fill="#CECCBB"></path>
        <path d="M138.664,108.969 C138.025,108.969 137.505,110.669 137.505,112.767 L137.505,119.51 L138.108,120.228 L138.709,119.51 L139.313,120.228 L139.913,119.51 L140.516,120.228 L141.117,119.51 L141.722,120.228 L142.327,119.51 L142.928,120.228 L143.533,119.51 L144.139,120.228 L144.743,119.51 L144.743,112.767 L145.325,111.985 L145.905,108.969 L138.664,108.969" id="Fill-2550" fill="#F4F1E5"></path>
        <path d="M144.743,112.767 C144.743,114.864 145.264,116.564 145.905,116.564 L145.905,108.969 C145.264,108.969 144.743,110.669 144.743,112.767" id="Fill-2551" fill="#B8B5A1"></path>
        <path d="M146.284,112.767 C146.284,113.45 146.114,114.002 145.905,114.002 C145.697,114.002 145.528,113.45 145.528,112.767 C145.528,112.082 145.697,111.531 145.905,111.531 C146.114,111.531 146.284,112.082 146.284,112.767" id="Fill-2552" fill="#383733"></path>
        <path d="M143.827,106.575 C143.827,107.026 143.463,107.386 143.015,107.386 L141.614,107.386 C141.166,107.386 140.802,107.026 140.802,106.575 C140.802,106.126 141.166,105.762 141.614,105.762 L143.015,105.762 C143.463,105.762 143.827,106.126 143.827,106.575" id="Fill-2553" fill="#383733"></path>
        <path d="M127.76,80.665 L126.166,80.665 C125.948,80.665 125.771,80.843 125.771,81.058 L125.771,81.528 L127.76,81.528 L127.76,80.665" id="Fill-2554" fill="#2A98AF"></path>
        <path d="M129.354,80.665 L127.76,80.665 L127.76,81.528 L129.748,81.528 L129.748,81.058 C129.748,80.843 129.57,80.665 129.354,80.665" id="Fill-2555" fill="#1A8096"></path>
        <path d="M125.771,81.528 L125.771,83.527 C125.771,83.744 125.948,83.922 126.166,83.922 L127.76,83.922 L127.76,81.528 L125.771,81.528" id="Fill-2556" fill="#2A98AF"></path>
        <path d="M127.76,83.922 L129.354,83.922 C129.57,83.922 129.748,83.744 129.748,83.527 L129.748,81.528 L127.76,81.528 L127.76,83.922" id="Fill-2557" fill="#1A8096"></path>
        <polygon id="Fill-2558" fill="#194C57" points="125.771 81.645 129.748 81.645 129.748 81.528 125.771 81.528"></polygon>
        <path d="M20.476,52.345 C20.476,53.233 19.756,53.95 18.867,53.95 C17.979,53.95 17.26,53.233 17.26,52.345 C17.26,51.457 17.979,50.736 18.867,50.736 C19.756,50.736 20.476,51.457 20.476,52.345" id="Fill-2559" fill="#383733"></path>
        <path d="M43.505,52.345 C43.505,53.233 42.785,53.95 41.898,53.95 C41.01,53.95 40.291,53.233 40.291,52.345 C40.291,51.457 41.01,50.736 41.898,50.736 C42.785,50.736 43.505,51.457 43.505,52.345" id="Fill-2560" fill="#383733"></path>
        <path d="M20.476,79.821 C20.476,80.705 19.756,81.426 18.867,81.426 C17.979,81.426 17.26,80.705 17.26,79.821 C17.26,78.93 17.979,78.211 18.867,78.211 C19.756,78.211 20.476,78.93 20.476,79.821" id="Fill-2561" fill="#383733"></path>
        <path d="M43.505,79.821 C43.505,80.705 42.785,81.426 41.898,81.426 C41.01,81.426 40.291,80.705 40.291,79.821 C40.291,78.93 41.01,78.211 41.898,78.211 C42.785,78.211 43.505,78.93 43.505,79.821" id="Fill-2562" fill="#383733"></path>
        <path d="M18.867,80.865 C18.359,80.865 17.945,80.452 17.945,79.945 L17.945,52.353 C17.945,51.845 18.359,51.432 18.867,51.432 C19.375,51.432 19.788,51.845 19.788,52.353 L19.788,79.945 C19.788,80.452 19.375,80.865 18.867,80.865" id="Fill-2563" fill="#5A5955"></path>
        <path d="M41.898,80.865 C41.389,80.865 40.979,80.452 40.979,79.945 L40.979,52.353 C40.979,51.845 41.389,51.432 41.898,51.432 C42.406,51.432 42.819,51.845 42.819,52.353 L42.819,79.945 C42.819,80.452 42.406,80.865 41.898,80.865" id="Fill-2564" fill="#5A5955"></path>
        <polygon id="Fill-2565" fill="#5A5955" points="18.867 57.597 41.898 57.597 41.898 55.755 18.867 55.755"></polygon>
        <polygon id="Fill-2566" fill="#5A5955" points="18.867 63.774 41.898 63.774 41.898 61.93 18.867 61.93"></polygon>
        <polygon id="Fill-2567" fill="#5A5955" points="18.867 69.948 41.898 69.948 41.898 68.104 18.867 68.104"></polygon>
        <polygon id="Fill-2568" fill="#5A5955" points="18.867 76.121 41.898 76.121 41.898 74.28 18.867 74.28"></polygon>
        <path d="M23.074,67.511 L23.074,86.47 C23.074,86.65 23.213,86.791 23.383,86.791 C23.554,86.791 23.693,86.65 23.693,86.47 L23.693,84.439 L24.098,84.439 L24.098,86.47 C24.098,86.65 24.237,86.791 24.409,86.791 C24.578,86.791 24.716,86.65 24.716,86.47 L24.716,84.439 L25.124,84.439 L25.124,86.47 C25.124,86.65 25.262,86.791 25.431,86.791 C25.603,86.791 25.74,86.65 25.74,86.47 L25.74,84.439 L26.146,84.439 L26.146,86.47 C26.146,86.65 26.283,86.791 26.455,86.791 C26.626,86.791 26.764,86.65 26.764,86.47 L26.764,84.439 L27.168,84.439 L27.168,86.47 C27.168,86.65 27.31,86.791 27.479,86.791 C27.648,86.791 27.788,86.65 27.788,86.47 L27.788,84.439 L28.194,84.439 L28.194,86.47 C28.194,86.65 28.332,86.791 28.503,86.791 C28.675,86.791 28.813,86.65 28.813,86.47 L28.813,84.439 L29.216,84.439 L29.216,86.47 C29.216,86.65 29.355,86.791 29.527,86.791 C29.696,86.791 29.836,86.65 29.836,86.47 L29.836,84.439 L30.242,84.439 L30.242,86.47 C30.242,86.65 30.38,86.791 30.549,86.791 C30.721,86.791 30.86,86.65 30.86,86.47 L30.86,84.439 L31.265,84.439 L31.265,86.47 C31.265,86.65 31.404,86.791 31.573,86.791 C31.744,86.791 31.882,86.65 31.882,86.47 L31.882,84.439 L32.288,84.439 L32.288,86.47 C32.288,86.65 32.426,86.791 32.598,86.791 C32.769,86.791 32.906,86.65 32.906,86.47 L32.906,84.439 L33.313,84.439 L33.313,86.47 C33.313,86.65 33.45,86.791 33.621,86.791 C33.791,86.791 33.931,86.65 33.931,86.47 L33.931,84.439 L34.334,84.439 L34.334,86.47 C34.334,86.65 34.475,86.791 34.644,86.791 C34.814,86.791 34.954,86.65 34.954,86.47 L34.954,84.439 L35.358,84.439 L35.358,86.47 C35.358,86.65 35.498,86.791 35.67,86.791 C35.839,86.791 35.979,86.65 35.979,86.47 L35.979,84.439 L36.385,84.439 L36.385,86.47 C36.385,86.65 36.522,86.791 36.691,86.791 C36.863,86.791 37.003,86.65 37.003,86.47 L37.003,84.439 L37.406,84.439 L37.406,86.47 C37.406,86.65 37.544,86.791 37.716,86.791 C37.887,86.791 38.026,86.65 38.026,86.47 L38.026,67.511 L23.074,67.511" id="Fill-2569" fill="#D4D3B5"></path>
        <path d="M128.074,100.028 L97.692,100.028 C97.692,100.028 97.917,100.479 98.209,101.416 L127.559,101.416 C127.848,100.479 128.074,100.028 128.074,100.028" id="Fill-2570" fill="#B8B5A1"></path>
        <path d="M98.209,101.416 C98.518,102.41 98.9,103.953 99.172,106.093 C99.694,110.248 100.942,112.16 104.952,112.16 L120.814,112.16 C124.824,112.16 126.073,110.248 126.594,106.093 C126.862,103.953 127.247,102.41 127.559,101.416 L98.209,101.416" id="Fill-2571" fill="#D5D3C1"></path>
        <path d="M164.54,0.505 L165.46,0.505 L165.46,0.503 L164.54,0.503 L164.54,0.505 Z M149.54,0.505 L150.461,0.505 L150.461,0.503 L149.54,0.503 L149.54,0.505 Z M134.539,0.505 L135.461,0.505 L135.461,0.503 L134.539,0.503 L134.539,0.505 Z M119.539,0.505 L120.459,0.505 L120.459,0.503 L119.539,0.503 L119.539,0.505 Z M104.539,0.505 L105.46,0.505 L105.46,0.503 L104.539,0.503 L104.539,0.505 Z M89.54,0.505 L90.461,0.505 L90.461,0.503 L89.54,0.503 L89.54,0.505 Z M74.538,0.505 L75.459,0.505 L75.459,0.503 L74.538,0.503 L74.538,0.505 Z M59.539,0.505 L60.461,0.505 L60.461,0.503 L59.539,0.503 L59.539,0.505 Z M44.539,0.505 L45.46,0.505 L45.46,0.503 L44.539,0.503 L44.539,0.505 Z M29.54,0.505 L30.46,0.505 L30.46,0.503 L29.54,0.503 L29.54,0.505 Z" id="Fill-149" fill="#DEDED8"></path>
        <path d="M183.578,32.438 C183.578,32.606 183.441,32.745 183.27,32.745 L179.975,32.745 C179.806,32.745 179.668,32.606 179.668,32.438 L179.668,32.224 C179.668,32.053 179.806,31.913 179.975,31.913 L183.27,31.913 C183.441,31.913 183.578,32.053 183.578,32.224 L183.578,32.438" id="Fill-2483" fill="#704D39"></path>
        <path d="M175.938,130.002 C174.571,130.002 173.645,130.002 171.867,130.002 C171.867,134.345 171.78,139.775 168.244,142.444 C163.862,145.748 158.332,144.212 156.172,142.235 C156.959,143.688 158.033,144.709 159.451,145.584 L159.14,151.405 L171.131,151.405 L170.822,145.584 C174.601,143.249 175.938,139.888 175.938,130.002" id="Fill-2484" fill="#B8B5A1"></path>
        <path d="M172.914,151.557 C169.821,151.557 162.688,151.557 157.358,151.557 C157.358,150.571 158.158,149.766 159.15,149.766 L171.122,149.766 C172.112,149.766 172.914,150.571 172.914,151.557" id="Fill-2505" fill="#CECCBB"></path>
        <polygon id="Fill-2508" fill="#5A5955" points="163.77 124.459 166.503 124.459 166.503 47.155 163.77 47.155"></polygon>
        <polygon id="Fill-2509" fill="#383733" points="182.368 88.625 182.979 88.625 182.979 32.745 182.368 32.745"></polygon>
        <path d="M183.578,91.899 C183.578,92.071 183.441,92.209 183.27,92.209 L182.078,92.209 C181.907,92.209 181.77,92.071 181.77,91.899 L181.77,85.35 C181.77,85.181 181.907,85.042 182.078,85.042 L183.27,85.042 C183.441,85.042 183.578,85.181 183.578,85.35 L183.578,91.899" id="Fill-2510" fill="#704D39"></path>
        <polygon id="Fill-2511" fill="#383733" points="163.383 48.55 166.891 48.55 166.891 47.155 163.383 47.155"></polygon>
        <polygon id="Fill-2512" fill="#383733" points="163.383 99.102 166.891 99.102 166.891 97.705 163.383 97.705"></polygon>
        <polygon id="Fill-2513" fill="#383733" points="163.383 66.848 166.891 66.848 166.891 65.452 163.383 65.452"></polygon>
        <polygon id="Fill-2514" fill="#383733" points="163.383 124.459 166.891 124.459 166.891 124.01 163.383 124.01"></polygon>
    </g>
</svg>