<?xml version="1.0" encoding="UTF-8"?>
<svg width="195px" height="195px" viewBox="0 0 195 195" version="1.1" xmlns="http://www.w3.org/2000/svg" xmlns:xlink="http://www.w3.org/1999/xlink">
    <!-- Generator: Sketch 57.1 (83088) - https://sketch.com -->
    <title>dining</title>
    <desc>Created with Sketch.</desc>
    <defs>
        <path d="M1.373,139.07 L0,139.07 L0,7.528 C0,6.182 0.14,4.866 0.394,3.598 C0.459,3.284 0.533,2.973 0.613,2.665 C0.818,1.868 1.07,1.092 1.373,0.343 L1.373,139.07 L1.373,139.07 Z" id="path-1"></path>
    </defs>
    <g id="dining" stroke="none" stroke-width="1" fill="none" fill-rule="evenodd">
        <polygon id="Fill-10" fill="#D3CCB6" points="0 194.997 195 194.997 195 147.54 0 147.54"></polygon>
        <polygon id="Fill-11" fill="#9FAE55" points="0 151.048 195 151.048 195 0 0 0"></polygon>
        <g id="Group-26" transform="translate(0.000000, 11.973000)">
            <mask id="mask-2" fill="white">
                <use xlink:href="#path-1"></use>
            </mask>
            <g id="Clip-25"></g>
            <polygon id="Fill-24" fill="#8A984A" mask="url(#mask-2)" points="0 139.07 1.373 139.07 1.373 0.343 0 0.343"></polygon>
        </g>
        <path d="M10.59,151.043 L9.221,151.043 L9.221,2.929 C9.668,2.651 10.122,2.391 10.59,2.152 L10.59,151.043" id="Fill-27" fill="#8A984A"></path>
        <polygon id="Fill-28" fill="#8A984A" points="18.442 151.045 19.811 151.045 19.811 -1.42108547e-14 18.442 -1.42108547e-14"></polygon>
        <polygon id="Fill-29" fill="#8A984A" points="27.661 151.045 29.034 151.045 29.034 -1.42108547e-14 27.661 -1.42108547e-14"></polygon>
        <polygon id="Fill-30" fill="#8A984A" points="36.882 151.045 38.253 151.045 38.253 -1.42108547e-14 36.882 -1.42108547e-14"></polygon>
        <polygon id="Fill-31" fill="#8A984A" points="46.104 151.045 47.475 151.045 47.475 -1.42108547e-14 46.104 -1.42108547e-14"></polygon>
        <polygon id="Fill-32" fill="#8A984A" points="55.322 151.045 56.695 151.045 56.695 -1.42108547e-14 55.322 -1.42108547e-14"></polygon>
        <polygon id="Fill-33" fill="#8A984A" points="64.543 151.045 65.914 151.045 65.914 -1.42108547e-14 64.543 -1.42108547e-14"></polygon>
        <polygon id="Fill-34" fill="#8A984A" points="73.762 151.045 75.135 151.045 75.135 -1.42108547e-14 73.762 -1.42108547e-14"></polygon>
        <polygon id="Fill-35" fill="#8A984A" points="82.985 151.045 84.354 151.045 84.354 -1.42108547e-14 82.985 -1.42108547e-14"></polygon>
        <polygon id="Fill-36" fill="#8A984A" points="92.204 151.045 93.577 151.045 93.577 -1.42108547e-14 92.204 -1.42108547e-14"></polygon>
        <polygon id="Fill-37" fill="#8A984A" points="101.425 151.045 102.796 151.045 102.796 -1.42108547e-14 101.425 -1.42108547e-14"></polygon>
        <polygon id="Fill-38" fill="#8A984A" points="110.646 151.045 112.015 151.045 112.015 -1.42108547e-14 110.646 -1.42108547e-14"></polygon>
        <polygon id="Fill-39" fill="#8A984A" points="119.865 151.045 121.238 151.045 121.238 -1.42108547e-14 119.865 -1.42108547e-14"></polygon>
        <path d="M129.088,151.045 L130.457,151.045 L130.457,84.316 L129.088,84.316 L129.088,151.045 Z M129.088,22.342 L130.457,22.342 L130.457,-2.84217094e-14 L129.088,-2.84217094e-14 L129.088,22.342 Z" id="Fill-40" fill="#8A984A"></path>
        <path d="M138.307,151.045 L139.678,151.045 L139.678,84.316 L138.307,84.316 L138.307,151.045 Z M138.307,22.342 L139.678,22.342 L139.678,-2.84217094e-14 L138.307,-2.84217094e-14 L138.307,22.342 Z" id="Fill-41" fill="#8A984A"></path>
        <path d="M147.525,151.045 L148.899,151.045 L148.899,84.316 L147.525,84.316 L147.525,151.045 Z M147.525,22.342 L148.899,22.342 L148.899,-2.84217094e-14 L147.525,-2.84217094e-14 L147.525,22.342 Z" id="Fill-42" fill="#8A984A"></path>
        <path d="M156.747,151.045 L158.12,151.045 L158.12,84.316 L156.747,84.316 L156.747,151.045 Z M156.747,22.342 L158.12,22.342 L158.12,-2.84217094e-14 L156.747,-2.84217094e-14 L156.747,22.342 Z" id="Fill-43" fill="#8A984A"></path>
        <path d="M165.966,151.045 L167.339,151.045 L167.339,84.316 L165.966,84.316 L165.966,151.045 Z M165.966,22.342 L167.339,22.342 L167.339,-2.84217094e-14 L165.966,-2.84217094e-14 L165.966,22.342 Z" id="Fill-44" fill="#8A984A"></path>
        <path d="M175.187,151.045 L176.56,151.045 L176.56,84.316 L175.187,84.316 L175.187,151.045 Z M175.187,22.342 L176.56,22.342 L176.56,-2.84217094e-14 L175.187,-2.84217094e-14 L175.187,22.342 Z" id="Fill-45" fill="#8A984A"></path>
        <path d="M185.779,151.043 L184.406,151.043 L184.406,2.152 C184.878,2.391 185.332,2.651 185.779,2.929 L185.779,151.043" id="Fill-46" fill="#8A984A"></path>
        <path d="M195,151.043 L193.627,151.043 L193.627,12.306 C193.932,13.06 194.185,13.841 194.389,14.638 C194.469,14.946 194.541,15.257 194.606,15.571 C194.86,16.839 195,18.155 195,19.501 L195,151.043" id="Fill-47" fill="#8A984A"></path>
        <path d="M124.357,82.388 L180.221,82.388 L180.221,24.269 L124.357,24.269 L124.357,82.388 Z M122.345,84.316 L182.232,84.316 L182.232,22.341 L122.345,22.341 L122.345,84.316 Z" id="Fill-220" fill="#7F2A34"></path>
        <polygon id="Fill-221" fill="#231D18" points="124.357 82.388 180.221 82.388 180.221 24.269 124.357 24.269"></polygon>
        <polygon id="Fill-222" fill="#5C422D" points="124.357 43.813 180.221 43.813 180.221 42.534 124.357 42.534"></polygon>
        <polygon id="Fill-223" fill="#5C422D" points="124.357 63.582 180.221 63.582 180.221 62.304 124.357 62.304"></polygon>
        <path d="M166.154,82.08 C166.154,82.25 166.025,82.388 165.862,82.388 C165.701,82.388 165.572,82.25 165.572,82.08 L165.572,69.531 C165.572,69.359 165.701,69.223 165.862,69.223 C166.025,69.223 166.154,69.359 166.154,69.531 L166.154,82.08" id="Fill-224" fill="#D8C7B9"></path>
        <path d="M166.903,72.423 L166.764,72.423 C166.764,71.858 166.635,72.423 166.154,69.531 L166.154,82.08 C166.635,79.189 166.764,79.751 166.764,79.189 L166.903,79.189 L167.028,79.056 L167.028,72.553 L166.903,72.423" id="Fill-225" fill="#C6AF9C"></path>
        <path d="M169.497,82.08 C169.497,82.25 169.366,82.388 169.205,82.388 C169.047,82.388 168.915,82.25 168.915,82.08 L168.915,69.531 C168.915,69.359 169.047,69.223 169.205,69.223 C169.366,69.223 169.497,69.359 169.497,69.531 L169.497,82.08" id="Fill-226" fill="#D8C7B9"></path>
        <path d="M170.246,72.423 L170.108,72.423 C170.108,71.858 169.976,72.423 169.497,69.531 L169.497,82.08 C169.976,79.189 170.108,79.751 170.108,79.189 L170.246,79.189 L170.371,79.056 L170.371,72.553 L170.246,72.423" id="Fill-227" fill="#C6AF9C"></path>
        <path d="M167.32,82.08 C167.32,82.25 167.188,82.388 167.028,82.388 C166.867,82.388 166.738,82.25 166.738,82.08 L166.738,69.531 C166.738,69.359 166.867,69.223 167.028,69.223 C167.188,69.223 167.32,69.359 167.32,69.531 L167.32,82.08" id="Fill-228" fill="#D8C7B9"></path>
        <path d="M168.069,72.423 L167.93,72.423 C167.93,71.858 167.798,72.423 167.32,69.531 L167.32,82.08 C167.798,79.189 167.93,79.751 167.93,79.189 L168.069,79.189 L168.193,79.056 L168.193,72.553 L168.069,72.423" id="Fill-229" fill="#C6AF9C"></path>
        <path d="M170.342,82.08 C170.342,82.25 170.213,82.388 170.052,82.388 C169.893,82.388 169.76,82.25 169.76,82.08 L169.76,69.531 C169.76,69.359 169.893,69.223 170.052,69.223 C170.213,69.223 170.342,69.359 170.342,69.531 L170.342,82.08" id="Fill-230" fill="#D8C7B9"></path>
        <path d="M171.091,72.423 L170.953,72.423 C170.953,71.858 170.822,72.423 170.342,69.531 L170.342,82.08 C170.822,79.189 170.953,79.751 170.953,79.189 L171.091,79.189 L171.218,79.056 L171.218,72.553 L171.091,72.423" id="Fill-231" fill="#C6AF9C"></path>
        <path d="M171.188,82.08 C171.188,82.25 171.057,82.388 170.896,82.388 C170.735,82.388 170.605,82.25 170.605,82.08 L170.605,69.531 C170.605,69.359 170.735,69.223 170.896,69.223 C171.057,69.223 171.188,69.359 171.188,69.531 L171.188,82.08" id="Fill-232" fill="#D8C7B9"></path>
        <path d="M171.936,72.423 L171.797,72.423 C171.797,71.858 171.666,72.423 171.188,69.531 L171.188,82.08 C171.666,79.189 171.797,79.751 171.797,79.189 L171.936,79.189 L172.06,79.056 L172.06,72.553 L171.936,72.423" id="Fill-233" fill="#C6AF9C"></path>
        <path d="M172.477,82.08 C172.477,82.25 172.348,82.388 172.187,82.388 C172.025,82.388 171.896,82.25 171.896,82.08 L171.896,65.834 C171.896,65.663 172.025,65.524 172.187,65.524 C172.348,65.524 172.477,65.663 172.477,65.834 L172.477,82.08" id="Fill-234" fill="#D8C7B9"></path>
        <path d="M173.576,69.833 L173.437,69.833 C173.437,69.271 172.957,68.726 172.477,65.834 L172.477,82.08 C172.957,79.189 173.437,78.64 173.437,78.079 L173.437,77.8 L173.576,77.8 L173.701,77.669 L173.701,69.968 L173.576,69.833" id="Fill-235" fill="#C6AF9C"></path>
        <path d="M173.67,82.08 C173.67,82.25 173.541,82.388 173.382,82.388 C173.219,82.388 173.088,82.25 173.088,82.08 L173.088,65.834 C173.088,65.663 173.219,65.524 173.382,65.524 C173.541,65.524 173.67,65.663 173.67,65.834 L173.67,82.08" id="Fill-236" fill="#D8C7B9"></path>
        <path d="M174.766,69.833 L174.631,69.833 C174.631,69.271 174.15,68.726 173.67,65.834 L173.67,82.08 C174.15,79.189 174.631,78.64 174.631,78.079 L174.631,77.8 L174.766,77.8 L174.893,77.669 L174.893,69.968 L174.766,69.833" id="Fill-237" fill="#C6AF9C"></path>
        <path d="M174.863,82.08 C174.863,82.25 174.732,82.388 174.573,82.388 C174.41,82.388 174.281,82.25 174.281,82.08 L174.281,65.834 C174.281,65.663 174.41,65.524 174.573,65.524 C174.732,65.524 174.863,65.663 174.863,65.834 L174.863,82.08" id="Fill-238" fill="#D8C7B9"></path>
        <path d="M175.961,69.833 L175.824,69.833 C175.824,69.271 175.344,68.726 174.863,65.834 L174.863,82.08 C175.344,79.189 175.824,78.64 175.824,78.079 L175.824,77.8 L175.961,77.8 L176.088,77.669 L176.088,69.968 L175.961,69.833" id="Fill-239" fill="#C6AF9C"></path>
        <path d="M176.057,82.08 C176.057,82.25 175.923,82.388 175.765,82.388 C175.604,82.388 175.475,82.25 175.475,82.08 L175.475,65.834 C175.475,65.663 175.604,65.524 175.765,65.524 C175.923,65.524 176.057,65.663 176.057,65.834 L176.057,82.08" id="Fill-240" fill="#D8C7B9"></path>
        <path d="M177.154,69.833 L177.015,69.833 C177.015,69.271 176.537,68.726 176.057,65.834 L176.057,82.08 C176.537,79.189 177.015,78.64 177.015,78.079 L177.154,78.079 L177.279,77.947 L177.279,69.968 L177.154,69.833" id="Fill-241" fill="#C6AF9C"></path>
        <path d="M129.01,76.579 C128.849,76.579 128.718,76.439 128.718,76.271 C128.718,76.1 128.849,75.963 129.01,75.963 L140.858,75.963 C141.02,75.963 141.15,76.1 141.15,76.271 C141.15,76.439 141.02,76.579 140.858,76.579 L129.01,76.579" id="Fill-242" fill="#D8C7B9"></path>
        <path d="M134.935,76.579 L129.01,76.579 C129.752,79.154 131.21,80.457 131.739,80.457 L131.739,80.6 L131.864,80.734 L138.002,80.734 L138.127,80.6 L138.127,80.457 C138.658,80.457 140.114,79.154 140.858,76.579 L134.935,76.579" id="Fill-243" fill="#C6AF9C"></path>
        <path d="M129.01,78.233 C128.849,78.233 128.718,78.095 128.718,77.922 C128.718,77.754 128.849,77.616 129.01,77.616 L140.858,77.616 C141.02,77.616 141.15,77.754 141.15,77.922 C141.15,78.095 141.02,78.233 140.858,78.233 L129.01,78.233" id="Fill-244" fill="#D8C7B9"></path>
        <path d="M134.935,78.233 L129.01,78.233 C129.752,80.807 131.21,82.11 131.739,82.11 L131.739,82.256 L131.864,82.388 L138.002,82.388 L138.127,82.256 L138.127,82.11 C138.658,82.11 140.114,80.807 140.858,78.233 L134.935,78.233" id="Fill-245" fill="#C6AF9C"></path>
        <path d="M168.552,58.244 C168.258,57.908 167.817,57.828 167.261,57.841 C167.252,58.054 167.233,58.341 167.214,58.551 L167.225,58.548 C167.381,58.489 167.527,58.462 167.66,58.462 C167.863,58.462 168.029,58.527 168.137,58.651 C168.24,58.767 168.287,58.929 168.274,59.113 C168.249,59.491 168.046,59.624 167.627,59.863 C167.398,59.995 167.144,60.114 166.967,60.088 C166.863,60.478 166.664,61.15 166.531,61.485 C166.691,61.464 166.896,61.37 167.079,61.08 C167.295,60.735 167.6,60.559 167.896,60.389 C168.314,60.15 168.786,59.881 168.839,59.156 C168.862,58.806 168.759,58.483 168.552,58.244" id="Fill-246" fill="#D4CBC6"></path>
        <path d="M162.284,57.424 C162.284,59.283 162.739,61.175 163.427,62.304 L164.776,62.304 L164.776,57.424 C163.86,57.424 162.968,57.424 162.284,57.424" id="Fill-247" fill="#E6E0DB"></path>
        <path d="M167.269,57.424 C166.521,57.424 165.64,57.424 164.776,57.424 L164.776,62.304 L166.127,62.304 C166.813,61.175 167.269,59.283 167.269,57.424" id="Fill-248" fill="#D4CBC6"></path>
        <path d="M155.232,58.244 C155.526,57.908 155.969,57.828 156.52,57.841 C156.531,58.054 156.548,58.341 156.569,58.551 L156.557,58.548 C156.402,58.489 156.254,58.462 156.123,58.462 C155.92,58.462 155.755,58.527 155.647,58.651 C155.541,58.767 155.494,58.929 155.507,59.113 C155.534,59.491 155.737,59.624 156.156,59.863 C156.385,59.995 156.637,60.114 156.816,60.088 C156.918,60.478 157.117,61.15 157.253,61.485 C157.09,61.464 156.885,61.37 156.705,61.08 C156.486,60.735 156.184,60.559 155.886,60.389 C155.469,60.15 154.995,59.881 154.944,59.156 C154.919,58.806 155.022,58.483 155.232,58.244" id="Fill-249" fill="#E6E0DB"></path>
        <path d="M161.497,57.424 C161.497,59.283 161.042,61.175 160.354,62.304 L159.005,62.304 L159.005,57.424 C159.921,57.424 160.813,57.424 161.497,57.424" id="Fill-250" fill="#D4CBC6"></path>
        <path d="M156.514,57.424 C157.264,57.424 158.143,57.424 159.005,57.424 L159.005,62.304 L157.656,62.304 C156.969,61.175 156.514,59.283 156.514,57.424" id="Fill-251" fill="#E6E0DB"></path>
        <path d="M171.831,58.244 C171.535,57.908 171.095,57.828 170.54,57.841 C170.529,58.054 170.513,58.341 170.492,58.551 L170.504,58.548 C170.659,58.489 170.805,58.462 170.938,58.462 C171.142,58.462 171.307,58.527 171.414,58.651 C171.519,58.767 171.566,58.929 171.554,59.113 C171.526,59.491 171.325,59.624 170.906,59.863 C170.678,59.995 170.424,60.114 170.244,60.088 C170.143,60.478 169.945,61.15 169.809,61.485 C169.969,61.464 170.177,61.37 170.356,61.08 C170.574,60.735 170.881,60.559 171.175,60.389 C171.592,60.15 172.066,59.881 172.117,59.156 C172.14,58.806 172.038,58.483 171.831,58.244" id="Fill-252" fill="#D4CBC6"></path>
        <path d="M165.561,57.424 C165.561,59.283 166.019,61.175 166.706,62.304 L168.057,62.304 L168.057,57.424 C167.141,57.424 166.247,57.424 165.561,57.424" id="Fill-253" fill="#E6E0DB"></path>
        <path d="M170.547,57.424 C169.798,57.424 168.918,57.424 168.057,57.424 L168.057,62.304 L169.404,62.304 C170.092,61.175 170.547,59.283 170.547,57.424" id="Fill-254" fill="#D4CBC6"></path>
        <path d="M143.847,51.851 C142.913,51.719 142.596,51.685 142.596,51.052 C142.596,50.511 142.596,48.094 142.596,48.094 L141.045,48.094 C141.045,48.094 141.045,50.511 141.045,51.052 C141.045,51.685 140.728,51.719 139.795,51.851 C139.487,51.896 139.302,52.032 139.302,52.438 C139.302,53.654 139.302,61.782 139.302,61.782 C139.302,62.071 139.534,62.304 139.824,62.304 L143.818,62.304 C144.104,62.304 144.34,62.071 144.34,61.782 C144.34,61.782 144.34,53.654 144.34,52.438 C144.34,52.032 144.151,51.896 143.847,51.851" id="Fill-255" fill="#99A590"></path>
        <path d="M144.34,52.438 C144.34,52.032 144.151,51.896 143.847,51.851 C142.913,51.719 142.596,51.685 142.596,51.052 C142.596,50.511 142.596,48.094 142.596,48.094 L141.819,48.094 L141.819,61.782 L144.34,61.782 C144.34,61.782 144.34,53.654 144.34,52.438" id="Fill-256" fill="#849279"></path>
        <path d="M139.302,52.438 C139.302,52.032 139.487,51.896 139.795,51.851 C140.728,51.719 141.045,51.685 141.045,51.052 C141.045,50.511 141.045,48.094 141.045,48.094 L141.819,48.094 L141.819,61.782 L139.302,61.782 C139.302,61.782 139.302,53.654 139.302,52.438" id="Fill-257" fill="#9EA995"></path>
        <path d="M139.302,61.782 C139.302,62.071 139.534,62.304 139.824,62.304 L143.818,62.304 C144.104,62.304 144.34,62.071 144.34,61.782 L139.302,61.782" id="Fill-258" fill="#849279"></path>
        <path d="M141.819,55.716 C141.221,55.716 140.689,55.549 140.355,55.29 L139.846,55.29 L139.846,57.102 L143.796,57.102 L143.796,55.29 L143.288,55.29 C142.949,55.549 142.42,55.716 141.819,55.716" id="Fill-259" fill="#57836D"></path>
        <path d="M141.819,53.539 C141.221,53.539 140.689,53.705 140.355,53.963 L139.846,53.963 L139.846,55.29 L140.355,55.29 C140.689,55.549 141.221,55.716 141.819,55.716 C142.42,55.716 142.949,55.549 143.288,55.29 L143.796,55.29 L143.796,53.963 L143.288,53.963 C142.949,53.705 142.42,53.539 141.819,53.539" id="Fill-260" fill="#E3E2C2"></path>
        <polygon id="Fill-261" fill="#A37C41" points="141.819 49.049 142.596 49.049 142.596 48.005 141.819 48.005"></polygon>
        <polygon id="Fill-262" fill="#B2925E" points="141.045 49.049 141.819 49.049 141.819 48.005 141.045 48.005"></polygon>
        <polygon id="Fill-263" fill="#A37C41" points="141.819 50.807 142.596 50.807 142.596 49.129 141.819 49.129"></polygon>
        <polygon id="Fill-264" fill="#B2925E" points="141.045 50.807 141.819 50.807 141.819 49.129 141.045 49.129"></polygon>
        <polygon id="Fill-265" fill="#83602C" points="141.045 49.129 142.596 49.129 142.596 49.05 141.045 49.05"></polygon>
        <path d="M135.687,52.474 C135.687,51.936 135.687,51.256 135.687,51.256 L134.137,51.256 C134.137,51.256 134.137,51.936 134.137,52.474 C134.137,53.84 132.118,53.481 132.118,55.358 C132.118,56.577 132.256,61.782 132.256,61.782 L137.568,61.782 C137.568,61.782 137.706,56.577 137.706,55.358 C137.706,53.481 135.687,53.84 135.687,52.474" id="Fill-266" fill="#8A4F32"></path>
        <path d="M137.706,55.358 C137.706,53.481 135.687,53.84 135.687,52.474 C135.687,51.936 135.687,51.256 135.687,51.256 L134.913,51.256 L134.913,61.782 L137.568,61.782 C137.568,61.782 137.706,56.577 137.706,55.358" id="Fill-267" fill="#834526"></path>
        <path d="M132.118,55.358 C132.118,53.481 134.137,53.84 134.137,52.474 C134.137,51.936 134.137,51.256 134.137,51.256 L134.913,51.256 L134.913,61.782 L132.256,61.782 C132.256,61.782 132.118,56.577 132.118,55.358" id="Fill-268" fill="#9D6941"></path>
        <path d="M132.256,61.782 C132.256,62.071 132.488,62.304 132.776,62.304 L137.048,62.304 C137.336,62.304 137.568,62.071 137.568,61.782 L132.256,61.782" id="Fill-269" fill="#834526"></path>
        <polygon id="Fill-270" fill="#CFCCB5" points="132.965 60.265 136.859 60.265 136.859 57.199 132.965 57.199"></polygon>
        <polygon id="Fill-271" fill="#443F34" points="132.965 59.702 136.859 59.702 136.859 57.761 132.965 57.761"></polygon>
        <polygon id="Fill-272" fill="#211D15" points="134.913 49.537 135.687 49.537 135.687 48.494 134.913 48.494"></polygon>
        <polygon id="Fill-273" fill="#443F34" points="134.137 49.537 134.913 49.537 134.913 48.494 134.137 48.494"></polygon>
        <polygon id="Fill-274" fill="#211D15" points="134.913 51.295 135.687 51.295 135.687 49.616 134.913 49.616"></polygon>
        <polygon id="Fill-275" fill="#443F34" points="134.137 51.295 134.913 51.295 134.913 49.616 134.137 49.616"></polygon>
        <polygon id="Fill-276" fill="#181510" points="134.137 49.616 135.687 49.616 135.687 49.537 134.137 49.537"></polygon>
        <path d="M133.582,32.086 C133.464,31.804 133.335,31.54 133.219,31.283 C133.009,30.824 132.911,30.383 132.911,29.892 L132.911,29.5 L131.464,29.5 L131.464,29.892 C131.464,30.383 131.367,30.824 131.159,31.283 C131.039,31.54 130.91,31.804 130.791,32.086 C130.578,32.595 130.402,33.161 130.402,33.853 C130.402,34.985 130.402,42.049 130.402,42.049 L133.974,42.049 C133.974,42.049 133.974,34.985 133.974,33.853 C133.974,33.161 133.8,32.595 133.582,32.086" id="Fill-277" fill="#BEC8BA"></path>
        <path d="M130.889,42.534 L133.487,42.534 C133.756,42.534 133.972,42.317 133.972,42.049 L130.402,42.049 C130.402,42.317 130.62,42.534 130.889,42.534" id="Fill-278" fill="#BEC8BA"></path>
        <path d="M133.974,33.853 C133.974,34.985 133.974,42.049 133.974,42.049 L132.185,42.049 L132.185,29.5 L132.911,29.5 L132.911,29.892 C132.911,30.383 133.009,30.824 133.219,31.283 C133.335,31.54 133.464,31.804 133.582,32.086 C133.8,32.595 133.974,33.161 133.974,33.853" id="Fill-279" fill="#BEC8BA"></path>
        <path d="M130.402,33.853 C130.402,34.985 130.402,42.049 130.402,42.049 L132.185,42.049 L132.185,29.5 L131.464,29.5 L131.464,29.892 C131.464,30.383 131.367,30.824 131.159,31.283 C131.039,31.54 130.91,31.804 130.791,32.086 C130.578,32.595 130.402,33.161 130.402,33.853" id="Fill-280" fill="#DDE8DB"></path>
        <path d="M130.402,42.049 C130.402,42.317 130.62,42.534 130.889,42.534 L133.487,42.534 C133.756,42.534 133.972,42.317 133.972,42.049 L130.402,42.049" id="Fill-281" fill="#BEC8BA"></path>
        <polygon id="Fill-282" fill="#C46C56" points="130.675 41.224 133.698 41.224 133.698 35.662 130.675 35.662"></polygon>
        <path d="M133.582,32.086 C133.322,32.169 132.738,32.35 132.185,32.355 L132.18,32.355 C131.629,32.355 131.052,32.169 130.791,32.089 L130.838,31.984 C130.894,31.844 130.959,31.711 131.02,31.576 L131.068,31.479 L131.101,31.41 L131.141,31.322 L131.159,31.283 L133.219,31.283 C133.335,31.54 133.464,31.804 133.582,32.086" id="Fill-283" fill="#C46C56"></path>
        <polygon id="Fill-284" fill="#ECEADB" points="130.844 40.495 133.513 40.495 133.513 36.446 130.844 36.446"></polygon>
        <polygon id="Fill-285" fill="#CECBB1" points="131.106 40.189 133.252 40.189 133.252 38.223 131.106 38.223"></polygon>
        <polygon id="Fill-286" fill="#8F9386" points="132.185 27.858 132.911 27.858 132.911 26.887 132.185 26.887"></polygon>
        <polygon id="Fill-287" fill="#AAACA2" points="131.464 27.858 132.185 27.858 132.185 26.887 131.464 26.887"></polygon>
        <polygon id="Fill-288" fill="#8F9386" points="132.185 29.499 132.911 29.499 132.911 27.933 132.185 27.933"></polygon>
        <polygon id="Fill-289" fill="#AAACA2" points="131.464 29.499 132.185 29.499 132.185 27.933 131.464 27.933"></polygon>
        <polygon id="Fill-290" fill="#777B6C" points="131.464 27.933 132.911 27.933 132.911 27.858 131.464 27.858"></polygon>
        <path d="M131.964,49.314 C131.964,48.773 131.964,46.492 131.964,46.492 L130.412,46.492 C130.412,46.492 130.412,48.773 130.412,49.314 C130.412,50.677 129.198,50.319 129.198,52.2 C129.198,53.414 129.198,61.782 129.198,61.782 L133.18,61.782 C133.18,61.782 133.18,53.414 133.18,52.2 C133.18,50.319 131.964,50.677 131.964,49.314" id="Fill-291" fill="#26201C"></path>
        <path d="M133.18,52.2 C133.18,50.319 131.964,50.677 131.964,49.314 C131.964,48.773 131.964,46.492 131.964,46.492 L131.189,46.492 L131.189,61.782 L133.18,61.782 C133.18,61.782 133.18,53.414 133.18,52.2" id="Fill-292" fill="#26201C"></path>
        <path d="M129.198,52.2 C129.198,50.319 130.412,50.677 130.412,49.314 C130.412,48.773 130.412,46.492 130.412,46.492 L131.189,46.492 L131.189,61.782 L129.198,61.782 C129.198,61.782 129.198,53.414 129.198,52.2" id="Fill-293" fill="#493F3A"></path>
        <path d="M129.198,61.782 C129.198,62.071 129.431,62.304 129.721,62.304 L132.655,62.304 C132.945,62.304 133.18,62.071 133.18,61.782 L129.198,61.782" id="Fill-294" fill="#26201C"></path>
        <polygon id="Fill-295" fill="#26201C" points="130.299 47.541 132.078 47.541 132.078 46.78 130.299 46.78"></polygon>
        <polygon id="Fill-296" fill="#AC9467" points="130.691 46.492 131.686 46.492 131.686 45.287 130.691 45.287"></polygon>
        <polygon id="Fill-297" fill="#CFCCB5" points="129.742 57.626 132.637 57.626 132.637 53.439 129.742 53.439"></polygon>
        <path d="M160.881,35.351 L154.43,35.351 C154.43,37.14 155.727,38.604 157.38,38.754 L157.38,42.084 L156.423,42.084 C156.188,42.084 155.998,42.287 155.998,42.534 L159.312,42.534 C159.312,42.287 159.121,42.084 158.884,42.084 L157.93,42.084 L157.93,38.754 C159.582,38.604 160.881,37.14 160.881,35.351" id="Fill-298" fill="#9EA995"></path>
        <path d="M175.6,36.046 C175.6,35.336 175.426,34.623 175.132,34.012 L170.627,34.012 C170.331,34.623 170.159,35.336 170.159,36.046 C170.159,37.816 171.232,38.66 172.603,38.757 L172.603,42.084 L171.649,42.084 C171.412,42.084 171.224,42.287 171.224,42.534 L174.537,42.534 C174.537,42.287 174.345,42.084 174.109,42.084 L173.155,42.084 L173.155,38.757 C174.529,38.66 175.6,37.816 175.6,36.046" id="Fill-299" fill="#9EA995"></path>
        <path d="M169.531,36.046 C169.531,35.336 169.355,34.623 169.062,34.012 L164.557,34.012 C164.263,34.623 164.087,35.336 164.087,36.046 C164.087,37.816 165.16,38.66 166.535,38.757 L166.535,42.084 L165.578,42.084 C165.344,42.084 165.153,42.287 165.153,42.534 L168.467,42.534 C168.467,42.287 168.274,42.084 168.039,42.084 L167.085,42.084 L167.085,38.757 C168.458,38.66 169.531,37.816 169.531,36.046" id="Fill-300" fill="#9EA995"></path>
        <polyline id="Fill-301" fill="#BEC8BA" points="140.994 39.38 141.355 42.534 141.817 42.534 141.64 39.38 140.994 39.38"></polyline>
        <polyline id="Fill-302" fill="#BEC8BA" points="142.9 39.38 142.721 42.534 143.184 42.534 143.544 39.38 142.9 39.38"></polyline>
        <polyline id="Fill-303" fill="#DDE8DB" points="141.64 39.38 141.817 42.534 142.721 42.534 142.9 39.38 141.64 39.38"></polyline>
        <polyline id="Fill-304" fill="#BEC8BA" points="138.025 39.38 138.39 42.534 138.851 42.534 138.671 39.38 138.025 39.38"></polyline>
        <polyline id="Fill-305" fill="#BEC8BA" points="139.934 39.38 139.752 42.534 140.216 42.534 140.575 39.38 139.934 39.38"></polyline>
        <polyline id="Fill-306" fill="#DDE8DB" points="138.671 39.38 138.851 42.534 139.752 42.534 139.934 39.38 138.671 39.38"></polyline>
        <path d="M161.368,72.946 C161.368,72.946 161.082,72.697 160.443,72.57 L160.443,71.668 L158.878,71.668 L158.878,72.57 C158.24,72.697 157.955,72.946 157.955,72.946 C157.765,73.112 157.608,73.461 157.608,73.722 L157.608,81.914 C157.608,82.175 157.812,82.388 158.057,82.388 L161.267,82.388 C161.51,82.388 161.711,82.175 161.711,81.914 L161.711,73.722 C161.711,73.461 161.559,73.112 161.368,72.946" id="Fill-307" fill="#A58755"></path>
        <polygon id="Fill-308" fill="#A9363B" points="158.793 72.281 160.528 72.281 160.528 71.411 158.793 71.411"></polygon>
        <path d="M160.737,71.189 C160.737,71.31 160.645,71.411 160.528,71.411 L158.804,71.411 C158.687,71.411 158.592,71.31 158.592,71.189 C158.592,71.065 158.687,70.965 158.804,70.965 L160.528,70.965 C160.645,70.965 160.737,71.065 160.737,71.189" id="Fill-309" fill="#B75356"></path>
        <polygon id="Fill-310" fill="#5A222A" points="122.345 147.049 182.232 147.049 182.232 84.316 122.345 84.316"></polygon>
        <polygon id="Fill-311" fill="#7F2A34" points="122.345 105.169 182.232 105.169 182.232 103.062 122.345 103.062"></polygon>
        <polygon id="Fill-312" fill="#7F2A34" points="122.345 147.049 182.232 147.049 182.232 144.844 122.345 144.844"></polygon>
        <polygon id="Fill-313" fill="#7F2A34" points="122.345 98.718 182.232 98.718 182.232 98.258 122.345 98.258"></polygon>
        <polygon id="Fill-314" fill="#A5404B" points="122.345 103.062 182.232 103.062 182.232 98.717 122.345 98.717"></polygon>
        <polygon id="Fill-315" fill="#7F2A34" points="122.345 22.457 182.232 22.457 182.232 21.09 122.345 21.09"></polygon>
        <polygon id="Fill-316" fill="#A5404B" points="121.369 21.089 183.208 21.089 183.208 18.224 121.369 18.224"></polygon>
        <polygon id="Fill-317" fill="#A5404B" points="122.345 144.844 151.887 144.844 151.887 105.169 122.345 105.169"></polygon>
        <polygon id="Fill-318" fill="#973541" points="126.835 140.297 147.398 140.297 147.398 109.717 126.835 109.717"></polygon>
        <polygon id="Fill-319" fill="#7F2A34" points="131.727 140.297 132.717 140.297 132.717 109.717 131.727 109.717"></polygon>
        <polygon id="Fill-320" fill="#7F2A34" points="136.621 140.297 137.611 140.297 137.611 109.717 136.621 109.717"></polygon>
        <polygon id="Fill-321" fill="#7F2A34" points="141.515 140.297 142.503 140.297 142.503 109.717 141.515 109.717"></polygon>
        <path d="M127.825,139.293 L146.408,139.293 L146.408,110.724 L127.825,110.724 L127.825,139.293 Z M126.835,140.297 L147.398,140.297 L147.398,109.717 L126.835,109.717 L126.835,140.297 Z" id="Fill-322" fill="#7F2A34"></path>
        <polygon id="Fill-323" fill="#A5404B" points="152.69 144.844 182.232 144.844 182.232 105.169 152.69 105.169"></polygon>
        <polygon id="Fill-324" fill="#973541" points="157.179 140.297 177.743 140.297 177.743 109.717 157.179 109.717"></polygon>
        <polygon id="Fill-325" fill="#7F2A34" points="162.072 140.297 163.061 140.297 163.061 109.717 162.072 109.717"></polygon>
        <polygon id="Fill-326" fill="#7F2A34" points="166.967 140.297 167.955 140.297 167.955 109.717 166.967 109.717"></polygon>
        <polygon id="Fill-327" fill="#7F2A34" points="171.86 140.297 172.851 140.297 172.851 109.717 171.86 109.717"></polygon>
        <path d="M158.169,139.293 L176.753,139.293 L176.753,110.724 L158.169,110.724 L158.169,139.293 Z M157.179,140.297 L177.743,140.297 L177.743,109.717 L157.179,109.717 L157.179,140.297 Z" id="Fill-328" fill="#7F2A34"></path>
        <polygon id="Fill-329" fill="#973541" points="180.221 98.257 182.232 98.257 182.232 84.316 180.221 84.316"></polygon>
        <polygon id="Fill-330" fill="#973541" points="122.345 98.257 124.357 98.257 124.357 84.316 122.345 84.316"></polygon>
        <path d="M153.541,107.86 C153.541,108.501 154.06,109.018 154.696,109.018 C155.336,109.018 155.854,108.501 155.854,107.86 C155.854,107.221 155.336,106.706 154.696,106.706 C154.06,106.706 153.541,107.221 153.541,107.86" id="Fill-331" fill="#0A0B09"></path>
        <path d="M153.896,107.86 C153.896,108.302 154.254,108.662 154.696,108.662 C155.139,108.662 155.498,108.302 155.498,107.86 C155.498,107.419 155.139,107.061 154.696,107.061 C154.254,107.061 153.896,107.419 153.896,107.86" id="Fill-332" fill="#595956"></path>
        <path d="M148.647,107.86 C148.647,108.501 149.166,109.018 149.805,109.018 C150.441,109.018 150.96,108.501 150.96,107.86 C150.96,107.221 150.441,106.706 149.805,106.706 C149.166,106.706 148.647,107.221 148.647,107.86" id="Fill-333" fill="#0A0B09"></path>
        <path d="M149.003,107.86 C149.003,108.302 149.362,108.662 149.805,108.662 C150.245,108.662 150.604,108.302 150.604,107.86 C150.604,107.419 150.245,107.061 149.805,107.061 C149.362,107.061 149.003,107.419 149.003,107.86" id="Fill-334" fill="#595956"></path>
        <polyline id="Fill-335" fill="#231D18" points="180.145 151.048 182.232 151.048 182.232 147.049 179.495 147.049 180.145 151.048"></polyline>
        <polyline id="Fill-336" fill="#231D18" points="124.429 151.048 122.343 151.048 122.343 147.049 125.08 147.049 124.429 151.048"></polyline>
        <path d="M156.713,80.459 L178.206,80.459 L178.206,26.199 L156.713,26.199 L156.713,80.459 Z M152.69,84.316 L182.232,84.316 L182.232,22.341 L152.69,22.341 L152.69,84.316 Z" id="Fill-337" fill="#A5404B"></path>
        <path d="M178.206,80.459 L176.375,80.459 C176.728,78.942 177.015,78.514 177.015,78.079 L177.154,78.079 L177.279,77.947 L177.279,69.968 L177.154,69.833 L177.015,69.833 C177.015,69.271 176.537,68.726 176.057,65.834 L176.057,69.934 L176.057,65.834 C176.057,65.663 175.923,65.524 175.765,65.524 C175.604,65.524 175.475,65.663 175.475,65.834 L175.475,68.549 C175.301,67.983 175.082,67.152 174.863,65.834 L174.863,69.936 L174.863,65.834 C174.863,65.663 174.732,65.524 174.573,65.524 C174.41,65.524 174.281,65.663 174.281,65.834 L174.281,68.549 C174.108,67.982 173.889,67.152 173.67,65.834 L173.67,69.934 L173.67,65.834 C173.67,65.663 173.541,65.524 173.382,65.524 C173.219,65.524 173.088,65.663 173.088,65.834 L173.088,68.549 C172.914,67.982 172.695,67.152 172.477,65.834 L172.477,80.459 L172.477,65.834 C172.477,65.663 172.348,65.524 172.187,65.524 C172.025,65.524 171.896,65.663 171.896,65.834 L171.896,72.423 L171.797,72.423 C171.797,71.858 171.666,72.423 171.188,69.531 L171.188,72.522 L171.188,69.531 C171.188,69.359 171.057,69.223 170.896,69.223 C170.735,69.223 170.605,69.359 170.605,69.531 L170.605,70.963 C170.532,70.615 170.445,70.153 170.342,69.531 L170.342,72.523 L170.342,69.531 C170.342,69.359 170.213,69.223 170.052,69.223 C169.893,69.223 169.76,69.359 169.76,69.531 L169.76,70.962 C169.687,70.614 169.6,70.152 169.497,69.531 L169.497,80.459 L169.497,69.531 C169.497,69.359 169.366,69.223 169.205,69.223 C169.047,69.223 168.915,69.359 168.915,69.531 L168.915,80.459 L167.623,80.459 C167.857,79.403 167.93,79.607 167.93,79.189 L168.069,79.189 L168.193,79.056 L168.193,72.553 L168.069,72.423 L167.93,72.423 C167.93,71.858 167.798,72.423 167.32,69.531 L167.32,80.459 L167.32,69.531 C167.32,69.359 167.188,69.223 167.028,69.223 C166.867,69.223 166.738,69.359 166.738,69.531 L166.738,72.148 C166.682,71.93 166.519,71.728 166.154,69.531 L166.154,80.459 L166.154,69.531 C166.154,69.359 166.025,69.223 165.862,69.223 C165.701,69.223 165.572,69.359 165.572,69.531 L165.572,80.459 L161.711,80.459 L161.711,73.722 C161.711,73.461 161.559,73.112 161.368,72.946 C161.368,72.946 161.082,72.697 160.443,72.57 L160.443,72.281 L160.528,72.281 L160.528,71.411 C160.645,71.411 160.737,71.31 160.737,71.189 C160.737,71.065 160.645,70.965 160.528,70.965 L158.804,70.965 C158.687,70.965 158.592,71.065 158.592,71.189 C158.592,71.31 158.687,71.411 158.804,71.411 L158.793,71.411 L158.793,72.281 L158.878,72.281 L158.878,72.57 C158.24,72.697 157.955,72.946 157.955,72.946 C157.765,73.112 157.608,73.461 157.608,73.722 L157.608,80.459 L156.713,80.459 L156.713,63.583 L178.206,63.583 L178.206,80.459 M175.475,80.459 L175.182,80.459 C175.287,80.007 175.387,79.652 175.475,79.364 L175.475,80.459 M174.281,80.459 L173.988,80.459 C174.094,80.007 174.193,79.652 174.281,79.364 L174.281,80.459 M173.088,80.459 L172.795,80.459 C172.9,80.007 173,79.652 173.088,79.364 L173.088,80.459 M171.896,80.459 L171.491,80.459 C171.725,79.403 171.797,79.607 171.797,79.189 L171.896,79.189 L171.896,80.459 M166.738,80.459 L166.459,80.459 C166.617,79.744 166.701,79.607 166.738,79.463 L166.738,80.459 M178.206,62.304 L169.404,62.304 C169.551,62.063 169.687,61.788 169.811,61.485 C169.97,61.464 170.178,61.369 170.356,61.08 C170.574,60.735 170.881,60.559 171.175,60.389 C171.592,60.15 172.066,59.881 172.117,59.156 C172.14,58.806 172.038,58.483 171.831,58.244 C171.555,57.931 171.154,57.84 170.653,57.84 C170.616,57.84 170.578,57.84 170.54,57.841 C170.539,57.857 170.538,57.874 170.537,57.89 C170.544,57.735 170.547,57.58 170.547,57.424 C169.798,57.424 168.918,57.424 168.057,57.424 L168.057,57.927 L168.057,57.424 C167.791,57.424 167.527,57.424 167.269,57.424 C166.521,57.424 165.64,57.424 164.776,57.424 L164.776,62.304 L164.776,57.424 C163.86,57.424 162.968,57.424 162.284,57.424 C162.284,59.283 162.739,61.175 163.427,62.304 L160.354,62.304 C161.042,61.175 161.497,59.283 161.497,57.424 C160.813,57.424 159.921,57.424 159.005,57.424 C158.219,57.424 157.417,57.424 156.713,57.424 L156.713,43.813 L178.206,43.813 L178.206,62.304 M166.706,62.304 L166.127,62.304 C166.229,62.137 166.325,61.953 166.416,61.754 C166.507,61.953 166.604,62.137 166.706,62.304 M157.656,62.304 L156.713,62.304 L156.713,61.092 C156.89,61.371 157.09,61.464 157.25,61.485 C157.373,61.788 157.509,62.063 157.656,62.304 M170.297,60.091 C170.279,60.091 170.262,60.09 170.245,60.088 C170.358,59.599 170.442,59.08 170.493,58.551 L170.504,58.548 C170.659,58.489 170.805,58.462 170.938,58.462 C171.142,58.462 171.307,58.527 171.414,58.651 C171.519,58.767 171.566,58.929 171.554,59.113 C171.526,59.491 171.325,59.624 170.906,59.863 C170.699,59.982 170.472,60.091 170.297,60.091 M156.763,60.091 C156.747,60.091 156.73,60.09 156.713,60.088 L156.713,59.593 C156.744,59.761 156.778,59.926 156.815,60.088 C156.799,60.09 156.781,60.091 156.763,60.091 M178.206,42.534 L174.537,42.534 C174.537,42.287 174.345,42.084 174.109,42.084 L173.155,42.084 L173.155,38.757 C174.529,38.66 175.6,37.816 175.6,36.046 C175.6,35.336 175.426,34.623 175.132,34.012 L170.627,34.012 C170.331,34.623 170.159,35.336 170.159,36.046 C170.159,37.816 171.232,38.66 172.603,38.757 L172.603,42.084 L171.649,42.084 C171.412,42.084 171.224,42.287 171.224,42.534 L168.467,42.534 C168.467,42.287 168.274,42.084 168.039,42.084 L167.085,42.084 L167.085,38.757 C168.458,38.66 169.531,37.816 169.531,36.046 C169.531,35.336 169.355,34.623 169.062,34.012 L164.557,34.012 C164.263,34.623 164.087,35.336 164.087,36.046 C164.087,37.816 165.16,38.66 166.535,38.757 L166.535,42.084 L165.578,42.084 C165.344,42.084 165.153,42.287 165.153,42.534 L159.312,42.534 C159.312,42.287 159.121,42.084 158.884,42.084 L157.93,42.084 L157.93,38.754 C159.582,38.604 160.881,37.14 160.881,35.351 L156.713,35.351 L156.713,26.199 L178.206,26.199 L178.206,42.534" id="Fill-338" fill="#576E68"></path>
        <polygon id="Fill-339" fill="#738172" points="156.713 43.813 178.206 43.813 178.206 42.534 156.713 42.534"></polygon>
        <polygon id="Fill-340" fill="#738172" points="156.713 63.582 178.206 63.582 178.206 62.304 156.713 62.304"></polygon>
        <path d="M166.154,80.459 L165.572,80.459 L165.572,69.531 C165.572,69.359 165.701,69.223 165.862,69.223 C166.025,69.223 166.154,69.359 166.154,69.531 L166.154,80.459" id="Fill-341" fill="#AEC3BB"></path>
        <path d="M166.459,80.459 L166.154,80.459 L166.154,69.531 C166.519,71.728 166.682,71.93 166.738,72.148 L166.738,79.463 C166.701,79.607 166.617,79.744 166.459,80.459" id="Fill-342" fill="#A5B7AD"></path>
        <path d="M169.497,80.459 L168.915,80.459 L168.915,69.531 C168.915,69.359 169.047,69.223 169.205,69.223 C169.366,69.223 169.497,69.359 169.497,69.531 L169.497,80.459" id="Fill-343" fill="#AEC3BB"></path>
        <path d="M169.76,80.459 L169.497,80.459 L169.497,69.531 C169.6,70.152 169.687,70.614 169.76,70.962 L169.76,80.459" id="Fill-344" fill="#A5B7AD"></path>
        <path d="M167.32,80.459 L166.738,80.459 L166.738,69.531 C166.738,69.359 166.867,69.223 167.028,69.223 C167.188,69.223 167.32,69.359 167.32,69.531 L167.32,80.459" id="Fill-345" fill="#AEC3BB"></path>
        <path d="M167.623,80.459 L167.32,80.459 L167.32,69.531 C167.798,72.423 167.93,71.858 167.93,72.423 L168.069,72.423 L168.193,72.553 L168.193,79.056 L168.069,79.189 L167.93,79.189 C167.93,79.607 167.857,79.403 167.623,80.459" id="Fill-346" fill="#A5B7AD"></path>
        <path d="M170.342,80.459 L169.76,80.459 L169.76,69.531 C169.76,69.359 169.893,69.223 170.052,69.223 C170.213,69.223 170.342,69.359 170.342,69.531 L170.342,80.459" id="Fill-347" fill="#AEC3BB"></path>
        <path d="M170.605,80.459 L170.342,80.459 L170.342,69.531 C170.445,70.153 170.532,70.615 170.605,70.963 L170.605,80.459" id="Fill-348" fill="#A5B7AD"></path>
        <path d="M171.188,80.459 L170.605,80.459 L170.605,69.531 C170.605,69.359 170.735,69.223 170.896,69.223 C171.057,69.223 171.188,69.359 171.188,69.531 L171.188,80.459" id="Fill-349" fill="#AEC3BB"></path>
        <path d="M171.491,80.459 L171.188,80.459 L171.188,69.531 C171.666,72.423 171.797,71.858 171.797,72.423 L171.896,72.423 L171.896,79.189 L171.797,79.189 C171.797,79.607 171.725,79.403 171.491,80.459" id="Fill-350" fill="#A5B7AD"></path>
        <path d="M172.477,80.459 L171.896,80.459 L171.896,65.834 C171.896,65.663 172.025,65.524 172.187,65.524 C172.348,65.524 172.477,65.663 172.477,65.834 L172.477,80.459" id="Fill-351" fill="#AEC3BB"></path>
        <path d="M172.795,80.459 L172.477,80.459 L172.477,65.834 C172.695,67.152 172.914,67.982 173.088,68.549 L173.088,79.364 C173,79.652 172.9,80.007 172.795,80.459" id="Fill-352" fill="#A5B7AD"></path>
        <path d="M173.67,80.459 L173.088,80.459 L173.088,65.834 C173.088,65.663 173.219,65.524 173.382,65.524 C173.541,65.524 173.67,65.663 173.67,65.834 L173.67,80.459" id="Fill-353" fill="#AEC3BB"></path>
        <path d="M173.988,80.459 L173.67,80.459 L173.67,65.834 C173.889,67.152 174.108,67.982 174.281,68.549 L174.281,79.364 C174.193,79.652 174.094,80.007 173.988,80.459" id="Fill-354" fill="#A5B7AD"></path>
        <path d="M174.863,80.459 L174.281,80.459 L174.281,65.834 C174.281,65.663 174.41,65.524 174.573,65.524 C174.732,65.524 174.863,65.663 174.863,65.834 L174.863,80.459" id="Fill-355" fill="#AEC3BB"></path>
        <path d="M175.182,80.459 L174.863,80.459 L174.863,65.834 C175.082,67.152 175.301,67.983 175.475,68.549 L175.475,79.364 C175.387,79.652 175.287,80.007 175.182,80.459" id="Fill-356" fill="#A5B7AD"></path>
        <path d="M176.057,80.459 L175.475,80.459 L175.475,65.834 C175.475,65.663 175.604,65.524 175.765,65.524 C175.923,65.524 176.057,65.663 176.057,65.834 L176.057,80.459" id="Fill-357" fill="#AEC3BB"></path>
        <path d="M176.375,80.459 L176.057,80.459 L176.057,65.834 C176.537,68.726 177.015,69.271 177.015,69.833 L177.154,69.833 L177.279,69.968 L177.279,77.947 L177.154,78.079 L177.015,78.079 C177.015,78.514 176.728,78.942 176.375,80.459" id="Fill-358" fill="#A5B7AD"></path>
        <path d="M164.776,62.304 L163.427,62.304 C162.739,61.175 162.284,59.283 162.284,57.424 C162.968,57.424 163.86,57.424 164.776,57.424 L164.776,62.304" id="Fill-359" fill="#B5D0CB"></path>
        <path d="M166.127,62.304 L164.776,62.304 L164.776,57.424 C165.64,57.424 166.521,57.424 167.269,57.424 C166.64,57.424 166.048,57.424 165.561,57.424 C165.561,59.007 165.893,60.615 166.416,61.754 C166.325,61.953 166.229,62.137 166.127,62.304" id="Fill-360" fill="#ABC5C0"></path>
        <path d="M157.25,61.485 C157.09,61.464 156.89,61.371 156.713,61.092 L156.713,60.088 C156.73,60.09 156.747,60.091 156.763,60.091 C156.781,60.091 156.799,60.09 156.815,60.088 C156.932,60.592 157.078,61.064 157.25,61.485" id="Fill-361" fill="#B5D0CB"></path>
        <path d="M160.354,62.304 L159.005,62.304 L159.005,57.424 C159.921,57.424 160.813,57.424 161.497,57.424 C161.497,59.283 161.042,61.175 160.354,62.304" id="Fill-362" fill="#ABC5C0"></path>
        <path d="M159.005,62.304 L157.656,62.304 C157.509,62.063 157.373,61.788 157.25,61.485 C157.078,61.064 156.932,60.592 156.815,60.088 C156.778,59.926 156.744,59.761 156.713,59.593 L156.713,57.424 C157.417,57.424 158.219,57.424 159.005,57.424 L159.005,62.304" id="Fill-363" fill="#B5D0CB"></path>
        <path d="M169.811,61.485 C169.982,61.064 170.129,60.592 170.245,60.088 C170.262,60.09 170.279,60.091 170.297,60.091 C170.472,60.091 170.699,59.982 170.906,59.863 C171.325,59.624 171.526,59.491 171.554,59.113 C171.566,58.929 171.519,58.767 171.414,58.651 C171.307,58.527 171.142,58.462 170.938,58.462 C170.805,58.462 170.659,58.489 170.504,58.548 L170.493,58.551 C170.514,58.332 170.529,58.111 170.537,57.89 C170.538,57.874 170.539,57.857 170.54,57.841 C170.578,57.84 170.616,57.84 170.653,57.84 C171.154,57.84 171.555,57.931 171.831,58.244 C172.038,58.483 172.14,58.806 172.117,59.156 C172.066,59.881 171.592,60.15 171.175,60.389 C170.881,60.559 170.574,60.735 170.356,61.08 C170.178,61.369 169.97,61.464 169.811,61.485" id="Fill-364" fill="#ABC5C0"></path>
        <path d="M168.057,62.304 L166.706,62.304 C166.604,62.137 166.507,61.953 166.416,61.754 C165.893,60.615 165.561,59.007 165.561,57.424 C166.048,57.424 166.64,57.424 167.269,57.424 C167.527,57.424 167.791,57.424 168.057,57.424 L168.057,62.304" id="Fill-365" fill="#B5D0CB"></path>
        <path d="M169.404,62.304 L168.057,62.304 L168.057,57.424 C168.918,57.424 169.798,57.424 170.547,57.424 C170.547,57.58 170.544,57.735 170.537,57.89 C170.529,58.111 170.514,58.332 170.493,58.551 C170.442,59.08 170.358,59.599 170.245,60.088 C170.129,60.592 169.982,61.064 169.811,61.485 C169.687,61.788 169.551,62.063 169.404,62.304" id="Fill-366" fill="#ABC5C0"></path>
        <path d="M157.38,42.084 L156.713,42.084 L156.713,38.617 C156.927,38.687 157.15,38.733 157.38,38.754 L157.38,42.084" id="Fill-367" fill="#576E68"></path>
        <path d="M159.312,42.534 L156.713,42.534 L156.713,42.084 L157.38,42.084 L157.38,38.754 C157.15,38.733 156.927,38.687 156.713,38.617 L156.713,35.351 L160.881,35.351 C160.881,37.14 159.582,38.604 157.93,38.754 L157.93,42.084 L158.884,42.084 C159.121,42.084 159.312,42.287 159.312,42.534" id="Fill-368" fill="#92B5A9"></path>
        <path d="M174.537,42.534 L171.224,42.534 C171.224,42.287 171.412,42.084 171.649,42.084 L172.603,42.084 L172.603,38.757 C171.232,38.66 170.159,37.816 170.159,36.046 C170.159,35.336 170.331,34.623 170.627,34.012 L175.132,34.012 C175.426,34.623 175.6,35.336 175.6,36.046 C175.6,37.816 174.529,38.66 173.155,38.757 L173.155,42.084 L174.109,42.084 C174.345,42.084 174.537,42.287 174.537,42.534" id="Fill-369" fill="#92B5A9"></path>
        <path d="M168.467,42.534 L165.153,42.534 C165.153,42.287 165.344,42.084 165.578,42.084 L166.535,42.084 L166.535,38.757 C165.16,38.66 164.087,37.816 164.087,36.046 C164.087,35.336 164.263,34.623 164.557,34.012 L169.062,34.012 C169.355,34.623 169.531,35.336 169.531,36.046 C169.531,37.816 168.458,38.66 167.085,38.757 L167.085,42.084 L168.039,42.084 C168.274,42.084 168.467,42.287 168.467,42.534" id="Fill-370" fill="#92B5A9"></path>
        <path d="M161.711,80.459 L157.608,80.459 L157.608,73.722 C157.608,73.461 157.765,73.112 157.955,72.946 C157.955,72.946 158.24,72.697 158.878,72.57 L158.878,72.281 L160.443,72.281 L160.443,72.57 C161.082,72.697 161.368,72.946 161.368,72.946 C161.559,73.112 161.711,73.461 161.711,73.722 L161.711,80.459" id="Fill-371" fill="#93A386"></path>
        <polygon id="Fill-372" fill="#957877" points="158.793 72.281 160.528 72.281 160.528 71.411 158.793 71.411"></polygon>
        <path d="M160.528,71.411 L158.804,71.411 C158.687,71.411 158.592,71.31 158.592,71.189 C158.592,71.065 158.687,70.965 158.804,70.965 L160.528,70.965 C160.645,70.965 160.737,71.065 160.737,71.189 C160.737,71.31 160.645,71.411 160.528,71.411" id="Fill-373" fill="#9D8887"></path>
        <polyline id="Fill-374" fill="#947E81" points="178.206 80.459 156.713 80.459 178.206 80.459 178.206 26.199 178.206 80.459"></polyline>
        <path d="M126.367,80.459 L147.864,80.459 L147.864,26.199 L126.367,26.199 L126.367,80.459 Z M122.345,84.316 L151.887,84.316 L151.887,22.341 L122.345,22.341 L122.345,84.316 Z" id="Fill-375" fill="#A5404B"></path>
        <path d="M147.864,80.459 L139.891,80.459 C140.254,79.872 140.599,79.13 140.858,78.233 L140.212,78.233 L140.858,78.233 C141.02,78.233 141.15,78.095 141.15,77.922 C141.15,77.754 141.02,77.616 140.858,77.616 L140.496,77.616 C140.628,77.297 140.751,76.951 140.858,76.579 L129.01,76.579 C129.117,76.951 129.239,77.297 129.372,77.616 L129.01,77.616 C128.849,77.616 128.718,77.754 128.718,77.922 C128.718,78.095 128.849,78.233 129.01,78.233 L129.655,78.233 L129.01,78.233 C129.268,79.13 129.613,79.872 129.976,80.459 L126.367,80.459 L126.367,63.583 L147.864,63.583 L147.864,80.459 M129.01,75.963 C128.849,75.963 128.718,76.1 128.718,76.271 C128.718,76.439 128.849,76.579 129.01,76.579 L140.858,76.579 C141.02,76.579 141.15,76.439 141.15,76.271 C141.15,76.1 141.02,75.963 140.858,75.963 L129.01,75.963 M147.864,62.304 L143.818,62.304 C144.104,62.304 144.34,62.071 144.34,61.782 C144.34,61.782 144.34,53.654 144.34,52.438 C144.34,52.032 144.151,51.896 143.847,51.851 C142.913,51.719 142.596,51.685 142.596,51.052 C142.596,50.992 142.596,50.908 142.596,50.806 L142.596,48.005 L141.045,48.005 L141.045,48.094 C141.045,48.094 141.045,50.511 141.045,51.052 C141.045,51.685 140.728,51.719 139.795,51.851 C139.487,51.896 139.302,52.032 139.302,52.438 C139.302,53.654 139.302,61.782 139.302,61.782 C139.302,62.071 139.534,62.304 139.824,62.304 L137.048,62.304 C137.336,62.304 137.568,62.071 137.568,61.782 L133.18,61.782 L137.568,61.782 C137.568,61.782 137.706,56.577 137.706,55.358 C137.706,53.481 135.687,53.84 135.687,52.474 C135.687,52.013 135.687,51.447 135.687,51.295 L135.687,49.537 L134.137,49.537 L134.137,51.256 C134.137,51.256 134.137,51.936 134.137,52.474 C134.137,53.133 133.666,53.391 133.18,53.692 C133.18,52.987 133.18,52.446 133.18,52.2 C133.18,50.319 131.964,50.677 131.964,49.314 C131.964,49.021 131.964,48.216 131.964,47.541 L132.078,47.541 L132.078,46.78 L131.964,46.78 C131.964,46.602 131.964,46.492 131.964,46.492 L131.686,46.492 L131.686,45.287 L130.691,45.287 L130.691,46.492 L130.412,46.492 C130.412,46.492 130.412,46.602 130.412,46.78 L130.299,46.78 L130.299,47.541 L130.412,47.541 C130.412,48.216 130.412,49.021 130.412,49.314 C130.412,50.677 129.198,50.319 129.198,52.2 C129.198,53.414 129.198,61.782 129.198,61.782 L132.256,61.782 L129.198,61.782 C129.198,62.071 129.431,62.304 129.721,62.304 L126.367,62.304 L126.367,43.813 L147.864,43.813 L147.864,62.304 M134.913,49.537 L135.687,49.537 L135.687,48.494 L134.137,48.494 L134.137,49.537 L134.913,49.537 M132.776,62.304 L132.655,62.304 C132.676,62.304 132.696,62.303 132.716,62.301 C132.736,62.303 132.756,62.304 132.776,62.304 M147.864,42.534 L143.184,42.534 L143.544,39.38 L140.994,39.38 L141.355,42.534 L140.216,42.534 L140.575,39.38 L138.025,39.38 L138.39,42.534 L133.487,42.534 C133.756,42.534 133.972,42.317 133.972,42.049 L133.974,42.049 C133.974,42.049 133.974,34.985 133.974,33.853 C133.974,33.161 133.8,32.595 133.582,32.086 C133.464,31.804 133.335,31.54 133.219,31.283 C133.009,30.824 132.911,30.383 132.911,29.892 L132.911,27.858 L131.464,27.858 L131.464,29.892 C131.464,30.383 131.367,30.824 131.159,31.283 L131.141,31.322 L131.134,31.335 C131.104,31.4 131.074,31.464 131.043,31.53 L131.02,31.576 C130.994,31.633 130.968,31.689 130.942,31.746 C130.891,31.857 130.84,31.97 130.791,32.086 C130.578,32.595 130.402,33.161 130.402,33.853 C130.402,34.985 130.402,42.049 130.402,42.049 C130.402,42.317 130.62,42.534 130.889,42.534 L126.367,42.534 L126.367,26.199 L147.864,26.199 L147.864,42.534 M132.185,27.858 L132.911,27.858 L132.911,26.887 L131.464,26.887 L131.464,27.858 L132.185,27.858" id="Fill-376" fill="#576E68"></path>
        <polygon id="Fill-377" fill="#738172" points="126.367 43.813 147.864 43.813 147.864 42.534 126.367 42.534"></polygon>
        <polygon id="Fill-378" fill="#738172" points="126.367 63.582 147.864 63.582 147.864 62.304 126.367 62.304"></polygon>
        <path d="M140.858,76.579 L129.01,76.579 C128.849,76.579 128.718,76.439 128.718,76.271 C128.718,76.1 128.849,75.963 129.01,75.963 L140.858,75.963 C141.02,75.963 141.15,76.1 141.15,76.271 C141.15,76.439 141.02,76.579 140.858,76.579" id="Fill-379" fill="#AEC3BB"></path>
        <path d="M140.496,77.616 L129.372,77.616 C129.239,77.297 129.117,76.951 129.01,76.579 L140.858,76.579 C140.751,76.951 140.628,77.297 140.496,77.616" id="Fill-380" fill="#A5B7AD"></path>
        <path d="M140.858,78.233 L129.01,78.233 C128.849,78.233 128.718,78.095 128.718,77.922 C128.718,77.754 128.849,77.616 129.01,77.616 L140.858,77.616 C141.02,77.616 141.15,77.754 141.15,77.922 C141.15,78.095 141.02,78.233 140.858,78.233" id="Fill-381" fill="#AEC3BB"></path>
        <path d="M139.891,80.459 L129.976,80.459 C129.613,79.872 129.268,79.13 129.01,78.233 L140.858,78.233 C140.599,79.13 140.254,79.872 139.891,80.459" id="Fill-382" fill="#A5B7AD"></path>
        <path d="M144.34,61.782 L141.819,61.782 L141.819,57.102 L143.796,57.102 L143.796,53.963 L143.288,53.963 C142.949,53.705 142.42,53.539 141.819,53.539 L141.819,50.806 L142.596,50.806 C142.596,50.908 142.596,50.992 142.596,51.052 C142.596,51.685 142.913,51.719 143.847,51.851 C144.151,51.896 144.34,52.032 144.34,52.438 C144.34,53.654 144.34,61.782 144.34,61.782" id="Fill-383" fill="#83A89A"></path>
        <path d="M141.819,61.782 L139.302,61.782 C139.302,61.782 139.302,53.654 139.302,52.438 C139.302,52.032 139.487,51.896 139.795,51.851 C140.728,51.719 141.045,51.685 141.045,51.052 C141.045,50.511 141.045,48.094 141.045,48.094 L141.045,49.05 L141.819,49.05 L141.045,49.05 L141.045,50.806 L141.819,50.806 L141.819,53.539 C141.221,53.539 140.689,53.705 140.355,53.963 L139.846,53.963 L139.846,57.102 L141.819,57.102 L141.819,61.782" id="Fill-384" fill="#92B5A9"></path>
        <path d="M143.818,62.304 L139.824,62.304 C139.534,62.304 139.302,62.071 139.302,61.782 L144.34,61.782 C144.34,62.071 144.104,62.304 143.818,62.304" id="Fill-385" fill="#83A89A"></path>
        <path d="M143.796,57.102 L139.846,57.102 L139.846,55.29 L140.355,55.29 C140.689,55.549 141.221,55.716 141.819,55.716 C142.42,55.716 142.949,55.549 143.288,55.29 L143.796,55.29 L143.796,57.102" id="Fill-386" fill="#6DA193"></path>
        <path d="M141.819,55.716 C141.221,55.716 140.689,55.549 140.355,55.29 L139.846,55.29 L139.846,53.963 L140.355,53.963 C140.689,53.705 141.221,53.539 141.819,53.539 C142.42,53.539 142.949,53.705 143.288,53.963 L143.796,53.963 L143.796,55.29 L143.288,55.29 C142.949,55.549 142.42,55.716 141.819,55.716" id="Fill-387" fill="#B4D1C0"></path>
        <polygon id="Fill-388" fill="#939E7C" points="141.819 49.049 142.596 49.049 142.596 48.005 141.819 48.005"></polygon>
        <polygon id="Fill-389" fill="#9BA98C" points="141.045 49.049 141.819 49.049 141.819 48.005 141.045 48.005"></polygon>
        <polygon id="Fill-390" fill="#939E7C" points="141.819 50.807 142.596 50.807 142.596 49.129 141.819 49.129"></polygon>
        <polygon id="Fill-391" fill="#9BA98C" points="141.045 50.807 141.819 50.807 141.819 49.129 141.045 49.129"></polygon>
        <polygon id="Fill-392" fill="#839071" points="141.045 49.129 142.596 49.129 142.596 49.05 141.045 49.05"></polygon>
        <path d="M137.568,61.782 L134.913,61.782 L134.913,60.265 L136.859,60.265 L136.859,57.199 L134.913,57.199 L134.913,51.295 L135.687,51.295 C135.687,51.447 135.687,52.013 135.687,52.474 C135.687,53.84 137.706,53.481 137.706,55.358 C137.706,56.577 137.568,61.782 137.568,61.782" id="Fill-393" fill="#84836D"></path>
        <path d="M134.913,61.782 L133.18,61.782 C133.18,61.782 133.18,61.175 133.18,60.265 L134.913,60.265 L134.913,61.782 M134.913,57.199 L133.18,57.199 C133.18,55.943 133.18,54.662 133.18,53.692 C133.666,53.391 134.137,53.133 134.137,52.474 C134.137,51.936 134.137,51.256 134.137,51.256 L134.137,51.295 L134.913,51.295 L134.913,57.199" id="Fill-394" fill="#8F947C"></path>
        <path d="M137.048,62.304 L132.776,62.304 C132.756,62.304 132.736,62.303 132.716,62.301 C132.977,62.271 133.18,62.051 133.18,61.782 L132.256,61.782 L137.568,61.782 C137.568,62.071 137.336,62.304 137.048,62.304" id="Fill-395" fill="#84836D"></path>
        <path d="M136.859,60.265 L133.18,60.265 C133.18,60.088 133.18,59.9 133.18,59.702 L136.859,59.702 L136.859,60.265 M136.859,57.761 L133.18,57.761 C133.18,57.575 133.18,57.387 133.18,57.199 L136.859,57.199 L136.859,57.761" id="Fill-396" fill="#AAC6B9"></path>
        <path d="M136.859,59.702 L133.18,59.702 C133.18,59.117 133.18,58.451 133.18,57.761 L136.859,57.761 L136.859,59.702" id="Fill-397" fill="#667F77"></path>
        <polygon id="Fill-398" fill="#566F65" points="134.913 49.537 135.687 49.537 135.687 48.494 134.913 48.494"></polygon>
        <polygon id="Fill-399" fill="#667F77" points="134.137 49.537 134.913 49.537 134.913 48.494 134.137 48.494"></polygon>
        <polygon id="Fill-400" fill="#566F65" points="134.913 51.295 135.687 51.295 135.687 49.616 134.913 49.616"></polygon>
        <polygon id="Fill-401" fill="#667F77" points="134.137 51.295 134.913 51.295 134.913 49.616 134.137 49.616"></polygon>
        <polygon id="Fill-402" fill="#4E655B" points="134.137 49.616 135.687 49.616 135.687 49.537 134.137 49.537"></polygon>
        <path d="M133.974,42.049 L132.185,42.049 L132.185,41.223 L133.698,41.223 L133.698,35.662 L132.185,35.662 L132.185,32.355 C132.738,32.35 133.322,32.169 133.582,32.086 C133.464,31.804 133.335,31.54 133.219,31.283 L132.185,31.283 L132.185,29.5 L132.911,29.5 L132.911,29.892 C132.911,30.383 133.009,30.824 133.219,31.283 C133.335,31.54 133.464,31.804 133.582,32.086 C133.8,32.595 133.974,33.161 133.974,33.853 C133.974,34.985 133.974,42.049 133.974,42.049" id="Fill-403" fill="#A2C4BB"></path>
        <path d="M132.185,42.049 L130.402,42.049 C130.402,42.049 130.402,34.985 130.402,33.853 C130.402,33.161 130.578,32.595 130.791,32.086 C130.84,31.97 130.891,31.857 130.942,31.746 C130.906,31.824 130.871,31.903 130.838,31.984 L130.791,32.089 C131.052,32.169 131.629,32.355 132.18,32.355 L132.185,32.355 L132.185,35.662 L130.675,35.662 L130.675,41.223 L132.185,41.223 L132.185,42.049 M131.043,31.53 C131.074,31.464 131.104,31.4 131.134,31.335 L131.101,31.41 L131.068,31.479 L131.043,31.53 M132.185,31.283 L131.159,31.283 C131.367,30.824 131.464,30.383 131.464,29.892 L131.464,29.5 L132.185,29.5 L132.185,31.283" id="Fill-404" fill="#B2D5CB"></path>
        <path d="M133.487,42.534 L130.889,42.534 C130.62,42.534 130.402,42.317 130.402,42.049 L133.972,42.049 C133.972,42.317 133.756,42.534 133.487,42.534" id="Fill-405" fill="#A2C4BB"></path>
        <path d="M130.675,41.224 L133.698,41.224 L133.698,35.662 L130.675,35.662 L130.675,41.224 Z M130.844,40.495 L133.513,40.495 L133.513,36.446 L130.844,36.446 L130.844,40.495 Z" id="Fill-406" fill="#A39688"></path>
        <path d="M132.185,32.355 L132.18,32.355 C131.629,32.355 131.052,32.169 130.791,32.089 L130.838,31.984 C130.871,31.903 130.906,31.824 130.942,31.746 C130.968,31.689 130.994,31.633 131.02,31.576 L131.043,31.53 L131.068,31.479 L131.101,31.41 L131.134,31.335 L131.141,31.322 L131.159,31.283 L133.219,31.283 C133.335,31.54 133.464,31.804 133.582,32.086 C133.322,32.169 132.738,32.35 132.185,32.355" id="Fill-407" fill="#A39688"></path>
        <path d="M130.844,40.495 L133.513,40.495 L133.513,36.446 L130.844,36.446 L130.844,40.495 Z M131.106,40.189 L133.252,40.189 L133.252,38.223 L131.106,38.223 L131.106,40.189 Z" id="Fill-408" fill="#B7D6CC"></path>
        <polygon id="Fill-409" fill="#A9C5B8" points="131.106 40.189 133.252 40.189 133.252 38.223 131.106 38.223"></polygon>
        <polygon id="Fill-410" fill="#8AAAA2" points="132.185 27.858 132.911 27.858 132.911 26.887 132.185 26.887"></polygon>
        <polygon id="Fill-411" fill="#98B6B0" points="131.464 27.858 132.185 27.858 132.185 26.887 131.464 26.887"></polygon>
        <polygon id="Fill-412" fill="#8AAAA2" points="132.185 29.499 132.911 29.499 132.911 27.933 132.185 27.933"></polygon>
        <polygon id="Fill-413" fill="#98B6B0" points="131.464 29.499 132.185 29.499 132.185 27.933 131.464 27.933"></polygon>
        <polygon id="Fill-414" fill="#7D9C93" points="131.464 27.933 132.911 27.933 132.911 27.858 131.464 27.858"></polygon>
        <path d="M133.18,61.782 L131.189,61.782 L131.189,57.627 L132.637,57.627 L132.637,53.439 L131.189,53.439 L131.189,47.541 L131.964,47.541 C131.964,48.216 131.964,49.021 131.964,49.314 C131.964,50.677 133.18,50.319 133.18,52.2 C133.18,52.446 133.18,52.987 133.18,53.692 C133.18,54.662 133.18,55.943 133.18,57.199 C133.18,57.387 133.18,57.575 133.18,57.761 C133.18,58.451 133.18,59.117 133.18,59.702 C133.18,59.9 133.18,60.088 133.18,60.265 C133.18,61.175 133.18,61.782 133.18,61.782 M131.964,46.78 L131.189,46.78 L131.189,46.492 L131.964,46.492 C131.964,46.492 131.964,46.602 131.964,46.78" id="Fill-415" fill="#59706B"></path>
        <path d="M131.189,61.782 L129.198,61.782 C129.198,61.782 129.198,53.414 129.198,52.2 C129.198,50.319 130.412,50.677 130.412,49.314 C130.412,49.021 130.412,48.216 130.412,47.541 L131.189,47.541 L131.189,53.439 L129.742,53.439 L129.742,57.627 L131.189,57.627 L131.189,61.782 M131.189,46.78 L130.412,46.78 C130.412,46.602 130.412,46.492 130.412,46.492 L131.189,46.492 L131.189,46.78" id="Fill-416" fill="#68817C"></path>
        <path d="M132.655,62.304 L129.721,62.304 C129.431,62.304 129.198,62.071 129.198,61.782 L133.18,61.782 C133.18,62.051 132.977,62.271 132.716,62.301 C132.696,62.303 132.676,62.304 132.655,62.304" id="Fill-417" fill="#59706B"></path>
        <polygon id="Fill-418" fill="#59706B" points="130.299 47.541 132.078 47.541 132.078 46.78 130.299 46.78"></polygon>
        <polygon id="Fill-419" fill="#97AA91" points="130.691 46.492 131.686 46.492 131.686 45.287 130.691 45.287"></polygon>
        <polygon id="Fill-420" fill="#AAC6B9" points="129.742 57.626 132.637 57.626 132.637 53.439 129.742 53.439"></polygon>
        <polyline id="Fill-421" fill="#A2C4BB" points="141.817 42.534 141.355 42.534 140.994 39.38 141.64 39.38 141.817 42.534"></polyline>
        <polyline id="Fill-422" fill="#A2C4BB" points="143.184 42.534 142.721 42.534 142.9 39.38 143.544 39.38 143.184 42.534"></polyline>
        <polyline id="Fill-423" fill="#B2D5CB" points="142.721 42.534 141.817 42.534 141.64 39.38 142.9 39.38 142.721 42.534"></polyline>
        <polyline id="Fill-424" fill="#A2C4BB" points="138.851 42.534 138.39 42.534 138.025 39.38 138.671 39.38 138.851 42.534"></polyline>
        <polyline id="Fill-425" fill="#A2C4BB" points="140.216 42.534 139.752 42.534 139.934 39.38 140.575 39.38 140.216 42.534"></polyline>
        <polyline id="Fill-426" fill="#B2D5CB" points="139.752 42.534 138.851 42.534 138.671 39.38 139.934 39.38 139.752 42.534"></polyline>
        <polyline id="Fill-427" fill="#947E81" points="147.864 80.459 126.367 80.459 147.864 80.459 147.864 26.199 147.864 80.459"></polyline>
        <polygon id="Fill-428" fill="#7F2A34" points="166.929 80.459 167.99 80.459 167.99 26.199 166.929 26.199"></polygon>
        <polygon id="Fill-429" fill="#7F2A34" points="156.717 62.712 178.166 62.712 178.166 61.694 156.717 61.694"></polygon>
        <polygon id="Fill-430" fill="#7F2A34" points="156.717 44.313 178.166 44.313 178.166 43.296 156.717 43.296"></polygon>
        <path d="M157.775,79.496 L177.146,79.496 L177.146,27.216 L157.775,27.216 L157.775,79.496 Z M156.713,80.512 L178.206,80.512 L178.206,26.199 L156.713,26.199 L156.713,80.512 Z" id="Fill-431" fill="#7F2A34"></path>
        <polygon id="Fill-432" fill="#7F2A34" points="136.585 80.459 137.645 80.459 137.645 26.199 136.585 26.199"></polygon>
        <polygon id="Fill-433" fill="#7F2A34" points="126.371 62.712 147.82 62.712 147.82 61.694 126.371 61.694"></polygon>
        <polygon id="Fill-434" fill="#7F2A34" points="126.371 44.313 147.82 44.313 147.82 43.296 126.371 43.296"></polygon>
        <path d="M127.43,79.496 L146.8,79.496 L146.8,27.216 L127.43,27.216 L127.43,79.496 Z M126.367,80.512 L147.864,80.512 L147.864,26.199 L126.367,26.199 L126.367,80.512 Z" id="Fill-435" fill="#7F2A34"></path>
        <path d="M153.541,82.388 C153.541,83 154.06,83.497 154.696,83.497 C155.336,83.497 155.854,83 155.854,82.388 C155.854,81.774 155.336,81.28 154.696,81.28 C154.06,81.28 153.541,81.774 153.541,82.388" id="Fill-436" fill="#0A0B09"></path>
        <path d="M153.896,82.388 C153.896,82.811 154.254,83.156 154.696,83.156 C155.139,83.156 155.498,82.811 155.498,82.388 C155.498,81.965 155.139,81.622 154.696,81.622 C154.254,81.622 153.896,81.965 153.896,82.388" id="Fill-437" fill="#595956"></path>
        <path d="M148.647,82.388 C148.647,83 149.166,83.497 149.805,83.497 C150.441,83.497 150.96,83 150.96,82.388 C150.96,81.774 150.441,81.28 149.805,81.28 C149.166,81.28 148.647,81.774 148.647,82.388" id="Fill-438" fill="#0A0B09"></path>
        <path d="M149.003,82.388 C149.003,82.811 149.362,83.156 149.805,83.156 C150.245,83.156 150.604,82.811 150.604,82.388 C150.604,81.965 150.245,81.622 149.805,81.622 C149.362,81.622 149.003,81.965 149.003,82.388" id="Fill-439" fill="#595956"></path>
        <polygon id="Fill-440" fill="#D3D3B6" points="81.078 78.727 96.564 78.727 96.564 68.527 81.078 68.527"></polygon>
        <polygon id="Fill-441" fill="#3C3830" points="82.094 77.716 95.547 77.716 95.547 69.543 82.094 69.543"></polygon>
        <path d="M79.656,80.15 L97.984,80.15 L97.984,67.107 L79.656,67.107 L79.656,80.15 Z M79.242,80.567 L98.401,80.567 L98.401,66.69 L79.242,66.69 L79.242,80.567 Z" id="Fill-442" fill="#2E7C7C"></path>
        <polyline id="Fill-443" fill="#1B6A6C" points="81.078 68.527 79.656 67.107 79.656 80.15 81.078 78.727 81.078 68.527"></polyline>
        <polyline id="Fill-444" fill="#398E8C" points="81.078 78.727 79.656 80.15 97.984 80.15 96.564 78.727 81.078 78.727"></polyline>
        <polyline id="Fill-445" fill="#398E8C" points="96.564 78.727 97.984 80.15 97.984 67.107 96.564 68.527 96.564 78.727"></polyline>
        <polyline id="Fill-446" fill="#1B6A6C" points="81.078 68.527 96.564 68.527 97.984 67.107 79.656 67.107 81.078 68.527"></polyline>
        <polygon id="Fill-447" fill="#D3D3B6" points="45.944 88.111 59.479 88.111 59.479 73.221 45.944 73.221"></polygon>
        <polygon id="Fill-448" fill="#3C3830" points="47.37 86.684 58.054 86.684 58.054 74.648 47.37 74.648"></polygon>
        <polyline id="Fill-449" fill="#895732" points="44.899 89.157 45.944 88.111 45.944 73.221 59.479 73.221 60.527 72.175 44.899 72.175 44.899 89.157"></polyline>
        <polyline id="Fill-450" fill="#72452B" points="44.899 72.175 60.527 72.175 61.373 71.331 44.053 71.331 44.053 90.001 44.899 89.157 44.899 72.175"></polyline>
        <polyline id="Fill-451" fill="#A47D5D" points="60.527 72.175 59.479 73.221 59.479 88.111 45.944 88.111 44.899 89.157 60.527 89.157 60.527 72.175"></polyline>
        <polyline id="Fill-452" fill="#91623F" points="60.527 72.175 60.527 89.157 44.899 89.157 44.053 90.001 61.373 90.001 61.373 71.331 60.527 72.175"></polyline>
        <polygon id="Fill-453" fill="#7E6146" points="38.729 108.835 108.035 108.835 108.035 107.401 38.729 107.401"></polygon>
        <polyline id="Fill-454" fill="#231D18" points="108.035 108.835 38.729 108.835 41.979 111.083 104.785 111.083 108.035 108.835"></polyline>
        <polyline id="Fill-455" fill="#231D18" points="47.544 155.305 45.229 155.305 45.229 111.083 49.169 111.083 47.544 155.305"></polyline>
        <polyline id="Fill-456" fill="#231D18" points="99.218 155.305 101.535 155.305 101.535 111.083 97.596 111.083 99.218 155.305"></polyline>
        <path d="M129.77,124.799 L108.754,124.799 C107.855,124.799 107.129,125.529 107.129,126.424 L131.395,126.424 C131.395,125.529 130.666,124.799 129.77,124.799" id="Fill-457" fill="#D2CCA6"></path>
        <polygon id="Fill-458" fill="#231D18" points="107.129 132.383 131.395 132.383 131.395 126.424 107.129 126.424"></polygon>
        <polyline id="Fill-459" fill="#231D18" points="131.61 96.419 134.32 96.742 131.395 126.424 127.713 126.424 131.61 96.419"></polyline>
        <polyline id="Fill-460" fill="#231D18" points="107.129 132.383 110.593 132.383 109.62 155.305 107.129 155.305 107.129 132.383"></polyline>
        <polyline id="Fill-461" fill="#231D18" points="127.929 132.383 131.395 132.383 131.395 155.305 128.904 155.305 127.929 132.383"></polyline>
        <path d="M16.343,124.799 L37.362,124.799 C38.26,124.799 38.985,125.529 38.985,126.424 L14.718,126.424 C14.718,125.529 15.446,124.799 16.343,124.799" id="Fill-462" fill="#D2CCA6"></path>
        <polygon id="Fill-463" fill="#231D18" points="14.718 132.383 38.985 132.383 38.985 126.424 14.718 126.424"></polygon>
        <polyline id="Fill-464" fill="#231D18" points="14.502 96.419 11.794 96.742 14.718 126.424 18.404 126.424 14.502 96.419"></polyline>
        <polyline id="Fill-465" fill="#231D18" points="38.985 132.383 35.52 132.383 36.495 155.305 38.985 155.305 38.985 132.383"></polyline>
        <polyline id="Fill-466" fill="#231D18" points="18.186 132.383 14.718 132.383 14.718 155.305 17.211 155.305 18.186 132.383"></polyline>
        <path d="M162.306,92.159 C162.845,93.182 162.371,94.489 161.25,95.079 C160.126,95.672 158.78,95.321 158.24,94.299 C157.701,93.277 157.926,92.118 159.049,91.529 C160.17,90.938 161.768,91.135 162.306,92.159" id="Fill-467" fill="#934B2A"></path>
        <path d="M159.312,92.631 C159.312,93.789 158.283,94.724 157.016,94.724 C155.746,94.724 154.718,93.789 154.718,92.631 C154.718,91.474 155.454,90.556 156.724,90.556 C157.991,90.556 159.312,91.474 159.312,92.631" id="Fill-468" fill="#B5652F"></path>
        <path d="M165.324,91.896 C165.917,92.74 165.646,93.955 164.72,94.604 C163.791,95.255 162.56,95.097 161.967,94.251 C161.374,93.407 161.323,92.194 162.531,91.873 C162.811,90.925 164.732,91.05 165.324,91.896" id="Fill-469" fill="#51783B"></path>
        <path d="M67.069,91.484 C67.069,90.823 67.069,88.028 67.069,88.028 L65.06,88.028 C65.06,88.028 65.06,90.823 65.06,91.484 C65.06,93.155 63.482,92.716 63.482,95.016 C63.482,96.508 63.482,106.762 63.482,106.762 L68.646,106.762 C68.646,106.762 68.646,96.508 68.646,95.016 C68.646,92.716 67.069,93.155 67.069,91.484" id="Fill-470" fill="#26201C"></path>
        <path d="M68.646,95.016 C68.646,92.716 67.069,93.155 67.069,91.484 C67.069,90.823 67.069,88.028 67.069,88.028 L66.064,88.028 L66.064,106.762 L68.646,106.762 C68.646,106.762 68.646,96.508 68.646,95.016" id="Fill-471" fill="#26201C"></path>
        <path d="M63.482,95.016 C63.482,92.716 65.06,93.155 65.06,91.484 C65.06,90.823 65.06,88.028 65.06,88.028 L66.064,88.028 L66.064,106.762 L63.482,106.762 C63.482,106.762 63.482,96.508 63.482,95.016" id="Fill-472" fill="#493F3A"></path>
        <path d="M63.482,106.762 C63.482,107.115 63.785,107.401 64.16,107.401 L67.971,107.401 C68.346,107.401 68.646,107.115 68.646,106.762 L63.482,106.762" id="Fill-473" fill="#26201C"></path>
        <polygon id="Fill-474" fill="#26201C" points="64.911 89.312 67.22 89.312 67.22 88.382 64.911 88.382"></polygon>
        <polygon id="Fill-475" fill="#AC9467" points="65.419 88.028 66.71 88.028 66.71 86.55 65.419 86.55"></polygon>
        <polygon id="Fill-476" fill="#CFCCB5" points="64.188 101.669 67.943 101.669 67.943 96.54 64.188 96.54"></polygon>
        <path d="M64.782,99.498 L64.52,98.507 L64.655,98.507 L64.803,99.156 L64.848,99.361 C64.871,99.254 64.888,99.192 64.89,99.176 L65.08,98.507 L65.239,98.507 L65.381,99.008 C65.417,99.133 65.442,99.25 65.459,99.361 L65.508,99.146 L65.664,98.507 L65.796,98.507 L65.522,99.498 L65.396,99.498 L65.188,98.744 L65.156,98.626 L65.127,98.744 L64.915,99.498 L64.782,99.498" id="Fill-477" fill="#0A0B09"></path>
        <path d="M65.903,99.498 L66.026,99.498 L66.026,98.78 L65.903,98.78 L65.903,99.498 Z M65.903,98.646 L66.026,98.646 L66.026,98.507 L65.903,98.507 L65.903,98.646 Z" id="Fill-478" fill="#0A0B09"></path>
        <path d="M66.213,99.498 L66.213,98.78 L66.322,98.78 L66.322,98.882 C66.375,98.803 66.449,98.764 66.549,98.764 L66.667,98.785 L66.75,98.847 L66.79,98.939 L66.794,99.056 L66.794,99.498 L66.674,99.498 L66.674,99.06 L66.659,98.949 L66.608,98.89 L66.523,98.868 L66.388,98.919 C66.352,98.952 66.333,99.013 66.333,99.105 L66.333,99.498 L66.213,99.498" id="Fill-479" fill="#0A0B09"></path>
        <path d="M67.076,99.07 L67.476,99.07 L67.429,98.934 L67.279,98.863 L67.139,98.919 L67.076,99.07 Z M67.474,99.267 L67.601,99.282 L67.49,99.454 L67.283,99.516 C67.18,99.516 67.095,99.483 67.033,99.419 C66.975,99.351 66.94,99.263 66.94,99.146 C66.94,99.025 66.975,98.93 67.035,98.863 C67.097,98.797 67.18,98.764 67.276,98.764 C67.374,98.764 67.452,98.797 67.514,98.861 C67.575,98.927 67.604,99.019 67.604,99.138 L67.604,99.172 L67.067,99.172 L67.135,99.351 L67.285,99.414 L67.399,99.379 L67.474,99.267 L67.474,99.267 Z" id="Fill-480" fill="#0A0B09"></path>
        <path d="M88.88,99.091 C88.956,98.038 88.827,96.838 88.564,95.722 L83.916,95.722 C83.653,96.838 83.524,98.038 83.601,99.091 C83.711,100.575 84.636,101.688 85.969,101.825 L85.969,106.829 L84.098,107.173 L84.098,107.401 L88.381,107.401 L88.381,107.173 L86.515,106.829 L86.515,101.825 C87.846,101.688 88.771,100.575 88.88,99.091" id="Fill-481" fill="#D2DACB"></path>
        <path d="M86.239,95.722 L84.242,95.722 C84.13,96.26 84.054,96.904 84.014,97.523 L86.239,97.523 L86.239,95.722" id="Fill-482" fill="#E8ECE2"></path>
        <path d="M88.467,97.523 C88.427,96.904 88.351,96.26 88.238,95.722 L86.239,95.722 L86.239,97.523 L88.467,97.523" id="Fill-483" fill="#D2DACB"></path>
        <path d="M84.014,97.523 C83.978,98.093 83.973,98.643 84.005,99.06 C84.108,100.479 85.008,101.23 86.239,101.23 L86.239,97.523 L84.014,97.523" id="Fill-484" fill="#753D40"></path>
        <path d="M88.467,97.523 L86.239,97.523 L86.239,101.23 L86.241,101.23 C87.473,101.23 88.372,100.479 88.476,99.06 C88.506,98.643 88.503,98.093 88.467,97.523" id="Fill-485" fill="#5D2F33"></path>
        <path d="M62.091,99.091 C62.169,98.038 62.038,96.838 61.775,95.722 L57.127,95.722 C56.864,96.838 56.735,98.038 56.812,99.091 C56.922,100.575 57.849,101.688 59.177,101.825 L59.177,106.829 L57.311,107.173 L57.311,107.401 L61.594,107.401 L61.594,107.173 L59.723,106.829 L59.723,101.825 C61.056,101.688 61.98,100.575 62.091,99.091" id="Fill-486" fill="#D2DACB"></path>
        <path d="M59.45,95.722 L57.453,95.722 C57.341,96.26 57.265,96.904 57.225,97.523 L59.45,97.523 L59.45,95.722" id="Fill-487" fill="#E8ECE2"></path>
        <path d="M61.678,97.523 C61.638,96.904 61.563,96.26 61.451,95.722 L59.45,95.722 L59.45,97.523 L61.678,97.523" id="Fill-488" fill="#D2DACB"></path>
        <path d="M57.225,97.523 C57.188,98.093 57.186,98.643 57.216,99.06 C57.319,100.479 58.219,101.23 59.45,101.23 L59.45,97.523 L57.225,97.523" id="Fill-489" fill="#753D40"></path>
        <path d="M61.678,97.523 L59.45,97.523 L59.45,101.23 C60.684,101.23 61.583,100.479 61.687,99.06 C61.719,98.643 61.714,98.093 61.678,97.523" id="Fill-490" fill="#5D2F33"></path>
        <path d="M96.802,105.844 C96.802,106.208 95.881,106.502 94.743,106.502 C93.606,106.502 92.687,106.208 92.687,105.844 C92.687,105.484 93.606,105.191 94.743,105.191 C95.881,105.191 96.802,105.484 96.802,105.844" id="Fill-491" fill="#BA8757"></path>
        <path d="M94.148,105.603 C94.148,105.965 93.784,106.258 93.336,106.258 C92.885,106.258 92.523,105.965 92.523,105.603 C92.523,105.24 92.885,104.947 93.336,104.947 C93.784,104.947 94.148,105.24 94.148,105.603" id="Fill-492" fill="#B64034"></path>
        <path d="M100.375,105.844 C100.375,106.208 100.014,106.502 99.565,106.502 C99.114,106.502 98.753,106.208 98.753,105.844 C98.753,105.484 99.114,105.191 99.565,105.191 C100.014,105.191 100.375,105.484 100.375,105.844" id="Fill-493" fill="#B64034"></path>
        <path d="M89.06,106.258 C88.909,106.258 88.789,106.136 88.789,105.985 C88.789,105.837 88.909,105.714 89.06,105.714 L103.412,105.714 C103.564,105.714 103.685,105.837 103.685,105.985 C103.685,106.136 103.564,106.258 103.412,106.258 L89.06,106.258" id="Fill-494" fill="#DFD9C9"></path>
        <path d="M99.876,107.284 L99.876,107.157 C100.373,107.157 100.857,106.706 103.412,106.258 L89.06,106.258 C91.615,106.706 92.101,107.157 92.596,107.157 L92.596,107.284 L92.712,107.401 L99.76,107.401 L99.876,107.284" id="Fill-495" fill="#BEBBAB"></path>
        <path d="M54.771,105.603 C54.771,105.965 54.408,106.258 53.959,106.258 C53.511,106.258 53.146,105.965 53.146,105.603 C53.146,105.24 53.511,104.947 53.959,104.947 C54.408,104.947 54.771,105.24 54.771,105.603" id="Fill-496" fill="#B64034"></path>
        <path d="M53.407,105.882 C53.407,106.247 53.043,106.538 52.595,106.538 C52.146,106.538 51.782,106.247 51.782,105.882 C51.782,105.521 52.146,105.228 52.595,105.228 C53.043,105.228 53.407,105.521 53.407,105.882" id="Fill-497" fill="#B64034"></path>
        <path d="M51.137,106.03 C51.137,106.425 50.235,106.742 49.122,106.742 C48.014,106.742 47.114,106.425 47.114,106.03 C47.114,105.636 48.014,105.317 49.122,105.317 C50.235,105.317 51.137,105.636 51.137,106.03" id="Fill-498" fill="#945E3E"></path>
        <path d="M55.584,105.844 C55.584,106.208 55.221,106.502 54.771,106.502 C54.323,106.502 53.959,106.208 53.959,105.844 C53.959,105.484 54.323,105.191 54.771,105.191 C55.221,105.191 55.584,105.484 55.584,105.844" id="Fill-499" fill="#B64034"></path>
        <path d="M44.827,106.258 C44.677,106.258 44.555,106.136 44.555,105.985 C44.555,105.837 44.677,105.714 44.827,105.714 L59.177,105.714 C59.329,105.714 59.45,105.837 59.45,105.985 C59.45,106.136 59.329,106.258 59.177,106.258 L44.827,106.258" id="Fill-500" fill="#DFD9C9"></path>
        <path d="M55.644,107.284 L55.644,107.157 C56.141,107.157 56.623,106.706 59.177,106.258 L44.827,106.258 C47.381,106.706 47.865,107.157 48.36,107.157 L48.36,107.284 L48.479,107.401 L55.527,107.401 L55.644,107.284" id="Fill-501" fill="#BEBBAB"></path>
        <path d="M152.659,93.686 C152.49,93.686 152.353,93.484 152.353,93.235 C152.353,92.99 152.49,92.787 152.659,92.787 L168.907,92.787 C169.076,92.787 169.214,92.99 169.214,93.235 C169.214,93.484 169.076,93.686 168.907,93.686 L152.659,93.686" id="Fill-502" fill="#D8C7B9"></path>
        <path d="M164.906,95.708 L164.906,95.497 C165.467,95.497 166.015,94.426 168.907,93.686 L152.659,93.686 C155.552,94.426 156.1,95.497 156.66,95.497 L156.66,95.708 C156.66,95.814 156.72,95.902 156.791,95.902 L164.772,95.902 C164.847,95.902 164.906,95.814 164.906,95.708" id="Fill-503" fill="#C6AF9C"></path>
        <polyline id="Fill-504" fill="#D8C7B9" points="163.905 97.97 164.023 98.113 163.905 98.258 157.661 98.258 157.545 98.113 157.661 97.97 163.905 97.97"></polyline>
        <path d="M159.199,97.429 L159.199,97.499 C158.983,97.499 158.773,97.737 157.661,97.97 L163.905,97.97 C162.796,97.737 162.582,97.499 162.369,97.499 L162.369,97.429 L162.318,97.368 L159.25,97.368 L159.199,97.429" id="Fill-505" fill="#C6AF9C"></path>
        <path d="M162.574,95.902 L160.782,95.902 L160.782,97.368 L161.925,97.368 C161.925,97.368 161.571,96.918 161.571,96.635 C161.571,96.354 162.574,95.902 162.574,95.902" id="Fill-506" fill="#C6AF9C"></path>
        <path d="M158.992,95.902 L160.782,95.902 L160.782,97.368 L159.642,97.368 C159.642,97.368 159.995,96.918 159.995,96.635 C159.995,96.354 158.992,95.902 158.992,95.902" id="Fill-507" fill="#C6AF9C"></path>
        <path d="M162.255,97.368 C162.255,97.44 162.066,97.501 161.838,97.501 L159.729,97.501 C159.5,97.501 159.312,97.44 159.312,97.368 C159.312,97.297 159.5,97.237 159.729,97.237 L161.838,97.237 C162.066,97.237 162.255,97.297 162.255,97.368" id="Fill-508" fill="#C6AF9C"></path>
        <path d="M164.303,95.902 C164.303,95.783 164.06,95.687 163.764,95.687 L157.805,95.687 C157.507,95.687 157.264,95.783 157.264,95.902 C157.264,96.021 157.507,96.116 157.805,96.116 L163.764,96.116 C164.06,96.116 164.303,96.021 164.303,95.902" id="Fill-509" fill="#C6AF9C"></path>
        <path d="M77.365,101.049 L77.037,101.041 C77.039,100.982 77.2,95.216 77.443,92.303 C77.691,89.37 79.106,86.493 79.119,86.465 L79.411,86.61 C79.398,86.637 78.013,89.461 77.77,92.333 C77.523,95.232 77.365,100.992 77.365,101.049" id="Fill-510" fill="#28342C"></path>
        <path d="M75.238,102.601 L74.913,102.592 C74.915,102.532 75.074,96.763 75.319,93.855 C75.559,91.023 72.96,88.229 72.933,88.197 L73.172,87.975 C73.283,88.095 75.895,90.906 75.645,93.881 C75.399,96.781 75.241,102.541 75.238,102.601" id="Fill-511" fill="#28342C"></path>
        <path d="M76.136,99.822 C76.119,99.591 75.74,94.098 76.544,91.042 C77.316,88.118 80.998,87.658 81.154,87.639 L81.19,87.964 C81.157,87.968 77.577,88.418 76.861,91.128 C76.07,94.131 76.457,99.745 76.462,99.8 L76.136,99.822" id="Fill-512" fill="#28342C"></path>
        <path d="M81.225,85.841 C80.858,86.561 79.743,87.312 79.024,86.946 C78.303,86.582 78.252,85.236 78.615,84.517 C78.981,83.8 79.656,83.917 80.376,84.283 C81.096,84.646 81.589,85.122 81.225,85.841" id="Fill-513" fill="#A5404B"></path>
        <path d="M73.239,85.905 C73.73,86.546 73.923,87.876 73.283,88.369 C72.641,88.856 71.407,88.322 70.916,87.683 C70.425,87.041 70.825,86.484 71.464,85.995 C72.107,85.504 72.75,85.263 73.239,85.905" id="Fill-514" fill="#A5404B"></path>
        <path d="M83.021,89.12 C82.215,89.189 80.99,88.634 80.922,87.829 C80.856,87.026 81.972,86.275 82.775,86.207 C83.58,86.14 83.836,86.776 83.901,87.581 C83.969,88.386 83.825,89.054 83.021,89.12" id="Fill-515" fill="#A5404B"></path>
        <path d="M78.874,97.397 C78.553,95.849 79.052,94.689 79.052,94.689 L73.821,94.689 C73.821,94.689 74.32,95.849 73.999,97.397 C73.769,98.51 72.721,99.454 73.159,102.414 C73.392,104.008 74.31,107.401 74.31,107.401 L78.563,107.401 C78.563,107.401 79.479,104.008 79.714,102.414 C80.149,99.454 79.104,98.51 78.874,97.397" id="Fill-516" fill="#DFE0C4"></path>
        <polygon id="Fill-517" fill="#C4C4A8" points="73.605 94.689 79.268 94.689 79.268 94.149 73.605 94.149"></polygon>
        <polygon id="Fill-518" fill="#0A0B09" points="140.017 90.135 140.973 90.135 140.973 89.775 140.017 89.775"></polygon>
        <polygon id="Fill-519" fill="#0A0B09" points="140.441 90.768 140.55 90.768 140.55 90.044 140.441 90.044"></polygon>
        <path d="M142.596,88.472 C142.198,88.077 141.531,87.984 140.495,87.984 C139.46,87.984 138.791,88.077 138.392,88.472 C138.045,88.819 137.909,89.323 137.964,90.059 C137.979,90.237 138.038,90.787 138.04,90.811 L138.043,90.841 L138.388,91.315 L138.599,91.187 L138.288,90.758 C138.275,90.641 138.227,90.195 138.218,90.044 C138.165,89.374 138.279,88.925 138.578,88.63 C138.921,88.292 139.547,88.217 140.495,88.217 C141.44,88.217 142.069,88.292 142.414,88.63 C142.71,88.925 142.824,89.374 142.771,90.044 C142.761,90.195 142.712,90.641 142.701,90.758 L142.391,91.187 L142.6,91.315 L142.947,90.841 L142.949,90.811 C142.951,90.787 143.011,90.237 143.025,90.059 C143.08,89.323 142.945,88.819 142.596,88.472" id="Fill-520" fill="#0A0B09"></path>
        <polyline id="Fill-521" fill="#0A0B09" points="142.77 98.258 142.2 98.258 141.877 97.527 142.483 97.147 142.77 98.258"></polyline>
        <polyline id="Fill-522" fill="#0A0B09" points="138.218 98.258 138.789 98.258 139.113 97.527 138.504 97.147 138.218 98.258"></polyline>
        <path d="M143.952,94.266 C143.952,96.167 142.403,97.705 140.495,97.705 C138.588,97.705 137.039,96.167 137.039,94.266 C137.039,92.37 138.588,90.832 140.495,90.832 C142.403,90.832 143.952,92.37 143.952,94.266" id="Fill-523" fill="#E6E5CC"></path>
        <path d="M140.495,97.61 C138.644,97.61 137.135,96.108 137.135,94.266 C137.135,92.425 138.644,90.926 140.495,90.926 C142.349,90.926 143.854,92.425 143.854,94.266 C143.854,96.108 142.349,97.61 140.495,97.61 Z M143.254,91.775 L143.241,91.761 L143.002,91.521 C142.338,90.923 141.457,90.556 140.495,90.556 C138.438,90.556 136.765,92.223 136.765,94.266 C136.765,95.251 137.151,96.142 137.778,96.806 L137.943,96.97 C138.611,97.593 139.511,97.978 140.495,97.978 C142.552,97.978 144.225,96.314 144.225,94.266 C144.225,93.309 143.857,92.434 143.254,91.775 L143.254,91.775 Z" id="Fill-524" fill="#5D7549"></path>
        <polygon id="Fill-525" fill="#2A2B27" points="140.387 91.806 140.604 91.806 140.604 91.1 140.387 91.1"></polygon>
        <polyline id="Fill-526" fill="#2A2B27" points="142.323 92.603 142.166 92.451 142.67 91.951 142.824 92.104 142.323 92.603"></polyline>
        <polygon id="Fill-527" fill="#2A2B27" points="142.971 94.376 143.682 94.376 143.682 94.161 142.971 94.161"></polygon>
        <polyline id="Fill-528" fill="#2A2B27" points="142.67 96.585 142.168 96.086 142.323 95.931 142.824 96.432 142.67 96.585"></polyline>
        <polygon id="Fill-529" fill="#2A2B27" points="140.387 97.436 140.604 97.436 140.604 96.73 140.387 96.73"></polygon>
        <polyline id="Fill-530" fill="#2A2B27" points="138.317 96.585 138.165 96.432 138.669 95.931 138.821 96.086 138.317 96.585"></polyline>
        <polygon id="Fill-531" fill="#2A2B27" points="137.309 94.376 138.02 94.376 138.02 94.161 137.309 94.161"></polygon>
        <polyline id="Fill-532" fill="#2A2B27" points="138.669 92.603 138.165 92.104 138.317 91.951 138.821 92.451 138.669 92.603"></polyline>
        <polyline id="Fill-533" fill="#2A2B27" points="140.668 94.806 140.323 94.806 140.368 92.65 140.622 92.65 140.668 94.806"></polyline>
        <polyline id="Fill-534" fill="#2A2B27" points="140.169 94.724 140.033 94.591 142.039 92.631 142.141 92.731 140.169 94.724"></polyline>
        <polyline id="Fill-535" fill="#2A2B27" points="140.626 94.266 140.495 94.399 140.365 94.266 140.495 94.136 140.626 94.266"></polyline>
        <path d="M144.052,91.89 C142.909,91.182 142.342,90.83 141.301,90.184 C141.618,89.677 142.289,89.525 142.797,89.84 L143.707,90.406 C144.213,90.72 144.367,91.386 144.052,91.89" id="Fill-536" fill="#5D7549"></path>
        <path d="M136.94,91.89 C138.078,91.182 138.647,90.83 139.688,90.184 C139.369,89.677 138.7,89.525 138.192,89.84 L137.285,90.406 C136.775,90.72 136.623,91.386 136.94,91.89" id="Fill-537" fill="#5D7549"></path>
        <path d="M73.063,40.686 C75.102,40.686 76.754,41.512 76.754,43.437 L76.754,45.6 L69.361,45.6 L69.361,43.437 C69.361,41.512 71.02,40.686 73.063,40.686" id="Fill-538" fill="#191A17"></path>
        <path d="M71.303,45.6 L69.365,45.6 C69.365,45.6 54.954,48.722 52.891,61.85 L73.058,61.85 L73.058,45.6 L71.303,45.6" id="Fill-539" fill="#2E2F2A"></path>
        <path d="M93.222,61.85 C91.167,48.722 76.754,45.6 76.754,45.6 L73.058,45.6 L73.058,61.85 L93.222,61.85" id="Fill-540" fill="#191A17"></path>
        <path d="M93.222,62.193 L52.891,62.193 C52.7,62.193 52.548,62.039 52.548,61.85 C52.548,61.659 52.7,61.506 52.891,61.506 L93.222,61.506 C93.412,61.506 93.568,61.659 93.568,61.85 C93.568,62.039 93.412,62.193 93.222,62.193" id="Fill-541" fill="#191A17"></path>
        <polygon id="Fill-542" fill="#0A0B09" points="72.662 40.973 73.466 40.973 73.466 -3.55271368e-15 72.662 -3.55271368e-15"></polygon>
    </g>
</svg>