<?xml version="1.0" encoding="UTF-8"?>
<svg width="195px" height="195px" viewBox="0 0 195 195" version="1.1" xmlns="http://www.w3.org/2000/svg" xmlns:xlink="http://www.w3.org/1999/xlink">
    <!-- Generator: Sketch 57.1 (83088) - https://sketch.com -->
    <title>office</title>
    <desc>Created with Sketch.</desc>
    <g id="office" stroke="none" stroke-width="1" fill="none" fill-rule="evenodd">
        <g id="Group-22">
            <polygon id="Fill-19" fill="#D3CCB6" points="0 194.94 195 194.94 195 147.543 0 147.543"></polygon>
            <polygon id="Fill-20" fill="#4CABB4" points="0 151.052 195 151.052 195 0.003 0 0.003"></polygon>
        </g>
        <polygon id="Fill-1896" fill="#2F3438" points="124 101 184 101 184 58 124 58"></polygon>
        <polygon id="Fill-2309" fill="#8A694C" points="124 103 184 103 184 101 124 101"></polygon>
        <polyline id="Fill-1856" fill="#292F2F" points="26.8805135 76 24 75.5678601 24.1194865 75 27 75.4329725 26.8805135 76"></polyline>
        <path d="M30.9826957,75.649692 C31.0895686,75.0633881 30.6903077,74.5027042 30.0914163,74.4002242 L27.8884235,74.0169095 C27.2885239,73.9124588 26.7158466,74.3026711 26.6089737,74.8899604 L26,78.2412538 L30.3727137,79 L30.9826957,75.649692" id="Fill-1857" fill="#393E3F"></path>
        <path d="M30.9310741,78.8118081 L26.5731533,78 C24.7825574,78.5397997 23.347669,80.0980496 23,82.1518187 L32.92163,84 C33.269299,81.9483395 32.4342904,79.9662625 30.9310741,78.8118081" id="Fill-1858" fill="#292F2F"></path>
        <polyline id="Fill-1859" fill="#FFF7C1" points="27.33 77 27.31 76.9981326 27.217 76.8739496 27.556 75.0877684 27.69 75 27.783 75.1251167 27.443 76.9112979 27.33 77"></polyline>
        <polyline id="Fill-1860" fill="#FFF7C1" points="28.33 77 28.31 76.9971963 28.217 76.8728972 28.556 75.0869159 28.691 75 28.783 75.1242991 28.443 76.911215 28.33 77"></polyline>
        <polyline id="Fill-1861" fill="#FFF7C1" points="28.33 77 28.31 77 28.217 76.8747664 28.557 75.0878505 28.689 75 28.783 75.1242991 28.444 76.911215 28.33 77"></polyline>
        <polyline id="Fill-1862" fill="#FFF7C1" points="29.331 77 29.311 77 29.216 76.8756428 29.556 75.0860215 29.69 75 29.784 75.1262272 29.443 76.9121085 29.331 77"></polyline>
        <polyline id="Fill-1863" fill="#FFF7C1" points="30.3305 77 30.3095 77 30.2165 76.8728972 30.5555 75.0850467 30.6905 75 30.7835 75.1252336 30.4425 76.9102804 30.3305 77"></polyline>
        <path d="M14.1088851,102 L5.06293219,85.1197037 C4.92190397,84.853655 5.02566044,84.5235575 5.29663609,84.3836356 L23.4812176,75 L24,75.9627021 L6.30800989,85.0940842 L15.0950753,101.496478 L14.1088851,102" id="Fill-1864" fill="#292F2F"></path>
        <polygon id="Fill-1865" fill="#292F2F" points="14 104 16 104 16 103 14 103"></polygon>
        <polyline id="Fill-1866" fill="#151A1A" points="17 105.868554 17 104 13 104 13 110 14.4096961 110 17 109.341759 17 108.526795 14.4096961 108.526795 14.4096961 105.868554 17 105.868554"></polyline>
        <path d="M14,111.5 C14,111.776683 13.7758621,112 13.5,112 C13.2233169,112 13,111.776683 13,111.5 C13,111.224959 13.2233169,111 13.5,111 C13.7758621,111 14,111.224959 14,111.5" id="Fill-1867" fill="#4E4E4B"></path>
        <path d="M14,111.5 C14,111.776683 13.7758621,112 13.500821,112 C13.2241379,112 13,111.776683 13,111.5 C13,111.224959 13.2241379,111 13.500821,111 C13.7758621,111 14,111.224959 14,111.5" id="Fill-1868" fill="#4E4E4B"></path>
        <polygon id="Fill-1869" fill="#4E4E4B" points="13.145 112 13.855 112 13.855 110 13.145 110"></polygon>
        <path d="M16,102.000469 C16,101.449554 15.5539906,101 15.000939,101 C14.4488263,101 14,101.449554 14,102.000469 C14,102.550446 14.4488263,103 15.000939,103 C15.5539906,103 16,102.550446 16,102.000469" id="Fill-1870" fill="#151A1A"></path>
        <path d="M16,102.001199 C16,101.447242 15.5534214,101 15,101 C14.4465786,101 14,101.447242 14,102.001199 C14,102.551559 14.4465786,103 15,103 C15.5534214,103 16,102.551559 16,102.001199" id="Fill-1871" fill="#393E3F"></path>
        <path d="M15,102.501965 C15,102.778978 14.7762512,103 14.4995093,103 C14.2247301,103 14,102.778978 14,102.501965 C14,102.224951 14.2247301,102 14.4995093,102 C14.7762512,102 15,102.224951 15,102.501965" id="Fill-1872" fill="#292F2F"></path>
        <polyline id="Fill-1873" fill="#4E4E4B" points="14.942 102.5005 14.782 102.6605 14.22 102.6605 14.058 102.5005 14.22 102.3395 14.782 102.3395 14.942 102.5005"></polyline>
        <path d="M6.80306815,84.4028284 C7.13192661,84.8474256 7.03935251,85.4737432 6.59676015,85.8027804 C6.15240448,86.1326998 5.5273089,86.0383111 5.19756877,85.5972424 C4.86782865,85.1535273 4.96040275,84.5263276 5.40387677,84.1981725 C5.84823244,83.8673709 6.47420968,83.9608775 6.80306815,84.4028284" id="Fill-1874" fill="#151A1A"></path>
        <path d="M6.80343561,84.4037949 C7.13121357,84.8484717 7.0403064,85.4751198 6.59601362,85.8031811 C6.15172085,86.1312423 5.5281745,86.0402565 5.19783578,85.5968613 C4.86749705,85.1534661 4.96096499,84.5255364 5.402697,84.1987567 C5.84698978,83.8681325 6.47437727,83.9591182 6.80343561,84.4037949" id="Fill-1875" fill="#292F2F"></path>
        <path d="M6.95829807,85.0990727 C7.02744847,85.2101826 7.00889593,85.3619665 6.9152899,85.4403387 L6.33172802,85.9522376 C6.23980859,86.0325939 6.10994077,86.0087846 6.04079037,85.901643 C5.97248328,85.7915252 5.99187912,85.6397412 6.08464185,85.5593849 L6.66736043,85.048478 C6.76012316,84.9671297 6.88999098,84.990939 6.95829807,85.0990727" id="Fill-1876" fill="#4E4E4B"></path>
        <path d="M24.5311569,76.8472366 C24.0638275,77.1401241 23.4474817,76.9989735 23.1538577,76.5340587 C22.859352,76.065615 23.0004326,75.4471989 23.467762,75.1534292 C23.9350914,74.8587772 24.5523189,75.0016922 24.8468246,75.4692537 C25.1404486,75.9359329 24.999368,76.5534669 24.5311569,76.8472366" id="Fill-1877" fill="#151A1A"></path>
        <path d="M24.5320974,76.8466029 C24.0635273,77.1399095 23.4477289,77.0003007 23.1532723,76.5328032 C22.8600959,76.0640248 22.9996427,75.4479528 23.4682128,75.1546461 C23.9367829,74.8587778 24.5525814,75.0009483 24.847038,75.4658842 C25.1402144,75.9372241 24.9993873,76.5532962 24.5320974,76.8466029" id="Fill-1878" fill="#292F2F"></path>
        <path d="M23.8605134,75.9682507 C23.7455134,76.0287214 23.5935134,76.0001204 23.5205134,75.9053284 L23.0615134,75.3087928 C22.9895134,75.214818 23.0245134,75.0914251 23.1395134,75.0309543 C23.2555134,74.9713008 23.4055134,75.000719 23.4795134,75.0946938 L23.9375134,75.6920465 C24.0105134,75.7852041 23.9765134,75.9094143 23.8605134,75.9682507" id="Fill-1879" fill="#4E4E4B"></path>
        <polygon id="Fill-1880" fill="#E5D7B5" points="86 141 90 141 90 137 86 137"></polygon>
        <path d="M89,139.498319 C89,140.327606 88.3281075,141 87.4994401,141 C86.6718925,141 86,140.327606 86,139.498319 C86,138.672394 86.6718925,138 87.4994401,138 C88.3281075,138 89,138.672394 89,139.498319" id="Fill-1881" fill="#CCB57B"></path>
        <path d="M88.743,139.4995 C88.743,139.6345 88.635,139.7435 88.5,139.7435 C88.366,139.7435 88.257,139.6345 88.257,139.4995 C88.257,139.3655 88.366,139.2565 88.5,139.2565 C88.635,139.2565 88.743,139.3655 88.743,139.4995" id="Fill-1882" fill="#212220"></path>
        <path d="M87.7435,139.4995 C87.7435,139.6345 87.6345,139.7435 87.5005,139.7435 C87.3655,139.7435 87.2565,139.6345 87.2565,139.4995 C87.2565,139.3655 87.3655,139.2565 87.5005,139.2565 C87.6345,139.2565 87.7435,139.3655 87.7435,139.4995" id="Fill-1883" fill="#212220"></path>
        <polygon id="Fill-1884" fill="#E5D7B5" points="81 141 85 141 85 137 81 137"></polygon>
        <path d="M85,139.498319 C85,140.327606 84.3278566,141 83.5,141 C82.6699029,141 82,140.327606 82,139.498319 C82,138.672394 82.6699029,138 83.5,138 C84.3278566,138 85,138.672394 85,139.498319" id="Fill-1885" fill="#CCB57B"></path>
        <path d="M83.743,139.4995 C83.743,139.6345 83.634,139.7435 83.499,139.7435 C83.365,139.7435 83.257,139.6345 83.257,139.4995 C83.257,139.3655 83.365,139.2565 83.499,139.2565 C83.634,139.2565 83.743,139.3655 83.743,139.4995" id="Fill-1886" fill="#212220"></path>
        <path d="M82.7435,139.4995 C82.7435,139.6345 82.6345,139.7435 82.4995,139.7435 C82.3645,139.7435 82.2565,139.6345 82.2565,139.4995 C82.2565,139.3655 82.3645,139.2565 82.4995,139.2565 C82.6345,139.2565 82.7435,139.3655 82.7435,139.4995" id="Fill-1887" fill="#212220"></path>
        <polygon id="Fill-1888" fill="#E5D7B5" points="77 141 81 141 81 137 77 137"></polygon>
        <path d="M80,139.498319 C80,140.327606 79.3278566,141 78.5,141 C77.6699029,141 77,140.327606 77,139.498319 C77,138.672394 77.6699029,138 78.5,138 C79.3278566,138 80,138.672394 80,139.498319" id="Fill-1889" fill="#CCB57B"></path>
        <path d="M79.743,139.4995 C79.743,139.6345 79.635,139.7435 79.501,139.7435 C79.366,139.7435 79.257,139.6345 79.257,139.4995 C79.257,139.3655 79.366,139.2565 79.501,139.2565 C79.635,139.2565 79.743,139.3655 79.743,139.4995" id="Fill-1890" fill="#212220"></path>
        <path d="M78.743,139.4995 C78.743,139.6345 78.635,139.7435 78.5,139.7435 C78.365,139.7435 78.257,139.6345 78.257,139.4995 C78.257,139.3655 78.365,139.2565 78.5,139.2565 C78.635,139.2565 78.743,139.3655 78.743,139.4995" id="Fill-1891" fill="#212220"></path>
        <polygon id="Fill-1892" fill="#E5D7B5" points="72 141 76 141 76 137 72 137"></polygon>
        <path d="M76,139.498319 C76,140.327606 75.3281075,141 74.5005599,141 C73.6718925,141 73,140.327606 73,139.498319 C73,138.672394 73.6718925,138 74.5005599,138 C75.3281075,138 76,138.672394 76,139.498319" id="Fill-1893" fill="#CCB57B"></path>
        <path d="M74.743,139.4995 C74.743,139.6345 74.634,139.7435 74.5,139.7435 C74.365,139.7435 74.257,139.6345 74.257,139.4995 C74.257,139.3655 74.365,139.2565 74.5,139.2565 C74.634,139.2565 74.743,139.3655 74.743,139.4995" id="Fill-1894" fill="#212220"></path>
        <path d="M73.743,139.4995 C73.743,139.6345 73.636,139.7435 73.5,139.7435 C73.366,139.7435 73.257,139.6345 73.257,139.4995 C73.257,139.3655 73.366,139.2565 73.5,139.2565 C73.636,139.2565 73.743,139.3655 73.743,139.4995" id="Fill-1895" fill="#212220"></path>
        <polygon id="Fill-1897" fill="#8A694C" points="15 108 111 108 111 105 15 105"></polygon>
        <polygon id="Fill-1898" fill="#171716" points="103 115 105 115 105 108 103 108"></polygon>
        <polygon id="Fill-1899" fill="#171716" points="101 109 106 109 106 108 101 108"></polygon>
        <polygon id="Fill-1900" fill="#171716" points="95 146 113 146 113 143 95 143"></polygon>
        <polygon id="Fill-1901" fill="#171716" points="21 115 23 115 23 108 21 108"></polygon>
        <polygon id="Fill-1902" fill="#171716" points="20 109 25 109 25 108 20 108"></polygon>
        <polygon id="Fill-1903" fill="#171716" points="13 146 31 146 31 143 13 143"></polygon>
        <polyline id="Fill-1904" fill="#353633" points="19.1311918 114 11 151 13.3596675 151 20.9882911 116.286032 24.0117089 116.286032 31.6393314 151 34 151 25.8688082 114 19.1311918 114"></polyline>
        <polyline id="Fill-1905" fill="#353633" points="100.131546 114 92 151 94.3597702 151 101.988726 116.286032 105.011274 116.286032 112.64023 151 115 151 106.868454 114 100.131546 114"></polyline>
        <polygon id="Fill-1906" fill="#171716" points="101 118 106 118 106 113 101 113"></polygon>
        <polygon id="Fill-1907" fill="#171716" points="20 118 25 118 25 113 20 113"></polygon>
        <polyline id="Fill-1908" fill="#1B1C1A" points="135 131 119 131 120.560326 149 133.439674 149 135 131"></polyline>
        <polyline id="Fill-1909" fill="#8D8E81" points="120.890034 148 120.780069 147.855709 120 135.173939 120.101031 135 120.221306 135.145279 121 147.826061 120.900344 148 120.890034 148"></polyline>
        <path d="M121.866088,148 L121.732396,147.852744 L121,135.171963 L121.123727,135 L121.266552,135.147256 L121.999779,147.828037 C122.003931,147.917972 121.949126,147.99407 121.875222,148 L121.866088,148" id="Fill-1910" fill="#8D8E81"></path>
        <path d="M123.8155,148 L123.6545,147.848803 L123.0245,135.16707 L123.1775,135.00105 C123.2785,134.99018 123.3425,135.065284 123.3455,135.152247 L123.9755,147.83398 L123.8235,148 L123.8155,148" id="Fill-1911" fill="#8D8E81"></path>
        <polyline id="Fill-1912" fill="#8D8E81" points="124.6895 148 124.5295 147.84385 124.1495 135.164057 124.3065 135 124.4735 135.154174 124.8505 147.835943 124.6955 148 124.6895 148"></polyline>
        <polyline id="Fill-1913" fill="#8D8E81" points="125.563 148 125.401 147.841873 125.276 135.160103 125.436 135 125.598 135.158127 125.724 147.839897 125.566 148 125.563 148"></polyline>
        <polyline id="Fill-1914" fill="#8D8E81" points="127.436 148 127.435 148 127.275 147.839897 127.402 135.158127 127.565 135 127.725 135.160103 127.598 147.841873 127.436 148"></polyline>
        <polyline id="Fill-1915" fill="#8D8E81" points="128.313 148 128.307 148 128.15 147.835943 128.529 135.154174 128.694 135 128.85 135.164057 128.473 147.84385 128.313 148"></polyline>
        <path d="M129.186,148 L129.177,148 L129.024,147.833985 L129.655,135.152599 C129.658,135.065639 129.725,134.988561 129.824,135.001407 L129.976,135.167422 L129.346,147.848808 L129.186,148" id="Fill-1916" fill="#8D8E81"></path>
        <path d="M131.13482,148 L131.124856,148 C131.050959,147.99407 130.995328,147.917972 131.00031,147.828037 L131.733471,135.147256 L131.875454,135 L132,135.171963 L131.266839,147.852744 L131.13482,148" id="Fill-1917" fill="#8D8E81"></path>
        <path d="M132.109966,148 L132.100344,148 L132,147.826069 L132.778694,135.145913 C132.78488,135.058947 132.837113,134.992735 132.898969,135.000641 L133,135.174572 L132.220619,147.855716 L132.109966,148" id="Fill-1918" fill="#8D8E81"></path>
        <polygon id="Fill-1919" fill="#171716" points="118 131.882 135 131.882 135 131.118 118 131.118"></polygon>
        <path d="M94.3061033,103.857601 C94.3061033,104.235671 94.0347418,104.546458 93.7004695,104.546458 L93.2065728,104.546458 L93.2065728,101.452474 L93.7004695,101.452474 C94.0347418,101.452474 94.3061033,101.760057 94.3061033,102.139195 L94.3061033,103.857601 Z M93.7004695,100.661089 L93.2065728,100.661089 L93.2065728,100 L89,100 L89,106 L93.2065728,106 L93.2065728,105.337843 L93.7004695,105.337843 C94.4178404,105.337843 95,104.673549 95,103.857601 L95,102.139195 C95,101.326451 94.4178404,100.661089 93.7004695,100.661089 L93.7004695,100.661089 Z" id="Fill-1920" fill="#231D18"></path>
        <path d="M89.5,103.280827 L89.3794788,103.175339 L89.5,103.071276 L89.6213355,103.175339 L89.5,103.280827 Z M89,104 L90,104 L90,103 L89,103 L89,104 Z" id="Fill-1921" fill="#A3BF69"></path>
        <polyline id="Fill-1922" fill="#D1C9B7" points="89.4995 103 89.4315 102.934661 89.4315 100.068139 89.4995 100 89.5685 100.068139 89.5685 102.934661 89.4995 103"></polyline>
        <polyline id="Fill-1923" fill="#373835" points="99.3235 95.791 99.4265 95.896 99.5705 95.896 99.6765 95.791 99.6765 95.208 99.5705 95.104 99.4265 95.104 99.3235 95.208 99.3235 95.791"></polyline>
        <path d="M99.2505,95 L99.7475,95 L99.8525,95.1123444 L99.8525,95.7055647 C99.8525,96.060447 99.8525,98.5572221 99.8525,99.6932653 C99.8525,100.918554 99.6045,102 99.6045,102 L99.3955,102 C99.3955,102 99.1475,100.918554 99.1475,99.6932653 C99.1475,98.5572221 99.1475,96.060447 99.1475,95.7055647 L99.1475,95.1123444 L99.2505,95" id="Fill-1924" fill="#70706D"></path>
        <path d="M99.572,102 L99.676,102 L99.676,96 L99.324,96 C99.324,96 99.324,98.6539609 99.324,99.8153795 C99.324,100.975804 99.572,102 99.572,102" id="Fill-1925" fill="#60615D"></path>
        <path d="M100.4285,102 L100.3235,102 L100.3235,96 L100.6765,96 C100.6765,96 100.6765,98.6539609 100.6765,99.8153795 C100.6765,100.975804 100.4285,102 100.4285,102" id="Fill-1926" fill="#3E3F3C"></path>
        <polyline id="Fill-1927" fill="#21719A" points="99.4995 101.513 99.4645 101.487 99.5355 101.487 99.4995 101.513"></polyline>
        <polyline id="Fill-1928" fill="#8C8D89" points="99.564 101.419 99.564 101.501 99.546 101.581 99.456 101.581 99.436 101.501 99.436 101.419 99.564 101.419"></polyline>
        <path d="M99.971,95 L99.971,95.0848168 L99.111,95.0848168 L99.111,96.634555 C99.151,96.634555 99.225,96.7643979 99.225,96.8670157 C99.225,96.9664921 99.151,97 99.111,97 L99.029,97 L99.029,95 L99.971,95" id="Fill-1929" fill="#D9D9D3"></path>
        <polyline id="Fill-1930" fill="#3E3F3C" points="100.5715 95.224 100.6765 95.331 100.6765 95.776 100.3235 95.776 100.3235 95.224 100.5715 95.224"></polyline>
        <polyline id="Fill-1931" fill="#60615D" points="99.324 95.331 99.427 95.224 99.676 95.224 99.676 95.776 99.324 95.776 99.324 95.331"></polyline>
        <polygon id="Fill-1932" fill="#50504D" points="99 99.585 102 99.585 102 99.415 99 99.415"></polygon>
        <polyline id="Fill-1933" fill="#41413F" points="101.5395 102.866 101.5215 102.845 101.4245 102.164 101.4465 102.134 101.4795 102.158 101.5755 102.835 101.5535 102.866 101.5395 102.866"></polyline>
        <polyline id="Fill-1934" fill="#C3C3BE" points="99.454 102.8625 99.442 102.8645 99.419 102.8335 99.527 102.1555 99.558 102.1355 99.581 102.1655 99.474 102.8435 99.454 102.8625"></polyline>
        <polyline id="Fill-1935" fill="#848581" points="100.804035 97.0233055 100.521614 97 100 100.406487 100.075889 101.967955 100.268972 102 101 97.0427267 100.804035 97.0233055"></polyline>
        <polygon id="Fill-1936" fill="#4A4A47" points="100.3005 96.91 100.6995 96.91 100.6995 96.09 100.3005 96.09"></polygon>
        <polygon id="Fill-1937" fill="#848581" points="100.363 96.5975 100.637 96.5975 100.637 96.4025 100.363 96.4025"></polygon>
        <polyline id="Fill-1938" fill="#848581" points="101.9945 100.409003 101.5055 97 101.2105 97.0213426 101.0055 97.0358945 101.6895 102 101.8915 101.971867 101.9945 100.409003"></polyline>
        <polyline id="Fill-1939" fill="#B8B8B4" points="100.1735 100.42846 100.7165 97 100.8265 97.0068413 100.2405 100.42846 100.2525 102 100.1735 100.42846"></polyline>
        <polyline id="Fill-1940" fill="#50504D" points="101.806 100.43653 101.317 97.0262034 101.194 97 101.717 100.402562 101.703 102 101.806 100.43653"></polyline>
        <polyline id="Fill-1941" fill="#4A4A47" points="100.88154 97 100.117473 97 100 97.0862944 100 97.5496737 100.017769 97.7215373 100.05923 97.9151559 100.196446 98 100.802567 98 100.938796 97.9151559 100.982231 97.7215373 101 97.5496737 101 97.0862944 100.88154 97"></polyline>
        <path d="M101.714465,102.56333 C101.679465,102.68333 101.554465,102.74933 101.437465,102.71333 C101.317465,102.68033 101.252465,102.55733 101.284465,102.43833 C101.318465,102.31833 101.442465,102.25233 101.561465,102.28533 C101.681465,102.32033 101.749465,102.44533 101.714465,102.56333" id="Fill-1942" fill="#C3C3BE"></path>
        <path d="M99.2833297,102.557813 C99.3163297,102.677813 99.4403297,102.749813 99.5583297,102.715813 C99.6783297,102.682813 99.7493297,102.559813 99.7163297,102.440813 C99.6823297,102.320813 99.5583297,102.252813 99.4403297,102.282813 C99.3213297,102.318813 99.2513297,102.440813 99.2833297,102.557813" id="Fill-1943" fill="#C3C3BE"></path>
        <polyline id="Fill-1944" fill="#2E2F2D" points="100.633 97 100.247 97 100.247 98 100.553 98 100.691 97.9151559 100.735 97.7215373 100.753 97.5496737 100.753 97.0862944 100.633 97"></polyline>
        <polyline id="Fill-1945" fill="#4A4A47" points="100.6335 97 100.3655 97 100.2465 97.0862944 100.2465 97.5496737 100.2645 97.7215373 100.3065 97.9151559 100.4455 98 100.7535 98 100.7535 97 100.6335 97"></polyline>
        <polyline id="Fill-1946" fill="#848581" points="100.4295 97.498 100.5005 97.572 100.5705 97.498 100.5005 97.428 100.4295 97.498"></polyline>
        <polyline id="Fill-1947" fill="#848581" points="100.4285 97.498 100.4995 97.572 100.5715 97.498 100.4995 97.428 100.4285 97.498"></polyline>
        <polyline id="Fill-1948" fill="#50504D" points="100.5915 99 100.4075 99 100.3285 99.0714812 100.3285 99.9277819 100.4075 100 100.5915 100 100.6715 99.9277819 100.6715 99.0714812 100.5915 99"></polyline>
        <polygon id="Fill-1949" fill="#848581" points="100.408 100 100.592 100 100.592 99 100.408 99"></polygon>
        <polyline id="Fill-1950" fill="#B8B8B4" points="100.4605 99.0714812 100.4605 99.9277819 100.5395 100 100.5395 99 100.4605 99.0714812"></polyline>
        <polyline id="Fill-1951" fill="#50504D" points="100.46 99 100.46 100 100.54 99.9277819 100.54 99.0714812 100.46 99"></polyline>
        <polyline id="Fill-1952" fill="#BB9474" points="101.815161 104 103 94.1070096 102.185774 94 101 103.89299 101.815161 104"></polyline>
        <polyline id="Fill-1953" fill="#92613A" points="102 94.1089517 101.185047 94 100 103.893011 100.815888 104 102 94.1089517"></polyline>
        <polyline id="Fill-1954" fill="#AA7953" points="100 103.83122 101.438138 94 103 94.1717073 101.560726 104 100 103.83122"></polyline>
        <polyline id="Fill-1955" fill="#4F3B2F" points="102.17 94.5255 102.188 94.3945 102.83 94.4765 102.811 94.6055 102.17 94.5255"></polyline>
        <polyline id="Fill-1956" fill="#4F3B2F" points="102.241 94.533 102.258 94.402 102.759 94.467 102.742 94.598 102.241 94.533"></polyline>
        <polyline id="Fill-1957" fill="#4F3B2F" points="102.2415 94.5335 102.2585 94.4035 102.7585 94.4655 102.7395 94.5965 102.2415 94.5335"></polyline>
        <polyline id="Fill-1958" fill="#4F3B2F" points="102.2415 94.532 102.2585 94.404 102.7585 94.466 102.7395 94.596 102.2415 94.532"></polyline>
        <polyline id="Fill-1959" fill="#4F3B2F" points="102.2425 95.5335 102.2585 95.4035 102.7575 95.4665 102.7435 95.5965 102.2425 95.5335"></polyline>
        <polyline id="Fill-1960" fill="#4F3B2F" points="102.1705 95.525 102.1875 95.394 102.8295 95.476 102.8135 95.606 102.1705 95.525"></polyline>
        <polyline id="Fill-1961" fill="#4F3B2F" points="102.243 95.5325 102.258 95.4035 102.757 95.4645 102.74 95.5965 102.243 95.5325"></polyline>
        <polyline id="Fill-1962" fill="#4F3B2F" points="102.242 96.534 102.259 96.403 102.758 96.466 102.743 96.597 102.242 96.534"></polyline>
        <polyline id="Fill-1963" fill="#4F3B2F" points="102.2425 96.533 102.2585 96.404 102.7575 96.467 102.7415 96.596 102.2425 96.533"></polyline>
        <polyline id="Fill-1964" fill="#4F3B2F" points="102.2425 96.534 102.2585 96.404 102.7575 96.465 102.7415 96.596 102.2425 96.534"></polyline>
        <polyline id="Fill-1965" fill="#4F3B2F" points="102.1715 97.5265 102.1885 97.3945 102.8285 97.4775 102.8135 97.6055 102.1715 97.5265"></polyline>
        <polyline id="Fill-1966" fill="#4F3B2F" points="102.2415 97.533 102.2575 97.405 102.7585 97.467 102.7415 97.595 102.2415 97.533"></polyline>
        <polyline id="Fill-1967" fill="#4F3B2F" points="102.2425 97.5345 102.2575 97.4035 102.7575 97.4675 102.7425 97.5965 102.2425 97.5345"></polyline>
        <polyline id="Fill-1968" fill="#4F3B2F" points="102.2425 98.5345 102.2575 98.4025 102.7575 98.4655 102.7405 98.5975 102.2425 98.5345"></polyline>
        <polyline id="Fill-1969" fill="#4F3B2F" points="102.2425 98.532 102.2595 98.403 102.7575 98.465 102.7435 98.597 102.2425 98.532"></polyline>
        <polyline id="Fill-1970" fill="#4F3B2F" points="102.1705 98.5255 102.1875 98.3945 102.8295 98.4745 102.8125 98.6055 102.1705 98.5255"></polyline>
        <polyline id="Fill-1971" fill="#4F3B2F" points="102.241 99.5315 102.258 99.4035 102.759 99.4665 102.741 99.5965 102.241 99.5315"></polyline>
        <polyline id="Fill-1972" fill="#4F3B2F" points="102.2425 99.534 102.2585 99.404 102.7575 99.465 102.7415 99.596 102.2425 99.534"></polyline>
        <polyline id="Fill-1973" fill="#4F3B2F" points="102.2425 99.5355 102.2575 99.4035 102.7575 99.4675 102.7415 99.5965 102.2425 99.5355"></polyline>
        <polyline id="Fill-1974" fill="#4F3B2F" points="101.2415 100.535 101.2575 100.403 101.7585 100.466 101.7405 100.597 101.2415 100.535"></polyline>
        <polyline id="Fill-1975" fill="#4F3B2F" points="101.1715 100.526 101.1875 100.394 101.8285 100.475 101.8115 100.606 101.1715 100.526"></polyline>
        <polyline id="Fill-1976" fill="#4F3B2F" points="101.2425 100.534 101.2565 100.404 101.7575 100.468 101.7405 100.596 101.2425 100.534"></polyline>
        <polyline id="Fill-1977" fill="#4F3B2F" points="101.2425 101.5315 101.2585 101.4035 101.7575 101.4655 101.7415 101.5965 101.2425 101.5315"></polyline>
        <polyline id="Fill-1978" fill="#4F3B2F" points="101.242 101.535 101.258 101.404 101.758 101.466 101.743 101.596 101.242 101.535"></polyline>
        <polyline id="Fill-1979" fill="#4F3B2F" points="101.242 101.5345 101.258 101.4035 101.758 101.4665 101.742 101.5965 101.242 101.5345"></polyline>
        <polyline id="Fill-1980" fill="#4F3B2F" points="101.17 101.5255 101.187 101.3945 101.83 101.4765 101.811 101.6055 101.17 101.5255"></polyline>
        <polyline id="Fill-1981" fill="#4F3B2F" points="101.241 102.5345 101.259 102.4035 101.759 102.4675 101.742 102.5965 101.241 102.5345"></polyline>
        <polyline id="Fill-1982" fill="#4F3B2F" points="101.242 102.5325 101.259 102.4035 101.758 102.4655 101.741 102.5965 101.242 102.5325"></polyline>
        <polyline id="Fill-1983" fill="#4F3B2F" points="101.2425 102.5355 101.2575 102.4035 101.7575 102.4665 101.7415 102.5965 101.2425 102.5355"></polyline>
        <polyline id="Fill-1984" fill="#4F3B2F" points="101.2415 103.5345 101.2595 103.4025 101.7585 103.4665 101.7425 103.5975 101.2415 103.5345"></polyline>
        <polyline id="Fill-1985" fill="#4F3B2F" points="101.171 103.5245 101.187 103.3945 101.829 103.4745 101.812 103.6055 101.171 103.5245"></polyline>
        <polygon id="Fill-1986" fill="#E9EBE4" points="98.3365 101.986 98.6635 101.986 98.6635 101.014 98.3365 101.014"></polygon>
        <polygon id="Fill-1987" fill="#A9AFA5" points="98.3365 101.986 98.6635 101.986 98.6635 101.014 98.3365 101.014"></polygon>
        <polyline id="Fill-1988" fill="#C2A386" points="98.582 95.0135 98.34 95.8685 98.491 95.9865 98.66 95.9865 98.66 95.0135 98.582 95.0135"></polyline>
        <polyline id="Fill-1989" fill="#B18969" points="98.66 95.8685 98.417 95.0135 98.34 95.0135 98.34 95.9865 98.509 95.9865 98.66 95.8685"></polyline>
        <polyline id="Fill-1990" fill="#373835" points="98.5385 95.6375 98.4615 95.3625 98.4615 95.6375 98.5385 95.6375"></polyline>
        <polyline id="Fill-1991" fill="#464644" points="98.539 95.3625 98.461 95.6375 98.539 95.6375 98.539 95.3625"></polyline>
        <path d="M98.8275,96.1488616 L98.8275,101 L98.1725,101 L98.1725,96.1488616 C98.1725,96.0544853 98.2085,96 98.2525,96 C98.2945,96 98.3315,96.0544853 98.3315,96.1488616 C98.3315,96.0544853 98.4055,96 98.5005,96 C98.5935,96 98.6695,96.0544853 98.6695,96.1488616 C98.6695,96.0544853 98.7055,96 98.7485,96 C98.7925,96 98.8275,96.0544853 98.8275,96.1488616" id="Fill-1992" fill="#494946"></path>
        <path d="M98.5795,96.1488616 L98.5795,101 L98.4205,101 L98.4205,96.1488616 C98.4205,96.0544853 98.4565,96 98.5005,96 C98.5425,96 98.5795,96.0544853 98.5795,96.1488616" id="Fill-1993" fill="#656662"></path>
        <path d="M98.579,96.1488616 L98.579,101 L98.421,101 L98.421,96.1488616 C98.421,96.0544853 98.457,96 98.5,96 C98.544,96 98.579,96.0544853 98.579,96.1488616" id="Fill-1994" fill="#2E2F2D"></path>
        <polygon id="Fill-1995" fill="#C6CBC1" points="98.1725 101.532 98.8275 101.532 98.8275 101.468 98.1725 101.468"></polygon>
        <polygon id="Fill-1996" fill="#C6CBC1" points="98.1725 101.531 98.8275 101.531 98.8275 101.469 98.1725 101.469"></polygon>
        <polygon id="Fill-1997" fill="#C6CBC1" points="98.1725 101.5315 98.8275 101.5315 98.8275 101.4685 98.1725 101.4685"></polygon>
        <polyline id="Fill-1998" fill="#D54F59" points="98.208 102.2905 98.208 102.6055 98.313 102.7095 98.687 102.7095 98.792 102.6055 98.792 102.2905 98.208 102.2905"></polyline>
        <polyline id="Fill-1999" fill="#E9EBE4" points="98.4095 98 98.2665 97.0484669 98.5905 97 98.7335 97.9515331 98.4095 98"></polyline>
        <polyline id="Fill-2000" fill="#A9AFA5" points="99.734 97.953373 99.409 98 99.266 97.0456349 99.591 97 99.734 97.953373"></polyline>
        <polyline id="Fill-2001" fill="#C2A386" points="99.6435 103.9875 99.2795 103.1745 99.4105 103.0375 99.5795 103.0125 99.7205 103.9755 99.6435 103.9875"></polyline>
        <polyline id="Fill-2002" fill="#B18969" points="100.6665 103.0965 100.5515 103.9815 100.4745 103.9935 100.3335 103.0305 100.5005 103.0065 100.6665 103.0965"></polyline>
        <polyline id="Fill-2003" fill="#373835" points="100.5385 103.358 100.5025 103.642 100.4615 103.37 100.5385 103.358"></polyline>
        <polyline id="Fill-2004" fill="#464644" points="99.559 103.636 99.441 103.376 99.518 103.364 99.559 103.636"></polyline>
        <path d="M99.9976771,102.77316 L99.4698784,98 L99,98.0928706 L99.5277987,102.866998 C99.5372107,102.956966 99.5683429,103.005336 99.600199,102.999532 C99.6313312,102.991792 99.6508793,102.933748 99.6400192,102.84378 C99.6508793,102.933748 99.7116956,102.976314 99.7775799,102.960836 C99.8456363,102.952129 99.8941445,102.886346 99.8832845,102.798312 C99.8941445,102.886346 99.9238287,102.935683 99.9564088,102.926977 C99.986817,102.923107 100.007089,102.863128 99.9976771,102.77316" id="Fill-2005" fill="#D6B064"></path>
        <path d="M99.9399101,102.841573 L99.2119101,98 L99.0559101,98.0235456 L99.7849101,102.865119 C99.7979101,102.956358 99.8409101,103.005411 99.8849101,102.999525 C99.9279101,102.991676 99.9549101,102.932812 99.9399101,102.841573" id="Fill-2006" fill="#D0A14D"></path>
        <path d="M99.9413958,102.842932 L99.2123958,98 L99.0553958,98.0225755 L99.7833958,102.868453 C99.7983958,102.957773 99.8393958,103.007832 99.8843958,102.998998 C99.9263958,102.995072 99.9543958,102.934216 99.9413958,102.842932" id="Fill-2007" fill="#B68B3C"></path>
        <polyline id="Fill-2008" fill="#C6CBC1" points="99.819 97.421 99.17 97.516 99.181 97.579 99.83 97.484 99.819 97.421"></polyline>
        <polyline id="Fill-2009" fill="#C6CBC1" points="99.8185 97.4215 99.1715 97.5185 99.1805 97.5785 99.8285 97.4835 99.8185 97.4215"></polyline>
        <polyline id="Fill-2010" fill="#C6CBC1" points="99.819 97.42 99.171 97.516 99.179 97.58 99.829 97.482 99.819 97.42"></polyline>
        <polyline id="Fill-2011" fill="#D54F59" points="98.234 96.744 98.188 96.432 98.276 96.311 98.647 96.256 98.765 96.345 98.812 96.658 98.234 96.744"></polyline>
        <polygon id="Fill-2012" fill="#248784" points="98 106 103 106 103 100 98 100"></polygon>
        <polygon id="Fill-2013" fill="#157676" points="98 99.7245 103 99.7245 103 99.2755 98 99.2755"></polygon>
        <polygon id="Fill-2014" fill="#2D6370" points="23 103 36 103 36 101 23 101"></polygon>
        <polygon id="Fill-2015" fill="#457882" points="24 103 26 103 26 101 24 101"></polygon>
        <polygon id="Fill-2016" fill="#457882" points="23.359 103 23.641 103 23.641 101 23.359 101"></polygon>
        <polygon id="Fill-2017" fill="#457882" points="25.252 103 25.748 103 25.748 101 25.252 101"></polygon>
        <polyline id="Fill-2018" fill="#457882" points="34.9575 102.498917 34.4995 102 34.0425 102.498917 34.4995 103 34.9575 102.498917"></polyline>
        <polygon id="Fill-2019" fill="#457882" points="27 103 28 103 28 101 27 101"></polygon>
        <polygon id="Fill-2020" fill="#644243" points="24 105 37 105 37 103 24 103"></polygon>
        <polygon id="Fill-2021" fill="#502F30" points="24 105 26 105 26 103 24 103"></polygon>
        <polygon id="Fill-2022" fill="#644243" points="24.359 105 24.641 105 24.641 103 24.359 103"></polygon>
        <polygon id="Fill-2023" fill="#644243" points="25.2515 105 25.7485 105 25.7485 103 25.2515 103"></polygon>
        <polyline id="Fill-2024" fill="#502F30" points="35.9575 104.497473 35.5005 104 35.0425 104.497473 35.5005 105 35.9575 104.497473"></polyline>
        <polygon id="Fill-2025" fill="#502F30" points="28 105 29 105 29 103 28 103"></polygon>
        <polygon id="Fill-2026" fill="#508968" points="23 98.6825 36 98.6825 36 98.3175 23 98.3175"></polygon>
        <polygon id="Fill-2027" fill="#508968" points="23 100.683 36 100.683 36 100.317 23 100.317"></polygon>
        <polygon id="Fill-2028" fill="#335643" points="23 100 36 100 36 98 23 98"></polygon>
        <polygon id="Fill-2029" fill="#FAD7A5" points="24 100 36 100 36 98 24 98"></polygon>
        <polygon id="Fill-2030" fill="#B86B4E" points="25 96 36 96 36 94 25 94"></polygon>
        <polygon id="Fill-2031" fill="#AE583B" points="25.133 94.8195 25.867 94.8195 25.867 94.1805 25.133 94.1805"></polygon>
        <polygon id="Fill-2032" fill="#347766" points="25 98 36 98 36 96 25 96"></polygon>
        <polygon id="Fill-2033" fill="#508B7C" points="25.133 96.8205 25.867 96.8205 25.867 96.1795 25.133 96.1795"></polygon>
        <path d="M83.9987694,104 L82.0002461,104 C81.4479449,104 81,104.32852 81,104.733574 L81,105 L85,105 L85,104.733574 C85,104.32852 84.5510706,104 83.9987694,104" id="Fill-2034" fill="#231D18"></path>
        <polyline id="Fill-2035" fill="#D9CFB8" points="136.654777 98.005 132 98.005 132 98.995 137 98.995 137 98.684 136.654777 98.005"></polyline>
        <path d="M151.659153,95.5405209 C152.052819,95.9351534 151.918953,96.256412 151.362663,96.256412 L148.668474,96.256412 C148.112184,96.256412 147.451775,96.256412 147.200899,96.256412 C146.950023,96.256412 146.743769,96.0521549 146.743769,95.8062533 C146.743769,95.5603517 146.743769,94.9029614 146.743769,94.3457166 L146.743769,91.6368324 C146.743769,91.0805791 147.067032,90.9477129 147.459708,91.3423453 L151.659153,95.5405209 Z M144,99 L159,99 L144,84 L144,99 L144,99 Z" id="Fill-2036" fill="#93613A"></path>
        <path d="M146.164132,96.0975731 C146.164132,96.5066865 146.498903,96.8345716 146.90994,96.8345716 L151.066855,96.8345716 C151.664096,96.8345716 151.877043,96.5146112 151.877043,96.2431897 C151.877043,96.0411095 151.773046,95.8340763 151.566042,95.6300149 L147.371489,91.431897 C146.996109,91.0574542 146.696993,91.1020307 146.552388,91.1624567 C146.406792,91.2238732 146.164132,91.4021793 146.164132,91.9321446 L146.164132,96.0975731 Z M144,99 L144,85 L158,99 L144,99 L144,99 Z" id="Fill-2037" fill="#AB7953"></path>
        <polyline id="Fill-2038" fill="#BC9574" points="143.645 84.6980434 143.645 98.7114622 143.355 99 143.355 84 143.645 84.6980434"></polyline>
        <polygon id="Fill-2039" fill="#4F3B2F" points="144 98.603 145 98.603 145 98.397 144 98.397"></polygon>
        <polygon id="Fill-2040" fill="#4F3B2F" points="144.103 97.603 144.897 97.603 144.897 97.397 144.103 97.397"></polygon>
        <polygon id="Fill-2041" fill="#4F3B2F" points="144.103 97.602 144.897 97.602 144.897 97.398 144.103 97.398"></polygon>
        <polygon id="Fill-2042" fill="#4F3B2F" points="144.103 96.6015 144.897 96.6015 144.897 96.3985 144.103 96.3985"></polygon>
        <polygon id="Fill-2043" fill="#4F3B2F" points="144.103 96.603 144.897 96.603 144.897 96.397 144.103 96.397"></polygon>
        <polygon id="Fill-2044" fill="#4F3B2F" points="144 95.6045 145 95.6045 145 95.3955 144 95.3955"></polygon>
        <polygon id="Fill-2045" fill="#4F3B2F" points="144.103 95.6015 144.897 95.6015 144.897 95.3985 144.103 95.3985"></polygon>
        <polygon id="Fill-2046" fill="#4F3B2F" points="144.103 94.603 144.897 94.603 144.897 94.397 144.103 94.397"></polygon>
        <polygon id="Fill-2047" fill="#4F3B2F" points="144.103 94.603 144.897 94.603 144.897 94.397 144.103 94.397"></polygon>
        <polygon id="Fill-2048" fill="#4F3B2F" points="144.103 93.604 144.897 93.604 144.897 93.396 144.103 93.396"></polygon>
        <polygon id="Fill-2049" fill="#4F3B2F" points="144 93.6035 145 93.6035 145 93.3965 144 93.3965"></polygon>
        <polygon id="Fill-2050" fill="#4F3B2F" points="144.103 92.6035 144.897 92.6035 144.897 92.3965 144.103 92.3965"></polygon>
        <polygon id="Fill-2051" fill="#4F3B2F" points="144.103 92.6035 144.897 92.6035 144.897 92.3965 144.103 92.3965"></polygon>
        <polygon id="Fill-2052" fill="#4F3B2F" points="144.103 91.6025 144.897 91.6025 144.897 91.3975 144.103 91.3975"></polygon>
        <polygon id="Fill-2053" fill="#4F3B2F" points="144.103 91.604 144.897 91.604 144.897 91.396 144.103 91.396"></polygon>
        <polygon id="Fill-2054" fill="#4F3B2F" points="144 90.603 145 90.603 145 90.397 144 90.397"></polygon>
        <polygon id="Fill-2055" fill="#4F3B2F" points="144.103 90.6035 144.897 90.6035 144.897 90.3965 144.103 90.3965"></polygon>
        <polygon id="Fill-2056" fill="#4F3B2F" points="144.103 89.602 144.897 89.602 144.897 89.398 144.103 89.398"></polygon>
        <polygon id="Fill-2057" fill="#4F3B2F" points="144.103 89.6045 144.897 89.6045 144.897 89.3955 144.103 89.3955"></polygon>
        <polygon id="Fill-2058" fill="#4F3B2F" points="144.103 88.603 144.897 88.603 144.897 88.397 144.103 88.397"></polygon>
        <polygon id="Fill-2059" fill="#4F3B2F" points="144 88.6035 145 88.6035 145 88.3965 144 88.3965"></polygon>
        <polygon id="Fill-2060" fill="#4F3B2F" points="144.103 87.602 144.897 87.602 144.897 87.398 144.103 87.398"></polygon>
        <polygon id="Fill-2061" fill="#4F3B2F" points="144.103 87.6035 144.897 87.6035 144.897 87.3965 144.103 87.3965"></polygon>
        <polygon id="Fill-2062" fill="#4F3B2F" points="144.103 86.6035 144.897 86.6035 144.897 86.3965 144.103 86.3965"></polygon>
        <polygon id="Fill-2063" fill="#4F3B2F" points="144.103 86.603 144.897 86.603 144.897 86.397 144.103 86.397"></polygon>
        <path d="M171.0607,96.6679517 C171.0607,96.3684865 170.8107,96.1287153 170.501029,96.1287153 C170.191358,96.1287153 169.941358,96.3684865 169.941358,96.6679517 L167.047325,96.6679517 C167.047325,94.8283796 168.595679,93.3310534 170.501029,93.3310534 C172.403292,93.3310534 173.952675,94.8283796 173.952675,96.6679517 L171.0607,96.6679517 Z M176.36214,96.6679517 C176.36214,93.5389877 173.737654,91 170.501029,91 C167.261317,91 164.636831,93.5389877 164.636831,96.6679517 L164,96.6679517 L164,99 L177,99 L177,96.6679517 L176.36214,96.6679517 L176.36214,96.6679517 Z" id="Fill-2064" fill="#93613A"></path>
        <path d="M171.000495,96.4843771 C171.15504,96.4843771 171.280855,96.6194655 171.280855,96.7832735 L171.280855,97.0630235 L174.581772,97.0630235 L174.581772,96.7832735 C174.581772,94.6633426 172.975894,92.9380402 171.000495,92.9380402 C169.023116,92.9380402 167.417238,94.6633426 167.417238,96.7832735 L167.417238,97.0630235 L170.719145,97.0630235 L170.719145,96.7832735 C170.719145,96.6194655 170.84496,96.4843771 171.000495,96.4843771 Z M165,99 L165,97.0630235 L165.611244,97.0630235 L165.611244,96.7832735 C165.611244,93.5943359 168.028482,91 171.000495,91 C173.970528,91 176.387765,93.5943359 176.387765,96.7832735 L176.387765,97.0630235 L177,97.0630235 L177,99 L165,99 L165,99 Z" id="Fill-2065" fill="#AB7953"></path>
        <path d="M165.250943,96.7352349 C165.250943,93.7171141 167.605949,91.261745 170.501448,91.261745 C173.395016,91.261745 175.750022,93.7171141 175.750022,96.7352349 L175.750022,97 L176,96.7352349 C176,93.5691275 173.537861,91 170.501448,91 C167.462139,91 165,93.5691275 165,96.7352349 L165.250943,97 L165.250943,96.7352349" id="Fill-2066" fill="#BC9574"></path>
        <polygon id="Fill-2067" fill="#4F3B2F" points="176.408 98.9565 176.592 98.9565 176.592 98.0435 176.408 98.0435"></polygon>
        <polygon id="Fill-2068" fill="#4F3B2F" points="176.4075 98.854 176.5925 98.854 176.5925 98.146 176.4075 98.146"></polygon>
        <polygon id="Fill-2069" fill="#4F3B2F" points="175.4075 98.854 175.5925 98.854 175.5925 98.146 175.4075 98.146"></polygon>
        <polygon id="Fill-2070" fill="#4F3B2F" points="175.408 98.854 175.592 98.854 175.592 98.146 175.408 98.146"></polygon>
        <polygon id="Fill-2071" fill="#4F3B2F" points="174.408 98.854 174.592 98.854 174.592 98.146 174.408 98.146"></polygon>
        <polygon id="Fill-2072" fill="#4F3B2F" points="174.4075 98.9565 174.5925 98.9565 174.5925 98.0435 174.4075 98.0435"></polygon>
        <polygon id="Fill-2073" fill="#4F3B2F" points="173.408 98.854 173.592 98.854 173.592 98.146 173.408 98.146"></polygon>
        <polygon id="Fill-2074" fill="#4F3B2F" points="173.408 98.854 173.592 98.854 173.592 98.146 173.408 98.146"></polygon>
        <polygon id="Fill-2075" fill="#4F3B2F" points="172.408 98.854 172.592 98.854 172.592 98.146 172.408 98.146"></polygon>
        <polygon id="Fill-2076" fill="#4F3B2F" points="172.408 98.854 172.592 98.854 172.592 98.146 172.408 98.146"></polygon>
        <polygon id="Fill-2077" fill="#4F3B2F" points="171.408 98.9565 171.592 98.9565 171.592 98.0435 171.408 98.0435"></polygon>
        <polygon id="Fill-2078" fill="#4F3B2F" points="171.408 98.854 171.592 98.854 171.592 98.146 171.408 98.146"></polygon>
        <polygon id="Fill-2079" fill="#4F3B2F" points="171.408 98.854 171.592 98.854 171.592 98.146 171.408 98.146"></polygon>
        <polygon id="Fill-2080" fill="#4F3B2F" points="170.4075 98.854 170.5925 98.854 170.5925 98.146 170.4075 98.146"></polygon>
        <polygon id="Fill-2081" fill="#4F3B2F" points="170.408 98.854 170.592 98.854 170.592 98.146 170.408 98.146"></polygon>
        <polygon id="Fill-2082" fill="#4F3B2F" points="169.407 98.9565 169.593 98.9565 169.593 98.0435 169.407 98.0435"></polygon>
        <polygon id="Fill-2083" fill="#4F3B2F" points="167.407 98.9565 167.593 98.9565 167.593 98.0435 167.407 98.0435"></polygon>
        <polygon id="Fill-2084" fill="#4F3B2F" points="165.4075 98.9565 165.5925 98.9565 165.5925 98.0435 165.4075 98.0435"></polygon>
        <polygon id="Fill-2085" fill="#4F3B2F" points="169.4075 98.854 169.5925 98.854 169.5925 98.146 169.4075 98.146"></polygon>
        <polygon id="Fill-2086" fill="#4F3B2F" points="168.408 98.854 168.592 98.854 168.592 98.146 168.408 98.146"></polygon>
        <polygon id="Fill-2087" fill="#4F3B2F" points="168.4075 98.854 168.5925 98.854 168.5925 98.146 168.4075 98.146"></polygon>
        <polygon id="Fill-2088" fill="#4F3B2F" points="167.408 98.854 167.592 98.854 167.592 98.146 167.408 98.146"></polygon>
        <polygon id="Fill-2089" fill="#4F3B2F" points="167.4075 98.854 167.5925 98.854 167.5925 98.146 167.4075 98.146"></polygon>
        <polygon id="Fill-2090" fill="#4F3B2F" points="166.4075 98.854 166.5925 98.854 166.5925 98.146 166.4075 98.146"></polygon>
        <polygon id="Fill-2091" fill="#4F3B2F" points="166.408 98.854 166.592 98.854 166.592 98.146 166.408 98.146"></polygon>
        <polygon id="Fill-2092" fill="#4F3B2F" points="165.408 98.854 165.592 98.854 165.592 98.146 165.408 98.146"></polygon>
        <polygon id="Fill-2093" fill="#4F3B2F" points="170.407 91.8905 170.593 91.8905 170.593 91.1095 170.407 91.1095"></polygon>
        <polyline id="Fill-2094" fill="#4F3B2F" points="170.438 91.792 170.378 91.229 170.562 91.208 170.622 91.772 170.438 91.792"></polyline>
        <polyline id="Fill-2095" fill="#4F3B2F" points="169.468 91.7965 169.351 91.2425 169.532 91.2035 169.649 91.7575 169.468 91.7965"></polyline>
        <polyline id="Fill-2096" fill="#4F3B2F" points="169.5 92.798 169.325 92.26 169.5 92.202 169.675 92.741 169.5 92.798"></polyline>
        <polyline id="Fill-2097" fill="#4F3B2F" points="168.5305 92.796 168.3005 92.279 168.4685 92.204 168.6995 92.72 168.5305 92.796"></polyline>
        <polyline id="Fill-2098" fill="#4F3B2F" points="168.5625 92.7905 168.2785 92.3005 168.4395 92.2095 168.7215 92.6975 168.5625 92.7905"></polyline>
        <polyline id="Fill-2099" fill="#4F3B2F" points="167.59 92.783 167.259 92.325 167.408 92.217 167.741 92.674 167.59 92.783"></polyline>
        <polyline id="Fill-2100" fill="#4F3B2F" points="167.6215 93.772 167.2425 93.353 167.3785 93.228 167.7575 93.65 167.6215 93.772"></polyline>
        <polyline id="Fill-2101" fill="#4F3B2F" points="167.6485 93.7575 167.2275 93.3805 167.3505 93.2425 167.7725 93.6225 167.6485 93.7575"></polyline>
        <polyline id="Fill-2102" fill="#4F3B2F" points="166.6755 93.741 166.2175 93.409 166.3245 93.259 166.7825 93.593 166.6755 93.741"></polyline>
        <polyline id="Fill-2103" fill="#4F3B2F" points="166.6995 94.7205 166.2085 94.4365 166.3005 94.2795 166.7915 94.5605 166.6995 94.7205"></polyline>
        <polyline id="Fill-2104" fill="#4F3B2F" points="166.7205 94.699 166.2035 94.471 166.2785 94.301 166.7965 94.53 166.7205 94.699"></polyline>
        <polyline id="Fill-2105" fill="#4F3B2F" points="165.741 95.6755 165.202 95.5005 165.259 95.3245 165.798 95.5005 165.741 95.6755"></polyline>
        <polyline id="Fill-2106" fill="#4F3B2F" points="165.7575 95.649 165.2035 95.531 165.2415 95.351 165.7965 95.466 165.7575 95.649"></polyline>
        <polyline id="Fill-2107" fill="#4F3B2F" points="165.771 96.621 165.208 96.564 165.228 96.379 165.792 96.439 165.771 96.621"></polyline>
        <polygon id="Fill-2108" fill="#4F3B2F" points="165.1095 97.5915 165.8905 97.5915 165.8905 97.4085 165.1095 97.4085"></polygon>
        <polygon id="Fill-2109" fill="#4F3B2F" points="175.109 97.5915 175.891 97.5915 175.891 97.4085 175.109 97.4085"></polygon>
        <polyline id="Fill-2110" fill="#4F3B2F" points="175.2275 96.621 175.2085 96.439 175.7725 96.379 175.7915 96.564 175.2275 96.621"></polyline>
        <polyline id="Fill-2111" fill="#4F3B2F" points="175.242 95.649 175.204 95.466 175.759 95.351 175.796 95.531 175.242 95.649"></polyline>
        <polyline id="Fill-2112" fill="#4F3B2F" points="175.26 95.6755 175.202 95.5005 175.741 95.3245 175.798 95.5005 175.26 95.6755"></polyline>
        <polyline id="Fill-2113" fill="#4F3B2F" points="175.279 94.699 175.204 94.53 175.721 94.301 175.796 94.471 175.279 94.699"></polyline>
        <polyline id="Fill-2114" fill="#4F3B2F" points="175.3005 94.7205 175.2085 94.5605 175.6985 94.2795 175.7915 94.4365 175.3005 94.7205"></polyline>
        <polyline id="Fill-2115" fill="#4F3B2F" points="175.325 93.742 175.216 93.592 175.675 93.258 175.784 93.41 175.325 93.742"></polyline>
        <polyline id="Fill-2116" fill="#4F3B2F" points="174.3505 93.7575 174.2275 93.6225 174.6495 93.2425 174.7725 93.3805 174.3505 93.7575"></polyline>
        <polyline id="Fill-2117" fill="#4F3B2F" points="174.378 93.772 174.242 93.648 174.621 93.228 174.758 93.351 174.378 93.772"></polyline>
        <polyline id="Fill-2118" fill="#4F3B2F" points="173.4085 92.783 173.2585 92.674 173.5925 92.217 173.7415 92.324 173.4085 92.783"></polyline>
        <polyline id="Fill-2119" fill="#4F3B2F" points="173.439 92.7905 173.278 92.6975 173.562 92.2095 173.722 92.3005 173.439 92.7905"></polyline>
        <polyline id="Fill-2120" fill="#4F3B2F" points="172.47 92.796 172.301 92.72 172.531 92.204 172.699 92.279 172.47 92.796"></polyline>
        <polyline id="Fill-2121" fill="#4F3B2F" points="172.5 92.798 172.325 92.739 172.5 92.202 172.675 92.26 172.5 92.798"></polyline>
        <polyline id="Fill-2122" fill="#4F3B2F" points="171.5305 91.7975 171.3505 91.7585 171.4695 91.2025 171.6495 91.2435 171.5305 91.7975"></polyline>
        <polyline id="Fill-2123" fill="#4F3B2F" points="171.562 91.793 171.378 91.771 171.439 91.207 171.622 91.23 171.562 91.793"></polyline>
        <polyline id="Fill-2124" fill="#D0B449" points="133.96055 66 129 65.7373737 129.038532 65 134 65.2653811 133.96055 66"></polyline>
        <path d="M133.749216,70.9996116 C133.749216,70.9996116 129.043887,71.0348786 128,70.4332656 C128.263323,68.6865133 128.350052,66 128.350052,66 L134,66.2976947 L133.749216,70.9996116" id="Fill-2125" fill="#E3C957"></path>
        <path d="M145,64.9990539 C145,65.5506149 144.553242,66 144.000473,66 C143.448651,66 143,65.5506149 143,64.9990539 C143,64.4493851 143.448651,64 144.000473,64 C144.553242,64 145,64.4493851 145,64.9990539" id="Fill-2126" fill="#F1E5B5"></path>
        <path d="M133,65.999053 C133,66.5501894 132.552083,67 131.999053,67 C131.44697,67 131,66.5501894 131,65.999053 C131,65.4460227 131.44697,65 131.999053,65 C132.552083,65 133,65.4460227 133,65.999053" id="Fill-2127" fill="#157676"></path>
        <path d="M141,62.9995272 C141,63.551773 140.553242,64 140.000473,64 C139.448651,64 139,63.551773 139,62.9995272 C139,62.4501182 139.448651,62 140.000473,62 C140.553242,62 141,62.4501182 141,62.9995272" id="Fill-2128" fill="#4F8351"></path>
        <polyline id="Fill-2129" fill="#E3D8BC" points="177.009323 74.4144769 171.954483 78 164 76.8329202 166.659035 60 179 61.8145761 177.009323 74.4144769"></polyline>
        <polyline id="Fill-2130" fill="#4F4F4C" points="174.879134 64 168 62.8625487 168.118818 62 175 63.1396772 174.879134 64"></polyline>
        <path d="M176.716621,64.7934486 L176.207993,64.7170155 L176.285195,64.2065514 L176.792916,64.2848044 L176.716621,64.7934486 Z M176.133515,64 L176,64.867152 L176.868302,65 L177,64.1310282 L176.133515,64 L176.133515,64 Z" id="Fill-2131" fill="#4F4F4C"></path>
        <polyline id="Fill-2132" fill="#4F4F4C" points="174.878127 66 168 64.8625487 168.121873 64 175 65.1419032 174.878127 66"></polyline>
        <path d="M176.715455,65.7920073 L176.207273,65.7148047 L176.283636,65.2061762 L176.792727,65.284287 L176.715455,65.7920073 Z M176.130909,65 L176,65.8673933 L176.866364,66 L177,65.133515 L176.130909,65 L176.130909,65 Z" id="Fill-2133" fill="#4F4F4C"></path>
        <polyline id="Fill-2134" fill="#4F4F4C" points="174.880176 68 168 66.862069 168.121873 66 175 67.1390434 174.880176 68"></polyline>
        <path d="M175.716106,67.7939836 L175.205641,67.7146764 L175.283894,67.2051048 L175.794359,67.2825889 L175.716106,67.7939836 Z M175.132848,67 L175,67.8687329 L175.868062,68 L176,67.1312671 L175.132848,67 L175.132848,67 Z" id="Fill-2135" fill="#4F4F4C"></path>
        <polyline id="Fill-2136" fill="#4F4F4C" points="174.878109 69 168 67.8628763 168.120866 67 175 68.1371237 174.878109 69"></polyline>
        <path d="M175.716364,68.7936364 L175.207273,68.7163636 L175.284545,68.2081818 L175.793636,68.2845455 L175.716364,68.7936364 Z M175.132727,68 L175,68.8672727 L175.867273,69 L176,68.1336364 L175.132727,68 L175.132727,68 Z" id="Fill-2137" fill="#4F4F4C"></path>
        <polyline id="Fill-2138" fill="#4F4F4C" points="173.879134 71 167 69.8608018 167.120866 69 174 70.1358575 173.879134 71"></polyline>
        <path d="M175.715455,70.7920073 L175.206364,70.715713 L175.283636,70.2061762 L175.792727,70.2824705 L175.715455,70.7920073 Z M175.130909,70 L175,70.866485 L175.867273,71 L176,70.1316985 L175.130909,70 L175.130909,70 Z" id="Fill-2139" fill="#4F4F4C"></path>
        <polyline id="Fill-2140" fill="#4F4F4C" points="173.879151 72 167 70.8627015 167.121873 70 174 71.1372985 173.879151 72"></polyline>
        <path d="M175.717015,71.7938238 L175.208371,71.715713 L175.285714,71.2079927 L175.794359,71.284287 L175.717015,71.7938238 Z M175.133758,71 L175,71.866485 L175.868972,72 L176,71.133515 L175.133758,71 L175.133758,71 Z" id="Fill-2141" fill="#4F4F4C"></path>
        <polyline id="Fill-2142" fill="#4F4F4C" points="173.878127 74 167 72.8609566 167.121873 72 174 73.137931 173.878127 74"></polyline>
        <path d="M174.715196,73.7952684 L174.207461,73.7170155 L174.282985,73.2065514 L174.793449,73.2848044 L174.715196,73.7952684 M174.131028,73 L174,73.8680619 L174.868062,74 L175,73.1319381 L174.131028,73" id="Fill-2143" fill="#4F4F4C"></path>
        <polyline id="Fill-2144" fill="#4F4F4C" points="173.88014 75 167 73.8609566 167.11986 73 174 74.1401557 173.88014 75"></polyline>
        <path d="M174.585,75.698 L174.171,75.636 L174.24,75.178 L174.654,75.243 L174.585,75.698 M174.118,75 L174,75.774 L174.706,75.881 L174.824,75.106 L174.118,75" id="Fill-2145" fill="#4F4F4C"></path>
        <path d="M172,78 L172.240033,75.398067 L173.261188,75.535626 L173.380187,74.8406383 L172.304109,74.6958867 L172.368186,74 L173.498169,74.1528433 L173.51546,74.0530456 L174.331164,74.2157788 L174.309805,74.343448 L175.280106,74.4738143 L175.291294,74.4072825 L177,74.7489323 L172,78 M174.331164,74.9692066 L174.211147,75.6650933 L174.929211,75.7612947 L175.049227,75.0645089 L174.331164,74.9692066 M174.806143,75.5967633 L174.385069,75.5410205 L174.455248,75.1292425 L174.876322,75.1876826 L174.806143,75.5967633" id="Fill-2146" fill="#AF966C"></path>
        <polyline id="Fill-2147" fill="#3C392E" points="173.984929 73.6815 173 73.5115 173.014184 73.3185 174 73.5705 173.984929 73.6815"></polyline>
        <polyline id="Fill-2148" fill="#3C392E" points="174.9715 73.6435 174.0175 73.4985 174.0385 73.3565 174.9825 73.5695 174.9715 73.6435"></polyline>
        <polyline id="Fill-2149" fill="#3C392E" points="172.895629 74.967 172 74.814 172.0562 74.033 173 74.194 172.895629 74.967"></polyline>
        <path d="M174.706,75.881 L174,75.774 L174.118,75 L174.824,75.106 L174.706,75.881 M174.24,75.178 L174.171,75.636 L174.585,75.698 L174.654,75.243 L174.24,75.178" id="Fill-2150" fill="#3C392E"></path>
        <polyline id="Fill-2151" fill="#D8C8A6" points="172.662124 74 177 74.6094702 172 78 172.662124 74"></polyline>
        <polyline id="Fill-2152" fill="#4D9A44" points="176.673709 64 176 63.3811395 176.010563 63.1915521 176.237089 63.2003929 176.717136 63.6394892 177.776995 63 178 63.0275049 177.964789 63.2151277 176.673709 64"></polyline>
        <polyline id="Fill-2153" fill="#4D9A44" points="175.673709 66 175 65.3843137 175.010563 65.1941176 175.235915 65.2019608 175.717136 65.6411765 176.776995 65 177 65.0303922 176.967136 65.2176471 175.673709 66"></polyline>
        <polyline id="Fill-2154" fill="#4D9A44" points="175.675264 67 175 66.3839373 175.010551 66.194907 175.237984 66.201763 175.71864 66.6415279 176.776084 66 177 66.0303624 176.96483 66.2184133 175.675264 67"></polyline>
        <polyline id="Fill-2155" fill="#4D9A44" points="175.674091 69 175 68.3835616 175.010551 68.1937378 175.237984 68.202544 175.717468 68.6409002 176.776084 68 177 68.0283757 176.96483 68.2181996 175.674091 69"></polyline>
        <polyline id="Fill-2156" fill="#4D9A44" points="174.673709 74 174 73.3823529 174.008216 73.1941176 174.235915 73.2009804 174.717136 73.6401961 175.776995 73 176 73.0294118 175.964789 73.2156863 174.673709 74"></polyline>
        <polyline id="Fill-2157" fill="#A7382B" points="175.88785 71 175.812234 70.9325551 175 69.2438392 175.025489 69 175.187766 69.0389105 176 70.7198444 175.975361 70.9675746 175.88785 71"></polyline>
        <polyline id="Fill-2158" fill="#A7382B" points="174.118343 71 174 70.9542048 174.038133 70.7943381 175.747535 70 176 70.0233139 175.961867 70.1831807 174.252465 70.9775187 174.118343 71"></polyline>
        <polyline id="Fill-2159" fill="#A7382B" points="175.887946 73 175.812394 72.9300518 175 71.246114 175.026316 71 175.187606 71.0362694 176 72.7189119 175.974533 72.9676166 175.887946 73"></polyline>
        <polyline id="Fill-2160" fill="#A7382B" points="174.115866 72 174 71.9542048 174.036866 71.7943381 175.747202 71 176 71.0224813 175.9605 71.1840133 174.252798 71.9783514 174.115866 72"></polyline>
        <path d="M168,60.9990539 C168,61.5525071 167.552295,62 166.999527,62 C166.448651,62 166,61.5525071 166,60.9990539 C166,60.4474929 166.448651,60 166.999527,60 C167.552295,60 168,60.4474929 168,60.9990539" id="Fill-2161" fill="#157676"></path>
        <path d="M178,61.9985789 C178,62.5528186 177.55303,63 176.999053,63 C176.447917,63 176,62.5528186 176,61.9985789 C176,61.4481288 176.447917,61 176.999053,61 C177.55303,61 178,61.4481288 178,61.9985789" id="Fill-2162" fill="#B6413A"></path>
        <polygon id="Fill-2163" fill="#5B5751" points="58 58 69 58 69 56 58 56"></polygon>
        <polygon id="Fill-2164" fill="#47423C" points="67.112 57.838 67.888 57.838 67.888 57.162 67.112 57.162"></polygon>
        <polygon id="Fill-2165" fill="#A27430" points="80 62 83 62 83 50 80 50"></polygon>
        <polygon id="Fill-2166" fill="#96632E" points="80 50.639 83 50.639 83 50.361 80 50.361"></polygon>
        <polygon id="Fill-2167" fill="#96632E" points="80 51.639 83 51.639 83 51.361 80 51.361"></polygon>
        <polygon id="Fill-2168" fill="#96632E" points="80 53.638 83 53.638 83 53.362 80 53.362"></polygon>
        <polygon id="Fill-2169" fill="#A27430" points="80 57.639 83 57.639 83 57.361 80 57.361"></polygon>
        <polygon id="Fill-2170" fill="#96632E" points="80 60.639 83 60.639 83 60.361 80 60.361"></polygon>
        <path d="M82,55.5026834 C82,56.3280859 81.5521127,57 81.000939,57 C80.4488263,57 80,56.3280859 80,55.5026834 C80,54.6729875 80.4488263,54 81.000939,54 C81.5521127,54 82,54.6729875 82,55.5026834" id="Fill-2171" fill="#96632E"></path>
        <polygon id="Fill-2172" fill="#465458" points="72 62 75 62 75 50 72 50"></polygon>
        <polygon id="Fill-2173" fill="#344248" points="72 51.943 75 51.943 75 51.057 72 51.057"></polygon>
        <polygon id="Fill-2174" fill="#344248" points="72 52.9415 75 52.9415 75 52.0585 72 52.0585"></polygon>
        <polygon id="Fill-2175" fill="#344248" points="73 58 75 58 75 54 73 54"></polygon>
        <polygon id="Fill-2176" fill="#624423" points="76 62 78 62 78 49 76 49"></polygon>
        <polygon id="Fill-2177" fill="#4F331D" points="76 53 78 53 78 51 76 51"></polygon>
        <polygon id="Fill-2178" fill="#624423" points="76 61.6455 78 61.6455 78 61.3545 76 61.3545"></polygon>
        <polygon id="Fill-2179" fill="#624423" points="77.1305 53.89 77.8695 53.89 77.8695 53.11 77.1305 53.11"></polygon>
        <polygon id="Fill-2180" fill="#315F73" points="84 62 86 62 86 49 84 49"></polygon>
        <polygon id="Fill-2181" fill="#577F8E" points="84 51 86 51 86 49 84 49"></polygon>
        <polygon id="Fill-2182" fill="#577F8E" points="84 49.6485 86 49.6485 86 49.3515 84 49.3515"></polygon>
        <polygon id="Fill-2183" fill="#577F8E" points="84 50.7615 86 50.7615 86 50.2385 84 50.2385"></polygon>
        <polyline id="Fill-2184" fill="#577F8E" points="84.5003422 61.982 84 61.5 84.5003422 61.018 85 61.5 84.5003422 61.982"></polyline>
        <polygon id="Fill-2185" fill="#577F8E" points="84 54 86 54 86 53 84 53"></polygon>
        <polygon id="Fill-2186" fill="#644243" points="87 62 89 62 89 49 87 49"></polygon>
        <polygon id="Fill-2187" fill="#502F30" points="87 51 89 51 89 49 87 49"></polygon>
        <polygon id="Fill-2188" fill="#846766" points="87 49.6485 89 49.6485 89 49.3515 87 49.3515"></polygon>
        <polygon id="Fill-2189" fill="#644243" points="87 50.7615 89 50.7615 89 50.2385 87 50.2385"></polygon>
        <polyline id="Fill-2190" fill="#502F30" points="87.5 61.982 87 61.5 87.5 61.018 88 61.5 87.5 61.982"></polyline>
        <polygon id="Fill-2191" fill="#502F30" points="87 54 89 54 89 53 87 53"></polygon>
        <polyline id="Fill-2192" fill="#9F3D33" points="43.2563992 37 40 36.1038934 43.7436008 22 47 22.8971366 43.2563992 37"></polyline>
        <polyline id="Fill-2193" fill="#7D2623" points="45.1102681 31 43 30.472693 44.8887203 24 47 24.5282486 45.1102681 31"></polyline>
        <polyline id="Fill-2194" fill="#7D2623" points="42.8435705 36 41 35.5344398 41.1564295 35 43 35.4639004 42.8435705 36"></polyline>
        <polyline id="Fill-2195" fill="#9F3D33" points="45.0051571 29 44 28.7244338 44.9948429 25 46 25.2736591 45.0051571 29"></polyline>
        <polyline id="Fill-2196" fill="#6E492F" points="46.9492643 37 45 36.4891519 49.0507357 22 51 22.5088757 46.9492643 37"></polyline>
        <polyline id="Fill-2197" fill="#5B351F" points="49.9384771 23.869 48 23.356 48.0625315 23.131 50 23.646 49.9384771 23.869"></polyline>
        <polyline id="Fill-2198" fill="#5B351F" points="49.915212 23.9135 48 23.3995 48.082793 23.0865 50 23.6035 49.915212 23.9135"></polyline>
        <polyline id="Fill-2199" fill="#5B351F" points="46.9440079 32 46 31.7532622 47.0559921 28 48 28.2438909 46.9440079 32"></polyline>
        <polyline id="Fill-2200" fill="#5B351F" points="46.7424036 37 45 36.3397436 45.2575964 35 47 35.6602564 46.7424036 37"></polyline>
        <polyline id="Fill-2201" fill="#FAD7A5" points="40.5500618 26 42 26.742839 37.4508653 37 36 36.2531726 40.5500618 26"></polyline>
        <polyline id="Fill-2202" fill="#A24C52" points="41.781719 27 42 27.1048682 37.218281 37 37 36.897056 41.781719 27"></polyline>
        <polyline id="Fill-2203" fill="#A24C52" points="39.7817615 26 40 26.1039161 35.2182385 36 35 35.8989705 39.7817615 26"></polyline>
        <polygon id="Fill-2204" fill="#30644F" points="60 37 63 37 63 24 60 24"></polygon>
        <polygon id="Fill-2205" fill="#225641" points="60 24.641 63 24.641 63 24.359 60 24.359"></polygon>
        <polygon id="Fill-2206" fill="#225641" points="60 26.642 63 26.642 63 26.358 60 26.358"></polygon>
        <polygon id="Fill-2207" fill="#30644F" points="60 34.6415 63 34.6415 63 34.3585 60 34.3585"></polygon>
        <polygon id="Fill-2208" fill="#225641" points="60 34.6435 63 34.6435 63 34.3565 60 34.3565"></polygon>
        <polygon id="Fill-2209" fill="#225641" points="60 33 62 33 62 28 60 28"></polygon>
        <polygon id="Fill-2210" fill="#336553" points="50 37 54 37 54 25 50 25"></polygon>
        <polygon id="Fill-2211" fill="#547F6D" points="50 36 54 36 54 26 50 26"></polygon>
        <path d="M53,27.4989224 C53,28.3265086 52.5524788,29 51.9995534,29 C51.4475212,29 51,28.3265086 51,27.4989224 C51,26.6713362 51.4475212,26 51.9995534,26 C52.5524788,26 53,26.6713362 53,27.4989224" id="Fill-2212" fill="#336553"></path>
        <polygon id="Fill-2213" fill="#336553" points="51 36 53 36 53 35 51 35"></polygon>
        <polygon id="Fill-2214" fill="#664B35" points="55 37 59 37 59 25 55 25"></polygon>
        <polygon id="Fill-2215" fill="#7A614C" points="55 36 59 36 59 26 55 26"></polygon>
        <path d="M58,27.4989224 C58,28.3265086 57.5513852,29 57,29 C56.4477212,29 56,28.3265086 56,27.4989224 C56,26.6713362 56.4477212,26 57,26 C57.5513852,26 58,26.6713362 58,27.4989224" id="Fill-2216" fill="#664B35"></path>
        <polygon id="Fill-2217" fill="#664B35" points="56 36 58 36 58 35 56 35"></polygon>
        <polygon id="Fill-2218" fill="#504C46" points="78 37 90 37 90 22 78 22"></polygon>
        <polygon id="Fill-2219" fill="#47423C" points="77.3665 37 77.6335 37 77.6335 22 77.3665 22"></polygon>
        <path d="M87,29.5009801 C87,31.4327919 85.4318752,33 83.5009752,33 C81.5661744,33 80,31.4327919 80,29.5009801 C80,27.5672081 81.5661744,26 83.5009752,26 C85.4318752,26 87,27.5672081 87,29.5009801" id="Fill-2220" fill="#615D57"></path>
        <polygon id="Fill-2221" fill="#6E6B61" points="82 31 86 31 86 27 82 27"></polygon>
        <polygon id="Fill-2222" fill="#3E3A34" points="81 24 87 24 87 23 81 23"></polygon>
        <polygon id="Fill-2223" fill="#3E3A34" points="83 35.835 85 35.835 85 35.165 83 35.165"></polygon>
        <polygon id="Fill-2224" fill="#B4B19A" points="75 37 84 37 84 26 75 26"></polygon>
        <polygon id="Fill-2225" fill="#7D7762" points="74.4065 37 74.5935 37 74.5935 26 74.4065 26"></polygon>
        <path d="M78.2335116,31.3581875 L79.6809269,31.3581875 L79.236822,30.2495804 C79.0993125,29.9139295 78.9994907,29.6358187 78.9332824,29.4200432 C78.8782786,29.6760969 78.802903,29.9311916 78.7030812,30.1843683 L78.2335116,31.3581875 Z M77,33 L78.6419659,29 L79.2521008,29 L81,33 L80.355233,33 L79.8571429,31.7887797 L78.0685001,31.7887797 L77.6009677,33 L77,33 L77,33 Z" id="Fill-2226" fill="#6F594A"></path>
        <polygon id="Fill-2227" fill="#A6A48A" points="77 34.9095 81 34.9095 81 34.0905 77 34.0905"></polygon>
        <polygon id="Fill-2228" fill="#171716" points="51.0375 54.6735 51.9625 54.6735 51.9625 54.3265 51.0375 54.3265"></polygon>
        <polygon id="Fill-2229" fill="#171716" points="51.4485 54.852 51.5515 54.852 51.5515 54.148 51.4485 54.148"></polygon>
        <path d="M53.5670516,52.4387755 C53.1747775,52.0844156 52.5169327,52 51.5002636,52 C50.4815672,52 49.8257497,52.0844156 49.4324619,52.4387755 C49.0918828,52.7504638 48.9570703,53.2040816 49.0118062,53.8682746 C49.0280243,54.0278293 49.0847874,54.5241187 49.0868147,54.5454545 L49.0908692,54.5714286 L49.429421,55 L49.634174,54.8821892 L49.3310991,54.4972171 C49.3189356,54.390538 49.2702814,53.9907236 49.2601451,53.8534323 C49.2104773,53.2523191 49.3229901,52.8497217 49.614915,52.5834879 C49.9524532,52.2755102 50.5687392,52.2105751 51.5002636,52.2105751 C52.4307743,52.2105751 53.0490876,52.2755102 53.3856121,52.5834879 C53.6785507,52.8497217 53.7900498,53.2523191 53.740382,53.8534323 C53.7282185,53.9907236 53.6826052,54.390538 53.6694281,54.4972171 L53.3653396,54.8821892 L53.5711061,55 L53.9106716,54.5714286 L53.9126988,54.5454545 C53.9147261,54.5241187 53.9735165,54.0278293 53.9877073,53.8682746 C54.0434569,53.2040816 53.9106716,52.7504638 53.5670516,52.4387755" id="Fill-2230" fill="#171716"></path>
        <polyline id="Fill-2231" fill="#171716" points="53.934 62 53.381 62 53.066 61.3413729 53.657 61 53.934 62"></polyline>
        <polyline id="Fill-2232" fill="#171716" points="49.066 62 49.62 62 49.934 61.3413729 49.342 61 49.066 62"></polyline>
        <path d="M55,58.499475 C55,60.4303285 53.4333035,62 51.5,62 C49.567741,62 48,60.4303285 48,58.499475 C48,56.5665217 49.567741,55 51.5,55 C53.4333035,55 55,56.5665217 55,58.499475" id="Fill-2233" fill="#F8F6E9"></path>
        <path d="M51.5014513,61.6508267 C49.7618521,61.6508267 48.3483068,60.237599 48.3483068,58.5004863 C48.3483068,56.7614284 49.7618521,55.3462554 51.5014513,55.3462554 C53.2391154,55.3462554 54.6526607,56.7614284 54.6526607,58.5004863 C54.6526607,60.237599 53.2391154,61.6508267 51.5014513,61.6508267 Z M54.0905321,56.1477004 L54.0789219,56.1370015 L53.85349,55.9094067 C53.2313753,55.3443101 52.405114,55 51.5014513,55 C49.5712509,55 48,56.5688481 48,58.5004863 C48,59.4254551 48.3608846,60.2677505 48.9501037,60.8941226 L49.1039392,61.0468251 C49.7328265,61.6391552 50.5745681,62 51.5014513,62 C53.4306842,62 55,60.4272614 55,58.5004863 C55,57.5949701 54.6555632,56.7692094 54.0905321,56.1477004 L54.0905321,56.1477004 Z" id="Fill-2234" fill="#171716"></path>
        <polygon id="Fill-2235" fill="#2A2B27" points="51.395 55.842 51.605 55.842 51.605 55.158 51.395 55.158"></polygon>
        <polyline id="Fill-2236" fill="#2A2B27" points="53.3305 56.8165 53.1825 56.6685 53.6695 56.1835 53.8175 56.3315 53.3305 56.8165"></polyline>
        <polygon id="Fill-2237" fill="#2A2B27" points="54.1555 58.603 54.8445 58.603 54.8445 58.397 54.1555 58.397"></polygon>
        <polyline id="Fill-2238" fill="#2A2B27" points="53.6695 60.816 53.1825 60.332 53.3305 60.184 53.8175 60.67 53.6695 60.816"></polyline>
        <polygon id="Fill-2239" fill="#2A2B27" points="51.395 61.843 51.605 61.843 51.605 61.157 51.395 61.157"></polygon>
        <polyline id="Fill-2240" fill="#2A2B27" points="49.331 60.816 49.182 60.67 49.67 60.184 49.818 60.332 49.331 60.816"></polyline>
        <polygon id="Fill-2241" fill="#2A2B27" points="48.1555 58.603 48.8445 58.603 48.8445 58.397 48.1555 58.397"></polygon>
        <polyline id="Fill-2242" fill="#2A2B27" points="49.669 56.8165 49.182 56.3315 49.331 56.1835 49.818 56.6705 49.669 56.8165"></polyline>
        <polyline id="Fill-2243" fill="#2A2B27" points="51.667 59 51.333 59 51.377 57 51.622 57 51.667 59"></polyline>
        <polyline id="Fill-2244" fill="#2A2B27" points="51.1303283 59 51 58.872969 52.9069084 57 53 57.0965042 51.1303283 59"></polyline>
        <polyline id="Fill-2245" fill="#2A2B27" points="51.6265 58.5005 51.4995 58.6265 51.3735 58.5005 51.4995 58.3735 51.6265 58.5005"></polyline>
        <path d="M54.830129,56 C53.6549779,55.3593142 53.0700563,55.0422259 52,54.4564029 C52.3269616,54.0007628 53.014855,53.8640707 53.5382059,54.1476835 L54.4745051,54.6572565 C54.9978561,54.9445887 55.1570906,55.5425001 54.830129,56" id="Fill-2246" fill="#171716"></path>
        <path d="M48.1706602,56 C49.3459244,55.3593142 49.9277174,55.0422259 51,54.4564029 C50.6730069,54.0007628 49.982924,53.8640707 49.4595227,54.1476835 L48.5252566,54.6572565 C48.0018553,54.9445887 47.8426054,55.5425001 48.1706602,56" id="Fill-2247" fill="#171716"></path>
        <path d="M149,29.4985291 C149,35.297922 144.0733,40 138,40 C131.9267,40 127,35.297922 127,29.4985291 C127,23.7001167 131.9267,19 138,19 C144.0733,19 149,23.7001167 149,29.4985291" id="Fill-2248" fill="#EBEADA"></path>
        <path d="M138.501484,39.853282 C132.786861,39.853282 128.142925,35.2097207 128.142925,29.5 C128.142925,23.7902793 132.786861,19.1437343 138.501484,19.1437343 C144.21116,19.1437343 148.858065,23.7902793 148.858065,29.5 C148.858065,35.2097207 144.21116,39.853282 138.501484,39.853282 Z M147.008605,21.7723342 L146.971992,21.7355358 C146.734501,21.4739687 146.483156,21.229309 146.230822,20.9926057 C144.188401,19.1337888 141.473089,18 138.501484,18 C132.158499,18 127,23.1577445 127,29.5 C127,32.5443224 128.188444,35.3111649 130.121026,37.3659085 L130.630641,37.8711407 C132.691864,39.8095218 135.459622,41 138.501484,41 C144.840511,41 150,35.8382773 150,29.5 C150,26.5292744 148.865981,23.813154 147.008605,21.7723342 L147.008605,21.7723342 Z" id="Fill-2249" fill="#31322F"></path>
        <polygon id="Fill-2250" fill="#2A2B27" points="138.163 21 138.837 21 138.837 19 138.163 19"></polygon>
        <polyline id="Fill-2251" fill="#2A2B27" points="143.465686 24 143 23.5305118 144.535294 22 145 22.4625984 143.465686 24"></polyline>
        <polygon id="Fill-2252" fill="#2A2B27" points="146 29.8325 148 29.8325 148 29.1675 146 29.1675"></polygon>
        <polyline id="Fill-2253" fill="#2A2B27" points="144.535294 36 143 34.4649556 143.465686 34 145 35.5340573 144.535294 36"></polyline>
        <polygon id="Fill-2254" fill="#2A2B27" points="138.161 39 138.839 39 138.839 37 138.161 37"></polygon>
        <polyline id="Fill-2255" fill="#2A2B27" points="131.46696 36 131 35.5335968 132.530103 34 133 34.4634387 131.46696 36"></polyline>
        <polygon id="Fill-2256" fill="#2A2B27" points="128 29.8325 130 29.8325 130 29.1675 128 29.1675"></polygon>
        <polyline id="Fill-2257" fill="#2A2B27" points="132.530103 24 131 22.4625984 131.46696 22 133 23.5324803 132.530103 24"></polyline>
        <polyline id="Fill-2258" fill="#2A2B27" points="139 31 138 31 138.130597 24 138.86847 24 139 31"></polyline>
        <polyline id="Fill-2259" fill="#2A2B27" points="137.451578 31 137 30.5546528 143.671191 24 144 24.3358884 137.451578 31"></polyline>
        <path d="M138.907,29.4995 C138.907,29.7235 138.725,29.9045 138.5,29.9045 C138.274,29.9045 138.093,29.7235 138.093,29.4995 C138.093,29.2775 138.274,29.0955 138.5,29.0955 C138.725,29.0955 138.907,29.2775 138.907,29.4995" id="Fill-2260" fill="#2A2B27"></path>
        <polygon id="Fill-2261" fill="#E5F3F0" points="66 27.656 67 27.656 67 27.344 66 27.344"></polygon>
        <polygon id="Fill-2262" fill="#BDDCDB" points="68 27.656 69 27.656 69 27.344 68 27.344"></polygon>
        <path d="M66.0211203,27 L66.0211203,29.9674291 C64.84573,30.3886371 64,31.541267 64,32.8997576 C64,34.6130494 65.3434343,36 67,36 L67,27 L66.0211203,27" id="Fill-2263" fill="#FFFFFE"></path>
        <path d="M68.9788991,29.9674291 L68.9788991,27 L68,27 L68,36 C69.6559633,36 71,34.6130494 71,32.8997576 C71,31.541267 70.1541284,30.3886371 68.9788991,29.9674291" id="Fill-2264" fill="#AED3D2"></path>
        <path d="M64.240404,32 L64.210101,32.07343 C64.0717172,32.4067633 64,32.7613527 64,33.1285024 C64,34.7101449 65.3474747,36 67,36 L67,32 L64.240404,32" id="Fill-2265" fill="#67C0B9"></path>
        <path d="M69.7900404,32.07343 L69.7597577,32 L67,32 L67,36 C68.6544415,36 70,34.7101449 70,33.1285024 C70,32.7613527 69.9283311,32.4067633 69.7900404,32.07343" id="Fill-2266" fill="#31ACA3"></path>
        <polygon id="Fill-2267" fill="#E5F3F0" points="71 25.6565 72 25.6565 72 25.3435 71 25.3435"></polygon>
        <polygon id="Fill-2268" fill="#BDDCDB" points="72 25.6565 73 25.6565 73 25.3435 72 25.3435"></polygon>
        <path d="M75.8970785,35.179391 C73.6829765,31.7443504 73.1496921,30.9151034 73.1496921,30.9151034 L73.1496921,25 L72,25 L72,36 L75.4587921,36 C75.7999214,36 76.1896292,35.6352849 75.8970785,35.179391" id="Fill-2269" fill="#AED3D2"></path>
        <path d="M70.8482413,25 L70.8482413,30.9151034 C70.8460824,30.9199023 70.3106819,31.7501091 68.1032343,35.179391 C67.8096276,35.6352849 68.201463,36 68.5404061,36 L72,36 L72,25 L70.8482413,25" id="Fill-2270" fill="#FFFFFE"></path>
        <path d="M70.2288967,34 L69.0484546,36.5539804 C68.9921173,36.6772083 68.9850752,36.782988 69.0264479,36.87241 L69.1787346,37 L72,37 L72,34 L70.2288967,34" id="Fill-2271" fill="#B0382B"></path>
        <path d="M74.9508957,36.5539804 L73.7703613,34 L72,34 L72,37 L74.8206055,37 L74.9729042,36.87241 C75.0151604,36.782988 75.0081177,36.6772083 74.9508957,36.5539804" id="Fill-2272" fill="#8B3526"></path>
        <polygon id="Fill-2273" fill="#FAD7A5" points="34 61 43 61 43 51 34 51"></polygon>
        <polyline id="Fill-2274" fill="#373832" points="33 62 33.6692008 61.3235132 33.6692008 51.6764868 42.3297989 51.6764868 43 51 33 51 33 62"></polyline>
        <polyline id="Fill-2275" fill="#161713" points="33.5380866 50.542441 43.4629061 50.542441 44 50 33 50 33 62 33.5380866 61.4535409 33.5380866 50.542441"></polyline>
        <polyline id="Fill-2276" fill="#51514B" points="43 51 42.3297989 51.6764868 42.3297989 61.3235132 33.6692008 61.3235132 33 62 43 62 43 51"></polyline>
        <polyline id="Fill-2277" fill="#30312D" points="43.4629061 50.542441 43.4629061 61.4535409 33.5380866 61.4535409 33 62 44 62 44 50 43.4629061 50.542441"></polyline>
        <polygon id="Fill-2278" fill="#A69071" points="35 60 41 60 41 53 35 53"></polygon>
        <polygon id="Fill-2279" fill="#833D3E" points="57 58.6935 71 58.6935 71 58.3065 57 58.3065"></polygon>
        <polygon id="Fill-2280" fill="#833D3E" points="57 61.6925 71 61.6925 71 61.3075 57 61.3075"></polygon>
        <polygon id="Fill-2281" fill="#6D2225" points="57 62 71 62 71 59 57 59"></polygon>
        <polygon id="Fill-2282" fill="#FAD7A5" points="58 62 71 62 71 59 58 59"></polygon>
        <path d="M177.962882,127 C176.209302,127 171.564523,127 167,127 L167,151 C176.570451,151 177.135249,148.717109 177.465299,147.375046 C177.893662,145.637678 178,143.751081 178,138.819642 C178,134.833972 177.962882,132.794194 177.962882,127" id="Fill-2283" fill="#8D6744"></path>
        <path d="M167,127 L167,151 C161.333972,151 158.822982,150.200494 157.648244,149.267573 C157.450616,149.10945 157.290105,148.947375 157.157684,148.7853 C156.758413,148.289191 156.635021,147.788141 156.533698,147.375046 C156.106338,145.640642 156,143.751081 156,138.819642 C156,134.836936 156.038121,132.798147 156.038121,127.0168 L156.038121,127 L167,127" id="Fill-2284" fill="#A57F54"></path>
        <path d="M171.395181,145.013565 C170.913277,145.320189 169.6773,145.829338 166.999512,145.829338 C164.3227,145.829338 163.084772,145.320189 162.604819,145.013565 C162.197054,144.752366 162,144.388959 162,144 L162,148.407256 C162,148.798107 162.197054,149.159621 162.604819,149.417981 C163.084772,149.726498 164.3227,150 166.999512,150 C169.6773,150 170.913277,149.726498 171.395181,149.417981 C171.802946,149.159621 172,148.798107 172,148.407256 L172,144 C172,144.388959 171.802946,144.752366 171.395181,145.013565" id="Fill-2285" fill="#5A3D26"></path>
        <path d="M169.80997,142.1255 L164.191006,142.1255 C163.789094,142.1255 162,142.4635 162,142.8745 L172,142.8745 C172,142.4635 170.211882,142.1255 169.80997,142.1255" id="Fill-2286" fill="#59BDC1"></path>
        <path d="M162,143.976622 C162,144.406839 162.197054,144.808793 162.604819,145.097697 C163.084772,145.436846 164.3227,146 166.999512,146 C169.6773,146 170.913277,145.436846 171.395181,145.097697 C171.802946,144.808793 172,144.406839 172,143.976622 L172,143 L162,143 L162,143.976622" id="Fill-2287" fill="#86CCCC"></path>
        <path d="M167.5,142 C163.125653,142 162,142.584302 162,143 L173,143 C173,142.584302 171.874347,142 167.5,142" id="Fill-2288" fill="#5A3D26"></path>
        <path d="M162,143.699488 C162,144.18782 162.218563,144.645418 162.664925,144.972112 C163.194403,145.359135 164.555037,146 167.5,146 C170.443937,146 171.805597,145.359135 172.334049,144.972112 C172.781437,144.645418 173,144.18782 173,143.699488 L173,142.587365 C173,142.587365 171.649627,142 167.5,142 C163.350373,142 162,142.587365 162,142.587365 L162,143.699488" id="Fill-2289" fill="#694930"></path>
        <path d="M168,144.038577 C168,144.017145 167.812925,144 167.585034,144 L167.414966,144 C167.187075,144 167,144.017145 167,144.038577 C167,144.060009 167,144.315045 167,144.600086 L167,148.477068 C167,148.76318 167.187075,149 167.414966,149 L167.585034,149 C167.812925,149 168,148.76318 168,148.477068 L168,144.600086 C168,144.315045 168,144.060009 168,144.038577" id="Fill-2290" fill="#372D20"></path>
        <polygon id="Fill-2291" fill="#49392C" points="167.163 145.928 167.837 145.928 167.837 145.072 167.163 145.072"></polygon>
        <polygon id="Fill-2292" fill="#BFAE87" points="166 146.7655 168 146.7655 168 146.2345 166 146.2345"></polygon>
        <path d="M178,127.433431 C178,127.681244 177.721162,127.958212 177.217845,128.233236 C175.597163,129.118562 171.633036,130 167.000503,130 C162.363944,130 158.397804,129.118562 156.780142,128.231293 C156.287898,127.964043 156.013086,127.694849 156.001007,127.449951 L156,127.433431 C156,126.926142 156.561702,126.479106 157.402242,126.222546 C157.870327,126.080661 158.42297,126 159.013864,126 L174.985129,126 C175.575017,126 176.128666,126.080661 176.596751,126.222546 C176.971219,126.334305 177.291329,126.488824 177.530908,126.669582 C177.646671,126.753158 177.743308,126.849368 177.818806,126.94655 C177.934569,127.098154 178,127.262391 178,127.433431" id="Fill-2293" fill="#C8AF89"></path>
        <path d="M167.500492,130 C161.185841,130 157,128.120509 157,127.357656 C157,126.716418 158.109145,126 159.700098,126 L175.300885,126 C176.890855,126 178,126.716418 178,127.357656 C178,128.120509 173.816126,130 167.500492,130" id="Fill-2294" fill="#88623C"></path>
        <path d="M177,127 L157,127 C157.04774,126.842749 157.100559,126.684333 157.15744,126.535236 C157.206196,126.405941 157.26003,126.283634 157.315896,126.164822 C157.64195,125.483401 158.089893,125 158.668867,125 L175.333164,125 C175.911122,125 176.359066,125.483401 176.684104,126.164822 C176.740985,126.283634 176.792788,126.405941 176.841544,126.535236 C176.899441,126.684333 176.95226,126.842749 177,127" id="Fill-2295" fill="#5A3D26"></path>
        <path d="M157.347093,126.684791 C157.112756,127.370561 157,128.132746 157,128.711732 L157,135.534166 C157,136.880235 158.32464,138 167,138 C175.67536,138 177,136.880235 177,135.534166 L177,128.711732 C177,128.132746 176.886263,127.370561 176.652907,126.684791 C176.652907,126.684791 174.024218,126 167,126 C159.976762,126 157.347093,126.684791 157.347093,126.684791" id="Fill-2296" fill="#694930"></path>
        <path d="M174.670324,146.908231 C174.880916,146.86623 175.028251,146.615226 174.995421,146.350221 L174.29318,140.736121 C174.26035,140.472116 174.233125,140.035108 174.233125,139.767103 L174.233125,134.623011 C174.233125,134.353006 174.233125,134.102002 174.233125,134.067001 C174.233125,134.030001 174.056964,134 173.843169,134 L173.390757,134 C173.17536,134 173,134.028001 173,134.058001 C173,134.090002 173,134.333006 173,134.602011 L173,139.886105 C173,140.15511 173.027225,140.592118 173.060856,140.857123 L173.77831,146.588225 C173.81114,146.85323 174.012123,147.035233 174.224317,146.994233 L174.670324,146.908231" id="Fill-2297" fill="#49392C"></path>
        <path d="M159.33093,146.908231 C159.117789,146.86623 158.971155,146.615226 159.004808,146.350221 L159.706731,140.736121 C159.739584,140.472116 159.767629,140.035108 159.767629,139.767103 L159.767629,134.604011 C159.767629,134.337006 159.767629,134.092002 159.767629,134.058001 C159.767629,134.028001 159.943109,134 160.158654,134 L160.609776,134 C160.824519,134 161,134.030001 161,134.063001 C161,134.098002 161,134.347006 161,134.613011 L161,139.886105 C161,140.15511 160.972756,140.592118 160.939103,140.857123 L160.221955,146.588225 C160.189904,146.85323 159.987981,147.035233 159.776443,146.994233 L159.33093,146.908231" id="Fill-2298" fill="#49392C"></path>
        <polyline id="Fill-2299" fill="#BFAE87" points="173.038918 140.844 173 140.315 174.962981 140.156 175 140.684 173.038918 140.844"></polyline>
        <polyline id="Fill-2300" fill="#BFAE87" points="160.961101 140.844 159 140.684 159.037951 140.156 161 140.315 160.961101 140.844"></polyline>
        <path d="M173.732,134.5 C173.732,134.627 173.628,134.733 173.499,134.733 C173.372,134.733 173.268,134.627 173.268,134.5 C173.268,134.372 173.372,134.267 173.499,134.267 C173.628,134.267 173.732,134.372 173.732,134.5" id="Fill-2301" fill="#BFAE87"></path>
        <path d="M173.732,136.499 C173.732,136.627 173.628,136.733 173.499,136.733 C173.372,136.733 173.268,136.627 173.268,136.499 C173.268,136.37 173.372,136.267 173.499,136.267 C173.628,136.267 173.732,136.37 173.732,136.499" id="Fill-2302" fill="#BFAE87"></path>
        <path d="M160.733,134.5 C160.733,134.627 160.629,134.733 160.5,134.733 C160.373,134.733 160.267,134.627 160.267,134.5 C160.267,134.372 160.373,134.267 160.5,134.267 C160.629,134.267 160.733,134.372 160.733,134.5" id="Fill-2303" fill="#BFAE87"></path>
        <path d="M160.733,136.499 C160.733,136.627 160.629,136.733 160.5,136.733 C160.373,136.733 160.267,136.627 160.267,136.499 C160.267,136.37 160.373,136.267 160.5,136.267 C160.629,136.267 160.733,136.37 160.733,136.499" id="Fill-2304" fill="#BFAE87"></path>
        <path d="M167.5,122.829003 C169.273866,122.829003 169.816449,123.682233 169.816449,125 L171,125 C171,122 168.547175,122 167.5,122 C166.452825,122 164,122 164,125 L165.183551,125 C165.183551,123.682233 165.72516,122.829003 167.5,122.829003" id="Fill-2305" fill="#88623C"></path>
        <path d="M171,125 L169.649489,125 L169.642051,124.737776 C169.615487,124.33992 169.52942,123.947086 169.360473,123.595445 C169.005578,122.852981 168.287289,122.295378 167.001594,122.295378 C164.969983,122.295378 164.350511,123.680844 164.350511,125 L163,125 C163,122 165.803028,122 167.001594,122 C167.826139,122 169.412538,122 170.322088,122.982585 C170.73011,123.426658 171,124.067649 171,125" id="Fill-2306" fill="#C8AF89"></path>
        <polygon id="Fill-2307" fill="#8A694C" points="29 64 97 64 97 62 29 62"></polygon>
        <polygon id="Fill-2308" fill="#8A694C" points="29 39 97 39 97 37 29 37"></polygon>
        <polygon id="Fill-2310" fill="#231D18" points="46 100 82 100 82 76 46 76"></polygon>
        <polygon id="Fill-2311" fill="#231D18" points="61 105 66 105 66 100 61 100"></polygon>
        <polygon id="Fill-2312" fill="#231D18" points="58 105.9765 70 105.9765 70 105.0235 58 105.0235"></polygon>
        <polygon id="Fill-2313" fill="#EBEADA" points="47 99 80 99 80 78 47 78"></polygon>
        <polyline id="Fill-2314" fill="#BDCDB4" points="74.8525 99.501 74.7175 99.635 74.2835 99.635 74.1475 99.501 74.2835 99.365 74.7175 99.365 74.8525 99.501"></polyline>
        <polyline id="Fill-2315" fill="#BDCDB4" points="75.852 99.501 75.718 99.635 75.284 99.635 75.148 99.501 75.284 99.365 75.718 99.365 75.852 99.501"></polyline>
        <polyline id="Fill-2316" fill="#BDCDB4" points="76.8515 99.501 76.7175 99.635 76.2835 99.635 76.1485 99.501 76.2835 99.365 76.7175 99.365 76.8515 99.501"></polyline>
        <polyline id="Fill-2317" fill="#BDCDB4" points="77.8515 99.501 77.7175 99.635 77.2835 99.635 77.1485 99.501 77.2835 99.365 77.7175 99.365 77.8515 99.501"></polyline>
        <path d="M55.988276,86.6706949 C56.4050093,86.5995817 56.819611,86.5127818 57.2107647,86.5127818 L57.4804157,86.5274227 L58.2392752,83.0219614 L60,83.0219614 L58.0559552,92 L56.2941647,92 L57.2597922,87.5449686 C56.991207,87.4508482 56.7343459,87.4247037 56.4774847,87.4247037 C56.2451372,87.4247037 56.0127898,87.4508482 55.81668,87.4738554 L54.8382627,92 L53.077538,92 L54.8499867,83.8366256 C53.7745803,84.2821287 53.1393552,85.1940507 53.1393552,86.4667674 C53.1393552,87.0795956 53.2970957,87.1747618 53.3098854,87.2814316 C52.4657607,87.2814316 52,86.9823379 52,86.118522 C52,84.5216128 54.252065,83 56.2941647,83 C56.4646949,83 56.624567,83.0115036 56.7833733,83.0219614 L55.988276,86.6706949" id="Fill-2318" fill="#9D9983"></path>
        <path d="M63.1289276,86.6245506 C62.4761808,86.6245506 61.9410095,87.9548023 61.6967363,89.0652286 C62.7680924,89.0529019 63.523211,88.1191577 63.535374,87.2829995 C63.535374,87.0354391 63.4775998,86.6245506 63.1289276,86.6245506 Z M62.5228056,91.1484335 C63.0924387,91.1484335 64.0695317,90.4663585 64.4780053,89.5942476 L65,89.5942476 C64.3371174,90.807396 63.2211636,92 61.7210622,92 C60.6040949,92 60,91.1391885 60,90.1263482 C60,88.6276323 60.6274073,86 62.7437665,86 C63.6975471,86 64.233732,86.3985619 64.233732,87.2234206 C64.233732,88.6625578 62.7093047,89.4874165 61.6034867,89.6291731 C61.5811879,89.8181818 61.5690249,89.9938367 61.5690249,90.1376477 C61.5690249,90.9152542 62.0687209,91.1484335 62.5228056,91.1484335 L62.5228056,91.1484335 Z" id="Fill-2319" fill="#9D9983"></path>
        <path d="M66.9370022,84 L65.6625634,90.1697784 C65.6287714,90.3430421 65.6075308,90.4466019 65.6075308,90.5362211 C65.6075308,90.7891461 65.7291818,90.9584267 66.1607531,90.9584267 C66.6029447,90.9584267 67.1793386,90.3191436 67.6234613,89.9536968 L68,89.9536968 C67.4902245,90.4794623 66.2389573,92 65.3748491,92 C64.5203958,92 64,91.6076674 64,90.7532985 C64,90.5800349 64.0222061,90.3868559 64.0656529,90.1697784 L65.2966449,84.2270351 L66.9370022,84" id="Fill-2320" fill="#9D9983"></path>
        <path d="M69.9362934,84 L68.6631274,90.1697784 C68.6293436,90.3430421 68.6071429,90.4466019 68.6071429,90.5362211 C68.6071429,90.7891461 68.7287645,90.9584267 69.1611969,90.9584267 C69.6042471,90.9584267 70.1805019,90.3191436 70.6225869,89.9536968 L71,89.9536968 C70.4903475,90.4794623 69.2393822,92 68.3745174,92 C67.5222008,92 67,91.6076674 67,90.7532985 C67,90.5800349 67.023166,90.3868559 67.0675676,90.1697784 L68.296332,84.2270351 L69.9362934,84" id="Fill-2321" fill="#9D9983"></path>
        <path d="M74.8888672,86.9180991 L75,87.148635 C74.8888672,87.5551062 74.6977968,88.09909 74.251316,88.3781598 C74.1284851,90.7815976 72.8075648,92 71.7557029,92 C70.5595633,92 70,91.4651163 70,90.0859454 C70,87.2537917 71.4096315,86 72.9411191,86 C73.4792357,86 73.9939559,86.2214358 73.9939559,86.5217391 C73.9939559,86.8584429 73.7248976,86.9969666 73.4899591,87.0819009 C73.4012478,86.8372093 73.2433223,86.6835187 72.986937,86.6835187 C71.8892572,86.6835187 71.4876194,89.0505561 71.4876194,89.9797776 C71.4876194,90.6764408 71.8239423,90.8614762 72.2704231,90.8614762 C72.9313706,90.8614762 73.322285,89.6076845 73.4343927,88.5419616 C73.2101774,88.4944388 73.1214662,88.3114257 73.1214662,88.065723 C73.1214662,87.6592518 73.5123806,87.1840243 73.871125,87.1840243 C74.0826672,87.1840243 74.251316,87.2537917 74.251316,87.4954499 L74.2396179,87.6016178 C74.5301228,87.4155713 74.6305323,87.2072801 74.8888672,86.9180991" id="Fill-2322" fill="#9D9983"></path>
        <polygon id="Fill-2323" fill="#262725" points="39 152 40 152 40 147 39 147"></polygon>
        <polygon id="Fill-2324" fill="#262725" points="72 152 73 152 73 147 72 147"></polygon>
        <path d="M66.5822624,122.460664 C65.1567421,122.460664 64,121.361137 64,120 L64,121.543128 C64,122.899526 65.1567421,124 66.5822624,124 L75,124 L75,122.460664 L66.5822624,122.460664" id="Fill-2325" fill="#BE5F56"></path>
        <polygon id="Fill-2326" fill="#171716" points="52 125 59 125 59 124 52 124"></polygon>
        <polygon id="Fill-2327" fill="#68726D" points="54 137 57 137 57 125 54 125"></polygon>
        <polygon id="Fill-2328" fill="#262725" points="54 149 58 149 58 136 54 136"></polygon>
        <polygon id="Fill-2329" fill="#171716" points="53 145 58 145 58 143 53 143"></polygon>
        <polygon id="Fill-2330" fill="#171716" points="52 146 60 146 60 143 52 143"></polygon>
        <polyline id="Fill-2331" fill="#262725" points="73 149 56 148.024 39 149 39 146.952 52.8971875 145 59.1028125 145 73 146.952 73 149"></polyline>
        <path d="M41,152 C41,153.105601 40.1030526,154 38.999541,154 C37.8951113,154 37,153.105601 37,152 C37,150.89348 37.8951113,150 38.999541,150 C40.1030526,150 41,150.89348 41,152" id="Fill-2332" fill="#171716"></path>
        <path d="M74,152 C74,153.105601 73.1032584,154 72,154 C70.8958238,154 70,153.105601 70,152 C70,150.89348 70.8958238,150 72,150 C73.1032584,150 74,150.89348 74,152" id="Fill-2333" fill="#171716"></path>
        <polygon id="Fill-2334" fill="#262725" points="55 152 56 152 56 147 55 147"></polygon>
        <polygon id="Fill-2335" fill="#171716" points="54 154 57 154 57 150 54 150"></polygon>
        <path d="M55.1900332,103.319201 L58.0195489,103.319201 L58.0195489,100.583192 L55.1900332,100.583192 L55.1900332,103.319201 Z M55.1900332,109.609502 L58.0195489,109.609502 L58.0195489,106.873493 L55.1900332,106.873493 L55.1900332,109.609502 Z M48.7622661,103.319201 L51.5897535,103.319201 L51.5897535,100.583192 L48.7622661,100.583192 L48.7622661,103.319201 Z M48.7622661,109.609502 L51.5897535,109.609502 L51.5897535,106.873493 L48.7622661,106.873493 L48.7622661,109.609502 Z M42.334499,103.319201 L45.1630005,103.319201 L45.1630005,100.583192 L42.334499,100.583192 L42.334499,103.319201 Z M42.334499,109.609502 L45.1630005,109.609502 L45.1630005,106.873493 L42.334499,106.873493 L42.334499,109.609502 Z M63.3692604,121.387943 L63.3692604,98.6181033 C63.3692604,97.1750225 62.1816751,96 60.7324357,96 L39.6368246,96 C38.1865711,96 37,97.1750225 37,98.6181033 L37,121.380889 C37,122.820947 38.1865711,124 39.6368246,124 L66,124 C64.5477181,124 63.3692604,122.830016 63.3692604,121.387943 L63.3692604,121.387943 Z" id="Fill-2336" fill="#AA3032"></path>
    </g>
</svg>