<?xml version="1.0" encoding="UTF-8"?>
<svg width="97px" height="118px" viewBox="0 0 97 118" version="1.1" xmlns="http://www.w3.org/2000/svg" xmlns:xlink="http://www.w3.org/1999/xlink">
    <!-- Generator: Sketch 57.1 (83088) - https://sketch.com -->
    <title>Fill 32</title>
    <desc>Created with Sketch.</desc>
    <g id="Page-1" stroke="none" stroke-width="1" fill="none" fill-rule="evenodd">
        <g id="Artboard" transform="translate(-22.000000, -5.000000)" fill="#282926">
            <path d="M114.643023,29.7053654 C101.506023,-6.39363455 61.4010225,6.08036545 50.7720225,11.7833654 C36.7220225,19.3223654 33.8620225,26.8723654 32.5330225,34.6853654 C31.8320225,38.8103654 31.1680225,42.1783654 31.7760225,48.4093654 C32.6320225,57.1873654 22.7770225,62.4733654 22.0050225,69.5213654 C21.8370225,71.0493654 25.9250225,73.1043654 28.0520225,72.8773654 C29.0400225,72.6483654 30.7690225,74.5673654 30.2490225,76.7593654 C28.3420225,81.9743654 31.0200225,83.1053654 31.1070225,83.3653654 C31.1930225,83.6243654 31.7760225,84.0013654 31.4100225,84.6223654 C30.2660225,86.5603654 30.9340225,88.5113654 32.4670225,89.1593654 C33.2260225,89.9393654 35.2160225,88.9443654 33.7630225,94.8623654 C31.5590225,101.601365 37.1300225,103.027365 38.1660225,103.417365 C45.8840225,106.082365 50.3540225,102.160365 55.6680225,105.790365 C60.9820225,109.419365 59.3040225,118.247365 64.6120225,121.992365 C81.7930225,124.807365 98.2400225,113.899365 102.330023,96.9753654 C99.5580225,92.0323654 99.7380225,84.9223654 103.237023,79.9963654 C106.737023,75.0713654 126.760023,62.9983654 114.643023,29.7053654 L114.643023,29.7053654 Z" id="Fill-32"></path>
        </g>
    </g>
</svg>