<?xml version="1.0" encoding="UTF-8"?>
<svg width="52px" height="53px" viewBox="0 0 52 53" version="1.1" xmlns="http://www.w3.org/2000/svg" xmlns:xlink="http://www.w3.org/1999/xlink">
    <!-- Generator: Sketch 57.1 (83088) - https://sketch.com -->
    <title>spinner</title>
    <desc>Created with Sketch.</desc>
    <g id="Page-1" stroke="none" stroke-width="1" fill="none" fill-rule="evenodd">
        <g id="Artboard" transform="translate(-50.000000, -13.000000)">
            <g id="spinner" transform="translate(50.000000, 13.000000)">
                <polygon id="white" fill="#FFFFFF" points="40.42 41.647 37.222 44.1 35.998 51.199 27.193 53.033 23.237 47.013 19.325 46.042 13.012 49.511 6.088 43.77 8.328 36.923 6.649 33.259 -7.10542736e-15 30.487 0.172 21.494 6.921 18.977 8.739 15.379 6.761 8.452 13.898 2.979 20.075 6.687 24.021 5.865 28.204 1.42108547e-14 36.932 2.168 37.885 9.309 40.988 11.881 48.181 11.494 51.929 19.671 46.939 24.868 46.863 28.897 51.65 34.28 47.593 42.308"></polygon>
                <path d="M36.4249775,31.0546346 L36.1929775,31.5156346 C34.6919775,34.3096346 32.0899775,36.3046346 29.0379775,37.0206346 L28.5329775,37.1266346 C27.8689775,37.2476346 27.2029775,37.3066346 26.5409775,37.3066346 C24.0909775,37.3066346 21.7069775,36.4916346 19.7679775,34.9646346 L19.3699775,34.6366346 C16.9799775,32.5506346 15.6139775,29.5706346 15.5939775,26.4356346 L15.6039775,25.9176346 C15.7439775,22.7506346 17.2229775,19.8246346 19.6619775,17.8556346 L20.0719775,17.5396346 C22.6349775,15.6746346 25.8429775,15.0066346 28.9059775,15.6846346 L29.4069775,15.8086346 C32.4639775,16.6496346 34.9879775,18.7426346 36.3659775,21.5586346 L36.5829775,22.0296346 C37.8309775,24.9436346 37.7679775,28.2216346 36.4249775,31.0546346 Z M44.2679775,29.8376346 L44.3879775,23.5756346 L48.8059775,18.9746346 L46.6749775,14.3256346 L40.3049775,14.6686346 L35.4829775,10.6706346 L34.6409775,4.34763455 L29.6779775,3.11463455 L25.9749775,8.30863455 L19.8429775,9.58663455 L14.3739775,6.30263455 L10.3159775,9.41363455 L12.0669775,15.5476346 L9.24297745,21.1376346 L3.26597745,23.3666346 L3.16797745,28.4796346 L9.05597745,30.9346346 L11.6659775,36.6286346 L9.68197745,42.6916346 L13.6179775,45.9546346 L19.2079775,42.8816346 L25.2869775,44.3916346 L28.7899775,49.7236346 L33.7949775,48.6806346 L34.8789775,42.3946346 L39.8489775,38.5836346 L46.2019775,39.1686346 L48.5079775,34.6046346 L44.2679775,29.8376346 L44.2679775,29.8376346 Z" id="Fill-31" fill="#282926"></path>
            </g>
        </g>
    </g>
</svg>