<?xml version="1.0" encoding="UTF-8"?>
<svg width="85px" height="170px" viewBox="0 0 85 170" version="1.1" xmlns="http://www.w3.org/2000/svg" xmlns:xlink="http://www.w3.org/1999/xlink">
    <!-- Generator: Sketch 56.3 (81716) - https://sketch.com -->
    <title>bedroom</title>
    <desc>Created with Sketch.</desc>
    <g id="bedroom" stroke="none" stroke-width="1" fill="none" fill-rule="evenodd">
        <g id="Bedroom" transform="translate(-13.000000, -5.000000)">
            <polygon id="Fill-17" fill="#56CEE6" points="0 177 114 177 114 0 0 0"></polygon>
            <g id="bookshelf" transform="translate(1.000000, 22.000000)">
                <polygon id="Fill-20" fill="#FF5D60" points="19 29 24 29 24 14 19 14"></polygon>
                <polygon id="Fill-21" fill="#DF5857" points="23 29 28 29 28 14 23 14"></polygon>
                <polygon id="Fill-22" fill="#FFCF2B" points="28 29 33 29 33 14 28 14"></polygon>
                <polygon id="Fill-23" fill="#FFB602" points="33 29 38 29 38 14 33 14"></polygon>
                <polygon id="Fill-25" fill="#6CAB36" points="9 58 14 58 14 43 9 43"></polygon>
                <polygon id="Fill-26" fill="#008BB3" points="14 58 19 58 19 43 14 43"></polygon>
                <polygon id="Fill-27" fill="#007B9A" points="19 58 24 58 24 43 19 43"></polygon>
                <polyline id="Fill-28" fill="#FFFFFF" points="33 55.9217824 28.5008418 58 23 44.0789761 27.4991582 42 33 55.9217824"></polyline>
                <path d="M4.79192334,57.4984344 L38.2094456,57.4984344 L38.2094456,34.0727679 L4.79192334,34.0727679 L4.79192334,57.4984344 Z M4.79192334,28.9264462 L38.2094456,28.9264462 L38.2094456,5.50156564 L4.79192334,5.50156564 L4.79192334,28.9264462 Z M43,63 L43,0 L0,0 L0,63 L4.79192334,63 L43,63 Z" id="Fill-29" fill="#E9E8E7"></path>
            </g>
            <g id="bed" transform="translate(46.000000, 126.000000)">
                <path d="M30.9996616,0 C13.8789202,0 0,5.67095134 0,12.667175 L0,22 L62,22 L62,12.667175 C62,5.67095134 48.120403,0 30.9996616,0" id="Fill-78" fill="#DDDCDC"></path>
                <polygon id="Fill-79" fill="#DDDCDC" points="0 43 62 43 62 28 0 28"></polygon>
                <polygon id="Fill-80" fill="#FFFFFF" points="0 28 62 28 62 22 0 22"></polygon>
                <polygon id="Fill-81" fill="#56CEE6" points="33 22 56 22 56 16 33 16"></polygon>
                <polygon id="Fill-82" fill="#56CEE6" points="5 22 28 22 28 16 5 16"></polygon>
                <polygon id="Fill-83" fill="#DDDCDC" points="0 51 5 51 5 43 0 43"></polygon>
                <path d="M35,7.5 C35,9.98592795 33.2097137,12 31,12 C28.7909296,12 27,9.98592795 27,7.5 C27,5.01479575 28.7909296,3 31,3 C33.2097137,3 35,5.01479575 35,7.5" id="Fill-85" fill="#FFFFFF"></path>
            </g>
            <polygon id="Fill-108" fill="#636969" points="15 136 24 136 24 134 15 134"></polygon>
            <polyline id="Fill-109" fill="#5F625F" points="32.1171683 125 32.1171683 153.85059 24 153.85059 24 159.382975 32.1276106 159.382975 32.1276106 177 37 177 37 125 32.1171683 125"></polyline>
            <polygon id="Fill-110" fill="#C7C5C4" points="0 176 24 176 24 136 0 136"></polygon>
        </g>
    </g>
</svg>