<?xml version="1.0" encoding="UTF-8"?>
<svg width="98px" height="118px" viewBox="0 0 98 118" version="1.1" xmlns="http://www.w3.org/2000/svg" xmlns:xlink="http://www.w3.org/1999/xlink">
    <!-- Generator: Sketch 57.1 (83088) - https://sketch.com -->
    <title>brainThreeGears</title>
    <desc>Created with Sketch.</desc>
    <g id="Page-1" stroke="none" stroke-width="1" fill="white" fill-rule="evenodd">
        <g id="vectorstock_12345433" transform="translate(-201.000000, -30.000000)" fill="white">
            <g id="brainThreeGears" transform="translate(201.763278, 30.735416)">
                <path d="M81.3557222,70.2585841 C80.2227222,71.3955841 79.3287222,72.2925841 78.7427222,73.1185841 C75.2027222,78.0995841 74.7057222,85.2235841 77.4557222,90.6825841 C73.5197222,105.625584 58.7577222,115.357584 43.4597222,113.054584 C41.5917222,111.549584 40.8537222,109.005584 40.0737222,106.321584 C39.1297222,103.068584 38.1537222,99.7055841 35.0917222,97.6155841 C31.9097222,95.4415841 28.9177222,95.6585841 26.0237222,95.8685841 C23.5557222,96.0465841 21.0027222,96.2325841 17.8427222,95.1405841 C17.7697222,95.1135841 17.6767222,95.0815841 17.5687222,95.0445841 C15.2427222,94.2435841 13.2707222,92.9505841 14.5807222,88.9425841 L14.6147222,88.8225841 C15.5077222,85.1835841 15.5417222,82.7245841 12.9507222,81.7135841 C12.9177222,81.7005841 12.8837222,81.6885841 12.8507222,81.6755841 L12.7097222,81.5295841 L12.4017222,81.3995841 C12.0927222,81.2695841 11.9557222,81.0225841 11.8957222,80.8385841 C11.7577222,80.4225841 11.8527222,79.9055841 12.1607222,79.3815841 C12.5347222,78.7485841 12.7947222,77.7465841 11.9137222,76.5685841 C11.7437222,76.2355841 11.5007222,76.0305841 11.3447222,75.8985841 C10.9727222,75.5855841 9.98672223,74.7525841 11.1697222,71.5175841 L11.2257222,71.3305841 C11.7087222,69.2945841 10.8587222,67.5395841 9.90172223,66.5775841 C9.10772223,65.7785841 8.15472223,65.4145841 7.26572223,65.5635841 C6.07972223,65.6505841 3.85072223,64.5545841 3.33072223,63.9065841 C3.69272223,61.4605841 5.49372223,59.0805841 7.39872223,56.5655841 C10.1477222,52.9355841 13.2637222,48.8215841 12.7367222,43.4165841 C12.1997222,37.9235841 12.7327222,34.8075841 13.3497222,31.2005841 L13.4517222,30.6035841 C14.5827222,23.9555841 16.8077222,16.8635841 30.2147222,9.6695841 C35.7087222,6.7215841 54.9447222,-0.334415903 70.7497222,5.6985841 C79.5197222,9.0455841 85.8447222,15.9045841 89.5497222,26.0835841 C99.1347222,52.4215841 87.1277222,64.4695841 81.3557222,70.2585841 Z M92.6557222,24.9525841 C88.6087222,13.8325841 81.6347222,6.3155841 71.9277222,2.6105841 C54.8887222,-3.8944159 34.9117222,3.3985841 28.6527222,6.7575841 C13.9317222,14.6555841 11.4057222,22.9215841 10.1937222,30.0495841 L10.0917222,30.6425841 C9.43472223,34.4845841 8.86672223,37.8025841 9.44672223,43.7375841 C9.84872223,47.8555841 7.37872223,51.1175841 4.76372223,54.5705841 C2.61372223,57.4095841 0.390722233,60.3455841 0.0147222326,63.7815841 C-0.0522777674,64.3875841 0.0777222326,65.3215841 1.07472223,66.3205841 C2.41672223,67.6675841 5.34972223,69.0075841 7.50872223,68.8595841 C7.75572223,69.0755841 8.17372223,69.7155841 8.02672223,70.4915841 C6.80072223,73.9125841 7.13672223,76.5235841 9.02372223,78.2575841 C8.47172223,79.4565841 8.37572223,80.7215841 8.75672223,81.8755841 C9.11072223,82.9465841 9.86872223,83.8255841 10.8587222,84.3255841 C11.1837222,84.5715841 11.5127222,84.7005841 11.7487222,84.7925841 C11.7757222,84.8035841 11.8027222,84.8125841 11.8297222,84.8235841 C11.8757222,85.0885841 11.9217222,85.9105841 11.4197222,87.9765841 C10.4967222,90.8475841 9.96572223,95.9235841 16.4927222,98.1695841 L16.7227222,98.2505841 C20.5657222,99.5775841 23.5917222,99.3575841 26.2617222,99.1645841 C29.0097222,98.9655841 30.9987222,98.8215841 33.2277222,100.344584 C35.3107222,101.766584 36.0817222,104.426584 36.8997222,107.242584 C37.7967222,110.333584 38.8137222,113.836584 41.8427222,115.973584 L42.1537222,116.192584 L42.5287222,116.254584 C44.3447222,116.552584 46.1537222,116.696584 47.9447222,116.696584 C63.2547222,116.696584 77.1247222,106.152584 80.8197222,90.8575841 L80.9717222,90.2275841 L80.6557222,89.6615841 C78.1987222,85.2795841 78.5267222,79.1275841 81.4357222,75.0325841 C81.8637222,74.4315841 82.7137222,73.5785841 83.6977222,72.5925841 C89.9497222,66.3185841 102.959722,53.2665841 92.6557222,24.9525841 L92.6557222,24.9525841 Z" id="Fill-38"></path>
                <path d="M48.0267222,41.3295841 L47.4877222,41.3295841 L46.3767222,39.2325841 L43.4407222,38.4455841 L41.4297222,39.7065841 L40.9627222,39.4375841 L41.0497222,37.0655841 L38.9007222,34.9155841 L36.5287222,35.0025841 L36.2587222,34.5355841 L37.5197222,32.5245841 L36.7337222,29.5895841 L34.6357222,28.4775841 L34.6357222,27.9385841 L36.7337222,26.8275841 L37.5197222,23.8925841 L36.2587222,21.8815841 L36.5287222,21.4145841 L38.9007222,21.5005841 L41.0497222,19.3515841 L40.9627222,16.9795841 L41.4297222,16.7105841 L43.4407222,17.9715841 L46.3767222,17.1845841 L47.4877222,15.0875841 L48.0267222,15.0875841 L49.1377222,17.1845841 L52.0737222,17.9715841 L54.0847222,16.7105841 L54.5507222,16.9795841 L54.4647222,19.3515841 L56.6137222,21.5005841 L58.9857222,21.4145841 L59.2557222,21.8815841 L57.9947222,23.8925841 L58.7807222,26.8275841 L60.8787222,27.9385841 L60.8787222,28.4775841 L58.7807222,29.5895841 L57.9947222,32.5245841 L59.2557222,34.5355841 L58.9857222,35.0025841 L56.6137222,34.9155841 L54.4647222,37.0655841 L54.5507222,39.4375841 L54.0847222,39.7065841 L52.0737222,38.4455841 L49.1377222,39.2325841 L48.0267222,41.3295841 Z M50.7047222,41.1995841 L51.6997222,40.9335841 L54.0347222,42.3985841 L56.9067222,40.7405841 L56.8057222,37.9855841 L57.5337222,37.2575841 L60.2887222,37.3575841 L61.9457222,34.4865841 L60.4817222,32.1515841 L60.7487222,31.1565841 L63.1847222,29.8665841 L63.1847222,26.5515841 L60.7487222,25.2605841 L60.4817222,24.2655841 L61.9457222,21.9305841 L60.2887222,19.0595841 L57.5337222,19.1595841 L56.8057222,18.4315841 L56.9067222,15.6765841 L54.0347222,14.0185841 L51.6997222,15.4835841 L50.7047222,15.2175841 L49.4147222,12.7815841 L46.0997222,12.7815841 L44.8087222,15.2175841 L43.8147222,15.4835841 L41.4787222,14.0185841 L38.6077222,15.6765841 L38.7087222,18.4315841 L37.9797222,19.1595841 L35.2257222,19.0595841 L33.5677222,21.9305841 L35.0317222,24.2655841 L34.7657222,25.2605841 L32.3297222,26.5515841 L32.3297222,29.8665841 L34.7657222,31.1565841 L35.0317222,32.1515841 L33.5677222,34.4865841 L35.2257222,37.3575841 L37.9797222,37.2575841 L38.7087222,37.9855841 L38.6077222,40.7405841 L41.4787222,42.3985841 L43.8147222,40.9335841 L44.8087222,41.1995841 L46.0997222,43.6365841 L49.4147222,43.6365841 L50.7047222,41.1995841 L50.7047222,41.1995841 Z" id="Fill-39"></path>
                <path d="M51.0837222,28.2465841 C51.0777222,28.8035841 50.9297222,29.3535841 50.6577222,29.8375841 L50.6197222,29.9045841 C50.3357222,30.3835841 49.9317222,30.7865841 49.4557222,31.0695841 L49.3867222,31.1085841 C48.9027222,31.3815841 48.3517222,31.5285841 47.7967222,31.5355841 L47.7187222,31.5355841 C47.1627222,31.5285841 46.6117222,31.3815841 46.1287222,31.1095841 L46.0607222,31.0705841 C45.5817222,30.7865841 45.1787222,30.3835841 44.8957222,29.9065841 L44.8567222,29.8395841 C44.5847222,29.3535841 44.4367222,28.8035841 44.4307222,28.2485841 L44.4307222,28.1705841 C44.4367222,27.6145841 44.5847222,27.0635841 44.8557222,26.5795841 L44.8947222,26.5125841 C45.1787222,26.0335841 45.5817222,25.6305841 46.0587222,25.3475841 L46.1267222,25.3085841 C46.6117222,25.0355841 47.1617222,24.8885841 47.7177222,24.8815841 L47.7957222,24.8815841 C48.3517222,24.8885841 48.9027222,25.0355841 49.3857222,25.3075841 L49.4537222,25.3465841 C49.9317222,25.6305841 50.3357222,26.0335841 50.6187222,26.5105841 L50.6567222,26.5785841 C50.9297222,27.0635841 51.0777222,27.6145841 51.0837222,28.1685841 L51.0837222,28.2465841 Z M52.6627222,30.9765841 C53.1297222,30.1525841 53.3807222,29.2135841 53.3897222,28.2555841 L53.3897222,28.1525841 C53.3807222,27.2035841 53.1287222,26.2645841 52.6587222,25.4325841 L52.6067222,25.3435841 C52.1257222,24.5275841 51.4377222,23.8405841 50.6147222,23.3545841 L50.5257222,23.3025841 C49.6987222,22.8365841 48.7597222,22.5845841 47.8037222,22.5755841 L47.7017222,22.5755841 C46.7527222,22.5845841 45.8147222,22.8365841 44.9827222,23.3065841 L44.8927222,23.3585841 C44.0757222,23.8405841 43.3887222,24.5275841 42.9027222,25.3505841 L42.8507222,25.4405841 C42.3847222,26.2665841 42.1337222,27.2045841 42.1247222,28.1615841 L42.1247222,28.2645841 C42.1337222,29.2125841 42.3847222,30.1515841 42.8547222,30.9825841 L42.9057222,31.0735841 C43.3887222,31.8895841 44.0767222,32.5765841 44.9007222,33.0645841 L44.9887222,33.1145841 C45.8147222,33.5805841 46.7537222,33.8325841 47.7107222,33.8415841 L47.8127222,33.8415841 C48.7607222,33.8325841 49.6987222,33.5805841 50.5347222,33.1095841 L50.6217222,33.0585841 C51.4387222,32.5755841 52.1257222,31.8895841 52.6117222,31.0655841 L52.6627222,30.9765841 L52.6627222,30.9765841 Z" id="Fill-40"></path>
                <path d="M78.7747222,35.0295841 L77.8487222,37.8065841 L78.6837222,39.6555841 L78.2407222,40.1115841 L76.3677222,39.3315841 L73.6197222,40.3395841 L72.6947222,42.1445841 L72.0617222,42.0825841 L71.5047222,40.1325841 L69.0037222,38.6125841 L67.0147222,39.0145841 L66.6687222,38.4815841 L67.8447222,36.8285841 L67.4747222,33.9255841 L65.9207222,32.6225841 L66.1217222,32.0185841 L68.1467222,31.9085841 L70.1857222,29.8085841 L70.2357222,27.7805841 L70.8337222,27.5615841 L72.1817222,29.0765841 L75.0947222,29.3615841 L76.7117222,28.1365841 L77.2557222,28.4665841 L76.9117222,30.4655841 L78.5057222,32.9205841 L80.4707222,33.4205841 L80.5517222,34.0515841 L78.7747222,35.0295841 Z M83.0387222,35.3155841 L82.5597222,31.5725841 L79.9477222,30.9085841 L79.3377222,29.9675841 L79.7937222,27.3105841 L76.5687222,25.3505841 L74.4217222,26.9785841 L73.3047222,26.8695841 L71.5117222,24.8565841 L67.9687222,26.1555841 L67.9017222,28.8495841 L67.1217222,29.6545841 L64.4287222,29.8015841 L63.2357222,33.3815841 L65.3007222,35.1135841 L65.4427222,36.2255841 L63.8807222,38.4215841 L65.9347222,41.5865841 L68.5767222,41.0515841 L69.5357222,41.6345841 L70.2767222,44.2255841 L74.0327222,44.5925841 L75.2607222,42.1935841 L76.3147222,41.8075841 L78.8017222,42.8435841 L81.4307222,40.1365841 L80.3217222,37.6795841 L80.6767222,36.6155841 L83.0387222,35.3155841 L83.0387222,35.3155841 Z" id="Fill-41"></path>
                <path d="M74.5987222,36.0365841 L74.5077222,36.1325841 C74.1287222,36.4975841 73.6307222,36.6995841 73.1047222,36.6995841 C73.0607222,36.6995841 73.0157222,36.6975841 72.9767222,36.6955841 L72.8447222,36.6825841 C72.2817222,36.6095841 71.7717222,36.3005841 71.4507222,35.8375841 L71.3787222,35.7265841 C71.0847222,35.2405841 71.0087222,34.6495841 71.1707222,34.1095841 L71.2127222,33.9835841 C71.4087222,33.4505841 71.8237222,33.0235841 72.3457222,32.8125841 L72.4697222,32.7665841 C72.6747222,32.6995841 72.8887222,32.6645841 73.1047222,32.6645841 C73.4517222,32.6645841 73.7957222,32.7555841 74.0927222,32.9235841 L74.2067222,32.9915841 C74.6817222,33.3025841 75.0067222,33.8025841 75.0957222,34.3585841 L75.1127222,34.4895841 C75.1677222,35.0555841 74.9777222,35.6205841 74.5987222,36.0365841 Z M75.4247222,31.0335841 L75.2567222,30.9315841 C74.1817222,30.3155841 72.8907222,30.1895841 71.6967222,30.5945841 L71.5137222,30.6615841 C70.3627222,31.1175841 69.4607222,32.0475841 69.0317222,33.2325841 L68.9697222,33.4185841 C68.6077222,34.6035841 68.7727222,35.8895841 69.4317222,36.9635841 L69.5397222,37.1275841 C70.2397222,38.1485841 71.3477222,38.8215841 72.5997222,38.9755841 L72.7937222,38.9935841 C72.8967222,39.0015841 73.0017222,39.0055841 73.1047222,39.0055841 C74.2427222,39.0055841 75.3177222,38.5665841 76.1457222,37.7555841 L76.2817222,37.6145841 C77.1217222,36.7045841 77.5307222,35.4745841 77.4027222,34.2195841 L77.3787222,34.0255841 C77.1897222,32.8015841 76.4837222,31.7145841 75.4247222,31.0335841 L75.4247222,31.0335841 Z" id="Fill-42"></path>
                <path d="M68.8227222,57.4735841 L68.5397222,58.0085841 L66.6377222,57.6705841 L64.0147222,60.0375841 L64.1557222,61.9635841 L63.5957222,62.1905841 L62.3567222,60.7095841 L58.8267222,60.8375841 L57.6967222,62.4025841 L57.1217222,62.2165841 L57.1237222,60.2855841 L54.3377222,58.1145841 L52.4657222,58.5875841 L52.1447222,58.0745841 L53.3867222,56.5975841 L52.6487222,53.1425841 L50.9107222,52.3015841 L50.9937222,51.7035841 L52.8957222,51.3695841 L54.5507222,48.2485841 L53.7597222,46.4875841 L54.2087222,46.0825841 L55.8797222,47.0495841 L59.1537222,45.7225841 L59.6797222,43.8655841 L60.2837222,43.8435841 L60.9417222,45.6585841 L64.3027222,46.7465841 L65.9007222,45.6615841 L66.3777222,46.0325841 L65.7147222,47.8465841 L67.5907222,50.8405841 L69.5107222,51.0355841 L69.6367222,51.6265841 L67.9647222,52.5905841 L67.4767222,56.0895841 L68.8227222,57.4735841 Z M72.2437222,52.7865841 L71.4167222,48.9115841 L68.9457222,48.6605841 L68.2677222,47.5785841 L69.1197222,45.2465841 L65.9937222,42.8105841 L63.9397222,44.2045841 L62.7257222,43.8115841 L61.8787222,41.4785841 L57.9187222,41.6205841 L57.2427222,44.0095841 L56.0587222,44.4895841 L53.9097222,43.2455841 L50.9677222,45.9005841 L51.9847222,48.1645841 L51.3867222,49.2935841 L48.9417222,49.7215841 L48.3947222,53.6465841 L50.6297222,54.7275841 L50.8957222,55.9765841 L49.2987222,57.8765841 L51.4027222,61.2345841 L53.8077222,60.6265841 L54.8157222,61.4115841 L54.8137222,63.8935841 L58.5837222,65.1145841 L60.0367222,63.1015841 L61.3127222,63.0545841 L62.9067222,64.9585841 L66.5797222,63.4705841 L66.3977222,60.9945841 L67.3457222,60.1385841 L69.7897222,60.5725841 L71.6457222,57.0715841 L69.9167222,55.2905841 L70.0917222,54.0265841 L72.2437222,52.7865841 L72.2437222,52.7865841 Z" id="Fill-43"></path>
                <path d="M62.5907222,54.4525841 L62.5437222,54.5425841 C62.2717222,55.0325841 61.8377222,55.4245841 61.3257222,55.6435841 L61.2307222,55.6815841 C60.7077222,55.8825841 60.1197222,55.9025841 59.5907222,55.7415841 L59.4937222,55.7105841 C58.9637222,55.5275841 58.5027222,55.1685841 58.1977222,54.7025841 L58.1427222,54.6155841 C57.8547222,54.1355841 57.7327222,53.5635841 57.7997222,53.0105841 L57.8127222,52.9085841 C57.9007222,52.3555841 58.1747222,51.8395841 58.5817222,51.4575841 L58.6567222,51.3895841 C59.0807222,51.0225841 59.6227222,50.8025841 60.1777222,50.7715841 L60.3227222,50.7675841 C60.8677222,50.7675841 61.4087222,50.9475841 61.8427222,51.2725841 L61.9237222,51.3355841 C62.3587222,51.6885841 62.6687222,52.1835841 62.7967222,52.7265841 L62.8177222,52.8255841 C62.9237222,53.3765841 62.8427222,53.9555841 62.5907222,54.4525841 Z M65.0457222,52.2195841 C64.8027222,51.1665841 64.2047222,50.2125841 63.3517222,49.5255841 L63.2407222,49.4385841 C62.4047222,48.8085841 61.3697222,48.4615841 60.3027222,48.4615841 L60.3017222,48.4615841 L60.0697222,48.4685841 C58.9907222,48.5245841 57.9467222,48.9475841 57.1227222,49.6675841 L57.0177222,49.7625841 C56.2257222,50.4995841 55.6997222,51.4945841 55.5307222,52.5765841 L55.5107222,52.7175841 C55.3797222,53.7895841 55.6157222,54.8905841 56.1817222,55.8295841 L56.2577222,55.9475841 C56.8447222,56.8545841 57.7337222,57.5465841 58.7687222,57.9005841 L58.9037222,57.9435841 C59.3637222,58.0845841 59.8407222,58.1565841 60.3227222,58.1565841 C60.9227222,58.1565841 61.5107222,58.0465841 62.0837222,57.8245841 L62.2157222,57.7715841 C63.2107222,57.3485841 64.0467222,56.5945841 64.5757222,55.6345841 L64.6407222,55.5105841 C65.1327222,54.5475841 65.2867222,53.4315841 65.0757222,52.3585841 L65.0457222,52.2195841 L65.0457222,52.2195841 Z" id="Fill-44"></path>
            </g>
        </g>
    </g>
</svg>