<?xml version="1.0" encoding="UTF-8"?>
<svg width="98px" height="118px" viewBox="0 0 98 118" version="1.1" xmlns="http://www.w3.org/2000/svg" xmlns:xlink="http://www.w3.org/1999/xlink">
    <!-- Generator: Sketch 57.1 (83088) - https://sketch.com -->
    <title>Group</title>
    <desc>Created with Sketch.</desc>
    <g id="Page-1" stroke="none" stroke-width="1" fill="none" fill-rule="evenodd">
        <g id="vectorstock_12345433" transform="translate(-201.000000, -191.000000)" fill="#282926">
            <g id="Group" transform="translate(201.763035, 191.168736)">
                <path d="M77.700965,57.6922643 L75.138965,56.6092643 L72.805965,57.9182643 L72.387965,60.6742643 L69.206965,61.1922643 L67.938965,58.7122643 L65.311965,58.2112643 L63.224965,60.0532643 L60.454965,58.4002643 L61.074965,55.6842643 L59.382965,53.6072643 L56.602965,53.6732643 L55.540965,50.6222643 L57.757965,48.9402643 L57.793965,46.2602643 L55.621965,44.5192643 L56.763965,41.4982643 L59.540965,41.6382643 L61.286965,39.6072643 L60.738965,36.8742643 L63.551965,35.2962643 L65.589965,37.1922643 L68.228965,36.7622643 L69.560965,34.3162643 L72.728965,34.9192643 L73.073965,37.6852643 L75.371965,39.0562643 L77.960965,38.0402643 L80.000965,40.5432643 L78.490965,42.8842643 L79.372965,45.4152643 L82.006965,46.3062643 L81.963965,49.5382643 L79.306965,50.3582643 L78.358965,52.8642643 L79.805965,55.2442643 L77.700965,57.6922643 Z M51.912965,39.9232643 L51.872965,43.1302643 L49.457965,44.3732643 L46.833965,42.5372643 L44.634965,43.0132643 L42.999965,45.7702643 L40.289965,45.6362643 L38.932965,42.7312643 L36.790965,42.0402643 L33.999965,43.6092643 L31.718965,42.1342643 L31.992965,38.9382643 L30.482965,37.2682643 L27.282965,37.2272643 L26.043965,34.8062643 L27.874965,32.1762643 L27.400965,29.9722643 L24.649965,28.3322643 L24.783965,25.6152643 L27.681965,24.2552643 L28.369965,22.1082643 L26.805965,19.3102643 L28.276965,17.0242643 L31.464965,17.2992643 L33.131965,15.7852643 L33.172965,12.5772643 L35.586965,11.3342643 L38.210965,13.1702643 L40.409965,12.6952643 L42.044965,9.93726434 L44.755965,10.0722643 L46.111965,12.9772643 L48.253965,13.6672643 L51.045965,12.0992643 L53.325965,13.5732643 L53.050965,16.7692643 L54.561965,18.4402643 L57.760965,18.4812643 L59.001965,20.9012643 L57.169965,23.5322643 L57.643965,25.7362643 L60.394965,27.3752643 L60.260965,30.0922643 L57.362965,31.4522643 L56.674965,33.5992643 L58.238965,36.3972643 L56.767965,38.6842643 L53.579965,38.4092643 L51.912965,39.9232643 Z M62.584965,15.5822643 L64.685965,13.2982643 L67.470965,14.3772643 L69.574965,13.5422643 L70.866965,10.8452643 L73.959965,11.0682643 L74.853965,13.9232643 L76.815965,15.0512643 L79.725965,14.3832643 L81.479965,16.9462643 L79.810965,19.4272643 L80.154965,21.6682643 L82.490965,23.5322643 L81.585965,26.5042643 L78.609965,26.7432643 L77.075965,28.4102643 L77.078965,31.4022643 L74.195965,32.5462643 L72.153965,30.3632643 L69.897965,30.2002643 L67.564965,32.0682643 L64.875965,30.5222643 L65.305965,27.5602643 L64.025965,25.6912643 L61.114965,25.0272643 L60.643965,21.9562643 L63.220965,20.4462643 L63.882965,18.2772643 L62.584965,15.5822643 Z M92.642965,24.7062643 C79.505965,-11.3937357 39.400965,1.08026434 28.772965,6.78326434 C14.722965,14.3222643 11.861965,21.8732643 10.533965,29.6852643 C9.83196499,33.8102643 9.16796499,37.1782643 9.77596499,43.4092643 C10.632965,52.1872643 0.776964995,57.4732643 0.0049649946,64.5212643 C-0.162035005,66.0492643 3.92496499,68.1042643 6.05196499,67.8772643 C7.04096499,67.6492643 8.76896499,69.5672643 8.24896499,71.7592643 C6.34196499,76.9752643 9.02096499,78.1052643 9.10696499,78.3652643 C9.19396499,78.6242643 9.77596499,79.0012643 9.40996499,79.6222643 C8.26596499,81.5602643 8.93396499,83.5122643 10.466965,84.1592643 C11.225965,84.9392643 13.215965,83.9442643 11.762965,89.8622643 C9.55996499,96.6022643 15.129965,98.0272643 16.166965,98.4172643 C23.883965,101.082264 28.353965,97.1612643 33.667965,100.790264 C38.982965,104.419264 37.304965,113.247264 42.611965,116.992264 C59.793965,119.808264 75.939965,114.401264 80.029965,97.4772643 C77.257965,92.5332643 77.737965,79.9222643 81.236965,74.9962643 C84.736965,70.0712643 104.759965,57.9982643 92.642965,24.7062643 L92.642965,24.7062643 Z" id="Fill-27"></path>
                <path d="M47.648965,25.1512643 L47.700965,25.2532643 C48.138965,26.1292643 48.348965,27.1022643 48.309965,28.0822643 L48.303965,28.1972643 C48.246965,29.1752643 47.942965,30.1232643 47.420965,30.9532643 L47.358965,31.0492643 C46.819965,31.8682643 46.083965,32.5362643 45.218965,32.9932643 L45.116965,33.0452643 C44.242965,33.4842643 43.271965,33.6942643 42.294965,33.6562643 L42.179965,33.6502643 C41.203965,33.5922643 40.257965,33.2872643 39.430965,32.7642643 L39.334965,32.7022643 C38.518965,32.1632643 37.850965,31.4242643 37.395965,30.5572643 L37.343965,30.4552643 C36.905965,29.5782643 36.695965,28.6042643 36.734965,27.6252643 L36.739965,27.5112643 C36.798965,26.5322643 37.101965,25.5842643 37.623965,24.7552643 L37.685965,24.6592643 C38.223965,23.8402643 38.960965,23.1712643 39.825965,22.7152643 L39.927965,22.6632643 C40.801965,22.2242643 41.773965,22.0132643 42.750965,22.0522643 L42.864965,22.0582643 C43.840965,22.1162643 44.786965,22.4202643 45.613965,22.9432643 L45.709965,23.0062643 C46.526965,23.5452643 47.193965,24.2832643 47.648965,25.1512643" id="Fill-28"></path>
                <path d="M75.020965,19.3752643 L75.139965,19.5502643 C75.794965,20.5562643 75.985965,21.7952643 75.664965,22.9522643 L75.602965,23.1542643 C75.222965,24.2932643 74.373965,25.2152643 73.268965,25.6852643 L73.072965,25.7632643 C71.945965,26.1772643 70.695965,26.0872643 69.638965,25.5172643 L69.455965,25.4122643 C68.429965,24.7892643 67.719965,23.7552643 67.507965,22.5742643 L67.474965,22.3652643 C67.322965,21.1742643 67.687965,19.9752643 68.479965,19.0722643 L68.622965,18.9162643 C69.458965,18.0552643 70.623965,17.5932643 71.822965,17.6482643 L72.033965,17.6642643 C73.228965,17.7802643 74.316965,18.4032643 75.020965,19.3752643" id="Fill-29"></path>
                <path d="M72.344965,44.6232643 L72.443965,44.7452643 C73.115965,45.5932643 73.482965,46.6432643 73.486965,47.7262643 L73.484965,47.8812643 C73.453965,48.9642643 73.059965,50.0042643 72.366965,50.8352643 L72.264965,50.9542643 C71.545965,51.7632643 70.575965,52.3072643 69.509965,52.4982643 L69.355965,52.5232643 C68.285965,52.6812643 67.192965,52.4742643 66.253965,51.9352643 L66.119965,51.8562643 C65.197965,51.2882643 64.493965,50.4272643 64.119965,49.4112643 L64.068965,49.2642643 C63.727965,48.2362643 63.741965,47.1242643 64.108965,46.1062643 L64.163965,45.9602643 C64.562965,44.9542643 65.288965,44.1112643 66.223965,43.5662643 L66.359965,43.4902643 C67.312965,42.9762643 68.410965,42.7972643 69.476965,42.9812643 L69.630965,43.0102643 C70.690965,43.2282643 71.646965,43.7972643 72.344965,44.6232643" id="Fill-30"></path>
            </g>
        </g>
    </g>
</svg>