<?xml version="1.0" encoding="UTF-8"?>
<svg width="85px" height="170px" viewBox="0 0 85 170" version="1.1" xmlns="http://www.w3.org/2000/svg" xmlns:xlink="http://www.w3.org/1999/xlink">
    <!-- Generator: Sketch 56.3 (81716) - https://sketch.com -->
    <title>garage</title>
    <desc>Created with Sketch.</desc>
    <g id="garage" stroke="none" stroke-width="1" fill="none" fill-rule="evenodd">
        <g id="Garage-Copy" transform="translate(-2.000000, -1.000000)">
            <rect id="Rectangle" fill="#6A7172" x="0" y="0" width="131" height="176"></rect>
            <g id="left-cabinet" transform="translate(7.875969, 9.000000)">
                <polygon id="Fill-40" fill="#C7C5C4" points="2.84217094e-14 33.991 58.1876589 33.991 58.1876589 0 2.84217094e-14 0"></polygon>
                <polygon id="Fill-41" fill="#E9E8E7" points="4.56609302 29.355 53.6225504 29.355 53.6225504 4.638 4.56609302 4.638"></polygon>
                <polygon id="Fill-42" fill="#C7C5C4" points="18.9092171 21.525 23.231155 21.525 23.231155 12.467 18.9092171 12.467"></polygon>
                <polygon id="Fill-43" fill="#C7C5C4" points="34.9574884 21.525 39.2784419 21.525 39.2784419 12.467 34.9574884 12.467"></polygon>
                <polygon id="Fill-44" fill="#C7C5C4" points="26.8324419 29.355 31.3552171 29.355 31.3552171 4.638 26.8324419 4.638"></polygon>
            </g>
            <g id="CAR" transform="translate(3.937984, 96.000000)">
                <polyline id="Fill-123" fill="#AB5153" points="12.4873488 14.13 14.6552093 17.768 20.2422248 17.768 20.2422248 21.406 5.19223256 21.406 1.42108547e-14 17.768 1.42108547e-14 14.13 12.4873488 14.13"></polyline>
                <polygon id="Fill-124" fill="#4D4845" points="6.89541085 78.471 23.3364961 78.471 23.3364961 53.012 6.89541085 53.012"></polygon>
                <path d="M107.686155,25.243 L10.5675814,25.243 C5.10362791,25.243 0.674379845,29.743 0.674379845,35.293 C0.674379845,52.78 10.4583023,66.957 27.674186,66.957 L90.5785659,66.957 C107.795434,66.957 117.579357,52.78 117.579357,35.293 C117.579357,29.743 113.150109,25.243 107.686155,25.243" id="Fill-126" fill="#FD4F57"></path>
                <path d="M27.5028837,33.127 C30.849186,33.127 33.5614729,35.883 33.5614729,39.282 C33.5614729,42.681 30.849186,45.437 27.5028837,45.437 L22.3707054,45.437 C15.6781008,45.437 10.2515581,39.925 10.2515581,33.127 L27.5028837,33.127" id="Fill-127" fill="#E9E8E7"></path>
                <path d="M19.565876,56.925 C19.565876,59.04 21.2542868,60.756 23.3364961,60.756 C25.4196899,60.756 27.1081008,59.04 27.1081008,56.925 C27.1081008,54.809 25.4196899,53.094 23.3364961,53.094 C21.2542868,53.094 19.565876,54.809 19.565876,56.925" id="Fill-130" fill="#AB5153"></path>
                <polyline id="Fill-131" fill="#5F625F" points="104.078961 25.243 14.1747752 25.243 25.5486589 -2.84217094e-14 92.704093 -2.84217094e-14 104.078961 25.243"></polyline>
                <polyline id="Fill-132" fill="#FD4F57" points="30.1935116 5.154 88.0592403 5.154 95.8594031 25.243 104.078961 25.243 92.704093 -2.84217094e-14 25.5486589 -2.84217094e-14 14.1747752 25.243 22.3943333 25.243 30.1935116 5.154"></polyline>
                <path d="M30.6365349,16.986 C29.6106899,15.944 29.6106899,14.255 30.6365349,13.213 L34.9122016,8.871 C35.9380465,7.829 37.6008605,7.829 38.6267054,8.871 C39.6525504,9.913 39.6525504,11.602 38.6267054,12.644 L34.3510388,16.986 C33.3251938,18.028 31.6623798,18.028 30.6365349,16.986" id="Fill-133" fill="#FFFFFF"></path>
                <path d="M38.344155,21.874 C37.3183101,20.832 37.3183101,19.143 38.344155,18.101 L47.4320388,8.871 C48.4578837,7.829 50.1206977,7.829 51.1465426,8.871 C52.1723876,9.913 52.1723876,11.602 51.1465426,12.644 L42.0586589,21.874 C41.032814,22.916 39.37,22.916 38.344155,21.874" id="Fill-134" fill="#FFFFFF"></path>
                <path d="M82.3107674,53.094 L35.942969,53.094 C33.8597752,53.094 32.1713643,54.809 32.1713643,56.925 C32.1713643,59.04 33.8597752,60.756 35.942969,60.756 L82.3107674,60.756 C84.3929767,60.756 86.0813876,59.04 86.0813876,56.925 C86.0813876,54.809 84.3929767,53.094 82.3107674,53.094" id="Fill-135" fill="#AB5153"></path>
                <polygon id="Fill-136" fill="#E9E8E7" points="49.2001938 55.606 69.0535426 55.606 69.0535426 46.644 49.2001938 46.644"></polygon>
            </g>
        </g>
    </g>
</svg>