<?xml version="1.0" encoding="UTF-8"?>
<svg width="169px" height="172px" viewBox="0 0 169 172" version="1.1" xmlns="http://www.w3.org/2000/svg" xmlns:xlink="http://www.w3.org/1999/xlink">
    <!-- Generator: Sketch 56.3 (81716) - https://sketch.com -->
    <title>Bedroom</title>
    <desc>Created with Sketch.</desc>
    <g id="Page-1" stroke="none" stroke-width="1" fill="none" fill-rule="evenodd">
        <g id="bedroom">
            <g id="Bedroom" transform="translate(-0.344000, -1.609000)">
                <polygon id="Fill-17" fill="#56CEE6" points="8.52651283e-14 173.54 169.437381 173.54 169.437381 0 8.52651283e-14 0"></polygon>
                <polygon id="Fill-20" fill="#FF5D60" points="53.518631 54.367 60.5766667 54.367 60.5766667 34.407 53.518631 34.407"></polygon>
                <polygon id="Fill-21" fill="#DF5857" points="60.5766667 54.367 67.6336905 54.367 67.6336905 34.407 60.5766667 34.407"></polygon>
                <polygon id="Fill-22" fill="#FFCF2B" points="67.6336905 54.367 74.6917262 54.367 74.6917262 34.407 67.6336905 34.407"></polygon>
                <polygon id="Fill-23" fill="#FFB602" points="74.6917262 54.367 81.7497619 54.367 81.7497619 34.407 74.6917262 34.407"></polygon>
                <polygon id="Fill-24" fill="#6EC829" points="32.3455357 90.721 39.4025595 90.721 39.4025595 70.761 32.3455357 70.761"></polygon>
                <polygon id="Fill-25" fill="#6CAB36" points="39.4025595 90.721 46.4605952 90.721 46.4605952 70.761 39.4025595 70.761"></polygon>
                <polygon id="Fill-26" fill="#008BB3" points="46.4605952 90.721 53.518631 90.721 53.518631 70.761 46.4605952 70.761"></polygon>
                <polygon id="Fill-27" fill="#007B9A" points="53.518631 90.721 60.5766667 90.721 60.5766667 70.761 53.518631 70.761"></polygon>
                <polyline id="Fill-28" fill="#FFFFFF" points="75.002381 87.981 68.5120238 90.721 60.5766667 72.367 67.0670238 69.626 75.002381 87.981"></polyline>
                <path d="M32.3455357,90.721 L81.7497619,90.721 L81.7497619,60.915 L32.3455357,60.915 L32.3455357,90.721 Z M32.3455357,54.367 L81.7497619,54.367 L81.7497619,24.562 L32.3455357,24.562 L32.3455357,54.367 Z M32.3455357,97.721 L88.8320833,97.721 L88.8320833,17.562 L25.2611905,17.562 L25.2611905,97.721 L32.3455357,97.721 L32.3455357,97.721 Z" id="Fill-29" fill="#E9E8E7"></path>
                <path d="M123.087083,108.8 C97.4889286,108.8 76.7377976,115.899 76.7377976,124.657 L76.7377976,136.34 L169.437381,136.34 L169.437381,124.657 C169.437381,115.899 148.685238,108.8 123.087083,108.8" id="Fill-78" fill="#DDDCDC"></path>
                <polygon id="Fill-79" fill="#DDDCDC" points="76.7377976 162.731 169.437381 162.731 169.437381 143.834 76.7377976 143.834"></polygon>
                <polygon id="Fill-80" fill="#FFFFFF" points="76.7377976 143.834 169.437381 143.834 169.437381 136.34 76.7377976 136.34"></polygon>
                <polygon id="Fill-81" fill="#56CEE6" points="127.225774 136.34 161.873393 136.34 161.873393 129.272 127.225774 129.272"></polygon>
                <polygon id="Fill-82" fill="#56CEE6" points="84.3007738 136.34 118.949405 136.34 118.949405 129.272 84.3007738 129.272"></polygon>
                <polygon id="Fill-83" fill="#DDDCDC" points="76.7377976 173.54 84.3007738 173.54 84.3007738 162.731 76.7377976 162.731"></polygon>
                <polygon id="Fill-84" fill="#DDDCDC" points="161.873393 173.54 169.437381 173.54 169.437381 162.731 161.873393 162.731"></polygon>
                <path d="M129.379107,119.004 C129.379107,122.439 126.562976,125.222 123.087083,125.222 C119.612202,125.222 116.79506,122.439 116.79506,119.004 C116.79506,115.57 119.612202,112.786 123.087083,112.786 C126.562976,112.786 129.379107,115.57 129.379107,119.004" id="Fill-85" fill="#FFFFFF"></path>
                <polygon id="Fill-105" fill="#636969" points="8.98470238 113.098 15.9132143 113.098 15.9132143 76.5 8.98470238 76.5"></polygon>
                <polyline id="Fill-106" fill="#5F625F" points="4.99880952 116.69 8.98470238 116.69 8.98470238 90.059 4.99880952 97.307 4.99880952 116.69"></polyline>
                <polygon id="Fill-107" fill="#636969" points="2.84217094e-14 122.291 18.2031548 122.291 18.2031548 116.69 2.84217094e-14 116.69"></polygon>
                <polygon id="Fill-108" fill="#636969" points="22.4227976 122.291 36.4052976 122.291 36.4052976 118.578 22.4227976 118.578"></polygon>
                <polyline id="Fill-109" fill="#5F625F" points="48.2041071 107.614 48.2041071 144.191 36.4052976 144.191 36.4052976 151.205 48.2192857 151.205 48.2192857 173.54 55.3016071 173.54 55.3016071 107.614 48.2041071 107.614"></polyline>
                <polygon id="Fill-110" fill="#C7C5C4" points="2.84217094e-14 173.54 36.4052976 173.54 36.4052976 122.291 2.84217094e-14 122.291"></polygon>
                <polygon id="Fill-111" fill="#636969" points="2.84217094e-14 173.54 17.2388095 173.54 17.2388095 147.915 2.84217094e-14 147.915"></polygon>
            </g>
        </g>
    </g>
</svg>