<?xml version="1.0" encoding="UTF-8"?>
<svg width="125px" height="173px" viewBox="0 0 125 173" version="1.1" xmlns="http://www.w3.org/2000/svg" xmlns:xlink="http://www.w3.org/1999/xlink">
    <!-- Generator: Sketch 56.3 (81716) - https://sketch.com -->
    <title>Kitchen</title>
    <desc>Created with Sketch.</desc>
    <g id="Page-1" stroke="none" stroke-width="1" fill="none" fill-rule="evenodd">
        <g id="kitchen">
            <g id="Kitchen" transform="translate(-0.044000, 0.165000)">
                <polygon id="Fill-16" fill="#98C21F" points="0 173.54 126.067 173.54 126.067 -1.42108547e-14 0 -1.42108547e-14"></polygon>
                <polygon id="Fill-30" fill="#C7C5C4" points="63.033 115.291 86.761 115.291 86.761 105.504 63.033 105.504"></polygon>
                <polygon id="Fill-31" fill="#5F625F" points="86.761 111.447 109.565 111.447 109.565 105.504 86.761 105.504"></polygon>
                <polygon id="Fill-32" fill="#E9E8E7" points="63.033 105.504 86.761 105.504 86.761 99.037 63.033 99.037"></polygon>
                <path d="M74.897,94.424 C72.349,94.424 70.284,96.489 70.284,99.037 L79.51,99.037 C79.51,96.489 77.445,94.424 74.897,94.424" id="Fill-33" fill="#5F625F"></path>
                <polygon id="Fill-34" fill="#C7C5C4" points="49.225 173.54 126.067 173.54 126.067 126.155 49.225 126.155"></polygon>
                <polygon id="Fill-35" fill="#E9E8E7" points="49.225 126.155 126.067 126.155 126.067 115.291 49.225 115.291"></polygon>
                <polygon id="Fill-36" fill="#E9E8E7" points="5.68434189e-14 173.54 49.225 173.54 49.225 54.47 5.68434189e-14 54.47"></polygon>
                <polygon id="Fill-37" fill="#C7C5C4" points="5.68434189e-14 138.983 49.225 138.983 49.225 134.469 5.68434189e-14 134.469"></polygon>
                <polygon id="Fill-38" fill="#C7C5C4" points="4.606 162.29 9.218 162.29 9.218 143.588 4.606 143.588"></polygon>
                <polygon id="Fill-39" fill="#C7C5C4" points="4.606 129.878 9.218 129.878 9.218 111.176 4.606 111.176"></polygon>
                <polyline id="Fill-58" fill="#A9774E" points="96.424 115.291 96.424 144.375 74.627 144.375 74.627 173.54 80.092 173.54 80.092 149.84 96.424 149.84 96.424 173.54 101.889 173.54 101.889 115.291 96.424 115.291"></polyline>
                <polyline id="Fill-59" fill="#A9774E" points="29.643 144.375 29.643 115.291 24.178 115.291 24.178 173.54 29.643 173.54 29.643 149.84 45.975 149.84 45.975 173.54 51.44 173.54 51.44 144.375 29.643 144.375"></polyline>
                <polygon id="Fill-60" fill="#996B45" points="59.322 173.54 66.745 173.54 66.745 138.983 59.322 138.983"></polygon>
                <polyline id="Fill-61" fill="#FFFFFF" points="90.991 136.264 63.033 146.015 35.076 136.264 35.076 121.321 90.991 121.321 90.991 136.264"></polyline>
                <polygon id="Fill-62" fill="#C7C5C4" points="73.698 51.841 102.818 51.841 102.818 -5.68434189e-14 73.698 -5.68434189e-14"></polygon>
                <polygon id="Fill-63" fill="#C7C5C4" points="66.305 71.642 110.211 71.642 110.211 60.258 66.305 60.258"></polygon>
                <polyline id="Fill-64" fill="#D2D1D0" points="66.305 60.258 110.211 60.258 102.818 51.841 73.698 51.841 66.305 60.258"></polyline>
                <path d="M50.878,29.126 C50.878,38.028 43.662,45.244 34.76,45.244 C25.859,45.244 18.642,38.028 18.642,29.126 C18.642,20.225 25.859,13.008 34.76,13.008 C43.662,13.008 50.878,20.225 50.878,29.126" id="Fill-65" fill="#BBDC00"></path>
                <path d="M45.737,29.126 C45.737,35.188 40.822,40.103 34.76,40.103 C28.698,40.103 23.784,35.188 23.784,29.126 C23.784,23.064 28.698,18.15 34.76,18.15 C40.822,18.15 45.737,23.064 45.737,29.126" id="Fill-66" fill="#E9E8E7"></path>
            </g>
        </g>
    </g>
</svg>