<svg width="300" height="300" viewBox="0 0 300 300" fill="none" xmlns="http://www.w3.org/2000/svg">
<rect width="300" height="300" fill="white"/>
<rect width="300" height="300" fill="white"/>
<rect width="300" height="300" fill="white"/>
<rect width="300" height="300" fill="url(#paint0_radial)" fill-opacity="0.2"/>
<g filter="url(#filter0_d)">
<path d="M277.283 207.73C279.803 207.73 282.012 208.175 283.91 209.066C285.809 209.957 287.273 211.234 288.305 212.898C289.336 214.55 289.852 216.449 289.852 218.593C289.852 220.714 289.342 222.607 288.322 224.271C287.303 225.935 285.85 227.224 283.963 228.138C282.064 229.052 279.885 229.515 277.424 229.527L276.158 229.527C273.639 229.527 271.424 229.076 269.514 228.173C267.592 227.259 266.121 225.976 265.102 224.324C264.07 222.66 263.555 220.761 263.555 218.629C263.555 216.496 264.07 214.603 265.102 212.951C266.121 211.287 267.592 210.004 269.514 209.101C271.424 208.187 273.633 207.73 276.141 207.73L277.283 207.73ZM276.123 213.074C273.439 213.074 271.4 213.554 270.006 214.515C268.611 215.476 267.914 216.847 267.914 218.629C267.914 220.398 268.605 221.763 269.988 222.724C271.359 223.685 273.375 224.171 276.035 224.183L277.283 224.183C279.896 224.183 281.924 223.703 283.365 222.742C284.807 221.781 285.527 220.398 285.527 218.593C285.527 216.824 284.836 215.464 283.453 214.515C282.059 213.566 280.031 213.086 277.371 213.074L276.123 213.074ZM280.131 190.463L280.131 194.665L289.5 194.665L289.5 199.938L263.906 199.938L263.906 190.428C263.906 187.405 264.58 185.073 265.928 183.432C267.275 181.792 269.18 180.971 271.641 180.971C273.387 180.971 274.846 181.352 276.018 182.114C277.178 182.864 278.104 184.006 278.795 185.542L289.254 180.004L289.5 180.004L289.5 185.665L280.131 190.463ZM275.859 194.665L275.859 190.411C275.859 189.086 275.525 188.061 274.857 187.335C274.178 186.608 273.246 186.245 272.062 186.245C270.855 186.245 269.906 186.59 269.215 187.282C268.523 187.961 268.178 189.01 268.178 190.428L268.178 194.665L275.859 194.665ZM284.227 158.537L284.227 167.783L289.5 169.541L289.5 175.148L263.906 165.621L263.906 160.734L289.5 151.154L289.5 156.761L284.227 158.537ZM279.955 166.359L279.955 159.96L270.375 163.177L279.955 166.359ZM289.5 123.991L289.5 129.264L272.66 139.53L289.5 139.53L289.5 144.803L263.906 144.803L263.906 139.53L280.781 129.247L263.906 129.247L263.906 123.991L289.5 123.991ZM286.266 95.1752C287.402 96.1244 288.287 97.4662 288.92 99.2006C289.541 100.935 289.852 102.857 289.852 104.966C289.852 107.181 289.371 109.126 288.41 110.802C287.437 112.466 286.031 113.755 284.191 114.669C282.352 115.572 280.189 116.035 277.705 116.058L275.965 116.058C273.41 116.058 271.201 115.63 269.338 114.775C267.463 113.908 266.033 112.665 265.049 111.048C264.053 109.419 263.555 107.515 263.555 105.335C263.555 102.3 264.281 99.9272 265.734 98.2162C267.176 96.5053 269.279 95.4916 272.045 95.1752L272.045 100.308C270.58 100.542 269.508 101.064 268.828 101.872C268.148 102.669 267.809 103.771 267.809 105.177C267.809 106.97 268.482 108.335 269.83 109.273C271.178 110.21 273.182 110.685 275.842 110.697L277.477 110.697C280.16 110.697 282.187 110.187 283.559 109.167C284.93 108.148 285.615 106.654 285.615 104.685C285.615 102.705 285.193 101.292 284.35 100.449L279.937 100.449L279.937 105.247L276.053 105.247L276.053 95.1752L286.266 95.1752ZM278.408 71.5277L278.408 81.6527L285.264 81.6527L285.264 69.7699L289.5 69.7699L289.5 86.9262L263.906 86.9262L263.906 69.8051L268.178 69.8051L268.178 81.6527L274.277 81.6527L274.277 71.5277L278.408 71.5277Z" fill="white"/>
<path d="M288.305 212.898L287.88 213.161L287.881 213.163L288.305 212.898ZM283.963 228.138L284.18 228.589L284.181 228.588L283.963 228.138ZM277.424 229.527L277.424 230.027L277.426 230.027L277.424 229.527ZM269.514 228.173L269.299 228.625L269.3 228.626L269.514 228.173ZM265.102 224.324L265.527 224.061L265.527 224.06L265.102 224.324ZM265.102 212.951L265.526 213.216L265.528 213.212L265.102 212.951ZM269.514 209.101L269.726 209.554L269.729 209.552L269.514 209.101ZM269.988 222.724L270.275 222.315L270.274 222.314L269.988 222.724ZM276.035 224.183L276.033 224.683L276.035 224.683L276.035 224.183ZM283.453 214.515L283.736 214.103L283.734 214.102L283.453 214.515ZM277.371 213.074L277.373 212.574L277.371 212.574L277.371 213.074ZM277.283 208.23C279.744 208.23 281.878 208.665 283.698 209.519L284.123 208.613C282.146 207.686 279.862 207.23 277.283 207.23L277.283 208.23ZM283.698 209.519C285.515 210.371 286.903 211.586 287.88 213.161L288.73 212.635C287.644 210.882 286.102 209.542 284.123 208.613L283.698 209.519ZM287.881 213.163C288.857 214.728 289.352 216.533 289.352 218.593L290.352 218.593C290.352 216.365 289.815 214.373 288.729 212.633L287.881 213.163ZM289.352 218.593C289.352 220.631 288.863 222.431 287.896 224.01L288.749 224.532C289.82 222.783 290.352 220.798 290.352 218.593L289.352 218.593ZM287.896 224.01C286.93 225.586 285.552 226.813 283.745 227.688L284.181 228.588C286.147 227.636 287.675 226.284 288.749 224.532L287.896 224.01ZM283.746 227.688C281.925 228.565 279.82 229.016 277.421 229.027L277.426 230.027C279.949 230.015 282.204 229.54 284.18 228.589L283.746 227.688ZM277.424 229.027L276.158 229.027L276.158 230.027L277.424 230.027L277.424 229.027ZM276.158 229.027C273.698 229.027 271.559 228.587 269.727 227.721L269.3 228.626C271.289 229.565 273.579 230.027 276.158 230.027L276.158 229.027ZM269.728 227.722C267.885 226.845 266.491 225.624 265.527 224.061L264.676 224.586C265.751 226.329 267.299 227.674 269.299 228.625L269.728 227.722ZM265.527 224.06C264.549 222.483 264.055 220.677 264.055 218.629L263.055 218.629C263.055 220.846 263.592 222.837 264.677 224.587L265.527 224.06ZM264.055 218.629C264.055 216.58 264.549 214.781 265.526 213.216L264.677 212.686C263.592 214.425 263.055 216.411 263.055 218.629L264.055 218.629ZM265.528 213.212C266.492 211.639 267.885 210.418 269.726 209.554L269.301 208.649C267.299 209.589 265.75 210.935 264.675 212.69L265.528 213.212ZM269.729 209.552C271.561 208.676 273.694 208.23 276.141 208.23L276.141 207.23C273.572 207.23 271.287 207.698 269.298 208.65L269.729 209.552ZM276.141 208.23L277.283 208.23L277.283 207.23L276.141 207.23L276.141 208.23ZM276.123 212.574C273.393 212.574 271.236 213.06 269.722 214.104L270.29 214.927C271.565 214.048 273.486 213.574 276.123 213.574L276.123 212.574ZM269.722 214.104C268.184 215.163 267.414 216.693 267.414 218.629L268.414 218.629C268.414 217.002 269.039 215.789 270.29 214.927L269.722 214.104ZM267.414 218.629C267.414 220.552 268.178 222.075 269.703 223.135L270.274 222.314C269.033 221.452 268.414 220.244 268.414 218.629L267.414 218.629ZM269.701 223.134C271.192 224.178 273.326 224.671 276.033 224.683L276.037 223.683C273.424 223.672 271.527 223.192 270.275 222.315L269.701 223.134ZM276.035 224.683L277.283 224.683L277.283 223.683L276.035 223.683L276.035 224.683ZM277.283 224.683C279.948 224.683 282.087 224.195 283.643 223.158L283.088 222.326C281.761 223.211 279.845 223.683 277.283 223.683L277.283 224.683ZM283.643 223.158C285.23 222.1 286.027 220.557 286.027 218.593L285.027 218.593C285.027 220.239 284.383 221.462 283.088 222.326L283.643 223.158ZM286.027 218.593C286.027 216.67 285.263 215.151 283.736 214.103L283.17 214.927C284.408 215.777 285.027 216.978 285.027 218.593L286.027 218.593ZM283.734 214.102C282.223 213.073 280.08 212.586 277.373 212.574L277.369 213.574C279.982 213.585 281.895 214.059 283.172 214.929L283.734 214.102ZM277.371 212.574L276.123 212.574L276.123 213.574L277.371 213.574L277.371 212.574ZM280.131 190.463L279.903 190.018L279.631 190.158L279.631 190.463L280.131 190.463ZM280.131 194.665L279.631 194.665L279.631 195.165L280.131 195.165L280.131 194.665ZM289.5 194.665L290 194.665L290 194.165L289.5 194.165L289.5 194.665ZM289.5 199.938L289.5 200.438L290 200.438L290 199.938L289.5 199.938ZM263.906 199.938L263.406 199.938L263.406 200.438L263.906 200.438L263.906 199.938ZM276.018 182.114L275.745 182.533L275.746 182.534L276.018 182.114ZM278.795 185.542L278.339 185.747L278.558 186.233L279.029 185.983L278.795 185.542ZM289.254 180.004L289.254 179.504L289.13 179.504L289.02 179.563L289.254 180.004ZM289.5 180.004L290 180.004L290 179.504L289.5 179.504L289.5 180.004ZM289.5 185.665L289.728 186.11L290 185.97L290 185.665L289.5 185.665ZM275.859 194.665L275.859 195.165L276.359 195.165L276.359 194.665L275.859 194.665ZM274.857 187.335L275.226 186.996L275.223 186.993L274.857 187.335ZM269.215 187.282L269.565 187.638L269.568 187.635L269.215 187.282ZM268.178 194.665L267.678 194.665L267.678 195.165L268.178 195.165L268.178 194.665ZM279.631 190.463L279.631 194.665L280.631 194.665L280.631 190.463L279.631 190.463ZM280.131 195.165L289.5 195.165L289.5 194.165L280.131 194.165L280.131 195.165ZM289 194.665L289 199.938L290 199.938L290 194.665L289 194.665ZM289.5 199.438L263.906 199.438L263.906 200.438L289.5 200.438L289.5 199.438ZM264.406 199.938L264.406 190.428L263.406 190.428L263.406 199.938L264.406 199.938ZM264.406 190.428C264.406 187.472 265.066 185.27 266.314 183.75L265.541 183.115C264.095 184.876 263.406 187.337 263.406 190.428L264.406 190.428ZM266.314 183.75C267.551 182.244 269.303 181.471 271.641 181.471L271.641 180.471C269.057 180.471 267 181.339 265.541 183.115L266.314 183.75ZM271.641 181.471C273.314 181.471 274.672 181.836 275.745 182.533L276.29 181.695C275.019 180.868 273.459 180.471 271.641 180.471L271.641 181.471ZM275.746 182.534C276.809 183.221 277.678 184.28 278.339 185.747L279.251 185.336C278.529 183.733 277.546 182.507 276.289 181.694L275.746 182.534ZM279.029 185.983L289.488 180.446L289.02 179.563L278.561 185.1L279.029 185.983ZM289.254 180.504L289.5 180.504L289.5 179.504L289.254 179.504L289.254 180.504ZM289 180.004L289 185.665L290 185.665L290 180.004L289 180.004ZM289.272 185.22L279.903 190.018L280.359 190.908L289.728 186.11L289.272 185.22ZM276.359 194.665L276.359 190.411L275.359 190.411L275.359 194.665L276.359 194.665ZM276.359 190.411C276.359 189.005 276.004 187.843 275.226 186.996L274.489 187.673C275.047 188.279 275.359 189.168 275.359 190.411L276.359 190.411ZM275.223 186.993C274.43 186.146 273.356 185.745 272.062 185.745L272.062 186.745C273.136 186.745 273.925 187.07 274.492 187.676L275.223 186.993ZM272.062 185.745C270.756 185.745 269.667 186.122 268.861 186.928L269.568 187.635C270.145 187.059 270.955 186.745 272.062 186.745L272.062 185.745ZM268.864 186.925C268.041 187.735 267.678 188.938 267.678 190.428L268.678 190.428C268.678 189.082 269.006 188.188 269.565 187.638L268.864 186.925ZM267.678 190.428L267.678 194.665L268.678 194.665L268.678 190.428L267.678 190.428ZM268.178 195.165L275.859 195.165L275.859 194.165L268.178 194.165L268.178 195.165ZM284.227 158.537L284.067 158.063L283.727 158.177L283.727 158.537L284.227 158.537ZM284.227 167.783L283.727 167.783L283.727 168.143L284.068 168.257L284.227 167.783ZM289.5 169.541L290 169.541L290 169.18L289.658 169.066L289.5 169.541ZM289.5 175.148L289.326 175.617L290 175.868L290 175.148L289.5 175.148ZM263.906 165.621L263.406 165.621L263.406 165.968L263.732 166.089L263.906 165.621ZM263.906 160.734L263.731 160.266L263.406 160.387L263.406 160.734L263.906 160.734ZM289.5 151.154L290 151.154L290 150.433L289.325 150.686L289.5 151.154ZM289.5 156.761L289.66 157.235L290 157.12L290 156.761L289.5 156.761ZM279.955 166.359L279.797 166.833L280.455 167.052L280.455 166.359L279.955 166.359ZM279.955 159.96L280.455 159.96L280.455 159.265L279.796 159.486L279.955 159.96ZM270.375 163.177L270.216 162.703L268.796 163.18L270.217 163.652L270.375 163.177ZM283.727 158.537L283.727 167.783L284.727 167.783L284.727 158.537L283.727 158.537ZM284.068 168.257L289.342 170.015L289.658 169.066L284.385 167.308L284.068 168.257ZM289 169.541L289 175.148L290 175.148L290 169.541L289 169.541ZM289.674 174.679L264.081 165.152L263.732 166.089L289.326 175.617L289.674 174.679ZM264.406 165.621L264.406 160.734L263.406 160.734L263.406 165.621L264.406 165.621ZM264.082 161.202L289.675 151.622L289.325 150.686L263.731 160.266L264.082 161.202ZM289 151.154L289 156.761L290 156.761L290 151.154L289 151.154ZM289.34 156.287L284.067 158.063L284.386 159.011L289.66 157.235L289.34 156.287ZM280.455 166.359L280.455 159.96L279.455 159.96L279.455 166.359L280.455 166.359ZM279.796 159.486L270.216 162.703L270.534 163.651L280.114 160.434L279.796 159.486ZM270.217 163.652L279.797 166.833L280.113 165.884L270.533 162.703L270.217 163.652ZM289.5 123.991L290 123.991L290 123.491L289.5 123.491L289.5 123.991ZM289.5 129.264L289.76 129.691L290 129.545L290 129.264L289.5 129.264ZM272.66 139.53L272.4 139.103L270.879 140.03L272.66 140.03L272.66 139.53ZM289.5 139.53L290 139.53L290 139.03L289.5 139.03L289.5 139.53ZM289.5 144.803L289.5 145.303L290 145.303L290 144.803L289.5 144.803ZM263.906 144.803L263.406 144.803L263.406 145.303L263.906 145.303L263.906 144.803ZM263.906 139.53L263.646 139.103L263.406 139.249L263.406 139.53L263.906 139.53ZM280.781 129.247L281.041 129.674L282.563 128.747L280.781 128.747L280.781 129.247ZM263.906 129.247L263.406 129.247L263.406 129.747L263.906 129.747L263.906 129.247ZM263.906 123.991L263.906 123.491L263.406 123.491L263.406 123.991L263.906 123.991ZM289 123.991L289 129.264L290 129.264L290 123.991L289 123.991ZM289.24 128.837L272.4 139.103L272.92 139.957L289.76 129.691L289.24 128.837ZM272.66 140.03L289.5 140.03L289.5 139.03L272.66 139.03L272.66 140.03ZM289 139.53L289 144.803L290 144.803L290 139.53L289 139.53ZM289.5 144.303L263.906 144.303L263.906 145.303L289.5 145.303L289.5 144.303ZM264.406 144.803L264.406 139.53L263.406 139.53L263.406 144.803L264.406 144.803ZM264.166 139.957L281.041 129.674L280.521 128.82L263.646 139.103L264.166 139.957ZM280.781 128.747L263.906 128.747L263.906 129.747L280.781 129.747L280.781 128.747ZM264.406 129.247L264.406 123.991L263.406 123.991L263.406 129.247L264.406 129.247ZM263.906 124.491L289.5 124.491L289.5 123.491L263.906 123.491L263.906 124.491ZM286.266 95.1752L286.586 94.7914L286.447 94.6752L286.266 94.6752L286.266 95.1752ZM288.92 99.2006L289.391 99.032L289.39 99.0292L288.92 99.2006ZM288.41 110.802L288.842 111.055L288.844 111.051L288.41 110.802ZM284.191 114.669L284.412 115.118L284.414 115.117L284.191 114.669ZM277.705 116.058L277.705 116.558L277.71 116.558L277.705 116.058ZM269.338 114.775L269.128 115.229L269.129 115.229L269.338 114.775ZM265.049 111.048L265.476 110.788L265.475 110.787L265.049 111.048ZM265.734 98.2162L266.115 98.5399L266.117 98.5384L265.734 98.2162ZM272.045 95.1752L272.545 95.1752L272.545 94.6148L271.988 94.6785L272.045 95.1752ZM272.045 100.308L272.124 100.802L272.545 100.734L272.545 100.308L272.045 100.308ZM268.828 101.872L269.209 102.197L269.211 102.194L268.828 101.872ZM275.842 110.697L275.84 111.197L275.842 111.197L275.842 110.697ZM284.35 100.449L284.703 100.095L284.557 99.9487L284.35 99.9487L284.35 100.449ZM279.937 100.449L279.937 99.9487L279.437 99.9487L279.437 100.449L279.937 100.449ZM279.937 105.247L279.937 105.747L280.437 105.747L280.437 105.247L279.937 105.247ZM276.053 105.247L275.553 105.247L275.553 105.747L276.053 105.747L276.053 105.247ZM276.053 95.1752L276.053 94.6752L275.553 94.6752L275.553 95.1752L276.053 95.1752ZM285.945 95.559C287 96.4395 287.84 97.7002 288.45 99.372L289.39 99.0292C288.734 97.2323 287.805 95.8094 286.586 94.7914L285.945 95.559ZM288.449 99.3692C289.048 101.042 289.352 102.906 289.352 104.966L290.352 104.966C290.352 102.808 290.034 100.828 289.391 99.0321L288.449 99.3692ZM289.352 104.966C289.352 107.107 288.888 108.964 287.976 110.553L288.844 111.051C289.854 109.289 290.352 107.255 290.352 104.966L289.352 104.966ZM287.978 110.55C287.058 112.124 285.728 113.348 283.969 114.222L284.414 115.117C286.335 114.163 287.817 112.808 288.842 111.054L287.978 110.55ZM283.971 114.22C282.211 115.084 280.126 115.535 277.7 115.558L277.71 116.558C280.253 116.534 282.492 116.06 284.412 115.118L283.971 114.22ZM277.705 115.558L275.965 115.558L275.965 116.558L277.705 116.558L277.705 115.558ZM275.965 115.558C273.465 115.558 271.33 115.139 269.547 114.32L269.129 115.229C271.072 116.121 273.355 116.558 275.965 116.558L275.965 115.558ZM269.548 114.321C267.754 113.492 266.404 112.313 265.476 110.788L264.622 111.308C265.662 113.018 267.172 114.324 269.128 115.229L269.548 114.321ZM265.475 110.787C264.534 109.248 264.055 107.436 264.055 105.335L263.055 105.335C263.055 107.594 263.572 109.591 264.622 111.309L265.475 110.787ZM264.055 105.335C264.055 102.377 264.762 100.133 266.115 98.5399L265.353 97.8926C263.8 99.7214 263.055 102.224 263.055 105.335L264.055 105.335ZM266.117 98.5384C267.457 96.9475 269.43 95.9776 272.102 95.672L271.988 94.6785C269.128 95.0057 266.895 96.0631 265.352 97.8941L266.117 98.5384ZM271.545 95.1752L271.545 100.308L272.545 100.308L272.545 95.1752L271.545 95.1752ZM271.966 99.8143C270.43 100.06 269.229 100.619 268.445 101.551L269.211 102.194C269.787 101.509 270.73 101.025 272.124 100.802L271.966 99.8143ZM268.448 101.548C267.668 102.462 267.309 103.693 267.309 105.177L268.309 105.177C268.309 103.849 268.629 102.876 269.209 102.197L268.448 101.548ZM267.309 105.177C267.309 107.116 268.049 108.643 269.545 109.683L270.116 108.862C268.916 108.028 268.309 106.824 268.309 105.177L267.309 105.177ZM269.545 109.683C271.013 110.705 273.135 111.185 275.84 111.197L275.844 110.197C273.228 110.185 271.343 109.716 270.116 108.862L269.545 109.683ZM275.842 111.197L277.477 111.197L277.477 110.197L275.842 110.197L275.842 111.197ZM277.477 111.197C280.21 111.197 282.363 110.68 283.857 109.569L283.26 108.766C282.012 109.694 280.11 110.197 277.477 110.197L277.477 111.197ZM283.857 109.569C285.375 108.44 286.115 106.784 286.115 104.685L285.115 104.685C285.115 106.523 284.484 107.856 283.26 108.766L283.857 109.569ZM286.115 104.685C286.115 102.655 285.686 101.078 284.703 100.095L283.996 100.802C284.7 101.507 285.115 102.754 285.115 104.685L286.115 104.685ZM284.35 99.9487L279.937 99.9487L279.937 100.949L284.35 100.949L284.35 99.9487ZM279.437 100.449L279.437 105.247L280.437 105.247L280.437 100.449L279.437 100.449ZM279.937 104.747L276.053 104.747L276.053 105.747L279.937 105.747L279.937 104.747ZM276.553 105.247L276.553 95.1752L275.553 95.1752L275.553 105.247L276.553 105.247ZM276.053 95.6752L286.266 95.6752L286.266 94.6752L276.053 94.6752L276.053 95.6752ZM278.408 71.5277L278.908 71.5277L278.908 71.0277L278.408 71.0277L278.408 71.5277ZM278.408 81.6527L277.908 81.6527L277.908 82.1527L278.408 82.1527L278.408 81.6527ZM285.264 81.6527L285.264 82.1527L285.764 82.1527L285.764 81.6527L285.264 81.6527ZM285.264 69.7699L285.264 69.2699L284.764 69.2699L284.764 69.7699L285.264 69.7699ZM289.5 69.7699L290 69.7699L290 69.2699L289.5 69.2699L289.5 69.7699ZM289.5 86.9262L289.5 87.4262L290 87.4262L290 86.9262L289.5 86.9262ZM263.906 86.9262L263.406 86.9262L263.406 87.4262L263.906 87.4262L263.906 86.9262ZM263.906 69.8051L263.906 69.3051L263.406 69.3051L263.406 69.8051L263.906 69.8051ZM268.178 69.8051L268.678 69.8051L268.678 69.3051L268.178 69.3051L268.178 69.8051ZM268.178 81.6527L267.678 81.6527L267.678 82.1527L268.178 82.1527L268.178 81.6527ZM274.277 81.6527L274.277 82.1527L274.777 82.1527L274.777 81.6527L274.277 81.6527ZM274.277 71.5277L274.277 71.0277L273.777 71.0277L273.777 71.5277L274.277 71.5277ZM277.908 71.5277L277.908 81.6527L278.908 81.6527L278.908 71.5277L277.908 71.5277ZM278.408 82.1527L285.264 82.1527L285.264 81.1527L278.408 81.1527L278.408 82.1527ZM285.764 81.6527L285.764 69.7699L284.764 69.7699L284.764 81.6527L285.764 81.6527ZM285.264 70.2699L289.5 70.2699L289.5 69.2699L285.264 69.2699L285.264 70.2699ZM289 69.7699L289 86.9262L290 86.9262L290 69.7699L289 69.7699ZM289.5 86.4262L263.906 86.4262L263.906 87.4262L289.5 87.4262L289.5 86.4262ZM264.406 86.9262L264.406 69.8051L263.406 69.8051L263.406 86.9262L264.406 86.9262ZM263.906 70.3051L268.178 70.3051L268.178 69.3051L263.906 69.3051L263.906 70.3051ZM267.678 69.8051L267.678 81.6527L268.678 81.6527L268.678 69.8051L267.678 69.8051ZM268.178 82.1527L274.277 82.1527L274.277 81.1527L268.178 81.1527L268.178 82.1527ZM274.777 81.6527L274.777 71.5277L273.777 71.5277L273.777 81.6527L274.777 81.6527ZM274.277 72.0277L278.408 72.0277L278.408 71.0277L274.277 71.0277L274.277 72.0277Z" fill="#D88100"/>
</g>
<path d="M46.6016 274.375H27.8125L24.5312 285H9.88281L30.7422 228.125H43.6328L64.6484 285H49.9219L46.6016 274.375ZM31.0938 263.789H43.3203L37.1875 244.062L31.0938 263.789ZM76.4238 285H71.1504V259.406H76.4238V285ZM94.7627 275.631H90.5616V285H85.2881V259.406H94.7979C97.8213 259.406 100.153 260.08 101.794 261.428C103.435 262.775 104.255 264.68 104.255 267.141C104.255 268.887 103.874 270.346 103.112 271.518C102.362 272.678 101.22 273.604 99.6846 274.295L105.222 284.754V285H99.5616L94.7627 275.631ZM90.5616 271.359H94.8155C96.1397 271.359 97.1651 271.025 97.8916 270.357C98.6182 269.678 98.9815 268.746 98.9815 267.562C98.9815 266.355 98.6358 265.406 97.9444 264.715C97.2647 264.023 96.2159 263.678 94.7979 263.678H90.5616V271.359ZM117.514 275.982V285H112.24V259.406H122.225C124.147 259.406 125.834 259.758 127.287 260.461C128.752 261.164 129.877 262.166 130.662 263.467C131.447 264.756 131.84 266.227 131.84 267.879C131.84 270.387 130.979 272.367 129.256 273.82C127.545 275.262 125.172 275.982 122.137 275.982H117.514ZM117.514 271.711H122.225C123.619 271.711 124.68 271.383 125.406 270.727C126.145 270.07 126.514 269.133 126.514 267.914C126.514 266.66 126.145 265.646 125.406 264.873C124.668 264.1 123.649 263.701 122.348 263.678H117.514V271.711ZM144.712 280.764H155.909V285H139.439V259.406H144.712V280.764ZM177.711 279.727H168.465L166.707 285H161.1L170.627 259.406H175.514L185.094 285H179.486L177.711 279.727ZM169.889 275.455H176.287L173.07 265.875L169.889 275.455ZM212.257 285H206.984L196.718 268.16V285H191.445V259.406H196.718L207.001 276.281V259.406H212.257V285ZM236.221 273.908H226.096V280.764H237.979V285H220.822V259.406H237.944V263.678H226.096V269.777H236.221V273.908Z" fill="black"/>
<path d="M71.6515 20.126H67.2657V32H66.1847V20.126H61.8077V19.2031H71.6515V20.126ZM80.487 26.6738H76.7692V32H75.6793V19.2031H79.8366C81.2018 19.2031 82.2682 19.5342 83.0358 20.1963C83.8034 20.8584 84.1871 21.7842 84.1871 22.9736C84.1871 23.7939 83.9469 24.5176 83.4664 25.1445C82.986 25.7715 82.3414 26.2051 81.5329 26.4453L84.7321 31.8857V32H83.5807L80.487 26.6738ZM76.7692 25.751H80.0827C80.9909 25.751 81.7204 25.4932 82.2711 24.9775C82.8219 24.4619 83.0973 23.7939 83.0973 22.9736C83.0973 22.0713 82.8102 21.3711 82.236 20.873C81.6618 20.375 80.8561 20.126 79.819 20.126H76.7692V25.751ZM96.0197 28.4141H90.2101L88.8918 32H87.758L92.6007 19.2031H93.6291L98.4718 32H97.3468L96.0197 28.4141ZM90.5441 27.4912H95.6769L93.1105 20.5215L90.5441 27.4912ZM111.869 32H110.788L103.431 21.0488V32H102.341V19.2031H103.431L110.797 30.1631V19.2031H111.869V32ZM124.343 28.8535C124.343 28.1445 124.094 27.585 123.596 27.1748C123.098 26.7588 122.187 26.3662 120.862 25.9971C119.538 25.6221 118.571 25.2148 117.962 24.7754C117.095 24.1543 116.661 23.3398 116.661 22.332C116.661 21.3535 117.063 20.5596 117.865 19.9502C118.674 19.335 119.705 19.0273 120.959 19.0273C121.809 19.0273 122.568 19.1914 123.236 19.5195C123.909 19.8477 124.431 20.3047 124.8 20.8906C125.169 21.4766 125.354 22.1299 125.354 22.8506H124.264C124.264 21.9775 123.965 21.2773 123.367 20.75C122.77 20.2168 121.967 19.9502 120.959 19.9502C119.981 19.9502 119.201 20.1699 118.621 20.6094C118.041 21.043 117.751 21.6113 117.751 22.3145C117.751 22.9648 118.012 23.4951 118.533 23.9053C119.055 24.3154 119.89 24.6787 121.038 24.9951C122.187 25.3057 123.057 25.6309 123.649 25.9707C124.24 26.3047 124.686 26.7061 124.985 27.1748C125.283 27.6436 125.433 28.1973 125.433 28.8359C125.433 29.8438 125.029 30.6523 124.22 31.2617C123.417 31.8711 122.357 32.1758 121.038 32.1758C120.136 32.1758 119.307 32.0146 118.551 31.6924C117.801 31.3701 117.23 30.9189 116.837 30.3389C116.45 29.7588 116.257 29.0938 116.257 28.3438H117.338C117.338 29.2461 117.675 29.958 118.349 30.4795C119.023 31.001 119.919 31.2617 121.038 31.2617C122.034 31.2617 122.834 31.042 123.438 30.6025C124.041 30.1631 124.343 29.5801 124.343 28.8535ZM130.832 26.7881V32H129.751V19.2031H134.11C135.44 19.2031 136.489 19.543 137.257 20.2227C138.03 20.9023 138.417 21.8369 138.417 23.0264C138.417 24.2275 138.045 25.1562 137.301 25.8125C136.562 26.4629 135.49 26.7881 134.084 26.7881H130.832ZM130.832 25.874H134.11C135.159 25.874 135.959 25.625 136.509 25.127C137.06 24.6289 137.336 23.9346 137.336 23.0439C137.336 22.1592 137.06 21.4561 136.509 20.9346C135.965 20.4072 135.188 20.1377 134.18 20.126H130.832V25.874ZM152.28 26.2959C152.28 27.4736 152.074 28.5078 151.664 29.3984C151.26 30.2891 150.68 30.9746 149.924 31.4551C149.168 31.9355 148.295 32.1758 147.305 32.1758C145.811 32.1758 144.604 31.6426 143.684 30.5762C142.764 29.5039 142.304 28.0596 142.304 26.2432V24.9248C142.304 23.7588 142.509 22.7275 142.919 21.8311C143.335 20.9287 143.921 20.2373 144.677 19.7568C145.433 19.2705 146.303 19.0273 147.287 19.0273C148.272 19.0273 149.139 19.2646 149.889 19.7393C150.645 20.2139 151.228 20.8848 151.638 21.752C152.048 22.6191 152.262 23.624 152.28 24.7666V26.2959ZM151.198 24.9072C151.198 23.3662 150.85 22.1592 150.153 21.2861C149.455 20.4131 148.5 19.9766 147.287 19.9766C146.098 19.9766 145.149 20.416 144.44 21.2949C143.737 22.168 143.385 23.3896 143.385 24.96V26.2959C143.385 27.8135 143.737 29.0176 144.44 29.9082C145.143 30.793 146.098 31.2354 147.305 31.2354C148.53 31.2354 149.485 30.7988 150.17 29.9258C150.856 29.0469 151.198 27.8252 151.198 26.2607V24.9072ZM161.765 26.6738H158.048V32H156.958V19.2031H161.115C162.48 19.2031 163.547 19.5342 164.314 20.1963C165.082 20.8584 165.466 21.7842 165.466 22.9736C165.466 23.7939 165.225 24.5176 164.745 25.1445C164.264 25.7715 163.62 26.2051 162.811 26.4453L166.01 31.8857V32H164.859L161.765 26.6738ZM158.048 25.751H161.361C162.269 25.751 162.999 25.4932 163.55 24.9775C164.1 24.4619 164.376 23.7939 164.376 22.9736C164.376 22.0713 164.089 21.3711 163.514 20.873C162.94 20.375 162.135 20.126 161.097 20.126H158.048V25.751ZM178.37 20.126H173.985V32H172.904V20.126H168.527V19.2031H178.37V20.126ZM188.63 28.4141H182.82L181.502 32H180.368L185.211 19.2031H186.239L191.082 32H189.957L188.63 28.4141ZM183.154 27.4912H188.287L185.721 20.5215L183.154 27.4912ZM202.492 20.126H198.107V32H197.026V20.126H192.649V19.2031H202.492V20.126ZM207.865 32H206.784V19.2031H207.865V32ZM222.783 26.2959C222.783 27.4736 222.577 28.5078 222.167 29.3984C221.763 30.2891 221.183 30.9746 220.427 31.4551C219.671 31.9355 218.798 32.1758 217.808 32.1758C216.314 32.1758 215.107 31.6426 214.187 30.5762C213.267 29.5039 212.807 28.0596 212.807 26.2432V24.9248C212.807 23.7588 213.012 22.7275 213.422 21.8311C213.838 20.9287 214.424 20.2373 215.18 19.7568C215.936 19.2705 216.806 19.0273 217.79 19.0273C218.775 19.0273 219.642 19.2646 220.392 19.7393C221.148 20.2139 221.731 20.8848 222.141 21.752C222.551 22.6191 222.765 23.624 222.783 24.7666V26.2959ZM221.702 24.9072C221.702 23.3662 221.353 22.1592 220.656 21.2861C219.958 20.4131 219.003 19.9766 217.79 19.9766C216.601 19.9766 215.652 20.416 214.943 21.2949C214.24 22.168 213.888 23.3896 213.888 24.96V26.2959C213.888 27.8135 214.24 29.0176 214.943 29.9082C215.646 30.793 216.601 31.2354 217.808 31.2354C219.033 31.2354 219.988 30.7988 220.673 29.9258C221.359 29.0469 221.702 27.8252 221.702 26.2607V24.9072ZM237.015 32H235.933L228.577 21.0488V32H227.487V19.2031H228.577L235.942 30.1631V19.2031H237.015V32Z" fill="black"/>
<path fill-rule="evenodd" clip-rule="evenodd" d="M222.26 158.163L224.042 156.68L216.612 148.216L214.83 149.699L222.26 158.163Z" fill="#B5A692"/>
<path fill-rule="evenodd" clip-rule="evenodd" d="M172.019 169.025L172.932 158.102L171.397 157.865L170.483 168.788L172.019 169.025Z" fill="#B5A692"/>
<path fill-rule="evenodd" clip-rule="evenodd" d="M168.066 174.378C168.618 176.674 170.925 178.086 173.218 177.533C175.51 176.98 176.922 174.67 176.369 172.374C175.817 170.079 173.509 168.666 171.217 169.219C168.924 169.773 167.513 172.083 168.066 174.378Z" fill="#11120F"/>
<path fill-rule="evenodd" clip-rule="evenodd" d="M169.395 174.685C169.71 175.997 171.029 176.805 172.34 176.488C173.65 176.172 174.455 174.852 174.14 173.54C173.824 172.228 172.507 171.422 171.196 171.738C169.885 172.054 169.079 173.373 169.395 174.685Z" fill="#3E3F31"/>
<path fill-rule="evenodd" clip-rule="evenodd" d="M162.538 172.271C163.102 174.613 166.908 174.028 171.48 172.925C176.053 171.821 180.187 170.41 179.096 168.275C177.915 165.963 175.571 164.399 170.999 165.502C166.427 166.606 161.974 169.929 162.538 172.271Z" fill="#C1B5A6"/>
<path fill-rule="evenodd" clip-rule="evenodd" d="M162.538 172.271C163.102 174.613 166.908 174.028 171.48 172.925C176.053 171.821 180.187 170.41 179.096 168.275C177.915 165.963 175.571 164.399 170.999 165.502C166.427 166.606 161.974 169.929 162.538 172.271Z" fill="#EDCA66"/>
<mask id="mask0" mask-type="alpha" maskUnits="userSpaceOnUse" x="162" y="165" width="18" height="10">
<path d="M162.917 172.776C163.514 175.258 167.209 174.719 171.638 173.65C176.068 172.58 180.065 171.177 178.959 168.902C177.762 166.439 175.447 164.742 171.017 165.812C166.588 166.881 162.32 170.295 162.917 172.776Z" fill="white"/>
</mask>
<g mask="url(#mask0)">
<path d="M162.918 172.776C163.516 175.258 167.21 174.72 171.639 173.65C176.069 172.581 180.066 171.178 178.959 168.903C177.762 166.44 175.447 164.742 171.017 165.811C166.588 166.881 162.321 170.294 162.918 172.776Z" fill="#E58800"/>
<path fill-rule="evenodd" clip-rule="evenodd" d="M179.966 167.644C179.966 167.644 169.638 165.331 159.724 172.53C150.59 179.161 158.755 168.009 162.932 165.479C167.11 162.949 179.341 164.054 179.966 167.644Z" fill="#8C3C3A"/>
</g>
<path fill-rule="evenodd" clip-rule="evenodd" d="M163.801 173.521L165.577 158.823L163.295 158.562L161.52 173.261L163.801 173.521Z" fill="#B5A692"/>
<path fill-rule="evenodd" clip-rule="evenodd" d="M237.782 135.569C237.939 136.225 238.707 136.602 239.498 136.411L247.312 134.525C248.102 134.335 248.614 133.649 248.456 132.993C248.298 132.337 247.53 131.96 246.741 132.151L238.926 134.037C238.136 134.227 237.624 134.913 237.782 135.569Z" fill="#534D43"/>
<path fill-rule="evenodd" clip-rule="evenodd" d="M243.183 132.342C243.183 132.342 249.388 143.109 215.45 152.035C181.511 160.961 132.097 171.458 118.427 174.869C104.756 178.281 67.9131 184.65 67.9131 184.65L46.9546 140.49C46.9546 140.49 57.342 135.387 60.5954 136.021C63.8489 136.656 89.3836 163.851 95.8516 163.591C102.319 163.331 135.986 154.974 142.176 150.944C148.366 146.914 159.062 132.781 167.375 130.853C175.687 128.926 204.037 122.965 204.037 122.965C204.037 122.965 219.569 129.034 226.652 128.218C233.735 127.403 240.473 129.504 243.183 132.342Z" fill="#EDCA66"/>
<mask id="mask1" mask-type="alpha" maskUnits="userSpaceOnUse" x="46" y="123" width="198" height="62">
<path d="M216.105 155.585C198.116 160.316 175.499 164.551 156.147 167.999C138.878 171.076 124.209 173.525 117.743 175.139C104.031 178.562 67.0825 184.968 67.0825 184.968L46.1341 140.958C46.1341 140.958 56.5567 135.853 59.8177 136.481C63.0788 137.108 88.64 164.193 95.1253 163.925C101.61 163.655 135.378 155.27 141.59 151.242C147.802 147.213 158.546 133.103 166.884 131.168C175.221 129.233 203.654 123.246 203.654 123.246C203.654 123.246 219.218 129.276 226.321 128.451C233.423 127.628 240.175 129.713 242.889 132.54C242.889 132.54 250.145 146.632 216.105 155.585Z" fill="white"/>
</mask>
<g mask="url(#mask1)">
<path d="M216.106 155.593C198.118 160.323 175.501 164.557 156.149 168.004C138.881 171.079 124.211 173.527 117.745 175.141C104.034 178.563 67.0853 184.967 67.0853 184.967L46.1331 140.949C46.1331 140.949 56.5553 135.844 59.8164 136.472C63.0775 137.1 88.6412 164.191 95.1265 163.923C101.612 163.654 135.378 155.271 141.591 151.242C147.802 147.214 158.545 133.102 166.883 131.168C175.22 129.234 203.652 123.248 203.652 123.248C203.652 123.248 219.218 129.28 226.32 128.456C233.422 127.633 240.175 129.719 242.888 132.546C242.888 132.546 250.146 146.641 216.106 155.593Z" fill="#EFA460"/>
<path fill-rule="evenodd" clip-rule="evenodd" d="M249.252 130.904C249.252 130.904 247.153 131.35 243.481 132.129C239.805 132.895 234.554 133.988 228.252 135.3C221.944 136.583 214.585 138.08 206.7 139.684C198.809 141.274 190.39 142.971 181.971 144.667C177.761 145.514 173.55 146.363 169.406 147.199C167.33 147.607 165.27 148.003 163.229 148.376C161.185 148.735 159.166 149.091 157.181 149.44C153.204 150.117 149.35 150.739 145.697 151.337C145.241 151.412 144.787 151.486 144.337 151.559C144.12 151.596 143.906 151.633 143.692 151.67C143.469 151.71 143.248 151.75 143.028 151.79L142.698 151.849L142.392 151.899C142.188 151.931 141.985 151.964 141.782 151.997C141.369 152.058 140.958 152.118 140.552 152.178C138.919 152.393 137.346 152.57 135.845 152.676C132.846 152.905 130.136 152.907 127.879 152.685C125.62 152.474 123.838 152.007 122.702 151.486C122.55 151.427 122.427 151.355 122.302 151.29C122.239 151.258 122.177 151.226 122.117 151.195C122.063 151.161 122.011 151.125 121.956 151.096C121.727 150.981 121.53 150.899 121.294 150.858C120.859 150.764 120.358 150.773 119.845 150.753C119.345 150.732 118.804 150.709 118.419 150.666C117.983 150.625 117.758 150.604 117.758 150.604L116.036 151.303C116.036 151.303 115.878 151.523 115.708 151.95C115.525 152.382 115.365 153.029 115.427 153.832C115.47 154.224 115.538 154.679 115.717 155.113C115.878 155.569 116.129 156.006 116.454 156.444C116.785 156.856 117.192 157.272 117.674 157.594C117.792 157.679 117.918 157.759 118.044 157.843C118.17 157.916 118.299 157.991 118.43 158.067C118.691 158.217 118.961 158.375 119.239 158.504C121.469 159.632 124.17 160.298 127.111 160.562C130.058 160.823 133.274 160.691 136.67 160.206C138.366 159.956 140.111 159.631 141.885 159.197C142.329 159.086 142.776 158.973 143.227 158.861C143.455 158.799 143.686 158.738 143.916 158.677L144.262 158.585L144.586 158.492C145.456 158.247 146.34 157.998 147.236 157.745C150.782 156.742 154.521 155.675 158.397 154.606C160.338 154.082 162.311 153.549 164.309 153.01C166.31 152.484 168.339 151.97 170.387 151.462C174.489 150.463 178.655 149.448 182.821 148.434C186.989 147.419 191.156 146.406 195.258 145.407C199.361 144.412 203.396 143.414 207.317 142.507C215.15 140.671 222.462 138.957 228.729 137.488C235.003 136.047 240.231 134.846 243.89 134.007C247.553 133.181 249.646 132.709 249.646 132.709L249.252 130.904Z" fill="#0C0E0B"/>
<path fill-rule="evenodd" clip-rule="evenodd" d="M91.145 159.629C91.082 159.258 91.0761 159.045 91.0752 159.006L91.0708 158.503L92.5016 157.922L92.8494 158.286C92.8494 158.286 92.9668 158.409 93.1823 158.638C93.3524 158.823 93.6432 159.126 94.0625 159.521C94.7878 160.19 95.9586 161.213 97.7364 162.366C99.0393 163.182 101.29 164.328 104.61 165.15C107.655 165.926 111.045 166.274 114.417 166.158C116.347 166.088 118.227 165.856 119.991 165.472L139.603 160.816L153.927 157.34L168.702 153.67L223.144 140.085L248.596 133.667L249.089 135.608L223.669 142.141L169.342 156.195L154.605 160.011L142.645 163.152L127.005 167.3L120.812 168.914L120.796 168.918C118.815 169.388 116.722 169.688 114.572 169.807C110.937 170.004 107.272 169.657 103.674 168.775C100.677 168.016 97.9321 166.883 95.7446 165.499C94.6773 164.834 93.7934 164.122 93.1219 163.384C92.5125 162.723 92.0062 161.977 91.6565 161.229C91.4074 160.696 91.2347 160.157 91.145 159.629Z" fill="#A8382B"/>
<path fill-rule="evenodd" clip-rule="evenodd" d="M95.1309 163.907C95.1309 163.907 66.7304 153.577 51.5855 163.572C36.4385 173.566 45.2229 158.161 45.2229 158.161C45.2229 158.161 59.8379 151.246 67.0196 154.268C74.2007 157.29 83.1062 156.993 95.1309 163.907Z" fill="#A8382B"/>
<path fill-rule="evenodd" clip-rule="evenodd" d="M95.1309 163.906C95.1309 163.906 53.0472 138.243 41.4304 155.119L46.169 158.92C46.169 158.92 60.9198 149.544 95.1309 163.906Z" fill="#0C0E0B"/>
<path fill-rule="evenodd" clip-rule="evenodd" d="M223.799 123.294C223.799 123.294 213.551 132.93 183.913 140.269C163.706 145.273 155.106 146.081 152.856 145.738C151.274 145.495 160.798 135.839 165.019 134.313C169.24 132.788 207.156 124.523 207.156 124.523L223.799 123.294Z" fill="#2D3D4A"/>
</g>
<path fill-rule="evenodd" clip-rule="evenodd" d="M193.249 127.83C193.249 127.83 193.461 127.922 193.804 128.107C194.145 128.295 194.611 128.579 195.133 128.955C195.394 129.141 195.67 129.35 195.951 129.58C196.233 129.808 196.523 130.056 196.811 130.323C197.103 130.586 197.39 130.871 197.679 131.162C197.963 131.458 198.248 131.761 198.521 132.076C198.797 132.386 199.06 132.708 199.311 133.032C199.565 133.354 199.799 133.684 200.021 134.006C200.24 134.332 200.443 134.655 200.627 134.967C200.809 135.282 200.973 135.587 201.116 135.874C201.402 136.45 201.604 136.962 201.726 137.337C201.854 137.706 201.902 137.938 201.902 137.938L205.071 135.227C205.071 135.227 204.841 135.151 204.482 134.979C204.116 134.813 203.622 134.552 203.072 134.201C202.798 134.025 202.508 133.828 202.212 133.612C201.916 133.394 201.615 133.157 201.311 132.903C201.012 132.646 200.707 132.378 200.411 132.091C200.115 131.806 199.82 131.511 199.539 131.204C199.254 130.901 198.983 130.586 198.718 130.273C198.461 129.956 198.206 129.643 197.976 129.326C197.742 129.014 197.526 128.702 197.331 128.399C197.132 128.099 196.956 127.805 196.8 127.528C196.485 126.977 196.256 126.489 196.109 126.135C195.964 125.781 195.898 125.564 195.898 125.564L193.249 127.83Z" fill="#EDCA66"/>
<path fill-rule="evenodd" clip-rule="evenodd" d="M174.686 130.679C174.686 130.679 174.772 130.881 174.884 131.234C174.997 131.587 175.139 132.093 175.261 132.702C175.386 133.312 175.494 134.024 175.568 134.789C175.645 135.554 175.682 136.373 175.677 137.194C175.683 137.603 175.666 138.014 175.649 138.419C175.628 138.823 175.592 139.223 175.553 139.609C175.466 140.382 175.338 141.106 175.191 141.728C175.045 142.351 174.882 142.871 174.742 143.237C174.612 143.602 174.507 143.812 174.507 143.812L178.32 143.626C178.32 143.626 178.208 143.427 178.062 143.075C177.908 142.723 177.723 142.22 177.551 141.613C177.378 141.006 177.219 140.296 177.1 139.533C177.044 139.151 176.992 138.757 176.954 138.355C176.919 137.953 176.885 137.545 176.873 137.135C176.835 136.316 176.839 135.496 176.882 134.725C176.923 133.954 177.001 133.233 177.1 132.613C177.195 131.993 177.316 131.474 177.415 131.11C177.511 130.747 177.589 130.538 177.589 130.538L174.686 130.679Z" fill="#EDCA66"/>
<path fill-rule="evenodd" clip-rule="evenodd" d="M203.552 123.709C203.552 123.709 182.99 108.241 175.314 106.335C168.096 104.545 147.605 109.049 145.78 110.452C143.956 111.855 150.156 121.491 152.582 125.586C155.008 129.681 166.542 129.405 166.542 129.405L203.552 123.709Z" fill="#B04A01"/>
<path fill-rule="evenodd" clip-rule="evenodd" d="M146.312 109.874C146.312 109.874 145.028 110.825 146.231 114.891C147.434 118.956 151.288 109.922 151.288 109.922L146.312 109.874Z" fill="#EED48A"/>
<path fill-rule="evenodd" clip-rule="evenodd" d="M202.293 123.69C202.293 123.69 183.246 109.008 175.399 107.654C167.946 106.367 148.257 111.749 146.427 113.169C144.597 114.589 151.224 125.524 153.673 129.692C156.121 133.861 167.709 133.616 167.709 133.616L202.293 123.69Z" fill="#E2B453"/>
<path fill-rule="evenodd" clip-rule="evenodd" d="M219.495 163.859C220.127 166.482 222.763 168.096 225.384 167.464C228.004 166.832 229.616 164.192 228.985 161.569C228.354 158.945 225.717 157.331 223.097 157.963C220.476 158.595 218.864 161.236 219.495 163.859Z" fill="#11120F"/>
<path fill-rule="evenodd" clip-rule="evenodd" d="M221.868 163.286C222.183 164.598 223.502 165.405 224.812 165.088C226.122 164.772 226.928 163.453 226.613 162.141C226.297 160.829 224.978 160.022 223.669 160.338C222.358 160.654 221.552 161.974 221.868 163.286Z" fill="#3E3F31"/>
<path fill-rule="evenodd" clip-rule="evenodd" d="M215.19 161.615C215.848 164.348 219.933 163.751 224.832 162.569C229.731 161.387 234.152 159.838 232.931 157.334C231.609 154.624 229.053 152.756 224.153 153.938C219.254 155.12 214.532 158.883 215.19 161.615Z" fill="#EDCA66"/>
<mask id="mask2" mask-type="alpha" maskUnits="userSpaceOnUse" x="214" y="153" width="19" height="11">
<path d="M214.218 161.72C214.841 164.311 219.033 163.668 224.069 162.452C229.103 161.236 233.656 159.679 232.452 157.317C231.149 154.76 228.567 153.028 223.532 154.244C218.496 155.46 213.595 159.13 214.218 161.72Z" fill="white"/>
</mask>
<g mask="url(#mask2)">
<path d="M214.219 161.72C214.843 164.311 219.034 163.668 224.07 162.452C229.104 161.237 233.657 159.68 232.452 157.318C231.149 154.76 228.567 153.028 223.532 154.244C218.497 155.459 213.596 159.129 214.219 161.72Z" fill="#E58800"/>
<path fill-rule="evenodd" clip-rule="evenodd" d="M233.619 155.975C233.619 155.975 222.125 153.257 211.709 162.482C202.24 170.869 209.609 156.809 214.389 154.067C219.171 151.324 232.988 152.224 233.619 155.975Z" fill="#8C3C3A"/>
</g>
<path fill-rule="evenodd" clip-rule="evenodd" d="M156.592 184.058C157.381 187.337 160.677 189.355 163.952 188.565C167.228 187.774 169.243 184.474 168.454 181.196C167.665 177.915 164.369 175.898 161.093 176.689C157.818 177.479 155.802 180.778 156.592 184.058Z" fill="#11120F"/>
<path fill-rule="evenodd" clip-rule="evenodd" d="M160.294 183.794C160.688 185.433 162.336 186.442 163.973 186.047C165.611 185.652 166.619 184.001 166.225 182.362C165.83 180.722 164.182 179.714 162.544 180.109C160.906 180.504 159.899 182.153 160.294 183.794Z" fill="#3E3F31"/>
<path fill-rule="evenodd" clip-rule="evenodd" d="M150.994 181.658C151.746 184.781 156.643 184.044 162.522 182.626C168.401 181.207 173.712 179.374 172.283 176.52C170.736 173.432 167.7 171.325 161.821 172.743C155.943 174.162 150.242 178.536 150.994 181.658Z" fill="#EDCA66"/>
<mask id="mask3" mask-type="alpha" maskUnits="userSpaceOnUse" x="151" y="172" width="22" height="12">
<path d="M151.426 181.64C152.14 184.608 156.937 183.873 162.697 182.482C168.459 181.09 173.667 179.309 172.289 176.602C170.797 173.673 167.841 171.688 162.08 173.079C156.32 174.47 150.712 178.673 151.426 181.64Z" fill="white"/>
</mask>
<g mask="url(#mask3)">
<path d="M151.427 181.639C152.142 184.607 156.938 183.873 162.699 182.482C168.46 181.091 173.668 179.31 172.289 176.603C170.797 173.673 167.841 171.688 162.08 173.078C156.32 174.469 150.713 178.672 151.427 181.639Z" fill="#E58800"/>
<path fill-rule="evenodd" clip-rule="evenodd" d="M173.623 175.064C173.623 175.064 161.177 172.576 147.297 181.42C135.051 189.222 146.151 176.011 151.621 172.872C157.09 169.732 172.899 170.768 173.623 175.064Z" fill="#8C3C3A"/>
</g>
<path fill-rule="evenodd" clip-rule="evenodd" d="M96.3121 173.458L86.6727 169.504L56.9286 176.681L67.2435 179.425L96.3121 173.458Z" fill="#FBDD82"/>
<path fill-rule="evenodd" clip-rule="evenodd" d="M96.2454 173.182L96.5985 174.649L93.9234 173.965L94.322 172.685L96.2454 173.182Z" fill="#FBDD82"/>
<path fill-rule="evenodd" clip-rule="evenodd" d="M56.9282 176.678C56.9282 176.678 57.2406 177.433 57.3566 177.743C57.4742 178.053 60.6596 176.538 60.6596 176.538L56.9282 176.678Z" fill="#D9C5AF"/>
<path fill-rule="evenodd" clip-rule="evenodd" d="M96.5981 174.646L87.0094 169.904C87.0094 169.904 62.9311 174.953 58.1402 176.502C58.679 178.896 68.2975 180.299 68.2975 180.299L96.5981 174.646Z" fill="#DBAE4B"/>
<path fill-rule="evenodd" clip-rule="evenodd" d="M249.231 132.807C249.231 132.807 255.286 151.478 253.234 154.463C252.481 154.613 248.428 140.431 246.227 134.158C247.994 133.394 249.231 132.807 249.231 132.807Z" fill="#56391F"/>
<path fill-rule="evenodd" clip-rule="evenodd" d="M248.782 129.144C248.782 129.144 244.305 109.96 241.701 108.231C241.163 108.431 244.906 122.761 246.305 129.28C247.749 129.173 248.782 129.144 248.782 129.144Z" fill="#56391F"/>
<path fill-rule="evenodd" clip-rule="evenodd" d="M243.992 135.307C244.469 137.285 246.447 138.505 248.413 138.03C250.379 137.556 251.586 135.567 251.11 133.589L250.262 130.065C249.786 128.087 247.806 126.867 245.84 127.341C243.874 127.816 242.668 129.804 243.144 131.782L243.992 135.307Z" fill="#D7BFA2"/>
<path fill-rule="evenodd" clip-rule="evenodd" d="M248.313 132.4C248.392 132.728 248.8 132.911 249.225 132.808L251.245 132.321C251.67 132.218 251.95 131.869 251.871 131.541C251.793 131.213 251.384 131.031 250.959 131.133L248.939 131.621C248.514 131.723 248.234 132.072 248.313 132.4Z" fill="#D9C5AF"/>
<mask id="mask4" mask-type="alpha" maskUnits="userSpaceOnUse" x="146" y="107" width="57" height="27">
<path d="M202.165 123.564C202.165 123.564 183.333 109.136 175.568 107.815C168.192 106.559 148.694 111.888 146.881 113.289C145.068 114.69 151.611 125.446 154.029 129.547C156.446 133.648 167.916 133.389 167.916 133.389L202.165 123.564Z" fill="white"/>
</mask>
<g mask="url(#mask4)">
<path d="M202.165 123.567C202.165 123.567 183.331 109.136 175.566 107.813C168.191 106.557 148.693 111.885 146.88 113.286C145.067 114.687 151.611 125.445 154.03 129.546C156.447 133.648 167.917 133.39 167.917 133.39L202.165 123.567Z" fill="#CC5900"/>
<path fill-rule="evenodd" clip-rule="evenodd" d="M146.839 131.853C146.839 131.853 162.527 119.905 194.628 115.936C226.731 111.966 156.716 117.713 141.527 130.392C126.336 143.072 146.839 131.853 146.839 131.853Z" fill="#0C0E0B"/>
<path fill-rule="evenodd" clip-rule="evenodd" d="M185.122 110.475C185.122 110.475 185.706 113.163 174.699 115.255C163.691 117.348 147.995 120.607 147.995 120.607C147.995 120.607 141.442 112.444 147.326 106.084C153.21 99.7246 184.283 106.151 185.122 110.475Z" fill="#A8382B"/>
</g>
<defs>
<filter id="filter0_d" x="262.055" y="68.27" width="31.2969" height="164.757" filterUnits="userSpaceOnUse" color-interpolation-filters="sRGB">
<feFlood flood-opacity="0" result="BackgroundImageFix"/>
<feColorMatrix in="SourceAlpha" type="matrix" values="0 0 0 0 0 0 0 0 0 0 0 0 0 0 0 0 0 0 127 0"/>
<feOffset dx="1" dy="1"/>
<feGaussianBlur stdDeviation="1"/>
<feColorMatrix type="matrix" values="0 0 0 0 0 0 0 0 0 0 0 0 0 0 0 0 0 0 0.15 0"/>
<feBlend mode="normal" in2="BackgroundImageFix" result="effect1_dropShadow"/>
<feBlend mode="normal" in="SourceGraphic" in2="effect1_dropShadow" result="shape"/>
</filter>
<radialGradient id="paint0_radial" cx="0" cy="0" r="1" gradientUnits="userSpaceOnUse" gradientTransform="translate(150 150) rotate(90) scale(150)">
<stop offset="0.369792" stop-color="white" stop-opacity="0"/>
<stop offset="1" stop-color="#FFB800"/>
</radialGradient>
</defs>
</svg>
