<svg width="300" height="300" viewBox="0 0 300 300" fill="none" xmlns="http://www.w3.org/2000/svg">
<rect width="300" height="300" fill="white"/>
<rect width="300" height="300" fill="white"/>
<rect width="300" height="300" fill="white"/>
<rect width="300" height="300" fill="url(#paint0_radial)" fill-opacity="0.11"/>
<g filter="url(#filter0_d)">
<path d="M286.266 192.109C287.402 193.059 288.287 194.4 288.92 196.135C289.541 197.869 289.852 199.791 289.852 201.9C289.852 204.115 289.371 206.061 288.41 207.736C287.437 209.4 286.031 210.69 284.191 211.604C282.352 212.506 280.189 212.969 277.705 212.992L275.965 212.992C273.41 212.992 271.201 212.565 269.338 211.709C267.463 210.842 266.033 209.6 265.049 207.982C264.053 206.354 263.555 204.449 263.555 202.27C263.555 199.234 264.281 196.861 265.734 195.15C267.176 193.44 269.279 192.426 272.045 192.109L272.045 197.242C270.58 197.477 269.508 197.998 268.828 198.807C268.148 199.604 267.809 200.705 267.809 202.111C267.809 203.904 268.482 205.27 269.83 206.207C271.178 207.145 273.182 207.619 275.842 207.631L277.477 207.631C280.16 207.631 282.187 207.121 283.559 206.102C284.93 205.082 285.615 203.588 285.615 201.619C285.615 199.639 285.193 198.227 284.35 197.383L279.937 197.383L279.937 202.182L276.053 202.182L276.053 192.109L286.266 192.109ZM280.131 174.386L280.131 178.587L289.5 178.587L289.5 183.86L263.906 183.86L263.906 174.351C263.906 171.327 264.58 168.995 265.928 167.355C267.275 165.714 269.18 164.894 271.641 164.894C273.387 164.894 274.846 165.274 276.018 166.036C277.178 166.786 278.104 167.929 278.795 169.464L289.254 163.927L289.5 163.927L289.5 169.587L280.131 174.386ZM275.859 178.587L275.859 174.333C275.859 173.009 275.525 171.983 274.857 171.257C274.178 170.53 273.246 170.167 272.062 170.167C270.855 170.167 269.906 170.513 269.215 171.204C268.523 171.884 268.178 172.933 268.178 174.351L268.178 178.587L275.859 178.587ZM278.408 141.51L278.408 151.635L285.264 151.635L285.264 139.752L289.5 139.752L289.5 156.908L263.906 156.908L263.906 139.787L268.178 139.787L268.178 151.635L274.277 151.635L274.277 141.51L278.408 141.51ZM278.408 117.3L278.408 127.425L285.264 127.425L285.264 115.542L289.5 115.542L289.5 132.698L263.906 132.698L263.906 115.577L268.178 115.577L268.178 127.425L274.277 127.425L274.277 117.3L278.408 117.3ZM289.5 87.6757L289.5 92.9491L272.66 103.215L289.5 103.215L289.5 108.488L263.906 108.488L263.906 103.215L280.781 92.9316L263.906 92.9316L263.906 87.6757L289.5 87.6757Z" fill="white"/>
<path d="M286.266 192.109L286.586 191.726L286.447 191.609L286.266 191.609L286.266 192.109ZM288.92 196.135L289.391 195.966L289.39 195.963L288.92 196.135ZM288.41 207.736L288.842 207.989L288.844 207.985L288.41 207.736ZM284.191 211.604L284.412 212.053L284.414 212.051L284.191 211.604ZM277.705 212.992L277.705 213.492L277.71 213.492L277.705 212.992ZM269.338 211.709L269.128 212.163L269.129 212.163L269.338 211.709ZM265.049 207.982L265.476 207.723L265.475 207.722L265.049 207.982ZM265.734 195.15L266.115 195.474L266.117 195.473L265.734 195.15ZM272.045 192.109L272.545 192.109L272.545 191.549L271.988 191.613L272.045 192.109ZM272.045 197.242L272.124 197.736L272.545 197.669L272.545 197.242L272.045 197.242ZM268.828 198.807L269.209 199.131L269.211 199.128L268.828 198.807ZM275.842 207.631L275.84 208.131L275.842 208.131L275.842 207.631ZM284.35 197.383L284.703 197.029L284.557 196.883L284.35 196.883L284.35 197.383ZM279.937 197.383L279.937 196.883L279.437 196.883L279.437 197.383L279.937 197.383ZM279.937 202.182L279.937 202.682L280.437 202.682L280.437 202.182L279.937 202.182ZM276.053 202.182L275.553 202.182L275.553 202.682L276.053 202.682L276.053 202.182ZM276.053 192.109L276.053 191.609L275.553 191.609L275.553 192.109L276.053 192.109ZM285.945 192.493C287 193.374 287.84 194.634 288.45 196.306L289.39 195.963C288.734 194.167 287.805 192.744 286.586 191.726L285.945 192.493ZM288.449 196.303C289.048 197.976 289.352 199.84 289.352 201.9L290.352 201.9C290.352 199.742 290.034 197.762 289.391 195.966L288.449 196.303ZM289.352 201.9C289.352 204.041 288.888 205.898 287.976 207.488L288.844 207.985C289.854 206.223 290.352 204.19 290.352 201.9L289.352 201.9ZM287.978 207.484C287.058 209.058 285.728 210.282 283.969 211.156L284.414 212.051C286.335 211.097 287.817 209.743 288.842 207.989L287.978 207.484ZM283.971 211.155C282.211 212.018 280.126 212.469 277.7 212.492L277.71 213.492C280.253 213.468 282.492 212.994 284.412 212.053L283.971 211.155ZM277.705 212.492L275.965 212.492L275.965 213.492L277.705 213.492L277.705 212.492ZM275.965 212.492C273.465 212.492 271.33 212.074 269.547 211.255L269.129 212.163C271.072 213.055 273.355 213.492 275.965 213.492L275.965 212.492ZM269.548 211.255C267.754 210.426 266.404 209.247 265.476 207.723L264.622 208.242C265.662 209.952 267.172 211.258 269.128 212.163L269.548 211.255ZM265.475 207.722C264.534 206.182 264.055 204.371 264.055 202.27L263.055 202.27C263.055 204.528 263.572 206.525 264.622 208.243L265.475 207.722ZM264.055 202.27C264.055 199.311 264.762 197.067 266.115 195.474L265.353 194.827C263.8 196.656 263.055 199.158 263.055 202.27L264.055 202.27ZM266.117 195.473C267.457 193.882 269.43 192.912 272.102 192.606L271.988 191.613C269.128 191.94 266.895 192.997 265.352 194.828L266.117 195.473ZM271.545 192.109L271.545 197.242L272.545 197.242L272.545 192.109L271.545 192.109ZM271.966 196.749C270.43 196.994 269.229 197.553 268.445 198.485L269.211 199.128C269.787 198.443 270.73 197.959 272.124 197.736L271.966 196.749ZM268.448 198.482C267.668 199.397 267.309 200.627 267.309 202.111L268.309 202.111C268.309 200.783 268.629 199.811 269.209 199.131L268.448 198.482ZM267.309 202.111C267.309 204.05 268.049 205.577 269.545 206.618L270.116 205.797C268.916 204.962 268.309 203.758 268.309 202.111L267.309 202.111ZM269.545 206.618C271.013 207.639 273.135 208.119 275.84 208.131L275.844 207.131C273.228 207.119 271.343 206.65 270.116 205.797L269.545 206.618ZM275.842 208.131L277.477 208.131L277.477 207.131L275.842 207.131L275.842 208.131ZM277.477 208.131C280.21 208.131 282.363 207.614 283.857 206.503L283.26 205.7C282.012 206.628 280.11 207.131 277.477 207.131L277.477 208.131ZM283.857 206.503C285.375 205.374 286.115 203.719 286.115 201.619L285.115 201.619C285.115 203.457 284.484 204.79 283.26 205.7L283.857 206.503ZM286.115 201.619C286.115 199.589 285.686 198.013 284.703 197.029L283.996 197.736C284.7 198.441 285.115 199.688 285.115 201.619L286.115 201.619ZM284.35 196.883L279.937 196.883L279.937 197.883L284.35 197.883L284.35 196.883ZM279.437 197.383L279.437 202.182L280.437 202.182L280.437 197.383L279.437 197.383ZM279.937 201.682L276.053 201.682L276.053 202.682L279.937 202.682L279.937 201.682ZM276.553 202.182L276.553 192.109L275.553 192.109L275.553 202.182L276.553 202.182ZM276.053 192.609L286.266 192.609L286.266 191.609L276.053 191.609L276.053 192.609ZM280.131 174.386L279.903 173.941L279.631 174.08L279.631 174.386L280.131 174.386ZM280.131 178.587L279.631 178.587L279.631 179.087L280.131 179.087L280.131 178.587ZM289.5 178.587L290 178.587L290 178.087L289.5 178.087L289.5 178.587ZM289.5 183.86L289.5 184.36L290 184.36L290 183.86L289.5 183.86ZM263.906 183.86L263.406 183.86L263.406 184.36L263.906 184.36L263.906 183.86ZM276.018 166.036L275.745 166.455L275.746 166.456L276.018 166.036ZM278.795 169.464L278.339 169.669L278.558 170.155L279.029 169.906L278.795 169.464ZM289.254 163.927L289.254 163.427L289.13 163.427L289.02 163.485L289.254 163.927ZM289.5 163.927L290 163.927L290 163.427L289.5 163.427L289.5 163.927ZM289.5 169.587L289.728 170.032L290 169.893L290 169.587L289.5 169.587ZM275.859 178.587L275.859 179.087L276.359 179.087L276.359 178.587L275.859 178.587ZM274.857 171.257L275.226 170.918L275.223 170.915L274.857 171.257ZM269.215 171.204L269.565 171.561L269.568 171.558L269.215 171.204ZM268.178 178.587L267.678 178.587L267.678 179.087L268.178 179.087L268.178 178.587ZM279.631 174.386L279.631 178.587L280.631 178.587L280.631 174.386L279.631 174.386ZM280.131 179.087L289.5 179.087L289.5 178.087L280.131 178.087L280.131 179.087ZM289 178.587L289 183.86L290 183.86L290 178.587L289 178.587ZM289.5 183.36L263.906 183.36L263.906 184.36L289.5 184.36L289.5 183.36ZM264.406 183.86L264.406 174.351L263.406 174.351L263.406 183.86L264.406 183.86ZM264.406 174.351C264.406 171.395 265.066 169.192 266.314 167.672L265.541 167.037C264.095 168.798 263.406 171.26 263.406 174.351L264.406 174.351ZM266.314 167.672C267.551 166.166 269.303 165.394 271.641 165.394L271.641 164.394C269.057 164.394 267 165.262 265.541 167.037L266.314 167.672ZM271.641 165.394C273.314 165.394 274.672 165.758 275.745 166.455L276.29 165.617C275.019 164.791 273.459 164.394 271.641 164.394L271.641 165.394ZM275.746 166.456C276.809 167.143 277.678 168.203 278.339 169.669L279.251 169.259C278.529 167.655 277.546 166.429 276.289 165.616L275.746 166.456ZM279.029 169.906L289.488 164.369L289.02 163.485L278.561 169.022L279.029 169.906ZM289.254 164.427L289.5 164.427L289.5 163.427L289.254 163.427L289.254 164.427ZM289 163.927L289 169.587L290 169.587L290 163.927L289 163.927ZM289.272 169.142L279.903 173.941L280.359 174.831L289.728 170.032L289.272 169.142ZM276.359 178.587L276.359 174.333L275.359 174.333L275.359 178.587L276.359 178.587ZM276.359 174.333C276.359 172.927 276.004 171.765 275.226 170.918L274.489 171.595C275.047 172.202 275.359 173.091 275.359 174.333L276.359 174.333ZM275.223 170.915C274.43 170.069 273.356 169.667 272.062 169.667L272.062 170.667C273.136 170.667 273.925 170.992 274.492 171.598L275.223 170.915ZM272.062 169.667C270.756 169.667 269.667 170.044 268.861 170.851L269.568 171.558C270.145 170.981 270.955 170.667 272.062 170.667L272.062 169.667ZM268.864 170.848C268.041 171.657 267.678 172.861 267.678 174.351L268.678 174.351C268.678 173.005 269.006 172.11 269.565 171.561L268.864 170.848ZM267.678 174.351L267.678 178.587L268.678 178.587L268.678 174.351L267.678 174.351ZM268.178 179.087L275.859 179.087L275.859 178.087L268.178 178.087L268.178 179.087ZM278.408 141.51L278.908 141.51L278.908 141.01L278.408 141.01L278.408 141.51ZM278.408 151.635L277.908 151.635L277.908 152.135L278.408 152.135L278.408 151.635ZM285.264 151.635L285.264 152.135L285.764 152.135L285.764 151.635L285.264 151.635ZM285.264 139.752L285.264 139.252L284.764 139.252L284.764 139.752L285.264 139.752ZM289.5 139.752L290 139.752L290 139.252L289.5 139.252L289.5 139.752ZM289.5 156.908L289.5 157.408L290 157.408L290 156.908L289.5 156.908ZM263.906 156.908L263.406 156.908L263.406 157.408L263.906 157.408L263.906 156.908ZM263.906 139.787L263.906 139.287L263.406 139.287L263.406 139.787L263.906 139.787ZM268.178 139.787L268.678 139.787L268.678 139.287L268.178 139.287L268.178 139.787ZM268.178 151.635L267.678 151.635L267.678 152.135L268.178 152.135L268.178 151.635ZM274.277 151.635L274.277 152.135L274.777 152.135L274.777 151.635L274.277 151.635ZM274.277 141.51L274.277 141.01L273.777 141.01L273.777 141.51L274.277 141.51ZM277.908 141.51L277.908 151.635L278.908 151.635L278.908 141.51L277.908 141.51ZM278.408 152.135L285.264 152.135L285.264 151.135L278.408 151.135L278.408 152.135ZM285.764 151.635L285.764 139.752L284.764 139.752L284.764 151.635L285.764 151.635ZM285.264 140.252L289.5 140.252L289.5 139.252L285.264 139.252L285.264 140.252ZM289 139.752L289 156.908L290 156.908L290 139.752L289 139.752ZM289.5 156.408L263.906 156.408L263.906 157.408L289.5 157.408L289.5 156.408ZM264.406 156.908L264.406 139.787L263.406 139.787L263.406 156.908L264.406 156.908ZM263.906 140.287L268.178 140.287L268.178 139.287L263.906 139.287L263.906 140.287ZM267.678 139.787L267.678 151.635L268.678 151.635L268.678 139.787L267.678 139.787ZM268.178 152.135L274.277 152.135L274.277 151.135L268.178 151.135L268.178 152.135ZM274.777 151.635L274.777 141.51L273.777 141.51L273.777 151.635L274.777 151.635ZM274.277 142.01L278.408 142.01L278.408 141.01L274.277 141.01L274.277 142.01ZM278.408 117.3L278.908 117.3L278.908 116.8L278.408 116.8L278.408 117.3ZM278.408 127.425L277.908 127.425L277.908 127.925L278.408 127.925L278.408 127.425ZM285.264 127.425L285.264 127.925L285.764 127.925L285.764 127.425L285.264 127.425ZM285.264 115.542L285.264 115.042L284.764 115.042L284.764 115.542L285.264 115.542ZM289.5 115.542L290 115.542L290 115.042L289.5 115.042L289.5 115.542ZM289.5 132.698L289.5 133.198L290 133.198L290 132.698L289.5 132.698ZM263.906 132.698L263.406 132.698L263.406 133.198L263.906 133.198L263.906 132.698ZM263.906 115.577L263.906 115.077L263.406 115.077L263.406 115.577L263.906 115.577ZM268.178 115.577L268.678 115.577L268.678 115.077L268.178 115.077L268.178 115.577ZM268.178 127.425L267.678 127.425L267.678 127.925L268.178 127.925L268.178 127.425ZM274.277 127.425L274.277 127.925L274.777 127.925L274.777 127.425L274.277 127.425ZM274.277 117.3L274.277 116.8L273.777 116.8L273.777 117.3L274.277 117.3ZM277.908 117.3L277.908 127.425L278.908 127.425L278.908 117.3L277.908 117.3ZM278.408 127.925L285.264 127.925L285.264 126.925L278.408 126.925L278.408 127.925ZM285.764 127.425L285.764 115.542L284.764 115.542L284.764 127.425L285.764 127.425ZM285.264 116.042L289.5 116.042L289.5 115.042L285.264 115.042L285.264 116.042ZM289 115.542L289 132.698L290 132.698L290 115.542L289 115.542ZM289.5 132.198L263.906 132.198L263.906 133.198L289.5 133.198L289.5 132.198ZM264.406 132.698L264.406 115.577L263.406 115.577L263.406 132.698L264.406 132.698ZM263.906 116.077L268.178 116.077L268.178 115.077L263.906 115.077L263.906 116.077ZM267.678 115.577L267.678 127.425L268.678 127.425L268.678 115.577L267.678 115.577ZM268.178 127.925L274.277 127.925L274.277 126.925L268.178 126.925L268.178 127.925ZM274.777 127.425L274.777 117.3L273.777 117.3L273.777 127.425L274.777 127.425ZM274.277 117.8L278.408 117.8L278.408 116.8L274.277 116.8L274.277 117.8ZM289.5 87.6757L290 87.6757L290 87.1757L289.5 87.1757L289.5 87.6757ZM289.5 92.9491L289.76 93.3761L290 93.2299L290 92.9491L289.5 92.9491ZM272.66 103.215L272.4 102.788L270.879 103.715L272.66 103.715L272.66 103.215ZM289.5 103.215L290 103.215L290 102.715L289.5 102.715L289.5 103.215ZM289.5 108.488L289.5 108.988L290 108.988L290 108.488L289.5 108.488ZM263.906 108.488L263.406 108.488L263.406 108.988L263.906 108.988L263.906 108.488ZM263.906 103.215L263.646 102.788L263.406 102.934L263.406 103.215L263.906 103.215ZM280.781 92.9316L281.041 93.3585L282.563 92.4316L280.781 92.4316L280.781 92.9316ZM263.906 92.9316L263.406 92.9316L263.406 93.4316L263.906 93.4316L263.906 92.9316ZM263.906 87.6757L263.906 87.1757L263.406 87.1757L263.406 87.6757L263.906 87.6757ZM289 87.6757L289 92.9491L290 92.9491L290 87.6757L289 87.6757ZM289.24 92.5222L272.4 102.788L272.92 103.642L289.76 93.3761L289.24 92.5222ZM272.66 103.715L289.5 103.715L289.5 102.715L272.66 102.715L272.66 103.715ZM289 103.215L289 108.488L290 108.488L290 103.215L289 103.215ZM289.5 107.988L263.906 107.988L263.906 108.988L289.5 108.988L289.5 107.988ZM264.406 108.488L264.406 103.215L263.406 103.215L263.406 108.488L264.406 108.488ZM264.166 103.642L281.041 93.3585L280.521 92.5046L263.646 102.788L264.166 103.642ZM280.781 92.4316L263.906 92.4316L263.906 93.4316L280.781 93.4316L280.781 92.4316ZM264.406 92.9316L264.406 87.6757L263.406 87.6757L263.406 92.9316L264.406 92.9316ZM263.906 88.1757L289.5 88.1757L289.5 87.1757L263.906 87.1757L263.906 88.1757Z" fill="#297504"/>
</g>
<path d="M46.6016 274.375H27.8125L24.5312 285H9.88281L30.7422 228.125H43.6328L64.6484 285H49.9219L46.6016 274.375ZM31.0938 263.789H43.3203L37.1875 244.062L31.0938 263.789ZM76.0898 280.764H87.2871V285H70.8164V259.406H76.0898V280.764ZM99.2016 280.764H110.399V285H93.9281V259.406H99.2016V280.764ZM122.647 285H117.374V259.406H122.647V285ZM151.402 281.766C150.452 282.902 149.111 283.787 147.376 284.42C145.642 285.041 143.72 285.352 141.611 285.352C139.396 285.352 137.45 284.871 135.775 283.91C134.111 282.938 132.821 281.531 131.907 279.691C131.005 277.852 130.542 275.689 130.519 273.205V271.465C130.519 268.91 130.946 266.701 131.802 264.838C132.669 262.963 133.911 261.533 135.529 260.549C137.157 259.553 139.062 259.055 141.241 259.055C144.277 259.055 146.65 259.781 148.361 261.234C150.071 262.676 151.085 264.779 151.402 267.545H146.269C146.034 266.08 145.513 265.008 144.704 264.328C143.907 263.648 142.806 263.309 141.4 263.309C139.607 263.309 138.241 263.982 137.304 265.33C136.366 266.678 135.892 268.682 135.88 271.342V272.977C135.88 275.66 136.39 277.688 137.409 279.059C138.429 280.43 139.923 281.115 141.892 281.115C143.872 281.115 145.284 280.693 146.128 279.85V275.438H141.329V271.553H151.402V281.766ZM173.74 279.727H164.494L162.736 285H157.129L166.656 259.406H171.543L181.123 285H175.515L173.74 279.727ZM165.918 275.455H172.316L169.099 265.875L165.918 275.455ZM204.27 263.678H196.43V285H191.156V263.678H183.422V259.406H204.27V263.678ZM231.424 272.783C231.424 275.303 230.979 277.512 230.088 279.41C229.198 281.309 227.92 282.773 226.256 283.805C224.604 284.836 222.705 285.352 220.561 285.352C218.44 285.352 216.547 284.842 214.883 283.822C213.219 282.803 211.93 281.35 211.016 279.463C210.102 277.564 209.639 275.385 209.627 272.924V271.658C209.627 269.139 210.079 266.924 210.981 265.014C211.895 263.092 213.178 261.621 214.83 260.602C216.495 259.57 218.393 259.055 220.526 259.055C222.659 259.055 224.551 259.57 226.204 260.602C227.868 261.621 229.151 263.092 230.053 265.014C230.967 266.924 231.424 269.133 231.424 271.641V272.783ZM226.08 271.623C226.08 268.939 225.6 266.9 224.639 265.506C223.678 264.111 222.307 263.414 220.526 263.414C218.756 263.414 217.391 264.105 216.43 265.488C215.469 266.859 214.983 268.875 214.971 271.535V272.783C214.971 275.396 215.452 277.424 216.413 278.865C217.373 280.307 218.756 281.027 220.561 281.027C222.33 281.027 223.69 280.336 224.639 278.953C225.588 277.559 226.069 275.531 226.08 272.871V271.623ZM248.331 275.631H244.13V285H238.856V259.406H248.366C251.389 259.406 253.721 260.08 255.362 261.428C257.003 262.775 257.823 264.68 257.823 267.141C257.823 268.887 257.442 270.346 256.68 271.518C255.93 272.678 254.788 273.604 253.253 274.295L258.79 284.754V285H253.13L248.331 275.631ZM244.13 271.359H248.384C249.708 271.359 250.733 271.025 251.46 270.357C252.186 269.678 252.55 268.746 252.55 267.562C252.55 266.355 252.204 265.406 251.512 264.715C250.833 264.023 249.784 263.678 248.366 263.678H244.13V271.359Z" fill="black"/>
<path d="M114.599 28.4141H108.789L107.471 32H106.337L111.18 19.2031H112.208L117.051 32H115.926L114.599 28.4141ZM109.123 27.4912H114.256L111.69 20.5215L109.123 27.4912ZM130.448 32H129.367L122.011 21.0488V32H120.921V19.2031H122.011L129.376 30.1631V19.2031H130.448V32ZM136.999 32H135.917V19.2031H136.999V32ZM143.892 19.2031L148.611 30.4971L153.349 19.2031H154.79V32H153.709V26.4277L153.797 20.7148L149.033 32H148.198L143.452 20.7588L143.54 26.3926V32H142.459V19.2031H143.892ZM167.08 28.4141H161.27L159.952 32H158.818L163.661 19.2031H164.689L169.532 32H168.407L167.08 28.4141ZM161.604 27.4912H166.737L164.17 20.5215L161.604 27.4912ZM174.491 31.0859H180.811V32H173.401V19.2031H174.491V31.0859ZM192.116 28.8535C192.116 28.1445 191.867 27.585 191.369 27.1748C190.871 26.7588 189.96 26.3662 188.635 25.9971C187.311 25.6221 186.344 25.2148 185.735 24.7754C184.868 24.1543 184.434 23.3398 184.434 22.332C184.434 21.3535 184.836 20.5596 185.638 19.9502C186.447 19.335 187.478 19.0273 188.732 19.0273C189.582 19.0273 190.34 19.1914 191.008 19.5195C191.682 19.8477 192.204 20.3047 192.573 20.8906C192.942 21.4766 193.127 22.1299 193.127 22.8506H192.037C192.037 21.9775 191.738 21.2773 191.14 20.75C190.543 20.2168 189.74 19.9502 188.732 19.9502C187.753 19.9502 186.974 20.1699 186.394 20.6094C185.814 21.043 185.524 21.6113 185.524 22.3145C185.524 22.9648 185.785 23.4951 186.306 23.9053C186.828 24.3154 187.663 24.6787 188.811 24.9951C189.96 25.3057 190.83 25.6309 191.421 25.9707C192.013 26.3047 192.459 26.7061 192.757 27.1748C193.056 27.6436 193.206 28.1973 193.206 28.8359C193.206 29.8438 192.801 30.6523 191.993 31.2617C191.19 31.8711 190.129 32.1758 188.811 32.1758C187.909 32.1758 187.08 32.0146 186.324 31.6924C185.574 31.3701 185.003 30.9189 184.61 30.3389C184.223 29.7588 184.03 29.0938 184.03 28.3438H185.111C185.111 29.2461 185.448 29.958 186.122 30.4795C186.795 31.001 187.692 31.2617 188.811 31.2617C189.807 31.2617 190.607 31.042 191.211 30.6025C191.814 30.1631 192.116 29.5801 192.116 28.8535Z" fill="black"/>
<path fill-rule="evenodd" clip-rule="evenodd" d="M67.4693 207.541C66.589 209.042 64.8284 209.211 64.1178 209.105C64.0329 209.105 63.9375 209.084 63.8526 209.042C63.7784 209 63.7041 208.936 63.6617 208.862C63.1739 208.344 62.3254 206.8 63.0678 205.235C64.4678 206.028 65.9314 206.8 67.4693 207.541ZM81.5221 212.531C80.9706 214.181 79.2843 214.71 78.5737 214.763C78.4888 214.773 78.3934 214.773 78.2979 214.752C78.2131 214.72 78.1282 214.678 78.0646 214.615C77.4919 214.202 76.3252 212.87 76.7282 211.178C78.2661 211.664 79.8676 212.119 81.5221 212.531ZM68.8268 211.337C68.7314 211.337 68.6465 211.326 68.5511 211.294C68.4662 211.252 68.4026 211.199 68.339 211.125C67.8193 210.639 66.8435 209.169 67.4693 207.541C68.9329 208.228 70.4495 208.894 72.0404 209.518C71.2768 211.083 69.5374 211.379 68.8268 211.337ZM76.7282 211.178C76.0813 212.785 74.3525 213.208 73.6419 213.208C73.5571 213.219 73.4616 213.208 73.3768 213.176C73.2813 213.145 73.2071 213.102 73.154 213.028C72.5919 212.584 71.5313 211.178 72.0404 209.518C73.5464 210.099 75.1055 210.66 76.7282 211.178ZM175.851 109.582C176.01 109.53 176.18 109.498 176.35 109.519C176.53 109.54 176.689 109.593 176.827 109.688C178.047 110.27 180.635 112.363 180.444 115.641C180.433 115.641 180.412 115.641 180.401 115.652C177.495 115.314 174.388 114.996 171.142 114.7C171.132 114.7 171.121 114.7 171.121 114.69C171.588 111.444 174.547 109.91 175.851 109.582ZM88.6069 216.973C88.522 217.004 88.4266 217.004 88.3311 216.994C88.2463 216.983 88.1614 216.941 88.0872 216.888C87.4614 216.539 86.1569 215.344 86.3796 213.61C87.9599 213.917 89.5932 214.202 91.2796 214.445C90.919 216.137 89.3069 216.846 88.6069 216.973ZM86.3796 213.61C85.9236 215.291 84.2585 215.915 83.5585 216C83.4736 216.021 83.3782 216.031 83.2827 216.01C83.1873 215.989 83.113 215.947 83.0494 215.894C82.4448 215.513 81.2145 214.244 81.5221 212.531C83.0812 212.933 84.7039 213.293 86.3796 213.61ZM184.389 110.83C184.516 110.767 184.665 110.735 184.824 110.735C184.983 110.746 185.131 110.788 185.259 110.862C186.372 111.317 188.801 113.04 188.801 115.98C188.78 115.98 188.748 115.99 188.727 116.001C187.327 116.202 185.725 116.244 183.869 116.054C182.777 115.927 181.642 115.789 180.486 115.652C180.465 115.652 180.454 115.641 180.444 115.641C180.677 112.712 183.244 111.19 184.389 110.83ZM51.1892 196.247C49.8528 197.358 48.1452 196.924 47.5089 196.586C47.424 196.554 47.3498 196.512 47.2862 196.438C47.2225 196.374 47.1801 196.29 47.1589 196.205C46.8832 195.55 46.6074 193.815 47.8271 192.589C48.8559 193.826 49.9801 195.042 51.1892 196.247ZM58.8466 202.581C57.7436 203.914 55.983 203.787 55.3043 203.586C55.2088 203.565 55.124 203.533 55.0497 203.48C54.9755 203.417 54.9224 203.343 54.88 203.269C54.4982 202.676 53.9043 201.016 54.88 199.589C56.1209 200.614 57.4467 201.608 58.8466 202.581ZM39.1196 177.489C36.7227 177.997 34.8772 176.326 34.3045 175.501C34.2303 175.406 34.1666 175.3 34.1242 175.173C34.0924 175.046 34.0924 174.92 34.1242 174.793C34.2197 173.799 35.0151 171.441 37.3696 170.732V170.743C37.6984 172.752 38.2499 175.036 39.1196 177.489ZM33.0954 167.75C33.0424 167.645 33 167.528 33 167.391C33 167.264 33.0212 167.137 33.0742 167.021C33.3818 166.069 34.6757 163.954 37.1151 163.764C37.0727 164.79 37.0408 165.836 37.0408 166.915C37.0408 168.015 37.1469 169.294 37.3696 170.722V170.732C34.9091 170.711 33.4773 168.681 33.0954 167.75ZM39.1196 177.489C39.7241 179.202 40.4878 181.01 41.4105 182.85C39.4908 183.569 37.7621 182.417 37.1893 181.814C37.1151 181.74 37.0409 181.655 36.9984 181.56C36.956 181.454 36.9454 181.349 36.9454 181.243C36.903 180.407 37.2636 178.367 39.1196 177.489ZM54.88 199.578C53.6497 200.815 51.8997 200.54 51.2422 200.266C51.1573 200.244 51.0725 200.202 51.0089 200.139C50.9346 200.075 50.8816 200.001 50.8604 199.917C50.521 199.293 50.0755 197.59 51.1892 196.247C52.3346 197.379 53.5649 198.5 54.88 199.578ZM44.3377 187.904C45.3665 189.469 46.5225 191.034 47.8271 192.589C46.1301 193.72 44.1892 193.012 43.4893 192.547C43.3938 192.504 43.309 192.441 43.2453 192.346C43.1817 192.261 43.1393 192.166 43.1181 192.06C42.8847 191.267 42.7574 189.195 44.3377 187.904ZM41.4105 182.85C42.2484 184.51 43.2135 186.202 44.3377 187.904C42.5241 188.846 40.6681 187.915 40.0317 187.376C39.9469 187.323 39.862 187.249 39.809 187.154C39.756 187.059 39.7241 186.953 39.7241 186.847C39.5651 186.022 39.6817 183.95 41.4105 182.85ZM166.412 108.737C166.571 108.673 166.73 108.641 166.91 108.652C167.091 108.673 167.25 108.726 167.388 108.811C168.618 109.371 171.248 111.412 171.121 114.69C171.11 114.7 171.1 114.7 171.089 114.7C168.088 114.425 164.97 114.172 161.777 113.939C161.777 113.928 161.777 113.928 161.777 113.928C162.18 110.672 165.118 109.086 166.412 108.737ZM63.0678 205.225C62.0708 206.652 60.2997 206.684 59.6103 206.525C59.5148 206.515 59.43 206.494 59.3451 206.441C59.2709 206.388 59.2072 206.324 59.1648 206.25C58.73 205.69 57.9982 204.083 58.8572 202.581C60.183 203.491 61.583 204.379 63.0678 205.225ZM47.2544 135.077C45.3347 133.036 45.8862 130.244 46.3635 129.208C46.4165 129.07 46.4801 128.944 46.5862 128.838C46.6922 128.732 46.8195 128.658 46.9574 128.616C47.9862 128.119 50.7755 127.506 52.8649 129.388C52.8543 129.388 52.8543 129.398 52.8543 129.398C50.818 131.132 48.9407 133.015 47.2544 135.077ZM60.533 124.027C57.7754 125.613 55.2088 127.4 52.8649 129.388C51.0831 126.628 52.324 123.53 53.0982 122.43C53.1831 122.293 53.2891 122.155 53.4376 122.06C53.5861 121.954 53.7452 121.901 53.9043 121.87C55.2088 121.521 58.5391 121.425 60.533 124.027ZM156.983 108.039C157.142 107.975 157.301 107.944 157.482 107.954C157.662 107.965 157.821 108.018 157.97 108.102C159.2 108.641 161.862 110.65 161.777 113.928H161.767C158.701 113.706 155.573 113.495 152.433 113.305C152.423 113.305 152.423 113.305 152.423 113.305C152.783 110.037 155.689 108.409 156.983 108.039ZM37.8151 156.817C37.4651 159.027 37.2318 161.342 37.1151 163.764C34.6969 163.404 33.5515 161.205 33.3076 160.232C33.2651 160.116 33.2439 159.989 33.2545 159.862C33.2651 159.725 33.3182 159.608 33.3818 159.503C33.8167 158.604 35.3757 156.69 37.8151 156.817ZM42.8105 141.706C40.5408 140.057 40.5726 137.223 40.8484 136.113C40.859 135.965 40.912 135.827 40.9863 135.7C41.0711 135.584 41.1878 135.489 41.3044 135.415C42.2378 134.738 44.8574 133.628 47.2544 135.077C45.5786 137.117 44.0938 139.327 42.8105 141.706ZM68.9753 119.956C68.0632 116.805 70.1313 114.193 71.1813 113.368C71.298 113.252 71.4465 113.157 71.6056 113.093C71.7753 113.04 71.945 113.03 72.1147 113.051C73.4616 113.083 76.6858 113.928 77.8631 116.995C74.7661 117.851 71.7965 118.835 68.9753 119.956ZM42.8105 141.706C41.5696 143.99 40.5196 146.433 39.6711 149.045C37.1681 147.839 36.659 145.08 36.7121 143.948C36.7121 143.8 36.7227 143.663 36.7863 143.515C36.8393 143.377 36.9348 143.271 37.0408 143.176C37.8151 142.33 40.1696 140.744 42.8105 141.706ZM39.6605 149.066C38.8757 151.498 38.2499 154.078 37.8151 156.817C35.1318 156.034 34.1772 153.37 34.0606 152.238C34.0288 152.101 34.0182 151.953 34.0606 151.805C34.0924 151.657 34.1667 151.53 34.2515 151.424C34.8879 150.472 36.9348 148.558 39.6605 149.066ZM60.533 124.027C59.2391 121.013 60.9466 118.169 61.8905 117.206C61.9966 117.08 62.1239 116.963 62.283 116.889C62.4421 116.815 62.6011 116.783 62.7708 116.783C64.1072 116.646 67.4162 117.069 68.9753 119.956C65.995 121.151 63.1739 122.504 60.533 124.027ZM119.141 106.696C119.29 106.622 119.449 106.579 119.629 106.579C119.81 106.579 119.969 106.622 120.128 106.696C121.39 107.15 124.19 108.969 124.328 112.247C122.864 112.226 121.422 112.215 120.022 112.215C118.325 112.215 116.638 112.237 114.963 112.268C115.09 108.99 117.879 107.161 119.141 106.696ZM128.644 106.78C128.793 106.706 128.962 106.664 129.143 106.664C129.312 106.675 129.482 106.717 129.631 106.802C130.882 107.277 133.64 109.16 133.703 112.448C130.479 112.342 127.34 112.279 124.338 112.247C124.338 112.247 124.338 112.247 124.328 112.247C124.54 108.969 127.372 107.203 128.644 106.78ZM147.555 107.478C147.703 107.415 147.873 107.373 148.053 107.383C148.223 107.394 148.392 107.447 148.53 107.531C149.771 108.049 152.465 110.016 152.423 113.305C149.305 113.114 146.176 112.945 143.068 112.808C143.376 109.54 146.261 107.87 147.555 107.478ZM138.105 107.055C138.264 106.981 138.423 106.939 138.603 106.95C138.784 106.96 138.943 107.013 139.091 107.087C140.332 107.595 143.058 109.519 143.068 112.808C139.897 112.66 136.768 112.543 133.703 112.448C133.968 109.17 136.832 107.457 138.105 107.055ZM77.8631 116.995C77.2585 113.77 79.5706 111.37 80.7055 110.64C80.8327 110.534 80.9812 110.45 81.1509 110.418C81.3206 110.376 81.4903 110.376 81.66 110.418C82.9963 110.576 86.1251 111.729 86.9948 114.901C83.8448 115.483 80.8009 116.181 77.8631 116.995ZM99.934 107.584C100.082 107.499 100.242 107.436 100.422 107.425C100.592 107.404 100.761 107.436 100.92 107.499C102.225 107.838 105.163 109.403 105.598 112.66C102.426 112.86 99.3189 113.135 96.275 113.495C96.2644 113.495 96.2644 113.495 96.2644 113.495C96.1053 110.217 98.7249 108.155 99.934 107.584ZM86.9948 114.901C86.6342 111.634 89.1266 109.413 90.3038 108.779C90.4417 108.673 90.6008 108.61 90.7811 108.578C90.9508 108.557 91.1205 108.578 91.2796 108.631C92.5947 108.885 95.6386 110.27 96.2644 113.495H96.2538C93.0932 113.876 89.9963 114.341 86.9948 114.901ZM109.554 106.928C109.702 106.854 109.861 106.802 110.041 106.791C110.222 106.78 110.391 106.823 110.54 106.886C111.823 107.288 114.687 109.001 114.963 112.268H114.952C111.791 112.332 108.663 112.459 105.598 112.66C105.598 109.371 108.313 107.436 109.554 106.928Z" fill="#84B140"/>
<path fill-rule="evenodd" clip-rule="evenodd" d="M249.528 98.6356C250.421 97.8505 251.282 97.0761 252.122 96.3335L252.732 99.6646L249.528 98.6356ZM253.982 124.764C253.184 124.913 252.364 125.061 251.524 125.221L252.375 122.929L253.982 124.764ZM237.478 127.883C236.648 128.042 235.828 128.191 235.009 128.35L235.86 126.027L237.478 127.883ZM256.724 124.234C255.947 124.383 255.127 124.542 254.287 124.701L255.127 122.409L256.724 124.234ZM230.586 115.217C231.427 114.485 232.298 113.732 233.191 112.946L233.759 116.288L230.586 115.217ZM234.725 128.403C233.895 128.552 233.065 128.711 232.256 128.859L233.107 126.547L234.725 128.403ZM259.476 123.714C258.709 123.863 257.901 124.011 257.039 124.181L257.88 121.889L259.476 123.714ZM262.218 123.194C261.504 123.332 260.685 123.481 259.792 123.651L260.632 121.38L262.218 123.194ZM229.22 129.432C228.233 129.613 227.266 129.793 226.342 129.963L227.329 127.279L229.22 129.432ZM240.23 127.364C239.4 127.523 238.581 127.671 237.761 127.83L238.612 125.518L240.23 127.364ZM231.973 128.912C231.132 129.071 230.313 129.231 229.504 129.379L230.355 127.066L231.973 128.912ZM227.865 117.582C228.695 116.861 229.567 116.108 230.481 115.312L231.038 118.643L227.865 117.582ZM225.155 119.938C225.953 119.237 226.836 118.484 227.76 117.678L228.317 120.998L225.155 119.938ZM252.217 96.2486C253.121 95.4424 253.982 94.668 254.812 93.936L255.421 97.2777L252.217 96.2486ZM236.007 110.507C236.868 109.753 237.751 108.989 238.633 108.215L239.201 111.578L236.007 110.507ZM233.297 112.862C234.147 112.119 235.03 111.355 235.912 110.581L236.48 113.933L233.297 112.862ZM257.575 91.443C258.52 90.573 259.382 89.788 260.138 89.0879L260.8 92.4189L257.575 91.443ZM262.239 87.0934L262.807 89.735L260.222 89.003C261.031 88.2604 261.704 87.6133 262.239 87.0934ZM238.707 108.141C239.579 107.388 240.461 106.613 241.333 105.849L241.922 109.202L238.707 108.141ZM254.906 93.8511C255.82 93.0342 256.682 92.2492 257.48 91.5172L258.121 94.8589L254.906 93.8511ZM251.23 125.284C250.431 125.433 249.612 125.592 248.771 125.751L249.622 123.449L251.23 125.284ZM248.477 125.804C247.668 125.953 246.849 126.112 246.019 126.271L246.87 123.958L248.477 125.804ZM245.735 126.324C244.916 126.483 244.096 126.632 243.266 126.791L244.117 124.478L245.735 126.324ZM242.983 126.844C242.163 127.003 241.333 127.151 240.514 127.31L241.365 124.998L242.983 126.844ZM246.828 101.022C247.71 100.237 248.582 99.4736 249.433 98.7204L250.032 102.062L246.828 101.022ZM244.128 103.399C245.01 102.624 245.882 101.861 246.744 101.097L247.332 104.449L244.128 103.399ZM241.417 105.775C242.3 105.001 243.172 104.237 244.033 103.473L244.632 106.825L241.417 105.775Z" fill="#DBE597"/>
<path fill-rule="evenodd" clip-rule="evenodd" d="M190.099 150.514C190.099 145.617 193.923 141.654 198.635 141.654C202.992 141.654 206.586 145.063 207.098 149.461C212.165 151.838 215.55 154.629 216.594 155.714C217.89 156.93 218.663 158.657 218.663 159.786C218.663 159.786 217.775 159.362 216.406 158.711C217.712 160.155 218.496 162.011 218.496 163.26C218.496 163.26 217.044 162.565 214.912 161.555C215.873 162.858 216.438 164.346 216.438 165.399C216.438 165.399 214.871 164.661 212.603 163.586C213.669 164.932 214.285 166.528 214.285 167.635C214.285 167.635 201.393 161.523 196.065 158.971C192.607 157.842 190.099 154.477 190.099 150.514Z" fill="#85AE3F"/>
<path fill-rule="evenodd" clip-rule="evenodd" d="M120.125 111.766C139.624 111.766 166.558 113.427 184.164 115.63C190.834 116.332 194.376 113.948 196.131 112.426C198.376 110.436 201.078 108.361 204.109 106.371C213.694 100.06 222.81 96.9734 224.459 99.485L254.277 82.5528C254.49 81.1055 255.287 79.7432 256.607 78.8705C259.064 77.2635 262.362 77.9446 263.968 80.3924C265.287 82.3826 265 84.8303 263.553 86.5863C260.106 90.6198 219.236 125.517 219.236 125.517C217.704 126.528 217.279 128.592 218.289 130.125C218.96 131.136 220.087 131.657 221.215 131.604C235.193 129.082 265.893 123.271 265.893 123.271C266.861 123.079 267.67 123.739 267.702 124.718C267.702 124.718 268.095 125.293 267.978 125.836C267.872 126.389 267.021 127.124 266.106 127.475L223.693 143.417C223.608 143.449 223.513 143.47 223.417 143.481V143.492L219.906 145.194C215.428 153.176 195.121 164.596 177.43 164.596C175.505 164.596 173.622 164.5 171.781 164.33H110.391L78.5098 160.754C70.2656 160.754 62.617 165.724 62.617 179.336C62.617 194.043 80.3927 207.357 103.242 215.701C49.4156 213.711 36.895 179.091 36.895 166.82C36.895 123.494 74.8185 111.766 120.125 111.766Z" fill="#98C64D"/>
<path fill-rule="evenodd" clip-rule="evenodd" d="M215.196 110.611C214.408 109.407 214.738 107.797 215.941 107.008C217.133 106.22 218.741 106.55 219.528 107.744C220.327 108.948 219.986 110.558 218.794 111.347C217.591 112.136 215.983 111.805 215.196 110.611Z" fill="#212830"/>
<path fill-rule="evenodd" clip-rule="evenodd" d="M257.717 85.5C257.524 85.1989 257.609 84.7974 257.902 84.6043C258.204 84.4036 258.605 84.4885 258.806 84.7896C258.999 85.0831 258.922 85.4923 258.621 85.6853C258.319 85.8861 257.918 85.8012 257.717 85.5Z" fill="#212830"/>
<path fill-rule="evenodd" clip-rule="evenodd" d="M148.552 162.657C148.552 160.31 149.255 158.123 150.479 156.312C152.246 153.225 156.643 148.498 166.415 143.996C171.823 141.391 178.37 143.835 181.02 149.441C183.618 154.94 181.531 161.414 176.358 164.126C180.041 166.291 182.511 168.327 183.479 169.303H183.469C185.172 170.846 186.204 173.054 186.204 174.501C186.204 174.501 185.023 173.955 183.213 173.129C184.948 174.962 185.981 177.331 185.981 178.928C185.981 178.928 184.054 178.049 181.244 176.752C182.521 178.424 183.256 180.322 183.256 181.672C183.256 181.672 181.191 180.718 178.21 179.346C179.604 181.072 180.424 183.108 180.424 184.523C180.424 184.523 163.434 176.72 156.409 173.451C151.852 172.004 148.552 167.716 148.552 162.657Z" fill="#98C64D"/>
<path fill-rule="evenodd" clip-rule="evenodd" d="M182.246 155.944C182.553 158.765 181.729 161.556 179.993 163.66C179.226 163.709 178.449 163.738 177.691 163.738C177.548 163.738 177.404 163.738 177.26 163.738C177.212 163.709 177.164 163.679 177.116 163.65C180.041 162.087 181.872 159.158 182.246 155.944Z" fill="#84B140"/>
<path fill-rule="evenodd" clip-rule="evenodd" d="M86.5601 156.05C84.7415 153.972 83.6354 151.249 83.6354 148.256C83.6354 142.131 88.2618 137.093 94.1645 136.523C94.4942 136.479 94.8132 136.458 95.1536 136.458C95.1855 136.458 95.2174 136.458 95.2493 136.458C95.2599 136.458 95.2812 136.458 95.2918 136.458C95.3344 136.458 95.3663 136.469 95.4088 136.469C104.853 136.609 112.468 144.402 112.468 153.994C112.468 156.9 111.766 159.635 110.532 162.046C112.574 163.445 113.989 164.651 114.67 165.34H114.659C116.361 166.89 117.392 169.108 117.392 170.561C117.392 170.561 116.212 170.012 114.404 169.183C116.137 171.024 117.169 173.403 117.169 175.007C117.169 175.007 115.244 174.124 112.436 172.822C113.712 174.49 114.446 176.406 114.446 177.763C114.446 177.763 112.383 176.805 109.405 175.427C110.798 177.16 111.617 179.194 111.617 180.626C111.617 180.626 108.235 179.065 103.875 177.041C103.875 177.041 92.6329 171.874 89.1233 170.335L89.1339 170.324C85.9964 169.075 83.7736 165.997 83.7736 162.38C83.7736 159.872 84.8585 157.622 86.5601 156.05Z" fill="#98C64D"/>
<path fill-rule="evenodd" clip-rule="evenodd" d="M110.889 161.154C112.246 158.754 113.018 156.032 113.018 153.14C113.018 148.736 111.24 144.718 108.304 141.654C112.281 144.847 114.796 149.54 114.796 154.768C114.796 157.522 114.094 160.125 112.854 162.439C112.269 162.032 111.626 161.604 110.889 161.154Z" fill="#84B140"/>
<path fill-rule="evenodd" clip-rule="evenodd" d="M164.772 144.231C166.655 143.351 168.667 143.069 170.624 143.299C169.522 143.435 168.421 143.739 167.372 144.231C157.551 148.631 153.133 153.252 151.357 156.269C150.127 158.039 149.421 160.176 149.421 162.471C149.421 162.9 149.453 163.319 149.496 163.738H146.896C146.853 163.319 146.821 162.9 146.821 162.471C146.821 160.176 147.527 158.039 148.757 156.269C150.533 153.252 154.952 148.631 164.772 144.231ZM83.9807 155.525C82.1513 153.503 81.0387 150.852 81.0387 147.94C81.0387 141.979 85.6924 137.076 91.6405 136.521C91.9614 136.479 92.2824 136.458 92.6247 136.458C92.6568 136.458 92.6889 136.458 92.721 136.458C92.7317 136.458 92.7531 136.458 92.7638 136.458C92.8066 136.458 92.8387 136.468 92.8815 136.468C93.2987 136.468 93.7159 136.5 94.1224 136.531C88.2278 137.139 83.6383 142.01 83.6383 147.94C83.6383 150.852 84.7509 153.503 86.5803 155.525C85.0719 156.866 84.0556 158.72 83.8309 160.805L81.274 160.522C81.5629 158.553 82.5471 156.803 83.9807 155.525Z" fill="#84B140"/>
<path fill-rule="evenodd" clip-rule="evenodd" d="M141.805 129.875C139.694 131.721 136.273 131.721 134.162 129.875C132.755 128.639 130.463 128.639 129.056 129.875C128.043 130.765 126.679 131.262 125.24 131.262C123.8 131.262 122.447 130.765 121.423 129.875C120.741 129.276 119.835 128.938 118.876 128.938C117.906 128.938 117 129.276 116.317 129.875C115.976 130.175 115.401 130.175 115.059 129.875C114.708 129.566 114.708 129.07 115.059 128.76C116.072 127.861 117.426 127.365 118.876 127.365C120.315 127.365 121.669 127.861 122.692 128.76C123.374 129.36 124.28 129.688 125.24 129.688C126.21 129.688 127.116 129.36 127.787 128.76C129.898 126.905 133.33 126.905 135.43 128.76C136.837 129.997 139.129 129.997 140.536 128.76C140.888 128.451 141.453 128.451 141.805 128.76C142.146 129.07 142.146 129.566 141.805 129.875Z" fill="#84B140"/>
<path fill-rule="evenodd" clip-rule="evenodd" d="M192.444 137.738C191.478 138.584 190.185 139.056 188.801 139.056C187.427 139.056 186.135 138.584 185.158 137.738C184.822 137.444 184.822 136.972 185.158 136.678C185.494 136.384 186.033 136.384 186.369 136.678C187.02 137.248 187.885 137.56 188.801 137.56C189.727 137.56 190.592 137.248 191.243 136.678C191.569 136.384 192.119 136.384 192.444 136.678C192.78 136.972 192.78 137.444 192.444 137.738Z" fill="#84B140"/>
<path fill-rule="evenodd" clip-rule="evenodd" d="M78.1902 139.037C77.2136 139.883 75.9216 140.355 74.5483 140.355C73.1647 140.355 71.8727 139.883 70.8961 139.037C70.5706 138.743 70.5706 138.271 70.8961 137.977C71.2318 137.684 71.7812 137.684 72.1067 137.977C72.7578 138.547 73.6225 138.859 74.5483 138.859C75.4638 138.859 76.3286 138.547 76.9796 137.977C77.3153 137.684 77.8545 137.684 78.1902 137.977C78.5259 138.271 78.5259 138.743 78.1902 139.037Z" fill="#84B140"/>
<path fill-rule="evenodd" clip-rule="evenodd" d="M131.422 145.525C130.455 146.379 129.163 146.85 127.779 146.85C126.405 146.85 125.113 146.379 124.136 145.525C123.8 145.24 123.8 144.759 124.136 144.466C124.472 144.181 125.011 144.181 125.347 144.466C125.998 145.035 126.863 145.347 127.779 145.347C128.705 145.347 129.57 145.035 130.221 144.466C130.547 144.181 131.097 144.181 131.422 144.466C131.758 144.759 131.758 145.24 131.422 145.525Z" fill="#84B140"/>
<path fill-rule="evenodd" clip-rule="evenodd" d="M169.074 123.44C168.107 124.295 166.815 124.766 165.431 124.766C164.057 124.766 162.765 124.295 161.788 123.44C161.452 123.155 161.452 122.675 161.788 122.39C162.124 122.096 162.663 122.096 162.999 122.39C163.65 122.95 164.515 123.271 165.431 123.271C166.357 123.271 167.222 122.95 167.863 122.39C168.199 122.096 168.738 122.096 169.074 122.381C169.41 122.674 169.41 123.155 169.074 123.44Z" fill="#84B140"/>
<path fill-rule="evenodd" clip-rule="evenodd" d="M192.948 140.377C193.925 139.52 195.217 139.056 196.591 139.056C197.975 139.056 199.268 139.52 200.234 140.377C200.57 140.672 200.57 141.145 200.234 141.44C199.909 141.726 199.359 141.726 199.034 141.44C198.382 140.869 197.517 140.556 196.591 140.556C195.675 140.556 194.81 140.869 194.159 141.44C193.823 141.726 193.284 141.726 192.948 141.44C192.612 141.145 192.612 140.672 192.948 140.377Z" fill="#84B140"/>
<path fill-rule="evenodd" clip-rule="evenodd" d="M64.4121 142.974C66.4169 141.214 69.6835 141.214 71.6985 142.974C72.0343 143.268 72.0343 143.739 71.6985 144.032C71.3626 144.326 70.8233 144.326 70.4875 144.032C69.8362 143.463 68.9712 143.152 68.0553 143.152C67.1292 143.152 66.2642 143.463 65.6231 144.032C65.2873 144.326 64.7479 144.326 64.4121 144.032C64.0763 143.739 64.0763 143.268 64.4121 142.974Z" fill="#84B140"/>
<path fill-rule="evenodd" clip-rule="evenodd" d="M98.169 120.892C99.1357 120.034 100.428 119.57 101.802 119.57C103.186 119.561 104.478 120.034 105.455 120.892C105.791 121.186 105.791 121.659 105.455 121.954C105.119 122.24 104.58 122.24 104.244 121.954C103.593 121.383 102.728 121.07 101.802 121.07C100.886 121.07 100.021 121.383 99.3698 121.954C99.0441 122.24 98.4946 122.24 98.169 121.954C97.8331 121.659 97.8331 121.186 98.169 120.892Z" fill="#84B140"/>
<path fill-rule="evenodd" clip-rule="evenodd" d="M154.788 137.666C152.678 139.516 149.256 139.516 147.145 137.666C145.738 136.427 143.446 136.427 142.039 137.666C141.027 138.558 139.673 139.056 138.223 139.056C136.784 139.056 135.43 138.558 134.407 137.666C133.725 137.065 132.818 136.737 131.859 136.737C130.889 136.737 129.983 137.065 129.301 137.666C128.96 137.976 128.384 137.976 128.043 137.666C127.691 137.356 127.691 136.859 128.043 136.549C129.056 135.647 130.42 135.159 131.859 135.159C133.298 135.159 134.652 135.647 135.675 136.549C136.357 137.15 137.264 137.478 138.223 137.478C139.193 137.478 140.099 137.15 140.771 136.549C142.881 134.699 146.314 134.699 148.414 136.549C149.821 137.788 152.113 137.788 153.52 136.549C153.872 136.239 154.437 136.239 154.788 136.549C155.129 136.859 155.129 137.356 154.788 137.666Z" fill="#84B140"/>
<defs>
<filter id="filter0_d" x="262.055" y="86.1757" width="31.2969" height="130.317" filterUnits="userSpaceOnUse" color-interpolation-filters="sRGB">
<feFlood flood-opacity="0" result="BackgroundImageFix"/>
<feColorMatrix in="SourceAlpha" type="matrix" values="0 0 0 0 0 0 0 0 0 0 0 0 0 0 0 0 0 0 127 0"/>
<feOffset dx="1" dy="1"/>
<feGaussianBlur stdDeviation="1"/>
<feColorMatrix type="matrix" values="0 0 0 0 0 0 0 0 0 0 0 0 0 0 0 0 0 0 0.15 0"/>
<feBlend mode="normal" in2="BackgroundImageFix" result="effect1_dropShadow"/>
<feBlend mode="normal" in="SourceGraphic" in2="effect1_dropShadow" result="shape"/>
</filter>
<radialGradient id="paint0_radial" cx="0" cy="0" r="1" gradientUnits="userSpaceOnUse" gradientTransform="translate(150 150) rotate(90) scale(150)">
<stop offset="0.369792" stop-color="white" stop-opacity="0"/>
<stop offset="1" stop-color="#00FF0A" stop-opacity="0.83"/>
</radialGradient>
</defs>
</svg>
