<svg width="300" height="300" viewBox="0 0 300 300" fill="none" xmlns="http://www.w3.org/2000/svg">
<rect width="300" height="300" fill="white"/>
<rect width="300" height="300" fill="white"/>
<rect width="300" height="300" fill="white"/>
<rect width="300" height="300" fill="url(#paint0_radial)" fill-opacity="0.2"/>
<g filter="url(#filter0_d)">
<path d="M275.437 217.17L263.906 211.843L263.906 206.078L280.219 214.48L289.5 214.48L289.5 219.841L280.219 219.841L263.906 228.244L263.906 222.461L275.437 217.17ZM278.408 184.381L278.408 194.506L285.264 194.506L285.264 182.624L289.5 182.624L289.5 199.78L263.906 199.78L263.906 182.659L268.178 182.659L268.178 194.506L274.277 194.506L274.277 184.381L278.408 184.381ZM285.264 170.296L285.264 159.099L289.5 159.099L289.5 175.57L263.906 175.57L263.906 170.296L285.264 170.296ZM285.264 146.825L285.264 135.627L289.5 135.627L289.5 152.098L263.906 152.098L263.906 146.825L285.264 146.825ZM277.283 108.728C279.803 108.728 282.012 109.173 283.91 110.064C285.809 110.955 287.273 112.232 288.305 113.896C289.336 115.548 289.852 117.447 289.852 119.591C289.852 121.712 289.342 123.605 288.322 125.269C287.303 126.933 285.85 128.222 283.963 129.136C282.064 130.05 279.885 130.513 277.424 130.525L276.158 130.525C273.639 130.525 271.424 130.074 269.514 129.171C267.592 128.257 266.121 126.974 265.102 125.322C264.07 123.658 263.555 121.759 263.555 119.626C263.555 117.494 264.07 115.601 265.102 113.949C266.121 112.285 267.592 111.001 269.514 110.099C271.424 109.185 273.633 108.728 276.141 108.728L277.283 108.728ZM276.123 114.072C273.439 114.072 271.4 114.552 270.006 115.513C268.611 116.474 267.914 117.845 267.914 119.626C267.914 121.396 268.605 122.761 269.988 123.722C271.359 124.683 273.375 125.169 276.035 125.181L277.283 125.181C279.896 125.181 281.924 124.701 283.365 123.74C284.807 122.779 285.527 121.396 285.527 119.591C285.527 117.822 284.836 116.462 283.453 115.513C282.059 114.564 280.031 114.083 277.371 114.072L276.123 114.072ZM282.117 81.0023L263.906 77.557L263.906 72.3012L289.5 77.9789L289.5 83.2875L272.379 87.4535L289.5 91.6195L289.5 96.9281L263.906 102.606L263.906 97.35L282.082 93.8871L263.906 89.6684L263.906 85.2035L282.117 81.0023Z" fill="white"/>
<path d="M275.437 217.17L275.646 217.624L276.633 217.171L275.647 216.716L275.437 217.17ZM263.906 211.843L263.406 211.843L263.406 212.163L263.697 212.297L263.906 211.843ZM263.906 206.078L264.135 205.633L263.406 205.258L263.406 206.078L263.906 206.078ZM280.219 214.48L279.99 214.925L280.098 214.98L280.219 214.98L280.219 214.48ZM289.5 214.48L290 214.48L290 213.98L289.5 213.98L289.5 214.48ZM289.5 219.841L289.5 220.341L290 220.341L290 219.841L289.5 219.841ZM280.219 219.841L280.219 219.341L280.098 219.341L279.99 219.397L280.219 219.841ZM263.906 228.244L263.406 228.244L263.406 229.064L264.135 228.688L263.906 228.244ZM263.906 222.461L263.698 222.006L263.406 222.14L263.406 222.461L263.906 222.461ZM275.647 216.716L264.116 211.389L263.697 212.297L275.228 217.623L275.647 216.716ZM264.406 211.843L264.406 206.078L263.406 206.078L263.406 211.843L264.406 211.843ZM263.677 206.522L279.99 214.925L280.448 214.036L264.135 205.633L263.677 206.522ZM280.219 214.98L289.5 214.98L289.5 213.98L280.219 213.98L280.219 214.98ZM289 214.48L289 219.841L290 219.841L290 214.48L289 214.48ZM289.5 219.341L280.219 219.341L280.219 220.341L289.5 220.341L289.5 219.341ZM279.99 219.397L263.677 227.799L264.135 228.688L280.448 220.286L279.99 219.397ZM264.406 228.244L264.406 222.461L263.406 222.461L263.406 228.244L264.406 228.244ZM264.115 222.915L275.646 217.624L275.229 216.715L263.698 222.006L264.115 222.915ZM278.408 184.381L278.908 184.381L278.908 183.881L278.408 183.881L278.408 184.381ZM278.408 194.506L277.908 194.506L277.908 195.006L278.408 195.006L278.408 194.506ZM285.264 194.506L285.264 195.006L285.764 195.006L285.764 194.506L285.264 194.506ZM285.264 182.624L285.264 182.124L284.764 182.124L284.764 182.624L285.264 182.624ZM289.5 182.624L290 182.624L290 182.124L289.5 182.124L289.5 182.624ZM289.5 199.78L289.5 200.28L290 200.28L290 199.78L289.5 199.78ZM263.906 199.78L263.406 199.78L263.406 200.28L263.906 200.28L263.906 199.78ZM263.906 182.659L263.906 182.159L263.406 182.159L263.406 182.659L263.906 182.659ZM268.178 182.659L268.678 182.659L268.678 182.159L268.178 182.159L268.178 182.659ZM268.178 194.506L267.678 194.506L267.678 195.006L268.178 195.006L268.178 194.506ZM274.277 194.506L274.277 195.006L274.777 195.006L274.777 194.506L274.277 194.506ZM274.277 184.381L274.277 183.881L273.777 183.881L273.777 184.381L274.277 184.381ZM277.908 184.381L277.908 194.506L278.908 194.506L278.908 184.381L277.908 184.381ZM278.408 195.006L285.264 195.006L285.264 194.006L278.408 194.006L278.408 195.006ZM285.764 194.506L285.764 182.624L284.764 182.624L284.764 194.506L285.764 194.506ZM285.264 183.124L289.5 183.124L289.5 182.124L285.264 182.124L285.264 183.124ZM289 182.624L289 199.78L290 199.78L290 182.624L289 182.624ZM289.5 199.28L263.906 199.28L263.906 200.28L289.5 200.28L289.5 199.28ZM264.406 199.78L264.406 182.659L263.406 182.659L263.406 199.78L264.406 199.78ZM263.906 183.159L268.178 183.159L268.178 182.159L263.906 182.159L263.906 183.159ZM267.678 182.659L267.678 194.506L268.678 194.506L268.678 182.659L267.678 182.659ZM268.178 195.006L274.277 195.006L274.277 194.006L268.178 194.006L268.178 195.006ZM274.777 194.506L274.777 184.381L273.777 184.381L273.777 194.506L274.777 194.506ZM274.277 184.881L278.408 184.881L278.408 183.881L274.277 183.881L274.277 184.881ZM285.264 170.296L285.264 170.796L285.764 170.796L285.764 170.296L285.264 170.296ZM285.264 159.099L285.264 158.599L284.764 158.599L284.764 159.099L285.264 159.099ZM289.5 159.099L290 159.099L290 158.599L289.5 158.599L289.5 159.099ZM289.5 175.57L289.5 176.07L290 176.07L290 175.57L289.5 175.57ZM263.906 175.57L263.406 175.57L263.406 176.07L263.906 176.07L263.906 175.57ZM263.906 170.296L263.906 169.796L263.406 169.796L263.406 170.296L263.906 170.296ZM285.764 170.296L285.764 159.099L284.764 159.099L284.764 170.296L285.764 170.296ZM285.264 159.599L289.5 159.599L289.5 158.599L285.264 158.599L285.264 159.599ZM289 159.099L289 175.57L290 175.57L290 159.099L289 159.099ZM289.5 175.07L263.906 175.07L263.906 176.07L289.5 176.07L289.5 175.07ZM264.406 175.57L264.406 170.296L263.406 170.296L263.406 175.57L264.406 175.57ZM263.906 170.796L285.264 170.796L285.264 169.796L263.906 169.796L263.906 170.796ZM285.264 146.825L285.264 147.325L285.764 147.325L285.764 146.825L285.264 146.825ZM285.264 135.627L285.264 135.127L284.764 135.127L284.764 135.627L285.264 135.627ZM289.5 135.627L290 135.627L290 135.127L289.5 135.127L289.5 135.627ZM289.5 152.098L289.5 152.598L290 152.598L290 152.098L289.5 152.098ZM263.906 152.098L263.406 152.098L263.406 152.598L263.906 152.598L263.906 152.098ZM263.906 146.825L263.906 146.325L263.406 146.325L263.406 146.825L263.906 146.825ZM285.764 146.825L285.764 135.627L284.764 135.627L284.764 146.825L285.764 146.825ZM285.264 136.127L289.5 136.127L289.5 135.127L285.264 135.127L285.264 136.127ZM289 135.627L289 152.098L290 152.098L290 135.627L289 135.627ZM289.5 151.598L263.906 151.598L263.906 152.598L289.5 152.598L289.5 151.598ZM264.406 152.098L264.406 146.825L263.406 146.825L263.406 152.098L264.406 152.098ZM263.906 147.325L285.264 147.325L285.264 146.325L263.906 146.325L263.906 147.325ZM288.305 113.896L287.88 114.159L287.881 114.161L288.305 113.896ZM283.963 129.136L284.18 129.587L284.181 129.586L283.963 129.136ZM277.424 130.525L277.424 131.025L277.426 131.025L277.424 130.525ZM269.514 129.171L269.299 129.623L269.3 129.623L269.514 129.171ZM265.102 125.322L265.527 125.059L265.527 125.058L265.102 125.322ZM265.102 113.949L265.526 114.213L265.528 114.21L265.102 113.949ZM269.514 110.099L269.726 110.552L269.729 110.55L269.514 110.099ZM269.988 123.722L270.275 123.313L270.274 123.312L269.988 123.722ZM276.035 125.181L276.033 125.681L276.035 125.681L276.035 125.181ZM283.453 115.513L283.736 115.101L283.734 115.1L283.453 115.513ZM277.371 114.072L277.373 113.572L277.371 113.572L277.371 114.072ZM277.283 109.228C279.744 109.228 281.878 109.663 283.698 110.517L284.123 109.611C282.146 108.684 279.862 108.228 277.283 108.228L277.283 109.228ZM283.698 110.517C285.515 111.369 286.903 112.584 287.88 114.159L288.73 113.633C287.644 111.88 286.102 110.54 284.123 109.611L283.698 110.517ZM287.881 114.161C288.857 115.726 289.352 117.531 289.352 119.591L290.352 119.591C290.352 117.363 289.815 115.371 288.729 113.631L287.881 114.161ZM289.352 119.591C289.352 121.628 288.863 123.429 287.896 125.008L288.749 125.53C289.82 123.781 290.352 121.796 290.352 119.591L289.352 119.591ZM287.896 125.008C286.93 126.584 285.552 127.811 283.745 128.686L284.181 129.586C286.147 128.634 287.675 127.282 288.749 125.53L287.896 125.008ZM283.746 128.686C281.925 129.563 279.82 130.013 277.421 130.025L277.426 131.025C279.949 131.013 282.204 130.538 284.18 129.587L283.746 128.686ZM277.424 130.025L276.158 130.025L276.158 131.025L277.424 131.025L277.424 130.025ZM276.158 130.025C273.698 130.025 271.559 129.585 269.727 128.719L269.3 129.623C271.289 130.563 273.579 131.025 276.158 131.025L276.158 130.025ZM269.728 128.72C267.885 127.843 266.491 126.622 265.527 125.059L264.676 125.584C265.751 127.326 267.299 128.672 269.299 129.623L269.728 128.72ZM265.527 125.058C264.549 123.48 264.055 121.675 264.055 119.626L263.055 119.626C263.055 121.844 263.592 123.835 264.677 125.585L265.527 125.058ZM264.055 119.626C264.055 117.578 264.549 115.779 265.526 114.213L264.677 113.684C263.592 115.423 263.055 117.409 263.055 119.626L264.055 119.626ZM265.528 114.21C266.492 112.636 267.885 111.416 269.726 110.552L269.301 109.646C267.299 110.587 265.75 111.933 264.675 113.687L265.528 114.21ZM269.729 110.55C271.561 109.674 273.694 109.228 276.141 109.228L276.141 108.228C273.572 108.228 271.287 108.696 269.298 109.648L269.729 110.55ZM276.141 109.228L277.283 109.228L277.283 108.228L276.141 108.228L276.141 109.228ZM276.123 113.572C273.393 113.572 271.236 114.058 269.722 115.101L270.29 115.925C271.565 115.046 273.486 114.572 276.123 114.572L276.123 113.572ZM269.722 115.101C268.184 116.161 267.414 117.691 267.414 119.626L268.414 119.626C268.414 118 269.039 116.787 270.29 115.925L269.722 115.101ZM267.414 119.626C267.414 121.55 268.178 123.073 269.703 124.133L270.274 123.312C269.033 122.45 268.414 121.242 268.414 119.626L267.414 119.626ZM269.701 124.132C271.192 125.176 273.326 125.669 276.033 125.681L276.037 124.681C273.424 124.67 271.527 124.19 270.275 123.313L269.701 124.132ZM276.035 125.681L277.283 125.681L277.283 124.681L276.035 124.681L276.035 125.681ZM277.283 125.681C279.948 125.681 282.087 125.193 283.643 124.156L283.088 123.324C281.761 124.209 279.845 124.681 277.283 124.681L277.283 125.681ZM283.643 124.156C285.23 123.097 286.027 121.555 286.027 119.591L285.027 119.591C285.027 121.237 284.383 122.46 283.088 123.324L283.643 124.156ZM286.027 119.591C286.027 117.668 285.263 116.149 283.736 115.101L283.17 115.925C284.408 116.775 285.027 117.976 285.027 119.591L286.027 119.591ZM283.734 115.1C282.223 114.071 280.08 113.584 277.373 113.572L277.369 114.572C279.982 114.583 281.895 115.057 283.172 115.926L283.734 115.1ZM277.371 113.572L276.123 113.572L276.123 114.572L277.371 114.572L277.371 113.572ZM282.117 81.0023L282.23 81.4896L282.21 80.5111L282.117 81.0023ZM263.906 77.557L263.406 77.557L263.406 77.9713L263.813 78.0483L263.906 77.557ZM263.906 72.3012L264.015 71.813L263.406 71.6781L263.406 72.3012L263.906 72.3012ZM289.5 77.9789L290 77.9789L290 77.5777L289.608 77.4908L289.5 77.9789ZM289.5 83.2875L289.618 83.7733L290 83.6804L290 83.2875L289.5 83.2875ZM272.379 87.4535L272.261 86.9677L272.261 87.9393L272.379 87.4535ZM289.5 91.6195L290 91.6195L290 91.2266L289.618 91.1337L289.5 91.6195ZM289.5 96.9281L289.608 97.4163L290 97.3294L290 96.9281L289.5 96.9281ZM263.906 102.606L263.406 102.606L263.406 103.229L264.015 103.094L263.906 102.606ZM263.906 97.35L263.813 96.8588L263.406 96.9363L263.406 97.35L263.906 97.35ZM282.082 93.8871L282.176 94.3783L282.195 93.4001L282.082 93.8871ZM263.906 89.6684L263.406 89.6684L263.406 90.0656L263.793 90.1554L263.906 89.6684ZM263.906 85.2035L263.794 84.7163L263.406 84.8057L263.406 85.2035L263.906 85.2035ZM282.21 80.5111L263.999 77.0658L263.813 78.0483L282.024 81.4936L282.21 80.5111ZM264.406 77.557L264.406 72.3012L263.406 72.3012L263.406 77.557L264.406 77.557ZM263.798 72.7893L289.392 78.467L289.608 77.4908L264.015 71.813L263.798 72.7893ZM289 77.9789L289 83.2875L290 83.2875L290 77.9789L289 77.9789ZM289.382 82.8017L272.261 86.9677L272.497 87.9393L289.618 83.7733L289.382 82.8017ZM272.261 87.9393L289.382 92.1054L289.618 91.1337L272.497 86.9677L272.261 87.9393ZM289 91.6195L289 96.9281L290 96.9281L290 91.6195L289 91.6195ZM289.392 96.44L263.798 102.118L264.015 103.094L289.608 97.4163L289.392 96.44ZM264.406 102.606L264.406 97.35L263.406 97.35L263.406 102.606L264.406 102.606ZM264 97.8412L282.176 94.3783L281.988 93.3959L263.813 96.8588L264 97.8412ZM282.195 93.4001L264.019 89.1813L263.793 90.1554L281.969 94.3742L282.195 93.4001ZM264.406 89.6684L264.406 85.2035L263.406 85.2035L263.406 89.6684L264.406 89.6684ZM264.019 85.6907L282.23 81.4896L282.005 80.5151L263.794 84.7163L264.019 85.6907Z" fill="#DCCE00"/>
</g>
<path d="M14.2969 285V228.125H34.7266C42.0443 228.125 47.6042 229.466 51.4062 232.148C55.2344 234.831 57.1484 238.724 57.1484 243.828C57.1484 246.771 56.4714 249.284 55.1172 251.367C53.763 253.451 51.7708 254.987 49.1406 255.977C52.1094 256.758 54.388 258.216 55.9766 260.352C57.5651 262.487 58.3594 265.091 58.3594 268.164C58.3594 273.737 56.5885 277.93 53.0469 280.742C49.5312 283.529 44.3099 284.948 37.3828 285H14.2969ZM28.0078 260.82V274.453H36.9922C39.4661 274.453 41.3672 273.893 42.6953 272.773C44.0234 271.628 44.6875 270.026 44.6875 267.969C44.6875 263.229 42.3307 260.846 37.6172 260.82H28.0078ZM28.0078 251.836H35.1562C38.151 251.81 40.2865 251.263 41.5625 250.195C42.8385 249.128 43.4766 247.552 43.4766 245.469C43.4766 243.073 42.7865 241.354 41.4062 240.312C40.026 239.245 37.7995 238.711 34.7266 238.711H28.0078V251.836ZM79.975 279.727H70.7289L68.9711 285H63.3637L72.891 259.406H77.7777L87.3578 285H81.7504L79.975 279.727ZM72.1527 275.455H78.5512L75.3344 265.875L72.1527 275.455ZM114.521 285H109.247L98.9819 268.16V285H93.7084V259.406H98.9819L109.265 276.281V259.406H114.521V285ZM137.852 279.727H128.606L126.848 285H121.241L130.768 259.406H135.655L145.235 285H139.627L137.852 279.727ZM130.03 275.455H136.428L133.211 265.875L130.03 275.455ZM172.398 285H167.125L156.859 268.16V285H151.585V259.406H156.859L167.142 276.281V259.406H172.398V285ZM195.729 279.727H186.483L184.725 285H179.118L188.645 259.406H193.532L203.112 285H197.504L195.729 279.727ZM187.907 275.455H194.305L191.088 265.875L187.907 275.455Z" fill="black"/>
<path d="M106.627 26.7881V32H105.546V19.2031H109.906C111.236 19.2031 112.285 19.543 113.052 20.2227C113.826 20.9023 114.212 21.8369 114.212 23.0264C114.212 24.2275 113.84 25.1562 113.096 25.8125C112.358 26.4629 111.286 26.7881 109.879 26.7881H106.627ZM106.627 25.874H109.906C110.955 25.874 111.754 25.625 112.305 25.127C112.856 24.6289 113.131 23.9346 113.131 23.0439C113.131 22.1592 112.856 21.4561 112.305 20.9346C111.76 20.4072 110.984 20.1377 109.976 20.126H106.627V25.874ZM123.399 26.6738H119.682V32H118.592V19.2031H122.749C124.114 19.2031 125.181 19.5342 125.948 20.1963C126.716 20.8584 127.1 21.7842 127.1 22.9736C127.1 23.7939 126.859 24.5176 126.379 25.1445C125.898 25.7715 125.254 26.2051 124.445 26.4453L127.644 31.8857V32H126.493L123.399 26.6738ZM119.682 25.751H122.995C123.903 25.751 124.633 25.4932 125.184 24.9775C125.734 24.4619 126.01 23.7939 126.01 22.9736C126.01 22.0713 125.723 21.3711 125.148 20.873C124.574 20.375 123.769 20.126 122.731 20.126H119.682V25.751ZM141.481 26.2959C141.481 27.4736 141.276 28.5078 140.866 29.3984C140.461 30.2891 139.881 30.9746 139.125 31.4551C138.37 31.9355 137.497 32.1758 136.506 32.1758C135.012 32.1758 133.805 31.6426 132.885 30.5762C131.965 29.5039 131.505 28.0596 131.505 26.2432V24.9248C131.505 23.7588 131.71 22.7275 132.121 21.8311C132.537 20.9287 133.123 20.2373 133.878 19.7568C134.634 19.2705 135.504 19.0273 136.489 19.0273C137.473 19.0273 138.34 19.2646 139.09 19.7393C139.846 20.2139 140.429 20.8848 140.839 21.752C141.249 22.6191 141.463 23.624 141.481 24.7666V26.2959ZM140.4 24.9072C140.4 23.3662 140.051 22.1592 139.354 21.2861C138.657 20.4131 137.702 19.9766 136.489 19.9766C135.299 19.9766 134.35 20.416 133.641 21.2949C132.938 22.168 132.586 23.3896 132.586 24.96V26.2959C132.586 27.8135 132.938 29.0176 133.641 29.9082C134.344 30.793 135.299 31.2354 136.506 31.2354C137.731 31.2354 138.686 30.7988 139.372 29.9258C140.057 29.0469 140.4 27.8252 140.4 26.2607V24.9072ZM146.186 32V19.2031H149.763C150.812 19.2031 151.752 19.4434 152.584 19.9238C153.416 20.3984 154.063 21.0811 154.526 21.9717C154.995 22.8623 155.229 23.876 155.229 25.0127V26.1904C155.229 27.333 154.998 28.3467 154.535 29.2314C154.072 30.1162 153.419 30.7988 152.575 31.2793C151.737 31.7598 150.773 32 149.684 32H146.186ZM147.267 20.126V31.0859H149.692C151.04 31.0859 152.121 30.6406 152.936 29.75C153.75 28.8535 154.157 27.6436 154.157 26.1201V24.9951C154.157 23.5244 153.756 22.3467 152.953 21.4619C152.15 20.5771 151.093 20.1318 149.78 20.126H147.267ZM168.776 19.2031V27.9395C168.77 28.8008 168.58 29.5508 168.205 30.1895C167.83 30.8281 167.299 31.3203 166.614 31.666C165.934 32.0059 165.152 32.1758 164.267 32.1758C162.919 32.1758 161.838 31.8096 161.024 31.0771C160.215 30.3389 159.796 29.3193 159.767 28.0186V19.2031H160.839V27.8604C160.839 28.9385 161.147 29.7764 161.762 30.374C162.377 30.9658 163.212 31.2617 164.267 31.2617C165.322 31.2617 166.154 30.9629 166.763 30.3652C167.378 29.7676 167.686 28.9355 167.686 27.8691V19.2031H168.776ZM182.832 28.0098C182.686 29.3574 182.202 30.3887 181.382 31.1035C180.567 31.8184 179.48 32.1758 178.121 32.1758C177.172 32.1758 176.331 31.9385 175.599 31.4639C174.872 30.9893 174.31 30.3184 173.911 29.4512C173.513 28.5781 173.311 27.582 173.305 26.4629V24.8018C173.305 23.665 173.504 22.6572 173.902 21.7783C174.301 20.8994 174.872 20.2227 175.616 19.748C176.366 19.2676 177.228 19.0273 178.2 19.0273C179.571 19.0273 180.652 19.3994 181.443 20.1436C182.24 20.8818 182.703 21.9043 182.832 23.2109H181.742C181.473 21.0371 180.292 19.9502 178.2 19.9502C177.04 19.9502 176.114 20.3838 175.423 21.251C174.737 22.1182 174.395 23.3164 174.395 24.8457V26.4102C174.395 27.8867 174.729 29.0645 175.397 29.9434C176.07 30.8223 176.979 31.2617 178.121 31.2617C179.252 31.2617 180.105 30.9922 180.679 30.4531C181.253 29.9082 181.607 29.0938 181.742 28.0098H182.832ZM194.506 25.8652H188.521V31.0859H195.403V32H187.44V19.2031H195.359V20.126H188.521V24.9512H194.506V25.8652Z" fill="black"/>
<path fill-rule="evenodd" clip-rule="evenodd" d="M47.9702 82.3081C48.1732 81.9885 48.4026 81.6645 48.6667 81.3333C48.555 81.4731 48.4509 81.5986 48.3535 81.7117L48.2811 81.7944C48.2109 81.8746 48.1415 81.9529 48.0789 82.0205L48.0253 82.0766L47.8427 82.2635L47.8178 82.2876L47.648 82.446H47.6473C47.5424 82.4994 47.4654 82.5475 47.4126 82.5858L47.4088 82.5885L47.3341 82.6614L47.3333 82.6623C47.3326 82.6837 47.439 82.6285 47.6473 82.446L47.6488 82.4451C47.7363 82.4006 47.845 82.3543 47.9702 82.3081Z" fill="#F9F399"/>
<path fill-rule="evenodd" clip-rule="evenodd" d="M228.328 121.194C229.909 119.445 231.427 117.622 232.905 115.753C235.342 112.675 237.651 109.454 239.797 106.072L239.86 105.972C239.977 105.786 240.098 105.593 240.226 105.386C240.291 105.279 240.363 105.162 240.431 105.049C240.52 104.904 240.608 104.76 240.701 104.605C240.782 104.474 240.863 104.334 240.945 104.196C241.035 104.047 241.124 103.896 241.217 103.738C241.307 103.584 241.4 103.426 241.493 103.265C241.58 103.116 241.667 102.966 241.755 102.811C241.858 102.633 241.961 102.452 242.067 102.267C242.152 102.117 242.239 101.962 242.326 101.807C242.44 101.606 242.553 101.404 242.669 101.195C242.74 101.064 242.814 100.929 242.888 100.796C243.023 100.55 243.158 100.303 243.296 100.049L243.408 99.8399C244.155 98.4535 244.934 96.9443 245.711 95.3522L245.74 95.2968C245.929 94.9085 246.118 94.5157 246.305 94.1196L246.366 93.9901C246.553 93.594 246.739 93.1957 246.925 92.7907L246.974 92.6812C247.165 92.2652 247.354 91.8447 247.557 91.3856C250.702 84.2667 253.264 76.3125 252.544 70.5657C252.5 70.2238 252.444 69.8907 252.377 69.5654L252.363 69.5101C252.218 68.8319 252.019 68.1901 251.745 67.5716C251.615 67.2773 251.472 66.9907 251.311 66.7186L251.169 66.5072C251.037 66.3014 250.908 66.0945 250.756 65.9042C250.548 65.6398 250.323 65.3908 250.075 65.1563C249.87 64.9626 249.651 64.7989 249.419 64.6562C249.323 64.5964 249.216 64.5555 249.115 64.5046C248.976 64.4338 248.839 64.3596 248.693 64.3043C248.55 64.2512 248.398 64.2169 248.247 64.1782C248.134 64.1483 248.021 64.1118 247.903 64.0897C247.721 64.0565 247.53 64.041 247.339 64.0255L247.056 64.0022C246.835 63.9956 246.607 64.0045 246.375 64.0188L246.162 64.0321C245.901 64.0554 245.635 64.0941 245.364 64.1428L245.223 64.1682C244.927 64.2257 244.624 64.2977 244.315 64.3829L244.245 64.4017C243.916 64.4946 243.579 64.6019 243.228 64.727C236.805 67.0173 228.171 74.291 221.801 80.3223L221.729 80.3897C220.614 81.4464 219.57 82.4621 218.62 83.4059L218.457 83.5697C218.006 84.0189 217.571 84.4559 217.161 84.873C216.76 85.2802 216.393 85.6608 216.044 86.0226L215.842 86.2329C215.512 86.577 215.199 86.9056 214.925 87.1977C207.907 94.6772 199.994 100.606 191.468 105.093C190.047 105.841 188.609 106.549 187.155 107.218C182.793 109.223 178.29 110.873 173.68 112.181C172.144 112.617 170.595 113.016 169.036 113.377C165.918 114.099 162.758 114.671 159.566 115.098C157.97 115.31 156.367 115.487 154.756 115.629C143.482 116.615 131.885 115.845 120.409 113.493C118.77 113.158 117.133 112.79 115.499 112.39C112.234 111.59 108.983 110.664 105.757 109.615C100.919 108.041 94.9041 107.454 90.2174 105.342C87.0917 103.934 84.0081 102.409 80.9752 100.773C71.8589 95.8501 62.7282 83.6073 52.5663 81.889C52.4316 81.8657 52.3036 81.848 52.1733 81.8292C51.9944 81.8038 51.8178 81.7794 51.6478 81.7606C51.5263 81.7474 51.4093 81.7363 51.2933 81.7263C51.1255 81.7131 50.9621 81.7009 50.8042 81.6942C50.7005 81.6887 50.5967 81.6843 50.4962 81.681C50.3328 81.6776 50.176 81.6776 50.0226 81.6799L49.783 81.6843C49.6052 81.6909 49.4385 81.702 49.2773 81.7164L49.1459 81.7263C48.5133 81.7894 48.0098 81.9034 47.6234 82.024C47.2856 82.4754 47.0085 82.9169 46.7799 83.3506L46.6916 83.5497C46.516 83.906 46.367 84.2579 46.2599 84.6053C46.2268 84.7115 46.2102 84.8155 46.1837 84.9206C46.1053 85.2271 46.0446 85.5325 46.0159 85.8323C46.0071 85.9408 46.006 86.0492 46.0026 86.1565C45.9938 86.4044 46.0082 86.65 46.0302 86.8945C55.1134 91.9786 66.6223 102.18 73.3891 110.074C84.2653 122.766 93.0438 132.906 107.884 140.813C121.873 148.267 138.511 152.666 154.482 153.272C155.489 153.314 156.494 153.336 157.494 153.333C159.666 153.325 161.816 153.248 163.944 153.1C168.198 152.805 172.362 152.234 176.423 151.402C178.455 150.985 180.459 150.504 182.437 149.958C200.22 145.059 215.834 135.024 228.328 121.194Z" fill="#F9F399"/>
<path fill-rule="evenodd" clip-rule="evenodd" d="M228.328 121.286C229.909 119.541 231.427 117.723 232.905 115.86C235.342 112.79 237.651 109.579 239.797 106.207L239.86 106.107C239.977 105.921 240.098 105.729 240.226 105.523C240.291 105.416 240.363 105.299 240.431 105.186C240.52 105.042 240.608 104.899 240.701 104.744C240.782 104.613 240.863 104.474 240.945 104.336C241.035 104.187 241.124 104.037 241.217 103.879C241.307 103.726 241.4 103.568 241.493 103.408C241.58 103.259 241.667 103.109 241.755 102.954C241.858 102.777 241.961 102.597 242.067 102.413C242.152 102.263 242.239 102.108 242.326 101.954C242.44 101.753 242.553 101.552 242.669 101.344C242.74 101.212 242.814 101.078 242.888 100.945C243.023 100.7 243.158 100.454 243.296 100.201L243.408 99.9922C244.155 98.6097 244.934 97.1048 245.711 95.5172L245.74 95.462C245.929 95.0748 246.118 94.6831 246.305 94.2881L246.366 94.1591C246.553 93.7641 246.739 93.3669 246.925 92.9631L246.974 92.8539C247.165 92.439 247.354 92.0198 247.557 91.5619C250.702 84.4633 253.264 76.5318 252.544 70.8013C252.5 70.4603 252.444 70.1283 252.377 69.8039L252.363 69.7487C252.218 69.0724 252.019 68.4325 251.745 67.8158C251.615 67.5223 251.472 67.2365 251.311 66.9651L251.169 66.7544C251.037 66.5492 250.908 66.3429 250.756 66.1531C250.548 65.8894 250.323 65.6412 250.075 65.4073L249.979 65.3333C249.982 70.8597 247.647 77.8425 244.841 84.1754C244.637 84.6365 244.447 85.058 244.255 85.4761L244.204 85.5865C244.018 85.9925 243.83 86.3941 243.641 86.7913L243.58 86.9204C243.392 87.3186 243.202 87.7136 243.011 88.1031L242.983 88.1582C242.199 89.7591 241.415 91.2739 240.662 92.6674L240.55 92.877C240.411 93.133 240.275 93.3801 240.139 93.6262C240.064 93.7619 239.99 93.8965 239.916 94.0278C239.8 94.2374 239.685 94.4404 239.573 94.6423C239.484 94.799 239.397 94.9545 239.311 95.1057C239.205 95.291 239.101 95.472 238.997 95.6507C238.908 95.8063 238.821 95.9574 238.734 96.1075C238.639 96.2685 238.546 96.4285 238.454 96.583C238.362 96.7419 238.271 96.8919 238.182 97.0431C238.099 97.1821 238.016 97.3211 237.936 97.4535C237.843 97.609 237.753 97.7536 237.663 97.9003C237.594 98.0129 237.522 98.1298 237.456 98.2379C237.328 98.4464 237.206 98.6395 237.087 98.826L237.025 98.9275C234.862 102.323 232.536 105.559 230.082 108.652C228.593 110.527 227.064 112.359 225.47 114.118C212.885 128.009 197.157 138.089 179.243 143.011C177.25 143.558 175.231 144.042 173.185 144.46C169.093 145.297 164.899 145.87 160.613 146.166C158.47 146.314 156.304 146.393 154.117 146.4C153.107 146.403 152.096 146.381 151.083 146.339C134.993 145.729 118.233 141.312 104.141 133.824C89.1917 125.881 80.3492 115.696 69.3924 102.948C63.8411 96.4903 55.1223 88.497 47.1354 82.9926C47.0206 83.178 46.876 83.3678 46.7799 83.5498L46.6916 83.7484C46.516 84.1037 46.367 84.4545 46.2599 84.8009C46.2268 84.9068 46.2102 85.0106 46.1837 85.1154C46.1053 85.421 46.0446 85.7255 46.0159 86.0245C46.0071 86.1326 46.006 86.2407 46.0026 86.3477C45.9938 86.5949 46.0082 86.8398 46.0302 87.0836C55.1134 92.1533 66.6223 102.326 73.3891 110.198C84.2653 122.853 93.0438 132.964 107.884 140.848C121.873 148.281 138.511 152.667 154.482 153.272C155.489 153.314 156.494 153.336 157.494 153.333C159.666 153.325 161.816 153.248 163.944 153.1C168.198 152.807 172.362 152.237 176.423 151.408C178.455 150.992 180.459 150.512 182.437 149.968C200.22 145.083 215.834 135.076 228.328 121.286Z" fill="#F4DD28"/>
<path fill-rule="evenodd" clip-rule="evenodd" d="M225.6 114.554C227.192 112.804 228.721 110.982 230.209 109.117C232.663 106.04 234.987 102.821 237.149 99.4433L237.212 99.3423C237.33 99.1568 237.453 98.9648 237.581 98.7573C237.647 98.6498 237.719 98.5334 237.787 98.4215C237.878 98.2755 237.967 98.1318 238.061 97.977C238.14 97.8453 238.223 97.707 238.306 97.5687C238.395 97.4184 238.486 97.2691 238.578 97.1111C238.67 96.9574 238.763 96.7983 238.858 96.6381C238.945 96.4888 239.032 96.3385 239.121 96.1837C239.225 96.0059 239.329 95.8259 239.435 95.6415C239.521 95.4912 239.608 95.3364 239.696 95.1806C239.809 94.9798 239.924 94.7778 240.04 94.5693C240.114 94.4387 240.188 94.3048 240.263 94.1698C240.398 93.9251 240.534 93.6792 240.673 93.4246L240.786 93.2161C241.538 91.8299 242.322 90.3231 243.106 88.7306L243.133 88.6757C243.324 88.2883 243.514 87.8954 243.703 87.4992L243.763 87.3708C243.952 86.9757 244.14 86.5762 244.326 86.1723L244.377 86.0626C244.569 85.6466 244.759 85.2274 244.963 84.7686C247.442 79.201 249.546 73.1308 250 68C249.053 71.4846 247.679 75.1118 246.148 78.5524C245.943 79.0112 245.753 79.4304 245.561 79.8475L245.51 79.9572C245.325 80.36 245.137 80.7595 244.949 81.1557L244.887 81.283C244.697 81.6803 244.507 82.0732 244.317 82.4606L244.29 82.5155C243.506 84.1069 242.721 85.6148 241.97 86.9999L241.856 87.2095C241.718 87.4641 241.583 87.7088 241.446 87.9547C241.372 88.0875 241.298 88.2236 241.225 88.3542C241.108 88.5627 240.994 88.7646 240.879 88.9655C240.792 89.1202 240.705 89.275 240.619 89.4264C240.512 89.6108 240.408 89.7908 240.307 89.9686C240.217 90.1222 240.129 90.2737 240.041 90.4219C239.947 90.5832 239.854 90.7412 239.763 90.896C239.671 91.0529 239.579 91.2033 239.49 91.3525C239.407 91.4908 239.324 91.6302 239.245 91.7619C239.151 91.9155 239.062 92.0604 238.972 92.2053C238.903 92.3172 238.832 92.4347 238.765 92.5422C238.637 92.7485 238.514 92.9417 238.396 93.1272L238.333 93.2281C236.172 96.6062 233.847 99.8241 231.394 102.9C229.905 104.767 228.375 106.589 226.785 108.337C214.203 122.156 198.481 132.183 180.574 137.08C178.582 137.624 176.564 138.105 174.517 138.521C170.428 139.353 166.236 139.923 161.952 140.217C159.809 140.366 157.644 140.444 155.457 140.451C154.45 140.455 153.438 140.433 152.423 140.391C136.341 139.783 119.588 135.388 105.501 127.94C90.5576 120.04 81.7185 109.908 70.7659 97.2274C67.1802 93.0756 62.2679 88.2927 57.0885 83.9477C55.646 83.3792 54.2024 82.938 52.7622 82.6966C52.6275 82.6735 52.4995 82.656 52.3693 82.6373C52.1905 82.6121 52.0139 82.5879 51.8439 82.5693C51.7225 82.5561 51.6056 82.5451 51.4897 82.5352C51.3219 82.5221 51.1586 82.51 51.0008 82.5034C50.897 82.4979 50.7933 82.4935 50.6928 82.4902C50.5295 82.487 50.3728 82.487 50.2194 82.4891L49.9799 82.4935C49.8022 82.5001 49.6355 82.5111 49.4744 82.5254L49.3431 82.5352C48.7107 82.5978 48.2074 82.7108 47.8212 82.8305C47.6258 83.0895 47.4901 83.3386 47.3333 83.5921C55.3171 89.0675 64.0326 97.0189 69.5817 103.443C80.5343 116.124 89.3734 126.255 104.317 134.156C118.404 141.605 135.157 145.999 151.24 146.606C152.254 146.648 153.264 146.67 154.273 146.667C156.46 146.66 158.625 146.581 160.767 146.434C165.051 146.14 169.244 145.569 173.334 144.737C175.379 144.321 177.398 143.839 179.39 143.295C197.297 138.399 213.019 128.372 225.6 114.554Z" fill="#F4E92A"/>
<path fill-rule="evenodd" clip-rule="evenodd" d="M70.3671 96.4892C81.338 109.254 90.1919 119.453 105.16 127.405C119.271 134.903 136.052 139.327 152.161 139.939C153.177 139.981 154.191 140.003 155.2 140C157.39 139.992 159.559 139.914 161.706 139.764C165.997 139.468 170.197 138.894 174.292 138.056C176.342 137.638 178.364 137.154 180.359 136.606C198.296 131.676 214.045 121.583 226.648 107.673C228.241 105.913 229.773 104.079 231.264 102.2C233.722 99.1031 236.051 95.8639 238.215 92.4634L238.278 92.3618C238.397 92.1751 238.519 91.9807 238.648 91.773C238.715 91.6647 238.786 91.5465 238.855 91.4338C238.945 91.288 239.035 91.1421 239.129 90.9875C239.208 90.8549 239.291 90.7146 239.374 90.5754C239.464 90.4251 239.555 90.2738 239.647 90.1158C239.739 89.96 239.832 89.8009 239.926 89.6385C240.014 89.4894 240.102 89.3369 240.192 89.1823C240.294 89.0033 240.398 88.8221 240.505 88.6365C240.591 88.484 240.678 88.3283 240.766 88.1725C240.881 87.9703 240.995 87.767 241.112 87.5571C241.185 87.4257 241.259 87.2887 241.333 87.155C241.47 86.9075 241.606 86.6612 241.744 86.4049L241.858 86.1938C242.611 84.7996 243.397 83.2817 244.182 81.6797L244.209 81.6245C244.4 81.2345 244.59 80.839 244.78 80.4391L244.842 80.3109C245.031 79.9121 245.219 79.51 245.404 79.1045L245.455 78.994C245.648 78.5742 245.838 78.1522 246.043 77.6904C247.577 74.2269 248.953 70.5756 249.902 67.068C249.962 66.3886 250 65.7224 250 65.0805C249.821 64.9236 249.637 64.7767 249.439 64.6552C249.343 64.5955 249.236 64.5546 249.135 64.5038C248.996 64.4331 248.859 64.3591 248.713 64.3038C248.569 64.2508 248.417 64.2166 248.267 64.1779C248.153 64.1481 248.04 64.1116 247.922 64.0895C247.739 64.0564 247.548 64.0409 247.357 64.0254L247.074 64.0022C246.853 63.9956 246.624 64.0044 246.392 64.0188L246.178 64.0321C245.917 64.0553 245.651 64.0939 245.379 64.1425L245.239 64.168C244.942 64.2254 244.638 64.2972 244.329 64.3823L244.259 64.4011C243.93 64.4939 243.593 64.601 243.241 64.7259C236.809 67.0128 228.164 74.2755 221.786 80.2977L221.714 80.3651C220.597 81.4201 219.552 82.4343 218.601 83.3767L218.438 83.5402C217.986 83.9887 217.55 84.4251 217.14 84.8416C216.739 85.2482 216.371 85.6282 216.021 85.9895L215.819 86.1994C215.489 86.543 215.176 86.8711 214.902 87.1627C207.874 94.631 199.951 100.55 191.414 105.031C189.992 105.778 188.551 106.485 187.095 107.153C182.727 109.154 178.219 110.803 173.603 112.109C172.065 112.544 170.514 112.943 168.953 113.303C165.831 114.023 162.667 114.594 159.471 115.021C157.872 115.233 156.267 115.41 154.654 115.551C143.366 116.535 131.754 115.766 120.264 113.419C118.622 113.084 116.984 112.716 115.347 112.317C112.077 111.519 108.823 110.594 105.593 109.547C100.748 107.974 94.7255 107.389 90.0327 105.28C86.903 103.874 83.8154 102.351 80.7786 100.717C72.9451 96.4981 65.4244 86.5783 56.6667 83.1215C61.8547 87.4953 66.7753 92.3099 70.3671 96.4892Z" fill="#F9F39A"/>
<path fill-rule="evenodd" clip-rule="evenodd" d="M253.754 71.0504C252.817 72.4795 249.481 72.2719 246.304 70.587C243.126 68.902 241.31 66.3783 242.246 64.9492C243.183 63.5211 246.518 63.7276 249.696 65.4126C252.874 67.0975 254.69 69.6213 253.754 71.0504Z" fill="#8D5C38"/>
<path fill-rule="evenodd" clip-rule="evenodd" d="M52.4981 86.4262C52.9494 86.0648 53.4463 85.7102 54 85.3622C53.7661 85.5088 53.5499 85.6382 53.3489 85.7555L53.1985 85.8382C53.0544 85.9195 52.9115 85.9995 52.7851 86.0648L52.6776 86.1195C52.5474 86.1862 52.4197 86.2488 52.3097 86.3008L52.2604 86.3222C52.1365 86.3782 52.0227 86.4288 51.9241 86.4675H51.9229C51.7345 86.4942 51.5904 86.5248 51.4918 86.5555L51.4829 86.5568L51.3337 86.6262V86.6275C51.3236 86.6568 51.517 86.6302 51.9229 86.4675H51.9267C52.0847 86.4462 52.2781 86.4315 52.4981 86.4262Z" fill="#F9F399"/>
<path fill-rule="evenodd" clip-rule="evenodd" d="M216.497 174.337C218.506 173.09 220.476 171.755 222.419 170.366C225.621 168.078 228.74 165.616 231.745 162.956L231.834 162.877C231.997 162.731 232.169 162.579 232.349 162.414L232.64 162.147C232.766 162.032 232.891 161.918 233.024 161.795C233.137 161.69 233.254 161.579 233.373 161.469C233.5 161.348 233.628 161.229 233.76 161.104C233.889 160.98 234.022 160.852 234.158 160.724C234.283 160.604 234.408 160.483 234.537 160.359C234.684 160.216 234.834 160.071 234.987 159.923C235.111 159.801 235.238 159.677 235.364 159.551C235.529 159.389 235.694 159.226 235.864 159.057C235.969 158.951 236.078 158.842 236.187 158.733C236.384 158.534 236.582 158.334 236.786 158.127L236.953 157.958C238.056 156.829 239.226 155.593 240.416 154.276L240.457 154.229C240.748 153.908 241.038 153.582 241.329 153.253L241.423 153.146C241.714 152.817 242.004 152.483 242.293 152.147L242.373 152.055C242.671 151.706 242.97 151.355 243.292 150.969C248.294 144.988 252.965 138.041 253.857 132.311C253.909 131.97 253.947 131.634 253.971 131.302L253.975 131.246C254.021 130.552 254.006 129.88 253.912 129.211C253.868 128.889 253.809 128.574 253.728 128.268L253.651 128.025C253.58 127.791 253.512 127.556 253.419 127.331C253.291 127.02 253.143 126.717 252.967 126.423C252.823 126.181 252.656 125.961 252.472 125.76L252.221 125.531C252.106 125.425 251.996 125.314 251.868 125.221C251.746 125.13 251.608 125.056 251.474 124.976C251.371 124.916 251.274 124.85 251.165 124.797C250.999 124.713 250.819 124.646 250.639 124.578L250.372 124.479C250.161 124.41 249.938 124.356 249.711 124.306L249.5 124.259C249.244 124.209 248.975 124.174 248.699 124.145L248.557 124.131C248.255 124.103 247.942 124.089 247.621 124.085H247.549C247.205 124.083 246.851 124.093 246.478 124.116C239.644 124.545 229.301 129.156 221.485 133.198L221.398 133.244C220.029 133.953 218.741 134.642 217.564 135.288L217.361 135.399C216.801 135.707 216.261 136.006 215.75 136.296C215.251 136.577 214.791 136.841 214.354 137.092L214.101 137.239C213.688 137.479 213.295 137.708 212.949 137.914C204.11 143.172 194.835 146.688 185.364 148.649C183.786 148.975 182.202 149.26 180.614 149.5C175.85 150.224 171.047 150.567 166.236 150.552C164.633 150.546 163.027 150.501 161.423 150.418C158.213 150.249 155.006 149.926 151.806 149.454C150.207 149.218 148.61 148.944 147.016 148.634C135.862 146.466 124.88 142.518 114.452 137.082C112.963 136.306 111.484 135.499 110.018 134.663C107.086 132.99 104.204 131.199 101.38 129.298C97.1451 126.445 91.5007 124.217 87.5582 120.889C84.9306 118.669 82.3761 116.348 79.9015 113.934C72.46 106.676 67.0274 92.3687 57.6932 87.9057C57.5691 87.8459 57.4504 87.7939 57.3296 87.7396C57.1644 87.6654 57.0003 87.5934 56.8418 87.528C56.7287 87.4815 56.6189 87.4394 56.5092 87.3973C56.3506 87.3375 56.1965 87.281 56.0468 87.2312L55.7519 87.1337C55.5945 87.0838 55.4437 87.0417 55.2951 87.0019L55.0634 86.9387C54.8905 86.8966 54.7253 86.8612 54.5656 86.8302L54.437 86.8036C53.8084 86.6884 53.2906 86.6585 52.8848 86.6684C52.4347 87.0096 52.0444 87.3574 51.7041 87.7119L51.5644 87.8792C51.2961 88.1738 51.0555 88.4718 50.8548 88.7764L50.6952 89.0578C50.5344 89.3325 50.3914 89.6083 50.2816 89.8896C50.2417 89.9915 50.2118 90.0957 50.1785 90.1976C50.1009 90.4335 50.0466 90.6728 50 90.9154C57.3651 98.3192 65.657 111.32 70.0075 120.789C77.0023 136.011 82.6744 148.196 94.8157 159.908C106.261 170.951 121.106 179.785 136.355 184.786C137.315 185.104 138.279 185.404 139.246 185.678C141.344 186.271 143.441 186.79 145.535 187.236C149.725 188.129 153.901 188.731 158.051 189.053C160.127 189.215 162.195 189.306 164.256 189.328C182.774 189.53 200.617 184.191 216.497 174.337Z" fill="#F9F399"/>
<path fill-rule="evenodd" clip-rule="evenodd" d="M216.497 174.444C218.506 173.206 220.476 171.88 222.419 170.501C225.621 168.229 228.74 165.785 231.745 163.144L231.834 163.065C231.997 162.92 232.169 162.77 232.349 162.606L232.64 162.341C232.766 162.226 232.891 162.113 233.024 161.991C233.137 161.886 233.254 161.776 233.373 161.668C233.5 161.548 233.628 161.429 233.76 161.305C233.889 161.181 234.022 161.055 234.158 160.927C234.283 160.809 234.408 160.689 234.537 160.566C234.684 160.424 234.834 160.28 234.987 160.132C235.111 160.011 235.238 159.888 235.364 159.763C235.529 159.602 235.694 159.44 235.864 159.272C235.969 159.168 236.078 159.059 236.187 158.951C236.384 158.753 236.582 158.555 236.786 158.349L236.953 158.181C238.056 157.06 239.226 155.833 240.416 154.525L240.457 154.479C240.748 154.16 241.038 153.837 241.329 153.51L241.423 153.404C241.714 153.077 242.004 152.746 242.293 152.412L242.373 152.32C242.671 151.974 242.97 151.625 243.292 151.242C248.294 145.303 252.965 138.407 253.857 132.717C253.909 132.378 253.947 132.045 253.971 131.715L253.975 131.659C254.021 130.971 254.006 130.303 253.912 129.639C253.868 129.32 253.809 129.006 253.728 128.703L253.651 128.462C253.58 128.229 253.512 127.996 253.419 127.772C253.291 127.463 253.143 127.163 252.967 126.871L252.895 126.774C251.367 132.069 247.179 138.119 242.717 143.417C242.392 143.803 242.093 144.155 241.79 144.504L241.711 144.596C241.419 144.933 241.127 145.266 240.834 145.596L240.74 145.702C240.446 146.032 240.155 146.358 239.862 146.679L239.82 146.726C238.62 148.043 237.443 149.279 236.331 150.408L236.163 150.578C235.959 150.785 235.759 150.984 235.559 151.183C235.452 151.292 235.342 151.401 235.234 151.507C235.064 151.676 234.897 151.84 234.732 152.001C234.603 152.127 234.476 152.252 234.351 152.373C234.198 152.523 234.047 152.667 233.898 152.81C233.769 152.934 233.642 153.056 233.516 153.175C233.379 153.303 233.246 153.431 233.116 153.554C232.981 153.68 232.853 153.8 232.725 153.919C232.606 154.029 232.487 154.14 232.373 154.246C232.24 154.369 232.114 154.482 231.987 154.599L231.693 154.865C231.511 155.029 231.339 155.182 231.174 155.328L231.086 155.407C228.058 158.069 224.917 160.53 221.69 162.819C219.734 164.208 217.749 165.543 215.726 166.79C199.728 176.646 181.754 181.987 163.099 181.784C161.024 181.761 158.939 181.671 156.849 181.509C152.669 181.187 148.461 180.585 144.241 179.692C142.133 179.246 140.019 178.727 137.905 178.133C136.932 177.859 135.961 177.56 134.993 177.242C119.632 172.239 104.678 163.403 93.1482 152.36C80.9182 140.645 75.204 128.457 68.1582 113.233C64.5882 105.52 58.3873 95.4666 52.2008 88C52.0389 88.1452 51.8471 88.287 51.7041 88.4355L51.5644 88.6016C51.2961 88.8941 51.0555 89.19 50.8548 89.4924L50.6952 89.7718C50.5344 90.0445 50.3914 90.3184 50.2816 90.5978C50.2417 90.6989 50.2118 90.8023 50.1785 90.9035C50.1009 91.1378 50.0466 91.3753 50 91.6162C57.3651 98.9673 65.657 111.875 70.0075 121.277C77.0012 136.391 82.6744 148.489 94.8157 160.118C106.261 171.082 121.106 179.853 136.355 184.819C137.315 185.134 138.279 185.432 139.246 185.704C141.344 186.292 143.441 186.808 145.535 187.251C149.725 188.138 153.901 188.735 158.051 189.055C160.127 189.216 162.195 189.306 164.256 189.328C182.774 189.529 200.617 184.228 216.497 174.444Z" fill="#F4DD28"/>
<path fill-rule="evenodd" clip-rule="evenodd" d="M214.818 166.29C216.84 165.04 218.824 163.701 220.781 162.307C224.006 160.012 227.146 157.544 230.174 154.874L230.262 154.795C230.427 154.648 230.599 154.495 230.781 154.33L231.075 154.064C231.202 153.947 231.327 153.833 231.46 153.709C231.575 153.604 231.693 153.492 231.813 153.382C231.94 153.262 232.069 153.141 232.203 153.016C232.334 152.892 232.467 152.764 232.603 152.635C232.73 152.516 232.856 152.394 232.986 152.269C233.134 152.126 233.285 151.981 233.438 151.831C233.563 151.71 233.691 151.584 233.819 151.458C233.984 151.296 234.151 151.132 234.321 150.963C234.429 150.856 234.539 150.747 234.646 150.638C234.846 150.438 235.046 150.238 235.25 150.031L235.418 149.86C236.529 148.728 237.706 147.488 238.906 146.167L238.948 146.121C239.24 145.799 239.532 145.471 239.826 145.14L239.92 145.034C240.213 144.703 240.504 144.369 240.797 144.032L240.875 143.939C241.178 143.589 241.477 143.236 241.802 142.849C245.746 138.154 249.466 132.869 251.333 128.038C249.45 131.144 247.112 134.27 244.676 137.171C244.351 137.558 244.051 137.911 243.75 138.26L243.671 138.352C243.378 138.691 243.086 139.025 242.794 139.355L242.699 139.462C242.405 139.793 242.112 140.12 241.822 140.441L241.78 140.488C240.581 141.809 239.403 143.049 238.291 144.181L238.124 144.353C237.918 144.56 237.72 144.76 237.52 144.959C237.41 145.068 237.303 145.178 237.195 145.284C237.025 145.453 236.859 145.617 236.692 145.78C236.565 145.906 236.436 146.03 236.311 146.152C236.157 146.302 236.008 146.447 235.859 146.591C235.73 146.715 235.603 146.837 235.476 146.956C235.341 147.086 235.207 147.213 235.076 147.336C234.943 147.463 234.815 147.583 234.685 147.704C234.567 147.814 234.448 147.925 234.335 148.03C234.202 148.154 234.075 148.268 233.948 148.384L233.655 148.652C233.473 148.817 233.302 148.97 233.136 149.115L233.047 149.196C230.02 151.864 226.879 154.333 223.655 156.629C221.698 158.022 219.713 159.361 217.691 160.611C201.698 170.496 183.729 175.851 165.077 175.648C163.002 175.626 160.92 175.535 158.83 175.374C154.649 175.051 150.443 174.447 146.225 173.55C144.116 173.104 142.003 172.582 139.889 171.986C138.916 171.713 137.945 171.413 136.979 171.093C121.622 166.076 106.671 157.215 95.1448 146.138C82.9167 134.389 77.2039 122.167 70.1599 106.898C67.8543 101.899 64.4426 95.926 60.654 90.3007C59.4182 89.3543 58.1468 88.5303 56.8245 87.9005C56.7003 87.8409 56.5817 87.7891 56.4609 87.7351C56.2957 87.6611 56.1317 87.5895 55.9732 87.5244C55.8601 87.478 55.7504 87.4361 55.6407 87.3942C55.4822 87.3347 55.3281 87.2784 55.1785 87.2288L54.8836 87.1317C54.7262 87.0821 54.5755 87.0402 54.4269 87.0004L54.1953 86.9376C54.0224 86.8957 53.8572 86.8604 53.6976 86.8295L53.569 86.803C52.9406 86.6883 52.4229 86.6585 52.0172 86.6684C51.7568 86.8648 51.5561 87.0688 51.3333 87.2707C57.5183 94.759 63.7177 104.842 67.2868 112.577C74.3308 127.845 80.0436 140.069 92.2706 151.818C103.797 162.893 118.747 171.755 134.105 176.772C135.072 177.091 136.043 177.391 137.016 177.666C139.13 178.261 141.243 178.782 143.351 179.23C147.57 180.125 151.776 180.729 155.956 181.052C158.045 181.214 160.129 181.305 162.204 181.328C180.854 181.531 198.824 176.174 214.818 166.29Z" fill="#F4E92A"/>
<path fill-rule="evenodd" clip-rule="evenodd" d="M71.4732 107.26C78.493 122.525 84.1862 134.745 96.3723 146.491C107.859 157.565 122.758 166.425 138.063 171.44C139.026 171.76 139.994 172.06 140.963 172.333C143.07 172.929 145.175 173.45 147.277 173.897C151.481 174.794 155.673 175.397 159.839 175.72C161.921 175.881 163.997 175.972 166.065 175.994C184.652 176.197 202.56 170.843 218.498 160.961C220.514 159.711 222.491 158.372 224.442 156.98C227.655 154.684 230.784 152.216 233.801 149.548L233.89 149.468C234.055 149.322 234.226 149.169 234.407 149.005L234.699 148.737C234.826 148.621 234.952 148.506 235.085 148.383C235.197 148.278 235.316 148.166 235.434 148.056C235.563 147.936 235.691 147.816 235.823 147.689C235.954 147.565 236.087 147.439 236.222 147.308C236.348 147.189 236.475 147.068 236.603 146.943C236.752 146.8 236.9 146.655 237.054 146.505C237.179 146.383 237.307 146.259 237.434 146.133C237.6 145.97 237.765 145.807 237.936 145.637C238.043 145.531 238.15 145.422 238.259 145.313C238.458 145.113 238.656 144.913 238.861 144.706L239.027 144.534C240.136 143.403 241.309 142.163 242.504 140.842L242.546 140.796C242.836 140.475 243.127 140.147 243.42 139.816L243.515 139.709C243.805 139.38 244.097 139.046 244.389 138.707L244.467 138.614C244.768 138.266 245.067 137.913 245.391 137.526C247.819 134.626 250.148 131.501 252.025 128.395C252.27 127.76 252.49 127.131 252.667 126.515C252.539 126.314 252.403 126.123 252.246 125.953L251.995 125.724C251.881 125.618 251.771 125.508 251.644 125.416C251.522 125.325 251.384 125.251 251.252 125.172C251.149 125.112 251.052 125.046 250.943 124.993C250.778 124.91 250.599 124.843 250.419 124.776L250.154 124.677C249.943 124.608 249.721 124.554 249.494 124.505L249.284 124.458C249.029 124.409 248.762 124.373 248.487 124.345L248.345 124.33C248.044 124.303 247.732 124.289 247.412 124.285H247.34C246.998 124.283 246.645 124.293 246.273 124.316C239.464 124.743 229.159 129.334 221.373 133.358L221.286 133.403C219.921 134.109 218.639 134.794 217.466 135.437L217.264 135.549C216.706 135.855 216.168 136.153 215.659 136.441C215.162 136.721 214.703 136.983 214.268 137.234L214.016 137.38C213.604 137.619 213.213 137.847 212.868 138.052C204.061 143.287 194.82 146.787 185.385 148.739C183.813 149.064 182.234 149.347 180.652 149.587C175.906 150.307 171.121 150.649 166.327 150.633C164.729 150.628 163.13 150.583 161.531 150.5C158.334 150.332 155.138 150.01 151.95 149.54C150.357 149.306 148.765 149.033 147.178 148.724C136.065 146.566 125.123 142.635 114.733 137.224C113.25 136.451 111.776 135.648 110.316 134.815C107.394 133.15 104.523 131.367 101.71 129.475C97.4902 126.634 91.8666 124.416 87.9386 121.103C85.3207 118.893 82.7756 116.582 80.3101 114.18C73.9464 107.978 69.4573 96.3933 62 90.6667C65.7756 96.2907 69.1756 102.262 71.4732 107.26Z" fill="#F9F39A"/>
<path fill-rule="evenodd" clip-rule="evenodd" d="M253.461 132.818C252.258 134.08 249.437 132.945 247.157 130.284C244.878 127.623 244.004 124.444 245.207 123.182C246.408 121.921 249.23 123.054 251.51 125.715C253.789 128.376 254.662 131.556 253.461 132.818Z" fill="#8D5C38"/>
<path fill-rule="evenodd" clip-rule="evenodd" d="M57.7415 88.94C58.2303 88.7373 58.7574 88.5533 59.3333 88.3933C59.0907 88.4613 58.8666 88.5173 58.6611 88.5653L58.5078 88.5973C58.3604 88.6307 58.2141 88.6627 58.0864 88.6853L57.9772 88.7027C57.846 88.7253 57.7195 88.7467 57.608 88.7613L57.5592 88.7667C57.4373 88.7813 57.3235 88.7933 57.2272 88.8H57.226C57.053 88.7653 56.9195 88.7507 56.8255 88.7493L56.8173 88.748L56.6687 88.7667L56.6676 88.768C56.6525 88.7933 56.8278 88.828 57.226 88.8L57.2295 88.8013C57.3735 88.8307 57.5476 88.8773 57.7415 88.94Z" fill="#F9F399"/>
<path fill-rule="evenodd" clip-rule="evenodd" d="M187.653 219.358C189.932 218.767 192.199 218.079 194.457 217.333C198.177 216.105 201.87 214.687 205.513 213.047L205.621 212.998C205.821 212.907 206.027 212.813 206.247 212.712C206.362 212.658 206.484 212.599 206.605 212.543C206.757 212.471 206.91 212.399 207.071 212.322C207.211 212.256 207.356 212.184 207.5 212.115C207.658 212.039 207.813 211.962 207.978 211.883C208.137 211.804 208.302 211.722 208.468 211.64C208.622 211.562 208.777 211.485 208.936 211.405C209.119 211.313 209.303 211.219 209.492 211.123C209.645 211.044 209.803 210.964 209.962 210.882C210.166 210.776 210.372 210.67 210.583 210.56C210.714 210.49 210.85 210.419 210.984 210.347C211.232 210.218 211.48 210.087 211.734 209.95L211.943 209.837C213.324 209.092 214.801 208.263 216.324 207.362L216.377 207.332C216.747 207.113 217.119 206.888 217.494 206.661L217.614 206.588C217.988 206.361 218.362 206.13 218.738 205.895L218.84 205.832C219.227 205.588 219.614 205.343 220.036 205.072C226.559 200.869 233.053 195.652 235.594 190.478C235.744 190.17 235.88 189.861 235.999 189.554L236.02 189.501C236.269 188.856 236.455 188.215 236.563 187.551C236.615 187.234 236.652 186.917 236.667 186.602L236.664 186.349C236.667 186.107 236.671 185.864 236.648 185.623C236.619 185.289 236.567 184.958 236.488 184.628C236.422 184.355 236.329 184.098 236.213 183.853C236.166 183.751 236.098 183.659 236.042 183.561C235.964 183.427 235.892 183.289 235.799 183.164C235.709 183.042 235.599 182.93 235.496 182.815L235.256 182.554C235.122 182.427 234.97 182.31 234.819 182.192L234.595 182.018C234.415 181.892 234.218 181.774 234.016 181.659L233.831 181.554C233.601 181.432 233.357 181.318 233.102 181.21L232.972 181.154C232.693 181.04 232.4 180.934 232.094 180.836L232.027 180.814C231.701 180.711 231.361 180.616 230.999 180.528C224.375 178.923 213.178 180.254 204.553 181.789L204.455 181.807C202.945 182.077 201.517 182.351 200.207 182.617L199.982 182.663C199.358 182.791 198.755 182.916 198.185 183.04C197.627 183.16 197.112 183.274 196.623 183.385L196.338 183.449C195.874 183.555 195.432 183.658 195.043 183.751C185.084 186.138 175.227 186.743 165.642 185.816C164.045 185.661 162.456 185.464 160.875 185.227C156.131 184.51 151.463 183.422 146.893 181.991C145.37 181.513 143.858 180.998 142.356 180.447C139.355 179.343 136.4 178.091 133.498 176.701C132.047 176.007 130.61 175.276 129.186 174.514C119.221 169.173 109.945 162.193 101.637 153.964C100.45 152.789 99.2825 151.588 98.1357 150.363C95.842 147.913 93.6311 145.365 91.5084 142.729C88.3251 138.775 83.6162 134.999 80.8523 130.679C79.01 127.8 77.266 124.847 75.6258 121.827C70.6973 112.749 69.759 97.5733 62.2035 90.5898C62.1019 90.4973 62.0059 90.4115 61.9066 90.3256C61.7708 90.2057 61.6372 90.089 61.5048 89.9811L61.2266 89.7588C61.0942 89.6553 60.965 89.5574 60.837 89.4649L60.5853 89.2855C60.4506 89.1931 60.3193 89.1072 60.1912 89.0258L59.987 88.8981C59.8358 88.8068 59.689 88.7253 59.5466 88.6483L59.4329 88.5855C58.8678 88.2917 58.3854 88.1101 57.9969 88C57.4671 88.1904 56.9946 88.4072 56.5652 88.6428L56.3831 88.7605C56.0409 88.9609 55.7241 89.1733 55.4438 89.4022L55.2087 89.6234C54.9758 89.8359 54.7572 90.056 54.5696 90.2904L54.3797 90.5524C54.2373 90.7538 54.1148 90.9651 54 91.1808C58.8137 100.376 62.8558 115.153 64.1936 125.419C66.3461 141.922 68.1387 155.155 76.2207 169.844C83.8403 183.691 95.3442 196.444 108.365 205.68C109.184 206.265 110.012 206.832 110.85 207.377C112.67 208.558 114.511 209.668 116.371 210.707C120.089 212.789 123.882 214.589 127.733 216.116C129.659 216.88 131.599 217.575 133.55 218.203C151.099 223.847 169.641 224.034 187.653 219.358Z" fill="#F9F399"/>
<path fill-rule="evenodd" clip-rule="evenodd" d="M187.653 220.682C189.932 220.09 192.199 219.4 194.457 218.652C198.177 217.42 201.87 215.998 205.513 214.354L205.621 214.304C205.821 214.214 206.027 214.119 206.247 214.017C206.362 213.963 206.484 213.905 206.605 213.848C206.757 213.776 206.91 213.704 207.071 213.627C207.211 213.56 207.356 213.489 207.5 213.419C207.658 213.343 207.813 213.266 207.978 213.186C208.137 213.107 208.302 213.025 208.468 212.942C208.622 212.865 208.777 212.788 208.936 212.707C209.119 212.615 209.303 212.521 209.492 212.425C209.645 212.345 209.803 212.265 209.962 212.183C210.166 212.076 210.372 211.97 210.583 211.86C210.714 211.79 210.85 211.718 210.984 211.647C211.232 211.516 211.48 211.385 211.734 211.248L211.943 211.135C213.324 210.387 214.801 209.556 216.324 208.653L216.377 208.623C216.747 208.403 217.119 208.178 217.494 207.95L217.614 207.876C217.988 207.649 218.362 207.417 218.738 207.182L218.84 207.118C219.227 206.874 219.614 206.628 220.036 206.357C226.559 202.142 233.053 196.91 235.594 191.722C235.744 191.413 235.88 191.104 235.999 190.796L236.02 190.743C236.269 190.096 236.455 189.453 236.563 188.787C236.615 188.469 236.652 188.151 236.667 187.836L236.664 187.582C236.667 187.339 236.671 187.095 236.648 186.854C236.619 186.519 236.567 186.187 236.488 185.856L236.447 185.741C233.419 190.365 227.636 194.928 221.818 198.688C221.393 198.962 221.003 199.21 220.613 199.455L220.51 199.519C220.132 199.757 219.755 199.991 219.379 200.219L219.256 200.294C218.88 200.524 218.505 200.75 218.132 200.971L218.079 201.003C216.544 201.911 215.059 202.749 213.664 203.501L213.455 203.615C213.199 203.753 212.949 203.886 212.7 204.018C212.565 204.09 212.428 204.161 212.295 204.231C212.082 204.344 211.876 204.451 211.669 204.557C211.51 204.639 211.352 204.721 211.197 204.8C211.007 204.898 210.82 204.993 210.637 205.085C210.476 205.167 210.32 205.245 210.164 205.323C209.998 205.406 209.832 205.489 209.671 205.568C209.505 205.649 209.349 205.725 209.19 205.803C209.045 205.873 208.899 205.945 208.759 206.011C208.596 206.091 208.442 206.162 208.287 206.235C208.168 206.293 208.043 206.351 207.929 206.405C207.707 206.508 207.497 206.604 207.298 206.694L207.19 206.745C203.518 208.401 199.8 209.833 196.051 211.075C193.776 211.828 191.492 212.522 189.196 213.12C171.054 217.843 152.375 217.654 134.697 211.953C132.73 211.319 130.776 210.617 128.836 209.844C124.957 208.301 121.136 206.482 117.389 204.381C115.517 203.331 113.662 202.209 111.83 201.016C110.985 200.466 110.151 199.894 109.326 199.303C96.2084 189.974 84.6196 177.09 76.9448 163.102C68.8031 148.264 66.9973 134.898 64.8294 118.227C63.7312 109.781 60.827 98.3162 57.1679 89.3333C56.9703 89.4249 56.7452 89.5055 56.5652 89.6048L56.3831 89.7229C56.0409 89.9238 55.7241 90.1368 55.4438 90.3664L55.2087 90.5882C54.9758 90.8012 54.7572 91.022 54.5696 91.2571L54.3797 91.5197C54.2373 91.7217 54.1148 91.9336 54 92.1499C58.8137 101.37 62.8558 116.188 64.1936 126.483C66.3461 143.032 68.1387 156.301 76.2207 171.031C83.8403 184.917 95.3442 197.705 108.365 206.966C109.184 207.553 110.012 208.121 110.85 208.668C112.67 209.852 114.511 210.966 116.371 212.008C120.089 214.095 123.882 215.9 127.733 217.431C129.659 218.197 131.599 218.895 133.55 219.524C151.099 225.183 169.641 225.371 187.653 220.682Z" fill="#F4DD28"/>
<path fill-rule="evenodd" clip-rule="evenodd" d="M189.108 212.645C191.412 212.044 193.702 211.348 195.985 210.592C199.745 209.345 203.475 207.907 207.158 206.245L207.266 206.194C207.467 206.103 207.677 206.007 207.9 205.904C208.014 205.85 208.139 205.791 208.259 205.733C208.415 205.66 208.569 205.588 208.732 205.508C208.873 205.442 209.019 205.37 209.164 205.299C209.324 205.221 209.481 205.145 209.647 205.063C209.809 204.984 209.975 204.901 210.142 204.817C210.298 204.739 210.454 204.661 210.616 204.579C210.8 204.486 210.987 204.39 211.178 204.293C211.333 204.213 211.492 204.131 211.651 204.048C211.859 203.942 212.065 203.834 212.279 203.721C212.413 203.651 212.55 203.579 212.685 203.507C212.936 203.374 213.186 203.241 213.443 203.103L213.653 202.989C215.052 202.233 216.542 201.392 218.081 200.48L218.134 200.448C218.508 200.227 218.885 199.999 219.263 199.769L219.385 199.694C219.763 199.464 220.141 199.229 220.52 198.991L220.623 198.927C221.014 198.681 221.406 198.432 221.832 198.157C226.991 194.821 232.115 190.854 235.333 186.772C232.612 189.193 229.452 191.499 226.264 193.561C225.839 193.836 225.447 194.085 225.056 194.331L224.952 194.395C224.572 194.633 224.195 194.867 223.818 195.098L223.695 195.173C223.317 195.402 222.941 195.63 222.567 195.852L222.512 195.884C220.974 196.796 219.483 197.637 218.085 198.393L217.875 198.507C217.617 198.645 217.368 198.778 217.118 198.91C216.982 198.983 216.845 199.055 216.711 199.126C216.498 199.238 216.291 199.346 216.084 199.452C215.924 199.535 215.766 199.617 215.61 199.697C215.419 199.796 215.232 199.89 215.048 199.983C214.887 200.065 214.73 200.144 214.574 200.221C214.407 200.304 214.24 200.387 214.079 200.467C213.913 200.549 213.755 200.627 213.597 200.703C213.451 200.774 213.304 200.846 213.165 200.912C213 200.992 212.847 201.064 212.691 201.137C212.571 201.195 212.446 201.254 212.331 201.308C212.108 201.411 211.899 201.507 211.698 201.598L211.589 201.649C207.908 203.311 204.175 204.749 200.416 205.996C198.134 206.752 195.843 207.449 193.541 208.048C175.341 212.79 156.604 212.601 138.87 206.878C136.898 206.241 134.937 205.535 132.991 204.761C129.1 203.212 125.267 201.387 121.509 199.276C119.63 198.221 117.77 197.095 115.931 195.898C115.084 195.346 114.248 194.771 113.419 194.177C100.262 184.812 88.6366 171.879 80.9378 157.836C72.7707 142.941 70.9592 129.521 68.7845 112.785C68.0726 107.306 66.5966 100.565 64.6567 94.0452C63.7587 92.771 62.792 91.6032 61.718 90.6071C61.6161 90.514 61.5198 90.4276 61.4201 90.3412C61.2839 90.2204 61.15 90.103 61.0171 89.9944L60.7381 89.7706C60.6052 89.6664 60.4756 89.5678 60.3472 89.4747L60.0947 89.2941C59.9597 89.2011 59.8279 89.1146 59.6994 89.0327L59.4946 88.9041C59.3429 88.8122 59.1956 88.7302 59.0528 88.6526L58.9388 88.5895C58.3718 88.2936 57.888 88.1108 57.4982 88C57.1904 88.1119 56.939 88.2482 56.6667 88.3745C60.3372 97.3925 63.2504 108.902 64.3522 117.381C66.5268 134.117 68.3383 147.536 76.5055 162.432C84.2043 176.475 95.8294 189.408 108.988 198.774C109.815 199.367 110.652 199.942 111.499 200.494C113.337 201.691 115.199 202.818 117.077 203.872C120.835 205.982 124.668 207.808 128.559 209.356C130.506 210.132 132.465 210.837 134.439 211.474C152.171 217.197 170.91 217.386 189.108 212.645Z" fill="#F4E92A"/>
<path fill-rule="evenodd" clip-rule="evenodd" d="M68.7981 113.402C70.9747 130.135 72.7877 143.552 80.962 158.443C88.6675 172.483 100.303 185.414 113.472 194.777C114.301 195.371 115.137 195.945 115.985 196.497C117.826 197.695 119.688 198.82 121.569 199.875C125.33 201.985 129.167 203.809 133.061 205.358C135.008 206.132 136.971 206.838 138.944 207.475C156.694 213.197 175.447 213.386 193.663 208.645C195.967 208.045 198.26 207.349 200.544 206.593C204.306 205.347 208.042 203.909 211.727 202.247L211.836 202.197C212.037 202.106 212.247 202.009 212.47 201.906C212.585 201.852 212.71 201.793 212.83 201.736C212.986 201.663 213.139 201.591 213.304 201.511C213.444 201.444 213.59 201.372 213.736 201.301C213.895 201.225 214.053 201.147 214.22 201.066C214.38 200.986 214.548 200.903 214.715 200.82C214.871 200.742 215.027 200.663 215.189 200.581C215.373 200.488 215.561 200.394 215.751 200.296C215.907 200.216 216.066 200.134 216.225 200.051C216.433 199.944 216.64 199.837 216.854 199.725C216.988 199.654 217.124 199.582 217.261 199.509C217.511 199.377 217.76 199.244 218.019 199.106L218.229 198.992C219.628 198.236 221.12 197.396 222.66 196.484L222.714 196.452C223.089 196.229 223.465 196.002 223.843 195.773L223.966 195.697C224.344 195.467 224.721 195.233 225.101 194.995L225.205 194.931C225.597 194.685 225.989 194.436 226.414 194.161C229.605 192.099 232.768 189.794 235.492 187.374C235.915 186.837 236.313 186.299 236.667 185.761C236.603 185.531 236.531 185.307 236.432 185.096C236.384 184.993 236.316 184.901 236.26 184.803C236.181 184.667 236.109 184.529 236.016 184.403C235.925 184.28 235.816 184.167 235.711 184.051L235.471 183.789C235.337 183.66 235.184 183.543 235.032 183.424L234.807 183.249C234.626 183.122 234.429 183.004 234.226 182.888L234.04 182.782C233.81 182.659 233.565 182.545 233.309 182.436L233.178 182.38C232.898 182.265 232.604 182.158 232.296 182.06L232.229 182.038C231.901 181.933 231.56 181.838 231.196 181.75C224.546 180.134 213.304 181.474 204.644 183.019L204.547 183.037C203.031 183.308 201.597 183.584 200.281 183.852L200.055 183.899C199.429 184.027 198.824 184.153 198.251 184.277C197.691 184.398 197.174 184.513 196.683 184.625L196.397 184.69C195.932 184.796 195.487 184.9 195.097 184.993C185.098 187.396 175.201 188.005 165.578 187.072C163.975 186.916 162.379 186.718 160.792 186.479C156.029 185.757 151.342 184.662 146.754 183.222C145.225 182.741 143.706 182.223 142.199 181.668C139.186 180.557 136.219 179.297 133.306 177.898C131.848 177.199 130.406 176.463 128.976 175.697C118.971 170.321 109.658 163.295 101.317 155.014C100.125 153.831 98.9529 152.622 97.8015 151.389C95.4986 148.923 93.2788 146.359 91.1477 143.706C87.9516 139.727 83.2239 135.926 80.4489 131.578C78.5993 128.68 76.8483 125.708 75.2015 122.669C70.9536 114.827 70.1058 102.378 64.6667 94.6667C66.6083 101.185 68.0855 107.924 68.7981 113.402Z" fill="#F9F39A"/>
<path fill-rule="evenodd" clip-rule="evenodd" d="M235.474 191.825C233.902 192.617 231.368 190.651 229.818 187.435C228.266 184.218 228.286 180.968 229.86 180.175C231.433 179.383 233.966 181.349 235.516 184.565C237.066 187.782 237.048 191.032 235.474 191.825Z" fill="#8D5C38"/>
<defs>
<filter id="filter0_d" x="262.055" y="70.6781" width="31.2969" height="161.386" filterUnits="userSpaceOnUse" color-interpolation-filters="sRGB">
<feFlood flood-opacity="0" result="BackgroundImageFix"/>
<feColorMatrix in="SourceAlpha" type="matrix" values="0 0 0 0 0 0 0 0 0 0 0 0 0 0 0 0 0 0 127 0"/>
<feOffset dx="1" dy="1"/>
<feGaussianBlur stdDeviation="1"/>
<feColorMatrix type="matrix" values="0 0 0 0 0 0 0 0 0 0 0 0 0 0 0 0 0 0 0.15 0"/>
<feBlend mode="normal" in2="BackgroundImageFix" result="effect1_dropShadow"/>
<feBlend mode="normal" in="SourceGraphic" in2="effect1_dropShadow" result="shape"/>
</filter>
<radialGradient id="paint0_radial" cx="0" cy="0" r="1" gradientUnits="userSpaceOnUse" gradientTransform="translate(150 150) rotate(90) scale(150)">
<stop offset="0.369792" stop-color="white" stop-opacity="0"/>
<stop offset="1" stop-color="#FFFF00"/>
</radialGradient>
</defs>
</svg>
