<svg width="300" height="300" viewBox="0 0 300 300" fill="none" xmlns="http://www.w3.org/2000/svg">
<rect width="300" height="300" fill="white"/>
<rect width="300" height="300" fill="white"/>
<rect width="300" height="300" fill="white"/>
<rect width="300" height="300" fill="url(#paint0_radial)" fill-opacity="0.2"/>
<g filter="url(#filter0_d)">
<path d="M286.266 178.422C287.402 179.372 288.287 180.713 288.92 182.448C289.541 184.182 289.852 186.104 289.852 188.213C289.852 190.428 289.371 192.374 288.41 194.049C287.437 195.713 286.031 197.003 284.191 197.917C282.352 198.819 280.189 199.282 277.705 199.305L275.965 199.305C273.41 199.305 271.201 198.878 269.338 198.022C267.463 197.155 266.033 195.913 265.049 194.295C264.053 192.667 263.555 190.762 263.555 188.583C263.555 185.547 264.281 183.174 265.734 181.463C267.176 179.753 269.279 178.739 272.045 178.422L272.045 183.555C270.58 183.79 269.508 184.311 268.828 185.12C268.148 185.917 267.809 187.018 267.809 188.424C267.809 190.217 268.482 191.583 269.83 192.52C271.178 193.458 273.182 193.932 275.842 193.944L277.477 193.944C280.16 193.944 282.187 193.434 283.559 192.415C284.93 191.395 285.615 189.901 285.615 187.932C285.615 185.952 285.193 184.54 284.35 183.696L279.937 183.696L279.937 188.495L276.053 188.495L276.053 178.422L286.266 178.422ZM280.131 160.699L280.131 164.9L289.5 164.9L289.5 170.173L263.906 170.173L263.906 160.664C263.906 157.64 264.58 155.308 265.928 153.668C267.275 152.027 269.18 151.207 271.641 151.207C273.387 151.207 274.846 151.587 276.018 152.349C277.178 153.099 278.104 154.242 278.795 155.777L289.254 150.24L289.5 150.24L289.5 155.9L280.131 160.699ZM275.859 164.9L275.859 160.646C275.859 159.322 275.525 158.296 274.857 157.57C274.178 156.843 273.246 156.48 272.062 156.48C270.855 156.48 269.906 156.826 269.215 157.517C268.523 158.197 268.178 159.246 268.178 160.664L268.178 164.9L275.859 164.9ZM278.408 127.823L278.408 137.948L285.264 137.948L285.264 126.065L289.5 126.065L289.5 143.221L263.906 143.221L263.906 126.1L268.178 126.1L268.178 137.948L274.277 137.948L274.277 127.823L278.408 127.823ZM275.437 110.187L263.906 104.861L263.906 99.0952L280.219 107.497L289.5 107.497L289.5 112.859L280.219 112.859L263.906 121.261L263.906 115.478L275.437 110.187Z" fill="white"/>
<path d="M286.266 178.422L286.586 178.039L286.447 177.922L286.266 177.922L286.266 178.422ZM288.92 182.448L289.391 182.279L289.39 182.276L288.92 182.448ZM288.41 194.049L288.842 194.302L288.844 194.298L288.41 194.049ZM284.191 197.917L284.412 198.365L284.414 198.364L284.191 197.917ZM277.705 199.305L277.705 199.805L277.71 199.805L277.705 199.305ZM269.338 198.022L269.128 198.476L269.129 198.476L269.338 198.022ZM265.049 194.295L265.476 194.035L265.475 194.035L265.049 194.295ZM265.734 181.463L266.115 181.787L266.117 181.786L265.734 181.463ZM272.045 178.422L272.545 178.422L272.545 177.862L271.988 177.926L272.045 178.422ZM272.045 183.555L272.124 184.049L272.545 183.982L272.545 183.555L272.045 183.555ZM268.828 185.12L269.209 185.444L269.211 185.441L268.828 185.12ZM275.842 193.944L275.84 194.444L275.842 194.444L275.842 193.944ZM284.35 183.696L284.703 183.342L284.557 183.196L284.35 183.196L284.35 183.696ZM279.937 183.696L279.937 183.196L279.437 183.196L279.437 183.696L279.937 183.696ZM279.937 188.495L279.937 188.995L280.437 188.995L280.437 188.495L279.937 188.495ZM276.053 188.495L275.553 188.495L275.553 188.995L276.053 188.995L276.053 188.495ZM276.053 178.422L276.053 177.922L275.553 177.922L275.553 178.422L276.053 178.422ZM285.945 178.806C287 179.687 287.84 180.947 288.45 182.619L289.39 182.276C288.734 180.48 287.805 179.057 286.586 178.039L285.945 178.806ZM288.449 182.616C289.048 184.289 289.352 186.153 289.352 188.213L290.352 188.213C290.352 186.055 290.034 184.075 289.391 182.279L288.449 182.616ZM289.352 188.213C289.352 190.354 288.888 192.211 287.976 193.801L288.844 194.298C289.854 192.536 290.352 190.503 290.352 188.213L289.352 188.213ZM287.978 193.797C287.058 195.371 285.728 196.595 283.969 197.469L284.414 198.364C286.335 197.41 287.817 196.056 288.842 194.302L287.978 193.797ZM283.971 197.468C282.211 198.331 280.126 198.782 277.7 198.805L277.71 199.805C280.253 199.781 282.492 199.307 284.412 198.365L283.971 197.468ZM277.705 198.805L275.965 198.805L275.965 199.805L277.705 199.805L277.705 198.805ZM275.965 198.805C273.465 198.805 271.33 198.387 269.547 197.568L269.129 198.476C271.072 199.368 273.355 199.805 275.965 199.805L275.965 198.805ZM269.548 197.568C267.754 196.739 266.404 195.56 265.476 194.035L264.622 194.555C265.662 196.265 267.172 197.571 269.128 198.476L269.548 197.568ZM265.475 194.035C264.534 192.495 264.055 190.684 264.055 188.583L263.055 188.583C263.055 190.841 263.572 192.838 264.622 194.556L265.475 194.035ZM264.055 188.583C264.055 185.624 264.762 183.38 266.115 181.787L265.353 181.14C263.8 182.969 263.055 185.471 263.055 188.583L264.055 188.583ZM266.117 181.786C267.457 180.195 269.43 179.225 272.102 178.919L271.988 177.926C269.128 178.253 266.895 179.31 265.352 181.141L266.117 181.786ZM271.545 178.422L271.545 183.555L272.545 183.555L272.545 178.422L271.545 178.422ZM271.966 183.062C270.43 183.307 269.229 183.866 268.445 184.798L269.211 185.441C269.787 184.756 270.73 184.272 272.124 184.049L271.966 183.062ZM268.448 184.795C267.668 185.71 267.309 186.94 267.309 188.424L268.309 188.424C268.309 187.096 268.629 186.124 269.209 185.444L268.448 184.795ZM267.309 188.424C267.309 190.363 268.049 191.89 269.545 192.931L270.116 192.11C268.916 191.275 268.309 190.071 268.309 188.424L267.309 188.424ZM269.545 192.931C271.013 193.952 273.135 194.432 275.84 194.444L275.844 193.444C273.228 193.432 271.343 192.963 270.116 192.11L269.545 192.931ZM275.842 194.444L277.477 194.444L277.477 193.444L275.842 193.444L275.842 194.444ZM277.477 194.444C280.21 194.444 282.363 193.927 283.857 192.816L283.26 192.013C282.012 192.941 280.11 193.444 277.477 193.444L277.477 194.444ZM283.857 192.816C285.375 191.687 286.115 190.032 286.115 187.932L285.115 187.932C285.115 189.77 284.484 191.103 283.26 192.013L283.857 192.816ZM286.115 187.932C286.115 185.902 285.686 184.326 284.703 183.342L283.996 184.049C284.7 184.754 285.115 186.001 285.115 187.932L286.115 187.932ZM284.35 183.196L279.937 183.196L279.937 184.196L284.35 184.196L284.35 183.196ZM279.437 183.696L279.437 188.495L280.437 188.495L280.437 183.696L279.437 183.696ZM279.937 187.995L276.053 187.995L276.053 188.995L279.937 188.995L279.937 187.995ZM276.553 188.495L276.553 178.422L275.553 178.422L275.553 188.495L276.553 188.495ZM276.053 178.922L286.266 178.922L286.266 177.922L276.053 177.922L276.053 178.922ZM280.131 160.699L279.903 160.254L279.631 160.393L279.631 160.699L280.131 160.699ZM280.131 164.9L279.631 164.9L279.631 165.4L280.131 165.4L280.131 164.9ZM289.5 164.9L290 164.9L290 164.4L289.5 164.4L289.5 164.9ZM289.5 170.173L289.5 170.673L290 170.673L290 170.173L289.5 170.173ZM263.906 170.173L263.406 170.173L263.406 170.673L263.906 170.673L263.906 170.173ZM276.018 152.349L275.745 152.768L275.746 152.769L276.018 152.349ZM278.795 155.777L278.339 155.982L278.558 156.468L279.029 156.219L278.795 155.777ZM289.254 150.24L289.254 149.74L289.13 149.74L289.02 149.798L289.254 150.24ZM289.5 150.24L290 150.24L290 149.74L289.5 149.74L289.5 150.24ZM289.5 155.9L289.728 156.345L290 156.206L290 155.9L289.5 155.9ZM275.859 164.9L275.859 165.4L276.359 165.4L276.359 164.9L275.859 164.9ZM274.857 157.57L275.226 157.231L275.223 157.228L274.857 157.57ZM269.215 157.517L269.565 157.874L269.568 157.871L269.215 157.517ZM268.178 164.9L267.678 164.9L267.678 165.4L268.178 165.4L268.178 164.9ZM279.631 160.699L279.631 164.9L280.631 164.9L280.631 160.699L279.631 160.699ZM280.131 165.4L289.5 165.4L289.5 164.4L280.131 164.4L280.131 165.4ZM289 164.9L289 170.173L290 170.173L290 164.9L289 164.9ZM289.5 169.673L263.906 169.673L263.906 170.673L289.5 170.673L289.5 169.673ZM264.406 170.173L264.406 160.664L263.406 160.664L263.406 170.173L264.406 170.173ZM264.406 160.664C264.406 157.708 265.066 155.505 266.314 153.985L265.541 153.35C264.095 155.111 263.406 157.573 263.406 160.664L264.406 160.664ZM266.314 153.985C267.551 152.479 269.303 151.707 271.641 151.707L271.641 150.707C269.057 150.707 267 151.575 265.541 153.35L266.314 153.985ZM271.641 151.707C273.314 151.707 274.672 152.071 275.745 152.768L276.29 151.93C275.019 151.104 273.459 150.707 271.641 150.707L271.641 151.707ZM275.746 152.769C276.809 153.456 277.678 154.516 278.339 155.982L279.251 155.572C278.529 153.968 277.546 152.742 276.289 151.929L275.746 152.769ZM279.029 156.219L289.488 150.682L289.02 149.798L278.561 155.335L279.029 156.219ZM289.254 150.74L289.5 150.74L289.5 149.74L289.254 149.74L289.254 150.74ZM289 150.24L289 155.9L290 155.9L290 150.24L289 150.24ZM289.272 155.455L279.903 160.254L280.359 161.144L289.728 156.345L289.272 155.455ZM276.359 164.9L276.359 160.646L275.359 160.646L275.359 164.9L276.359 164.9ZM276.359 160.646C276.359 159.24 276.004 158.078 275.225 157.231L274.489 157.908C275.047 158.515 275.359 159.404 275.359 160.646L276.359 160.646ZM275.223 157.228C274.43 156.382 273.356 155.98 272.062 155.98L272.062 156.98C273.136 156.98 273.925 157.305 274.492 157.911L275.223 157.228ZM272.062 155.98C270.756 155.98 269.667 156.357 268.861 157.164L269.568 157.871C270.145 157.294 270.955 156.98 272.062 156.98L272.062 155.98ZM268.864 157.161C268.041 157.97 267.678 159.174 267.678 160.664L268.678 160.664C268.678 159.318 269.006 158.423 269.565 157.874L268.864 157.161ZM267.678 160.664L267.678 164.9L268.678 164.9L268.678 160.664L267.678 160.664ZM268.178 165.4L275.859 165.4L275.859 164.4L268.178 164.4L268.178 165.4ZM278.408 127.823L278.908 127.823L278.908 127.323L278.408 127.323L278.408 127.823ZM278.408 137.948L277.908 137.948L277.908 138.448L278.408 138.448L278.408 137.948ZM285.264 137.948L285.264 138.448L285.764 138.448L285.764 137.948L285.264 137.948ZM285.264 126.065L285.264 125.565L284.764 125.565L284.764 126.065L285.264 126.065ZM289.5 126.065L290 126.065L290 125.565L289.5 125.565L289.5 126.065ZM289.5 143.221L289.5 143.721L290 143.721L290 143.221L289.5 143.221ZM263.906 143.221L263.406 143.221L263.406 143.721L263.906 143.721L263.906 143.221ZM263.906 126.1L263.906 125.6L263.406 125.6L263.406 126.1L263.906 126.1ZM268.178 126.1L268.678 126.1L268.678 125.6L268.178 125.6L268.178 126.1ZM268.178 137.948L267.678 137.948L267.678 138.448L268.178 138.448L268.178 137.948ZM274.277 137.948L274.277 138.448L274.777 138.448L274.777 137.948L274.277 137.948ZM274.277 127.823L274.277 127.323L273.777 127.323L273.777 127.823L274.277 127.823ZM277.908 127.823L277.908 137.948L278.908 137.948L278.908 127.823L277.908 127.823ZM278.408 138.448L285.264 138.448L285.264 137.448L278.408 137.448L278.408 138.448ZM285.764 137.948L285.764 126.065L284.764 126.065L284.764 137.948L285.764 137.948ZM285.264 126.565L289.5 126.565L289.5 125.565L285.264 125.565L285.264 126.565ZM289 126.065L289 143.221L290 143.221L290 126.065L289 126.065ZM289.5 142.721L263.906 142.721L263.906 143.721L289.5 143.721L289.5 142.721ZM264.406 143.221L264.406 126.1L263.406 126.1L263.406 143.221L264.406 143.221ZM263.906 126.6L268.178 126.6L268.178 125.6L263.906 125.6L263.906 126.6ZM267.678 126.1L267.678 137.948L268.678 137.948L268.678 126.1L267.678 126.1ZM268.178 138.448L274.277 138.448L274.277 137.448L268.178 137.448L268.178 138.448ZM274.777 137.948L274.777 127.823L273.777 127.823L273.777 137.948L274.777 137.948ZM274.277 128.323L278.408 128.323L278.408 127.323L274.277 127.323L274.277 128.323ZM275.437 110.187L275.646 110.641L276.633 110.188L275.647 109.733L275.437 110.187ZM263.906 104.861L263.406 104.861L263.406 105.181L263.697 105.315L263.906 104.861ZM263.906 99.0952L264.135 98.6507L263.406 98.2752L263.406 99.0952L263.906 99.0952ZM280.219 107.497L279.99 107.942L280.098 107.997L280.219 107.997L280.219 107.497ZM289.5 107.497L290 107.497L290 106.997L289.5 106.997L289.5 107.497ZM289.5 112.859L289.5 113.359L290 113.359L290 112.859L289.5 112.859ZM280.219 112.859L280.219 112.359L280.098 112.359L279.99 112.414L280.219 112.859ZM263.906 121.261L263.406 121.261L263.406 122.081L264.135 121.706L263.906 121.261ZM263.906 115.478L263.698 115.024L263.406 115.157L263.406 115.478L263.906 115.478ZM275.647 109.733L264.116 104.407L263.697 105.315L275.228 110.641L275.647 109.733ZM264.406 104.861L264.406 99.0952L263.406 99.0952L263.406 104.861L264.406 104.861ZM263.677 99.5397L279.99 107.942L280.448 107.053L264.135 98.6507L263.677 99.5397ZM280.219 107.997L289.5 107.997L289.5 106.997L280.219 106.997L280.219 107.997ZM289 107.497L289 112.859L290 112.859L290 107.497L289 107.497ZM289.5 112.359L280.219 112.359L280.219 113.359L289.5 113.359L289.5 112.359ZM279.99 112.414L263.677 120.817L264.135 121.706L280.448 113.303L279.99 112.414ZM264.406 121.261L264.406 115.478L263.406 115.478L263.406 121.261L264.406 121.261ZM264.115 115.932L275.646 110.641L275.229 109.733L263.698 115.024L264.115 115.932Z" fill="#766F00"/>
</g>
<path d="M14.2969 285V228.125H34.7266C42.0443 228.125 47.6042 229.466 51.4062 232.148C55.2344 234.831 57.1484 238.724 57.1484 243.828C57.1484 246.771 56.4714 249.284 55.1172 251.367C53.763 253.451 51.7708 254.987 49.1406 255.977C52.1094 256.758 54.388 258.216 55.9766 260.352C57.5651 262.487 58.3594 265.091 58.3594 268.164C58.3594 273.737 56.5885 277.93 53.0469 280.742C49.5312 283.529 44.3099 284.948 37.3828 285H14.2969ZM28.0078 260.82V274.453H36.9922C39.4661 274.453 41.3672 273.893 42.6953 272.773C44.0234 271.628 44.6875 270.026 44.6875 267.969C44.6875 263.229 42.3307 260.846 37.6172 260.82H28.0078ZM28.0078 251.836H35.1562C38.151 251.81 40.2865 251.263 41.5625 250.195C42.8385 249.128 43.4766 247.552 43.4766 245.469C43.4766 243.073 42.7865 241.354 41.4062 240.312C40.026 239.245 37.7995 238.711 34.7266 238.711H28.0078V251.836ZM80.775 279.727H71.5289L69.7711 285H64.1637L73.691 259.406H78.5777L88.1578 285H82.5504L80.775 279.727ZM72.9527 275.455H79.3512L76.1344 265.875L72.9527 275.455ZM115.321 285H110.048L99.7819 268.16V285H94.5084V259.406H99.7819L110.065 276.281V259.406H115.321V285ZM134.205 259.406H139.478V277.125C139.478 278.754 139.115 280.195 138.388 281.449C137.674 282.691 136.66 283.652 135.347 284.332C134.035 285.012 132.552 285.352 130.9 285.352C128.193 285.352 126.084 284.666 124.572 283.295C123.06 281.912 122.304 279.961 122.304 277.441H127.613C127.613 278.695 127.877 279.621 128.404 280.219C128.931 280.816 129.763 281.115 130.9 281.115C131.908 281.115 132.711 280.77 133.308 280.078C133.906 279.387 134.205 278.402 134.205 277.125V259.406ZM168.979 272.783C168.979 275.303 168.534 277.512 167.643 279.41C166.753 281.309 165.475 282.773 163.811 283.805C162.159 284.836 160.26 285.352 158.116 285.352C155.995 285.352 154.102 284.842 152.438 283.822C150.774 282.803 149.485 281.35 148.571 279.463C147.657 277.564 147.194 275.385 147.182 272.924V271.658C147.182 269.139 147.634 266.924 148.536 265.014C149.45 263.092 150.733 261.621 152.385 260.602C154.05 259.57 155.948 259.055 158.081 259.055C160.214 259.055 162.106 259.57 163.759 260.602C165.423 261.621 166.706 263.092 167.608 265.014C168.522 266.924 168.979 269.133 168.979 271.641V272.783ZM163.635 271.623C163.635 268.939 163.155 266.9 162.194 265.506C161.233 264.111 159.862 263.414 158.081 263.414C156.311 263.414 154.946 264.105 153.985 265.488C153.024 266.859 152.538 268.875 152.526 271.535V272.783C152.526 275.396 153.007 277.424 153.967 278.865C154.928 280.307 156.311 281.027 158.116 281.027C159.885 281.027 161.245 280.336 162.194 278.953C163.143 277.559 163.624 275.531 163.635 272.871V271.623Z" fill="black"/>
<path d="M34.4456 19.2031L39.1654 30.4971L43.9027 19.2031H45.3441V32H44.263V26.4277L44.3509 20.7148L39.5872 32H38.7523L34.0062 20.7588L34.0941 26.3926V32H33.013V19.2031H34.4456ZM59.3827 19.2031V27.9395C59.3768 28.8008 59.1864 29.5508 58.8114 30.1895C58.4364 30.8281 57.9061 31.3203 57.2205 31.666C56.5409 32.0059 55.7586 32.1758 54.8739 32.1758C53.5262 32.1758 52.4452 31.8096 51.6307 31.0771C50.8221 30.3389 50.4032 29.3193 50.3739 28.0186V19.2031H51.4461V27.8604C51.4461 28.9385 51.7537 29.7764 52.369 30.374C52.9842 30.9658 53.8192 31.2617 54.8739 31.2617C55.9286 31.2617 56.7606 30.9629 57.37 30.3652C57.9852 29.7676 58.2928 28.9355 58.2928 27.8691V19.2031H59.3827ZM71.6195 28.8535C71.6195 28.1445 71.3705 27.585 70.8724 27.1748C70.3744 26.7588 69.4632 26.3662 68.139 25.9971C66.8148 25.6221 65.848 25.2148 65.2386 24.7754C64.3714 24.1543 63.9379 23.3398 63.9379 22.332C63.9379 21.3535 64.3392 20.5596 65.142 19.9502C65.9505 19.335 66.9818 19.0273 68.2357 19.0273C69.0853 19.0273 69.8441 19.1914 70.5121 19.5195C71.1859 19.8477 71.7074 20.3047 72.0765 20.8906C72.4457 21.4766 72.6302 22.1299 72.6302 22.8506H71.5404C71.5404 21.9775 71.2416 21.2773 70.6439 20.75C70.0462 20.2168 69.2435 19.9502 68.2357 19.9502C67.2572 19.9502 66.4779 20.1699 65.8978 20.6094C65.3177 21.043 65.0277 21.6113 65.0277 22.3145C65.0277 22.9648 65.2884 23.4951 65.8099 23.9053C66.3314 24.3154 67.1664 24.6787 68.3148 24.9951C69.4632 25.3057 70.3334 25.6309 70.9252 25.9707C71.517 26.3047 71.9623 26.7061 72.2611 27.1748C72.5599 27.6436 72.7093 28.1973 72.7093 28.8359C72.7093 29.8438 72.305 30.6523 71.4964 31.2617C70.6937 31.8711 69.6332 32.1758 68.3148 32.1758C67.4125 32.1758 66.5834 32.0146 65.8275 31.6924C65.0775 31.3701 64.5062 30.9189 64.1136 30.3389C63.7269 29.7588 63.5336 29.0938 63.5336 28.3438H64.6146C64.6146 29.2461 64.9515 29.958 65.6254 30.4795C66.2992 31.001 67.1957 31.2617 68.3148 31.2617C69.3109 31.2617 70.1107 31.042 70.7142 30.6025C71.3177 30.1631 71.6195 29.5801 71.6195 28.8535ZM78.3456 32H77.2645V19.2031H78.3456V32ZM92.8676 28.0098C92.7211 29.3574 92.2377 30.3887 91.4174 31.1035C90.6029 31.8184 89.516 32.1758 88.1566 32.1758C87.2074 32.1758 86.3666 31.9385 85.6342 31.4639C84.9076 30.9893 84.3451 30.3184 83.9467 29.4512C83.5482 28.5781 83.3461 27.582 83.3402 26.4629V24.8018C83.3402 23.665 83.5395 22.6572 83.9379 21.7783C84.3363 20.8994 84.9076 20.2227 85.6518 19.748C86.4018 19.2676 87.2631 19.0273 88.2357 19.0273C89.6068 19.0273 90.6879 19.3994 91.4789 20.1436C92.2758 20.8818 92.7387 21.9043 92.8676 23.2109H91.7777C91.5082 21.0371 90.3275 19.9502 88.2357 19.9502C87.0756 19.9502 86.1498 20.3838 85.4584 21.251C84.7729 22.1182 84.4301 23.3164 84.4301 24.8457V26.4102C84.4301 27.8867 84.7641 29.0645 85.432 29.9434C86.1059 30.8223 87.0141 31.2617 88.1566 31.2617C89.2875 31.2617 90.14 30.9922 90.7143 30.4531C91.2885 29.9082 91.643 29.0938 91.7777 28.0098H92.8676ZM104.384 28.4141H98.5741L97.2558 32H96.122L100.965 19.2031H101.993L106.836 32H105.711L104.384 28.4141ZM98.9081 27.4912H104.041L101.475 20.5215L98.9081 27.4912ZM111.795 31.0859H118.115V32H110.706V19.2031H111.795V31.0859ZM129.853 32H128.772V19.2031H129.853V32ZM144.841 32H143.76L136.403 21.0488V32H135.313V19.2031H136.403L143.769 30.1631V19.2031H144.841V32ZM157.315 28.8535C157.315 28.1445 157.066 27.585 156.568 27.1748C156.07 26.7588 155.159 26.3662 153.835 25.9971C152.51 25.6221 151.543 25.2148 150.934 24.7754C150.067 24.1543 149.633 23.3398 149.633 22.332C149.633 21.3535 150.035 20.5596 150.837 19.9502C151.646 19.335 152.677 19.0273 153.931 19.0273C154.781 19.0273 155.54 19.1914 156.208 19.5195C156.881 19.8477 157.403 20.3047 157.772 20.8906C158.141 21.4766 158.326 22.1299 158.326 22.8506H157.236C157.236 21.9775 156.937 21.2773 156.339 20.75C155.742 20.2168 154.939 19.9502 153.931 19.9502C152.953 19.9502 152.173 20.1699 151.593 20.6094C151.013 21.043 150.723 21.6113 150.723 22.3145C150.723 22.9648 150.984 23.4951 151.505 23.9053C152.027 24.3154 152.862 24.6787 154.01 24.9951C155.159 25.3057 156.029 25.6309 156.621 25.9707C157.212 26.3047 157.658 26.7061 157.957 27.1748C158.255 27.6436 158.405 28.1973 158.405 28.8359C158.405 29.8438 158.001 30.6523 157.192 31.2617C156.389 31.8711 155.329 32.1758 154.01 32.1758C153.108 32.1758 152.279 32.0146 151.523 31.6924C150.773 31.3701 150.202 30.9189 149.809 30.3389C149.422 29.7588 149.229 29.0938 149.229 28.3438H150.31C150.31 29.2461 150.647 29.958 151.321 30.4795C151.995 31.001 152.891 31.2617 154.01 31.2617C155.006 31.2617 155.806 31.042 156.41 30.6025C157.013 30.1631 157.315 29.5801 157.315 28.8535ZM171.406 20.126H167.021V32H165.939V20.126H161.563V19.2031H171.406V20.126ZM180.242 26.6738H176.524V32H175.434V19.2031H179.591C180.957 19.2031 182.023 19.5342 182.791 20.1963C183.558 20.8584 183.942 21.7842 183.942 22.9736C183.942 23.7939 183.702 24.5176 183.221 25.1445C182.741 25.7715 182.096 26.2051 181.288 26.4453L184.487 31.8857V32H183.336L180.242 26.6738ZM176.524 25.751H179.837C180.746 25.751 181.475 25.4932 182.026 24.9775C182.577 24.4619 182.852 23.7939 182.852 22.9736C182.852 22.0713 182.565 21.3711 181.991 20.873C181.417 20.375 180.611 20.126 179.574 20.126H176.524V25.751ZM197.682 19.2031V27.9395C197.676 28.8008 197.485 29.5508 197.11 30.1895C196.735 30.8281 196.205 31.3203 195.52 31.666C194.84 32.0059 194.058 32.1758 193.173 32.1758C191.825 32.1758 190.744 31.8096 189.93 31.0771C189.121 30.3389 188.702 29.3193 188.673 28.0186V19.2031H189.745V27.8604C189.745 28.9385 190.053 29.7764 190.668 30.374C191.283 30.9658 192.118 31.2617 193.173 31.2617C194.228 31.2617 195.06 30.9629 195.669 30.3652C196.284 29.7676 196.592 28.9355 196.592 27.8691V19.2031H197.682ZM204.109 19.2031L208.829 30.4971L213.566 19.2031H215.007V32H213.926V26.4277L214.014 20.7148L209.251 32H208.416L203.67 20.7588L203.757 26.3926V32H202.676V19.2031H204.109ZM227.297 25.8652H221.312V31.0859H228.193V32H220.231V19.2031H228.15V20.126H221.312V24.9512H227.297V25.8652ZM241.986 32H240.905L233.548 21.0488V32H232.459V19.2031H233.548L240.914 30.1631V19.2031H241.986V32ZM255.638 20.126H251.252V32H250.171V20.126H245.794V19.2031H255.638V20.126ZM266.794 28.8535C266.794 28.1445 266.545 27.585 266.047 27.1748C265.549 26.7588 264.637 26.3662 263.313 25.9971C261.989 25.6221 261.022 25.2148 260.413 24.7754C259.546 24.1543 259.112 23.3398 259.112 22.332C259.112 21.3535 259.513 20.5596 260.316 19.9502C261.125 19.335 262.156 19.0273 263.41 19.0273C264.259 19.0273 265.018 19.1914 265.686 19.5195C266.36 19.8477 266.882 20.3047 267.251 20.8906C267.62 21.4766 267.804 22.1299 267.804 22.8506H266.715C266.715 21.9775 266.416 21.2773 265.818 20.75C265.22 20.2168 264.418 19.9502 263.41 19.9502C262.431 19.9502 261.652 20.1699 261.072 20.6094C260.492 21.043 260.202 21.6113 260.202 22.3145C260.202 22.9648 260.463 23.4951 260.984 23.9053C261.506 24.3154 262.341 24.6787 263.489 24.9951C264.637 25.3057 265.508 25.6309 266.099 25.9707C266.691 26.3047 267.136 26.7061 267.435 27.1748C267.734 27.6436 267.883 28.1973 267.883 28.8359C267.883 29.8438 267.479 30.6523 266.671 31.2617C265.868 31.8711 264.807 32.1758 263.489 32.1758C262.587 32.1758 261.758 32.0146 261.002 31.6924C260.252 31.3701 259.68 30.9189 259.288 30.3389C258.901 29.7588 258.708 29.0938 258.708 28.3438H259.789C259.789 29.2461 260.126 29.958 260.799 30.4795C261.473 31.001 262.37 31.2617 263.489 31.2617C264.485 31.2617 265.285 31.042 265.888 30.6025C266.492 30.1631 266.794 29.5801 266.794 28.8535Z" fill="black"/>
<g clip-path="url(#clip0)">
<path fill-rule="evenodd" clip-rule="evenodd" d="M176.483 121.756L178.353 126.634L179.757 126.096L177.887 121.219L176.483 121.756Z" fill="#EEEFEC"/>
<path fill-rule="evenodd" clip-rule="evenodd" d="M176.678 121.868L174.583 120.915C174.165 120.724 174.073 120.01 174.447 119.865L175.21 119.345C175.711 119.006 176.272 118.788 176.868 118.705L177.812 118.575C178.185 118.432 178.594 119.024 178.411 119.445L177.493 121.553L176.678 121.868Z" fill="#D4D6D3"/>
<path fill-rule="evenodd" clip-rule="evenodd" d="M233.183 111.688L230.894 105.445L181.248 124.154C180.459 124.445 179.609 124.505 178.798 124.32L177.453 124.02C176.69 123.846 175.888 123.899 175.15 124.174L103.984 150.562L114.979 160.537L233.183 111.688Z" fill="#424242"/>
<path fill-rule="evenodd" clip-rule="evenodd" d="M99.0941 203.352C78.5648 211.236 55.5296 200.97 47.6442 180.423C39.76 159.879 50.0102 136.835 70.5394 128.951C91.0698 121.07 114.105 131.336 121.989 151.88C129.875 172.427 119.624 195.471 99.0941 203.352Z" fill="#424242"/>
<path fill-rule="evenodd" clip-rule="evenodd" d="M97.2197 198.7C79.0446 205.854 58.7623 196.815 51.9124 178.508C45.0636 160.205 54.2433 139.567 72.4154 132.414C90.5895 125.262 110.872 134.301 117.723 152.606C124.572 170.909 115.392 191.547 97.2197 198.7Z" fill="#D4D6D3"/>
<path fill-rule="evenodd" clip-rule="evenodd" d="M96.793 197.591C79.2319 204.508 59.6359 195.775 53.0227 178.084C46.4074 160.393 55.282 140.442 72.8422 133.527C90.4022 126.607 109.998 135.34 116.613 153.034C123.227 170.722 114.352 190.673 96.793 197.591Z" fill="#A7A9A8"/>
<path fill-rule="evenodd" clip-rule="evenodd" d="M52.6025 169.097C51.131 154.816 58.8765 140.83 72.309 135.294C87.0161 129.238 104.655 135.216 112.354 149.226C115.994 155.845 117.15 163.19 115.98 170.633C115.354 170.633 115.697 168.427 115.678 167.868C115.612 166.03 115.44 164.209 115.109 162.401C114.44 158.721 113.147 155.241 111.311 151.992C107.571 145.357 101.499 140.234 94.2931 137.769C81.7549 133.479 67.5789 138.031 59.6258 148.696C57.2703 151.857 55.4692 155.437 54.3647 159.225C53.776 161.252 53.3665 163.328 53.1466 165.431C53.0755 166.1 53.1882 169.079 52.6025 169.097Z" fill="#BDBEBD"/>
<path fill-rule="evenodd" clip-rule="evenodd" d="M96.2844 195.543C87.9759 198.821 79.2557 199.587 71.3556 196.021C63.4237 192.436 58.1721 185.582 55.0235 177.151C55.6895 176.773 57.3779 179.861 57.8636 180.47C59.2262 182.185 60.6098 183.846 62.1694 185.358C65.3099 188.401 68.8736 190.938 72.8352 192.695C76.7079 194.418 80.9047 195.447 85.1831 195.715C87.4165 195.854 89.6354 195.798 91.89 195.667C92.6313 195.627 96.2012 194.823 96.2844 195.543Z" fill="#8F9190"/>
<path fill-rule="evenodd" clip-rule="evenodd" d="M231.84 119.498L229.968 114.62L231.373 114.082L233.243 118.959L231.84 119.498Z" fill="#D4D6D3"/>
<path fill-rule="evenodd" clip-rule="evenodd" d="M246.104 113.551L244.231 108.673L245.636 108.135L247.505 113.014L246.104 113.551Z" fill="#D4D6D3"/>
<path fill-rule="evenodd" clip-rule="evenodd" d="M227.592 100.344L229.464 105.224L230.866 104.685L228.996 99.8083L227.592 100.344Z" fill="#EEEFEC"/>
<path fill-rule="evenodd" clip-rule="evenodd" d="M240.666 95.5879L242.536 100.465L243.94 99.928L242.07 95.0505L240.666 95.5879Z" fill="#EEEFEC"/>
<path fill-rule="evenodd" clip-rule="evenodd" d="M242.048 96.8881L239.955 95.9339C239.537 95.7432 239.445 95.0311 239.818 94.888L240.58 94.3675C241.08 94.0263 241.641 93.8097 242.239 93.726L243.182 93.5948C243.556 93.4525 243.965 94.0462 243.783 94.4659L242.864 96.5746L242.048 96.8881Z" fill="#D4D6D3"/>
<path fill-rule="evenodd" clip-rule="evenodd" d="M227.785 100.457L225.692 99.5019C225.274 99.3112 225.182 98.5977 225.556 98.4554L226.32 97.9335C226.819 97.5943 227.378 97.3779 227.978 97.2969L228.919 97.1632C229.292 97.0202 229.7 97.6137 229.518 98.0331L228.602 100.141L227.785 100.457Z" fill="#D4D6D3"/>
<path fill-rule="evenodd" clip-rule="evenodd" d="M245.307 113.215L244.391 115.324C244.21 115.747 244.617 116.338 244.99 116.194L245.906 116.071C246.505 115.987 247.065 115.775 247.564 115.436L248.354 114.902C248.727 114.758 248.633 114.044 248.217 113.854L246.125 112.902L245.307 113.215Z" fill="#BDBEBD"/>
<path fill-rule="evenodd" clip-rule="evenodd" d="M233.421 117.974L232.505 120.083C232.322 120.503 232.731 121.096 233.104 120.951L234.02 120.828C234.618 120.746 235.181 120.533 235.68 120.194L236.467 119.661C236.841 119.516 236.748 118.804 236.331 118.614L234.24 117.66L233.421 117.974Z" fill="#BDBEBD"/>
<path fill-rule="evenodd" clip-rule="evenodd" d="M231.42 115.686L238.756 111.122L250.079 107.873C250.681 107.575 250.956 106.869 250.717 106.24L250.638 106.03L250.786 105.973C251.078 105.86 251.249 105.569 251.218 105.257C251.09 104.051 251.852 102.516 252.28 101.764C252.413 101.53 252.306 101.234 252.051 101.14C251.231 100.841 249.623 100.166 248.924 99.2591C248.735 99.0149 248.418 98.9133 248.132 99.0267L247.969 99.0873L247.721 98.4351C247.479 97.8057 246.802 97.4645 246.154 97.6483L235.791 102.745L227.05 104.326C225.654 104.577 224.396 105.326 223.509 106.436L221.05 109.514L223.482 115.855L227.364 116.492C228.768 116.724 230.209 116.438 231.42 115.686Z" fill="#613921"/>
<path fill-rule="evenodd" clip-rule="evenodd" d="M230.603 115.189L238.004 110.918L249.202 107.517C249.807 107.23 250.114 106.616 249.918 106.104L249.852 105.933L250.002 105.875C250.291 105.761 250.476 105.508 250.461 105.245C250.409 104.24 251.24 102.901 251.699 102.243C251.843 102.039 251.756 101.797 251.514 101.733C250.734 101.527 249.212 101.056 248.585 100.331C248.415 100.139 248.115 100.072 247.827 100.182L247.669 100.241L247.464 99.7096C247.266 99.194 246.626 98.9461 245.986 99.1383L235.615 104.038L227.026 105.879C225.653 106.174 224.386 106.879 223.459 107.868L220.887 110.601L222.881 115.796L226.615 116.108C227.967 116.218 229.385 115.894 230.603 115.189Z" fill="#424242"/>
<path fill-rule="evenodd" clip-rule="evenodd" d="M77.6074 178.904L70.8737 161.358C70.6863 160.87 70.9293 160.324 71.4163 160.138L71.7907 159.993C72.2777 159.808 72.8238 160.051 73.01 160.536L79.7458 178.083C79.9312 178.57 79.6881 179.117 79.2023 179.305L78.8267 179.447C78.3409 179.636 77.7948 179.392 77.6074 178.904Z" fill="#BDBEBD"/>
<path fill-rule="evenodd" clip-rule="evenodd" d="M53.3695 182.284L50.8554 175.733C50.6015 175.071 50.8616 174.324 51.4705 173.962L60.7256 168.472C61.4976 168.015 62.4993 168.361 62.8202 169.202L66.6311 179.127C66.9541 179.969 66.4433 180.898 65.5619 181.074L55.011 183.188C54.3162 183.326 53.6234 182.946 53.3695 182.284Z" fill="#EEEFEC"/>
<path fill-rule="evenodd" clip-rule="evenodd" d="M58.223 177.255L221.675 112.7L221.95 113.417L58.4943 177.973L58.223 177.255Z" fill="#FAF9F8"/>
<path fill-rule="evenodd" clip-rule="evenodd" d="M56.4447 174.229L56.1549 173.46L220.159 110.496L220.451 111.266L56.4447 174.229Z" fill="#FAF9F8"/>
<path fill-rule="evenodd" clip-rule="evenodd" d="M56.5994 172.8L56.408 172.291L177.218 125.011L177.409 125.519L56.5994 172.8Z" fill="#FAF9F8"/>
<path fill-rule="evenodd" clip-rule="evenodd" d="M60.4827 181.214L223.055 116.089L223.255 116.597L60.6826 181.722L60.4827 181.214Z" fill="#FAF9F8"/>
<path fill-rule="evenodd" clip-rule="evenodd" d="M58.1747 178.553L221.779 113.936L221.997 114.5L58.3948 179.118L58.1747 178.553Z" fill="#FAF9F8"/>
</g>
<defs>
<filter id="filter0_d" x="262.055" y="97.2751" width="31.2969" height="105.53" filterUnits="userSpaceOnUse" color-interpolation-filters="sRGB">
<feFlood flood-opacity="0" result="BackgroundImageFix"/>
<feColorMatrix in="SourceAlpha" type="matrix" values="0 0 0 0 0 0 0 0 0 0 0 0 0 0 0 0 0 0 127 0"/>
<feOffset dx="1" dy="1"/>
<feGaussianBlur stdDeviation="1"/>
<feColorMatrix type="matrix" values="0 0 0 0 0 0 0 0 0 0 0 0 0 0 0 0 0 0 0.15 0"/>
<feBlend mode="normal" in2="BackgroundImageFix" result="effect1_dropShadow"/>
<feBlend mode="normal" in="SourceGraphic" in2="effect1_dropShadow" result="shape"/>
</filter>
<radialGradient id="paint0_radial" cx="0" cy="0" r="1" gradientUnits="userSpaceOnUse" gradientTransform="translate(150 150) rotate(90) scale(150)">
<stop offset="0.296875" stop-color="white" stop-opacity="0"/>
<stop offset="0.947917" stop-color="#838383" stop-opacity="0.83"/>
</radialGradient>
<clipPath id="clip0">
<rect width="208" height="113" fill="white" transform="translate(45 93)"/>
</clipPath>
</defs>
</svg>
