<svg width="300" height="300" viewBox="0 0 300 300" fill="none" xmlns="http://www.w3.org/2000/svg">
<rect width="300" height="300" fill="white"/>
<rect width="300" height="300" fill="white"/>
<rect width="300" height="300" fill="white"/>
<rect width="300" height="300" fill="url(#paint0_radial)" fill-opacity="0.11"/>
<g filter="url(#filter0_d)">
<path d="M286.266 192.109C287.402 193.059 288.287 194.4 288.92 196.135C289.541 197.869 289.852 199.791 289.852 201.9C289.852 204.115 289.371 206.061 288.41 207.736C287.437 209.4 286.031 210.69 284.191 211.604C282.352 212.506 280.189 212.969 277.705 212.992L275.965 212.992C273.41 212.992 271.201 212.565 269.338 211.709C267.463 210.842 266.033 209.6 265.049 207.982C264.053 206.354 263.555 204.449 263.555 202.27C263.555 199.234 264.281 196.861 265.734 195.15C267.176 193.44 269.279 192.426 272.045 192.109L272.045 197.242C270.58 197.477 269.508 197.998 268.828 198.807C268.148 199.604 267.809 200.705 267.809 202.111C267.809 203.904 268.482 205.27 269.83 206.207C271.178 207.145 273.182 207.619 275.842 207.631L277.477 207.631C280.16 207.631 282.187 207.121 283.559 206.102C284.93 205.082 285.615 203.588 285.615 201.619C285.615 199.639 285.193 198.227 284.35 197.383L279.937 197.383L279.937 202.182L276.053 202.182L276.053 192.109L286.266 192.109ZM280.131 174.386L280.131 178.587L289.5 178.587L289.5 183.86L263.906 183.86L263.906 174.351C263.906 171.327 264.58 168.995 265.928 167.355C267.275 165.714 269.18 164.894 271.641 164.894C273.387 164.894 274.846 165.274 276.018 166.036C277.178 166.786 278.104 167.929 278.795 169.464L289.254 163.927L289.5 163.927L289.5 169.587L280.131 174.386ZM275.859 178.587L275.859 174.333C275.859 173.009 275.525 171.983 274.857 171.257C274.178 170.53 273.246 170.167 272.062 170.167C270.855 170.167 269.906 170.513 269.215 171.204C268.523 171.884 268.178 172.933 268.178 174.351L268.178 178.587L275.859 178.587ZM278.408 141.51L278.408 151.635L285.264 151.635L285.264 139.752L289.5 139.752L289.5 156.908L263.906 156.908L263.906 139.787L268.178 139.787L268.178 151.635L274.277 151.635L274.277 141.51L278.408 141.51ZM278.408 117.3L278.408 127.425L285.264 127.425L285.264 115.542L289.5 115.542L289.5 132.698L263.906 132.698L263.906 115.577L268.178 115.577L268.178 127.425L274.277 127.425L274.277 117.3L278.408 117.3ZM289.5 87.6757L289.5 92.9491L272.66 103.215L289.5 103.215L289.5 108.488L263.906 108.488L263.906 103.215L280.781 92.9316L263.906 92.9316L263.906 87.6757L289.5 87.6757Z" fill="white"/>
<path d="M286.266 192.109L286.586 191.726L286.447 191.609L286.266 191.609L286.266 192.109ZM288.92 196.135L289.391 195.966L289.39 195.963L288.92 196.135ZM288.41 207.736L288.842 207.989L288.844 207.985L288.41 207.736ZM284.191 211.604L284.412 212.053L284.414 212.051L284.191 211.604ZM277.705 212.992L277.705 213.492L277.71 213.492L277.705 212.992ZM269.338 211.709L269.128 212.163L269.129 212.163L269.338 211.709ZM265.049 207.982L265.476 207.723L265.475 207.722L265.049 207.982ZM265.734 195.15L266.115 195.474L266.117 195.473L265.734 195.15ZM272.045 192.109L272.545 192.109L272.545 191.549L271.988 191.613L272.045 192.109ZM272.045 197.242L272.124 197.736L272.545 197.669L272.545 197.242L272.045 197.242ZM268.828 198.807L269.209 199.131L269.211 199.128L268.828 198.807ZM275.842 207.631L275.84 208.131L275.842 208.131L275.842 207.631ZM284.35 197.383L284.703 197.029L284.557 196.883L284.35 196.883L284.35 197.383ZM279.937 197.383L279.937 196.883L279.437 196.883L279.437 197.383L279.937 197.383ZM279.937 202.182L279.937 202.682L280.437 202.682L280.437 202.182L279.937 202.182ZM276.053 202.182L275.553 202.182L275.553 202.682L276.053 202.682L276.053 202.182ZM276.053 192.109L276.053 191.609L275.553 191.609L275.553 192.109L276.053 192.109ZM285.945 192.493C287 193.374 287.84 194.634 288.45 196.306L289.39 195.963C288.734 194.167 287.805 192.744 286.586 191.726L285.945 192.493ZM288.449 196.303C289.048 197.976 289.352 199.84 289.352 201.9L290.352 201.9C290.352 199.742 290.034 197.762 289.391 195.966L288.449 196.303ZM289.352 201.9C289.352 204.041 288.888 205.898 287.976 207.488L288.844 207.985C289.854 206.223 290.352 204.19 290.352 201.9L289.352 201.9ZM287.978 207.484C287.058 209.058 285.728 210.282 283.969 211.156L284.414 212.051C286.335 211.097 287.817 209.743 288.842 207.989L287.978 207.484ZM283.971 211.155C282.211 212.018 280.126 212.469 277.7 212.492L277.71 213.492C280.253 213.468 282.492 212.994 284.412 212.053L283.971 211.155ZM277.705 212.492L275.965 212.492L275.965 213.492L277.705 213.492L277.705 212.492ZM275.965 212.492C273.465 212.492 271.33 212.074 269.547 211.255L269.129 212.163C271.072 213.055 273.355 213.492 275.965 213.492L275.965 212.492ZM269.548 211.255C267.754 210.426 266.404 209.247 265.476 207.723L264.622 208.242C265.662 209.952 267.172 211.258 269.128 212.163L269.548 211.255ZM265.475 207.722C264.534 206.182 264.055 204.371 264.055 202.27L263.055 202.27C263.055 204.528 263.572 206.525 264.622 208.243L265.475 207.722ZM264.055 202.27C264.055 199.311 264.762 197.067 266.115 195.474L265.353 194.827C263.8 196.656 263.055 199.158 263.055 202.27L264.055 202.27ZM266.117 195.473C267.457 193.882 269.43 192.912 272.102 192.606L271.988 191.613C269.128 191.94 266.895 192.997 265.352 194.828L266.117 195.473ZM271.545 192.109L271.545 197.242L272.545 197.242L272.545 192.109L271.545 192.109ZM271.966 196.749C270.43 196.994 269.229 197.553 268.445 198.485L269.211 199.128C269.787 198.443 270.73 197.959 272.124 197.736L271.966 196.749ZM268.448 198.482C267.668 199.397 267.309 200.627 267.309 202.111L268.309 202.111C268.309 200.783 268.629 199.811 269.209 199.131L268.448 198.482ZM267.309 202.111C267.309 204.05 268.049 205.577 269.545 206.618L270.116 205.797C268.916 204.962 268.309 203.758 268.309 202.111L267.309 202.111ZM269.545 206.618C271.013 207.639 273.135 208.119 275.84 208.131L275.844 207.131C273.228 207.119 271.343 206.65 270.116 205.797L269.545 206.618ZM275.842 208.131L277.477 208.131L277.477 207.131L275.842 207.131L275.842 208.131ZM277.477 208.131C280.21 208.131 282.363 207.614 283.857 206.503L283.26 205.7C282.012 206.628 280.11 207.131 277.477 207.131L277.477 208.131ZM283.857 206.503C285.375 205.374 286.115 203.719 286.115 201.619L285.115 201.619C285.115 203.457 284.484 204.79 283.26 205.7L283.857 206.503ZM286.115 201.619C286.115 199.589 285.686 198.013 284.703 197.029L283.996 197.736C284.7 198.441 285.115 199.688 285.115 201.619L286.115 201.619ZM284.35 196.883L279.937 196.883L279.937 197.883L284.35 197.883L284.35 196.883ZM279.437 197.383L279.437 202.182L280.437 202.182L280.437 197.383L279.437 197.383ZM279.937 201.682L276.053 201.682L276.053 202.682L279.937 202.682L279.937 201.682ZM276.553 202.182L276.553 192.109L275.553 192.109L275.553 202.182L276.553 202.182ZM276.053 192.609L286.266 192.609L286.266 191.609L276.053 191.609L276.053 192.609ZM280.131 174.386L279.903 173.941L279.631 174.08L279.631 174.386L280.131 174.386ZM280.131 178.587L279.631 178.587L279.631 179.087L280.131 179.087L280.131 178.587ZM289.5 178.587L290 178.587L290 178.087L289.5 178.087L289.5 178.587ZM289.5 183.86L289.5 184.36L290 184.36L290 183.86L289.5 183.86ZM263.906 183.86L263.406 183.86L263.406 184.36L263.906 184.36L263.906 183.86ZM276.018 166.036L275.745 166.455L275.746 166.456L276.018 166.036ZM278.795 169.464L278.339 169.669L278.558 170.155L279.029 169.906L278.795 169.464ZM289.254 163.927L289.254 163.427L289.13 163.427L289.02 163.485L289.254 163.927ZM289.5 163.927L290 163.927L290 163.427L289.5 163.427L289.5 163.927ZM289.5 169.587L289.728 170.032L290 169.893L290 169.587L289.5 169.587ZM275.859 178.587L275.859 179.087L276.359 179.087L276.359 178.587L275.859 178.587ZM274.857 171.257L275.226 170.918L275.223 170.915L274.857 171.257ZM269.215 171.204L269.565 171.561L269.568 171.558L269.215 171.204ZM268.178 178.587L267.678 178.587L267.678 179.087L268.178 179.087L268.178 178.587ZM279.631 174.386L279.631 178.587L280.631 178.587L280.631 174.386L279.631 174.386ZM280.131 179.087L289.5 179.087L289.5 178.087L280.131 178.087L280.131 179.087ZM289 178.587L289 183.86L290 183.86L290 178.587L289 178.587ZM289.5 183.36L263.906 183.36L263.906 184.36L289.5 184.36L289.5 183.36ZM264.406 183.86L264.406 174.351L263.406 174.351L263.406 183.86L264.406 183.86ZM264.406 174.351C264.406 171.395 265.066 169.192 266.314 167.672L265.541 167.037C264.095 168.798 263.406 171.26 263.406 174.351L264.406 174.351ZM266.314 167.672C267.551 166.166 269.303 165.394 271.641 165.394L271.641 164.394C269.057 164.394 267 165.262 265.541 167.037L266.314 167.672ZM271.641 165.394C273.314 165.394 274.672 165.758 275.745 166.455L276.29 165.617C275.019 164.791 273.459 164.394 271.641 164.394L271.641 165.394ZM275.746 166.456C276.809 167.143 277.678 168.203 278.339 169.669L279.251 169.259C278.529 167.655 277.546 166.429 276.289 165.616L275.746 166.456ZM279.029 169.906L289.488 164.369L289.02 163.485L278.561 169.022L279.029 169.906ZM289.254 164.427L289.5 164.427L289.5 163.427L289.254 163.427L289.254 164.427ZM289 163.927L289 169.587L290 169.587L290 163.927L289 163.927ZM289.272 169.142L279.903 173.941L280.359 174.831L289.728 170.032L289.272 169.142ZM276.359 178.587L276.359 174.333L275.359 174.333L275.359 178.587L276.359 178.587ZM276.359 174.333C276.359 172.927 276.004 171.765 275.226 170.918L274.489 171.595C275.047 172.202 275.359 173.091 275.359 174.333L276.359 174.333ZM275.223 170.915C274.43 170.069 273.356 169.667 272.062 169.667L272.062 170.667C273.136 170.667 273.925 170.992 274.492 171.598L275.223 170.915ZM272.062 169.667C270.756 169.667 269.667 170.044 268.861 170.851L269.568 171.558C270.145 170.981 270.955 170.667 272.062 170.667L272.062 169.667ZM268.864 170.848C268.041 171.657 267.678 172.861 267.678 174.351L268.678 174.351C268.678 173.005 269.006 172.11 269.565 171.561L268.864 170.848ZM267.678 174.351L267.678 178.587L268.678 178.587L268.678 174.351L267.678 174.351ZM268.178 179.087L275.859 179.087L275.859 178.087L268.178 178.087L268.178 179.087ZM278.408 141.51L278.908 141.51L278.908 141.01L278.408 141.01L278.408 141.51ZM278.408 151.635L277.908 151.635L277.908 152.135L278.408 152.135L278.408 151.635ZM285.264 151.635L285.264 152.135L285.764 152.135L285.764 151.635L285.264 151.635ZM285.264 139.752L285.264 139.252L284.764 139.252L284.764 139.752L285.264 139.752ZM289.5 139.752L290 139.752L290 139.252L289.5 139.252L289.5 139.752ZM289.5 156.908L289.5 157.408L290 157.408L290 156.908L289.5 156.908ZM263.906 156.908L263.406 156.908L263.406 157.408L263.906 157.408L263.906 156.908ZM263.906 139.787L263.906 139.287L263.406 139.287L263.406 139.787L263.906 139.787ZM268.178 139.787L268.678 139.787L268.678 139.287L268.178 139.287L268.178 139.787ZM268.178 151.635L267.678 151.635L267.678 152.135L268.178 152.135L268.178 151.635ZM274.277 151.635L274.277 152.135L274.777 152.135L274.777 151.635L274.277 151.635ZM274.277 141.51L274.277 141.01L273.777 141.01L273.777 141.51L274.277 141.51ZM277.908 141.51L277.908 151.635L278.908 151.635L278.908 141.51L277.908 141.51ZM278.408 152.135L285.264 152.135L285.264 151.135L278.408 151.135L278.408 152.135ZM285.764 151.635L285.764 139.752L284.764 139.752L284.764 151.635L285.764 151.635ZM285.264 140.252L289.5 140.252L289.5 139.252L285.264 139.252L285.264 140.252ZM289 139.752L289 156.908L290 156.908L290 139.752L289 139.752ZM289.5 156.408L263.906 156.408L263.906 157.408L289.5 157.408L289.5 156.408ZM264.406 156.908L264.406 139.787L263.406 139.787L263.406 156.908L264.406 156.908ZM263.906 140.287L268.178 140.287L268.178 139.287L263.906 139.287L263.906 140.287ZM267.678 139.787L267.678 151.635L268.678 151.635L268.678 139.787L267.678 139.787ZM268.178 152.135L274.277 152.135L274.277 151.135L268.178 151.135L268.178 152.135ZM274.777 151.635L274.777 141.51L273.777 141.51L273.777 151.635L274.777 151.635ZM274.277 142.01L278.408 142.01L278.408 141.01L274.277 141.01L274.277 142.01ZM278.408 117.3L278.908 117.3L278.908 116.8L278.408 116.8L278.408 117.3ZM278.408 127.425L277.908 127.425L277.908 127.925L278.408 127.925L278.408 127.425ZM285.264 127.425L285.264 127.925L285.764 127.925L285.764 127.425L285.264 127.425ZM285.264 115.542L285.264 115.042L284.764 115.042L284.764 115.542L285.264 115.542ZM289.5 115.542L290 115.542L290 115.042L289.5 115.042L289.5 115.542ZM289.5 132.698L289.5 133.198L290 133.198L290 132.698L289.5 132.698ZM263.906 132.698L263.406 132.698L263.406 133.198L263.906 133.198L263.906 132.698ZM263.906 115.577L263.906 115.077L263.406 115.077L263.406 115.577L263.906 115.577ZM268.178 115.577L268.678 115.577L268.678 115.077L268.178 115.077L268.178 115.577ZM268.178 127.425L267.678 127.425L267.678 127.925L268.178 127.925L268.178 127.425ZM274.277 127.425L274.277 127.925L274.777 127.925L274.777 127.425L274.277 127.425ZM274.277 117.3L274.277 116.8L273.777 116.8L273.777 117.3L274.277 117.3ZM277.908 117.3L277.908 127.425L278.908 127.425L278.908 117.3L277.908 117.3ZM278.408 127.925L285.264 127.925L285.264 126.925L278.408 126.925L278.408 127.925ZM285.764 127.425L285.764 115.542L284.764 115.542L284.764 127.425L285.764 127.425ZM285.264 116.042L289.5 116.042L289.5 115.042L285.264 115.042L285.264 116.042ZM289 115.542L289 132.698L290 132.698L290 115.542L289 115.542ZM289.5 132.198L263.906 132.198L263.906 133.198L289.5 133.198L289.5 132.198ZM264.406 132.698L264.406 115.577L263.406 115.577L263.406 132.698L264.406 132.698ZM263.906 116.077L268.178 116.077L268.178 115.077L263.906 115.077L263.906 116.077ZM267.678 115.577L267.678 127.425L268.678 127.425L268.678 115.577L267.678 115.577ZM268.178 127.925L274.277 127.925L274.277 126.925L268.178 126.925L268.178 127.925ZM274.777 127.425L274.777 117.3L273.777 117.3L273.777 127.425L274.777 127.425ZM274.277 117.8L278.408 117.8L278.408 116.8L274.277 116.8L274.277 117.8ZM289.5 87.6757L290 87.6757L290 87.1757L289.5 87.1757L289.5 87.6757ZM289.5 92.9491L289.76 93.3761L290 93.2299L290 92.9491L289.5 92.9491ZM272.66 103.215L272.4 102.788L270.879 103.715L272.66 103.715L272.66 103.215ZM289.5 103.215L290 103.215L290 102.715L289.5 102.715L289.5 103.215ZM289.5 108.488L289.5 108.988L290 108.988L290 108.488L289.5 108.488ZM263.906 108.488L263.406 108.488L263.406 108.988L263.906 108.988L263.906 108.488ZM263.906 103.215L263.646 102.788L263.406 102.934L263.406 103.215L263.906 103.215ZM280.781 92.9316L281.041 93.3585L282.563 92.4316L280.781 92.4316L280.781 92.9316ZM263.906 92.9316L263.406 92.9316L263.406 93.4316L263.906 93.4316L263.906 92.9316ZM263.906 87.6757L263.906 87.1757L263.406 87.1757L263.406 87.6757L263.906 87.6757ZM289 87.6757L289 92.9491L290 92.9491L290 87.6757L289 87.6757ZM289.24 92.5222L272.4 102.788L272.92 103.642L289.76 93.3761L289.24 92.5222ZM272.66 103.715L289.5 103.715L289.5 102.715L272.66 102.715L272.66 103.715ZM289 103.215L289 108.488L290 108.488L290 103.215L289 103.215ZM289.5 107.988L263.906 107.988L263.906 108.988L289.5 108.988L289.5 107.988ZM264.406 108.488L264.406 103.215L263.406 103.215L263.406 108.488L264.406 108.488ZM264.166 103.642L281.041 93.3585L280.521 92.5046L263.646 102.788L264.166 103.642ZM280.781 92.4316L263.906 92.4316L263.906 93.4316L280.781 93.4316L280.781 92.4316ZM264.406 92.9316L264.406 87.6757L263.406 87.6757L263.406 92.9316L264.406 92.9316ZM263.906 88.1757L289.5 88.1757L289.5 87.1757L263.906 87.1757L263.906 88.1757Z" fill="#297504"/>
</g>
<path d="M14.2969 285V228.125H34.7266C42.0443 228.125 47.6042 229.466 51.4062 232.148C55.2344 234.831 57.1484 238.724 57.1484 243.828C57.1484 246.771 56.4714 249.284 55.1172 251.367C53.763 253.451 51.7708 254.987 49.1406 255.977C52.1094 256.758 54.388 258.216 55.9766 260.352C57.5651 262.487 58.3594 265.091 58.3594 268.164C58.3594 273.737 56.5885 277.93 53.0469 280.742C49.5312 283.529 44.3099 284.948 37.3828 285H14.2969ZM28.0078 260.82V274.453H36.9922C39.4661 274.453 41.3672 273.893 42.6953 272.773C44.0234 271.628 44.6875 270.026 44.6875 267.969C44.6875 263.229 42.3307 260.846 37.6172 260.82H28.0078ZM28.0078 251.836H35.1562C38.151 251.81 40.2865 251.263 41.5625 250.195C42.8385 249.128 43.4766 247.552 43.4766 245.469C43.4766 243.073 42.7865 241.354 41.4062 240.312C40.026 239.245 37.7995 238.711 34.7266 238.711H28.0078V251.836ZM87.3492 272.783C87.3492 275.303 86.9039 277.512 86.0133 279.41C85.1227 281.309 83.8453 282.773 82.1813 283.805C80.5289 284.836 78.6305 285.352 76.4859 285.352C74.3648 285.352 72.4723 284.842 70.8082 283.822C69.1441 282.803 67.8551 281.35 66.941 279.463C66.027 277.564 65.5641 275.385 65.5523 272.924V271.658C65.5523 269.139 66.0035 266.924 66.9059 265.014C67.8199 263.092 69.1031 261.621 70.7555 260.602C72.4195 259.57 74.318 259.055 76.4508 259.055C78.5836 259.055 80.4762 259.57 82.1285 260.602C83.7926 261.621 85.0758 263.092 85.9781 265.014C86.8922 266.924 87.3492 269.133 87.3492 271.641V272.783ZM82.0055 271.623C82.0055 268.939 81.525 266.9 80.5641 265.506C79.6031 264.111 78.232 263.414 76.4508 263.414C74.6813 263.414 73.316 264.105 72.3551 265.488C71.3941 266.859 70.9078 268.875 70.8961 271.535V272.783C70.8961 275.396 71.3766 277.424 72.3375 278.865C73.2984 280.307 74.6813 281.027 76.4859 281.027C78.2555 281.027 79.6148 280.336 80.5641 278.953C81.5133 277.559 81.9938 275.531 82.0055 272.871V271.623ZM108.844 279.727H99.5977L97.8398 285H92.2324L101.76 259.406H106.646L116.227 285H110.619L108.844 279.727ZM101.021 275.455H107.42L104.203 265.875L101.021 275.455ZM139.373 263.678H131.534V285H126.26V263.678H118.526V259.406H139.373V263.678Z" fill="black"/>
<path d="M71.6515 20.126H67.2657V32H66.1847V20.126H61.8077V19.2031H71.6515V20.126ZM80.487 26.6738H76.7692V32H75.6793V19.2031H79.8366C81.2018 19.2031 82.2682 19.5342 83.0358 20.1963C83.8034 20.8584 84.1871 21.7842 84.1871 22.9736C84.1871 23.7939 83.9469 24.5176 83.4664 25.1445C82.986 25.7715 82.3414 26.2051 81.5329 26.4453L84.7321 31.8857V32H83.5807L80.487 26.6738ZM76.7692 25.751H80.0827C80.9909 25.751 81.7204 25.4932 82.2711 24.9775C82.8219 24.4619 83.0973 23.7939 83.0973 22.9736C83.0973 22.0713 82.8102 21.3711 82.236 20.873C81.6618 20.375 80.8561 20.126 79.819 20.126H76.7692V25.751ZM96.0197 28.4141H90.2101L88.8918 32H87.758L92.6007 19.2031H93.6291L98.4718 32H97.3468L96.0197 28.4141ZM90.5441 27.4912H95.6769L93.1105 20.5215L90.5441 27.4912ZM111.869 32H110.788L103.431 21.0488V32H102.341V19.2031H103.431L110.797 30.1631V19.2031H111.869V32ZM124.343 28.8535C124.343 28.1445 124.094 27.585 123.596 27.1748C123.098 26.7588 122.187 26.3662 120.862 25.9971C119.538 25.6221 118.571 25.2148 117.962 24.7754C117.095 24.1543 116.661 23.3398 116.661 22.332C116.661 21.3535 117.063 20.5596 117.865 19.9502C118.674 19.335 119.705 19.0273 120.959 19.0273C121.809 19.0273 122.568 19.1914 123.236 19.5195C123.909 19.8477 124.431 20.3047 124.8 20.8906C125.169 21.4766 125.354 22.1299 125.354 22.8506H124.264C124.264 21.9775 123.965 21.2773 123.367 20.75C122.77 20.2168 121.967 19.9502 120.959 19.9502C119.981 19.9502 119.201 20.1699 118.621 20.6094C118.041 21.043 117.751 21.6113 117.751 22.3145C117.751 22.9648 118.012 23.4951 118.533 23.9053C119.055 24.3154 119.89 24.6787 121.038 24.9951C122.187 25.3057 123.057 25.6309 123.649 25.9707C124.24 26.3047 124.686 26.7061 124.985 27.1748C125.283 27.6436 125.433 28.1973 125.433 28.8359C125.433 29.8438 125.029 30.6523 124.22 31.2617C123.417 31.8711 122.357 32.1758 121.038 32.1758C120.136 32.1758 119.307 32.0146 118.551 31.6924C117.801 31.3701 117.23 30.9189 116.837 30.3389C116.45 29.7588 116.257 29.0938 116.257 28.3438H117.338C117.338 29.2461 117.675 29.958 118.349 30.4795C119.023 31.001 119.919 31.2617 121.038 31.2617C122.034 31.2617 122.834 31.042 123.438 30.6025C124.041 30.1631 124.343 29.5801 124.343 28.8535ZM130.832 26.7881V32H129.751V19.2031H134.11C135.44 19.2031 136.489 19.543 137.257 20.2227C138.03 20.9023 138.417 21.8369 138.417 23.0264C138.417 24.2275 138.045 25.1562 137.301 25.8125C136.562 26.4629 135.49 26.7881 134.084 26.7881H130.832ZM130.832 25.874H134.11C135.159 25.874 135.959 25.625 136.509 25.127C137.06 24.6289 137.336 23.9346 137.336 23.0439C137.336 22.1592 137.06 21.4561 136.509 20.9346C135.965 20.4072 135.188 20.1377 134.18 20.126H130.832V25.874ZM152.28 26.2959C152.28 27.4736 152.074 28.5078 151.664 29.3984C151.26 30.2891 150.68 30.9746 149.924 31.4551C149.168 31.9355 148.295 32.1758 147.305 32.1758C145.811 32.1758 144.604 31.6426 143.684 30.5762C142.764 29.5039 142.304 28.0596 142.304 26.2432V24.9248C142.304 23.7588 142.509 22.7275 142.919 21.8311C143.335 20.9287 143.921 20.2373 144.677 19.7568C145.433 19.2705 146.303 19.0273 147.287 19.0273C148.272 19.0273 149.139 19.2646 149.889 19.7393C150.645 20.2139 151.228 20.8848 151.638 21.752C152.048 22.6191 152.262 23.624 152.28 24.7666V26.2959ZM151.198 24.9072C151.198 23.3662 150.85 22.1592 150.153 21.2861C149.455 20.4131 148.5 19.9766 147.287 19.9766C146.098 19.9766 145.149 20.416 144.44 21.2949C143.737 22.168 143.385 23.3896 143.385 24.96V26.2959C143.385 27.8135 143.737 29.0176 144.44 29.9082C145.143 30.793 146.098 31.2354 147.305 31.2354C148.53 31.2354 149.485 30.7988 150.17 29.9258C150.856 29.0469 151.198 27.8252 151.198 26.2607V24.9072ZM161.765 26.6738H158.048V32H156.958V19.2031H161.115C162.48 19.2031 163.547 19.5342 164.314 20.1963C165.082 20.8584 165.466 21.7842 165.466 22.9736C165.466 23.7939 165.225 24.5176 164.745 25.1445C164.264 25.7715 163.62 26.2051 162.811 26.4453L166.01 31.8857V32H164.859L161.765 26.6738ZM158.048 25.751H161.361C162.269 25.751 162.999 25.4932 163.55 24.9775C164.1 24.4619 164.376 23.7939 164.376 22.9736C164.376 22.0713 164.089 21.3711 163.514 20.873C162.94 20.375 162.135 20.126 161.097 20.126H158.048V25.751ZM178.37 20.126H173.985V32H172.904V20.126H168.527V19.2031H178.37V20.126ZM188.63 28.4141H182.82L181.502 32H180.368L185.211 19.2031H186.239L191.082 32H189.957L188.63 28.4141ZM183.154 27.4912H188.287L185.721 20.5215L183.154 27.4912ZM202.492 20.126H198.107V32H197.026V20.126H192.649V19.2031H202.492V20.126ZM207.865 32H206.784V19.2031H207.865V32ZM222.783 26.2959C222.783 27.4736 222.577 28.5078 222.167 29.3984C221.763 30.2891 221.183 30.9746 220.427 31.4551C219.671 31.9355 218.798 32.1758 217.808 32.1758C216.314 32.1758 215.107 31.6426 214.187 30.5762C213.267 29.5039 212.807 28.0596 212.807 26.2432V24.9248C212.807 23.7588 213.012 22.7275 213.422 21.8311C213.838 20.9287 214.424 20.2373 215.18 19.7568C215.936 19.2705 216.806 19.0273 217.79 19.0273C218.775 19.0273 219.642 19.2646 220.392 19.7393C221.148 20.2139 221.731 20.8848 222.141 21.752C222.551 22.6191 222.765 23.624 222.783 24.7666V26.2959ZM221.702 24.9072C221.702 23.3662 221.353 22.1592 220.656 21.2861C219.958 20.4131 219.003 19.9766 217.79 19.9766C216.601 19.9766 215.652 20.416 214.943 21.2949C214.24 22.168 213.888 23.3896 213.888 24.96V26.2959C213.888 27.8135 214.24 29.0176 214.943 29.9082C215.646 30.793 216.601 31.2354 217.808 31.2354C219.033 31.2354 219.988 30.7988 220.673 29.9258C221.359 29.0469 221.702 27.8252 221.702 26.2607V24.9072ZM237.015 32H235.933L228.577 21.0488V32H227.487V19.2031H228.577L235.942 30.1631V19.2031H237.015V32Z" fill="black"/>
<path fill-rule="evenodd" clip-rule="evenodd" d="M262 172.043C262 172.043 139.797 150.851 38 173L262 172.043Z" fill="#73C7D6"/>
<path fill-rule="evenodd" clip-rule="evenodd" d="M165.101 114.934L159.963 106.211L135.421 96L112.466 108.125L112.247 110.165L165.101 114.934Z" fill="#97C28F"/>
<path fill-rule="evenodd" clip-rule="evenodd" d="M196.022 126.295L196.562 125.916L192.966 120.823L192.84 120.796L166.183 115.121L160.271 105.718L160.175 105.677C159.25 105.291 137.499 96.2256 135.937 96.003C134.402 95.8078 116.591 105.318 112.454 107.548L109.66 104.704L109.501 104.721C107.843 104.902 68.846 109.209 63.4121 112.499C61.5874 113.604 60.6588 114.813 60.6517 116.094C60.6413 117.984 62.6567 119.257 62.7425 119.311L63.0913 118.752C63.0732 118.741 61.2998 117.617 61.3103 116.095C61.3179 115.06 62.1387 114.04 63.7528 113.063C68.8938 109.95 106.633 105.703 109.414 105.393L112.331 108.363L112.548 108.245C120.889 103.746 134.521 96.6538 135.827 96.6538L135.847 96.6544C137.065 96.8287 153.472 103.596 159.824 106.244L165.773 115.706L165.909 115.736L192.576 121.412L196.022 126.295Z" fill="#CCCED1"/>
<path fill-rule="evenodd" clip-rule="evenodd" d="M96.4329 109.885L97.1461 109.649L95.341 106.098L94.6292 106.335L96.4329 109.885Z" fill="#CCCED1"/>
<path fill-rule="evenodd" clip-rule="evenodd" d="M72.7405 114.934L73.236 114.644L71.2141 111.147L70.7191 111.438L72.7405 114.934Z" fill="#CCCED1"/>
<path fill-rule="evenodd" clip-rule="evenodd" d="M64.0837 118.721L64.427 118.145L60.993 114.934L60.6517 115.51L64.0837 118.721Z" fill="#CCCED1"/>
<path fill-rule="evenodd" clip-rule="evenodd" d="M56.8902 124.813C57.0689 124.802 57.2498 124.77 57.4244 124.701C57.5032 124.672 57.7343 124.606 57.6024 124.638L57.6328 124.63C57.9223 124.56 58.2101 124.481 58.4956 124.397C58.8762 124.285 59.1453 123.994 59.3088 123.642C62.4395 123.441 65.6005 122.342 68.4417 120.487L68.4464 120.484C69.3448 120.02 70.2461 119.557 71.1743 119.153C72.7586 118.464 74.3587 117.814 76.0003 117.275C76.476 117.12 76.953 116.964 77.4305 116.814C77.9652 116.677 78.72 116.484 79.0668 116.405C80.7941 116.015 82.5261 115.649 84.2681 115.333C87.7123 114.71 91.174 114.195 94.6345 113.672C95.073 114.069 95.5324 114.451 96.0362 114.791C104.198 120.305 113.783 122.215 123.467 122.528C132.256 122.813 141.056 122.779 149.847 123.03C159.878 123.316 169.496 124.744 179.389 126.263C180.933 126.501 182.488 126.726 184.023 127.039C184.467 127.195 185.481 127.524 185.861 127.712C186.039 127.8 186.185 127.871 186.311 127.932C187.355 128.541 188.38 129.104 189.397 129.61C192.839 132.591 197.488 133.895 202.088 133.203L202.544 133.834L222.983 135.828C222.983 135.828 230.125 144.024 231.884 145.354C233.642 146.683 237.488 146.13 237.488 146.13L250.674 163.076C250.674 163.076 246.058 163.076 239.137 163.076C232.213 163.076 222.983 167.951 222.983 167.951C222.983 167.951 139.139 163.962 111.01 163.076C82.8782 162.19 66.0664 153.44 59.4722 148.123C52.8792 142.806 40.5169 129.015 40.5169 129.015C42.33 125.361 56.8354 124.861 56.8354 124.861L56.8902 124.813Z" fill="#175F1A"/>
<path fill-rule="evenodd" clip-rule="evenodd" d="M247.975 128.453C247.975 128.453 238.568 119.995 235.237 117.175C231.908 114.355 230.742 114.024 227.495 117.175C224.249 120.326 218.172 126.048 216.923 127.79C215.673 129.532 219.836 132.434 223.582 136.165C227.329 139.897 235.237 144.79 235.237 144.79C235.237 144.79 244.146 151.258 246.144 154.575C248.141 157.892 256.799 149.268 256.966 147.609C256.966 147.609 252.137 142.095 251.138 138.799C250.141 135.502 250.03 130.296 247.975 128.453Z" fill="#1D1E1E"/>
<path fill-rule="evenodd" clip-rule="evenodd" d="M248.112 139.935C247.729 138.69 247.472 137.301 247.224 135.956C246.953 134.49 246.452 131.76 245.882 131.178C245.792 131.101 236.401 122.813 233.121 120.086C232.12 119.255 231.581 118.881 231.291 118.721C231.062 118.864 230.616 119.191 229.832 119.936C229.219 120.52 228.507 121.192 227.747 121.911C225.55 123.986 222.166 127.18 220.472 128.965C221.154 129.691 222.234 130.663 223.095 131.44C223.968 132.227 224.958 133.119 225.918 134.058C229.375 137.438 236.99 142.08 237.067 142.126L237.173 142.19L237.273 142.262C238.711 143.286 248.918 142.544 248.112 139.935Z" fill="#3C3E42"/>
<mask id="mask0" mask-type="alpha" maskUnits="userSpaceOnUse" x="40" y="109" width="211" height="59">
<path d="M202.544 133.78L196.775 125.792C196.775 125.792 169.909 121.632 169.743 120.8C169.578 119.967 166.172 114.92 164.854 114.476C163.535 114.032 93.4267 101.828 63.0991 119.135L56.8354 124.793C56.8354 124.793 42.33 125.293 40.5169 128.954C40.5169 128.954 52.8792 142.767 59.4722 148.092C66.0664 153.417 82.8782 162.182 111.01 163.068C139.139 163.957 222.983 167.951 222.983 167.951C222.983 167.951 232.213 163.068 239.137 163.068C246.058 163.068 250.674 163.068 250.674 163.068L237.489 146.095C237.489 146.095 233.642 146.649 231.884 145.318C230.125 143.987 222.983 135.777 222.983 135.777L202.544 133.78Z" fill="white"/>
</mask>
<g mask="url(#mask0)">
<path fill-rule="evenodd" clip-rule="evenodd" d="M209.146 155.328C209.146 155.328 151.996 113.747 43.0337 132.345L51.9608 149.293C51.9608 149.293 141.749 151.343 209.146 155.328Z" fill="#CBFFCF"/>
<path fill-rule="evenodd" clip-rule="evenodd" d="M202.675 133.869C202.675 133.869 111.958 121.079 56.1579 124.781C0.356879 128.484 46.9878 113.366 56.1579 109.706C65.3292 106.046 124.555 96.6223 152.4 98.8656C180.245 101.11 205.216 123.547 202.675 133.869Z" fill="#E3E6EA"/>
<path fill-rule="evenodd" clip-rule="evenodd" d="M207.888 155.328C207.888 155.328 171.587 132.007 103.438 127.557C103.438 127.557 168.578 131.681 193.456 154.447L207.888 155.328Z" fill="#4CD32B"/>
<path fill-rule="evenodd" clip-rule="evenodd" d="M191.528 154.066C191.528 154.066 168.186 132.841 100.921 127.557C100.921 127.557 152.259 130.471 176.888 153.253L191.528 154.066Z" fill="#4CD32B"/>
<path fill-rule="evenodd" clip-rule="evenodd" d="M114.764 113.672C114.764 113.672 100.981 119.775 97.0433 122.254C97.0433 122.254 81.113 122.826 77.3525 122.254C77.3525 122.254 75.742 118.503 73.2359 118.09C73.2359 118.09 100.623 113.672 114.764 113.672Z" fill="#97C28F"/>
<path fill-rule="evenodd" clip-rule="evenodd" d="M97.48 120.879C96.3788 120.916 90.0278 121.123 84.7715 121.123H84.7698C81.7368 121.123 79.6109 121.057 78.4357 120.923C78.104 120.262 77.2972 118.825 76.1057 117.818C82.1798 116.902 100.005 114.332 111.944 113.868C107.696 115.77 100.375 119.12 97.48 120.879ZM84.7698 122.508H84.7715C90.5419 122.508 97.6193 122.26 97.6904 122.258C97.8006 122.254 97.9078 122.221 98.0034 122.162C101.851 119.77 115.48 113.802 115.617 113.742C115.907 113.615 116.071 113.29 116.01 112.967C115.948 112.644 115.678 112.41 115.364 112.41C101.355 112.41 74.0695 116.731 73.7956 116.775C73.4744 116.825 73.2359 117.117 73.2359 117.458C73.2359 117.8 73.4726 118.092 73.7938 118.144C75.9116 118.489 77.3928 121.821 77.408 121.854C77.5012 122.069 77.6913 122.218 77.9116 122.251C79.0501 122.422 81.3573 122.508 84.7698 122.508Z" fill="#FFFFFE"/>
<path fill-rule="evenodd" clip-rule="evenodd" d="M85.3948 112.41L85.8202 112.159L84.9867 108.623L84.5618 108.874L85.3948 112.41Z" fill="#CCCED1"/>
</g>
<defs>
<filter id="filter0_d" x="262.055" y="86.1758" width="31.2969" height="130.317" filterUnits="userSpaceOnUse" color-interpolation-filters="sRGB">
<feFlood flood-opacity="0" result="BackgroundImageFix"/>
<feColorMatrix in="SourceAlpha" type="matrix" values="0 0 0 0 0 0 0 0 0 0 0 0 0 0 0 0 0 0 127 0"/>
<feOffset dx="1" dy="1"/>
<feGaussianBlur stdDeviation="1"/>
<feColorMatrix type="matrix" values="0 0 0 0 0 0 0 0 0 0 0 0 0 0 0 0 0 0 0.15 0"/>
<feBlend mode="normal" in2="BackgroundImageFix" result="effect1_dropShadow"/>
<feBlend mode="normal" in="SourceGraphic" in2="effect1_dropShadow" result="shape"/>
</filter>
<radialGradient id="paint0_radial" cx="0" cy="0" r="1" gradientUnits="userSpaceOnUse" gradientTransform="translate(150 150) rotate(90) scale(150)">
<stop offset="0.369792" stop-color="white" stop-opacity="0"/>
<stop offset="1" stop-color="#00FF0A" stop-opacity="0.83"/>
</radialGradient>
</defs>
</svg>
