<svg width="300" height="300" viewBox="0 0 300 300" fill="none" xmlns="http://www.w3.org/2000/svg">
<rect width="300" height="300" fill="white"/>
<rect width="300" height="300" fill="white"/>
<rect width="300" height="300" fill="white"/>
<rect width="300" height="300" fill="url(#paint0_radial)" fill-opacity="0.2"/>
<g filter="url(#filter0_d)">
<path d="M286.266 178.422C287.402 179.372 288.287 180.713 288.92 182.448C289.541 184.182 289.852 186.104 289.852 188.213C289.852 190.428 289.371 192.374 288.41 194.049C287.437 195.713 286.031 197.003 284.191 197.917C282.352 198.819 280.189 199.282 277.705 199.305L275.965 199.305C273.41 199.305 271.201 198.878 269.338 198.022C267.463 197.155 266.033 195.913 265.049 194.295C264.053 192.667 263.555 190.762 263.555 188.583C263.555 185.547 264.281 183.174 265.734 181.463C267.176 179.753 269.279 178.739 272.045 178.422L272.045 183.555C270.58 183.79 269.508 184.311 268.828 185.12C268.148 185.917 267.809 187.018 267.809 188.424C267.809 190.217 268.482 191.583 269.83 192.52C271.178 193.458 273.182 193.932 275.842 193.944L277.477 193.944C280.16 193.944 282.187 193.434 283.559 192.415C284.93 191.395 285.615 189.901 285.615 187.932C285.615 185.952 285.193 184.54 284.35 183.696L279.937 183.696L279.937 188.495L276.053 188.495L276.053 178.422L286.266 178.422ZM280.131 160.699L280.131 164.9L289.5 164.9L289.5 170.173L263.906 170.173L263.906 160.664C263.906 157.64 264.58 155.308 265.928 153.668C267.275 152.027 269.18 151.207 271.641 151.207C273.387 151.207 274.846 151.587 276.018 152.349C277.178 153.099 278.104 154.242 278.795 155.777L289.254 150.24L289.5 150.24L289.5 155.9L280.131 160.699ZM275.859 164.9L275.859 160.646C275.859 159.322 275.525 158.296 274.857 157.57C274.178 156.843 273.246 156.48 272.062 156.48C270.855 156.48 269.906 156.826 269.215 157.517C268.523 158.197 268.178 159.246 268.178 160.664L268.178 164.9L275.859 164.9ZM278.408 127.823L278.408 137.948L285.264 137.948L285.264 126.065L289.5 126.065L289.5 143.221L263.906 143.221L263.906 126.1L268.178 126.1L268.178 137.948L274.277 137.948L274.277 127.823L278.408 127.823ZM275.437 110.187L263.906 104.861L263.906 99.0952L280.219 107.497L289.5 107.497L289.5 112.859L280.219 112.859L263.906 121.261L263.906 115.478L275.437 110.187Z" fill="white"/>
<path d="M286.266 178.422L286.586 178.039L286.447 177.922L286.266 177.922L286.266 178.422ZM288.92 182.448L289.391 182.279L289.39 182.276L288.92 182.448ZM288.41 194.049L288.842 194.302L288.844 194.298L288.41 194.049ZM284.191 197.917L284.412 198.365L284.414 198.364L284.191 197.917ZM277.705 199.305L277.705 199.805L277.71 199.805L277.705 199.305ZM269.338 198.022L269.128 198.476L269.129 198.476L269.338 198.022ZM265.049 194.295L265.476 194.035L265.475 194.035L265.049 194.295ZM265.734 181.463L266.115 181.787L266.117 181.786L265.734 181.463ZM272.045 178.422L272.545 178.422L272.545 177.862L271.988 177.926L272.045 178.422ZM272.045 183.555L272.124 184.049L272.545 183.982L272.545 183.555L272.045 183.555ZM268.828 185.12L269.209 185.444L269.211 185.441L268.828 185.12ZM275.842 193.944L275.84 194.444L275.842 194.444L275.842 193.944ZM284.35 183.696L284.703 183.342L284.557 183.196L284.35 183.196L284.35 183.696ZM279.937 183.696L279.937 183.196L279.437 183.196L279.437 183.696L279.937 183.696ZM279.937 188.495L279.937 188.995L280.437 188.995L280.437 188.495L279.937 188.495ZM276.053 188.495L275.553 188.495L275.553 188.995L276.053 188.995L276.053 188.495ZM276.053 178.422L276.053 177.922L275.553 177.922L275.553 178.422L276.053 178.422ZM285.945 178.806C287 179.687 287.84 180.947 288.45 182.619L289.39 182.276C288.734 180.48 287.805 179.057 286.586 178.039L285.945 178.806ZM288.449 182.616C289.048 184.289 289.352 186.153 289.352 188.213L290.352 188.213C290.352 186.055 290.034 184.075 289.391 182.279L288.449 182.616ZM289.352 188.213C289.352 190.354 288.888 192.211 287.976 193.801L288.844 194.298C289.854 192.536 290.352 190.503 290.352 188.213L289.352 188.213ZM287.978 193.797C287.058 195.371 285.728 196.595 283.969 197.469L284.414 198.364C286.335 197.41 287.817 196.056 288.842 194.302L287.978 193.797ZM283.971 197.468C282.211 198.331 280.126 198.782 277.7 198.805L277.71 199.805C280.253 199.781 282.492 199.307 284.412 198.365L283.971 197.468ZM277.705 198.805L275.965 198.805L275.965 199.805L277.705 199.805L277.705 198.805ZM275.965 198.805C273.465 198.805 271.33 198.387 269.547 197.568L269.129 198.476C271.072 199.368 273.355 199.805 275.965 199.805L275.965 198.805ZM269.548 197.568C267.754 196.739 266.404 195.56 265.476 194.035L264.622 194.555C265.662 196.265 267.172 197.571 269.128 198.476L269.548 197.568ZM265.475 194.035C264.534 192.495 264.055 190.684 264.055 188.583L263.055 188.583C263.055 190.841 263.572 192.838 264.622 194.556L265.475 194.035ZM264.055 188.583C264.055 185.624 264.762 183.38 266.115 181.787L265.353 181.14C263.8 182.969 263.055 185.471 263.055 188.583L264.055 188.583ZM266.117 181.786C267.457 180.195 269.43 179.225 272.102 178.919L271.988 177.926C269.128 178.253 266.895 179.31 265.352 181.141L266.117 181.786ZM271.545 178.422L271.545 183.555L272.545 183.555L272.545 178.422L271.545 178.422ZM271.966 183.062C270.43 183.307 269.229 183.866 268.445 184.798L269.211 185.441C269.787 184.756 270.73 184.272 272.124 184.049L271.966 183.062ZM268.448 184.795C267.668 185.71 267.309 186.94 267.309 188.424L268.309 188.424C268.309 187.096 268.629 186.124 269.209 185.444L268.448 184.795ZM267.309 188.424C267.309 190.363 268.049 191.89 269.545 192.931L270.116 192.11C268.916 191.275 268.309 190.071 268.309 188.424L267.309 188.424ZM269.545 192.931C271.013 193.952 273.135 194.432 275.84 194.444L275.844 193.444C273.228 193.432 271.343 192.963 270.116 192.11L269.545 192.931ZM275.842 194.444L277.477 194.444L277.477 193.444L275.842 193.444L275.842 194.444ZM277.477 194.444C280.21 194.444 282.363 193.927 283.857 192.816L283.26 192.013C282.012 192.941 280.11 193.444 277.477 193.444L277.477 194.444ZM283.857 192.816C285.375 191.687 286.115 190.032 286.115 187.932L285.115 187.932C285.115 189.77 284.484 191.103 283.26 192.013L283.857 192.816ZM286.115 187.932C286.115 185.902 285.686 184.326 284.703 183.342L283.996 184.049C284.7 184.754 285.115 186.001 285.115 187.932L286.115 187.932ZM284.35 183.196L279.937 183.196L279.937 184.196L284.35 184.196L284.35 183.196ZM279.437 183.696L279.437 188.495L280.437 188.495L280.437 183.696L279.437 183.696ZM279.937 187.995L276.053 187.995L276.053 188.995L279.937 188.995L279.937 187.995ZM276.553 188.495L276.553 178.422L275.553 178.422L275.553 188.495L276.553 188.495ZM276.053 178.922L286.266 178.922L286.266 177.922L276.053 177.922L276.053 178.922ZM280.131 160.699L279.903 160.254L279.631 160.393L279.631 160.699L280.131 160.699ZM280.131 164.9L279.631 164.9L279.631 165.4L280.131 165.4L280.131 164.9ZM289.5 164.9L290 164.9L290 164.4L289.5 164.4L289.5 164.9ZM289.5 170.173L289.5 170.673L290 170.673L290 170.173L289.5 170.173ZM263.906 170.173L263.406 170.173L263.406 170.673L263.906 170.673L263.906 170.173ZM276.018 152.349L275.745 152.768L275.746 152.769L276.018 152.349ZM278.795 155.777L278.339 155.982L278.558 156.468L279.029 156.219L278.795 155.777ZM289.254 150.24L289.254 149.74L289.13 149.74L289.02 149.798L289.254 150.24ZM289.5 150.24L290 150.24L290 149.74L289.5 149.74L289.5 150.24ZM289.5 155.9L289.728 156.345L290 156.206L290 155.9L289.5 155.9ZM275.859 164.9L275.859 165.4L276.359 165.4L276.359 164.9L275.859 164.9ZM274.857 157.57L275.226 157.231L275.223 157.228L274.857 157.57ZM269.215 157.517L269.565 157.874L269.568 157.871L269.215 157.517ZM268.178 164.9L267.678 164.9L267.678 165.4L268.178 165.4L268.178 164.9ZM279.631 160.699L279.631 164.9L280.631 164.9L280.631 160.699L279.631 160.699ZM280.131 165.4L289.5 165.4L289.5 164.4L280.131 164.4L280.131 165.4ZM289 164.9L289 170.173L290 170.173L290 164.9L289 164.9ZM289.5 169.673L263.906 169.673L263.906 170.673L289.5 170.673L289.5 169.673ZM264.406 170.173L264.406 160.664L263.406 160.664L263.406 170.173L264.406 170.173ZM264.406 160.664C264.406 157.708 265.066 155.505 266.314 153.985L265.541 153.35C264.095 155.111 263.406 157.573 263.406 160.664L264.406 160.664ZM266.314 153.985C267.551 152.479 269.303 151.707 271.641 151.707L271.641 150.707C269.057 150.707 267 151.575 265.541 153.35L266.314 153.985ZM271.641 151.707C273.314 151.707 274.672 152.071 275.745 152.768L276.29 151.93C275.019 151.104 273.459 150.707 271.641 150.707L271.641 151.707ZM275.746 152.769C276.809 153.456 277.678 154.516 278.339 155.982L279.251 155.572C278.529 153.968 277.546 152.742 276.289 151.929L275.746 152.769ZM279.029 156.219L289.488 150.682L289.02 149.798L278.561 155.335L279.029 156.219ZM289.254 150.74L289.5 150.74L289.5 149.74L289.254 149.74L289.254 150.74ZM289 150.24L289 155.9L290 155.9L290 150.24L289 150.24ZM289.272 155.455L279.903 160.254L280.359 161.144L289.728 156.345L289.272 155.455ZM276.359 164.9L276.359 160.646L275.359 160.646L275.359 164.9L276.359 164.9ZM276.359 160.646C276.359 159.24 276.004 158.078 275.225 157.231L274.489 157.908C275.047 158.515 275.359 159.404 275.359 160.646L276.359 160.646ZM275.223 157.228C274.43 156.382 273.356 155.98 272.062 155.98L272.062 156.98C273.136 156.98 273.925 157.305 274.492 157.911L275.223 157.228ZM272.062 155.98C270.756 155.98 269.667 156.357 268.861 157.164L269.568 157.871C270.145 157.294 270.955 156.98 272.062 156.98L272.062 155.98ZM268.864 157.161C268.041 157.97 267.678 159.174 267.678 160.664L268.678 160.664C268.678 159.318 269.006 158.423 269.565 157.874L268.864 157.161ZM267.678 160.664L267.678 164.9L268.678 164.9L268.678 160.664L267.678 160.664ZM268.178 165.4L275.859 165.4L275.859 164.4L268.178 164.4L268.178 165.4ZM278.408 127.823L278.908 127.823L278.908 127.323L278.408 127.323L278.408 127.823ZM278.408 137.948L277.908 137.948L277.908 138.448L278.408 138.448L278.408 137.948ZM285.264 137.948L285.264 138.448L285.764 138.448L285.764 137.948L285.264 137.948ZM285.264 126.065L285.264 125.565L284.764 125.565L284.764 126.065L285.264 126.065ZM289.5 126.065L290 126.065L290 125.565L289.5 125.565L289.5 126.065ZM289.5 143.221L289.5 143.721L290 143.721L290 143.221L289.5 143.221ZM263.906 143.221L263.406 143.221L263.406 143.721L263.906 143.721L263.906 143.221ZM263.906 126.1L263.906 125.6L263.406 125.6L263.406 126.1L263.906 126.1ZM268.178 126.1L268.678 126.1L268.678 125.6L268.178 125.6L268.178 126.1ZM268.178 137.948L267.678 137.948L267.678 138.448L268.178 138.448L268.178 137.948ZM274.277 137.948L274.277 138.448L274.777 138.448L274.777 137.948L274.277 137.948ZM274.277 127.823L274.277 127.323L273.777 127.323L273.777 127.823L274.277 127.823ZM277.908 127.823L277.908 137.948L278.908 137.948L278.908 127.823L277.908 127.823ZM278.408 138.448L285.264 138.448L285.264 137.448L278.408 137.448L278.408 138.448ZM285.764 137.948L285.764 126.065L284.764 126.065L284.764 137.948L285.764 137.948ZM285.264 126.565L289.5 126.565L289.5 125.565L285.264 125.565L285.264 126.565ZM289 126.065L289 143.221L290 143.221L290 126.065L289 126.065ZM289.5 142.721L263.906 142.721L263.906 143.721L289.5 143.721L289.5 142.721ZM264.406 143.221L264.406 126.1L263.406 126.1L263.406 143.221L264.406 143.221ZM263.906 126.6L268.178 126.6L268.178 125.6L263.906 125.6L263.906 126.6ZM267.678 126.1L267.678 137.948L268.678 137.948L268.678 126.1L267.678 126.1ZM268.178 138.448L274.277 138.448L274.277 137.448L268.178 137.448L268.178 138.448ZM274.777 137.948L274.777 127.823L273.777 127.823L273.777 137.948L274.777 137.948ZM274.277 128.323L278.408 128.323L278.408 127.323L274.277 127.323L274.277 128.323ZM275.437 110.187L275.646 110.641L276.633 110.188L275.647 109.733L275.437 110.187ZM263.906 104.861L263.406 104.861L263.406 105.181L263.697 105.315L263.906 104.861ZM263.906 99.0952L264.135 98.6507L263.406 98.2752L263.406 99.0952L263.906 99.0952ZM280.219 107.497L279.99 107.942L280.098 107.997L280.219 107.997L280.219 107.497ZM289.5 107.497L290 107.497L290 106.997L289.5 106.997L289.5 107.497ZM289.5 112.859L289.5 113.359L290 113.359L290 112.859L289.5 112.859ZM280.219 112.859L280.219 112.359L280.098 112.359L279.99 112.414L280.219 112.859ZM263.906 121.261L263.406 121.261L263.406 122.081L264.135 121.706L263.906 121.261ZM263.906 115.478L263.698 115.024L263.406 115.157L263.406 115.478L263.906 115.478ZM275.647 109.733L264.116 104.407L263.697 105.315L275.228 110.641L275.647 109.733ZM264.406 104.861L264.406 99.0952L263.406 99.0952L263.406 104.861L264.406 104.861ZM263.677 99.5397L279.99 107.942L280.448 107.053L264.135 98.6507L263.677 99.5397ZM280.219 107.997L289.5 107.997L289.5 106.997L280.219 106.997L280.219 107.997ZM289 107.497L289 112.859L290 112.859L290 107.497L289 107.497ZM289.5 112.359L280.219 112.359L280.219 113.359L289.5 113.359L289.5 112.359ZM279.99 112.414L263.677 120.817L264.135 121.706L280.448 113.303L279.99 112.414ZM264.406 121.261L264.406 115.478L263.406 115.478L263.406 121.261L264.406 121.261ZM264.115 115.932L275.646 110.641L275.229 109.733L263.698 115.024L264.115 115.932Z" fill="#766F00"/>
</g>
<path d="M60.3125 265.742C60.1302 269.701 59.0625 273.203 57.1094 276.25C55.1562 279.271 52.4089 281.615 48.8672 283.281C45.3516 284.948 41.3281 285.781 36.7969 285.781C29.3229 285.781 23.4375 283.346 19.1406 278.477C14.8438 273.607 12.6953 266.732 12.6953 257.852V255.039C12.6953 249.466 13.6589 244.596 15.5859 240.43C17.5391 236.237 20.3385 233.008 23.9844 230.742C27.6302 228.451 31.849 227.305 36.6406 227.305C43.5417 227.305 49.0885 229.128 53.2812 232.773C57.474 236.393 59.8568 241.393 60.4297 247.773H46.7578C46.6536 244.31 45.7812 241.823 44.1406 240.312C42.5 238.802 40 238.047 36.6406 238.047C33.2292 238.047 30.7292 239.323 29.1406 241.875C27.5521 244.427 26.7188 248.503 26.6406 254.102V258.125C26.6406 264.193 27.3958 268.529 28.9062 271.133C30.4427 273.737 33.0729 275.039 36.7969 275.039C39.9479 275.039 42.3568 274.297 44.0234 272.812C45.6901 271.328 46.5755 268.971 46.6797 265.742H60.3125ZM81.6344 279.727H72.3883L70.6305 285H65.023L74.5504 259.406H79.4371L89.0172 285H83.4098L81.6344 279.727ZM73.8121 275.455H80.2105L76.9938 265.875L73.8121 275.455ZM99.2012 280.764H110.399V285H93.9278V259.406H99.2012V280.764ZM134.926 276.475C134.727 279.229 133.708 281.396 131.868 282.979C130.04 284.561 127.626 285.352 124.626 285.352C121.344 285.352 118.76 284.25 116.874 282.047C114.999 279.832 114.061 276.797 114.061 272.941V271.377C114.061 268.916 114.495 266.748 115.362 264.873C116.229 262.998 117.465 261.562 119.071 260.566C120.688 259.559 122.563 259.055 124.696 259.055C127.649 259.055 130.028 259.846 131.833 261.428C133.637 263.01 134.68 265.23 134.961 268.09H129.688C129.559 266.438 129.096 265.242 128.299 264.504C127.514 263.754 126.313 263.379 124.696 263.379C122.938 263.379 121.62 264.012 120.741 265.277C119.874 266.531 119.428 268.482 119.405 271.131V273.064C119.405 275.83 119.821 277.852 120.653 279.129C121.497 280.406 122.821 281.045 124.626 281.045C126.254 281.045 127.467 280.676 128.264 279.938C129.073 279.188 129.536 278.033 129.653 276.475H134.926ZM160.28 259.406V276.264C160.28 279.064 159.401 281.279 157.644 282.908C155.898 284.537 153.507 285.352 150.472 285.352C147.483 285.352 145.11 284.561 143.353 282.979C141.595 281.396 140.698 279.223 140.663 276.457V259.406H145.937V276.299C145.937 277.975 146.335 279.199 147.132 279.973C147.94 280.734 149.054 281.115 150.472 281.115C153.437 281.115 154.942 279.557 154.989 276.439V259.406H160.28ZM172.398 280.764H183.595V285H167.125V259.406H172.398V280.764ZM203.957 279.727H194.711L192.953 285H187.346L196.873 259.406H201.76L211.34 285H205.732L203.957 279.727ZM196.135 275.455H202.533L199.316 265.875L196.135 275.455ZM233.407 263.678H225.567V285H220.293V263.678H212.559V259.406H233.407V263.678ZM259.481 272.783C259.481 275.303 259.036 277.512 258.145 279.41C257.255 281.309 255.977 282.773 254.313 283.805C252.661 284.836 250.763 285.352 248.618 285.352C246.497 285.352 244.604 284.842 242.94 283.822C241.276 282.803 239.987 281.35 239.073 279.463C238.159 277.564 237.696 275.385 237.685 272.924V271.658C237.685 269.139 238.136 266.924 239.038 265.014C239.952 263.092 241.235 261.621 242.888 260.602C244.552 259.57 246.45 259.055 248.583 259.055C250.716 259.055 252.608 259.57 254.261 260.602C255.925 261.621 257.208 263.092 258.11 265.014C259.024 266.924 259.481 269.133 259.481 271.641V272.783ZM254.138 271.623C254.138 268.939 253.657 266.9 252.696 265.506C251.735 264.111 250.364 263.414 248.583 263.414C246.813 263.414 245.448 264.105 244.487 265.488C243.526 266.859 243.04 268.875 243.028 271.535V272.783C243.028 275.396 243.509 277.424 244.47 278.865C245.431 280.307 246.813 281.027 248.618 281.027C250.388 281.027 251.747 280.336 252.696 278.953C253.645 277.559 254.126 275.531 254.138 272.871V271.623ZM275.308 275.631H271.107V285H265.833V259.406H275.343C278.367 259.406 280.699 260.08 282.339 261.428C283.98 262.775 284.8 264.68 284.8 267.141C284.8 268.887 284.419 270.346 283.658 271.518C282.908 272.678 281.765 273.604 280.23 274.295L285.767 284.754V285H280.107L275.308 275.631ZM271.107 271.359H275.361C276.685 271.359 277.71 271.025 278.437 270.357C279.164 269.678 279.527 268.746 279.527 267.562C279.527 266.355 279.181 265.406 278.49 264.715C277.81 264.023 276.761 263.678 275.343 263.678H271.107V271.359Z" fill="black"/>
<path d="M68.3851 28.8535C68.3851 28.1445 68.1361 27.585 67.638 27.1748C67.14 26.7588 66.2289 26.3662 64.9046 25.9971C63.5804 25.6221 62.6136 25.2148 62.0043 24.7754C61.1371 24.1543 60.7035 23.3398 60.7035 22.332C60.7035 21.3535 61.1048 20.5596 61.9076 19.9502C62.7162 19.335 63.7474 19.0273 65.0013 19.0273C65.8509 19.0273 66.6097 19.1914 67.2777 19.5195C67.9515 19.8477 68.473 20.3047 68.8421 20.8906C69.2113 21.4766 69.3959 22.1299 69.3959 22.8506H68.306C68.306 21.9775 68.0072 21.2773 67.4095 20.75C66.8119 20.2168 66.0091 19.9502 65.0013 19.9502C64.0228 19.9502 63.2435 20.1699 62.6634 20.6094C62.0834 21.043 61.7933 21.6113 61.7933 22.3145C61.7933 22.9648 62.0541 23.4951 62.5755 23.9053C63.097 24.3154 63.932 24.6787 65.0804 24.9951C66.2289 25.3057 67.099 25.6309 67.6908 25.9707C68.2826 26.3047 68.7279 26.7061 69.0267 27.1748C69.3255 27.6436 69.475 28.1973 69.475 28.8359C69.475 29.8438 69.0707 30.6523 68.2621 31.2617C67.4593 31.8711 66.3988 32.1758 65.0804 32.1758C64.1781 32.1758 63.349 32.0146 62.5931 31.6924C61.8431 31.3701 61.2718 30.9189 60.8793 30.3389C60.4925 29.7588 60.2992 29.0938 60.2992 28.3438H61.3802C61.3802 29.2461 61.7171 29.958 62.391 30.4795C63.0648 31.001 63.9613 31.2617 65.0804 31.2617C66.0765 31.2617 66.8763 31.042 67.4798 30.6025C68.0834 30.1631 68.3851 29.5801 68.3851 28.8535ZM82.8544 28.0098C82.7079 29.3574 82.2245 30.3887 81.4042 31.1035C80.5897 31.8184 79.5028 32.1758 78.1434 32.1758C77.1942 32.1758 76.3534 31.9385 75.621 31.4639C74.8944 30.9893 74.3319 30.3184 73.9335 29.4512C73.535 28.5781 73.3329 27.582 73.327 26.4629V24.8018C73.327 23.665 73.5262 22.6572 73.9247 21.7783C74.3231 20.8994 74.8944 20.2227 75.6385 19.748C76.3885 19.2676 77.2499 19.0273 78.2225 19.0273C79.5936 19.0273 80.6747 19.3994 81.4657 20.1436C82.2626 20.8818 82.7255 21.9043 82.8544 23.2109H81.7645C81.495 21.0371 80.3143 19.9502 78.2225 19.9502C77.0624 19.9502 76.1366 20.3838 75.4452 21.251C74.7596 22.1182 74.4169 23.3164 74.4169 24.8457V26.4102C74.4169 27.8867 74.7509 29.0645 75.4188 29.9434C76.0927 30.8223 77.0009 31.2617 78.1434 31.2617C79.2743 31.2617 80.1268 30.9922 80.701 30.4531C81.2753 29.9082 81.6298 29.0938 81.7645 28.0098H82.8544ZM96.9457 32H95.8559V25.8652H88.5434V32H87.4623V19.2031H88.5434V24.9512H95.8559V19.2031H96.9457V32ZM111.643 26.2959C111.643 27.4736 111.438 28.5078 111.028 29.3984C110.624 30.2891 110.044 30.9746 109.288 31.4551C108.532 31.9355 107.659 32.1758 106.669 32.1758C105.175 32.1758 103.968 31.6426 103.048 30.5762C102.128 29.5039 101.668 28.0596 101.668 26.2432V24.9248C101.668 23.7588 101.873 22.7275 102.283 21.8311C102.699 20.9287 103.285 20.2373 104.041 19.7568C104.797 19.2705 105.667 19.0273 106.651 19.0273C107.636 19.0273 108.503 19.2646 109.253 19.7393C110.009 20.2139 110.592 20.8848 111.002 21.752C111.412 22.6191 111.626 23.624 111.643 24.7666V26.2959ZM110.562 24.9072C110.562 23.3662 110.214 22.1592 109.517 21.2861C108.819 20.4131 107.864 19.9766 106.651 19.9766C105.462 19.9766 104.513 20.416 103.804 21.2949C103.101 22.168 102.749 23.3896 102.749 24.96V26.2959C102.749 27.8135 103.101 29.0176 103.804 29.9082C104.507 30.793 105.462 31.2354 106.669 31.2354C107.893 31.2354 108.849 30.7988 109.534 29.9258C110.22 29.0469 110.562 27.8252 110.562 26.2607V24.9072ZM125.805 26.2959C125.805 27.4736 125.6 28.5078 125.19 29.3984C124.786 30.2891 124.206 30.9746 123.45 31.4551C122.694 31.9355 121.821 32.1758 120.831 32.1758C119.336 32.1758 118.129 31.6426 117.209 30.5762C116.289 29.5039 115.83 28.0596 115.83 26.2432V24.9248C115.83 23.7588 116.035 22.7275 116.445 21.8311C116.861 20.9287 117.447 20.2373 118.203 19.7568C118.958 19.2705 119.829 19.0273 120.813 19.0273C121.797 19.0273 122.664 19.2646 123.414 19.7393C124.17 20.2139 124.753 20.8848 125.164 21.752C125.574 22.6191 125.788 23.624 125.805 24.7666V26.2959ZM124.724 24.9072C124.724 23.3662 124.375 22.1592 123.678 21.2861C122.981 20.4131 122.026 19.9766 120.813 19.9766C119.623 19.9766 118.674 20.416 117.965 21.2949C117.262 22.168 116.911 23.3896 116.911 24.96V26.2959C116.911 27.8135 117.262 29.0176 117.965 29.9082C118.668 30.793 119.623 31.2354 120.831 31.2354C122.055 31.2354 123.01 30.7988 123.696 29.9258C124.381 29.0469 124.724 27.8252 124.724 26.2607V24.9072ZM131.6 31.0859H137.919V32H130.51V19.2031H131.6V31.0859ZM155.581 28.8535C155.581 28.1445 155.332 27.585 154.834 27.1748C154.336 26.7588 153.425 26.3662 152.101 25.9971C150.776 25.6221 149.81 25.2148 149.2 24.7754C148.333 24.1543 147.899 23.3398 147.899 22.332C147.899 21.3535 148.301 20.5596 149.104 19.9502C149.912 19.335 150.943 19.0273 152.197 19.0273C153.047 19.0273 153.806 19.1914 154.474 19.5195C155.147 19.8477 155.669 20.3047 156.038 20.8906C156.407 21.4766 156.592 22.1299 156.592 22.8506H155.502C155.502 21.9775 155.203 21.2773 154.605 20.75C154.008 20.2168 153.205 19.9502 152.197 19.9502C151.219 19.9502 150.439 20.1699 149.859 20.6094C149.279 21.043 148.989 21.6113 148.989 22.3145C148.989 22.9648 149.25 23.4951 149.771 23.9053C150.293 24.3154 151.128 24.6787 152.276 24.9951C153.425 25.3057 154.295 25.6309 154.887 25.9707C155.479 26.3047 155.924 26.7061 156.223 27.1748C156.521 27.6436 156.671 28.1973 156.671 28.8359C156.671 29.8438 156.267 30.6523 155.458 31.2617C154.655 31.8711 153.595 32.1758 152.276 32.1758C151.374 32.1758 150.545 32.0146 149.789 31.6924C149.039 31.3701 148.468 30.9189 148.075 30.3389C147.688 29.7588 147.495 29.0938 147.495 28.3438H148.576C148.576 29.2461 148.913 29.958 149.587 30.4795C150.261 31.001 151.157 31.2617 152.276 31.2617C153.272 31.2617 154.072 31.042 154.676 30.6025C155.279 30.1631 155.581 29.5801 155.581 28.8535ZM169.804 19.2031V27.9395C169.798 28.8008 169.608 29.5508 169.233 30.1895C168.858 30.8281 168.328 31.3203 167.642 31.666C166.962 32.0059 166.18 32.1758 165.295 32.1758C163.948 32.1758 162.867 31.8096 162.052 31.0771C161.244 30.3389 160.825 29.3193 160.795 28.0186V19.2031H161.868V27.8604C161.868 28.9385 162.175 29.7764 162.791 30.374C163.406 30.9658 164.241 31.2617 165.295 31.2617C166.35 31.2617 167.182 30.9629 167.792 30.3652C168.407 29.7676 168.714 28.9355 168.714 27.8691V19.2031H169.804ZM175.88 26.7881V32H174.799V19.2031H179.158C180.488 19.2031 181.537 19.543 182.305 20.2227C183.078 20.9023 183.465 21.8369 183.465 23.0264C183.465 24.2275 183.093 25.1562 182.349 25.8125C181.61 26.4629 180.538 26.7881 179.132 26.7881H175.88ZM175.88 25.874H179.158C180.207 25.874 181.007 25.625 181.558 25.127C182.108 24.6289 182.384 23.9346 182.384 23.0439C182.384 22.1592 182.108 21.4561 181.558 20.9346C181.013 20.4072 180.236 20.1377 179.229 20.126H175.88V25.874ZM188.952 26.7881V32H187.871V19.2031H192.23C193.56 19.2031 194.609 19.543 195.377 20.2227C196.15 20.9023 196.537 21.8369 196.537 23.0264C196.537 24.2275 196.165 25.1562 195.42 25.8125C194.682 26.4629 193.61 26.7881 192.204 26.7881H188.952ZM188.952 25.874H192.23C193.279 25.874 194.079 25.625 194.629 25.127C195.18 24.6289 195.456 23.9346 195.456 23.0439C195.456 22.1592 195.18 21.4561 194.629 20.9346C194.085 20.4072 193.308 20.1377 192.3 20.126H188.952V25.874ZM202.032 31.0859H208.352V32H200.942V19.2031H202.032V31.0859ZM213.733 32H212.652V19.2031H213.733V32ZM226.26 25.8652H220.275V31.0859H227.156V32H219.193V19.2031H227.112V20.126H220.275V24.9512H226.26V25.8652ZM238.664 28.8535C238.664 28.1445 238.415 27.585 237.917 27.1748C237.419 26.7588 236.507 26.3662 235.183 25.9971C233.859 25.6221 232.892 25.2148 232.283 24.7754C231.416 24.1543 230.982 23.3398 230.982 22.332C230.982 21.3535 231.383 20.5596 232.186 19.9502C232.995 19.335 234.026 19.0273 235.28 19.0273C236.13 19.0273 236.888 19.1914 237.556 19.5195C238.23 19.8477 238.752 20.3047 239.121 20.8906C239.49 21.4766 239.674 22.1299 239.674 22.8506H238.585C238.585 21.9775 238.286 21.2773 237.688 20.75C237.09 20.2168 236.288 19.9502 235.28 19.9502C234.301 19.9502 233.522 20.1699 232.942 20.6094C232.362 21.043 232.072 21.6113 232.072 22.3145C232.072 22.9648 232.333 23.4951 232.854 23.9053C233.376 24.3154 234.211 24.6787 235.359 24.9951C236.507 25.3057 237.378 25.6309 237.969 25.9707C238.561 26.3047 239.006 26.7061 239.305 27.1748C239.604 27.6436 239.754 28.1973 239.754 28.8359C239.754 29.8438 239.349 30.6523 238.541 31.2617C237.738 31.8711 236.677 32.1758 235.359 32.1758C234.457 32.1758 233.628 32.0146 232.872 31.6924C232.122 31.3701 231.55 30.9189 231.158 30.3389C230.771 29.7588 230.578 29.0938 230.578 28.3438H231.659C231.659 29.2461 231.996 29.958 232.67 30.4795C233.343 31.001 234.24 31.2617 235.359 31.2617C236.355 31.2617 237.155 31.042 237.758 30.6025C238.362 30.1631 238.664 29.5801 238.664 28.8535Z" fill="black"/>
<path fill-rule="evenodd" clip-rule="evenodd" d="M94 218.038V80.963C94 77.6694 96.7213 75 100.079 75H198.923C202.279 75 205 77.6694 205 80.963V218.038C205 221.331 202.279 224 198.923 224H100.079C96.7213 224 94 221.331 94 218.038Z" fill="#999999"/>
<path fill-rule="evenodd" clip-rule="evenodd" d="M116.363 133.581H102.258C99.8105 133.581 97.8276 131.717 97.8276 129.416V119.917C97.8276 117.617 99.8105 115.752 102.258 115.752H116.363C118.81 115.752 120.793 117.617 120.793 119.917V129.416C120.793 131.717 118.81 133.581 116.363 133.581Z" fill="black"/>
<path fill-rule="evenodd" clip-rule="evenodd" d="M143.704 133.581H125.951C124.512 133.581 123.345 132.631 123.345 131.458V117.876C123.345 116.703 124.512 115.752 125.951 115.752H143.704C145.143 115.752 146.31 116.703 146.31 117.876V131.458C146.31 132.631 145.143 133.581 143.704 133.581Z" fill="black"/>
<path fill-rule="evenodd" clip-rule="evenodd" d="M170.498 133.581H152.743C151.304 133.581 150.138 132.631 150.138 131.458V117.876C150.138 116.703 151.304 115.752 152.743 115.752H170.498C171.937 115.752 173.103 116.703 173.103 117.876V131.458C173.103 132.631 171.937 133.581 170.498 133.581Z" fill="black"/>
<path fill-rule="evenodd" clip-rule="evenodd" d="M194.19 133.581H180.085C177.639 133.581 175.655 131.717 175.655 129.416V119.917C175.655 117.617 177.639 115.752 180.085 115.752H194.19C196.637 115.752 198.621 117.617 198.621 119.917V129.416C198.621 131.717 196.637 133.581 194.19 133.581Z" fill="black"/>
<path fill-rule="evenodd" clip-rule="evenodd" d="M118.188 153.957H100.433C98.9941 153.957 97.8276 152.88 97.8276 151.553V138.532C97.8276 137.204 98.9941 136.128 100.433 136.128H118.188C119.627 136.128 120.793 137.204 120.793 138.532V151.553C120.793 152.88 119.627 153.957 118.188 153.957Z" fill="black"/>
<path fill-rule="evenodd" clip-rule="evenodd" d="M143.704 153.957H125.951C124.512 153.957 123.345 153.007 123.345 151.834V138.252C123.345 137.079 124.512 136.128 125.951 136.128H143.704C145.143 136.128 146.31 137.079 146.31 138.252V151.834C146.31 153.007 145.143 153.957 143.704 153.957Z" fill="black"/>
<path fill-rule="evenodd" clip-rule="evenodd" d="M170.498 153.957H152.743C151.304 153.957 150.138 153.007 150.138 151.834V138.252C150.138 137.079 151.304 136.128 152.743 136.128H170.498C171.937 136.128 173.103 137.079 173.103 138.252V151.834C173.103 153.007 171.937 153.957 170.498 153.957Z" fill="black"/>
<path fill-rule="evenodd" clip-rule="evenodd" d="M196.015 153.957H178.261C176.822 153.957 175.655 152.88 175.655 151.553V138.532C175.655 137.204 176.822 136.128 178.261 136.128H196.015C197.453 136.128 198.621 137.204 198.621 138.532V151.553C198.621 152.88 197.453 153.957 196.015 153.957Z" fill="black"/>
<path fill-rule="evenodd" clip-rule="evenodd" d="M118.188 175.607H100.433C98.9941 175.607 97.8276 174.531 97.8276 173.203V160.182C97.8276 158.854 98.9941 157.778 100.433 157.778H118.188C119.627 157.778 120.793 158.854 120.793 160.182V173.203C120.793 174.531 119.627 175.607 118.188 175.607Z" fill="black"/>
<path fill-rule="evenodd" clip-rule="evenodd" d="M143.704 175.607H125.951C124.512 175.607 123.345 174.656 123.345 173.483V159.901C123.345 158.728 124.512 157.778 125.951 157.778H143.704C145.143 157.778 146.31 158.728 146.31 159.901V173.483C146.31 174.656 145.143 175.607 143.704 175.607Z" fill="black"/>
<path fill-rule="evenodd" clip-rule="evenodd" d="M170.498 175.607H152.743C151.304 175.607 150.138 174.656 150.138 173.483V159.901C150.138 158.728 151.304 157.778 152.743 157.778H170.498C171.937 157.778 173.103 158.728 173.103 159.901V173.483C173.103 174.656 171.937 175.607 170.498 175.607Z" fill="black"/>
<path fill-rule="evenodd" clip-rule="evenodd" d="M196.015 175.607H178.261C176.822 175.607 175.655 174.531 175.655 173.203V160.182C175.655 158.854 176.822 157.778 178.261 157.778H196.015C197.453 157.778 198.621 158.854 198.621 160.182V173.203C198.621 174.531 197.453 175.607 196.015 175.607Z" fill="black"/>
<path fill-rule="evenodd" clip-rule="evenodd" d="M118.188 195.983H100.433C98.9941 195.983 97.8276 194.906 97.8276 193.579V180.557C97.8276 179.23 98.9941 178.154 100.433 178.154H118.188C119.627 178.154 120.793 179.23 120.793 180.557V193.579C120.793 194.906 119.627 195.983 118.188 195.983Z" fill="black"/>
<path fill-rule="evenodd" clip-rule="evenodd" d="M143.704 195.983H125.951C124.512 195.983 123.345 195.032 123.345 193.859V180.277C123.345 179.104 124.512 178.154 125.951 178.154H143.704C145.143 178.154 146.31 179.104 146.31 180.277V193.859C146.31 195.032 145.143 195.983 143.704 195.983Z" fill="black"/>
<path fill-rule="evenodd" clip-rule="evenodd" d="M170.498 195.983H152.743C151.304 195.983 150.138 195.032 150.138 193.859V180.277C150.138 179.104 151.304 178.154 152.743 178.154H170.498C171.937 178.154 173.103 179.104 173.103 180.277V193.859C173.103 195.032 171.937 195.983 170.498 195.983Z" fill="black"/>
<path fill-rule="evenodd" clip-rule="evenodd" d="M143.75 199.803H100.387C98.9736 199.803 97.8276 200.91 97.8276 202.275V215.161C97.8276 216.526 98.9736 217.633 100.387 217.633H143.75C145.164 217.633 146.31 216.682 146.31 215.509V201.927C146.31 200.754 145.164 199.803 143.75 199.803Z" fill="black"/>
<path fill-rule="evenodd" clip-rule="evenodd" d="M170.498 217.633H152.743C151.304 217.633 150.138 216.682 150.138 215.509V201.927C150.138 200.754 151.304 199.803 152.743 199.803H170.498C171.937 199.803 173.103 200.754 173.103 201.927V215.509C173.103 216.682 171.937 217.633 170.498 217.633Z" fill="black"/>
<path fill-rule="evenodd" clip-rule="evenodd" d="M196.015 178.154H178.261C176.822 178.154 175.655 179.264 175.655 180.634V215.083C175.655 216.491 176.822 217.632 178.261 217.632H196.015C197.453 217.632 198.621 216.491 198.621 215.083V180.634C198.621 179.264 197.453 178.154 196.015 178.154Z" fill="black"/>
<path fill-rule="evenodd" clip-rule="evenodd" d="M117.639 133.581H103.534C101.087 133.581 99.1035 131.716 99.1035 129.415V119.917C99.1035 117.617 101.087 115.752 103.534 115.752H117.639C120.085 115.752 122.069 117.617 122.069 119.917V129.415C122.069 131.716 120.085 133.581 117.639 133.581Z" fill="#57585B"/>
<path fill-rule="evenodd" clip-rule="evenodd" d="M144.981 133.581H127.226C125.787 133.581 124.621 132.631 124.621 131.458V117.876C124.621 116.703 125.787 115.752 127.226 115.752H144.981C146.42 115.752 147.586 116.703 147.586 117.876V131.458C147.586 132.631 146.42 133.581 144.981 133.581Z" fill="#57585B"/>
<path fill-rule="evenodd" clip-rule="evenodd" d="M171.773 133.581H154.02C152.581 133.581 151.414 132.631 151.414 131.458V117.876C151.414 116.703 152.581 115.752 154.02 115.752H171.773C173.212 115.752 174.379 116.703 174.379 117.876V131.458C174.379 132.631 173.212 133.581 171.773 133.581Z" fill="#57585B"/>
<path fill-rule="evenodd" clip-rule="evenodd" d="M195.466 133.581H181.361C178.914 133.581 176.931 131.716 176.931 129.415V119.917C176.931 117.617 178.914 115.752 181.361 115.752H195.466C197.914 115.752 199.897 117.617 199.897 119.917V129.415C199.897 131.716 197.914 133.581 195.466 133.581Z" fill="#57585B"/>
<path fill-rule="evenodd" clip-rule="evenodd" d="M119.463 155.231H101.71C100.271 155.231 99.1035 154.154 99.1035 152.827V139.806C99.1035 138.478 100.271 137.402 101.71 137.402H119.463C120.902 137.402 122.069 138.478 122.069 139.806V152.827C122.069 154.154 120.902 155.231 119.463 155.231Z" fill="#57585B"/>
<path fill-rule="evenodd" clip-rule="evenodd" d="M144.981 155.231H127.226C125.787 155.231 124.621 154.28 124.621 153.107V139.525C124.621 138.352 125.787 137.402 127.226 137.402H144.981C146.42 137.402 147.586 138.352 147.586 139.525V153.107C147.586 154.28 146.42 155.231 144.981 155.231Z" fill="#57585B"/>
<path fill-rule="evenodd" clip-rule="evenodd" d="M171.773 155.231H154.02C152.581 155.231 151.414 154.28 151.414 153.107V139.525C151.414 138.352 152.581 137.402 154.02 137.402H171.773C173.212 137.402 174.379 138.352 174.379 139.525V153.107C174.379 154.28 173.212 155.231 171.773 155.231Z" fill="#57585B"/>
<path fill-rule="evenodd" clip-rule="evenodd" d="M197.291 155.231H179.536C178.098 155.231 176.931 154.154 176.931 152.827V139.806C176.931 138.478 178.098 137.402 179.536 137.402H197.291C198.73 137.402 199.897 138.478 199.897 139.806V152.827C199.897 154.154 198.73 155.231 197.291 155.231Z" fill="#57585B"/>
<path fill-rule="evenodd" clip-rule="evenodd" d="M119.463 176.88H101.71C100.271 176.88 99.1035 175.803 99.1035 174.476V161.455C99.1035 160.127 100.271 159.051 101.71 159.051H119.463C120.902 159.051 122.069 160.127 122.069 161.455V174.476C122.069 175.803 120.902 176.88 119.463 176.88Z" fill="#57585B"/>
<path fill-rule="evenodd" clip-rule="evenodd" d="M144.981 176.88H127.226C125.787 176.88 124.621 175.93 124.621 174.757V161.175C124.621 160.002 125.787 159.051 127.226 159.051H144.981C146.42 159.051 147.586 160.002 147.586 161.175V174.757C147.586 175.93 146.42 176.88 144.981 176.88Z" fill="#57585B"/>
<path fill-rule="evenodd" clip-rule="evenodd" d="M171.773 176.88H154.02C152.581 176.88 151.414 175.93 151.414 174.757V161.175C151.414 160.002 152.581 159.051 154.02 159.051H171.773C173.212 159.051 174.379 160.002 174.379 161.175V174.757C174.379 175.93 173.212 176.88 171.773 176.88Z" fill="#57585B"/>
<path fill-rule="evenodd" clip-rule="evenodd" d="M197.291 176.88H179.536C178.098 176.88 176.931 175.803 176.931 174.476V161.455C176.931 160.127 178.098 159.051 179.536 159.051H197.291C198.73 159.051 199.897 160.127 199.897 161.455V174.476C199.897 175.803 198.73 176.88 197.291 176.88Z" fill="#57585B"/>
<path fill-rule="evenodd" clip-rule="evenodd" d="M119.463 197.256H101.71C100.271 197.256 99.1035 196.179 99.1035 194.852V181.832C99.1035 180.504 100.271 179.427 101.71 179.427H119.463C120.902 179.427 122.069 180.504 122.069 181.832V194.852C122.069 196.179 120.902 197.256 119.463 197.256Z" fill="#57585B"/>
<path fill-rule="evenodd" clip-rule="evenodd" d="M144.981 197.256H127.226C125.787 197.256 124.621 196.306 124.621 195.133V181.551C124.621 180.378 125.787 179.427 127.226 179.427H144.981C146.42 179.427 147.586 180.378 147.586 181.551V195.133C147.586 196.306 146.42 197.256 144.981 197.256Z" fill="#57585B"/>
<path fill-rule="evenodd" clip-rule="evenodd" d="M171.773 197.256H154.02C152.581 197.256 151.414 196.306 151.414 195.133V181.551C151.414 180.378 152.581 179.427 154.02 179.427H171.773C173.212 179.427 174.379 180.378 174.379 181.551V195.133C174.379 196.306 173.212 197.256 171.773 197.256Z" fill="#57585B"/>
<path fill-rule="evenodd" clip-rule="evenodd" d="M145.027 201.077H101.664C100.25 201.077 99.1035 202.183 99.1035 203.549V216.434C99.1035 217.799 100.25 218.906 101.664 218.906H145.027C146.44 218.906 147.586 217.955 147.586 216.782V203.2C147.586 202.027 146.44 201.077 145.027 201.077Z" fill="#57585B"/>
<path fill-rule="evenodd" clip-rule="evenodd" d="M171.773 218.906H154.02C152.581 218.906 151.414 217.955 151.414 216.782V203.2C151.414 202.027 152.581 201.077 154.02 201.077H171.773C173.212 201.077 174.379 202.027 174.379 203.2V216.782C174.379 217.955 173.212 218.906 171.773 218.906Z" fill="#57585B"/>
<path fill-rule="evenodd" clip-rule="evenodd" d="M197.291 179.427H179.536C178.098 179.427 176.931 180.538 176.931 181.908V216.355C176.931 217.764 178.098 218.906 179.536 218.906H197.291C198.73 218.906 199.897 217.764 199.897 216.355V181.908C199.897 180.538 198.73 179.427 197.291 179.427Z" fill="#342D2C"/>
<path fill-rule="evenodd" clip-rule="evenodd" d="M199.897 82.8976V105.307C199.897 107.558 198.042 109.385 195.755 109.385H103.25C102.789 109.385 102.343 109.309 101.927 109.169C100.285 108.625 99.1035 107.103 99.1035 105.307V82.8976C99.1035 80.6474 100.96 78.8206 103.25 78.8206H195.755C198.042 78.8206 199.897 80.6474 199.897 82.8976Z" fill="#51464E"/>
<path fill-rule="evenodd" clip-rule="evenodd" d="M132.276 78.8206L101.887 109.385C100.268 108.836 99.1035 107.304 99.1035 105.494V88.938L109.169 78.8206H132.276Z" fill="white"/>
<path fill-rule="evenodd" clip-rule="evenodd" d="M152.69 78.8206L121.359 109.385H105.483L136.809 78.8206H152.69Z" fill="white"/>
<path fill-rule="evenodd" clip-rule="evenodd" d="M162.897 78.8206L132.363 109.385H124.621L155.154 78.8206H162.897Z" fill="white"/>
<path fill-rule="evenodd" clip-rule="evenodd" d="M110.476 194.709V185.786L108.774 186.441L108.035 184.558L110.771 183.248H113.138V194.709H110.476Z" fill="#C7D2D8"/>
<path fill-rule="evenodd" clip-rule="evenodd" d="M141.207 186.85C141.207 187.778 140.81 188.58 140.016 189.257C139.773 189.464 139.509 189.671 139.222 189.879L135.666 192.417H141.207V194.709H132.276V191.599L138.23 187.341V186.522C138.23 185.868 137.899 185.541 137.238 185.541H132.607V183.248H137.899C139.057 183.248 139.897 183.507 140.421 184.026C140.945 184.544 141.207 185.376 141.207 186.522V186.85Z" fill="#C7D2D8"/>
<path fill-rule="evenodd" clip-rule="evenodd" d="M163.694 194.709C161.918 194.709 159.951 194.602 157.793 194.387V192.207C160.143 192.369 161.897 192.45 163.056 192.45C163.301 192.45 163.495 192.377 163.639 192.232C163.782 192.086 163.854 191.89 163.854 191.643V190.997C163.854 190.351 163.534 190.028 162.896 190.028H159.547V187.768H162.578C163.215 187.768 163.534 187.445 163.534 186.8V186.476C163.534 185.83 163.215 185.507 162.578 185.507H157.953V183.248H163.375C164.417 183.248 165.183 183.487 165.672 183.966C166.16 184.445 166.405 185.174 166.405 186.153C166.405 186.8 166.26 187.324 165.967 187.728C165.674 188.131 165.289 188.414 164.811 188.575C165.672 188.811 166.256 189.393 166.565 190.318C166.671 190.652 166.724 191.04 166.724 191.481V191.643C166.724 192.697 166.479 193.472 165.991 193.967C165.501 194.462 164.736 194.709 163.694 194.709Z" fill="#C7D2D8"/>
<path fill-rule="evenodd" clip-rule="evenodd" d="M111.574 170.767H105.483V168.475L109.435 161.598H112.726L108.775 168.475H111.574V166.019H114.537V168.475H115.69V170.767H114.537V173.06H111.574V170.767Z" fill="#C7D2D8"/>
<path fill-rule="evenodd" clip-rule="evenodd" d="M138.177 173.06C136.401 173.06 134.434 172.952 132.276 172.737V170.558C134.626 170.719 136.38 170.8 137.539 170.8C137.783 170.8 137.978 170.728 138.122 170.582C138.265 170.437 138.336 170.241 138.336 169.992V169.185C138.336 168.54 138.016 168.217 137.38 168.217H132.755V161.598H140.409V163.859H135.625V165.957H138.177C139.219 165.957 139.984 166.197 140.473 166.676C140.961 167.155 141.207 167.884 141.207 168.863V169.992C141.207 171.048 140.961 171.823 140.473 172.317C139.984 172.812 139.219 173.06 138.177 173.06Z" fill="#C7D2D8"/>
<path fill-rule="evenodd" clip-rule="evenodd" d="M162.494 167.966C162.096 167.966 161.734 167.987 161.405 168.029C161.075 168.072 160.812 168.104 160.614 168.125V169.877C160.614 170.512 160.927 170.832 161.554 170.832H162.964C163.591 170.832 163.904 170.512 163.904 169.877V168.523C163.904 168.364 163.852 168.232 163.747 168.125C163.643 168.019 163.512 167.966 163.356 167.966H162.494ZM160.77 161.598C162.201 161.598 163.925 161.704 165.941 161.917V164.066C165.367 164.034 164.877 164.005 164.476 163.978C164.074 163.951 163.745 163.931 163.489 163.914C163.233 163.898 162.98 163.88 162.728 163.858C162.311 163.838 161.925 163.827 161.57 163.827C160.932 163.827 160.614 164.092 160.614 164.622V166.056C161.627 165.843 162.514 165.737 163.278 165.737H164.374C165.085 165.737 165.653 165.955 166.081 166.39C166.51 166.825 166.724 167.403 166.724 168.125V170.194C166.724 171.16 166.484 171.879 166.004 172.352C165.523 172.824 164.771 173.06 163.747 173.06H160.77C159.747 173.06 158.994 172.824 158.515 172.352C158.033 171.879 157.793 171.16 157.793 170.194V164.622C157.793 163.583 158.033 162.818 158.515 162.33C158.994 161.842 159.747 161.598 160.77 161.598Z" fill="#C7D2D8"/>
<path fill-rule="evenodd" clip-rule="evenodd" d="M105.483 139.949H114.414V142.241L110.61 151.41H107.302L111.272 142.241H105.483V139.949Z" fill="#C7D2D8"/>
<path fill-rule="evenodd" clip-rule="evenodd" d="M135.35 142.177C134.681 142.177 134.347 142.495 134.347 143.132V143.61C134.347 144.246 134.681 144.564 135.35 144.564H136.856C137.525 144.564 137.859 144.246 137.859 143.61V143.132C137.859 142.495 137.525 142.177 136.856 142.177H135.35ZM135.016 146.794C134.347 146.794 134.012 147.112 134.012 147.749V148.385C134.012 148.63 134.087 148.823 134.238 148.967C134.388 149.11 134.592 149.181 134.847 149.181H137.358C137.614 149.181 137.818 149.11 137.969 148.967C138.12 148.823 138.195 148.63 138.195 148.385V147.749C138.195 147.112 137.859 146.794 137.19 146.794H135.016ZM141.207 148.385C141.207 149.426 140.949 150.19 140.436 150.678C139.924 151.166 139.12 151.41 138.028 151.41H134.178C133.085 151.41 132.282 151.166 131.769 150.678C131.257 150.19 131 149.426 131 148.385V148.226C131 147.42 131.212 146.751 131.637 146.221C131.97 145.797 132.428 145.51 133.007 145.361C132.506 145.202 132.101 144.923 131.794 144.525C131.488 144.127 131.335 143.61 131.335 142.973V142.814C131.335 141.848 131.591 141.129 132.104 140.657C132.618 140.184 133.42 139.949 134.514 139.949H137.693C138.785 139.949 139.588 140.184 140.102 140.657C140.615 141.129 140.871 141.848 140.871 142.814V142.973C140.871 143.61 140.719 144.127 140.412 144.525C140.105 144.923 139.7 145.202 139.199 145.361C140.102 145.594 140.715 146.167 141.039 147.08C141.15 147.41 141.207 147.792 141.207 148.226V148.385Z" fill="#C7D2D8"/>
<path fill-rule="evenodd" clip-rule="evenodd" d="M162.024 145.043C162.619 145.043 163.246 144.99 163.903 144.884V143.133C163.903 142.496 163.591 142.177 162.963 142.177H161.554C160.926 142.177 160.614 142.496 160.614 143.133V144.486C160.614 144.645 160.665 144.778 160.77 144.884C160.875 144.99 161.005 145.043 161.162 145.043H162.024ZM158.576 148.943C160.728 149.102 162.243 149.182 163.12 149.182C163.361 149.182 163.551 149.111 163.693 148.967C163.833 148.824 163.903 148.63 163.903 148.386V146.953C162.89 147.165 162.002 147.271 161.24 147.271H160.143C159.432 147.271 158.864 147.054 158.436 146.619C158.007 146.184 157.793 145.606 157.793 144.884V142.815C157.793 141.848 158.033 141.129 158.514 140.657C158.994 140.185 159.747 139.949 160.77 139.949H163.747C164.771 139.949 165.523 140.185 166.003 140.657C166.484 141.129 166.724 141.848 166.724 142.815V148.386C166.724 149.426 166.484 150.19 166.003 150.678C165.523 151.167 164.771 151.41 163.747 151.41C162.316 151.41 160.593 151.304 158.576 151.092V148.943Z" fill="#C7D2D8"/>
<path fill-rule="evenodd" clip-rule="evenodd" d="M125.723 206.808C125.723 206.171 125.421 205.853 124.815 205.853H123.15C122.544 205.853 122.241 206.171 122.241 206.808V211.902C122.241 212.538 122.544 212.856 123.15 212.856H124.815C125.421 212.856 125.723 212.538 125.723 211.902V206.808ZM128.448 211.902C128.448 213.016 128.208 213.825 127.729 214.329C127.25 214.833 126.481 215.085 125.421 215.085H122.544C121.485 215.085 120.716 214.833 120.236 214.329C119.757 213.825 119.517 213.016 119.517 211.902V206.808C119.517 205.694 119.757 204.884 120.236 204.38C120.716 203.876 121.485 203.624 122.544 203.624H125.421C126.481 203.624 127.25 203.876 127.729 204.38C128.208 204.884 128.448 205.694 128.448 206.808V211.902Z" fill="#C7D2D8"/>
<path fill-rule="evenodd" clip-rule="evenodd" d="M184.586 201.077H190.965V199.129H184.586V201.077ZM184.586 197.931H190.965V195.983H184.586V197.931Z" fill="#C7D2D8"/>
<path fill-rule="evenodd" clip-rule="evenodd" d="M184.586 147.59H190.965V145.043H184.586V147.59Z" fill="#C7D2D8"/>
<path fill-rule="evenodd" clip-rule="evenodd" d="M189.53 166.852H192.241V169.08H189.53V171.786H187.297V169.08H184.586V166.852H187.297V164.145H189.53V166.852Z" fill="#C7D2D8"/>
<path fill-rule="evenodd" clip-rule="evenodd" d="M161.621 215.085H164.172V212.538H161.621V215.085Z" fill="#C7D2D8"/>
<path fill-rule="evenodd" clip-rule="evenodd" d="M108.231 124.794L106.398 127.977H104.566L102.735 124.794V129.761H100.379V120.846H102.865L105.482 125.558L108.101 120.846H110.586V129.761H108.231V124.794Z" fill="#C7D2D8"/>
<path fill-rule="evenodd" clip-rule="evenodd" d="M119.517 129.509C117.485 129.676 115.799 129.761 114.46 129.761C113.566 129.761 112.91 129.568 112.491 129.183C112.071 128.799 111.862 128.195 111.862 127.375V123.358C111.862 122.478 112.078 121.84 112.512 121.442C112.944 121.045 113.639 120.846 114.596 120.846H119.517V122.604H115.143C114.596 122.604 114.322 122.855 114.322 123.358V127.375C114.322 127.567 114.385 127.72 114.507 127.833C114.63 127.947 114.787 128.002 114.979 128.002C115.17 128.002 115.38 128.001 115.607 127.996C115.835 127.992 116.073 127.986 116.319 127.977C116.564 127.969 116.813 127.961 117.063 127.952C117.314 127.944 117.638 127.927 118.034 127.903C118.431 127.877 118.925 127.848 119.517 127.814V129.509Z" fill="#C7D2D8"/>
<path fill-rule="evenodd" clip-rule="evenodd" d="M135.024 124.794L133.192 127.978H131.36L129.528 124.794V129.761H127.172V120.846H129.659L132.276 125.558L134.894 120.846H137.379V129.761H135.024V124.794Z" fill="#C7D2D8"/>
<path fill-rule="evenodd" clip-rule="evenodd" d="M142.775 124.375H145.034V126.232H142.775V128.487H140.914V126.232H138.655V124.375H140.914V122.12H142.775V124.375Z" fill="#C7D2D8"/>
<path fill-rule="evenodd" clip-rule="evenodd" d="M189.549 120.846H192.176L189.22 125.303L192.241 129.761H189.615L187.776 126.959L185.937 129.761H183.31L186.331 125.303L183.376 120.846H185.99L187.776 123.648L189.549 120.846Z" fill="#C7D2D8"/>
<path fill-rule="evenodd" clip-rule="evenodd" d="M159.069 125.94H166.724V123.393H159.069V125.94Z" fill="#C7D2D8"/>
<path fill-rule="evenodd" clip-rule="evenodd" d="M161.621 129.761H164.172V127.49H161.621V129.761ZM161.621 123.117H164.172V120.846H161.621V123.117Z" fill="#C7D2D8"/>
<path fill-rule="evenodd" clip-rule="evenodd" d="M102.492 79.8271C100.48 79.8271 98.8436 81.4465 98.8436 83.4365V106.041C98.8436 107.591 99.8423 108.966 101.328 109.462C101.702 109.587 102.092 109.652 102.492 109.652H195.237C197.246 109.652 198.88 108.032 198.88 106.041V83.4365C198.88 81.4465 197.246 79.8271 195.237 79.8271H102.492ZM195.237 110.658H102.492C101.98 110.658 101.479 110.576 101.002 110.415C99.1037 109.783 97.8276 108.025 97.8276 106.041V83.4365C97.8276 80.8919 99.9192 78.8206 102.492 78.8206H195.237C197.806 78.8206 199.897 80.8919 199.897 83.4365V106.041C199.897 108.587 197.806 110.658 195.237 110.658Z" fill="black"/>
<defs>
<filter id="filter0_d" x="262.055" y="97.2751" width="31.2969" height="105.53" filterUnits="userSpaceOnUse" color-interpolation-filters="sRGB">
<feFlood flood-opacity="0" result="BackgroundImageFix"/>
<feColorMatrix in="SourceAlpha" type="matrix" values="0 0 0 0 0 0 0 0 0 0 0 0 0 0 0 0 0 0 127 0"/>
<feOffset dx="1" dy="1"/>
<feGaussianBlur stdDeviation="1"/>
<feColorMatrix type="matrix" values="0 0 0 0 0 0 0 0 0 0 0 0 0 0 0 0 0 0 0.15 0"/>
<feBlend mode="normal" in2="BackgroundImageFix" result="effect1_dropShadow"/>
<feBlend mode="normal" in="SourceGraphic" in2="effect1_dropShadow" result="shape"/>
</filter>
<radialGradient id="paint0_radial" cx="0" cy="0" r="1" gradientUnits="userSpaceOnUse" gradientTransform="translate(150 150) rotate(90) scale(150)">
<stop offset="0.296875" stop-color="white" stop-opacity="0"/>
<stop offset="0.947917" stop-color="#838383" stop-opacity="0.83"/>
</radialGradient>
</defs>
</svg>
