<svg width="300" height="300" viewBox="0 0 300 300" fill="none" xmlns="http://www.w3.org/2000/svg">
<rect width="300" height="300" fill="white"/>
<rect width="300" height="300" fill="white"/>
<rect width="300" height="300" fill="white"/>
<rect width="300" height="300" fill="url(#paint0_radial)" fill-opacity="0.09"/>
<g filter="url(#filter0_d)">
<path d="M280.131 175.528L280.131 179.73L289.5 179.73L289.5 185.003L263.906 185.003L263.906 175.493C263.906 172.47 264.58 170.138 265.928 168.497C267.275 166.856 269.18 166.036 271.641 166.036C273.387 166.036 274.846 166.417 276.018 167.179C277.178 167.929 278.104 169.071 278.795 170.606L289.254 165.069L289.5 165.069L289.5 170.73L280.131 175.528ZM275.859 179.73L275.859 175.476C275.859 174.151 275.525 173.126 274.857 172.399C274.178 171.673 273.246 171.31 272.062 171.31C270.855 171.31 269.906 171.655 269.215 172.347C268.523 173.026 268.178 174.075 268.178 175.493L268.178 179.73L275.859 179.73ZM278.408 142.652L278.408 152.777L285.264 152.777L285.264 140.895L289.5 140.895L289.5 158.051L263.906 158.051L263.906 140.93L268.178 140.93L268.178 152.777L274.277 152.777L274.277 142.652L278.408 142.652ZM289.5 133.841L263.906 133.841L263.906 125.966C263.906 123.716 264.416 121.706 265.436 119.936C266.443 118.155 267.885 116.767 269.76 115.77C271.623 114.774 273.744 114.276 276.123 114.276L277.301 114.276C279.68 114.276 281.795 114.769 283.646 115.753C285.498 116.726 286.934 118.103 287.953 119.884C288.973 121.665 289.488 123.675 289.5 125.913L289.5 133.841ZM268.178 128.567L285.264 128.567L285.264 126.019C285.264 123.956 284.59 122.38 283.242 121.29C281.895 120.2 279.967 119.644 277.459 119.62L276.105 119.62C273.504 119.62 271.535 120.159 270.199 121.237C268.852 122.315 268.178 123.892 268.178 125.966L268.178 128.567Z" fill="white"/>
<path d="M280.131 175.528L279.903 175.083L279.631 175.223L279.631 175.528L280.131 175.528ZM280.131 179.73L279.631 179.73L279.631 180.23L280.131 180.23L280.131 179.73ZM289.5 179.73L290 179.73L290 179.23L289.5 179.23L289.5 179.73ZM289.5 185.003L289.5 185.503L290 185.503L290 185.003L289.5 185.003ZM263.906 185.003L263.406 185.003L263.406 185.503L263.906 185.503L263.906 185.003ZM276.018 167.179L275.745 167.598L275.746 167.599L276.018 167.179ZM278.795 170.606L278.339 170.812L278.558 171.298L279.029 171.048L278.795 170.606ZM289.254 165.069L289.254 164.569L289.13 164.569L289.02 164.627L289.254 165.069ZM289.5 165.069L290 165.069L290 164.569L289.5 164.569L289.5 165.069ZM289.5 170.73L289.728 171.175L290 171.035L290 170.73L289.5 170.73ZM275.859 179.73L275.859 180.23L276.359 180.23L276.359 179.73L275.859 179.73ZM274.857 172.399L275.226 172.061L275.223 172.058L274.857 172.399ZM269.215 172.347L269.565 172.703L269.568 172.7L269.215 172.347ZM268.178 179.73L267.678 179.73L267.678 180.23L268.178 180.23L268.178 179.73ZM279.631 175.528L279.631 179.73L280.631 179.73L280.631 175.528L279.631 175.528ZM280.131 180.23L289.5 180.23L289.5 179.23L280.131 179.23L280.131 180.23ZM289 179.73L289 185.003L290 185.003L290 179.73L289 179.73ZM289.5 184.503L263.906 184.503L263.906 185.503L289.5 185.503L289.5 184.503ZM264.406 185.003L264.406 175.493L263.406 175.493L263.406 185.003L264.406 185.003ZM264.406 175.493C264.406 172.537 265.066 170.334 266.314 168.814L265.541 168.18C264.095 169.941 263.406 172.402 263.406 175.493L264.406 175.493ZM266.314 168.814C267.551 167.309 269.303 166.536 271.641 166.536L271.641 165.536C269.057 165.536 267 166.404 265.541 168.18L266.314 168.814ZM271.641 166.536C273.314 166.536 274.672 166.901 275.745 167.598L276.29 166.76C275.019 165.933 273.459 165.536 271.641 165.536L271.641 166.536ZM275.746 167.599C276.809 168.286 277.678 169.345 278.339 170.812L279.251 170.401C278.529 168.798 277.546 167.572 276.289 166.759L275.746 167.599ZM279.029 171.048L289.488 165.511L289.02 164.627L278.561 170.165L279.029 171.048ZM289.254 165.569L289.5 165.569L289.5 164.569L289.254 164.569L289.254 165.569ZM289 165.069L289 170.73L290 170.73L290 165.069L289 165.069ZM289.272 170.285L279.903 175.083L280.359 175.973L289.728 171.175L289.272 170.285ZM276.359 179.73L276.359 175.476L275.359 175.476L275.359 179.73L276.359 179.73ZM276.359 175.476C276.359 174.07 276.004 172.908 275.226 172.061L274.489 172.738C275.047 173.344 275.359 174.233 275.359 175.476L276.359 175.476ZM275.223 172.058C274.43 171.211 273.356 170.81 272.062 170.81L272.062 171.81C273.136 171.81 273.925 172.135 274.492 172.741L275.223 172.058ZM272.062 170.81C270.756 170.81 269.667 171.187 268.861 171.993L269.568 172.7C270.145 172.124 270.955 171.81 272.062 171.81L272.062 170.81ZM268.864 171.99C268.041 172.8 267.678 174.003 267.678 175.493L268.678 175.493C268.678 174.147 269.006 173.253 269.565 172.703L268.864 171.99ZM267.678 175.493L267.678 179.73L268.678 179.73L268.678 175.493L267.678 175.493ZM268.178 180.23L275.859 180.23L275.859 179.23L268.178 179.23L268.178 180.23ZM278.408 142.652L278.908 142.652L278.908 142.152L278.408 142.152L278.408 142.652ZM278.408 152.777L277.908 152.777L277.908 153.277L278.408 153.277L278.408 152.777ZM285.264 152.777L285.264 153.277L285.764 153.277L285.764 152.777L285.264 152.777ZM285.264 140.895L285.264 140.395L284.764 140.395L284.764 140.895L285.264 140.895ZM289.5 140.895L290 140.895L290 140.395L289.5 140.395L289.5 140.895ZM289.5 158.051L289.5 158.551L290 158.551L290 158.051L289.5 158.051ZM263.906 158.051L263.406 158.051L263.406 158.551L263.906 158.551L263.906 158.051ZM263.906 140.93L263.906 140.43L263.406 140.43L263.406 140.93L263.906 140.93ZM268.178 140.93L268.678 140.93L268.678 140.43L268.178 140.43L268.178 140.93ZM268.178 152.777L267.678 152.777L267.678 153.277L268.178 153.277L268.178 152.777ZM274.277 152.777L274.277 153.277L274.777 153.277L274.777 152.777L274.277 152.777ZM274.277 142.652L274.277 142.152L273.777 142.152L273.777 142.652L274.277 142.652ZM277.908 142.652L277.908 152.777L278.908 152.777L278.908 142.652L277.908 142.652ZM278.408 153.277L285.264 153.277L285.264 152.277L278.408 152.277L278.408 153.277ZM285.764 152.777L285.764 140.895L284.764 140.895L284.764 152.777L285.764 152.777ZM285.264 141.395L289.5 141.395L289.5 140.395L285.264 140.395L285.264 141.395ZM289 140.895L289 158.051L290 158.051L290 140.895L289 140.895ZM289.5 157.551L263.906 157.551L263.906 158.551L289.5 158.551L289.5 157.551ZM264.406 158.051L264.406 140.93L263.406 140.93L263.406 158.051L264.406 158.051ZM263.906 141.43L268.178 141.43L268.178 140.43L263.906 140.43L263.906 141.43ZM267.678 140.93L267.678 152.777L268.678 152.777L268.678 140.93L267.678 140.93ZM268.178 153.277L274.277 153.277L274.277 152.277L268.178 152.277L268.178 153.277ZM274.777 152.777L274.777 142.652L273.777 142.652L273.777 152.777L274.777 152.777ZM274.277 143.152L278.408 143.152L278.408 142.152L274.277 142.152L274.277 143.152ZM289.5 133.841L289.5 134.341L290 134.341L290 133.841L289.5 133.841ZM263.906 133.841L263.406 133.841L263.406 134.341L263.906 134.341L263.906 133.841ZM265.436 119.936L265.869 120.186L265.871 120.183L265.436 119.936ZM269.76 115.77L269.994 116.212L269.995 116.211L269.76 115.77ZM283.646 115.753L283.412 116.194L283.414 116.196L283.646 115.753ZM289.5 125.913L290 125.913L290 125.91L289.5 125.913ZM268.178 128.567L267.678 128.567L267.678 129.067L268.178 129.067L268.178 128.567ZM285.264 128.567L285.264 129.067L285.764 129.067L285.764 128.567L285.264 128.567ZM277.459 119.62L277.464 119.12L277.459 119.12L277.459 119.62ZM270.199 121.237L270.512 121.628L270.513 121.626L270.199 121.237ZM289.5 133.341L263.906 133.341L263.906 134.341L289.5 134.341L289.5 133.341ZM264.406 133.841L264.406 125.966L263.406 125.966L263.406 133.841L264.406 133.841ZM264.406 125.966C264.406 123.794 264.897 121.872 265.869 120.186L265.002 119.687C263.935 121.54 263.406 123.637 263.406 125.966L264.406 125.966ZM265.871 120.183C266.83 118.488 268.2 117.165 269.994 116.212L269.525 115.329C267.569 116.368 266.057 117.823 265 119.69L265.871 120.183ZM269.995 116.211C271.778 115.259 273.816 114.776 276.123 114.776L276.123 113.776C273.672 113.776 271.469 114.29 269.524 115.33L269.995 116.211ZM276.123 114.776L277.301 114.776L277.301 113.776L276.123 113.776L276.123 114.776ZM277.301 114.776C279.609 114.776 281.642 115.253 283.412 116.194L283.881 115.311C281.948 114.284 279.75 113.776 277.301 113.776L277.301 114.776ZM283.414 116.196C285.183 117.125 286.548 118.435 287.519 120.132L288.387 119.635C287.319 117.77 285.813 116.326 283.879 115.31L283.414 116.196ZM287.519 120.132C288.492 121.832 288.989 123.756 289 125.916L290 125.91C289.988 123.594 289.453 121.498 288.387 119.635L287.519 120.132ZM289 125.913L289 133.841L290 133.841L290 125.913L289 125.913ZM268.178 129.067L285.264 129.067L285.264 128.067L268.178 128.067L268.178 129.067ZM285.764 128.567L285.764 126.019L284.764 126.019L284.764 128.567L285.764 128.567ZM285.764 126.019C285.764 123.837 285.044 122.104 283.557 120.901L282.928 121.679C284.135 122.655 284.764 124.075 284.764 126.019L285.764 126.019ZM283.557 120.901C282.089 119.715 280.035 119.144 277.464 119.12L277.454 120.12C279.898 120.143 281.7 120.686 282.928 121.679L283.557 120.901ZM277.459 119.12L276.105 119.12L276.105 120.12L277.459 120.12L277.459 119.12ZM276.105 119.12C273.446 119.12 271.346 119.67 269.885 120.848L270.513 121.626C271.725 120.649 273.562 120.12 276.105 120.12L276.105 119.12ZM269.887 120.847C268.396 122.039 267.678 123.774 267.678 125.966L268.678 125.966C268.678 124.009 269.307 122.592 270.512 121.628L269.887 120.847ZM267.678 125.966L267.678 128.567L268.678 128.567L268.678 125.966L267.678 125.966Z" fill="#B50000"/>
</g>
<path d="M60.3125 265.742C60.1302 269.701 59.0625 273.203 57.1094 276.25C55.1562 279.271 52.4089 281.615 48.8672 283.281C45.3516 284.948 41.3281 285.781 36.7969 285.781C29.3229 285.781 23.4375 283.346 19.1406 278.477C14.8438 273.607 12.6953 266.732 12.6953 257.852V255.039C12.6953 249.466 13.6589 244.596 15.5859 240.43C17.5391 236.237 20.3385 233.008 23.9844 230.742C27.6302 228.451 31.849 227.305 36.6406 227.305C43.5417 227.305 49.0885 229.128 53.2812 232.773C57.474 236.393 59.8568 241.393 60.4297 247.773H46.7578C46.6536 244.31 45.7812 241.823 44.1406 240.312C42.5 238.802 40 238.047 36.6406 238.047C33.2292 238.047 30.7292 239.323 29.1406 241.875C27.5521 244.427 26.7188 248.503 26.6406 254.102V258.125C26.6406 264.193 27.3958 268.529 28.9062 271.133C30.4427 273.737 33.0729 275.039 36.7969 275.039C39.9479 275.039 42.3568 274.297 44.0234 272.812C45.6901 271.328 46.5755 268.971 46.6797 265.742H60.3125ZM80.0344 279.727H70.7883L69.0305 285H63.423L72.9504 259.406H77.8371L87.4172 285H81.8098L80.0344 279.727ZM72.2121 275.455H78.6105L75.3937 265.875L72.2121 275.455ZM102.882 275.631H98.6813V285H93.4078V259.406H102.918C105.941 259.406 108.273 260.08 109.914 261.428C111.554 262.775 112.375 264.68 112.375 267.141C112.375 268.887 111.994 270.346 111.232 271.518C110.482 272.678 109.339 273.604 107.804 274.295L113.341 284.754V285H107.681L102.882 275.631ZM98.6813 271.359H102.935C104.259 271.359 105.285 271.025 106.011 270.357C106.738 269.678 107.101 268.746 107.101 267.562C107.101 266.355 106.755 265.406 106.064 264.715C105.384 264.023 104.336 263.678 102.918 263.678H98.6813V271.359Z" fill="black"/>
<path d="M71.6515 20.126H67.2657V32H66.1847V20.126H61.8077V19.2031H71.6515V20.126ZM80.487 26.6738H76.7692V32H75.6793V19.2031H79.8366C81.2018 19.2031 82.2682 19.5342 83.0358 20.1963C83.8034 20.8584 84.1871 21.7842 84.1871 22.9736C84.1871 23.7939 83.9469 24.5176 83.4664 25.1445C82.986 25.7715 82.3414 26.2051 81.5329 26.4453L84.7321 31.8857V32H83.5807L80.487 26.6738ZM76.7692 25.751H80.0827C80.9909 25.751 81.7204 25.4932 82.2711 24.9775C82.8219 24.4619 83.0973 23.7939 83.0973 22.9736C83.0973 22.0713 82.8102 21.3711 82.236 20.873C81.6618 20.375 80.8561 20.126 79.819 20.126H76.7692V25.751ZM96.0197 28.4141H90.2101L88.8918 32H87.758L92.6007 19.2031H93.6291L98.4718 32H97.3468L96.0197 28.4141ZM90.5441 27.4912H95.6769L93.1105 20.5215L90.5441 27.4912ZM111.869 32H110.788L103.431 21.0488V32H102.341V19.2031H103.431L110.797 30.1631V19.2031H111.869V32ZM124.343 28.8535C124.343 28.1445 124.094 27.585 123.596 27.1748C123.098 26.7588 122.187 26.3662 120.862 25.9971C119.538 25.6221 118.571 25.2148 117.962 24.7754C117.095 24.1543 116.661 23.3398 116.661 22.332C116.661 21.3535 117.063 20.5596 117.865 19.9502C118.674 19.335 119.705 19.0273 120.959 19.0273C121.809 19.0273 122.568 19.1914 123.236 19.5195C123.909 19.8477 124.431 20.3047 124.8 20.8906C125.169 21.4766 125.354 22.1299 125.354 22.8506H124.264C124.264 21.9775 123.965 21.2773 123.367 20.75C122.77 20.2168 121.967 19.9502 120.959 19.9502C119.981 19.9502 119.201 20.1699 118.621 20.6094C118.041 21.043 117.751 21.6113 117.751 22.3145C117.751 22.9648 118.012 23.4951 118.533 23.9053C119.055 24.3154 119.89 24.6787 121.038 24.9951C122.187 25.3057 123.057 25.6309 123.649 25.9707C124.24 26.3047 124.686 26.7061 124.985 27.1748C125.283 27.6436 125.433 28.1973 125.433 28.8359C125.433 29.8438 125.029 30.6523 124.22 31.2617C123.417 31.8711 122.357 32.1758 121.038 32.1758C120.136 32.1758 119.307 32.0146 118.551 31.6924C117.801 31.3701 117.23 30.9189 116.837 30.3389C116.45 29.7588 116.257 29.0938 116.257 28.3438H117.338C117.338 29.2461 117.675 29.958 118.349 30.4795C119.023 31.001 119.919 31.2617 121.038 31.2617C122.034 31.2617 122.834 31.042 123.438 30.6025C124.041 30.1631 124.343 29.5801 124.343 28.8535ZM130.832 26.7881V32H129.751V19.2031H134.11C135.44 19.2031 136.489 19.543 137.257 20.2227C138.03 20.9023 138.417 21.8369 138.417 23.0264C138.417 24.2275 138.045 25.1562 137.301 25.8125C136.562 26.4629 135.49 26.7881 134.084 26.7881H130.832ZM130.832 25.874H134.11C135.159 25.874 135.959 25.625 136.509 25.127C137.06 24.6289 137.336 23.9346 137.336 23.0439C137.336 22.1592 137.06 21.4561 136.509 20.9346C135.965 20.4072 135.188 20.1377 134.18 20.126H130.832V25.874ZM152.28 26.2959C152.28 27.4736 152.074 28.5078 151.664 29.3984C151.26 30.2891 150.68 30.9746 149.924 31.4551C149.168 31.9355 148.295 32.1758 147.305 32.1758C145.811 32.1758 144.604 31.6426 143.684 30.5762C142.764 29.5039 142.304 28.0596 142.304 26.2432V24.9248C142.304 23.7588 142.509 22.7275 142.919 21.8311C143.335 20.9287 143.921 20.2373 144.677 19.7568C145.433 19.2705 146.303 19.0273 147.287 19.0273C148.272 19.0273 149.139 19.2646 149.889 19.7393C150.645 20.2139 151.228 20.8848 151.638 21.752C152.048 22.6191 152.262 23.624 152.28 24.7666V26.2959ZM151.198 24.9072C151.198 23.3662 150.85 22.1592 150.153 21.2861C149.455 20.4131 148.5 19.9766 147.287 19.9766C146.098 19.9766 145.149 20.416 144.44 21.2949C143.737 22.168 143.385 23.3896 143.385 24.96V26.2959C143.385 27.8135 143.737 29.0176 144.44 29.9082C145.143 30.793 146.098 31.2354 147.305 31.2354C148.53 31.2354 149.485 30.7988 150.17 29.9258C150.856 29.0469 151.198 27.8252 151.198 26.2607V24.9072ZM161.765 26.6738H158.048V32H156.958V19.2031H161.115C162.48 19.2031 163.547 19.5342 164.314 20.1963C165.082 20.8584 165.466 21.7842 165.466 22.9736C165.466 23.7939 165.225 24.5176 164.745 25.1445C164.264 25.7715 163.62 26.2051 162.811 26.4453L166.01 31.8857V32H164.859L161.765 26.6738ZM158.048 25.751H161.361C162.269 25.751 162.999 25.4932 163.55 24.9775C164.1 24.4619 164.376 23.7939 164.376 22.9736C164.376 22.0713 164.089 21.3711 163.514 20.873C162.94 20.375 162.135 20.126 161.097 20.126H158.048V25.751ZM178.37 20.126H173.985V32H172.904V20.126H168.527V19.2031H178.37V20.126ZM188.63 28.4141H182.82L181.502 32H180.368L185.211 19.2031H186.239L191.082 32H189.957L188.63 28.4141ZM183.154 27.4912H188.287L185.721 20.5215L183.154 27.4912ZM202.492 20.126H198.107V32H197.026V20.126H192.649V19.2031H202.492V20.126ZM207.865 32H206.784V19.2031H207.865V32ZM222.783 26.2959C222.783 27.4736 222.577 28.5078 222.167 29.3984C221.763 30.2891 221.183 30.9746 220.427 31.4551C219.671 31.9355 218.798 32.1758 217.808 32.1758C216.314 32.1758 215.107 31.6426 214.187 30.5762C213.267 29.5039 212.807 28.0596 212.807 26.2432V24.9248C212.807 23.7588 213.012 22.7275 213.422 21.8311C213.838 20.9287 214.424 20.2373 215.18 19.7568C215.936 19.2705 216.806 19.0273 217.79 19.0273C218.775 19.0273 219.642 19.2646 220.392 19.7393C221.148 20.2139 221.731 20.8848 222.141 21.752C222.551 22.6191 222.765 23.624 222.783 24.7666V26.2959ZM221.702 24.9072C221.702 23.3662 221.353 22.1592 220.656 21.2861C219.958 20.4131 219.003 19.9766 217.79 19.9766C216.601 19.9766 215.652 20.416 214.943 21.2949C214.24 22.168 213.888 23.3896 213.888 24.96V26.2959C213.888 27.8135 214.24 29.0176 214.943 29.9082C215.646 30.793 216.601 31.2354 217.808 31.2354C219.033 31.2354 219.988 30.7988 220.673 29.9258C221.359 29.0469 221.702 27.8252 221.702 26.2607V24.9072ZM237.015 32H235.933L228.577 21.0488V32H227.487V19.2031H228.577L235.942 30.1631V19.2031H237.015V32Z" fill="black"/>
<path fill-rule="evenodd" clip-rule="evenodd" d="M260 183.291C260 183.291 137.252 167.613 35 184L260 183.291Z" fill="#D4E070"/>
<path fill-rule="evenodd" clip-rule="evenodd" d="M188.297 166.369L219.048 170.302L243.929 166.369L241.314 141.66H188.297V166.369Z" fill="#311515"/>
<path fill-rule="evenodd" clip-rule="evenodd" d="M46.1264 165.124L76.8784 169.057L101.758 165.124V140.415H46.1264V165.124Z" fill="#311515"/>
<path fill-rule="evenodd" clip-rule="evenodd" d="M43.6165 139.934C43.6165 139.934 52.4119 140.543 69.795 131.806C94.5548 118.001 115.231 117.098 136.448 118.461C155.444 119.679 157.553 135.487 211.199 134.568C246.552 133.96 258.764 157.407 258.764 157.407C256.733 162.554 256.006 166.273 255.791 168.727C256.718 168.895 257.422 169.706 257.422 170.684C257.422 171.786 256.532 172.679 255.433 172.679H249.928C249.624 172.679 249.34 172.605 249.082 172.483C245.828 172.5 241.524 172.521 236.435 172.546C238.35 169.474 239.459 165.846 239.459 161.957C239.459 150.905 230.528 141.945 219.509 141.945C208.491 141.945 199.559 150.905 199.559 161.957C199.559 165.905 200.703 169.584 202.67 172.683C161.905 172.826 110.879 172.899 100.181 172.447C98.4611 172.374 96.575 172.327 94.5681 172.293C96.3841 169.277 97.4286 165.743 97.4286 161.964C97.4286 150.912 88.4963 141.952 77.4785 141.952C66.46 141.952 57.527 150.912 57.527 161.964C57.527 165.278 58.3357 168.4 59.7571 171.153C49.7824 170.138 41.6714 168.079 39.4104 163.79C36.4931 158.258 43.6165 139.934 43.6165 139.934Z" fill="#CD2D2F"/>
<path fill-rule="evenodd" clip-rule="evenodd" d="M217.096 159.094L217.099 159.15C217.1 159.187 217.103 159.241 217.103 159.309C217.105 159.447 217.098 159.639 217.08 159.875C217.069 159.991 217.056 160.117 217.039 160.253C217.017 160.384 217 160.532 216.97 160.679C216.913 160.975 216.839 161.298 216.734 161.627C216.528 162.291 216.216 162.991 215.793 163.652C215.582 163.983 215.343 164.303 215.082 164.612C214.951 164.765 214.815 164.915 214.671 165.06C214.53 165.206 214.385 165.35 214.236 165.489C213.643 166.052 212.994 166.557 212.334 166.981C211.673 167.402 210.999 167.737 210.378 167.981C210.067 168.103 209.771 168.204 209.497 168.281C209.363 168.322 209.231 168.356 209.109 168.385C208.989 168.417 208.872 168.441 208.769 168.462C208.559 168.505 208.386 168.529 208.266 168.544C208.142 168.557 208.077 168.563 208.077 168.563L213.512 174.038C213.512 174.038 213.518 173.971 213.53 173.847C213.544 173.726 213.57 173.552 213.612 173.341C213.633 173.236 213.657 173.118 213.689 172.998C213.718 172.875 213.75 172.742 213.791 172.607C213.869 172.33 213.968 172.033 214.089 171.72C214.331 171.093 214.666 170.416 215.083 169.75C215.502 169.085 216.004 168.43 216.562 167.833C216.702 167.683 216.845 167.537 216.99 167.395C217.133 167.251 217.282 167.113 217.435 166.981C217.741 166.72 218.059 166.477 218.388 166.266C219.044 165.839 219.739 165.524 220.397 165.317C220.724 165.212 221.045 165.137 221.34 165.08C221.484 165.049 221.631 165.032 221.761 165.011C221.897 164.995 222.022 164.979 222.137 164.969C222.371 164.951 222.562 164.943 222.698 164.946C222.766 164.945 222.821 164.948 222.857 164.949L222.912 164.952L217.096 159.094Z" fill="#CED9DD"/>
<path fill-rule="evenodd" clip-rule="evenodd" d="M216.731 164.952L216.786 164.949C216.823 164.948 216.877 164.945 216.944 164.946C217.082 164.943 217.272 164.951 217.506 164.969C217.621 164.979 217.747 164.995 217.882 165.011C218.012 165.032 218.159 165.049 218.304 165.08C218.598 165.137 218.919 165.212 219.246 165.317C219.905 165.524 220.6 165.839 221.255 166.266C221.585 166.477 221.902 166.72 222.209 166.981C222.361 167.113 222.51 167.251 222.654 167.395C222.799 167.537 222.941 167.683 223.08 167.833C223.64 168.43 224.141 169.085 224.561 169.75C224.978 170.416 225.311 171.093 225.554 171.72C225.675 172.033 225.775 172.33 225.851 172.607C225.893 172.742 225.925 172.875 225.954 172.998C225.987 173.118 226.01 173.236 226.031 173.341C226.074 173.552 226.098 173.726 226.113 173.847C226.125 173.971 226.131 174.038 226.131 174.038L231.566 168.563C231.566 168.563 231.5 168.557 231.377 168.544C231.257 168.529 231.084 168.505 230.875 168.462C230.77 168.441 230.653 168.417 230.534 168.385C230.412 168.356 230.28 168.322 230.147 168.281C229.871 168.204 229.576 168.103 229.265 167.981C228.644 167.737 227.97 167.402 227.31 166.981C226.65 166.557 226 166.052 225.407 165.489C225.257 165.35 225.113 165.206 224.972 165.06C224.828 164.915 224.692 164.765 224.561 164.612C224.301 164.303 224.061 163.983 223.851 163.652C223.427 162.991 223.114 162.291 222.909 161.627C222.805 161.298 222.731 160.975 222.674 160.679C222.643 160.532 222.626 160.384 222.605 160.253C222.588 160.117 222.574 159.991 222.563 159.875C222.546 159.639 222.538 159.447 222.54 159.309C222.54 159.241 222.543 159.187 222.545 159.15L222.547 159.094L216.731 164.952Z" fill="#CED9DD"/>
<path fill-rule="evenodd" clip-rule="evenodd" d="M224.148 161.585L224.105 161.549L223.984 161.444C223.881 161.354 223.744 161.22 223.584 161.049C223.506 160.965 223.423 160.87 223.335 160.767C223.254 160.665 223.158 160.554 223.073 160.436C222.895 160.199 222.713 159.931 222.546 159.639C222.21 159.055 221.924 158.374 221.752 157.645C221.664 157.28 221.606 156.903 221.571 156.52C221.555 156.328 221.546 156.135 221.546 155.941C221.543 155.748 221.545 155.554 221.552 155.358C221.578 154.58 221.688 153.802 221.867 153.072C222.048 152.342 222.301 151.662 222.583 151.078C222.724 150.786 222.869 150.518 223.016 150.281C223.085 150.163 223.159 150.051 223.228 149.95C223.293 149.846 223.363 149.752 223.425 149.667C223.549 149.497 223.659 149.363 223.738 149.273C223.82 149.181 223.864 149.132 223.864 149.132H215.778C215.778 149.132 215.822 149.181 215.905 149.273C215.983 149.363 216.094 149.497 216.217 149.667C216.279 149.752 216.349 149.846 216.415 149.95C216.484 150.051 216.558 150.163 216.626 150.281C216.774 150.518 216.919 150.786 217.06 151.078C217.342 151.662 217.595 152.342 217.777 153.072C217.955 153.802 218.065 154.58 218.09 155.358C218.098 155.554 218.099 155.748 218.096 155.941C218.096 156.135 218.087 156.328 218.071 156.52C218.036 156.903 217.978 157.28 217.891 157.645C217.718 158.374 217.433 159.055 217.097 159.639C216.93 159.931 216.747 160.199 216.571 160.436C216.485 160.554 216.388 160.665 216.308 160.767C216.219 160.87 216.137 160.965 216.059 161.049C215.898 161.22 215.762 161.354 215.658 161.444L215.538 161.549L215.495 161.585H224.148Z" fill="#CED9DD"/>
<path fill-rule="evenodd" clip-rule="evenodd" d="M207.638 160.963C207.638 154.185 213.092 148.689 219.821 148.689C226.551 148.689 232.006 154.185 232.006 160.963C232.006 167.741 226.551 173.235 219.821 173.235C213.092 173.235 207.638 167.741 207.638 160.963ZM201.896 160.963C201.896 170.935 209.922 179.019 219.821 179.019C229.722 179.019 237.747 170.935 237.747 160.963C237.747 150.99 229.722 142.906 219.821 142.906C209.922 142.906 201.896 150.99 201.896 160.963Z" fill="#242027"/>
<path fill-rule="evenodd" clip-rule="evenodd" d="M207.349 160.963C207.349 154.024 212.933 148.398 219.821 148.398C226.71 148.398 232.294 154.024 232.294 160.963C232.294 167.902 226.71 173.526 219.821 173.526C212.933 173.526 207.349 167.902 207.349 160.963ZM205.604 160.963C205.604 168.872 211.97 175.283 219.821 175.283C227.674 175.283 234.038 168.872 234.038 160.963C234.038 153.053 227.674 146.642 219.821 146.642C211.97 146.642 205.604 153.053 205.604 160.963Z" fill="#DDEAEF"/>
<path fill-rule="evenodd" clip-rule="evenodd" d="M215.495 160.963C215.495 163.369 217.432 165.321 219.821 165.321C222.211 165.321 224.148 163.369 224.148 160.963C224.148 158.555 222.211 156.604 219.821 156.604C217.432 156.604 215.495 158.555 215.495 160.963Z" fill="#181615"/>
<path fill-rule="evenodd" clip-rule="evenodd" d="M212.395 161.432C212.385 161.277 212.381 161.119 212.381 160.962V160.93C212.382 160.683 212.582 160.484 212.826 160.484H212.83C213.075 160.486 213.274 160.689 213.272 160.937V160.962C213.272 161.1 213.276 161.239 213.285 161.377C213.3 161.624 213.113 161.836 212.868 161.852L212.839 161.854C212.606 161.854 212.409 161.67 212.395 161.432ZM213.248 163.418C213.472 163.317 213.736 163.418 213.836 163.645C213.891 163.771 213.952 163.896 214.015 164.018C214.129 164.238 214.045 164.509 213.827 164.624C213.762 164.659 213.69 164.676 213.621 164.676C213.46 164.676 213.305 164.588 213.226 164.435C213.153 164.296 213.085 164.153 213.022 164.011C212.921 163.784 213.022 163.518 213.248 163.418ZM214.015 160.962C214.015 157.732 216.615 155.112 219.821 155.112C223.029 155.112 225.629 157.732 225.629 160.962C225.629 164.192 223.029 166.812 219.821 166.812C216.615 166.812 214.015 164.192 214.015 160.962ZM214.808 165.897C214.973 165.713 215.254 165.698 215.437 165.864C215.538 165.956 215.644 166.046 215.751 166.132C215.944 166.286 215.976 166.569 215.823 166.763C215.734 166.875 215.605 166.932 215.473 166.932C215.377 166.932 215.279 166.9 215.197 166.834C215.075 166.737 214.955 166.635 214.84 166.531C214.658 166.365 214.643 166.081 214.808 165.897ZM217.231 167.526C217.307 167.29 217.558 167.16 217.793 167.237C217.922 167.28 218.056 167.319 218.188 167.353C218.426 167.415 218.57 167.66 218.508 167.9C218.456 168.103 218.276 168.237 218.076 168.237L217.965 168.223C217.816 168.184 217.664 168.14 217.517 168.092C217.283 168.015 217.155 167.761 217.231 167.526ZM220.501 167.525C220.637 167.511 220.774 167.492 220.908 167.469C221.151 167.429 221.381 167.594 221.422 167.839C221.462 168.083 221.297 168.315 221.055 168.356C220.902 168.381 220.746 168.403 220.591 168.419L220.546 168.421C220.32 168.421 220.126 168.249 220.103 168.018C220.078 167.771 220.256 167.55 220.501 167.525ZM223.09 166.681C223.209 166.613 223.326 166.539 223.439 166.463C223.644 166.325 223.921 166.382 224.057 166.589C224.194 166.795 224.138 167.074 223.933 167.211C223.804 167.297 223.67 167.381 223.536 167.459C223.465 167.5 223.389 167.519 223.313 167.519C223.16 167.519 223.009 167.439 222.927 167.295C222.803 167.079 222.877 166.805 223.09 166.681ZM225.115 164.848C225.196 164.737 225.274 164.622 225.347 164.505C225.48 164.296 225.756 164.236 225.963 164.369C226.17 164.502 226.231 164.779 226.1 164.989C226.016 165.121 225.928 165.252 225.836 165.377C225.749 165.497 225.613 165.561 225.475 165.561C225.385 165.561 225.292 165.533 225.213 165.475C225.014 165.329 224.971 165.048 225.115 164.848ZM226.227 162.346C226.255 162.212 226.28 162.075 226.301 161.938C226.337 161.692 226.564 161.525 226.806 161.56C227.051 161.596 227.218 161.824 227.182 162.07C227.159 162.225 227.132 162.381 227.099 162.533C227.055 162.744 226.87 162.889 226.664 162.889L226.57 162.878C226.329 162.826 226.176 162.588 226.227 162.346ZM226.761 159.95L226.668 159.96C226.462 159.96 226.276 159.814 226.233 159.602C226.204 159.467 226.172 159.332 226.136 159.2C226.07 158.961 226.209 158.714 226.446 158.648C226.684 158.582 226.929 158.722 226.995 158.961C227.036 159.111 227.073 159.264 227.105 159.419C227.155 159.661 227.001 159.9 226.761 159.95ZM225.752 157.196C225.674 157.254 225.582 157.282 225.491 157.282C225.353 157.282 225.217 157.217 225.13 157.096C225.05 156.985 224.966 156.874 224.878 156.768C224.722 156.577 224.749 156.294 224.939 156.136C225.129 155.978 225.41 156.005 225.566 156.196C225.665 156.318 225.761 156.443 225.852 156.569C225.996 156.77 225.952 157.051 225.752 157.196ZM223.721 155.093C223.637 155.236 223.488 155.316 223.334 155.316C223.259 155.316 223.182 155.296 223.111 155.255C222.992 155.185 222.871 155.119 222.75 155.058C222.53 154.947 222.44 154.678 222.551 154.456C222.661 154.233 222.929 154.144 223.148 154.255C223.287 154.325 223.425 154.399 223.56 154.479C223.773 154.603 223.844 154.878 223.721 155.093ZM221.016 154.003C220.992 154.233 220.798 154.404 220.573 154.404L220.526 154.401C220.39 154.387 220.252 154.376 220.115 154.37C219.869 154.36 219.679 154.15 219.69 153.902C219.701 153.655 219.912 153.46 220.154 153.474C220.31 153.48 220.466 153.492 220.621 153.509C220.865 153.535 221.043 153.757 221.016 154.003ZM217.816 154.679C217.687 154.721 217.556 154.768 217.429 154.818L217.266 154.849C217.088 154.849 216.92 154.74 216.851 154.564C216.761 154.333 216.874 154.073 217.103 153.982C217.248 153.924 217.397 153.871 217.544 153.824C217.779 153.747 218.029 153.878 218.104 154.114C218.18 154.349 218.051 154.603 217.816 154.679ZM215.455 156.043C215.354 156.135 215.254 156.231 215.157 156.33C215.07 156.419 214.955 156.463 214.84 156.463C214.726 156.463 214.613 156.421 214.527 156.334C214.351 156.16 214.35 155.876 214.522 155.699C214.632 155.587 214.746 155.478 214.861 155.375C215.043 155.209 215.326 155.225 215.49 155.41C215.654 155.594 215.638 155.879 215.455 156.043ZM213.846 158.256C213.79 158.381 213.737 158.51 213.69 158.638C213.622 158.819 213.452 158.929 213.272 158.929L213.115 158.9C212.885 158.813 212.768 158.554 212.855 158.322C212.909 158.176 212.97 158.03 213.033 157.888C213.134 157.661 213.398 157.56 213.622 157.662C213.848 157.764 213.947 158.03 213.846 158.256ZM211.786 160.962C211.786 165.432 215.384 169.057 219.821 169.057C224.26 169.057 227.857 165.432 227.857 160.962C227.857 156.491 224.26 152.868 219.821 152.868C215.384 152.868 211.786 156.491 211.786 160.962Z" fill="#EEEEEA"/>
<path fill-rule="evenodd" clip-rule="evenodd" d="M203.096 161.585C203.096 170.531 210.322 177.808 219.203 177.808C228.085 177.808 235.31 170.531 235.31 161.585C235.31 152.638 228.085 145.36 219.203 145.36C210.322 145.36 203.096 152.638 203.096 161.585ZM201.896 161.585C201.896 151.971 209.66 144.151 219.203 144.151C228.747 144.151 236.511 151.971 236.511 161.585C236.511 171.197 228.747 179.019 219.203 179.019C209.66 179.019 201.896 171.197 201.896 161.585Z" fill="#433B46"/>
<path fill-rule="evenodd" clip-rule="evenodd" d="M73.6895 159.094L73.6916 159.15C73.6931 159.187 73.6966 159.242 73.6959 159.309C73.698 159.447 73.6895 159.64 73.6725 159.875C73.6625 159.991 73.6476 160.117 73.6313 160.254C73.61 160.384 73.5923 160.532 73.5625 160.679C73.5057 160.975 73.4312 161.299 73.3276 161.629C73.1211 162.291 72.8089 162.992 72.386 163.652C72.1759 163.983 71.9353 164.304 71.6749 164.612C71.5436 164.766 71.4074 164.915 71.2648 165.06C71.1228 165.206 70.9788 165.351 70.8291 165.49C70.2358 166.053 69.5858 166.559 68.9273 166.981C68.2652 167.402 67.5925 167.737 66.9709 167.981C66.6601 168.103 66.3642 168.205 66.0903 168.281C65.9562 168.323 65.8242 168.356 65.7028 168.385C65.5829 168.418 65.4658 168.441 65.3615 168.462C65.1522 168.506 64.9783 168.531 64.8591 168.546C64.7356 168.557 64.6703 168.564 64.6703 168.564L70.1045 174.038C70.1045 174.038 70.1116 173.971 70.1237 173.848C70.1379 173.727 70.1627 173.552 70.2053 173.341C70.2266 173.236 70.25 173.119 70.2812 172.998C70.311 172.875 70.3437 172.742 70.3848 172.607C70.4615 172.331 70.5608 172.033 70.6829 171.721C70.9249 171.095 71.2584 170.417 71.6763 169.75C72.0957 169.086 72.5967 168.43 73.1559 167.834C73.2943 167.684 73.4376 167.538 73.5831 167.395C73.7257 167.251 73.8747 167.113 74.028 166.982C74.3346 166.72 74.6517 166.478 74.9803 166.266C75.6367 165.84 76.3321 165.525 76.9899 165.318C77.317 165.213 77.6378 165.138 77.9316 165.081C78.0778 165.051 78.2246 165.033 78.3545 165.011C78.49 164.995 78.6149 164.98 78.7299 164.97C78.9641 164.951 79.1549 164.944 79.2919 164.946C79.3586 164.946 79.4132 164.948 79.4501 164.951L79.5055 164.953L73.6895 159.094Z" fill="#CED9DD"/>
<path fill-rule="evenodd" clip-rule="evenodd" d="M74.5604 164.953L74.6158 164.951C74.652 164.948 74.7073 164.946 74.7733 164.946C74.911 164.944 75.1005 164.951 75.3346 164.97C75.4503 164.98 75.5752 164.995 75.7121 165.011C75.8413 165.033 75.9875 165.051 76.1329 165.081C76.4267 165.138 76.7489 165.213 77.076 165.318C77.7338 165.525 78.4292 165.84 79.0842 166.266C79.4135 166.478 79.7321 166.72 80.0379 166.982C80.1905 167.113 80.3395 167.251 80.4829 167.395C80.6276 167.538 80.771 167.684 80.9093 167.834C81.4685 168.43 81.9695 169.086 82.3896 169.75C82.8076 170.417 83.1411 171.095 83.3831 171.721C83.5044 172.033 83.6045 172.331 83.6804 172.607C83.7223 172.742 83.7549 172.875 83.784 172.998C83.8152 173.119 83.8386 173.236 83.8599 173.341C83.9025 173.552 83.928 173.727 83.9422 173.848C83.9543 173.971 83.9614 174.038 83.9614 174.038L89.3956 168.564C89.3956 168.564 89.3296 168.557 89.2068 168.546C89.0862 168.531 88.9131 168.506 88.7044 168.462C88.6001 168.441 88.4838 168.418 88.3631 168.385C88.2411 168.356 88.1091 168.323 87.9757 168.281C87.701 168.205 87.4051 168.103 87.095 167.981C86.4741 167.737 85.8 167.402 85.1386 166.981C84.4787 166.559 83.8287 166.053 83.2362 165.49C83.0871 165.351 82.9424 165.206 82.8012 165.06C82.6578 164.915 82.5209 164.766 82.3903 164.612C82.1306 164.304 81.89 163.983 81.6793 163.652C81.2563 162.992 80.9441 162.291 80.739 161.629C80.634 161.299 80.5595 160.975 80.5027 160.679C80.4729 160.532 80.4552 160.384 80.4339 160.254C80.4176 160.117 80.4027 159.991 80.3927 159.875C80.375 159.64 80.3679 159.447 80.3693 159.309C80.3686 159.242 80.3722 159.187 80.3743 159.15L80.3764 159.094L74.5604 164.953Z" fill="#CED9DD"/>
<path fill-rule="evenodd" clip-rule="evenodd" d="M81.978 161.585L81.9347 161.55L81.8145 161.445C81.7107 161.354 81.5741 161.221 81.4136 161.05C81.3359 160.965 81.2538 160.871 81.1642 160.768C81.0836 160.666 80.988 160.554 80.9022 160.436C80.7252 160.199 80.5423 159.931 80.3766 159.64C80.0398 159.056 79.7546 158.374 79.5822 157.645C79.4941 157.28 79.4358 156.903 79.4015 156.521C79.3851 156.328 79.3761 156.135 79.3761 155.941C79.3731 155.749 79.3746 155.553 79.3821 155.359C79.4075 154.58 79.518 153.802 79.6957 153.072C79.8778 152.343 80.1302 151.661 80.4124 151.078C80.5543 150.786 80.6991 150.518 80.8462 150.281C80.9149 150.163 80.9888 150.052 81.0582 149.949C81.1232 149.847 81.1926 149.752 81.2546 149.667C81.3785 149.496 81.4897 149.363 81.5674 149.272C81.6503 149.181 81.6943 149.132 81.6943 149.132H73.6079C73.6079 149.132 73.6527 149.181 73.7348 149.272C73.8132 149.363 73.9237 149.496 74.0476 149.667C74.1096 149.752 74.179 149.847 74.2447 149.949C74.3127 150.052 74.3873 150.163 74.456 150.281C74.6039 150.518 74.7487 150.786 74.8905 151.078C75.172 151.661 75.4251 152.343 75.6058 153.072C75.7842 153.802 75.8947 154.58 75.9209 155.359C75.9276 155.553 75.9298 155.749 75.9268 155.941C75.9268 156.135 75.9164 156.328 75.9014 156.521C75.8671 156.903 75.8081 157.28 75.72 157.645C75.5483 158.374 75.2624 159.056 74.9264 159.64C74.7599 159.931 74.577 160.199 74.4008 160.436C74.3142 160.554 74.2186 160.666 74.138 160.768C74.0491 160.871 73.9677 160.965 73.8894 161.05C73.7273 161.221 73.5915 161.354 73.4877 161.445L73.3675 161.55L73.3242 161.585H81.978Z" fill="#CED9DD"/>
<path fill-rule="evenodd" clip-rule="evenodd" d="M65.4671 160.962C65.4671 154.184 70.9213 148.689 77.6514 148.689C84.3802 148.689 89.8351 154.184 89.8351 160.962C89.8351 167.741 84.3802 173.235 77.6514 173.235C70.9213 173.235 65.4671 167.741 65.4671 160.962ZM59.7253 160.962C59.7253 170.935 67.7509 179.019 77.6514 179.019C87.5513 179.019 95.5769 170.935 95.5769 160.962C95.5769 150.99 87.5513 142.906 77.6514 142.906C67.7509 142.906 59.7253 150.99 59.7253 160.962Z" fill="#242027"/>
<path fill-rule="evenodd" clip-rule="evenodd" d="M65.1782 160.962C65.1782 154.024 70.7616 148.399 77.6511 148.399C84.5392 148.399 90.1233 154.024 90.1233 160.962C90.1233 167.901 84.5392 173.526 77.6511 173.526C70.7616 173.526 65.1782 167.901 65.1782 160.962ZM63.4341 160.962C63.4341 168.871 69.7987 175.283 77.6511 175.283C85.5028 175.283 91.8681 168.871 91.8681 160.962C91.8681 153.054 85.5028 146.642 77.6511 146.642C69.7987 146.642 63.4341 153.054 63.4341 160.962Z" fill="#CED9DD"/>
<path fill-rule="evenodd" clip-rule="evenodd" d="M73.3242 160.962C73.3242 163.369 75.2617 165.321 77.6515 165.321C80.0412 165.321 81.978 163.369 81.978 160.962C81.978 158.555 80.0412 156.604 77.6515 156.604C75.2617 156.604 73.3242 158.555 73.3242 160.962Z" fill="#181615"/>
<path fill-rule="evenodd" clip-rule="evenodd" d="M70.2237 161.432C70.214 161.277 70.2098 161.119 70.2098 160.963V160.931C70.2119 160.684 70.4109 160.485 70.6551 160.485H70.6586C70.9048 160.487 71.1032 160.69 71.1018 160.938L71.1011 160.963C71.1011 161.101 71.1059 161.24 71.1136 161.377C71.1288 161.625 70.9422 161.838 70.696 161.853L70.669 161.854C70.4352 161.854 70.2389 161.671 70.2237 161.432ZM71.0768 163.418C71.3015 163.317 71.5651 163.419 71.665 163.646C71.7205 163.771 71.7808 163.897 71.8446 164.018C71.9584 164.237 71.8744 164.509 71.6567 164.624C71.5908 164.659 71.52 164.675 71.45 164.675C71.289 164.675 71.1344 164.588 71.0546 164.435C70.9832 164.297 70.9138 164.154 70.8507 164.011C70.7508 163.784 70.8514 163.519 71.0768 163.418ZM71.8446 160.962C71.8446 157.732 74.4442 155.113 77.6514 155.113C80.858 155.113 83.4583 157.732 83.4583 160.962C83.4583 164.193 80.858 166.812 77.6514 166.812C74.4442 166.812 71.8446 164.193 71.8446 160.962ZM72.6367 165.897C72.8018 165.712 73.0827 165.698 73.2665 165.863C73.3678 165.955 73.4732 166.046 73.5807 166.131C73.7735 166.287 73.8054 166.569 73.6528 166.763C73.5648 166.874 73.4344 166.932 73.3033 166.932C73.2062 166.932 73.1077 166.901 73.0258 166.835C72.9044 166.737 72.7844 166.635 72.67 166.531C72.4869 166.365 72.4723 166.081 72.6367 165.897ZM75.0602 167.526C75.1364 167.29 75.3875 167.161 75.6227 167.237C75.7524 167.281 75.8848 167.319 76.0173 167.353C76.2552 167.415 76.3988 167.659 76.3385 167.9C76.2864 168.103 76.1054 168.237 75.907 168.237L75.7947 168.223C75.6456 168.185 75.4937 168.14 75.3466 168.091C75.1129 168.015 74.9839 167.762 75.0602 167.526ZM78.3305 167.525C78.4664 167.511 78.6038 167.492 78.7383 167.47C78.9811 167.429 79.21 167.594 79.2509 167.838C79.2911 168.084 79.1274 168.315 78.884 168.356C78.7314 168.381 78.576 168.403 78.422 168.419L78.3756 168.421C78.1495 168.421 77.9559 168.249 77.9317 168.018C77.9067 167.771 78.0856 167.55 78.3305 167.525ZM80.9197 166.681C81.0383 166.612 81.1562 166.539 81.2693 166.463C81.4739 166.326 81.7506 166.382 81.8873 166.588C82.0239 166.794 81.9677 167.074 81.7631 167.212C81.6334 167.297 81.4995 167.381 81.365 167.46C81.2949 167.501 81.2186 167.519 81.1423 167.519C80.989 167.519 80.8385 167.439 80.756 167.295C80.6325 167.079 80.7061 166.805 80.9197 166.681ZM82.945 164.848C83.0262 164.737 83.1031 164.622 83.1774 164.506C83.3091 164.297 83.5859 164.235 83.7933 164.369C84.0007 164.502 84.0617 164.78 83.9285 164.989C83.846 165.12 83.7572 165.251 83.6657 165.377C83.5783 165.498 83.443 165.562 83.305 165.562C83.2141 165.562 83.1219 165.534 83.0428 165.475C82.8437 165.329 82.8007 165.049 82.945 164.848ZM84.0568 162.346C84.0846 162.212 84.1103 162.075 84.1297 161.939C84.1664 161.694 84.3932 161.525 84.636 161.56C84.8802 161.597 85.0487 161.826 85.0119 162.07C84.989 162.225 84.9613 162.382 84.9294 162.533C84.8843 162.744 84.6991 162.889 84.4931 162.889L84.4002 162.879C84.1595 162.828 84.0055 162.589 84.0568 162.346ZM84.5895 159.951L84.498 159.96C84.2913 159.96 84.1061 159.815 84.0617 159.603C84.034 159.468 84.0014 159.333 83.9653 159.201C83.9001 158.962 84.0395 158.715 84.276 158.648C84.5132 158.582 84.7588 158.722 84.8247 158.962C84.8656 159.112 84.903 159.266 84.9349 159.419C84.9856 159.662 84.8309 159.9 84.5895 159.951ZM83.5824 157.197C83.5034 157.255 83.4118 157.283 83.3209 157.283C83.1836 157.283 83.047 157.218 82.9589 157.097C82.8798 156.986 82.7952 156.875 82.7078 156.768C82.5517 156.577 82.5788 156.294 82.7688 156.137C82.9582 155.978 83.2398 156.007 83.3958 156.198C83.495 156.319 83.5914 156.444 83.6816 156.571C83.8259 156.771 83.7815 157.051 83.5824 157.197ZM81.5502 155.094C81.4676 155.237 81.3178 155.317 81.1652 155.317C81.0882 155.317 81.0112 155.297 80.9405 155.257C80.8219 155.187 80.7012 155.12 80.5791 155.06C80.3593 154.948 80.2698 154.679 80.3801 154.457C80.4904 154.235 80.7581 154.145 80.978 154.257C81.116 154.325 81.254 154.401 81.3893 154.48C81.6015 154.605 81.6736 154.88 81.5502 155.094ZM78.8458 154.004C78.8215 154.234 78.628 154.405 78.4033 154.405L78.3548 154.403C78.2195 154.388 78.0815 154.377 77.9455 154.371C77.6993 154.361 77.5086 154.151 77.519 153.903C77.5294 153.655 77.7409 153.462 77.9844 153.474C78.139 153.481 78.2965 153.492 78.4498 153.51C78.6953 153.537 78.8722 153.757 78.8458 154.004ZM75.6462 154.679C75.5165 154.721 75.3868 154.768 75.2578 154.819L75.0962 154.85C74.918 154.85 74.7501 154.742 74.6808 154.565C74.5913 154.334 74.7036 154.073 74.9332 153.983C75.0775 153.926 75.2266 153.873 75.3737 153.824C75.6081 153.749 75.8592 153.879 75.9348 154.115C76.009 154.351 75.8807 154.603 75.6462 154.679ZM73.2838 156.045C73.184 156.136 73.0827 156.232 72.987 156.331C72.8996 156.42 72.7844 156.464 72.67 156.464C72.5563 156.464 72.4425 156.421 72.3558 156.335C72.1803 156.161 72.1796 155.876 72.3523 155.7C72.4619 155.588 72.5757 155.479 72.6901 155.376C72.8732 155.21 73.1548 155.226 73.3199 155.41C73.4836 155.595 73.4676 155.88 73.2838 156.045ZM71.6754 158.257C71.6199 158.382 71.5665 158.511 71.5193 158.639C71.452 158.819 71.2828 158.93 71.1018 158.93L70.9443 158.901C70.7141 158.814 70.5975 158.555 70.6842 158.322C70.739 158.176 70.7994 158.03 70.8625 157.888C70.9637 157.662 71.2273 157.561 71.452 157.663C71.6761 157.765 71.7766 158.031 71.6754 158.257ZM69.6154 160.962C69.6154 165.433 73.2131 169.057 77.6514 169.057C82.0898 169.057 85.6868 165.433 85.6868 160.962C85.6868 156.492 82.0898 152.868 77.6514 152.868C73.2131 152.868 69.6154 156.492 69.6154 160.962Z" fill="#EEEEEA"/>
<path fill-rule="evenodd" clip-rule="evenodd" d="M60.9276 161.585C60.9276 170.531 68.1525 177.808 77.0333 177.808C85.9148 177.808 93.1391 170.531 93.1391 161.585C93.1391 152.64 85.9148 145.361 77.0333 145.361C68.1525 145.361 60.9276 152.64 60.9276 161.585ZM59.7253 161.585C59.7253 151.972 67.49 144.151 77.0333 144.151C86.5759 144.151 94.3407 151.972 94.3407 161.585C94.3407 171.198 86.5759 179.019 77.0333 179.019C67.49 179.019 59.7253 171.198 59.7253 161.585Z" fill="#433B46"/>
<mask id="mask0" mask-type="alpha" maskUnits="userSpaceOnUse" x="37" y="118" width="222" height="55">
<path d="M255.89 172.447C255.89 172.447 254.632 167.874 258.764 157.407C258.764 157.407 246.544 133.96 211.169 134.568C157.489 135.487 155.378 119.679 136.37 118.461C115.14 117.098 94.4498 118.001 69.6741 131.806C52.2799 140.543 43.4789 139.934 43.4789 139.934C43.4789 139.934 35.8677 162.733 37.7811 168.69C39.1276 172.885 60.3456 172.649 79.2028 172.414C87.1294 172.316 94.6387 172.216 100.079 172.447C118.466 173.225 255.89 172.447 255.89 172.447Z" fill="white"/>
</mask>
<g mask="url(#mask0)">
<path fill-rule="evenodd" clip-rule="evenodd" d="M262.999 166.566C262.999 166.566 286.176 136.838 172.572 138.983C58.9689 141.127 41.0202 142.426 37.8179 138.872C34.6134 135.317 53.3692 134.267 108.33 136.713C163.291 139.16 171.552 124.629 190.852 125.094C210.152 125.558 238.643 120.213 249.672 131.483C260.7 142.753 262.999 166.566 262.999 166.566Z" fill="#B4252B"/>
<path fill-rule="evenodd" clip-rule="evenodd" d="M184.588 131.516C184.588 131.516 177.029 134.728 167.354 131.516C157.678 128.302 134.397 118.664 143.316 118.021C152.235 117.379 184.588 131.516 184.588 131.516Z" fill="#BDD8D2"/>
<path fill-rule="evenodd" clip-rule="evenodd" d="M170.989 132.237C170.989 132.237 200.331 134.722 216.353 136.94C232.376 139.159 245.29 145.594 250.134 150.879C254.976 156.164 271.581 131.576 246.443 130.656C221.306 129.737 170.989 132.237 170.989 132.237Z" fill="#E0595A"/>
<path fill-rule="evenodd" clip-rule="evenodd" d="M239.198 135.434C239.198 135.434 237.636 140.853 242.945 146.101C248.253 151.349 255.435 155.797 262.617 155.324C269.799 154.851 239.198 135.434 239.198 135.434Z" fill="#D6EDEC"/>
<path fill-rule="evenodd" clip-rule="evenodd" d="M99.2857 118C99.2857 118 79.221 133.522 66.8339 132.927C54.4476 132.333 99.2857 118 99.2857 118Z" fill="#BDD8D2"/>
<path fill-rule="evenodd" clip-rule="evenodd" d="M250.11 160.962C250.11 161.994 251.038 162.83 252.183 162.83H257.926C259.072 162.83 260 161.994 260 160.962C260 159.931 259.072 159.094 257.926 159.094H252.183C251.038 159.094 250.11 159.931 250.11 160.962Z" fill="#0A0B09"/>
</g>
<mask id="mask1" mask-type="alpha" maskUnits="userSpaceOnUse" x="38" y="118" width="221" height="55">
<path d="M43.6165 139.934C43.6165 139.934 52.4119 140.543 69.795 131.806C94.5548 118.001 115.231 117.098 136.448 118.461C155.444 119.679 157.553 135.487 211.199 134.568C246.552 133.96 258.764 157.407 258.764 157.407C256.733 162.554 256.006 166.273 255.792 168.727C256.718 168.896 257.422 169.706 257.422 170.684C257.422 171.786 256.532 172.679 255.433 172.679H249.928C249.624 172.679 249.34 172.605 249.082 172.483C245.828 172.5 241.524 172.521 236.435 172.546C238.35 169.474 239.459 165.846 239.459 161.957C239.459 150.905 230.528 141.945 219.509 141.945C208.491 141.945 199.559 150.905 199.559 161.957C199.559 165.905 200.702 169.583 202.67 172.683C161.905 172.826 110.879 172.899 100.181 172.447C98.4611 172.374 96.575 172.326 94.5681 172.293C96.3841 169.277 97.4286 165.743 97.4286 161.964C97.4286 150.912 88.4963 141.952 77.4785 141.952C66.46 141.952 57.527 150.912 57.527 161.964C57.527 165.278 58.3357 168.4 59.7571 171.153C49.7824 170.138 41.6714 168.079 39.4104 163.79C36.4931 158.258 43.6165 139.934 43.6165 139.934Z" fill="white"/>
</mask>
<g mask="url(#mask1)">
<path fill-rule="evenodd" clip-rule="evenodd" d="M259.394 161.585C259.394 161.585 253.408 168.413 237.811 168.806C222.214 169.201 234.497 175.348 243.169 175.283C251.841 175.219 260.513 174.16 261.133 168.434C261.751 162.708 259.394 161.585 259.394 161.585Z" fill="#E0595A"/>
<path fill-rule="evenodd" clip-rule="evenodd" d="M257.287 167.135C257.287 167.135 252.854 171.744 236.885 170.176C234.039 176.383 234.829 175.255 240.358 175.029C245.889 174.804 256.158 176.663 258.077 172.802C259.994 168.939 261.236 166.566 261.236 166.566L257.287 167.135Z" fill="#8E2326"/>
<path fill-rule="evenodd" clip-rule="evenodd" d="M93.1044 172.839L200.259 167.811L201.896 174.038L93.1044 172.839Z" fill="#8E2326"/>
<path fill-rule="evenodd" clip-rule="evenodd" d="M41.3785 155.358C41.3785 155.358 36.7602 166.287 58.7214 170.384C80.6819 174.482 46.0566 184.734 37.9011 170.384C29.7442 156.034 41.3785 155.358 41.3785 155.358Z" fill="#8E2326"/>
<path fill-rule="evenodd" clip-rule="evenodd" d="M99.5312 147.887H99.2857C99.2857 147.887 99.2727 148.685 99.487 149.738C99.7014 150.79 100.646 154.61 100.76 155.374C100.875 156.138 101.061 159.108 101.09 160.52C101.118 161.933 101.2 165.321 101.2 165.321L201.572 161.855L205.604 150.452L99.5312 147.887Z" fill="#A6262A"/>
<path fill-rule="evenodd" clip-rule="evenodd" d="M99.5173 169.057H178.029L178.045 168.844C179.641 147.297 175.488 141.108 174.639 140.086C172.797 137.87 166.445 134.338 166.176 134.189L165.954 134.592C166.02 134.628 172.5 138.232 174.286 140.381C176.566 143.126 178.795 152.16 177.602 168.596H100.001C100.05 167.652 100.086 166.831 100.105 166.189C100.833 157.754 99.8264 153.956 99.0915 151.182C98.5983 149.319 98.2717 148.089 98.7206 146.283C99.948 141.339 104.425 137.53 104.471 137.492L104.177 137.138C104.13 137.177 99.5398 141.079 98.2752 146.171C97.7967 148.093 98.1543 149.438 98.6475 151.301C99.3747 154.042 100.37 157.794 99.6466 166.162C99.6255 166.868 99.5841 167.772 99.53 168.814L99.5173 169.057Z" fill="#8C2225"/>
</g>
<mask id="mask2" mask-type="alpha" maskUnits="userSpaceOnUse" x="38" y="118" width="221" height="55">
<path d="M69.795 131.806C94.5548 118.001 115.231 117.098 136.448 118.461C155.444 119.679 157.553 135.487 211.199 134.568C246.552 133.96 258.764 157.407 258.764 157.407C256.733 162.554 256.006 166.273 255.792 168.727C256.718 168.896 257.422 169.706 257.422 170.685C257.422 171.786 256.532 172.679 255.433 172.679H249.928C249.624 172.679 249.34 172.605 249.082 172.483C221.155 172.628 116.088 173.12 100.181 172.447C81.8074 171.67 44.687 173.798 39.4104 163.79C36.4931 158.258 43.6165 139.934 43.6165 139.934C43.6165 139.934 52.4119 140.544 69.795 131.806Z" fill="white"/>
</mask>
<g mask="url(#mask2)">
<path fill-rule="evenodd" clip-rule="evenodd" d="M39.2898 142.906L47.3626 143.707C47.3626 143.707 42.1389 162.418 32.9597 160.149C23.7806 157.88 39.2898 142.906 39.2898 142.906Z" fill="#F6BE25"/>
<path fill-rule="evenodd" clip-rule="evenodd" d="M90.7826 136.679C90.7826 136.679 85.0921 136.639 87.5305 140.17C89.9696 143.7 93.4933 147.887 93.4933 147.887H96.8132C96.8132 147.887 90.5458 140.887 90.7826 136.679Z" fill="#311515"/>
<path fill-rule="evenodd" clip-rule="evenodd" d="M157.39 141.667C157.39 141.667 189.35 141.969 196.978 141.667C204.606 141.366 193.011 151.623 181.112 151.623C181.112 151.623 192.784 146.483 192.096 144.118C189.332 143.124 157.39 141.667 157.39 141.667Z" fill="#311515"/>
<path fill-rule="evenodd" clip-rule="evenodd" d="M167.28 134.447C167.28 134.447 142.493 122.121 132.806 121.196C123.119 120.272 104.607 119.138 94.1769 125.819C83.7457 132.498 87.7598 135.679 99.4415 136.913C111.122 138.145 145.889 139.099 167.28 134.447Z" fill="#BDD8D2"/>
</g>
<mask id="mask3" mask-type="alpha" maskUnits="userSpaceOnUse" x="88" y="120" width="80" height="18">
<path d="M167.28 134.447C167.28 134.447 142.493 122.121 132.806 121.196C123.119 120.272 104.607 119.138 94.1769 125.819C83.7457 132.498 87.7598 135.679 99.4415 136.913C111.122 138.145 145.889 139.099 167.28 134.447Z" fill="white"/>
</mask>
<g mask="url(#mask3)">
<path fill-rule="evenodd" clip-rule="evenodd" d="M106.703 137.568C106.703 137.568 106.589 137.31 106.43 136.851C106.345 136.622 106.256 136.343 106.156 136.023C106.049 135.703 105.958 135.34 105.845 134.945C105.734 134.55 105.641 134.119 105.528 133.665C105.42 133.21 105.322 132.729 105.228 132.231C105.037 131.234 104.883 130.167 104.741 129.098C104.674 128.564 104.605 128.029 104.556 127.501C104.503 126.974 104.45 126.454 104.401 125.951C104.362 125.448 104.326 124.961 104.29 124.499C104.267 124.037 104.245 123.599 104.225 123.195C104.16 121.578 104.216 120.49 104.216 120.49L101.758 120.724C101.758 120.724 102.045 121.779 102.326 123.375C102.392 123.775 102.464 124.208 102.54 124.665C102.604 125.125 102.672 125.609 102.742 126.109C102.8 126.611 102.859 127.13 102.92 127.657C102.983 128.183 103.03 128.72 103.079 129.256C103.168 130.33 103.243 131.405 103.27 132.417C103.282 132.923 103.288 133.413 103.281 133.879C103.267 134.345 103.268 134.784 103.242 135.192C103.216 135.6 103.204 135.974 103.168 136.308C103.137 136.64 103.11 136.93 103.076 137.17C103.019 137.649 102.961 137.924 102.961 137.924L106.703 137.568Z" fill="#CD2D2F"/>
</g>
<defs>
<filter id="filter0_d" x="262.406" y="112.776" width="30.5938" height="75.7266" filterUnits="userSpaceOnUse" color-interpolation-filters="sRGB">
<feFlood flood-opacity="0" result="BackgroundImageFix"/>
<feColorMatrix in="SourceAlpha" type="matrix" values="0 0 0 0 0 0 0 0 0 0 0 0 0 0 0 0 0 0 127 0"/>
<feOffset dx="1" dy="1"/>
<feGaussianBlur stdDeviation="1"/>
<feColorMatrix type="matrix" values="0 0 0 0 0 0 0 0 0 0 0 0 0 0 0 0 0 0 0.15 0"/>
<feBlend mode="normal" in2="BackgroundImageFix" result="effect1_dropShadow"/>
<feBlend mode="normal" in="SourceGraphic" in2="effect1_dropShadow" result="shape"/>
</filter>
<radialGradient id="paint0_radial" cx="0" cy="0" r="1" gradientUnits="userSpaceOnUse" gradientTransform="translate(150 150) rotate(90) scale(150)">
<stop offset="0.369792" stop-color="white" stop-opacity="0"/>
<stop offset="1" stop-color="#FF0000"/>
</radialGradient>
</defs>
</svg>
