<svg width="300" height="300" viewBox="0 0 300 300" fill="none" xmlns="http://www.w3.org/2000/svg">
<g clip-path="url(#clip0)">
<rect width="300" height="300" fill="white"/>
<rect width="300" height="300" fill="white"/>
<rect width="300" height="300" fill="white"/>
<rect width="300" height="300" fill="url(#paint0_radial)" fill-opacity="0.2"/>
<g filter="url(#filter0_d)">
<path d="M277.283 207.73C279.803 207.73 282.012 208.175 283.91 209.066C285.809 209.957 287.273 211.234 288.305 212.898C289.336 214.55 289.852 216.449 289.852 218.593C289.852 220.714 289.342 222.607 288.322 224.271C287.303 225.935 285.85 227.224 283.963 228.138C282.064 229.052 279.885 229.515 277.424 229.527L276.158 229.527C273.639 229.527 271.424 229.076 269.514 228.173C267.592 227.259 266.121 225.976 265.102 224.324C264.07 222.66 263.555 220.761 263.555 218.629C263.555 216.496 264.07 214.603 265.102 212.951C266.121 211.287 267.592 210.004 269.514 209.101C271.424 208.187 273.633 207.73 276.141 207.73L277.283 207.73ZM276.123 213.074C273.439 213.074 271.4 213.554 270.006 214.515C268.611 215.476 267.914 216.847 267.914 218.629C267.914 220.398 268.605 221.763 269.988 222.724C271.359 223.685 273.375 224.171 276.035 224.183L277.283 224.183C279.896 224.183 281.924 223.703 283.365 222.742C284.807 221.781 285.527 220.398 285.527 218.593C285.527 216.824 284.836 215.464 283.453 214.515C282.059 213.566 280.031 213.086 277.371 213.074L276.123 213.074ZM280.131 190.463L280.131 194.665L289.5 194.665L289.5 199.938L263.906 199.938L263.906 190.428C263.906 187.405 264.58 185.073 265.928 183.432C267.275 181.792 269.18 180.971 271.641 180.971C273.387 180.971 274.846 181.352 276.018 182.114C277.178 182.864 278.104 184.006 278.795 185.542L289.254 180.004L289.5 180.004L289.5 185.665L280.131 190.463ZM275.859 194.665L275.859 190.411C275.859 189.086 275.525 188.061 274.857 187.335C274.178 186.608 273.246 186.245 272.062 186.245C270.855 186.245 269.906 186.59 269.215 187.282C268.523 187.961 268.178 189.01 268.178 190.428L268.178 194.665L275.859 194.665ZM284.227 158.537L284.227 167.783L289.5 169.541L289.5 175.148L263.906 165.621L263.906 160.734L289.5 151.154L289.5 156.761L284.227 158.537ZM279.955 166.359L279.955 159.96L270.375 163.177L279.955 166.359ZM289.5 123.991L289.5 129.264L272.66 139.53L289.5 139.53L289.5 144.803L263.906 144.803L263.906 139.53L280.781 129.247L263.906 129.247L263.906 123.991L289.5 123.991ZM286.266 95.1752C287.402 96.1244 288.287 97.4662 288.92 99.2006C289.541 100.935 289.852 102.857 289.852 104.966C289.852 107.181 289.371 109.126 288.41 110.802C287.437 112.466 286.031 113.755 284.191 114.669C282.352 115.572 280.189 116.035 277.705 116.058L275.965 116.058C273.41 116.058 271.201 115.63 269.338 114.775C267.463 113.908 266.033 112.665 265.049 111.048C264.053 109.419 263.555 107.515 263.555 105.335C263.555 102.3 264.281 99.9272 265.734 98.2162C267.176 96.5053 269.279 95.4916 272.045 95.1752L272.045 100.308C270.58 100.542 269.508 101.064 268.828 101.872C268.148 102.669 267.809 103.771 267.809 105.177C267.809 106.97 268.482 108.335 269.83 109.273C271.178 110.21 273.182 110.685 275.842 110.697L277.477 110.697C280.16 110.697 282.187 110.187 283.559 109.167C284.93 108.148 285.615 106.654 285.615 104.685C285.615 102.705 285.193 101.292 284.35 100.449L279.937 100.449L279.937 105.247L276.053 105.247L276.053 95.1752L286.266 95.1752ZM278.408 71.5277L278.408 81.6527L285.264 81.6527L285.264 69.7699L289.5 69.7699L289.5 86.9262L263.906 86.9262L263.906 69.8051L268.178 69.8051L268.178 81.6527L274.277 81.6527L274.277 71.5277L278.408 71.5277Z" fill="white"/>
<path d="M288.305 212.898L287.88 213.161L287.881 213.163L288.305 212.898ZM283.963 228.138L284.18 228.589L284.181 228.588L283.963 228.138ZM277.424 229.527L277.424 230.027L277.426 230.027L277.424 229.527ZM269.514 228.173L269.299 228.625L269.3 228.626L269.514 228.173ZM265.102 224.324L265.527 224.061L265.527 224.06L265.102 224.324ZM265.102 212.951L265.526 213.216L265.528 213.212L265.102 212.951ZM269.514 209.101L269.726 209.554L269.729 209.552L269.514 209.101ZM269.988 222.724L270.275 222.315L270.274 222.314L269.988 222.724ZM276.035 224.183L276.033 224.683L276.035 224.683L276.035 224.183ZM283.453 214.515L283.736 214.103L283.734 214.102L283.453 214.515ZM277.371 213.074L277.373 212.574L277.371 212.574L277.371 213.074ZM277.283 208.23C279.744 208.23 281.878 208.665 283.698 209.519L284.123 208.613C282.146 207.686 279.862 207.23 277.283 207.23L277.283 208.23ZM283.698 209.519C285.515 210.371 286.903 211.586 287.88 213.161L288.73 212.635C287.644 210.882 286.102 209.542 284.123 208.613L283.698 209.519ZM287.881 213.163C288.857 214.728 289.352 216.533 289.352 218.593L290.352 218.593C290.352 216.365 289.815 214.373 288.729 212.633L287.881 213.163ZM289.352 218.593C289.352 220.631 288.863 222.431 287.896 224.01L288.749 224.532C289.82 222.783 290.352 220.798 290.352 218.593L289.352 218.593ZM287.896 224.01C286.93 225.586 285.552 226.813 283.745 227.688L284.181 228.588C286.147 227.636 287.675 226.284 288.749 224.532L287.896 224.01ZM283.746 227.688C281.925 228.565 279.82 229.016 277.421 229.027L277.426 230.027C279.949 230.015 282.204 229.54 284.18 228.589L283.746 227.688ZM277.424 229.027L276.158 229.027L276.158 230.027L277.424 230.027L277.424 229.027ZM276.158 229.027C273.698 229.027 271.559 228.587 269.727 227.721L269.3 228.626C271.289 229.565 273.579 230.027 276.158 230.027L276.158 229.027ZM269.728 227.722C267.885 226.845 266.491 225.624 265.527 224.061L264.676 224.586C265.751 226.329 267.299 227.674 269.299 228.625L269.728 227.722ZM265.527 224.06C264.549 222.483 264.055 220.677 264.055 218.629L263.055 218.629C263.055 220.846 263.592 222.837 264.677 224.587L265.527 224.06ZM264.055 218.629C264.055 216.58 264.549 214.781 265.526 213.216L264.677 212.686C263.592 214.425 263.055 216.411 263.055 218.629L264.055 218.629ZM265.528 213.212C266.492 211.639 267.885 210.418 269.726 209.554L269.301 208.649C267.299 209.589 265.75 210.935 264.675 212.69L265.528 213.212ZM269.729 209.552C271.561 208.676 273.694 208.23 276.141 208.23L276.141 207.23C273.572 207.23 271.287 207.698 269.298 208.65L269.729 209.552ZM276.141 208.23L277.283 208.23L277.283 207.23L276.141 207.23L276.141 208.23ZM276.123 212.574C273.393 212.574 271.236 213.06 269.722 214.104L270.29 214.927C271.565 214.048 273.486 213.574 276.123 213.574L276.123 212.574ZM269.722 214.104C268.184 215.163 267.414 216.693 267.414 218.629L268.414 218.629C268.414 217.002 269.039 215.789 270.29 214.927L269.722 214.104ZM267.414 218.629C267.414 220.552 268.178 222.075 269.703 223.135L270.274 222.314C269.033 221.452 268.414 220.244 268.414 218.629L267.414 218.629ZM269.701 223.134C271.192 224.178 273.326 224.671 276.033 224.683L276.037 223.683C273.424 223.672 271.527 223.192 270.275 222.315L269.701 223.134ZM276.035 224.683L277.283 224.683L277.283 223.683L276.035 223.683L276.035 224.683ZM277.283 224.683C279.948 224.683 282.087 224.195 283.643 223.158L283.088 222.326C281.761 223.211 279.845 223.683 277.283 223.683L277.283 224.683ZM283.643 223.158C285.23 222.1 286.027 220.557 286.027 218.593L285.027 218.593C285.027 220.239 284.383 221.462 283.088 222.326L283.643 223.158ZM286.027 218.593C286.027 216.67 285.263 215.151 283.736 214.103L283.17 214.927C284.408 215.777 285.027 216.978 285.027 218.593L286.027 218.593ZM283.734 214.102C282.223 213.073 280.08 212.586 277.373 212.574L277.369 213.574C279.982 213.585 281.895 214.059 283.172 214.929L283.734 214.102ZM277.371 212.574L276.123 212.574L276.123 213.574L277.371 213.574L277.371 212.574ZM280.131 190.463L279.903 190.018L279.631 190.158L279.631 190.463L280.131 190.463ZM280.131 194.665L279.631 194.665L279.631 195.165L280.131 195.165L280.131 194.665ZM289.5 194.665L290 194.665L290 194.165L289.5 194.165L289.5 194.665ZM289.5 199.938L289.5 200.438L290 200.438L290 199.938L289.5 199.938ZM263.906 199.938L263.406 199.938L263.406 200.438L263.906 200.438L263.906 199.938ZM276.018 182.114L275.745 182.533L275.746 182.534L276.018 182.114ZM278.795 185.542L278.339 185.747L278.558 186.233L279.029 185.983L278.795 185.542ZM289.254 180.004L289.254 179.504L289.13 179.504L289.02 179.563L289.254 180.004ZM289.5 180.004L290 180.004L290 179.504L289.5 179.504L289.5 180.004ZM289.5 185.665L289.728 186.11L290 185.97L290 185.665L289.5 185.665ZM275.859 194.665L275.859 195.165L276.359 195.165L276.359 194.665L275.859 194.665ZM274.857 187.335L275.226 186.996L275.223 186.993L274.857 187.335ZM269.215 187.282L269.565 187.638L269.568 187.635L269.215 187.282ZM268.178 194.665L267.678 194.665L267.678 195.165L268.178 195.165L268.178 194.665ZM279.631 190.463L279.631 194.665L280.631 194.665L280.631 190.463L279.631 190.463ZM280.131 195.165L289.5 195.165L289.5 194.165L280.131 194.165L280.131 195.165ZM289 194.665L289 199.938L290 199.938L290 194.665L289 194.665ZM289.5 199.438L263.906 199.438L263.906 200.438L289.5 200.438L289.5 199.438ZM264.406 199.938L264.406 190.428L263.406 190.428L263.406 199.938L264.406 199.938ZM264.406 190.428C264.406 187.472 265.066 185.27 266.314 183.75L265.541 183.115C264.095 184.876 263.406 187.337 263.406 190.428L264.406 190.428ZM266.314 183.75C267.551 182.244 269.303 181.471 271.641 181.471L271.641 180.471C269.057 180.471 267 181.339 265.541 183.115L266.314 183.75ZM271.641 181.471C273.314 181.471 274.672 181.836 275.745 182.533L276.29 181.695C275.019 180.868 273.459 180.471 271.641 180.471L271.641 181.471ZM275.746 182.534C276.809 183.221 277.678 184.28 278.339 185.747L279.251 185.336C278.529 183.733 277.546 182.507 276.289 181.694L275.746 182.534ZM279.029 185.983L289.488 180.446L289.02 179.563L278.561 185.1L279.029 185.983ZM289.254 180.504L289.5 180.504L289.5 179.504L289.254 179.504L289.254 180.504ZM289 180.004L289 185.665L290 185.665L290 180.004L289 180.004ZM289.272 185.22L279.903 190.018L280.359 190.908L289.728 186.11L289.272 185.22ZM276.359 194.665L276.359 190.411L275.359 190.411L275.359 194.665L276.359 194.665ZM276.359 190.411C276.359 189.005 276.004 187.843 275.226 186.996L274.489 187.673C275.047 188.279 275.359 189.168 275.359 190.411L276.359 190.411ZM275.223 186.993C274.43 186.146 273.356 185.745 272.062 185.745L272.062 186.745C273.136 186.745 273.925 187.07 274.492 187.676L275.223 186.993ZM272.062 185.745C270.756 185.745 269.667 186.122 268.861 186.928L269.568 187.635C270.145 187.059 270.955 186.745 272.062 186.745L272.062 185.745ZM268.864 186.925C268.041 187.735 267.678 188.938 267.678 190.428L268.678 190.428C268.678 189.082 269.006 188.188 269.565 187.638L268.864 186.925ZM267.678 190.428L267.678 194.665L268.678 194.665L268.678 190.428L267.678 190.428ZM268.178 195.165L275.859 195.165L275.859 194.165L268.178 194.165L268.178 195.165ZM284.227 158.537L284.067 158.063L283.727 158.177L283.727 158.537L284.227 158.537ZM284.227 167.783L283.727 167.783L283.727 168.143L284.068 168.257L284.227 167.783ZM289.5 169.541L290 169.541L290 169.18L289.658 169.066L289.5 169.541ZM289.5 175.148L289.326 175.617L290 175.868L290 175.148L289.5 175.148ZM263.906 165.621L263.406 165.621L263.406 165.968L263.732 166.089L263.906 165.621ZM263.906 160.734L263.731 160.266L263.406 160.387L263.406 160.734L263.906 160.734ZM289.5 151.154L290 151.154L290 150.433L289.325 150.686L289.5 151.154ZM289.5 156.761L289.66 157.235L290 157.12L290 156.761L289.5 156.761ZM279.955 166.359L279.797 166.833L280.455 167.052L280.455 166.359L279.955 166.359ZM279.955 159.96L280.455 159.96L280.455 159.265L279.796 159.486L279.955 159.96ZM270.375 163.177L270.216 162.703L268.796 163.18L270.217 163.652L270.375 163.177ZM283.727 158.537L283.727 167.783L284.727 167.783L284.727 158.537L283.727 158.537ZM284.068 168.257L289.342 170.015L289.658 169.066L284.385 167.308L284.068 168.257ZM289 169.541L289 175.148L290 175.148L290 169.541L289 169.541ZM289.674 174.679L264.081 165.152L263.732 166.089L289.326 175.617L289.674 174.679ZM264.406 165.621L264.406 160.734L263.406 160.734L263.406 165.621L264.406 165.621ZM264.082 161.202L289.675 151.622L289.325 150.686L263.731 160.266L264.082 161.202ZM289 151.154L289 156.761L290 156.761L290 151.154L289 151.154ZM289.34 156.287L284.067 158.063L284.386 159.011L289.66 157.235L289.34 156.287ZM280.455 166.359L280.455 159.96L279.455 159.96L279.455 166.359L280.455 166.359ZM279.796 159.486L270.216 162.703L270.534 163.651L280.114 160.434L279.796 159.486ZM270.217 163.652L279.797 166.833L280.113 165.884L270.533 162.703L270.217 163.652ZM289.5 123.991L290 123.991L290 123.491L289.5 123.491L289.5 123.991ZM289.5 129.264L289.76 129.691L290 129.545L290 129.264L289.5 129.264ZM272.66 139.53L272.4 139.103L270.879 140.03L272.66 140.03L272.66 139.53ZM289.5 139.53L290 139.53L290 139.03L289.5 139.03L289.5 139.53ZM289.5 144.803L289.5 145.303L290 145.303L290 144.803L289.5 144.803ZM263.906 144.803L263.406 144.803L263.406 145.303L263.906 145.303L263.906 144.803ZM263.906 139.53L263.646 139.103L263.406 139.249L263.406 139.53L263.906 139.53ZM280.781 129.247L281.041 129.674L282.563 128.747L280.781 128.747L280.781 129.247ZM263.906 129.247L263.406 129.247L263.406 129.747L263.906 129.747L263.906 129.247ZM263.906 123.991L263.906 123.491L263.406 123.491L263.406 123.991L263.906 123.991ZM289 123.991L289 129.264L290 129.264L290 123.991L289 123.991ZM289.24 128.837L272.4 139.103L272.92 139.957L289.76 129.691L289.24 128.837ZM272.66 140.03L289.5 140.03L289.5 139.03L272.66 139.03L272.66 140.03ZM289 139.53L289 144.803L290 144.803L290 139.53L289 139.53ZM289.5 144.303L263.906 144.303L263.906 145.303L289.5 145.303L289.5 144.303ZM264.406 144.803L264.406 139.53L263.406 139.53L263.406 144.803L264.406 144.803ZM264.166 139.957L281.041 129.674L280.521 128.82L263.646 139.103L264.166 139.957ZM280.781 128.747L263.906 128.747L263.906 129.747L280.781 129.747L280.781 128.747ZM264.406 129.247L264.406 123.991L263.406 123.991L263.406 129.247L264.406 129.247ZM263.906 124.491L289.5 124.491L289.5 123.491L263.906 123.491L263.906 124.491ZM286.266 95.1752L286.586 94.7914L286.447 94.6752L286.266 94.6752L286.266 95.1752ZM288.92 99.2006L289.391 99.032L289.39 99.0292L288.92 99.2006ZM288.41 110.802L288.842 111.055L288.844 111.051L288.41 110.802ZM284.191 114.669L284.412 115.118L284.414 115.117L284.191 114.669ZM277.705 116.058L277.705 116.558L277.71 116.558L277.705 116.058ZM269.338 114.775L269.128 115.229L269.129 115.229L269.338 114.775ZM265.049 111.048L265.476 110.788L265.475 110.787L265.049 111.048ZM265.734 98.2162L266.115 98.5399L266.117 98.5384L265.734 98.2162ZM272.045 95.1752L272.545 95.1752L272.545 94.6148L271.988 94.6785L272.045 95.1752ZM272.045 100.308L272.124 100.802L272.545 100.734L272.545 100.308L272.045 100.308ZM268.828 101.872L269.209 102.197L269.211 102.194L268.828 101.872ZM275.842 110.697L275.84 111.197L275.842 111.197L275.842 110.697ZM284.35 100.449L284.703 100.095L284.557 99.9487L284.35 99.9487L284.35 100.449ZM279.937 100.449L279.937 99.9487L279.437 99.9487L279.437 100.449L279.937 100.449ZM279.937 105.247L279.937 105.747L280.437 105.747L280.437 105.247L279.937 105.247ZM276.053 105.247L275.553 105.247L275.553 105.747L276.053 105.747L276.053 105.247ZM276.053 95.1752L276.053 94.6752L275.553 94.6752L275.553 95.1752L276.053 95.1752ZM285.945 95.559C287 96.4395 287.84 97.7002 288.45 99.372L289.39 99.0292C288.734 97.2323 287.805 95.8094 286.586 94.7914L285.945 95.559ZM288.449 99.3692C289.048 101.042 289.352 102.906 289.352 104.966L290.352 104.966C290.352 102.808 290.034 100.828 289.391 99.0321L288.449 99.3692ZM289.352 104.966C289.352 107.107 288.888 108.964 287.976 110.553L288.844 111.051C289.854 109.289 290.352 107.255 290.352 104.966L289.352 104.966ZM287.978 110.55C287.058 112.124 285.728 113.348 283.969 114.222L284.414 115.117C286.335 114.163 287.817 112.808 288.842 111.054L287.978 110.55ZM283.971 114.22C282.211 115.084 280.126 115.535 277.7 115.558L277.71 116.558C280.253 116.534 282.492 116.06 284.412 115.118L283.971 114.22ZM277.705 115.558L275.965 115.558L275.965 116.558L277.705 116.558L277.705 115.558ZM275.965 115.558C273.465 115.558 271.33 115.139 269.547 114.32L269.129 115.229C271.072 116.121 273.355 116.558 275.965 116.558L275.965 115.558ZM269.548 114.321C267.754 113.492 266.404 112.313 265.476 110.788L264.622 111.308C265.662 113.018 267.172 114.324 269.128 115.229L269.548 114.321ZM265.475 110.787C264.534 109.248 264.055 107.436 264.055 105.335L263.055 105.335C263.055 107.594 263.572 109.591 264.622 111.309L265.475 110.787ZM264.055 105.335C264.055 102.377 264.762 100.133 266.115 98.5399L265.353 97.8926C263.8 99.7214 263.055 102.224 263.055 105.335L264.055 105.335ZM266.117 98.5384C267.457 96.9475 269.43 95.9776 272.102 95.672L271.988 94.6785C269.128 95.0057 266.895 96.0631 265.352 97.8941L266.117 98.5384ZM271.545 95.1752L271.545 100.308L272.545 100.308L272.545 95.1752L271.545 95.1752ZM271.966 99.8143C270.43 100.06 269.229 100.619 268.445 101.551L269.211 102.194C269.787 101.509 270.73 101.025 272.124 100.802L271.966 99.8143ZM268.448 101.548C267.668 102.462 267.309 103.693 267.309 105.177L268.309 105.177C268.309 103.849 268.629 102.876 269.209 102.197L268.448 101.548ZM267.309 105.177C267.309 107.116 268.049 108.643 269.545 109.683L270.116 108.862C268.916 108.028 268.309 106.824 268.309 105.177L267.309 105.177ZM269.545 109.683C271.013 110.705 273.135 111.185 275.84 111.197L275.844 110.197C273.228 110.185 271.343 109.716 270.116 108.862L269.545 109.683ZM275.842 111.197L277.477 111.197L277.477 110.197L275.842 110.197L275.842 111.197ZM277.477 111.197C280.21 111.197 282.363 110.68 283.857 109.569L283.26 108.766C282.012 109.694 280.11 110.197 277.477 110.197L277.477 111.197ZM283.857 109.569C285.375 108.44 286.115 106.784 286.115 104.685L285.115 104.685C285.115 106.523 284.484 107.856 283.26 108.766L283.857 109.569ZM286.115 104.685C286.115 102.655 285.686 101.078 284.703 100.095L283.996 100.802C284.7 101.507 285.115 102.754 285.115 104.685L286.115 104.685ZM284.35 99.9487L279.937 99.9487L279.937 100.949L284.35 100.949L284.35 99.9487ZM279.437 100.449L279.437 105.247L280.437 105.247L280.437 100.449L279.437 100.449ZM279.937 104.747L276.053 104.747L276.053 105.747L279.937 105.747L279.937 104.747ZM276.553 105.247L276.553 95.1752L275.553 95.1752L275.553 105.247L276.553 105.247ZM276.053 95.6752L286.266 95.6752L286.266 94.6752L276.053 94.6752L276.053 95.6752ZM278.408 71.5277L278.908 71.5277L278.908 71.0277L278.408 71.0277L278.408 71.5277ZM278.408 81.6527L277.908 81.6527L277.908 82.1527L278.408 82.1527L278.408 81.6527ZM285.264 81.6527L285.264 82.1527L285.764 82.1527L285.764 81.6527L285.264 81.6527ZM285.264 69.7699L285.264 69.2699L284.764 69.2699L284.764 69.7699L285.264 69.7699ZM289.5 69.7699L290 69.7699L290 69.2699L289.5 69.2699L289.5 69.7699ZM289.5 86.9262L289.5 87.4262L290 87.4262L290 86.9262L289.5 86.9262ZM263.906 86.9262L263.406 86.9262L263.406 87.4262L263.906 87.4262L263.906 86.9262ZM263.906 69.8051L263.906 69.3051L263.406 69.3051L263.406 69.8051L263.906 69.8051ZM268.178 69.8051L268.678 69.8051L268.678 69.3051L268.178 69.3051L268.178 69.8051ZM268.178 81.6527L267.678 81.6527L267.678 82.1527L268.178 82.1527L268.178 81.6527ZM274.277 81.6527L274.277 82.1527L274.777 82.1527L274.777 81.6527L274.277 81.6527ZM274.277 71.5277L274.277 71.0277L273.777 71.0277L273.777 71.5277L274.277 71.5277ZM277.908 71.5277L277.908 81.6527L278.908 81.6527L278.908 71.5277L277.908 71.5277ZM278.408 82.1527L285.264 82.1527L285.264 81.1527L278.408 81.1527L278.408 82.1527ZM285.764 81.6527L285.764 69.7699L284.764 69.7699L284.764 81.6527L285.764 81.6527ZM285.264 70.2699L289.5 70.2699L289.5 69.2699L285.264 69.2699L285.264 70.2699ZM289 69.7699L289 86.9262L290 86.9262L290 69.7699L289 69.7699ZM289.5 86.4262L263.906 86.4262L263.906 87.4262L289.5 87.4262L289.5 86.4262ZM264.406 86.9262L264.406 69.8051L263.406 69.8051L263.406 86.9262L264.406 86.9262ZM263.906 70.3051L268.178 70.3051L268.178 69.3051L263.906 69.3051L263.906 70.3051ZM267.678 69.8051L267.678 81.6527L268.678 81.6527L268.678 69.8051L267.678 69.8051ZM268.178 82.1527L274.277 82.1527L274.277 81.1527L268.178 81.1527L268.178 82.1527ZM274.777 81.6527L274.777 71.5277L273.777 71.5277L273.777 81.6527L274.777 81.6527ZM274.277 72.0277L278.408 72.0277L278.408 71.0277L274.277 71.0277L274.277 72.0277Z" fill="#D88100"/>
</g>
<path d="M60.3125 265.742C60.1302 269.701 59.0625 273.203 57.1094 276.25C55.1562 279.271 52.4089 281.615 48.8672 283.281C45.3516 284.948 41.3281 285.781 36.7969 285.781C29.3229 285.781 23.4375 283.346 19.1406 278.477C14.8438 273.607 12.6953 266.732 12.6953 257.852V255.039C12.6953 249.466 13.6589 244.596 15.5859 240.43C17.5391 236.237 20.3385 233.008 23.9844 230.742C27.6302 228.451 31.849 227.305 36.6406 227.305C43.5417 227.305 49.0885 229.128 53.2812 232.773C57.474 236.393 59.8568 241.393 60.4297 247.773H46.7578C46.6536 244.31 45.7812 241.823 44.1406 240.312C42.5 238.802 40 238.047 36.6406 238.047C33.2292 238.047 30.7292 239.323 29.1406 241.875C27.5521 244.427 26.7188 248.503 26.6406 254.102V258.125C26.6406 264.193 27.3958 268.529 28.9062 271.133C30.4427 273.737 33.0729 275.039 36.7969 275.039C39.9479 275.039 42.3568 274.297 44.0234 272.812C45.6901 271.328 46.5755 268.971 46.6797 265.742H60.3125ZM80.0344 279.727H70.7883L69.0305 285H63.423L72.9504 259.406H77.8371L87.4172 285H81.8098L80.0344 279.727ZM72.2121 275.455H78.6105L75.3937 265.875L72.2121 275.455ZM103.242 275.631H99.0413V285H93.7678V259.406H103.278C106.301 259.406 108.633 260.08 110.274 261.428C111.914 262.775 112.735 264.68 112.735 267.141C112.735 268.887 112.354 270.346 111.592 271.518C110.842 272.678 109.699 273.604 108.164 274.295L113.701 284.754V285H108.041L103.242 275.631ZM99.0413 271.359H103.295C104.619 271.359 105.645 271.025 106.371 270.357C107.098 269.678 107.461 268.746 107.461 267.562C107.461 266.355 107.115 265.406 106.424 264.715C105.744 264.023 104.696 263.678 103.278 263.678H99.0413V271.359ZM130.195 275.631H125.993V285H120.72V259.406H130.23C133.253 259.406 135.585 260.08 137.226 261.428C138.866 262.775 139.687 264.68 139.687 267.141C139.687 268.887 139.306 270.346 138.544 271.518C137.794 272.678 136.652 273.604 135.116 274.295L140.654 284.754V285H134.993L130.195 275.631ZM125.993 271.359H130.247C131.572 271.359 132.597 271.025 133.324 270.357C134.05 269.678 134.413 268.746 134.413 267.562C134.413 266.355 134.068 265.406 133.376 264.715C132.697 264.023 131.648 263.678 130.23 263.678H125.993V271.359ZM168.696 272.783C168.696 275.303 168.25 277.512 167.36 279.41C166.469 281.309 165.192 282.773 163.528 283.805C161.875 284.836 159.977 285.352 157.832 285.352C155.711 285.352 153.819 284.842 152.155 283.822C150.491 282.803 149.201 281.35 148.287 279.463C147.373 277.564 146.91 275.385 146.899 272.924V271.658C146.899 269.139 147.35 266.924 148.252 265.014C149.166 263.092 150.45 261.621 152.102 260.602C153.766 259.57 155.664 259.055 157.797 259.055C159.93 259.055 161.823 259.57 163.475 260.602C165.139 261.621 166.422 263.092 167.325 265.014C168.239 266.924 168.696 269.133 168.696 271.641V272.783ZM163.352 271.623C163.352 268.939 162.871 266.9 161.91 265.506C160.95 264.111 159.578 263.414 157.797 263.414C156.028 263.414 154.662 264.105 153.701 265.488C152.741 266.859 152.254 268.875 152.242 271.535V272.783C152.242 275.396 152.723 277.424 153.684 278.865C154.645 280.307 156.028 281.027 157.832 281.027C159.602 281.027 160.961 280.336 161.91 278.953C162.86 277.559 163.34 275.531 163.352 272.871V271.623ZM194.242 263.678H186.402V285H181.128V263.678H173.394V259.406H194.242V263.678Z" fill="black"/>
<path d="M105.627 26.7881V32H104.546V19.2031H108.906C110.236 19.2031 111.285 19.543 112.052 20.2227C112.826 20.9023 113.212 21.8369 113.212 23.0264C113.212 24.2275 112.84 25.1562 112.096 25.8125C111.358 26.4629 110.286 26.7881 108.879 26.7881H105.627ZM105.627 25.874H108.906C109.955 25.874 110.754 25.625 111.305 25.127C111.856 24.6289 112.131 23.9346 112.131 23.0439C112.131 22.1592 111.856 21.4561 111.305 20.9346C110.76 20.4072 109.984 20.1377 108.976 20.126H105.627V25.874ZM122.399 26.6738H118.682V32H117.592V19.2031H121.749C123.114 19.2031 124.181 19.5342 124.948 20.1963C125.716 20.8584 126.1 21.7842 126.1 22.9736C126.1 23.7939 125.859 24.5176 125.379 25.1445C124.898 25.7715 124.254 26.2051 123.445 26.4453L126.644 31.8857V32H125.493L122.399 26.6738ZM118.682 25.751H121.995C122.903 25.751 123.633 25.4932 124.184 24.9775C124.734 24.4619 125.01 23.7939 125.01 22.9736C125.01 22.0713 124.723 21.3711 124.148 20.873C123.574 20.375 122.769 20.126 121.731 20.126H118.682V25.751ZM140.481 26.2959C140.481 27.4736 140.276 28.5078 139.866 29.3984C139.461 30.2891 138.881 30.9746 138.125 31.4551C137.37 31.9355 136.497 32.1758 135.506 32.1758C134.012 32.1758 132.805 31.6426 131.885 30.5762C130.965 29.5039 130.505 28.0596 130.505 26.2432V24.9248C130.505 23.7588 130.71 22.7275 131.121 21.8311C131.537 20.9287 132.123 20.2373 132.878 19.7568C133.634 19.2705 134.504 19.0273 135.489 19.0273C136.473 19.0273 137.34 19.2646 138.09 19.7393C138.846 20.2139 139.429 20.8848 139.839 21.752C140.249 22.6191 140.463 23.624 140.481 24.7666V26.2959ZM139.4 24.9072C139.4 23.3662 139.051 22.1592 138.354 21.2861C137.657 20.4131 136.702 19.9766 135.489 19.9766C134.299 19.9766 133.35 20.416 132.641 21.2949C131.938 22.168 131.586 23.3896 131.586 24.96V26.2959C131.586 27.8135 131.938 29.0176 132.641 29.9082C133.344 30.793 134.299 31.2354 135.506 31.2354C136.731 31.2354 137.686 30.7988 138.372 29.9258C139.057 29.0469 139.4 27.8252 139.4 26.2607V24.9072ZM145.186 32V19.2031H148.763C149.812 19.2031 150.752 19.4434 151.584 19.9238C152.416 20.3984 153.063 21.0811 153.526 21.9717C153.995 22.8623 154.229 23.876 154.229 25.0127V26.1904C154.229 27.333 153.998 28.3467 153.535 29.2314C153.072 30.1162 152.419 30.7988 151.575 31.2793C150.737 31.7598 149.773 32 148.684 32H145.186ZM146.267 20.126V31.0859H148.692C150.04 31.0859 151.121 30.6406 151.936 29.75C152.75 28.8535 153.157 27.6436 153.157 26.1201V24.9951C153.157 23.5244 152.756 22.3467 151.953 21.4619C151.15 20.5771 150.093 20.1318 148.78 20.126H146.267ZM167.776 19.2031V27.9395C167.77 28.8008 167.58 29.5508 167.205 30.1895C166.83 30.8281 166.299 31.3203 165.614 31.666C164.934 32.0059 164.152 32.1758 163.267 32.1758C161.919 32.1758 160.838 31.8096 160.024 31.0771C159.215 30.3389 158.796 29.3193 158.767 28.0186V19.2031H159.839V27.8604C159.839 28.9385 160.147 29.7764 160.762 30.374C161.377 30.9658 162.212 31.2617 163.267 31.2617C164.322 31.2617 165.154 30.9629 165.763 30.3652C166.378 29.7676 166.686 28.9355 166.686 27.8691V19.2031H167.776ZM181.832 28.0098C181.686 29.3574 181.202 30.3887 180.382 31.1035C179.567 31.8184 178.48 32.1758 177.121 32.1758C176.172 32.1758 175.331 31.9385 174.599 31.4639C173.872 30.9893 173.31 30.3184 172.911 29.4512C172.513 28.5781 172.311 27.582 172.305 26.4629V24.8018C172.305 23.665 172.504 22.6572 172.902 21.7783C173.301 20.8994 173.872 20.2227 174.616 19.748C175.366 19.2676 176.228 19.0273 177.2 19.0273C178.571 19.0273 179.652 19.3994 180.443 20.1436C181.24 20.8818 181.703 21.9043 181.832 23.2109H180.742C180.473 21.0371 179.292 19.9502 177.2 19.9502C176.04 19.9502 175.114 20.3838 174.423 21.251C173.737 22.1182 173.395 23.3164 173.395 24.8457V26.4102C173.395 27.8867 173.729 29.0645 174.397 29.9434C175.07 30.8223 175.979 31.2617 177.121 31.2617C178.252 31.2617 179.105 30.9922 179.679 30.4531C180.253 29.9082 180.607 29.0938 180.742 28.0098H181.832ZM193.506 25.8652H187.521V31.0859H194.403V32H186.44V19.2031H194.359V20.126H187.521V24.9512H193.506V25.8652Z" fill="black"/>
<g clip-path="url(#clip1)">
<path fill-rule="evenodd" clip-rule="evenodd" d="M233.987 128.428C232.616 128.574 231.243 128.72 229.87 128.864C228.192 127.419 226.512 125.975 224.833 124.528C225.668 124.636 226.505 124.743 227.339 124.851C228.422 125.686 229.503 126.521 230.586 127.357C231.383 127.973 232.444 126.81 231.637 126.189C231.232 125.876 230.825 125.563 230.419 125.248C231.059 125.33 231.7 125.413 232.339 125.496C233.334 125.625 233.664 124.078 232.659 123.948C231.146 123.753 229.633 123.558 228.122 123.363C228.51 122.925 228.899 122.488 229.289 122.048C229.958 121.293 228.796 120.222 228.124 120.981C227.527 121.653 226.929 122.326 226.331 122.999C226.298 123.037 226.27 123.076 226.244 123.121C225.066 122.968 223.886 122.816 222.708 122.664C222.693 122.663 222.678 122.663 222.666 122.661C221.513 121.671 220.362 120.68 219.209 119.687C220.986 119.768 222.76 119.849 224.536 119.926C225.547 119.972 225.46 118.391 224.457 118.345C223.554 118.305 222.654 118.264 221.754 118.224L223.747 116.299C224.476 115.596 223.308 114.53 222.584 115.23C221.59 116.189 220.594 117.148 219.601 118.108C219.594 118.113 219.589 118.119 219.583 118.126C218.82 118.092 218.055 118.059 217.291 118.023C217.265 118.024 217.241 118.028 217.216 118.03C216.29 117.254 215.374 116.324 215.337 115.246C218.111 114.759 220.896 114.34 223.69 113.993C224.265 113.919 224.84 113.855 225.414 113.791C226.777 114.915 228.142 116.039 229.506 117.164C229.504 117.242 229.509 117.317 229.531 117.388C229.946 118.842 230.361 120.293 230.777 121.746C231.058 122.729 232.554 122.255 232.273 121.276C232.044 120.478 231.815 119.679 231.587 118.881C232.727 119.82 233.869 120.761 235.01 121.702C235.791 122.347 236.848 121.183 236.061 120.534C235.092 119.735 234.123 118.935 233.152 118.135C234.263 118.209 235.376 118.285 236.488 118.359C237.495 118.426 237.407 116.844 236.408 116.777C234.629 116.658 232.851 116.538 231.072 116.42C229.915 115.466 228.757 114.512 227.6 113.557C229.511 113.366 231.423 113.202 233.34 113.076C236.159 115.334 238.978 117.592 241.797 119.849C242.587 120.481 243.645 119.319 242.85 118.682C242.117 118.094 241.384 117.508 240.652 116.92C241.995 117.016 243.336 117.111 244.68 117.206C245.688 117.278 245.6 115.696 244.601 115.625C242.563 115.48 240.528 115.336 238.491 115.192C237.554 114.442 236.615 113.691 235.678 112.939C238.305 112.801 240.936 112.721 243.571 112.703C244.583 112.696 244.499 111.115 243.49 111.121C241.058 111.138 238.623 111.212 236.194 111.331C236.768 110.824 237.341 110.316 237.916 109.807C239.343 109.442 240.771 109.08 242.199 108.717C243.18 108.466 242.699 106.957 241.723 107.203C241.317 107.307 240.908 107.41 240.501 107.515C240.829 107.223 241.158 106.933 241.486 106.642C242.24 105.973 241.07 104.91 240.322 105.573L238.623 107.078C238.801 106.463 238.98 105.847 239.159 105.231C239.44 104.256 237.903 103.925 237.619 104.9L236.429 109.005C236.428 109.013 236.428 109.019 236.427 109.025C235.504 109.843 234.582 110.66 233.66 111.476C231.605 111.61 229.555 111.782 227.506 111.987C228.633 110.815 229.757 109.643 230.882 108.472C231.582 107.742 230.417 106.674 229.717 107.403C228.166 109.018 226.616 110.634 225.063 112.249C222.079 112.593 219.103 113.013 216.14 113.513C216.997 112.592 218.33 111.839 219.073 111.277L219.783 110.74C220.167 110.818 220.587 110.798 220.98 110.795C222.348 110.781 223.715 110.737 225.084 110.71C226.096 110.687 226.014 109.106 225.004 109.127C224.063 109.147 223.123 109.167 222.182 109.186C222.062 109.19 221.942 109.195 221.822 109.201C222.498 108.689 223.176 108.177 223.854 107.664C224.081 107.494 224.306 107.322 224.534 107.151C224.557 107.148 224.58 107.146 224.602 107.142C228.147 106.438 231.691 105.733 235.235 105.03C236.226 104.833 235.74 103.322 234.761 103.518C232.31 104.004 229.862 104.491 227.412 104.976C229.553 103.359 231.693 101.742 233.834 100.125C234.636 99.5197 233.796 98.1755 232.99 98.7857L225.721 104.276C226.024 103.103 226.329 101.928 226.631 100.755C227.919 99.7338 229.21 98.7131 230.499 97.6932C231.285 97.0718 230.447 95.7262 229.656 96.352L227.283 98.2294C227.415 97.7206 227.547 97.2118 227.677 96.7037C227.932 95.7186 226.395 95.3854 226.141 96.3705C225.941 97.1413 225.742 97.9113 225.544 98.6814C225.118 98.0042 224.694 97.3263 224.27 96.6468C223.729 95.7823 222.405 96.6243 222.946 97.4888C223.632 98.5849 224.315 99.6803 225.003 100.776C224.57 102.45 224.138 104.125 223.705 105.8L221.764 107.266C221.217 107.68 220.67 108.089 220.121 108.499C220.12 108.494 220.119 108.487 220.118 108.482C219.906 106.658 220.137 104.664 220.146 102.827C220.151 101.806 218.581 101.881 218.579 102.896C218.572 104.269 218.564 105.639 218.56 107.009C218.557 107.742 218.356 108.839 218.59 109.65C217.87 110.191 217.152 110.735 216.439 111.287C216.385 110.2 216.33 109.115 216.275 108.03C216.225 107.01 214.656 107.079 214.709 108.099L214.909 112.084C214.917 112.245 214.964 112.375 215.036 112.481C214.627 112.897 214.273 113.355 214.047 113.881C207.159 115.129 200.35 116.796 193.667 118.872C194.814 117.589 195.96 116.306 197.108 115.023C201.555 114.598 206.002 114.174 210.449 113.751C211.452 113.655 211.376 112.073 210.37 112.17C209.221 112.279 208.074 112.387 206.926 112.498C207.51 112.067 208.094 111.637 208.678 111.206C209.488 110.609 208.647 109.265 207.835 109.865C206.606 110.772 205.376 111.677 204.148 112.581C204.068 112.64 204.009 112.709 203.958 112.78C202.193 112.948 200.428 113.116 198.662 113.285C199.524 112.32 200.386 111.358 201.248 110.393C201.256 110.389 201.264 110.391 201.27 110.388C203.813 109.522 206.358 108.652 208.9 107.785C209.617 109.391 211.447 109.563 212.978 109.513C213.988 109.476 213.909 107.895 212.899 107.93C212.251 107.953 210.777 108.009 210.365 107.284C211.323 106.957 212.284 106.629 213.244 106.301C214.2 105.975 213.726 104.463 212.77 104.788L211.052 105.376C211.405 104.818 211.757 104.261 212.11 103.703C212.651 102.849 211.244 102.133 210.706 102.985C210.139 103.881 209.156 104.987 208.823 106.135C207.014 106.754 205.207 107.37 203.398 107.989L208.192 102.626C208.866 101.872 207.702 100.802 207.027 101.558C205.54 103.219 204.055 104.88 202.573 106.541C202.984 104.796 203.394 103.05 203.806 101.306C204.04 100.316 202.503 99.9812 202.27 100.973C201.638 103.648 201.007 106.321 200.377 108.995C199.32 110.178 198.262 111.36 197.207 112.542C197.156 112.217 197.107 111.893 197.059 111.567C197.24 111.495 197.4 111.358 197.508 111.185L199.566 107.85C200.098 106.99 198.694 106.272 198.164 107.13C197.689 107.899 197.213 108.669 196.738 109.437C196.599 108.518 196.461 107.597 196.323 106.675C196.172 105.675 194.601 105.737 194.754 106.748L195.087 108.962C194.474 108.618 193.859 108.275 193.245 107.929C192.359 107.436 191.654 108.845 192.54 109.34C193.489 109.872 194.437 110.402 195.385 110.932C195.542 111.973 195.698 113.012 195.854 114.052C195.133 114.86 194.411 115.668 193.69 116.474C193.251 115.245 192.813 114.017 192.375 112.788C192.033 111.826 190.536 112.295 190.878 113.256C191.395 114.705 191.912 116.154 192.429 117.603C192.453 117.671 192.485 117.73 192.519 117.784L190.691 119.827C186.415 121.242 182.194 122.823 178.04 124.57C178.789 123.619 179.54 122.667 180.291 121.715C181.384 121.677 182.738 120.383 183.54 119.872C185.062 118.899 186.587 117.925 188.109 116.951C188.961 116.408 188.117 115.065 187.266 115.61L182.908 118.396C183.754 117.321 184.601 116.247 185.448 115.173C186.071 114.382 184.912 113.306 184.282 114.103C183.056 115.659 181.83 117.215 180.602 118.772C180.616 118.434 180.605 118.086 180.625 117.772L180.837 114.149C180.897 113.133 179.331 113.212 179.271 114.219C179.175 115.829 179.081 117.44 178.986 119.05C178.955 119.56 178.894 120.22 179.037 120.759C177.839 122.277 176.642 123.795 175.446 125.314C175.343 125.445 175.282 125.606 175.264 125.767C174.969 125.898 174.672 126.026 174.378 126.158C171.93 127.256 169.509 128.416 167.114 129.627C167.57 128.517 168.027 127.407 168.484 126.297C170.97 124.672 173.174 122.691 175.051 120.37C175.685 119.586 174.525 118.512 173.886 119.3C172.611 120.879 171.188 122.286 169.623 123.526C170.171 122.194 170.719 120.862 171.268 119.529C171.65 118.598 170.251 117.868 169.863 118.81C169.085 120.703 168.305 122.598 167.527 124.491C166.64 122.929 165.755 121.366 164.869 119.803C164.365 118.914 163.043 119.761 163.545 120.645C164.619 122.542 165.694 124.438 166.768 126.333C166.49 127.012 166.212 127.691 165.93 128.37L164.321 126.038C163.744 125.2 162.419 126.041 162.997 126.88C163.713 127.917 164.428 128.954 165.144 129.991C165.168 130.027 165.197 130.057 165.226 130.087C165.136 130.305 165.048 130.521 164.957 130.737C162.11 132.23 159.299 133.801 156.538 135.451C155.669 135.973 156.516 137.312 157.382 136.794C159.944 135.262 162.55 133.803 165.189 132.41C165.274 132.44 165.363 132.461 165.462 132.465C167.247 132.52 169.006 132.758 170.725 133.168C171.912 134.64 173.1 136.112 174.285 137.583C174.919 138.367 176.25 137.532 175.61 136.74C174.857 135.807 174.105 134.874 173.352 133.943C174.372 134.302 175.373 134.72 176.351 135.206C177.259 135.655 177.97 134.245 177.057 133.794C176.348 133.444 175.628 133.126 174.899 132.838L177.347 132.369C178.338 132.177 177.853 130.668 176.871 130.855C175.186 131.18 173.501 131.503 171.815 131.828C170.5 131.478 169.162 131.218 167.803 131.061C170.674 129.611 173.58 128.237 176.526 126.951L180.472 128.8C180.412 129.584 180.783 130.439 180.982 131.147C181.383 132.562 181.784 133.979 182.183 135.395C182.462 136.378 183.956 135.905 183.679 134.926C183.444 134.094 183.208 133.26 182.973 132.427C182.74 131.605 182.217 130.526 182.197 129.68C182.196 129.654 182.2 129.633 182.199 129.611L185.346 131.084C185.361 131.125 185.376 131.169 185.401 131.211C186.53 133.206 187.662 135.202 188.792 137.198C189.296 138.088 190.618 137.241 190.115 136.355C189.336 134.978 188.554 133.601 187.774 132.223L192.096 134.247C193.011 134.675 193.723 133.268 192.801 132.837L188.595 130.866L192.523 129.701C193.494 129.414 193.016 127.903 192.048 128.19C190.176 128.744 188.306 129.299 186.433 129.853C185.323 129.333 184.216 128.813 183.106 128.293C183.477 128.102 183.91 127.967 184.306 127.806L186.901 126.763C187.833 126.388 187.362 124.877 186.426 125.252C185.168 125.757 183.909 126.257 182.653 126.769C182.191 126.956 181.682 127.142 181.27 127.433C180.335 126.995 179.399 126.558 178.465 126.119C182.301 124.5 186.196 123.019 190.141 121.683C190.232 121.763 190.344 121.823 190.473 121.851C191.403 122.056 192.325 122.289 193.236 122.55C193.627 124.179 194.016 125.81 194.408 127.439C194.646 128.434 196.14 127.957 195.904 126.97L194.973 123.081C195.885 123.381 196.787 123.707 197.679 124.06C197.666 124.629 197.786 125.282 197.803 125.706C197.849 126.861 197.898 128.017 197.944 129.172C197.987 130.191 199.553 130.121 199.511 129.102L199.336 124.749C199.817 124.961 200.298 125.178 200.774 125.407C201.688 127.928 203.027 130.196 204.775 132.237C205.439 133.008 206.484 131.833 205.828 131.068C204.636 129.677 203.667 128.148 202.911 126.5C205.067 127.676 207.14 129.017 209.102 130.527C209.903 131.141 210.96 129.979 210.154 129.358C208.245 127.889 206.242 126.57 204.158 125.402C205.389 125.371 206.622 125.341 207.852 125.311L212.42 128.444C213.253 129.017 213.952 127.602 213.124 127.033L210.515 125.242C211.257 125.222 211.999 125.203 212.742 125.185C213.753 125.159 213.672 123.578 212.663 123.604C211.742 123.627 210.821 123.65 209.9 123.675L211.218 122.155C211.88 121.392 210.715 120.32 210.052 121.086C209.289 121.967 208.525 122.847 207.761 123.728C205.608 123.782 203.457 123.837 201.304 123.892C201.283 123.892 201.267 123.898 201.25 123.9C200.932 123.75 200.611 123.602 200.291 123.458C201.477 122.673 202.665 121.89 203.85 121.107C204.692 120.55 203.849 119.209 203.005 119.765L200.136 121.662C199.678 121.964 198.97 122.284 198.44 122.671C196.611 121.937 194.738 121.31 192.828 120.801C197.213 119.398 201.654 118.174 206.14 117.127C206.184 117.2 206.239 117.271 206.316 117.335C208.305 119 210.54 120.185 213.02 120.902C213.993 121.183 214.311 119.634 213.342 119.354C211.404 118.794 209.635 117.908 208.035 116.698C209.948 116.275 211.869 115.881 213.796 115.526C213.921 116.691 214.66 117.685 215.481 118.51C215.85 118.878 216.23 119.234 216.619 119.585C216.865 122.143 217.113 124.701 217.36 127.259C217.458 128.273 219.026 128.207 218.928 127.189C218.876 126.674 218.828 126.159 218.779 125.645C219.599 126.378 220.422 127.111 221.244 127.843C222.003 128.52 223.056 127.353 222.295 126.675C221.05 125.564 219.803 124.452 218.556 123.34C218.482 122.58 218.409 121.821 218.337 121.062C219.082 121.684 219.833 122.297 220.559 122.924L222.152 124.294C222.93 125.564 223.708 126.836 224.488 128.106C224.479 128.128 224.47 128.147 224.464 128.171C224.057 129.817 223.651 131.465 223.245 133.112C223.001 134.101 224.538 134.435 224.782 133.447C225.065 132.292 225.352 131.135 225.636 129.982C226.372 131.181 227.107 132.381 227.841 133.58C228.376 134.452 229.698 133.607 229.165 132.739C228.126 131.041 227.085 129.343 226.046 127.645L231.085 131.984C231.855 132.647 232.912 131.482 232.139 130.817C231.93 130.638 231.724 130.459 231.515 130.28C232.366 130.19 233.215 130.101 234.068 130.01C235.067 129.903 234.994 128.321 233.987 128.428Z" fill="#1D3520"/>
<path fill-rule="evenodd" clip-rule="evenodd" d="M228.713 160.167C227.483 159.816 226.255 159.461 225.025 159.109C224.111 157.301 223.196 155.496 222.283 153.69C222.961 154.071 223.638 154.452 224.313 154.834C224.938 155.916 225.563 156.998 226.188 158.081C226.647 158.88 227.978 158.263 227.513 157.459C227.278 157.052 227.044 156.646 226.811 156.24C227.329 156.531 227.847 156.824 228.367 157.116C229.173 157.571 230.02 156.378 229.204 155.918C227.98 155.228 226.753 154.537 225.527 153.848C226.02 153.613 226.511 153.377 227.007 153.14C227.856 152.735 227.247 151.425 226.397 151.832C225.639 152.195 224.88 152.556 224.124 152.919C224.084 152.938 224.043 152.962 224.005 152.991C223.051 152.452 222.095 151.914 221.139 151.376C221.127 151.369 221.115 151.365 221.103 151.36C220.476 150.12 219.85 148.882 219.223 147.645C220.716 148.327 222.209 149.012 223.702 149.697C224.553 150.086 225.052 148.717 224.21 148.331C223.452 147.984 222.694 147.636 221.936 147.288L224.348 146.354C225.227 146.012 224.614 144.705 223.737 145.044C222.535 145.512 221.334 145.977 220.133 146.442C220.125 146.446 220.12 146.45 220.111 146.452C219.469 146.159 218.827 145.864 218.184 145.569C218.161 145.561 218.14 145.556 218.117 145.551C217.605 144.57 217.159 143.467 217.519 142.541C220.073 143.093 222.615 143.705 225.136 144.382C225.657 144.522 226.172 144.667 226.689 144.811C227.448 146.235 228.21 147.659 228.969 149.083C228.938 149.15 228.916 149.216 228.909 149.284C228.736 150.656 228.564 152.03 228.392 153.401C228.276 154.331 229.729 154.45 229.846 153.523C229.941 152.769 230.035 152.014 230.13 151.259C230.765 152.451 231.401 153.643 232.037 154.834C232.473 155.651 233.802 155.033 233.363 154.212C232.823 153.2 232.283 152.187 231.743 151.172C232.668 151.623 233.595 152.07 234.521 152.52C235.361 152.927 235.859 151.559 235.03 151.154C233.545 150.436 232.065 149.717 230.582 149C229.937 147.791 229.293 146.582 228.649 145.373C230.355 145.874 232.054 146.401 233.742 146.959C235.339 149.848 236.935 152.736 238.53 155.626C238.978 156.434 240.308 155.817 239.859 155.003C239.444 154.251 239.028 153.503 238.614 152.751C239.73 153.298 240.848 153.845 241.964 154.391C242.803 154.802 243.302 153.433 242.473 153.025C240.778 152.197 239.084 151.368 237.392 150.537C236.862 149.577 236.329 148.616 235.798 147.654C238.101 148.452 240.386 149.298 242.651 150.196C243.522 150.543 244.027 149.176 243.158 148.831C241.065 147.999 238.953 147.216 236.826 146.474C237.503 146.244 238.18 146.013 238.857 145.783C240.214 145.971 241.57 146.16 242.927 146.349C243.858 146.478 243.997 145.033 243.07 144.904C242.682 144.85 242.295 144.796 241.907 144.743C242.295 144.611 242.682 144.479 243.07 144.347C243.96 144.043 243.343 142.738 242.46 143.039L240.455 143.722C240.832 143.263 241.209 142.804 241.586 142.346C242.183 141.618 240.985 140.806 240.389 141.529L237.875 144.589C237.87 144.595 237.869 144.6 237.864 144.606C236.775 144.976 235.689 145.346 234.6 145.718C232.789 145.116 230.969 144.549 229.137 144.012C230.529 143.411 231.922 142.811 233.312 142.211C234.179 141.836 233.568 140.529 232.702 140.902C230.784 141.73 228.866 142.558 226.948 143.386C224.264 142.64 221.559 141.96 218.838 141.355C219.908 140.875 221.327 140.699 222.166 140.481L222.97 140.274C223.272 140.474 223.637 140.603 223.977 140.737C225.154 141.2 226.344 141.638 227.525 142.091C228.401 142.424 228.907 141.057 228.034 140.725C227.22 140.415 226.406 140.105 225.592 139.795C225.489 139.755 225.384 139.716 225.277 139.68C226.045 139.483 226.812 139.286 227.579 139.087C227.836 139.02 228.093 138.955 228.35 138.889C228.371 138.894 228.39 138.902 228.412 138.904C231.706 139.541 235.002 140.176 238.296 140.812C239.217 140.989 239.35 139.543 238.439 139.367C236.162 138.928 233.886 138.488 231.608 138.05C234.032 137.426 236.455 136.801 238.878 136.178C239.787 135.944 239.557 134.515 238.644 134.75L230.413 136.871C231.099 135.982 231.788 135.095 232.474 134.207C233.951 133.792 235.429 133.377 236.904 132.963C237.804 132.709 237.577 131.278 236.669 131.534L233.952 132.299C234.251 131.914 234.549 131.529 234.846 131.145C235.422 130.4 234.226 129.585 233.649 130.329C233.198 130.911 232.748 131.493 232.297 132.076C232.179 131.356 232.061 130.634 231.945 129.913C231.795 128.994 230.354 129.247 230.502 130.166C230.693 131.33 230.881 132.496 231.072 133.66C230.091 134.925 229.111 136.191 228.131 137.458L225.933 138.024C225.314 138.185 224.694 138.34 224.076 138.498C224.078 138.492 224.08 138.487 224.081 138.481C224.561 136.865 225.486 135.257 226.161 133.707C226.536 132.845 225.164 132.365 224.791 133.222C224.287 134.38 223.782 135.537 223.278 136.694C223.01 137.313 222.439 138.17 222.344 138.938C221.528 139.146 220.716 139.357 219.904 139.575C220.253 138.638 220.601 137.701 220.949 136.762C221.276 135.884 219.907 135.397 219.579 136.28L218.301 139.719C218.249 139.858 218.244 139.985 218.268 140.1C217.765 140.308 217.294 140.573 216.909 140.938C210.548 139.601 204.104 138.647 197.619 138.081C199.071 137.395 200.52 136.707 201.97 136.021C205.938 137.206 209.905 138.394 213.872 139.579C214.767 139.847 215.277 138.482 214.378 138.214C213.355 137.908 212.332 137.602 211.307 137.296C211.964 137.134 212.62 136.973 213.279 136.812C214.19 136.589 213.959 135.16 213.043 135.386C211.66 135.723 210.277 136.062 208.895 136.401C208.806 136.424 208.729 136.46 208.661 136.504C207.086 136.033 205.508 135.563 203.934 135.09C205.025 134.575 206.115 134.06 207.204 133.543C207.212 133.545 207.219 133.547 207.226 133.547C209.722 133.697 212.218 133.846 214.714 133.995C214.744 135.602 216.25 136.384 217.582 136.872C218.461 137.194 218.968 135.828 218.09 135.506C217.528 135.301 216.24 134.837 216.152 134.08C217.095 134.137 218.035 134.193 218.979 134.249C219.917 134.306 220.06 132.861 219.122 132.806L217.435 132.705C217.942 132.356 218.445 132.007 218.951 131.658C219.726 131.122 218.78 130.029 218.009 130.563C217.197 131.124 215.953 131.719 215.247 132.575C213.471 132.468 211.697 132.362 209.923 132.256L215.983 129.387C216.836 128.982 216.228 127.673 215.373 128.078C213.494 128.967 211.618 129.856 209.74 130.745C210.727 129.412 211.717 128.078 212.704 126.747C213.266 125.99 212.069 125.174 211.508 125.93C209.994 127.972 208.48 130.016 206.965 132.058C205.629 132.691 204.293 133.323 202.957 133.958C203.032 133.664 203.109 133.373 203.185 133.081C203.367 133.083 203.555 133.022 203.709 132.913L206.687 130.809C207.457 130.266 206.514 129.171 205.747 129.712C205.058 130.199 204.372 130.684 203.686 131.169C203.901 130.343 204.117 129.515 204.334 128.688C204.568 127.79 203.2 127.297 202.963 128.204L202.443 130.193C202.043 129.689 201.64 129.184 201.238 128.681C200.659 127.955 199.541 128.901 200.121 129.628C200.741 130.406 201.36 131.185 201.98 131.964C201.737 132.898 201.492 133.833 201.247 134.765C200.335 135.197 199.425 135.628 198.512 136.062C198.584 134.869 198.655 133.678 198.726 132.486C198.782 131.555 197.327 131.431 197.273 132.363C197.187 133.77 197.103 135.175 197.02 136.578C197.015 136.644 197.021 136.706 197.031 136.763L194.719 137.856C190.539 137.567 186.343 137.438 182.147 137.473C183.136 136.929 184.126 136.385 185.115 135.841C186.068 136.189 187.699 135.565 188.572 135.409C190.233 135.115 191.892 134.821 193.553 134.526C194.481 134.363 194.246 132.934 193.317 133.099L188.567 133.941C189.684 133.328 190.801 132.713 191.917 132.098C192.74 131.645 192.137 130.335 191.307 130.789C189.689 131.68 188.071 132.57 186.454 133.46C186.588 133.177 186.705 132.88 186.836 132.62L188.337 129.631C188.759 128.792 187.387 128.314 186.968 129.146C186.3 130.474 185.633 131.803 184.967 133.132C184.755 133.554 184.46 134.091 184.389 134.596C182.811 135.464 181.231 136.332 179.652 137.201C179.514 137.276 179.404 137.391 179.33 137.522C179.03 137.529 178.73 137.535 178.43 137.546C175.93 137.623 173.433 137.762 170.939 137.956C171.734 137.176 172.528 136.395 173.325 135.615C176.049 135.104 178.659 134.195 181.114 132.884C181.941 132.44 181.337 131.128 180.503 131.573C178.835 132.465 177.105 133.16 175.312 133.666C176.265 132.731 177.219 131.794 178.173 130.859C178.841 130.202 177.907 129.099 177.233 129.762C175.876 131.093 174.519 132.425 173.162 133.755C172.971 132.126 172.779 130.496 172.589 128.866C172.48 127.938 171.039 128.196 171.148 129.118C171.378 131.097 171.61 133.072 171.841 135.05C171.355 135.528 170.869 136.005 170.382 136.482L169.851 133.951C169.66 133.041 168.219 133.291 168.409 134.203C168.646 135.329 168.881 136.454 169.118 137.58C169.125 137.619 169.14 137.655 169.152 137.688C168.997 137.84 168.842 137.993 168.688 138.145C165.699 138.42 162.723 138.772 159.752 139.209C158.817 139.347 159.055 140.773 159.988 140.636C162.743 140.232 165.506 139.901 168.277 139.641C168.338 139.694 168.407 139.743 168.491 139.782C170.001 140.447 171.422 141.261 172.746 142.205C173.228 143.861 173.71 145.519 174.194 147.176C174.451 148.058 175.895 147.815 175.635 146.923C175.33 145.873 175.025 144.822 174.718 143.772C175.463 144.429 176.167 145.134 176.83 145.882C177.445 146.578 178.566 145.633 177.947 144.934C177.469 144.391 176.965 143.873 176.446 143.376L178.716 143.828C179.635 144.011 179.769 142.564 178.859 142.383C177.296 142.073 175.731 141.761 174.168 141.45C173.17 140.697 172.116 140.013 171.01 139.408C173.997 139.177 176.99 139.026 179.982 138.961L182.692 141.896C182.357 142.537 182.362 143.391 182.277 144.058C182.106 145.396 181.933 146.731 181.761 148.069C181.642 148.996 183.095 149.115 183.215 148.191C183.315 147.404 183.417 146.618 183.519 145.832C183.618 145.056 183.561 143.962 183.853 143.237C183.861 143.217 183.87 143.201 183.88 143.182L186.041 145.521C186.038 145.563 186.038 145.604 186.043 145.646C186.284 147.727 186.527 149.808 186.772 151.887C186.879 152.816 188.32 152.559 188.213 151.636C188.045 150.2 187.876 148.762 187.709 147.325L190.678 150.54C191.307 151.22 192.429 150.277 191.795 149.591L188.906 146.463L192.698 146.844C193.635 146.938 193.774 145.493 192.842 145.401C191.036 145.219 189.229 145.037 187.422 144.856C186.66 144.032 185.897 143.207 185.137 142.383C185.524 142.349 185.944 142.384 186.344 142.387L188.947 142.407C189.882 142.413 190.03 140.969 189.088 140.962C187.827 140.953 186.565 140.939 185.302 140.934C184.837 140.934 184.334 140.912 183.874 141.018C183.232 140.322 182.59 139.626 181.946 138.932C185.826 138.895 189.705 138.993 193.573 139.234C193.623 139.333 193.697 139.423 193.797 139.493C194.519 139.989 195.224 140.505 195.913 141.042C195.654 142.557 195.395 144.071 195.136 145.585C194.98 146.51 196.434 146.625 196.592 145.707L197.206 142.097C197.879 142.666 198.535 143.256 199.172 143.862C198.952 144.34 198.819 144.934 198.68 145.296C198.299 146.291 197.92 147.285 197.539 148.28C197.203 149.157 198.574 149.641 198.908 148.765L200.341 145.02C200.677 145.368 201.009 145.719 201.335 146.078C201.203 148.526 201.525 150.908 202.282 153.244C202.568 154.126 203.893 153.495 203.609 152.621C203.092 151.03 202.819 149.4 202.769 147.743C204.191 149.487 205.479 151.342 206.613 153.3C207.075 154.097 208.406 153.482 207.939 152.678C206.837 150.773 205.599 148.96 204.238 147.251C205.306 147.651 206.373 148.051 207.441 148.453L210.215 152.691C210.72 153.465 211.837 152.51 211.333 151.744L209.746 149.321C210.389 149.562 211.035 149.805 211.678 150.046C212.554 150.377 213.06 149.01 212.183 148.682C211.386 148.38 210.589 148.081 209.792 147.78L211.472 146.955C212.318 146.538 211.711 145.227 210.862 145.646C209.886 146.126 208.913 146.605 207.937 147.084C206.073 146.382 204.206 145.682 202.34 144.979C202.324 144.973 202.307 144.972 202.292 144.968C202.074 144.73 201.853 144.494 201.631 144.26C202.933 144.011 204.235 143.758 205.536 143.507C206.463 143.328 206.227 141.902 205.302 142.08L202.149 142.688C201.65 142.784 200.925 142.81 200.329 142.952C199.029 141.696 197.65 140.517 196.196 139.422C200.467 139.758 204.723 140.265 208.95 140.937C208.959 141.014 208.981 141.093 209.023 141.176C210.121 143.273 211.607 145.054 213.474 146.52C214.207 147.096 215.042 145.897 214.312 145.324C212.856 144.177 211.661 142.812 210.73 141.233C212.524 141.54 214.314 141.874 216.096 142.243C215.78 143.272 216.049 144.371 216.456 145.352C216.636 145.791 216.833 146.225 217.038 146.658C216.319 148.905 215.601 151.156 214.881 153.406C214.597 154.296 215.964 154.785 216.251 153.891C216.396 153.436 216.54 152.985 216.685 152.531C217.124 153.436 217.561 154.342 217.999 155.248C218.405 156.083 219.732 155.464 219.327 154.624C218.663 153.252 217.997 151.879 217.332 150.505C217.547 149.837 217.759 149.17 217.973 148.502C218.387 149.287 218.807 150.067 219.204 150.849L220.069 152.56C220.275 153.905 220.481 155.251 220.685 156.596C220.67 156.613 220.655 156.625 220.643 156.644C219.694 157.896 218.746 159.147 217.797 160.4C217.229 161.15 218.427 161.966 218.995 161.215C219.658 160.338 220.325 159.46 220.987 158.582C221.182 159.851 221.376 161.122 221.569 162.392C221.711 163.314 223.151 163.059 223.011 162.14C222.737 160.342 222.464 158.545 222.188 156.748L224.932 162.17C225.349 162.998 226.68 162.377 226.259 161.547C226.146 161.324 226.032 161.101 225.92 160.877C226.683 161.096 227.445 161.315 228.205 161.534C229.102 161.792 229.615 160.427 228.713 160.167Z" fill="#2D6434"/>
<path fill-rule="evenodd" clip-rule="evenodd" d="M204.177 72.2388C203.312 73.3223 202.445 74.4065 201.579 75.4884C201.883 77.635 202.186 79.7838 202.491 81.9318C202.851 81.1736 203.214 80.4139 203.578 79.6558C203.463 78.3198 203.347 76.9846 203.234 75.6501C203.149 74.6638 204.699 74.3602 204.786 75.3533C204.829 75.8542 204.871 76.356 204.916 76.8562C205.193 76.2748 205.472 75.6941 205.748 75.1126C206.181 74.2082 207.661 74.7128 207.223 75.6269C206.566 76.9999 205.909 78.3744 205.253 79.749C205.832 79.6425 206.411 79.536 206.99 79.4317C207.991 79.2463 208.259 80.7693 207.256 80.9532C206.367 81.1171 205.477 81.2795 204.587 81.442C204.539 81.4517 204.488 81.4554 204.439 81.4547C203.927 82.5247 203.415 83.5963 202.904 84.6679C202.897 84.6805 202.889 84.6916 202.882 84.7057C203.09 86.1777 203.299 87.6512 203.507 89.1247C204.403 87.5862 205.299 86.05 206.195 84.5115C206.706 83.6366 207.987 84.5115 207.481 85.3804C207.026 86.1611 206.571 86.9419 206.117 87.7203L208.816 87.0137C209.801 86.7554 210.063 88.2791 209.083 88.5367C207.737 88.8897 206.391 89.242 205.048 89.595C205.038 89.5979 205.03 89.5978 205.022 89.5999C204.635 90.2605 204.251 90.9233 203.863 91.5846C203.853 91.6062 203.833 91.6246 203.818 91.6445C203.968 92.8187 204.251 94.0608 205.138 94.6395C207.052 92.5464 208.914 90.4114 210.723 88.2299C211.096 87.7815 211.461 87.3293 211.828 86.8778C211.622 85.159 211.417 83.4395 211.213 81.72C211.147 81.6831 211.085 81.6403 211.037 81.5858C210.042 80.4998 209.047 79.4154 208.051 78.3295C207.378 77.5954 208.588 76.5725 209.258 77.3043C209.805 77.9033 210.352 78.5001 210.901 79.0962C210.728 77.6591 210.556 76.2198 210.385 74.782C210.266 73.7968 211.82 73.4955 211.937 74.4867C212.082 75.7094 212.229 76.9307 212.374 78.1535C212.914 77.1803 213.457 76.2042 213.996 75.2281C214.487 74.3439 215.768 75.221 215.282 76.097C214.417 77.6576 213.552 79.2182 212.687 80.7766C212.861 82.2354 213.037 83.6949 213.21 85.1537C214.407 83.6392 215.581 82.1101 216.727 80.5589C216.36 77.0375 215.99 73.5176 215.623 69.9962C215.521 69.0104 217.072 68.7069 217.177 69.7002C217.273 70.6155 217.368 71.5309 217.462 72.447C218.112 71.2646 218.761 70.0844 219.407 68.9034C219.896 68.017 221.178 68.8933 220.695 69.7716C219.711 71.5623 218.728 73.3507 217.745 75.1414C217.866 76.3145 217.99 77.4845 218.11 78.6561C219.653 76.5095 221.148 74.3301 222.589 72.1192C223.146 71.2705 224.43 72.1401 223.876 72.9874C222.543 75.0324 221.162 77.046 219.741 79.0343C220.481 78.8068 221.219 78.5815 221.956 78.3547C223.036 77.3343 224.117 76.3147 225.198 75.2936C225.94 74.5949 226.948 75.7648 226.21 76.4598C225.902 76.7513 225.594 77.0444 225.285 77.3344C225.707 77.2061 226.13 77.0756 226.553 76.9451C227.525 76.6485 227.784 78.1736 226.819 78.4688L224.632 79.1405C225.245 79.3008 225.861 79.4618 226.474 79.6236C227.448 79.879 226.892 81.3426 225.92 81.0879L221.825 80.0116C221.819 80.0108 221.812 80.0084 221.806 80.0061C220.618 80.3705 219.431 80.7349 218.245 81.097C217.018 82.7629 215.762 84.4044 214.478 86.0275C216.074 85.6715 217.668 85.3163 219.264 84.9602C220.257 84.7403 220.521 86.2647 219.528 86.4847C217.33 86.9745 215.131 87.4651 212.933 87.9549C211.024 90.2972 209.056 92.5936 207.029 94.8391C208.268 94.5825 209.625 93.8392 210.499 93.4993L211.336 93.1708C211.48 92.8072 211.722 92.4646 211.94 92.1343C212.692 90.9885 213.472 89.8552 214.237 88.7179C214.804 87.8753 216.09 88.7442 215.524 89.5846C214.995 90.3687 214.47 91.1513 213.942 91.9347C213.876 92.0339 213.805 92.1331 213.733 92.233C214.532 91.9204 215.33 91.6085 216.128 91.2966C216.395 91.1914 216.662 91.0862 216.929 90.981C216.944 90.9648 216.959 90.9471 216.973 90.9293C219.488 88.297 222.002 85.6654 224.516 83.0339C225.219 82.298 226.226 83.4723 225.529 84.1993C223.793 86.0184 222.055 87.8381 220.318 89.6572C222.837 88.6696 225.356 87.6842 227.876 86.6981C228.82 86.3286 229.495 87.7171 228.547 88.0888L219.99 91.4375C221.14 91.7756 222.291 92.1145 223.441 92.4525C224.999 91.8828 226.556 91.3123 228.112 90.7418C229.06 90.394 229.737 91.7818 228.78 92.1317L225.917 93.1815C226.415 93.3296 226.914 93.4754 227.413 93.6235C228.38 93.9057 227.824 95.3708 226.859 95.0856C226.103 94.8641 225.35 94.6411 224.593 94.4196C224.933 95.121 225.273 95.8224 225.612 96.5245C226.046 97.4188 224.62 98.1079 224.186 97.2137C223.638 96.0813 223.089 94.9475 222.54 93.8152C220.899 93.3314 219.257 92.8498 217.616 92.366L215.329 93.2613C214.687 93.5127 214.045 93.7663 213.401 94.0207C213.406 94.0238 213.412 94.0268 213.416 94.0321C214.833 95.1349 216.634 95.9494 218.181 96.8723C219.041 97.3863 218.13 98.6695 217.274 98.1586C216.117 97.4696 214.963 96.7814 213.806 96.0925C213.19 95.7243 212.161 95.3371 211.603 94.7304C210.758 95.0626 209.912 95.3917 209.063 95.7132C209.945 96.3106 210.827 96.9049 211.712 97.5008C212.538 98.0607 211.632 99.3469 210.802 98.787L207.562 96.6009C207.43 96.5122 207.349 96.4055 207.298 96.2918C206.727 96.4254 206.149 96.493 205.586 96.4195C200.8 101.595 195.705 106.49 190.337 111.076C192.035 110.758 193.738 110.44 195.437 110.124C198.206 106.587 200.974 103.054 203.741 99.5173C204.365 98.7197 205.655 99.5849 205.029 100.385C204.313 101.298 203.6 102.211 202.884 103.123C203.562 102.849 204.242 102.574 204.919 102.298C205.859 101.918 206.533 103.307 205.588 103.69C204.161 104.268 202.734 104.844 201.308 105.423C201.214 105.46 201.124 105.476 201.038 105.482C199.937 106.885 198.839 108.289 197.74 109.693C199.017 109.453 200.295 109.215 201.573 108.976C201.58 108.971 201.584 108.963 201.589 108.959C203.699 107.253 205.807 105.549 207.915 103.844C206.954 102.428 207.802 100.795 208.676 99.5315C209.254 98.6965 210.539 99.5639 209.963 100.4C209.593 100.933 208.745 102.148 209.129 102.863C209.927 102.219 210.722 101.576 211.518 100.933C212.311 100.291 213.325 101.458 212.532 102.098L211.107 103.25C211.768 103.235 212.426 103.22 213.085 103.205C214.096 103.182 213.937 104.729 212.929 104.752C211.869 104.776 210.405 105.044 209.259 104.745C207.758 105.956 206.261 107.169 204.759 108.382L211.865 107.054C212.865 106.868 213.132 108.391 212.131 108.576C209.93 108.988 207.729 109.399 205.529 109.811C207.217 110.347 208.907 110.884 210.595 111.42C211.556 111.724 211.004 113.189 210.043 112.884C207.454 112.063 204.864 111.24 202.275 110.418C200.708 110.711 199.141 111.003 197.574 111.296C197.82 111.502 198.067 111.709 198.314 111.915C198.472 111.798 198.675 111.732 198.879 111.73L202.796 111.682C203.809 111.67 203.651 113.216 202.642 113.229C201.736 113.24 200.832 113.252 199.928 113.263C200.627 113.845 201.326 114.428 202.023 115.011C202.782 115.645 201.88 116.936 201.114 116.299L199.434 114.895C199.39 115.588 199.345 116.279 199.301 116.972C199.237 117.969 197.669 117.849 197.733 116.852C197.803 115.782 197.87 114.715 197.939 113.647C197.15 112.988 196.361 112.33 195.572 111.67C194.503 111.871 193.432 112.07 192.363 112.269C193.159 113.261 193.953 114.253 194.748 115.246C195.369 116.021 194.162 117.046 193.542 116.269C192.604 115.1 191.667 113.93 190.731 112.76C190.687 112.707 190.653 112.651 190.627 112.594L187.919 113.101C184.412 115.991 180.792 118.75 177.071 121.367C178.279 121.217 179.483 121.066 180.691 120.915C181.316 120.01 183.137 119.524 184.001 119.108C185.647 118.318 187.29 117.526 188.935 116.734C189.854 116.292 190.524 117.683 189.603 118.124L184.9 120.39C186.262 120.219 187.624 120.048 188.985 119.879C189.988 119.754 190.261 121.276 189.253 121.402C187.279 121.647 185.305 121.894 183.332 122.141C183.625 122.303 183.91 122.487 184.186 122.631L187.344 124.286C188.232 124.749 187.314 126.031 186.437 125.571C185.031 124.835 183.627 124.101 182.222 123.365C181.778 123.131 181.188 122.85 180.814 122.456C178.889 122.696 176.963 122.937 175.039 123.178C174.872 123.199 174.705 123.169 174.557 123.102C174.288 123.284 174.019 123.471 173.749 123.65C171.499 125.158 169.209 126.614 166.893 128.019C168.074 128.197 169.255 128.373 170.436 128.552C173.149 127.277 176.01 126.421 178.977 126.014C179.982 125.877 180.253 127.399 179.245 127.537C177.226 127.815 175.273 128.301 173.382 128.992C174.799 129.205 176.215 129.418 177.632 129.631C178.622 129.779 178.478 131.328 177.474 131.179C175.46 130.875 173.447 130.574 171.433 130.271C172.265 131.811 173.099 133.349 173.93 134.887C174.406 135.761 172.977 136.447 172.505 135.577C171.494 133.711 170.485 131.844 169.474 129.978C168.753 129.868 168.03 129.76 167.308 129.652L168.395 132.19C168.785 133.103 167.362 133.794 166.97 132.88C166.487 131.752 166.003 130.624 165.521 129.496C165.504 129.456 165.493 129.417 165.483 129.38C165.252 129.343 165.023 129.309 164.792 129.274C161.991 130.921 159.149 132.493 156.262 133.988C155.355 134.457 154.689 133.064 155.593 132.596C158.269 131.212 160.91 129.752 163.512 128.232C163.533 128.147 163.564 128.061 163.614 127.975C164.536 126.443 165.291 124.838 165.878 123.182C165.286 121.435 164.693 119.691 164.101 117.944C163.785 117.012 165.207 116.316 165.525 117.253C165.902 118.36 166.277 119.467 166.652 120.574C166.904 119.532 167.095 118.475 167.218 117.406C167.334 116.413 168.901 116.528 168.786 117.526C168.696 118.301 168.572 119.069 168.418 119.83L170.142 118.004C170.84 117.263 171.845 118.438 171.155 119.17C169.969 120.426 168.784 121.683 167.595 122.94C167.176 124.227 166.668 125.488 166.064 126.712C168.839 125.026 171.57 123.271 174.247 121.44L174.835 117.175C174.144 116.829 173.627 116.082 173.14 115.554C172.169 114.501 171.196 113.447 170.223 112.393C169.546 111.66 170.754 110.638 171.43 111.367C172.001 111.988 172.573 112.608 173.146 113.228C173.71 113.842 174.33 114.829 175.034 115.275C175.053 115.288 175.071 115.296 175.092 115.308L175.56 111.909C175.532 111.875 175.504 111.838 175.482 111.799C174.419 109.834 173.356 107.871 172.292 105.907C171.819 105.033 173.247 104.346 173.719 105.217C174.452 106.573 175.187 107.93 175.922 109.285L176.564 104.614C176.701 103.627 178.27 103.739 178.132 104.734L177.507 109.279L180.616 106.555C181.384 105.883 182.395 107.052 181.629 107.722C180.146 109.019 178.666 110.318 177.185 111.615C177.02 112.812 176.854 114.012 176.69 115.21C177.051 114.995 177.4 114.699 177.75 114.445L180.032 112.785C180.854 112.19 181.871 113.352 181.046 113.952C179.94 114.756 178.836 115.563 177.727 116.365C177.318 116.658 176.885 116.995 176.417 117.193C176.277 118.206 176.137 119.215 175.998 120.225C179.441 117.809 182.798 115.276 186.06 112.625C186.045 112.508 186.054 112.382 186.1 112.258C186.432 111.372 186.736 110.478 187.011 109.576C185.854 108.423 184.696 107.268 183.539 106.113C182.834 105.408 184.043 104.389 184.744 105.089L187.507 107.842C187.75 106.922 187.966 105.996 188.153 105.066C187.668 104.788 187.183 104.357 186.837 104.128C185.891 103.504 184.947 102.879 184.001 102.254C183.166 101.702 184.076 100.416 184.911 100.968L188.472 103.321C188.555 102.806 188.633 102.291 188.7 101.775C187.079 99.7267 185.897 97.4503 185.133 94.9416C184.844 93.9942 186.399 93.7049 186.685 94.6463C187.208 96.3563 187.968 97.9473 188.94 99.4188C189.123 97.0051 189.119 94.5803 188.914 92.1593C188.833 91.1731 190.385 90.8688 190.469 91.8632C190.666 94.2176 190.688 96.5753 190.54 98.9215C191.234 97.8998 191.928 96.8766 192.622 95.8534L192.466 90.4176C192.437 89.4232 194.004 89.5491 194.034 90.5353L194.122 93.6442C194.542 93.0267 194.961 92.4115 195.38 91.7947C195.95 90.9544 197.234 91.824 196.665 92.6621C196.146 93.4269 195.627 94.1918 195.106 94.9558L197.098 94.6139C198.099 94.442 198.368 95.9657 197.363 96.1384C196.209 96.3365 195.055 96.5346 193.901 96.7327C192.688 98.5192 191.474 100.308 190.26 102.094C190.251 102.11 190.236 102.122 190.223 102.136C190.178 102.48 190.128 102.825 190.075 103.167C191.379 102.564 192.681 101.961 193.983 101.357C194.907 100.931 195.578 102.32 194.65 102.75L191.5 104.209C191 104.44 190.345 104.874 189.731 105.127C189.357 107.042 188.868 108.938 188.259 110.806C191.817 107.818 195.257 104.693 198.569 101.44C198.531 101.367 198.501 101.286 198.489 101.187C198.167 98.6686 198.384 96.1821 199.129 93.7289C199.42 92.7663 200.894 93.2827 200.604 94.2432C200.023 96.1588 199.809 98.0987 199.957 100.061C201.351 98.6618 202.722 97.2419 204.067 95.7976C203.157 95.1012 202.72 93.975 202.474 92.8644C202.363 92.3691 202.27 91.8659 202.187 91.3613C200.171 89.8585 198.157 88.3549 196.141 86.8498C195.341 86.2559 196.248 84.9659 197.05 85.5643C197.454 85.8666 197.862 86.1688 198.268 86.4726C198.097 85.4073 197.926 84.3434 197.756 83.2796C197.6 82.2975 199.153 81.9999 199.309 82.9843C199.568 84.5976 199.826 86.2132 200.083 87.8273C200.681 88.2738 201.278 88.7203 201.878 89.1661C201.76 88.2227 201.651 87.2787 201.52 86.3471L201.232 84.3122C200.587 83.0124 199.941 81.7111 199.296 80.4113C199.275 80.4065 199.252 80.4061 199.229 80.3983C197.624 79.9068 196.019 79.4153 194.414 78.9238C193.453 78.6297 194.005 77.1661 194.968 77.4595C196.094 77.8032 197.218 78.1499 198.343 78.4936C197.736 77.2661 197.124 76.0386 196.515 74.8119C196.073 73.9213 197.501 73.2329 197.941 74.1206C198.804 75.8582 199.665 77.5942 200.528 79.3318L199.616 72.8832C199.477 71.8999 201.029 71.5993 201.168 72.5879C201.205 72.8532 201.245 73.1193 201.282 73.3846C201.818 72.7143 202.357 72.041 202.894 71.3707C203.525 70.5807 204.816 71.4437 204.177 72.2388Z" fill="#2D6434"/>
<path fill-rule="evenodd" clip-rule="evenodd" d="M132.202 167.093C137.535 164.447 142.706 161.493 147.685 158.23C150.199 156.583 152.659 154.854 155.055 153.042C157.219 151.407 159.439 149.698 160.953 147.413C163.582 143.439 155.962 126.136 151.23 125.107C146.064 123.984 140.841 125.609 136.014 127.433C130.111 129.663 124.242 131.993 118.392 134.358C95.7822 143.502 73.1983 154.246 55.1511 171.009C52.9704 173.036 47.3335 178.107 49.9373 182.824C52.5411 187.54 58.3773 187.486 63.065 186.852C75.0158 185.234 86.9114 182.923 98.5507 179.71C110.108 176.522 121.448 172.432 132.202 167.093Z" fill="#E3652A"/>
<path fill-rule="evenodd" clip-rule="evenodd" d="M140.275 140.492C140.992 141.503 143.078 140.489 142.807 139.303C141.832 135.036 140.858 130.766 139.882 126.498C138.749 126.894 137.63 127.314 136.526 127.744C135.664 128.079 134.801 128.421 133.938 128.76C135.545 132.92 137.677 136.834 140.275 140.492Z" fill="#CA562C"/>
<path fill-rule="evenodd" clip-rule="evenodd" d="M99.1445 174.831C98.2785 174.258 97.0905 175.016 97.2433 176.039C97.4836 177.648 97.9306 179.205 98.56 180.677C98.9877 180.561 99.4124 180.446 99.8388 180.327C101.094 179.98 102.346 179.617 103.597 179.247C102.433 177.509 100.925 176.008 99.1445 174.831Z" fill="#CA562C"/>
<path fill-rule="evenodd" clip-rule="evenodd" d="M68.8963 169.702C68.3198 166.964 67.7457 164.226 67.1692 161.488C65.7444 162.52 64.335 163.576 62.944 164.659L66.4775 170.48C67.1339 171.566 69.1995 171.154 68.8963 169.702Z" fill="#CA562C"/>
<path fill-rule="evenodd" clip-rule="evenodd" d="M131.655 149.817C133.349 153.61 135.043 157.404 136.738 161.198C137.162 162.149 137.613 163.149 138.158 164.058C139.652 163.255 141.135 162.429 142.605 161.578C139.192 157.67 136.28 153.378 133.931 148.749C133.241 147.39 131.03 148.419 131.655 149.817Z" fill="#CA562C"/>
<path fill-rule="evenodd" clip-rule="evenodd" d="M110.06 169.536C107.851 164.869 105.644 160.201 103.437 155.536C102.829 154.251 101.087 154.898 101.22 156.22C101.778 161.777 104.094 167.059 107.777 171.253C108.446 172.015 109.437 171.622 109.756 170.931C110.134 170.631 110.335 170.12 110.06 169.536Z" fill="#CA562C"/>
<path fill-rule="evenodd" clip-rule="evenodd" d="M86.4817 177.329C87.5902 178.391 89.7623 176.731 88.7501 175.641C89.3922 175.339 89.8716 174.689 89.5398 173.996C87.6564 170.054 85.7755 166.112 83.8946 162.17C83.2831 160.887 81.2258 161.74 81.2285 163.072C81.234 168.186 82.7579 173.755 86.4817 177.329Z" fill="#CA562C"/>
<path fill-rule="evenodd" clip-rule="evenodd" d="M91.5869 160.48C92.3056 161.926 94.6616 160.83 93.9624 159.365C92.0526 155.345 90.8788 151.048 90.4725 146.642C88.938 147.435 87.4143 148.243 85.9011 149.07C87.7961 152.871 89.691 156.677 91.5869 160.48Z" fill="#CA562C"/>
<path fill-rule="evenodd" clip-rule="evenodd" d="M114.102 141.224C115.374 147.05 117.838 152.454 121.389 157.232C122.211 158.341 123.805 157.264 123.641 156.121C123.832 155.814 123.883 155.428 123.68 155.014C121.313 150.153 118.946 145.291 116.578 140.429C115.98 139.201 113.789 139.802 114.102 141.224Z" fill="#CA562C"/>
</g>
</g>
<defs>
<filter id="filter0_d" x="262.055" y="68.2699" width="31.2969" height="164.757" filterUnits="userSpaceOnUse" color-interpolation-filters="sRGB">
<feFlood flood-opacity="0" result="BackgroundImageFix"/>
<feColorMatrix in="SourceAlpha" type="matrix" values="0 0 0 0 0 0 0 0 0 0 0 0 0 0 0 0 0 0 127 0"/>
<feOffset dx="1" dy="1"/>
<feGaussianBlur stdDeviation="1"/>
<feColorMatrix type="matrix" values="0 0 0 0 0 0 0 0 0 0 0 0 0 0 0 0 0 0 0.15 0"/>
<feBlend mode="normal" in2="BackgroundImageFix" result="effect1_dropShadow"/>
<feBlend mode="normal" in="SourceGraphic" in2="effect1_dropShadow" result="shape"/>
</filter>
<radialGradient id="paint0_radial" cx="0" cy="0" r="1" gradientUnits="userSpaceOnUse" gradientTransform="translate(150 150) rotate(90) scale(150)">
<stop offset="0.369792" stop-color="white" stop-opacity="0"/>
<stop offset="1" stop-color="#FFB800"/>
</radialGradient>
<clipPath id="clip0">
<rect width="300" height="300" fill="white"/>
</clipPath>
<clipPath id="clip1">
<rect width="178.1" height="164.329" fill="white" transform="translate(97.2828 28.3286) rotate(17.9367)"/>
</clipPath>
</defs>
</svg>
