<svg width="300" height="300" viewBox="0 0 300 300" fill="none" xmlns="http://www.w3.org/2000/svg">
<rect width="300" height="300" fill="white"/>
<rect width="300" height="300" fill="white"/>
<rect width="300" height="300" fill="white"/>
<rect width="300" height="300" fill="url(#paint0_radial)" fill-opacity="0.2"/>
<g filter="url(#filter0_d)">
<path d="M289.5 219.514L263.906 219.514L263.906 210.549C263.906 207.443 264.504 205.088 265.699 203.482C266.883 201.877 268.623 201.074 270.92 201.074C272.174 201.074 273.281 201.397 274.242 202.041C275.191 202.686 275.889 203.582 276.334 204.731C276.662 203.418 277.324 202.387 278.32 201.637C279.316 200.875 280.535 200.494 281.977 200.494C284.437 200.494 286.301 201.279 287.566 202.85C288.832 204.42 289.477 206.658 289.5 209.565L289.5 219.514ZM278.355 214.24L285.264 214.24L285.264 209.723C285.264 208.481 284.971 207.514 284.385 206.822C283.787 206.119 282.967 205.768 281.924 205.768C279.58 205.768 278.391 206.981 278.355 209.406L278.355 214.24ZM274.629 214.24L274.629 210.338C274.582 207.678 273.521 206.348 271.447 206.348C270.287 206.348 269.455 206.688 268.951 207.367C268.436 208.035 268.178 209.096 268.178 210.549L268.178 214.24L274.629 214.24ZM280.131 183.087L280.131 187.288L289.5 187.288L289.5 192.562L263.906 192.562L263.906 183.052C263.906 180.028 264.58 177.696 265.928 176.056C267.275 174.415 269.18 173.595 271.641 173.595C273.387 173.595 274.846 173.976 276.018 174.737C277.178 175.487 278.104 176.63 278.795 178.165L289.254 172.628L289.5 172.628L289.5 178.288L280.131 183.087ZM275.859 187.288L275.859 183.034C275.859 181.71 275.525 180.685 274.857 179.958C274.178 179.231 273.246 178.868 272.062 178.868C270.855 178.868 269.906 179.214 269.215 179.905C268.523 180.585 268.178 181.634 268.178 183.052L268.178 187.288L275.859 187.288ZM277.283 144.586C279.803 144.586 282.012 145.031 283.91 145.922C285.809 146.812 287.273 148.09 288.305 149.754C289.336 151.406 289.852 153.305 289.852 155.449C289.852 157.57 289.342 159.463 288.322 161.127C287.303 162.791 285.85 164.08 283.963 164.994C282.064 165.908 279.885 166.371 277.424 166.383L276.158 166.383C273.639 166.383 271.424 165.932 269.514 165.029C267.592 164.115 266.121 162.832 265.102 161.18C264.07 159.516 263.555 157.617 263.555 155.484C263.555 153.352 264.07 151.459 265.102 149.807C266.121 148.143 267.592 146.859 269.514 145.957C271.424 145.043 273.633 144.586 276.141 144.586L277.283 144.586ZM276.123 149.93C273.439 149.93 271.4 150.41 270.006 151.371C268.611 152.332 267.914 153.703 267.914 155.484C267.914 157.254 268.605 158.619 269.988 159.58C271.359 160.541 273.375 161.027 276.035 161.039L277.283 161.039C279.896 161.039 281.924 160.559 283.365 159.598C284.807 158.637 285.527 157.254 285.527 155.449C285.527 153.68 284.836 152.32 283.453 151.371C282.059 150.422 280.031 149.941 277.371 149.93L276.123 149.93ZM282.117 116.86L263.906 113.415L263.906 108.159L289.5 113.837L289.5 119.145L272.379 123.311L289.5 127.478L289.5 132.786L263.906 138.464L263.906 133.208L282.082 129.745L263.906 125.526L263.906 121.061L282.117 116.86ZM289.5 80.5214L289.5 85.7948L272.66 96.0605L289.5 96.0605L289.5 101.334L263.906 101.334L263.906 96.0605L280.781 85.7773L263.906 85.7773L263.906 80.5214L289.5 80.5214Z" fill="white"/>
<path d="M289.5 219.514L289.5 220.014L290 220.014L290 219.514L289.5 219.514ZM263.906 219.514L263.406 219.514L263.406 220.014L263.906 220.014L263.906 219.514ZM265.699 203.482L266.1 203.781L266.102 203.779L265.699 203.482ZM274.242 202.041L274.523 201.627L274.521 201.626L274.242 202.041ZM276.334 204.731L275.868 204.911L276.437 206.38L276.819 204.852L276.334 204.731ZM278.32 201.637L278.621 202.036L278.624 202.034L278.32 201.637ZM289.5 209.565L290 209.565L290 209.56L289.5 209.565ZM278.355 214.24L277.855 214.24L277.855 214.74L278.355 214.74L278.355 214.24ZM285.264 214.24L285.264 214.74L285.764 214.74L285.764 214.24L285.264 214.24ZM284.385 206.822L284.766 206.499L284.766 206.499L284.385 206.822ZM278.355 209.406L277.855 209.399L277.855 209.406L278.355 209.406ZM274.629 214.24L274.629 214.74L275.129 214.74L275.129 214.24L274.629 214.24ZM274.629 210.338L275.129 210.338L275.129 210.329L274.629 210.338ZM268.951 207.367L269.347 207.673L269.353 207.665L268.951 207.367ZM268.178 214.24L267.678 214.24L267.678 214.74L268.178 214.74L268.178 214.24ZM289.5 219.014L263.906 219.014L263.906 220.014L289.5 220.014L289.5 219.014ZM264.406 219.514L264.406 210.549L263.406 210.549L263.406 219.514L264.406 219.514ZM264.406 210.549C264.406 207.495 264.996 205.264 266.1 203.781L265.298 203.184C264.012 204.912 263.406 207.391 263.406 210.549L264.406 210.549ZM266.102 203.779C267.176 202.322 268.754 201.574 270.92 201.574L270.92 200.574C268.492 200.574 266.59 201.432 265.297 203.186L266.102 203.779ZM270.92 201.574C272.083 201.574 273.092 201.872 273.964 202.456L274.521 201.626C273.47 200.921 272.264 200.574 270.92 200.574L270.92 201.574ZM273.961 202.455C274.82 203.038 275.456 203.85 275.868 204.911L276.8 204.55C276.321 203.314 275.563 202.333 274.523 201.627L273.961 202.455ZM276.819 204.852C277.122 203.64 277.724 202.711 278.621 202.036L278.02 201.237C276.924 202.062 276.202 203.196 275.849 204.609L276.819 204.852ZM278.624 202.034C279.52 201.349 280.628 200.994 281.977 200.994L281.977 199.994C280.443 199.994 279.113 200.401 278.017 201.24L278.624 202.034ZM281.977 200.994C284.323 200.994 286.027 201.737 287.177 203.163L287.956 202.536C286.574 200.822 284.552 199.994 281.977 199.994L281.977 200.994ZM287.177 203.163C288.347 204.615 288.977 206.727 289 209.569L290 209.56C289.976 206.59 289.317 204.225 287.956 202.536L287.177 203.163ZM289 209.565L289 219.514L290 219.514L290 209.565L289 209.565ZM278.355 214.74L285.264 214.74L285.264 213.74L278.355 213.74L278.355 214.74ZM285.764 214.24L285.764 209.723L284.764 209.723L284.764 214.24L285.764 214.24ZM285.764 209.723C285.764 208.406 285.453 207.309 284.766 206.499L284.003 207.146C284.488 207.718 284.764 208.555 284.764 209.723L285.764 209.723ZM284.766 206.499C284.06 205.668 283.092 205.268 281.924 205.268L281.924 206.268C282.841 206.268 283.514 206.57 284.004 207.146L284.766 206.499ZM281.924 205.268C280.67 205.268 279.637 205.593 278.917 206.327C278.2 207.058 277.874 208.113 277.856 209.399L278.855 209.414C278.872 208.274 279.158 207.509 279.631 207.027C280.1 206.549 280.834 206.268 281.924 206.268L281.924 205.268ZM277.855 209.406L277.855 214.24L278.855 214.24L278.855 209.406L277.855 209.406ZM275.129 214.24L275.129 210.338L274.129 210.338L274.129 214.24L275.129 214.24ZM275.129 210.329C275.104 208.947 274.817 207.821 274.189 207.034C273.543 206.223 272.6 205.848 271.447 205.848L271.447 206.848C272.369 206.848 272.993 207.137 273.407 207.657C273.84 208.199 274.106 209.069 274.129 210.347L275.129 210.329ZM271.447 205.848C270.192 205.848 269.18 206.219 268.55 207.069L269.353 207.665C269.73 207.156 270.382 206.848 271.447 206.848L271.447 205.848ZM268.555 207.062C267.939 207.861 267.678 209.057 267.678 210.549L268.678 210.549C268.678 209.134 268.933 208.21 269.347 207.673L268.555 207.062ZM267.678 210.549L267.678 214.24L268.678 214.24L268.678 210.549L267.678 210.549ZM268.178 214.74L274.629 214.74L274.629 213.74L268.178 213.74L268.178 214.74ZM280.131 183.087L279.903 182.642L279.631 182.781L279.631 183.087L280.131 183.087ZM280.131 187.288L279.631 187.288L279.631 187.788L280.131 187.788L280.131 187.288ZM289.5 187.288L290 187.288L290 186.788L289.5 186.788L289.5 187.288ZM289.5 192.562L289.5 193.062L290 193.062L290 192.562L289.5 192.562ZM263.906 192.562L263.406 192.562L263.406 193.062L263.906 193.062L263.906 192.562ZM276.018 174.737L275.745 175.157L275.746 175.157L276.018 174.737ZM278.795 178.165L278.339 178.37L278.558 178.856L279.029 178.607L278.795 178.165ZM289.254 172.628L289.254 172.128L289.13 172.128L289.02 172.186L289.254 172.628ZM289.5 172.628L290 172.628L290 172.128L289.5 172.128L289.5 172.628ZM289.5 178.288L289.728 178.733L290 178.594L290 178.288L289.5 178.288ZM275.859 187.288L275.859 187.788L276.359 187.788L276.359 187.288L275.859 187.288ZM274.857 179.958L275.226 179.62L275.223 179.616L274.857 179.958ZM269.215 179.905L269.565 180.262L269.568 180.259L269.215 179.905ZM268.178 187.288L267.678 187.288L267.678 187.788L268.178 187.788L268.178 187.288ZM279.631 183.087L279.631 187.288L280.631 187.288L280.631 183.087L279.631 183.087ZM280.131 187.788L289.5 187.788L289.5 186.788L280.131 186.788L280.131 187.788ZM289 187.288L289 192.562L290 192.562L290 187.288L289 187.288ZM289.5 192.062L263.906 192.062L263.906 193.062L289.5 193.062L289.5 192.062ZM264.406 192.562L264.406 183.052L263.406 183.052L263.406 192.562L264.406 192.562ZM264.406 183.052C264.406 180.096 265.066 177.893 266.314 176.373L265.541 175.738C264.095 177.5 263.406 179.961 263.406 183.052L264.406 183.052ZM266.314 176.373C267.551 174.867 269.303 174.095 271.641 174.095L271.641 173.095C269.057 173.095 267 173.963 265.541 175.738L266.314 176.373ZM271.641 174.095C273.314 174.095 274.672 174.459 275.745 175.157L276.29 174.318C275.019 173.492 273.459 173.095 271.641 173.095L271.641 174.095ZM275.746 175.157C276.809 175.845 277.678 176.904 278.339 178.37L279.251 177.96C278.529 176.356 277.546 175.13 276.289 174.317L275.746 175.157ZM279.029 178.607L289.488 173.07L289.02 172.186L278.561 177.723L279.029 178.607ZM289.254 173.128L289.5 173.128L289.5 172.128L289.254 172.128L289.254 173.128ZM289 172.628L289 178.288L290 178.288L290 172.628L289 172.628ZM289.272 177.843L279.903 182.642L280.359 183.532L289.728 178.733L289.272 177.843ZM276.359 187.288L276.359 183.034L275.359 183.034L275.359 187.288L276.359 187.288ZM276.359 183.034C276.359 181.628 276.004 180.466 275.226 179.62L274.489 180.296C275.047 180.903 275.359 181.792 275.359 183.034L276.359 183.034ZM275.223 179.616C274.43 178.77 273.356 178.368 272.062 178.368L272.062 179.368C273.136 179.368 273.925 179.693 274.492 180.3L275.223 179.616ZM272.062 178.368C270.756 178.368 269.667 178.746 268.861 179.552L269.568 180.259C270.145 179.682 270.955 179.368 272.062 179.368L272.062 178.368ZM268.864 179.549C268.041 180.358 267.678 181.562 267.678 183.052L268.678 183.052C268.678 181.706 269.006 180.812 269.565 180.262L268.864 179.549ZM267.678 183.052L267.678 187.288L268.678 187.288L268.678 183.052L267.678 183.052ZM268.178 187.788L275.859 187.788L275.859 186.788L268.178 186.788L268.178 187.788ZM288.305 149.754L287.88 150.017L287.881 150.019L288.305 149.754ZM283.963 164.994L284.18 165.445L284.181 165.444L283.963 164.994ZM277.424 166.383L277.424 166.883L277.426 166.883L277.424 166.383ZM269.514 165.029L269.299 165.481L269.3 165.481L269.514 165.029ZM265.102 161.18L265.527 160.917L265.527 160.916L265.102 161.18ZM265.102 149.807L265.526 150.071L265.528 150.068L265.102 149.807ZM269.514 145.957L269.726 146.41L269.729 146.408L269.514 145.957ZM269.988 159.58L270.275 159.171L270.274 159.169L269.988 159.58ZM276.035 161.039L276.033 161.539L276.035 161.539L276.035 161.039ZM283.453 151.371L283.736 150.959L283.734 150.958L283.453 151.371ZM277.371 149.93L277.373 149.43L277.371 149.43L277.371 149.93ZM277.283 145.086C279.744 145.086 281.878 145.521 283.698 146.375L284.123 145.469C282.146 144.542 279.862 144.086 277.283 144.086L277.283 145.086ZM283.698 146.375C285.515 147.227 286.903 148.442 287.88 150.017L288.73 149.491C287.644 147.738 286.102 146.398 284.123 145.469L283.698 146.375ZM287.881 150.019C288.857 151.584 289.352 153.389 289.352 155.449L290.352 155.449C290.352 153.221 289.815 151.229 288.729 149.489L287.881 150.019ZM289.352 155.449C289.352 157.486 288.863 159.287 287.896 160.866L288.749 161.388C289.82 159.639 290.352 157.654 290.352 155.449L289.352 155.449ZM287.896 160.866C286.93 162.442 285.552 163.669 283.745 164.544L284.181 165.444C286.147 164.492 287.675 163.14 288.749 161.388L287.896 160.866ZM283.746 164.544C281.925 165.42 279.82 165.871 277.421 165.883L277.426 166.883C279.949 166.871 282.204 166.396 284.18 165.445L283.746 164.544ZM277.424 165.883L276.158 165.883L276.158 166.883L277.424 166.883L277.424 165.883ZM276.158 165.883C273.698 165.883 271.559 165.443 269.727 164.577L269.3 165.481C271.289 166.421 273.579 166.883 276.158 166.883L276.158 165.883ZM269.728 164.578C267.885 163.701 266.491 162.48 265.527 160.917L264.676 161.442C265.751 163.184 267.299 164.53 269.299 165.481L269.728 164.578ZM265.527 160.916C264.549 159.338 264.055 157.533 264.055 155.484L263.055 155.484C263.055 157.702 263.592 159.693 264.677 161.443L265.527 160.916ZM264.055 155.484C264.055 153.436 264.549 151.637 265.526 150.071L264.677 149.542C263.592 151.281 263.055 153.267 263.055 155.484L264.055 155.484ZM265.528 150.068C266.492 148.494 267.885 147.274 269.726 146.41L269.301 145.504C267.299 146.444 265.75 147.791 264.675 149.545L265.528 150.068ZM269.729 146.408C271.561 145.532 273.694 145.086 276.141 145.086L276.141 144.086C273.572 144.086 271.287 144.554 269.298 145.506L269.729 146.408ZM276.141 145.086L277.283 145.086L277.283 144.086L276.141 144.086L276.141 145.086ZM276.123 149.43C273.393 149.43 271.236 149.916 269.722 150.959L270.29 151.783C271.565 150.904 273.486 150.43 276.123 150.43L276.123 149.43ZM269.722 150.959C268.184 152.019 267.414 153.549 267.414 155.484L268.414 155.484C268.414 153.857 269.039 152.645 270.29 151.783L269.722 150.959ZM267.414 155.484C267.414 157.408 268.178 158.931 269.703 159.991L270.274 159.169C269.033 158.307 268.414 157.1 268.414 155.484L267.414 155.484ZM269.701 159.99C271.192 161.034 273.326 161.527 276.033 161.539L276.037 160.539C273.424 160.528 271.527 160.048 270.275 159.171L269.701 159.99ZM276.035 161.539L277.283 161.539L277.283 160.539L276.035 160.539L276.035 161.539ZM277.283 161.539C279.948 161.539 282.087 161.051 283.643 160.014L283.088 159.182C281.761 160.067 279.845 160.539 277.283 160.539L277.283 161.539ZM283.643 160.014C285.23 158.955 286.027 157.413 286.027 155.449L285.027 155.449C285.027 157.095 284.383 158.318 283.088 159.182L283.643 160.014ZM286.027 155.449C286.027 153.526 285.263 152.007 283.736 150.959L283.17 151.783C284.408 152.633 285.027 153.834 285.027 155.449L286.027 155.449ZM283.734 150.958C282.223 149.929 280.08 149.442 277.373 149.43L277.369 150.43C279.982 150.441 281.895 150.915 283.172 151.784L283.734 150.958ZM277.371 149.43L276.123 149.43L276.123 150.43L277.371 150.43L277.371 149.43ZM282.117 116.86L282.23 117.348L282.21 116.369L282.117 116.86ZM263.906 113.415L263.406 113.415L263.406 113.829L263.813 113.906L263.906 113.415ZM263.906 108.159L264.015 107.671L263.406 107.536L263.406 108.159L263.906 108.159ZM289.5 113.837L290 113.837L290 113.436L289.608 113.349L289.5 113.837ZM289.5 119.145L289.618 119.631L290 119.538L290 119.145L289.5 119.145ZM272.379 123.311L272.261 122.826L272.261 123.797L272.379 123.311ZM289.5 127.478L290 127.478L290 127.085L289.618 126.992L289.5 127.478ZM289.5 132.786L289.608 133.274L290 133.187L290 132.786L289.5 132.786ZM263.906 138.464L263.406 138.464L263.406 139.087L264.015 138.952L263.906 138.464ZM263.906 133.208L263.813 132.717L263.406 132.794L263.406 133.208L263.906 133.208ZM282.082 129.745L282.176 130.236L282.195 129.258L282.082 129.745ZM263.906 125.526L263.406 125.526L263.406 125.924L263.793 126.013L263.906 125.526ZM263.906 121.061L263.794 120.574L263.406 120.664L263.406 121.061L263.906 121.061ZM282.21 116.369L263.999 112.924L263.813 113.906L282.024 117.352L282.21 116.369ZM264.406 113.415L264.406 108.159L263.406 108.159L263.406 113.415L264.406 113.415ZM263.798 108.647L289.392 114.325L289.608 113.349L264.015 107.671L263.798 108.647ZM289 113.837L289 119.145L290 119.145L290 113.837L289 113.837ZM289.382 118.66L272.261 122.826L272.497 123.797L289.618 119.631L289.382 118.66ZM272.261 123.797L289.382 127.963L289.618 126.992L272.497 122.826L272.261 123.797ZM289 127.478L289 132.786L290 132.786L290 127.478L289 127.478ZM289.392 132.298L263.798 137.976L264.015 138.952L289.608 133.274L289.392 132.298ZM264.406 138.464L264.406 133.208L263.406 133.208L263.406 138.464L264.406 138.464ZM264 133.699L282.176 130.236L281.988 129.254L263.813 132.717L264 133.699ZM282.195 129.258L264.019 125.039L263.793 126.013L281.969 130.232L282.195 129.258ZM264.406 125.526L264.406 121.061L263.406 121.061L263.406 125.526L264.406 125.526ZM264.019 121.549L282.23 117.348L282.005 116.373L263.794 120.574L264.019 121.549ZM289.5 80.5214L290 80.5214L290 80.0214L289.5 80.0214L289.5 80.5214ZM289.5 85.7948L289.76 86.2218L290 86.0756L290 85.7948L289.5 85.7948ZM272.66 96.0605L272.4 95.6335L270.879 96.5605L272.66 96.5605L272.66 96.0605ZM289.5 96.0605L290 96.0605L290 95.5605L289.5 95.5605L289.5 96.0605ZM289.5 101.334L289.5 101.834L290 101.834L290 101.334L289.5 101.334ZM263.906 101.334L263.406 101.334L263.406 101.834L263.906 101.834L263.906 101.334ZM263.906 96.0605L263.646 95.6335L263.406 95.7796L263.406 96.0605L263.906 96.0605ZM280.781 85.7773L281.041 86.2042L282.563 85.2773L280.781 85.2773L280.781 85.7773ZM263.906 85.7773L263.406 85.7773L263.406 86.2773L263.906 86.2773L263.906 85.7773ZM263.906 80.5214L263.906 80.0214L263.406 80.0214L263.406 80.5214L263.906 80.5214ZM289 80.5214L289 85.7948L290 85.7948L290 80.5214L289 80.5214ZM289.24 85.3679L272.4 95.6335L272.92 96.4874L289.76 86.2218L289.24 85.3679ZM272.66 96.5605L289.5 96.5605L289.5 95.5605L272.66 95.5605L272.66 96.5605ZM289 96.0605L289 101.334L290 101.334L290 96.0605L289 96.0605ZM289.5 100.834L263.906 100.834L263.906 101.834L289.5 101.834L289.5 100.834ZM264.406 101.334L264.406 96.0605L263.406 96.0605L263.406 101.334L264.406 101.334ZM264.166 96.4874L281.041 86.2042L280.521 85.3503L263.646 95.6335L264.166 96.4874ZM280.781 85.2773L263.906 85.2773L263.906 86.2773L280.781 86.2773L280.781 85.2773ZM264.406 85.7773L264.406 80.5214L263.406 80.5214L263.406 85.7773L264.406 85.7773ZM263.906 81.0214L289.5 81.0214L289.5 80.0214L263.906 80.0214L263.906 81.0214Z" fill="#78491F"/>
</g>
<path d="M14.2969 285V228.125H32.6172C37.6432 228.125 42.1615 229.271 46.1719 231.562C50.1823 233.828 53.3073 237.044 55.5469 241.211C57.8125 245.352 58.9583 250 58.9844 255.156V257.773C58.9844 262.982 57.8776 267.656 55.6641 271.797C53.4766 275.911 50.3776 279.141 46.3672 281.484C42.3828 283.802 37.9297 284.974 33.0078 285H14.2969ZM28.0078 238.711V274.453H32.7734C36.7057 274.453 39.7266 273.06 41.8359 270.273C43.9453 267.461 45 263.294 45 257.773V255.312C45 249.818 43.9453 245.677 41.8359 242.891C39.7266 240.104 36.6536 238.711 32.6172 238.711H28.0078ZM80.2023 273.908H70.0773V280.764H81.9602V285H64.8039V259.406H81.925V263.678H70.0773V269.777H80.2023V273.908ZM100.845 278.285C100.845 277.289 100.494 276.527 99.7907 276C99.0876 275.461 97.822 274.898 95.9938 274.312C94.1657 273.715 92.7184 273.129 91.652 272.555C88.7458 270.984 87.2927 268.869 87.2927 266.209C87.2927 264.826 87.6794 263.596 88.4528 262.518C89.238 261.428 90.3571 260.578 91.8102 259.969C93.2751 259.359 94.9157 259.055 96.7321 259.055C98.5602 259.055 100.189 259.389 101.619 260.057C103.049 260.713 104.156 261.645 104.941 262.852C105.738 264.059 106.136 265.43 106.136 266.965H100.863C100.863 265.793 100.494 264.885 99.7555 264.24C99.0173 263.584 97.9802 263.256 96.6442 263.256C95.3552 263.256 94.3532 263.531 93.6384 264.082C92.9235 264.621 92.5661 265.336 92.5661 266.227C92.5661 267.059 92.9821 267.756 93.8141 268.318C94.6579 268.881 95.8942 269.408 97.5231 269.9C100.523 270.803 102.709 271.922 104.08 273.258C105.451 274.594 106.136 276.258 106.136 278.25C106.136 280.465 105.299 282.205 103.623 283.471C101.947 284.725 99.6911 285.352 96.8552 285.352C94.8864 285.352 93.0934 284.994 91.4762 284.279C89.8591 283.553 88.6227 282.562 87.7673 281.309C86.9235 280.055 86.5016 278.602 86.5016 276.949H91.7927C91.7927 279.773 93.4802 281.186 96.8552 281.186C98.1091 281.186 99.0876 280.934 99.7907 280.43C100.494 279.914 100.845 279.199 100.845 278.285ZM120.258 274.734L117.516 277.688V285H112.242V259.406H117.516V271.008L119.836 267.826L126.358 259.406H132.844L123.756 270.779L133.108 285H126.832L120.258 274.734Z" fill="black"/>
<path d="M68.3851 28.8535C68.3851 28.1445 68.1361 27.585 67.638 27.1748C67.14 26.7588 66.2289 26.3662 64.9046 25.9971C63.5804 25.6221 62.6136 25.2148 62.0043 24.7754C61.1371 24.1543 60.7035 23.3398 60.7035 22.332C60.7035 21.3535 61.1048 20.5596 61.9076 19.9502C62.7162 19.335 63.7474 19.0273 65.0013 19.0273C65.8509 19.0273 66.6097 19.1914 67.2777 19.5195C67.9515 19.8477 68.473 20.3047 68.8421 20.8906C69.2113 21.4766 69.3959 22.1299 69.3959 22.8506H68.306C68.306 21.9775 68.0072 21.2773 67.4095 20.75C66.8119 20.2168 66.0091 19.9502 65.0013 19.9502C64.0228 19.9502 63.2435 20.1699 62.6634 20.6094C62.0834 21.043 61.7933 21.6113 61.7933 22.3145C61.7933 22.9648 62.0541 23.4951 62.5755 23.9053C63.097 24.3154 63.932 24.6787 65.0804 24.9951C66.2289 25.3057 67.099 25.6309 67.6908 25.9707C68.2826 26.3047 68.7279 26.7061 69.0267 27.1748C69.3255 27.6436 69.475 28.1973 69.475 28.8359C69.475 29.8438 69.0707 30.6523 68.2621 31.2617C67.4593 31.8711 66.3988 32.1758 65.0804 32.1758C64.1781 32.1758 63.349 32.0146 62.5931 31.6924C61.8431 31.3701 61.2718 30.9189 60.8793 30.3389C60.4925 29.7588 60.2992 29.0938 60.2992 28.3438H61.3802C61.3802 29.2461 61.7171 29.958 62.391 30.4795C63.0648 31.001 63.9613 31.2617 65.0804 31.2617C66.0765 31.2617 66.8763 31.042 67.4798 30.6025C68.0834 30.1631 68.3851 29.5801 68.3851 28.8535ZM82.8544 28.0098C82.7079 29.3574 82.2245 30.3887 81.4042 31.1035C80.5897 31.8184 79.5028 32.1758 78.1434 32.1758C77.1942 32.1758 76.3534 31.9385 75.621 31.4639C74.8944 30.9893 74.3319 30.3184 73.9335 29.4512C73.535 28.5781 73.3329 27.582 73.327 26.4629V24.8018C73.327 23.665 73.5262 22.6572 73.9247 21.7783C74.3231 20.8994 74.8944 20.2227 75.6385 19.748C76.3885 19.2676 77.2499 19.0273 78.2225 19.0273C79.5936 19.0273 80.6747 19.3994 81.4657 20.1436C82.2626 20.8818 82.7255 21.9043 82.8544 23.2109H81.7645C81.495 21.0371 80.3143 19.9502 78.2225 19.9502C77.0624 19.9502 76.1366 20.3838 75.4452 21.251C74.7596 22.1182 74.4169 23.3164 74.4169 24.8457V26.4102C74.4169 27.8867 74.7509 29.0645 75.4188 29.9434C76.0927 30.8223 77.0009 31.2617 78.1434 31.2617C79.2743 31.2617 80.1268 30.9922 80.701 30.4531C81.2753 29.9082 81.6298 29.0938 81.7645 28.0098H82.8544ZM96.9457 32H95.8559V25.8652H88.5434V32H87.4623V19.2031H88.5434V24.9512H95.8559V19.2031H96.9457V32ZM111.643 26.2959C111.643 27.4736 111.438 28.5078 111.028 29.3984C110.624 30.2891 110.044 30.9746 109.288 31.4551C108.532 31.9355 107.659 32.1758 106.669 32.1758C105.175 32.1758 103.968 31.6426 103.048 30.5762C102.128 29.5039 101.668 28.0596 101.668 26.2432V24.9248C101.668 23.7588 101.873 22.7275 102.283 21.8311C102.699 20.9287 103.285 20.2373 104.041 19.7568C104.797 19.2705 105.667 19.0273 106.651 19.0273C107.636 19.0273 108.503 19.2646 109.253 19.7393C110.009 20.2139 110.592 20.8848 111.002 21.752C111.412 22.6191 111.626 23.624 111.643 24.7666V26.2959ZM110.562 24.9072C110.562 23.3662 110.214 22.1592 109.517 21.2861C108.819 20.4131 107.864 19.9766 106.651 19.9766C105.462 19.9766 104.513 20.416 103.804 21.2949C103.101 22.168 102.749 23.3896 102.749 24.96V26.2959C102.749 27.8135 103.101 29.0176 103.804 29.9082C104.507 30.793 105.462 31.2354 106.669 31.2354C107.893 31.2354 108.849 30.7988 109.534 29.9258C110.22 29.0469 110.562 27.8252 110.562 26.2607V24.9072ZM125.805 26.2959C125.805 27.4736 125.6 28.5078 125.19 29.3984C124.786 30.2891 124.206 30.9746 123.45 31.4551C122.694 31.9355 121.821 32.1758 120.831 32.1758C119.336 32.1758 118.129 31.6426 117.209 30.5762C116.289 29.5039 115.83 28.0596 115.83 26.2432V24.9248C115.83 23.7588 116.035 22.7275 116.445 21.8311C116.861 20.9287 117.447 20.2373 118.203 19.7568C118.958 19.2705 119.829 19.0273 120.813 19.0273C121.797 19.0273 122.664 19.2646 123.414 19.7393C124.17 20.2139 124.753 20.8848 125.164 21.752C125.574 22.6191 125.788 23.624 125.805 24.7666V26.2959ZM124.724 24.9072C124.724 23.3662 124.375 22.1592 123.678 21.2861C122.981 20.4131 122.026 19.9766 120.813 19.9766C119.623 19.9766 118.674 20.416 117.965 21.2949C117.262 22.168 116.911 23.3896 116.911 24.96V26.2959C116.911 27.8135 117.262 29.0176 117.965 29.9082C118.668 30.793 119.623 31.2354 120.831 31.2354C122.055 31.2354 123.01 30.7988 123.696 29.9258C124.381 29.0469 124.724 27.8252 124.724 26.2607V24.9072ZM131.6 31.0859H137.919V32H130.51V19.2031H131.6V31.0859ZM155.581 28.8535C155.581 28.1445 155.332 27.585 154.834 27.1748C154.336 26.7588 153.425 26.3662 152.101 25.9971C150.776 25.6221 149.81 25.2148 149.2 24.7754C148.333 24.1543 147.899 23.3398 147.899 22.332C147.899 21.3535 148.301 20.5596 149.104 19.9502C149.912 19.335 150.943 19.0273 152.197 19.0273C153.047 19.0273 153.806 19.1914 154.474 19.5195C155.147 19.8477 155.669 20.3047 156.038 20.8906C156.407 21.4766 156.592 22.1299 156.592 22.8506H155.502C155.502 21.9775 155.203 21.2773 154.605 20.75C154.008 20.2168 153.205 19.9502 152.197 19.9502C151.219 19.9502 150.439 20.1699 149.859 20.6094C149.279 21.043 148.989 21.6113 148.989 22.3145C148.989 22.9648 149.25 23.4951 149.771 23.9053C150.293 24.3154 151.128 24.6787 152.276 24.9951C153.425 25.3057 154.295 25.6309 154.887 25.9707C155.479 26.3047 155.924 26.7061 156.223 27.1748C156.521 27.6436 156.671 28.1973 156.671 28.8359C156.671 29.8438 156.267 30.6523 155.458 31.2617C154.655 31.8711 153.595 32.1758 152.276 32.1758C151.374 32.1758 150.545 32.0146 149.789 31.6924C149.039 31.3701 148.468 30.9189 148.075 30.3389C147.688 29.7588 147.495 29.0938 147.495 28.3438H148.576C148.576 29.2461 148.913 29.958 149.587 30.4795C150.261 31.001 151.157 31.2617 152.276 31.2617C153.272 31.2617 154.072 31.042 154.676 30.6025C155.279 30.1631 155.581 29.5801 155.581 28.8535ZM169.804 19.2031V27.9395C169.798 28.8008 169.608 29.5508 169.233 30.1895C168.858 30.8281 168.328 31.3203 167.642 31.666C166.962 32.0059 166.18 32.1758 165.295 32.1758C163.948 32.1758 162.867 31.8096 162.052 31.0771C161.244 30.3389 160.825 29.3193 160.795 28.0186V19.2031H161.868V27.8604C161.868 28.9385 162.175 29.7764 162.791 30.374C163.406 30.9658 164.241 31.2617 165.295 31.2617C166.35 31.2617 167.182 30.9629 167.792 30.3652C168.407 29.7676 168.714 28.9355 168.714 27.8691V19.2031H169.804ZM175.88 26.7881V32H174.799V19.2031H179.158C180.488 19.2031 181.537 19.543 182.305 20.2227C183.078 20.9023 183.465 21.8369 183.465 23.0264C183.465 24.2275 183.093 25.1562 182.349 25.8125C181.61 26.4629 180.538 26.7881 179.132 26.7881H175.88ZM175.88 25.874H179.158C180.207 25.874 181.007 25.625 181.558 25.127C182.108 24.6289 182.384 23.9346 182.384 23.0439C182.384 22.1592 182.108 21.4561 181.558 20.9346C181.013 20.4072 180.236 20.1377 179.229 20.126H175.88V25.874ZM188.952 26.7881V32H187.871V19.2031H192.23C193.56 19.2031 194.609 19.543 195.377 20.2227C196.15 20.9023 196.537 21.8369 196.537 23.0264C196.537 24.2275 196.165 25.1562 195.42 25.8125C194.682 26.4629 193.61 26.7881 192.204 26.7881H188.952ZM188.952 25.874H192.23C193.279 25.874 194.079 25.625 194.629 25.127C195.18 24.6289 195.456 23.9346 195.456 23.0439C195.456 22.1592 195.18 21.4561 194.629 20.9346C194.085 20.4072 193.308 20.1377 192.3 20.126H188.952V25.874ZM202.032 31.0859H208.352V32H200.942V19.2031H202.032V31.0859ZM213.733 32H212.652V19.2031H213.733V32ZM226.26 25.8652H220.275V31.0859H227.156V32H219.193V19.2031H227.112V20.126H220.275V24.9512H226.26V25.8652ZM238.664 28.8535C238.664 28.1445 238.415 27.585 237.917 27.1748C237.419 26.7588 236.507 26.3662 235.183 25.9971C233.859 25.6221 232.892 25.2148 232.283 24.7754C231.416 24.1543 230.982 23.3398 230.982 22.332C230.982 21.3535 231.383 20.5596 232.186 19.9502C232.995 19.335 234.026 19.0273 235.28 19.0273C236.13 19.0273 236.888 19.1914 237.556 19.5195C238.23 19.8477 238.752 20.3047 239.121 20.8906C239.49 21.4766 239.674 22.1299 239.674 22.8506H238.585C238.585 21.9775 238.286 21.2773 237.688 20.75C237.09 20.2168 236.288 19.9502 235.28 19.9502C234.301 19.9502 233.522 20.1699 232.942 20.6094C232.362 21.043 232.072 21.6113 232.072 22.3145C232.072 22.9648 232.333 23.4951 232.854 23.9053C233.376 24.3154 234.211 24.6787 235.359 24.9951C236.507 25.3057 237.378 25.6309 237.969 25.9707C238.561 26.3047 239.006 26.7061 239.305 27.1748C239.604 27.6436 239.754 28.1973 239.754 28.8359C239.754 29.8438 239.349 30.6523 238.541 31.2617C237.738 31.8711 236.677 32.1758 235.359 32.1758C234.457 32.1758 233.628 32.0146 232.872 31.6924C232.122 31.3701 231.55 30.9189 231.158 30.3389C230.771 29.7588 230.578 29.0938 230.578 28.3438H231.659C231.659 29.2461 231.996 29.958 232.67 30.4795C233.343 31.001 234.24 31.2617 235.359 31.2617C236.355 31.2617 237.155 31.042 237.758 30.6025C238.362 30.1631 238.664 29.5801 238.664 28.8535Z" fill="black"/>
<path fill-rule="evenodd" clip-rule="evenodd" d="M93.2017 141.315L182.073 124.422V89.8673L93.2017 88.6936V141.315Z" fill="#A16632"/>
<path fill-rule="evenodd" clip-rule="evenodd" d="M87.3549 87.5242V176.3L90.8629 179.903V89.117L87.3549 87.5242Z" fill="#E2B47C"/>
<path fill-rule="evenodd" clip-rule="evenodd" d="M95.5403 88.901V176.947L90.8629 178.734V88.6936L95.5403 88.901Z" fill="#9A5C24"/>
<path fill-rule="evenodd" clip-rule="evenodd" d="M118.927 102.726V200.492L122.435 204.46V104.48L118.927 102.726Z" fill="#E2B47C"/>
<path fill-rule="evenodd" clip-rule="evenodd" d="M127.113 104.126V202.464L122.436 204.46V103.895L127.113 104.126Z" fill="#9A5C24"/>
<path fill-rule="evenodd" clip-rule="evenodd" d="M182.073 80.5081V154.654L184.411 156.516V81.8384L182.073 80.5081Z" fill="#E2B47C"/>
<path fill-rule="evenodd" clip-rule="evenodd" d="M187.919 81.8521V155.008L184.411 156.516V81.6774L187.919 81.8521Z" fill="#9A5C24"/>
<path fill-rule="evenodd" clip-rule="evenodd" d="M207.798 93.371V171.684L211.306 174.056V94.8335L207.798 93.371Z" fill="#E2B47C"/>
<path fill-rule="evenodd" clip-rule="evenodd" d="M215.984 94.7326V172.396L211.306 174.056V94.5403L215.984 94.7326Z" fill="#9A5C24"/>
<path fill-rule="evenodd" clip-rule="evenodd" d="M78 81.6774V86.2514L124.774 108.573V103.453L78 81.6774Z" fill="#F3CA97"/>
<path fill-rule="evenodd" clip-rule="evenodd" d="M223 91.0322V95.669L124.774 108.573V103.382L223 91.0322Z" fill="#E1AB6B"/>
<path fill-rule="evenodd" clip-rule="evenodd" d="M78 81.5286L183.093 77L223 90.8672L125.015 102.726L78 81.5286Z" fill="#A78869"/>
<path fill-rule="evenodd" clip-rule="evenodd" d="M137.946 140.145L137.637 195.274L140.836 198.613L141.145 141.621L137.946 140.145Z" fill="#E2AC6E"/>
<path fill-rule="evenodd" clip-rule="evenodd" d="M145.823 141.509L145.537 196.934L141.145 198.613L141.43 141.314L145.823 141.509Z" fill="#9A5C24"/>
<path fill-rule="evenodd" clip-rule="evenodd" d="M168.321 154.177L168.04 218.295L171.268 222L171.548 155.815L168.321 154.177Z" fill="#E2AC6E"/>
<path fill-rule="evenodd" clip-rule="evenodd" d="M176.226 155.563L175.967 220.135L171.548 222L171.807 155.347L176.226 155.563Z" fill="#9A5C24"/>
<path fill-rule="evenodd" clip-rule="evenodd" d="M178.888 131.96L178.564 183.501L181.749 185.75L182.073 133.377L178.888 131.96Z" fill="#E2AC6E"/>
<path fill-rule="evenodd" clip-rule="evenodd" d="M185.581 133.311L185.281 182.937L180.903 184.581L181.203 133.129L185.581 133.311Z" fill="#D28E45"/>
<path fill-rule="evenodd" clip-rule="evenodd" d="M206.923 144.823L206.629 203.696L209.843 205.629L210.137 146.388L206.923 144.823Z" fill="#E2AC6E"/>
<path fill-rule="evenodd" clip-rule="evenodd" d="M214.815 147.364L214.543 203.882L210.137 205.629L210.409 147.161L214.815 147.364Z" fill="#9A5C24"/>
<path fill-rule="evenodd" clip-rule="evenodd" d="M134.129 140.145V144.406L172.718 168.21V163.441L134.129 140.145Z" fill="#F1C48B"/>
<path fill-rule="evenodd" clip-rule="evenodd" d="M218.323 148.331V152.571L172.718 167.04V162.294L218.323 148.331Z" fill="#E1A25B"/>
<path fill-rule="evenodd" clip-rule="evenodd" d="M134.129 140.147L182.971 129.621L218.323 149.449L172.881 163.532L134.129 140.147Z" fill="#A78869"/>
<path fill-rule="evenodd" clip-rule="evenodd" d="M171.836 93.371L171.548 159.105L174.776 161.194L175.056 95.0085L171.836 93.371Z" fill="#E2AC6E"/>
<path fill-rule="evenodd" clip-rule="evenodd" d="M179.734 94.7565L179.475 159.328L175.056 161.194L175.315 94.5403L179.734 94.7565Z" fill="#9A5C24"/>
<path fill-rule="evenodd" clip-rule="evenodd" d="M202.246 91.0322L201.952 149.906L205.165 151.839L205.46 92.5971L202.246 91.0322Z" fill="#E2AC6E"/>
<path fill-rule="evenodd" clip-rule="evenodd" d="M210.137 92.4037L209.553 149.485L205.46 150.669L205.732 92.2017L210.137 92.4037Z" fill="#9A5C24"/>
<path fill-rule="evenodd" clip-rule="evenodd" d="M163.762 87.5242L163.363 116.552L167.787 119.097L168.04 88.8581L163.762 87.5242Z" fill="#F1C48B"/>
<path fill-rule="evenodd" clip-rule="evenodd" d="M220.661 80.5081L218.684 106.737L168.04 119.097L168.305 88.7535L220.661 80.5081Z" fill="#E1A25B"/>
<path fill-rule="evenodd" clip-rule="evenodd" d="M163.363 87.2991L218.248 79.3387L220.661 80.1031L167.871 88.6936L163.363 87.2991Z" fill="#F9D3A0"/>
<defs>
<filter id="filter0_d" x="262.055" y="79.0214" width="31.2969" height="143.992" filterUnits="userSpaceOnUse" color-interpolation-filters="sRGB">
<feFlood flood-opacity="0" result="BackgroundImageFix"/>
<feColorMatrix in="SourceAlpha" type="matrix" values="0 0 0 0 0 0 0 0 0 0 0 0 0 0 0 0 0 0 127 0"/>
<feOffset dx="1" dy="1"/>
<feGaussianBlur stdDeviation="1"/>
<feColorMatrix type="matrix" values="0 0 0 0 0 0 0 0 0 0 0 0 0 0 0 0 0 0 0.15 0"/>
<feBlend mode="normal" in2="BackgroundImageFix" result="effect1_dropShadow"/>
<feBlend mode="normal" in="SourceGraphic" in2="effect1_dropShadow" result="shape"/>
</filter>
<radialGradient id="paint0_radial" cx="0" cy="0" r="1" gradientUnits="userSpaceOnUse" gradientTransform="translate(150 150) rotate(90) scale(150)">
<stop offset="0.296875" stop-color="white" stop-opacity="0"/>
<stop offset="0.947917" stop-color="#826419" stop-opacity="0.83"/>
</radialGradient>
</defs>
</svg>
