<svg width="300" height="300" viewBox="0 0 300 300" fill="none" xmlns="http://www.w3.org/2000/svg">
<rect width="300" height="300" fill="white"/>
<rect width="300" height="300" fill="white"/>
<rect width="300" height="300" fill="white"/>
<rect width="300" height="300" fill="url(#paint0_radial)" fill-opacity="0.11"/>
<g filter="url(#filter0_d)">
<path d="M286.266 192.109C287.402 193.059 288.287 194.4 288.92 196.135C289.541 197.869 289.852 199.791 289.852 201.9C289.852 204.115 289.371 206.061 288.41 207.736C287.437 209.4 286.031 210.69 284.191 211.604C282.352 212.506 280.189 212.969 277.705 212.992L275.965 212.992C273.41 212.992 271.201 212.565 269.338 211.709C267.463 210.842 266.033 209.6 265.049 207.982C264.053 206.354 263.555 204.449 263.555 202.27C263.555 199.234 264.281 196.861 265.734 195.15C267.176 193.44 269.279 192.426 272.045 192.109L272.045 197.242C270.58 197.477 269.508 197.998 268.828 198.807C268.148 199.604 267.809 200.705 267.809 202.111C267.809 203.904 268.482 205.27 269.83 206.207C271.178 207.145 273.182 207.619 275.842 207.631L277.477 207.631C280.16 207.631 282.187 207.121 283.559 206.102C284.93 205.082 285.615 203.588 285.615 201.619C285.615 199.639 285.193 198.227 284.35 197.383L279.937 197.383L279.937 202.182L276.053 202.182L276.053 192.109L286.266 192.109ZM280.131 174.386L280.131 178.587L289.5 178.587L289.5 183.86L263.906 183.86L263.906 174.351C263.906 171.327 264.58 168.995 265.928 167.355C267.275 165.714 269.18 164.894 271.641 164.894C273.387 164.894 274.846 165.274 276.018 166.036C277.178 166.786 278.104 167.929 278.795 169.464L289.254 163.927L289.5 163.927L289.5 169.587L280.131 174.386ZM275.859 178.587L275.859 174.333C275.859 173.009 275.525 171.983 274.857 171.257C274.178 170.53 273.246 170.167 272.062 170.167C270.855 170.167 269.906 170.513 269.215 171.204C268.523 171.884 268.178 172.933 268.178 174.351L268.178 178.587L275.859 178.587ZM278.408 141.51L278.408 151.635L285.264 151.635L285.264 139.752L289.5 139.752L289.5 156.908L263.906 156.908L263.906 139.787L268.178 139.787L268.178 151.635L274.277 151.635L274.277 141.51L278.408 141.51ZM278.408 117.3L278.408 127.425L285.264 127.425L285.264 115.542L289.5 115.542L289.5 132.698L263.906 132.698L263.906 115.577L268.178 115.577L268.178 127.425L274.277 127.425L274.277 117.3L278.408 117.3ZM289.5 87.6757L289.5 92.9491L272.66 103.215L289.5 103.215L289.5 108.488L263.906 108.488L263.906 103.215L280.781 92.9316L263.906 92.9316L263.906 87.6757L289.5 87.6757Z" fill="white"/>
<path d="M286.266 192.109L286.586 191.726L286.447 191.609L286.266 191.609L286.266 192.109ZM288.92 196.135L289.391 195.966L289.39 195.963L288.92 196.135ZM288.41 207.736L288.842 207.989L288.844 207.985L288.41 207.736ZM284.191 211.604L284.412 212.053L284.414 212.051L284.191 211.604ZM277.705 212.992L277.705 213.492L277.71 213.492L277.705 212.992ZM269.338 211.709L269.128 212.163L269.129 212.163L269.338 211.709ZM265.049 207.982L265.476 207.723L265.475 207.722L265.049 207.982ZM265.734 195.15L266.115 195.474L266.117 195.473L265.734 195.15ZM272.045 192.109L272.545 192.109L272.545 191.549L271.988 191.613L272.045 192.109ZM272.045 197.242L272.124 197.736L272.545 197.669L272.545 197.242L272.045 197.242ZM268.828 198.807L269.209 199.131L269.211 199.128L268.828 198.807ZM275.842 207.631L275.84 208.131L275.842 208.131L275.842 207.631ZM284.35 197.383L284.703 197.029L284.557 196.883L284.35 196.883L284.35 197.383ZM279.937 197.383L279.937 196.883L279.437 196.883L279.437 197.383L279.937 197.383ZM279.937 202.182L279.937 202.682L280.437 202.682L280.437 202.182L279.937 202.182ZM276.053 202.182L275.553 202.182L275.553 202.682L276.053 202.682L276.053 202.182ZM276.053 192.109L276.053 191.609L275.553 191.609L275.553 192.109L276.053 192.109ZM285.945 192.493C287 193.374 287.84 194.634 288.45 196.306L289.39 195.963C288.734 194.167 287.805 192.744 286.586 191.726L285.945 192.493ZM288.449 196.303C289.048 197.976 289.352 199.84 289.352 201.9L290.352 201.9C290.352 199.742 290.034 197.762 289.391 195.966L288.449 196.303ZM289.352 201.9C289.352 204.041 288.888 205.898 287.976 207.488L288.844 207.985C289.854 206.223 290.352 204.19 290.352 201.9L289.352 201.9ZM287.978 207.484C287.058 209.058 285.728 210.282 283.969 211.156L284.414 212.051C286.335 211.097 287.817 209.743 288.842 207.989L287.978 207.484ZM283.971 211.155C282.211 212.018 280.126 212.469 277.7 212.492L277.71 213.492C280.253 213.468 282.492 212.994 284.412 212.053L283.971 211.155ZM277.705 212.492L275.965 212.492L275.965 213.492L277.705 213.492L277.705 212.492ZM275.965 212.492C273.465 212.492 271.33 212.074 269.547 211.255L269.129 212.163C271.072 213.055 273.355 213.492 275.965 213.492L275.965 212.492ZM269.548 211.255C267.754 210.426 266.404 209.247 265.476 207.723L264.622 208.242C265.662 209.952 267.172 211.258 269.128 212.163L269.548 211.255ZM265.475 207.722C264.534 206.182 264.055 204.371 264.055 202.27L263.055 202.27C263.055 204.528 263.572 206.525 264.622 208.243L265.475 207.722ZM264.055 202.27C264.055 199.311 264.762 197.067 266.115 195.474L265.353 194.827C263.8 196.656 263.055 199.158 263.055 202.27L264.055 202.27ZM266.117 195.473C267.457 193.882 269.43 192.912 272.102 192.606L271.988 191.613C269.128 191.94 266.895 192.997 265.352 194.828L266.117 195.473ZM271.545 192.109L271.545 197.242L272.545 197.242L272.545 192.109L271.545 192.109ZM271.966 196.749C270.43 196.994 269.229 197.553 268.445 198.485L269.211 199.128C269.787 198.443 270.73 197.959 272.124 197.736L271.966 196.749ZM268.448 198.482C267.668 199.397 267.309 200.627 267.309 202.111L268.309 202.111C268.309 200.783 268.629 199.811 269.209 199.131L268.448 198.482ZM267.309 202.111C267.309 204.05 268.049 205.577 269.545 206.618L270.116 205.797C268.916 204.962 268.309 203.758 268.309 202.111L267.309 202.111ZM269.545 206.618C271.013 207.639 273.135 208.119 275.84 208.131L275.844 207.131C273.228 207.119 271.343 206.65 270.116 205.797L269.545 206.618ZM275.842 208.131L277.477 208.131L277.477 207.131L275.842 207.131L275.842 208.131ZM277.477 208.131C280.21 208.131 282.363 207.614 283.857 206.503L283.26 205.7C282.012 206.628 280.11 207.131 277.477 207.131L277.477 208.131ZM283.857 206.503C285.375 205.374 286.115 203.719 286.115 201.619L285.115 201.619C285.115 203.457 284.484 204.79 283.26 205.7L283.857 206.503ZM286.115 201.619C286.115 199.589 285.686 198.013 284.703 197.029L283.996 197.736C284.7 198.441 285.115 199.688 285.115 201.619L286.115 201.619ZM284.35 196.883L279.937 196.883L279.937 197.883L284.35 197.883L284.35 196.883ZM279.437 197.383L279.437 202.182L280.437 202.182L280.437 197.383L279.437 197.383ZM279.937 201.682L276.053 201.682L276.053 202.682L279.937 202.682L279.937 201.682ZM276.553 202.182L276.553 192.109L275.553 192.109L275.553 202.182L276.553 202.182ZM276.053 192.609L286.266 192.609L286.266 191.609L276.053 191.609L276.053 192.609ZM280.131 174.386L279.903 173.941L279.631 174.08L279.631 174.386L280.131 174.386ZM280.131 178.587L279.631 178.587L279.631 179.087L280.131 179.087L280.131 178.587ZM289.5 178.587L290 178.587L290 178.087L289.5 178.087L289.5 178.587ZM289.5 183.86L289.5 184.36L290 184.36L290 183.86L289.5 183.86ZM263.906 183.86L263.406 183.86L263.406 184.36L263.906 184.36L263.906 183.86ZM276.018 166.036L275.745 166.455L275.746 166.456L276.018 166.036ZM278.795 169.464L278.339 169.669L278.558 170.155L279.029 169.906L278.795 169.464ZM289.254 163.927L289.254 163.427L289.13 163.427L289.02 163.485L289.254 163.927ZM289.5 163.927L290 163.927L290 163.427L289.5 163.427L289.5 163.927ZM289.5 169.587L289.728 170.032L290 169.893L290 169.587L289.5 169.587ZM275.859 178.587L275.859 179.087L276.359 179.087L276.359 178.587L275.859 178.587ZM274.857 171.257L275.226 170.918L275.223 170.915L274.857 171.257ZM269.215 171.204L269.565 171.561L269.568 171.558L269.215 171.204ZM268.178 178.587L267.678 178.587L267.678 179.087L268.178 179.087L268.178 178.587ZM279.631 174.386L279.631 178.587L280.631 178.587L280.631 174.386L279.631 174.386ZM280.131 179.087L289.5 179.087L289.5 178.087L280.131 178.087L280.131 179.087ZM289 178.587L289 183.86L290 183.86L290 178.587L289 178.587ZM289.5 183.36L263.906 183.36L263.906 184.36L289.5 184.36L289.5 183.36ZM264.406 183.86L264.406 174.351L263.406 174.351L263.406 183.86L264.406 183.86ZM264.406 174.351C264.406 171.395 265.066 169.192 266.314 167.672L265.541 167.037C264.095 168.798 263.406 171.26 263.406 174.351L264.406 174.351ZM266.314 167.672C267.551 166.166 269.303 165.394 271.641 165.394L271.641 164.394C269.057 164.394 267 165.262 265.541 167.037L266.314 167.672ZM271.641 165.394C273.314 165.394 274.672 165.758 275.745 166.455L276.29 165.617C275.019 164.791 273.459 164.394 271.641 164.394L271.641 165.394ZM275.746 166.456C276.809 167.143 277.678 168.203 278.339 169.669L279.251 169.259C278.529 167.655 277.546 166.429 276.289 165.616L275.746 166.456ZM279.029 169.906L289.488 164.369L289.02 163.485L278.561 169.022L279.029 169.906ZM289.254 164.427L289.5 164.427L289.5 163.427L289.254 163.427L289.254 164.427ZM289 163.927L289 169.587L290 169.587L290 163.927L289 163.927ZM289.272 169.142L279.903 173.941L280.359 174.831L289.728 170.032L289.272 169.142ZM276.359 178.587L276.359 174.333L275.359 174.333L275.359 178.587L276.359 178.587ZM276.359 174.333C276.359 172.927 276.004 171.765 275.226 170.918L274.489 171.595C275.047 172.202 275.359 173.091 275.359 174.333L276.359 174.333ZM275.223 170.915C274.43 170.069 273.356 169.667 272.062 169.667L272.062 170.667C273.136 170.667 273.925 170.992 274.492 171.598L275.223 170.915ZM272.062 169.667C270.756 169.667 269.667 170.044 268.861 170.851L269.568 171.558C270.145 170.981 270.955 170.667 272.062 170.667L272.062 169.667ZM268.864 170.848C268.041 171.657 267.678 172.861 267.678 174.351L268.678 174.351C268.678 173.005 269.006 172.11 269.565 171.561L268.864 170.848ZM267.678 174.351L267.678 178.587L268.678 178.587L268.678 174.351L267.678 174.351ZM268.178 179.087L275.859 179.087L275.859 178.087L268.178 178.087L268.178 179.087ZM278.408 141.51L278.908 141.51L278.908 141.01L278.408 141.01L278.408 141.51ZM278.408 151.635L277.908 151.635L277.908 152.135L278.408 152.135L278.408 151.635ZM285.264 151.635L285.264 152.135L285.764 152.135L285.764 151.635L285.264 151.635ZM285.264 139.752L285.264 139.252L284.764 139.252L284.764 139.752L285.264 139.752ZM289.5 139.752L290 139.752L290 139.252L289.5 139.252L289.5 139.752ZM289.5 156.908L289.5 157.408L290 157.408L290 156.908L289.5 156.908ZM263.906 156.908L263.406 156.908L263.406 157.408L263.906 157.408L263.906 156.908ZM263.906 139.787L263.906 139.287L263.406 139.287L263.406 139.787L263.906 139.787ZM268.178 139.787L268.678 139.787L268.678 139.287L268.178 139.287L268.178 139.787ZM268.178 151.635L267.678 151.635L267.678 152.135L268.178 152.135L268.178 151.635ZM274.277 151.635L274.277 152.135L274.777 152.135L274.777 151.635L274.277 151.635ZM274.277 141.51L274.277 141.01L273.777 141.01L273.777 141.51L274.277 141.51ZM277.908 141.51L277.908 151.635L278.908 151.635L278.908 141.51L277.908 141.51ZM278.408 152.135L285.264 152.135L285.264 151.135L278.408 151.135L278.408 152.135ZM285.764 151.635L285.764 139.752L284.764 139.752L284.764 151.635L285.764 151.635ZM285.264 140.252L289.5 140.252L289.5 139.252L285.264 139.252L285.264 140.252ZM289 139.752L289 156.908L290 156.908L290 139.752L289 139.752ZM289.5 156.408L263.906 156.408L263.906 157.408L289.5 157.408L289.5 156.408ZM264.406 156.908L264.406 139.787L263.406 139.787L263.406 156.908L264.406 156.908ZM263.906 140.287L268.178 140.287L268.178 139.287L263.906 139.287L263.906 140.287ZM267.678 139.787L267.678 151.635L268.678 151.635L268.678 139.787L267.678 139.787ZM268.178 152.135L274.277 152.135L274.277 151.135L268.178 151.135L268.178 152.135ZM274.777 151.635L274.777 141.51L273.777 141.51L273.777 151.635L274.777 151.635ZM274.277 142.01L278.408 142.01L278.408 141.01L274.277 141.01L274.277 142.01ZM278.408 117.3L278.908 117.3L278.908 116.8L278.408 116.8L278.408 117.3ZM278.408 127.425L277.908 127.425L277.908 127.925L278.408 127.925L278.408 127.425ZM285.264 127.425L285.264 127.925L285.764 127.925L285.764 127.425L285.264 127.425ZM285.264 115.542L285.264 115.042L284.764 115.042L284.764 115.542L285.264 115.542ZM289.5 115.542L290 115.542L290 115.042L289.5 115.042L289.5 115.542ZM289.5 132.698L289.5 133.198L290 133.198L290 132.698L289.5 132.698ZM263.906 132.698L263.406 132.698L263.406 133.198L263.906 133.198L263.906 132.698ZM263.906 115.577L263.906 115.077L263.406 115.077L263.406 115.577L263.906 115.577ZM268.178 115.577L268.678 115.577L268.678 115.077L268.178 115.077L268.178 115.577ZM268.178 127.425L267.678 127.425L267.678 127.925L268.178 127.925L268.178 127.425ZM274.277 127.425L274.277 127.925L274.777 127.925L274.777 127.425L274.277 127.425ZM274.277 117.3L274.277 116.8L273.777 116.8L273.777 117.3L274.277 117.3ZM277.908 117.3L277.908 127.425L278.908 127.425L278.908 117.3L277.908 117.3ZM278.408 127.925L285.264 127.925L285.264 126.925L278.408 126.925L278.408 127.925ZM285.764 127.425L285.764 115.542L284.764 115.542L284.764 127.425L285.764 127.425ZM285.264 116.042L289.5 116.042L289.5 115.042L285.264 115.042L285.264 116.042ZM289 115.542L289 132.698L290 132.698L290 115.542L289 115.542ZM289.5 132.198L263.906 132.198L263.906 133.198L289.5 133.198L289.5 132.198ZM264.406 132.698L264.406 115.577L263.406 115.577L263.406 132.698L264.406 132.698ZM263.906 116.077L268.178 116.077L268.178 115.077L263.906 115.077L263.906 116.077ZM267.678 115.577L267.678 127.425L268.678 127.425L268.678 115.577L267.678 115.577ZM268.178 127.925L274.277 127.925L274.277 126.925L268.178 126.925L268.178 127.925ZM274.777 127.425L274.777 117.3L273.777 117.3L273.777 127.425L274.777 127.425ZM274.277 117.8L278.408 117.8L278.408 116.8L274.277 116.8L274.277 117.8ZM289.5 87.6757L290 87.6757L290 87.1757L289.5 87.1757L289.5 87.6757ZM289.5 92.9491L289.76 93.3761L290 93.2299L290 92.9491L289.5 92.9491ZM272.66 103.215L272.4 102.788L270.879 103.715L272.66 103.715L272.66 103.215ZM289.5 103.215L290 103.215L290 102.715L289.5 102.715L289.5 103.215ZM289.5 108.488L289.5 108.988L290 108.988L290 108.488L289.5 108.488ZM263.906 108.488L263.406 108.488L263.406 108.988L263.906 108.988L263.906 108.488ZM263.906 103.215L263.646 102.788L263.406 102.934L263.406 103.215L263.906 103.215ZM280.781 92.9316L281.041 93.3585L282.563 92.4316L280.781 92.4316L280.781 92.9316ZM263.906 92.9316L263.406 92.9316L263.406 93.4316L263.906 93.4316L263.906 92.9316ZM263.906 87.6757L263.906 87.1757L263.406 87.1757L263.406 87.6757L263.906 87.6757ZM289 87.6757L289 92.9491L290 92.9491L290 87.6757L289 87.6757ZM289.24 92.5222L272.4 102.788L272.92 103.642L289.76 93.3761L289.24 92.5222ZM272.66 103.715L289.5 103.715L289.5 102.715L272.66 102.715L272.66 103.715ZM289 103.215L289 108.488L290 108.488L290 103.215L289 103.215ZM289.5 107.988L263.906 107.988L263.906 108.988L289.5 108.988L289.5 107.988ZM264.406 108.488L264.406 103.215L263.406 103.215L263.406 108.488L264.406 108.488ZM264.166 103.642L281.041 93.3585L280.521 92.5046L263.646 102.788L264.166 103.642ZM280.781 92.4316L263.906 92.4316L263.906 93.4316L280.781 93.4316L280.781 92.4316ZM264.406 92.9316L264.406 87.6757L263.406 87.6757L263.406 92.9316L264.406 92.9316ZM263.906 88.1757L289.5 88.1757L289.5 87.1757L263.906 87.1757L263.906 88.1757Z" fill="#297504"/>
</g>
<path d="M14.2969 285V228.125H32.6172C37.6432 228.125 42.1615 229.271 46.1719 231.562C50.1823 233.828 53.3073 237.044 55.5469 241.211C57.8125 245.352 58.9583 250 58.9844 255.156V257.773C58.9844 262.982 57.8776 267.656 55.6641 271.797C53.4766 275.911 50.3776 279.141 46.3672 281.484C42.3828 283.802 37.9297 284.974 33.0078 285H14.2969ZM28.0078 238.711V274.453H32.7734C36.7057 274.453 39.7266 273.06 41.8359 270.273C43.9453 267.461 45 263.294 45 257.773V255.312C45 249.818 43.9453 245.677 41.8359 242.891C39.7266 240.104 36.6536 238.711 32.6172 238.711H28.0078ZM85.8273 272.783C85.8273 275.303 85.382 277.512 84.4914 279.41C83.6008 281.309 82.3234 282.773 80.6594 283.805C79.007 284.836 77.1086 285.352 74.9641 285.352C72.843 285.352 70.9504 284.842 69.2863 283.822C67.6223 282.803 66.3332 281.35 65.4191 279.463C64.5051 277.564 64.0422 275.385 64.0305 272.924V271.658C64.0305 269.139 64.4816 266.924 65.384 265.014C66.298 263.092 67.5812 261.621 69.2336 260.602C70.8977 259.57 72.7961 259.055 74.9289 259.055C77.0617 259.055 78.9543 259.57 80.6066 260.602C82.2707 261.621 83.5539 263.092 84.4562 265.014C85.3703 266.924 85.8273 269.133 85.8273 271.641V272.783ZM80.4836 271.623C80.4836 268.939 80.0031 266.9 79.0422 265.506C78.0812 264.111 76.7102 263.414 74.9289 263.414C73.1594 263.414 71.7941 264.105 70.8332 265.488C69.8723 266.859 69.3859 268.875 69.3742 271.535V272.783C69.3742 275.396 69.8547 277.424 70.8156 278.865C71.7766 280.307 73.1594 281.027 74.9641 281.027C76.7336 281.027 78.093 280.336 79.0422 278.953C79.9914 277.559 80.4719 275.531 80.4836 272.871V271.623ZM98.5328 280.764H109.73V285H93.2594V259.406H98.5328V280.764ZM121.645 280.764H132.842V285H116.371V259.406H121.645V280.764Z" fill="black"/>
<path d="M135.525 20.126H131.139V32H130.058V20.126H125.681V19.2031H135.525V20.126ZM148.79 26.2959C148.79 27.4736 148.585 28.5078 148.175 29.3984C147.771 30.2891 147.191 30.9746 146.435 31.4551C145.679 31.9355 144.806 32.1758 143.816 32.1758C142.322 32.1758 141.114 31.6426 140.195 30.5762C139.275 29.5039 138.815 28.0596 138.815 26.2432V24.9248C138.815 23.7588 139.02 22.7275 139.43 21.8311C139.846 20.9287 140.432 20.2373 141.188 19.7568C141.944 19.2705 142.814 19.0273 143.798 19.0273C144.782 19.0273 145.65 19.2646 146.4 19.7393C147.156 20.2139 147.739 20.8848 148.149 21.752C148.559 22.6191 148.773 23.624 148.79 24.7666V26.2959ZM147.709 24.9072C147.709 23.3662 147.361 22.1592 146.663 21.2861C145.966 20.4131 145.011 19.9766 143.798 19.9766C142.609 19.9766 141.659 20.416 140.95 21.2949C140.247 22.168 139.896 23.3896 139.896 24.96V26.2959C139.896 27.8135 140.247 29.0176 140.95 29.9082C141.654 30.793 142.609 31.2354 143.816 31.2354C145.04 31.2354 145.995 30.7988 146.681 29.9258C147.366 29.0469 147.709 27.8252 147.709 26.2607V24.9072ZM156.861 26.1816L160.772 19.2031H162.02L157.397 27.1836V32H156.316V27.1836L151.702 19.2031H152.985L156.861 26.1816ZM172.965 28.8535C172.965 28.1445 172.716 27.585 172.218 27.1748C171.72 26.7588 170.809 26.3662 169.485 25.9971C168.16 25.6221 167.194 25.2148 166.584 24.7754C165.717 24.1543 165.283 23.3398 165.283 22.332C165.283 21.3535 165.685 20.5596 166.488 19.9502C167.296 19.335 168.327 19.0273 169.581 19.0273C170.431 19.0273 171.19 19.1914 171.858 19.5195C172.532 19.8477 173.053 20.3047 173.422 20.8906C173.791 21.4766 173.976 22.1299 173.976 22.8506H172.886C172.886 21.9775 172.587 21.2773 171.99 20.75C171.392 20.2168 170.589 19.9502 169.581 19.9502C168.603 19.9502 167.824 20.1699 167.243 20.6094C166.663 21.043 166.373 21.6113 166.373 22.3145C166.373 22.9648 166.634 23.4951 167.156 23.9053C167.677 24.3154 168.512 24.6787 169.66 24.9951C170.809 25.3057 171.679 25.6309 172.271 25.9707C172.863 26.3047 173.308 26.7061 173.607 27.1748C173.906 27.6436 174.055 28.1973 174.055 28.8359C174.055 29.8438 173.651 30.6523 172.842 31.2617C172.039 31.8711 170.979 32.1758 169.66 32.1758C168.758 32.1758 167.929 32.0146 167.173 31.6924C166.423 31.3701 165.852 30.9189 165.459 30.3389C165.073 29.7588 164.879 29.0938 164.879 28.3438H165.96C165.96 29.2461 166.297 29.958 166.971 30.4795C167.645 31.001 168.541 31.2617 169.66 31.2617C170.657 31.2617 171.456 31.042 172.06 30.6025C172.663 30.1631 172.965 29.5801 172.965 28.8535Z" fill="black"/>
<path fill-rule="evenodd" clip-rule="evenodd" d="M140.189 106.249C140.672 109.735 142.329 122.424 138.087 130.338C136.89 132.584 166.358 134.535 166.501 132.009C166.652 129.484 162.275 110.243 163.037 102.72C163.507 98.1359 140.189 106.249 140.189 106.249Z" fill="#FFDB91"/>
<path fill-rule="evenodd" clip-rule="evenodd" d="M191.195 84.0107C193.827 80.5126 194.624 75.8581 191.014 72.2672C190.435 71.6968 189.625 71.2269 188.691 70.8788C188.963 68.2547 188.025 65.2961 185.889 62.9853C183.905 60.8331 180.717 60.4077 177.771 61.1541C177.137 58.8452 175.873 56.6388 174.278 55.0145C167.882 48.4863 161.375 58.7369 159.548 63.6699C159.18 64.6657 159.499 65.4489 160.111 65.9304C159.998 66.6845 160.169 67.4561 160.812 67.9569C166.529 72.4122 172.228 72.9479 174.714 80.8181C176.12 85.2522 176.367 89.9917 177.452 94.4683C169.735 95.6227 167.862 107.964 177.357 110.545C184.399 112.46 194.084 101.267 191.053 95.2282C194.873 92.0879 194.437 86.4801 191.195 84.0107Z" fill="#6D4C41"/>
<path fill-rule="evenodd" clip-rule="evenodd" d="M123.225 93.4936C122.386 93.5132 121.591 93.7312 120.846 94.0827C120.813 93.9492 120.794 93.8215 120.759 93.6841C120.053 91.1665 116.474 91.3314 115.841 93.794C115.501 95.1137 114.224 95.9248 113.902 97.2464C113.464 99.057 114.023 98.1635 113.196 99.2809C113.055 99.2397 112.912 99.1965 112.769 99.1434C112.735 98.6761 112.557 98.1988 112.169 97.757C109.738 95.0057 104.793 94.2693 102.528 97.8905C101.275 99.8956 101.37 101.802 102.184 103.515C100.124 104.964 98.8211 107.692 99.1646 110.149C97.9934 111.148 97.0865 112.623 96.6968 114.292C95.5372 119.255 101.86 121.99 105.254 118.907C106.608 117.684 107.785 115.457 108.193 113.204C109.835 112.851 111.382 111.861 112.312 110.194C112.833 109.253 113.124 108.136 113.207 106.993C113.294 106.961 113.375 106.918 113.462 106.885C113.732 107.37 114.027 107.82 114.323 108.159C118.305 112.731 127.655 113.756 130.953 107.549C134.198 101.437 130.401 93.3875 123.225 93.4936Z" fill="#6D4C41"/>
<path fill-rule="evenodd" clip-rule="evenodd" d="M177.599 94.8359C178.455 94.8109 179.277 94.9997 180.049 95.3195C180.075 95.1866 180.084 95.0575 180.124 94.9207C180.746 92.4257 184.399 92.4546 185.139 94.8455C185.529 96.121 186.869 96.8704 187.249 98.1555C187.763 99.9106 187.159 99.0552 188.044 100.123C188.186 100.078 188.328 100.026 188.475 99.9762C188.493 99.5099 188.654 99.034 189.032 98.589C191.406 95.7973 196.419 94.8879 198.864 98.3462C200.22 100.273 200.193 102.146 199.433 103.853C201.586 105.197 203.021 107.821 202.767 110.241C203.999 111.176 204.978 112.584 205.438 114.206C206.808 119.029 200.47 121.953 196.89 119.061C195.465 117.911 194.181 115.771 193.676 113.578C191.991 113.299 190.369 112.382 189.363 110.786C188.792 109.887 188.456 108.802 188.328 107.685C188.237 107.652 188.149 107.613 188.064 107.582C187.806 108.074 187.525 108.523 187.239 108.869C183.35 113.503 173.857 114.867 170.257 108.904C166.716 103.038 170.28 94.9997 177.599 94.8359Z" fill="#6D4C41"/>
<path fill-rule="evenodd" clip-rule="evenodd" d="M127.381 192.906C128.168 201.064 127.201 236.637 130.021 247.206C133.165 259.003 142.158 258.07 144.134 249.505C146.114 240.939 147.536 199.843 147.536 190.051C147.536 180.259 127.381 192.906 127.381 192.906Z" fill="#FFECA4"/>
<path fill-rule="evenodd" clip-rule="evenodd" d="M143.889 248.46C144.347 246.517 144.777 242.864 145.165 238.288C142.664 240.703 139.047 242.268 135.547 242.008C133.021 241.83 130.625 240.559 128.567 238.794C128.86 241.831 129.236 244.399 129.735 246.207C132.888 257.76 141.905 256.846 143.889 248.46Z" fill="#197541"/>
<path fill-rule="evenodd" clip-rule="evenodd" d="M174.804 192.906C174.015 201.064 174.98 236.637 172.163 247.206C169.021 259.003 160.027 258.07 158.047 249.505C156.07 240.939 154.649 199.843 154.649 190.051C154.649 180.259 174.804 192.906 174.804 192.906Z" fill="#FFECA4"/>
<path fill-rule="evenodd" clip-rule="evenodd" d="M158.295 248.46C157.837 246.517 157.407 242.864 157.021 238.288C159.522 240.703 163.145 242.268 166.64 242.008C169.164 241.83 171.56 240.559 173.619 238.794C173.328 241.831 172.951 244.399 172.456 246.207C169.305 257.76 160.279 256.846 158.295 248.46Z" fill="#197541"/>
<path fill-rule="evenodd" clip-rule="evenodd" d="M114.74 130.836C111.459 135.726 94.7769 153.659 94.2298 160.176C93.6827 166.701 98.2857 169.774 103.619 165.395C103.45 167.919 105.227 168.4 107.687 165.146C110.148 161.881 123.44 141.688 125.898 138.968C128.362 136.252 114.74 130.836 114.74 130.836Z" fill="#FFECA4"/>
<path fill-rule="evenodd" clip-rule="evenodd" d="M187.443 130.836C190.725 135.726 207.405 153.659 207.956 160.176C208.499 166.701 203.899 169.774 198.562 165.395C198.733 167.919 196.958 168.4 194.496 165.146C192.034 161.881 178.749 141.688 176.287 138.968C173.827 136.252 187.443 130.836 187.443 130.836Z" fill="#FFECA4"/>
<path fill-rule="evenodd" clip-rule="evenodd" d="M177.175 91.2806C177.175 105.953 165.23 117.847 150.5 117.847C135.764 117.847 123.825 105.953 123.825 91.2806C123.825 76.6043 135.764 64.7119 150.5 64.7119C165.23 64.7119 177.175 76.6043 177.175 91.2806Z" fill="#FFECA4"/>
<path fill-rule="evenodd" clip-rule="evenodd" d="M196.144 191.296C185.498 169.456 176.746 149.138 176.746 149.138C176.746 149.138 193.776 137.454 194.489 132.881C191.736 128.746 185.066 122.294 179.964 117.614C177.429 115.289 173.631 115.069 170.843 117.081C162.201 123.31 146.058 126.382 132.759 116.845C129.981 114.85 126.183 115.071 123.66 117.379C118.525 122.077 111.676 128.677 108.884 132.881C109.595 137.454 126.627 149.138 126.627 149.138C126.627 149.138 117.871 169.456 107.227 191.296C130.886 207.801 181.511 202.212 196.144 191.296Z" fill="#197541"/>
<path fill-rule="evenodd" clip-rule="evenodd" d="M134.267 137.539C132.459 137.539 130.996 138.98 130.996 140.764C130.996 142.545 132.459 143.989 134.267 143.989C136.078 143.989 137.543 142.545 137.543 140.764C137.543 138.98 136.078 137.539 134.267 137.539ZM134.267 192.381C136.078 192.381 137.543 190.934 137.543 189.152C137.543 187.374 136.078 185.925 134.267 185.925C132.459 185.925 130.996 187.374 130.996 189.152C130.996 190.934 132.459 192.381 134.267 192.381ZM134.267 161.735C132.459 161.735 130.996 163.178 130.996 164.958C130.996 166.74 132.459 168.183 134.267 168.183C136.078 168.183 137.543 166.74 137.543 164.958C137.543 163.178 136.078 161.735 134.267 161.735ZM125.266 152.861C125.266 152.6 125.231 152.342 125.17 152.099C124.715 153.114 124.171 154.325 123.548 155.699C124.569 155.153 125.266 154.085 125.266 152.861ZM110.573 192.267C111.965 191.892 112.988 190.64 112.988 189.152C112.988 187.374 111.521 185.925 109.711 185.925C109.583 185.925 109.452 185.935 109.324 185.951C108.635 187.361 107.934 188.783 107.227 190.213C108.289 190.942 109.408 191.623 110.573 192.267ZM121.989 173.828C120.185 173.828 118.716 175.273 118.716 177.057C118.716 178.835 120.185 180.284 121.989 180.284C123.798 180.284 125.266 178.835 125.266 177.057C125.266 175.273 123.798 173.828 121.989 173.828ZM146.544 180.284C148.352 180.284 149.823 178.835 149.823 177.057C149.823 175.273 148.352 173.828 146.544 173.828C144.739 173.828 143.274 175.273 143.274 177.057C143.274 178.835 144.739 180.284 146.544 180.284ZM146.544 125.438C144.739 125.438 143.274 126.885 143.274 128.67C143.274 130.446 144.739 131.895 146.544 131.895C148.352 131.895 149.823 130.446 149.823 128.67C149.823 126.885 148.352 125.438 146.544 125.438ZM131.188 115.486C131.065 115.824 130.996 116.19 130.996 116.569C130.996 118.353 132.459 119.796 134.267 119.796C135.253 119.796 136.135 119.369 136.734 118.688C135.467 118.03 134.22 117.272 132.995 116.409C132.429 116.012 131.819 115.706 131.188 115.486ZM146.544 198.023C145.063 198.023 143.814 198.992 143.412 200.323C145.515 200.437 147.622 200.495 149.731 200.503C149.387 199.083 148.093 198.023 146.544 198.023ZM146.544 156.088C148.352 156.088 149.823 154.643 149.823 152.861C149.823 151.079 148.352 149.636 146.544 149.636C144.739 149.636 143.274 151.079 143.274 152.861C143.274 154.643 144.739 156.088 146.544 156.088ZM183.381 185.925C181.574 185.925 180.111 187.374 180.111 189.152C180.111 190.934 181.574 192.381 183.381 192.381C185.191 192.381 186.66 190.934 186.66 189.152C186.66 187.374 185.191 185.925 183.381 185.925ZM158.824 161.735C157.017 161.735 155.551 163.178 155.551 164.958C155.551 166.74 157.017 168.183 158.824 168.183C160.63 168.183 162.097 166.74 162.097 164.958C162.097 163.178 160.63 161.735 158.824 161.735ZM158.824 137.539C157.017 137.539 155.551 138.98 155.551 140.764C155.551 142.545 157.017 143.989 158.824 143.989C160.63 143.989 162.097 142.545 162.097 140.764C162.097 138.98 160.63 137.539 158.824 137.539ZM171.104 173.828C169.296 173.828 167.833 175.273 167.833 177.057C167.833 178.835 169.296 180.284 171.104 180.284C172.911 180.284 174.378 178.835 174.378 177.057C174.378 175.273 172.911 173.828 171.104 173.828ZM158.824 192.381C160.63 192.381 162.097 190.934 162.097 189.152C162.097 187.374 160.63 185.925 158.824 185.925C157.017 185.925 155.551 187.374 155.551 189.152C155.551 190.934 157.017 192.381 158.824 192.381ZM171.104 149.636C169.296 149.636 167.833 151.079 167.833 152.861C167.833 154.643 169.296 156.088 171.104 156.088C172.911 156.088 174.378 154.643 174.378 152.861C174.378 151.079 172.911 149.636 171.104 149.636ZM180.121 116.749C180.213 118.448 181.637 119.796 183.381 119.796C183.422 119.796 183.461 119.792 183.498 119.79C182.515 118.877 181.547 117.993 180.634 117.169C180.467 117.022 180.296 116.881 180.121 116.749ZM171.104 198.023C170.058 198.023 169.131 198.506 168.53 199.259C170.024 199.05 171.493 198.824 172.928 198.57C172.406 198.224 171.78 198.023 171.104 198.023ZM183.381 137.539C181.574 137.539 180.111 138.98 180.111 140.764C180.111 142.545 181.574 143.989 183.381 143.989C183.445 143.989 183.514 143.985 183.579 143.981C184.527 143.267 185.523 142.499 186.511 141.706C186.603 141.408 186.66 141.091 186.66 140.764C186.66 138.98 185.191 137.539 183.381 137.539ZM167.833 128.67C167.833 130.446 169.296 131.895 171.104 131.895C172.911 131.895 174.378 130.446 174.378 128.67C174.378 126.885 172.911 125.438 171.104 125.438C169.296 125.438 167.833 126.885 167.833 128.67ZM121.989 131.895C123.798 131.895 125.266 130.446 125.266 128.67C125.266 126.885 123.798 125.438 121.989 125.438C120.185 125.438 118.716 126.885 118.716 128.67C118.716 130.446 120.185 131.895 121.989 131.895ZM183.392 161.735C184.158 163.401 184.979 165.184 185.859 167.067C185.258 167.75 184.372 168.183 183.381 168.183C181.574 168.183 180.111 166.74 180.111 164.958C180.111 163.178 181.574 161.735 183.381 161.735H183.392Z" fill="white"/>
<path fill-rule="evenodd" clip-rule="evenodd" d="M157.51 47.313C151.699 45.948 146.99 49.2077 144.462 53.9757C143.855 47.8681 126.546 45.1517 125.663 61.3091C119.434 56.0508 108.024 63.2724 114.721 73.7458C111.11 71.9924 102.121 82.6169 109.272 89.5306C104.267 89.9797 101.984 96.658 105.074 100.747C109.72 106.898 118.483 105.812 121.418 99.7216C126.192 101.047 131.918 95.2243 134.742 91.688C135.47 90.778 136.078 89.7091 136.571 88.544C152.712 85.3118 166.805 72.5161 165.194 54.5523C164.794 50.0569 159.718 47.8348 157.51 47.313Z" fill="#6D4C41"/>
<path fill-rule="evenodd" clip-rule="evenodd" d="M109.598 97.3939C108.472 92.6658 107.163 83.8823 102.825 84.8607C98.4857 85.8371 97.1916 93.5475 94.4189 95.159C91.6443 96.7706 93.0855 100.717 97.4641 101.895C101.843 103.075 107.065 102.157 107.065 102.157L109.598 97.3939Z" fill="#197541"/>
<path fill-rule="evenodd" clip-rule="evenodd" d="M114.465 99.618C119.311 99.1497 128.052 97.5627 128.541 101.979C129.039 106.395 122.161 110.102 121.538 113.243C120.918 116.382 116.708 116.298 114.162 112.536C111.619 108.774 110.784 103.543 110.784 103.543L114.465 99.618Z" fill="#197541"/>
<path fill-rule="evenodd" clip-rule="evenodd" d="M109.279 95.4737C108.033 95.8534 104.038 101.965 105.005 103.087C105.977 104.214 109.984 107.148 111.369 107.22C112.75 107.29 116.793 101.204 116.71 100.013C116.623 98.8194 111.292 94.8761 109.279 95.4737Z" fill="#50EF69"/>
<path fill-rule="evenodd" clip-rule="evenodd" d="M149.645 108.401C149.491 108.401 149.339 108.398 149.18 108.394C143.428 108.212 139.153 104.73 137.109 102.669C136.808 102.368 136.768 101.84 137.093 101.557C137.415 101.272 137.869 101.22 138.185 101.512C138.195 101.521 138.324 101.644 138.334 101.653C140.195 103.538 144.091 106.721 149.236 106.883C152.989 106.984 156.743 105.448 160.363 102.266C160.698 101.974 161.22 101.987 161.533 102.286C161.847 102.587 161.839 103.066 161.509 103.355C157.698 106.707 153.709 108.401 149.645 108.401Z" fill="#EF5350"/>
<path fill-rule="evenodd" clip-rule="evenodd" d="M137.773 96.9582C137.158 98.4978 135.717 99.3219 134.563 98.7962C133.411 98.2642 132.972 96.591 133.589 95.0493C134.208 93.5075 135.639 92.6814 136.797 93.2113C137.953 93.7412 138.387 95.4165 137.773 96.9582Z" fill="#EF5350"/>
<path fill-rule="evenodd" clip-rule="evenodd" d="M163.228 98.1394C163.843 99.6823 165.28 100.505 166.437 99.9746C167.591 99.4484 168.027 97.7678 167.412 96.227C166.794 94.6862 165.357 93.8658 164.202 94.3898C163.048 94.918 162.612 96.5986 163.228 98.1394Z" fill="#EF5350"/>
<path fill-rule="evenodd" clip-rule="evenodd" d="M159.394 92.4076C159.344 93.3867 160.106 94.2035 161.087 94.2308C162.073 94.26 162.904 93.4888 162.947 92.5134C162.986 91.5288 162.228 90.7139 161.247 90.6902C160.266 90.6592 159.431 91.4322 159.394 92.4076Z" fill="#6D4C41"/>
<path fill-rule="evenodd" clip-rule="evenodd" d="M139.239 91.2277C139.193 92.2081 139.953 93.0208 140.934 93.0499C141.921 93.0809 142.749 92.3083 142.792 91.3315C142.831 90.3512 142.079 89.5348 141.091 89.5093C140.117 89.4801 139.285 90.2491 139.239 91.2277Z" fill="#6D4C41"/>
<path fill-rule="evenodd" clip-rule="evenodd" d="M146.351 94.2316C147.168 100.997 153.668 99.6769 154.649 95.3846C152.3 98.4088 148.258 98.2441 146.351 94.2316Z" fill="#FFC182"/>
<path fill-rule="evenodd" clip-rule="evenodd" d="M189.917 99.7273C186.305 93.2458 182.647 86.8984 179.508 80.2284C179.504 79.4199 179.162 78.6134 178.54 78.1139C177.949 76.7962 177.374 75.4746 176.836 74.122C176.071 72.2135 175.21 70.2 173.983 68.6472C174.269 68.1652 174.386 67.6074 174.323 67.0535C175.556 66.177 175.949 63.9129 174.29 63.1316C168.242 60.3 161.353 65.5746 161.782 72.369C162.091 77.2782 164.64 80.8853 168.227 82.5275C167.34 86.3348 169.07 91.2615 172.69 93.6812C170.643 96.1047 169.724 99.222 172.285 101.77C174.126 103.599 177.192 103.288 179.461 102.792C181.023 102.448 182.206 101.408 183.412 100.462C182.784 100.958 186.119 103.051 186.382 103.239C188.6 104.806 191.087 101.834 189.917 99.7273Z" fill="#6D4C41"/>
<path fill-rule="evenodd" clip-rule="evenodd" d="M191.402 98.1583C191.829 93.3236 191.851 84.4635 196.316 84.7943C200.789 85.1173 203.213 92.5417 206.215 93.7273C209.219 94.9128 208.362 99.0248 204.166 100.829C199.968 102.631 194.621 102.495 194.621 102.495L191.402 98.1583Z" fill="#197541"/>
<path fill-rule="evenodd" clip-rule="evenodd" d="M187.185 102.497C182.328 102.743 173.457 102.434 173.621 106.915C173.781 111.398 181.121 114.1 182.198 117.151C183.277 120.195 187.421 119.494 189.384 115.363C191.345 111.23 191.402 105.88 191.402 105.88L187.185 102.497Z" fill="#197541"/>
<path fill-rule="evenodd" clip-rule="evenodd" d="M190.824 96.6076C192.085 96.7974 196.837 102.214 196.059 103.448C195.285 104.685 191.839 108.125 190.51 108.392C189.177 108.657 184.382 103.28 184.29 102.099C184.197 100.917 188.785 96.3032 190.824 96.6076Z" fill="#50EF69"/>
<path fill-rule="evenodd" clip-rule="evenodd" d="M138.122 90.9389C137.734 91.2152 137.301 91.2082 136.866 91.1963C137.487 91.808 138.28 91.952 139.04 91.8198C139.018 90.1478 141.544 89.6802 141.608 90.8681C140.822 87.9468 138.597 90.6107 138.122 90.9389Z" fill="#361818"/>
<path fill-rule="evenodd" clip-rule="evenodd" d="M162.873 90.9167C163.266 91.1431 163.701 91.1352 164.134 91.1292C163.516 91.6438 162.675 91.9577 161.917 91.8484C161.713 90.2631 159.873 89.7664 159.392 90.8551C160.48 87.9308 162.403 90.6385 162.873 90.9167Z" fill="#361818"/>
<defs>
<filter id="filter0_d" x="262.055" y="86.1757" width="31.2969" height="130.317" filterUnits="userSpaceOnUse" color-interpolation-filters="sRGB">
<feFlood flood-opacity="0" result="BackgroundImageFix"/>
<feColorMatrix in="SourceAlpha" type="matrix" values="0 0 0 0 0 0 0 0 0 0 0 0 0 0 0 0 0 0 127 0"/>
<feOffset dx="1" dy="1"/>
<feGaussianBlur stdDeviation="1"/>
<feColorMatrix type="matrix" values="0 0 0 0 0 0 0 0 0 0 0 0 0 0 0 0 0 0 0.15 0"/>
<feBlend mode="normal" in2="BackgroundImageFix" result="effect1_dropShadow"/>
<feBlend mode="normal" in="SourceGraphic" in2="effect1_dropShadow" result="shape"/>
</filter>
<radialGradient id="paint0_radial" cx="0" cy="0" r="1" gradientUnits="userSpaceOnUse" gradientTransform="translate(150 150) rotate(90) scale(150)">
<stop offset="0.369792" stop-color="white" stop-opacity="0"/>
<stop offset="1" stop-color="#00FF0A" stop-opacity="0.83"/>
</radialGradient>
</defs>
</svg>
