<svg width="300" height="300" viewBox="0 0 300 300" fill="none" xmlns="http://www.w3.org/2000/svg">
<rect width="300" height="300" fill="white"/>
<rect width="300" height="300" fill="white"/>
<rect width="300" height="300" fill="white"/>
<rect width="300" height="300" fill="url(#paint0_radial)" fill-opacity="0.2"/>
<g filter="url(#filter0_d)">
<path d="M286.266 178.422C287.402 179.372 288.287 180.713 288.92 182.448C289.541 184.182 289.852 186.104 289.852 188.213C289.852 190.428 289.371 192.374 288.41 194.049C287.437 195.713 286.031 197.003 284.191 197.917C282.352 198.819 280.189 199.282 277.705 199.305L275.965 199.305C273.41 199.305 271.201 198.878 269.338 198.022C267.463 197.155 266.033 195.913 265.049 194.295C264.053 192.667 263.555 190.762 263.555 188.583C263.555 185.547 264.281 183.174 265.734 181.463C267.176 179.753 269.279 178.739 272.045 178.422L272.045 183.555C270.58 183.79 269.508 184.311 268.828 185.12C268.148 185.917 267.809 187.018 267.809 188.424C267.809 190.217 268.482 191.583 269.83 192.52C271.178 193.458 273.182 193.932 275.842 193.944L277.477 193.944C280.16 193.944 282.187 193.434 283.559 192.415C284.93 191.395 285.615 189.901 285.615 187.932C285.615 185.952 285.193 184.54 284.35 183.696L279.937 183.696L279.937 188.495L276.053 188.495L276.053 178.422L286.266 178.422ZM280.131 160.699L280.131 164.9L289.5 164.9L289.5 170.173L263.906 170.173L263.906 160.664C263.906 157.64 264.58 155.308 265.928 153.668C267.275 152.027 269.18 151.207 271.641 151.207C273.387 151.207 274.846 151.587 276.018 152.349C277.178 153.099 278.104 154.242 278.795 155.777L289.254 150.24L289.5 150.24L289.5 155.9L280.131 160.699ZM275.859 164.9L275.859 160.646C275.859 159.322 275.525 158.296 274.857 157.57C274.178 156.843 273.246 156.48 272.062 156.48C270.855 156.48 269.906 156.826 269.215 157.517C268.523 158.197 268.178 159.246 268.178 160.664L268.178 164.9L275.859 164.9ZM278.408 127.823L278.408 137.948L285.264 137.948L285.264 126.065L289.5 126.065L289.5 143.221L263.906 143.221L263.906 126.1L268.178 126.1L268.178 137.948L274.277 137.948L274.277 127.823L278.408 127.823ZM275.437 110.187L263.906 104.861L263.906 99.0952L280.219 107.497L289.5 107.497L289.5 112.859L280.219 112.859L263.906 121.261L263.906 115.478L275.437 110.187Z" fill="white"/>
<path d="M286.266 178.422L286.586 178.039L286.447 177.922L286.266 177.922L286.266 178.422ZM288.92 182.448L289.391 182.279L289.39 182.276L288.92 182.448ZM288.41 194.049L288.842 194.302L288.844 194.298L288.41 194.049ZM284.191 197.917L284.412 198.365L284.414 198.364L284.191 197.917ZM277.705 199.305L277.705 199.805L277.71 199.805L277.705 199.305ZM269.338 198.022L269.128 198.476L269.129 198.476L269.338 198.022ZM265.049 194.295L265.476 194.035L265.475 194.035L265.049 194.295ZM265.734 181.463L266.115 181.787L266.117 181.786L265.734 181.463ZM272.045 178.422L272.545 178.422L272.545 177.862L271.988 177.926L272.045 178.422ZM272.045 183.555L272.124 184.049L272.545 183.982L272.545 183.555L272.045 183.555ZM268.828 185.12L269.209 185.444L269.211 185.441L268.828 185.12ZM275.842 193.944L275.84 194.444L275.842 194.444L275.842 193.944ZM284.35 183.696L284.703 183.342L284.557 183.196L284.35 183.196L284.35 183.696ZM279.937 183.696L279.937 183.196L279.437 183.196L279.437 183.696L279.937 183.696ZM279.937 188.495L279.937 188.995L280.437 188.995L280.437 188.495L279.937 188.495ZM276.053 188.495L275.553 188.495L275.553 188.995L276.053 188.995L276.053 188.495ZM276.053 178.422L276.053 177.922L275.553 177.922L275.553 178.422L276.053 178.422ZM285.945 178.806C287 179.687 287.84 180.947 288.45 182.619L289.39 182.276C288.734 180.48 287.805 179.057 286.586 178.039L285.945 178.806ZM288.449 182.616C289.048 184.289 289.352 186.153 289.352 188.213L290.352 188.213C290.352 186.055 290.034 184.075 289.391 182.279L288.449 182.616ZM289.352 188.213C289.352 190.354 288.888 192.211 287.976 193.801L288.844 194.298C289.854 192.536 290.352 190.503 290.352 188.213L289.352 188.213ZM287.978 193.797C287.058 195.371 285.728 196.595 283.969 197.469L284.414 198.364C286.335 197.41 287.817 196.056 288.842 194.302L287.978 193.797ZM283.971 197.468C282.211 198.331 280.126 198.782 277.7 198.805L277.71 199.805C280.253 199.781 282.492 199.307 284.412 198.365L283.971 197.468ZM277.705 198.805L275.965 198.805L275.965 199.805L277.705 199.805L277.705 198.805ZM275.965 198.805C273.465 198.805 271.33 198.387 269.547 197.568L269.129 198.476C271.072 199.368 273.355 199.805 275.965 199.805L275.965 198.805ZM269.548 197.568C267.754 196.739 266.404 195.56 265.476 194.035L264.622 194.555C265.662 196.265 267.172 197.571 269.128 198.476L269.548 197.568ZM265.475 194.035C264.534 192.495 264.055 190.684 264.055 188.583L263.055 188.583C263.055 190.841 263.572 192.838 264.622 194.556L265.475 194.035ZM264.055 188.583C264.055 185.624 264.762 183.38 266.115 181.787L265.353 181.14C263.8 182.969 263.055 185.471 263.055 188.583L264.055 188.583ZM266.117 181.786C267.457 180.195 269.43 179.225 272.102 178.919L271.988 177.926C269.128 178.253 266.895 179.31 265.352 181.141L266.117 181.786ZM271.545 178.422L271.545 183.555L272.545 183.555L272.545 178.422L271.545 178.422ZM271.966 183.062C270.43 183.307 269.229 183.866 268.445 184.798L269.211 185.441C269.787 184.756 270.73 184.272 272.124 184.049L271.966 183.062ZM268.448 184.795C267.668 185.71 267.309 186.94 267.309 188.424L268.309 188.424C268.309 187.096 268.629 186.124 269.209 185.444L268.448 184.795ZM267.309 188.424C267.309 190.363 268.049 191.89 269.545 192.931L270.116 192.11C268.916 191.275 268.309 190.071 268.309 188.424L267.309 188.424ZM269.545 192.931C271.013 193.952 273.135 194.432 275.84 194.444L275.844 193.444C273.228 193.432 271.343 192.963 270.116 192.11L269.545 192.931ZM275.842 194.444L277.477 194.444L277.477 193.444L275.842 193.444L275.842 194.444ZM277.477 194.444C280.21 194.444 282.363 193.927 283.857 192.816L283.26 192.013C282.012 192.941 280.11 193.444 277.477 193.444L277.477 194.444ZM283.857 192.816C285.375 191.687 286.115 190.032 286.115 187.932L285.115 187.932C285.115 189.77 284.484 191.103 283.26 192.013L283.857 192.816ZM286.115 187.932C286.115 185.902 285.686 184.326 284.703 183.342L283.996 184.049C284.7 184.754 285.115 186.001 285.115 187.932L286.115 187.932ZM284.35 183.196L279.937 183.196L279.937 184.196L284.35 184.196L284.35 183.196ZM279.437 183.696L279.437 188.495L280.437 188.495L280.437 183.696L279.437 183.696ZM279.937 187.995L276.053 187.995L276.053 188.995L279.937 188.995L279.937 187.995ZM276.553 188.495L276.553 178.422L275.553 178.422L275.553 188.495L276.553 188.495ZM276.053 178.922L286.266 178.922L286.266 177.922L276.053 177.922L276.053 178.922ZM280.131 160.699L279.903 160.254L279.631 160.393L279.631 160.699L280.131 160.699ZM280.131 164.9L279.631 164.9L279.631 165.4L280.131 165.4L280.131 164.9ZM289.5 164.9L290 164.9L290 164.4L289.5 164.4L289.5 164.9ZM289.5 170.173L289.5 170.673L290 170.673L290 170.173L289.5 170.173ZM263.906 170.173L263.406 170.173L263.406 170.673L263.906 170.673L263.906 170.173ZM276.018 152.349L275.745 152.768L275.746 152.769L276.018 152.349ZM278.795 155.777L278.339 155.982L278.558 156.468L279.029 156.219L278.795 155.777ZM289.254 150.24L289.254 149.74L289.13 149.74L289.02 149.798L289.254 150.24ZM289.5 150.24L290 150.24L290 149.74L289.5 149.74L289.5 150.24ZM289.5 155.9L289.728 156.345L290 156.206L290 155.9L289.5 155.9ZM275.859 164.9L275.859 165.4L276.359 165.4L276.359 164.9L275.859 164.9ZM274.857 157.57L275.226 157.231L275.223 157.228L274.857 157.57ZM269.215 157.517L269.565 157.874L269.568 157.871L269.215 157.517ZM268.178 164.9L267.678 164.9L267.678 165.4L268.178 165.4L268.178 164.9ZM279.631 160.699L279.631 164.9L280.631 164.9L280.631 160.699L279.631 160.699ZM280.131 165.4L289.5 165.4L289.5 164.4L280.131 164.4L280.131 165.4ZM289 164.9L289 170.173L290 170.173L290 164.9L289 164.9ZM289.5 169.673L263.906 169.673L263.906 170.673L289.5 170.673L289.5 169.673ZM264.406 170.173L264.406 160.664L263.406 160.664L263.406 170.173L264.406 170.173ZM264.406 160.664C264.406 157.708 265.066 155.505 266.314 153.985L265.541 153.35C264.095 155.111 263.406 157.573 263.406 160.664L264.406 160.664ZM266.314 153.985C267.551 152.479 269.303 151.707 271.641 151.707L271.641 150.707C269.057 150.707 267 151.575 265.541 153.35L266.314 153.985ZM271.641 151.707C273.314 151.707 274.672 152.071 275.745 152.768L276.29 151.93C275.019 151.104 273.459 150.707 271.641 150.707L271.641 151.707ZM275.746 152.769C276.809 153.456 277.678 154.516 278.339 155.982L279.251 155.572C278.529 153.968 277.546 152.742 276.289 151.929L275.746 152.769ZM279.029 156.219L289.488 150.682L289.02 149.798L278.561 155.335L279.029 156.219ZM289.254 150.74L289.5 150.74L289.5 149.74L289.254 149.74L289.254 150.74ZM289 150.24L289 155.9L290 155.9L290 150.24L289 150.24ZM289.272 155.455L279.903 160.254L280.359 161.144L289.728 156.345L289.272 155.455ZM276.359 164.9L276.359 160.646L275.359 160.646L275.359 164.9L276.359 164.9ZM276.359 160.646C276.359 159.24 276.004 158.078 275.225 157.231L274.489 157.908C275.047 158.515 275.359 159.404 275.359 160.646L276.359 160.646ZM275.223 157.228C274.43 156.382 273.356 155.98 272.062 155.98L272.062 156.98C273.136 156.98 273.925 157.305 274.492 157.911L275.223 157.228ZM272.062 155.98C270.756 155.98 269.667 156.357 268.861 157.164L269.568 157.871C270.145 157.294 270.955 156.98 272.062 156.98L272.062 155.98ZM268.864 157.161C268.041 157.97 267.678 159.174 267.678 160.664L268.678 160.664C268.678 159.318 269.006 158.423 269.565 157.874L268.864 157.161ZM267.678 160.664L267.678 164.9L268.678 164.9L268.678 160.664L267.678 160.664ZM268.178 165.4L275.859 165.4L275.859 164.4L268.178 164.4L268.178 165.4ZM278.408 127.823L278.908 127.823L278.908 127.323L278.408 127.323L278.408 127.823ZM278.408 137.948L277.908 137.948L277.908 138.448L278.408 138.448L278.408 137.948ZM285.264 137.948L285.264 138.448L285.764 138.448L285.764 137.948L285.264 137.948ZM285.264 126.065L285.264 125.565L284.764 125.565L284.764 126.065L285.264 126.065ZM289.5 126.065L290 126.065L290 125.565L289.5 125.565L289.5 126.065ZM289.5 143.221L289.5 143.721L290 143.721L290 143.221L289.5 143.221ZM263.906 143.221L263.406 143.221L263.406 143.721L263.906 143.721L263.906 143.221ZM263.906 126.1L263.906 125.6L263.406 125.6L263.406 126.1L263.906 126.1ZM268.178 126.1L268.678 126.1L268.678 125.6L268.178 125.6L268.178 126.1ZM268.178 137.948L267.678 137.948L267.678 138.448L268.178 138.448L268.178 137.948ZM274.277 137.948L274.277 138.448L274.777 138.448L274.777 137.948L274.277 137.948ZM274.277 127.823L274.277 127.323L273.777 127.323L273.777 127.823L274.277 127.823ZM277.908 127.823L277.908 137.948L278.908 137.948L278.908 127.823L277.908 127.823ZM278.408 138.448L285.264 138.448L285.264 137.448L278.408 137.448L278.408 138.448ZM285.764 137.948L285.764 126.065L284.764 126.065L284.764 137.948L285.764 137.948ZM285.264 126.565L289.5 126.565L289.5 125.565L285.264 125.565L285.264 126.565ZM289 126.065L289 143.221L290 143.221L290 126.065L289 126.065ZM289.5 142.721L263.906 142.721L263.906 143.721L289.5 143.721L289.5 142.721ZM264.406 143.221L264.406 126.1L263.406 126.1L263.406 143.221L264.406 143.221ZM263.906 126.6L268.178 126.6L268.178 125.6L263.906 125.6L263.906 126.6ZM267.678 126.1L267.678 137.948L268.678 137.948L268.678 126.1L267.678 126.1ZM268.178 138.448L274.277 138.448L274.277 137.448L268.178 137.448L268.178 138.448ZM274.777 137.948L274.777 127.823L273.777 127.823L273.777 137.948L274.777 137.948ZM274.277 128.323L278.408 128.323L278.408 127.323L274.277 127.323L274.277 128.323ZM275.437 110.187L275.646 110.641L276.633 110.188L275.647 109.733L275.437 110.187ZM263.906 104.861L263.406 104.861L263.406 105.181L263.697 105.315L263.906 104.861ZM263.906 99.0952L264.135 98.6507L263.406 98.2752L263.406 99.0952L263.906 99.0952ZM280.219 107.497L279.99 107.942L280.098 107.997L280.219 107.997L280.219 107.497ZM289.5 107.497L290 107.497L290 106.997L289.5 106.997L289.5 107.497ZM289.5 112.859L289.5 113.359L290 113.359L290 112.859L289.5 112.859ZM280.219 112.859L280.219 112.359L280.098 112.359L279.99 112.414L280.219 112.859ZM263.906 121.261L263.406 121.261L263.406 122.081L264.135 121.706L263.906 121.261ZM263.906 115.478L263.698 115.024L263.406 115.157L263.406 115.478L263.906 115.478ZM275.647 109.733L264.116 104.407L263.697 105.315L275.228 110.641L275.647 109.733ZM264.406 104.861L264.406 99.0952L263.406 99.0952L263.406 104.861L264.406 104.861ZM263.677 99.5397L279.99 107.942L280.448 107.053L264.135 98.6507L263.677 99.5397ZM280.219 107.997L289.5 107.997L289.5 106.997L280.219 106.997L280.219 107.997ZM289 107.497L289 112.859L290 112.859L290 107.497L289 107.497ZM289.5 112.359L280.219 112.359L280.219 113.359L289.5 113.359L289.5 112.359ZM279.99 112.414L263.677 120.817L264.135 121.706L280.448 113.303L279.99 112.414ZM264.406 121.261L264.406 115.478L263.406 115.478L263.406 121.261L264.406 121.261ZM264.115 115.932L275.646 110.641L275.229 109.733L263.698 115.024L264.115 115.932Z" fill="#766F00"/>
</g>
<path d="M14.2969 285V228.125H32.6172C37.6432 228.125 42.1615 229.271 46.1719 231.562C50.1823 233.828 53.3073 237.044 55.5469 241.211C57.8125 245.352 58.9583 250 58.9844 255.156V257.773C58.9844 262.982 57.8776 267.656 55.6641 271.797C53.4766 275.911 50.3776 279.141 46.3672 281.484C42.3828 283.802 37.9297 284.974 33.0078 285H14.2969ZM28.0078 238.711V274.453H32.7734C36.7057 274.453 39.7266 273.06 41.8359 270.273C43.9453 267.461 45 263.294 45 257.773V255.312C45 249.818 43.9453 245.677 41.8359 242.891C39.7266 240.104 36.6536 238.711 32.6172 238.711H28.0078ZM87.4273 272.783C87.4273 275.303 86.982 277.512 86.0914 279.41C85.2008 281.309 83.9234 282.773 82.2594 283.805C80.607 284.836 78.7086 285.352 76.5641 285.352C74.443 285.352 72.5504 284.842 70.8863 283.822C69.2223 282.803 67.9332 281.35 67.0191 279.463C66.1051 277.564 65.6422 275.385 65.6305 272.924V271.658C65.6305 269.139 66.0816 266.924 66.984 265.014C67.898 263.092 69.1813 261.621 70.8336 260.602C72.4977 259.57 74.3961 259.055 76.5289 259.055C78.6617 259.055 80.5543 259.57 82.2066 260.602C83.8707 261.621 85.1539 263.092 86.0563 265.014C86.9703 266.924 87.4273 269.133 87.4273 271.641V272.783ZM82.0836 271.623C82.0836 268.939 81.6031 266.9 80.6422 265.506C79.6813 264.111 78.3102 263.414 76.5289 263.414C74.7594 263.414 73.3941 264.105 72.4332 265.488C71.4723 266.859 70.9859 268.875 70.9742 271.535V272.783C70.9742 275.396 71.4547 277.424 72.4156 278.865C73.3766 280.307 74.7594 281.027 76.5641 281.027C78.3336 281.027 79.693 280.336 80.6422 278.953C81.5914 277.559 82.0719 275.531 82.0836 272.871V271.623ZM100.493 280.764H111.69V285H95.2194V259.406H100.493V280.764ZM123.965 275.982V285H118.691V259.406H128.675C130.597 259.406 132.285 259.758 133.738 260.461C135.203 261.164 136.328 262.166 137.113 263.467C137.898 264.756 138.291 266.227 138.291 267.879C138.291 270.387 137.429 272.367 135.707 273.82C133.996 275.262 131.623 275.982 128.588 275.982H123.965ZM123.965 271.711H128.675C130.07 271.711 131.131 271.383 131.857 270.727C132.595 270.07 132.965 269.133 132.965 267.914C132.965 266.66 132.595 265.646 131.857 264.873C131.119 264.1 130.099 263.701 128.799 263.678H123.965V271.711ZM166.719 285H161.446V274.031H151.163V285H145.889V259.406H151.163V269.777H161.446V259.406H166.719V285ZM180.91 285H175.636V259.406H180.91V285ZM210.587 285H205.313L195.048 268.16V285H189.774V259.406H195.048L205.331 276.281V259.406H210.587V285Z" fill="black"/>
<path d="M114.599 28.4141H108.789L107.471 32H106.337L111.18 19.2031H112.208L117.051 32H115.926L114.599 28.4141ZM109.123 27.4912H114.256L111.69 20.5215L109.123 27.4912ZM130.448 32H129.367L122.011 21.0488V32H120.921V19.2031H122.011L129.376 30.1631V19.2031H130.448V32ZM136.999 32H135.917V19.2031H136.999V32ZM143.892 19.2031L148.611 30.4971L153.349 19.2031H154.79V32H153.709V26.4277L153.797 20.7148L149.033 32H148.198L143.452 20.7588L143.54 26.3926V32H142.459V19.2031H143.892ZM167.08 28.4141H161.27L159.952 32H158.818L163.661 19.2031H164.689L169.532 32H168.407L167.08 28.4141ZM161.604 27.4912H166.737L164.17 20.5215L161.604 27.4912ZM174.491 31.0859H180.811V32H173.401V19.2031H174.491V31.0859ZM192.116 28.8535C192.116 28.1445 191.867 27.585 191.369 27.1748C190.871 26.7588 189.96 26.3662 188.635 25.9971C187.311 25.6221 186.344 25.2148 185.735 24.7754C184.868 24.1543 184.434 23.3398 184.434 22.332C184.434 21.3535 184.836 20.5596 185.638 19.9502C186.447 19.335 187.478 19.0273 188.732 19.0273C189.582 19.0273 190.34 19.1914 191.008 19.5195C191.682 19.8477 192.204 20.3047 192.573 20.8906C192.942 21.4766 193.127 22.1299 193.127 22.8506H192.037C192.037 21.9775 191.738 21.2773 191.14 20.75C190.543 20.2168 189.74 19.9502 188.732 19.9502C187.753 19.9502 186.974 20.1699 186.394 20.6094C185.814 21.043 185.524 21.6113 185.524 22.3145C185.524 22.9648 185.785 23.4951 186.306 23.9053C186.828 24.3154 187.663 24.6787 188.811 24.9951C189.96 25.3057 190.83 25.6309 191.421 25.9707C192.013 26.3047 192.459 26.7061 192.757 27.1748C193.056 27.6436 193.206 28.1973 193.206 28.8359C193.206 29.8438 192.801 30.6523 191.993 31.2617C191.19 31.8711 190.129 32.1758 188.811 32.1758C187.909 32.1758 187.08 32.0146 186.324 31.6924C185.574 31.3701 185.003 30.9189 184.61 30.3389C184.223 29.7588 184.03 29.0938 184.03 28.3438H185.111C185.111 29.2461 185.448 29.958 186.122 30.4795C186.795 31.001 187.692 31.2617 188.811 31.2617C189.807 31.2617 190.607 31.042 191.211 30.6025C191.814 30.1631 192.116 29.5801 192.116 28.8535Z" fill="black"/>
<g clip-path="url(#clip0)">
<path fill-rule="evenodd" clip-rule="evenodd" d="M198.66 122.716C203.156 124.526 217.935 140.095 213.357 149.272C213.208 149.572 212.674 150.248 211.558 148.738C209.273 145.647 203.006 137.702 187.014 141.78C172.751 145.417 187.033 132.059 187.033 132.059L198.66 122.716Z" fill="#586263"/>
<path fill-rule="evenodd" clip-rule="evenodd" d="M67.7218 177.152C73.5623 157.967 80.6545 142.698 93.5993 130.032C95.9048 126.878 99.2401 120.668 95.1072 114.941C90.9743 109.214 82.7898 109.02 84.9849 106.019C91.2883 97.4191 120.744 109.744 127.459 106.088C142.345 98.4306 157.419 93.5748 169.386 91.5137C169.862 91.4307 170.347 91.3497 170.825 91.2749C201.627 86.4501 236.123 95.513 238.705 107.685C243.11 107.681 247.936 108.407 250.776 109.061C250.941 109.092 251.116 109.131 251.276 109.181C252.836 109.648 254.076 110.959 254.349 112.663C254.729 115.034 253.094 117.263 250.706 117.637C232.655 121.609 201.041 137.649 171.092 144.119C153.936 147.826 133.968 148.314 117.177 153.508C104.8 157.337 94.4967 163.199 85.1754 174.668C75.2811 186.671 101.102 194.274 98.6959 208.973C92.7529 207.544 70.372 201.605 69.2655 194.696C67.6566 199.513 51.2474 201.139 46.3554 203.32C48.3429 186.955 61.7013 192.104 67.7218 177.152Z" fill="#8D9BA4"/>
<path fill-rule="evenodd" clip-rule="evenodd" d="M223.091 107.951C222.882 106.642 221.645 105.747 220.327 105.953C219.01 106.159 218.113 107.388 218.323 108.698C218.533 110.009 219.77 110.904 221.087 110.698C222.405 110.492 223.301 109.262 223.091 107.951Z" fill="#212830"/>
<path fill-rule="evenodd" clip-rule="evenodd" d="M126.081 143.758C142.079 141.249 144.783 140.825 175.094 136.073C194.726 132.994 220.278 119.305 254.592 113.924C254.238 115.662 252.847 117.081 250.989 117.373C232.967 121.348 201.41 137.431 171.51 143.906C154.381 147.615 134.443 148.091 117.679 153.294C105.323 157.129 95.039 163.009 85.7395 174.518C90.3202 165.961 106.285 146.862 126.081 143.758Z" fill="#C6C7C7"/>
<path fill-rule="evenodd" clip-rule="evenodd" d="M195.795 128.219C198.264 133.878 205.366 158.755 185.76 166.059C185.36 166.209 184.281 166.371 184.603 163.973C185.255 159.065 186.576 146.096 168.568 135.823C152.517 126.667 177.108 126.731 177.108 126.731L195.795 128.219Z" fill="#879094"/>
</g>
<defs>
<filter id="filter0_d" x="262.055" y="97.2752" width="31.2969" height="105.53" filterUnits="userSpaceOnUse" color-interpolation-filters="sRGB">
<feFlood flood-opacity="0" result="BackgroundImageFix"/>
<feColorMatrix in="SourceAlpha" type="matrix" values="0 0 0 0 0 0 0 0 0 0 0 0 0 0 0 0 0 0 127 0"/>
<feOffset dx="1" dy="1"/>
<feGaussianBlur stdDeviation="1"/>
<feColorMatrix type="matrix" values="0 0 0 0 0 0 0 0 0 0 0 0 0 0 0 0 0 0 0.15 0"/>
<feBlend mode="normal" in2="BackgroundImageFix" result="effect1_dropShadow"/>
<feBlend mode="normal" in="SourceGraphic" in2="effect1_dropShadow" result="shape"/>
</filter>
<radialGradient id="paint0_radial" cx="0" cy="0" r="1" gradientUnits="userSpaceOnUse" gradientTransform="translate(150 150) rotate(90) scale(150)">
<stop offset="0.296875" stop-color="white" stop-opacity="0"/>
<stop offset="0.947917" stop-color="#838383" stop-opacity="0.83"/>
</radialGradient>
<clipPath id="clip0">
<rect width="209" height="120" fill="white" transform="matrix(-1 0 0 1 255 90)"/>
</clipPath>
</defs>
</svg>
