<svg width="300" height="300" viewBox="0 0 300 300" fill="none" xmlns="http://www.w3.org/2000/svg">
<rect width="300" height="300" fill="white"/>
<rect width="300" height="300" fill="white"/>
<rect width="300" height="300" fill="white"/>
<rect width="300" height="300" fill="url(#paint0_radial)" fill-opacity="0.09"/>
<g filter="url(#filter0_d)">
<path d="M280.131 175.528L280.131 179.73L289.5 179.73L289.5 185.003L263.906 185.003L263.906 175.493C263.906 172.47 264.58 170.138 265.928 168.497C267.275 166.856 269.18 166.036 271.641 166.036C273.387 166.036 274.846 166.417 276.018 167.179C277.178 167.929 278.104 169.071 278.795 170.606L289.254 165.069L289.5 165.069L289.5 170.73L280.131 175.528ZM275.859 179.73L275.859 175.476C275.859 174.151 275.525 173.126 274.857 172.399C274.178 171.673 273.246 171.31 272.062 171.31C270.855 171.31 269.906 171.655 269.215 172.347C268.523 173.026 268.178 174.075 268.178 175.493L268.178 179.73L275.859 179.73ZM278.408 142.652L278.408 152.777L285.264 152.777L285.264 140.895L289.5 140.895L289.5 158.051L263.906 158.051L263.906 140.93L268.178 140.93L268.178 152.777L274.277 152.777L274.277 142.652L278.408 142.652ZM289.5 133.841L263.906 133.841L263.906 125.966C263.906 123.716 264.416 121.706 265.436 119.936C266.443 118.155 267.885 116.767 269.76 115.77C271.623 114.774 273.744 114.276 276.123 114.276L277.301 114.276C279.68 114.276 281.795 114.769 283.646 115.753C285.498 116.726 286.934 118.103 287.953 119.884C288.973 121.665 289.488 123.675 289.5 125.913L289.5 133.841ZM268.178 128.567L285.264 128.567L285.264 126.019C285.264 123.956 284.59 122.38 283.242 121.29C281.895 120.2 279.967 119.644 277.459 119.62L276.105 119.62C273.504 119.62 271.535 120.159 270.199 121.237C268.852 122.315 268.178 123.892 268.178 125.966L268.178 128.567Z" fill="white"/>
<path d="M280.131 175.528L279.903 175.083L279.631 175.223L279.631 175.528L280.131 175.528ZM280.131 179.73L279.631 179.73L279.631 180.23L280.131 180.23L280.131 179.73ZM289.5 179.73L290 179.73L290 179.23L289.5 179.23L289.5 179.73ZM289.5 185.003L289.5 185.503L290 185.503L290 185.003L289.5 185.003ZM263.906 185.003L263.406 185.003L263.406 185.503L263.906 185.503L263.906 185.003ZM276.018 167.179L275.745 167.598L275.746 167.599L276.018 167.179ZM278.795 170.606L278.339 170.812L278.558 171.298L279.029 171.048L278.795 170.606ZM289.254 165.069L289.254 164.569L289.13 164.569L289.02 164.627L289.254 165.069ZM289.5 165.069L290 165.069L290 164.569L289.5 164.569L289.5 165.069ZM289.5 170.73L289.728 171.175L290 171.035L290 170.73L289.5 170.73ZM275.859 179.73L275.859 180.23L276.359 180.23L276.359 179.73L275.859 179.73ZM274.857 172.399L275.226 172.061L275.223 172.058L274.857 172.399ZM269.215 172.347L269.565 172.703L269.568 172.7L269.215 172.347ZM268.178 179.73L267.678 179.73L267.678 180.23L268.178 180.23L268.178 179.73ZM279.631 175.528L279.631 179.73L280.631 179.73L280.631 175.528L279.631 175.528ZM280.131 180.23L289.5 180.23L289.5 179.23L280.131 179.23L280.131 180.23ZM289 179.73L289 185.003L290 185.003L290 179.73L289 179.73ZM289.5 184.503L263.906 184.503L263.906 185.503L289.5 185.503L289.5 184.503ZM264.406 185.003L264.406 175.493L263.406 175.493L263.406 185.003L264.406 185.003ZM264.406 175.493C264.406 172.537 265.066 170.334 266.314 168.814L265.541 168.18C264.095 169.941 263.406 172.402 263.406 175.493L264.406 175.493ZM266.314 168.814C267.551 167.309 269.303 166.536 271.641 166.536L271.641 165.536C269.057 165.536 267 166.404 265.541 168.18L266.314 168.814ZM271.641 166.536C273.314 166.536 274.672 166.901 275.745 167.598L276.29 166.76C275.019 165.933 273.459 165.536 271.641 165.536L271.641 166.536ZM275.746 167.599C276.809 168.286 277.678 169.345 278.339 170.812L279.251 170.401C278.529 168.798 277.546 167.572 276.289 166.759L275.746 167.599ZM279.029 171.048L289.488 165.511L289.02 164.627L278.561 170.165L279.029 171.048ZM289.254 165.569L289.5 165.569L289.5 164.569L289.254 164.569L289.254 165.569ZM289 165.069L289 170.73L290 170.73L290 165.069L289 165.069ZM289.272 170.285L279.903 175.083L280.359 175.973L289.728 171.175L289.272 170.285ZM276.359 179.73L276.359 175.476L275.359 175.476L275.359 179.73L276.359 179.73ZM276.359 175.476C276.359 174.07 276.004 172.908 275.226 172.061L274.489 172.738C275.047 173.344 275.359 174.233 275.359 175.476L276.359 175.476ZM275.223 172.058C274.43 171.211 273.356 170.81 272.062 170.81L272.062 171.81C273.136 171.81 273.925 172.135 274.492 172.741L275.223 172.058ZM272.062 170.81C270.756 170.81 269.667 171.187 268.861 171.993L269.568 172.7C270.145 172.124 270.955 171.81 272.062 171.81L272.062 170.81ZM268.864 171.99C268.041 172.8 267.678 174.003 267.678 175.493L268.678 175.493C268.678 174.147 269.006 173.253 269.565 172.703L268.864 171.99ZM267.678 175.493L267.678 179.73L268.678 179.73L268.678 175.493L267.678 175.493ZM268.178 180.23L275.859 180.23L275.859 179.23L268.178 179.23L268.178 180.23ZM278.408 142.652L278.908 142.652L278.908 142.152L278.408 142.152L278.408 142.652ZM278.408 152.777L277.908 152.777L277.908 153.277L278.408 153.277L278.408 152.777ZM285.264 152.777L285.264 153.277L285.764 153.277L285.764 152.777L285.264 152.777ZM285.264 140.895L285.264 140.395L284.764 140.395L284.764 140.895L285.264 140.895ZM289.5 140.895L290 140.895L290 140.395L289.5 140.395L289.5 140.895ZM289.5 158.051L289.5 158.551L290 158.551L290 158.051L289.5 158.051ZM263.906 158.051L263.406 158.051L263.406 158.551L263.906 158.551L263.906 158.051ZM263.906 140.93L263.906 140.43L263.406 140.43L263.406 140.93L263.906 140.93ZM268.178 140.93L268.678 140.93L268.678 140.43L268.178 140.43L268.178 140.93ZM268.178 152.777L267.678 152.777L267.678 153.277L268.178 153.277L268.178 152.777ZM274.277 152.777L274.277 153.277L274.777 153.277L274.777 152.777L274.277 152.777ZM274.277 142.652L274.277 142.152L273.777 142.152L273.777 142.652L274.277 142.652ZM277.908 142.652L277.908 152.777L278.908 152.777L278.908 142.652L277.908 142.652ZM278.408 153.277L285.264 153.277L285.264 152.277L278.408 152.277L278.408 153.277ZM285.764 152.777L285.764 140.895L284.764 140.895L284.764 152.777L285.764 152.777ZM285.264 141.395L289.5 141.395L289.5 140.395L285.264 140.395L285.264 141.395ZM289 140.895L289 158.051L290 158.051L290 140.895L289 140.895ZM289.5 157.551L263.906 157.551L263.906 158.551L289.5 158.551L289.5 157.551ZM264.406 158.051L264.406 140.93L263.406 140.93L263.406 158.051L264.406 158.051ZM263.906 141.43L268.178 141.43L268.178 140.43L263.906 140.43L263.906 141.43ZM267.678 140.93L267.678 152.777L268.678 152.777L268.678 140.93L267.678 140.93ZM268.178 153.277L274.277 153.277L274.277 152.277L268.178 152.277L268.178 153.277ZM274.777 152.777L274.777 142.652L273.777 142.652L273.777 152.777L274.777 152.777ZM274.277 143.152L278.408 143.152L278.408 142.152L274.277 142.152L274.277 143.152ZM289.5 133.841L289.5 134.341L290 134.341L290 133.841L289.5 133.841ZM263.906 133.841L263.406 133.841L263.406 134.341L263.906 134.341L263.906 133.841ZM265.436 119.936L265.869 120.186L265.871 120.183L265.436 119.936ZM269.76 115.77L269.994 116.212L269.995 116.211L269.76 115.77ZM283.646 115.753L283.412 116.194L283.414 116.196L283.646 115.753ZM289.5 125.913L290 125.913L290 125.91L289.5 125.913ZM268.178 128.567L267.678 128.567L267.678 129.067L268.178 129.067L268.178 128.567ZM285.264 128.567L285.264 129.067L285.764 129.067L285.764 128.567L285.264 128.567ZM277.459 119.62L277.464 119.12L277.459 119.12L277.459 119.62ZM270.199 121.237L270.512 121.628L270.513 121.626L270.199 121.237ZM289.5 133.341L263.906 133.341L263.906 134.341L289.5 134.341L289.5 133.341ZM264.406 133.841L264.406 125.966L263.406 125.966L263.406 133.841L264.406 133.841ZM264.406 125.966C264.406 123.794 264.897 121.872 265.869 120.186L265.002 119.687C263.935 121.54 263.406 123.637 263.406 125.966L264.406 125.966ZM265.871 120.183C266.83 118.488 268.2 117.165 269.994 116.212L269.525 115.329C267.569 116.368 266.057 117.823 265 119.69L265.871 120.183ZM269.995 116.211C271.778 115.259 273.816 114.776 276.123 114.776L276.123 113.776C273.672 113.776 271.469 114.29 269.524 115.33L269.995 116.211ZM276.123 114.776L277.301 114.776L277.301 113.776L276.123 113.776L276.123 114.776ZM277.301 114.776C279.609 114.776 281.642 115.253 283.412 116.194L283.881 115.311C281.948 114.284 279.75 113.776 277.301 113.776L277.301 114.776ZM283.414 116.196C285.183 117.125 286.548 118.435 287.519 120.132L288.387 119.635C287.319 117.77 285.813 116.326 283.879 115.31L283.414 116.196ZM287.519 120.132C288.492 121.832 288.989 123.756 289 125.916L290 125.91C289.988 123.594 289.453 121.498 288.387 119.635L287.519 120.132ZM289 125.913L289 133.841L290 133.841L290 125.913L289 125.913ZM268.178 129.067L285.264 129.067L285.264 128.067L268.178 128.067L268.178 129.067ZM285.764 128.567L285.764 126.019L284.764 126.019L284.764 128.567L285.764 128.567ZM285.764 126.019C285.764 123.837 285.044 122.104 283.557 120.901L282.928 121.679C284.135 122.655 284.764 124.075 284.764 126.019L285.764 126.019ZM283.557 120.901C282.089 119.715 280.035 119.144 277.464 119.12L277.454 120.12C279.898 120.143 281.7 120.686 282.928 121.679L283.557 120.901ZM277.459 119.12L276.105 119.12L276.105 120.12L277.459 120.12L277.459 119.12ZM276.105 119.12C273.446 119.12 271.346 119.67 269.885 120.848L270.513 121.626C271.725 120.649 273.562 120.12 276.105 120.12L276.105 119.12ZM269.887 120.847C268.396 122.039 267.678 123.774 267.678 125.966L268.678 125.966C268.678 124.009 269.307 122.592 270.512 121.628L269.887 120.847ZM267.678 125.966L267.678 128.567L268.678 128.567L268.678 125.966L267.678 125.966Z" fill="#B50000"/>
</g>
<path d="M14.2969 285V228.125H32.6172C37.6432 228.125 42.1615 229.271 46.1719 231.562C50.1823 233.828 53.3073 237.044 55.5469 241.211C57.8125 245.352 58.9583 250 58.9844 255.156V257.773C58.9844 262.982 57.8776 267.656 55.6641 271.797C53.4766 275.911 50.3776 279.141 46.3672 281.484C42.3828 283.802 37.9297 284.974 33.0078 285H14.2969ZM28.0078 238.711V274.453H32.7734C36.7057 274.453 39.7266 273.06 41.8359 270.273C43.9453 267.461 45 263.294 45 257.773V255.312C45 249.818 43.9453 245.677 41.8359 242.891C39.7266 240.104 36.6536 238.711 32.6172 238.711H28.0078ZM74.2785 275.631H70.0773V285H64.8039V259.406H74.3137C77.3371 259.406 79.6691 260.08 81.3098 261.428C82.9504 262.775 83.7707 264.68 83.7707 267.141C83.7707 268.887 83.3898 270.346 82.6281 271.518C81.8781 272.678 80.7355 273.604 79.2004 274.295L84.7375 284.754V285H79.0773L74.2785 275.631ZM70.0773 271.359H74.3312C75.6555 271.359 76.6809 271.025 77.4074 270.357C78.134 269.678 78.4973 268.746 78.4973 267.562C78.4973 266.355 78.1516 265.406 77.4602 264.715C76.7805 264.023 75.7316 263.678 74.3137 263.678H70.0773V271.359ZM106.795 273.908H96.6695V280.764H108.552V285H91.3961V259.406H108.517V263.678H96.6695V269.777H106.795V273.908ZM128.518 278.285C128.518 277.289 128.166 276.527 127.463 276C126.76 275.461 125.494 274.898 123.666 274.312C121.838 273.715 120.391 273.129 119.324 272.555C116.418 270.984 114.965 268.869 114.965 266.209C114.965 264.826 115.352 263.596 116.125 262.518C116.91 261.428 118.029 260.578 119.482 259.969C120.947 259.359 122.588 259.055 124.404 259.055C126.232 259.055 127.861 259.389 129.291 260.057C130.721 260.713 131.828 261.645 132.613 262.852C133.41 264.059 133.809 265.43 133.809 266.965H128.535C128.535 265.793 128.166 264.885 127.428 264.24C126.689 263.584 125.652 263.256 124.316 263.256C123.027 263.256 122.025 263.531 121.311 264.082C120.596 264.621 120.238 265.336 120.238 266.227C120.238 267.059 120.654 267.756 121.486 268.318C122.33 268.881 123.566 269.408 125.195 269.9C128.195 270.803 130.381 271.922 131.752 273.258C133.123 274.594 133.809 276.258 133.809 278.25C133.809 280.465 132.971 282.205 131.295 283.471C129.619 284.725 127.363 285.352 124.527 285.352C122.559 285.352 120.766 284.994 119.148 284.279C117.531 283.553 116.295 282.562 115.439 281.309C114.596 280.055 114.174 278.602 114.174 276.949H119.465C119.465 279.773 121.152 281.186 124.527 281.186C125.781 281.186 126.76 280.934 127.463 280.43C128.166 279.914 128.518 279.199 128.518 278.285ZM154.266 278.285C154.266 277.289 153.914 276.527 153.211 276C152.508 275.461 151.243 274.898 149.414 274.312C147.586 273.715 146.139 273.129 145.073 272.555C142.166 270.984 140.713 268.869 140.713 266.209C140.713 264.826 141.1 263.596 141.873 262.518C142.659 261.428 143.778 260.578 145.231 259.969C146.696 259.359 148.336 259.055 150.153 259.055C151.981 259.055 153.61 259.389 155.039 260.057C156.469 260.713 157.577 261.645 158.362 262.852C159.159 264.059 159.557 265.43 159.557 266.965H154.284C154.284 265.793 153.914 264.885 153.176 264.24C152.438 263.584 151.401 263.256 150.065 263.256C148.776 263.256 147.774 263.531 147.059 264.082C146.344 264.621 145.987 265.336 145.987 266.227C145.987 267.059 146.403 267.756 147.235 268.318C148.079 268.881 149.315 269.408 150.944 269.9C153.944 270.803 156.129 271.922 157.5 273.258C158.871 274.594 159.557 276.258 159.557 278.25C159.557 280.465 158.719 282.205 157.043 283.471C155.368 284.725 153.112 285.352 150.276 285.352C148.307 285.352 146.514 284.994 144.897 284.279C143.28 283.553 142.043 282.562 141.188 281.309C140.344 280.055 139.922 278.602 139.922 276.949H145.213C145.213 279.773 146.901 281.186 150.276 281.186C151.53 281.186 152.508 280.934 153.211 280.43C153.914 279.914 154.266 279.199 154.266 278.285Z" fill="black"/>
<path d="M116.26 28.0098C116.114 29.3574 115.63 30.3887 114.81 31.1035C113.996 31.8184 112.909 32.1758 111.549 32.1758C110.6 32.1758 109.759 31.9385 109.027 31.4639C108.3 30.9893 107.738 30.3184 107.339 29.4512C106.941 28.5781 106.739 27.582 106.733 26.4629V24.8018C106.733 23.665 106.932 22.6572 107.331 21.7783C107.729 20.8994 108.3 20.2227 109.044 19.748C109.794 19.2676 110.656 19.0273 111.628 19.0273C112.999 19.0273 114.081 19.3994 114.872 20.1436C115.668 20.8818 116.131 21.9043 116.26 23.2109H115.17C114.901 21.0371 113.72 19.9502 111.628 19.9502C110.468 19.9502 109.542 20.3838 108.851 21.251C108.165 22.1182 107.823 23.3164 107.823 24.8457V26.4102C107.823 27.8867 108.157 29.0645 108.825 29.9434C109.498 30.8223 110.407 31.2617 111.549 31.2617C112.68 31.2617 113.533 30.9922 114.107 30.4531C114.681 29.9082 115.036 29.0938 115.17 28.0098H116.26ZM121.958 31.0859H128.277V32H120.868V19.2031H121.958V31.0859ZM141.217 26.2959C141.217 27.4736 141.012 28.5078 140.602 29.3984C140.198 30.2891 139.618 30.9746 138.862 31.4551C138.106 31.9355 137.233 32.1758 136.243 32.1758C134.749 32.1758 133.541 31.6426 132.622 30.5762C131.702 29.5039 131.242 28.0596 131.242 26.2432V24.9248C131.242 23.7588 131.447 22.7275 131.857 21.8311C132.273 20.9287 132.859 20.2373 133.615 19.7568C134.371 19.2705 135.241 19.0273 136.225 19.0273C137.209 19.0273 138.077 19.2646 138.827 19.7393C139.582 20.2139 140.165 20.8848 140.576 21.752C140.986 22.6191 141.2 23.624 141.217 24.7666V26.2959ZM140.136 24.9072C140.136 23.3662 139.788 22.1592 139.09 21.2861C138.393 20.4131 137.438 19.9766 136.225 19.9766C135.036 19.9766 134.086 20.416 133.377 21.2949C132.674 22.168 132.323 23.3896 132.323 24.96V26.2959C132.323 27.8135 132.674 29.0176 133.377 29.9082C134.081 30.793 135.036 31.2354 136.243 31.2354C137.467 31.2354 138.422 30.7988 139.108 29.9258C139.793 29.0469 140.136 27.8252 140.136 26.2607V24.9072ZM154.359 20.126H149.974V32H148.893V20.126H144.516V19.2031H154.359V20.126ZM167.897 32H166.807V25.8652H159.495V32H158.414V19.2031H159.495V24.9512H166.807V19.2031H167.897V32ZM180.204 25.8652H174.219V31.0859H181.101V32H173.138V19.2031H181.057V20.126H174.219V24.9512H180.204V25.8652ZM192.608 28.8535C192.608 28.1445 192.359 27.585 191.861 27.1748C191.363 26.7588 190.452 26.3662 189.128 25.9971C187.803 25.6221 186.836 25.2148 186.227 24.7754C185.36 24.1543 184.926 23.3398 184.926 22.332C184.926 21.3535 185.328 20.5596 186.13 19.9502C186.939 19.335 187.97 19.0273 189.224 19.0273C190.074 19.0273 190.833 19.1914 191.501 19.5195C192.174 19.8477 192.696 20.3047 193.065 20.8906C193.434 21.4766 193.619 22.1299 193.619 22.8506H192.529C192.529 21.9775 192.23 21.2773 191.632 20.75C191.035 20.2168 190.232 19.9502 189.224 19.9502C188.246 19.9502 187.466 20.1699 186.886 20.6094C186.306 21.043 186.016 21.6113 186.016 22.3145C186.016 22.9648 186.277 23.4951 186.798 23.9053C187.32 24.3154 188.155 24.6787 189.303 24.9951C190.452 25.3057 191.322 25.6309 191.914 25.9707C192.505 26.3047 192.951 26.7061 193.25 27.1748C193.548 27.6436 193.698 28.1973 193.698 28.8359C193.698 29.8438 193.294 30.6523 192.485 31.2617C191.682 31.8711 190.622 32.1758 189.303 32.1758C188.401 32.1758 187.572 32.0146 186.816 31.6924C186.066 31.3701 185.495 30.9189 185.102 30.3389C184.715 29.7588 184.522 29.0938 184.522 28.3438H185.603C185.603 29.2461 185.94 29.958 186.614 30.4795C187.288 31.001 188.184 31.2617 189.303 31.2617C190.299 31.2617 191.099 31.042 191.703 30.6025C192.306 30.1631 192.608 29.5801 192.608 28.8535Z" fill="black"/>
<path fill-rule="evenodd" clip-rule="evenodd" d="M165.157 62.0667C166.212 62.1159 166.603 63.3794 166.344 64.4135C166.212 64.9518 165.943 65.4252 165.623 65.8605C165.166 66.4872 164.603 66.8409 164.019 67.2426C164.019 67.2426 164.019 67.2426 164.014 67.2426C163.532 67.3255 163.049 67.4016 162.562 67.4709C160.333 67.7977 158.09 68.0059 155.835 68.0921C154.653 68.1413 153.475 68.1413 152.297 68.1189C151.12 68.1413 149.936 68.1413 148.759 68.0921C146.5 68.0059 144.255 67.7977 142.028 67.4709C141.59 67.4072 141.154 67.3411 140.718 67.265C140.713 67.265 140.713 67.265 140.713 67.265C139.895 66.9595 139.22 66.5409 138.814 65.6266C138.423 64.7514 138.413 62.4483 139.622 62.1439C143.53 63.6301 147.637 64.3866 151.658 64.4359C151.861 64.4403 152.069 64.4359 152.278 64.4359C152.282 64.4359 152.287 64.4359 152.292 64.4359C152.505 64.4359 152.718 64.4403 152.932 64.4359C157.019 64.3866 161.191 63.6077 165.157 62.0667Z" fill="#AC262A"/>
<path fill-rule="evenodd" clip-rule="evenodd" d="M133.482 161.73C133.498 161.685 133.417 161.66 133.407 161.71C131.684 168.744 130.254 175.913 129.361 183.1C128.921 186.683 128.657 190.306 128.532 193.909C128.39 197.737 128.673 201.488 128.992 205.306C128.997 205.397 129.133 205.397 129.133 205.306C129.274 201.682 129.629 198.084 129.769 194.465C129.911 190.852 130.183 187.255 130.462 183.651C131.027 176.271 131.977 168.983 133.482 161.73ZM140.757 118.775C140.773 118.738 140.711 118.713 140.696 118.749C138.176 124.266 136.378 129.9 135.912 135.999C135.892 136.238 136.281 136.295 136.327 136.054C137.433 130.237 138.705 124.342 140.757 118.775ZM145.056 128.695C145.062 128.624 144.96 128.629 144.95 128.695C143.474 140.47 141.842 152.229 140.686 164.042C139.534 175.812 138.786 187.61 137.802 199.395C137.802 199.421 137.842 199.421 137.847 199.395C139.257 187.606 140.898 175.852 142.141 164.042C143.379 152.284 144.141 140.484 145.056 128.695ZM153.558 179.849C153.598 171.402 153.735 162.955 153.654 154.509C153.573 146.058 153.148 137.611 152.76 129.171C152.755 129.119 152.689 129.119 152.689 129.171C152.568 137.611 152.406 146.063 152.594 154.509C152.774 162.961 153.179 171.402 153.482 179.849C153.487 179.895 153.558 179.895 153.558 179.849ZM166.843 206.229C166.843 206.244 166.875 206.244 166.875 206.229C165.904 196.185 165 186.146 164.267 176.082C163.914 171.213 163.6 166.375 162.808 161.552C161.954 156.361 161.227 151.161 160.59 145.935C160.58 145.823 160.403 145.823 160.412 145.935C160.858 150.912 161.211 155.877 161.464 160.863C161.721 165.849 162.342 170.733 163.035 175.673C164.459 185.84 165.677 196.027 166.843 206.229ZM171.527 145.971C171.573 146.21 171.972 146.155 171.956 145.91C171.476 138.162 169.652 130.211 166.879 122.975C166.859 122.923 166.778 122.943 166.794 123C167.718 126.807 168.728 130.579 169.461 134.432C170.188 138.27 170.845 142.124 171.527 145.971ZM174.76 199.406C175.563 190.791 174.239 181.916 172.78 173.434C172.769 173.377 172.683 173.397 172.694 173.453C173.952 182.089 173.871 190.729 174.416 199.406C174.432 199.63 174.739 199.625 174.76 199.406ZM148.259 234.569C148.31 234.687 148.36 234.799 148.411 234.911C148.511 235.12 148.607 235.32 148.709 235.514C148.753 235.589 148.794 235.666 148.845 235.743C148.668 235.769 148.485 235.784 148.305 235.799C146.269 235.983 143.823 236.202 141.828 235.676C141.025 235.462 140.661 235.013 140.519 234.452C140.459 234.232 140.434 234.003 140.423 233.758C140.413 233.364 140.454 232.951 140.479 232.539C140.55 231.436 140.586 230.333 140.63 229.231C140.722 226.837 140.802 224.443 140.934 222.056C140.939 221.983 140.833 221.989 140.828 222.056C140.499 225.097 140.08 228.124 139.701 231.16C139.58 232.094 139.368 233.216 139.474 234.218C137.645 234.834 135.568 234.125 135.443 231.722V231.706C135.831 229.511 136.094 227.291 136.2 225.061C136.408 220.55 135.968 215.942 135.356 211.47C135.351 211.445 135.301 211.45 135.301 211.481C135.619 215.937 135.457 220.336 135.134 224.785C135.053 225.837 134.973 226.888 134.882 227.94C133.477 226.479 131.639 226.828 130.037 227.674C130.264 224.51 129.017 220.56 130.083 218.044C130.123 217.947 129.992 217.865 129.941 217.957C129.017 219.687 129.118 221.514 129.355 223.407C129.532 224.826 129.809 226.479 129.532 227.95C129.522 228.036 129.506 228.113 129.481 228.195C129.31 228.956 128.976 229.655 128.39 230.24C126.46 232.186 123.278 231.537 121.414 229.864C120.716 229.231 120.146 228.521 119.676 227.75C119.883 223.29 119.823 218.819 119.914 214.354C120.01 209.623 120.172 204.891 120.394 200.16C121.202 183.176 122.757 166.259 125.238 149.436C126.4 141.552 127.653 133.538 129.431 125.761C130.573 120.791 132.26 115.651 135.22 111.435L135.847 110.578C135.852 110.567 135.857 110.562 135.862 110.558C135.978 110.159 136.064 109.746 136.129 109.323C136.383 107.689 136.327 105.928 136.311 104.439C136.276 101.724 135.928 99.0487 135.417 96.3905C135.003 94.2151 134.488 92.0669 133.982 89.9187V89.9134C133.826 88.1735 133.806 85.6213 135.2 85.5237C135.427 85.6926 135.665 85.8605 135.912 86.019C139.095 88.0559 143.58 88.5208 147.273 87.2909C147.4 87.2447 147.349 87.0758 147.213 87.1115C143.328 88.1168 139.085 87.4536 135.968 85.2435C134.336 84.0954 133.144 82.5286 132.251 80.8442C132.098 80.564 131.957 80.2775 131.826 79.9921C131.75 79.8284 131.679 79.6657 131.609 79.502C131.497 79.2523 131.396 79.0067 131.3 78.7622C131.3 78.7569 131.295 78.7517 131.295 78.7517C131.29 78.716 131.24 78.7265 131.24 78.7622C131.245 79.0371 131.249 79.3131 131.249 79.5944C131.123 81.6303 130.926 83.662 130.538 85.6727C130.366 86.5594 130.169 87.4378 129.966 88.311C128.067 88.7811 126.183 89.1788 124.172 89.1631C122.98 89.1474 121.818 89.0099 120.677 88.7853C120.52 82.432 119.332 76.1187 119.216 69.7643C119.156 66.4523 119.555 63.7469 121.712 61.1349C122.596 60.0571 123.667 59.2973 124.793 58.6173C127.253 57.4797 129.871 56.7766 132.477 56C132.75 56.6223 133.043 57.2404 133.346 57.8522C133.391 57.9593 133.442 58.0674 133.498 58.1744C133.503 58.1786 133.507 58.1786 133.518 58.1891C134.872 60.8442 136.519 63.3544 138.463 65.6002C138.549 65.702 138.635 65.7985 138.726 65.9014C139.049 65.9769 139.373 66.0483 139.701 66.1155C143.878 67.0033 148.208 67.4839 152.502 67.4273C156.427 67.4787 160.378 67.0799 164.227 66.3348C164.585 66.2634 164.945 66.1921 165.303 66.1155C165.631 66.0483 165.954 65.9769 166.278 65.9014C166.363 65.7985 166.455 65.702 166.541 65.6002C168.486 63.3544 170.132 60.8442 171.486 58.1891C171.491 58.1786 171.501 58.1786 171.506 58.1744C171.557 58.0674 171.607 57.9593 171.658 57.8522C171.961 57.2404 172.249 56.6223 172.527 56C173.826 56.3872 175.134 56.7608 176.422 57.1733C177.71 57.5878 178.978 58.0516 180.206 58.6173C181.332 59.2973 182.403 60.0571 183.292 61.1349C185.353 63.6357 185.808 66.2183 185.789 69.3351C185.626 72.1172 185.196 74.8982 184.737 77.6036C184.211 80.732 183.848 83.896 183.368 87.0359C183.267 87.6834 183.181 88.3361 183.095 88.9899C182.352 89.0917 181.6 89.1526 180.827 89.1631C178.553 89.183 176.442 88.6678 174.29 88.1273C174.25 88.1168 174.209 88.1011 174.174 88.0853C173.987 86.3359 173.855 84.5802 173.79 82.8245C173.759 82.0637 173.74 81.3039 173.74 80.5431C173.74 80.5221 173.74 80.5021 173.74 80.4811C173.74 80.308 173.74 80.1401 173.744 79.9659C173.749 79.5629 173.754 79.161 173.765 78.7622C173.765 78.7265 173.71 78.716 173.704 78.7517C173.542 79.1652 173.366 79.5786 173.174 79.9921C173.043 80.2775 172.9 80.564 172.754 80.8442C172.683 80.9712 172.613 81.1045 172.537 81.2315C172.431 81.4267 172.315 81.6198 172.194 81.8087C171.375 83.1257 170.349 84.32 169.036 85.2435C165.915 87.4536 161.676 88.1168 157.786 87.1115C157.649 87.0758 157.605 87.2447 157.73 87.2909C161.419 88.5208 165.91 88.0559 169.091 86.019C169.426 85.8049 169.738 85.5803 170.031 85.3453C170.617 85.1259 171.238 85.1207 171.612 85.7944C171.623 85.8049 171.628 85.8248 171.633 85.8406C170.901 89.8316 169.718 93.7565 168.865 97.7422C168.642 98.7675 168.435 99.8043 168.253 100.851C166.652 101.334 165.015 101.749 163.313 102.06C158.827 102.887 154.184 103.157 149.603 103.049C149.572 103.049 149.577 103.085 149.603 103.09C154.256 103.585 158.882 103.361 163.459 102.519C165.01 102.234 166.586 101.892 168.152 101.473C167.844 103.428 167.657 105.402 167.743 107.337C167.768 107.924 167.819 108.506 167.905 109.082C167.951 109.429 168.006 109.772 168.076 110.109C168.091 110.195 168.106 110.287 168.127 110.374C166.026 111.216 163.868 111.911 161.594 112.415C160.959 112.553 160.322 112.681 159.68 112.788C154.967 113.583 150.092 113.528 145.385 112.818C145.364 112.813 145.353 112.844 145.374 112.854C151.001 114.114 157.256 114.094 163.156 112.742C165.167 112.344 167.147 111.813 169.112 111.15C171.365 115.288 172.87 119.897 174.007 124.403C176.154 132.911 177.235 141.74 178.437 150.422C181.175 170.198 183.07 190.112 184.171 210.057C184.49 215.737 185.166 221.989 184.187 227.714C183.712 228.495 183.135 229.221 182.428 229.864C180.564 231.537 177.382 232.186 175.452 230.24C174.866 229.655 174.532 228.956 174.361 228.195C174.336 228.113 174.32 228.036 174.31 227.95C174.31 227.945 174.305 227.94 174.305 227.935C174.341 226.685 174.573 225.398 174.638 224.393C174.821 221.672 174.825 218.896 174.543 216.186C174.543 216.16 174.507 216.16 174.507 216.186C174.513 217.268 174.492 218.34 174.447 219.406C174.35 221.866 174.128 224.306 173.821 226.786C173.805 226.894 173.795 227.001 173.78 227.113C173.765 227.286 173.749 227.459 173.735 227.639C173.669 227.608 173.604 227.573 173.537 227.541C172.002 226.796 170.289 226.562 168.96 227.94C168.87 226.888 168.789 225.837 168.708 224.785C168.385 220.336 168.223 215.937 168.542 211.481C168.542 211.45 168.491 211.445 168.486 211.47C167.875 215.942 167.435 220.55 167.647 225.061C167.753 227.291 168.011 229.511 168.399 231.706V231.722C168.274 234.125 166.197 234.834 164.369 234.218C164.474 233.216 164.262 232.094 164.147 231.16C163.762 228.124 163.343 225.097 163.014 222.056C163.009 221.989 162.903 221.983 162.909 222.056C163.04 224.443 163.12 226.837 163.212 229.231C163.258 230.333 163.293 231.436 163.364 232.539C163.394 232.951 163.429 233.364 163.419 233.758C163.409 234.003 163.383 234.232 163.323 234.452C163.181 235.013 162.817 235.462 162.014 235.676C160.246 236.141 158.12 236.024 156.246 235.86C156.316 235.753 156.386 235.635 156.453 235.514C156.689 235.069 156.917 234.564 157.135 233.998C158.165 231.343 158.271 228.103 158.074 225.031C157.822 221.097 157.402 217.555 157.109 214.411C156.155 204.203 155.362 197.052 154.851 191.756C154.851 191.74 154.826 191.74 154.826 191.756C155.174 196.303 155.599 202.192 156.16 210.113C156.331 212.486 156.543 215.083 156.766 217.926C157.008 220.958 157.579 224.796 157.337 228.47C157.19 230.65 156.654 234.034 154.881 235.728C154.346 236.243 153.608 236.565 152.88 236.717C152.148 236.876 151.355 236.764 150.709 236.37C150.184 236.05 149.764 235.575 149.436 235.054C148.531 233.619 148.026 231.977 147.864 230.286C147.466 226.118 147.668 221.636 147.794 217.058C147.546 219.509 147.273 222.167 147.092 225.031C146.89 228.103 147.001 231.343 148.026 233.998C148.102 234.197 148.178 234.386 148.259 234.569Z" fill="#D92D2E"/>
<path fill-rule="evenodd" clip-rule="evenodd" d="M174.64 200.225C175.482 191.838 174.095 183.198 172.565 174.94C172.554 174.884 172.464 174.904 172.475 174.959C173.793 183.366 173.708 191.777 174.28 200.225C174.296 200.443 174.618 200.438 174.64 200.225Z" fill="#0A0B09"/>
<path fill-rule="evenodd" clip-rule="evenodd" d="M173.844 79.0234C173.829 79.1106 173.824 79.2019 173.809 79.2944C173.804 79.2944 173.798 79.2944 173.793 79.2944C173.809 79.2072 173.829 79.1106 173.844 79.0234C173.681 79.4372 173.504 79.8511 173.31 80.265C173.178 80.5507 173.035 80.8375 172.888 81.1179C172.817 81.245 172.746 81.3784 172.669 81.5055C172.563 81.7009 172.445 81.8942 172.324 82.0833C171.5 83.4016 170.467 84.597 169.146 85.5213C166.003 87.7336 161.736 88.3974 157.822 87.3911C157.684 87.3554 157.639 87.5245 157.765 87.5707C161.478 88.8018 165.998 88.3355 169.202 86.2976C169.538 86.0833 169.852 85.8585 170.147 85.6232C170.737 85.4037 171.362 85.3984 171.739 86.0728C171.749 86.0833 171.754 86.1033 171.76 86.119C171.022 90.1138 169.831 94.0425 168.973 98.032C168.749 99.0583 168.54 100.096 168.357 101.143C166.746 101.628 165.098 102.043 163.384 102.353C158.869 103.181 154.196 103.452 149.584 103.344C149.553 103.344 149.558 103.38 149.584 103.385C154.268 103.881 158.925 103.656 163.532 102.814C165.093 102.528 166.679 102.185 168.256 101.766C167.945 103.723 167.757 105.699 167.844 107.636C167.869 108.223 167.92 108.806 168.007 109.383C168.053 109.73 168.108 110.073 168.179 110.41C168.194 110.496 168.21 110.589 168.231 110.676C166.115 111.518 163.944 112.214 161.655 112.719C161.015 112.857 160.374 112.985 159.728 113.092C154.984 113.888 150.077 113.833 145.338 113.123C145.317 113.117 145.307 113.148 145.328 113.158C150.992 114.42 157.287 114.4 163.226 113.046C165.251 112.648 167.244 112.116 169.222 111.452C171.49 115.594 173.005 120.208 174.149 124.718C176.31 133.234 177.398 142.071 178.608 150.762C181.364 170.557 183.272 190.49 184.38 210.453C184.701 216.139 185.382 222.397 184.396 228.128C183.918 228.91 183.337 229.636 182.625 230.279C180.75 231.955 177.546 232.604 175.603 230.656C175.013 230.07 174.678 229.371 174.505 228.609C174.48 228.527 174.464 228.451 174.454 228.363C174.454 228.359 174.449 228.354 174.449 228.349C174.485 227.098 174.719 225.81 174.784 224.803C174.968 222.08 174.973 219.301 174.688 216.589C174.688 216.563 174.653 216.563 174.653 216.589C174.658 217.672 174.637 218.745 174.592 219.812C174.495 222.274 174.271 224.716 173.962 227.198C173.946 227.307 173.935 227.414 173.921 227.526C173.905 227.699 173.889 227.873 173.875 228.052C173.809 228.022 173.743 227.986 173.676 227.955C172.131 227.209 170.407 226.975 169.069 228.354C168.978 227.301 168.897 226.249 168.815 225.196C168.49 220.742 168.327 216.339 168.648 211.879C168.648 211.848 168.597 211.843 168.591 211.868C167.977 216.344 167.534 220.957 167.748 225.473C167.854 227.705 168.114 229.926 168.505 232.124V232.14C168.378 234.545 166.288 235.254 164.448 234.638C164.553 233.635 164.34 232.511 164.224 231.577C163.837 228.538 163.415 225.508 163.084 222.464C163.079 222.397 162.972 222.392 162.978 222.464C163.11 224.854 163.191 227.25 163.283 229.646C163.329 230.749 163.364 231.853 163.436 232.957C163.466 233.37 163.501 233.784 163.491 234.177C163.482 234.422 163.455 234.652 163.395 234.872C163.251 235.434 162.886 235.883 162.077 236.098C160.298 236.563 158.157 236.445 156.271 236.281C156.341 236.174 156.412 236.057 156.479 235.935C156.718 235.489 156.947 234.984 157.166 234.418C158.202 231.76 158.31 228.517 158.111 225.442C157.857 221.504 157.435 217.958 157.14 214.812C156.179 204.594 155.381 197.437 154.867 192.135C154.867 192.119 154.842 192.119 154.842 192.135C155.192 196.686 155.62 202.582 156.184 210.51C156.357 212.885 156.57 215.485 156.795 218.331C157.039 221.365 157.613 225.207 157.369 228.884C157.221 231.066 156.682 234.454 154.897 236.149C154.359 236.665 153.616 236.987 152.883 237.14C152.146 237.298 151.348 237.186 150.698 236.792C150.169 236.472 149.747 235.996 149.416 235.475C148.505 234.039 147.997 232.395 147.834 230.703C147.434 226.53 147.636 222.044 147.763 217.462C147.514 219.915 147.239 222.575 147.057 225.442C146.853 228.517 146.965 231.76 147.997 234.418C148.074 234.617 148.15 234.806 148.231 234.989C148.283 235.107 148.333 235.219 148.384 235.332C148.486 235.541 148.583 235.741 148.684 235.935C148.729 236.01 148.77 236.087 148.821 236.165C148.643 236.19 148.459 236.206 148.277 236.221C146.228 236.404 143.767 236.624 141.758 236.098C140.95 235.883 140.584 235.434 140.441 234.872C140.38 234.652 140.355 234.422 140.344 234.177C140.334 233.784 140.375 233.37 140.4 232.957C140.472 231.853 140.508 230.749 140.553 229.646C140.645 227.25 140.725 224.854 140.858 222.464C140.863 222.392 140.756 222.397 140.751 222.464C140.421 225.508 139.998 228.538 139.617 231.577C139.495 232.511 139.282 233.635 139.389 234.638C137.547 235.254 135.457 234.545 135.331 232.14V232.124C135.722 229.926 135.986 227.705 136.093 225.473C136.302 220.957 135.86 216.344 135.244 211.868C135.239 211.843 135.189 211.848 135.189 211.879C135.509 216.339 135.345 220.742 135.02 225.196C134.939 226.249 134.858 227.301 134.766 228.354C133.353 226.892 131.502 227.24 129.89 228.088C130.119 224.921 128.863 220.967 129.936 218.448C129.976 218.352 129.845 218.27 129.793 218.361C128.863 220.093 128.964 221.922 129.204 223.817C129.381 225.237 129.661 226.892 129.381 228.363C129.371 228.451 129.356 228.527 129.33 228.609C129.158 229.371 128.822 230.07 128.232 230.656C126.29 232.604 123.086 231.955 121.21 230.279C120.507 229.646 119.933 228.936 119.461 228.164C119.669 223.699 119.608 219.225 119.7 214.755C119.796 210.02 119.959 205.283 120.183 200.548C120.997 183.548 122.562 166.614 125.059 149.775C126.229 141.883 127.49 133.862 129.28 126.077C130.429 121.103 132.127 115.958 135.107 111.738L135.738 110.88C135.743 110.869 135.748 110.864 135.753 110.86C135.869 110.461 135.956 110.047 136.022 109.624C136.277 107.988 136.221 106.225 136.205 104.735C136.169 102.017 135.819 99.3398 135.305 96.679C134.889 94.5015 134.37 92.3513 133.861 90.201V90.1958C133.704 88.4542 133.683 85.8995 135.086 85.8018C135.315 85.9709 135.555 86.139 135.803 86.2976C139.007 88.3355 143.522 88.8018 147.239 87.5707C147.367 87.5245 147.315 87.3554 147.179 87.3911C143.268 88.3974 138.997 87.7336 135.86 85.5213C134.217 84.3722 133.017 82.8039 132.118 81.1179C131.964 80.8375 131.822 80.5507 131.69 80.265C131.614 80.1011 131.543 79.9383 131.472 79.7744C131.36 79.5244 131.257 79.2786 131.161 79.0339C131.161 79.0286 131.156 79.0234 131.156 79.0234C131.151 78.9877 131.1 78.9982 131.1 79.0339C131.106 79.3091 131.11 79.5854 131.11 79.8669C130.983 81.9047 130.785 83.9383 130.394 85.951C130.221 86.8386 130.022 87.7178 129.818 88.5918C127.907 89.0624 126.01 89.4605 123.986 89.4447C122.786 89.429 121.617 89.2914 120.468 89.0666C120.31 82.7072 119.115 76.3878 118.998 70.0275C118.937 66.7123 119.338 64.0043 121.51 61.3898C122.4 60.311 123.478 59.5505 124.611 58.8698C127.087 57.7311 129.722 57.0273 132.346 56.25C132.621 56.8729 132.915 57.4916 133.221 58.104C133.266 58.2112 133.317 58.3194 133.373 58.4265C133.379 58.4307 133.383 58.4307 133.393 58.4412C134.757 61.0988 136.414 63.6114 138.371 65.8594C138.457 65.9612 138.544 66.0579 138.636 66.1608C138.961 66.2365 139.287 66.3079 139.617 66.3751C143.822 67.2638 148.18 67.7449 152.503 67.6882C156.453 67.7396 160.43 67.3405 164.304 66.5947C164.665 66.5232 165.027 66.4518 165.388 66.3751C165.718 66.3079 166.043 66.2365 166.369 66.1608C166.455 66.0579 166.547 65.9612 166.634 65.8594C168.591 63.6114 170.249 61.0988 171.611 58.4412C171.616 58.4307 171.627 58.4307 171.632 58.4265C171.683 58.3194 171.733 58.2112 171.785 58.104C172.09 57.4916 172.38 56.8729 172.66 56.25C173.967 56.6376 175.283 57.0116 176.58 57.4244C177.876 57.8383 179.153 58.3036 180.389 58.8698C181.522 59.5505 182.6 60.311 183.495 61.3898C185.57 63.8929 186.028 66.4781 186.009 69.5978C185.845 72.3825 185.412 75.1662 184.95 77.8742C184.421 81.0055 184.055 84.1726 183.572 87.3155C183.47 87.9636 183.383 88.617 183.297 89.2714C182.549 89.3733 181.792 89.4342 181.014 89.4447C178.725 89.4647 176.6 88.9489 174.434 88.4079C174.393 88.3974 174.353 88.3817 174.317 88.3659C174.129 86.6148 173.996 84.8575 173.93 83.1001C173.9 82.3385 173.88 81.578 173.88 80.8165C173.88 80.7955 173.88 80.7755 173.88 80.7545C173.88 80.5812 173.88 80.4131 173.885 80.2387C173.889 79.8354 173.895 79.433 173.905 79.0339C173.905 78.9982 173.85 78.9877 173.844 79.0234ZM139.806 61.4864C143.721 62.8814 147.834 63.5915 151.862 63.6377C152.066 63.6419 152.274 63.6377 152.483 63.6377C152.487 63.6377 152.492 63.6377 152.497 63.6377C152.711 63.6377 152.924 63.6419 153.137 63.6377C157.232 63.5915 161.411 62.8604 165.383 61.4139C166.441 61.4601 166.832 62.6461 166.572 63.6167C166.441 64.1219 166.171 64.5663 165.851 64.9749C165.393 65.5631 164.828 65.8951 164.244 66.2722C164.244 66.2722 164.244 66.2722 164.239 66.2722C163.755 66.3499 163.272 66.4213 162.784 66.4865C160.552 66.7932 158.305 66.9886 156.046 67.0695C154.863 67.1157 153.682 67.1157 152.503 67.0947C151.323 67.1157 150.138 67.1157 148.958 67.0695C146.695 66.9886 144.447 66.7932 142.216 66.4865C141.778 66.4266 141.341 66.3646 140.904 66.2932C140.899 66.2932 140.899 66.2932 140.899 66.2932C140.08 66.0064 139.403 65.6136 138.997 64.7554C138.606 63.9339 138.595 61.7721 139.806 61.4864ZM173.539 81.6442C173.478 82.4614 173.447 83.2734 173.447 84.0802C173.447 85.4447 173.544 86.8039 173.743 88.1569C173.747 88.1831 173.747 88.2084 173.758 88.2388C173.772 88.3817 173.793 88.5256 173.824 88.6684C174.007 88.7651 174.189 88.8512 174.378 88.9342C176.152 89.7304 178.212 90.1138 180.292 90.139C181.268 90.1496 182.249 90.0834 183.211 89.9405C183.653 89.8733 184.09 89.7924 184.522 89.6947C184.558 89.6842 184.598 89.679 184.634 89.6695C184.67 89.4552 184.71 89.2409 184.747 89.0256C185.245 85.9657 185.447 82.8648 185.794 79.7891C185.834 79.4278 185.875 79.0643 185.921 78.7061C186.149 76.8889 186.328 75.0643 186.516 73.2407C186.694 71.4834 187.019 69.7523 186.999 67.9844C186.983 66.3804 186.724 64.8016 186.094 63.4024C185.987 63.1671 185.875 62.9413 185.749 62.7217C185.662 62.5589 185.565 62.4013 185.463 62.2417C185.031 61.583 184.487 60.9801 183.826 60.4538C182.849 59.6881 181.766 58.937 180.622 58.2941C179.549 57.8236 178.436 57.4296 177.306 57.0924C175.791 56.6429 174.246 56.3015 172.751 56.041C172.736 56.0357 172.72 56.0357 172.705 56.0305C172.639 56.0158 172.578 56.0105 172.517 56C172.486 56.062 172.456 56.1166 172.426 56.1786C172.049 56.9034 171.658 57.6135 171.25 58.3141C171.236 58.3404 171.216 58.3645 171.2 58.3897C167.529 60.2143 163.761 61.6902 159.82 62.4927C158.431 62.7732 157.033 62.9822 155.625 63.1209C154.801 63.2018 153.967 63.2585 153.137 63.2942C152.924 63.2995 152.711 63.3047 152.497 63.31C152.289 63.3047 152.075 63.2995 151.867 63.2942C151.038 63.2585 150.204 63.2018 149.375 63.1209C147.972 62.9822 146.573 62.7732 145.186 62.4927C141.245 61.6902 137.471 60.2143 133.8 58.3897C133.784 58.3645 133.77 58.3404 133.755 58.3141C133.347 57.6135 132.951 56.9034 132.58 56.1786C132.55 56.1166 132.518 56.062 132.489 56C132.422 56.0105 132.361 56.0158 132.3 56.0305C132.285 56.0357 132.269 56.0357 132.254 56.041C130.754 56.3015 129.214 56.6429 127.694 57.0924C126.569 57.4296 125.455 57.8236 124.383 58.2941C123.238 58.937 122.155 59.6881 121.174 60.4538C120.513 60.9801 119.974 61.583 119.542 62.2417C118.449 63.8982 118.027 65.9203 118.001 67.9844C117.985 69.7523 118.312 71.4834 118.489 73.2407C118.678 75.0643 118.855 76.8889 119.079 78.7061C119.506 82.14 119.705 85.6085 120.259 89.0256C120.264 89.0519 120.269 89.0718 120.269 89.0981C120.305 89.2861 120.335 89.4804 120.366 89.6695C120.406 89.679 120.443 89.6842 120.483 89.6947C121.851 90.0014 123.284 90.1548 124.709 90.139C126.422 90.1191 128.115 89.8544 129.651 89.3229C129.982 89.2042 130.307 89.0771 130.621 88.9342C130.653 88.9184 130.683 88.9079 130.713 88.8922C130.871 88.8218 131.024 88.7504 131.182 88.6684C131.207 88.5256 131.232 88.3817 131.248 88.2388C131.252 88.2084 131.257 88.1831 131.257 88.1569C131.456 86.8039 131.553 85.4447 131.557 84.0802C131.557 83.2734 131.522 82.4614 131.466 81.6442C131.456 81.5318 131.445 81.4142 131.436 81.3018C131.431 81.2314 131.42 81.1537 131.415 81.077C131.415 81.015 131.42 80.9551 131.426 80.8931C131.431 80.8984 131.431 80.8984 131.436 80.9036C131.477 81.0003 131.522 81.098 131.562 81.1946C131.619 81.4908 131.715 81.9961 131.761 82.2461C132.076 86.7325 133.379 91.2273 134.324 95.5593C134.924 98.323 135.402 101.112 135.62 103.932C135.727 105.261 135.717 106.584 135.62 107.912C135.555 108.734 135.391 109.547 135.26 110.364C133.159 112.529 131.623 115.105 130.449 117.878C129.28 120.652 128.472 123.631 127.815 126.604C126.035 134.716 124.942 142.961 123.798 151.18C122.613 159.67 121.652 168.197 120.874 176.734C120.066 185.504 119.481 194.296 119.166 203.108C118.875 211.117 118.469 219.26 118.962 227.281V227.286C118.983 227.669 119.013 228.052 119.038 228.435C119.155 228.67 119.278 228.9 119.409 229.129C119.802 229.799 120.274 230.417 120.844 230.959C122.476 232.496 124.749 233.329 126.936 232.471C128.95 231.68 129.676 230.156 129.859 228.349C129.9 228.329 129.941 228.313 129.982 228.293C131.482 227.608 133.134 227.281 134.365 228.609C134.507 228.773 134.624 228.941 134.7 229.125C135.31 230.494 134.222 232.39 134.98 233.871C134.985 233.871 134.985 233.881 134.985 233.881C135.869 235.587 138 236.276 139.582 235.5C139.796 236.062 140.177 236.537 140.838 236.849C142.795 237.778 145.683 237.487 147.759 237.293C148.374 237.232 149.004 237.166 149.64 237.074C150.387 237.661 151.363 237.947 152.497 237.994C153.672 238.044 154.643 237.793 155.401 237.222C155.625 237.248 155.854 237.272 156.078 237.293C158.152 237.487 161.045 237.778 162.998 236.849C163.659 236.537 164.04 236.062 164.254 235.5C165.835 236.276 167.966 235.587 168.851 233.881C168.851 233.881 168.851 233.871 168.856 233.871C169.613 232.39 168.525 230.494 169.135 229.125C169.217 228.941 169.328 228.773 169.476 228.609C170.62 227.363 172.156 227.578 173.575 228.169C173.671 228.21 173.768 228.251 173.859 228.293C173.9 228.313 173.935 228.329 173.976 228.349C174.068 229.273 174.307 230.127 174.784 230.841C174.784 230.841 174.784 230.841 174.784 230.847C175.242 231.526 175.919 232.088 176.901 232.471C179.086 233.329 181.359 232.496 182.991 230.959C183.409 230.566 183.769 230.131 184.09 229.661C184.69 228.773 185.133 227.771 185.484 226.739C185.616 226.345 185.738 225.953 185.845 225.549C185.967 225.094 186.083 224.64 186.19 224.19C186.195 224.072 186.195 223.956 186.195 223.837V223.832C186.221 223.148 186.236 222.459 186.246 221.769C186.374 219.838 186.399 217.922 186.374 216.079C186.296 210.106 186.023 204.125 185.631 198.152V198.128C185.291 190.986 184.787 183.849 184.131 176.734C183.348 168.197 182.387 159.67 181.201 151.18C180.057 142.961 178.97 134.716 177.185 126.604C176.076 121.551 174.515 116.5 171.5 112.433C171.195 111.943 170.884 111.463 170.549 110.992C170.284 110.604 170.01 110.231 169.72 109.858C169.696 109.822 169.669 109.792 169.644 109.756C169.538 109.143 169.431 108.53 169.385 107.912C169.284 106.584 169.278 105.261 169.38 103.932C169.446 103.079 169.538 102.226 169.649 101.372C169.68 101.153 169.705 100.933 169.74 100.714C169.984 98.9826 170.31 97.2652 170.682 95.5593C171.627 91.222 172.934 86.7115 173.244 82.2114C173.269 81.9614 173.294 81.7156 173.326 81.4656C173.412 81.2755 173.493 81.0875 173.569 80.8931C173.569 80.8826 173.569 80.8679 173.575 80.8574V80.8522C173.59 80.8574 173.61 80.8469 173.621 80.8217C173.6 80.9793 173.585 81.1442 173.569 81.3018C173.554 81.4142 173.549 81.5318 173.539 81.6442Z" fill="#0A0B09"/>
<path fill-rule="evenodd" clip-rule="evenodd" d="M172.071 145.634C172.114 145.872 172.488 145.817 172.473 145.573C172.023 137.868 170.313 129.959 167.713 122.763C167.695 122.712 167.619 122.732 167.633 122.788C168.5 126.575 169.447 130.326 170.134 134.158C170.816 137.975 171.431 141.808 172.071 145.634Z" fill="#0A0B09"/>
<path fill-rule="evenodd" clip-rule="evenodd" d="M163.317 176.959C164.917 187.173 166.286 197.406 167.597 207.656C167.597 207.67 167.632 207.67 167.632 207.656C166.541 197.565 165.524 187.48 164.701 177.37C164.304 172.478 163.952 167.618 163.061 162.773C162.101 157.559 161.284 152.335 160.568 147.085C160.557 146.972 160.358 146.972 160.369 147.085C160.87 152.084 161.267 157.072 161.55 162.081C161.84 167.09 162.538 171.997 163.317 176.959Z" fill="#0A0B09"/>
<path fill-rule="evenodd" clip-rule="evenodd" d="M154.112 180.939C154.117 180.985 154.19 180.985 154.19 180.939C154.232 172.457 154.374 163.975 154.29 155.495C154.206 147.009 153.767 138.527 153.366 130.052C153.36 130 153.293 130 153.293 130.052C153.167 138.527 153 147.014 153.194 155.495C153.381 163.982 153.799 172.457 154.112 180.939Z" fill="#0A0B09"/>
<path fill-rule="evenodd" clip-rule="evenodd" d="M144.525 130.065C143.048 141.773 141.414 153.466 140.256 165.213C139.103 176.916 138.354 188.649 137.368 200.368C137.368 200.393 137.409 200.393 137.414 200.368C138.825 188.645 140.468 176.957 141.712 165.213C142.952 153.521 143.715 141.788 144.631 130.065C144.637 129.994 144.535 129.999 144.525 130.065Z" fill="#0A0B09"/>
<path fill-rule="evenodd" clip-rule="evenodd" d="M139.726 119.111C137.209 124.856 135.413 130.723 134.948 137.075C134.928 137.324 135.316 137.383 135.362 137.132C136.467 131.074 137.738 124.936 139.787 119.138C139.803 119.1 139.741 119.074 139.726 119.111Z" fill="#0A0B09"/>
<path fill-rule="evenodd" clip-rule="evenodd" d="M133.661 162.801C131.99 169.832 130.602 177 129.735 184.185C129.309 187.767 129.053 191.389 128.931 194.991C128.794 198.818 129.068 202.568 129.378 206.385C129.383 206.476 129.515 206.476 129.515 206.385C129.652 202.762 129.995 199.165 130.131 195.547C130.27 191.935 130.534 188.338 130.804 184.736C131.352 177.358 132.274 170.072 133.735 162.821C133.75 162.776 133.671 162.751 133.661 162.801Z" fill="#0A0B09"/>
<defs>
<filter id="filter0_d" x="262.406" y="112.776" width="30.5938" height="75.7266" filterUnits="userSpaceOnUse" color-interpolation-filters="sRGB">
<feFlood flood-opacity="0" result="BackgroundImageFix"/>
<feColorMatrix in="SourceAlpha" type="matrix" values="0 0 0 0 0 0 0 0 0 0 0 0 0 0 0 0 0 0 127 0"/>
<feOffset dx="1" dy="1"/>
<feGaussianBlur stdDeviation="1"/>
<feColorMatrix type="matrix" values="0 0 0 0 0 0 0 0 0 0 0 0 0 0 0 0 0 0 0.15 0"/>
<feBlend mode="normal" in2="BackgroundImageFix" result="effect1_dropShadow"/>
<feBlend mode="normal" in="SourceGraphic" in2="effect1_dropShadow" result="shape"/>
</filter>
<radialGradient id="paint0_radial" cx="0" cy="0" r="1" gradientUnits="userSpaceOnUse" gradientTransform="translate(150 150) rotate(90) scale(150)">
<stop offset="0.369792" stop-color="white" stop-opacity="0"/>
<stop offset="1" stop-color="#FF0000"/>
</radialGradient>
</defs>
</svg>
