<svg width="300" height="300" viewBox="0 0 300 300" fill="none" xmlns="http://www.w3.org/2000/svg">
<rect width="300" height="300" fill="white"/>
<rect width="300" height="300" fill="white"/>
<rect width="300" height="300" fill="white"/>
<rect width="300" height="300" fill="url(#paint0_radial)" fill-opacity="0.11"/>
<g filter="url(#filter0_d)">
<path d="M280.482 218.804L289.5 218.804L289.5 224.078L263.906 224.078L263.906 214.093C263.906 212.171 264.258 210.484 264.961 209.031C265.664 207.566 266.666 206.441 267.967 205.656C269.256 204.871 270.727 204.478 272.379 204.478C274.887 204.478 276.867 205.339 278.32 207.062C279.762 208.773 280.482 211.146 280.482 214.181L280.482 218.804ZM276.211 218.804L276.211 214.093C276.211 212.699 275.883 211.638 275.227 210.912C274.57 210.173 273.633 209.804 272.414 209.804C271.16 209.804 270.146 210.173 269.373 210.912C268.6 211.65 268.201 212.67 268.178 213.97L268.178 218.804L276.211 218.804ZM263.906 177.508L280.764 177.508C283.564 177.508 285.779 178.387 287.408 180.145C289.037 181.891 289.852 184.282 289.852 187.317C289.852 190.305 289.061 192.678 287.479 194.436C285.896 196.194 283.723 197.09 280.957 197.126L263.906 197.126L263.906 191.852L280.799 191.852C282.475 191.852 283.699 191.454 284.473 190.657C285.234 189.848 285.615 188.735 285.615 187.317C285.615 184.352 284.057 182.846 280.939 182.799L263.906 182.799L263.906 177.508ZM280.131 159.75L280.131 163.951L289.5 163.951L289.5 169.224L263.906 169.224L263.906 159.714C263.906 156.691 264.58 154.359 265.928 152.718C267.275 151.078 269.18 150.257 271.641 150.257C273.387 150.257 274.846 150.638 276.018 151.4C277.178 152.15 278.104 153.293 278.795 154.828L289.254 149.291L289.5 149.291L289.5 154.951L280.131 159.75ZM275.859 163.951L275.859 159.697C275.859 158.373 275.525 157.347 274.857 156.621C274.178 155.894 273.246 155.531 272.062 155.531C270.855 155.531 269.906 155.876 269.215 156.568C268.523 157.248 268.178 158.296 268.178 159.714L268.178 163.951L275.859 163.951ZM280.482 136.999L289.5 136.999L289.5 142.272L263.906 142.272L263.906 132.288C263.906 130.366 264.258 128.678 264.961 127.225C265.664 125.76 266.666 124.635 267.967 123.85C269.256 123.065 270.727 122.672 272.379 122.672C274.887 122.672 276.867 123.534 278.32 125.256C279.762 126.967 280.482 129.34 280.482 132.375L280.482 136.999ZM276.211 136.999L276.211 132.288C276.211 130.893 275.883 129.833 275.227 129.106C274.57 128.368 273.633 127.999 272.414 127.999C271.16 127.999 270.146 128.368 269.373 129.106C268.6 129.844 268.201 130.864 268.178 132.165L268.178 136.999L276.211 136.999ZM285.264 109.8L285.264 98.603L289.5 98.603L289.5 115.074L263.906 115.074L263.906 109.8L285.264 109.8ZM278.408 76.2035L278.408 86.3285L285.264 86.3285L285.264 74.4457L289.5 74.4457L289.5 91.602L263.906 91.602L263.906 74.4809L268.178 74.4809L268.178 86.3285L274.277 86.3285L274.277 76.2035L278.408 76.2035Z" fill="white"/>
<path d="M280.482 218.804L279.982 218.804L279.982 219.304L280.482 219.304L280.482 218.804ZM289.5 218.804L290 218.804L290 218.304L289.5 218.304L289.5 218.804ZM289.5 224.078L289.5 224.578L290 224.578L290 224.078L289.5 224.078ZM263.906 224.078L263.406 224.078L263.406 224.578L263.906 224.578L263.906 224.078ZM264.961 209.031L265.411 209.249L265.412 209.247L264.961 209.031ZM267.967 205.656L268.225 206.084L268.227 206.083L267.967 205.656ZM278.32 207.062L278.703 206.74L278.702 206.74L278.32 207.062ZM276.211 218.804L276.211 219.304L276.711 219.304L276.711 218.804L276.211 218.804ZM275.227 210.912L274.853 211.244L274.856 211.247L275.227 210.912ZM268.178 213.97L267.678 213.961L267.678 213.97L268.178 213.97ZM268.178 218.804L267.678 218.804L267.678 219.304L268.178 219.304L268.178 218.804ZM280.482 219.304L289.5 219.304L289.5 218.304L280.482 218.304L280.482 219.304ZM289 218.804L289 224.078L290 224.078L290 218.804L289 218.804ZM289.5 223.578L263.906 223.578L263.906 224.578L289.5 224.578L289.5 223.578ZM264.406 224.078L264.406 214.093L263.406 214.093L263.406 224.078L264.406 224.078ZM264.406 214.093C264.406 212.233 264.746 210.622 265.411 209.249L264.511 208.813C263.769 210.346 263.406 212.11 263.406 214.093L264.406 214.093ZM265.412 209.247C266.076 207.864 267.014 206.815 268.225 206.084L267.708 205.228C266.318 206.067 265.252 207.268 264.51 208.814L265.412 209.247ZM268.227 206.083C269.43 205.35 270.809 204.978 272.379 204.978L272.379 203.978C270.644 203.978 269.081 204.391 267.707 205.229L268.227 206.083ZM272.379 204.978C274.758 204.978 276.591 205.788 277.938 207.384L278.702 206.74C277.143 204.891 275.015 203.978 272.379 203.978L272.379 204.978ZM277.938 207.384C279.28 208.977 279.982 211.222 279.982 214.181L280.982 214.181C280.982 211.07 280.243 208.569 278.703 206.74L277.938 207.384ZM279.982 214.181L279.982 218.804L280.982 218.804L280.982 214.181L279.982 214.181ZM276.711 218.804L276.711 214.093L275.711 214.093L275.711 218.804L276.711 218.804ZM276.711 214.093C276.711 212.627 276.366 211.428 275.598 210.577L274.856 211.247C275.399 211.849 275.711 212.77 275.711 214.093L276.711 214.093ZM275.6 210.58C274.828 209.71 273.74 209.304 272.414 209.304L272.414 210.304C273.526 210.304 274.313 210.637 274.853 211.244L275.6 210.58ZM272.414 209.304C271.055 209.304 269.91 209.708 269.028 210.55L269.718 211.273C270.383 210.639 271.265 210.304 272.414 210.304L272.414 209.304ZM269.028 210.55C268.138 211.4 267.703 212.558 267.678 213.961L268.678 213.979C268.699 212.781 269.062 211.9 269.718 211.273L269.028 210.55ZM267.678 213.97L267.678 218.804L268.678 218.804L268.678 213.97L267.678 213.97ZM268.178 219.304L276.211 219.304L276.211 218.304L268.178 218.304L268.178 219.304ZM263.906 177.508L263.906 177.008L263.406 177.008L263.406 177.508L263.906 177.508ZM287.408 180.145L287.041 180.485L287.043 180.486L287.408 180.145ZM280.957 197.126L280.957 197.626L280.963 197.626L280.957 197.126ZM263.906 197.126L263.406 197.126L263.406 197.626L263.906 197.626L263.906 197.126ZM263.906 191.852L263.906 191.352L263.406 191.352L263.406 191.852L263.906 191.852ZM284.473 190.657L284.831 191.005L284.837 191L284.473 190.657ZM280.939 182.799L280.947 182.299L280.939 182.299L280.939 182.799ZM263.906 182.799L263.406 182.799L263.406 183.299L263.906 183.299L263.906 182.799ZM263.906 178.008L280.764 178.008L280.764 177.008L263.906 177.008L263.906 178.008ZM280.764 178.008C283.451 178.008 285.523 178.847 287.041 180.485L287.775 179.805C286.035 177.928 283.678 177.008 280.764 177.008L280.764 178.008ZM287.043 180.486C288.564 182.117 289.352 184.373 289.352 187.317L290.352 187.317C290.352 184.191 289.511 181.666 287.774 179.804L287.043 180.486ZM289.352 187.317C289.352 190.215 288.586 192.458 287.107 194.102L287.85 194.771C289.535 192.899 290.352 190.395 290.352 187.317L289.352 187.317ZM287.107 194.102C285.634 195.738 283.603 196.592 280.951 196.626L280.963 197.626C283.843 197.589 286.159 196.65 287.85 194.771L287.107 194.102ZM280.957 196.626L263.906 196.626L263.906 197.626L280.957 197.626L280.957 196.626ZM264.406 197.126L264.406 191.852L263.406 191.852L263.406 197.126L264.406 197.126ZM263.906 192.352L280.799 192.352L280.799 191.352L263.906 191.352L263.906 192.352ZM280.799 192.352C282.542 192.352 283.925 191.939 284.831 191.005L284.114 190.309C283.473 190.969 282.408 191.352 280.799 191.352L280.799 192.352ZM284.837 191C285.708 190.075 286.115 188.826 286.115 187.317L285.115 187.317C285.115 188.644 284.761 189.622 284.109 190.314L284.837 191ZM286.115 187.317C286.115 185.75 285.702 184.482 284.794 183.604C283.89 182.731 282.577 182.324 280.947 182.299L280.932 183.299C282.419 183.322 283.444 183.691 284.099 184.324C284.749 184.952 285.115 185.919 285.115 187.317L286.115 187.317ZM280.939 182.299L263.906 182.299L263.906 183.299L280.939 183.299L280.939 182.299ZM264.406 182.799L264.406 177.508L263.406 177.508L263.406 182.799L264.406 182.799ZM280.131 159.75L279.903 159.305L279.631 159.444L279.631 159.75L280.131 159.75ZM280.131 163.951L279.631 163.951L279.631 164.451L280.131 164.451L280.131 163.951ZM289.5 163.951L290 163.951L290 163.451L289.5 163.451L289.5 163.951ZM289.5 169.224L289.5 169.724L290 169.724L290 169.224L289.5 169.224ZM263.906 169.224L263.406 169.224L263.406 169.724L263.906 169.724L263.906 169.224ZM276.018 151.4L275.745 151.819L275.746 151.82L276.018 151.4ZM278.795 154.828L278.339 155.033L278.558 155.519L279.029 155.27L278.795 154.828ZM289.254 149.291L289.254 148.791L289.13 148.791L289.02 148.849L289.254 149.291ZM289.5 149.291L290 149.291L290 148.791L289.5 148.791L289.5 149.291ZM289.5 154.951L289.728 155.396L290 155.256L290 154.951L289.5 154.951ZM275.859 163.951L275.859 164.451L276.359 164.451L276.359 163.951L275.859 163.951ZM274.857 156.621L275.226 156.282L275.223 156.279L274.857 156.621ZM269.215 156.568L269.565 156.924L269.568 156.921L269.215 156.568ZM268.178 163.951L267.678 163.951L267.678 164.451L268.178 164.451L268.178 163.951ZM279.631 159.75L279.631 163.951L280.631 163.951L280.631 159.75L279.631 159.75ZM280.131 164.451L289.5 164.451L289.5 163.451L280.131 163.451L280.131 164.451ZM289 163.951L289 169.224L290 169.224L290 163.951L289 163.951ZM289.5 168.724L263.906 168.724L263.906 169.724L289.5 169.724L289.5 168.724ZM264.406 169.224L264.406 159.714L263.406 159.714L263.406 169.224L264.406 169.224ZM264.406 159.714C264.406 156.759 265.066 154.556 266.314 153.036L265.541 152.401C264.095 154.162 263.406 156.623 263.406 159.714L264.406 159.714ZM266.314 153.036C267.551 151.53 269.303 150.757 271.641 150.757L271.641 149.757C269.057 149.757 267 150.626 265.541 152.401L266.314 153.036ZM271.641 150.757C273.314 150.757 274.672 151.122 275.745 151.819L276.29 150.981C275.019 150.155 273.459 149.757 271.641 149.757L271.641 150.757ZM275.746 151.82C276.809 152.507 277.678 153.566 278.339 155.033L279.251 154.622C278.529 153.019 277.546 151.793 276.289 150.98L275.746 151.82ZM279.029 155.27L289.488 149.732L289.02 148.849L278.561 154.386L279.029 155.27ZM289.254 149.791L289.5 149.791L289.5 148.791L289.254 148.791L289.254 149.791ZM289 149.291L289 154.951L290 154.951L290 149.291L289 149.291ZM289.272 154.506L279.903 159.305L280.359 160.195L289.728 155.396L289.272 154.506ZM276.359 163.951L276.359 159.697L275.359 159.697L275.359 163.951L276.359 163.951ZM276.359 159.697C276.359 158.291 276.004 157.129 275.225 156.282L274.489 156.959C275.047 157.566 275.359 158.454 275.359 159.697L276.359 159.697ZM275.223 156.279C274.43 155.432 273.356 155.031 272.062 155.031L272.062 156.031C273.136 156.031 273.925 156.356 274.492 156.962L275.223 156.279ZM272.062 155.031C270.756 155.031 269.667 155.408 268.861 156.214L269.568 156.921C270.145 156.345 270.955 156.031 272.062 156.031L272.062 155.031ZM268.864 156.211C268.041 157.021 267.678 158.224 267.678 159.714L268.678 159.714C268.678 158.368 269.006 157.474 269.565 156.924L268.864 156.211ZM267.678 159.714L267.678 163.951L268.678 163.951L268.678 159.714L267.678 159.714ZM268.178 164.451L275.859 164.451L275.859 163.451L268.178 163.451L268.178 164.451ZM280.482 136.999L279.982 136.999L279.982 137.499L280.482 137.499L280.482 136.999ZM289.5 136.999L290 136.999L290 136.499L289.5 136.499L289.5 136.999ZM289.5 142.272L289.5 142.772L290 142.772L290 142.272L289.5 142.272ZM263.906 142.272L263.406 142.272L263.406 142.772L263.906 142.772L263.906 142.272ZM264.961 127.225L265.411 127.443L265.412 127.441L264.961 127.225ZM267.967 123.85L268.225 124.278L268.227 124.277L267.967 123.85ZM278.32 125.256L278.703 124.934L278.702 124.934L278.32 125.256ZM276.211 136.999L276.211 137.499L276.711 137.499L276.711 136.999L276.211 136.999ZM275.227 129.106L274.853 129.438L274.856 129.441L275.227 129.106ZM268.178 132.165L267.678 132.156L267.678 132.165L268.178 132.165ZM268.178 136.999L267.678 136.999L267.678 137.499L268.178 137.499L268.178 136.999ZM280.482 137.499L289.5 137.499L289.5 136.499L280.482 136.499L280.482 137.499ZM289 136.999L289 142.272L290 142.272L290 136.999L289 136.999ZM289.5 141.772L263.906 141.772L263.906 142.772L289.5 142.772L289.5 141.772ZM264.406 142.272L264.406 132.288L263.406 132.288L263.406 142.272L264.406 142.272ZM264.406 132.288C264.406 130.427 264.746 128.816 265.411 127.443L264.511 127.007C263.769 128.54 263.406 130.305 263.406 132.288L264.406 132.288ZM265.412 127.441C266.076 126.058 267.014 125.009 268.225 124.278L267.708 123.422C266.318 124.261 265.252 125.462 264.51 127.009L265.412 127.441ZM268.227 124.277C269.43 123.544 270.809 123.172 272.379 123.172L272.379 122.172C270.644 122.172 269.081 122.586 267.707 123.423L268.227 124.277ZM272.379 123.172C274.758 123.172 276.591 123.982 277.938 125.579L278.702 124.934C277.143 123.085 275.015 122.172 272.379 122.172L272.379 123.172ZM277.938 125.578C279.28 127.172 279.982 129.416 279.982 132.375L280.982 132.375C280.982 129.265 280.243 126.763 278.703 124.934L277.938 125.578ZM279.982 132.375L279.982 136.999L280.982 136.999L280.982 132.375L279.982 132.375ZM276.711 136.999L276.711 132.288L275.711 132.288L275.711 136.999L276.711 136.999ZM276.711 132.288C276.711 130.821 276.366 129.622 275.598 128.771L274.856 129.441C275.399 130.043 275.711 130.965 275.711 132.288L276.711 132.288ZM275.6 128.774C274.828 127.904 273.74 127.499 272.414 127.499L272.414 128.499C273.526 128.499 274.313 128.831 274.853 129.438L275.6 128.774ZM272.414 127.499C271.055 127.499 269.91 127.902 269.028 128.744L269.718 129.468C270.383 128.833 271.265 128.499 272.414 128.499L272.414 127.499ZM269.028 128.744C268.138 129.594 267.703 130.752 267.678 132.156L268.678 132.174C268.699 130.975 269.062 130.094 269.718 129.468L269.028 128.744ZM267.678 132.165L267.678 136.999L268.678 136.999L268.678 132.165L267.678 132.165ZM268.178 137.499L276.211 137.499L276.211 136.499L268.178 136.499L268.178 137.499ZM285.264 109.8L285.264 110.3L285.764 110.3L285.764 109.8L285.264 109.8ZM285.264 98.603L285.264 98.103L284.764 98.103L284.764 98.603L285.264 98.603ZM289.5 98.603L290 98.603L290 98.103L289.5 98.103L289.5 98.603ZM289.5 115.074L289.5 115.574L290 115.574L290 115.074L289.5 115.074ZM263.906 115.074L263.406 115.074L263.406 115.574L263.906 115.574L263.906 115.074ZM263.906 109.8L263.906 109.3L263.406 109.3L263.406 109.8L263.906 109.8ZM285.764 109.8L285.764 98.603L284.764 98.603L284.764 109.8L285.764 109.8ZM285.264 99.103L289.5 99.103L289.5 98.103L285.264 98.103L285.264 99.103ZM289 98.603L289 115.074L290 115.074L290 98.603L289 98.603ZM289.5 114.574L263.906 114.574L263.906 115.574L289.5 115.574L289.5 114.574ZM264.406 115.074L264.406 109.8L263.406 109.8L263.406 115.074L264.406 115.074ZM263.906 110.3L285.264 110.3L285.264 109.3L263.906 109.3L263.906 110.3ZM278.408 76.2035L278.908 76.2035L278.908 75.7035L278.408 75.7035L278.408 76.2035ZM278.408 86.3285L277.908 86.3285L277.908 86.8285L278.408 86.8285L278.408 86.3285ZM285.264 86.3285L285.264 86.8285L285.764 86.8285L285.764 86.3285L285.264 86.3285ZM285.264 74.4457L285.264 73.9457L284.764 73.9457L284.764 74.4457L285.264 74.4457ZM289.5 74.4457L290 74.4457L290 73.9457L289.5 73.9457L289.5 74.4457ZM289.5 91.602L289.5 92.102L290 92.102L290 91.602L289.5 91.602ZM263.906 91.602L263.406 91.602L263.406 92.102L263.906 92.102L263.906 91.602ZM263.906 74.4809L263.906 73.9809L263.406 73.9809L263.406 74.4809L263.906 74.4809ZM268.178 74.4809L268.678 74.4809L268.678 73.9809L268.178 73.9809L268.178 74.4809ZM268.178 86.3285L267.678 86.3285L267.678 86.8285L268.178 86.8285L268.178 86.3285ZM274.277 86.3285L274.277 86.8285L274.777 86.8285L274.777 86.3285L274.277 86.3285ZM274.277 76.2035L274.277 75.7035L273.777 75.7035L273.777 76.2035L274.277 76.2035ZM277.908 76.2035L277.908 86.3285L278.908 86.3285L278.908 76.2035L277.908 76.2035ZM278.408 86.8285L285.264 86.8285L285.264 85.8285L278.408 85.8285L278.408 86.8285ZM285.764 86.3285L285.764 74.4457L284.764 74.4457L284.764 86.3285L285.764 86.3285ZM285.264 74.9457L289.5 74.9457L289.5 73.9457L285.264 73.9457L285.264 74.9457ZM289 74.4457L289 91.602L290 91.602L290 74.4457L289 74.4457ZM289.5 91.102L263.906 91.102L263.906 92.102L289.5 92.102L289.5 91.102ZM264.406 91.602L264.406 74.4809L263.406 74.4809L263.406 91.602L264.406 91.602ZM263.906 74.9809L268.178 74.9809L268.178 73.9809L263.906 73.9809L263.906 74.9809ZM267.678 74.4809L267.678 86.3285L268.678 86.3285L268.678 74.4809L267.678 74.4809ZM268.178 86.8285L274.277 86.8285L274.277 85.8285L268.178 85.8285L268.178 86.8285ZM274.777 86.3285L274.777 76.2035L273.777 76.2035L273.777 86.3285L274.777 86.3285ZM274.277 76.7035L278.408 76.7035L278.408 75.7035L274.277 75.7035L274.277 76.7035Z" fill="#C902DA"/>
</g>
<path d="M14.2969 285V228.125H32.6172C37.6432 228.125 42.1615 229.271 46.1719 231.562C50.1823 233.828 53.3073 237.044 55.5469 241.211C57.8125 245.352 58.9583 250 58.9844 255.156V257.773C58.9844 262.982 57.8776 267.656 55.6641 271.797C53.4766 275.911 50.3776 279.141 46.3672 281.484C42.3828 283.802 37.9297 284.974 33.0078 285H14.2969ZM28.0078 238.711V274.453H32.7734C36.7057 274.453 39.7266 273.06 41.8359 270.273C43.9453 267.461 45 263.294 45 257.773V255.312C45 249.818 43.9453 245.677 41.8359 242.891C39.7266 240.104 36.6536 238.711 32.6172 238.711H28.0078ZM73.4785 275.631H69.2773V285H64.0039V259.406H73.5137C76.5371 259.406 78.8691 260.08 80.5098 261.428C82.1504 262.775 82.9707 264.68 82.9707 267.141C82.9707 268.887 82.5898 270.346 81.8281 271.518C81.0781 272.678 79.9355 273.604 78.4004 274.295L83.9375 284.754V285H78.2773L73.4785 275.631ZM69.2773 271.359H73.5312C74.8555 271.359 75.8809 271.025 76.6074 270.357C77.334 269.678 77.6973 268.746 77.6973 267.562C77.6973 266.355 77.3516 265.406 76.6602 264.715C75.9805 264.023 74.9316 263.678 73.5137 263.678H69.2773V271.359ZM108.887 259.406V276.264C108.887 279.064 108.008 281.279 106.25 282.908C104.504 284.537 102.114 285.352 99.0786 285.352C96.0903 285.352 93.7173 284.561 91.9594 282.979C90.2016 281.396 89.3052 279.223 89.27 276.457V259.406H94.5434V276.299C94.5434 277.975 94.9419 279.199 95.7387 279.973C96.5473 280.734 97.6606 281.115 99.0786 281.115C102.043 281.115 103.549 279.557 103.596 276.439V259.406H108.887ZM122.622 259.406L129.196 277.969L135.735 259.406H142.661V285H137.37V278.004L137.897 265.928L130.989 285H127.368L120.478 265.945L121.005 278.004V285H115.731V259.406H122.622Z" fill="black"/>
<path d="M34.4456 19.2031L39.1654 30.4971L43.9027 19.2031H45.3441V32H44.263V26.4277L44.3509 20.7148L39.5872 32H38.7523L34.0062 20.7588L34.0941 26.3926V32H33.013V19.2031H34.4456ZM59.3827 19.2031V27.9395C59.3768 28.8008 59.1864 29.5508 58.8114 30.1895C58.4364 30.8281 57.9061 31.3203 57.2205 31.666C56.5409 32.0059 55.7586 32.1758 54.8739 32.1758C53.5262 32.1758 52.4452 31.8096 51.6307 31.0771C50.8221 30.3389 50.4032 29.3193 50.3739 28.0186V19.2031H51.4461V27.8604C51.4461 28.9385 51.7537 29.7764 52.369 30.374C52.9842 30.9658 53.8192 31.2617 54.8739 31.2617C55.9286 31.2617 56.7606 30.9629 57.37 30.3652C57.9852 29.7676 58.2928 28.9355 58.2928 27.8691V19.2031H59.3827ZM71.6195 28.8535C71.6195 28.1445 71.3705 27.585 70.8724 27.1748C70.3744 26.7588 69.4632 26.3662 68.139 25.9971C66.8148 25.6221 65.848 25.2148 65.2386 24.7754C64.3714 24.1543 63.9379 23.3398 63.9379 22.332C63.9379 21.3535 64.3392 20.5596 65.142 19.9502C65.9505 19.335 66.9818 19.0273 68.2357 19.0273C69.0853 19.0273 69.8441 19.1914 70.5121 19.5195C71.1859 19.8477 71.7074 20.3047 72.0765 20.8906C72.4457 21.4766 72.6302 22.1299 72.6302 22.8506H71.5404C71.5404 21.9775 71.2416 21.2773 70.6439 20.75C70.0462 20.2168 69.2435 19.9502 68.2357 19.9502C67.2572 19.9502 66.4779 20.1699 65.8978 20.6094C65.3177 21.043 65.0277 21.6113 65.0277 22.3145C65.0277 22.9648 65.2884 23.4951 65.8099 23.9053C66.3314 24.3154 67.1664 24.6787 68.3148 24.9951C69.4632 25.3057 70.3334 25.6309 70.9252 25.9707C71.517 26.3047 71.9623 26.7061 72.2611 27.1748C72.5599 27.6436 72.7093 28.1973 72.7093 28.8359C72.7093 29.8438 72.305 30.6523 71.4964 31.2617C70.6937 31.8711 69.6332 32.1758 68.3148 32.1758C67.4125 32.1758 66.5834 32.0146 65.8275 31.6924C65.0775 31.3701 64.5062 30.9189 64.1136 30.3389C63.7269 29.7588 63.5336 29.0938 63.5336 28.3438H64.6146C64.6146 29.2461 64.9515 29.958 65.6254 30.4795C66.2992 31.001 67.1957 31.2617 68.3148 31.2617C69.3109 31.2617 70.1107 31.042 70.7142 30.6025C71.3177 30.1631 71.6195 29.5801 71.6195 28.8535ZM78.3456 32H77.2645V19.2031H78.3456V32ZM92.8676 28.0098C92.7211 29.3574 92.2377 30.3887 91.4174 31.1035C90.6029 31.8184 89.516 32.1758 88.1566 32.1758C87.2074 32.1758 86.3666 31.9385 85.6342 31.4639C84.9076 30.9893 84.3451 30.3184 83.9467 29.4512C83.5482 28.5781 83.3461 27.582 83.3402 26.4629V24.8018C83.3402 23.665 83.5395 22.6572 83.9379 21.7783C84.3363 20.8994 84.9076 20.2227 85.6518 19.748C86.4018 19.2676 87.2631 19.0273 88.2357 19.0273C89.6068 19.0273 90.6879 19.3994 91.4789 20.1436C92.2758 20.8818 92.7387 21.9043 92.8676 23.2109H91.7777C91.5082 21.0371 90.3275 19.9502 88.2357 19.9502C87.0756 19.9502 86.1498 20.3838 85.4584 21.251C84.7729 22.1182 84.4301 23.3164 84.4301 24.8457V26.4102C84.4301 27.8867 84.7641 29.0645 85.432 29.9434C86.1059 30.8223 87.0141 31.2617 88.1566 31.2617C89.2875 31.2617 90.14 30.9922 90.7143 30.4531C91.2885 29.9082 91.643 29.0938 91.7777 28.0098H92.8676ZM104.384 28.4141H98.5741L97.2558 32H96.122L100.965 19.2031H101.993L106.836 32H105.711L104.384 28.4141ZM98.9081 27.4912H104.041L101.475 20.5215L98.9081 27.4912ZM111.795 31.0859H118.115V32H110.706V19.2031H111.795V31.0859ZM129.853 32H128.772V19.2031H129.853V32ZM144.841 32H143.76L136.403 21.0488V32H135.313V19.2031H136.403L143.769 30.1631V19.2031H144.841V32ZM157.315 28.8535C157.315 28.1445 157.066 27.585 156.568 27.1748C156.07 26.7588 155.159 26.3662 153.835 25.9971C152.51 25.6221 151.543 25.2148 150.934 24.7754C150.067 24.1543 149.633 23.3398 149.633 22.332C149.633 21.3535 150.035 20.5596 150.837 19.9502C151.646 19.335 152.677 19.0273 153.931 19.0273C154.781 19.0273 155.54 19.1914 156.208 19.5195C156.881 19.8477 157.403 20.3047 157.772 20.8906C158.141 21.4766 158.326 22.1299 158.326 22.8506H157.236C157.236 21.9775 156.937 21.2773 156.339 20.75C155.742 20.2168 154.939 19.9502 153.931 19.9502C152.953 19.9502 152.173 20.1699 151.593 20.6094C151.013 21.043 150.723 21.6113 150.723 22.3145C150.723 22.9648 150.984 23.4951 151.505 23.9053C152.027 24.3154 152.862 24.6787 154.01 24.9951C155.159 25.3057 156.029 25.6309 156.621 25.9707C157.212 26.3047 157.658 26.7061 157.957 27.1748C158.255 27.6436 158.405 28.1973 158.405 28.8359C158.405 29.8438 158.001 30.6523 157.192 31.2617C156.389 31.8711 155.329 32.1758 154.01 32.1758C153.108 32.1758 152.279 32.0146 151.523 31.6924C150.773 31.3701 150.202 30.9189 149.809 30.3389C149.422 29.7588 149.229 29.0938 149.229 28.3438H150.31C150.31 29.2461 150.647 29.958 151.321 30.4795C151.995 31.001 152.891 31.2617 154.01 31.2617C155.006 31.2617 155.806 31.042 156.41 30.6025C157.013 30.1631 157.315 29.5801 157.315 28.8535ZM171.406 20.126H167.021V32H165.939V20.126H161.563V19.2031H171.406V20.126ZM180.242 26.6738H176.524V32H175.434V19.2031H179.591C180.957 19.2031 182.023 19.5342 182.791 20.1963C183.558 20.8584 183.942 21.7842 183.942 22.9736C183.942 23.7939 183.702 24.5176 183.221 25.1445C182.741 25.7715 182.096 26.2051 181.288 26.4453L184.487 31.8857V32H183.336L180.242 26.6738ZM176.524 25.751H179.837C180.746 25.751 181.475 25.4932 182.026 24.9775C182.577 24.4619 182.852 23.7939 182.852 22.9736C182.852 22.0713 182.565 21.3711 181.991 20.873C181.417 20.375 180.611 20.126 179.574 20.126H176.524V25.751ZM197.682 19.2031V27.9395C197.676 28.8008 197.485 29.5508 197.11 30.1895C196.735 30.8281 196.205 31.3203 195.52 31.666C194.84 32.0059 194.058 32.1758 193.173 32.1758C191.825 32.1758 190.744 31.8096 189.93 31.0771C189.121 30.3389 188.702 29.3193 188.673 28.0186V19.2031H189.745V27.8604C189.745 28.9385 190.053 29.7764 190.668 30.374C191.283 30.9658 192.118 31.2617 193.173 31.2617C194.228 31.2617 195.06 30.9629 195.669 30.3652C196.284 29.7676 196.592 28.9355 196.592 27.8691V19.2031H197.682ZM204.109 19.2031L208.829 30.4971L213.566 19.2031H215.007V32H213.926V26.4277L214.014 20.7148L209.251 32H208.416L203.67 20.7588L203.757 26.3926V32H202.676V19.2031H204.109ZM227.297 25.8652H221.312V31.0859H228.193V32H220.231V19.2031H228.15V20.126H221.312V24.9512H227.297V25.8652ZM241.986 32H240.905L233.548 21.0488V32H232.459V19.2031H233.548L240.914 30.1631V19.2031H241.986V32ZM255.638 20.126H251.252V32H250.171V20.126H245.794V19.2031H255.638V20.126ZM266.794 28.8535C266.794 28.1445 266.545 27.585 266.047 27.1748C265.549 26.7588 264.637 26.3662 263.313 25.9971C261.989 25.6221 261.022 25.2148 260.413 24.7754C259.546 24.1543 259.112 23.3398 259.112 22.332C259.112 21.3535 259.513 20.5596 260.316 19.9502C261.125 19.335 262.156 19.0273 263.41 19.0273C264.259 19.0273 265.018 19.1914 265.686 19.5195C266.36 19.8477 266.882 20.3047 267.251 20.8906C267.62 21.4766 267.804 22.1299 267.804 22.8506H266.715C266.715 21.9775 266.416 21.2773 265.818 20.75C265.22 20.2168 264.418 19.9502 263.41 19.9502C262.431 19.9502 261.652 20.1699 261.072 20.6094C260.492 21.043 260.202 21.6113 260.202 22.3145C260.202 22.9648 260.463 23.4951 260.984 23.9053C261.506 24.3154 262.341 24.6787 263.489 24.9951C264.637 25.3057 265.508 25.6309 266.099 25.9707C266.691 26.3047 267.136 26.7061 267.435 27.1748C267.734 27.6436 267.883 28.1973 267.883 28.8359C267.883 29.8438 267.479 30.6523 266.671 31.2617C265.868 31.8711 264.807 32.1758 263.489 32.1758C262.587 32.1758 261.758 32.0146 261.002 31.6924C260.252 31.3701 259.68 30.9189 259.288 30.3389C258.901 29.7588 258.708 29.0938 258.708 28.3438H259.789C259.789 29.2461 260.126 29.958 260.799 30.4795C261.473 31.001 262.37 31.2617 263.489 31.2617C264.485 31.2617 265.285 31.042 265.888 30.6025C266.492 30.1631 266.794 29.5801 266.794 28.8535Z" fill="black"/>
<g clip-path="url(#clip0)">
<path fill-rule="evenodd" clip-rule="evenodd" d="M105.99 207.933C110.978 210.775 116.75 212.594 122.364 213.748C132.259 215.781 142.664 216.292 152.754 215.855C168.076 215.194 182.839 211.229 194 201.411V122H99V202.273C101.124 204.431 103.386 206.449 105.99 207.933Z" fill="#4F1A85"/>
<path fill-rule="evenodd" clip-rule="evenodd" d="M194.943 133H98L98.0896 122.256L195 122L194.943 133Z" fill="#FDD835"/>
<path fill-rule="evenodd" clip-rule="evenodd" d="M195 133.498C195 142.612 173.284 150 146.499 150C119.713 150 98 142.612 98 133.498C98 124.388 119.713 117 146.499 117C173.284 117 195 124.388 195 133.498Z" fill="#FDD835"/>
<path fill-rule="evenodd" clip-rule="evenodd" d="M195 122.499C195 131.613 173.284 139 146.499 139C119.713 139 98 131.613 98 122.499C98 113.387 119.713 106 146.499 106C173.284 106 195 113.387 195 122.499Z" fill="#FDD835"/>
<path fill-rule="evenodd" clip-rule="evenodd" d="M195 122C195 122 194.997 122.106 194.99 122.315C194.974 122.521 194.997 122.833 194.904 123.23C194.786 124.031 194.416 125.2 193.536 126.447C191.806 128.961 188.228 131.658 183.486 133.664C178.755 135.709 172.956 137.384 166.627 138.417C160.3 139.462 153.478 139.992 146.641 140C143.251 139.969 139.808 139.818 136.471 139.546C133.12 139.275 129.833 138.883 126.672 138.376C120.345 137.364 114.538 135.745 109.773 133.794C105.004 131.872 101.356 129.289 99.5454 126.834C98.628 125.617 98.2289 124.448 98.1047 123.654C97.9608 122.859 98.0213 122.42 98 122.424C98.0213 122.42 97.9771 122.861 98.1423 123.646C98.296 124.43 98.7277 125.566 99.6697 126.733C101.526 129.105 105.218 131.469 109.964 133.287C119.478 137.018 133.097 138.995 146.647 139.025C160.199 139.103 173.831 137.053 183.281 133.156C187.999 131.249 191.626 128.781 193.406 126.349C194.313 125.152 194.719 124.01 194.863 123.223C194.967 122.833 194.959 122.52 194.977 122.313C194.993 122.106 195 122 195 122Z" fill="#FDD835"/>
<path fill-rule="evenodd" clip-rule="evenodd" d="M190 122C190 129.731 170.299 136 145.999 136C121.698 136 102 129.731 102 122C102 114.269 121.698 108 145.999 108C170.299 108 190 114.269 190 122Z" fill="#FFF9C4"/>
<path fill-rule="evenodd" clip-rule="evenodd" d="M193.966 196.088C193.816 196.363 193.648 196.646 193.447 196.935C191.756 199.42 188.199 202.083 183.485 204.086C178.776 206.101 173.003 207.788 166.689 208.805C160.381 209.839 153.571 210.371 146.758 210.379C139.953 210.316 133.144 209.776 126.836 208.766C120.527 207.757 114.741 206.15 109.999 204.217C105.258 202.296 101.63 199.752 99.8593 197.322C99.5185 196.863 99.2707 196.422 99.0636 196L99 203.935H99.0342C99.5315 212.836 120.584 220 146.507 220C172.737 220 194 212.664 194 203.613C194 203.323 193.979 203.032 193.933 202.746L193.966 196.088Z" fill="#FDD835"/>
<path fill-rule="evenodd" clip-rule="evenodd" d="M218.034 96.1502C180.498 107.491 163.785 112.005 156.437 114.169C155.281 112.304 153.032 111.312 150.808 111.902C148.079 112.628 146.449 115.436 147.171 118.179C147.894 120.918 150.687 122.551 153.42 121.829C155.675 121.228 157.151 119.207 157.201 116.977L219.619 102.178C223.735 101.168 222.065 94.9634 218.034 96.1502Z" fill="#7135E5"/>
<path fill-rule="evenodd" clip-rule="evenodd" d="M188.416 85.8367C154.389 104.972 139.624 113.861 132.998 117.65C133.531 119.767 132.686 122.067 130.725 123.26C128.323 124.72 125.194 123.953 123.737 121.541C122.281 119.13 123.05 115.993 125.451 114.533C127.438 113.325 129.899 113.657 131.524 115.162L185.211 80.5366C188.779 78.2761 192.046 83.7587 188.416 85.8367Z" fill="#7135E5"/>
<path fill-rule="evenodd" clip-rule="evenodd" d="M106 208H108V138H106V208Z" fill="#A458D3"/>
<path fill-rule="evenodd" clip-rule="evenodd" d="M144 215H146V145H144V215Z" fill="#A458D3"/>
<path fill-rule="evenodd" clip-rule="evenodd" d="M184 208H186V138H184V208Z" fill="#A458D3"/>
<path fill-rule="evenodd" clip-rule="evenodd" d="M110 137.5C110 139.434 108.434 141 106.499 141C104.567 141 103 139.434 103 137.5C103 135.566 104.567 134 106.499 134C108.434 134 110 135.566 110 137.5Z" fill="#A458D3"/>
<path fill-rule="evenodd" clip-rule="evenodd" d="M149 144.499C149 146.433 147.434 148 145.499 148C143.567 148 142 146.433 142 144.499C142 142.567 143.567 141 145.499 141C147.434 141 149 142.567 149 144.499Z" fill="#A458D3"/>
<path fill-rule="evenodd" clip-rule="evenodd" d="M189 138.499C189 140.433 187.434 142 185.499 142C183.567 142 182 140.433 182 138.499C182 136.567 183.567 135 185.499 135C187.434 135 189 136.567 189 138.499Z" fill="#A458D3"/>
<path fill-rule="evenodd" clip-rule="evenodd" d="M110 207.5C110 209.435 108.431 211 106.499 211C104.567 211 103 209.435 103 207.5C103 205.566 104.567 204 106.499 204C108.431 204 110 205.566 110 207.5Z" fill="#A458D3"/>
<path fill-rule="evenodd" clip-rule="evenodd" d="M149 215.501C149 217.435 147.434 219 145.499 219C143.567 219 142 217.435 142 215.501C142 213.565 143.567 212 145.499 212C147.434 212 149 213.565 149 215.501Z" fill="#A458D3"/>
<path fill-rule="evenodd" clip-rule="evenodd" d="M189 208.501C189 210.433 187.434 212 185.502 212C183.567 212 182 210.433 182 208.501C182 206.567 183.567 205 185.502 205C187.434 205 189 206.567 189 208.501Z" fill="#A458D3"/>
</g>
<defs>
<filter id="filter0_d" x="262.406" y="72.9457" width="30.9453" height="154.632" filterUnits="userSpaceOnUse" color-interpolation-filters="sRGB">
<feFlood flood-opacity="0" result="BackgroundImageFix"/>
<feColorMatrix in="SourceAlpha" type="matrix" values="0 0 0 0 0 0 0 0 0 0 0 0 0 0 0 0 0 0 127 0"/>
<feOffset dx="1" dy="1"/>
<feGaussianBlur stdDeviation="1"/>
<feColorMatrix type="matrix" values="0 0 0 0 0 0 0 0 0 0 0 0 0 0 0 0 0 0 0.15 0"/>
<feBlend mode="normal" in2="BackgroundImageFix" result="effect1_dropShadow"/>
<feBlend mode="normal" in="SourceGraphic" in2="effect1_dropShadow" result="shape"/>
</filter>
<radialGradient id="paint0_radial" cx="0" cy="0" r="1" gradientUnits="userSpaceOnUse" gradientTransform="translate(150 150) rotate(90) scale(150)">
<stop offset="0.296875" stop-color="white" stop-opacity="0"/>
<stop offset="0.947917" stop-color="#9E00FF" stop-opacity="0.83"/>
</radialGradient>
<clipPath id="clip0">
<rect width="124" height="140" fill="white" transform="translate(98 80)"/>
</clipPath>
</defs>
</svg>
