<svg width="300" height="300" viewBox="0 0 300 300" fill="none" xmlns="http://www.w3.org/2000/svg">
<g clip-path="url(#clip0)">
<rect width="300" height="300" fill="white"/>
<rect width="300" height="300" fill="white"/>
<rect width="300" height="300" fill="white"/>
<rect width="300" height="300" fill="url(#paint0_radial)" fill-opacity="0.2"/>
<g filter="url(#filter0_d)">
<path d="M275.437 217.17L263.906 211.843L263.906 206.078L280.219 214.48L289.5 214.48L289.5 219.841L280.219 219.841L263.906 228.244L263.906 222.461L275.437 217.17ZM278.408 184.381L278.408 194.506L285.264 194.506L285.264 182.624L289.5 182.624L289.5 199.78L263.906 199.78L263.906 182.659L268.178 182.659L268.178 194.506L274.277 194.506L274.277 184.381L278.408 184.381ZM285.264 170.296L285.264 159.099L289.5 159.099L289.5 175.57L263.906 175.57L263.906 170.296L285.264 170.296ZM285.264 146.825L285.264 135.627L289.5 135.627L289.5 152.098L263.906 152.098L263.906 146.825L285.264 146.825ZM277.283 108.728C279.803 108.728 282.012 109.173 283.91 110.064C285.809 110.955 287.273 112.232 288.305 113.896C289.336 115.548 289.852 117.447 289.852 119.591C289.852 121.712 289.342 123.605 288.322 125.269C287.303 126.933 285.85 128.222 283.963 129.136C282.064 130.05 279.885 130.513 277.424 130.525L276.158 130.525C273.639 130.525 271.424 130.074 269.514 129.171C267.592 128.257 266.121 126.974 265.102 125.322C264.07 123.658 263.555 121.759 263.555 119.626C263.555 117.494 264.07 115.601 265.102 113.949C266.121 112.285 267.592 111.001 269.514 110.099C271.424 109.185 273.633 108.728 276.141 108.728L277.283 108.728ZM276.123 114.072C273.439 114.072 271.4 114.552 270.006 115.513C268.611 116.474 267.914 117.845 267.914 119.626C267.914 121.396 268.605 122.761 269.988 123.722C271.359 124.683 273.375 125.169 276.035 125.181L277.283 125.181C279.896 125.181 281.924 124.701 283.365 123.74C284.807 122.779 285.527 121.396 285.527 119.591C285.527 117.822 284.836 116.462 283.453 115.513C282.059 114.564 280.031 114.083 277.371 114.072L276.123 114.072ZM282.117 81.0023L263.906 77.557L263.906 72.3012L289.5 77.9789L289.5 83.2875L272.379 87.4535L289.5 91.6195L289.5 96.9281L263.906 102.606L263.906 97.35L282.082 93.8871L263.906 89.6684L263.906 85.2035L282.117 81.0023Z" fill="white"/>
<path d="M275.437 217.17L275.646 217.624L276.633 217.171L275.647 216.716L275.437 217.17ZM263.906 211.843L263.406 211.843L263.406 212.163L263.697 212.297L263.906 211.843ZM263.906 206.078L264.135 205.633L263.406 205.258L263.406 206.078L263.906 206.078ZM280.219 214.48L279.99 214.925L280.098 214.98L280.219 214.98L280.219 214.48ZM289.5 214.48L290 214.48L290 213.98L289.5 213.98L289.5 214.48ZM289.5 219.841L289.5 220.341L290 220.341L290 219.841L289.5 219.841ZM280.219 219.841L280.219 219.341L280.098 219.341L279.99 219.397L280.219 219.841ZM263.906 228.244L263.406 228.244L263.406 229.064L264.135 228.688L263.906 228.244ZM263.906 222.461L263.698 222.006L263.406 222.14L263.406 222.461L263.906 222.461ZM275.647 216.716L264.116 211.389L263.697 212.297L275.228 217.623L275.647 216.716ZM264.406 211.843L264.406 206.078L263.406 206.078L263.406 211.843L264.406 211.843ZM263.677 206.522L279.99 214.925L280.448 214.036L264.135 205.633L263.677 206.522ZM280.219 214.98L289.5 214.98L289.5 213.98L280.219 213.98L280.219 214.98ZM289 214.48L289 219.841L290 219.841L290 214.48L289 214.48ZM289.5 219.341L280.219 219.341L280.219 220.341L289.5 220.341L289.5 219.341ZM279.99 219.397L263.677 227.799L264.135 228.688L280.448 220.286L279.99 219.397ZM264.406 228.244L264.406 222.461L263.406 222.461L263.406 228.244L264.406 228.244ZM264.115 222.915L275.646 217.624L275.229 216.715L263.698 222.006L264.115 222.915ZM278.408 184.381L278.908 184.381L278.908 183.881L278.408 183.881L278.408 184.381ZM278.408 194.506L277.908 194.506L277.908 195.006L278.408 195.006L278.408 194.506ZM285.264 194.506L285.264 195.006L285.764 195.006L285.764 194.506L285.264 194.506ZM285.264 182.624L285.264 182.124L284.764 182.124L284.764 182.624L285.264 182.624ZM289.5 182.624L290 182.624L290 182.124L289.5 182.124L289.5 182.624ZM289.5 199.78L289.5 200.28L290 200.28L290 199.78L289.5 199.78ZM263.906 199.78L263.406 199.78L263.406 200.28L263.906 200.28L263.906 199.78ZM263.906 182.659L263.906 182.159L263.406 182.159L263.406 182.659L263.906 182.659ZM268.178 182.659L268.678 182.659L268.678 182.159L268.178 182.159L268.178 182.659ZM268.178 194.506L267.678 194.506L267.678 195.006L268.178 195.006L268.178 194.506ZM274.277 194.506L274.277 195.006L274.777 195.006L274.777 194.506L274.277 194.506ZM274.277 184.381L274.277 183.881L273.777 183.881L273.777 184.381L274.277 184.381ZM277.908 184.381L277.908 194.506L278.908 194.506L278.908 184.381L277.908 184.381ZM278.408 195.006L285.264 195.006L285.264 194.006L278.408 194.006L278.408 195.006ZM285.764 194.506L285.764 182.624L284.764 182.624L284.764 194.506L285.764 194.506ZM285.264 183.124L289.5 183.124L289.5 182.124L285.264 182.124L285.264 183.124ZM289 182.624L289 199.78L290 199.78L290 182.624L289 182.624ZM289.5 199.28L263.906 199.28L263.906 200.28L289.5 200.28L289.5 199.28ZM264.406 199.78L264.406 182.659L263.406 182.659L263.406 199.78L264.406 199.78ZM263.906 183.159L268.178 183.159L268.178 182.159L263.906 182.159L263.906 183.159ZM267.678 182.659L267.678 194.506L268.678 194.506L268.678 182.659L267.678 182.659ZM268.178 195.006L274.277 195.006L274.277 194.006L268.178 194.006L268.178 195.006ZM274.777 194.506L274.777 184.381L273.777 184.381L273.777 194.506L274.777 194.506ZM274.277 184.881L278.408 184.881L278.408 183.881L274.277 183.881L274.277 184.881ZM285.264 170.296L285.264 170.796L285.764 170.796L285.764 170.296L285.264 170.296ZM285.264 159.099L285.264 158.599L284.764 158.599L284.764 159.099L285.264 159.099ZM289.5 159.099L290 159.099L290 158.599L289.5 158.599L289.5 159.099ZM289.5 175.57L289.5 176.07L290 176.07L290 175.57L289.5 175.57ZM263.906 175.57L263.406 175.57L263.406 176.07L263.906 176.07L263.906 175.57ZM263.906 170.296L263.906 169.796L263.406 169.796L263.406 170.296L263.906 170.296ZM285.764 170.296L285.764 159.099L284.764 159.099L284.764 170.296L285.764 170.296ZM285.264 159.599L289.5 159.599L289.5 158.599L285.264 158.599L285.264 159.599ZM289 159.099L289 175.57L290 175.57L290 159.099L289 159.099ZM289.5 175.07L263.906 175.07L263.906 176.07L289.5 176.07L289.5 175.07ZM264.406 175.57L264.406 170.296L263.406 170.296L263.406 175.57L264.406 175.57ZM263.906 170.796L285.264 170.796L285.264 169.796L263.906 169.796L263.906 170.796ZM285.264 146.825L285.264 147.325L285.764 147.325L285.764 146.825L285.264 146.825ZM285.264 135.627L285.264 135.127L284.764 135.127L284.764 135.627L285.264 135.627ZM289.5 135.627L290 135.627L290 135.127L289.5 135.127L289.5 135.627ZM289.5 152.098L289.5 152.598L290 152.598L290 152.098L289.5 152.098ZM263.906 152.098L263.406 152.098L263.406 152.598L263.906 152.598L263.906 152.098ZM263.906 146.825L263.906 146.325L263.406 146.325L263.406 146.825L263.906 146.825ZM285.764 146.825L285.764 135.627L284.764 135.627L284.764 146.825L285.764 146.825ZM285.264 136.127L289.5 136.127L289.5 135.127L285.264 135.127L285.264 136.127ZM289 135.627L289 152.098L290 152.098L290 135.627L289 135.627ZM289.5 151.598L263.906 151.598L263.906 152.598L289.5 152.598L289.5 151.598ZM264.406 152.098L264.406 146.825L263.406 146.825L263.406 152.098L264.406 152.098ZM263.906 147.325L285.264 147.325L285.264 146.325L263.906 146.325L263.906 147.325ZM288.305 113.896L287.88 114.159L287.881 114.161L288.305 113.896ZM283.963 129.136L284.18 129.587L284.181 129.586L283.963 129.136ZM277.424 130.525L277.424 131.025L277.426 131.025L277.424 130.525ZM269.514 129.171L269.299 129.623L269.3 129.623L269.514 129.171ZM265.102 125.322L265.527 125.059L265.527 125.058L265.102 125.322ZM265.102 113.949L265.526 114.213L265.528 114.21L265.102 113.949ZM269.514 110.099L269.726 110.552L269.729 110.55L269.514 110.099ZM269.988 123.722L270.275 123.313L270.274 123.312L269.988 123.722ZM276.035 125.181L276.033 125.681L276.035 125.681L276.035 125.181ZM283.453 115.513L283.736 115.101L283.734 115.1L283.453 115.513ZM277.371 114.072L277.373 113.572L277.371 113.572L277.371 114.072ZM277.283 109.228C279.744 109.228 281.878 109.663 283.698 110.517L284.123 109.611C282.146 108.684 279.862 108.228 277.283 108.228L277.283 109.228ZM283.698 110.517C285.515 111.369 286.903 112.584 287.88 114.159L288.73 113.633C287.644 111.88 286.102 110.54 284.123 109.611L283.698 110.517ZM287.881 114.161C288.857 115.726 289.352 117.531 289.352 119.591L290.352 119.591C290.352 117.363 289.815 115.371 288.729 113.631L287.881 114.161ZM289.352 119.591C289.352 121.628 288.863 123.429 287.896 125.008L288.749 125.53C289.82 123.781 290.352 121.796 290.352 119.591L289.352 119.591ZM287.896 125.008C286.93 126.584 285.552 127.811 283.745 128.686L284.181 129.586C286.147 128.634 287.675 127.282 288.749 125.53L287.896 125.008ZM283.746 128.686C281.925 129.563 279.82 130.013 277.421 130.025L277.426 131.025C279.949 131.013 282.204 130.538 284.18 129.587L283.746 128.686ZM277.424 130.025L276.158 130.025L276.158 131.025L277.424 131.025L277.424 130.025ZM276.158 130.025C273.698 130.025 271.559 129.585 269.727 128.719L269.3 129.623C271.289 130.563 273.579 131.025 276.158 131.025L276.158 130.025ZM269.728 128.72C267.885 127.843 266.491 126.622 265.527 125.059L264.676 125.584C265.751 127.326 267.299 128.672 269.299 129.623L269.728 128.72ZM265.527 125.058C264.549 123.48 264.055 121.675 264.055 119.626L263.055 119.626C263.055 121.844 263.592 123.835 264.677 125.585L265.527 125.058ZM264.055 119.626C264.055 117.578 264.549 115.779 265.526 114.213L264.677 113.684C263.592 115.423 263.055 117.409 263.055 119.626L264.055 119.626ZM265.528 114.21C266.492 112.636 267.885 111.416 269.726 110.552L269.301 109.646C267.299 110.587 265.75 111.933 264.675 113.687L265.528 114.21ZM269.729 110.55C271.561 109.674 273.694 109.228 276.141 109.228L276.141 108.228C273.572 108.228 271.287 108.696 269.298 109.648L269.729 110.55ZM276.141 109.228L277.283 109.228L277.283 108.228L276.141 108.228L276.141 109.228ZM276.123 113.572C273.393 113.572 271.236 114.058 269.722 115.101L270.29 115.925C271.565 115.046 273.486 114.572 276.123 114.572L276.123 113.572ZM269.722 115.101C268.184 116.161 267.414 117.691 267.414 119.626L268.414 119.626C268.414 118 269.039 116.787 270.29 115.925L269.722 115.101ZM267.414 119.626C267.414 121.55 268.178 123.073 269.703 124.133L270.274 123.312C269.033 122.45 268.414 121.242 268.414 119.626L267.414 119.626ZM269.701 124.132C271.192 125.176 273.326 125.669 276.033 125.681L276.037 124.681C273.424 124.67 271.527 124.19 270.275 123.313L269.701 124.132ZM276.035 125.681L277.283 125.681L277.283 124.681L276.035 124.681L276.035 125.681ZM277.283 125.681C279.948 125.681 282.087 125.193 283.643 124.156L283.088 123.324C281.761 124.209 279.845 124.681 277.283 124.681L277.283 125.681ZM283.643 124.156C285.23 123.097 286.027 121.555 286.027 119.591L285.027 119.591C285.027 121.237 284.383 122.46 283.088 123.324L283.643 124.156ZM286.027 119.591C286.027 117.668 285.263 116.149 283.736 115.101L283.17 115.925C284.408 116.775 285.027 117.976 285.027 119.591L286.027 119.591ZM283.734 115.1C282.223 114.071 280.08 113.584 277.373 113.572L277.369 114.572C279.982 114.583 281.895 115.057 283.172 115.926L283.734 115.1ZM277.371 113.572L276.123 113.572L276.123 114.572L277.371 114.572L277.371 113.572ZM282.117 81.0023L282.23 81.4896L282.21 80.5111L282.117 81.0023ZM263.906 77.557L263.406 77.557L263.406 77.9713L263.813 78.0483L263.906 77.557ZM263.906 72.3012L264.015 71.813L263.406 71.6781L263.406 72.3012L263.906 72.3012ZM289.5 77.9789L290 77.9789L290 77.5777L289.608 77.4908L289.5 77.9789ZM289.5 83.2875L289.618 83.7733L290 83.6804L290 83.2875L289.5 83.2875ZM272.379 87.4535L272.261 86.9677L272.261 87.9393L272.379 87.4535ZM289.5 91.6195L290 91.6195L290 91.2266L289.618 91.1337L289.5 91.6195ZM289.5 96.9281L289.608 97.4163L290 97.3294L290 96.9281L289.5 96.9281ZM263.906 102.606L263.406 102.606L263.406 103.229L264.015 103.094L263.906 102.606ZM263.906 97.35L263.813 96.8588L263.406 96.9363L263.406 97.35L263.906 97.35ZM282.082 93.8871L282.176 94.3783L282.195 93.4001L282.082 93.8871ZM263.906 89.6684L263.406 89.6684L263.406 90.0656L263.793 90.1554L263.906 89.6684ZM263.906 85.2035L263.794 84.7163L263.406 84.8057L263.406 85.2035L263.906 85.2035ZM282.21 80.5111L263.999 77.0658L263.813 78.0483L282.024 81.4936L282.21 80.5111ZM264.406 77.557L264.406 72.3012L263.406 72.3012L263.406 77.557L264.406 77.557ZM263.798 72.7893L289.392 78.467L289.608 77.4908L264.015 71.813L263.798 72.7893ZM289 77.9789L289 83.2875L290 83.2875L290 77.9789L289 77.9789ZM289.382 82.8017L272.261 86.9677L272.497 87.9393L289.618 83.7733L289.382 82.8017ZM272.261 87.9393L289.382 92.1054L289.618 91.1337L272.497 86.9677L272.261 87.9393ZM289 91.6195L289 96.9281L290 96.9281L290 91.6195L289 91.6195ZM289.392 96.44L263.798 102.118L264.015 103.094L289.608 97.4163L289.392 96.44ZM264.406 102.606L264.406 97.35L263.406 97.35L263.406 102.606L264.406 102.606ZM264 97.8412L282.176 94.3783L281.988 93.3959L263.813 96.8588L264 97.8412ZM282.195 93.4001L264.019 89.1813L263.793 90.1554L281.969 94.3742L282.195 93.4001ZM264.406 89.6684L264.406 85.2035L263.406 85.2035L263.406 89.6684L264.406 89.6684ZM264.019 85.6907L282.23 81.4896L282.005 80.5151L263.794 84.7163L264.019 85.6907Z" fill="#DCCE00"/>
</g>
<path d="M113.599 28.4141H107.789L106.471 32H105.337L110.18 19.2031H111.208L116.051 32H114.926L113.599 28.4141ZM108.123 27.4912H113.256L110.69 20.5215L108.123 27.4912ZM129.448 32H128.367L121.011 21.0488V32H119.921V19.2031H121.011L128.376 30.1631V19.2031H129.448V32ZM135.999 32H134.917V19.2031H135.999V32ZM142.892 19.2031L147.611 30.4971L152.349 19.2031H153.79V32H152.709V26.4277L152.797 20.7148L148.033 32H147.198L142.452 20.7588L142.54 26.3926V32H141.459V19.2031H142.892ZM166.08 28.4141H160.27L158.952 32H157.818L162.661 19.2031H163.689L168.532 32H167.407L166.08 28.4141ZM160.604 27.4912H165.737L163.17 20.5215L160.604 27.4912ZM173.491 31.0859H179.811V32H172.401V19.2031H173.491V31.0859ZM191.116 28.8535C191.116 28.1445 190.867 27.585 190.369 27.1748C189.871 26.7588 188.96 26.3662 187.635 25.9971C186.311 25.6221 185.344 25.2148 184.735 24.7754C183.868 24.1543 183.434 23.3398 183.434 22.332C183.434 21.3535 183.836 20.5596 184.638 19.9502C185.447 19.335 186.478 19.0273 187.732 19.0273C188.582 19.0273 189.34 19.1914 190.008 19.5195C190.682 19.8477 191.204 20.3047 191.573 20.8906C191.942 21.4766 192.127 22.1299 192.127 22.8506H191.037C191.037 21.9775 190.738 21.2773 190.14 20.75C189.543 20.2168 188.74 19.9502 187.732 19.9502C186.753 19.9502 185.974 20.1699 185.394 20.6094C184.814 21.043 184.524 21.6113 184.524 22.3145C184.524 22.9648 184.785 23.4951 185.306 23.9053C185.828 24.3154 186.663 24.6787 187.811 24.9951C188.96 25.3057 189.83 25.6309 190.421 25.9707C191.013 26.3047 191.459 26.7061 191.757 27.1748C192.056 27.6436 192.206 28.1973 192.206 28.8359C192.206 29.8438 191.801 30.6523 190.993 31.2617C190.19 31.8711 189.129 32.1758 187.811 32.1758C186.909 32.1758 186.08 32.0146 185.324 31.6924C184.574 31.3701 184.003 30.9189 183.61 30.3389C183.223 29.7588 183.03 29.0938 183.03 28.3438H184.111C184.111 29.2461 184.448 29.958 185.122 30.4795C185.795 31.001 186.692 31.2617 187.811 31.2617C188.807 31.2617 189.607 31.042 190.211 30.6025C190.814 30.1631 191.116 29.5801 191.116 28.8535Z" fill="black"/>
<path d="M60.8594 277.969C58.75 280.312 55.6641 282.201 51.6016 283.633C47.5391 285.065 43.0859 285.781 38.2422 285.781C30.7943 285.781 24.8438 283.503 20.3906 278.945C15.9375 274.388 13.5547 268.047 13.2422 259.922L13.2031 255C13.2031 249.401 14.1927 244.518 16.1719 240.352C18.151 236.159 20.9766 232.943 24.6484 230.703C28.3464 228.438 32.6172 227.305 37.4609 227.305C44.5443 227.305 50.0391 228.932 53.9453 232.188C57.8776 235.417 60.1693 240.247 60.8203 246.68H47.6172C47.1484 243.503 46.1328 241.237 44.5703 239.883C43.0078 238.529 40.7943 237.852 37.9297 237.852C34.4922 237.852 31.8359 239.31 29.9609 242.227C28.0859 245.143 27.1354 249.31 27.1094 254.727V258.164C27.1094 263.841 28.0729 268.112 30 270.977C31.9531 273.815 35.013 275.234 39.1797 275.234C42.7474 275.234 45.4036 274.44 47.1484 272.852V264.023H37.6172V254.609H60.8594V277.969ZM91.8398 272.783C91.8398 275.303 91.3945 277.512 90.5039 279.41C89.6133 281.309 88.3359 282.773 86.6719 283.805C85.0195 284.836 83.1211 285.352 80.9766 285.352C78.8555 285.352 76.9629 284.842 75.2988 283.822C73.6348 282.803 72.3457 281.35 71.4316 279.463C70.5176 277.564 70.0547 275.385 70.043 272.924V271.658C70.043 269.139 70.4941 266.924 71.3965 265.014C72.3105 263.092 73.5938 261.621 75.2461 260.602C76.9102 259.57 78.8086 259.055 80.9414 259.055C83.0742 259.055 84.9668 259.57 86.6191 260.602C88.2832 261.621 89.5664 263.092 90.4688 265.014C91.3828 266.924 91.8398 269.133 91.8398 271.641V272.783ZM86.4961 271.623C86.4961 268.939 86.0156 266.9 85.0547 265.506C84.0938 264.111 82.7227 263.414 80.9414 263.414C79.1719 263.414 77.8066 264.105 76.8457 265.488C75.8848 266.859 75.3984 268.875 75.3867 271.535V272.783C75.3867 275.396 75.8672 277.424 76.8281 278.865C77.7891 280.307 79.1719 281.027 80.9766 281.027C82.7461 281.027 84.1055 280.336 85.0547 278.953C86.0039 277.559 86.4844 275.531 86.4961 272.871V271.623ZM104.905 280.764H116.103V285H99.6319V259.406H104.905V280.764ZM123.104 285V259.406H130.979C133.229 259.406 135.238 259.916 137.008 260.936C138.789 261.943 140.178 263.385 141.174 265.26C142.17 267.123 142.668 269.244 142.668 271.623V272.801C142.668 275.18 142.176 277.295 141.191 279.146C140.219 280.998 138.842 282.434 137.061 283.453C135.279 284.473 133.27 284.988 131.031 285H123.104ZM128.377 263.678V280.764H130.926C132.988 280.764 134.565 280.09 135.654 278.742C136.744 277.395 137.301 275.467 137.324 272.959V271.605C137.324 269.004 136.785 267.035 135.707 265.699C134.629 264.352 133.053 263.678 130.979 263.678H128.377ZM165.876 274.541H155.751V285H150.478V259.406H167.142V263.678H155.751V270.287H165.876V274.541ZM179.768 285H174.494V259.406H179.768V285ZM201.904 278.285C201.904 277.289 201.552 276.527 200.849 276C200.146 275.461 198.88 274.898 197.052 274.312C195.224 273.715 193.777 273.129 192.71 272.555C189.804 270.984 188.351 268.869 188.351 266.209C188.351 264.826 188.738 263.596 189.511 262.518C190.296 261.428 191.415 260.578 192.868 259.969C194.333 259.359 195.974 259.055 197.79 259.055C199.618 259.055 201.247 259.389 202.677 260.057C204.107 260.713 205.214 261.645 205.999 262.852C206.796 264.059 207.195 265.43 207.195 266.965H201.921C201.921 265.793 201.552 264.885 200.814 264.24C200.075 263.584 199.038 263.256 197.702 263.256C196.413 263.256 195.411 263.531 194.696 264.082C193.982 264.621 193.624 265.336 193.624 266.227C193.624 267.059 194.04 267.756 194.872 268.318C195.716 268.881 196.952 269.408 198.581 269.9C201.581 270.803 203.767 271.922 205.138 273.258C206.509 274.594 207.195 276.258 207.195 278.25C207.195 280.465 206.357 282.205 204.681 283.471C203.005 284.725 200.749 285.352 197.913 285.352C195.945 285.352 194.152 284.994 192.534 284.279C190.917 283.553 189.681 282.562 188.825 281.309C187.982 280.055 187.56 278.602 187.56 276.949H192.851C192.851 279.773 194.538 281.186 197.913 281.186C199.167 281.186 200.146 280.934 200.849 280.43C201.552 279.914 201.904 279.199 201.904 278.285ZM235.571 285H230.297V274.031H220.014V285H214.74V259.406H220.014V269.777H230.297V259.406H235.571V285Z" fill="black"/>
<g clip-path="url(#clip1)">
<path fill-rule="evenodd" clip-rule="evenodd" d="M270.317 163.419C268.206 164.595 262.506 165.002 261.808 165.625C260.999 166.36 267.371 171.481 266.295 170.918C258.536 166.879 239.289 175.822 232.4 166.593C232.236 166.377 232.073 166.187 231.926 166.023C230.996 165.063 230.264 165.106 230.135 165.884C229.902 167.216 231.427 170.676 236.705 174.957C237.756 175.805 226.957 170.892 225.218 171.783C221.997 173.426 210.406 169.612 206.832 171.498C205.238 172.337 202.13 168.159 200.58 169.119C199.185 169.976 197.824 170.875 196.49 171.783C194.294 173.297 187.439 167.398 185.863 169.474C185.13 170.442 189.308 175.537 185.863 178.997C184.373 180.493 187.964 192.309 187.008 194.004C185.923 195.924 190.418 210.447 197.351 221.415C198.74 223.609 213.101 229.538 217.728 232.39C218.663 232.966 221.06 234.85 220.823 234.972C215.423 237.775 206.048 234.112 198.84 230.108C194.164 227.504 190.556 225.004 189.884 224.572C184.666 221.259 180.592 211.286 180.403 211.606C179.396 213.275 159.253 178.867 149.376 159.068C144.932 150.15 147.696 145.315 146.327 146.12C143.485 147.772 150.167 130.637 151.675 131.39C152.983 132.047 165.944 140.402 217.751 137.159C219.62 137.046 234.923 135.066 247.918 138.621C249.39 139.019 250.837 139.495 252.224 140.048C264.348 144.892 271.712 157.607 271.754 159.068C271.781 159.786 272.848 162 270.317 163.419Z" fill="#E8962E"/>
<path fill-rule="evenodd" clip-rule="evenodd" d="M255.016 155.174C252.907 156.35 247.206 156.757 246.508 157.379C246.059 157.788 244.412 157.291 242.83 156.794C241.563 156.396 240.337 155.998 239.802 156.066C234.081 156.786 219.071 160.995 217.099 158.348C214.292 154.594 211.657 162.647 209.917 163.538C208.342 164.342 204.764 163.84 201.101 163.338C197.275 162.813 193.358 162.289 191.532 163.253C190.744 163.667 189.587 162.857 188.431 162.047C187.247 161.217 186.064 160.388 185.279 160.874C183.885 161.73 182.524 162.63 181.189 163.538C180.131 164.267 177.992 163.276 175.883 162.285C173.614 161.219 171.379 160.153 170.562 161.228C169.83 162.198 174.007 167.292 170.562 170.752C169.072 172.248 172.664 184.063 171.708 185.758C170.622 187.679 175.118 202.201 182.05 213.169C183.721 215.807 198.645 228.254 194.193 226.758C189.517 224.154 185.908 221.654 185.236 221.222C180.018 217.909 175.945 207.936 175.755 208.256C174.748 209.925 154.605 175.518 144.727 155.719C140.284 146.801 143.048 141.966 141.679 142.77C138.837 144.423 135.729 146.135 132.818 147.917C129.675 149.846 126.755 151.861 124.619 154.006C119.453 159.205 105.907 173.563 100.49 175.068C81.82 180.266 79.8479 173.052 68.0329 173.052H67.8176C45.2294 172.974 27.524 162.876 27.524 156.051C27.524 155.497 29.0741 152.76 29.2549 151.489C29.6338 148.756 29.384 144.63 33.1818 140.029C33.3023 139.881 33.4315 139.726 33.5606 139.579C38.4005 134.069 48.4415 127.486 54.237 123.145C54.237 123.136 54.2457 123.136 54.2457 123.136C69.7466 111.511 76.2137 107.774 87.2795 104.669C91.3698 103.527 99.5598 101.122 113.416 106.399C126.092 111.225 131.5 118.975 142.799 125.722C144.116 126.509 145.52 127.287 147.027 128.04C148.336 128.698 161.296 137.053 213.104 133.81C214.972 133.697 230.275 131.717 243.27 135.272C258.33 137.977 268.217 153.379 268.252 154.564C268.262 154.875 266.262 154.765 263.783 154.656C260.53 154.512 256.453 154.369 255.016 155.174Z" fill="#E8962E"/>
<path fill-rule="evenodd" clip-rule="evenodd" d="M100.213 197.344C100.213 204.949 104.733 205.331 101.869 205.331C99.0042 205.331 90.6254 199.166 90.6254 191.562C90.6254 183.957 89.7714 176.282 92.6364 176.282C94.1648 176.282 98.5209 168.954 100.105 173.685C101.489 177.819 100.213 193.799 100.213 197.344Z" fill="#F6C86C"/>
<path fill-rule="evenodd" clip-rule="evenodd" d="M136.587 91.7427C142.333 99.4951 146.041 99.7378 148.97 108.765C152.557 119.824 150.523 133.58 148.078 133.58C143.636 133.58 89.4762 109.944 89.4762 105.881C89.4762 104.104 93.6628 91.6889 101.541 83.3753C111.69 72.6658 122.224 74.7192 128.832 65.7747C131.478 62.1914 132.363 86.0422 136.587 91.7427Z" fill="#FFF500"/>
<path fill-rule="evenodd" clip-rule="evenodd" d="M267.862 161.284C265.753 162.46 260.051 162.866 259.354 163.489C258.545 164.224 264.917 169.344 263.84 168.782C260.607 167.099 255.379 167.67 249.882 168.242C242.187 169.042 233.964 169.841 229.946 164.458C229.782 164.242 229.619 164.051 229.472 163.887C228.542 162.927 227.81 162.97 227.681 163.748C227.449 165.081 228.972 168.54 234.252 172.822C234.774 173.244 232.358 172.237 229.585 171.23C226.791 170.215 223.636 169.2 222.764 169.647C221.188 170.451 217.61 169.949 213.947 169.447C210.121 168.923 206.204 168.398 204.378 169.362C203.59 169.777 202.433 168.967 201.277 168.156C200.094 167.327 198.91 166.497 198.125 166.983C196.731 167.84 195.37 168.739 194.035 169.647C192.978 170.377 190.838 169.386 188.73 168.395C186.46 167.328 184.225 166.262 183.408 167.338C182.676 168.306 186.853 173.401 183.408 176.861C181.919 178.358 185.509 190.173 184.554 191.868C183.469 193.789 187.964 208.311 194.896 219.279C196.567 221.917 220.154 232.685 218.742 233.412C213.342 236.215 203.594 231.976 196.386 227.971C191.71 225.368 188.102 222.868 187.43 222.436C182.212 219.123 178.138 209.15 177.949 209.47C176.941 211.139 156.799 176.731 146.922 156.933C142.478 148.015 145.242 143.18 143.873 143.984C141.031 145.636 137.922 147.348 135.011 149.13C131.868 151.06 128.949 153.075 126.814 155.22C121.646 160.418 108.1 174.776 102.683 176.282C84.0136 181.48 82.0415 174.266 70.2265 174.266H70.0113C47.4231 174.189 29.7176 162.339 29.7176 155.514C29.7176 154.96 31.2677 153.975 31.4486 152.703C31.8274 149.969 31.5777 145.844 35.3755 141.242C35.496 141.095 35.6253 140.939 35.7544 140.793C40.5942 135.282 50.6352 128.7 56.4309 124.358C56.4309 124.35 56.4395 124.35 56.4395 124.35C71.9402 112.725 78.4073 108.988 89.4731 105.883C93.5642 104.741 101.753 102.337 115.609 107.613C128.286 112.439 133.694 120.189 144.992 126.935C146.309 127.723 147.714 128.501 149.22 129.254C150.53 129.911 163.49 138.267 215.297 135.023C217.166 134.911 232.469 132.93 245.463 136.485C246.936 136.882 248.383 137.359 249.77 137.912C261.895 142.756 269.257 155.471 269.301 156.933C269.326 157.651 270.394 159.865 267.862 161.284Z" fill="#F1CB35"/>
<path fill-rule="evenodd" clip-rule="evenodd" d="M254.502 156.388C252.392 157.564 246.692 157.971 245.994 158.593C245.545 159.002 243.898 158.505 242.316 158.008C241.049 157.61 239.824 157.213 239.288 157.28C233.566 157.999 218.558 162.209 216.586 159.562C213.778 155.808 211.143 163.861 209.403 164.752C207.828 165.556 204.25 165.053 200.587 164.551C196.762 164.027 192.843 163.503 191.018 164.466C190.231 164.881 189.074 164.071 187.918 163.261C186.733 162.432 185.55 161.602 184.766 162.088C183.371 162.944 182.01 163.844 180.676 164.752C179.617 165.481 177.478 164.49 175.369 163.499C173.1 162.433 170.865 161.366 170.049 162.443C169.317 163.411 173.493 168.505 170.049 171.965C168.558 173.462 172.15 185.278 171.194 186.973C170.109 188.893 174.604 203.416 181.536 214.383C183.207 217.021 198.645 228.254 194.193 226.758C189.517 224.154 185.908 221.654 185.236 221.222C180.018 217.909 175.431 209.15 175.242 209.47C174.234 211.139 154.092 176.731 144.214 156.933C139.77 148.015 142.535 143.18 141.165 143.984C138.324 145.636 135.215 147.348 132.304 149.13C129.16 151.06 126.242 153.075 124.106 155.22C118.939 160.418 105.393 174.776 99.9763 176.282C81.3064 181.48 79.3343 174.266 67.519 174.266H67.3037C44.7156 174.189 27.0101 162.339 27.0101 155.514C27.0101 154.96 28.5602 153.975 28.741 152.703C29.1199 149.969 28.8702 145.844 32.668 141.242C32.7885 141.095 32.9178 140.939 33.0468 140.793C37.8867 135.282 47.9277 128.7 53.7233 124.358C53.7233 124.35 53.7319 124.35 53.7319 124.35C69.2328 112.725 75.7001 108.988 86.7659 105.883C90.8562 104.741 99.0462 102.337 112.902 107.613C125.578 112.439 130.986 120.189 142.285 126.935C143.602 127.723 145.006 128.501 146.513 129.254C147.822 129.911 160.783 138.267 212.59 135.023C214.458 134.911 229.761 132.93 242.756 136.485C251.057 142.263 255.906 150.852 255.94 152.037C255.966 152.755 257.034 154.969 254.502 156.388Z" fill="#F6E26C"/>
<path fill-rule="evenodd" clip-rule="evenodd" d="M89.4769 158.391C87.7892 162.543 79.1004 169.488 70.0148 174.263C47.4265 174.185 29.7212 162.335 29.7212 155.511C29.7212 154.957 31.2712 153.971 31.4521 152.699C31.831 149.966 31.5814 145.841 35.379 141.239C35.4996 141.092 35.6289 140.936 35.7579 140.789C40.5976 135.279 52.2509 128.138 58.0465 123.796C60.1022 124.927 59.153 129.608 62.3358 129.996C77.7833 131.882 97.0266 139.755 89.4769 158.391Z" fill="#FFF24C"/>
<path fill-rule="evenodd" clip-rule="evenodd" d="M64.9344 150.025C64.9344 153.203 62.3701 155.778 59.2071 155.778C56.0441 155.778 53.4799 153.203 53.4799 150.025C53.4799 146.849 56.0441 144.273 59.2071 144.273C62.3701 144.273 64.9344 146.849 64.9344 150.025Z" fill="#D58630"/>
<path fill-rule="evenodd" clip-rule="evenodd" d="M64.5244 151.327C64.5244 154.277 62.1437 156.668 59.2071 156.668C56.2705 156.668 53.8899 154.277 53.8899 151.327C53.8899 148.377 56.2705 145.986 59.2071 145.986C62.1437 145.986 64.5244 148.377 64.5244 151.327Z" fill="#FFFFFE"/>
<path fill-rule="evenodd" clip-rule="evenodd" d="M61.8658 150.025C61.8658 151.501 60.6755 152.696 59.2071 152.696C57.7388 152.696 56.5485 151.501 56.5485 150.025C56.5485 148.551 57.7388 147.356 59.2071 147.356C60.6755 147.356 61.8658 148.551 61.8658 150.025Z" fill="#0A0B09"/>
<path fill-rule="evenodd" clip-rule="evenodd" d="M143.769 216.964C138.971 214.927 114.957 181.108 111.308 181.108C107.659 181.108 89.4762 170.634 89.4762 167.049C89.4762 165.491 90.6036 162.53 93.4981 163.875C97.2636 165.625 103.213 172.094 105.276 172.094C106.537 172.094 115.334 173.258 127.111 168.501C130.602 167.092 131.515 182.281 138.311 194.459C144.228 205.063 149.636 216.676 160.143 217.195C162.815 217.327 157.183 222.66 143.769 216.964Z" fill="#F6C86C"/>
<path fill-rule="evenodd" clip-rule="evenodd" d="M61.7453 129.996C58.5626 129.608 56.0324 129.712 58.3581 129.996C73.8057 131.882 93.049 139.755 85.4993 158.391C83.8224 162.515 75.2377 169.394 66.2185 174.165C67.2763 174.221 68.3428 174.259 69.4243 174.263C78.5098 169.489 87.1987 162.543 88.8864 158.391C96.4369 139.755 77.1928 131.882 61.7453 129.996Z" fill="#E8962E"/>
<path fill-rule="evenodd" clip-rule="evenodd" d="M113.572 112.618C126.248 117.444 131.463 125.531 142.955 131.941C146.882 134.132 159.003 135.713 166.707 136.314C212.554 139.892 229.745 135.016 223.396 135.38C194.549 137.036 173.381 136.1 160.796 134.132C152.097 132.771 147.327 131.438 147.183 131.365C145.675 130.613 144.272 129.835 142.955 129.047C131.656 122.301 126.248 114.551 113.572 109.725C99.716 104.448 91.526 106.853 87.4357 107.994C76.3699 111.1 69.9025 114.836 54.4016 126.461C54.4016 126.461 54.393 126.461 54.393 126.47C48.5975 130.812 38.5563 137.394 33.7165 142.904C33.5875 143.051 33.4581 143.207 33.3377 143.354C32.5964 144.252 32.0131 145.131 31.5455 145.987C36.8058 141.115 44.7282 135.845 49.6274 132.175C49.6274 132.166 49.636 132.166 49.636 132.166C57.8284 126.022 63.4922 122.093 68.6504 119.285C75.3488 115.04 80.4866 112.838 87.4357 110.888C91.526 109.746 99.716 107.342 113.572 112.618Z" fill="#F1AE35"/>
<path fill-rule="evenodd" clip-rule="evenodd" d="M97.9148 102.841C97.9148 101.615 100.805 93.0453 106.242 87.3065C113.248 79.9147 120.519 81.332 125.079 75.1578" fill="#E8962E"/>
<path fill-rule="evenodd" clip-rule="evenodd" d="M105.409 103.849C105.409 102.81 107.859 95.5451 112.469 90.6797C118.409 84.4126 124.573 85.6145 128.44 80.3799" fill="#E8962E"/>
<path fill-rule="evenodd" clip-rule="evenodd" d="M111.497 105.626C111.497 104.822 113.392 99.2031 116.958 95.4405C121.551 90.593 126.319 91.5226 129.309 87.4743" fill="#E8962E"/>
<path fill-rule="evenodd" clip-rule="evenodd" d="M117.84 107.151C117.84 106.563 119.226 102.453 121.834 99.7011C125.194 96.1554 128.681 96.8352 130.868 93.8741" fill="#E8962E"/>
<path fill-rule="evenodd" clip-rule="evenodd" d="M124.354 110.488C124.354 110.012 125.476 106.682 127.589 104.453C130.31 101.582 133.135 102.132 134.906 99.7339" fill="#E8962E"/>
<path fill-rule="evenodd" clip-rule="evenodd" d="M128.44 114.603C128.44 114.127 129.562 110.798 131.675 108.569C134.396 105.697 137.22 106.248 138.992 103.849" fill="#E8962E"/>
<path fill-rule="evenodd" clip-rule="evenodd" d="M133.716 117.658C133.716 117.308 134.538 114.869 136.086 113.236C138.08 111.132 140.15 111.535 141.448 109.778" fill="#E8962E"/>
<path fill-rule="evenodd" clip-rule="evenodd" d="M138.992 121.597C138.992 121.316 139.656 119.347 140.905 118.03C142.514 116.331 144.184 116.657 145.232 115.239" fill="#E8962E"/>
<path fill-rule="evenodd" clip-rule="evenodd" d="M97.4478 102.743C97.4478 102.743 97.4416 102.584 97.4843 102.289C97.5278 101.992 97.6032 101.558 97.7516 101.021C98.0453 99.947 98.5092 98.4165 99.2676 96.6589C99.6491 95.7816 100.084 94.8396 100.59 93.864C101.099 92.8916 101.652 91.8691 102.323 90.8709C102.975 89.8618 103.708 88.8534 104.523 87.8817L105.156 87.1668C105.269 87.0435 105.353 86.9366 105.491 86.7992L105.827 86.4675C106.283 86.0281 106.702 85.57 107.221 85.1571C107.721 84.7333 108.224 84.3158 108.756 83.9583C109.272 83.572 109.814 83.2317 110.359 82.9063C111.441 82.2405 112.574 81.7176 113.667 81.2361C114.763 80.7569 115.843 80.3612 116.853 79.9733C117.864 79.5877 118.804 79.1991 119.648 78.794C120.484 78.3772 121.233 77.9605 121.864 77.5375C122.172 77.3135 122.461 77.1043 122.727 76.9107C122.974 76.6914 123.201 76.4901 123.406 76.3082C123.827 75.9515 124.089 75.6019 124.301 75.3951C124.504 75.1773 124.612 75.061 124.612 75.061C124.612 75.061 124.519 75.189 124.344 75.4286C124.155 75.6565 123.942 76.0522 123.546 76.4456C123.354 76.6493 123.142 76.8748 122.911 77.1207C122.656 77.3431 122.381 77.5827 122.086 77.8395C121.482 78.3343 120.749 78.8346 119.907 79.2997C118.226 80.2363 116.156 81.0628 114.029 82.0478C112.967 82.5434 111.898 83.1022 110.86 83.7414C110.339 84.059 109.822 84.3899 109.333 84.7653C108.821 85.1142 108.357 85.5122 107.893 85.9087C107.414 86.2755 106.97 86.7477 106.516 87.1785L106.176 87.5071C106.09 87.5891 105.975 87.7272 105.876 87.8341L105.259 88.517C104.47 89.452 103.713 90.3964 103.055 91.3673C102.385 92.3288 101.78 93.2911 101.229 94.2191C100.68 95.1494 100.202 96.0532 99.7797 96.8977C98.949 98.5928 98.3056 100.037 97.9373 101.079C97.7501 101.599 97.611 102.011 97.5379 102.297C97.4602 102.583 97.4478 102.743 97.4478 102.743Z" fill="#F6C86C"/>
<path fill-rule="evenodd" clip-rule="evenodd" d="M104.943 103.752C104.943 103.752 104.941 103.206 105.186 102.288C105.43 101.374 105.81 100.071 106.447 98.5756C106.767 97.8295 107.132 97.0272 107.558 96.1976C107.987 95.3695 108.451 94.4977 109.02 93.6493C109.573 92.79 110.193 91.9308 110.885 91.1042L111.424 90.4955C111.52 90.3901 111.588 90.3011 111.71 90.1809L111.994 89.8992C112.38 89.5261 112.734 89.139 113.178 88.7855C113.604 88.4241 114.033 88.0682 114.487 87.7646C114.925 87.436 115.387 87.1473 115.85 86.8702C116.771 86.3044 117.736 85.8634 118.666 85.456C119.598 85.0509 120.516 84.72 121.373 84.3961C122.232 84.073 123.029 83.7483 123.744 83.4096C124.452 83.06 125.089 82.7127 125.626 82.3591C125.888 82.1726 126.134 81.997 126.361 81.8354C126.572 81.6512 126.765 81.4827 126.94 81.3297C127.298 81.03 127.524 80.7373 127.706 80.5633C127.88 80.3806 127.973 80.2831 127.973 80.2831C127.973 80.2831 127.895 80.3923 127.749 80.5976C127.59 80.7919 127.414 81.1314 127.079 81.4678C126.918 81.6419 126.739 81.8354 126.544 82.0454C126.33 82.2358 126.097 82.4418 125.849 82.6619C125.338 83.0865 124.718 83.5173 124.004 83.9146C122.578 84.7169 120.826 85.4303 119.028 86.2685C118.129 86.6899 117.228 87.166 116.352 87.7061C115.913 87.9746 115.476 88.2548 115.063 88.5716C114.63 88.8666 114.24 89.2022 113.85 89.5371C113.446 89.8438 113.069 90.2457 112.683 90.6102L112.395 90.8888C112.326 90.9544 112.226 91.0738 112.142 91.1628L111.621 91.7395C110.954 92.5294 110.311 93.3247 109.752 94.1457C108.623 95.7753 107.667 97.38 106.959 98.8145C106.249 100.247 105.69 101.465 105.372 102.346C105.21 102.785 105.088 103.133 105.024 103.374C104.955 103.617 104.943 103.752 104.943 103.752Z" fill="#F6C86C"/>
<path fill-rule="evenodd" clip-rule="evenodd" d="M111.03 105.529C111.03 105.529 111.019 105.105 111.197 104.389C111.377 103.68 111.65 102.661 112.135 101.499C112.378 100.917 112.656 100.293 112.981 99.6457C113.307 99.0003 113.661 98.3197 114.1 97.6586C114.527 96.9898 115.004 96.3178 115.543 95.6747L115.961 95.2002C116.038 95.1167 116.086 95.0519 116.186 94.952L116.406 94.7342C116.704 94.4447 116.976 94.1465 117.323 93.8679C117.989 93.2958 118.683 92.8057 119.409 92.378C120.126 91.937 120.88 91.5999 121.603 91.2861C122.327 90.974 123.041 90.7258 123.705 90.4815C124.372 90.2388 124.988 89.9937 125.542 89.7385C126.089 89.4731 126.583 89.2148 127.002 88.9486C127.42 88.6833 127.76 88.4125 128.027 88.1713C128.307 87.9442 128.487 87.7225 128.631 87.5906C128.769 87.4517 128.842 87.3776 128.842 87.3776C128.842 87.3776 128.783 87.4634 128.674 87.625C128.553 87.7772 128.423 88.0449 128.167 88.3094C127.929 88.5912 127.62 88.9166 127.224 89.2515C126.832 89.5878 126.354 89.9305 125.802 90.2434C124.698 90.8748 123.347 91.4461 121.965 92.0986C121.273 92.4264 120.584 92.7987 119.911 93.2131C119.237 93.6213 118.581 94.1052 117.995 94.6195C117.687 94.8521 117.393 95.1643 117.094 95.4452L116.871 95.6599C116.824 95.7051 116.742 95.8004 116.679 95.8675L116.279 96.31C115.766 96.9172 115.265 97.5244 114.833 98.155C113.958 99.4061 113.204 100.635 112.647 101.737C112.09 102.838 111.638 103.77 111.383 104.448C111.253 104.786 111.152 105.052 111.099 105.237C111.041 105.423 111.03 105.529 111.03 105.529Z" fill="#F6C86C"/>
<path fill-rule="evenodd" clip-rule="evenodd" d="M117.373 107.054C117.373 107.054 117.353 106.742 117.471 106.213C117.59 105.688 117.773 104.936 118.108 104.072C118.276 103.639 118.467 103.174 118.707 102.699C118.944 102.223 119.201 101.72 119.521 101.231C119.832 100.737 120.178 100.236 120.576 99.7612L120.883 99.41C120.942 99.346 120.973 99.303 121.053 99.2227L121.213 99.0627C121.432 98.8496 121.626 98.6334 121.886 98.4235C122.384 97.9981 122.897 97.6383 123.435 97.3222C123.966 96.9968 124.525 96.7548 125.058 96.5277C126.131 96.086 127.14 95.7855 127.95 95.4312C128.353 95.2493 128.717 95.0714 129.026 94.8864C129.335 94.7006 129.588 94.5102 129.787 94.3393C130.184 93.999 130.402 93.7773 130.402 93.7773C130.402 93.7773 130.361 93.8421 130.284 93.9623C130.199 94.077 130.111 94.2792 129.926 94.4774C129.595 94.9036 129.022 95.4632 128.215 95.9463C127.415 96.4419 126.42 96.8532 125.42 97.3394C124.919 97.5813 124.423 97.8584 123.936 98.1581C123.451 98.4539 122.976 98.8067 122.558 99.175C122.339 99.3389 122.12 99.5692 121.902 99.7737L121.738 99.9305L121.603 100.077L121.311 100.396C120.939 100.835 120.57 101.271 120.253 101.727C119.607 102.629 119.065 103.525 118.63 104.314C118.203 105.107 117.855 105.78 117.657 106.271C117.442 106.755 117.373 107.054 117.373 107.054Z" fill="#F6C86C"/>
<path fill-rule="evenodd" clip-rule="evenodd" d="M123.887 110.391C123.887 110.391 123.863 110.137 123.949 109.704C124.037 109.276 124.17 108.658 124.434 107.952C124.688 107.243 125.058 106.438 125.557 105.627C125.809 105.223 126.087 104.812 126.411 104.423L126.662 104.136C126.743 104.039 126.857 103.924 126.932 103.851C127.109 103.678 127.264 103.504 127.479 103.329C128.291 102.642 129.193 102.131 130.077 101.787C130.954 101.434 131.772 101.201 132.429 100.928C132.755 100.787 133.051 100.65 133.304 100.507C133.558 100.363 133.764 100.214 133.929 100.08C134.257 99.8119 134.44 99.6371 134.44 99.6371C134.44 99.6371 134.408 99.6909 134.349 99.7908C134.282 99.8853 134.215 100.053 134.069 100.217C133.805 100.569 133.348 101.04 132.694 101.443C132.047 101.858 131.242 102.201 130.439 102.6C129.64 102.996 128.828 103.484 128.15 104.081C127.977 104.209 127.797 104.397 127.62 104.562L127.488 104.688L127.381 104.803L127.147 105.059C126.848 105.411 126.547 105.758 126.29 106.124C125.763 106.845 125.317 107.564 124.955 108.195C124.6 108.83 124.303 109.368 124.134 109.762C123.951 110.15 123.887 110.391 123.887 110.391Z" fill="#F6C86C"/>
<path fill-rule="evenodd" clip-rule="evenodd" d="M127.973 114.507C127.973 114.507 127.948 114.252 128.034 113.819C128.123 113.391 128.256 112.774 128.518 112.068C128.774 111.358 129.143 110.553 129.643 109.743C129.895 109.338 130.173 108.927 130.497 108.538L130.748 108.251C130.828 108.154 130.943 108.04 131.017 107.966C131.195 107.793 131.35 107.619 131.564 107.445C132.376 106.757 133.279 106.246 134.163 105.903C135.039 105.55 135.858 105.317 136.515 105.043C136.84 104.902 137.137 104.765 137.39 104.622C137.643 104.478 137.85 104.329 138.015 104.195C138.342 103.927 138.525 103.753 138.525 103.753C138.525 103.753 138.494 103.806 138.434 103.906C138.368 104.001 138.301 104.168 138.154 104.332C137.89 104.684 137.433 105.155 136.78 105.558C136.133 105.973 135.328 106.316 134.525 106.715C133.726 107.112 132.914 107.599 132.236 108.196C132.062 108.324 131.883 108.513 131.706 108.677L131.574 108.804L131.467 108.918L131.233 109.174C130.933 109.526 130.633 109.873 130.376 110.239C129.849 110.961 129.403 111.679 129.041 112.31C128.685 112.946 128.389 113.483 128.22 113.877C128.037 114.265 127.973 114.507 127.973 114.507Z" fill="#F6C86C"/>
<path fill-rule="evenodd" clip-rule="evenodd" d="M133.249 117.561C133.249 117.561 133.221 117.374 133.267 117.049C133.31 116.726 133.401 116.269 133.579 115.741C133.752 115.211 134.012 114.61 134.375 114.004C134.558 113.703 134.759 113.393 135 113.103C135.112 112.976 135.264 112.79 135.388 112.673C135.518 112.545 135.628 112.42 135.791 112.286C136.404 111.77 137.077 111.392 137.736 111.148C138.388 110.896 138.99 110.74 139.472 110.558C139.953 110.374 140.337 110.173 140.587 109.985C140.838 109.804 140.981 109.682 140.981 109.682C140.981 109.682 140.96 109.722 140.92 109.798C140.875 109.871 140.831 109.999 140.73 110.127C140.552 110.404 140.214 110.759 139.737 111.073C139.265 111.396 138.677 111.663 138.099 111.961C137.524 112.258 136.942 112.612 136.462 113.038C136.341 113.126 136.206 113.265 136.077 113.385C135.999 113.458 135.962 113.491 135.905 113.556L135.736 113.739C135.52 113.992 135.297 114.237 135.107 114.5C134.718 115.017 134.38 115.532 134.101 115.984C133.826 116.439 133.603 116.829 133.457 117.109C133.306 117.385 133.249 117.561 133.249 117.561Z" fill="#F6C86C"/>
<path fill-rule="evenodd" clip-rule="evenodd" d="M138.525 121.5C138.525 121.5 138.495 121.348 138.521 121.082C138.545 120.817 138.607 120.442 138.741 120.009C138.87 119.573 139.073 119.08 139.364 118.582C139.51 118.336 139.67 118.079 139.867 117.842C139.956 117.74 140.087 117.581 140.185 117.488C140.29 117.384 140.377 117.284 140.512 117.171C141.019 116.746 141.571 116.439 142.112 116.247C142.645 116.048 143.131 115.932 143.521 115.8C143.91 115.664 144.225 115.516 144.433 115.374C144.643 115.236 144.765 115.142 144.765 115.142C144.765 115.142 144.715 115.284 144.575 115.514C144.439 115.747 144.171 116.049 143.787 116.315C143.406 116.589 142.933 116.814 142.473 117.059C142.019 117.305 141.557 117.589 141.183 117.923C141.089 117.99 140.977 118.104 140.873 118.199C140.758 118.302 140.708 118.369 140.603 118.478C140.431 118.678 140.249 118.87 140.095 119.079C139.778 119.487 139.499 119.894 139.263 120.252C139.032 120.612 138.84 120.92 138.712 121.141C138.579 121.36 138.525 121.5 138.525 121.5Z" fill="#F6C86C"/>
<path fill-rule="evenodd" clip-rule="evenodd" d="M128.832 67.1963C131.479 63.613 132.364 87.4634 136.589 93.1639C142.333 100.916 146.043 101.159 148.971 110.187C150.27 114.194 150.829 118.551 150.901 122.483C150.983 118.125 150.467 113.042 148.971 108.427C146.043 99.3998 142.333 99.1571 136.589 91.4047C132.364 85.7042 131.479 61.8535 128.832 65.4368C122.225 74.3812 111.692 72.3278 101.542 83.0374C93.6636 91.3509 89.4777 103.767 89.4777 105.543C89.4777 105.691 89.5585 105.869 89.6984 106.068C90.6518 102.309 94.7056 92.0104 101.542 84.7965C111.692 74.087 122.225 76.1404 128.832 67.1963Z" fill="#E8962E"/>
<path fill-rule="evenodd" clip-rule="evenodd" d="M83.3057 174.296C80.7531 173.601 80.2714 170.186 82.5116 168.775C88.4062 165.064 92.9829 157.092 94.1345 154.263C100.589 138.345 79.8114 129.985 66.6183 128.371C65.861 128.278 65.3767 127.902 65.0347 127.388C64.0436 125.898 64.5578 123.854 66.0441 122.864C68.1978 121.428 70.1394 120.241 72.0072 119.221C77.7312 115.595 91.3504 111.183 96.663 111.183C106.944 111.183 131.908 123.668 139.824 131.663C143.357 135.233 138.22 140.895 136.283 143.118C134.891 144.716 132.543 145.242 130.73 146.356C128.04 148.005 125.548 149.723 123.726 151.561C119.308 155.998 107.731 168.265 103.107 169.551C93.7405 172.162 87.5087 175.44 83.3057 174.296Z" fill="#FFF24C"/>
<path fill-rule="evenodd" clip-rule="evenodd" d="M228.006 153.477C226.503 154.318 222.443 154.606 221.949 155.045C221.376 155.57 218.032 154.002 217.173 154.11C213.106 154.628 202.415 157.619 201.012 155.735C199.014 153.067 197.139 158.799 195.9 159.432C193.609 160.604 185.36 157.886 182.818 159.23C181.679 159.827 179.466 156.85 178.364 157.533C177.368 158.145 176.402 158.785 175.45 159.432C173.889 160.51 169.013 156.311 167.889 157.785C167.366 158.475 170.337 162.107 167.889 164.567C166.829 165.631 169.385 174.046 168.704 175.247C167.931 176.613 164.627 178.139 169.5 191.514C170.262 193.603 174.156 205.018 173.677 204.709C169.961 202.357 167.025 193.117 166.889 193.347C166.174 194.534 153.734 168.988 146.703 154.892C143.538 148.541 144.002 146.101 144.997 143.231C145.208 142.625 149.252 133.569 151.133 134.159C152.129 134.472 161.294 140.582 198.17 138.266C199.502 138.187 210.393 136.777 219.643 139.309C225.55 143.423 229.002 149.535 229.031 150.377C229.045 150.895 229.811 152.47 228.006 153.477Z" fill="#FFF24C"/>
<path fill-rule="evenodd" clip-rule="evenodd" d="M61.7347 149.195C61.387 148.127 60.3868 147.356 59.2071 147.356C58.9977 147.356 58.7939 147.38 58.5984 147.426C58.9253 147.185 59.3283 147.043 59.7643 147.043C60.8563 147.043 61.7414 147.933 61.7414 149.03C61.7414 149.085 61.7392 149.14 61.7347 149.195Z" fill="#FFFFFE"/>
<path fill-rule="evenodd" clip-rule="evenodd" d="M59.7643 151.015C58.6724 151.015 57.7872 150.126 57.7872 149.03C57.7872 148.371 58.1067 147.787 58.5984 147.426C58.7939 147.38 58.9977 147.356 59.2071 147.356C60.3868 147.356 61.387 148.127 61.7347 149.195C61.6509 150.214 60.8007 151.015 59.7643 151.015Z" fill="#484846"/>
<path fill-rule="evenodd" clip-rule="evenodd" d="M99.2552 196.462C99.2552 202.014 102.18 202.431 100.088 202.431C97.9964 202.431 92.2549 197.792 92.2549 192.239C92.2549 186.687 91.6309 181.083 93.7227 181.083C94.8393 181.083 98.0197 175.732 99.1759 179.187C100.187 182.205 99.2552 193.873 99.2552 196.462Z" fill="#FFF24C"/>
<path fill-rule="evenodd" clip-rule="evenodd" d="M138.672 210.004C136.931 208.073 117.742 183.954 115.09 183.954C112.44 183.954 99.2303 176.345 99.2303 173.741C99.2303 172.609 100.049 170.458 102.152 171.435C104.888 172.707 109.209 177.406 110.708 177.406C111.624 177.406 118.014 178.252 126.571 174.796C129.107 173.772 129.77 184.807 134.708 193.654C139.006 201.357 147.151 217.417 154.784 217.794C156.726 217.89 147.231 219.493 138.672 210.004Z" fill="#FFF24C"/>
<path fill-rule="evenodd" clip-rule="evenodd" d="M62.4786 142.688C61.2738 142.688 60.1323 142.952 59.0992 143.416C59.5251 143.342 59.9563 143.284 60.4032 143.284C64.6543 143.284 68.1005 146.745 68.1005 151.015C68.1005 155.285 64.6543 158.746 60.4032 158.746C59.9563 158.746 59.5251 158.688 59.0992 158.615C60.1323 159.079 61.2738 159.343 62.4786 159.343C67.0574 159.343 70.7694 155.614 70.7694 151.015C70.7694 146.416 67.0574 142.688 62.4786 142.688Z" fill="#ECA32F"/>
<path fill-rule="evenodd" clip-rule="evenodd" d="M66.6832 138.838C64.9215 138.838 63.2522 139.224 61.7415 139.903C62.3642 139.795 62.9949 139.709 63.6483 139.709C69.8647 139.709 74.9044 144.771 74.9044 151.015C74.9044 157.259 69.8647 162.321 63.6483 162.321C62.9949 162.321 62.3642 162.235 61.7415 162.128C63.2522 162.807 64.9215 163.193 66.6832 163.193C73.3791 163.193 78.8074 157.74 78.8074 151.015C78.8074 144.29 73.3791 138.838 66.6832 138.838Z" fill="#EB9C2F"/>
</g>
</g>
<defs>
<filter id="filter0_d" x="262.055" y="70.6781" width="31.2969" height="161.386" filterUnits="userSpaceOnUse" color-interpolation-filters="sRGB">
<feFlood flood-opacity="0" result="BackgroundImageFix"/>
<feColorMatrix in="SourceAlpha" type="matrix" values="0 0 0 0 0 0 0 0 0 0 0 0 0 0 0 0 0 0 127 0"/>
<feOffset dx="1" dy="1"/>
<feGaussianBlur stdDeviation="1"/>
<feColorMatrix type="matrix" values="0 0 0 0 0 0 0 0 0 0 0 0 0 0 0 0 0 0 0.15 0"/>
<feBlend mode="normal" in2="BackgroundImageFix" result="effect1_dropShadow"/>
<feBlend mode="normal" in="SourceGraphic" in2="effect1_dropShadow" result="shape"/>
</filter>
<radialGradient id="paint0_radial" cx="0" cy="0" r="1" gradientUnits="userSpaceOnUse" gradientTransform="translate(150 150) rotate(90) scale(150)">
<stop offset="0.369792" stop-color="white" stop-opacity="0"/>
<stop offset="1" stop-color="#FFFF00"/>
</radialGradient>
<clipPath id="clip0">
<rect width="300" height="300" fill="white"/>
</clipPath>
<clipPath id="clip1">
<rect width="245" height="171" fill="white" transform="translate(27 65)"/>
</clipPath>
</defs>
</svg>
