<svg width="300" height="300" viewBox="0 0 300 300" fill="none" xmlns="http://www.w3.org/2000/svg">
<rect width="300" height="300" fill="white"/>
<rect width="300" height="300" fill="white"/>
<rect width="300" height="300" fill="white"/>
<rect width="300" height="300" fill="url(#paint0_radial)" fill-opacity="0.11"/>
<g filter="url(#filter0_d)">
<path d="M286.266 192.109C287.402 193.059 288.287 194.4 288.92 196.135C289.541 197.869 289.852 199.791 289.852 201.9C289.852 204.115 289.371 206.061 288.41 207.736C287.437 209.4 286.031 210.69 284.191 211.604C282.352 212.506 280.189 212.969 277.705 212.992L275.965 212.992C273.41 212.992 271.201 212.565 269.338 211.709C267.463 210.842 266.033 209.6 265.049 207.982C264.053 206.354 263.555 204.449 263.555 202.27C263.555 199.234 264.281 196.861 265.734 195.15C267.176 193.44 269.279 192.426 272.045 192.109L272.045 197.242C270.58 197.477 269.508 197.998 268.828 198.807C268.148 199.604 267.809 200.705 267.809 202.111C267.809 203.904 268.482 205.27 269.83 206.207C271.178 207.145 273.182 207.619 275.842 207.631L277.477 207.631C280.16 207.631 282.187 207.121 283.559 206.102C284.93 205.082 285.615 203.588 285.615 201.619C285.615 199.639 285.193 198.227 284.35 197.383L279.937 197.383L279.937 202.182L276.053 202.182L276.053 192.109L286.266 192.109ZM280.131 174.386L280.131 178.587L289.5 178.587L289.5 183.86L263.906 183.86L263.906 174.351C263.906 171.327 264.58 168.995 265.928 167.355C267.275 165.714 269.18 164.894 271.641 164.894C273.387 164.894 274.846 165.274 276.018 166.036C277.178 166.786 278.104 167.929 278.795 169.464L289.254 163.927L289.5 163.927L289.5 169.587L280.131 174.386ZM275.859 178.587L275.859 174.333C275.859 173.009 275.525 171.983 274.857 171.257C274.178 170.53 273.246 170.167 272.062 170.167C270.855 170.167 269.906 170.513 269.215 171.204C268.523 171.884 268.178 172.933 268.178 174.351L268.178 178.587L275.859 178.587ZM278.408 141.51L278.408 151.635L285.264 151.635L285.264 139.752L289.5 139.752L289.5 156.908L263.906 156.908L263.906 139.787L268.178 139.787L268.178 151.635L274.277 151.635L274.277 141.51L278.408 141.51ZM278.408 117.3L278.408 127.425L285.264 127.425L285.264 115.542L289.5 115.542L289.5 132.698L263.906 132.698L263.906 115.577L268.178 115.577L268.178 127.425L274.277 127.425L274.277 117.3L278.408 117.3ZM289.5 87.6757L289.5 92.9491L272.66 103.215L289.5 103.215L289.5 108.488L263.906 108.488L263.906 103.215L280.781 92.9316L263.906 92.9316L263.906 87.6757L289.5 87.6757Z" fill="white"/>
<path d="M286.266 192.109L286.586 191.726L286.447 191.609L286.266 191.609L286.266 192.109ZM288.92 196.135L289.391 195.966L289.39 195.963L288.92 196.135ZM288.41 207.736L288.842 207.989L288.844 207.985L288.41 207.736ZM284.191 211.604L284.412 212.053L284.414 212.051L284.191 211.604ZM277.705 212.992L277.705 213.492L277.71 213.492L277.705 212.992ZM269.338 211.709L269.128 212.163L269.129 212.163L269.338 211.709ZM265.049 207.982L265.476 207.723L265.475 207.722L265.049 207.982ZM265.734 195.15L266.115 195.474L266.117 195.473L265.734 195.15ZM272.045 192.109L272.545 192.109L272.545 191.549L271.988 191.613L272.045 192.109ZM272.045 197.242L272.124 197.736L272.545 197.669L272.545 197.242L272.045 197.242ZM268.828 198.807L269.209 199.131L269.211 199.128L268.828 198.807ZM275.842 207.631L275.84 208.131L275.842 208.131L275.842 207.631ZM284.35 197.383L284.703 197.029L284.557 196.883L284.35 196.883L284.35 197.383ZM279.937 197.383L279.937 196.883L279.437 196.883L279.437 197.383L279.937 197.383ZM279.937 202.182L279.937 202.682L280.437 202.682L280.437 202.182L279.937 202.182ZM276.053 202.182L275.553 202.182L275.553 202.682L276.053 202.682L276.053 202.182ZM276.053 192.109L276.053 191.609L275.553 191.609L275.553 192.109L276.053 192.109ZM285.945 192.493C287 193.374 287.84 194.634 288.45 196.306L289.39 195.963C288.734 194.167 287.805 192.744 286.586 191.726L285.945 192.493ZM288.449 196.303C289.048 197.976 289.352 199.84 289.352 201.9L290.352 201.9C290.352 199.742 290.034 197.762 289.391 195.966L288.449 196.303ZM289.352 201.9C289.352 204.041 288.888 205.898 287.976 207.488L288.844 207.985C289.854 206.223 290.352 204.19 290.352 201.9L289.352 201.9ZM287.978 207.484C287.058 209.058 285.728 210.282 283.969 211.156L284.414 212.051C286.335 211.097 287.817 209.743 288.842 207.989L287.978 207.484ZM283.971 211.155C282.211 212.018 280.126 212.469 277.7 212.492L277.71 213.492C280.253 213.468 282.492 212.994 284.412 212.053L283.971 211.155ZM277.705 212.492L275.965 212.492L275.965 213.492L277.705 213.492L277.705 212.492ZM275.965 212.492C273.465 212.492 271.33 212.074 269.547 211.255L269.129 212.163C271.072 213.055 273.355 213.492 275.965 213.492L275.965 212.492ZM269.548 211.255C267.754 210.426 266.404 209.247 265.476 207.723L264.622 208.242C265.662 209.952 267.172 211.258 269.128 212.163L269.548 211.255ZM265.475 207.722C264.534 206.182 264.055 204.371 264.055 202.27L263.055 202.27C263.055 204.528 263.572 206.525 264.622 208.243L265.475 207.722ZM264.055 202.27C264.055 199.311 264.762 197.067 266.115 195.474L265.353 194.827C263.8 196.656 263.055 199.158 263.055 202.27L264.055 202.27ZM266.117 195.473C267.457 193.882 269.43 192.912 272.102 192.606L271.988 191.613C269.128 191.94 266.895 192.997 265.352 194.828L266.117 195.473ZM271.545 192.109L271.545 197.242L272.545 197.242L272.545 192.109L271.545 192.109ZM271.966 196.749C270.43 196.994 269.229 197.553 268.445 198.485L269.211 199.128C269.787 198.443 270.73 197.959 272.124 197.736L271.966 196.749ZM268.448 198.482C267.668 199.397 267.309 200.627 267.309 202.111L268.309 202.111C268.309 200.783 268.629 199.811 269.209 199.131L268.448 198.482ZM267.309 202.111C267.309 204.05 268.049 205.577 269.545 206.618L270.116 205.797C268.916 204.962 268.309 203.758 268.309 202.111L267.309 202.111ZM269.545 206.618C271.013 207.639 273.135 208.119 275.84 208.131L275.844 207.131C273.228 207.119 271.343 206.65 270.116 205.797L269.545 206.618ZM275.842 208.131L277.477 208.131L277.477 207.131L275.842 207.131L275.842 208.131ZM277.477 208.131C280.21 208.131 282.363 207.614 283.857 206.503L283.26 205.7C282.012 206.628 280.11 207.131 277.477 207.131L277.477 208.131ZM283.857 206.503C285.375 205.374 286.115 203.719 286.115 201.619L285.115 201.619C285.115 203.457 284.484 204.79 283.26 205.7L283.857 206.503ZM286.115 201.619C286.115 199.589 285.686 198.013 284.703 197.029L283.996 197.736C284.7 198.441 285.115 199.688 285.115 201.619L286.115 201.619ZM284.35 196.883L279.937 196.883L279.937 197.883L284.35 197.883L284.35 196.883ZM279.437 197.383L279.437 202.182L280.437 202.182L280.437 197.383L279.437 197.383ZM279.937 201.682L276.053 201.682L276.053 202.682L279.937 202.682L279.937 201.682ZM276.553 202.182L276.553 192.109L275.553 192.109L275.553 202.182L276.553 202.182ZM276.053 192.609L286.266 192.609L286.266 191.609L276.053 191.609L276.053 192.609ZM280.131 174.386L279.903 173.941L279.631 174.08L279.631 174.386L280.131 174.386ZM280.131 178.587L279.631 178.587L279.631 179.087L280.131 179.087L280.131 178.587ZM289.5 178.587L290 178.587L290 178.087L289.5 178.087L289.5 178.587ZM289.5 183.86L289.5 184.36L290 184.36L290 183.86L289.5 183.86ZM263.906 183.86L263.406 183.86L263.406 184.36L263.906 184.36L263.906 183.86ZM276.018 166.036L275.745 166.455L275.746 166.456L276.018 166.036ZM278.795 169.464L278.339 169.669L278.558 170.155L279.029 169.906L278.795 169.464ZM289.254 163.927L289.254 163.427L289.13 163.427L289.02 163.485L289.254 163.927ZM289.5 163.927L290 163.927L290 163.427L289.5 163.427L289.5 163.927ZM289.5 169.587L289.728 170.032L290 169.893L290 169.587L289.5 169.587ZM275.859 178.587L275.859 179.087L276.359 179.087L276.359 178.587L275.859 178.587ZM274.857 171.257L275.226 170.918L275.223 170.915L274.857 171.257ZM269.215 171.204L269.565 171.561L269.568 171.558L269.215 171.204ZM268.178 178.587L267.678 178.587L267.678 179.087L268.178 179.087L268.178 178.587ZM279.631 174.386L279.631 178.587L280.631 178.587L280.631 174.386L279.631 174.386ZM280.131 179.087L289.5 179.087L289.5 178.087L280.131 178.087L280.131 179.087ZM289 178.587L289 183.86L290 183.86L290 178.587L289 178.587ZM289.5 183.36L263.906 183.36L263.906 184.36L289.5 184.36L289.5 183.36ZM264.406 183.86L264.406 174.351L263.406 174.351L263.406 183.86L264.406 183.86ZM264.406 174.351C264.406 171.395 265.066 169.192 266.314 167.672L265.541 167.037C264.095 168.798 263.406 171.26 263.406 174.351L264.406 174.351ZM266.314 167.672C267.551 166.166 269.303 165.394 271.641 165.394L271.641 164.394C269.057 164.394 267 165.262 265.541 167.037L266.314 167.672ZM271.641 165.394C273.314 165.394 274.672 165.758 275.745 166.455L276.29 165.617C275.019 164.791 273.459 164.394 271.641 164.394L271.641 165.394ZM275.746 166.456C276.809 167.143 277.678 168.203 278.339 169.669L279.251 169.259C278.529 167.655 277.546 166.429 276.289 165.616L275.746 166.456ZM279.029 169.906L289.488 164.369L289.02 163.485L278.561 169.022L279.029 169.906ZM289.254 164.427L289.5 164.427L289.5 163.427L289.254 163.427L289.254 164.427ZM289 163.927L289 169.587L290 169.587L290 163.927L289 163.927ZM289.272 169.142L279.903 173.941L280.359 174.831L289.728 170.032L289.272 169.142ZM276.359 178.587L276.359 174.333L275.359 174.333L275.359 178.587L276.359 178.587ZM276.359 174.333C276.359 172.927 276.004 171.765 275.226 170.918L274.489 171.595C275.047 172.202 275.359 173.091 275.359 174.333L276.359 174.333ZM275.223 170.915C274.43 170.069 273.356 169.667 272.062 169.667L272.062 170.667C273.136 170.667 273.925 170.992 274.492 171.598L275.223 170.915ZM272.062 169.667C270.756 169.667 269.667 170.044 268.861 170.851L269.568 171.558C270.145 170.981 270.955 170.667 272.062 170.667L272.062 169.667ZM268.864 170.848C268.041 171.657 267.678 172.861 267.678 174.351L268.678 174.351C268.678 173.005 269.006 172.11 269.565 171.561L268.864 170.848ZM267.678 174.351L267.678 178.587L268.678 178.587L268.678 174.351L267.678 174.351ZM268.178 179.087L275.859 179.087L275.859 178.087L268.178 178.087L268.178 179.087ZM278.408 141.51L278.908 141.51L278.908 141.01L278.408 141.01L278.408 141.51ZM278.408 151.635L277.908 151.635L277.908 152.135L278.408 152.135L278.408 151.635ZM285.264 151.635L285.264 152.135L285.764 152.135L285.764 151.635L285.264 151.635ZM285.264 139.752L285.264 139.252L284.764 139.252L284.764 139.752L285.264 139.752ZM289.5 139.752L290 139.752L290 139.252L289.5 139.252L289.5 139.752ZM289.5 156.908L289.5 157.408L290 157.408L290 156.908L289.5 156.908ZM263.906 156.908L263.406 156.908L263.406 157.408L263.906 157.408L263.906 156.908ZM263.906 139.787L263.906 139.287L263.406 139.287L263.406 139.787L263.906 139.787ZM268.178 139.787L268.678 139.787L268.678 139.287L268.178 139.287L268.178 139.787ZM268.178 151.635L267.678 151.635L267.678 152.135L268.178 152.135L268.178 151.635ZM274.277 151.635L274.277 152.135L274.777 152.135L274.777 151.635L274.277 151.635ZM274.277 141.51L274.277 141.01L273.777 141.01L273.777 141.51L274.277 141.51ZM277.908 141.51L277.908 151.635L278.908 151.635L278.908 141.51L277.908 141.51ZM278.408 152.135L285.264 152.135L285.264 151.135L278.408 151.135L278.408 152.135ZM285.764 151.635L285.764 139.752L284.764 139.752L284.764 151.635L285.764 151.635ZM285.264 140.252L289.5 140.252L289.5 139.252L285.264 139.252L285.264 140.252ZM289 139.752L289 156.908L290 156.908L290 139.752L289 139.752ZM289.5 156.408L263.906 156.408L263.906 157.408L289.5 157.408L289.5 156.408ZM264.406 156.908L264.406 139.787L263.406 139.787L263.406 156.908L264.406 156.908ZM263.906 140.287L268.178 140.287L268.178 139.287L263.906 139.287L263.906 140.287ZM267.678 139.787L267.678 151.635L268.678 151.635L268.678 139.787L267.678 139.787ZM268.178 152.135L274.277 152.135L274.277 151.135L268.178 151.135L268.178 152.135ZM274.777 151.635L274.777 141.51L273.777 141.51L273.777 151.635L274.777 151.635ZM274.277 142.01L278.408 142.01L278.408 141.01L274.277 141.01L274.277 142.01ZM278.408 117.3L278.908 117.3L278.908 116.8L278.408 116.8L278.408 117.3ZM278.408 127.425L277.908 127.425L277.908 127.925L278.408 127.925L278.408 127.425ZM285.264 127.425L285.264 127.925L285.764 127.925L285.764 127.425L285.264 127.425ZM285.264 115.542L285.264 115.042L284.764 115.042L284.764 115.542L285.264 115.542ZM289.5 115.542L290 115.542L290 115.042L289.5 115.042L289.5 115.542ZM289.5 132.698L289.5 133.198L290 133.198L290 132.698L289.5 132.698ZM263.906 132.698L263.406 132.698L263.406 133.198L263.906 133.198L263.906 132.698ZM263.906 115.577L263.906 115.077L263.406 115.077L263.406 115.577L263.906 115.577ZM268.178 115.577L268.678 115.577L268.678 115.077L268.178 115.077L268.178 115.577ZM268.178 127.425L267.678 127.425L267.678 127.925L268.178 127.925L268.178 127.425ZM274.277 127.425L274.277 127.925L274.777 127.925L274.777 127.425L274.277 127.425ZM274.277 117.3L274.277 116.8L273.777 116.8L273.777 117.3L274.277 117.3ZM277.908 117.3L277.908 127.425L278.908 127.425L278.908 117.3L277.908 117.3ZM278.408 127.925L285.264 127.925L285.264 126.925L278.408 126.925L278.408 127.925ZM285.764 127.425L285.764 115.542L284.764 115.542L284.764 127.425L285.764 127.425ZM285.264 116.042L289.5 116.042L289.5 115.042L285.264 115.042L285.264 116.042ZM289 115.542L289 132.698L290 132.698L290 115.542L289 115.542ZM289.5 132.198L263.906 132.198L263.906 133.198L289.5 133.198L289.5 132.198ZM264.406 132.698L264.406 115.577L263.406 115.577L263.406 132.698L264.406 132.698ZM263.906 116.077L268.178 116.077L268.178 115.077L263.906 115.077L263.906 116.077ZM267.678 115.577L267.678 127.425L268.678 127.425L268.678 115.577L267.678 115.577ZM268.178 127.925L274.277 127.925L274.277 126.925L268.178 126.925L268.178 127.925ZM274.777 127.425L274.777 117.3L273.777 117.3L273.777 127.425L274.777 127.425ZM274.277 117.8L278.408 117.8L278.408 116.8L274.277 116.8L274.277 117.8ZM289.5 87.6757L290 87.6757L290 87.1757L289.5 87.1757L289.5 87.6757ZM289.5 92.9491L289.76 93.3761L290 93.2299L290 92.9491L289.5 92.9491ZM272.66 103.215L272.4 102.788L270.879 103.715L272.66 103.715L272.66 103.215ZM289.5 103.215L290 103.215L290 102.715L289.5 102.715L289.5 103.215ZM289.5 108.488L289.5 108.988L290 108.988L290 108.488L289.5 108.488ZM263.906 108.488L263.406 108.488L263.406 108.988L263.906 108.988L263.906 108.488ZM263.906 103.215L263.646 102.788L263.406 102.934L263.406 103.215L263.906 103.215ZM280.781 92.9316L281.041 93.3585L282.563 92.4316L280.781 92.4316L280.781 92.9316ZM263.906 92.9316L263.406 92.9316L263.406 93.4316L263.906 93.4316L263.906 92.9316ZM263.906 87.6757L263.906 87.1757L263.406 87.1757L263.406 87.6757L263.906 87.6757ZM289 87.6757L289 92.9491L290 92.9491L290 87.6757L289 87.6757ZM289.24 92.5222L272.4 102.788L272.92 103.642L289.76 93.3761L289.24 92.5222ZM272.66 103.715L289.5 103.715L289.5 102.715L272.66 102.715L272.66 103.715ZM289 103.215L289 108.488L290 108.488L290 103.215L289 103.215ZM289.5 107.988L263.906 107.988L263.906 108.988L289.5 108.988L289.5 107.988ZM264.406 108.488L264.406 103.215L263.406 103.215L263.406 108.488L264.406 108.488ZM264.166 103.642L281.041 93.3585L280.521 92.5046L263.646 102.788L264.166 103.642ZM280.781 92.4316L263.906 92.4316L263.906 93.4316L280.781 93.4316L280.781 92.4316ZM264.406 92.9316L264.406 87.6757L263.406 87.6757L263.406 92.9316L264.406 92.9316ZM263.906 88.1757L289.5 88.1757L289.5 87.1757L263.906 87.1757L263.906 88.1757Z" fill="#297504"/>
</g>
<path d="M60.8594 277.969C58.75 280.312 55.6641 282.201 51.6016 283.633C47.5391 285.065 43.0859 285.781 38.2422 285.781C30.7943 285.781 24.8438 283.503 20.3906 278.945C15.9375 274.388 13.5547 268.047 13.2422 259.922L13.2031 255C13.2031 249.401 14.1927 244.518 16.1719 240.352C18.151 236.159 20.9766 232.943 24.6484 230.703C28.3464 228.438 32.6172 227.305 37.4609 227.305C44.5443 227.305 50.0391 228.932 53.9453 232.188C57.8776 235.417 60.1693 240.247 60.8203 246.68H47.6172C47.1484 243.503 46.1328 241.237 44.5703 239.883C43.0078 238.529 40.7943 237.852 37.9297 237.852C34.4922 237.852 31.8359 239.31 29.9609 242.227C28.0859 245.143 27.1354 249.31 27.1094 254.727V258.164C27.1094 263.841 28.0729 268.112 30 270.977C31.9531 273.815 35.013 275.234 39.1797 275.234C42.7474 275.234 45.4036 274.44 47.1484 272.852V264.023H37.6172V254.609H60.8594V277.969ZM74.4898 280.764H85.6871V285H69.2164V259.406H74.4898V280.764ZM107.129 279.727H97.8828L96.125 285H90.5176L100.045 259.406H104.932L114.512 285H108.904L107.129 279.727ZM99.3066 275.455H105.705L102.488 265.875L99.3066 275.455ZM133.774 278.285C133.774 277.289 133.422 276.527 132.719 276C132.016 275.461 130.75 274.898 128.922 274.312C127.094 273.715 125.647 273.129 124.58 272.555C121.674 270.984 120.221 268.869 120.221 266.209C120.221 264.826 120.608 263.596 121.381 262.518C122.166 261.428 123.286 260.578 124.739 259.969C126.204 259.359 127.844 259.055 129.661 259.055C131.489 259.055 133.118 259.389 134.547 260.057C135.977 260.713 137.084 261.645 137.87 262.852C138.666 264.059 139.065 265.43 139.065 266.965H133.791C133.791 265.793 133.422 264.885 132.684 264.24C131.946 263.584 130.909 263.256 129.573 263.256C128.284 263.256 127.282 263.531 126.567 264.082C125.852 264.621 125.495 265.336 125.495 266.227C125.495 267.059 125.911 267.756 126.743 268.318C127.586 268.881 128.823 269.408 130.452 269.9C133.452 270.803 135.637 271.922 137.008 273.258C138.379 274.594 139.065 276.258 139.065 278.25C139.065 280.465 138.227 282.205 136.551 283.471C134.875 284.725 132.62 285.352 129.784 285.352C127.815 285.352 126.022 284.994 124.405 284.279C122.787 283.553 121.551 282.562 120.696 281.309C119.852 280.055 119.43 278.602 119.43 276.949H124.721C124.721 279.773 126.409 281.186 129.784 281.186C131.037 281.186 132.016 280.934 132.719 280.43C133.422 279.914 133.774 279.199 133.774 278.285ZM159.522 278.285C159.522 277.289 159.171 276.527 158.468 276C157.764 275.461 156.499 274.898 154.671 274.312C152.843 273.715 151.395 273.129 150.329 272.555C147.423 270.984 145.97 268.869 145.97 266.209C145.97 264.826 146.356 263.596 147.13 262.518C147.915 261.428 149.034 260.578 150.487 259.969C151.952 259.359 153.593 259.055 155.409 259.055C157.237 259.055 158.866 259.389 160.296 260.057C161.725 260.713 162.833 261.645 163.618 262.852C164.415 264.059 164.813 265.43 164.813 266.965H159.54C159.54 265.793 159.171 264.885 158.432 264.24C157.694 263.584 156.657 263.256 155.321 263.256C154.032 263.256 153.03 263.531 152.315 264.082C151.6 264.621 151.243 265.336 151.243 266.227C151.243 267.059 151.659 267.756 152.491 268.318C153.335 268.881 154.571 269.408 156.2 269.9C159.2 270.803 161.386 271.922 162.757 273.258C164.128 274.594 164.813 276.258 164.813 278.25C164.813 280.465 163.975 282.205 162.3 283.471C160.624 284.725 158.368 285.352 155.532 285.352C153.563 285.352 151.77 284.994 150.153 284.279C148.536 283.553 147.3 282.562 146.444 281.309C145.6 280.055 145.179 278.602 145.179 276.949H150.47C150.47 279.773 152.157 281.186 155.532 281.186C156.786 281.186 157.764 280.934 158.468 280.43C159.171 279.914 159.522 279.199 159.522 278.285ZM187.398 273.908H177.273V280.764H189.155V285H171.999V259.406H189.12V263.678H177.273V269.777H187.398V273.908ZM209.121 278.285C209.121 277.289 208.769 276.527 208.066 276C207.363 275.461 206.097 274.898 204.269 274.312C202.441 273.715 200.994 273.129 199.927 272.555C197.021 270.984 195.568 268.869 195.568 266.209C195.568 264.826 195.955 263.596 196.728 262.518C197.513 261.428 198.632 260.578 200.086 259.969C201.55 259.359 203.191 259.055 205.007 259.055C206.836 259.055 208.464 259.389 209.894 260.057C211.324 260.713 212.431 261.645 213.216 262.852C214.013 264.059 214.412 265.43 214.412 266.965H209.138C209.138 265.793 208.769 264.885 208.031 264.24C207.293 263.584 206.255 263.256 204.92 263.256C203.63 263.256 202.629 263.531 201.914 264.082C201.199 264.621 200.841 265.336 200.841 266.227C200.841 267.059 201.257 267.756 202.089 268.318C202.933 268.881 204.17 269.408 205.798 269.9C208.798 270.803 210.984 271.922 212.355 273.258C213.726 274.594 214.412 276.258 214.412 278.25C214.412 280.465 213.574 282.205 211.898 283.471C210.222 284.725 207.966 285.352 205.13 285.352C203.162 285.352 201.369 284.994 199.752 284.279C198.134 283.553 196.898 282.562 196.043 281.309C195.199 280.055 194.777 278.602 194.777 276.949H200.068C200.068 279.773 201.755 281.186 205.13 281.186C206.384 281.186 207.363 280.934 208.066 280.43C208.769 279.914 209.121 279.199 209.121 278.285Z" fill="black"/>
<path d="M116.26 28.0098C116.114 29.3574 115.63 30.3887 114.81 31.1035C113.996 31.8184 112.909 32.1758 111.549 32.1758C110.6 32.1758 109.759 31.9385 109.027 31.4639C108.3 30.9893 107.738 30.3184 107.339 29.4512C106.941 28.5781 106.739 27.582 106.733 26.4629V24.8018C106.733 23.665 106.932 22.6572 107.331 21.7783C107.729 20.8994 108.3 20.2227 109.044 19.748C109.794 19.2676 110.656 19.0273 111.628 19.0273C112.999 19.0273 114.081 19.3994 114.872 20.1436C115.668 20.8818 116.131 21.9043 116.26 23.2109H115.17C114.901 21.0371 113.72 19.9502 111.628 19.9502C110.468 19.9502 109.542 20.3838 108.851 21.251C108.165 22.1182 107.823 23.3164 107.823 24.8457V26.4102C107.823 27.8867 108.157 29.0645 108.825 29.9434C109.498 30.8223 110.407 31.2617 111.549 31.2617C112.68 31.2617 113.533 30.9922 114.107 30.4531C114.681 29.9082 115.036 29.0938 115.17 28.0098H116.26ZM121.958 31.0859H128.277V32H120.868V19.2031H121.958V31.0859ZM141.217 26.2959C141.217 27.4736 141.012 28.5078 140.602 29.3984C140.198 30.2891 139.618 30.9746 138.862 31.4551C138.106 31.9355 137.233 32.1758 136.243 32.1758C134.749 32.1758 133.541 31.6426 132.622 30.5762C131.702 29.5039 131.242 28.0596 131.242 26.2432V24.9248C131.242 23.7588 131.447 22.7275 131.857 21.8311C132.273 20.9287 132.859 20.2373 133.615 19.7568C134.371 19.2705 135.241 19.0273 136.225 19.0273C137.209 19.0273 138.077 19.2646 138.827 19.7393C139.582 20.2139 140.165 20.8848 140.576 21.752C140.986 22.6191 141.2 23.624 141.217 24.7666V26.2959ZM140.136 24.9072C140.136 23.3662 139.788 22.1592 139.09 21.2861C138.393 20.4131 137.438 19.9766 136.225 19.9766C135.036 19.9766 134.086 20.416 133.377 21.2949C132.674 22.168 132.323 23.3896 132.323 24.96V26.2959C132.323 27.8135 132.674 29.0176 133.377 29.9082C134.081 30.793 135.036 31.2354 136.243 31.2354C137.467 31.2354 138.422 30.7988 139.108 29.9258C139.793 29.0469 140.136 27.8252 140.136 26.2607V24.9072ZM154.359 20.126H149.974V32H148.893V20.126H144.516V19.2031H154.359V20.126ZM167.897 32H166.807V25.8652H159.495V32H158.414V19.2031H159.495V24.9512H166.807V19.2031H167.897V32ZM180.204 25.8652H174.219V31.0859H181.101V32H173.138V19.2031H181.057V20.126H174.219V24.9512H180.204V25.8652ZM192.608 28.8535C192.608 28.1445 192.359 27.585 191.861 27.1748C191.363 26.7588 190.452 26.3662 189.128 25.9971C187.803 25.6221 186.836 25.2148 186.227 24.7754C185.36 24.1543 184.926 23.3398 184.926 22.332C184.926 21.3535 185.328 20.5596 186.13 19.9502C186.939 19.335 187.97 19.0273 189.224 19.0273C190.074 19.0273 190.833 19.1914 191.501 19.5195C192.174 19.8477 192.696 20.3047 193.065 20.8906C193.434 21.4766 193.619 22.1299 193.619 22.8506H192.529C192.529 21.9775 192.23 21.2773 191.632 20.75C191.035 20.2168 190.232 19.9502 189.224 19.9502C188.246 19.9502 187.466 20.1699 186.886 20.6094C186.306 21.043 186.016 21.6113 186.016 22.3145C186.016 22.9648 186.277 23.4951 186.798 23.9053C187.32 24.3154 188.155 24.6787 189.303 24.9951C190.452 25.3057 191.322 25.6309 191.914 25.9707C192.505 26.3047 192.951 26.7061 193.25 27.1748C193.548 27.6436 193.698 28.1973 193.698 28.8359C193.698 29.8438 193.294 30.6523 192.485 31.2617C191.682 31.8711 190.622 32.1758 189.303 32.1758C188.401 32.1758 187.572 32.0146 186.816 31.6924C186.066 31.3701 185.495 30.9189 185.102 30.3389C184.715 29.7588 184.522 29.0938 184.522 28.3438H185.603C185.603 29.2461 185.94 29.958 186.614 30.4795C187.288 31.001 188.184 31.2617 189.303 31.2617C190.299 31.2617 191.099 31.042 191.703 30.6025C192.306 30.1631 192.608 29.5801 192.608 28.8535Z" fill="black"/>
<path fill-rule="evenodd" clip-rule="evenodd" d="M54.0132 125.399L74.6069 136.251C82.9928 137.194 92.273 144.475 102.72 160.033C103.104 160.605 103.476 161.196 103.876 161.781C106.064 164.987 98.5876 171.077 94.9429 163.415C88.8056 154.163 79.6383 135.149 68.6868 145.603C68.1482 146.117 67.605 146.703 67.0581 147.364L47.8897 136.904L53.2231 125.402L54.0132 125.399Z" fill="#095009"/>
<mask id="mask0" mask-type="alpha" maskUnits="userSpaceOnUse" x="39" y="111" width="214" height="70">
<path d="M39.0237 111.048H252.837V181H39.0237V111.048Z" fill="white"/>
</mask>
<g mask="url(#mask0)">
<path fill-rule="evenodd" clip-rule="evenodd" d="M237.891 124.729L217.377 135.731C208.998 136.735 199.772 144.083 189.438 159.717C189.058 160.292 188.69 160.886 188.295 161.473C186.13 164.694 193.65 170.731 197.239 163.043C203.309 153.746 212.338 134.665 223.365 145.039C223.907 145.55 224.454 146.131 225.007 146.788L244.098 136.189L238.681 124.726L237.891 124.729Z" fill="#095009"/>
<path fill-rule="evenodd" clip-rule="evenodd" d="M228.767 166.769C217.204 178.738 177.898 182.677 166.554 148.218C163.884 140.107 162.435 132.097 169.551 125.099C173.479 119.639 209.193 114.499 225.607 118.612C241.912 122.698 238.591 156.601 228.767 166.769ZM63.4418 167.371C75.0918 179.256 114.425 182.908 125.519 148.368C128.13 140.238 129.52 132.216 122.354 125.272C118.386 119.84 82.6363 114.961 66.2523 119.193C49.9776 123.398 53.5453 157.275 63.4418 167.371ZM145.944 122.948C126.188 121.66 96.0069 103.237 38.9996 116.073C39.6487 120.611 40.2975 125.148 40.9466 129.686C52.5511 132.443 48.1637 161.253 60.096 171.476C75.4365 184.619 100.246 183.78 118.345 171.295C126.431 165.716 130.745 155.921 135.705 144.543C137.695 138.131 140.934 134.276 145.985 134.14C151.037 134.24 154.303 138.07 156.34 144.468C161.382 155.81 165.767 165.573 173.894 171.092C192.083 183.445 216.898 184.104 232.143 170.849C244 160.539 239.404 131.762 250.988 128.92C251.604 124.378 252.22 119.836 252.836 115.295C195.737 102.873 165.69 121.516 145.944 122.948Z" fill="#3F8500"/>
</g>
<path fill-rule="evenodd" clip-rule="evenodd" d="M48.1882 120.853C50.9276 120.844 53.1517 121.61 53.1552 122.564C53.1588 123.519 50.9402 124.301 48.2004 124.311C45.4603 124.321 43.2366 123.555 43.233 122.6C43.2295 121.646 45.4477 120.864 48.1882 120.853Z" fill="#E4E4E3"/>
<path fill-rule="evenodd" clip-rule="evenodd" d="M243.683 120.142C240.944 120.151 238.726 120.933 238.729 121.888C238.732 122.843 240.956 123.609 243.697 123.599C246.436 123.589 248.654 122.807 248.651 121.852C248.648 120.897 246.424 120.131 243.683 120.142Z" fill="#E4E4E3"/>
<defs>
<filter id="filter0_d" x="262.055" y="86.1757" width="31.2969" height="130.317" filterUnits="userSpaceOnUse" color-interpolation-filters="sRGB">
<feFlood flood-opacity="0" result="BackgroundImageFix"/>
<feColorMatrix in="SourceAlpha" type="matrix" values="0 0 0 0 0 0 0 0 0 0 0 0 0 0 0 0 0 0 127 0"/>
<feOffset dx="1" dy="1"/>
<feGaussianBlur stdDeviation="1"/>
<feColorMatrix type="matrix" values="0 0 0 0 0 0 0 0 0 0 0 0 0 0 0 0 0 0 0.15 0"/>
<feBlend mode="normal" in2="BackgroundImageFix" result="effect1_dropShadow"/>
<feBlend mode="normal" in="SourceGraphic" in2="effect1_dropShadow" result="shape"/>
</filter>
<radialGradient id="paint0_radial" cx="0" cy="0" r="1" gradientUnits="userSpaceOnUse" gradientTransform="translate(150 150) rotate(90) scale(150)">
<stop offset="0.369792" stop-color="white" stop-opacity="0"/>
<stop offset="1" stop-color="#00FF0A" stop-opacity="0.83"/>
</radialGradient>
</defs>
</svg>
