<svg width="300" height="300" viewBox="0 0 300 300" fill="none" xmlns="http://www.w3.org/2000/svg">
<rect width="300" height="300" fill="white"/>
<rect width="300" height="300" fill="white"/>
<rect width="300" height="300" fill="white"/>
<rect width="300" height="300" fill="url(#paint0_radial)" fill-opacity="0.11"/>
<g filter="url(#filter0_d)">
<path d="M280.482 218.804L289.5 218.804L289.5 224.078L263.906 224.078L263.906 214.093C263.906 212.171 264.258 210.484 264.961 209.031C265.664 207.566 266.666 206.441 267.967 205.656C269.256 204.871 270.727 204.478 272.379 204.478C274.887 204.478 276.867 205.339 278.32 207.062C279.762 208.773 280.482 211.146 280.482 214.181L280.482 218.804ZM276.211 218.804L276.211 214.093C276.211 212.699 275.883 211.638 275.227 210.912C274.57 210.173 273.633 209.804 272.414 209.804C271.16 209.804 270.146 210.173 269.373 210.912C268.6 211.65 268.201 212.67 268.178 213.97L268.178 218.804L276.211 218.804ZM263.906 177.508L280.764 177.508C283.564 177.508 285.779 178.387 287.408 180.145C289.037 181.891 289.852 184.282 289.852 187.317C289.852 190.305 289.061 192.678 287.479 194.436C285.896 196.194 283.723 197.09 280.957 197.126L263.906 197.126L263.906 191.852L280.799 191.852C282.475 191.852 283.699 191.454 284.473 190.657C285.234 189.848 285.615 188.735 285.615 187.317C285.615 184.352 284.057 182.846 280.939 182.799L263.906 182.799L263.906 177.508ZM280.131 159.75L280.131 163.951L289.5 163.951L289.5 169.224L263.906 169.224L263.906 159.714C263.906 156.691 264.58 154.359 265.928 152.718C267.275 151.078 269.18 150.257 271.641 150.257C273.387 150.257 274.846 150.638 276.018 151.4C277.178 152.15 278.104 153.293 278.795 154.828L289.254 149.291L289.5 149.291L289.5 154.951L280.131 159.75ZM275.859 163.951L275.859 159.697C275.859 158.373 275.525 157.347 274.857 156.621C274.178 155.894 273.246 155.531 272.062 155.531C270.855 155.531 269.906 155.876 269.215 156.568C268.523 157.248 268.178 158.296 268.178 159.714L268.178 163.951L275.859 163.951ZM280.482 136.999L289.5 136.999L289.5 142.272L263.906 142.272L263.906 132.288C263.906 130.366 264.258 128.678 264.961 127.225C265.664 125.76 266.666 124.635 267.967 123.85C269.256 123.065 270.727 122.672 272.379 122.672C274.887 122.672 276.867 123.534 278.32 125.256C279.762 126.967 280.482 129.34 280.482 132.375L280.482 136.999ZM276.211 136.999L276.211 132.288C276.211 130.893 275.883 129.833 275.227 129.106C274.57 128.368 273.633 127.999 272.414 127.999C271.16 127.999 270.146 128.368 269.373 129.106C268.6 129.844 268.201 130.864 268.178 132.165L268.178 136.999L276.211 136.999ZM285.264 109.8L285.264 98.603L289.5 98.603L289.5 115.074L263.906 115.074L263.906 109.8L285.264 109.8ZM278.408 76.2035L278.408 86.3285L285.264 86.3285L285.264 74.4457L289.5 74.4457L289.5 91.602L263.906 91.602L263.906 74.4809L268.178 74.4809L268.178 86.3285L274.277 86.3285L274.277 76.2035L278.408 76.2035Z" fill="white"/>
<path d="M280.482 218.804L279.982 218.804L279.982 219.304L280.482 219.304L280.482 218.804ZM289.5 218.804L290 218.804L290 218.304L289.5 218.304L289.5 218.804ZM289.5 224.078L289.5 224.578L290 224.578L290 224.078L289.5 224.078ZM263.906 224.078L263.406 224.078L263.406 224.578L263.906 224.578L263.906 224.078ZM264.961 209.031L265.411 209.249L265.412 209.247L264.961 209.031ZM267.967 205.656L268.225 206.084L268.227 206.083L267.967 205.656ZM278.32 207.062L278.703 206.74L278.702 206.74L278.32 207.062ZM276.211 218.804L276.211 219.304L276.711 219.304L276.711 218.804L276.211 218.804ZM275.227 210.912L274.853 211.244L274.856 211.247L275.227 210.912ZM268.178 213.97L267.678 213.961L267.678 213.97L268.178 213.97ZM268.178 218.804L267.678 218.804L267.678 219.304L268.178 219.304L268.178 218.804ZM280.482 219.304L289.5 219.304L289.5 218.304L280.482 218.304L280.482 219.304ZM289 218.804L289 224.078L290 224.078L290 218.804L289 218.804ZM289.5 223.578L263.906 223.578L263.906 224.578L289.5 224.578L289.5 223.578ZM264.406 224.078L264.406 214.093L263.406 214.093L263.406 224.078L264.406 224.078ZM264.406 214.093C264.406 212.233 264.746 210.622 265.411 209.249L264.511 208.813C263.769 210.346 263.406 212.11 263.406 214.093L264.406 214.093ZM265.412 209.247C266.076 207.864 267.014 206.815 268.225 206.084L267.708 205.228C266.318 206.067 265.252 207.268 264.51 208.814L265.412 209.247ZM268.227 206.083C269.43 205.35 270.809 204.978 272.379 204.978L272.379 203.978C270.644 203.978 269.081 204.391 267.707 205.229L268.227 206.083ZM272.379 204.978C274.758 204.978 276.591 205.788 277.938 207.384L278.702 206.74C277.143 204.891 275.015 203.978 272.379 203.978L272.379 204.978ZM277.938 207.384C279.28 208.977 279.982 211.222 279.982 214.181L280.982 214.181C280.982 211.07 280.243 208.569 278.703 206.74L277.938 207.384ZM279.982 214.181L279.982 218.804L280.982 218.804L280.982 214.181L279.982 214.181ZM276.711 218.804L276.711 214.093L275.711 214.093L275.711 218.804L276.711 218.804ZM276.711 214.093C276.711 212.627 276.366 211.428 275.598 210.577L274.856 211.247C275.399 211.849 275.711 212.77 275.711 214.093L276.711 214.093ZM275.6 210.58C274.828 209.71 273.74 209.304 272.414 209.304L272.414 210.304C273.526 210.304 274.313 210.637 274.853 211.244L275.6 210.58ZM272.414 209.304C271.055 209.304 269.91 209.708 269.028 210.55L269.718 211.273C270.383 210.639 271.265 210.304 272.414 210.304L272.414 209.304ZM269.028 210.55C268.138 211.4 267.703 212.558 267.678 213.961L268.678 213.979C268.699 212.781 269.062 211.9 269.718 211.273L269.028 210.55ZM267.678 213.97L267.678 218.804L268.678 218.804L268.678 213.97L267.678 213.97ZM268.178 219.304L276.211 219.304L276.211 218.304L268.178 218.304L268.178 219.304ZM263.906 177.508L263.906 177.008L263.406 177.008L263.406 177.508L263.906 177.508ZM287.408 180.145L287.041 180.485L287.043 180.486L287.408 180.145ZM280.957 197.126L280.957 197.626L280.963 197.626L280.957 197.126ZM263.906 197.126L263.406 197.126L263.406 197.626L263.906 197.626L263.906 197.126ZM263.906 191.852L263.906 191.352L263.406 191.352L263.406 191.852L263.906 191.852ZM284.473 190.657L284.831 191.005L284.837 191L284.473 190.657ZM280.939 182.799L280.947 182.299L280.939 182.299L280.939 182.799ZM263.906 182.799L263.406 182.799L263.406 183.299L263.906 183.299L263.906 182.799ZM263.906 178.008L280.764 178.008L280.764 177.008L263.906 177.008L263.906 178.008ZM280.764 178.008C283.451 178.008 285.523 178.847 287.041 180.485L287.775 179.805C286.035 177.928 283.678 177.008 280.764 177.008L280.764 178.008ZM287.043 180.486C288.564 182.117 289.352 184.373 289.352 187.317L290.352 187.317C290.352 184.191 289.511 181.666 287.774 179.804L287.043 180.486ZM289.352 187.317C289.352 190.215 288.586 192.458 287.107 194.102L287.85 194.771C289.535 192.899 290.352 190.395 290.352 187.317L289.352 187.317ZM287.107 194.102C285.634 195.738 283.603 196.592 280.951 196.626L280.963 197.626C283.843 197.589 286.159 196.65 287.85 194.771L287.107 194.102ZM280.957 196.626L263.906 196.626L263.906 197.626L280.957 197.626L280.957 196.626ZM264.406 197.126L264.406 191.852L263.406 191.852L263.406 197.126L264.406 197.126ZM263.906 192.352L280.799 192.352L280.799 191.352L263.906 191.352L263.906 192.352ZM280.799 192.352C282.542 192.352 283.925 191.939 284.831 191.005L284.114 190.309C283.473 190.969 282.408 191.352 280.799 191.352L280.799 192.352ZM284.837 191C285.708 190.075 286.115 188.826 286.115 187.317L285.115 187.317C285.115 188.644 284.761 189.622 284.109 190.314L284.837 191ZM286.115 187.317C286.115 185.75 285.702 184.482 284.794 183.604C283.89 182.731 282.577 182.324 280.947 182.299L280.932 183.299C282.419 183.322 283.444 183.691 284.099 184.324C284.749 184.952 285.115 185.919 285.115 187.317L286.115 187.317ZM280.939 182.299L263.906 182.299L263.906 183.299L280.939 183.299L280.939 182.299ZM264.406 182.799L264.406 177.508L263.406 177.508L263.406 182.799L264.406 182.799ZM280.131 159.75L279.903 159.305L279.631 159.444L279.631 159.75L280.131 159.75ZM280.131 163.951L279.631 163.951L279.631 164.451L280.131 164.451L280.131 163.951ZM289.5 163.951L290 163.951L290 163.451L289.5 163.451L289.5 163.951ZM289.5 169.224L289.5 169.724L290 169.724L290 169.224L289.5 169.224ZM263.906 169.224L263.406 169.224L263.406 169.724L263.906 169.724L263.906 169.224ZM276.018 151.4L275.745 151.819L275.746 151.82L276.018 151.4ZM278.795 154.828L278.339 155.033L278.558 155.519L279.029 155.27L278.795 154.828ZM289.254 149.291L289.254 148.791L289.13 148.791L289.02 148.849L289.254 149.291ZM289.5 149.291L290 149.291L290 148.791L289.5 148.791L289.5 149.291ZM289.5 154.951L289.728 155.396L290 155.256L290 154.951L289.5 154.951ZM275.859 163.951L275.859 164.451L276.359 164.451L276.359 163.951L275.859 163.951ZM274.857 156.621L275.226 156.282L275.223 156.279L274.857 156.621ZM269.215 156.568L269.565 156.924L269.568 156.921L269.215 156.568ZM268.178 163.951L267.678 163.951L267.678 164.451L268.178 164.451L268.178 163.951ZM279.631 159.75L279.631 163.951L280.631 163.951L280.631 159.75L279.631 159.75ZM280.131 164.451L289.5 164.451L289.5 163.451L280.131 163.451L280.131 164.451ZM289 163.951L289 169.224L290 169.224L290 163.951L289 163.951ZM289.5 168.724L263.906 168.724L263.906 169.724L289.5 169.724L289.5 168.724ZM264.406 169.224L264.406 159.714L263.406 159.714L263.406 169.224L264.406 169.224ZM264.406 159.714C264.406 156.759 265.066 154.556 266.314 153.036L265.541 152.401C264.095 154.162 263.406 156.623 263.406 159.714L264.406 159.714ZM266.314 153.036C267.551 151.53 269.303 150.757 271.641 150.757L271.641 149.757C269.057 149.757 267 150.626 265.541 152.401L266.314 153.036ZM271.641 150.757C273.314 150.757 274.672 151.122 275.745 151.819L276.29 150.981C275.019 150.155 273.459 149.757 271.641 149.757L271.641 150.757ZM275.746 151.82C276.809 152.507 277.678 153.566 278.339 155.033L279.251 154.622C278.529 153.019 277.546 151.793 276.289 150.98L275.746 151.82ZM279.029 155.27L289.488 149.732L289.02 148.849L278.561 154.386L279.029 155.27ZM289.254 149.791L289.5 149.791L289.5 148.791L289.254 148.791L289.254 149.791ZM289 149.291L289 154.951L290 154.951L290 149.291L289 149.291ZM289.272 154.506L279.903 159.305L280.359 160.195L289.728 155.396L289.272 154.506ZM276.359 163.951L276.359 159.697L275.359 159.697L275.359 163.951L276.359 163.951ZM276.359 159.697C276.359 158.291 276.004 157.129 275.225 156.282L274.489 156.959C275.047 157.566 275.359 158.454 275.359 159.697L276.359 159.697ZM275.223 156.279C274.43 155.432 273.356 155.031 272.062 155.031L272.062 156.031C273.136 156.031 273.925 156.356 274.492 156.962L275.223 156.279ZM272.062 155.031C270.756 155.031 269.667 155.408 268.861 156.214L269.568 156.921C270.145 156.345 270.955 156.031 272.062 156.031L272.062 155.031ZM268.864 156.211C268.041 157.021 267.678 158.224 267.678 159.714L268.678 159.714C268.678 158.368 269.006 157.474 269.565 156.924L268.864 156.211ZM267.678 159.714L267.678 163.951L268.678 163.951L268.678 159.714L267.678 159.714ZM268.178 164.451L275.859 164.451L275.859 163.451L268.178 163.451L268.178 164.451ZM280.482 136.999L279.982 136.999L279.982 137.499L280.482 137.499L280.482 136.999ZM289.5 136.999L290 136.999L290 136.499L289.5 136.499L289.5 136.999ZM289.5 142.272L289.5 142.772L290 142.772L290 142.272L289.5 142.272ZM263.906 142.272L263.406 142.272L263.406 142.772L263.906 142.772L263.906 142.272ZM264.961 127.225L265.411 127.443L265.412 127.441L264.961 127.225ZM267.967 123.85L268.225 124.278L268.227 124.277L267.967 123.85ZM278.32 125.256L278.703 124.934L278.702 124.934L278.32 125.256ZM276.211 136.999L276.211 137.499L276.711 137.499L276.711 136.999L276.211 136.999ZM275.227 129.106L274.853 129.438L274.856 129.441L275.227 129.106ZM268.178 132.165L267.678 132.156L267.678 132.165L268.178 132.165ZM268.178 136.999L267.678 136.999L267.678 137.499L268.178 137.499L268.178 136.999ZM280.482 137.499L289.5 137.499L289.5 136.499L280.482 136.499L280.482 137.499ZM289 136.999L289 142.272L290 142.272L290 136.999L289 136.999ZM289.5 141.772L263.906 141.772L263.906 142.772L289.5 142.772L289.5 141.772ZM264.406 142.272L264.406 132.288L263.406 132.288L263.406 142.272L264.406 142.272ZM264.406 132.288C264.406 130.427 264.746 128.816 265.411 127.443L264.511 127.007C263.769 128.54 263.406 130.305 263.406 132.288L264.406 132.288ZM265.412 127.441C266.076 126.058 267.014 125.009 268.225 124.278L267.708 123.422C266.318 124.261 265.252 125.462 264.51 127.009L265.412 127.441ZM268.227 124.277C269.43 123.544 270.809 123.172 272.379 123.172L272.379 122.172C270.644 122.172 269.081 122.586 267.707 123.423L268.227 124.277ZM272.379 123.172C274.758 123.172 276.591 123.982 277.938 125.579L278.702 124.934C277.143 123.085 275.015 122.172 272.379 122.172L272.379 123.172ZM277.938 125.578C279.28 127.172 279.982 129.416 279.982 132.375L280.982 132.375C280.982 129.265 280.243 126.763 278.703 124.934L277.938 125.578ZM279.982 132.375L279.982 136.999L280.982 136.999L280.982 132.375L279.982 132.375ZM276.711 136.999L276.711 132.288L275.711 132.288L275.711 136.999L276.711 136.999ZM276.711 132.288C276.711 130.821 276.366 129.622 275.598 128.771L274.856 129.441C275.399 130.043 275.711 130.965 275.711 132.288L276.711 132.288ZM275.6 128.774C274.828 127.904 273.74 127.499 272.414 127.499L272.414 128.499C273.526 128.499 274.313 128.831 274.853 129.438L275.6 128.774ZM272.414 127.499C271.055 127.499 269.91 127.902 269.028 128.744L269.718 129.468C270.383 128.833 271.265 128.499 272.414 128.499L272.414 127.499ZM269.028 128.744C268.138 129.594 267.703 130.752 267.678 132.156L268.678 132.174C268.699 130.975 269.062 130.094 269.718 129.468L269.028 128.744ZM267.678 132.165L267.678 136.999L268.678 136.999L268.678 132.165L267.678 132.165ZM268.178 137.499L276.211 137.499L276.211 136.499L268.178 136.499L268.178 137.499ZM285.264 109.8L285.264 110.3L285.764 110.3L285.764 109.8L285.264 109.8ZM285.264 98.603L285.264 98.103L284.764 98.103L284.764 98.603L285.264 98.603ZM289.5 98.603L290 98.603L290 98.103L289.5 98.103L289.5 98.603ZM289.5 115.074L289.5 115.574L290 115.574L290 115.074L289.5 115.074ZM263.906 115.074L263.406 115.074L263.406 115.574L263.906 115.574L263.906 115.074ZM263.906 109.8L263.906 109.3L263.406 109.3L263.406 109.8L263.906 109.8ZM285.764 109.8L285.764 98.603L284.764 98.603L284.764 109.8L285.764 109.8ZM285.264 99.103L289.5 99.103L289.5 98.103L285.264 98.103L285.264 99.103ZM289 98.603L289 115.074L290 115.074L290 98.603L289 98.603ZM289.5 114.574L263.906 114.574L263.906 115.574L289.5 115.574L289.5 114.574ZM264.406 115.074L264.406 109.8L263.406 109.8L263.406 115.074L264.406 115.074ZM263.906 110.3L285.264 110.3L285.264 109.3L263.906 109.3L263.906 110.3ZM278.408 76.2035L278.908 76.2035L278.908 75.7035L278.408 75.7035L278.408 76.2035ZM278.408 86.3285L277.908 86.3285L277.908 86.8285L278.408 86.8285L278.408 86.3285ZM285.264 86.3285L285.264 86.8285L285.764 86.8285L285.764 86.3285L285.264 86.3285ZM285.264 74.4457L285.264 73.9457L284.764 73.9457L284.764 74.4457L285.264 74.4457ZM289.5 74.4457L290 74.4457L290 73.9457L289.5 73.9457L289.5 74.4457ZM289.5 91.602L289.5 92.102L290 92.102L290 91.602L289.5 91.602ZM263.906 91.602L263.406 91.602L263.406 92.102L263.906 92.102L263.906 91.602ZM263.906 74.4809L263.906 73.9809L263.406 73.9809L263.406 74.4809L263.906 74.4809ZM268.178 74.4809L268.678 74.4809L268.678 73.9809L268.178 73.9809L268.178 74.4809ZM268.178 86.3285L267.678 86.3285L267.678 86.8285L268.178 86.8285L268.178 86.3285ZM274.277 86.3285L274.277 86.8285L274.777 86.8285L274.777 86.3285L274.277 86.3285ZM274.277 76.2035L274.277 75.7035L273.777 75.7035L273.777 76.2035L274.277 76.2035ZM277.908 76.2035L277.908 86.3285L278.908 86.3285L278.908 76.2035L277.908 76.2035ZM278.408 86.8285L285.264 86.8285L285.264 85.8285L278.408 85.8285L278.408 86.8285ZM285.764 86.3285L285.764 74.4457L284.764 74.4457L284.764 86.3285L285.764 86.3285ZM285.264 74.9457L289.5 74.9457L289.5 73.9457L285.264 73.9457L285.264 74.9457ZM289 74.4457L289 91.602L290 91.602L290 74.4457L289 74.4457ZM289.5 91.102L263.906 91.102L263.906 92.102L289.5 92.102L289.5 91.102ZM264.406 91.602L264.406 74.4809L263.406 74.4809L263.406 91.602L264.406 91.602ZM263.906 74.9809L268.178 74.9809L268.178 73.9809L263.906 73.9809L263.906 74.9809ZM267.678 74.4809L267.678 86.3285L268.678 86.3285L268.678 74.4809L267.678 74.4809ZM268.178 86.8285L274.277 86.8285L274.277 85.8285L268.178 85.8285L268.178 86.8285ZM274.777 86.3285L274.777 76.2035L273.777 76.2035L273.777 86.3285L274.777 86.3285ZM274.277 76.7035L278.408 76.7035L278.408 75.7035L274.277 75.7035L274.277 76.7035Z" fill="#C902DA"/>
</g>
<path d="M60.8594 277.969C58.75 280.312 55.6641 282.201 51.6016 283.633C47.5391 285.065 43.0859 285.781 38.2422 285.781C30.7943 285.781 24.8438 283.503 20.3906 278.945C15.9375 274.388 13.5547 268.047 13.2422 259.922L13.2031 255C13.2031 249.401 14.1927 244.518 16.1719 240.352C18.151 236.159 20.9766 232.943 24.6484 230.703C28.3464 228.438 32.6172 227.305 37.4609 227.305C44.5443 227.305 50.0391 228.932 53.9453 232.188C57.8776 235.417 60.1693 240.247 60.8203 246.68H47.6172C47.1484 243.503 46.1328 241.237 44.5703 239.883C43.0078 238.529 40.7943 237.852 37.9297 237.852C34.4922 237.852 31.8359 239.31 29.9609 242.227C28.0859 245.143 27.1354 249.31 27.1094 254.727V258.164C27.1094 263.841 28.0729 268.112 30 270.977C31.9531 273.815 35.013 275.234 39.1797 275.234C42.7474 275.234 45.4036 274.44 47.1484 272.852V264.023H37.6172V254.609H60.8594V277.969ZM77.891 275.631H73.6898V285H68.4164V259.406H77.9262C80.9496 259.406 83.2816 260.08 84.9223 261.428C86.5629 262.775 87.3832 264.68 87.3832 267.141C87.3832 268.887 87.0023 270.346 86.2406 271.518C85.4906 272.678 84.348 273.604 82.8129 274.295L88.35 284.754V285H82.6898L77.891 275.631ZM73.6898 271.359H77.9437C79.268 271.359 80.2934 271.025 81.0199 270.357C81.7465 269.678 82.1098 268.746 82.1098 267.562C82.1098 266.355 81.7641 265.406 81.0727 264.715C80.393 264.023 79.3441 263.678 77.9262 263.678H73.6898V271.359ZM108.378 279.727H99.1317L97.3739 285H91.7665L101.294 259.406H106.181L115.761 285H110.153L108.378 279.727ZM100.556 275.455H106.954L103.737 265.875L100.556 275.455ZM125.945 275.982V285H120.671V259.406H130.656C132.577 259.406 134.265 259.758 135.718 260.461C137.183 261.164 138.308 262.166 139.093 263.467C139.878 264.756 140.271 266.227 140.271 267.879C140.271 270.387 139.41 272.367 137.687 273.82C135.976 275.262 133.603 275.982 130.568 275.982H125.945ZM125.945 271.711H130.656C132.05 271.711 133.111 271.383 133.837 270.727C134.576 270.07 134.945 269.133 134.945 267.914C134.945 266.66 134.576 265.646 133.837 264.873C133.099 264.1 132.079 263.701 130.779 263.678H125.945V271.711ZM161.828 273.908H151.703V280.764H163.586V285H146.43V259.406H163.551V263.678H151.703V269.777H161.828V273.908ZM182.471 278.285C182.471 277.289 182.119 276.527 181.416 276C180.713 275.461 179.448 274.898 177.619 274.312C175.791 273.715 174.344 273.129 173.278 272.555C170.371 270.984 168.918 268.869 168.918 266.209C168.918 264.826 169.305 263.596 170.078 262.518C170.864 261.428 171.983 260.578 173.436 259.969C174.901 259.359 176.541 259.055 178.358 259.055C180.186 259.055 181.815 259.389 183.244 260.057C184.674 260.713 185.782 261.645 186.567 262.852C187.364 264.059 187.762 265.43 187.762 266.965H182.489C182.489 265.793 182.119 264.885 181.381 264.24C180.643 263.584 179.606 263.256 178.27 263.256C176.981 263.256 175.979 263.531 175.264 264.082C174.549 264.621 174.192 265.336 174.192 266.227C174.192 267.059 174.608 267.756 175.44 268.318C176.284 268.881 177.52 269.408 179.149 269.9C182.149 270.803 184.334 271.922 185.705 273.258C187.076 274.594 187.762 276.258 187.762 278.25C187.762 280.465 186.924 282.205 185.248 283.471C183.573 284.725 181.317 285.352 178.481 285.352C176.512 285.352 174.719 284.994 173.102 284.279C171.485 283.553 170.248 282.562 169.393 281.309C168.549 280.055 168.127 278.602 168.127 276.949H173.418C173.418 279.773 175.106 281.186 178.481 281.186C179.735 281.186 180.713 280.934 181.416 280.43C182.119 279.914 182.471 279.199 182.471 278.285Z" fill="black"/>
<path d="M106.627 26.7881V32H105.546V19.2031H109.906C111.236 19.2031 112.285 19.543 113.052 20.2227C113.826 20.9023 114.212 21.8369 114.212 23.0264C114.212 24.2275 113.84 25.1562 113.096 25.8125C112.358 26.4629 111.286 26.7881 109.879 26.7881H106.627ZM106.627 25.874H109.906C110.955 25.874 111.754 25.625 112.305 25.127C112.856 24.6289 113.131 23.9346 113.131 23.0439C113.131 22.1592 112.856 21.4561 112.305 20.9346C111.76 20.4072 110.984 20.1377 109.976 20.126H106.627V25.874ZM123.399 26.6738H119.682V32H118.592V19.2031H122.749C124.114 19.2031 125.181 19.5342 125.948 20.1963C126.716 20.8584 127.1 21.7842 127.1 22.9736C127.1 23.7939 126.859 24.5176 126.379 25.1445C125.898 25.7715 125.254 26.2051 124.445 26.4453L127.644 31.8857V32H126.493L123.399 26.6738ZM119.682 25.751H122.995C123.903 25.751 124.633 25.4932 125.184 24.9775C125.734 24.4619 126.01 23.7939 126.01 22.9736C126.01 22.0713 125.723 21.3711 125.148 20.873C124.574 20.375 123.769 20.126 122.731 20.126H119.682V25.751ZM141.481 26.2959C141.481 27.4736 141.276 28.5078 140.866 29.3984C140.461 30.2891 139.881 30.9746 139.125 31.4551C138.37 31.9355 137.497 32.1758 136.506 32.1758C135.012 32.1758 133.805 31.6426 132.885 30.5762C131.965 29.5039 131.505 28.0596 131.505 26.2432V24.9248C131.505 23.7588 131.71 22.7275 132.121 21.8311C132.537 20.9287 133.123 20.2373 133.878 19.7568C134.634 19.2705 135.504 19.0273 136.489 19.0273C137.473 19.0273 138.34 19.2646 139.09 19.7393C139.846 20.2139 140.429 20.8848 140.839 21.752C141.249 22.6191 141.463 23.624 141.481 24.7666V26.2959ZM140.4 24.9072C140.4 23.3662 140.051 22.1592 139.354 21.2861C138.657 20.4131 137.702 19.9766 136.489 19.9766C135.299 19.9766 134.35 20.416 133.641 21.2949C132.938 22.168 132.586 23.3896 132.586 24.96V26.2959C132.586 27.8135 132.938 29.0176 133.641 29.9082C134.344 30.793 135.299 31.2354 136.506 31.2354C137.731 31.2354 138.686 30.7988 139.372 29.9258C140.057 29.0469 140.4 27.8252 140.4 26.2607V24.9072ZM146.186 32V19.2031H149.763C150.812 19.2031 151.752 19.4434 152.584 19.9238C153.416 20.3984 154.063 21.0811 154.526 21.9717C154.995 22.8623 155.229 23.876 155.229 25.0127V26.1904C155.229 27.333 154.998 28.3467 154.535 29.2314C154.072 30.1162 153.419 30.7988 152.575 31.2793C151.737 31.7598 150.773 32 149.684 32H146.186ZM147.267 20.126V31.0859H149.692C151.04 31.0859 152.121 30.6406 152.936 29.75C153.75 28.8535 154.157 27.6436 154.157 26.1201V24.9951C154.157 23.5244 153.756 22.3467 152.953 21.4619C152.15 20.5771 151.093 20.1318 149.78 20.126H147.267ZM168.776 19.2031V27.9395C168.77 28.8008 168.58 29.5508 168.205 30.1895C167.83 30.8281 167.299 31.3203 166.614 31.666C165.934 32.0059 165.152 32.1758 164.267 32.1758C162.919 32.1758 161.838 31.8096 161.024 31.0771C160.215 30.3389 159.796 29.3193 159.767 28.0186V19.2031H160.839V27.8604C160.839 28.9385 161.147 29.7764 161.762 30.374C162.377 30.9658 163.212 31.2617 164.267 31.2617C165.322 31.2617 166.154 30.9629 166.763 30.3652C167.378 29.7676 167.686 28.9355 167.686 27.8691V19.2031H168.776ZM182.832 28.0098C182.686 29.3574 182.202 30.3887 181.382 31.1035C180.567 31.8184 179.48 32.1758 178.121 32.1758C177.172 32.1758 176.331 31.9385 175.599 31.4639C174.872 30.9893 174.31 30.3184 173.911 29.4512C173.513 28.5781 173.311 27.582 173.305 26.4629V24.8018C173.305 23.665 173.504 22.6572 173.902 21.7783C174.301 20.8994 174.872 20.2227 175.616 19.748C176.366 19.2676 177.228 19.0273 178.2 19.0273C179.571 19.0273 180.652 19.3994 181.443 20.1436C182.24 20.8818 182.703 21.9043 182.832 23.2109H181.742C181.473 21.0371 180.292 19.9502 178.2 19.9502C177.04 19.9502 176.114 20.3838 175.423 21.251C174.737 22.1182 174.395 23.3164 174.395 24.8457V26.4102C174.395 27.8867 174.729 29.0645 175.397 29.9434C176.07 30.8223 176.979 31.2617 178.121 31.2617C179.252 31.2617 180.105 30.9922 180.679 30.4531C181.253 29.9082 181.607 29.0938 181.742 28.0098H182.832ZM194.506 25.8652H188.521V31.0859H195.403V32H187.44V19.2031H195.359V20.126H188.521V24.9512H194.506V25.8652Z" fill="black"/>
<path fill-rule="evenodd" clip-rule="evenodd" d="M159.826 102.941C171.228 108.041 176.341 121.447 171.254 132.882C166.167 144.317 152.805 149.451 141.403 144.35C130.002 139.248 124.88 125.843 129.967 114.408C135.054 102.973 148.425 97.8388 159.826 102.941Z" fill="#5E3060"/>
<path fill-rule="evenodd" clip-rule="evenodd" d="M160.502 102.175L160.315 102.583C168.626 106.298 173.555 114.477 173.555 123.045C173.555 126.093 172.932 129.19 171.615 132.155C167.905 140.486 159.755 145.429 151.204 145.43C148.17 145.43 145.083 144.805 142.12 143.482C133.819 139.765 128.89 131.587 128.89 123.019C128.89 119.971 129.513 116.874 130.829 113.909C134.531 105.578 142.69 100.634 151.231 100.634C154.274 100.634 157.361 101.26 160.315 102.583L160.502 102.175L160.68 101.767C157.611 100.393 154.399 99.7419 151.231 99.7419C142.352 99.7411 133.872 104.884 130.02 113.545C128.641 116.626 128 119.849 128 123.019C127.991 131.928 133.125 140.432 141.764 144.296C144.834 145.671 148.046 146.323 151.204 146.323C160.093 146.323 168.572 141.181 172.425 132.519C173.795 129.438 174.444 126.215 174.444 123.045C174.444 114.136 169.32 105.632 160.68 101.767L160.502 102.175Z" fill="#43214B"/>
<path fill-rule="evenodd" clip-rule="evenodd" d="M137.71 133.556C137.662 133.68 137.581 133.794 137.477 133.884C137.139 134.175 136.649 134.107 136.392 133.732C132.622 128.354 131.834 121.162 134.326 114.961C134.503 114.527 134.961 114.333 135.355 114.526C135.74 114.72 135.917 115.229 135.74 115.663C133.482 121.282 134.197 127.801 137.613 132.676C137.798 132.935 137.822 133.275 137.71 133.556Z" fill="#FFFFFE"/>
<path fill-rule="evenodd" clip-rule="evenodd" d="M174.495 149.326C162.378 146.307 154.994 134.009 158.006 121.856C161.018 109.705 173.276 102.3 185.394 105.32C197.511 108.337 204.895 120.636 201.883 132.788C198.871 144.941 186.613 152.345 174.495 149.326Z" fill="#5E3060"/>
<path fill-rule="evenodd" clip-rule="evenodd" d="M175.066 148.875L175.173 148.442C165.012 145.912 158.223 136.771 158.223 126.726C158.223 124.939 158.437 123.124 158.882 121.311C161.408 111.121 170.519 104.312 180.538 104.312C182.317 104.312 184.132 104.527 185.939 104.977C196.099 107.507 202.888 116.646 202.888 126.691C202.888 128.479 202.675 130.294 202.23 132.107C199.703 142.298 190.592 149.108 180.573 149.108C178.794 149.108 176.979 148.893 175.173 148.442L174.959 149.308C176.836 149.776 178.723 150 180.573 150C190.992 150 200.468 142.919 203.093 132.322C203.555 130.439 203.778 128.55 203.778 126.691C203.778 116.243 196.722 106.744 186.152 104.111C184.275 103.643 182.388 103.419 180.538 103.419C170.119 103.418 160.643 110.5 158.018 121.096C157.556 122.98 157.333 124.868 157.333 126.726C157.333 137.175 164.389 146.675 174.959 149.308L175.066 148.875Z" fill="#43214B"/>
<path fill-rule="evenodd" clip-rule="evenodd" d="M191.583 113.858C191.61 113.73 191.679 113.607 191.775 113.501C192.079 113.159 192.609 113.132 192.957 113.441C197.884 117.867 199.952 124.587 198.362 130.979C198.249 131.427 197.797 131.699 197.345 131.588C196.893 131.477 196.624 131.024 196.728 130.576C198.179 124.784 196.302 118.693 191.835 114.681C191.592 114.466 191.505 114.148 191.583 113.858Z" fill="#FFFFFE"/>
<path fill-rule="evenodd" clip-rule="evenodd" d="M142.667 127.323C142.667 139.847 132.543 150 120.06 150C107.568 150 97.4445 139.847 97.4445 127.323C97.4445 114.798 107.568 104.645 120.06 104.645C132.543 104.645 142.667 114.798 142.667 127.323Z" fill="#5E3060"/>
<path fill-rule="evenodd" clip-rule="evenodd" d="M142.222 126.71H141.777C141.777 132.896 139.276 138.492 135.236 142.548C131.196 146.601 125.616 149.108 119.449 149.108C113.273 149.108 107.693 146.601 103.653 142.548C99.6127 138.492 97.1121 132.896 97.1121 126.71C97.1121 120.524 99.6127 114.927 103.653 110.871C107.693 106.818 113.273 104.312 119.449 104.312C125.616 104.312 131.196 106.818 135.236 110.871C139.276 114.927 141.777 120.524 141.777 126.71H142.667C142.667 113.847 132.272 103.419 119.449 103.419C106.616 103.419 96.2222 113.846 96.2222 126.71C96.2222 139.573 106.616 150 119.449 150C132.272 150 142.667 139.573 142.667 126.71H142.222Z" fill="#43214B"/>
<path fill-rule="evenodd" clip-rule="evenodd" d="M104.412 120.581C104.279 120.581 104.137 120.548 104.013 120.479C103.586 120.254 103.435 119.731 103.657 119.31C106.855 113.288 113.046 109.548 119.814 109.548C120.285 109.548 120.667 109.934 120.667 110.411C120.667 110.888 120.285 111.274 119.814 111.274C113.676 111.274 108.072 114.666 105.167 120.124C105.016 120.414 104.723 120.581 104.412 120.581Z" fill="#FFFFFE"/>
<path fill-rule="evenodd" clip-rule="evenodd" d="M147.725 163.482C156.16 172.715 155.542 187.06 146.329 195.523C137.125 203.986 122.823 203.362 114.387 194.13C105.952 184.897 106.57 170.552 115.774 162.09C124.979 153.627 139.28 154.251 147.725 163.482Z" fill="#5E3060"/>
<path fill-rule="evenodd" clip-rule="evenodd" d="M147.234 162.757L146.905 163.058C150.837 167.36 152.768 172.779 152.777 178.187C152.768 184.249 150.339 190.285 145.534 194.704C141.246 198.646 135.836 200.591 130.453 200.591C124.403 200.591 118.388 198.148 113.984 193.328C110.052 189.027 108.112 183.607 108.112 178.2C108.112 172.138 110.55 166.101 115.354 161.683C119.643 157.741 125.044 155.797 130.435 155.796C136.477 155.797 142.5 158.239 146.905 163.058L147.234 162.757L147.563 162.456C142.981 157.446 136.717 154.902 130.435 154.903C124.83 154.903 119.207 156.927 114.749 161.025C109.758 165.617 107.222 171.9 107.222 178.2C107.222 183.82 109.242 189.462 113.326 193.931C117.908 198.941 124.172 201.484 130.453 201.484C136.05 201.484 141.673 199.46 146.131 195.362C151.131 190.77 153.667 184.486 153.667 178.187C153.667 172.567 151.647 166.925 147.563 162.456L147.234 162.757Z" fill="#43214B"/>
<path fill-rule="evenodd" clip-rule="evenodd" d="M114.095 184.09C113.989 184.184 113.865 184.257 113.732 184.295C113.273 184.416 112.804 184.13 112.689 183.654C111.01 176.848 113.052 169.678 118.01 164.943C118.364 164.612 118.903 164.636 119.221 164.997C119.54 165.36 119.513 165.922 119.168 166.253C114.669 170.543 112.822 177.043 114.342 183.213C114.422 183.541 114.316 183.874 114.095 184.09Z" fill="#FFFFFE"/>
<path fill-rule="evenodd" clip-rule="evenodd" d="M152.28 159.805C143.835 169.038 144.462 183.383 153.667 191.845C162.871 200.309 177.173 199.685 185.609 190.453C194.054 181.22 193.427 166.875 184.222 158.413C175.018 149.949 160.716 150.573 152.28 159.805Z" fill="#5E3060"/>
<path fill-rule="evenodd" clip-rule="evenodd" d="M152.767 160.305L152.438 160.004C148.345 164.474 146.333 170.115 146.333 175.736C146.333 182.035 148.87 188.317 153.862 192.91C158.32 197.007 163.945 199.032 169.551 199.032C175.825 199.032 182.09 196.49 186.673 191.479C190.758 187.01 192.778 181.369 192.778 175.748C192.778 169.448 190.242 163.166 185.249 158.574C180.791 154.476 175.166 152.451 169.56 152.452C163.277 152.451 157.012 154.994 152.438 160.004L152.767 160.305L153.088 160.607C157.493 155.788 163.518 153.344 169.56 153.344C174.953 153.344 180.355 155.289 184.644 159.232C189.45 163.649 191.888 169.687 191.888 175.748C191.888 181.156 189.948 186.575 186.014 190.876C181.609 195.696 175.594 198.139 169.551 198.14C164.158 198.139 158.748 196.194 154.467 192.252C149.653 187.834 147.223 181.796 147.223 175.736C147.223 170.327 149.163 164.908 153.088 160.607L152.767 160.305Z" fill="#43214B"/>
<path fill-rule="evenodd" clip-rule="evenodd" d="M185.905 181.638C186.011 181.733 186.135 181.805 186.277 181.843C186.727 181.965 187.196 181.679 187.311 181.203C188.99 174.397 186.948 167.226 181.99 162.492C181.636 162.16 181.097 162.185 180.779 162.546C180.46 162.908 180.487 163.47 180.832 163.802C185.331 168.092 187.178 174.591 185.658 180.762C185.578 181.09 185.684 181.423 185.905 181.638Z" fill="#FFFFFE"/>
<path fill-rule="evenodd" clip-rule="evenodd" d="M141.444 142.032C141.444 154.556 131.32 164.71 118.829 164.71C106.346 164.71 96.2222 154.556 96.2222 142.032C96.2222 129.508 106.346 119.355 118.829 119.355C131.32 119.355 141.444 129.508 141.444 142.032Z" fill="#5E3060"/>
<path fill-rule="evenodd" clip-rule="evenodd" d="M140.999 141.419H140.555C140.555 147.605 138.054 153.202 134.014 157.257C129.965 161.31 124.385 163.816 118.218 163.817C112.051 163.816 106.471 161.31 102.431 157.257C98.3817 153.202 95.8899 147.605 95.8899 141.419C95.8899 135.233 98.3817 129.636 102.431 125.582C106.471 121.527 112.051 119.021 118.218 119.021C124.385 119.021 129.965 121.527 134.014 125.582C138.054 129.636 140.555 135.233 140.555 141.419H141.444C141.444 128.556 131.041 118.129 118.218 118.129C105.394 118.129 95 128.556 95 141.419C95 154.282 105.394 164.709 118.218 164.71C131.041 164.709 141.444 154.282 141.444 141.419H140.999Z" fill="#43214B"/>
<path fill-rule="evenodd" clip-rule="evenodd" d="M101.972 135.29C101.83 135.29 101.697 135.257 101.563 135.188C101.146 134.964 100.986 134.44 101.217 134.02C104.414 127.999 110.594 124.258 117.361 124.258C117.84 124.258 118.222 124.644 118.222 125.12C118.222 125.598 117.84 125.985 117.361 125.985C111.234 125.985 105.622 129.375 102.727 134.834C102.567 135.125 102.274 135.29 101.972 135.29Z" fill="#FFFFFE"/>
<path fill-rule="evenodd" clip-rule="evenodd" d="M205 142.032C205 154.556 194.878 164.71 182.389 164.71C169.9 164.71 159.778 154.556 159.778 142.032C159.778 129.508 169.9 119.355 182.389 119.355C194.878 119.355 205 129.508 205 142.032Z" fill="#5E3060"/>
<path fill-rule="evenodd" clip-rule="evenodd" d="M204.555 141.419H204.11C204.11 147.605 201.61 153.202 197.571 157.257C193.522 161.31 187.944 163.816 181.778 163.817C175.612 163.816 170.033 161.31 165.985 157.257C161.945 153.202 159.445 147.605 159.445 141.419C159.445 135.233 161.945 129.636 165.985 125.582C170.033 121.527 175.612 119.021 181.778 119.021C187.944 119.021 193.522 121.527 197.571 125.582C201.61 129.636 204.11 135.233 204.11 141.419H205C205 128.556 194.599 118.129 181.778 118.129C168.957 118.129 158.556 128.556 158.556 141.419C158.556 154.282 168.957 164.709 181.778 164.71C194.599 164.709 205 154.282 205 141.419H204.555Z" fill="#43214B"/>
<path fill-rule="evenodd" clip-rule="evenodd" d="M166.744 135.29C166.61 135.29 166.468 135.257 166.344 135.188C165.927 134.964 165.767 134.44 165.989 134.02C169.185 127.999 175.373 124.258 182.139 124.258C182.609 124.258 183 124.644 183 125.12C183 125.598 182.609 125.985 182.139 125.985C176.013 125.985 170.402 129.375 167.507 134.834C167.347 135.125 167.054 135.29 166.744 135.29Z" fill="#FFFFFE"/>
<path fill-rule="evenodd" clip-rule="evenodd" d="M165.318 190.882C173.073 199.116 172.496 211.91 164.038 219.458C155.579 227.006 142.441 226.45 134.686 218.215C126.931 209.981 127.499 197.187 135.957 189.639C144.416 182.091 157.563 182.647 165.318 190.882Z" fill="#5E3060"/>
<path fill-rule="evenodd" clip-rule="evenodd" d="M164.996 191.38L164.67 191.679C168.174 195.51 169.895 200.338 169.895 205.156C169.895 210.555 167.724 215.933 163.443 219.87C159.63 223.381 154.81 225.114 150.009 225.115C144.625 225.114 139.258 222.938 135.339 218.645C131.835 214.812 130.105 209.984 130.105 205.167C130.105 199.767 132.276 194.389 136.557 190.453C140.379 186.941 145.189 185.209 150 185.208C155.384 185.209 160.742 187.385 164.67 191.679L165.323 191.08C161.219 186.598 155.614 184.322 150 184.323C144.986 184.323 139.946 186.134 135.966 189.8C131.491 193.909 129.222 199.531 129.222 205.167C129.222 210.196 131.032 215.244 134.686 219.242C138.781 223.725 144.386 226 150.009 226C155.022 226 160.053 224.189 164.043 220.522C168.509 216.414 170.778 210.792 170.778 205.156C170.778 200.127 168.977 195.079 165.323 191.08L164.996 191.38Z" fill="#43214B"/>
<path fill-rule="evenodd" clip-rule="evenodd" d="M135.764 208.635C135.674 208.719 135.576 208.781 135.453 208.814C135.077 208.921 134.692 208.67 134.594 208.254C133.194 202.298 134.888 196.025 139.03 191.882C139.317 191.592 139.767 191.613 140.037 191.93C140.299 192.246 140.283 192.738 139.988 193.028C136.239 196.782 134.7 202.468 135.969 207.868C136.034 208.155 135.953 208.448 135.764 208.635Z" fill="#FFFFFE"/>
<path fill-rule="evenodd" clip-rule="evenodd" d="M167.276 154.902C175.72 164.134 175.093 178.48 165.889 186.942C156.684 195.406 142.383 194.782 133.947 185.549C125.502 176.317 126.129 161.972 135.334 153.509C144.538 145.046 158.84 145.67 167.276 154.902Z" fill="#5E3060"/>
<path fill-rule="evenodd" clip-rule="evenodd" d="M166.788 154.176L166.468 154.478C170.392 158.779 172.332 164.198 172.332 169.607C172.332 175.668 169.894 181.705 165.088 186.123C160.808 190.065 155.397 192.01 150.005 192.011C143.962 192.01 137.946 189.567 133.541 184.747C129.608 180.446 127.668 175.027 127.668 169.619C127.668 163.558 130.106 157.52 134.912 153.103C139.201 149.16 144.603 147.215 149.996 147.215C156.038 147.215 162.054 149.659 166.468 154.478L166.788 154.176L167.117 153.875C162.543 148.865 156.278 146.322 149.996 146.323C144.389 146.322 138.765 148.347 134.306 152.445C129.314 157.036 126.778 163.319 126.778 169.619C126.778 175.24 128.798 180.881 132.883 185.35C137.457 190.361 143.722 192.903 150.005 192.903C155.611 192.903 161.235 190.878 165.694 186.781C170.686 182.188 173.222 175.906 173.222 169.607C173.222 163.986 171.202 158.345 167.117 153.875L166.788 154.176Z" fill="#43214B"/>
<path fill-rule="evenodd" clip-rule="evenodd" d="M133.65 175.509C133.544 175.604 133.42 175.676 133.279 175.714C132.828 175.836 132.36 175.549 132.245 175.074C130.565 168.266 132.607 161.097 137.566 156.362C137.92 156.031 138.459 156.055 138.777 156.417C139.095 156.779 139.069 157.34 138.724 157.672C134.225 161.963 132.377 168.461 133.898 174.633C133.977 174.961 133.871 175.294 133.65 175.509Z" fill="#FFFFFE"/>
<path fill-rule="evenodd" clip-rule="evenodd" d="M163.427 90.448V90.4339L163.409 90.4489C159.516 90.5467 156.412 91.4084 153.929 92.7246C154.115 87.138 152.439 80.8139 147.393 74.0361L147.402 74.0044L147.375 74.0176L147.366 74L147.357 74.0317C142.435 77.6669 139.269 81.5839 137.336 85.516C133.682 81.6077 128.317 78.3876 120.486 76.8704L120.468 76.844V76.866L120.442 76.8616L120.459 76.888C118.934 84.7698 119.981 90.9696 122.322 95.8268C118.358 96.6717 114.127 98.5166 109.702 101.768L109.667 101.763L109.684 101.782L109.667 101.795L109.693 101.799C114.757 108.567 120.362 111.998 125.798 113.447C123.803 115.422 122.073 118.125 120.85 121.798L120.832 121.807L120.841 121.811V121.825L120.859 121.816C132.698 125.691 139.615 119.499 143.056 114.528C143.899 113.728 144.945 112.669 146.045 111.373C147.614 110.701 148.936 110.018 149.956 109.448C155.747 107.618 163.719 102.849 163.427 90.463L163.444 90.448H163.427Z" fill="#526631"/>
<path fill-rule="evenodd" clip-rule="evenodd" d="M149.2 126.71C149.025 126.71 148.85 126.698 148.674 126.676C146.428 126.384 144.849 124.337 145.147 122.103C147.481 104.236 159.395 89.193 176.248 82.8451C178.363 82.0486 180.714 83.112 181.512 85.2195C182.31 87.327 181.249 89.6805 179.135 90.476C165.115 95.7588 155.201 108.281 153.254 123.158C152.982 125.213 151.227 126.71 149.2 126.71Z" fill="#3F4E3F"/>
<path fill-rule="evenodd" clip-rule="evenodd" d="M173.222 132.225C173.222 144.75 163.098 154.903 150.616 154.903C138.124 154.903 128 144.75 128 132.225C128 119.701 138.124 109.548 150.616 109.548C163.098 109.548 173.222 119.701 173.222 132.225Z" fill="#5E3060"/>
<path fill-rule="evenodd" clip-rule="evenodd" d="M172.777 132.838H172.332C172.332 139.025 169.832 144.622 165.792 148.676C161.751 152.731 156.172 155.237 150.005 155.237C143.829 155.237 138.249 152.731 134.209 148.676C130.168 144.622 127.668 139.025 127.668 132.838C127.668 126.652 130.168 121.055 134.209 117.001C138.249 112.947 143.829 110.441 150.005 110.441C156.172 110.441 161.751 112.947 165.792 117.001C169.832 121.055 172.332 126.652 172.332 132.838H173.222C173.222 119.975 162.828 109.548 150.005 109.548C137.172 109.548 126.778 119.975 126.778 132.838C126.778 145.701 137.172 156.129 150.005 156.129C162.828 156.129 173.222 145.701 173.222 132.838H172.777Z" fill="#43214B"/>
<path fill-rule="evenodd" clip-rule="evenodd" d="M134.968 124.258C134.835 124.258 134.693 124.225 134.568 124.155C134.142 123.931 133.991 123.407 134.213 122.987C137.411 116.966 143.601 113.226 150.37 113.226C150.84 113.226 151.222 113.612 151.222 114.089C151.222 114.565 150.84 114.952 150.37 114.952C144.232 114.952 138.627 118.342 135.723 123.801C135.572 124.092 135.279 124.258 134.968 124.258Z" fill="#FFFFFE"/>
<defs>
<filter id="filter0_d" x="262.406" y="72.9457" width="30.9453" height="154.632" filterUnits="userSpaceOnUse" color-interpolation-filters="sRGB">
<feFlood flood-opacity="0" result="BackgroundImageFix"/>
<feColorMatrix in="SourceAlpha" type="matrix" values="0 0 0 0 0 0 0 0 0 0 0 0 0 0 0 0 0 0 127 0"/>
<feOffset dx="1" dy="1"/>
<feGaussianBlur stdDeviation="1"/>
<feColorMatrix type="matrix" values="0 0 0 0 0 0 0 0 0 0 0 0 0 0 0 0 0 0 0.15 0"/>
<feBlend mode="normal" in2="BackgroundImageFix" result="effect1_dropShadow"/>
<feBlend mode="normal" in="SourceGraphic" in2="effect1_dropShadow" result="shape"/>
</filter>
<radialGradient id="paint0_radial" cx="0" cy="0" r="1" gradientUnits="userSpaceOnUse" gradientTransform="translate(150 150) rotate(90) scale(150)">
<stop offset="0.296875" stop-color="white" stop-opacity="0"/>
<stop offset="0.947917" stop-color="#9E00FF" stop-opacity="0.83"/>
</radialGradient>
</defs>
</svg>
