<svg width="300" height="300" viewBox="0 0 300 300" fill="none" xmlns="http://www.w3.org/2000/svg">
<rect width="300" height="300" fill="white"/>
<rect width="300" height="300" fill="white"/>
<rect width="300" height="300" fill="white"/>
<rect width="300" height="300" fill="url(#paint0_radial)" fill-opacity="0.2"/>
<g filter="url(#filter0_d)">
<path d="M289.5 219.514L263.906 219.514L263.906 210.549C263.906 207.443 264.504 205.088 265.699 203.482C266.883 201.877 268.623 201.074 270.92 201.074C272.174 201.074 273.281 201.397 274.242 202.041C275.191 202.686 275.889 203.582 276.334 204.731C276.662 203.418 277.324 202.387 278.32 201.637C279.316 200.875 280.535 200.494 281.977 200.494C284.437 200.494 286.301 201.279 287.566 202.85C288.832 204.42 289.477 206.658 289.5 209.565L289.5 219.514ZM278.355 214.24L285.264 214.24L285.264 209.723C285.264 208.481 284.971 207.514 284.385 206.822C283.787 206.119 282.967 205.768 281.924 205.768C279.58 205.768 278.391 206.981 278.355 209.406L278.355 214.24ZM274.629 214.24L274.629 210.338C274.582 207.678 273.521 206.348 271.447 206.348C270.287 206.348 269.455 206.688 268.951 207.367C268.436 208.035 268.178 209.096 268.178 210.549L268.178 214.24L274.629 214.24ZM280.131 183.087L280.131 187.288L289.5 187.288L289.5 192.562L263.906 192.562L263.906 183.052C263.906 180.028 264.58 177.696 265.928 176.056C267.275 174.415 269.18 173.595 271.641 173.595C273.387 173.595 274.846 173.976 276.018 174.737C277.178 175.487 278.104 176.63 278.795 178.165L289.254 172.628L289.5 172.628L289.5 178.288L280.131 183.087ZM275.859 187.288L275.859 183.034C275.859 181.71 275.525 180.685 274.857 179.958C274.178 179.231 273.246 178.868 272.062 178.868C270.855 178.868 269.906 179.214 269.215 179.905C268.523 180.585 268.178 181.634 268.178 183.052L268.178 187.288L275.859 187.288ZM277.283 144.586C279.803 144.586 282.012 145.031 283.91 145.922C285.809 146.812 287.273 148.09 288.305 149.754C289.336 151.406 289.852 153.305 289.852 155.449C289.852 157.57 289.342 159.463 288.322 161.127C287.303 162.791 285.85 164.08 283.963 164.994C282.064 165.908 279.885 166.371 277.424 166.383L276.158 166.383C273.639 166.383 271.424 165.932 269.514 165.029C267.592 164.115 266.121 162.832 265.102 161.18C264.07 159.516 263.555 157.617 263.555 155.484C263.555 153.352 264.07 151.459 265.102 149.807C266.121 148.143 267.592 146.859 269.514 145.957C271.424 145.043 273.633 144.586 276.141 144.586L277.283 144.586ZM276.123 149.93C273.439 149.93 271.4 150.41 270.006 151.371C268.611 152.332 267.914 153.703 267.914 155.484C267.914 157.254 268.605 158.619 269.988 159.58C271.359 160.541 273.375 161.027 276.035 161.039L277.283 161.039C279.896 161.039 281.924 160.559 283.365 159.598C284.807 158.637 285.527 157.254 285.527 155.449C285.527 153.68 284.836 152.32 283.453 151.371C282.059 150.422 280.031 149.941 277.371 149.93L276.123 149.93ZM282.117 116.86L263.906 113.415L263.906 108.159L289.5 113.837L289.5 119.145L272.379 123.311L289.5 127.478L289.5 132.786L263.906 138.464L263.906 133.208L282.082 129.745L263.906 125.526L263.906 121.061L282.117 116.86ZM289.5 80.5214L289.5 85.7948L272.66 96.0605L289.5 96.0605L289.5 101.334L263.906 101.334L263.906 96.0605L280.781 85.7773L263.906 85.7773L263.906 80.5214L289.5 80.5214Z" fill="white"/>
<path d="M289.5 219.514L289.5 220.014L290 220.014L290 219.514L289.5 219.514ZM263.906 219.514L263.406 219.514L263.406 220.014L263.906 220.014L263.906 219.514ZM265.699 203.482L266.1 203.781L266.102 203.779L265.699 203.482ZM274.242 202.041L274.523 201.627L274.521 201.626L274.242 202.041ZM276.334 204.731L275.868 204.911L276.437 206.38L276.819 204.852L276.334 204.731ZM278.32 201.637L278.621 202.036L278.624 202.034L278.32 201.637ZM289.5 209.565L290 209.565L290 209.56L289.5 209.565ZM278.355 214.24L277.855 214.24L277.855 214.74L278.355 214.74L278.355 214.24ZM285.264 214.24L285.264 214.74L285.764 214.74L285.764 214.24L285.264 214.24ZM284.385 206.822L284.766 206.499L284.766 206.499L284.385 206.822ZM278.355 209.406L277.855 209.399L277.855 209.406L278.355 209.406ZM274.629 214.24L274.629 214.74L275.129 214.74L275.129 214.24L274.629 214.24ZM274.629 210.338L275.129 210.338L275.129 210.329L274.629 210.338ZM268.951 207.367L269.347 207.673L269.353 207.665L268.951 207.367ZM268.178 214.24L267.678 214.24L267.678 214.74L268.178 214.74L268.178 214.24ZM289.5 219.014L263.906 219.014L263.906 220.014L289.5 220.014L289.5 219.014ZM264.406 219.514L264.406 210.549L263.406 210.549L263.406 219.514L264.406 219.514ZM264.406 210.549C264.406 207.495 264.996 205.264 266.1 203.781L265.298 203.184C264.012 204.912 263.406 207.391 263.406 210.549L264.406 210.549ZM266.102 203.779C267.176 202.322 268.754 201.574 270.92 201.574L270.92 200.574C268.492 200.574 266.59 201.432 265.297 203.186L266.102 203.779ZM270.92 201.574C272.083 201.574 273.092 201.872 273.964 202.456L274.521 201.626C273.47 200.921 272.264 200.574 270.92 200.574L270.92 201.574ZM273.961 202.455C274.82 203.038 275.456 203.85 275.868 204.911L276.8 204.55C276.321 203.314 275.563 202.333 274.523 201.627L273.961 202.455ZM276.819 204.852C277.122 203.64 277.724 202.711 278.621 202.036L278.02 201.237C276.924 202.062 276.202 203.196 275.849 204.609L276.819 204.852ZM278.624 202.034C279.52 201.349 280.628 200.994 281.977 200.994L281.977 199.994C280.443 199.994 279.113 200.401 278.017 201.24L278.624 202.034ZM281.977 200.994C284.323 200.994 286.027 201.737 287.177 203.163L287.956 202.536C286.574 200.822 284.552 199.994 281.977 199.994L281.977 200.994ZM287.177 203.163C288.347 204.615 288.977 206.727 289 209.569L290 209.56C289.976 206.59 289.317 204.225 287.956 202.536L287.177 203.163ZM289 209.565L289 219.514L290 219.514L290 209.565L289 209.565ZM278.355 214.74L285.264 214.74L285.264 213.74L278.355 213.74L278.355 214.74ZM285.764 214.24L285.764 209.723L284.764 209.723L284.764 214.24L285.764 214.24ZM285.764 209.723C285.764 208.406 285.453 207.309 284.766 206.499L284.003 207.146C284.488 207.718 284.764 208.555 284.764 209.723L285.764 209.723ZM284.766 206.499C284.06 205.668 283.092 205.268 281.924 205.268L281.924 206.268C282.841 206.268 283.514 206.57 284.004 207.146L284.766 206.499ZM281.924 205.268C280.67 205.268 279.637 205.593 278.917 206.327C278.2 207.058 277.874 208.113 277.856 209.399L278.855 209.414C278.872 208.274 279.158 207.509 279.631 207.027C280.1 206.549 280.834 206.268 281.924 206.268L281.924 205.268ZM277.855 209.406L277.855 214.24L278.855 214.24L278.855 209.406L277.855 209.406ZM275.129 214.24L275.129 210.338L274.129 210.338L274.129 214.24L275.129 214.24ZM275.129 210.329C275.104 208.947 274.817 207.821 274.189 207.034C273.543 206.223 272.6 205.848 271.447 205.848L271.447 206.848C272.369 206.848 272.993 207.137 273.407 207.657C273.84 208.199 274.106 209.069 274.129 210.347L275.129 210.329ZM271.447 205.848C270.192 205.848 269.18 206.219 268.55 207.069L269.353 207.665C269.73 207.156 270.382 206.848 271.447 206.848L271.447 205.848ZM268.555 207.062C267.939 207.861 267.678 209.057 267.678 210.549L268.678 210.549C268.678 209.134 268.933 208.21 269.347 207.673L268.555 207.062ZM267.678 210.549L267.678 214.24L268.678 214.24L268.678 210.549L267.678 210.549ZM268.178 214.74L274.629 214.74L274.629 213.74L268.178 213.74L268.178 214.74ZM280.131 183.087L279.903 182.642L279.631 182.781L279.631 183.087L280.131 183.087ZM280.131 187.288L279.631 187.288L279.631 187.788L280.131 187.788L280.131 187.288ZM289.5 187.288L290 187.288L290 186.788L289.5 186.788L289.5 187.288ZM289.5 192.562L289.5 193.062L290 193.062L290 192.562L289.5 192.562ZM263.906 192.562L263.406 192.562L263.406 193.062L263.906 193.062L263.906 192.562ZM276.018 174.737L275.745 175.157L275.746 175.157L276.018 174.737ZM278.795 178.165L278.339 178.37L278.558 178.856L279.029 178.607L278.795 178.165ZM289.254 172.628L289.254 172.128L289.13 172.128L289.02 172.186L289.254 172.628ZM289.5 172.628L290 172.628L290 172.128L289.5 172.128L289.5 172.628ZM289.5 178.288L289.728 178.733L290 178.594L290 178.288L289.5 178.288ZM275.859 187.288L275.859 187.788L276.359 187.788L276.359 187.288L275.859 187.288ZM274.857 179.958L275.226 179.62L275.223 179.616L274.857 179.958ZM269.215 179.905L269.565 180.262L269.568 180.259L269.215 179.905ZM268.178 187.288L267.678 187.288L267.678 187.788L268.178 187.788L268.178 187.288ZM279.631 183.087L279.631 187.288L280.631 187.288L280.631 183.087L279.631 183.087ZM280.131 187.788L289.5 187.788L289.5 186.788L280.131 186.788L280.131 187.788ZM289 187.288L289 192.562L290 192.562L290 187.288L289 187.288ZM289.5 192.062L263.906 192.062L263.906 193.062L289.5 193.062L289.5 192.062ZM264.406 192.562L264.406 183.052L263.406 183.052L263.406 192.562L264.406 192.562ZM264.406 183.052C264.406 180.096 265.066 177.893 266.314 176.373L265.541 175.738C264.095 177.5 263.406 179.961 263.406 183.052L264.406 183.052ZM266.314 176.373C267.551 174.867 269.303 174.095 271.641 174.095L271.641 173.095C269.057 173.095 267 173.963 265.541 175.738L266.314 176.373ZM271.641 174.095C273.314 174.095 274.672 174.459 275.745 175.157L276.29 174.318C275.019 173.492 273.459 173.095 271.641 173.095L271.641 174.095ZM275.746 175.157C276.809 175.845 277.678 176.904 278.339 178.37L279.251 177.96C278.529 176.356 277.546 175.13 276.289 174.317L275.746 175.157ZM279.029 178.607L289.488 173.07L289.02 172.186L278.561 177.723L279.029 178.607ZM289.254 173.128L289.5 173.128L289.5 172.128L289.254 172.128L289.254 173.128ZM289 172.628L289 178.288L290 178.288L290 172.628L289 172.628ZM289.272 177.843L279.903 182.642L280.359 183.532L289.728 178.733L289.272 177.843ZM276.359 187.288L276.359 183.034L275.359 183.034L275.359 187.288L276.359 187.288ZM276.359 183.034C276.359 181.628 276.004 180.466 275.226 179.62L274.489 180.296C275.047 180.903 275.359 181.792 275.359 183.034L276.359 183.034ZM275.223 179.616C274.43 178.77 273.356 178.368 272.062 178.368L272.062 179.368C273.136 179.368 273.925 179.693 274.492 180.3L275.223 179.616ZM272.062 178.368C270.756 178.368 269.667 178.746 268.861 179.552L269.568 180.259C270.145 179.682 270.955 179.368 272.062 179.368L272.062 178.368ZM268.864 179.549C268.041 180.358 267.678 181.562 267.678 183.052L268.678 183.052C268.678 181.706 269.006 180.812 269.565 180.262L268.864 179.549ZM267.678 183.052L267.678 187.288L268.678 187.288L268.678 183.052L267.678 183.052ZM268.178 187.788L275.859 187.788L275.859 186.788L268.178 186.788L268.178 187.788ZM288.305 149.754L287.88 150.017L287.881 150.019L288.305 149.754ZM283.963 164.994L284.18 165.445L284.181 165.444L283.963 164.994ZM277.424 166.383L277.424 166.883L277.426 166.883L277.424 166.383ZM269.514 165.029L269.299 165.481L269.3 165.481L269.514 165.029ZM265.102 161.18L265.527 160.917L265.527 160.916L265.102 161.18ZM265.102 149.807L265.526 150.071L265.528 150.068L265.102 149.807ZM269.514 145.957L269.726 146.41L269.729 146.408L269.514 145.957ZM269.988 159.58L270.275 159.171L270.274 159.169L269.988 159.58ZM276.035 161.039L276.033 161.539L276.035 161.539L276.035 161.039ZM283.453 151.371L283.736 150.959L283.734 150.958L283.453 151.371ZM277.371 149.93L277.373 149.43L277.371 149.43L277.371 149.93ZM277.283 145.086C279.744 145.086 281.878 145.521 283.698 146.375L284.123 145.469C282.146 144.542 279.862 144.086 277.283 144.086L277.283 145.086ZM283.698 146.375C285.515 147.227 286.903 148.442 287.88 150.017L288.73 149.491C287.644 147.738 286.102 146.398 284.123 145.469L283.698 146.375ZM287.881 150.019C288.857 151.584 289.352 153.389 289.352 155.449L290.352 155.449C290.352 153.221 289.815 151.229 288.729 149.489L287.881 150.019ZM289.352 155.449C289.352 157.486 288.863 159.287 287.896 160.866L288.749 161.388C289.82 159.639 290.352 157.654 290.352 155.449L289.352 155.449ZM287.896 160.866C286.93 162.442 285.552 163.669 283.745 164.544L284.181 165.444C286.147 164.492 287.675 163.14 288.749 161.388L287.896 160.866ZM283.746 164.544C281.925 165.42 279.82 165.871 277.421 165.883L277.426 166.883C279.949 166.871 282.204 166.396 284.18 165.445L283.746 164.544ZM277.424 165.883L276.158 165.883L276.158 166.883L277.424 166.883L277.424 165.883ZM276.158 165.883C273.698 165.883 271.559 165.443 269.727 164.577L269.3 165.481C271.289 166.421 273.579 166.883 276.158 166.883L276.158 165.883ZM269.728 164.578C267.885 163.701 266.491 162.48 265.527 160.917L264.676 161.442C265.751 163.184 267.299 164.53 269.299 165.481L269.728 164.578ZM265.527 160.916C264.549 159.338 264.055 157.533 264.055 155.484L263.055 155.484C263.055 157.702 263.592 159.693 264.677 161.443L265.527 160.916ZM264.055 155.484C264.055 153.436 264.549 151.637 265.526 150.071L264.677 149.542C263.592 151.281 263.055 153.267 263.055 155.484L264.055 155.484ZM265.528 150.068C266.492 148.494 267.885 147.274 269.726 146.41L269.301 145.504C267.299 146.444 265.75 147.791 264.675 149.545L265.528 150.068ZM269.729 146.408C271.561 145.532 273.694 145.086 276.141 145.086L276.141 144.086C273.572 144.086 271.287 144.554 269.298 145.506L269.729 146.408ZM276.141 145.086L277.283 145.086L277.283 144.086L276.141 144.086L276.141 145.086ZM276.123 149.43C273.393 149.43 271.236 149.916 269.722 150.959L270.29 151.783C271.565 150.904 273.486 150.43 276.123 150.43L276.123 149.43ZM269.722 150.959C268.184 152.019 267.414 153.549 267.414 155.484L268.414 155.484C268.414 153.857 269.039 152.645 270.29 151.783L269.722 150.959ZM267.414 155.484C267.414 157.408 268.178 158.931 269.703 159.991L270.274 159.169C269.033 158.307 268.414 157.1 268.414 155.484L267.414 155.484ZM269.701 159.99C271.192 161.034 273.326 161.527 276.033 161.539L276.037 160.539C273.424 160.528 271.527 160.048 270.275 159.171L269.701 159.99ZM276.035 161.539L277.283 161.539L277.283 160.539L276.035 160.539L276.035 161.539ZM277.283 161.539C279.948 161.539 282.087 161.051 283.643 160.014L283.088 159.182C281.761 160.067 279.845 160.539 277.283 160.539L277.283 161.539ZM283.643 160.014C285.23 158.955 286.027 157.413 286.027 155.449L285.027 155.449C285.027 157.095 284.383 158.318 283.088 159.182L283.643 160.014ZM286.027 155.449C286.027 153.526 285.263 152.007 283.736 150.959L283.17 151.783C284.408 152.633 285.027 153.834 285.027 155.449L286.027 155.449ZM283.734 150.958C282.223 149.929 280.08 149.442 277.373 149.43L277.369 150.43C279.982 150.441 281.895 150.915 283.172 151.784L283.734 150.958ZM277.371 149.43L276.123 149.43L276.123 150.43L277.371 150.43L277.371 149.43ZM282.117 116.86L282.23 117.348L282.21 116.369L282.117 116.86ZM263.906 113.415L263.406 113.415L263.406 113.829L263.813 113.906L263.906 113.415ZM263.906 108.159L264.015 107.671L263.406 107.536L263.406 108.159L263.906 108.159ZM289.5 113.837L290 113.837L290 113.436L289.608 113.349L289.5 113.837ZM289.5 119.145L289.618 119.631L290 119.538L290 119.145L289.5 119.145ZM272.379 123.311L272.261 122.826L272.261 123.797L272.379 123.311ZM289.5 127.478L290 127.478L290 127.085L289.618 126.992L289.5 127.478ZM289.5 132.786L289.608 133.274L290 133.187L290 132.786L289.5 132.786ZM263.906 138.464L263.406 138.464L263.406 139.087L264.015 138.952L263.906 138.464ZM263.906 133.208L263.813 132.717L263.406 132.794L263.406 133.208L263.906 133.208ZM282.082 129.745L282.176 130.236L282.195 129.258L282.082 129.745ZM263.906 125.526L263.406 125.526L263.406 125.924L263.793 126.013L263.906 125.526ZM263.906 121.061L263.794 120.574L263.406 120.664L263.406 121.061L263.906 121.061ZM282.21 116.369L263.999 112.924L263.813 113.906L282.024 117.352L282.21 116.369ZM264.406 113.415L264.406 108.159L263.406 108.159L263.406 113.415L264.406 113.415ZM263.798 108.647L289.392 114.325L289.608 113.349L264.015 107.671L263.798 108.647ZM289 113.837L289 119.145L290 119.145L290 113.837L289 113.837ZM289.382 118.66L272.261 122.826L272.497 123.797L289.618 119.631L289.382 118.66ZM272.261 123.797L289.382 127.963L289.618 126.992L272.497 122.826L272.261 123.797ZM289 127.478L289 132.786L290 132.786L290 127.478L289 127.478ZM289.392 132.298L263.798 137.976L264.015 138.952L289.608 133.274L289.392 132.298ZM264.406 138.464L264.406 133.208L263.406 133.208L263.406 138.464L264.406 138.464ZM264 133.699L282.176 130.236L281.988 129.254L263.813 132.717L264 133.699ZM282.195 129.258L264.019 125.039L263.793 126.013L281.969 130.232L282.195 129.258ZM264.406 125.526L264.406 121.061L263.406 121.061L263.406 125.526L264.406 125.526ZM264.019 121.549L282.23 117.348L282.005 116.373L263.794 120.574L264.019 121.549ZM289.5 80.5214L290 80.5214L290 80.0214L289.5 80.0214L289.5 80.5214ZM289.5 85.7948L289.76 86.2218L290 86.0756L290 85.7948L289.5 85.7948ZM272.66 96.0605L272.4 95.6335L270.879 96.5605L272.66 96.5605L272.66 96.0605ZM289.5 96.0605L290 96.0605L290 95.5605L289.5 95.5605L289.5 96.0605ZM289.5 101.334L289.5 101.834L290 101.834L290 101.334L289.5 101.334ZM263.906 101.334L263.406 101.334L263.406 101.834L263.906 101.834L263.906 101.334ZM263.906 96.0605L263.646 95.6335L263.406 95.7796L263.406 96.0605L263.906 96.0605ZM280.781 85.7773L281.041 86.2042L282.563 85.2773L280.781 85.2773L280.781 85.7773ZM263.906 85.7773L263.406 85.7773L263.406 86.2773L263.906 86.2773L263.906 85.7773ZM263.906 80.5214L263.906 80.0214L263.406 80.0214L263.406 80.5214L263.906 80.5214ZM289 80.5214L289 85.7948L290 85.7948L290 80.5214L289 80.5214ZM289.24 85.3679L272.4 95.6335L272.92 96.4874L289.76 86.2218L289.24 85.3679ZM272.66 96.5605L289.5 96.5605L289.5 95.5605L272.66 95.5605L272.66 96.5605ZM289 96.0605L289 101.334L290 101.334L290 96.0605L289 96.0605ZM289.5 100.834L263.906 100.834L263.906 101.834L289.5 101.834L289.5 100.834ZM264.406 101.334L264.406 96.0605L263.406 96.0605L263.406 101.334L264.406 101.334ZM264.166 96.4874L281.041 86.2042L280.521 85.3503L263.646 95.6335L264.166 96.4874ZM280.781 85.2773L263.906 85.2773L263.906 86.2773L280.781 86.2773L280.781 85.2773ZM264.406 85.7773L264.406 80.5214L263.406 80.5214L263.406 85.7773L264.406 85.7773ZM263.906 81.0214L289.5 81.0214L289.5 80.0214L263.906 80.0214L263.906 81.0214Z" fill="#78491F"/>
</g>
<path d="M60.8594 277.969C58.75 280.312 55.6641 282.201 51.6016 283.633C47.5391 285.065 43.0859 285.781 38.2422 285.781C30.7943 285.781 24.8438 283.503 20.3906 278.945C15.9375 274.388 13.5547 268.047 13.2422 259.922L13.2031 255C13.2031 249.401 14.1927 244.518 16.1719 240.352C18.151 236.159 20.9766 232.943 24.6484 230.703C28.3464 228.438 32.6172 227.305 37.4609 227.305C44.5443 227.305 50.0391 228.932 53.9453 232.188C57.8776 235.417 60.1693 240.247 60.8203 246.68H47.6172C47.1484 243.503 46.1328 241.237 44.5703 239.883C43.0078 238.529 40.7943 237.852 37.9297 237.852C34.4922 237.852 31.8359 239.31 29.9609 242.227C28.0859 245.143 27.1354 249.31 27.1094 254.727V258.164C27.1094 263.841 28.0729 268.112 30 270.977C31.9531 273.815 35.013 275.234 39.1797 275.234C42.7474 275.234 45.4036 274.44 47.1484 272.852V264.023H37.6172V254.609H60.8594V277.969ZM89.3875 259.406V276.264C89.3875 279.064 88.5086 281.279 86.7508 282.908C85.0047 284.537 82.6141 285.352 79.5789 285.352C76.5906 285.352 74.2176 284.561 72.4598 282.979C70.702 281.396 69.8055 279.223 69.7703 276.457V259.406H75.0438V276.299C75.0438 277.975 75.4422 279.199 76.2391 279.973C77.0477 280.734 78.1609 281.115 79.5789 281.115C82.5438 281.115 84.0496 279.557 84.0965 276.439V259.406H89.3875ZM101.839 285H96.5657V259.406H101.839V285ZM128.002 263.678H120.162V285H114.888V263.678H107.154V259.406H128.002V263.678ZM145.885 279.727H136.639L134.881 285H129.274L138.801 259.406H143.688L153.268 285H147.66L145.885 279.727ZM138.063 275.455H144.461L141.244 265.875L138.063 275.455ZM167.653 275.631H163.452V285H158.178V259.406H167.688C170.712 259.406 173.044 260.08 174.684 261.428C176.325 262.775 177.145 264.68 177.145 267.141C177.145 268.887 176.764 270.346 176.003 271.518C175.253 272.678 174.11 273.604 172.575 274.295L178.112 284.754V285H172.452L167.653 275.631ZM163.452 271.359H167.706C169.03 271.359 170.055 271.025 170.782 270.357C171.509 269.678 171.872 268.746 171.872 267.562C171.872 266.355 171.526 265.406 170.835 264.715C170.155 264.023 169.106 263.678 167.688 263.678H163.452V271.359Z" fill="black"/>
<path d="M34.4456 19.2031L39.1654 30.4971L43.9027 19.2031H45.3441V32H44.263V26.4277L44.3509 20.7148L39.5872 32H38.7523L34.0062 20.7588L34.0941 26.3926V32H33.013V19.2031H34.4456ZM59.3827 19.2031V27.9395C59.3768 28.8008 59.1864 29.5508 58.8114 30.1895C58.4364 30.8281 57.9061 31.3203 57.2205 31.666C56.5409 32.0059 55.7586 32.1758 54.8739 32.1758C53.5262 32.1758 52.4452 31.8096 51.6307 31.0771C50.8221 30.3389 50.4032 29.3193 50.3739 28.0186V19.2031H51.4461V27.8604C51.4461 28.9385 51.7537 29.7764 52.369 30.374C52.9842 30.9658 53.8192 31.2617 54.8739 31.2617C55.9286 31.2617 56.7606 30.9629 57.37 30.3652C57.9852 29.7676 58.2928 28.9355 58.2928 27.8691V19.2031H59.3827ZM71.6195 28.8535C71.6195 28.1445 71.3705 27.585 70.8724 27.1748C70.3744 26.7588 69.4632 26.3662 68.139 25.9971C66.8148 25.6221 65.848 25.2148 65.2386 24.7754C64.3714 24.1543 63.9379 23.3398 63.9379 22.332C63.9379 21.3535 64.3392 20.5596 65.142 19.9502C65.9505 19.335 66.9818 19.0273 68.2357 19.0273C69.0853 19.0273 69.8441 19.1914 70.5121 19.5195C71.1859 19.8477 71.7074 20.3047 72.0765 20.8906C72.4457 21.4766 72.6302 22.1299 72.6302 22.8506H71.5404C71.5404 21.9775 71.2416 21.2773 70.6439 20.75C70.0462 20.2168 69.2435 19.9502 68.2357 19.9502C67.2572 19.9502 66.4779 20.1699 65.8978 20.6094C65.3177 21.043 65.0277 21.6113 65.0277 22.3145C65.0277 22.9648 65.2884 23.4951 65.8099 23.9053C66.3314 24.3154 67.1664 24.6787 68.3148 24.9951C69.4632 25.3057 70.3334 25.6309 70.9252 25.9707C71.517 26.3047 71.9623 26.7061 72.2611 27.1748C72.5599 27.6436 72.7093 28.1973 72.7093 28.8359C72.7093 29.8438 72.305 30.6523 71.4964 31.2617C70.6937 31.8711 69.6332 32.1758 68.3148 32.1758C67.4125 32.1758 66.5834 32.0146 65.8275 31.6924C65.0775 31.3701 64.5062 30.9189 64.1136 30.3389C63.7269 29.7588 63.5336 29.0938 63.5336 28.3438H64.6146C64.6146 29.2461 64.9515 29.958 65.6254 30.4795C66.2992 31.001 67.1957 31.2617 68.3148 31.2617C69.3109 31.2617 70.1107 31.042 70.7142 30.6025C71.3177 30.1631 71.6195 29.5801 71.6195 28.8535ZM78.3456 32H77.2645V19.2031H78.3456V32ZM92.8676 28.0098C92.7211 29.3574 92.2377 30.3887 91.4174 31.1035C90.6029 31.8184 89.516 32.1758 88.1566 32.1758C87.2074 32.1758 86.3666 31.9385 85.6342 31.4639C84.9076 30.9893 84.3451 30.3184 83.9467 29.4512C83.5482 28.5781 83.3461 27.582 83.3402 26.4629V24.8018C83.3402 23.665 83.5395 22.6572 83.9379 21.7783C84.3363 20.8994 84.9076 20.2227 85.6518 19.748C86.4018 19.2676 87.2631 19.0273 88.2357 19.0273C89.6068 19.0273 90.6879 19.3994 91.4789 20.1436C92.2758 20.8818 92.7387 21.9043 92.8676 23.2109H91.7777C91.5082 21.0371 90.3275 19.9502 88.2357 19.9502C87.0756 19.9502 86.1498 20.3838 85.4584 21.251C84.7729 22.1182 84.4301 23.3164 84.4301 24.8457V26.4102C84.4301 27.8867 84.7641 29.0645 85.432 29.9434C86.1059 30.8223 87.0141 31.2617 88.1566 31.2617C89.2875 31.2617 90.14 30.9922 90.7143 30.4531C91.2885 29.9082 91.643 29.0938 91.7777 28.0098H92.8676ZM104.384 28.4141H98.5741L97.2558 32H96.122L100.965 19.2031H101.993L106.836 32H105.711L104.384 28.4141ZM98.9081 27.4912H104.041L101.475 20.5215L98.9081 27.4912ZM111.795 31.0859H118.115V32H110.706V19.2031H111.795V31.0859ZM129.853 32H128.772V19.2031H129.853V32ZM144.841 32H143.76L136.403 21.0488V32H135.313V19.2031H136.403L143.769 30.1631V19.2031H144.841V32ZM157.315 28.8535C157.315 28.1445 157.066 27.585 156.568 27.1748C156.07 26.7588 155.159 26.3662 153.835 25.9971C152.51 25.6221 151.543 25.2148 150.934 24.7754C150.067 24.1543 149.633 23.3398 149.633 22.332C149.633 21.3535 150.035 20.5596 150.837 19.9502C151.646 19.335 152.677 19.0273 153.931 19.0273C154.781 19.0273 155.54 19.1914 156.208 19.5195C156.881 19.8477 157.403 20.3047 157.772 20.8906C158.141 21.4766 158.326 22.1299 158.326 22.8506H157.236C157.236 21.9775 156.937 21.2773 156.339 20.75C155.742 20.2168 154.939 19.9502 153.931 19.9502C152.953 19.9502 152.173 20.1699 151.593 20.6094C151.013 21.043 150.723 21.6113 150.723 22.3145C150.723 22.9648 150.984 23.4951 151.505 23.9053C152.027 24.3154 152.862 24.6787 154.01 24.9951C155.159 25.3057 156.029 25.6309 156.621 25.9707C157.212 26.3047 157.658 26.7061 157.957 27.1748C158.255 27.6436 158.405 28.1973 158.405 28.8359C158.405 29.8438 158.001 30.6523 157.192 31.2617C156.389 31.8711 155.329 32.1758 154.01 32.1758C153.108 32.1758 152.279 32.0146 151.523 31.6924C150.773 31.3701 150.202 30.9189 149.809 30.3389C149.422 29.7588 149.229 29.0938 149.229 28.3438H150.31C150.31 29.2461 150.647 29.958 151.321 30.4795C151.995 31.001 152.891 31.2617 154.01 31.2617C155.006 31.2617 155.806 31.042 156.41 30.6025C157.013 30.1631 157.315 29.5801 157.315 28.8535ZM171.406 20.126H167.021V32H165.939V20.126H161.563V19.2031H171.406V20.126ZM180.242 26.6738H176.524V32H175.434V19.2031H179.591C180.957 19.2031 182.023 19.5342 182.791 20.1963C183.558 20.8584 183.942 21.7842 183.942 22.9736C183.942 23.7939 183.702 24.5176 183.221 25.1445C182.741 25.7715 182.096 26.2051 181.288 26.4453L184.487 31.8857V32H183.336L180.242 26.6738ZM176.524 25.751H179.837C180.746 25.751 181.475 25.4932 182.026 24.9775C182.577 24.4619 182.852 23.7939 182.852 22.9736C182.852 22.0713 182.565 21.3711 181.991 20.873C181.417 20.375 180.611 20.126 179.574 20.126H176.524V25.751ZM197.682 19.2031V27.9395C197.676 28.8008 197.485 29.5508 197.11 30.1895C196.735 30.8281 196.205 31.3203 195.52 31.666C194.84 32.0059 194.058 32.1758 193.173 32.1758C191.825 32.1758 190.744 31.8096 189.93 31.0771C189.121 30.3389 188.702 29.3193 188.673 28.0186V19.2031H189.745V27.8604C189.745 28.9385 190.053 29.7764 190.668 30.374C191.283 30.9658 192.118 31.2617 193.173 31.2617C194.228 31.2617 195.06 30.9629 195.669 30.3652C196.284 29.7676 196.592 28.9355 196.592 27.8691V19.2031H197.682ZM204.109 19.2031L208.829 30.4971L213.566 19.2031H215.007V32H213.926V26.4277L214.014 20.7148L209.251 32H208.416L203.67 20.7588L203.757 26.3926V32H202.676V19.2031H204.109ZM227.297 25.8652H221.312V31.0859H228.193V32H220.231V19.2031H228.15V20.126H221.312V24.9512H227.297V25.8652ZM241.986 32H240.905L233.548 21.0488V32H232.459V19.2031H233.548L240.914 30.1631V19.2031H241.986V32ZM255.638 20.126H251.252V32H250.171V20.126H245.794V19.2031H255.638V20.126ZM266.794 28.8535C266.794 28.1445 266.545 27.585 266.047 27.1748C265.549 26.7588 264.637 26.3662 263.313 25.9971C261.989 25.6221 261.022 25.2148 260.413 24.7754C259.546 24.1543 259.112 23.3398 259.112 22.332C259.112 21.3535 259.513 20.5596 260.316 19.9502C261.125 19.335 262.156 19.0273 263.41 19.0273C264.259 19.0273 265.018 19.1914 265.686 19.5195C266.36 19.8477 266.882 20.3047 267.251 20.8906C267.62 21.4766 267.804 22.1299 267.804 22.8506H266.715C266.715 21.9775 266.416 21.2773 265.818 20.75C265.22 20.2168 264.418 19.9502 263.41 19.9502C262.431 19.9502 261.652 20.1699 261.072 20.6094C260.492 21.043 260.202 21.6113 260.202 22.3145C260.202 22.9648 260.463 23.4951 260.984 23.9053C261.506 24.3154 262.341 24.6787 263.489 24.9951C264.637 25.3057 265.508 25.6309 266.099 25.9707C266.691 26.3047 267.136 26.7061 267.435 27.1748C267.734 27.6436 267.883 28.1973 267.883 28.8359C267.883 29.8438 267.479 30.6523 266.671 31.2617C265.868 31.8711 264.807 32.1758 263.489 32.1758C262.587 32.1758 261.758 32.0146 261.002 31.6924C260.252 31.3701 259.68 30.9189 259.288 30.3389C258.901 29.7588 258.708 29.0938 258.708 28.3438H259.789C259.789 29.2461 260.126 29.958 260.799 30.4795C261.473 31.001 262.37 31.2617 263.489 31.2617C264.485 31.2617 265.285 31.042 265.888 30.6025C266.492 30.1631 266.794 29.5801 266.794 28.8535Z" fill="black"/>
<g clip-path="url(#clip0)">
<path fill-rule="evenodd" clip-rule="evenodd" d="M139.999 176.731C142.959 176.635 145.927 176.083 148.826 175.03C165.144 169.094 167.179 151.634 160.549 133.425C153.917 115.214 141.132 103.148 124.811 109.085C121.915 110.139 119.284 111.622 116.955 113.454C108.141 120.38 96.2794 121.914 85.6799 118.27C76.8588 115.237 67.2978 115.035 58.2343 118.33C35.3718 126.65 32.5196 151.11 41.8074 176.622C51.0998 202.136 69.0126 219.04 91.8774 210.722C100.939 207.425 108.134 201.125 112.941 193.134C118.716 183.536 128.79 177.087 139.999 176.731Z" fill="#935411"/>
<path fill-rule="evenodd" clip-rule="evenodd" d="M158.805 134.455C151.52 114.449 138.67 105.6 124.425 110.781C121.694 111.776 119.15 113.19 116.864 114.986C108.02 121.938 96.0501 123.785 84.8439 119.931C75.9164 116.863 66.6828 116.88 58.1441 119.988C37.9692 127.328 32.0627 148.573 42.3509 176.821C52.6357 205.071 70.8243 217.554 91.0003 210.213C99.5379 207.107 106.623 201.19 111.488 193.101C117.595 182.952 127.953 176.676 139.197 176.316C142.103 176.224 144.962 175.672 147.694 174.678C161.936 169.499 166.091 154.462 158.805 134.455ZM40.592 177.461C35.7095 164.053 34.3743 151.616 36.7311 141.496C39.349 130.269 46.5293 122.225 57.5048 118.232C66.4504 114.978 76.1143 114.954 85.4531 118.165C96.0559 121.812 107.367 120.073 115.707 113.518C118.15 111.602 120.869 110.09 123.788 109.026C138.902 103.528 152.994 113.025 160.564 133.815C168.135 154.605 163.447 170.937 148.33 176.435C145.412 177.496 142.359 178.086 139.254 178.184C128.65 178.521 118.869 184.457 113.091 194.063C108.001 202.522 100.583 208.713 91.6396 211.968C80.6641 215.961 69.9874 214.414 60.7657 207.494C52.4499 201.255 45.4768 190.871 40.592 177.461Z" fill="#54301D"/>
<path fill-rule="evenodd" clip-rule="evenodd" d="M132.638 161.584C123.878 164.769 114.201 160.267 111.016 151.525C107.835 142.785 112.355 133.116 121.11 129.929C129.87 126.744 139.547 131.246 142.733 139.988C145.915 148.729 141.396 158.398 132.638 161.584Z" fill="#54301D"/>
<path fill-rule="evenodd" clip-rule="evenodd" d="M131.783 159.239C124.323 161.953 116.079 158.118 113.368 150.673C110.655 143.226 114.504 134.99 121.967 132.275C129.427 129.561 137.671 133.396 140.382 140.842C143.094 148.29 139.245 156.527 131.783 159.239Z" fill="#C67D30"/>
<path fill-rule="evenodd" clip-rule="evenodd" d="M130.504 155.722C124.989 157.728 118.895 154.893 116.891 149.389C114.887 143.885 117.732 137.798 123.246 135.792C128.761 133.786 134.855 136.621 136.859 142.125C138.863 147.629 136.018 153.716 130.504 155.722Z" fill="#2C1C16"/>
<path fill-rule="evenodd" clip-rule="evenodd" d="M81.5137 183.96L67.1296 144.461C66.7901 143.528 67.2739 142.493 68.208 142.154L73.6774 140.164C74.6114 139.824 75.6477 140.306 75.9872 141.238L90.3713 180.737C90.7108 181.67 90.227 182.705 89.2929 183.045L83.8235 185.034C82.8883 185.376 81.852 184.894 81.5137 183.96Z" fill="#45291B"/>
<path fill-rule="evenodd" clip-rule="evenodd" d="M78.5372 172.496L71.6743 153.655L77.7129 151.456L84.5746 170.3L78.5372 172.496Z" fill="#A7A9A8"/>
<path fill-rule="evenodd" clip-rule="evenodd" d="M136.686 140.871C137.928 144.283 137.366 147.904 135.499 150.722L228.922 112.981L225.281 102.976L129.441 134.09C132.684 135.047 135.446 137.46 136.686 140.871Z" fill="#45291B"/>
<path fill-rule="evenodd" clip-rule="evenodd" d="M238.019 118.671L234.309 108.484L235.732 107.967L239.441 118.153L238.019 118.671Z" fill="#BDBEBD"/>
<path fill-rule="evenodd" clip-rule="evenodd" d="M245.518 114.928L241.808 104.744L243.232 104.224L246.941 114.411L245.518 114.928Z" fill="#BDBEBD"/>
<path fill-rule="evenodd" clip-rule="evenodd" d="M251.768 113.68L248.059 103.494L249.48 102.976L253.191 113.163L251.768 113.68Z" fill="#BDBEBD"/>
<path fill-rule="evenodd" clip-rule="evenodd" d="M229.309 96.0083L233.019 106.195L234.441 105.677L230.732 95.4908L229.309 96.0083Z" fill="#BDBEBD"/>
<path fill-rule="evenodd" clip-rule="evenodd" d="M236.809 92.2655L240.519 102.452L241.941 101.934L238.232 91.748L236.809 92.2655Z" fill="#BDBEBD"/>
<path fill-rule="evenodd" clip-rule="evenodd" d="M243.058 91.0198L246.767 101.203L248.192 100.685L244.483 90.5013L243.058 91.0198Z" fill="#BDBEBD"/>
<path fill-rule="evenodd" clip-rule="evenodd" d="M237.122 121.902L236.496 120.181C236.201 119.375 236.617 118.485 237.426 118.193L238.488 117.806C239.294 117.513 240.185 117.927 240.478 118.732L241.104 120.453C241.266 120.893 241.039 121.381 240.595 121.542L238.213 122.409C237.771 122.572 237.281 122.344 237.122 121.902Z" fill="#D4D6D3"/>
<path fill-rule="evenodd" clip-rule="evenodd" d="M245.87 119.408L245.245 117.685C244.952 116.88 245.368 115.99 246.174 115.697L247.237 115.308C248.043 115.017 248.934 115.432 249.228 116.235L249.856 117.958C250.016 118.398 249.788 118.885 249.347 119.048L246.961 119.915C246.518 120.074 246.03 119.847 245.87 119.408Z" fill="#D4D6D3"/>
<path fill-rule="evenodd" clip-rule="evenodd" d="M253.37 116.913L252.744 115.192C252.451 114.387 252.868 113.495 253.673 113.204L254.739 112.816C255.543 112.521 256.436 112.937 256.729 113.742L257.356 115.463C257.515 115.905 257.287 116.392 256.847 116.552L254.461 117.42C254.021 117.58 253.53 117.352 253.37 116.913Z" fill="#D4D6D3"/>
<path fill-rule="evenodd" clip-rule="evenodd" d="M226.394 93.7085L227.023 95.4302C227.314 96.2341 228.207 96.6498 229.014 96.3564L230.076 95.97C230.882 95.6766 231.298 94.7864 231.005 93.9814L230.38 92.2585C230.22 91.8191 229.732 91.5921 229.289 91.7512L226.903 92.6192C226.462 92.7816 226.234 93.2691 226.394 93.7085Z" fill="#D4D6D3"/>
<path fill-rule="evenodd" clip-rule="evenodd" d="M233.896 89.9665L234.522 91.6872C234.816 92.4922 235.707 92.9069 236.513 92.6135L237.576 92.2272C238.382 91.9338 238.798 91.0436 238.506 90.2363L237.879 88.5156C237.719 88.0762 237.231 87.8491 236.789 88.0082L234.405 88.8772C233.962 89.0363 233.734 89.5237 233.896 89.9665Z" fill="#D4D6D3"/>
<path fill-rule="evenodd" clip-rule="evenodd" d="M241.395 86.2241L242.022 87.9441C242.315 88.7488 243.205 89.1632 244.012 88.8699L245.077 88.4825C245.883 88.1892 246.299 87.2994 246.006 86.4947L245.379 84.7747C245.218 84.3321 244.73 84.1052 244.289 84.2675L241.904 85.1353C241.462 85.2943 241.234 85.7815 241.395 86.2241Z" fill="#D4D6D3"/>
<path fill-rule="evenodd" clip-rule="evenodd" d="M236.058 113.86C234.969 114.207 233.803 113.633 233.413 112.563L233.096 111.688C232.681 110.553 233.299 109.301 234.453 108.935L253.261 102.967C254.348 102.623 255.513 103.193 255.905 104.264L256.222 105.139C256.635 106.273 256.019 107.525 254.863 107.891L236.058 113.86ZM230.382 104.234L230.065 103.362C229.672 102.29 230.197 101.102 231.254 100.668L249.5 93.156C250.619 92.6956 251.896 93.259 252.309 94.3933L252.629 95.267C253.019 96.3375 252.494 97.5261 251.437 97.9599L233.192 105.472C232.072 105.932 230.794 105.371 230.382 104.234ZM260.629 107.055L260.167 105.787C259.795 104.767 260.29 103.636 261.293 103.216L262.307 102.791C263.546 102.269 264.16 100.868 263.701 99.6039L261.581 93.7814C261.119 92.5185 259.748 91.839 258.46 92.2374L257.415 92.5624C256.377 92.885 255.269 92.3361 254.897 91.3159L254.435 90.0474C254.06 89.0171 252.897 88.5092 251.883 88.9351L229.332 98.3968C227.167 99.3044 226.096 101.75 226.898 103.951L230.591 114.099C231.396 116.299 233.787 117.483 236.028 116.79L259.387 109.55C260.438 109.224 261.003 108.088 260.629 107.055Z" fill="#45291B"/>
<path fill-rule="evenodd" clip-rule="evenodd" d="M228.85 112.36L225.541 103.271C225.48 103.103 225.566 102.918 225.735 102.857C225.903 102.795 226.089 102.882 226.15 103.05L229.459 112.138C229.52 112.306 229.433 112.492 229.265 112.553C229.097 112.614 228.911 112.527 228.85 112.36Z" fill="#8F9190"/>
<path fill-rule="evenodd" clip-rule="evenodd" d="M220.982 117.524L217.099 106.862C217.032 106.678 217.128 106.474 217.312 106.407C217.497 106.339 217.701 106.434 217.768 106.619L221.651 117.281C221.718 117.465 221.622 117.669 221.438 117.736C221.253 117.803 221.049 117.708 220.982 117.524Z" fill="#8F9190"/>
<path fill-rule="evenodd" clip-rule="evenodd" d="M213.503 118.787L209.608 108.085C209.542 107.908 209.632 107.713 209.811 107.65C209.988 107.584 210.183 107.675 210.246 107.853L214.142 118.553C214.209 118.729 214.118 118.924 213.938 118.989C213.762 119.053 213.567 118.963 213.503 118.787Z" fill="#8F9190"/>
<path fill-rule="evenodd" clip-rule="evenodd" d="M207.268 122.54L203.362 111.807C203.3 111.637 203.388 111.448 203.559 111.387C203.729 111.325 203.918 111.412 203.98 111.583L207.888 122.317C207.95 122.487 207.862 122.675 207.691 122.737C207.521 122.799 207.332 122.711 207.268 122.54Z" fill="#8F9190"/>
<path fill-rule="evenodd" clip-rule="evenodd" d="M198.543 126.298L194.619 115.523C194.56 115.362 194.644 115.181 194.806 115.123C194.968 115.064 195.146 115.147 195.205 115.308L199.131 126.086C199.19 126.248 199.106 126.426 198.945 126.485C198.782 126.546 198.603 126.463 198.543 126.298Z" fill="#8F9190"/>
<path fill-rule="evenodd" clip-rule="evenodd" d="M191.54 130.38L186.481 116.485C186.409 116.283 186.511 116.064 186.713 115.989C186.913 115.916 187.134 116.019 187.207 116.219L192.268 130.117C192.341 130.317 192.237 130.538 192.037 130.611C191.837 130.684 191.615 130.581 191.54 130.38Z" fill="#8F9190"/>
<path fill-rule="evenodd" clip-rule="evenodd" d="M184.064 132.891L178.989 118.953C178.918 118.764 179.018 118.548 179.211 118.478C179.403 118.408 179.619 118.508 179.686 118.699L184.761 132.637C184.832 132.827 184.732 133.042 184.539 133.112C184.347 133.182 184.134 133.083 184.064 132.891Z" fill="#8F9190"/>
<path fill-rule="evenodd" clip-rule="evenodd" d="M176.583 134.152L171.495 120.179C171.427 119.993 171.523 119.788 171.709 119.721C171.894 119.653 172.1 119.749 172.167 119.934L177.255 133.907C177.323 134.092 177.227 134.297 177.041 134.365C176.856 134.432 176.65 134.337 176.583 134.152Z" fill="#8F9190"/>
<path fill-rule="evenodd" clip-rule="evenodd" d="M170.349 136.656L165.252 122.656C165.183 122.478 165.277 122.277 165.459 122.213C165.639 122.147 165.838 122.24 165.903 122.419L171.001 136.419C171.066 136.599 170.973 136.797 170.794 136.863C170.613 136.93 170.414 136.838 170.349 136.656Z" fill="#8F9190"/>
<path fill-rule="evenodd" clip-rule="evenodd" d="M164.979 139.329L159.31 123.751C159.236 123.555 159.339 123.336 159.536 123.269C159.732 123.195 159.949 123.296 160.019 123.493L165.689 139.069C165.763 139.265 165.662 139.481 165.463 139.554C165.268 139.623 165.052 139.522 164.979 139.329Z" fill="#8F9190"/>
<path fill-rule="evenodd" clip-rule="evenodd" d="M159.996 141.831L154.313 126.229C154.243 126.041 154.342 125.827 154.533 125.758C154.724 125.688 154.936 125.786 155.005 125.977L160.688 141.579C160.757 141.769 160.658 141.98 160.467 142.05C160.275 142.122 160.062 142.022 159.996 141.831Z" fill="#8F9190"/>
<path fill-rule="evenodd" clip-rule="evenodd" d="M155.008 143.089L149.317 127.461C149.25 127.275 149.346 127.07 149.532 127.002C149.718 126.934 149.924 127.03 149.995 127.217L155.683 142.843C155.75 143.029 155.654 143.235 155.468 143.303C155.282 143.371 155.076 143.275 155.008 143.089Z" fill="#8F9190"/>
<path fill-rule="evenodd" clip-rule="evenodd" d="M150.019 145.589L144.321 129.948C144.254 129.762 144.348 129.561 144.533 129.495C144.713 129.428 144.918 129.523 144.984 129.705L150.68 145.348C150.747 145.531 150.651 145.735 150.47 145.799C150.286 145.868 150.084 145.774 150.019 145.589Z" fill="#8F9190"/>
<path fill-rule="evenodd" clip-rule="evenodd" d="M143.778 148.093L138.073 132.43C138.008 132.251 138.1 132.054 138.28 131.987C138.459 131.922 138.659 132.015 138.721 132.192L144.429 147.857C144.49 148.036 144.399 148.231 144.222 148.3C144.041 148.364 143.843 148.272 143.778 148.093Z" fill="#8F9190"/>
<path fill-rule="evenodd" clip-rule="evenodd" d="M140.04 149.347L134.327 133.662C134.264 133.488 134.354 133.295 134.529 133.231C134.704 133.168 134.899 133.259 134.963 133.433L140.672 149.119C140.737 149.291 140.645 149.487 140.472 149.548C140.296 149.614 140.103 149.524 140.04 149.347Z" fill="#8F9190"/>
<path fill-rule="evenodd" clip-rule="evenodd" d="M78.1404 163.778L77.9312 163.203L226.86 109.022L227.069 109.597L78.1404 163.778Z" fill="#D4D6D3"/>
<path fill-rule="evenodd" clip-rule="evenodd" d="M78.4287 160.105L78.2091 159.489L226.574 106.458L226.79 107.075L78.4287 160.105Z" fill="#D4D6D3"/>
<path fill-rule="evenodd" clip-rule="evenodd" d="M77.5253 156.168L77.299 155.505L226.225 104.156L226.452 104.817L77.5253 156.168Z" fill="#D4D6D3"/>
<path fill-rule="evenodd" clip-rule="evenodd" d="M81.254 170.008L228.576 113.584L228.746 114.02L81.4238 170.445L81.254 170.008Z" fill="#D4D6D3"/>
<path fill-rule="evenodd" clip-rule="evenodd" d="M80.3406 166.03L228.227 111.281L228.408 111.762L80.525 166.51L80.3406 166.03Z" fill="#D4D6D3"/>
</g>
<defs>
<filter id="filter0_d" x="262.055" y="79.0214" width="31.2969" height="143.992" filterUnits="userSpaceOnUse" color-interpolation-filters="sRGB">
<feFlood flood-opacity="0" result="BackgroundImageFix"/>
<feColorMatrix in="SourceAlpha" type="matrix" values="0 0 0 0 0 0 0 0 0 0 0 0 0 0 0 0 0 0 127 0"/>
<feOffset dx="1" dy="1"/>
<feGaussianBlur stdDeviation="1"/>
<feColorMatrix type="matrix" values="0 0 0 0 0 0 0 0 0 0 0 0 0 0 0 0 0 0 0.15 0"/>
<feBlend mode="normal" in2="BackgroundImageFix" result="effect1_dropShadow"/>
<feBlend mode="normal" in="SourceGraphic" in2="effect1_dropShadow" result="shape"/>
</filter>
<radialGradient id="paint0_radial" cx="0" cy="0" r="1" gradientUnits="userSpaceOnUse" gradientTransform="translate(150 150) rotate(90) scale(150)">
<stop offset="0.296875" stop-color="white" stop-opacity="0"/>
<stop offset="0.947917" stop-color="#826419" stop-opacity="0.83"/>
</radialGradient>
<clipPath id="clip0">
<rect width="230" height="131" fill="white" transform="translate(35 84)"/>
</clipPath>
</defs>
</svg>
