<svg width="300" height="300" viewBox="0 0 300 300" fill="none" xmlns="http://www.w3.org/2000/svg">
<rect width="300" height="300" fill="white"/>
<rect width="300" height="300" fill="white"/>
<rect width="300" height="300" fill="white"/>
<rect width="300" height="300" fill="url(#paint0_radial)" fill-opacity="0.2"/>
<g filter="url(#filter0_d)">
<path d="M289.5 219.514L263.906 219.514L263.906 210.549C263.906 207.443 264.504 205.088 265.699 203.482C266.883 201.877 268.623 201.074 270.92 201.074C272.174 201.074 273.281 201.397 274.242 202.041C275.191 202.686 275.889 203.582 276.334 204.731C276.662 203.418 277.324 202.387 278.32 201.637C279.316 200.875 280.535 200.494 281.977 200.494C284.437 200.494 286.301 201.279 287.566 202.85C288.832 204.42 289.477 206.658 289.5 209.565L289.5 219.514ZM278.355 214.24L285.264 214.24L285.264 209.723C285.264 208.481 284.971 207.514 284.385 206.822C283.787 206.119 282.967 205.768 281.924 205.768C279.58 205.768 278.391 206.981 278.355 209.406L278.355 214.24ZM274.629 214.24L274.629 210.338C274.582 207.678 273.521 206.348 271.447 206.348C270.287 206.348 269.455 206.688 268.951 207.367C268.436 208.035 268.178 209.096 268.178 210.549L268.178 214.24L274.629 214.24ZM280.131 183.087L280.131 187.288L289.5 187.288L289.5 192.562L263.906 192.562L263.906 183.052C263.906 180.028 264.58 177.696 265.928 176.056C267.275 174.415 269.18 173.595 271.641 173.595C273.387 173.595 274.846 173.976 276.018 174.737C277.178 175.487 278.104 176.63 278.795 178.165L289.254 172.628L289.5 172.628L289.5 178.288L280.131 183.087ZM275.859 187.288L275.859 183.034C275.859 181.71 275.525 180.685 274.857 179.958C274.178 179.231 273.246 178.868 272.062 178.868C270.855 178.868 269.906 179.214 269.215 179.905C268.523 180.585 268.178 181.634 268.178 183.052L268.178 187.288L275.859 187.288ZM277.283 144.586C279.803 144.586 282.012 145.031 283.91 145.922C285.809 146.812 287.273 148.09 288.305 149.754C289.336 151.406 289.852 153.305 289.852 155.449C289.852 157.57 289.342 159.463 288.322 161.127C287.303 162.791 285.85 164.08 283.963 164.994C282.064 165.908 279.885 166.371 277.424 166.383L276.158 166.383C273.639 166.383 271.424 165.932 269.514 165.029C267.592 164.115 266.121 162.832 265.102 161.18C264.07 159.516 263.555 157.617 263.555 155.484C263.555 153.352 264.07 151.459 265.102 149.807C266.121 148.143 267.592 146.859 269.514 145.957C271.424 145.043 273.633 144.586 276.141 144.586L277.283 144.586ZM276.123 149.93C273.439 149.93 271.4 150.41 270.006 151.371C268.611 152.332 267.914 153.703 267.914 155.484C267.914 157.254 268.605 158.619 269.988 159.58C271.359 160.541 273.375 161.027 276.035 161.039L277.283 161.039C279.896 161.039 281.924 160.559 283.365 159.598C284.807 158.637 285.527 157.254 285.527 155.449C285.527 153.68 284.836 152.32 283.453 151.371C282.059 150.422 280.031 149.941 277.371 149.93L276.123 149.93ZM282.117 116.86L263.906 113.415L263.906 108.159L289.5 113.837L289.5 119.145L272.379 123.311L289.5 127.478L289.5 132.786L263.906 138.464L263.906 133.208L282.082 129.745L263.906 125.526L263.906 121.061L282.117 116.86ZM289.5 80.5214L289.5 85.7948L272.66 96.0605L289.5 96.0605L289.5 101.334L263.906 101.334L263.906 96.0605L280.781 85.7773L263.906 85.7773L263.906 80.5214L289.5 80.5214Z" fill="white"/>
<path d="M289.5 219.514L289.5 220.014L290 220.014L290 219.514L289.5 219.514ZM263.906 219.514L263.406 219.514L263.406 220.014L263.906 220.014L263.906 219.514ZM265.699 203.482L266.1 203.781L266.102 203.779L265.699 203.482ZM274.242 202.041L274.523 201.627L274.521 201.626L274.242 202.041ZM276.334 204.731L275.868 204.911L276.437 206.38L276.819 204.852L276.334 204.731ZM278.32 201.637L278.621 202.036L278.624 202.034L278.32 201.637ZM289.5 209.565L290 209.565L290 209.56L289.5 209.565ZM278.355 214.24L277.855 214.24L277.855 214.74L278.355 214.74L278.355 214.24ZM285.264 214.24L285.264 214.74L285.764 214.74L285.764 214.24L285.264 214.24ZM284.385 206.822L284.766 206.499L284.766 206.499L284.385 206.822ZM278.355 209.406L277.855 209.399L277.855 209.406L278.355 209.406ZM274.629 214.24L274.629 214.74L275.129 214.74L275.129 214.24L274.629 214.24ZM274.629 210.338L275.129 210.338L275.129 210.329L274.629 210.338ZM268.951 207.367L269.347 207.673L269.353 207.665L268.951 207.367ZM268.178 214.24L267.678 214.24L267.678 214.74L268.178 214.74L268.178 214.24ZM289.5 219.014L263.906 219.014L263.906 220.014L289.5 220.014L289.5 219.014ZM264.406 219.514L264.406 210.549L263.406 210.549L263.406 219.514L264.406 219.514ZM264.406 210.549C264.406 207.495 264.996 205.264 266.1 203.781L265.298 203.184C264.012 204.912 263.406 207.391 263.406 210.549L264.406 210.549ZM266.102 203.779C267.176 202.322 268.754 201.574 270.92 201.574L270.92 200.574C268.492 200.574 266.59 201.432 265.297 203.186L266.102 203.779ZM270.92 201.574C272.083 201.574 273.092 201.872 273.964 202.456L274.521 201.626C273.47 200.921 272.264 200.574 270.92 200.574L270.92 201.574ZM273.961 202.455C274.82 203.038 275.456 203.85 275.868 204.911L276.8 204.55C276.321 203.314 275.563 202.333 274.523 201.627L273.961 202.455ZM276.819 204.852C277.122 203.64 277.724 202.711 278.621 202.036L278.02 201.237C276.924 202.062 276.202 203.196 275.849 204.609L276.819 204.852ZM278.624 202.034C279.52 201.349 280.628 200.994 281.977 200.994L281.977 199.994C280.443 199.994 279.113 200.401 278.017 201.24L278.624 202.034ZM281.977 200.994C284.323 200.994 286.027 201.737 287.177 203.163L287.956 202.536C286.574 200.822 284.552 199.994 281.977 199.994L281.977 200.994ZM287.177 203.163C288.347 204.615 288.977 206.727 289 209.569L290 209.56C289.976 206.59 289.317 204.225 287.956 202.536L287.177 203.163ZM289 209.565L289 219.514L290 219.514L290 209.565L289 209.565ZM278.355 214.74L285.264 214.74L285.264 213.74L278.355 213.74L278.355 214.74ZM285.764 214.24L285.764 209.723L284.764 209.723L284.764 214.24L285.764 214.24ZM285.764 209.723C285.764 208.406 285.453 207.309 284.766 206.499L284.003 207.146C284.488 207.718 284.764 208.555 284.764 209.723L285.764 209.723ZM284.766 206.499C284.06 205.668 283.092 205.268 281.924 205.268L281.924 206.268C282.841 206.268 283.514 206.57 284.004 207.146L284.766 206.499ZM281.924 205.268C280.67 205.268 279.637 205.593 278.917 206.327C278.2 207.058 277.874 208.113 277.856 209.399L278.855 209.414C278.872 208.274 279.158 207.509 279.631 207.027C280.1 206.549 280.834 206.268 281.924 206.268L281.924 205.268ZM277.855 209.406L277.855 214.24L278.855 214.24L278.855 209.406L277.855 209.406ZM275.129 214.24L275.129 210.338L274.129 210.338L274.129 214.24L275.129 214.24ZM275.129 210.329C275.104 208.947 274.817 207.821 274.189 207.034C273.543 206.223 272.6 205.848 271.447 205.848L271.447 206.848C272.369 206.848 272.993 207.137 273.407 207.657C273.84 208.199 274.106 209.069 274.129 210.347L275.129 210.329ZM271.447 205.848C270.192 205.848 269.18 206.219 268.55 207.069L269.353 207.665C269.73 207.156 270.382 206.848 271.447 206.848L271.447 205.848ZM268.555 207.062C267.939 207.861 267.678 209.057 267.678 210.549L268.678 210.549C268.678 209.134 268.933 208.21 269.347 207.673L268.555 207.062ZM267.678 210.549L267.678 214.24L268.678 214.24L268.678 210.549L267.678 210.549ZM268.178 214.74L274.629 214.74L274.629 213.74L268.178 213.74L268.178 214.74ZM280.131 183.087L279.903 182.642L279.631 182.781L279.631 183.087L280.131 183.087ZM280.131 187.288L279.631 187.288L279.631 187.788L280.131 187.788L280.131 187.288ZM289.5 187.288L290 187.288L290 186.788L289.5 186.788L289.5 187.288ZM289.5 192.562L289.5 193.062L290 193.062L290 192.562L289.5 192.562ZM263.906 192.562L263.406 192.562L263.406 193.062L263.906 193.062L263.906 192.562ZM276.018 174.737L275.745 175.157L275.746 175.157L276.018 174.737ZM278.795 178.165L278.339 178.37L278.558 178.856L279.029 178.607L278.795 178.165ZM289.254 172.628L289.254 172.128L289.13 172.128L289.02 172.186L289.254 172.628ZM289.5 172.628L290 172.628L290 172.128L289.5 172.128L289.5 172.628ZM289.5 178.288L289.728 178.733L290 178.594L290 178.288L289.5 178.288ZM275.859 187.288L275.859 187.788L276.359 187.788L276.359 187.288L275.859 187.288ZM274.857 179.958L275.226 179.62L275.223 179.616L274.857 179.958ZM269.215 179.905L269.565 180.262L269.568 180.259L269.215 179.905ZM268.178 187.288L267.678 187.288L267.678 187.788L268.178 187.788L268.178 187.288ZM279.631 183.087L279.631 187.288L280.631 187.288L280.631 183.087L279.631 183.087ZM280.131 187.788L289.5 187.788L289.5 186.788L280.131 186.788L280.131 187.788ZM289 187.288L289 192.562L290 192.562L290 187.288L289 187.288ZM289.5 192.062L263.906 192.062L263.906 193.062L289.5 193.062L289.5 192.062ZM264.406 192.562L264.406 183.052L263.406 183.052L263.406 192.562L264.406 192.562ZM264.406 183.052C264.406 180.096 265.066 177.893 266.314 176.373L265.541 175.738C264.095 177.5 263.406 179.961 263.406 183.052L264.406 183.052ZM266.314 176.373C267.551 174.867 269.303 174.095 271.641 174.095L271.641 173.095C269.057 173.095 267 173.963 265.541 175.738L266.314 176.373ZM271.641 174.095C273.314 174.095 274.672 174.459 275.745 175.157L276.29 174.318C275.019 173.492 273.459 173.095 271.641 173.095L271.641 174.095ZM275.746 175.157C276.809 175.845 277.678 176.904 278.339 178.37L279.251 177.96C278.529 176.356 277.546 175.13 276.289 174.317L275.746 175.157ZM279.029 178.607L289.488 173.07L289.02 172.186L278.561 177.723L279.029 178.607ZM289.254 173.128L289.5 173.128L289.5 172.128L289.254 172.128L289.254 173.128ZM289 172.628L289 178.288L290 178.288L290 172.628L289 172.628ZM289.272 177.843L279.903 182.642L280.359 183.532L289.728 178.733L289.272 177.843ZM276.359 187.288L276.359 183.034L275.359 183.034L275.359 187.288L276.359 187.288ZM276.359 183.034C276.359 181.628 276.004 180.466 275.226 179.62L274.489 180.296C275.047 180.903 275.359 181.792 275.359 183.034L276.359 183.034ZM275.223 179.616C274.43 178.77 273.356 178.368 272.062 178.368L272.062 179.368C273.136 179.368 273.925 179.693 274.492 180.3L275.223 179.616ZM272.062 178.368C270.756 178.368 269.667 178.746 268.861 179.552L269.568 180.259C270.145 179.682 270.955 179.368 272.062 179.368L272.062 178.368ZM268.864 179.549C268.041 180.358 267.678 181.562 267.678 183.052L268.678 183.052C268.678 181.706 269.006 180.812 269.565 180.262L268.864 179.549ZM267.678 183.052L267.678 187.288L268.678 187.288L268.678 183.052L267.678 183.052ZM268.178 187.788L275.859 187.788L275.859 186.788L268.178 186.788L268.178 187.788ZM288.305 149.754L287.88 150.017L287.881 150.019L288.305 149.754ZM283.963 164.994L284.18 165.445L284.181 165.444L283.963 164.994ZM277.424 166.383L277.424 166.883L277.426 166.883L277.424 166.383ZM269.514 165.029L269.299 165.481L269.3 165.481L269.514 165.029ZM265.102 161.18L265.527 160.917L265.527 160.916L265.102 161.18ZM265.102 149.807L265.526 150.071L265.528 150.068L265.102 149.807ZM269.514 145.957L269.726 146.41L269.729 146.408L269.514 145.957ZM269.988 159.58L270.275 159.171L270.274 159.169L269.988 159.58ZM276.035 161.039L276.033 161.539L276.035 161.539L276.035 161.039ZM283.453 151.371L283.736 150.959L283.734 150.958L283.453 151.371ZM277.371 149.93L277.373 149.43L277.371 149.43L277.371 149.93ZM277.283 145.086C279.744 145.086 281.878 145.521 283.698 146.375L284.123 145.469C282.146 144.542 279.862 144.086 277.283 144.086L277.283 145.086ZM283.698 146.375C285.515 147.227 286.903 148.442 287.88 150.017L288.73 149.491C287.644 147.738 286.102 146.398 284.123 145.469L283.698 146.375ZM287.881 150.019C288.857 151.584 289.352 153.389 289.352 155.449L290.352 155.449C290.352 153.221 289.815 151.229 288.729 149.489L287.881 150.019ZM289.352 155.449C289.352 157.486 288.863 159.287 287.896 160.866L288.749 161.388C289.82 159.639 290.352 157.654 290.352 155.449L289.352 155.449ZM287.896 160.866C286.93 162.442 285.552 163.669 283.745 164.544L284.181 165.444C286.147 164.492 287.675 163.14 288.749 161.388L287.896 160.866ZM283.746 164.544C281.925 165.42 279.82 165.871 277.421 165.883L277.426 166.883C279.949 166.871 282.204 166.396 284.18 165.445L283.746 164.544ZM277.424 165.883L276.158 165.883L276.158 166.883L277.424 166.883L277.424 165.883ZM276.158 165.883C273.698 165.883 271.559 165.443 269.727 164.577L269.3 165.481C271.289 166.421 273.579 166.883 276.158 166.883L276.158 165.883ZM269.728 164.578C267.885 163.701 266.491 162.48 265.527 160.917L264.676 161.442C265.751 163.184 267.299 164.53 269.299 165.481L269.728 164.578ZM265.527 160.916C264.549 159.338 264.055 157.533 264.055 155.484L263.055 155.484C263.055 157.702 263.592 159.693 264.677 161.443L265.527 160.916ZM264.055 155.484C264.055 153.436 264.549 151.637 265.526 150.071L264.677 149.542C263.592 151.281 263.055 153.267 263.055 155.484L264.055 155.484ZM265.528 150.068C266.492 148.494 267.885 147.274 269.726 146.41L269.301 145.504C267.299 146.444 265.75 147.791 264.675 149.545L265.528 150.068ZM269.729 146.408C271.561 145.532 273.694 145.086 276.141 145.086L276.141 144.086C273.572 144.086 271.287 144.554 269.298 145.506L269.729 146.408ZM276.141 145.086L277.283 145.086L277.283 144.086L276.141 144.086L276.141 145.086ZM276.123 149.43C273.393 149.43 271.236 149.916 269.722 150.959L270.29 151.783C271.565 150.904 273.486 150.43 276.123 150.43L276.123 149.43ZM269.722 150.959C268.184 152.019 267.414 153.549 267.414 155.484L268.414 155.484C268.414 153.857 269.039 152.645 270.29 151.783L269.722 150.959ZM267.414 155.484C267.414 157.408 268.178 158.931 269.703 159.991L270.274 159.169C269.033 158.307 268.414 157.1 268.414 155.484L267.414 155.484ZM269.701 159.99C271.192 161.034 273.326 161.527 276.033 161.539L276.037 160.539C273.424 160.528 271.527 160.048 270.275 159.171L269.701 159.99ZM276.035 161.539L277.283 161.539L277.283 160.539L276.035 160.539L276.035 161.539ZM277.283 161.539C279.948 161.539 282.087 161.051 283.643 160.014L283.088 159.182C281.761 160.067 279.845 160.539 277.283 160.539L277.283 161.539ZM283.643 160.014C285.23 158.955 286.027 157.413 286.027 155.449L285.027 155.449C285.027 157.095 284.383 158.318 283.088 159.182L283.643 160.014ZM286.027 155.449C286.027 153.526 285.263 152.007 283.736 150.959L283.17 151.783C284.408 152.633 285.027 153.834 285.027 155.449L286.027 155.449ZM283.734 150.958C282.223 149.929 280.08 149.442 277.373 149.43L277.369 150.43C279.982 150.441 281.895 150.915 283.172 151.784L283.734 150.958ZM277.371 149.43L276.123 149.43L276.123 150.43L277.371 150.43L277.371 149.43ZM282.117 116.86L282.23 117.348L282.21 116.369L282.117 116.86ZM263.906 113.415L263.406 113.415L263.406 113.829L263.813 113.906L263.906 113.415ZM263.906 108.159L264.015 107.671L263.406 107.536L263.406 108.159L263.906 108.159ZM289.5 113.837L290 113.837L290 113.436L289.608 113.349L289.5 113.837ZM289.5 119.145L289.618 119.631L290 119.538L290 119.145L289.5 119.145ZM272.379 123.311L272.261 122.826L272.261 123.797L272.379 123.311ZM289.5 127.478L290 127.478L290 127.085L289.618 126.992L289.5 127.478ZM289.5 132.786L289.608 133.274L290 133.187L290 132.786L289.5 132.786ZM263.906 138.464L263.406 138.464L263.406 139.087L264.015 138.952L263.906 138.464ZM263.906 133.208L263.813 132.717L263.406 132.794L263.406 133.208L263.906 133.208ZM282.082 129.745L282.176 130.236L282.195 129.258L282.082 129.745ZM263.906 125.526L263.406 125.526L263.406 125.924L263.793 126.013L263.906 125.526ZM263.906 121.061L263.794 120.574L263.406 120.664L263.406 121.061L263.906 121.061ZM282.21 116.369L263.999 112.924L263.813 113.906L282.024 117.352L282.21 116.369ZM264.406 113.415L264.406 108.159L263.406 108.159L263.406 113.415L264.406 113.415ZM263.798 108.647L289.392 114.325L289.608 113.349L264.015 107.671L263.798 108.647ZM289 113.837L289 119.145L290 119.145L290 113.837L289 113.837ZM289.382 118.66L272.261 122.826L272.497 123.797L289.618 119.631L289.382 118.66ZM272.261 123.797L289.382 127.963L289.618 126.992L272.497 122.826L272.261 123.797ZM289 127.478L289 132.786L290 132.786L290 127.478L289 127.478ZM289.392 132.298L263.798 137.976L264.015 138.952L289.608 133.274L289.392 132.298ZM264.406 138.464L264.406 133.208L263.406 133.208L263.406 138.464L264.406 138.464ZM264 133.699L282.176 130.236L281.988 129.254L263.813 132.717L264 133.699ZM282.195 129.258L264.019 125.039L263.793 126.013L281.969 130.232L282.195 129.258ZM264.406 125.526L264.406 121.061L263.406 121.061L263.406 125.526L264.406 125.526ZM264.019 121.549L282.23 117.348L282.005 116.373L263.794 120.574L264.019 121.549ZM289.5 80.5214L290 80.5214L290 80.0214L289.5 80.0214L289.5 80.5214ZM289.5 85.7948L289.76 86.2218L290 86.0756L290 85.7948L289.5 85.7948ZM272.66 96.0605L272.4 95.6335L270.879 96.5605L272.66 96.5605L272.66 96.0605ZM289.5 96.0605L290 96.0605L290 95.5605L289.5 95.5605L289.5 96.0605ZM289.5 101.334L289.5 101.834L290 101.834L290 101.334L289.5 101.334ZM263.906 101.334L263.406 101.334L263.406 101.834L263.906 101.834L263.906 101.334ZM263.906 96.0605L263.646 95.6335L263.406 95.7796L263.406 96.0605L263.906 96.0605ZM280.781 85.7773L281.041 86.2042L282.563 85.2773L280.781 85.2773L280.781 85.7773ZM263.906 85.7773L263.406 85.7773L263.406 86.2773L263.906 86.2773L263.906 85.7773ZM263.906 80.5214L263.906 80.0214L263.406 80.0214L263.406 80.5214L263.906 80.5214ZM289 80.5214L289 85.7948L290 85.7948L290 80.5214L289 80.5214ZM289.24 85.3679L272.4 95.6335L272.92 96.4874L289.76 86.2218L289.24 85.3679ZM272.66 96.5605L289.5 96.5605L289.5 95.5605L272.66 95.5605L272.66 96.5605ZM289 96.0605L289 101.334L290 101.334L290 96.0605L289 96.0605ZM289.5 100.834L263.906 100.834L263.906 101.834L289.5 101.834L289.5 100.834ZM264.406 101.334L264.406 96.0605L263.406 96.0605L263.406 101.334L264.406 101.334ZM264.166 96.4874L281.041 86.2042L280.521 85.3503L263.646 95.6335L264.166 96.4874ZM280.781 85.2773L263.906 85.2773L263.906 86.2773L280.781 86.2773L280.781 85.2773ZM264.406 85.7773L264.406 80.5214L263.406 80.5214L263.406 85.7773L264.406 85.7773ZM263.906 81.0214L289.5 81.0214L289.5 80.0214L263.906 80.0214L263.906 81.0214Z" fill="#78491F"/>
</g>
<path d="M61.8359 285H48.2031V261.25H28.0078V285H14.2969V228.125H28.0078V250.703H48.2031V228.125H61.8359V285ZM83.7844 279.727H74.5383L72.7805 285H67.173L76.7004 259.406H81.5871L91.1672 285H85.5598L83.7844 279.727ZM75.9621 275.455H82.3605L79.1437 265.875L75.9621 275.455ZM113.234 263.678H105.394V285H100.121V263.678H92.3864V259.406H113.234V263.678Z" fill="black"/>
<path d="M116.26 28.0098C116.114 29.3574 115.63 30.3887 114.81 31.1035C113.996 31.8184 112.909 32.1758 111.549 32.1758C110.6 32.1758 109.759 31.9385 109.027 31.4639C108.3 30.9893 107.738 30.3184 107.339 29.4512C106.941 28.5781 106.739 27.582 106.733 26.4629V24.8018C106.733 23.665 106.932 22.6572 107.331 21.7783C107.729 20.8994 108.3 20.2227 109.044 19.748C109.794 19.2676 110.656 19.0273 111.628 19.0273C112.999 19.0273 114.081 19.3994 114.872 20.1436C115.668 20.8818 116.131 21.9043 116.26 23.2109H115.17C114.901 21.0371 113.72 19.9502 111.628 19.9502C110.468 19.9502 109.542 20.3838 108.851 21.251C108.165 22.1182 107.823 23.3164 107.823 24.8457V26.4102C107.823 27.8867 108.157 29.0645 108.825 29.9434C109.498 30.8223 110.407 31.2617 111.549 31.2617C112.68 31.2617 113.533 30.9922 114.107 30.4531C114.681 29.9082 115.036 29.0938 115.17 28.0098H116.26ZM121.958 31.0859H128.277V32H120.868V19.2031H121.958V31.0859ZM141.217 26.2959C141.217 27.4736 141.012 28.5078 140.602 29.3984C140.198 30.2891 139.618 30.9746 138.862 31.4551C138.106 31.9355 137.233 32.1758 136.243 32.1758C134.749 32.1758 133.541 31.6426 132.622 30.5762C131.702 29.5039 131.242 28.0596 131.242 26.2432V24.9248C131.242 23.7588 131.447 22.7275 131.857 21.8311C132.273 20.9287 132.859 20.2373 133.615 19.7568C134.371 19.2705 135.241 19.0273 136.225 19.0273C137.209 19.0273 138.077 19.2646 138.827 19.7393C139.582 20.2139 140.165 20.8848 140.576 21.752C140.986 22.6191 141.2 23.624 141.217 24.7666V26.2959ZM140.136 24.9072C140.136 23.3662 139.788 22.1592 139.09 21.2861C138.393 20.4131 137.438 19.9766 136.225 19.9766C135.036 19.9766 134.086 20.416 133.377 21.2949C132.674 22.168 132.323 23.3896 132.323 24.96V26.2959C132.323 27.8135 132.674 29.0176 133.377 29.9082C134.081 30.793 135.036 31.2354 136.243 31.2354C137.467 31.2354 138.422 30.7988 139.108 29.9258C139.793 29.0469 140.136 27.8252 140.136 26.2607V24.9072ZM154.359 20.126H149.974V32H148.893V20.126H144.516V19.2031H154.359V20.126ZM167.897 32H166.807V25.8652H159.495V32H158.414V19.2031H159.495V24.9512H166.807V19.2031H167.897V32ZM180.204 25.8652H174.219V31.0859H181.101V32H173.138V19.2031H181.057V20.126H174.219V24.9512H180.204V25.8652ZM192.608 28.8535C192.608 28.1445 192.359 27.585 191.861 27.1748C191.363 26.7588 190.452 26.3662 189.128 25.9971C187.803 25.6221 186.836 25.2148 186.227 24.7754C185.36 24.1543 184.926 23.3398 184.926 22.332C184.926 21.3535 185.328 20.5596 186.13 19.9502C186.939 19.335 187.97 19.0273 189.224 19.0273C190.074 19.0273 190.833 19.1914 191.501 19.5195C192.174 19.8477 192.696 20.3047 193.065 20.8906C193.434 21.4766 193.619 22.1299 193.619 22.8506H192.529C192.529 21.9775 192.23 21.2773 191.632 20.75C191.035 20.2168 190.232 19.9502 189.224 19.9502C188.246 19.9502 187.466 20.1699 186.886 20.6094C186.306 21.043 186.016 21.6113 186.016 22.3145C186.016 22.9648 186.277 23.4951 186.798 23.9053C187.32 24.3154 188.155 24.6787 189.303 24.9951C190.452 25.3057 191.322 25.6309 191.914 25.9707C192.505 26.3047 192.951 26.7061 193.25 27.1748C193.548 27.6436 193.698 28.1973 193.698 28.8359C193.698 29.8438 193.294 30.6523 192.485 31.2617C191.682 31.8711 190.622 32.1758 189.303 32.1758C188.401 32.1758 187.572 32.0146 186.816 31.6924C186.066 31.3701 185.495 30.9189 185.102 30.3389C184.715 29.7588 184.522 29.0938 184.522 28.3438H185.603C185.603 29.2461 185.94 29.958 186.614 30.4795C187.288 31.001 188.184 31.2617 189.303 31.2617C190.299 31.2617 191.099 31.042 191.703 30.6025C192.306 30.1631 192.608 29.5801 192.608 28.8535Z" fill="black"/>
<path fill-rule="evenodd" clip-rule="evenodd" d="M194.917 150.466C195.43 151.384 195.403 152.467 195.396 153.46C195.383 155.293 195.343 157.124 195.316 158.955C195.285 161.076 195.178 163.1 194.454 164.856C193.957 165.426 193.443 165.98 192.911 166.515C186.871 172.592 178.926 176.218 170.701 178.409C161.827 180.778 152.487 182.094 143.218 182.352C133.607 182.619 123.585 181.167 114.887 176.214C109.997 173.429 105.694 169.342 102.667 164.506C102.878 163.448 102.591 162.232 102.549 161.16C102.5 159.888 102.451 158.614 102.485 157.34C102.516 156.138 102.584 154.93 102.716 153.732C102.801 152.979 102.883 152.215 103.033 151.469C103.163 150.811 103.057 149.816 103.984 149.744C104.839 149.678 105.095 150.776 105.483 151.337C105.994 152.079 106.545 152.798 107.124 153.489C108.281 154.87 109.559 156.148 110.931 157.316C119.346 164.479 130.513 166.954 140.968 167.205C159.674 167.653 180.227 163.483 192.888 149.265C193.63 149.205 194.516 149.744 194.917 150.466Z" fill="#D78865"/>
<path fill-rule="evenodd" clip-rule="evenodd" d="M110.503 155.07C112.125 156.65 113.905 158.069 115.816 159.278C125.314 165.288 136.349 166.432 147.032 166.027C156.516 165.669 166.03 164.134 174.703 160.47C181.717 157.507 187.841 153.113 192.703 147.372C192.585 138.284 191.714 129.179 189.999 120.177C189.2 115.978 188.489 111.45 186.636 107.523C185.11 104.291 182.308 101.331 178.824 100.787C176.342 100.916 173.83 101.888 171.584 102.93C169.734 103.787 167.887 104.656 166.04 105.525C165.708 105.681 165.381 105.835 165.051 105.993C162.287 107.291 159.528 108.601 156.763 109.904C151.988 112.154 147.256 114.626 142.333 116.56C138.365 118.117 133.983 119.103 129.769 117.295C126.55 115.914 123.494 113.25 122.928 109.603C122.926 109.588 122.948 109.581 122.952 109.599C124.204 114.867 129.406 117.106 134.197 116.963C140.075 116.789 145.477 113.531 150.593 111.105C151.52 110.666 152.447 110.229 153.37 109.788C153.37 109.76 153.382 109.733 153.409 109.715C154.904 108.775 157.318 107.668 156.754 105.387C156.518 104.429 155.906 103.752 155.142 103.244C150.199 101.772 145.289 100.168 140.347 98.7111C132.123 96.2811 122.502 94.1201 115.658 100.183C115.07 100.705 114.522 101.26 114.014 101.845C112.804 104.331 111.788 106.912 110.86 109.516C108.601 115.849 106.411 122.066 105.238 128.715C104.654 132.023 104.079 135.544 104.019 139.024C103.952 142.766 104.48 146.459 106.229 149.796C107.269 151.783 108.904 153.513 110.503 155.07Z" fill="#884037"/>
<path fill-rule="evenodd" clip-rule="evenodd" d="M158.703 200.074C152.043 200.865 145.294 201.15 138.471 200.956C126.87 200.624 114.922 199.078 103.921 195.715C94.5476 192.848 86.2127 187.411 81.6433 180.621C81.6417 180.619 81.6487 180.617 81.6507 180.619C84.6017 184.364 88.6406 187.388 93.2626 190.019C102.066 195.029 112.795 197.755 123.385 199.027C135.088 200.435 147.04 200.575 158.663 199.963C158.754 199.958 158.799 200.063 158.703 200.074ZM213.381 152.765C212.625 152.219 211.844 151.718 211.036 151.255C208.902 150.366 206.734 149.609 204.422 149.491C202.077 149.368 199.675 149.965 197.898 151.399C197.911 154.536 197.788 157.657 197.555 160.766C197.465 161.947 197.361 163.123 197.241 164.299C196.653 165.06 196.036 165.798 195.394 166.508C194.253 167.771 193.029 168.956 191.732 170.052C185.025 175.703 176.514 179.107 167.92 180.891C158.258 182.9 148.11 183.954 138.135 183.455C128.472 182.971 118.576 180.334 110.552 174.222C107.347 171.779 104.538 168.765 102.411 165.364C102.24 165.094 102.077 164.82 101.916 164.544C101.866 164.034 101.823 163.521 101.781 163.007C101.487 159.548 101.165 155.99 101.28 152.513C101.322 151.197 101.128 150.17 100.266 149.112C99.5107 148.181 98.4797 147.437 97.3657 146.993C94.9867 146.047 93.2386 146.987 91.1656 148.09C89.9696 148.726 88.8057 149.419 87.6807 150.177C85.4687 151.664 83.4237 153.409 81.6707 155.422C79.0357 158.451 77.0977 162.142 76.4737 166.197C75.8417 170.315 76.7147 174.574 78.5987 178.394C82.6377 186.578 90.1887 192.035 98.4946 195.303C106.944 198.631 116.108 200.339 124.991 201.384C142.957 203.493 161.098 202.195 178.26 197.641C186.805 195.372 195.08 192.238 202.97 188.409C209.866 185.058 218.364 181.022 221.527 173.565C224.768 165.931 219.873 157.465 213.381 152.765Z" fill="#884037"/>
<path fill-rule="evenodd" clip-rule="evenodd" d="M221.527 173.565C218.364 181.022 209.866 185.058 202.97 188.409C195.08 192.238 186.805 195.372 178.26 197.641C161.098 202.195 142.957 203.493 124.991 201.384C116.108 200.339 106.944 198.631 98.4946 195.303C90.1886 192.035 82.6376 186.578 78.5986 178.394C76.7146 174.574 75.8416 170.315 76.4736 166.197C77.0976 162.142 79.0356 158.451 81.6706 155.422C83.4236 153.409 85.4686 151.664 87.6806 150.177C88.8056 149.419 89.9696 148.726 91.1656 148.09C93.2386 146.987 94.9866 146.047 97.3656 146.993C98.4796 147.437 99.5106 148.181 100.266 149.112C101.128 150.17 101.322 151.197 101.28 152.513C101.165 155.99 101.487 159.548 101.781 163.007C101.823 163.521 101.866 164.034 101.916 164.544C102.077 164.82 102.24 165.094 102.411 165.364C104.538 168.765 107.347 171.779 110.552 174.222C118.576 180.334 128.472 182.971 138.135 183.455C148.11 183.954 158.258 182.9 167.92 180.891C176.514 179.107 185.025 175.703 191.732 170.052C193.029 168.956 194.253 167.771 195.394 166.508C196.036 165.798 196.653 165.06 197.241 164.299C197.361 163.123 197.465 161.947 197.555 160.766C197.788 157.657 197.911 154.536 197.898 151.399C199.675 149.965 202.077 149.368 204.422 149.491C206.734 149.609 208.902 150.366 211.036 151.255C211.844 151.718 212.625 152.219 213.381 152.765C219.873 157.465 224.768 165.931 221.527 173.565ZM102.485 157.34C102.516 156.137 102.584 154.93 102.716 153.732C102.801 152.979 102.883 152.215 103.033 151.469C103.163 150.811 103.057 149.816 103.984 149.744C104.839 149.678 105.095 150.776 105.483 151.337C105.994 152.079 106.545 152.798 107.124 153.489C108.281 154.87 109.559 156.148 110.931 157.316C119.346 164.479 130.512 166.954 140.968 167.205C159.674 167.653 180.227 163.483 192.888 149.265C193.63 149.205 194.516 149.744 194.917 150.466C195.43 151.384 195.403 152.467 195.396 153.46C195.389 154.456 195.42 155.471 195.326 156.46C195.244 157.321 195.166 158.188 195.169 159.059C195.175 160.888 194.974 162.59 194.166 164.256C193.06 166.54 191.175 168.321 189.148 169.745C188.117 170.47 187.149 171.276 186.068 171.957C184.921 172.68 183.742 173.348 182.536 173.966C178.776 175.891 174.778 177.322 170.701 178.409C161.827 180.778 152.487 182.094 143.218 182.352C133.607 182.619 123.585 181.167 114.887 176.214C109.997 173.429 105.694 169.342 102.667 164.506C102.878 163.448 102.591 162.232 102.549 161.16C102.5 159.888 102.451 158.614 102.485 157.34ZM104.019 139.024C104.079 135.544 104.654 132.023 105.238 128.715C106.411 122.066 108.601 115.849 110.86 109.516C111.788 106.912 112.804 104.331 114.014 101.845C114.522 101.26 115.07 100.705 115.658 100.183C122.502 94.1201 132.123 96.2811 140.347 98.7111C145.289 100.168 150.199 101.772 155.142 103.244C155.906 103.752 156.518 104.429 156.754 105.387C157.318 107.668 154.904 108.775 153.409 109.715C153.382 109.733 153.37 109.76 153.37 109.788C152.447 110.229 151.52 110.666 150.593 111.105C145.477 113.531 140.075 116.789 134.197 116.963C129.406 117.106 124.204 114.867 122.952 109.599C122.948 109.581 122.926 109.588 122.928 109.603C123.494 113.25 126.55 115.914 129.769 117.295C133.983 119.103 138.365 118.117 142.333 116.56C147.256 114.626 151.988 112.154 156.763 109.904C159.528 108.601 162.287 107.291 165.051 105.993C165.381 105.835 165.708 105.681 166.04 105.525C167.887 104.656 169.734 103.787 171.584 102.93C173.83 101.888 176.342 100.916 178.824 100.787C182.308 101.331 185.11 104.291 186.636 107.523C188.489 111.45 189.2 115.978 189.999 120.177C191.714 129.179 192.585 138.284 192.703 147.372C187.841 153.113 181.717 157.507 174.703 160.47C166.03 164.134 156.516 165.669 147.032 166.027C136.349 166.432 125.314 165.288 115.816 159.278C113.905 158.069 112.125 156.65 110.503 155.07C108.904 153.513 107.269 151.783 106.229 149.796C104.48 146.459 103.952 142.766 104.019 139.024ZM223.861 166.517C223.391 162.583 221.489 158.717 218.878 155.659C213.541 149.417 205.97 146.838 198.287 145.537C198.103 145.506 197.917 145.477 197.733 145.448C197.693 144.63 197.646 143.817 197.59 143C197.539 142.244 197.484 141.492 197.418 140.739C197.418 140.737 197.418 140.737 197.418 140.737C196.799 133.377 195.578 126.053 193.728 118.832C191.843 111.488 189.035 99.5871 179.691 99.1831C174.603 98.9631 169.852 102.012 165.486 104.081C164.978 104.32 164.47 104.563 163.962 104.799H163.96C161.768 104.039 159.575 103.304 157.365 102.614C152.494 101.099 147.602 99.6561 142.719 98.1881C134.477 95.7061 125.048 92.8401 117.301 97.4441C111.162 101.095 108.169 108.468 106.293 115.203C104.077 123.162 102.596 131.404 101.827 139.714V139.717C101.741 140.637 101.667 141.558 101.598 142.478V142.481C101.593 142.543 101.589 142.605 101.586 142.668C101.582 142.703 101.58 142.742 101.577 142.777C101.569 142.884 101.562 142.991 101.556 143.1C101.551 143.171 101.546 143.245 101.542 143.316C95.4856 144.804 89.6076 146.882 84.7466 150.707C78.3496 155.741 73.9516 163.468 75.2176 172.03C76.5076 180.782 82.6016 188.126 90.0726 192.757C98.2226 197.811 107.766 200.092 116.979 201.7C135.812 204.983 155.106 204.511 173.391 200.366C182.452 198.312 191.246 195.381 199.651 191.603C203.803 189.736 207.885 187.634 211.759 185.275C215.15 183.21 218.426 180.822 220.809 177.619C223.151 174.476 224.344 170.549 223.861 166.517Z" fill="#0A0B09"/>
<path fill-rule="evenodd" clip-rule="evenodd" d="M158.663 199.963C147.04 200.575 135.088 200.435 123.385 199.027C112.795 197.755 102.066 195.029 93.2627 190.019C88.6407 187.388 84.6017 184.364 81.6507 180.619C81.6487 180.617 81.6417 180.619 81.6433 180.621C86.2127 187.411 94.5477 192.848 103.921 195.715C114.922 199.078 126.87 200.624 138.471 200.956C145.294 201.15 152.043 200.865 158.703 200.074C158.799 200.063 158.754 199.958 158.663 199.963Z" fill="#0A0B09"/>
<defs>
<filter id="filter0_d" x="262.055" y="79.0214" width="31.2969" height="143.992" filterUnits="userSpaceOnUse" color-interpolation-filters="sRGB">
<feFlood flood-opacity="0" result="BackgroundImageFix"/>
<feColorMatrix in="SourceAlpha" type="matrix" values="0 0 0 0 0 0 0 0 0 0 0 0 0 0 0 0 0 0 127 0"/>
<feOffset dx="1" dy="1"/>
<feGaussianBlur stdDeviation="1"/>
<feColorMatrix type="matrix" values="0 0 0 0 0 0 0 0 0 0 0 0 0 0 0 0 0 0 0.15 0"/>
<feBlend mode="normal" in2="BackgroundImageFix" result="effect1_dropShadow"/>
<feBlend mode="normal" in="SourceGraphic" in2="effect1_dropShadow" result="shape"/>
</filter>
<radialGradient id="paint0_radial" cx="0" cy="0" r="1" gradientUnits="userSpaceOnUse" gradientTransform="translate(150 150) rotate(90) scale(150)">
<stop offset="0.296875" stop-color="white" stop-opacity="0"/>
<stop offset="0.947917" stop-color="#826419" stop-opacity="0.83"/>
</radialGradient>
</defs>
</svg>
