<svg width="300" height="300" viewBox="0 0 300 300" fill="none" xmlns="http://www.w3.org/2000/svg">
<g clip-path="url(#clip0)">
<rect width="300" height="300" fill="white"/>
<rect width="300" height="300" fill="white"/>
<rect width="300" height="300" fill="white"/>
<rect width="300" height="300" fill="url(#paint0_radial)" fill-opacity="0.2"/>
<g filter="url(#filter0_d)">
<path d="M277.283 207.73C279.803 207.73 282.012 208.175 283.91 209.066C285.809 209.957 287.273 211.234 288.305 212.898C289.336 214.55 289.852 216.449 289.852 218.593C289.852 220.714 289.342 222.607 288.322 224.271C287.303 225.935 285.85 227.224 283.963 228.138C282.064 229.052 279.885 229.515 277.424 229.527L276.158 229.527C273.639 229.527 271.424 229.076 269.514 228.173C267.592 227.259 266.121 225.976 265.102 224.324C264.07 222.66 263.555 220.761 263.555 218.629C263.555 216.496 264.07 214.603 265.102 212.951C266.121 211.287 267.592 210.004 269.514 209.101C271.424 208.187 273.633 207.73 276.141 207.73L277.283 207.73ZM276.123 213.074C273.439 213.074 271.4 213.554 270.006 214.515C268.611 215.476 267.914 216.847 267.914 218.629C267.914 220.398 268.605 221.763 269.988 222.724C271.359 223.685 273.375 224.171 276.035 224.183L277.283 224.183C279.896 224.183 281.924 223.703 283.365 222.742C284.807 221.781 285.527 220.398 285.527 218.593C285.527 216.824 284.836 215.464 283.453 214.515C282.059 213.566 280.031 213.086 277.371 213.074L276.123 213.074ZM280.131 190.463L280.131 194.665L289.5 194.665L289.5 199.938L263.906 199.938L263.906 190.428C263.906 187.405 264.58 185.073 265.928 183.432C267.275 181.792 269.18 180.971 271.641 180.971C273.387 180.971 274.846 181.352 276.018 182.114C277.178 182.864 278.104 184.006 278.795 185.542L289.254 180.004L289.5 180.004L289.5 185.665L280.131 190.463ZM275.859 194.665L275.859 190.411C275.859 189.086 275.525 188.061 274.857 187.335C274.178 186.608 273.246 186.245 272.062 186.245C270.855 186.245 269.906 186.59 269.215 187.282C268.523 187.961 268.178 189.01 268.178 190.428L268.178 194.665L275.859 194.665ZM284.227 158.537L284.227 167.783L289.5 169.541L289.5 175.148L263.906 165.621L263.906 160.734L289.5 151.154L289.5 156.761L284.227 158.537ZM279.955 166.359L279.955 159.96L270.375 163.177L279.955 166.359ZM289.5 123.991L289.5 129.264L272.66 139.53L289.5 139.53L289.5 144.803L263.906 144.803L263.906 139.53L280.781 129.247L263.906 129.247L263.906 123.991L289.5 123.991ZM286.266 95.1752C287.402 96.1244 288.287 97.4662 288.92 99.2006C289.541 100.935 289.852 102.857 289.852 104.966C289.852 107.181 289.371 109.126 288.41 110.802C287.437 112.466 286.031 113.755 284.191 114.669C282.352 115.572 280.189 116.035 277.705 116.058L275.965 116.058C273.41 116.058 271.201 115.63 269.338 114.775C267.463 113.908 266.033 112.665 265.049 111.048C264.053 109.419 263.555 107.515 263.555 105.335C263.555 102.3 264.281 99.9272 265.734 98.2162C267.176 96.5053 269.279 95.4916 272.045 95.1752L272.045 100.308C270.58 100.542 269.508 101.064 268.828 101.872C268.148 102.669 267.809 103.771 267.809 105.177C267.809 106.97 268.482 108.335 269.83 109.273C271.178 110.21 273.182 110.685 275.842 110.697L277.477 110.697C280.16 110.697 282.187 110.187 283.559 109.167C284.93 108.148 285.615 106.654 285.615 104.685C285.615 102.705 285.193 101.292 284.35 100.449L279.937 100.449L279.937 105.247L276.053 105.247L276.053 95.1752L286.266 95.1752ZM278.408 71.5277L278.408 81.6527L285.264 81.6527L285.264 69.7699L289.5 69.7699L289.5 86.9262L263.906 86.9262L263.906 69.8051L268.178 69.8051L268.178 81.6527L274.277 81.6527L274.277 71.5277L278.408 71.5277Z" fill="white"/>
<path d="M288.305 212.898L287.88 213.161L287.881 213.163L288.305 212.898ZM283.963 228.138L284.18 228.589L284.181 228.588L283.963 228.138ZM277.424 229.527L277.424 230.027L277.426 230.027L277.424 229.527ZM269.514 228.173L269.299 228.625L269.3 228.626L269.514 228.173ZM265.102 224.324L265.527 224.061L265.527 224.06L265.102 224.324ZM265.102 212.951L265.526 213.216L265.528 213.212L265.102 212.951ZM269.514 209.101L269.726 209.554L269.729 209.552L269.514 209.101ZM269.988 222.724L270.275 222.315L270.274 222.314L269.988 222.724ZM276.035 224.183L276.033 224.683L276.035 224.683L276.035 224.183ZM283.453 214.515L283.736 214.103L283.734 214.102L283.453 214.515ZM277.371 213.074L277.373 212.574L277.371 212.574L277.371 213.074ZM277.283 208.23C279.744 208.23 281.878 208.665 283.698 209.519L284.123 208.613C282.146 207.686 279.862 207.23 277.283 207.23L277.283 208.23ZM283.698 209.519C285.515 210.371 286.903 211.586 287.88 213.161L288.73 212.635C287.644 210.882 286.102 209.542 284.123 208.613L283.698 209.519ZM287.881 213.163C288.857 214.728 289.352 216.533 289.352 218.593L290.352 218.593C290.352 216.365 289.815 214.373 288.729 212.633L287.881 213.163ZM289.352 218.593C289.352 220.631 288.863 222.431 287.896 224.01L288.749 224.532C289.82 222.783 290.352 220.798 290.352 218.593L289.352 218.593ZM287.896 224.01C286.93 225.586 285.552 226.813 283.745 227.688L284.181 228.588C286.147 227.636 287.675 226.284 288.749 224.532L287.896 224.01ZM283.746 227.688C281.925 228.565 279.82 229.016 277.421 229.027L277.426 230.027C279.949 230.015 282.204 229.54 284.18 228.589L283.746 227.688ZM277.424 229.027L276.158 229.027L276.158 230.027L277.424 230.027L277.424 229.027ZM276.158 229.027C273.698 229.027 271.559 228.587 269.727 227.721L269.3 228.626C271.289 229.565 273.579 230.027 276.158 230.027L276.158 229.027ZM269.728 227.722C267.885 226.845 266.491 225.624 265.527 224.061L264.676 224.586C265.751 226.329 267.299 227.674 269.299 228.625L269.728 227.722ZM265.527 224.06C264.549 222.483 264.055 220.677 264.055 218.629L263.055 218.629C263.055 220.846 263.592 222.837 264.677 224.587L265.527 224.06ZM264.055 218.629C264.055 216.58 264.549 214.781 265.526 213.216L264.677 212.686C263.592 214.425 263.055 216.411 263.055 218.629L264.055 218.629ZM265.528 213.212C266.492 211.639 267.885 210.418 269.726 209.554L269.301 208.649C267.299 209.589 265.75 210.935 264.675 212.69L265.528 213.212ZM269.729 209.552C271.561 208.676 273.694 208.23 276.141 208.23L276.141 207.23C273.572 207.23 271.287 207.698 269.298 208.65L269.729 209.552ZM276.141 208.23L277.283 208.23L277.283 207.23L276.141 207.23L276.141 208.23ZM276.123 212.574C273.393 212.574 271.236 213.06 269.722 214.104L270.29 214.927C271.565 214.048 273.486 213.574 276.123 213.574L276.123 212.574ZM269.722 214.104C268.184 215.163 267.414 216.693 267.414 218.629L268.414 218.629C268.414 217.002 269.039 215.789 270.29 214.927L269.722 214.104ZM267.414 218.629C267.414 220.552 268.178 222.075 269.703 223.135L270.274 222.314C269.033 221.452 268.414 220.244 268.414 218.629L267.414 218.629ZM269.701 223.134C271.192 224.178 273.326 224.671 276.033 224.683L276.037 223.683C273.424 223.672 271.527 223.192 270.275 222.315L269.701 223.134ZM276.035 224.683L277.283 224.683L277.283 223.683L276.035 223.683L276.035 224.683ZM277.283 224.683C279.948 224.683 282.087 224.195 283.643 223.158L283.088 222.326C281.761 223.211 279.845 223.683 277.283 223.683L277.283 224.683ZM283.643 223.158C285.23 222.1 286.027 220.557 286.027 218.593L285.027 218.593C285.027 220.239 284.383 221.462 283.088 222.326L283.643 223.158ZM286.027 218.593C286.027 216.67 285.263 215.151 283.736 214.103L283.17 214.927C284.408 215.777 285.027 216.978 285.027 218.593L286.027 218.593ZM283.734 214.102C282.223 213.073 280.08 212.586 277.373 212.574L277.369 213.574C279.982 213.585 281.895 214.059 283.172 214.929L283.734 214.102ZM277.371 212.574L276.123 212.574L276.123 213.574L277.371 213.574L277.371 212.574ZM280.131 190.463L279.903 190.018L279.631 190.158L279.631 190.463L280.131 190.463ZM280.131 194.665L279.631 194.665L279.631 195.165L280.131 195.165L280.131 194.665ZM289.5 194.665L290 194.665L290 194.165L289.5 194.165L289.5 194.665ZM289.5 199.938L289.5 200.438L290 200.438L290 199.938L289.5 199.938ZM263.906 199.938L263.406 199.938L263.406 200.438L263.906 200.438L263.906 199.938ZM276.018 182.114L275.745 182.533L275.746 182.534L276.018 182.114ZM278.795 185.542L278.339 185.747L278.558 186.233L279.029 185.983L278.795 185.542ZM289.254 180.004L289.254 179.504L289.13 179.504L289.02 179.563L289.254 180.004ZM289.5 180.004L290 180.004L290 179.504L289.5 179.504L289.5 180.004ZM289.5 185.665L289.728 186.11L290 185.97L290 185.665L289.5 185.665ZM275.859 194.665L275.859 195.165L276.359 195.165L276.359 194.665L275.859 194.665ZM274.857 187.335L275.226 186.996L275.223 186.993L274.857 187.335ZM269.215 187.282L269.565 187.638L269.568 187.635L269.215 187.282ZM268.178 194.665L267.678 194.665L267.678 195.165L268.178 195.165L268.178 194.665ZM279.631 190.463L279.631 194.665L280.631 194.665L280.631 190.463L279.631 190.463ZM280.131 195.165L289.5 195.165L289.5 194.165L280.131 194.165L280.131 195.165ZM289 194.665L289 199.938L290 199.938L290 194.665L289 194.665ZM289.5 199.438L263.906 199.438L263.906 200.438L289.5 200.438L289.5 199.438ZM264.406 199.938L264.406 190.428L263.406 190.428L263.406 199.938L264.406 199.938ZM264.406 190.428C264.406 187.472 265.066 185.27 266.314 183.75L265.541 183.115C264.095 184.876 263.406 187.337 263.406 190.428L264.406 190.428ZM266.314 183.75C267.551 182.244 269.303 181.471 271.641 181.471L271.641 180.471C269.057 180.471 267 181.339 265.541 183.115L266.314 183.75ZM271.641 181.471C273.314 181.471 274.672 181.836 275.745 182.533L276.29 181.695C275.019 180.868 273.459 180.471 271.641 180.471L271.641 181.471ZM275.746 182.534C276.809 183.221 277.678 184.28 278.339 185.747L279.251 185.336C278.529 183.733 277.546 182.507 276.289 181.694L275.746 182.534ZM279.029 185.983L289.488 180.446L289.02 179.563L278.561 185.1L279.029 185.983ZM289.254 180.504L289.5 180.504L289.5 179.504L289.254 179.504L289.254 180.504ZM289 180.004L289 185.665L290 185.665L290 180.004L289 180.004ZM289.272 185.22L279.903 190.018L280.359 190.908L289.728 186.11L289.272 185.22ZM276.359 194.665L276.359 190.411L275.359 190.411L275.359 194.665L276.359 194.665ZM276.359 190.411C276.359 189.005 276.004 187.843 275.226 186.996L274.489 187.673C275.047 188.279 275.359 189.168 275.359 190.411L276.359 190.411ZM275.223 186.993C274.43 186.146 273.356 185.745 272.062 185.745L272.062 186.745C273.136 186.745 273.925 187.07 274.492 187.676L275.223 186.993ZM272.062 185.745C270.756 185.745 269.667 186.122 268.861 186.928L269.568 187.635C270.145 187.059 270.955 186.745 272.062 186.745L272.062 185.745ZM268.864 186.925C268.041 187.735 267.678 188.938 267.678 190.428L268.678 190.428C268.678 189.082 269.006 188.188 269.565 187.638L268.864 186.925ZM267.678 190.428L267.678 194.665L268.678 194.665L268.678 190.428L267.678 190.428ZM268.178 195.165L275.859 195.165L275.859 194.165L268.178 194.165L268.178 195.165ZM284.227 158.537L284.067 158.063L283.727 158.177L283.727 158.537L284.227 158.537ZM284.227 167.783L283.727 167.783L283.727 168.143L284.068 168.257L284.227 167.783ZM289.5 169.541L290 169.541L290 169.18L289.658 169.066L289.5 169.541ZM289.5 175.148L289.326 175.617L290 175.868L290 175.148L289.5 175.148ZM263.906 165.621L263.406 165.621L263.406 165.968L263.732 166.089L263.906 165.621ZM263.906 160.734L263.731 160.266L263.406 160.387L263.406 160.734L263.906 160.734ZM289.5 151.154L290 151.154L290 150.433L289.325 150.686L289.5 151.154ZM289.5 156.761L289.66 157.235L290 157.12L290 156.761L289.5 156.761ZM279.955 166.359L279.797 166.833L280.455 167.052L280.455 166.359L279.955 166.359ZM279.955 159.96L280.455 159.96L280.455 159.265L279.796 159.486L279.955 159.96ZM270.375 163.177L270.216 162.703L268.796 163.18L270.217 163.652L270.375 163.177ZM283.727 158.537L283.727 167.783L284.727 167.783L284.727 158.537L283.727 158.537ZM284.068 168.257L289.342 170.015L289.658 169.066L284.385 167.308L284.068 168.257ZM289 169.541L289 175.148L290 175.148L290 169.541L289 169.541ZM289.674 174.679L264.081 165.152L263.732 166.089L289.326 175.617L289.674 174.679ZM264.406 165.621L264.406 160.734L263.406 160.734L263.406 165.621L264.406 165.621ZM264.082 161.202L289.675 151.622L289.325 150.686L263.731 160.266L264.082 161.202ZM289 151.154L289 156.761L290 156.761L290 151.154L289 151.154ZM289.34 156.287L284.067 158.063L284.386 159.011L289.66 157.235L289.34 156.287ZM280.455 166.359L280.455 159.96L279.455 159.96L279.455 166.359L280.455 166.359ZM279.796 159.486L270.216 162.703L270.534 163.651L280.114 160.434L279.796 159.486ZM270.217 163.652L279.797 166.833L280.113 165.884L270.533 162.703L270.217 163.652ZM289.5 123.991L290 123.991L290 123.491L289.5 123.491L289.5 123.991ZM289.5 129.264L289.76 129.691L290 129.545L290 129.264L289.5 129.264ZM272.66 139.53L272.4 139.103L270.879 140.03L272.66 140.03L272.66 139.53ZM289.5 139.53L290 139.53L290 139.03L289.5 139.03L289.5 139.53ZM289.5 144.803L289.5 145.303L290 145.303L290 144.803L289.5 144.803ZM263.906 144.803L263.406 144.803L263.406 145.303L263.906 145.303L263.906 144.803ZM263.906 139.53L263.646 139.103L263.406 139.249L263.406 139.53L263.906 139.53ZM280.781 129.247L281.041 129.674L282.563 128.747L280.781 128.747L280.781 129.247ZM263.906 129.247L263.406 129.247L263.406 129.747L263.906 129.747L263.906 129.247ZM263.906 123.991L263.906 123.491L263.406 123.491L263.406 123.991L263.906 123.991ZM289 123.991L289 129.264L290 129.264L290 123.991L289 123.991ZM289.24 128.837L272.4 139.103L272.92 139.957L289.76 129.691L289.24 128.837ZM272.66 140.03L289.5 140.03L289.5 139.03L272.66 139.03L272.66 140.03ZM289 139.53L289 144.803L290 144.803L290 139.53L289 139.53ZM289.5 144.303L263.906 144.303L263.906 145.303L289.5 145.303L289.5 144.303ZM264.406 144.803L264.406 139.53L263.406 139.53L263.406 144.803L264.406 144.803ZM264.166 139.957L281.041 129.674L280.521 128.82L263.646 139.103L264.166 139.957ZM280.781 128.747L263.906 128.747L263.906 129.747L280.781 129.747L280.781 128.747ZM264.406 129.247L264.406 123.991L263.406 123.991L263.406 129.247L264.406 129.247ZM263.906 124.491L289.5 124.491L289.5 123.491L263.906 123.491L263.906 124.491ZM286.266 95.1752L286.586 94.7914L286.447 94.6752L286.266 94.6752L286.266 95.1752ZM288.92 99.2006L289.391 99.032L289.39 99.0292L288.92 99.2006ZM288.41 110.802L288.842 111.055L288.844 111.051L288.41 110.802ZM284.191 114.669L284.412 115.118L284.414 115.117L284.191 114.669ZM277.705 116.058L277.705 116.558L277.71 116.558L277.705 116.058ZM269.338 114.775L269.128 115.229L269.129 115.229L269.338 114.775ZM265.049 111.048L265.476 110.788L265.475 110.787L265.049 111.048ZM265.734 98.2162L266.115 98.5399L266.117 98.5384L265.734 98.2162ZM272.045 95.1752L272.545 95.1752L272.545 94.6148L271.988 94.6785L272.045 95.1752ZM272.045 100.308L272.124 100.802L272.545 100.734L272.545 100.308L272.045 100.308ZM268.828 101.872L269.209 102.197L269.211 102.194L268.828 101.872ZM275.842 110.697L275.84 111.197L275.842 111.197L275.842 110.697ZM284.35 100.449L284.703 100.095L284.557 99.9487L284.35 99.9487L284.35 100.449ZM279.937 100.449L279.937 99.9487L279.437 99.9487L279.437 100.449L279.937 100.449ZM279.937 105.247L279.937 105.747L280.437 105.747L280.437 105.247L279.937 105.247ZM276.053 105.247L275.553 105.247L275.553 105.747L276.053 105.747L276.053 105.247ZM276.053 95.1752L276.053 94.6752L275.553 94.6752L275.553 95.1752L276.053 95.1752ZM285.945 95.559C287 96.4395 287.84 97.7002 288.45 99.372L289.39 99.0292C288.734 97.2323 287.805 95.8094 286.586 94.7914L285.945 95.559ZM288.449 99.3692C289.048 101.042 289.352 102.906 289.352 104.966L290.352 104.966C290.352 102.808 290.034 100.828 289.391 99.0321L288.449 99.3692ZM289.352 104.966C289.352 107.107 288.888 108.964 287.976 110.553L288.844 111.051C289.854 109.289 290.352 107.255 290.352 104.966L289.352 104.966ZM287.978 110.55C287.058 112.124 285.728 113.348 283.969 114.222L284.414 115.117C286.335 114.163 287.817 112.808 288.842 111.054L287.978 110.55ZM283.971 114.22C282.211 115.084 280.126 115.535 277.7 115.558L277.71 116.558C280.253 116.534 282.492 116.06 284.412 115.118L283.971 114.22ZM277.705 115.558L275.965 115.558L275.965 116.558L277.705 116.558L277.705 115.558ZM275.965 115.558C273.465 115.558 271.33 115.139 269.547 114.32L269.129 115.229C271.072 116.121 273.355 116.558 275.965 116.558L275.965 115.558ZM269.548 114.321C267.754 113.492 266.404 112.313 265.476 110.788L264.622 111.308C265.662 113.018 267.172 114.324 269.128 115.229L269.548 114.321ZM265.475 110.787C264.534 109.248 264.055 107.436 264.055 105.335L263.055 105.335C263.055 107.594 263.572 109.591 264.622 111.309L265.475 110.787ZM264.055 105.335C264.055 102.377 264.762 100.133 266.115 98.5399L265.353 97.8926C263.8 99.7214 263.055 102.224 263.055 105.335L264.055 105.335ZM266.117 98.5384C267.457 96.9475 269.43 95.9776 272.102 95.672L271.988 94.6785C269.128 95.0057 266.895 96.0631 265.352 97.8941L266.117 98.5384ZM271.545 95.1752L271.545 100.308L272.545 100.308L272.545 95.1752L271.545 95.1752ZM271.966 99.8143C270.43 100.06 269.229 100.619 268.445 101.551L269.211 102.194C269.787 101.509 270.73 101.025 272.124 100.802L271.966 99.8143ZM268.448 101.548C267.668 102.462 267.309 103.693 267.309 105.177L268.309 105.177C268.309 103.849 268.629 102.876 269.209 102.197L268.448 101.548ZM267.309 105.177C267.309 107.116 268.049 108.643 269.545 109.683L270.116 108.862C268.916 108.028 268.309 106.824 268.309 105.177L267.309 105.177ZM269.545 109.683C271.013 110.705 273.135 111.185 275.84 111.197L275.844 110.197C273.228 110.185 271.343 109.716 270.116 108.862L269.545 109.683ZM275.842 111.197L277.477 111.197L277.477 110.197L275.842 110.197L275.842 111.197ZM277.477 111.197C280.21 111.197 282.363 110.68 283.857 109.569L283.26 108.766C282.012 109.694 280.11 110.197 277.477 110.197L277.477 111.197ZM283.857 109.569C285.375 108.44 286.115 106.784 286.115 104.685L285.115 104.685C285.115 106.523 284.484 107.856 283.26 108.766L283.857 109.569ZM286.115 104.685C286.115 102.655 285.686 101.078 284.703 100.095L283.996 100.802C284.7 101.507 285.115 102.754 285.115 104.685L286.115 104.685ZM284.35 99.9487L279.937 99.9487L279.937 100.949L284.35 100.949L284.35 99.9487ZM279.437 100.449L279.437 105.247L280.437 105.247L280.437 100.449L279.437 100.449ZM279.937 104.747L276.053 104.747L276.053 105.747L279.937 105.747L279.937 104.747ZM276.553 105.247L276.553 95.1752L275.553 95.1752L275.553 105.247L276.553 105.247ZM276.053 95.6752L286.266 95.6752L286.266 94.6752L276.053 94.6752L276.053 95.6752ZM278.408 71.5277L278.908 71.5277L278.908 71.0277L278.408 71.0277L278.408 71.5277ZM278.408 81.6527L277.908 81.6527L277.908 82.1527L278.408 82.1527L278.408 81.6527ZM285.264 81.6527L285.264 82.1527L285.764 82.1527L285.764 81.6527L285.264 81.6527ZM285.264 69.7699L285.264 69.2699L284.764 69.2699L284.764 69.7699L285.264 69.7699ZM289.5 69.7699L290 69.7699L290 69.2699L289.5 69.2699L289.5 69.7699ZM289.5 86.9262L289.5 87.4262L290 87.4262L290 86.9262L289.5 86.9262ZM263.906 86.9262L263.406 86.9262L263.406 87.4262L263.906 87.4262L263.906 86.9262ZM263.906 69.8051L263.906 69.3051L263.406 69.3051L263.406 69.8051L263.906 69.8051ZM268.178 69.8051L268.678 69.8051L268.678 69.3051L268.178 69.3051L268.178 69.8051ZM268.178 81.6527L267.678 81.6527L267.678 82.1527L268.178 82.1527L268.178 81.6527ZM274.277 81.6527L274.277 82.1527L274.777 82.1527L274.777 81.6527L274.277 81.6527ZM274.277 71.5277L274.277 71.0277L273.777 71.0277L273.777 71.5277L274.277 71.5277ZM277.908 71.5277L277.908 81.6527L278.908 81.6527L278.908 71.5277L277.908 71.5277ZM278.408 82.1527L285.264 82.1527L285.264 81.1527L278.408 81.1527L278.408 82.1527ZM285.764 81.6527L285.764 69.7699L284.764 69.7699L284.764 81.6527L285.764 81.6527ZM285.264 70.2699L289.5 70.2699L289.5 69.2699L285.264 69.2699L285.264 70.2699ZM289 69.7699L289 86.9262L290 86.9262L290 69.7699L289 69.7699ZM289.5 86.4262L263.906 86.4262L263.906 87.4262L289.5 87.4262L289.5 86.4262ZM264.406 86.9262L264.406 69.8051L263.406 69.8051L263.406 86.9262L264.406 86.9262ZM263.906 70.3051L268.178 70.3051L268.178 69.3051L263.906 69.3051L263.906 70.3051ZM267.678 69.8051L267.678 81.6527L268.678 81.6527L268.678 69.8051L267.678 69.8051ZM268.178 82.1527L274.277 82.1527L274.277 81.1527L268.178 81.1527L268.178 82.1527ZM274.777 81.6527L274.777 71.5277L273.777 71.5277L273.777 81.6527L274.777 81.6527ZM274.277 72.0277L278.408 72.0277L278.408 71.0277L274.277 71.0277L274.277 72.0277Z" fill="#D88100"/>
</g>
<path d="M28.0078 274.453H51.875V285H14.2969V228.125H28.0078V274.453ZM65.252 285H59.9785V259.406H65.252V285ZM95.1397 272.783C95.1397 275.303 94.6944 277.512 93.8037 279.41C92.9131 281.309 91.6358 282.773 89.9717 283.805C88.3194 284.836 86.4209 285.352 84.2764 285.352C82.1553 285.352 80.2627 284.842 78.5987 283.822C76.9346 282.803 75.6455 281.35 74.7315 279.463C73.8174 277.564 73.3545 275.385 73.3428 272.924V271.658C73.3428 269.139 73.794 266.924 74.6963 265.014C75.6104 263.092 76.8936 261.621 78.5459 260.602C80.21 259.57 82.1084 259.055 84.2412 259.055C86.3741 259.055 88.2666 259.57 89.919 260.602C91.583 261.621 92.8662 263.092 93.7686 265.014C94.6827 266.924 95.1397 269.133 95.1397 271.641V272.783ZM89.7959 271.623C89.7959 268.939 89.3155 266.9 88.3545 265.506C87.3936 264.111 86.0225 263.414 84.2412 263.414C82.4717 263.414 81.1065 264.105 80.1455 265.488C79.1846 266.859 78.6983 268.875 78.6866 271.535V272.783C78.6866 275.396 79.167 277.424 80.128 278.865C81.0889 280.307 82.4717 281.027 84.2764 281.027C86.0459 281.027 87.4053 280.336 88.3545 278.953C89.3037 277.559 89.7842 275.531 89.7959 272.871V271.623ZM123.744 285H118.471L108.205 268.16V285H102.932V259.406H108.205L118.488 276.281V259.406H123.744V285Z" fill="black"/>
<path d="M113.599 28.4141H107.789L106.471 32H105.337L110.18 19.2031H111.208L116.051 32H114.926L113.599 28.4141ZM108.123 27.4912H113.256L110.69 20.5215L108.123 27.4912ZM129.448 32H128.367L121.011 21.0488V32H119.921V19.2031H121.011L128.376 30.1631V19.2031H129.448V32ZM135.999 32H134.917V19.2031H135.999V32ZM142.892 19.2031L147.611 30.4971L152.349 19.2031H153.79V32H152.709V26.4277L152.797 20.7148L148.033 32H147.198L142.452 20.7588L142.54 26.3926V32H141.459V19.2031H142.892ZM166.08 28.4141H160.27L158.952 32H157.818L162.661 19.2031H163.689L168.532 32H167.407L166.08 28.4141ZM160.604 27.4912H165.737L163.17 20.5215L160.604 27.4912ZM173.491 31.0859H179.811V32H172.401V19.2031H173.491V31.0859ZM191.116 28.8535C191.116 28.1445 190.867 27.585 190.369 27.1748C189.871 26.7588 188.96 26.3662 187.635 25.9971C186.311 25.6221 185.344 25.2148 184.735 24.7754C183.868 24.1543 183.434 23.3398 183.434 22.332C183.434 21.3535 183.836 20.5596 184.638 19.9502C185.447 19.335 186.478 19.0273 187.732 19.0273C188.582 19.0273 189.34 19.1914 190.008 19.5195C190.682 19.8477 191.204 20.3047 191.573 20.8906C191.942 21.4766 192.127 22.1299 192.127 22.8506H191.037C191.037 21.9775 190.738 21.2773 190.14 20.75C189.543 20.2168 188.74 19.9502 187.732 19.9502C186.753 19.9502 185.974 20.1699 185.394 20.6094C184.814 21.043 184.524 21.6113 184.524 22.3145C184.524 22.9648 184.785 23.4951 185.306 23.9053C185.828 24.3154 186.663 24.6787 187.811 24.9951C188.96 25.3057 189.83 25.6309 190.421 25.9707C191.013 26.3047 191.459 26.7061 191.757 27.1748C192.056 27.6436 192.206 28.1973 192.206 28.8359C192.206 29.8438 191.801 30.6523 190.993 31.2617C190.19 31.8711 189.129 32.1758 187.811 32.1758C186.909 32.1758 186.08 32.0146 185.324 31.6924C184.574 31.3701 184.003 30.9189 183.61 30.3389C183.223 29.7588 183.03 29.0938 183.03 28.3438H184.111C184.111 29.2461 184.448 29.958 185.122 30.4795C185.795 31.001 186.692 31.2617 187.811 31.2617C188.807 31.2617 189.607 31.042 190.211 30.6025C190.814 30.1631 191.116 29.5801 191.116 28.8535Z" fill="black"/>
<path fill-rule="evenodd" clip-rule="evenodd" d="M68.0891 142.455C71.6715 149.865 82.1709 159.118 95.3123 162.464L94.1282 167.149C79.5618 163.439 67.8224 152.979 63.7599 144.563L68.0891 142.455Z" fill="#F8C648"/>
<path fill-rule="evenodd" clip-rule="evenodd" d="M56.2827 130.107C68.2805 130.929 72.5016 136.986 69.8653 147.942C58.2777 147.15 53.5513 141.457 56.2827 130.107Z" fill="#E8A040"/>
<path fill-rule="evenodd" clip-rule="evenodd" d="M115.908 201.949V174.139H120.984C121.041 170.569 121.958 168.521 125.368 168.521C132.256 168.521 137.839 178.55 137.839 190.924C137.839 203.297 129.25 213.327 122.361 213.327V225.672H126.645C128.64 225.672 130.257 227.313 130.257 229.336C130.257 231.359 128.64 233 126.645 233H117.103C115.475 233 113.146 228.491 113.146 225.672V204.75C113.146 203.202 114.382 201.949 115.908 201.949Z" fill="#E8A040"/>
<path fill-rule="evenodd" clip-rule="evenodd" d="M200.207 174.008V224.383H204.328C206.247 224.383 207.803 226.005 207.803 228.006C207.803 230.006 206.247 231.628 204.328 231.628H195.148C193.581 231.628 191.341 227.17 191.341 224.383V174.008H200.207Z" fill="#E8A040"/>
<path fill-rule="evenodd" clip-rule="evenodd" d="M89.8276 200.885V173.351C89.8276 164.365 96.0048 156.899 104.143 155.365L104.141 155.362C130.924 150.285 135.098 141.18 149.752 131.851C149.753 131.853 149.754 131.857 149.754 131.86C155.363 128.152 162.051 125.992 169.237 125.992C189.021 125.992 205.06 142.307 205.06 162.432C205.06 179.167 193.965 193.257 178.854 197.533V224.372H183.113C185.098 224.372 186.707 225.997 186.707 228.001C186.707 230.003 185.098 231.628 183.113 231.628H173.623C172.003 231.628 169.687 227.164 169.687 224.372V198.861C169.537 198.862 169.388 198.871 169.237 198.871H110.149V198.748C107.4 206.631 101.355 212.15 96.2467 212.15V224.372H100.508C102.492 224.372 104.101 225.997 104.101 228.001C104.101 230.003 102.492 231.628 100.508 231.628H91.0159C89.3968 231.628 87.0811 227.164 87.0811 224.372V203.658C87.0811 202.126 88.31 200.885 89.8276 200.885Z" fill="#F8AE48"/>
<path fill-rule="evenodd" clip-rule="evenodd" d="M152.053 87.1383L152.057 87.149C157.618 76.421 169.003 69.0622 182.154 69.0622C186.616 69.0622 190.872 69.9174 194.771 71.4547C194.789 71.4476 194.808 71.4413 194.827 71.4342C197.361 68.1177 202.531 67 204.728 67C202.418 67.7365 201.231 68.6176 200.498 69.7621C202.723 69.3077 205.025 69.0622 207.388 69.0622C220.538 69.0622 231.923 76.421 237.485 87.149L237.489 87.1383C243.998 99.433 246.456 116.847 238.358 135.244C237.966 134.493 237.522 133.835 236.955 133.145C233.432 140.273 228.332 148.753 221.242 157.091C221.074 156.723 220.579 155.829 220.294 155.263C213.995 163.159 205.044 173.442 194.771 179.496C184.498 173.442 175.546 163.159 169.248 155.263C168.962 155.829 168.468 156.723 168.299 157.091C161.21 148.753 156.109 140.273 152.587 133.145C152.02 133.835 151.576 134.493 151.183 135.244C143.085 116.847 145.543 99.433 152.053 87.1383Z" fill="#BD432C"/>
<path fill-rule="evenodd" clip-rule="evenodd" d="M205.06 130.107V140.888C205.06 144.784 200.146 147.942 194.085 147.942C188.024 147.942 183.11 144.784 183.11 140.888V130.107H205.06Z" fill="#E8A040"/>
<path fill-rule="evenodd" clip-rule="evenodd" d="M163.904 94.636C163.904 92.1948 165.938 90.216 168.446 90.216C169.653 90.216 170.748 90.6775 171.561 91.4256C174.64 88.2161 179.024 86.2065 183.891 86.2065C187.722 86.2065 191.253 87.4522 194.085 89.5461C196.917 87.4522 200.448 86.2065 204.279 86.2065C209.147 86.2065 213.529 88.2161 216.609 91.4256C217.423 90.6775 218.517 90.216 219.723 90.216C222.232 90.216 224.266 92.1948 224.266 94.636C224.266 96.7449 222.747 98.5056 220.717 98.9469C220.995 100.129 221.147 101.359 221.147 102.623C221.147 107.056 219.339 111.075 216.405 114.029V130.107H171.765V114.029C168.831 111.075 167.024 107.056 167.024 102.623C167.024 101.359 167.175 100.129 167.454 98.9469C165.424 98.5056 163.904 96.7449 163.904 94.636Z" fill="#F8C648"/>
<path fill-rule="evenodd" clip-rule="evenodd" d="M168.447 88.9504C169.653 88.9504 170.748 89.3855 171.561 90.0908C169.57 92.0484 168.128 94.48 167.454 97.1818C165.424 96.7658 163.904 95.1058 163.904 93.1175C163.904 90.816 165.938 88.9504 168.447 88.9504ZM224.266 93.1175C224.266 95.1058 222.747 96.7658 220.718 97.1818C220.044 94.48 218.601 92.0484 216.609 90.0908C217.423 89.3855 218.518 88.9504 219.724 88.9504C222.232 88.9504 224.266 90.816 224.266 93.1175Z" fill="#E8A040"/>
<path fill-rule="evenodd" clip-rule="evenodd" d="M183.11 120.504H205.06C211.121 120.504 216.034 125.11 216.034 130.792C216.034 136.476 211.121 141.083 205.06 141.083C198.998 141.083 194.086 136.476 194.085 130.793C194.084 136.476 189.171 141.083 183.11 141.083C177.049 141.083 172.135 136.476 172.135 130.792C172.135 125.11 177.049 120.504 183.11 120.504Z" fill="#FDEEA3"/>
<path fill-rule="evenodd" clip-rule="evenodd" d="M194.085 93.0662C195.6 93.0662 196.829 94.3278 196.829 95.8846V119.132H191.341V95.8846C191.341 94.3278 192.569 93.0662 194.085 93.0662Z" fill="#FDEEA3"/>
<path fill-rule="evenodd" clip-rule="evenodd" d="M206.431 129.421C206.431 129.042 206.124 128.736 205.746 128.736C205.367 128.736 205.06 129.042 205.06 129.421C205.06 129.8 205.367 130.107 205.746 130.107C206.124 130.107 206.431 129.8 206.431 129.421Z" fill="#212830"/>
<path fill-rule="evenodd" clip-rule="evenodd" d="M209.175 129.421C209.175 129.042 208.868 128.736 208.489 128.736C208.11 128.736 207.803 129.042 207.803 129.421C207.803 129.8 208.11 130.107 208.489 130.107C208.868 130.107 209.175 129.8 209.175 129.421Z" fill="#212830"/>
<path fill-rule="evenodd" clip-rule="evenodd" d="M210.547 129.421C210.547 129.042 210.24 128.736 209.861 128.736C209.481 128.736 209.175 129.042 209.175 129.421C209.175 129.8 209.481 130.107 209.861 130.107C210.24 130.107 210.547 129.8 210.547 129.421Z" fill="#212830"/>
<path fill-rule="evenodd" clip-rule="evenodd" d="M206.431 130.793C206.431 130.413 206.124 130.107 205.746 130.107C205.367 130.107 205.06 130.413 205.06 130.793C205.06 131.172 205.367 131.479 205.746 131.479C206.124 131.479 206.431 131.172 206.431 130.793Z" fill="#212830"/>
<path fill-rule="evenodd" clip-rule="evenodd" d="M209.175 130.793C209.175 130.413 208.868 130.107 208.489 130.107C208.11 130.107 207.803 130.413 207.803 130.793C207.803 131.172 208.11 131.479 208.489 131.479C208.868 131.479 209.175 131.172 209.175 130.793Z" fill="#212830"/>
<path fill-rule="evenodd" clip-rule="evenodd" d="M210.547 130.793C210.547 130.413 210.24 130.107 209.861 130.107C209.481 130.107 209.175 130.413 209.175 130.793C209.175 131.172 209.481 131.479 209.861 131.479C210.24 131.479 210.547 131.172 210.547 130.793Z" fill="#212830"/>
<path fill-rule="evenodd" clip-rule="evenodd" d="M207.803 129.422C207.803 129.043 207.496 128.736 207.117 128.736C206.738 128.736 206.431 129.043 206.431 129.422C206.431 129.8 206.738 130.107 207.117 130.107C207.496 130.107 207.803 129.8 207.803 129.422Z" fill="#212830"/>
<path fill-rule="evenodd" clip-rule="evenodd" d="M210.547 129.422C210.547 129.043 210.241 128.736 209.86 128.736C209.482 128.736 209.175 129.043 209.175 129.422C209.175 129.8 209.482 130.107 209.86 130.107C210.241 130.107 210.547 129.8 210.547 129.422Z" fill="#212830"/>
<path fill-rule="evenodd" clip-rule="evenodd" d="M183.11 129.421C183.11 129.042 183.417 128.736 183.797 128.736C184.176 128.736 184.482 129.042 184.482 129.421C184.482 129.8 184.176 130.107 183.797 130.107C183.417 130.107 183.11 129.8 183.11 129.421Z" fill="#212830"/>
<path fill-rule="evenodd" clip-rule="evenodd" d="M181.738 129.421C181.738 129.042 182.045 128.736 182.424 128.736C182.804 128.736 183.11 129.042 183.11 129.421C183.11 129.8 182.804 130.107 182.424 130.107C182.045 130.107 181.738 129.8 181.738 129.421Z" fill="#212830"/>
<path fill-rule="evenodd" clip-rule="evenodd" d="M177.623 129.421C177.623 129.042 177.929 128.736 178.308 128.736C178.687 128.736 178.995 129.042 178.995 129.421C178.995 129.8 178.687 130.107 178.308 130.107C177.929 130.107 177.623 129.8 177.623 129.421Z" fill="#212830"/>
<path fill-rule="evenodd" clip-rule="evenodd" d="M183.11 130.793C183.11 130.413 183.417 130.107 183.797 130.107C184.176 130.107 184.482 130.413 184.482 130.793C184.482 131.172 184.176 131.479 183.797 131.479C183.417 131.479 183.11 131.172 183.11 130.793Z" fill="#212830"/>
<path fill-rule="evenodd" clip-rule="evenodd" d="M181.738 130.793C181.738 130.413 182.045 130.107 182.424 130.107C182.804 130.107 183.11 130.413 183.11 130.793C183.11 131.172 182.804 131.479 182.424 131.479C182.045 131.479 181.738 131.172 181.738 130.793Z" fill="#212830"/>
<path fill-rule="evenodd" clip-rule="evenodd" d="M177.623 130.793C177.623 130.413 177.929 130.107 178.308 130.107C178.687 130.107 178.995 130.413 178.995 130.793C178.995 131.172 178.687 131.479 178.308 131.479C177.929 131.479 177.623 131.172 177.623 130.793Z" fill="#212830"/>
<path fill-rule="evenodd" clip-rule="evenodd" d="M181.738 129.422C181.738 129.043 182.045 128.736 182.424 128.736C182.803 128.736 183.11 129.043 183.11 129.422C183.11 129.8 182.803 130.107 182.424 130.107C182.045 130.107 181.738 129.8 181.738 129.422Z" fill="#212830"/>
<path fill-rule="evenodd" clip-rule="evenodd" d="M178.995 129.422C178.995 129.043 179.302 128.736 179.681 128.736C180.059 128.736 180.366 129.043 180.366 129.422C180.366 129.8 180.059 130.107 179.681 130.107C179.302 130.107 178.995 129.8 178.995 129.422Z" fill="#212830"/>
<path fill-rule="evenodd" clip-rule="evenodd" d="M207.803 112.958C207.803 111.822 206.882 110.901 205.746 110.901C204.609 110.901 203.688 111.822 203.688 112.958C203.688 114.095 204.609 115.017 205.746 115.017C206.882 115.017 207.803 114.095 207.803 112.958Z" fill="#212830"/>
<path fill-rule="evenodd" clip-rule="evenodd" d="M181.738 112.958C181.738 111.822 182.66 110.901 183.797 110.901C184.933 110.901 185.854 111.822 185.854 112.958C185.854 114.095 184.933 115.017 183.797 115.017C182.66 115.017 181.738 114.095 181.738 112.958Z" fill="#212830"/>
<path fill-rule="evenodd" clip-rule="evenodd" d="M190.446 123.248H197.723C199.502 123.248 200.944 124.448 200.944 125.929C200.944 127.41 199.502 128.611 197.723 128.611H196.336C195.864 128.611 195.413 128.738 195.033 128.933V129.317C195.033 129.754 194.609 130.107 194.084 130.107C193.56 130.107 193.135 129.754 193.135 129.317V128.933C192.757 128.738 192.305 128.611 191.834 128.611H190.446C188.668 128.611 187.226 127.41 187.226 125.929C187.226 124.448 188.668 123.248 190.446 123.248Z" fill="#212830"/>
</g>
<defs>
<filter id="filter0_d" x="262.055" y="68.2699" width="31.2969" height="164.757" filterUnits="userSpaceOnUse" color-interpolation-filters="sRGB">
<feFlood flood-opacity="0" result="BackgroundImageFix"/>
<feColorMatrix in="SourceAlpha" type="matrix" values="0 0 0 0 0 0 0 0 0 0 0 0 0 0 0 0 0 0 127 0"/>
<feOffset dx="1" dy="1"/>
<feGaussianBlur stdDeviation="1"/>
<feColorMatrix type="matrix" values="0 0 0 0 0 0 0 0 0 0 0 0 0 0 0 0 0 0 0.15 0"/>
<feBlend mode="normal" in2="BackgroundImageFix" result="effect1_dropShadow"/>
<feBlend mode="normal" in="SourceGraphic" in2="effect1_dropShadow" result="shape"/>
</filter>
<radialGradient id="paint0_radial" cx="0" cy="0" r="1" gradientUnits="userSpaceOnUse" gradientTransform="translate(150 150) rotate(90) scale(150)">
<stop offset="0.369792" stop-color="white" stop-opacity="0"/>
<stop offset="1" stop-color="#FFB800"/>
</radialGradient>
<clipPath id="clip0">
<rect width="300" height="300" fill="white"/>
</clipPath>
</defs>
</svg>
