<svg width="300" height="300" viewBox="0 0 300 300" fill="none" xmlns="http://www.w3.org/2000/svg">
<g clip-path="url(#clip0)">
<rect width="300" height="300" fill="white"/>
<rect width="300" height="300" fill="white"/>
<rect width="300" height="300" fill="white"/>
<rect width="300" height="300" fill="url(#paint0_radial)" fill-opacity="0.2"/>
<g filter="url(#filter0_d)">
<path d="M277.283 207.73C279.803 207.73 282.012 208.175 283.91 209.066C285.809 209.957 287.273 211.234 288.305 212.898C289.336 214.55 289.852 216.449 289.852 218.593C289.852 220.714 289.342 222.607 288.322 224.271C287.303 225.935 285.85 227.224 283.963 228.138C282.064 229.052 279.885 229.515 277.424 229.527L276.158 229.527C273.639 229.527 271.424 229.076 269.514 228.173C267.592 227.259 266.121 225.976 265.102 224.324C264.07 222.66 263.555 220.761 263.555 218.629C263.555 216.496 264.07 214.603 265.102 212.951C266.121 211.287 267.592 210.004 269.514 209.101C271.424 208.187 273.633 207.73 276.141 207.73L277.283 207.73ZM276.123 213.074C273.439 213.074 271.4 213.554 270.006 214.515C268.611 215.476 267.914 216.847 267.914 218.629C267.914 220.398 268.605 221.763 269.988 222.724C271.359 223.685 273.375 224.171 276.035 224.183L277.283 224.183C279.896 224.183 281.924 223.703 283.365 222.742C284.807 221.781 285.527 220.398 285.527 218.593C285.527 216.824 284.836 215.464 283.453 214.515C282.059 213.566 280.031 213.086 277.371 213.074L276.123 213.074ZM280.131 190.463L280.131 194.665L289.5 194.665L289.5 199.938L263.906 199.938L263.906 190.428C263.906 187.405 264.58 185.073 265.928 183.432C267.275 181.792 269.18 180.971 271.641 180.971C273.387 180.971 274.846 181.352 276.018 182.114C277.178 182.864 278.104 184.006 278.795 185.542L289.254 180.004L289.5 180.004L289.5 185.665L280.131 190.463ZM275.859 194.665L275.859 190.411C275.859 189.086 275.525 188.061 274.857 187.335C274.178 186.608 273.246 186.245 272.062 186.245C270.855 186.245 269.906 186.59 269.215 187.282C268.523 187.961 268.178 189.01 268.178 190.428L268.178 194.665L275.859 194.665ZM284.227 158.537L284.227 167.783L289.5 169.541L289.5 175.148L263.906 165.621L263.906 160.734L289.5 151.154L289.5 156.761L284.227 158.537ZM279.955 166.359L279.955 159.96L270.375 163.177L279.955 166.359ZM289.5 123.991L289.5 129.264L272.66 139.53L289.5 139.53L289.5 144.803L263.906 144.803L263.906 139.53L280.781 129.247L263.906 129.247L263.906 123.991L289.5 123.991ZM286.266 95.1752C287.402 96.1244 288.287 97.4662 288.92 99.2006C289.541 100.935 289.852 102.857 289.852 104.966C289.852 107.181 289.371 109.126 288.41 110.802C287.437 112.466 286.031 113.755 284.191 114.669C282.352 115.572 280.189 116.035 277.705 116.058L275.965 116.058C273.41 116.058 271.201 115.63 269.338 114.775C267.463 113.908 266.033 112.665 265.049 111.048C264.053 109.419 263.555 107.515 263.555 105.335C263.555 102.3 264.281 99.9272 265.734 98.2162C267.176 96.5053 269.279 95.4916 272.045 95.1752L272.045 100.308C270.58 100.542 269.508 101.064 268.828 101.872C268.148 102.669 267.809 103.771 267.809 105.177C267.809 106.97 268.482 108.335 269.83 109.273C271.178 110.21 273.182 110.685 275.842 110.697L277.477 110.697C280.16 110.697 282.187 110.187 283.559 109.167C284.93 108.148 285.615 106.654 285.615 104.685C285.615 102.705 285.193 101.292 284.35 100.449L279.937 100.449L279.937 105.247L276.053 105.247L276.053 95.1752L286.266 95.1752ZM278.408 71.5277L278.408 81.6527L285.264 81.6527L285.264 69.7699L289.5 69.7699L289.5 86.9262L263.906 86.9262L263.906 69.8051L268.178 69.8051L268.178 81.6527L274.277 81.6527L274.277 71.5277L278.408 71.5277Z" fill="white"/>
<path d="M288.305 212.898L287.88 213.161L287.881 213.163L288.305 212.898ZM283.963 228.138L284.18 228.589L284.181 228.588L283.963 228.138ZM277.424 229.527L277.424 230.027L277.426 230.027L277.424 229.527ZM269.514 228.173L269.299 228.625L269.3 228.626L269.514 228.173ZM265.102 224.324L265.527 224.061L265.527 224.06L265.102 224.324ZM265.102 212.951L265.526 213.216L265.528 213.212L265.102 212.951ZM269.514 209.101L269.726 209.554L269.729 209.552L269.514 209.101ZM269.988 222.724L270.275 222.315L270.274 222.314L269.988 222.724ZM276.035 224.183L276.033 224.683L276.035 224.683L276.035 224.183ZM283.453 214.515L283.736 214.103L283.734 214.102L283.453 214.515ZM277.371 213.074L277.373 212.574L277.371 212.574L277.371 213.074ZM277.283 208.23C279.744 208.23 281.878 208.665 283.698 209.519L284.123 208.613C282.146 207.686 279.862 207.23 277.283 207.23L277.283 208.23ZM283.698 209.519C285.515 210.371 286.903 211.586 287.88 213.161L288.73 212.635C287.644 210.882 286.102 209.542 284.123 208.613L283.698 209.519ZM287.881 213.163C288.857 214.728 289.352 216.533 289.352 218.593L290.352 218.593C290.352 216.365 289.815 214.373 288.729 212.633L287.881 213.163ZM289.352 218.593C289.352 220.631 288.863 222.431 287.896 224.01L288.749 224.532C289.82 222.783 290.352 220.798 290.352 218.593L289.352 218.593ZM287.896 224.01C286.93 225.586 285.552 226.813 283.745 227.688L284.181 228.588C286.147 227.636 287.675 226.284 288.749 224.532L287.896 224.01ZM283.746 227.688C281.925 228.565 279.82 229.016 277.421 229.027L277.426 230.027C279.949 230.015 282.204 229.54 284.18 228.589L283.746 227.688ZM277.424 229.027L276.158 229.027L276.158 230.027L277.424 230.027L277.424 229.027ZM276.158 229.027C273.698 229.027 271.559 228.587 269.727 227.721L269.3 228.626C271.289 229.565 273.579 230.027 276.158 230.027L276.158 229.027ZM269.728 227.722C267.885 226.845 266.491 225.624 265.527 224.061L264.676 224.586C265.751 226.329 267.299 227.674 269.299 228.625L269.728 227.722ZM265.527 224.06C264.549 222.483 264.055 220.677 264.055 218.629L263.055 218.629C263.055 220.846 263.592 222.837 264.677 224.587L265.527 224.06ZM264.055 218.629C264.055 216.58 264.549 214.781 265.526 213.216L264.677 212.686C263.592 214.425 263.055 216.411 263.055 218.629L264.055 218.629ZM265.528 213.212C266.492 211.639 267.885 210.418 269.726 209.554L269.301 208.649C267.299 209.589 265.75 210.935 264.675 212.69L265.528 213.212ZM269.729 209.552C271.561 208.676 273.694 208.23 276.141 208.23L276.141 207.23C273.572 207.23 271.287 207.698 269.298 208.65L269.729 209.552ZM276.141 208.23L277.283 208.23L277.283 207.23L276.141 207.23L276.141 208.23ZM276.123 212.574C273.393 212.574 271.236 213.06 269.722 214.104L270.29 214.927C271.565 214.048 273.486 213.574 276.123 213.574L276.123 212.574ZM269.722 214.104C268.184 215.163 267.414 216.693 267.414 218.629L268.414 218.629C268.414 217.002 269.039 215.789 270.29 214.927L269.722 214.104ZM267.414 218.629C267.414 220.552 268.178 222.075 269.703 223.135L270.274 222.314C269.033 221.452 268.414 220.244 268.414 218.629L267.414 218.629ZM269.701 223.134C271.192 224.178 273.326 224.671 276.033 224.683L276.037 223.683C273.424 223.672 271.527 223.192 270.275 222.315L269.701 223.134ZM276.035 224.683L277.283 224.683L277.283 223.683L276.035 223.683L276.035 224.683ZM277.283 224.683C279.948 224.683 282.087 224.195 283.643 223.158L283.088 222.326C281.761 223.211 279.845 223.683 277.283 223.683L277.283 224.683ZM283.643 223.158C285.23 222.1 286.027 220.557 286.027 218.593L285.027 218.593C285.027 220.239 284.383 221.462 283.088 222.326L283.643 223.158ZM286.027 218.593C286.027 216.67 285.263 215.151 283.736 214.103L283.17 214.927C284.408 215.777 285.027 216.978 285.027 218.593L286.027 218.593ZM283.734 214.102C282.223 213.073 280.08 212.586 277.373 212.574L277.369 213.574C279.982 213.585 281.895 214.059 283.172 214.929L283.734 214.102ZM277.371 212.574L276.123 212.574L276.123 213.574L277.371 213.574L277.371 212.574ZM280.131 190.463L279.903 190.018L279.631 190.158L279.631 190.463L280.131 190.463ZM280.131 194.665L279.631 194.665L279.631 195.165L280.131 195.165L280.131 194.665ZM289.5 194.665L290 194.665L290 194.165L289.5 194.165L289.5 194.665ZM289.5 199.938L289.5 200.438L290 200.438L290 199.938L289.5 199.938ZM263.906 199.938L263.406 199.938L263.406 200.438L263.906 200.438L263.906 199.938ZM276.018 182.114L275.745 182.533L275.746 182.534L276.018 182.114ZM278.795 185.542L278.339 185.747L278.558 186.233L279.029 185.983L278.795 185.542ZM289.254 180.004L289.254 179.504L289.13 179.504L289.02 179.563L289.254 180.004ZM289.5 180.004L290 180.004L290 179.504L289.5 179.504L289.5 180.004ZM289.5 185.665L289.728 186.11L290 185.97L290 185.665L289.5 185.665ZM275.859 194.665L275.859 195.165L276.359 195.165L276.359 194.665L275.859 194.665ZM274.857 187.335L275.226 186.996L275.223 186.993L274.857 187.335ZM269.215 187.282L269.565 187.638L269.568 187.635L269.215 187.282ZM268.178 194.665L267.678 194.665L267.678 195.165L268.178 195.165L268.178 194.665ZM279.631 190.463L279.631 194.665L280.631 194.665L280.631 190.463L279.631 190.463ZM280.131 195.165L289.5 195.165L289.5 194.165L280.131 194.165L280.131 195.165ZM289 194.665L289 199.938L290 199.938L290 194.665L289 194.665ZM289.5 199.438L263.906 199.438L263.906 200.438L289.5 200.438L289.5 199.438ZM264.406 199.938L264.406 190.428L263.406 190.428L263.406 199.938L264.406 199.938ZM264.406 190.428C264.406 187.472 265.066 185.27 266.314 183.75L265.541 183.115C264.095 184.876 263.406 187.337 263.406 190.428L264.406 190.428ZM266.314 183.75C267.551 182.244 269.303 181.471 271.641 181.471L271.641 180.471C269.057 180.471 267 181.339 265.541 183.115L266.314 183.75ZM271.641 181.471C273.314 181.471 274.672 181.836 275.745 182.533L276.29 181.695C275.019 180.868 273.459 180.471 271.641 180.471L271.641 181.471ZM275.746 182.534C276.809 183.221 277.678 184.28 278.339 185.747L279.251 185.336C278.529 183.733 277.546 182.507 276.289 181.694L275.746 182.534ZM279.029 185.983L289.488 180.446L289.02 179.563L278.561 185.1L279.029 185.983ZM289.254 180.504L289.5 180.504L289.5 179.504L289.254 179.504L289.254 180.504ZM289 180.004L289 185.665L290 185.665L290 180.004L289 180.004ZM289.272 185.22L279.903 190.018L280.359 190.908L289.728 186.11L289.272 185.22ZM276.359 194.665L276.359 190.411L275.359 190.411L275.359 194.665L276.359 194.665ZM276.359 190.411C276.359 189.005 276.004 187.843 275.226 186.996L274.489 187.673C275.047 188.279 275.359 189.168 275.359 190.411L276.359 190.411ZM275.223 186.993C274.43 186.146 273.356 185.745 272.062 185.745L272.062 186.745C273.136 186.745 273.925 187.07 274.492 187.676L275.223 186.993ZM272.062 185.745C270.756 185.745 269.667 186.122 268.861 186.928L269.568 187.635C270.145 187.059 270.955 186.745 272.062 186.745L272.062 185.745ZM268.864 186.925C268.041 187.735 267.678 188.938 267.678 190.428L268.678 190.428C268.678 189.082 269.006 188.188 269.565 187.638L268.864 186.925ZM267.678 190.428L267.678 194.665L268.678 194.665L268.678 190.428L267.678 190.428ZM268.178 195.165L275.859 195.165L275.859 194.165L268.178 194.165L268.178 195.165ZM284.227 158.537L284.067 158.063L283.727 158.177L283.727 158.537L284.227 158.537ZM284.227 167.783L283.727 167.783L283.727 168.143L284.068 168.257L284.227 167.783ZM289.5 169.541L290 169.541L290 169.18L289.658 169.066L289.5 169.541ZM289.5 175.148L289.326 175.617L290 175.868L290 175.148L289.5 175.148ZM263.906 165.621L263.406 165.621L263.406 165.968L263.732 166.089L263.906 165.621ZM263.906 160.734L263.731 160.266L263.406 160.387L263.406 160.734L263.906 160.734ZM289.5 151.154L290 151.154L290 150.433L289.325 150.686L289.5 151.154ZM289.5 156.761L289.66 157.235L290 157.12L290 156.761L289.5 156.761ZM279.955 166.359L279.797 166.833L280.455 167.052L280.455 166.359L279.955 166.359ZM279.955 159.96L280.455 159.96L280.455 159.265L279.796 159.486L279.955 159.96ZM270.375 163.177L270.216 162.703L268.796 163.18L270.217 163.652L270.375 163.177ZM283.727 158.537L283.727 167.783L284.727 167.783L284.727 158.537L283.727 158.537ZM284.068 168.257L289.342 170.015L289.658 169.066L284.385 167.308L284.068 168.257ZM289 169.541L289 175.148L290 175.148L290 169.541L289 169.541ZM289.674 174.679L264.081 165.152L263.732 166.089L289.326 175.617L289.674 174.679ZM264.406 165.621L264.406 160.734L263.406 160.734L263.406 165.621L264.406 165.621ZM264.082 161.202L289.675 151.622L289.325 150.686L263.731 160.266L264.082 161.202ZM289 151.154L289 156.761L290 156.761L290 151.154L289 151.154ZM289.34 156.287L284.067 158.063L284.386 159.011L289.66 157.235L289.34 156.287ZM280.455 166.359L280.455 159.96L279.455 159.96L279.455 166.359L280.455 166.359ZM279.796 159.486L270.216 162.703L270.534 163.651L280.114 160.434L279.796 159.486ZM270.217 163.652L279.797 166.833L280.113 165.884L270.533 162.703L270.217 163.652ZM289.5 123.991L290 123.991L290 123.491L289.5 123.491L289.5 123.991ZM289.5 129.264L289.76 129.691L290 129.545L290 129.264L289.5 129.264ZM272.66 139.53L272.4 139.103L270.879 140.03L272.66 140.03L272.66 139.53ZM289.5 139.53L290 139.53L290 139.03L289.5 139.03L289.5 139.53ZM289.5 144.803L289.5 145.303L290 145.303L290 144.803L289.5 144.803ZM263.906 144.803L263.406 144.803L263.406 145.303L263.906 145.303L263.906 144.803ZM263.906 139.53L263.646 139.103L263.406 139.249L263.406 139.53L263.906 139.53ZM280.781 129.247L281.041 129.674L282.563 128.747L280.781 128.747L280.781 129.247ZM263.906 129.247L263.406 129.247L263.406 129.747L263.906 129.747L263.906 129.247ZM263.906 123.991L263.906 123.491L263.406 123.491L263.406 123.991L263.906 123.991ZM289 123.991L289 129.264L290 129.264L290 123.991L289 123.991ZM289.24 128.837L272.4 139.103L272.92 139.957L289.76 129.691L289.24 128.837ZM272.66 140.03L289.5 140.03L289.5 139.03L272.66 139.03L272.66 140.03ZM289 139.53L289 144.803L290 144.803L290 139.53L289 139.53ZM289.5 144.303L263.906 144.303L263.906 145.303L289.5 145.303L289.5 144.303ZM264.406 144.803L264.406 139.53L263.406 139.53L263.406 144.803L264.406 144.803ZM264.166 139.957L281.041 129.674L280.521 128.82L263.646 139.103L264.166 139.957ZM280.781 128.747L263.906 128.747L263.906 129.747L280.781 129.747L280.781 128.747ZM264.406 129.247L264.406 123.991L263.406 123.991L263.406 129.247L264.406 129.247ZM263.906 124.491L289.5 124.491L289.5 123.491L263.906 123.491L263.906 124.491ZM286.266 95.1752L286.586 94.7914L286.447 94.6752L286.266 94.6752L286.266 95.1752ZM288.92 99.2006L289.391 99.032L289.39 99.0292L288.92 99.2006ZM288.41 110.802L288.842 111.055L288.844 111.051L288.41 110.802ZM284.191 114.669L284.412 115.118L284.414 115.117L284.191 114.669ZM277.705 116.058L277.705 116.558L277.71 116.558L277.705 116.058ZM269.338 114.775L269.128 115.229L269.129 115.229L269.338 114.775ZM265.049 111.048L265.476 110.788L265.475 110.787L265.049 111.048ZM265.734 98.2162L266.115 98.5399L266.117 98.5384L265.734 98.2162ZM272.045 95.1752L272.545 95.1752L272.545 94.6148L271.988 94.6785L272.045 95.1752ZM272.045 100.308L272.124 100.802L272.545 100.734L272.545 100.308L272.045 100.308ZM268.828 101.872L269.209 102.197L269.211 102.194L268.828 101.872ZM275.842 110.697L275.84 111.197L275.842 111.197L275.842 110.697ZM284.35 100.449L284.703 100.095L284.557 99.9487L284.35 99.9487L284.35 100.449ZM279.937 100.449L279.937 99.9487L279.437 99.9487L279.437 100.449L279.937 100.449ZM279.937 105.247L279.937 105.747L280.437 105.747L280.437 105.247L279.937 105.247ZM276.053 105.247L275.553 105.247L275.553 105.747L276.053 105.747L276.053 105.247ZM276.053 95.1752L276.053 94.6752L275.553 94.6752L275.553 95.1752L276.053 95.1752ZM285.945 95.559C287 96.4395 287.84 97.7002 288.45 99.372L289.39 99.0292C288.734 97.2323 287.805 95.8094 286.586 94.7914L285.945 95.559ZM288.449 99.3692C289.048 101.042 289.352 102.906 289.352 104.966L290.352 104.966C290.352 102.808 290.034 100.828 289.391 99.0321L288.449 99.3692ZM289.352 104.966C289.352 107.107 288.888 108.964 287.976 110.553L288.844 111.051C289.854 109.289 290.352 107.255 290.352 104.966L289.352 104.966ZM287.978 110.55C287.058 112.124 285.728 113.348 283.969 114.222L284.414 115.117C286.335 114.163 287.817 112.808 288.842 111.054L287.978 110.55ZM283.971 114.22C282.211 115.084 280.126 115.535 277.7 115.558L277.71 116.558C280.253 116.534 282.492 116.06 284.412 115.118L283.971 114.22ZM277.705 115.558L275.965 115.558L275.965 116.558L277.705 116.558L277.705 115.558ZM275.965 115.558C273.465 115.558 271.33 115.139 269.547 114.32L269.129 115.229C271.072 116.121 273.355 116.558 275.965 116.558L275.965 115.558ZM269.548 114.321C267.754 113.492 266.404 112.313 265.476 110.788L264.622 111.308C265.662 113.018 267.172 114.324 269.128 115.229L269.548 114.321ZM265.475 110.787C264.534 109.248 264.055 107.436 264.055 105.335L263.055 105.335C263.055 107.594 263.572 109.591 264.622 111.309L265.475 110.787ZM264.055 105.335C264.055 102.377 264.762 100.133 266.115 98.5399L265.353 97.8926C263.8 99.7214 263.055 102.224 263.055 105.335L264.055 105.335ZM266.117 98.5384C267.457 96.9475 269.43 95.9776 272.102 95.672L271.988 94.6785C269.128 95.0057 266.895 96.0631 265.352 97.8941L266.117 98.5384ZM271.545 95.1752L271.545 100.308L272.545 100.308L272.545 95.1752L271.545 95.1752ZM271.966 99.8143C270.43 100.06 269.229 100.619 268.445 101.551L269.211 102.194C269.787 101.509 270.73 101.025 272.124 100.802L271.966 99.8143ZM268.448 101.548C267.668 102.462 267.309 103.693 267.309 105.177L268.309 105.177C268.309 103.849 268.629 102.876 269.209 102.197L268.448 101.548ZM267.309 105.177C267.309 107.116 268.049 108.643 269.545 109.683L270.116 108.862C268.916 108.028 268.309 106.824 268.309 105.177L267.309 105.177ZM269.545 109.683C271.013 110.705 273.135 111.185 275.84 111.197L275.844 110.197C273.228 110.185 271.343 109.716 270.116 108.862L269.545 109.683ZM275.842 111.197L277.477 111.197L277.477 110.197L275.842 110.197L275.842 111.197ZM277.477 111.197C280.21 111.197 282.363 110.68 283.857 109.569L283.26 108.766C282.012 109.694 280.11 110.197 277.477 110.197L277.477 111.197ZM283.857 109.569C285.375 108.44 286.115 106.784 286.115 104.685L285.115 104.685C285.115 106.523 284.484 107.856 283.26 108.766L283.857 109.569ZM286.115 104.685C286.115 102.655 285.686 101.078 284.703 100.095L283.996 100.802C284.7 101.507 285.115 102.754 285.115 104.685L286.115 104.685ZM284.35 99.9487L279.937 99.9487L279.937 100.949L284.35 100.949L284.35 99.9487ZM279.437 100.449L279.437 105.247L280.437 105.247L280.437 100.449L279.437 100.449ZM279.937 104.747L276.053 104.747L276.053 105.747L279.937 105.747L279.937 104.747ZM276.553 105.247L276.553 95.1752L275.553 95.1752L275.553 105.247L276.553 105.247ZM276.053 95.6752L286.266 95.6752L286.266 94.6752L276.053 94.6752L276.053 95.6752ZM278.408 71.5277L278.908 71.5277L278.908 71.0277L278.408 71.0277L278.408 71.5277ZM278.408 81.6527L277.908 81.6527L277.908 82.1527L278.408 82.1527L278.408 81.6527ZM285.264 81.6527L285.264 82.1527L285.764 82.1527L285.764 81.6527L285.264 81.6527ZM285.264 69.7699L285.264 69.2699L284.764 69.2699L284.764 69.7699L285.264 69.7699ZM289.5 69.7699L290 69.7699L290 69.2699L289.5 69.2699L289.5 69.7699ZM289.5 86.9262L289.5 87.4262L290 87.4262L290 86.9262L289.5 86.9262ZM263.906 86.9262L263.406 86.9262L263.406 87.4262L263.906 87.4262L263.906 86.9262ZM263.906 69.8051L263.906 69.3051L263.406 69.3051L263.406 69.8051L263.906 69.8051ZM268.178 69.8051L268.678 69.8051L268.678 69.3051L268.178 69.3051L268.178 69.8051ZM268.178 81.6527L267.678 81.6527L267.678 82.1527L268.178 82.1527L268.178 81.6527ZM274.277 81.6527L274.277 82.1527L274.777 82.1527L274.777 81.6527L274.277 81.6527ZM274.277 71.5277L274.277 71.0277L273.777 71.0277L273.777 71.5277L274.277 71.5277ZM277.908 71.5277L277.908 81.6527L278.908 81.6527L278.908 71.5277L277.908 71.5277ZM278.408 82.1527L285.264 82.1527L285.264 81.1527L278.408 81.1527L278.408 82.1527ZM285.764 81.6527L285.764 69.7699L284.764 69.7699L284.764 81.6527L285.764 81.6527ZM285.264 70.2699L289.5 70.2699L289.5 69.2699L285.264 69.2699L285.264 70.2699ZM289 69.7699L289 86.9262L290 86.9262L290 69.7699L289 69.7699ZM289.5 86.4262L263.906 86.4262L263.906 87.4262L289.5 87.4262L289.5 86.4262ZM264.406 86.9262L264.406 69.8051L263.406 69.8051L263.406 86.9262L264.406 86.9262ZM263.906 70.3051L268.178 70.3051L268.178 69.3051L263.906 69.3051L263.906 70.3051ZM267.678 69.8051L267.678 81.6527L268.678 81.6527L268.678 69.8051L267.678 69.8051ZM268.178 82.1527L274.277 82.1527L274.277 81.1527L268.178 81.1527L268.178 82.1527ZM274.777 81.6527L274.777 71.5277L273.777 71.5277L273.777 81.6527L274.777 81.6527ZM274.277 72.0277L278.408 72.0277L278.408 71.0277L274.277 71.0277L274.277 72.0277Z" fill="#D88100"/>
</g>
<path d="M32.3047 228.125L45 267.695L57.6562 228.125H75.7031V285H61.9531V271.719L63.2812 244.531L49.5312 285H40.4688L26.6797 244.492L28.0078 271.719V285H14.2969V228.125H32.3047ZM100.891 279.727H91.6445L89.8867 285H84.2793L93.8066 259.406H98.6934L108.273 285H102.666L100.891 279.727ZM93.0684 275.455H99.4668L96.25 265.875L93.0684 275.455ZM124.099 275.631H119.897V285H114.624V259.406H124.134C127.157 259.406 129.489 260.08 131.13 261.428C132.771 262.775 133.591 264.68 133.591 267.141C133.591 268.887 133.21 270.346 132.448 271.518C131.698 272.678 130.556 273.604 129.021 274.295L134.558 284.754V285H128.897L124.099 275.631ZM119.897 271.359H124.151C125.476 271.359 126.501 271.025 127.228 270.357C127.954 269.678 128.317 268.746 128.317 267.562C128.317 266.355 127.972 265.406 127.28 264.715C126.601 264.023 125.552 263.678 124.134 263.678H119.897V271.359ZM156.025 279.727H146.779L145.022 285H139.414L148.941 259.406H153.828L163.408 285H157.801L156.025 279.727ZM148.203 275.455H154.602L151.385 265.875L148.203 275.455ZM189.464 276.475C189.265 279.229 188.245 281.396 186.405 282.979C184.577 284.561 182.163 285.352 179.163 285.352C175.882 285.352 173.298 284.25 171.411 282.047C169.536 279.832 168.599 276.797 168.599 272.941V271.377C168.599 268.916 169.032 266.748 169.9 264.873C170.767 262.998 172.003 261.562 173.609 260.566C175.226 259.559 177.101 259.055 179.234 259.055C182.187 259.055 184.566 259.846 186.37 261.428C188.175 263.01 189.218 265.23 189.499 268.09H184.226C184.097 266.438 183.634 265.242 182.837 264.504C182.052 263.754 180.851 263.379 179.234 263.379C177.476 263.379 176.157 264.012 175.278 265.277C174.411 266.531 173.966 268.482 173.943 271.131V273.064C173.943 275.83 174.359 277.852 175.191 279.129C176.034 280.406 177.359 281.045 179.163 281.045C180.792 281.045 182.005 280.676 182.802 279.938C183.61 279.188 184.073 278.033 184.191 276.475H189.464ZM211.336 279.727H202.09L200.332 285H194.725L204.252 259.406H209.139L218.719 285H213.111L211.336 279.727ZM203.514 275.455H209.912L206.695 265.875L203.514 275.455ZM238.341 278.285C238.341 277.289 237.989 276.527 237.286 276C236.583 275.461 235.318 274.898 233.489 274.312C231.661 273.715 230.214 273.129 229.148 272.555C226.241 270.984 224.788 268.869 224.788 266.209C224.788 264.826 225.175 263.596 225.948 262.518C226.734 261.428 227.853 260.578 229.306 259.969C230.771 259.359 232.411 259.055 234.228 259.055C236.056 259.055 237.685 259.389 239.114 260.057C240.544 260.713 241.652 261.645 242.437 262.852C243.234 264.059 243.632 265.43 243.632 266.965H238.359C238.359 265.793 237.989 264.885 237.251 264.24C236.513 263.584 235.476 263.256 234.14 263.256C232.851 263.256 231.849 263.531 231.134 264.082C230.419 264.621 230.062 265.336 230.062 266.227C230.062 267.059 230.478 267.756 231.31 268.318C232.154 268.881 233.39 269.408 235.019 269.9C238.019 270.803 240.204 271.922 241.575 273.258C242.946 274.594 243.632 276.258 243.632 278.25C243.632 280.465 242.794 282.205 241.118 283.471C239.443 284.725 237.187 285.352 234.351 285.352C232.382 285.352 230.589 284.994 228.972 284.279C227.355 283.553 226.118 282.562 225.263 281.309C224.419 280.055 223.997 278.602 223.997 276.949H229.288C229.288 279.773 230.976 281.186 234.351 281.186C235.605 281.186 236.583 280.934 237.286 280.43C237.989 279.914 238.341 279.199 238.341 278.285Z" fill="black"/>
<path d="M33.4456 19.2031L38.1654 30.4971L42.9027 19.2031H44.3441V32H43.263V26.4277L43.3509 20.7148L38.5872 32H37.7523L33.0062 20.7588L33.0941 26.3926V32H32.013V19.2031H33.4456ZM58.3827 19.2031V27.9395C58.3768 28.8008 58.1864 29.5508 57.8114 30.1895C57.4364 30.8281 56.9061 31.3203 56.2205 31.666C55.5409 32.0059 54.7586 32.1758 53.8739 32.1758C52.5262 32.1758 51.4452 31.8096 50.6307 31.0771C49.8221 30.3389 49.4032 29.3193 49.3739 28.0186V19.2031H50.4461V27.8604C50.4461 28.9385 50.7537 29.7764 51.369 30.374C51.9842 30.9658 52.8192 31.2617 53.8739 31.2617C54.9286 31.2617 55.7606 30.9629 56.37 30.3652C56.9852 29.7676 57.2928 28.9355 57.2928 27.8691V19.2031H58.3827ZM70.6195 28.8535C70.6195 28.1445 70.3705 27.585 69.8724 27.1748C69.3744 26.7588 68.4632 26.3662 67.139 25.9971C65.8148 25.6221 64.848 25.2148 64.2386 24.7754C63.3714 24.1543 62.9379 23.3398 62.9379 22.332C62.9379 21.3535 63.3392 20.5596 64.142 19.9502C64.9505 19.335 65.9818 19.0273 67.2357 19.0273C68.0853 19.0273 68.8441 19.1914 69.5121 19.5195C70.1859 19.8477 70.7074 20.3047 71.0765 20.8906C71.4457 21.4766 71.6302 22.1299 71.6302 22.8506H70.5404C70.5404 21.9775 70.2416 21.2773 69.6439 20.75C69.0462 20.2168 68.2435 19.9502 67.2357 19.9502C66.2572 19.9502 65.4779 20.1699 64.8978 20.6094C64.3177 21.043 64.0277 21.6113 64.0277 22.3145C64.0277 22.9648 64.2884 23.4951 64.8099 23.9053C65.3314 24.3154 66.1664 24.6787 67.3148 24.9951C68.4632 25.3057 69.3334 25.6309 69.9252 25.9707C70.517 26.3047 70.9623 26.7061 71.2611 27.1748C71.5599 27.6436 71.7093 28.1973 71.7093 28.8359C71.7093 29.8438 71.305 30.6523 70.4964 31.2617C69.6937 31.8711 68.6332 32.1758 67.3148 32.1758C66.4125 32.1758 65.5834 32.0146 64.8275 31.6924C64.0775 31.3701 63.5062 30.9189 63.1136 30.3389C62.7269 29.7588 62.5336 29.0938 62.5336 28.3438H63.6146C63.6146 29.2461 63.9515 29.958 64.6254 30.4795C65.2992 31.001 66.1957 31.2617 67.3148 31.2617C68.3109 31.2617 69.1107 31.042 69.7142 30.6025C70.3177 30.1631 70.6195 29.5801 70.6195 28.8535ZM77.3456 32H76.2645V19.2031H77.3456V32ZM91.8676 28.0098C91.7211 29.3574 91.2377 30.3887 90.4174 31.1035C89.6029 31.8184 88.516 32.1758 87.1566 32.1758C86.2074 32.1758 85.3666 31.9385 84.6342 31.4639C83.9076 30.9893 83.3451 30.3184 82.9467 29.4512C82.5482 28.5781 82.3461 27.582 82.3402 26.4629V24.8018C82.3402 23.665 82.5395 22.6572 82.9379 21.7783C83.3363 20.8994 83.9076 20.2227 84.6518 19.748C85.4018 19.2676 86.2631 19.0273 87.2357 19.0273C88.6068 19.0273 89.6879 19.3994 90.4789 20.1436C91.2758 20.8818 91.7387 21.9043 91.8676 23.2109H90.7777C90.5082 21.0371 89.3275 19.9502 87.2357 19.9502C86.0756 19.9502 85.1498 20.3838 84.4584 21.251C83.7729 22.1182 83.4301 23.3164 83.4301 24.8457V26.4102C83.4301 27.8867 83.7641 29.0645 84.432 29.9434C85.1059 30.8223 86.0141 31.2617 87.1566 31.2617C88.2875 31.2617 89.14 30.9922 89.7143 30.4531C90.2885 29.9082 90.643 29.0938 90.7777 28.0098H91.8676ZM103.384 28.4141H97.5741L96.2558 32H95.122L99.9648 19.2031H100.993L105.836 32H104.711L103.384 28.4141ZM97.9081 27.4912H103.041L100.475 20.5215L97.9081 27.4912ZM110.795 31.0859H117.115V32H109.706V19.2031H110.795V31.0859ZM128.853 32H127.772V19.2031H128.853V32ZM143.841 32H142.76L135.403 21.0488V32H134.313V19.2031H135.403L142.769 30.1631V19.2031H143.841V32ZM156.315 28.8535C156.315 28.1445 156.066 27.585 155.568 27.1748C155.07 26.7588 154.159 26.3662 152.835 25.9971C151.51 25.6221 150.543 25.2148 149.934 24.7754C149.067 24.1543 148.633 23.3398 148.633 22.332C148.633 21.3535 149.035 20.5596 149.837 19.9502C150.646 19.335 151.677 19.0273 152.931 19.0273C153.781 19.0273 154.54 19.1914 155.208 19.5195C155.881 19.8477 156.403 20.3047 156.772 20.8906C157.141 21.4766 157.326 22.1299 157.326 22.8506H156.236C156.236 21.9775 155.937 21.2773 155.339 20.75C154.742 20.2168 153.939 19.9502 152.931 19.9502C151.953 19.9502 151.173 20.1699 150.593 20.6094C150.013 21.043 149.723 21.6113 149.723 22.3145C149.723 22.9648 149.984 23.4951 150.505 23.9053C151.027 24.3154 151.862 24.6787 153.01 24.9951C154.159 25.3057 155.029 25.6309 155.621 25.9707C156.212 26.3047 156.658 26.7061 156.957 27.1748C157.255 27.6436 157.405 28.1973 157.405 28.8359C157.405 29.8438 157.001 30.6523 156.192 31.2617C155.389 31.8711 154.329 32.1758 153.01 32.1758C152.108 32.1758 151.279 32.0146 150.523 31.6924C149.773 31.3701 149.202 30.9189 148.809 30.3389C148.422 29.7588 148.229 29.0938 148.229 28.3438H149.31C149.31 29.2461 149.647 29.958 150.321 30.4795C150.995 31.001 151.891 31.2617 153.01 31.2617C154.006 31.2617 154.806 31.042 155.41 30.6025C156.013 30.1631 156.315 29.5801 156.315 28.8535ZM170.406 20.126H166.021V32H164.939V20.126H160.563V19.2031H170.406V20.126ZM179.242 26.6738H175.524V32H174.434V19.2031H178.591C179.957 19.2031 181.023 19.5342 181.791 20.1963C182.558 20.8584 182.942 21.7842 182.942 22.9736C182.942 23.7939 182.702 24.5176 182.221 25.1445C181.741 25.7715 181.096 26.2051 180.288 26.4453L183.487 31.8857V32H182.336L179.242 26.6738ZM175.524 25.751H178.837C179.746 25.751 180.475 25.4932 181.026 24.9775C181.577 24.4619 181.852 23.7939 181.852 22.9736C181.852 22.0713 181.565 21.3711 180.991 20.873C180.417 20.375 179.611 20.126 178.574 20.126H175.524V25.751ZM196.682 19.2031V27.9395C196.676 28.8008 196.485 29.5508 196.11 30.1895C195.735 30.8281 195.205 31.3203 194.52 31.666C193.84 32.0059 193.058 32.1758 192.173 32.1758C190.825 32.1758 189.744 31.8096 188.93 31.0771C188.121 30.3389 187.702 29.3193 187.673 28.0186V19.2031H188.745V27.8604C188.745 28.9385 189.053 29.7764 189.668 30.374C190.283 30.9658 191.118 31.2617 192.173 31.2617C193.228 31.2617 194.06 30.9629 194.669 30.3652C195.284 29.7676 195.592 28.9355 195.592 27.8691V19.2031H196.682ZM203.109 19.2031L207.829 30.4971L212.566 19.2031H214.007V32H212.926V26.4277L213.014 20.7148L208.251 32H207.416L202.67 20.7588L202.757 26.3926V32H201.676V19.2031H203.109ZM226.297 25.8652H220.312V31.0859H227.193V32H219.231V19.2031H227.15V20.126H220.312V24.9512H226.297V25.8652ZM240.986 32H239.905L232.548 21.0488V32H231.459V19.2031H232.548L239.914 30.1631V19.2031H240.986V32ZM254.638 20.126H250.252V32H249.171V20.126H244.794V19.2031H254.638V20.126ZM265.794 28.8535C265.794 28.1445 265.545 27.585 265.047 27.1748C264.549 26.7588 263.637 26.3662 262.313 25.9971C260.989 25.6221 260.022 25.2148 259.413 24.7754C258.546 24.1543 258.112 23.3398 258.112 22.332C258.112 21.3535 258.513 20.5596 259.316 19.9502C260.125 19.335 261.156 19.0273 262.41 19.0273C263.259 19.0273 264.018 19.1914 264.686 19.5195C265.36 19.8477 265.882 20.3047 266.251 20.8906C266.62 21.4766 266.804 22.1299 266.804 22.8506H265.715C265.715 21.9775 265.416 21.2773 264.818 20.75C264.22 20.2168 263.418 19.9502 262.41 19.9502C261.431 19.9502 260.652 20.1699 260.072 20.6094C259.492 21.043 259.202 21.6113 259.202 22.3145C259.202 22.9648 259.463 23.4951 259.984 23.9053C260.506 24.3154 261.341 24.6787 262.489 24.9951C263.637 25.3057 264.508 25.6309 265.099 25.9707C265.691 26.3047 266.136 26.7061 266.435 27.1748C266.734 27.6436 266.883 28.1973 266.883 28.8359C266.883 29.8438 266.479 30.6523 265.671 31.2617C264.868 31.8711 263.807 32.1758 262.489 32.1758C261.587 32.1758 260.758 32.0146 260.002 31.6924C259.252 31.3701 258.68 30.9189 258.288 30.3389C257.901 29.7588 257.708 29.0938 257.708 28.3438H258.789C258.789 29.2461 259.126 29.958 259.799 30.4795C260.473 31.001 261.37 31.2617 262.489 31.2617C263.485 31.2617 264.285 31.042 264.888 30.6025C265.492 30.1631 265.794 29.5801 265.794 28.8535Z" fill="black"/>
<path d="M163.801 222.714C165.951 226.702 170.888 228.169 174.828 225.992C178.768 223.815 180.218 218.818 178.067 214.83C175.917 210.842 129.651 132.743 125.711 134.92C121.771 137.097 161.65 218.726 163.801 222.714Z" fill="#FFB655"/>
<path d="M170.934 218.779C169.493 216.106 148.237 180.143 133.187 157.367C127.879 144.999 124.412 135.638 125.711 134.92C129.651 132.742 175.916 210.849 178.067 214.837C180.218 218.825 178.768 223.823 174.828 226C173.527 226.719 172.118 227.033 170.736 226.997C172.193 224.571 172.374 221.45 170.934 218.779Z" fill="#FFA733"/>
<path d="M123.508 150.75C125.986 155.288 131.608 156.994 136.065 154.56C140.522 152.126 142.127 146.475 139.65 141.937C137.172 137.399 131.55 135.693 127.093 138.127C122.635 140.56 121.03 146.212 123.508 150.75Z" fill="#FF5E00"/>
<path d="M81.209 120.478C89.6288 136.036 116.13 155.017 131.553 146.524C146.977 138.03 145.481 105.28 137.062 89.7221C128.642 74.1645 109.313 68.4372 93.8899 76.9304C78.4664 85.4235 72.7893 104.921 81.209 120.478Z" fill="#FFC477"/>
<path d="M119.633 99.2188C112.804 86.6966 98.8523 80.5501 85.5626 83.0538C87.8155 80.6694 90.4689 78.5885 93.5023 76.9308C109.047 68.4369 128.527 74.1642 137.012 89.7229C145.498 105.282 147.005 138.034 131.461 146.527C128.428 148.184 124.97 148.792 121.305 148.587C128.77 135.401 126.464 111.742 119.633 99.2188Z" fill="#FFB655"/>
<path d="M140.461 97.75C142.477 104.392 143.537 112.207 143.272 119.675C138.138 125.087 131.88 129.939 124.66 133.857C117.44 137.774 109.95 140.384 102.594 141.75C96.1316 137.933 90.0927 132.82 85.5626 127.542C95.5978 127 106.205 124.08 116.287 118.609C126.368 113.139 134.576 105.848 140.461 97.75Z" fill="#DC7F43"/>
<path d="M125.438 113.511C131.51 108.913 136.621 103.539 140.606 97.75C142.52 104.408 143.526 112.241 143.274 119.727C138.581 124.951 132.896 129.652 126.362 133.5C127.029 126.985 126.636 119.962 125.438 113.511Z" fill="#CF5600"/>
<path d="M87 128C84.8912 125.568 83.1166 123.1 81.7936 120.715C80.3374 118.09 79.3159 115.348 78.6876 112.568C88.407 112.011 98.6671 109.194 108.422 103.953C118.178 98.7128 126.134 91.7435 131.867 84C133.904 86.0238 135.695 88.3519 137.151 90.9771C138.474 93.362 139.624 96.1656 140.563 99.2264C134.819 107.047 126.812 114.089 116.976 119.373C107.14 124.656 96.7916 127.476 87 128Z" fill="#E78D53"/>
<path d="M120.194 99.427C119.69 98.4762 119.142 97.5669 118.562 96.6906C123.829 92.4916 128.319 87.7207 131.924 82.6251C133.947 84.7296 135.727 87.1505 137.173 89.8803C138.488 92.3602 139.63 95.2756 140.562 98.4583C136.493 104.259 131.274 109.643 125.073 114.25C124.01 108.637 122.33 103.457 120.194 99.427Z" fill="#E2691B"/>
<path d="M135.199 222.714C133.049 226.702 128.112 228.169 124.172 225.992C120.232 223.815 118.782 218.818 120.933 214.83C123.083 210.842 169.349 132.743 173.289 134.92C177.229 137.097 137.35 218.726 135.199 222.714Z" fill="#FFC477"/>
<path d="M128.066 218.779C129.507 216.106 150.763 180.143 165.813 157.367C171.121 144.999 174.588 135.638 173.289 134.92C169.349 132.742 123.084 210.849 120.933 214.837C118.782 218.825 120.232 223.823 124.172 226C125.473 226.719 126.882 227.033 128.264 226.997C126.808 224.571 126.626 221.45 128.066 218.779Z" fill="#FFB655"/>
<path d="M175.486 150.744C177.964 146.206 176.359 140.555 171.901 138.121C167.444 135.687 161.822 137.393 159.344 141.931C156.867 146.469 158.472 152.121 162.929 154.554C167.387 156.988 173.009 155.282 175.486 150.744Z" fill="#FF5E00"/>
<path d="M217.791 120.478C209.371 136.036 182.87 155.017 167.447 146.524C152.023 138.03 153.519 105.28 161.938 89.7221C170.358 74.1645 189.687 68.4372 205.11 76.9304C220.533 85.4235 226.211 104.921 217.791 120.478Z" fill="#FFDAAA"/>
<path d="M179.36 99.1246C186.104 86.6471 199.88 80.523 213.001 83.0174C210.777 80.6415 208.157 78.5681 205.162 76.9164C189.814 68.4533 170.579 74.16 162.2 89.6628C153.822 105.166 152.333 137.8 167.682 146.263C170.676 147.914 174.091 148.519 177.71 148.315C170.339 135.177 172.617 111.603 179.36 99.1246Z" fill="#FFC477"/>
<path d="M208.64 96.091C207.745 93.7628 206.455 91.6507 204.805 89.8138C203.94 88.852 204.012 87.3644 204.964 86.4917C205.917 85.619 207.389 85.6908 208.253 86.6529C210.289 88.9183 211.879 91.5214 212.981 94.3891C213.446 95.6 212.834 96.9198 211.653 97.4327C210.386 97.9816 208.997 97.0219 208.64 96.091Z" fill="#FFC477"/>
<path d="M212.333 106.235C212.318 106.235 210.077 106.235 210.004 103.838C209.986 103.235 209.999 102.623 209.957 102.018C209.866 100.722 210.831 99.5967 212.114 99.5046C213.402 99.4101 214.511 100.388 214.602 101.683C214.655 102.429 214.674 103.184 214.66 103.927C214.636 105.211 213.598 106.235 212.333 106.235Z" fill="#FFC477"/>
<path d="M158.539 97.75C156.523 104.392 155.463 112.207 155.728 119.675C160.862 125.087 167.12 129.939 174.34 133.857C181.56 137.774 189.05 140.384 196.406 141.75C202.868 137.933 208.907 132.82 213.437 127.542C203.402 127 192.795 124.08 182.713 118.609C172.632 113.139 164.425 105.848 158.539 97.75Z" fill="#DC7F43"/>
<path d="M173.562 113.511C167.49 108.913 162.379 103.539 158.394 97.75C156.48 104.408 155.474 112.241 155.726 119.727C160.419 124.951 166.104 129.652 172.638 133.5C171.971 126.985 172.364 119.962 173.562 113.511Z" fill="#CF5600"/>
<path d="M212 128C214.109 125.568 215.883 123.1 217.206 120.715C218.663 118.09 219.684 115.348 220.312 112.568C210.593 112.011 200.333 109.194 190.578 103.953C180.822 98.7128 172.866 91.7435 167.133 84C165.097 86.0238 163.305 88.3519 161.849 90.9771C160.526 93.362 159.376 96.1656 158.438 99.2264C164.181 107.047 172.188 114.089 182.024 119.373C191.859 124.656 202.208 127.476 212 128Z" fill="#E78D53"/>
<path d="M178.806 99.427C179.309 98.4762 179.857 97.5669 180.437 96.6906C175.171 92.4916 170.681 87.7207 167.076 82.6251C165.053 84.7296 163.273 87.1505 161.826 89.8803C160.512 92.3602 159.37 95.2756 158.438 98.4583C162.507 104.259 167.726 109.643 173.927 114.25C174.99 108.637 176.67 103.457 178.806 99.427Z" fill="#E2691B"/>
</g>
<defs>
<filter id="filter0_d" x="262.055" y="68.2699" width="31.2969" height="164.757" filterUnits="userSpaceOnUse" color-interpolation-filters="sRGB">
<feFlood flood-opacity="0" result="BackgroundImageFix"/>
<feColorMatrix in="SourceAlpha" type="matrix" values="0 0 0 0 0 0 0 0 0 0 0 0 0 0 0 0 0 0 127 0"/>
<feOffset dx="1" dy="1"/>
<feGaussianBlur stdDeviation="1"/>
<feColorMatrix type="matrix" values="0 0 0 0 0 0 0 0 0 0 0 0 0 0 0 0 0 0 0.15 0"/>
<feBlend mode="normal" in2="BackgroundImageFix" result="effect1_dropShadow"/>
<feBlend mode="normal" in="SourceGraphic" in2="effect1_dropShadow" result="shape"/>
</filter>
<radialGradient id="paint0_radial" cx="0" cy="0" r="1" gradientUnits="userSpaceOnUse" gradientTransform="translate(150 150) rotate(90) scale(150)">
<stop offset="0.369792" stop-color="white" stop-opacity="0"/>
<stop offset="1" stop-color="#FFB800"/>
</radialGradient>
<clipPath id="clip0">
<rect width="300" height="300" fill="white"/>
</clipPath>
</defs>
</svg>
