<svg width="300" height="300" viewBox="0 0 300 300" fill="none" xmlns="http://www.w3.org/2000/svg">
<rect width="300" height="300" fill="white"/>
<rect width="300" height="300" fill="white"/>
<rect width="300" height="300" fill="white"/>
<rect width="300" height="300" fill="url(#paint0_radial)" fill-opacity="0.2"/>
<g filter="url(#filter0_d)">
<path d="M289.5 219.514L263.906 219.514L263.906 210.549C263.906 207.443 264.504 205.088 265.699 203.482C266.883 201.877 268.623 201.074 270.92 201.074C272.174 201.074 273.281 201.397 274.242 202.041C275.191 202.686 275.889 203.582 276.334 204.731C276.662 203.418 277.324 202.387 278.32 201.637C279.316 200.875 280.535 200.494 281.977 200.494C284.437 200.494 286.301 201.279 287.566 202.85C288.832 204.42 289.477 206.658 289.5 209.565L289.5 219.514ZM278.355 214.24L285.264 214.24L285.264 209.723C285.264 208.481 284.971 207.514 284.385 206.822C283.787 206.119 282.967 205.768 281.924 205.768C279.58 205.768 278.391 206.981 278.355 209.406L278.355 214.24ZM274.629 214.24L274.629 210.338C274.582 207.678 273.521 206.348 271.447 206.348C270.287 206.348 269.455 206.688 268.951 207.367C268.436 208.035 268.178 209.096 268.178 210.549L268.178 214.24L274.629 214.24ZM280.131 183.087L280.131 187.288L289.5 187.288L289.5 192.562L263.906 192.562L263.906 183.052C263.906 180.028 264.58 177.696 265.928 176.056C267.275 174.415 269.18 173.595 271.641 173.595C273.387 173.595 274.846 173.976 276.018 174.737C277.178 175.487 278.104 176.63 278.795 178.165L289.254 172.628L289.5 172.628L289.5 178.288L280.131 183.087ZM275.859 187.288L275.859 183.034C275.859 181.71 275.525 180.685 274.857 179.958C274.178 179.231 273.246 178.868 272.062 178.868C270.855 178.868 269.906 179.214 269.215 179.905C268.523 180.585 268.178 181.634 268.178 183.052L268.178 187.288L275.859 187.288ZM277.283 144.586C279.803 144.586 282.012 145.031 283.91 145.922C285.809 146.812 287.273 148.09 288.305 149.754C289.336 151.406 289.852 153.305 289.852 155.449C289.852 157.57 289.342 159.463 288.322 161.127C287.303 162.791 285.85 164.08 283.963 164.994C282.064 165.908 279.885 166.371 277.424 166.383L276.158 166.383C273.639 166.383 271.424 165.932 269.514 165.029C267.592 164.115 266.121 162.832 265.102 161.18C264.07 159.516 263.555 157.617 263.555 155.484C263.555 153.352 264.07 151.459 265.102 149.807C266.121 148.143 267.592 146.859 269.514 145.957C271.424 145.043 273.633 144.586 276.141 144.586L277.283 144.586ZM276.123 149.93C273.439 149.93 271.4 150.41 270.006 151.371C268.611 152.332 267.914 153.703 267.914 155.484C267.914 157.254 268.605 158.619 269.988 159.58C271.359 160.541 273.375 161.027 276.035 161.039L277.283 161.039C279.896 161.039 281.924 160.559 283.365 159.598C284.807 158.637 285.527 157.254 285.527 155.449C285.527 153.68 284.836 152.32 283.453 151.371C282.059 150.422 280.031 149.941 277.371 149.93L276.123 149.93ZM282.117 116.86L263.906 113.415L263.906 108.159L289.5 113.837L289.5 119.145L272.379 123.311L289.5 127.478L289.5 132.786L263.906 138.464L263.906 133.208L282.082 129.745L263.906 125.526L263.906 121.061L282.117 116.86ZM289.5 80.5214L289.5 85.7948L272.66 96.0605L289.5 96.0605L289.5 101.334L263.906 101.334L263.906 96.0605L280.781 85.7773L263.906 85.7773L263.906 80.5214L289.5 80.5214Z" fill="white"/>
<path d="M289.5 219.514L289.5 220.014L290 220.014L290 219.514L289.5 219.514ZM263.906 219.514L263.406 219.514L263.406 220.014L263.906 220.014L263.906 219.514ZM265.699 203.482L266.1 203.781L266.102 203.779L265.699 203.482ZM274.242 202.041L274.523 201.627L274.521 201.626L274.242 202.041ZM276.334 204.731L275.868 204.911L276.437 206.38L276.819 204.852L276.334 204.731ZM278.32 201.637L278.621 202.036L278.624 202.034L278.32 201.637ZM289.5 209.565L290 209.565L290 209.56L289.5 209.565ZM278.355 214.24L277.855 214.24L277.855 214.74L278.355 214.74L278.355 214.24ZM285.264 214.24L285.264 214.74L285.764 214.74L285.764 214.24L285.264 214.24ZM284.385 206.822L284.766 206.499L284.766 206.499L284.385 206.822ZM278.355 209.406L277.855 209.399L277.855 209.406L278.355 209.406ZM274.629 214.24L274.629 214.74L275.129 214.74L275.129 214.24L274.629 214.24ZM274.629 210.338L275.129 210.338L275.129 210.329L274.629 210.338ZM268.951 207.367L269.347 207.673L269.353 207.665L268.951 207.367ZM268.178 214.24L267.678 214.24L267.678 214.74L268.178 214.74L268.178 214.24ZM289.5 219.014L263.906 219.014L263.906 220.014L289.5 220.014L289.5 219.014ZM264.406 219.514L264.406 210.549L263.406 210.549L263.406 219.514L264.406 219.514ZM264.406 210.549C264.406 207.495 264.996 205.264 266.1 203.781L265.298 203.184C264.012 204.912 263.406 207.391 263.406 210.549L264.406 210.549ZM266.102 203.779C267.176 202.322 268.754 201.574 270.92 201.574L270.92 200.574C268.492 200.574 266.59 201.432 265.297 203.186L266.102 203.779ZM270.92 201.574C272.083 201.574 273.092 201.872 273.964 202.456L274.521 201.626C273.47 200.921 272.264 200.574 270.92 200.574L270.92 201.574ZM273.961 202.455C274.82 203.038 275.456 203.85 275.868 204.911L276.8 204.55C276.321 203.314 275.563 202.333 274.523 201.627L273.961 202.455ZM276.819 204.852C277.122 203.64 277.724 202.711 278.621 202.036L278.02 201.237C276.924 202.062 276.202 203.196 275.849 204.609L276.819 204.852ZM278.624 202.034C279.52 201.349 280.628 200.994 281.977 200.994L281.977 199.994C280.443 199.994 279.113 200.401 278.017 201.24L278.624 202.034ZM281.977 200.994C284.323 200.994 286.027 201.737 287.177 203.163L287.956 202.536C286.574 200.822 284.552 199.994 281.977 199.994L281.977 200.994ZM287.177 203.163C288.347 204.615 288.977 206.727 289 209.569L290 209.56C289.976 206.59 289.317 204.225 287.956 202.536L287.177 203.163ZM289 209.565L289 219.514L290 219.514L290 209.565L289 209.565ZM278.355 214.74L285.264 214.74L285.264 213.74L278.355 213.74L278.355 214.74ZM285.764 214.24L285.764 209.723L284.764 209.723L284.764 214.24L285.764 214.24ZM285.764 209.723C285.764 208.406 285.453 207.309 284.766 206.499L284.003 207.146C284.488 207.718 284.764 208.555 284.764 209.723L285.764 209.723ZM284.766 206.499C284.06 205.668 283.092 205.268 281.924 205.268L281.924 206.268C282.841 206.268 283.514 206.57 284.004 207.146L284.766 206.499ZM281.924 205.268C280.67 205.268 279.637 205.593 278.917 206.327C278.2 207.058 277.874 208.113 277.856 209.399L278.855 209.414C278.872 208.274 279.158 207.509 279.631 207.027C280.1 206.549 280.834 206.268 281.924 206.268L281.924 205.268ZM277.855 209.406L277.855 214.24L278.855 214.24L278.855 209.406L277.855 209.406ZM275.129 214.24L275.129 210.338L274.129 210.338L274.129 214.24L275.129 214.24ZM275.129 210.329C275.104 208.947 274.817 207.821 274.189 207.034C273.543 206.223 272.6 205.848 271.447 205.848L271.447 206.848C272.369 206.848 272.993 207.137 273.407 207.657C273.84 208.199 274.106 209.069 274.129 210.347L275.129 210.329ZM271.447 205.848C270.192 205.848 269.18 206.219 268.55 207.069L269.353 207.665C269.73 207.156 270.382 206.848 271.447 206.848L271.447 205.848ZM268.555 207.062C267.939 207.861 267.678 209.057 267.678 210.549L268.678 210.549C268.678 209.134 268.933 208.21 269.347 207.673L268.555 207.062ZM267.678 210.549L267.678 214.24L268.678 214.24L268.678 210.549L267.678 210.549ZM268.178 214.74L274.629 214.74L274.629 213.74L268.178 213.74L268.178 214.74ZM280.131 183.087L279.903 182.642L279.631 182.781L279.631 183.087L280.131 183.087ZM280.131 187.288L279.631 187.288L279.631 187.788L280.131 187.788L280.131 187.288ZM289.5 187.288L290 187.288L290 186.788L289.5 186.788L289.5 187.288ZM289.5 192.562L289.5 193.062L290 193.062L290 192.562L289.5 192.562ZM263.906 192.562L263.406 192.562L263.406 193.062L263.906 193.062L263.906 192.562ZM276.018 174.737L275.745 175.157L275.746 175.157L276.018 174.737ZM278.795 178.165L278.339 178.37L278.558 178.856L279.029 178.607L278.795 178.165ZM289.254 172.628L289.254 172.128L289.13 172.128L289.02 172.186L289.254 172.628ZM289.5 172.628L290 172.628L290 172.128L289.5 172.128L289.5 172.628ZM289.5 178.288L289.728 178.733L290 178.594L290 178.288L289.5 178.288ZM275.859 187.288L275.859 187.788L276.359 187.788L276.359 187.288L275.859 187.288ZM274.857 179.958L275.226 179.62L275.223 179.616L274.857 179.958ZM269.215 179.905L269.565 180.262L269.568 180.259L269.215 179.905ZM268.178 187.288L267.678 187.288L267.678 187.788L268.178 187.788L268.178 187.288ZM279.631 183.087L279.631 187.288L280.631 187.288L280.631 183.087L279.631 183.087ZM280.131 187.788L289.5 187.788L289.5 186.788L280.131 186.788L280.131 187.788ZM289 187.288L289 192.562L290 192.562L290 187.288L289 187.288ZM289.5 192.062L263.906 192.062L263.906 193.062L289.5 193.062L289.5 192.062ZM264.406 192.562L264.406 183.052L263.406 183.052L263.406 192.562L264.406 192.562ZM264.406 183.052C264.406 180.096 265.066 177.893 266.314 176.373L265.541 175.738C264.095 177.5 263.406 179.961 263.406 183.052L264.406 183.052ZM266.314 176.373C267.551 174.867 269.303 174.095 271.641 174.095L271.641 173.095C269.057 173.095 267 173.963 265.541 175.738L266.314 176.373ZM271.641 174.095C273.314 174.095 274.672 174.459 275.745 175.157L276.29 174.318C275.019 173.492 273.459 173.095 271.641 173.095L271.641 174.095ZM275.746 175.157C276.809 175.845 277.678 176.904 278.339 178.37L279.251 177.96C278.529 176.356 277.546 175.13 276.289 174.317L275.746 175.157ZM279.029 178.607L289.488 173.07L289.02 172.186L278.561 177.723L279.029 178.607ZM289.254 173.128L289.5 173.128L289.5 172.128L289.254 172.128L289.254 173.128ZM289 172.628L289 178.288L290 178.288L290 172.628L289 172.628ZM289.272 177.843L279.903 182.642L280.359 183.532L289.728 178.733L289.272 177.843ZM276.359 187.288L276.359 183.034L275.359 183.034L275.359 187.288L276.359 187.288ZM276.359 183.034C276.359 181.628 276.004 180.466 275.226 179.62L274.489 180.296C275.047 180.903 275.359 181.792 275.359 183.034L276.359 183.034ZM275.223 179.616C274.43 178.77 273.356 178.368 272.062 178.368L272.062 179.368C273.136 179.368 273.925 179.693 274.492 180.3L275.223 179.616ZM272.062 178.368C270.756 178.368 269.667 178.746 268.861 179.552L269.568 180.259C270.145 179.682 270.955 179.368 272.062 179.368L272.062 178.368ZM268.864 179.549C268.041 180.358 267.678 181.562 267.678 183.052L268.678 183.052C268.678 181.706 269.006 180.812 269.565 180.262L268.864 179.549ZM267.678 183.052L267.678 187.288L268.678 187.288L268.678 183.052L267.678 183.052ZM268.178 187.788L275.859 187.788L275.859 186.788L268.178 186.788L268.178 187.788ZM288.305 149.754L287.88 150.017L287.881 150.019L288.305 149.754ZM283.963 164.994L284.18 165.445L284.181 165.444L283.963 164.994ZM277.424 166.383L277.424 166.883L277.426 166.883L277.424 166.383ZM269.514 165.029L269.299 165.481L269.3 165.481L269.514 165.029ZM265.102 161.18L265.527 160.917L265.527 160.916L265.102 161.18ZM265.102 149.807L265.526 150.071L265.528 150.068L265.102 149.807ZM269.514 145.957L269.726 146.41L269.729 146.408L269.514 145.957ZM269.988 159.58L270.275 159.171L270.274 159.169L269.988 159.58ZM276.035 161.039L276.033 161.539L276.035 161.539L276.035 161.039ZM283.453 151.371L283.736 150.959L283.734 150.958L283.453 151.371ZM277.371 149.93L277.373 149.43L277.371 149.43L277.371 149.93ZM277.283 145.086C279.744 145.086 281.878 145.521 283.698 146.375L284.123 145.469C282.146 144.542 279.862 144.086 277.283 144.086L277.283 145.086ZM283.698 146.375C285.515 147.227 286.903 148.442 287.88 150.017L288.73 149.491C287.644 147.738 286.102 146.398 284.123 145.469L283.698 146.375ZM287.881 150.019C288.857 151.584 289.352 153.389 289.352 155.449L290.352 155.449C290.352 153.221 289.815 151.229 288.729 149.489L287.881 150.019ZM289.352 155.449C289.352 157.486 288.863 159.287 287.896 160.866L288.749 161.388C289.82 159.639 290.352 157.654 290.352 155.449L289.352 155.449ZM287.896 160.866C286.93 162.442 285.552 163.669 283.745 164.544L284.181 165.444C286.147 164.492 287.675 163.14 288.749 161.388L287.896 160.866ZM283.746 164.544C281.925 165.42 279.82 165.871 277.421 165.883L277.426 166.883C279.949 166.871 282.204 166.396 284.18 165.445L283.746 164.544ZM277.424 165.883L276.158 165.883L276.158 166.883L277.424 166.883L277.424 165.883ZM276.158 165.883C273.698 165.883 271.559 165.443 269.727 164.577L269.3 165.481C271.289 166.421 273.579 166.883 276.158 166.883L276.158 165.883ZM269.728 164.578C267.885 163.701 266.491 162.48 265.527 160.917L264.676 161.442C265.751 163.184 267.299 164.53 269.299 165.481L269.728 164.578ZM265.527 160.916C264.549 159.338 264.055 157.533 264.055 155.484L263.055 155.484C263.055 157.702 263.592 159.693 264.677 161.443L265.527 160.916ZM264.055 155.484C264.055 153.436 264.549 151.637 265.526 150.071L264.677 149.542C263.592 151.281 263.055 153.267 263.055 155.484L264.055 155.484ZM265.528 150.068C266.492 148.494 267.885 147.274 269.726 146.41L269.301 145.504C267.299 146.444 265.75 147.791 264.675 149.545L265.528 150.068ZM269.729 146.408C271.561 145.532 273.694 145.086 276.141 145.086L276.141 144.086C273.572 144.086 271.287 144.554 269.298 145.506L269.729 146.408ZM276.141 145.086L277.283 145.086L277.283 144.086L276.141 144.086L276.141 145.086ZM276.123 149.43C273.393 149.43 271.236 149.916 269.722 150.959L270.29 151.783C271.565 150.904 273.486 150.43 276.123 150.43L276.123 149.43ZM269.722 150.959C268.184 152.019 267.414 153.549 267.414 155.484L268.414 155.484C268.414 153.857 269.039 152.645 270.29 151.783L269.722 150.959ZM267.414 155.484C267.414 157.408 268.178 158.931 269.703 159.991L270.274 159.169C269.033 158.307 268.414 157.1 268.414 155.484L267.414 155.484ZM269.701 159.99C271.192 161.034 273.326 161.527 276.033 161.539L276.037 160.539C273.424 160.528 271.527 160.048 270.275 159.171L269.701 159.99ZM276.035 161.539L277.283 161.539L277.283 160.539L276.035 160.539L276.035 161.539ZM277.283 161.539C279.948 161.539 282.087 161.051 283.643 160.014L283.088 159.182C281.761 160.067 279.845 160.539 277.283 160.539L277.283 161.539ZM283.643 160.014C285.23 158.955 286.027 157.413 286.027 155.449L285.027 155.449C285.027 157.095 284.383 158.318 283.088 159.182L283.643 160.014ZM286.027 155.449C286.027 153.526 285.263 152.007 283.736 150.959L283.17 151.783C284.408 152.633 285.027 153.834 285.027 155.449L286.027 155.449ZM283.734 150.958C282.223 149.929 280.08 149.442 277.373 149.43L277.369 150.43C279.982 150.441 281.895 150.915 283.172 151.784L283.734 150.958ZM277.371 149.43L276.123 149.43L276.123 150.43L277.371 150.43L277.371 149.43ZM282.117 116.86L282.23 117.348L282.21 116.369L282.117 116.86ZM263.906 113.415L263.406 113.415L263.406 113.829L263.813 113.906L263.906 113.415ZM263.906 108.159L264.015 107.671L263.406 107.536L263.406 108.159L263.906 108.159ZM289.5 113.837L290 113.837L290 113.436L289.608 113.349L289.5 113.837ZM289.5 119.145L289.618 119.631L290 119.538L290 119.145L289.5 119.145ZM272.379 123.311L272.261 122.826L272.261 123.797L272.379 123.311ZM289.5 127.478L290 127.478L290 127.085L289.618 126.992L289.5 127.478ZM289.5 132.786L289.608 133.274L290 133.187L290 132.786L289.5 132.786ZM263.906 138.464L263.406 138.464L263.406 139.087L264.015 138.952L263.906 138.464ZM263.906 133.208L263.813 132.717L263.406 132.794L263.406 133.208L263.906 133.208ZM282.082 129.745L282.176 130.236L282.195 129.258L282.082 129.745ZM263.906 125.526L263.406 125.526L263.406 125.924L263.793 126.013L263.906 125.526ZM263.906 121.061L263.794 120.574L263.406 120.664L263.406 121.061L263.906 121.061ZM282.21 116.369L263.999 112.924L263.813 113.906L282.024 117.352L282.21 116.369ZM264.406 113.415L264.406 108.159L263.406 108.159L263.406 113.415L264.406 113.415ZM263.798 108.647L289.392 114.325L289.608 113.349L264.015 107.671L263.798 108.647ZM289 113.837L289 119.145L290 119.145L290 113.837L289 113.837ZM289.382 118.66L272.261 122.826L272.497 123.797L289.618 119.631L289.382 118.66ZM272.261 123.797L289.382 127.963L289.618 126.992L272.497 122.826L272.261 123.797ZM289 127.478L289 132.786L290 132.786L290 127.478L289 127.478ZM289.392 132.298L263.798 137.976L264.015 138.952L289.608 133.274L289.392 132.298ZM264.406 138.464L264.406 133.208L263.406 133.208L263.406 138.464L264.406 138.464ZM264 133.699L282.176 130.236L281.988 129.254L263.813 132.717L264 133.699ZM282.195 129.258L264.019 125.039L263.793 126.013L281.969 130.232L282.195 129.258ZM264.406 125.526L264.406 121.061L263.406 121.061L263.406 125.526L264.406 125.526ZM264.019 121.549L282.23 117.348L282.005 116.373L263.794 120.574L264.019 121.549ZM289.5 80.5214L290 80.5214L290 80.0214L289.5 80.0214L289.5 80.5214ZM289.5 85.7948L289.76 86.2218L290 86.0756L290 85.7948L289.5 85.7948ZM272.66 96.0605L272.4 95.6335L270.879 96.5605L272.66 96.5605L272.66 96.0605ZM289.5 96.0605L290 96.0605L290 95.5605L289.5 95.5605L289.5 96.0605ZM289.5 101.334L289.5 101.834L290 101.834L290 101.334L289.5 101.334ZM263.906 101.334L263.406 101.334L263.406 101.834L263.906 101.834L263.906 101.334ZM263.906 96.0605L263.646 95.6335L263.406 95.7796L263.406 96.0605L263.906 96.0605ZM280.781 85.7773L281.041 86.2042L282.563 85.2773L280.781 85.2773L280.781 85.7773ZM263.906 85.7773L263.406 85.7773L263.406 86.2773L263.906 86.2773L263.906 85.7773ZM263.906 80.5214L263.906 80.0214L263.406 80.0214L263.406 80.5214L263.906 80.5214ZM289 80.5214L289 85.7948L290 85.7948L290 80.5214L289 80.5214ZM289.24 85.3679L272.4 95.6335L272.92 96.4874L289.76 86.2218L289.24 85.3679ZM272.66 96.5605L289.5 96.5605L289.5 95.5605L272.66 95.5605L272.66 96.5605ZM289 96.0605L289 101.334L290 101.334L290 96.0605L289 96.0605ZM289.5 100.834L263.906 100.834L263.906 101.834L289.5 101.834L289.5 100.834ZM264.406 101.334L264.406 96.0605L263.406 96.0605L263.406 101.334L264.406 101.334ZM264.166 96.4874L281.041 86.2042L280.521 85.3503L263.646 95.6335L264.166 96.4874ZM280.781 85.2773L263.906 85.2773L263.906 86.2773L280.781 86.2773L280.781 85.2773ZM264.406 85.7773L264.406 80.5214L263.406 80.5214L263.406 85.7773L264.406 85.7773ZM263.906 81.0214L289.5 81.0214L289.5 80.0214L263.906 80.0214L263.906 81.0214Z" fill="#78491F"/>
</g>
<path d="M32.3047 228.125L45 267.695L57.6562 228.125H75.7031V285H61.9531V271.719L63.2812 244.531L49.5312 285H40.4688L26.6797 244.492L28.0078 271.719V285H14.2969V228.125H32.3047ZM106.665 272.783C106.665 275.303 106.22 277.512 105.329 279.41C104.438 281.309 103.161 282.773 101.497 283.805C99.8445 284.836 97.9461 285.352 95.8016 285.352C93.6805 285.352 91.7879 284.842 90.1238 283.822C88.4598 282.803 87.1707 281.35 86.2566 279.463C85.3426 277.564 84.8797 275.385 84.868 272.924V271.658C84.868 269.139 85.3191 266.924 86.2215 265.014C87.1355 263.092 88.4187 261.621 90.0711 260.602C91.7352 259.57 93.6336 259.055 95.7664 259.055C97.8992 259.055 99.7918 259.57 101.444 260.602C103.108 261.621 104.391 263.092 105.294 265.014C106.208 266.924 106.665 269.133 106.665 271.641V272.783ZM101.321 271.623C101.321 268.939 100.841 266.9 99.8797 265.506C98.9187 264.111 97.5477 263.414 95.7664 263.414C93.9969 263.414 92.6316 264.105 91.6707 265.488C90.7098 266.859 90.2234 268.875 90.2117 271.535V272.783C90.2117 275.396 90.6922 277.424 91.6531 278.865C92.6141 280.307 93.9969 281.027 95.8016 281.027C97.5711 281.027 98.9305 280.336 99.8797 278.953C100.829 277.559 101.309 275.531 101.321 272.871V271.623ZM133.829 285H128.556L118.29 268.16V285H113.017V259.406H118.29L128.574 276.281V259.406H133.829V285ZM148.97 274.734L146.228 277.688V285H140.955V259.406H146.228V271.008L148.549 267.826L155.07 259.406H161.556L152.469 270.779L161.82 285H155.545L148.97 274.734ZM181.725 273.908H171.6V280.764H183.483V285H166.326V259.406H183.447V263.678H171.6V269.777H181.725V273.908ZM197.921 270.938L203.247 259.406H209.012L200.61 275.719V285H195.249V275.719L186.846 259.406H192.63L197.921 270.938Z" fill="black"/>
<path d="M114.599 28.4141H108.789L107.471 32H106.337L111.18 19.2031H112.208L117.051 32H115.926L114.599 28.4141ZM109.123 27.4912H114.256L111.69 20.5215L109.123 27.4912ZM130.448 32H129.367L122.011 21.0488V32H120.921V19.2031H122.011L129.376 30.1631V19.2031H130.448V32ZM136.999 32H135.917V19.2031H136.999V32ZM143.892 19.2031L148.611 30.4971L153.349 19.2031H154.79V32H153.709V26.4277L153.797 20.7148L149.033 32H148.198L143.452 20.7588L143.54 26.3926V32H142.459V19.2031H143.892ZM167.08 28.4141H161.27L159.952 32H158.818L163.661 19.2031H164.689L169.532 32H168.407L167.08 28.4141ZM161.604 27.4912H166.737L164.17 20.5215L161.604 27.4912ZM174.491 31.0859H180.811V32H173.401V19.2031H174.491V31.0859ZM192.116 28.8535C192.116 28.1445 191.867 27.585 191.369 27.1748C190.871 26.7588 189.96 26.3662 188.635 25.9971C187.311 25.6221 186.344 25.2148 185.735 24.7754C184.868 24.1543 184.434 23.3398 184.434 22.332C184.434 21.3535 184.836 20.5596 185.638 19.9502C186.447 19.335 187.478 19.0273 188.732 19.0273C189.582 19.0273 190.34 19.1914 191.008 19.5195C191.682 19.8477 192.204 20.3047 192.573 20.8906C192.942 21.4766 193.127 22.1299 193.127 22.8506H192.037C192.037 21.9775 191.738 21.2773 191.14 20.75C190.543 20.2168 189.74 19.9502 188.732 19.9502C187.753 19.9502 186.974 20.1699 186.394 20.6094C185.814 21.043 185.524 21.6113 185.524 22.3145C185.524 22.9648 185.785 23.4951 186.306 23.9053C186.828 24.3154 187.663 24.6787 188.811 24.9951C189.96 25.3057 190.83 25.6309 191.421 25.9707C192.013 26.3047 192.459 26.7061 192.757 27.1748C193.056 27.6436 193.206 28.1973 193.206 28.8359C193.206 29.8438 192.801 30.6523 191.993 31.2617C191.19 31.8711 190.129 32.1758 188.811 32.1758C187.909 32.1758 187.08 32.0146 186.324 31.6924C185.574 31.3701 185.003 30.9189 184.61 30.3389C184.223 29.7588 184.03 29.0938 184.03 28.3438H185.111C185.111 29.2461 185.448 29.958 186.122 30.4795C186.795 31.001 187.692 31.2617 188.811 31.2617C189.807 31.2617 190.607 31.042 191.211 30.6025C191.814 30.1631 192.116 29.5801 192.116 28.8535Z" fill="black"/>
<path fill-rule="evenodd" clip-rule="evenodd" d="M76.4027 179.153C85.1627 179.153 117.693 198.653 142.223 201.765C166.753 204.877 187.353 209.363 200.903 208.265C203.123 212.452 203.193 218.426 198.343 221.814C178.203 221.814 159.343 218.152 133.983 210.737C108.623 203.321 88.9427 190.138 78.2327 190.138C73.7027 185.608 72.3727 179.153 76.4027 179.153Z" fill="#3F2B23"/>
<path fill-rule="evenodd" clip-rule="evenodd" d="M213.893 90.916C212.643 91.259 211.503 91.926 210.583 92.844C209.163 94.261 208.383 96.145 208.383 98.15C208.383 100.154 209.163 102.039 210.583 103.457C213.513 106.384 218.273 106.383 221.193 103.457C221.613 103.045 221.843 102.487 221.843 101.904C221.843 102.487 221.613 103.045 221.193 103.457C224.013 100.641 225.563 96.896 225.563 92.911C225.563 88.926 224.013 85.18 221.193 82.362C215.383 76.546 205.913 76.546 200.103 82.362C197.283 85.179 195.733 88.925 195.733 92.909V136.859C195.733 138.071 196.713 139.055 197.933 139.055C199.143 139.055 200.123 138.071 200.123 136.859V92.909C200.123 90.099 201.223 87.456 203.203 85.469C207.313 81.366 213.983 81.366 218.093 85.469C220.083 87.456 221.173 90.1 221.173 92.911C221.173 95.722 220.073 98.363 218.093 100.35C217.673 100.762 217.443 101.321 217.443 101.904C217.443 101.321 217.673 100.762 218.093 100.351C216.873 101.563 214.903 101.563 213.693 100.35C213.103 99.762 212.783 98.981 212.783 98.15C212.783 97.319 213.103 96.538 213.693 95.951C214.073 95.57 214.543 95.294 215.053 95.153C216.223 94.829 216.913 93.62 216.593 92.45C216.273 91.28 215.063 90.593 213.893 90.916Z" fill="#8E6E58"/>
<path fill-rule="evenodd" clip-rule="evenodd" d="M166.643 194.856C166.643 194.854 166.643 194.852 166.643 194.851C165.783 189.542 163.863 182.406 161.053 177.963C161.053 177.962 161.053 177.961 161.053 177.959C167.453 175.29 175.843 168.897 184.013 157.442C181.473 154.155 185.413 150.868 181.593 147.116C177.773 143.367 166.023 146.212 158.743 155.822C153.123 163.245 149.413 170.084 149.553 174.613C149.553 174.615 149.553 174.618 149.553 174.62C149.583 175.421 149.723 176.147 150.003 176.793C151.513 182.494 156.413 195.533 159.103 200.717L152.843 199.909C150.233 199.574 148.173 202.321 147.943 204.174L164.313 206.283C165.433 206.428 166.453 205.787 166.863 204.795L166.873 204.798C167.453 203.763 167.333 200.941 167.073 198.381C166.993 197.362 166.853 196.165 166.643 194.856Z" fill="#8E6E58"/>
<path fill-rule="evenodd" clip-rule="evenodd" d="M123.943 151.586C121.273 141.268 116.303 134.223 112.633 134.58C105.333 135.29 108.323 144.621 111.003 154.94C112.063 159.04 113.503 162.71 115.073 165.591C113.043 167.402 99.1727 179.136 95.1427 181.599L91.0927 179.891C89.0427 179.026 86.7427 180.803 86.1227 182.262L95.0627 186.032C96.2527 186.534 97.7527 186.1 100.113 184.776C106.183 181.368 119.013 174.127 122.663 171.821C125.933 170.4 126.523 161.555 123.943 151.586Z" fill="#8E6E58"/>
<path fill-rule="evenodd" clip-rule="evenodd" d="M176.643 120.517H133.713C131.513 120.517 128.903 118.32 128.903 115.84L121.263 127.52C109.723 131.365 99.1028 133.913 99.1028 133.913C103.133 141.252 124.003 155.9 136.823 156.998C149.643 158.097 162.613 160.844 178.093 155.717V171.696C191.563 170.943 202.253 159.785 202.253 146.128C202.253 131.984 190.783 120.517 176.643 120.517Z" fill="#AB896F"/>
<path fill-rule="evenodd" clip-rule="evenodd" d="M186.763 197.575C186.763 197.573 186.763 197.571 186.763 197.571C185.233 192.415 182.413 185.582 179.073 181.535C179.063 181.534 179.063 181.533 179.063 181.532C185.063 178.068 192.573 170.654 199.213 158.247C199.903 153.794 199.763 151.549 195.493 148.317C191.223 145.086 179.933 149.409 173.943 159.872C169.313 167.951 166.513 175.207 167.233 179.683C167.233 179.685 167.233 179.688 167.233 179.69C167.363 180.48 167.603 181.182 167.953 181.787C170.183 187.248 176.703 199.556 180.043 204.352H173.723C171.093 204.352 169.403 207.339 169.403 209.207H185.923C187.043 209.207 187.983 208.441 188.253 207.405L188.263 207.407C188.713 206.306 188.233 203.523 187.643 201.017C187.433 200.016 187.143 198.848 186.763 197.575Z" fill="#AB896F"/>
<path fill-rule="evenodd" clip-rule="evenodd" d="M135.253 156.721C131.983 146.575 126.613 139.831 122.973 140.401C115.723 141.532 119.253 150.675 122.523 160.821C123.823 164.853 125.473 168.433 127.213 171.217H127.203C125.283 173.143 112.123 185.661 108.233 188.354L104.103 186.885C102.003 186.139 99.8027 188.047 99.2727 189.539L108.413 192.784C109.633 193.217 111.113 192.696 113.383 191.237C119.243 187.484 131.633 179.511 135.143 176.997C138.323 175.388 138.403 166.524 135.253 156.721Z" fill="#AB896F"/>
<path fill-rule="evenodd" clip-rule="evenodd" d="M126.343 105.879C128.143 104.793 130.473 107.877 128.593 112.24C126.633 110.287 126.343 105.879 126.343 105.879Z" fill="#8E6E58"/>
<path fill-rule="evenodd" clip-rule="evenodd" d="M90.9027 105.879C89.1027 104.793 86.7827 107.877 88.6627 112.24C90.6127 110.287 90.9027 105.879 90.9027 105.879Z" fill="#8E6E58"/>
<path fill-rule="evenodd" clip-rule="evenodd" d="M88.3428 115.84C88.3428 104.535 97.4228 95.371 108.623 95.371C119.823 95.371 128.903 104.535 128.903 115.84C128.903 127.145 119.823 136.309 108.623 136.309C97.4228 136.309 88.3428 127.145 88.3428 115.84Z" fill="#C49B7D"/>
<path fill-rule="evenodd" clip-rule="evenodd" d="M98.2427 98.256C101.303 100.009 104.843 101.017 108.623 101.017C112.403 101.017 115.943 100.009 119.003 98.256C115.973 96.425 112.423 95.371 108.623 95.371C104.833 95.371 101.283 96.425 98.2427 98.256Z" fill="#8E6E58"/>
<path fill-rule="evenodd" clip-rule="evenodd" d="M123.643 113.788C123.643 108.682 116.913 104.542 108.623 104.542C100.333 104.542 93.6127 108.682 93.6127 113.788C93.6127 116.614 95.6727 119.143 98.9127 120.839C98.9127 122.76 99.3427 126.754 101.533 129.645C103.733 128.946 108.623 126.238 108.623 126.238C108.623 126.238 113.523 128.946 115.723 129.645C117.903 126.754 118.333 122.76 118.333 120.839C121.583 119.143 123.643 116.614 123.643 113.788Z" fill="#EFD3BC"/>
<path fill-rule="evenodd" clip-rule="evenodd" d="M108.623 126.238C108.623 126.238 103.733 128.946 101.533 129.645C102.983 131.574 105.213 133.013 108.623 133.013C112.033 133.013 114.263 131.574 115.723 129.645C113.523 128.946 108.623 126.238 108.623 126.238Z" fill="#DCB89B"/>
<path fill-rule="evenodd" clip-rule="evenodd" d="M99.1927 114.888C99.1927 113.775 100.093 112.872 101.213 112.872C102.323 112.872 103.223 113.775 103.223 114.888C103.223 115.999 102.323 116.901 101.213 116.901C100.093 116.901 99.1927 115.999 99.1927 114.888Z" fill="#212830"/>
<path fill-rule="evenodd" clip-rule="evenodd" d="M106.053 121.227C106.053 120.279 106.323 119.51 106.653 119.51C106.993 119.51 107.263 120.279 107.263 121.227C107.263 122.174 106.993 122.943 106.653 122.943C106.323 122.943 106.053 122.174 106.053 121.227Z" fill="#212830"/>
<path fill-rule="evenodd" clip-rule="evenodd" d="M118.053 114.888C118.053 113.775 117.153 112.872 116.043 112.872C114.933 112.872 114.023 113.775 114.023 114.888C114.023 115.999 114.933 116.901 116.043 116.901C117.153 116.901 118.053 115.999 118.053 114.888Z" fill="#212830"/>
<path fill-rule="evenodd" clip-rule="evenodd" d="M111.203 121.227C111.203 120.279 110.923 119.51 110.593 119.51C110.263 119.51 109.993 120.279 109.993 121.227C109.993 122.174 110.263 122.943 110.593 122.943C110.923 122.943 111.203 122.174 111.203 121.227Z" fill="#212830"/>
<defs>
<filter id="filter0_d" x="262.055" y="79.0214" width="31.2969" height="143.992" filterUnits="userSpaceOnUse" color-interpolation-filters="sRGB">
<feFlood flood-opacity="0" result="BackgroundImageFix"/>
<feColorMatrix in="SourceAlpha" type="matrix" values="0 0 0 0 0 0 0 0 0 0 0 0 0 0 0 0 0 0 127 0"/>
<feOffset dx="1" dy="1"/>
<feGaussianBlur stdDeviation="1"/>
<feColorMatrix type="matrix" values="0 0 0 0 0 0 0 0 0 0 0 0 0 0 0 0 0 0 0.15 0"/>
<feBlend mode="normal" in2="BackgroundImageFix" result="effect1_dropShadow"/>
<feBlend mode="normal" in="SourceGraphic" in2="effect1_dropShadow" result="shape"/>
</filter>
<radialGradient id="paint0_radial" cx="0" cy="0" r="1" gradientUnits="userSpaceOnUse" gradientTransform="translate(150 150) rotate(90) scale(150)">
<stop offset="0.296875" stop-color="white" stop-opacity="0"/>
<stop offset="0.947917" stop-color="#826419" stop-opacity="0.83"/>
</radialGradient>
</defs>
</svg>
