<svg width="300" height="300" viewBox="0 0 300 300" fill="none" xmlns="http://www.w3.org/2000/svg">
<rect width="300" height="300" fill="white"/>
<rect width="300" height="300" fill="white"/>
<rect width="300" height="300" fill="white"/>
<rect width="300" height="300" fill="url(#paint0_radial)" fill-opacity="0.2"/>
<g filter="url(#filter0_d)">
<path d="M275.437 217.17L263.906 211.843L263.906 206.078L280.219 214.48L289.5 214.48L289.5 219.841L280.219 219.841L263.906 228.244L263.906 222.461L275.437 217.17ZM278.408 184.381L278.408 194.506L285.264 194.506L285.264 182.624L289.5 182.624L289.5 199.78L263.906 199.78L263.906 182.659L268.178 182.659L268.178 194.506L274.277 194.506L274.277 184.381L278.408 184.381ZM285.264 170.296L285.264 159.099L289.5 159.099L289.5 175.57L263.906 175.57L263.906 170.296L285.264 170.296ZM285.264 146.825L285.264 135.627L289.5 135.627L289.5 152.098L263.906 152.098L263.906 146.825L285.264 146.825ZM277.283 108.728C279.803 108.728 282.012 109.173 283.91 110.064C285.809 110.955 287.273 112.232 288.305 113.896C289.336 115.548 289.852 117.447 289.852 119.591C289.852 121.712 289.342 123.605 288.322 125.269C287.303 126.933 285.85 128.222 283.963 129.136C282.064 130.05 279.885 130.513 277.424 130.525L276.158 130.525C273.639 130.525 271.424 130.074 269.514 129.171C267.592 128.257 266.121 126.974 265.102 125.322C264.07 123.658 263.555 121.759 263.555 119.626C263.555 117.494 264.07 115.601 265.102 113.949C266.121 112.285 267.592 111.001 269.514 110.099C271.424 109.185 273.633 108.728 276.141 108.728L277.283 108.728ZM276.123 114.072C273.439 114.072 271.4 114.552 270.006 115.513C268.611 116.474 267.914 117.845 267.914 119.626C267.914 121.396 268.605 122.761 269.988 123.722C271.359 124.683 273.375 125.169 276.035 125.181L277.283 125.181C279.896 125.181 281.924 124.701 283.365 123.74C284.807 122.779 285.527 121.396 285.527 119.591C285.527 117.822 284.836 116.462 283.453 115.513C282.059 114.564 280.031 114.083 277.371 114.072L276.123 114.072ZM282.117 81.0023L263.906 77.557L263.906 72.3012L289.5 77.9789L289.5 83.2875L272.379 87.4535L289.5 91.6195L289.5 96.9281L263.906 102.606L263.906 97.35L282.082 93.8871L263.906 89.6684L263.906 85.2035L282.117 81.0023Z" fill="white"/>
<path d="M275.437 217.17L275.646 217.624L276.633 217.171L275.647 216.716L275.437 217.17ZM263.906 211.843L263.406 211.843L263.406 212.163L263.697 212.297L263.906 211.843ZM263.906 206.078L264.135 205.633L263.406 205.258L263.406 206.078L263.906 206.078ZM280.219 214.48L279.99 214.925L280.098 214.98L280.219 214.98L280.219 214.48ZM289.5 214.48L290 214.48L290 213.98L289.5 213.98L289.5 214.48ZM289.5 219.841L289.5 220.341L290 220.341L290 219.841L289.5 219.841ZM280.219 219.841L280.219 219.341L280.098 219.341L279.99 219.397L280.219 219.841ZM263.906 228.244L263.406 228.244L263.406 229.064L264.135 228.688L263.906 228.244ZM263.906 222.461L263.698 222.006L263.406 222.14L263.406 222.461L263.906 222.461ZM275.647 216.716L264.116 211.389L263.697 212.297L275.228 217.623L275.647 216.716ZM264.406 211.843L264.406 206.078L263.406 206.078L263.406 211.843L264.406 211.843ZM263.677 206.522L279.99 214.925L280.448 214.036L264.135 205.633L263.677 206.522ZM280.219 214.98L289.5 214.98L289.5 213.98L280.219 213.98L280.219 214.98ZM289 214.48L289 219.841L290 219.841L290 214.48L289 214.48ZM289.5 219.341L280.219 219.341L280.219 220.341L289.5 220.341L289.5 219.341ZM279.99 219.397L263.677 227.799L264.135 228.688L280.448 220.286L279.99 219.397ZM264.406 228.244L264.406 222.461L263.406 222.461L263.406 228.244L264.406 228.244ZM264.115 222.915L275.646 217.624L275.229 216.715L263.698 222.006L264.115 222.915ZM278.408 184.381L278.908 184.381L278.908 183.881L278.408 183.881L278.408 184.381ZM278.408 194.506L277.908 194.506L277.908 195.006L278.408 195.006L278.408 194.506ZM285.264 194.506L285.264 195.006L285.764 195.006L285.764 194.506L285.264 194.506ZM285.264 182.624L285.264 182.124L284.764 182.124L284.764 182.624L285.264 182.624ZM289.5 182.624L290 182.624L290 182.124L289.5 182.124L289.5 182.624ZM289.5 199.78L289.5 200.28L290 200.28L290 199.78L289.5 199.78ZM263.906 199.78L263.406 199.78L263.406 200.28L263.906 200.28L263.906 199.78ZM263.906 182.659L263.906 182.159L263.406 182.159L263.406 182.659L263.906 182.659ZM268.178 182.659L268.678 182.659L268.678 182.159L268.178 182.159L268.178 182.659ZM268.178 194.506L267.678 194.506L267.678 195.006L268.178 195.006L268.178 194.506ZM274.277 194.506L274.277 195.006L274.777 195.006L274.777 194.506L274.277 194.506ZM274.277 184.381L274.277 183.881L273.777 183.881L273.777 184.381L274.277 184.381ZM277.908 184.381L277.908 194.506L278.908 194.506L278.908 184.381L277.908 184.381ZM278.408 195.006L285.264 195.006L285.264 194.006L278.408 194.006L278.408 195.006ZM285.764 194.506L285.764 182.624L284.764 182.624L284.764 194.506L285.764 194.506ZM285.264 183.124L289.5 183.124L289.5 182.124L285.264 182.124L285.264 183.124ZM289 182.624L289 199.78L290 199.78L290 182.624L289 182.624ZM289.5 199.28L263.906 199.28L263.906 200.28L289.5 200.28L289.5 199.28ZM264.406 199.78L264.406 182.659L263.406 182.659L263.406 199.78L264.406 199.78ZM263.906 183.159L268.178 183.159L268.178 182.159L263.906 182.159L263.906 183.159ZM267.678 182.659L267.678 194.506L268.678 194.506L268.678 182.659L267.678 182.659ZM268.178 195.006L274.277 195.006L274.277 194.006L268.178 194.006L268.178 195.006ZM274.777 194.506L274.777 184.381L273.777 184.381L273.777 194.506L274.777 194.506ZM274.277 184.881L278.408 184.881L278.408 183.881L274.277 183.881L274.277 184.881ZM285.264 170.296L285.264 170.796L285.764 170.796L285.764 170.296L285.264 170.296ZM285.264 159.099L285.264 158.599L284.764 158.599L284.764 159.099L285.264 159.099ZM289.5 159.099L290 159.099L290 158.599L289.5 158.599L289.5 159.099ZM289.5 175.57L289.5 176.07L290 176.07L290 175.57L289.5 175.57ZM263.906 175.57L263.406 175.57L263.406 176.07L263.906 176.07L263.906 175.57ZM263.906 170.296L263.906 169.796L263.406 169.796L263.406 170.296L263.906 170.296ZM285.764 170.296L285.764 159.099L284.764 159.099L284.764 170.296L285.764 170.296ZM285.264 159.599L289.5 159.599L289.5 158.599L285.264 158.599L285.264 159.599ZM289 159.099L289 175.57L290 175.57L290 159.099L289 159.099ZM289.5 175.07L263.906 175.07L263.906 176.07L289.5 176.07L289.5 175.07ZM264.406 175.57L264.406 170.296L263.406 170.296L263.406 175.57L264.406 175.57ZM263.906 170.796L285.264 170.796L285.264 169.796L263.906 169.796L263.906 170.796ZM285.264 146.825L285.264 147.325L285.764 147.325L285.764 146.825L285.264 146.825ZM285.264 135.627L285.264 135.127L284.764 135.127L284.764 135.627L285.264 135.627ZM289.5 135.627L290 135.627L290 135.127L289.5 135.127L289.5 135.627ZM289.5 152.098L289.5 152.598L290 152.598L290 152.098L289.5 152.098ZM263.906 152.098L263.406 152.098L263.406 152.598L263.906 152.598L263.906 152.098ZM263.906 146.825L263.906 146.325L263.406 146.325L263.406 146.825L263.906 146.825ZM285.764 146.825L285.764 135.627L284.764 135.627L284.764 146.825L285.764 146.825ZM285.264 136.127L289.5 136.127L289.5 135.127L285.264 135.127L285.264 136.127ZM289 135.627L289 152.098L290 152.098L290 135.627L289 135.627ZM289.5 151.598L263.906 151.598L263.906 152.598L289.5 152.598L289.5 151.598ZM264.406 152.098L264.406 146.825L263.406 146.825L263.406 152.098L264.406 152.098ZM263.906 147.325L285.264 147.325L285.264 146.325L263.906 146.325L263.906 147.325ZM288.305 113.896L287.88 114.159L287.881 114.161L288.305 113.896ZM283.963 129.136L284.18 129.587L284.181 129.586L283.963 129.136ZM277.424 130.525L277.424 131.025L277.426 131.025L277.424 130.525ZM269.514 129.171L269.299 129.623L269.3 129.623L269.514 129.171ZM265.102 125.322L265.527 125.059L265.527 125.058L265.102 125.322ZM265.102 113.949L265.526 114.213L265.528 114.21L265.102 113.949ZM269.514 110.099L269.726 110.552L269.729 110.55L269.514 110.099ZM269.988 123.722L270.275 123.313L270.274 123.312L269.988 123.722ZM276.035 125.181L276.033 125.681L276.035 125.681L276.035 125.181ZM283.453 115.513L283.736 115.101L283.734 115.1L283.453 115.513ZM277.371 114.072L277.373 113.572L277.371 113.572L277.371 114.072ZM277.283 109.228C279.744 109.228 281.878 109.663 283.698 110.517L284.123 109.611C282.146 108.684 279.862 108.228 277.283 108.228L277.283 109.228ZM283.698 110.517C285.515 111.369 286.903 112.584 287.88 114.159L288.73 113.633C287.644 111.88 286.102 110.54 284.123 109.611L283.698 110.517ZM287.881 114.161C288.857 115.726 289.352 117.531 289.352 119.591L290.352 119.591C290.352 117.363 289.815 115.371 288.729 113.631L287.881 114.161ZM289.352 119.591C289.352 121.628 288.863 123.429 287.896 125.008L288.749 125.53C289.82 123.781 290.352 121.796 290.352 119.591L289.352 119.591ZM287.896 125.008C286.93 126.584 285.552 127.811 283.745 128.686L284.181 129.586C286.147 128.634 287.675 127.282 288.749 125.53L287.896 125.008ZM283.746 128.686C281.925 129.563 279.82 130.013 277.421 130.025L277.426 131.025C279.949 131.013 282.204 130.538 284.18 129.587L283.746 128.686ZM277.424 130.025L276.158 130.025L276.158 131.025L277.424 131.025L277.424 130.025ZM276.158 130.025C273.698 130.025 271.559 129.585 269.727 128.719L269.3 129.623C271.289 130.563 273.579 131.025 276.158 131.025L276.158 130.025ZM269.728 128.72C267.885 127.843 266.491 126.622 265.527 125.059L264.676 125.584C265.751 127.326 267.299 128.672 269.299 129.623L269.728 128.72ZM265.527 125.058C264.549 123.48 264.055 121.675 264.055 119.626L263.055 119.626C263.055 121.844 263.592 123.835 264.677 125.585L265.527 125.058ZM264.055 119.626C264.055 117.578 264.549 115.779 265.526 114.213L264.677 113.684C263.592 115.423 263.055 117.409 263.055 119.626L264.055 119.626ZM265.528 114.21C266.492 112.636 267.885 111.416 269.726 110.552L269.301 109.646C267.299 110.587 265.75 111.933 264.675 113.687L265.528 114.21ZM269.729 110.55C271.561 109.674 273.694 109.228 276.141 109.228L276.141 108.228C273.572 108.228 271.287 108.696 269.298 109.648L269.729 110.55ZM276.141 109.228L277.283 109.228L277.283 108.228L276.141 108.228L276.141 109.228ZM276.123 113.572C273.393 113.572 271.236 114.058 269.722 115.101L270.29 115.925C271.565 115.046 273.486 114.572 276.123 114.572L276.123 113.572ZM269.722 115.101C268.184 116.161 267.414 117.691 267.414 119.626L268.414 119.626C268.414 118 269.039 116.787 270.29 115.925L269.722 115.101ZM267.414 119.626C267.414 121.55 268.178 123.073 269.703 124.133L270.274 123.312C269.033 122.45 268.414 121.242 268.414 119.626L267.414 119.626ZM269.701 124.132C271.192 125.176 273.326 125.669 276.033 125.681L276.037 124.681C273.424 124.67 271.527 124.19 270.275 123.313L269.701 124.132ZM276.035 125.681L277.283 125.681L277.283 124.681L276.035 124.681L276.035 125.681ZM277.283 125.681C279.948 125.681 282.087 125.193 283.643 124.156L283.088 123.324C281.761 124.209 279.845 124.681 277.283 124.681L277.283 125.681ZM283.643 124.156C285.23 123.097 286.027 121.555 286.027 119.591L285.027 119.591C285.027 121.237 284.383 122.46 283.088 123.324L283.643 124.156ZM286.027 119.591C286.027 117.668 285.263 116.149 283.736 115.101L283.17 115.925C284.408 116.775 285.027 117.976 285.027 119.591L286.027 119.591ZM283.734 115.1C282.223 114.071 280.08 113.584 277.373 113.572L277.369 114.572C279.982 114.583 281.895 115.057 283.172 115.926L283.734 115.1ZM277.371 113.572L276.123 113.572L276.123 114.572L277.371 114.572L277.371 113.572ZM282.117 81.0023L282.23 81.4896L282.21 80.5111L282.117 81.0023ZM263.906 77.557L263.406 77.557L263.406 77.9713L263.813 78.0483L263.906 77.557ZM263.906 72.3012L264.015 71.813L263.406 71.6781L263.406 72.3012L263.906 72.3012ZM289.5 77.9789L290 77.9789L290 77.5777L289.608 77.4908L289.5 77.9789ZM289.5 83.2875L289.618 83.7733L290 83.6804L290 83.2875L289.5 83.2875ZM272.379 87.4535L272.261 86.9677L272.261 87.9393L272.379 87.4535ZM289.5 91.6195L290 91.6195L290 91.2266L289.618 91.1337L289.5 91.6195ZM289.5 96.9281L289.608 97.4163L290 97.3294L290 96.9281L289.5 96.9281ZM263.906 102.606L263.406 102.606L263.406 103.229L264.015 103.094L263.906 102.606ZM263.906 97.35L263.813 96.8588L263.406 96.9363L263.406 97.35L263.906 97.35ZM282.082 93.8871L282.176 94.3783L282.195 93.4001L282.082 93.8871ZM263.906 89.6684L263.406 89.6684L263.406 90.0656L263.793 90.1554L263.906 89.6684ZM263.906 85.2035L263.794 84.7163L263.406 84.8057L263.406 85.2035L263.906 85.2035ZM282.21 80.5111L263.999 77.0658L263.813 78.0483L282.024 81.4936L282.21 80.5111ZM264.406 77.557L264.406 72.3012L263.406 72.3012L263.406 77.557L264.406 77.557ZM263.798 72.7893L289.392 78.467L289.608 77.4908L264.015 71.813L263.798 72.7893ZM289 77.9789L289 83.2875L290 83.2875L290 77.9789L289 77.9789ZM289.382 82.8017L272.261 86.9677L272.497 87.9393L289.618 83.7733L289.382 82.8017ZM272.261 87.9393L289.382 92.1054L289.618 91.1337L272.497 86.9677L272.261 87.9393ZM289 91.6195L289 96.9281L290 96.9281L290 91.6195L289 91.6195ZM289.392 96.44L263.798 102.118L264.015 103.094L289.608 97.4163L289.392 96.44ZM264.406 102.606L264.406 97.35L263.406 97.35L263.406 102.606L264.406 102.606ZM264 97.8412L282.176 94.3783L281.988 93.3959L263.813 96.8588L264 97.8412ZM282.195 93.4001L264.019 89.1813L263.793 90.1554L281.969 94.3742L282.195 93.4001ZM264.406 89.6684L264.406 85.2035L263.406 85.2035L263.406 89.6684L264.406 89.6684ZM264.019 85.6907L282.23 81.4896L282.005 80.5151L263.794 84.7163L264.019 85.6907Z" fill="#DCCE00"/>
</g>
<path d="M32.3047 228.125L45 267.695L57.6562 228.125H75.7031V285H61.9531V271.719L63.2812 244.531L49.5312 285H40.4688L26.6797 244.492L28.0078 271.719V285H14.2969V228.125H32.3047ZM103.465 272.783C103.465 275.303 103.02 277.512 102.129 279.41C101.238 281.309 99.9609 282.773 98.2969 283.805C96.6445 284.836 94.7461 285.352 92.6016 285.352C90.4805 285.352 88.5879 284.842 86.9238 283.822C85.2598 282.803 83.9707 281.35 83.0566 279.463C82.1426 277.564 81.6797 275.385 81.668 272.924V271.658C81.668 269.139 82.1191 266.924 83.0215 265.014C83.9355 263.092 85.2188 261.621 86.8711 260.602C88.5352 259.57 90.4336 259.055 92.5664 259.055C94.6992 259.055 96.5918 259.57 98.2441 260.602C99.9082 261.621 101.191 263.092 102.094 265.014C103.008 266.924 103.465 269.133 103.465 271.641V272.783ZM98.1211 271.623C98.1211 268.939 97.6406 266.9 96.6797 265.506C95.7188 264.111 94.3477 263.414 92.5664 263.414C90.7969 263.414 89.4316 264.105 88.4707 265.488C87.5098 266.859 87.0234 268.875 87.0117 271.535V272.783C87.0117 275.396 87.4922 277.424 88.4531 278.865C89.4141 280.307 90.7969 281.027 92.6016 281.027C94.3711 281.027 95.7305 280.336 96.6797 278.953C97.6289 277.559 98.1094 275.531 98.1211 272.871V271.623ZM125.771 263.678H117.931V285H112.658V263.678H104.923V259.406H125.771V263.678ZM150.045 272.783C150.045 275.303 149.6 277.512 148.71 279.41C147.819 281.309 146.542 282.773 144.878 283.805C143.225 284.836 141.327 285.352 139.182 285.352C137.061 285.352 135.169 284.842 133.504 283.822C131.84 282.803 130.551 281.35 129.637 279.463C128.723 277.564 128.26 275.385 128.249 272.924V271.658C128.249 269.139 128.7 266.924 129.602 265.014C130.516 263.092 131.799 261.621 133.452 260.602C135.116 259.57 137.014 259.055 139.147 259.055C141.28 259.055 143.172 259.57 144.825 260.602C146.489 261.621 147.772 263.092 148.674 265.014C149.588 266.924 150.045 269.133 150.045 271.641V272.783ZM144.702 271.623C144.702 268.939 144.221 266.9 143.26 265.506C142.299 264.111 140.928 263.414 139.147 263.414C137.378 263.414 136.012 264.105 135.051 265.488C134.09 266.859 133.604 268.875 133.592 271.535V272.783C133.592 275.396 134.073 277.424 135.034 278.865C135.995 280.307 137.378 281.027 139.182 281.027C140.952 281.027 142.311 280.336 143.26 278.953C144.21 277.559 144.69 275.531 144.702 272.871V271.623ZM164.072 275.631H159.871V285H154.598V259.406H164.107C167.131 259.406 169.463 260.08 171.103 261.428C172.744 262.775 173.564 264.68 173.564 267.141C173.564 268.887 173.183 270.346 172.422 271.518C171.672 272.678 170.529 273.604 168.994 274.295L174.531 284.754V285H168.871L164.072 275.631ZM159.871 271.359H164.125C165.449 271.359 166.474 271.025 167.201 270.357C167.928 269.678 168.291 268.746 168.291 267.562C168.291 266.355 167.945 265.406 167.254 264.715C166.574 264.023 165.525 263.678 164.107 263.678H159.871V271.359ZM198.401 276.475C198.202 279.229 197.183 281.396 195.343 282.979C193.515 284.561 191.101 285.352 188.101 285.352C184.819 285.352 182.235 284.25 180.349 282.047C178.474 279.832 177.536 276.797 177.536 272.941V271.377C177.536 268.916 177.97 266.748 178.837 264.873C179.704 262.998 180.941 261.562 182.546 260.566C184.163 259.559 186.038 259.055 188.171 259.055C191.124 259.055 193.503 259.846 195.308 261.428C197.112 263.01 198.155 265.23 198.437 268.09H193.163C193.034 266.438 192.571 265.242 191.775 264.504C190.989 263.754 189.788 263.379 188.171 263.379C186.413 263.379 185.095 264.012 184.216 265.277C183.349 266.531 182.903 268.482 182.88 271.131V273.064C182.88 275.83 183.296 277.852 184.128 279.129C184.972 280.406 186.296 281.045 188.101 281.045C189.73 281.045 190.943 280.676 191.739 279.938C192.548 279.188 193.011 278.033 193.128 276.475H198.401ZM211.409 270.938L216.735 259.406H222.5L214.098 275.719V285H208.737V275.719L200.334 259.406H206.118L211.409 270.938ZM245.123 276.475C244.924 279.229 243.904 281.396 242.064 282.979C240.236 284.561 237.822 285.352 234.822 285.352C231.541 285.352 228.957 284.25 227.07 282.047C225.195 279.832 224.258 276.797 224.258 272.941V271.377C224.258 268.916 224.691 266.748 225.558 264.873C226.425 262.998 227.662 261.562 229.267 260.566C230.884 259.559 232.759 259.055 234.892 259.055C237.845 259.055 240.224 259.846 242.029 261.428C243.834 263.01 244.877 265.23 245.158 268.09H239.884C239.756 266.438 239.293 265.242 238.496 264.504C237.711 263.754 236.509 263.379 234.892 263.379C233.134 263.379 231.816 264.012 230.937 265.277C230.07 266.531 229.625 268.482 229.601 271.131V273.064C229.601 275.83 230.017 277.852 230.849 279.129C231.693 280.406 233.017 281.045 234.822 281.045C236.451 281.045 237.664 280.676 238.461 279.938C239.269 279.188 239.732 278.033 239.849 276.475H245.123ZM254.579 280.764H265.776V285H249.306V259.406H254.579V280.764ZM284.936 273.908H274.811V280.764H286.694V285H269.537V259.406H286.658V263.678H274.811V269.777H284.936V273.908Z" fill="black"/>
<path d="M71.6515 20.126H67.2657V32H66.1847V20.126H61.8077V19.2031H71.6515V20.126ZM80.487 26.6738H76.7692V32H75.6793V19.2031H79.8366C81.2018 19.2031 82.2682 19.5342 83.0358 20.1963C83.8034 20.8584 84.1871 21.7842 84.1871 22.9736C84.1871 23.7939 83.9469 24.5176 83.4664 25.1445C82.986 25.7715 82.3414 26.2051 81.5329 26.4453L84.7321 31.8857V32H83.5807L80.487 26.6738ZM76.7692 25.751H80.0827C80.9909 25.751 81.7204 25.4932 82.2711 24.9775C82.8219 24.4619 83.0973 23.7939 83.0973 22.9736C83.0973 22.0713 82.8102 21.3711 82.236 20.873C81.6618 20.375 80.8561 20.126 79.819 20.126H76.7692V25.751ZM96.0197 28.4141H90.2101L88.8918 32H87.758L92.6007 19.2031H93.6291L98.4718 32H97.3468L96.0197 28.4141ZM90.5441 27.4912H95.6769L93.1105 20.5215L90.5441 27.4912ZM111.869 32H110.788L103.431 21.0488V32H102.341V19.2031H103.431L110.797 30.1631V19.2031H111.869V32ZM124.343 28.8535C124.343 28.1445 124.094 27.585 123.596 27.1748C123.098 26.7588 122.187 26.3662 120.862 25.9971C119.538 25.6221 118.571 25.2148 117.962 24.7754C117.095 24.1543 116.661 23.3398 116.661 22.332C116.661 21.3535 117.063 20.5596 117.865 19.9502C118.674 19.335 119.705 19.0273 120.959 19.0273C121.809 19.0273 122.568 19.1914 123.236 19.5195C123.909 19.8477 124.431 20.3047 124.8 20.8906C125.169 21.4766 125.354 22.1299 125.354 22.8506H124.264C124.264 21.9775 123.965 21.2773 123.367 20.75C122.77 20.2168 121.967 19.9502 120.959 19.9502C119.981 19.9502 119.201 20.1699 118.621 20.6094C118.041 21.043 117.751 21.6113 117.751 22.3145C117.751 22.9648 118.012 23.4951 118.533 23.9053C119.055 24.3154 119.89 24.6787 121.038 24.9951C122.187 25.3057 123.057 25.6309 123.649 25.9707C124.24 26.3047 124.686 26.7061 124.985 27.1748C125.283 27.6436 125.433 28.1973 125.433 28.8359C125.433 29.8438 125.029 30.6523 124.22 31.2617C123.417 31.8711 122.357 32.1758 121.038 32.1758C120.136 32.1758 119.307 32.0146 118.551 31.6924C117.801 31.3701 117.23 30.9189 116.837 30.3389C116.45 29.7588 116.257 29.0938 116.257 28.3438H117.338C117.338 29.2461 117.675 29.958 118.349 30.4795C119.023 31.001 119.919 31.2617 121.038 31.2617C122.034 31.2617 122.834 31.042 123.438 30.6025C124.041 30.1631 124.343 29.5801 124.343 28.8535ZM130.832 26.7881V32H129.751V19.2031H134.11C135.44 19.2031 136.489 19.543 137.257 20.2227C138.03 20.9023 138.417 21.8369 138.417 23.0264C138.417 24.2275 138.045 25.1562 137.301 25.8125C136.562 26.4629 135.49 26.7881 134.084 26.7881H130.832ZM130.832 25.874H134.11C135.159 25.874 135.959 25.625 136.509 25.127C137.06 24.6289 137.336 23.9346 137.336 23.0439C137.336 22.1592 137.06 21.4561 136.509 20.9346C135.965 20.4072 135.188 20.1377 134.18 20.126H130.832V25.874ZM152.28 26.2959C152.28 27.4736 152.074 28.5078 151.664 29.3984C151.26 30.2891 150.68 30.9746 149.924 31.4551C149.168 31.9355 148.295 32.1758 147.305 32.1758C145.811 32.1758 144.604 31.6426 143.684 30.5762C142.764 29.5039 142.304 28.0596 142.304 26.2432V24.9248C142.304 23.7588 142.509 22.7275 142.919 21.8311C143.335 20.9287 143.921 20.2373 144.677 19.7568C145.433 19.2705 146.303 19.0273 147.287 19.0273C148.272 19.0273 149.139 19.2646 149.889 19.7393C150.645 20.2139 151.228 20.8848 151.638 21.752C152.048 22.6191 152.262 23.624 152.28 24.7666V26.2959ZM151.198 24.9072C151.198 23.3662 150.85 22.1592 150.153 21.2861C149.455 20.4131 148.5 19.9766 147.287 19.9766C146.098 19.9766 145.149 20.416 144.44 21.2949C143.737 22.168 143.385 23.3896 143.385 24.96V26.2959C143.385 27.8135 143.737 29.0176 144.44 29.9082C145.143 30.793 146.098 31.2354 147.305 31.2354C148.53 31.2354 149.485 30.7988 150.17 29.9258C150.856 29.0469 151.198 27.8252 151.198 26.2607V24.9072ZM161.765 26.6738H158.048V32H156.958V19.2031H161.115C162.48 19.2031 163.547 19.5342 164.314 20.1963C165.082 20.8584 165.466 21.7842 165.466 22.9736C165.466 23.7939 165.225 24.5176 164.745 25.1445C164.264 25.7715 163.62 26.2051 162.811 26.4453L166.01 31.8857V32H164.859L161.765 26.6738ZM158.048 25.751H161.361C162.269 25.751 162.999 25.4932 163.55 24.9775C164.1 24.4619 164.376 23.7939 164.376 22.9736C164.376 22.0713 164.089 21.3711 163.514 20.873C162.94 20.375 162.135 20.126 161.097 20.126H158.048V25.751ZM178.37 20.126H173.985V32H172.904V20.126H168.527V19.2031H178.37V20.126ZM188.63 28.4141H182.82L181.502 32H180.368L185.211 19.2031H186.239L191.082 32H189.957L188.63 28.4141ZM183.154 27.4912H188.287L185.721 20.5215L183.154 27.4912ZM202.492 20.126H198.107V32H197.026V20.126H192.649V19.2031H202.492V20.126ZM207.865 32H206.784V19.2031H207.865V32ZM222.783 26.2959C222.783 27.4736 222.577 28.5078 222.167 29.3984C221.763 30.2891 221.183 30.9746 220.427 31.4551C219.671 31.9355 218.798 32.1758 217.808 32.1758C216.314 32.1758 215.107 31.6426 214.187 30.5762C213.267 29.5039 212.807 28.0596 212.807 26.2432V24.9248C212.807 23.7588 213.012 22.7275 213.422 21.8311C213.838 20.9287 214.424 20.2373 215.18 19.7568C215.936 19.2705 216.806 19.0273 217.79 19.0273C218.775 19.0273 219.642 19.2646 220.392 19.7393C221.148 20.2139 221.731 20.8848 222.141 21.752C222.551 22.6191 222.765 23.624 222.783 24.7666V26.2959ZM221.702 24.9072C221.702 23.3662 221.353 22.1592 220.656 21.2861C219.958 20.4131 219.003 19.9766 217.79 19.9766C216.601 19.9766 215.652 20.416 214.943 21.2949C214.24 22.168 213.888 23.3896 213.888 24.96V26.2959C213.888 27.8135 214.24 29.0176 214.943 29.9082C215.646 30.793 216.601 31.2354 217.808 31.2354C219.033 31.2354 219.988 30.7988 220.673 29.9258C221.359 29.0469 221.702 27.8252 221.702 26.2607V24.9072ZM237.015 32H235.933L228.577 21.0488V32H227.487V19.2031H228.577L235.942 30.1631V19.2031H237.015V32Z" fill="black"/>
<path fill-rule="evenodd" clip-rule="evenodd" d="M52.5031 197.181C52.5031 197.181 159.702 170.84 249 198.372L52.5031 197.181Z" fill="#D4E070"/>
<path fill-rule="evenodd" clip-rule="evenodd" d="M135.109 166.074C135.109 166.074 134.811 144.887 141.252 137.17C147.693 129.453 142.778 113.812 169.748 114.674C196.718 115.535 191.246 110.311 196.561 122.36C201.877 134.409 186.72 145.25 184.905 150.843C183.09 156.437 182.499 171.575 180.344 171.991C178.189 172.408 135.109 166.074 135.109 166.074Z" fill="#0A0B09"/>
<path fill-rule="evenodd" clip-rule="evenodd" d="M211.414 92.9255C211.414 92.9255 211.697 97.1175 210.614 100.373C209.529 103.629 206.958 106.614 206.551 106.614C206.146 106.614 200.189 110.843 200.189 110.843C200.189 110.843 219.954 114.345 221.308 112.446C222.662 110.547 214.922 93.076 211.414 92.9255Z" fill="#0A0B09"/>
<path fill-rule="evenodd" clip-rule="evenodd" d="M183.918 111.781C183.918 111.781 216.754 111.277 222.809 114.683C228.865 118.089 209.756 120.349 198.856 118.777C187.956 117.206 184.053 115.314 183.918 111.781Z" fill="#173A29"/>
<path fill-rule="evenodd" clip-rule="evenodd" d="M216.459 155.769L216.522 155.832C216.565 155.874 216.626 155.937 216.706 156.009C216.868 156.161 217.102 156.357 217.397 156.588C217.546 156.699 217.71 156.817 217.887 156.943C218.064 157.056 218.256 157.193 218.459 157.311C218.866 157.557 219.324 157.81 219.82 158.032C220.809 158.483 221.952 158.837 223.161 159.008C223.765 159.095 224.385 159.132 225.013 159.132C225.327 159.13 225.642 159.117 225.958 159.09C226.273 159.066 226.589 159.036 226.905 158.996C228.168 158.845 229.421 158.558 230.586 158.171C231.752 157.779 232.829 157.28 233.745 156.748C234.202 156.483 234.62 156.214 234.988 155.946C235.173 155.82 235.345 155.687 235.502 155.563C235.662 155.444 235.807 155.32 235.938 155.21C236.2 154.989 236.404 154.794 236.543 154.657C236.682 154.513 236.756 154.436 236.756 154.436L237.736 167.267C237.736 167.267 237.652 167.203 237.493 167.085C237.335 166.974 237.104 166.817 236.812 166.646C236.666 166.559 236.504 166.463 236.329 166.373C236.154 166.279 235.964 166.177 235.762 166.086C235.36 165.885 234.906 165.693 234.415 165.511C233.431 165.147 232.292 164.844 231.082 164.66C229.873 164.482 228.595 164.417 227.325 164.489C227.006 164.504 226.69 164.53 226.375 164.563C226.06 164.591 225.747 164.633 225.437 164.686C224.818 164.795 224.212 164.941 223.628 165.133C222.463 165.512 221.389 166.062 220.48 166.679C220.025 166.985 219.612 167.314 219.248 167.627C219.065 167.781 218.896 167.949 218.739 168.092C218.583 168.247 218.439 168.391 218.311 168.527C218.053 168.807 217.852 169.042 217.716 169.22C217.648 169.305 217.596 169.378 217.561 169.426L217.509 169.5L216.459 155.769Z" fill="#9CAEB7"/>
<path fill-rule="evenodd" clip-rule="evenodd" d="M222.639 161.968L222.577 162.035C222.535 162.08 222.472 162.146 222.401 162.231C222.25 162.402 222.054 162.65 221.823 162.966C221.712 163.123 221.595 163.296 221.469 163.485C221.357 163.672 221.22 163.876 221.102 164.093C220.856 164.525 220.604 165.011 220.384 165.537C219.935 166.589 219.581 167.803 219.412 169.085C219.325 169.727 219.286 170.386 219.287 171.053C219.288 171.385 219.302 171.72 219.329 172.055C219.352 172.39 219.381 172.726 219.422 173.061C219.573 174.403 219.859 175.734 220.246 176.972C220.637 178.209 221.134 179.353 221.663 180.326C221.929 180.811 222.196 181.255 222.463 181.646C222.589 181.842 222.722 182.024 222.846 182.193C222.964 182.362 223.087 182.516 223.199 182.654C223.417 182.933 223.612 183.15 223.748 183.297C223.891 183.444 223.969 183.523 223.969 183.523L211.177 184.564C211.177 184.564 211.24 184.474 211.358 184.306C211.468 184.138 211.624 183.894 211.795 183.584C211.881 183.427 211.977 183.256 212.067 183.07C212.161 182.884 212.263 182.683 212.354 182.469C212.553 182.04 212.746 181.559 212.926 181.037C213.289 179.991 213.592 178.782 213.775 177.498C213.953 176.215 214.017 174.855 213.946 173.507C213.93 173.17 213.904 172.833 213.873 172.5C213.844 172.164 213.801 171.831 213.749 171.503C213.64 170.845 213.495 170.201 213.304 169.583C212.926 168.344 212.377 167.204 211.762 166.238C211.458 165.755 211.13 165.317 210.816 164.93C210.663 164.736 210.495 164.557 210.353 164.39C210.198 164.224 210.055 164.072 209.919 163.934C209.64 163.661 209.406 163.448 209.23 163.303C209.144 163.231 209.071 163.175 209.024 163.139L208.95 163.083L222.639 161.968Z" fill="#9CAEB7"/>
<path fill-rule="evenodd" clip-rule="evenodd" d="M212.633 168.245L212.629 168.154C212.626 168.093 212.624 168.004 212.614 167.894C212.6 167.668 212.561 167.357 212.5 166.976C212.467 166.788 212.426 166.584 212.381 166.364C212.327 166.154 212.278 165.916 212.209 165.682C212.075 165.207 211.908 164.69 211.691 164.167C211.262 163.116 210.651 162.018 209.861 160.998C209.468 160.488 209.028 159.998 208.557 159.531C208.32 159.299 208.073 159.072 207.816 158.856C207.563 158.637 207.303 158.422 207.038 158.214C205.982 157.378 204.839 156.644 203.691 156.043C202.539 155.447 201.379 154.99 200.319 154.677C199.789 154.52 199.286 154.394 198.822 154.307C198.595 154.257 198.372 154.222 198.165 154.19C197.963 154.153 197.767 154.131 197.591 154.111C197.239 154.069 196.949 154.052 196.749 154.043C196.544 154.04 196.434 154.038 196.434 154.038L204.689 144.394C204.689 144.394 204.708 144.501 204.745 144.701C204.786 144.895 204.85 145.176 204.949 145.513C204.998 145.682 205.051 145.87 205.121 146.062C205.186 146.259 205.258 146.47 205.345 146.684C205.508 147.124 205.714 147.595 205.956 148.089C206.441 149.076 207.085 150.135 207.866 151.165C208.65 152.19 209.568 153.188 210.572 154.085C210.822 154.311 211.078 154.529 211.337 154.742C211.594 154.957 211.859 155.161 212.129 155.356C212.671 155.742 213.23 156.092 213.803 156.393C214.945 157 216.138 157.418 217.255 157.667C217.81 157.793 218.352 157.873 218.846 157.926C219.091 157.957 219.335 157.965 219.553 157.983C219.78 157.992 219.988 157.998 220.181 158C220.572 157.998 220.886 157.984 221.114 157.962C221.224 157.954 221.315 157.942 221.375 157.934L221.465 157.922L212.633 168.245Z" fill="#9CAEB7"/>
<path fill-rule="evenodd" clip-rule="evenodd" d="M231.077 175.567C223.935 184.011 211.319 185.049 202.9 177.886C194.481 170.721 193.448 158.068 200.59 149.624C207.732 141.18 220.347 140.143 228.766 147.307C237.185 154.471 238.22 167.124 231.077 175.567ZM193.407 143.511C182.898 155.934 184.419 174.55 196.806 185.09C209.192 195.63 227.753 194.103 238.26 181.681C248.769 169.257 247.248 150.641 234.861 140.102C222.475 129.561 203.915 131.088 193.407 143.511Z" fill="#242027"/>
<path fill-rule="evenodd" clip-rule="evenodd" d="M231.53 174.792C224.469 183.14 211.996 184.166 203.672 177.084C195.349 170.001 194.327 157.492 201.389 149.143C208.449 140.796 220.922 139.77 229.245 146.852C237.568 153.935 238.592 166.445 231.53 174.792ZM199.281 147.35C191.232 156.866 192.397 171.124 201.885 179.198C211.372 187.271 225.588 186.102 233.637 176.586C241.686 167.07 240.521 152.811 231.034 144.739C221.547 136.665 207.33 137.834 199.281 147.35Z" fill="#FFE200"/>
<path fill-rule="evenodd" clip-rule="evenodd" d="M220.286 157.331C223.186 159.798 223.541 164.155 221.082 167.062C218.623 169.97 214.278 170.327 211.381 167.86C208.48 165.393 208.125 161.037 210.585 158.129C213.044 155.221 217.388 154.864 220.286 157.331Z" fill="#BDCDD6"/>
<path fill-rule="evenodd" clip-rule="evenodd" d="M225.575 153.802L225.545 153.838C225.266 154.143 224.805 154.153 224.515 153.859C224.354 153.697 224.185 153.538 224.014 153.386L223.984 153.358C223.675 153.087 223.634 152.604 223.892 152.279L223.896 152.275C224.154 151.955 224.611 151.912 224.918 152.182L224.958 152.217C225.151 152.39 225.342 152.571 225.525 152.755C225.804 153.038 225.823 153.496 225.575 153.802ZM228.053 156.422C228.163 156.663 228.267 156.91 228.363 157.158C228.468 157.431 228.413 157.731 228.242 157.941C228.169 158.032 228.073 158.107 227.96 158.154C227.587 158.313 227.162 158.124 227.011 157.732C226.928 157.515 226.836 157.297 226.739 157.085C226.565 156.704 226.718 156.246 227.081 156.063C227.443 155.88 227.878 156.041 228.053 156.422ZM224.327 168.424C220.933 172.626 214.941 173.142 210.941 169.577C206.942 166.011 206.451 159.715 209.844 155.513C213.237 151.311 219.229 150.794 223.229 154.359C227.228 157.924 227.719 164.221 224.327 168.424ZM229.249 161.587C229.256 161.852 229.256 162.121 229.248 162.388C229.243 162.568 229.178 162.732 229.076 162.859C228.937 163.031 228.728 163.137 228.496 163.13C228.094 163.116 227.778 162.762 227.791 162.34C227.797 162.104 227.798 161.866 227.792 161.632C227.78 161.21 228.096 160.856 228.499 160.843C228.9 160.831 229.237 161.163 229.249 161.587ZM228.349 166.816C228.253 167.063 228.148 167.31 228.037 167.55L227.936 167.71C227.727 167.971 227.368 168.06 227.062 167.903C226.7 167.719 226.549 167.26 226.726 166.881C226.824 166.668 226.915 166.452 227 166.235C227.153 165.843 227.578 165.656 227.951 165.816C228.323 165.977 228.502 166.425 228.349 166.816ZM225.522 170.123C225.783 170.409 225.791 170.852 225.552 171.148L225.5 171.207C225.317 171.39 225.127 171.571 224.933 171.744C224.626 172.016 224.166 171.976 223.906 171.653C223.645 171.33 223.684 170.847 223.992 170.573C224.162 170.422 224.331 170.263 224.491 170.101C224.783 169.807 225.243 169.818 225.522 170.123ZM221.639 173.025C221.73 173.292 221.672 173.577 221.508 173.779C221.428 173.878 221.324 173.957 221.199 174.004C220.96 174.095 220.714 174.178 220.471 174.251C220.084 174.369 219.68 174.134 219.568 173.727C219.457 173.32 219.68 172.896 220.067 172.779C220.282 172.715 220.496 172.641 220.707 172.562C221.086 172.419 221.503 172.626 221.639 173.025ZM216.968 174.012C216.956 174.181 216.893 174.333 216.797 174.452C216.652 174.632 216.429 174.739 216.187 174.721C215.935 174.702 215.679 174.673 215.429 174.637C215.029 174.58 214.751 174.194 214.805 173.775C214.86 173.356 215.227 173.061 215.626 173.119C215.846 173.151 216.072 173.176 216.294 173.194C216.696 173.224 216.997 173.59 216.968 174.012ZM212.317 172.925L212.232 173.059C212.014 173.329 211.638 173.412 211.33 173.237C211.108 173.111 210.885 172.977 210.669 172.835C210.327 172.613 210.223 172.14 210.435 171.78C210.648 171.423 211.097 171.31 211.439 171.534C211.629 171.659 211.825 171.777 212.021 171.888C212.376 172.088 212.508 172.552 212.317 172.925ZM207.469 169.809C207.313 169.596 207.161 169.378 207.019 169.158C206.793 168.809 206.879 168.332 207.212 168.095C207.545 167.857 207.998 167.947 208.224 168.297C208.349 168.49 208.482 168.682 208.62 168.868C208.835 169.159 208.819 169.562 208.601 169.832L208.492 169.942C208.174 170.203 207.716 170.142 207.469 169.809ZM205.268 165.022C205.208 164.764 205.154 164.499 205.109 164.236C205.037 163.82 205.301 163.421 205.697 163.347C206.092 163.272 206.472 163.549 206.544 163.965C206.584 164.197 206.631 164.43 206.683 164.657C206.741 164.905 206.677 165.155 206.531 165.336C206.435 165.454 206.304 165.544 206.148 165.584C205.758 165.684 205.363 165.433 205.268 165.022ZM205.106 159.711C205.15 159.447 205.203 159.183 205.263 158.926C205.358 158.515 205.753 158.263 206.144 158.364C206.536 158.464 206.774 158.879 206.68 159.289C206.627 159.516 206.579 159.748 206.541 159.981C206.517 160.119 206.46 160.241 206.379 160.341C206.216 160.542 205.96 160.649 205.695 160.6C205.299 160.526 205.035 160.128 205.106 159.711ZM207.014 154.79C207.155 154.569 207.306 154.351 207.463 154.14C207.704 153.807 208.168 153.745 208.485 154.005C208.804 154.264 208.861 154.746 208.613 155.079C208.478 155.265 208.345 155.456 208.219 155.651L208.172 155.717C207.933 156.01 207.518 156.076 207.207 155.854C206.874 155.616 206.787 155.14 207.014 154.79ZM210.424 152.161C210.211 151.802 210.317 151.33 210.658 151.106C210.873 150.966 211.096 150.829 211.321 150.703C211.675 150.503 212.117 150.642 212.307 151.015C212.454 151.3 212.41 151.64 212.222 151.874C212.165 151.945 212.094 152.006 212.011 152.053C211.813 152.164 211.617 152.284 211.428 152.407C211.086 152.63 210.637 152.52 210.424 152.161ZM214.795 150.165C214.74 149.746 215.018 149.36 215.417 149.302C215.667 149.265 215.922 149.237 216.177 149.217C216.578 149.185 216.927 149.501 216.959 149.923C216.973 150.132 216.907 150.328 216.788 150.476C216.666 150.627 216.489 150.728 216.286 150.744C216.062 150.762 215.836 150.788 215.617 150.819C215.218 150.877 214.85 150.584 214.795 150.165ZM219.56 150.204C219.67 149.798 220.074 149.563 220.46 149.68C220.704 149.754 220.949 149.836 221.187 149.926C221.566 150.069 221.764 150.507 221.629 150.905C221.597 150.995 221.552 151.075 221.497 151.143C221.308 151.379 220.99 151.48 220.696 151.368C220.486 151.29 220.272 151.217 220.058 151.152C219.671 151.035 219.448 150.611 219.56 150.204ZM207.064 153.034C202.369 158.85 203.049 167.564 208.583 172.497C214.118 177.431 222.411 176.717 227.105 170.901C231.801 165.086 231.121 156.373 225.586 151.439C220.053 146.505 211.76 147.22 207.064 153.034Z" fill="#E1E9E3"/>
<path fill-rule="evenodd" clip-rule="evenodd" d="M195.842 145.584C186.49 156.64 187.85 173.266 198.872 182.647C209.896 192.027 226.472 190.664 235.823 179.607C245.176 168.551 243.818 151.925 232.794 142.544C221.771 133.164 205.194 134.528 195.842 145.584ZM237.316 180.876C227.266 192.758 209.453 194.223 197.607 184.143C185.762 174.063 184.301 156.196 194.35 144.315C204.4 132.434 222.214 130.969 234.06 141.048C245.905 151.128 247.366 168.995 237.316 180.876Z" fill="#433B46"/>
<path fill-rule="evenodd" clip-rule="evenodd" d="M89.3606 159.457L89.3559 159.546C89.3536 159.605 89.3489 159.692 89.3497 159.8C89.3466 160.021 89.359 160.327 89.3871 160.703C89.4042 160.889 89.4268 161.09 89.4525 161.308C89.4875 161.517 89.5156 161.753 89.5639 161.986C89.655 162.459 89.7749 162.975 89.9416 163.502C90.2711 164.559 90.7711 165.677 91.4495 166.732C91.7875 167.261 92.1722 167.772 92.5889 168.264C92.7992 168.509 93.0181 168.749 93.2471 168.979C93.4745 169.213 93.7066 169.443 93.9449 169.665C94.8951 170.564 95.9372 171.37 96.9941 172.045C98.0541 172.716 99.1336 173.253 100.13 173.642C100.627 173.837 101.101 173.998 101.542 174.121C101.756 174.188 101.967 174.24 102.163 174.287C102.356 174.338 102.542 174.375 102.709 174.409C103.045 174.478 103.323 174.517 103.515 174.542C103.712 174.561 103.818 174.571 103.818 174.571L95.1062 183.308C95.1062 183.308 95.0961 183.204 95.0774 183.005C95.0532 182.812 95.0135 182.533 94.945 182.197C94.9107 182.03 94.8741 181.842 94.8235 181.649C94.7752 181.453 94.7238 181.241 94.6568 181.026C94.5353 180.584 94.3748 180.109 94.1801 179.61C93.7923 178.611 93.2572 177.528 92.5882 176.464C91.9144 175.404 91.1115 174.359 90.2158 173.407C89.9938 173.167 89.7648 172.934 89.5319 172.707C89.3014 172.476 89.0623 172.257 88.8185 172.046C88.3271 171.628 87.8177 171.243 87.2904 170.904C86.239 170.222 85.1244 169.721 84.0699 169.391C83.5449 169.223 83.0309 169.103 82.5597 169.012C82.326 168.963 82.0916 168.935 81.8836 168.901C81.6663 168.874 81.4654 168.851 81.28 168.834C80.9054 168.805 80.6001 168.793 80.3804 168.797C80.273 168.797 80.1857 168.801 80.1273 168.804L80.0378 168.808L89.3606 159.457Z" fill="#9CAEB7"/>
<path fill-rule="evenodd" clip-rule="evenodd" d="M90.0503 168.808L89.9615 168.804C89.9031 168.801 89.8159 168.797 89.7084 168.797C89.4888 168.793 89.1834 168.805 88.8072 168.834C88.6226 168.851 88.4225 168.874 88.2052 168.901C87.9972 168.935 87.762 168.963 87.5291 169.012C87.0579 169.103 86.5423 169.223 86.0181 169.391C84.9635 169.721 83.8489 170.222 82.7974 170.904C82.2701 171.243 81.7607 171.628 81.27 172.046C81.0255 172.257 80.7864 172.476 80.5566 172.707C80.3237 172.934 80.0947 173.167 79.872 173.407C78.977 174.359 78.1732 175.404 77.4995 176.464C76.8312 177.528 76.2961 178.611 75.9075 179.61C75.7135 180.109 75.5523 180.584 75.4308 181.026C75.3638 181.241 75.3116 181.453 75.2649 181.649C75.2135 181.842 75.1777 182.03 75.1426 182.197C75.0741 182.533 75.0351 182.812 75.011 183.005C74.9915 183.204 74.9814 183.308 74.9814 183.308L66.2704 174.571C66.2704 174.571 66.3756 174.561 66.5734 174.542C66.765 174.517 67.0431 174.478 67.3772 174.409C67.5455 174.375 67.7324 174.338 67.9248 174.287C68.1203 174.24 68.3314 174.188 68.5463 174.121C68.9856 173.998 69.4599 173.837 69.9576 173.642C70.9538 173.253 72.0326 172.716 73.0942 172.045C74.1511 171.37 75.1925 170.564 76.1427 169.665C76.381 169.443 76.6139 169.213 76.8406 168.979C77.0703 168.749 77.2884 168.509 77.4987 168.264C77.9162 167.772 78.2994 167.261 78.6382 166.732C79.3166 165.677 79.8174 164.559 80.1461 163.502C80.3136 162.975 80.4335 162.459 80.5247 161.986C80.573 161.753 80.6002 161.517 80.6353 161.308C80.6617 161.09 80.6843 160.889 80.7015 160.703C80.7295 160.327 80.7412 160.021 80.7381 159.8C80.7389 159.692 80.7342 159.605 80.7311 159.546L80.7272 159.457L90.0503 168.808Z" fill="#9CAEB7"/>
<path fill-rule="evenodd" clip-rule="evenodd" d="M77.5346 165.734L77.6029 165.673C77.6476 165.632 77.716 165.572 77.794 165.494C77.9591 165.338 78.1763 165.108 78.4325 164.817C78.5561 164.671 78.6879 164.509 78.8286 164.333C78.9563 164.158 79.1108 163.967 79.2466 163.764C79.5264 163.358 79.8184 162.899 80.0828 162.399C80.6171 161.399 81.0718 160.232 81.3475 158.982C81.4858 158.356 81.5793 157.71 81.6338 157.054C81.659 156.726 81.6736 156.395 81.6736 156.062C81.6793 155.731 81.6769 155.397 81.6639 155.063C81.624 153.729 81.4492 152.396 81.1645 151.146C80.8758 149.895 80.4732 148.728 80.025 147.728C79.8005 147.227 79.5695 146.769 79.3345 146.362C79.2247 146.159 79.1076 145.969 78.9986 145.793C78.8937 145.617 78.783 145.456 78.6846 145.31C78.4878 145.019 78.3121 144.788 78.1877 144.633C78.0567 144.476 77.986 144.394 77.986 144.394H90.8505C90.8505 144.394 90.7797 144.476 90.6488 144.633C90.5243 144.788 90.3478 145.019 90.1518 145.31C90.0534 145.456 89.9428 145.617 89.8379 145.793C89.7281 145.969 89.611 146.159 89.502 146.362C89.2669 146.769 89.0359 147.227 88.8114 147.728C88.3633 148.728 87.9599 149.895 87.672 151.146C87.3873 152.396 87.2116 153.729 87.1726 155.063C87.1596 155.397 87.1571 155.731 87.162 156.062C87.162 156.395 87.1775 156.726 87.2027 157.054C87.2572 157.71 87.3499 158.356 87.489 158.982C87.7647 160.232 88.2185 161.399 88.7529 162.399C89.0172 162.899 89.3092 163.358 89.5898 163.764C89.7256 163.967 89.8794 164.158 90.007 164.333C90.1494 164.509 90.2795 164.671 90.404 164.817C90.6602 165.108 90.8765 165.338 91.0416 165.494C91.1205 165.572 91.188 165.632 91.2336 165.673L91.3019 165.734H77.5346Z" fill="#9CAEB7"/>
<path fill-rule="evenodd" clip-rule="evenodd" d="M84.4186 183.901C73.3776 183.901 64.4272 174.923 64.4272 163.851C64.4272 152.777 73.3776 143.8 84.4186 143.8C95.4589 143.8 104.409 152.777 104.409 163.851C104.409 174.923 95.4589 183.901 84.4186 183.901ZM84.4186 134.351C68.1742 134.351 55.0063 147.558 55.0063 163.851C55.0063 180.143 68.1742 193.351 84.4186 193.351C100.662 193.351 113.83 180.143 113.83 163.851C113.83 147.558 100.662 134.351 84.4186 134.351Z" fill="#242027"/>
<path fill-rule="evenodd" clip-rule="evenodd" d="M85.0448 184.302C74.1289 184.302 65.2799 175.426 65.2799 164.479C65.2799 153.53 74.1289 144.655 85.0448 144.655C95.9599 144.655 104.808 153.53 104.808 164.479C104.808 175.426 95.9599 184.302 85.0448 184.302ZM85.0448 141.883C72.6019 141.883 62.5157 151.999 62.5157 164.479C62.5157 176.958 72.6019 187.074 85.0448 187.074C97.4862 187.074 107.572 176.958 107.572 164.479C107.572 151.999 97.4862 141.883 85.0448 141.883Z" fill="#FFE200"/>
<path fill-rule="evenodd" clip-rule="evenodd" d="M91.3019 163.851C91.3019 167.664 88.2193 170.755 84.4186 170.755C80.6163 170.755 77.5346 167.664 77.5346 163.851C77.5346 160.038 80.6163 156.947 84.4186 156.947C88.2193 156.947 91.3019 160.038 91.3019 163.851Z" fill="#BDCDD6"/>
<path fill-rule="evenodd" clip-rule="evenodd" d="M97.0887 165.999L97.0421 165.998C96.6405 165.972 96.3353 165.609 96.3594 165.186C96.3734 164.952 96.3811 164.714 96.3811 164.479V164.437C96.3773 164.013 96.7019 163.668 97.1042 163.665H97.1096C97.5096 163.665 97.8358 164.003 97.8389 164.424V164.479C97.8389 164.746 97.8312 165.015 97.8156 165.28C97.7916 165.687 97.47 165.999 97.0887 165.999ZM96.7904 169.678C96.6864 169.923 96.5745 170.167 96.4572 170.402C96.3268 170.664 96.0728 170.814 95.8111 170.814C95.6969 170.814 95.5812 170.786 95.4724 170.725C95.116 170.53 94.9785 170.067 95.1657 169.691C95.269 169.484 95.3668 169.27 95.4577 169.055C95.6223 168.669 96.0534 168.496 96.4215 168.667C96.7889 168.839 96.9543 169.292 96.7904 169.678ZM85.6702 174.457C80.4246 174.457 76.1732 169.989 76.1732 164.479C76.1732 158.968 80.4246 154.501 85.6702 154.501C90.9142 154.501 95.1657 158.968 95.1657 164.479C95.1657 169.989 90.9142 174.457 85.6702 174.457ZM93.8158 173.978C93.6286 174.155 93.4321 174.33 93.2341 174.496C93.099 174.609 92.939 174.663 92.7805 174.663C92.5662 174.663 92.3534 174.564 92.2089 174.373C91.9588 174.042 92.0109 173.56 92.3262 173.297C92.5017 173.151 92.6741 172.997 92.8403 172.841C93.1393 172.557 93.6007 172.582 93.8694 172.896C94.1389 173.211 94.1156 173.695 93.8158 173.978ZM89.4378 176.64C89.197 176.723 88.9508 176.799 88.7046 176.865L88.5221 176.889C88.1982 176.889 87.9015 176.659 87.8169 176.313C87.7175 175.904 87.952 175.486 88.3419 175.381C88.5578 175.322 88.7753 175.256 88.9873 175.184C89.3702 175.053 89.7818 175.273 89.9061 175.676C90.0304 176.077 89.8214 176.51 89.4378 176.64ZM85.2096 176.515C85.1716 176.908 84.8547 177.202 84.4858 177.202L84.4104 177.199C84.158 177.171 83.9033 177.135 83.6524 177.092C83.2563 177.021 82.9876 176.627 83.0536 176.21C83.1204 175.792 83.4955 175.51 83.8924 175.58C84.1122 175.619 84.3367 175.65 84.5596 175.674C84.9595 175.717 85.2508 176.094 85.2096 176.515ZM80.5924 175.281C80.4565 175.527 80.2126 175.665 79.9594 175.665C79.8367 175.665 79.7109 175.632 79.5967 175.562C79.3761 175.428 79.1571 175.286 78.9458 175.139C78.6103 174.904 78.5195 174.428 78.7424 174.076C78.9653 173.724 79.4181 173.628 79.7536 173.862C79.9384 173.993 80.1303 174.118 80.3252 174.235C80.6731 174.446 80.7935 174.914 80.5924 175.281ZM76.8527 172.177C76.723 172.277 76.5724 172.325 76.424 172.325C76.198 172.325 75.9767 172.216 75.8338 172.011C75.6839 171.795 75.5394 171.572 75.4035 171.348C75.1868 170.991 75.2862 170.517 75.6256 170.29C75.9658 170.063 76.4163 170.167 76.6329 170.524C76.7518 170.721 76.8799 170.917 77.0112 171.106C77.2488 171.449 77.1774 171.927 76.8527 172.177ZM74.633 167.748L74.48 167.765C74.1437 167.765 73.8416 167.519 73.7678 167.159C73.715 166.899 73.6692 166.634 73.6327 166.368C73.5729 165.95 73.8478 165.56 74.2463 165.498C74.6447 165.438 75.0152 165.725 75.0742 166.144C75.1076 166.376 75.148 166.611 75.1946 166.839C75.2784 167.253 75.0268 167.659 74.633 167.748ZM73.7585 161.846C73.8106 161.584 73.8711 161.322 73.9387 161.065C74.0467 160.657 74.4482 160.418 74.8358 160.531C75.2241 160.644 75.4516 161.066 75.3445 161.473C75.2854 161.699 75.2318 161.93 75.186 162.16C75.1138 162.52 74.8109 162.769 74.4731 162.769L74.3239 162.752C73.9286 162.666 73.6762 162.26 73.7585 161.846ZM75.8081 156.985C75.9557 156.77 76.1126 156.557 76.2749 156.351C76.5312 156.024 76.9902 155.977 77.3009 156.246C77.6115 156.515 77.6566 156.998 77.4003 157.324C77.2574 157.507 77.1191 157.695 76.9887 157.884C76.8458 158.091 76.6229 158.201 76.3976 158.201C76.2493 158.201 76.1002 158.154 75.9712 158.055C75.6443 157.808 75.5713 157.328 75.8081 156.985ZM79.5571 153.42C79.7769 153.286 80.0021 153.157 80.2289 153.038C80.5885 152.848 81.0265 153.002 81.2067 153.38C81.3869 153.759 81.2409 154.219 80.8813 154.408C80.6825 154.513 80.4844 154.626 80.2902 154.744C80.1753 154.814 80.0487 154.849 79.9244 154.849C79.6728 154.849 79.4289 154.712 79.2938 154.467C79.0911 154.102 79.2091 153.633 79.5571 153.42ZM84.3631 151.765C84.6155 151.737 84.8718 151.716 85.1257 151.704C85.5226 151.682 85.8682 152.013 85.8853 152.436C85.9032 152.86 85.5902 153.217 85.1887 153.235C84.9658 153.245 84.7397 153.263 84.5184 153.288L84.4392 153.292C84.0718 153.292 83.7557 153.001 83.7153 152.608C83.6726 152.187 83.9623 151.81 84.3631 151.765ZM88.477 152.798C88.6005 152.394 89.0114 152.172 89.3943 152.302C89.635 152.383 89.8774 152.475 90.1158 152.572C90.4902 152.727 90.6742 153.171 90.5282 153.565C90.4148 153.867 90.1399 154.051 89.8486 154.051C89.7609 154.051 89.67 154.034 89.583 153.998C89.3733 153.912 89.1605 153.832 88.9485 153.76C88.5656 153.632 88.3543 153.2 88.477 152.798ZM92.7533 155.008C93.0228 154.693 93.4826 154.667 93.7824 154.948C93.9704 155.124 94.1568 155.31 94.3354 155.501C94.6181 155.803 94.615 156.287 94.3284 156.585C94.1871 156.732 94.0014 156.805 93.8166 156.805C93.6286 156.805 93.4407 156.729 93.2978 156.578C93.1401 156.41 92.9762 156.245 92.81 156.09C92.511 155.807 92.4846 155.323 92.7533 155.008ZM95.8072 158.851C96.1745 158.676 96.6056 158.848 96.7718 159.234C96.8751 159.477 96.9737 159.726 97.063 159.975C97.2036 160.372 97.0141 160.813 96.6367 160.962C96.5528 160.995 96.465 161.012 96.3804 161.012C96.0852 161.012 95.8087 160.822 95.6984 160.515C95.6192 160.296 95.5338 160.076 95.4422 159.863C95.2767 159.477 95.4406 159.024 95.8072 158.851ZM85.6702 150.67C78.4123 150.67 72.5283 156.852 72.5283 164.479C72.5283 172.105 78.4123 178.287 85.6702 178.287C92.9281 178.287 98.8113 172.105 98.8113 164.479C98.8113 156.852 92.9281 150.67 85.6702 150.67Z" fill="#E2E6E4"/>
<path fill-rule="evenodd" clip-rule="evenodd" d="M84.4186 137.568C69.9685 137.568 58.2135 149.359 58.2135 163.852C58.2135 178.345 69.9685 190.136 84.4186 190.136C98.8673 190.136 110.623 178.345 110.623 163.852C110.623 149.359 98.8673 137.568 84.4186 137.568ZM84.4186 192.096C68.8907 192.096 56.2579 179.426 56.2579 163.852C56.2579 148.277 68.8907 135.606 84.4186 135.606C99.9451 135.606 112.579 148.277 112.579 163.852C112.579 179.426 99.9451 192.096 84.4186 192.096Z" fill="#433B46"/>
<path fill-rule="evenodd" clip-rule="evenodd" d="M86.0244 166.989L83.7924 162.545L134.126 136.862L136.358 141.306L86.0244 166.989Z" fill="#BDCDD6"/>
<path fill-rule="evenodd" clip-rule="evenodd" d="M82.1832 159.457C80.9987 159.457 80.0378 161.705 80.0378 164.479C80.0378 167.252 80.9987 169.5 82.1832 169.5H150.126V159.457H82.1832Z" fill="#9CAEB7"/>
<path fill-rule="evenodd" clip-rule="evenodd" d="M82.038 166.989C81.7467 166.648 81.2893 165.508 81.2893 163.851C81.2893 162.195 81.7467 161.055 82.0387 160.713H148.874V166.989H82.038Z" fill="#DAEEF5"/>
<path fill-rule="evenodd" clip-rule="evenodd" d="M173.906 143.372C173.906 143.372 166.919 149.662 166.963 164.927L155.088 166.989L150.641 155.181L146.371 141.305C146.371 141.305 156.602 143.564 164.029 138.344C171.456 133.123 173.906 143.372 173.906 143.372Z" fill="#BBD0DB"/>
<path fill-rule="evenodd" clip-rule="evenodd" d="M153.4 154.504L150.126 144.175C150.823 144.223 151.603 144.255 152.442 144.255H152.442C156.2 144.255 161.638 143.599 166.216 140.475C167.289 139.743 168.242 139.372 169.051 139.372C170.904 139.372 172.09 141.597 172.654 143.007C170.596 145.415 166.335 151.726 165.927 163.019L157.269 164.479L153.4 154.504Z" fill="#DAEEF5"/>
<path fill-rule="evenodd" clip-rule="evenodd" d="M146.627 160.988C143.71 156.276 145.155 150.085 149.852 147.161C154.549 144.236 160.721 145.683 163.637 150.395C166.554 155.107 165.11 161.298 160.412 164.222C155.715 167.148 149.543 165.699 146.627 160.988Z" fill="#BDCDD6"/>
<path fill-rule="evenodd" clip-rule="evenodd" d="M161.39 155.064C161.39 158.877 158.308 161.968 154.506 161.968C150.705 161.968 147.623 158.877 147.623 155.064C147.623 151.25 150.705 148.159 154.506 148.159C158.308 148.159 161.39 151.25 161.39 155.064Z" fill="#DAEEF5"/>
<path fill-rule="evenodd" clip-rule="evenodd" d="M122.591 172.924L142.082 175.777L142.616 169.5H125.929L122.591 172.924Z" fill="#9CAEB7"/>
<path fill-rule="evenodd" clip-rule="evenodd" d="M125.094 176.453L144.792 166.989C144.792 166.989 167.411 173.853 171.459 173.869C175.508 173.885 167.969 176.453 167.969 176.453C167.969 176.453 133.181 177.755 125.094 176.453Z" fill="#D3E5EB"/>
<path fill-rule="evenodd" clip-rule="evenodd" d="M151.377 169.072C151.377 169.072 154.123 163.681 157.05 163.397C159.978 163.113 167.481 165.288 171.049 160.843C174.618 156.398 178.277 153.181 178.277 153.181L180.381 156.776C180.381 156.776 173.885 164.248 174.434 166.329C174.983 168.411 186.421 174.463 186.421 174.463C186.421 174.463 179.651 176.166 177.546 175.693C175.441 175.22 151.377 169.072 151.377 169.072Z" fill="#BBD0DB"/>
<path fill-rule="evenodd" clip-rule="evenodd" d="M177.391 173.266C177.047 173.266 176.91 173.236 176.896 173.233C175.294 172.858 160.342 168.904 153.881 167.192C154.745 166.035 155.665 165.144 156.258 165.085C156.388 165.071 156.532 165.068 156.688 165.068C157.241 165.068 157.988 165.13 158.781 165.196C159.869 165.288 161.103 165.391 162.396 165.391C166.651 165.391 169.673 164.159 171.632 161.624C173.028 159.82 174.441 158.214 175.625 156.947C170.55 163.575 171.084 165.679 171.272 166.423C171.434 167.063 171.871 168.784 178.912 173.15C178.343 173.222 177.82 173.266 177.391 173.266Z" fill="#DAEEF5"/>
<path fill-rule="evenodd" clip-rule="evenodd" d="M180.468 144.743C179.887 145.65 178.668 145.921 177.746 145.35L166.066 138.105C165.144 137.533 164.868 136.334 165.449 135.428L173.602 122.704C174.183 121.797 175.401 121.526 176.323 122.097L188.004 129.342C188.926 129.913 189.201 131.113 188.62 132.019L180.468 144.743Z" fill="#9CAEB7"/>
<path fill-rule="evenodd" clip-rule="evenodd" d="M186.26 136.342C185.951 136.862 185.305 137.018 184.816 136.69L169.389 126.361C168.899 126.033 168.752 125.347 169.062 124.827C169.37 124.308 170.016 124.152 170.506 124.48L185.933 134.809C186.422 135.136 186.568 135.822 186.26 136.342Z" fill="#BDCDD6"/>
<path fill-rule="evenodd" clip-rule="evenodd" d="M185.008 140.109C184.7 140.628 184.053 140.784 183.564 140.456L168.137 130.128C167.647 129.8 167.501 129.113 167.809 128.594C168.117 128.074 168.765 127.918 169.254 128.246L184.681 138.575C185.17 138.902 185.317 139.589 185.008 140.109Z" fill="#BDCDD6"/>
<path fill-rule="evenodd" clip-rule="evenodd" d="M183.757 143.874C183.449 144.394 182.801 144.55 182.312 144.222L166.886 133.894C166.396 133.566 166.249 132.879 166.558 132.36C166.866 131.84 167.513 131.685 168.002 132.012L183.43 142.34C183.919 142.668 184.065 143.355 183.757 143.874Z" fill="#BDCDD6"/>
<path fill-rule="evenodd" clip-rule="evenodd" d="M181.254 146.385C180.945 146.904 180.299 147.06 179.81 146.733L164.383 136.404C163.893 136.076 163.746 135.39 164.055 134.87C164.363 134.351 165.01 134.195 165.499 134.522L180.927 144.851C181.415 145.179 181.562 145.866 181.254 146.385Z" fill="#BDCDD6"/>
<path fill-rule="evenodd" clip-rule="evenodd" d="M220.214 163.121C220.214 163.121 220.216 164.928 218.279 165.478C214.976 166.414 214.578 164.48 214.578 164.48L203.943 118.032H207.873L220.214 163.121Z" fill="#E1E9E3"/>
<path fill-rule="evenodd" clip-rule="evenodd" d="M208.95 130.656C208.95 130.656 212.249 155.883 216.232 159.052C220.214 162.219 217.711 145.91 221.466 141.921C225.22 137.932 232.73 138.869 232.73 135.584C232.73 132.299 216.118 126.784 208.95 130.656Z" fill="#E5C80E"/>
<path fill-rule="evenodd" clip-rule="evenodd" d="M209.036 90.7664C209.036 90.7664 214.455 96.5884 214.524 98.2715C214.592 99.9546 213.152 100.657 213.152 101.849C213.152 103.042 218.571 111.879 218.708 113.423C218.846 114.966 215.278 114.756 214.318 114.756C213.358 114.756 194.357 116.86 189.417 115.738C184.48 114.616 185.507 109.073 184.684 107.671C183.862 106.268 182.97 104.725 181.392 103.743C179.815 102.761 164.861 97.6402 157.452 97.6402C150.043 97.6402 137.971 107.601 136.051 110.406C134.13 113.213 133.855 116.067 133.855 116.067C133.855 116.067 140.852 124.156 142.499 124.717C143.179 124.948 146.53 123.982 150.75 123.017C156.744 121.646 164.492 120.274 168.84 122.331C176.248 125.839 183.61 126.727 185.166 129.907C186.72 133.087 173.823 153.663 173.823 153.663L182.422 172.461C182.422 172.461 185.256 174.332 185.714 174.52C186.171 174.706 185.439 157.03 196.048 147.677C206.658 138.325 220.743 132.9 221.475 129.533C222.206 126.166 226.734 124.717 226.46 118.824C226.185 112.932 224.493 107.367 220.194 101.568C215.896 95.7695 211.048 88.756 209.036 90.7664Z" fill="#DCC93E"/>
<path fill-rule="evenodd" clip-rule="evenodd" d="M182.007 123.053C183.538 121.223 184.99 119.323 186.421 117.408C182.844 115.364 182.301 111.315 182.05 109.403C182.015 109.136 181.969 108.792 181.932 108.588C181.292 107.503 180.717 106.575 179.906 106.057C178.192 105.157 164.283 100.457 157.657 100.457C151.621 100.457 140.461 109.521 138.94 111.731C138.251 112.733 137.845 113.755 137.61 114.523C139.873 117.059 142.378 119.683 143.59 120.709C144.416 120.551 145.789 120.22 146.948 119.94C151.212 118.91 157.655 117.355 163.117 117.355C166.082 117.355 168.458 117.796 170.382 118.701C173.02 119.943 175.729 120.86 178.117 121.669C179.511 122.14 180.814 122.584 182.007 123.053Z" fill="#E2615E"/>
<mask id="mask0" mask-type="alpha" maskUnits="userSpaceOnUse" x="134" y="89" width="93" height="85">
<path d="M214.991 97.6909C215.06 99.3734 213.616 100.075 213.616 101.267C213.616 102.459 219.047 111.294 219.184 112.837C219.323 114.379 215.747 114.169 214.785 114.169C213.822 114.169 194.778 116.273 189.827 115.151C184.878 114.029 185.908 108.489 185.083 107.087C184.259 105.685 183.365 104.142 181.784 103.16C180.203 102.178 165.214 97.0598 157.789 97.0598C150.363 97.0598 138.263 107.017 136.338 109.821C134.413 112.627 134.138 115.48 134.138 115.48C134.138 115.48 141.15 123.565 142.801 124.126C143.482 124.357 146.841 123.392 151.071 122.427C157.079 121.056 164.845 119.685 169.202 121.741C176.627 125.248 184.007 126.135 185.566 129.315C187.123 132.493 174.197 153.061 174.197 153.061L182.815 171.853C182.815 171.853 185.656 173.723 186.116 173.91C186.573 174.097 185.839 156.427 196.473 147.078C207.108 137.729 221.224 132.306 221.958 128.94C222.691 125.575 227.23 124.126 226.954 118.236C226.679 112.346 224.983 106.783 220.675 100.986C216.366 95.1899 211.508 88.179 209.49 90.1886C209.49 90.1886 214.922 96.0084 214.991 97.6909Z" fill="white"/>
</mask>
<g mask="url(#mask0)">
<path d="M214.991 97.6909C215.06 99.3734 213.616 100.075 213.616 101.267C213.616 102.459 219.047 111.294 219.184 112.837C219.323 114.379 215.747 114.169 214.785 114.169C213.822 114.169 194.778 116.273 189.827 115.151C184.878 114.029 185.908 108.489 185.083 107.087C184.259 105.685 183.365 104.142 181.784 103.16C180.203 102.178 165.214 97.0598 157.789 97.0598C150.363 97.0598 138.263 107.017 136.338 109.821C134.413 112.627 134.138 115.48 134.138 115.48C134.138 115.48 141.15 123.565 142.801 124.126C143.482 124.357 146.841 123.392 151.071 122.427C157.079 121.056 164.845 119.685 169.202 121.741C176.627 125.248 184.007 126.135 185.566 129.315C187.123 132.493 174.197 153.061 174.197 153.061L182.815 171.853C182.815 171.853 185.656 173.723 186.116 173.91C186.573 174.097 185.839 156.427 196.473 147.078C207.108 137.729 221.224 132.306 221.958 128.94C222.691 125.575 227.23 124.126 226.954 118.236C226.679 112.346 224.983 106.783 220.675 100.986C216.366 95.1899 211.508 88.179 209.49 90.1886C209.49 90.1886 214.922 96.0084 214.991 97.6909Z" fill="#E5D000"/>
<path fill-rule="evenodd" clip-rule="evenodd" d="M234.234 141.489C230.311 149.892 218.388 158.413 218.388 158.413C218.388 158.413 193.295 121.377 142.357 98.0371C141.763 97.7651 202.984 120.024 234.234 141.489Z" fill="#FFED52"/>
<path fill-rule="evenodd" clip-rule="evenodd" d="M123.391 93.185C122.845 92.8236 175.25 130.185 206.5 151.65C202.578 160.053 195.417 162.962 195.417 162.962C195.417 162.962 165.911 121.358 123.391 93.185Z" fill="#FFED52"/>
</g>
<path fill-rule="evenodd" clip-rule="evenodd" d="M124.04 142.417C124.04 142.417 140.156 154.648 141.13 155.62C142.104 156.593 143.913 147.413 150.172 142.417C156.432 137.421 167.283 131.309 171.177 122.835C175.072 114.361 127.259 123.529 124.04 125.058C120.82 126.586 110.666 127.974 111.361 132.281C112.056 136.588 124.04 142.417 124.04 142.417Z" fill="#242027"/>
<path fill-rule="evenodd" clip-rule="evenodd" d="M141.448 153.181C137.75 150.114 127.995 142.403 125.755 140.635L125.629 140.535L125.485 140.461C120.151 137.759 114.183 133.482 113.841 131.283C113.562 129.485 118.801 127.874 121.614 127.008C123.173 126.529 124.518 126.115 125.471 125.646C127.472 124.668 160.107 132.683 154.481 136.888C152.713 138.21 151.042 139.459 149.595 140.661C145.415 144.131 143.153 149.293 141.803 152.377C141.69 152.634 141.567 152.915 141.448 153.181Z" fill="#2E2831"/>
<path fill-rule="evenodd" clip-rule="evenodd" d="M96.6756 150.358C96.3124 150.033 96.277 149.943 96.3252 149.915L96.4233 149.793L97.7907 148.087C98.3146 147.437 98.8312 146.785 99.359 146.139C100.42 144.852 101.462 143.553 102.541 142.277L104.149 140.36L105.777 138.456L107.426 136.568C107.979 135.94 108.539 135.318 109.104 134.699L109.423 134.351L109.817 134.547L121.59 140.408L122.591 140.906L121.563 141.372L98.2374 151.926L97.4284 150.243L121.093 140.395L121.066 141.36L109.294 135.499L110.007 135.346C109.537 136.032 109.061 136.715 108.578 137.392L107.12 139.419L105.64 141.429L104.143 143.427C103.148 144.761 102.12 146.071 101.11 147.395C100.601 148.054 100.082 148.706 99.5695 149.362L98.4118 150.835L98.2198 151.081L98.1241 151.204C98.1073 151.257 98.006 151.248 97.5778 151.005L96.6756 150.358Z" fill="#BDCDD6"/>
<path fill-rule="evenodd" clip-rule="evenodd" d="M57.8783 99.2021C57.8783 99.2021 55.7063 102.717 61.9035 105.726C68.1008 108.735 113.753 140.649 121.366 141.743C126.793 142.473 124.696 140.103 124.696 140.103C124.696 140.103 106.378 116.03 104.054 113.568C101.73 111.106 72.2023 101.395 71.3818 101.258C70.5614 101.122 57.8783 99.2021 57.8783 99.2021Z" fill="#DCC93E"/>
<path fill-rule="evenodd" clip-rule="evenodd" d="M116.333 135.606C107.348 130.782 90.4578 119.813 80.355 113.252C73.974 109.109 69.3482 106.112 66.2704 104.223C67.9902 104.483 69.3057 104.683 69.7746 104.756C73.0976 105.678 97.7136 113.959 101.019 116.156C102.596 117.912 109.889 127.262 116.333 135.606Z" fill="#FFED52"/>
<path fill-rule="evenodd" clip-rule="evenodd" d="M134.364 116.131C134.364 116.131 113.934 114.732 104.823 110.263C95.7131 105.793 101.97 117.34 104.823 119.853C107.676 122.367 115.774 130.19 116.511 130.562C117.247 130.935 140.622 126.652 141.819 125.348C143.016 124.044 142.739 121.653 141.819 119.915C140.899 118.178 134.364 116.131 134.364 116.131Z" fill="#372E3D"/>
<path fill-rule="evenodd" clip-rule="evenodd" d="M141.819 118.648C140.899 116.913 134.364 114.868 134.364 114.868C134.364 114.868 113.932 113.471 104.821 109.006C100.346 106.813 99.5818 108.481 100.297 111.043C101.05 111.01 102.138 111.301 103.666 112.05C112.778 116.515 133.21 117.913 133.21 117.913C133.21 117.913 139.744 119.957 140.664 121.692C141.084 122.484 141.367 123.411 141.441 124.308C141.624 124.223 141.755 124.145 141.819 124.076C143.016 122.773 142.739 120.385 141.819 118.648Z" fill="#493B50"/>
<path fill-rule="evenodd" clip-rule="evenodd" d="M68.9834 102.33C68.9834 102.33 93.148 111.456 97.7988 112.692C102.45 113.927 103.818 111.17 103.818 111.17C103.818 111.17 100.079 103.66 98.6198 102.805C97.1608 101.95 71.3543 98.5271 67.0684 96.6256C62.7825 94.7242 55.1227 95.3893 53.7547 96.6256C57.5216 98.811 68.9834 102.33 68.9834 102.33Z" fill="#372E3D"/>
<path fill-rule="evenodd" clip-rule="evenodd" d="M66.6194 99.9836C70.9053 101.944 96.7126 105.473 98.1716 106.354C99.1543 106.949 101.17 110.654 102.382 113.011C103.429 112.45 103.818 111.658 103.818 111.658C103.818 111.658 100.079 103.915 98.6198 103.033C97.1608 102.151 71.3543 98.6229 67.0684 96.6625C62.7825 94.7021 55.1227 95.3879 53.7547 96.6625C54.8208 97.2998 56.5031 98.0475 58.3682 98.7918C61.1025 98.6463 64.3388 98.9407 66.6194 99.9836Z" fill="#493B50"/>
<path fill-rule="evenodd" clip-rule="evenodd" d="M121.34 133.973L138.862 145.649L126.257 133.096L121.34 133.973Z" fill="#493B50"/>
<path fill-rule="evenodd" clip-rule="evenodd" d="M120.787 135.596C120.787 135.596 118.791 134.583 121.544 133.727C124.297 132.87 135.873 130.585 135.873 130.585L145.119 133.805C145.119 133.805 137.143 131.935 135.732 131.935C134.32 131.935 123.844 135.83 120.787 135.596Z" fill="#19141E"/>
<path fill-rule="evenodd" clip-rule="evenodd" d="M118.836 152.814C118.836 152.814 126.28 147.207 127.842 146.912C129.405 146.615 142.225 154.91 142.225 154.91L145.119 166.396C145.119 166.396 137.952 169.312 137.216 169.495C136.481 169.677 138.687 164.299 128.485 163.935C128.485 163.935 121.318 160.745 118.836 152.814Z" fill="#BBD0DB"/>
<path fill-rule="evenodd" clip-rule="evenodd" d="M138.692 166.989C137.485 163.992 134.294 162.392 129.012 162.119C127.79 161.471 123.486 158.898 121.34 153.871C123.996 151.93 126.863 149.981 128.001 149.415C129.785 150.07 135.469 153.423 140.369 156.553L142.616 165.432C141.182 166.008 139.781 166.565 138.692 166.989Z" fill="#DAEEF5"/>
<path fill-rule="evenodd" clip-rule="evenodd" d="M86.2956 150.726L98.7752 149.415C98.7752 149.415 101.67 150.343 101.278 151.397C100.886 152.452 93.8052 155.691 93.8052 155.691L86.2956 150.726Z" fill="#9CAEB7"/>
<path fill-rule="evenodd" clip-rule="evenodd" d="M62.4433 140.627L71.439 141.461L106.239 160.637L125.094 169.627C125.094 169.627 124.412 171.891 121.687 173.003C118.96 174.115 99.8131 171.335 99.8131 171.335L64.4422 153.967C64.4422 153.967 60.0126 149.904 60.0126 148.809C60.0126 147.714 62.7612 143.337 62.4433 140.627Z" fill="#BDCDD6"/>
<path fill-rule="evenodd" clip-rule="evenodd" d="M120.088 168.245C114.615 168.058 104.977 166.72 102.673 166.391L67.7509 149.008C66.701 148.01 65.6557 146.918 65.0189 146.169C65.0911 146 65.1641 145.829 65.2293 145.676C65.7044 144.571 66.2667 143.26 66.668 141.883L71.9868 142.383L106.721 161.782L120.088 168.245Z" fill="#DAEEF5"/>
<mask id="mask1" mask-type="alpha" maskUnits="userSpaceOnUse" x="60" y="140" width="66" height="34">
<path d="M62.7315 140.936L71.7856 141.755L106.812 160.607L125.79 169.445C125.79 169.445 125.103 171.671 122.36 172.765C119.616 173.857 100.344 171.125 100.344 171.125L64.7433 154.05C64.7433 154.05 60.2849 150.055 60.2849 148.979C60.2849 147.903 63.0514 143.6 62.7315 140.936Z" fill="white"/>
</mask>
<g mask="url(#mask1)">
<path fill-rule="evenodd" clip-rule="evenodd" d="M62.8462 149.232L100.344 169.445L124.228 173.023C124.228 173.023 90.7109 172.391 88.7021 171.866C86.6926 171.341 59.4811 153.776 59.4811 153.776L62.8462 149.232Z" fill="#AFC0C9"/>
<path fill-rule="evenodd" clip-rule="evenodd" d="M67.2133 139.296C67.2133 139.296 67.6955 147.94 62.1368 154.239C56.5789 160.537 53.7687 157.738 55.004 149.952C56.2386 142.165 66.1153 136.018 67.2133 139.296Z" fill="#3A3B38"/>
</g>
<path fill-rule="evenodd" clip-rule="evenodd" d="M58.7191 102.968C58.7191 102.968 51.0405 101.1 50.1386 98.5812C49.2376 96.062 53.0242 94.1807 53.0242 94.1807L62.5157 95.6767C62.5157 95.6767 57.7888 102.256 58.7191 102.968Z" fill="#FFED52"/>
<mask id="mask2" mask-type="alpha" maskUnits="userSpaceOnUse" x="193" y="81" width="23" height="16">
<path d="M215.918 96.2268C213.562 93.2957 211.385 91.0219 209.931 91.0219C209.611 91.0219 209.325 91.1329 209.08 91.3715C209.08 91.3715 209.444 91.7536 209.986 92.3499C209.93 92.3245 204.504 89.8326 199.792 88.8162L193.196 83.7984C193.196 83.7984 199.81 81.7314 203.679 81.7314C203.911 81.7314 204.133 81.7394 204.343 81.7552C204.343 81.7552 213.598 93.2394 215.918 96.2268Z" fill="white"/>
</mask>
<g mask="url(#mask2)">
<path fill-rule="evenodd" clip-rule="evenodd" d="M193.196 96.2268H215.918V81.7314H193.196V96.2268Z" fill="#9FD5D3"/>
</g>
<path fill-rule="evenodd" clip-rule="evenodd" d="M216.397 96.6914C215.794 96.6914 210.982 91.8112 210.982 91.8112C210.515 91.1843 210.201 90.7824 210.201 90.7824C210.412 90.5315 210.658 90.4148 210.934 90.4148C212.187 90.4148 214.064 92.8057 216.094 95.8877C216.102 95.8994 216.109 95.9103 216.116 95.9219C216.463 96.4671 216.527 96.6914 216.397 96.6914Z" fill="#8B6464"/>
<path fill-rule="evenodd" clip-rule="evenodd" d="M206.092 110.5C206.092 110.5 205.883 110.249 205.518 109.812C205.147 109.373 204.614 108.745 203.963 108.007C203.313 107.273 202.543 106.418 201.71 105.583C201.502 105.376 201.291 105.171 201.081 104.98C200.877 104.794 200.654 104.606 200.512 104.505L200.456 104.462C200.472 104.461 200.477 104.479 200.689 104.51L200.788 104.517H200.813C200.787 104.516 200.909 104.519 200.76 104.514L200.744 104.513L200.683 104.506L200.509 104.485L200.297 104.454L200.157 104.425C199.786 104.349 199.457 104.266 199.125 104.182C197.812 103.841 196.544 103.473 195.347 103.125C194.155 102.77 193.044 102.441 192.091 102.158C190.191 101.579 188.925 101.193 188.925 101.193L189.407 99.2021C189.407 99.2021 190.699 99.4602 192.636 99.8467C193.605 100.034 194.735 100.252 195.946 100.485C197.155 100.711 198.452 100.952 199.719 101.15C200.033 101.198 200.351 101.244 200.628 101.273L200.731 101.283L200.764 101.282L200.777 101.283L200.831 101.284L200.893 101.285H200.909C200.765 101.281 200.892 101.284 200.871 101.283L200.91 101.285L201.072 101.297C201.445 101.349 201.603 101.431 201.767 101.496C201.921 101.564 202.032 101.626 202.142 101.688C202.555 101.929 202.843 102.148 203.135 102.369C203.418 102.589 203.682 102.805 203.934 103.02C204.94 103.878 205.801 104.696 206.538 105.406C207.273 106.115 207.872 106.715 208.291 107.137C208.709 107.566 208.95 107.811 208.95 107.811L206.092 110.5Z" fill="#0A0B09"/>
<path fill-rule="evenodd" clip-rule="evenodd" d="M212.704 112.383C212.704 114.116 211.584 115.521 210.201 115.521C208.819 115.521 207.698 114.116 207.698 112.383C207.698 110.65 208.819 109.245 210.201 109.245C211.584 109.245 212.704 110.65 212.704 112.383Z" fill="#D6D5D0"/>
<defs>
<filter id="filter0_d" x="262.055" y="70.6782" width="31.2969" height="161.386" filterUnits="userSpaceOnUse" color-interpolation-filters="sRGB">
<feFlood flood-opacity="0" result="BackgroundImageFix"/>
<feColorMatrix in="SourceAlpha" type="matrix" values="0 0 0 0 0 0 0 0 0 0 0 0 0 0 0 0 0 0 127 0"/>
<feOffset dx="1" dy="1"/>
<feGaussianBlur stdDeviation="1"/>
<feColorMatrix type="matrix" values="0 0 0 0 0 0 0 0 0 0 0 0 0 0 0 0 0 0 0.15 0"/>
<feBlend mode="normal" in2="BackgroundImageFix" result="effect1_dropShadow"/>
<feBlend mode="normal" in="SourceGraphic" in2="effect1_dropShadow" result="shape"/>
</filter>
<radialGradient id="paint0_radial" cx="0" cy="0" r="1" gradientUnits="userSpaceOnUse" gradientTransform="translate(150 150) rotate(90) scale(150)">
<stop offset="0.369792" stop-color="white" stop-opacity="0"/>
<stop offset="1" stop-color="#FFFF00"/>
</radialGradient>
</defs>
</svg>
