<svg width="300" height="300" viewBox="0 0 300 300" fill="none" xmlns="http://www.w3.org/2000/svg">
<rect width="300" height="300" fill="white"/>
<rect width="300" height="300" fill="white"/>
<rect width="300" height="300" fill="white"/>
<rect width="300" height="300" fill="url(#paint0_radial)" fill-opacity="0.11"/>
<g filter="url(#filter0_d)">
<path d="M280.482 218.804L289.5 218.804L289.5 224.078L263.906 224.078L263.906 214.093C263.906 212.171 264.258 210.484 264.961 209.031C265.664 207.566 266.666 206.441 267.967 205.656C269.256 204.871 270.727 204.478 272.379 204.478C274.887 204.478 276.867 205.339 278.32 207.062C279.762 208.773 280.482 211.146 280.482 214.181L280.482 218.804ZM276.211 218.804L276.211 214.093C276.211 212.699 275.883 211.638 275.227 210.912C274.57 210.173 273.633 209.804 272.414 209.804C271.16 209.804 270.146 210.173 269.373 210.912C268.6 211.65 268.201 212.67 268.178 213.97L268.178 218.804L276.211 218.804ZM263.906 177.508L280.764 177.508C283.564 177.508 285.779 178.387 287.408 180.145C289.037 181.891 289.852 184.282 289.852 187.317C289.852 190.305 289.061 192.678 287.479 194.436C285.896 196.194 283.723 197.09 280.957 197.126L263.906 197.126L263.906 191.852L280.799 191.852C282.475 191.852 283.699 191.454 284.473 190.657C285.234 189.848 285.615 188.735 285.615 187.317C285.615 184.352 284.057 182.846 280.939 182.799L263.906 182.799L263.906 177.508ZM280.131 159.75L280.131 163.951L289.5 163.951L289.5 169.224L263.906 169.224L263.906 159.714C263.906 156.691 264.58 154.359 265.928 152.718C267.275 151.078 269.18 150.257 271.641 150.257C273.387 150.257 274.846 150.638 276.018 151.4C277.178 152.15 278.104 153.293 278.795 154.828L289.254 149.291L289.5 149.291L289.5 154.951L280.131 159.75ZM275.859 163.951L275.859 159.697C275.859 158.373 275.525 157.347 274.857 156.621C274.178 155.894 273.246 155.531 272.062 155.531C270.855 155.531 269.906 155.876 269.215 156.568C268.523 157.248 268.178 158.296 268.178 159.714L268.178 163.951L275.859 163.951ZM280.482 136.999L289.5 136.999L289.5 142.272L263.906 142.272L263.906 132.288C263.906 130.366 264.258 128.678 264.961 127.225C265.664 125.76 266.666 124.635 267.967 123.85C269.256 123.065 270.727 122.672 272.379 122.672C274.887 122.672 276.867 123.534 278.32 125.256C279.762 126.967 280.482 129.34 280.482 132.375L280.482 136.999ZM276.211 136.999L276.211 132.288C276.211 130.893 275.883 129.833 275.227 129.106C274.57 128.368 273.633 127.999 272.414 127.999C271.16 127.999 270.146 128.368 269.373 129.106C268.6 129.844 268.201 130.864 268.178 132.165L268.178 136.999L276.211 136.999ZM285.264 109.8L285.264 98.603L289.5 98.603L289.5 115.074L263.906 115.074L263.906 109.8L285.264 109.8ZM278.408 76.2035L278.408 86.3285L285.264 86.3285L285.264 74.4457L289.5 74.4457L289.5 91.602L263.906 91.602L263.906 74.4809L268.178 74.4809L268.178 86.3285L274.277 86.3285L274.277 76.2035L278.408 76.2035Z" fill="white"/>
<path d="M280.482 218.804L279.982 218.804L279.982 219.304L280.482 219.304L280.482 218.804ZM289.5 218.804L290 218.804L290 218.304L289.5 218.304L289.5 218.804ZM289.5 224.078L289.5 224.578L290 224.578L290 224.078L289.5 224.078ZM263.906 224.078L263.406 224.078L263.406 224.578L263.906 224.578L263.906 224.078ZM264.961 209.031L265.411 209.249L265.412 209.247L264.961 209.031ZM267.967 205.656L268.225 206.084L268.227 206.083L267.967 205.656ZM278.32 207.062L278.703 206.74L278.702 206.74L278.32 207.062ZM276.211 218.804L276.211 219.304L276.711 219.304L276.711 218.804L276.211 218.804ZM275.227 210.912L274.853 211.244L274.856 211.247L275.227 210.912ZM268.178 213.97L267.678 213.961L267.678 213.97L268.178 213.97ZM268.178 218.804L267.678 218.804L267.678 219.304L268.178 219.304L268.178 218.804ZM280.482 219.304L289.5 219.304L289.5 218.304L280.482 218.304L280.482 219.304ZM289 218.804L289 224.078L290 224.078L290 218.804L289 218.804ZM289.5 223.578L263.906 223.578L263.906 224.578L289.5 224.578L289.5 223.578ZM264.406 224.078L264.406 214.093L263.406 214.093L263.406 224.078L264.406 224.078ZM264.406 214.093C264.406 212.233 264.746 210.622 265.411 209.249L264.511 208.813C263.769 210.346 263.406 212.11 263.406 214.093L264.406 214.093ZM265.412 209.247C266.076 207.864 267.014 206.815 268.225 206.084L267.708 205.228C266.318 206.067 265.252 207.268 264.51 208.814L265.412 209.247ZM268.227 206.083C269.43 205.35 270.809 204.978 272.379 204.978L272.379 203.978C270.644 203.978 269.081 204.391 267.707 205.229L268.227 206.083ZM272.379 204.978C274.758 204.978 276.591 205.788 277.938 207.384L278.702 206.74C277.143 204.891 275.015 203.978 272.379 203.978L272.379 204.978ZM277.938 207.384C279.28 208.977 279.982 211.222 279.982 214.181L280.982 214.181C280.982 211.07 280.243 208.569 278.703 206.74L277.938 207.384ZM279.982 214.181L279.982 218.804L280.982 218.804L280.982 214.181L279.982 214.181ZM276.711 218.804L276.711 214.093L275.711 214.093L275.711 218.804L276.711 218.804ZM276.711 214.093C276.711 212.627 276.366 211.428 275.598 210.577L274.856 211.247C275.399 211.849 275.711 212.77 275.711 214.093L276.711 214.093ZM275.6 210.58C274.828 209.71 273.74 209.304 272.414 209.304L272.414 210.304C273.526 210.304 274.313 210.637 274.853 211.244L275.6 210.58ZM272.414 209.304C271.055 209.304 269.91 209.708 269.028 210.55L269.718 211.273C270.383 210.639 271.265 210.304 272.414 210.304L272.414 209.304ZM269.028 210.55C268.138 211.4 267.703 212.558 267.678 213.961L268.678 213.979C268.699 212.781 269.062 211.9 269.718 211.273L269.028 210.55ZM267.678 213.97L267.678 218.804L268.678 218.804L268.678 213.97L267.678 213.97ZM268.178 219.304L276.211 219.304L276.211 218.304L268.178 218.304L268.178 219.304ZM263.906 177.508L263.906 177.008L263.406 177.008L263.406 177.508L263.906 177.508ZM287.408 180.145L287.041 180.485L287.043 180.486L287.408 180.145ZM280.957 197.126L280.957 197.626L280.963 197.626L280.957 197.126ZM263.906 197.126L263.406 197.126L263.406 197.626L263.906 197.626L263.906 197.126ZM263.906 191.852L263.906 191.352L263.406 191.352L263.406 191.852L263.906 191.852ZM284.473 190.657L284.831 191.005L284.837 191L284.473 190.657ZM280.939 182.799L280.947 182.299L280.939 182.299L280.939 182.799ZM263.906 182.799L263.406 182.799L263.406 183.299L263.906 183.299L263.906 182.799ZM263.906 178.008L280.764 178.008L280.764 177.008L263.906 177.008L263.906 178.008ZM280.764 178.008C283.451 178.008 285.523 178.847 287.041 180.485L287.775 179.805C286.035 177.928 283.678 177.008 280.764 177.008L280.764 178.008ZM287.043 180.486C288.564 182.117 289.352 184.373 289.352 187.317L290.352 187.317C290.352 184.191 289.511 181.666 287.774 179.804L287.043 180.486ZM289.352 187.317C289.352 190.215 288.586 192.458 287.107 194.102L287.85 194.771C289.535 192.899 290.352 190.395 290.352 187.317L289.352 187.317ZM287.107 194.102C285.634 195.738 283.603 196.592 280.951 196.626L280.963 197.626C283.843 197.589 286.159 196.65 287.85 194.771L287.107 194.102ZM280.957 196.626L263.906 196.626L263.906 197.626L280.957 197.626L280.957 196.626ZM264.406 197.126L264.406 191.852L263.406 191.852L263.406 197.126L264.406 197.126ZM263.906 192.352L280.799 192.352L280.799 191.352L263.906 191.352L263.906 192.352ZM280.799 192.352C282.542 192.352 283.925 191.939 284.831 191.005L284.114 190.309C283.473 190.969 282.408 191.352 280.799 191.352L280.799 192.352ZM284.837 191C285.708 190.075 286.115 188.826 286.115 187.317L285.115 187.317C285.115 188.644 284.761 189.622 284.109 190.314L284.837 191ZM286.115 187.317C286.115 185.75 285.702 184.482 284.794 183.604C283.89 182.731 282.577 182.324 280.947 182.299L280.932 183.299C282.419 183.322 283.444 183.691 284.099 184.324C284.749 184.952 285.115 185.919 285.115 187.317L286.115 187.317ZM280.939 182.299L263.906 182.299L263.906 183.299L280.939 183.299L280.939 182.299ZM264.406 182.799L264.406 177.508L263.406 177.508L263.406 182.799L264.406 182.799ZM280.131 159.75L279.903 159.305L279.631 159.444L279.631 159.75L280.131 159.75ZM280.131 163.951L279.631 163.951L279.631 164.451L280.131 164.451L280.131 163.951ZM289.5 163.951L290 163.951L290 163.451L289.5 163.451L289.5 163.951ZM289.5 169.224L289.5 169.724L290 169.724L290 169.224L289.5 169.224ZM263.906 169.224L263.406 169.224L263.406 169.724L263.906 169.724L263.906 169.224ZM276.018 151.4L275.745 151.819L275.746 151.82L276.018 151.4ZM278.795 154.828L278.339 155.033L278.558 155.519L279.029 155.27L278.795 154.828ZM289.254 149.291L289.254 148.791L289.13 148.791L289.02 148.849L289.254 149.291ZM289.5 149.291L290 149.291L290 148.791L289.5 148.791L289.5 149.291ZM289.5 154.951L289.728 155.396L290 155.256L290 154.951L289.5 154.951ZM275.859 163.951L275.859 164.451L276.359 164.451L276.359 163.951L275.859 163.951ZM274.857 156.621L275.226 156.282L275.223 156.279L274.857 156.621ZM269.215 156.568L269.565 156.924L269.568 156.921L269.215 156.568ZM268.178 163.951L267.678 163.951L267.678 164.451L268.178 164.451L268.178 163.951ZM279.631 159.75L279.631 163.951L280.631 163.951L280.631 159.75L279.631 159.75ZM280.131 164.451L289.5 164.451L289.5 163.451L280.131 163.451L280.131 164.451ZM289 163.951L289 169.224L290 169.224L290 163.951L289 163.951ZM289.5 168.724L263.906 168.724L263.906 169.724L289.5 169.724L289.5 168.724ZM264.406 169.224L264.406 159.714L263.406 159.714L263.406 169.224L264.406 169.224ZM264.406 159.714C264.406 156.759 265.066 154.556 266.314 153.036L265.541 152.401C264.095 154.162 263.406 156.623 263.406 159.714L264.406 159.714ZM266.314 153.036C267.551 151.53 269.303 150.757 271.641 150.757L271.641 149.757C269.057 149.757 267 150.626 265.541 152.401L266.314 153.036ZM271.641 150.757C273.314 150.757 274.672 151.122 275.745 151.819L276.29 150.981C275.019 150.155 273.459 149.757 271.641 149.757L271.641 150.757ZM275.746 151.82C276.809 152.507 277.678 153.566 278.339 155.033L279.251 154.622C278.529 153.019 277.546 151.793 276.289 150.98L275.746 151.82ZM279.029 155.27L289.488 149.732L289.02 148.849L278.561 154.386L279.029 155.27ZM289.254 149.791L289.5 149.791L289.5 148.791L289.254 148.791L289.254 149.791ZM289 149.291L289 154.951L290 154.951L290 149.291L289 149.291ZM289.272 154.506L279.903 159.305L280.359 160.195L289.728 155.396L289.272 154.506ZM276.359 163.951L276.359 159.697L275.359 159.697L275.359 163.951L276.359 163.951ZM276.359 159.697C276.359 158.291 276.004 157.129 275.225 156.282L274.489 156.959C275.047 157.566 275.359 158.454 275.359 159.697L276.359 159.697ZM275.223 156.279C274.43 155.432 273.356 155.031 272.062 155.031L272.062 156.031C273.136 156.031 273.925 156.356 274.492 156.962L275.223 156.279ZM272.062 155.031C270.756 155.031 269.667 155.408 268.861 156.214L269.568 156.921C270.145 156.345 270.955 156.031 272.062 156.031L272.062 155.031ZM268.864 156.211C268.041 157.021 267.678 158.224 267.678 159.714L268.678 159.714C268.678 158.368 269.006 157.474 269.565 156.924L268.864 156.211ZM267.678 159.714L267.678 163.951L268.678 163.951L268.678 159.714L267.678 159.714ZM268.178 164.451L275.859 164.451L275.859 163.451L268.178 163.451L268.178 164.451ZM280.482 136.999L279.982 136.999L279.982 137.499L280.482 137.499L280.482 136.999ZM289.5 136.999L290 136.999L290 136.499L289.5 136.499L289.5 136.999ZM289.5 142.272L289.5 142.772L290 142.772L290 142.272L289.5 142.272ZM263.906 142.272L263.406 142.272L263.406 142.772L263.906 142.772L263.906 142.272ZM264.961 127.225L265.411 127.443L265.412 127.441L264.961 127.225ZM267.967 123.85L268.225 124.278L268.227 124.277L267.967 123.85ZM278.32 125.256L278.703 124.934L278.702 124.934L278.32 125.256ZM276.211 136.999L276.211 137.499L276.711 137.499L276.711 136.999L276.211 136.999ZM275.227 129.106L274.853 129.438L274.856 129.441L275.227 129.106ZM268.178 132.165L267.678 132.156L267.678 132.165L268.178 132.165ZM268.178 136.999L267.678 136.999L267.678 137.499L268.178 137.499L268.178 136.999ZM280.482 137.499L289.5 137.499L289.5 136.499L280.482 136.499L280.482 137.499ZM289 136.999L289 142.272L290 142.272L290 136.999L289 136.999ZM289.5 141.772L263.906 141.772L263.906 142.772L289.5 142.772L289.5 141.772ZM264.406 142.272L264.406 132.288L263.406 132.288L263.406 142.272L264.406 142.272ZM264.406 132.288C264.406 130.427 264.746 128.816 265.411 127.443L264.511 127.007C263.769 128.54 263.406 130.305 263.406 132.288L264.406 132.288ZM265.412 127.441C266.076 126.058 267.014 125.009 268.225 124.278L267.708 123.422C266.318 124.261 265.252 125.462 264.51 127.009L265.412 127.441ZM268.227 124.277C269.43 123.544 270.809 123.172 272.379 123.172L272.379 122.172C270.644 122.172 269.081 122.586 267.707 123.423L268.227 124.277ZM272.379 123.172C274.758 123.172 276.591 123.982 277.938 125.579L278.702 124.934C277.143 123.085 275.015 122.172 272.379 122.172L272.379 123.172ZM277.938 125.578C279.28 127.172 279.982 129.416 279.982 132.375L280.982 132.375C280.982 129.265 280.243 126.763 278.703 124.934L277.938 125.578ZM279.982 132.375L279.982 136.999L280.982 136.999L280.982 132.375L279.982 132.375ZM276.711 136.999L276.711 132.288L275.711 132.288L275.711 136.999L276.711 136.999ZM276.711 132.288C276.711 130.821 276.366 129.622 275.598 128.771L274.856 129.441C275.399 130.043 275.711 130.965 275.711 132.288L276.711 132.288ZM275.6 128.774C274.828 127.904 273.74 127.499 272.414 127.499L272.414 128.499C273.526 128.499 274.313 128.831 274.853 129.438L275.6 128.774ZM272.414 127.499C271.055 127.499 269.91 127.902 269.028 128.744L269.718 129.468C270.383 128.833 271.265 128.499 272.414 128.499L272.414 127.499ZM269.028 128.744C268.138 129.594 267.703 130.752 267.678 132.156L268.678 132.174C268.699 130.975 269.062 130.094 269.718 129.468L269.028 128.744ZM267.678 132.165L267.678 136.999L268.678 136.999L268.678 132.165L267.678 132.165ZM268.178 137.499L276.211 137.499L276.211 136.499L268.178 136.499L268.178 137.499ZM285.264 109.8L285.264 110.3L285.764 110.3L285.764 109.8L285.264 109.8ZM285.264 98.603L285.264 98.103L284.764 98.103L284.764 98.603L285.264 98.603ZM289.5 98.603L290 98.603L290 98.103L289.5 98.103L289.5 98.603ZM289.5 115.074L289.5 115.574L290 115.574L290 115.074L289.5 115.074ZM263.906 115.074L263.406 115.074L263.406 115.574L263.906 115.574L263.906 115.074ZM263.906 109.8L263.906 109.3L263.406 109.3L263.406 109.8L263.906 109.8ZM285.764 109.8L285.764 98.603L284.764 98.603L284.764 109.8L285.764 109.8ZM285.264 99.103L289.5 99.103L289.5 98.103L285.264 98.103L285.264 99.103ZM289 98.603L289 115.074L290 115.074L290 98.603L289 98.603ZM289.5 114.574L263.906 114.574L263.906 115.574L289.5 115.574L289.5 114.574ZM264.406 115.074L264.406 109.8L263.406 109.8L263.406 115.074L264.406 115.074ZM263.906 110.3L285.264 110.3L285.264 109.3L263.906 109.3L263.906 110.3ZM278.408 76.2035L278.908 76.2035L278.908 75.7035L278.408 75.7035L278.408 76.2035ZM278.408 86.3285L277.908 86.3285L277.908 86.8285L278.408 86.8285L278.408 86.3285ZM285.264 86.3285L285.264 86.8285L285.764 86.8285L285.764 86.3285L285.264 86.3285ZM285.264 74.4457L285.264 73.9457L284.764 73.9457L284.764 74.4457L285.264 74.4457ZM289.5 74.4457L290 74.4457L290 73.9457L289.5 73.9457L289.5 74.4457ZM289.5 91.602L289.5 92.102L290 92.102L290 91.602L289.5 91.602ZM263.906 91.602L263.406 91.602L263.406 92.102L263.906 92.102L263.906 91.602ZM263.906 74.4809L263.906 73.9809L263.406 73.9809L263.406 74.4809L263.906 74.4809ZM268.178 74.4809L268.678 74.4809L268.678 73.9809L268.178 73.9809L268.178 74.4809ZM268.178 86.3285L267.678 86.3285L267.678 86.8285L268.178 86.8285L268.178 86.3285ZM274.277 86.3285L274.277 86.8285L274.777 86.8285L274.777 86.3285L274.277 86.3285ZM274.277 76.2035L274.277 75.7035L273.777 75.7035L273.777 76.2035L274.277 76.2035ZM277.908 76.2035L277.908 86.3285L278.908 86.3285L278.908 76.2035L277.908 76.2035ZM278.408 86.8285L285.264 86.8285L285.264 85.8285L278.408 85.8285L278.408 86.8285ZM285.764 86.3285L285.764 74.4457L284.764 74.4457L284.764 86.3285L285.764 86.3285ZM285.264 74.9457L289.5 74.9457L289.5 73.9457L285.264 73.9457L285.264 74.9457ZM289 74.4457L289 91.602L290 91.602L290 74.4457L289 74.4457ZM289.5 91.102L263.906 91.102L263.906 92.102L289.5 92.102L289.5 91.102ZM264.406 91.602L264.406 74.4809L263.406 74.4809L263.406 91.602L264.406 91.602ZM263.906 74.9809L268.178 74.9809L268.178 73.9809L263.906 73.9809L263.906 74.9809ZM267.678 74.4809L267.678 86.3285L268.678 86.3285L268.678 74.4809L267.678 74.4809ZM268.178 86.8285L274.277 86.8285L274.277 85.8285L268.178 85.8285L268.178 86.8285ZM274.777 86.3285L274.777 76.2035L273.777 76.2035L273.777 86.3285L274.777 86.3285ZM274.277 76.7035L278.408 76.7035L278.408 75.7035L274.277 75.7035L274.277 76.7035Z" fill="#C902DA"/>
</g>
<path d="M62.4609 257.734C62.4609 263.281 61.4323 268.19 59.375 272.461C57.3177 276.732 54.388 280.026 50.5859 282.344C46.8099 284.635 42.5 285.781 37.6562 285.781C32.8125 285.781 28.5156 284.674 24.7656 282.461C21.0156 280.221 18.0859 277.031 15.9766 272.891C13.8932 268.75 12.7995 263.997 12.6953 258.633V255.43C12.6953 249.857 13.7109 244.948 15.7422 240.703C17.7995 236.432 20.7292 233.138 24.5312 230.82C28.3594 228.503 32.7083 227.344 37.5781 227.344C42.3958 227.344 46.6927 228.49 50.4688 230.781C54.2448 233.073 57.1745 236.341 59.2578 240.586C61.3672 244.805 62.4349 249.648 62.4609 255.117V257.734ZM48.5156 255.352C48.5156 249.701 47.5651 245.417 45.6641 242.5C43.7891 239.557 41.0938 238.086 37.5781 238.086C30.7031 238.086 27.0703 243.242 26.6797 253.555L26.6406 257.734C26.6406 263.307 27.5651 267.591 29.4141 270.586C31.263 273.581 34.0104 275.078 37.6562 275.078C41.1198 275.078 43.7891 273.607 45.6641 270.664C47.5391 267.721 48.4896 263.49 48.5156 257.969V255.352ZM87.6113 276.475C87.4121 279.229 86.3926 281.396 84.5527 282.979C82.7246 284.561 80.3105 285.352 77.3105 285.352C74.0293 285.352 71.4453 284.25 69.5586 282.047C67.6836 279.832 66.7461 276.797 66.7461 272.941V271.377C66.7461 268.916 67.1797 266.748 68.0469 264.873C68.9141 262.998 70.1504 261.562 71.7559 260.566C73.373 259.559 75.248 259.055 77.3809 259.055C80.334 259.055 82.7129 259.846 84.5176 261.428C86.3223 263.01 87.3652 265.23 87.6465 268.09H82.373C82.2441 266.438 81.7812 265.242 80.9844 264.504C80.1992 263.754 78.998 263.379 77.3809 263.379C75.623 263.379 74.3047 264.012 73.4258 265.277C72.5586 266.531 72.1133 268.482 72.0898 271.131V273.064C72.0898 275.83 72.5059 277.852 73.3379 279.129C74.1816 280.406 75.5059 281.045 77.3105 281.045C78.9395 281.045 80.1523 280.676 80.9492 279.938C81.7578 279.188 82.2207 278.033 82.3379 276.475H87.6113ZM112.332 263.678H104.493V285H99.2192V263.678H91.4848V259.406H112.332V263.678ZM138.407 272.783C138.407 275.303 137.962 277.512 137.071 279.41C136.181 281.309 134.903 282.773 133.239 283.805C131.587 284.836 129.688 285.352 127.544 285.352C125.423 285.352 123.53 284.842 121.866 283.822C120.202 282.803 118.913 281.35 117.999 279.463C117.085 277.564 116.622 275.385 116.61 272.924V271.658C116.61 269.139 117.061 266.924 117.964 265.014C118.878 263.092 120.161 261.621 121.813 260.602C123.478 259.57 125.376 259.055 127.509 259.055C129.642 259.055 131.534 259.57 133.186 260.602C134.851 261.621 136.134 263.092 137.036 265.014C137.95 266.924 138.407 269.133 138.407 271.641V272.783ZM133.063 271.623C133.063 268.939 132.583 266.9 131.622 265.506C130.661 264.111 129.29 263.414 127.509 263.414C125.739 263.414 124.374 264.105 123.413 265.488C122.452 266.859 121.966 268.875 121.954 271.535V272.783C121.954 275.396 122.435 277.424 123.395 278.865C124.356 280.307 125.739 281.027 127.544 281.027C129.313 281.027 130.673 280.336 131.622 278.953C132.571 277.559 133.052 275.531 133.063 272.871V271.623ZM150.033 275.982V285H144.759V259.406H154.744C156.665 259.406 158.353 259.758 159.806 260.461C161.271 261.164 162.396 262.166 163.181 263.467C163.966 264.756 164.359 266.227 164.359 267.879C164.359 270.387 163.497 272.367 161.775 273.82C160.064 275.262 157.691 275.982 154.656 275.982H150.033ZM150.033 271.711H154.744C156.138 271.711 157.199 271.383 157.925 270.727C158.664 270.07 159.033 269.133 159.033 267.914C159.033 266.66 158.664 265.646 157.925 264.873C157.187 264.1 156.167 263.701 154.867 263.678H150.033V271.711ZM189.889 259.406V276.264C189.889 279.064 189.01 281.279 187.252 282.908C185.506 284.537 183.115 285.352 180.08 285.352C177.092 285.352 174.719 284.561 172.961 282.979C171.203 281.396 170.307 279.223 170.271 276.457V259.406H175.545V276.299C175.545 277.975 175.943 279.199 176.74 279.973C177.549 280.734 178.662 281.115 180.08 281.115C183.045 281.115 184.551 279.557 184.598 276.439V259.406H189.889ZM210.004 278.285C210.004 277.289 209.653 276.527 208.95 276C208.246 275.461 206.981 274.898 205.153 274.312C203.325 273.715 201.877 273.129 200.811 272.555C197.905 270.984 196.452 268.869 196.452 266.209C196.452 264.826 196.838 263.596 197.612 262.518C198.397 261.428 199.516 260.578 200.969 259.969C202.434 259.359 204.075 259.055 205.891 259.055C207.719 259.055 209.348 259.389 210.778 260.057C212.207 260.713 213.315 261.645 214.1 262.852C214.897 264.059 215.295 265.43 215.295 266.965H210.022C210.022 265.793 209.653 264.885 208.914 264.24C208.176 263.584 207.139 263.256 205.803 263.256C204.514 263.256 203.512 263.531 202.797 264.082C202.082 264.621 201.725 265.336 201.725 266.227C201.725 267.059 202.141 267.756 202.973 268.318C203.817 268.881 205.053 269.408 206.682 269.9C209.682 270.803 211.868 271.922 213.239 273.258C214.61 274.594 215.295 276.258 215.295 278.25C215.295 280.465 214.457 282.205 212.782 283.471C211.106 284.725 208.85 285.352 206.014 285.352C204.045 285.352 202.252 284.994 200.635 284.279C199.018 283.553 197.782 282.562 196.926 281.309C196.082 280.055 195.661 278.602 195.661 276.949H200.952C200.952 279.773 202.639 281.186 206.014 281.186C207.268 281.186 208.246 280.934 208.95 280.43C209.653 279.914 210.004 279.199 210.004 278.285Z" fill="black"/>
<path d="M114.599 28.4141H108.789L107.471 32H106.337L111.18 19.2031H112.208L117.051 32H115.926L114.599 28.4141ZM109.123 27.4912H114.256L111.69 20.5215L109.123 27.4912ZM130.448 32H129.367L122.011 21.0488V32H120.921V19.2031H122.011L129.376 30.1631V19.2031H130.448V32ZM136.999 32H135.917V19.2031H136.999V32ZM143.892 19.2031L148.611 30.4971L153.349 19.2031H154.79V32H153.709V26.4277L153.797 20.7148L149.033 32H148.198L143.452 20.7588L143.54 26.3926V32H142.459V19.2031H143.892ZM167.08 28.4141H161.27L159.952 32H158.818L163.661 19.2031H164.689L169.532 32H168.407L167.08 28.4141ZM161.604 27.4912H166.737L164.17 20.5215L161.604 27.4912ZM174.491 31.0859H180.811V32H173.401V19.2031H174.491V31.0859ZM192.116 28.8535C192.116 28.1445 191.867 27.585 191.369 27.1748C190.871 26.7588 189.96 26.3662 188.635 25.9971C187.311 25.6221 186.344 25.2148 185.735 24.7754C184.868 24.1543 184.434 23.3398 184.434 22.332C184.434 21.3535 184.836 20.5596 185.638 19.9502C186.447 19.335 187.478 19.0273 188.732 19.0273C189.582 19.0273 190.34 19.1914 191.008 19.5195C191.682 19.8477 192.204 20.3047 192.573 20.8906C192.942 21.4766 193.127 22.1299 193.127 22.8506H192.037C192.037 21.9775 191.738 21.2773 191.14 20.75C190.543 20.2168 189.74 19.9502 188.732 19.9502C187.753 19.9502 186.974 20.1699 186.394 20.6094C185.814 21.043 185.524 21.6113 185.524 22.3145C185.524 22.9648 185.785 23.4951 186.306 23.9053C186.828 24.3154 187.663 24.6787 188.811 24.9951C189.96 25.3057 190.83 25.6309 191.421 25.9707C192.013 26.3047 192.459 26.7061 192.757 27.1748C193.056 27.6436 193.206 28.1973 193.206 28.8359C193.206 29.8438 192.801 30.6523 191.993 31.2617C191.19 31.8711 190.129 32.1758 188.811 32.1758C187.909 32.1758 187.08 32.0146 186.324 31.6924C185.574 31.3701 185.003 30.9189 184.61 30.3389C184.223 29.7588 184.03 29.0938 184.03 28.3438H185.111C185.111 29.2461 185.448 29.958 186.122 30.4795C186.795 31.001 187.692 31.2617 188.811 31.2617C189.807 31.2617 190.607 31.042 191.211 30.6025C191.814 30.1631 192.116 29.5801 192.116 28.8535Z" fill="black"/>
<path fill-rule="evenodd" clip-rule="evenodd" d="M126.161 135.687C118.647 141.804 108.571 144.794 100.077 141.142C95.9158 139.361 92.4669 136.14 91.2888 131.875C89.8984 127.463 90.1231 122.228 92.5756 118.922C94.9733 115.41 99.3772 115.556 102.733 119.118C105.926 122.41 107.857 127.803 106.328 132.013C105.643 134.093 103.84 135.564 102.002 135.275C100.067 134.931 98.1086 133.149 97.1267 130.937C96.0508 128.814 95.7955 126.077 97.0202 124.261C98.1969 122.259 100.827 122.865 102.156 125.071C102.693 125.946 103.054 126.397 103.575 126.228C104.022 126.096 104.182 125.357 103.502 124.229C102.747 122.926 101.596 121.719 99.9381 121.235C98.2042 120.74 96.3287 121.669 95.3439 122.976C93.2919 125.711 93.5917 129.244 94.7231 132.009C95.8246 134.803 97.9824 137.489 101.407 138.401C105.16 139.239 108.526 136.466 109.708 133.466C112.234 127.269 110.119 120.629 106.201 115.886C104.152 113.532 101.312 111.435 97.6439 111.05C93.8631 110.661 90.3652 112.601 88.1403 115.202C83.6884 120.634 83.3353 127.63 84.7147 133.662C86.1015 140.224 90.0326 146.637 95.6649 149.422C107.611 155.663 122.402 155.614 132 148.715L126.161 135.687Z" fill="#795FA5"/>
<path fill-rule="evenodd" clip-rule="evenodd" d="M156 154C167.992 152.825 180.179 153.117 192.433 151.48C200.296 150.53 204.751 148.195 210.613 144.613C216.808 140.883 220.08 133.233 218.679 126.418C217.49 119.717 211.816 113.445 204.479 113.048C197.497 112.435 190.12 117.782 190.109 125.081C190.004 128.57 191.753 131.921 194.538 133.988C197.363 136.135 201.497 136.307 204.436 134.518C207.516 133 209.297 128.969 208.045 125.742C207.113 122.462 202.985 120.228 199.772 121.875C198.418 122.516 198.216 123.367 198.565 123.65C198.981 124.03 199.486 123.75 200.421 123.316C202.814 122.316 205.445 123.989 206.016 126.37C206.686 128.73 205.451 131.222 203.155 132.225C198.515 134.749 193.176 130.015 193.818 125.203C194.044 120.425 199.38 117.02 204.047 117.731C208.788 118.2 212.367 122.707 212.928 127.326C213.554 131.997 211.099 136.732 207.005 138.837C202.668 141.175 196.447 141.579 190.941 142.062C179.762 142.894 172.471 141.235 161.271 136.515L156 154Z" fill="#795FA5"/>
<path fill-rule="evenodd" clip-rule="evenodd" d="M201.981 169.479C201.97 163.059 197.214 157.113 191.164 155.682C185.307 153.76 177.792 157.383 176.344 163.579C175.487 166.478 175.85 169.912 177.759 172.444C179.624 174.934 182.78 176.311 185.789 176.027C188.911 175.728 191.683 173.315 192.208 170.289C193.022 167.358 191.113 163.818 188.116 163.157C186.862 162.791 186.22 163.258 186.273 163.708C186.309 164.274 186.803 164.421 187.663 164.687C189.771 165.383 190.849 167.732 190.149 169.797C189.642 171.9 187.605 173.329 185.613 173.383C181.104 173.524 178.092 168.697 179.864 164.704C181.289 160.624 185.869 158.74 189.854 160.258C193.815 161.54 196.482 165.511 196.183 169.502C196.105 173.678 193.568 177.511 190.088 179.381C186.508 181.283 182.478 181.074 178.725 179.072C176.441 177.816 174.241 176.202 172.075 174.377C163.855 166.51 155.882 153.655 161.223 142.747C161.6 141.98 163.371 140.667 163.371 140.667C176.603 130.505 185.689 120.83 185.689 100.423C185.689 80.0148 162.75 66.981 140.869 80.5889C115.804 96.176 123.407 128.632 127.734 140.778C127.734 140.778 127.9 141.238 127.9 141.939C127.9 149.464 125.039 153.674 123 156.936C117.365 165.645 112.724 175.29 106.239 181.259C103.07 184.101 99.2051 185.266 95.2767 184.275C91.4531 183.291 88.0771 180.174 87.0095 176.138C85.7725 172.332 87.419 167.838 90.96 165.647C94.471 163.22 99.3658 163.955 101.72 167.577C104.389 171.03 102.61 176.44 98.197 177.379C96.2503 177.804 93.9332 176.902 92.9411 174.982C91.7694 173.144 92.2595 170.604 94.1416 169.426C94.9135 168.961 95.3581 168.699 95.2583 168.141C95.204 167.692 94.4681 167.392 93.3381 168.048C90.5844 169.407 89.5703 173.3 91.0576 175.952C92.2866 178.765 95.5533 180.447 98.6548 179.99C101.645 179.547 104.382 177.455 105.603 174.59C106.856 171.675 106.39 168.254 104.87 165.643C101.992 159.971 93.8334 158.251 88.6018 161.517C83.0664 164.353 79.8614 171.264 81.3744 177.501C82.5484 183.585 87.2759 188.846 93.2809 190.845C99.2668 193.028 106.481 191.243 111.153 187.463C115.006 184.292 118.075 180.818 120.798 177.265C120.887 177.151 120.975 177.044 121.069 176.916C125.928 170.282 128.019 177.933 125.371 182.704C122.884 187.069 120.291 191.403 117.671 195.653C114.994 199.957 112.23 204.212 109.296 208.24C107.832 210.24 106.303 212.215 104.731 213.867C103.214 215.539 101.923 216.21 99.8472 216.612C96.0669 217.321 91.6952 215.034 90.252 211.295C88.6018 207.771 90.8867 202.811 94.7931 201.87C98.5807 200.599 103.277 204.953 101.315 208.83C100.427 210.64 98.3246 211.888 96.4044 211.139C94.4644 210.526 93.2449 208.071 94.5363 206.323C95.0646 205.664 95.3779 205.274 95.1306 204.778C94.9465 204.355 94.1305 204.303 93.2684 205.358C91.0877 207.905 92.6865 212.033 95.6186 213.112C98.6042 214.493 102.177 212.776 103.65 210.071C107.135 204.024 100.455 196.689 94.0594 198.238C87.6435 199.366 83.6094 206.648 85.7754 212.873C87.6905 218.977 94.1027 223.02 100.516 222.388C103.557 222.266 107.087 220.492 109.111 218.44C111.213 216.512 112.957 214.521 114.67 212.497C118.063 208.451 121.185 204.29 124.226 200.077C128.079 194.676 131.804 189.289 135.396 183.721C135.403 183.712 135.411 183.702 135.418 183.692C138.47 179.047 142.73 179.747 144.108 184.264C144.111 184.275 144.116 184.285 144.12 184.295C145.315 188.125 146.565 191.932 147.863 195.757C149.557 200.672 151.346 205.559 153.427 210.418C154.482 212.851 155.577 215.262 157.032 217.718C158.386 220.252 161.25 222.985 164.126 223.985C170.078 226.363 177.385 224.485 180.986 219.161C184.849 213.827 183.08 205.69 177.265 202.754C171.587 199.421 163.082 204.507 164.679 211.304C165.309 214.321 168.236 216.998 171.491 216.54C174.608 216.358 177.328 212.871 175.974 209.8C175.454 208.541 174.657 208.353 174.359 208.706C173.979 209.109 174.167 209.573 174.482 210.357C175.215 212.405 173.341 214.401 171.307 214.425C169.253 214.585 167.6 212.783 167.272 210.793C166.508 206.513 172.257 203.705 175.517 206.018C178.984 208.049 179.748 213.459 177.154 216.354C174.685 219.549 169.841 220.337 166.434 218.651C164.564 217.664 163.526 216.64 162.544 214.613C161.516 212.576 160.623 210.241 159.799 207.901C158.153 203.195 156.734 198.321 155.412 193.424C154.306 189.257 153.241 185.035 152.248 180.806C150.642 173.549 155.609 171.732 160.558 176.11C160.585 176.133 160.614 176.155 160.642 176.177C164.949 179.887 169.612 183.48 175.427 186.272C180.862 188.826 188.292 188.836 193.587 185.285C198.945 181.908 202.285 175.669 201.981 169.479Z" fill="#9772C5"/>
<path fill-rule="evenodd" clip-rule="evenodd" d="M125 145.5C125 143.015 127.239 141 130 141C132.761 141 135 143.015 135 145.5C135 147.985 132.761 150 130 150C127.239 150 125 147.985 125 145.5Z" fill="#DD7D90"/>
<path fill-rule="evenodd" clip-rule="evenodd" d="M154 144.5C154 142.015 156.239 140 159 140C161.761 140 164 142.015 164 144.5C164 146.985 161.761 149 159 149C156.239 149 154 146.985 154 144.5Z" fill="#DD7D90"/>
<path fill-rule="evenodd" clip-rule="evenodd" d="M131 145C131 143.895 130.104 143 128.999 143C127.895 143 127 143.895 127 145C127 146.105 127.895 147 128.999 147C130.104 147 131 146.105 131 145Z" fill="#212830"/>
<path fill-rule="evenodd" clip-rule="evenodd" d="M161 145C161 143.896 160.105 143 158.999 143C157.895 143 157 143.896 157 145C157 146.104 157.895 147 158.999 147C160.105 147 161 146.104 161 145Z" fill="#212830"/>
<path fill-rule="evenodd" clip-rule="evenodd" d="M172.216 94.0131C170.312 89.7384 170.684 85.3718 173.05 84.2594C175.415 83.1477 178.878 85.7117 180.783 89.9858C182.688 94.262 182.316 98.6286 179.95 99.7403C177.585 100.853 174.122 98.2894 172.216 94.0131Z" fill="#DD7D90"/>
<path fill-rule="evenodd" clip-rule="evenodd" d="M164.242 89.2233C162.901 87.7111 162.598 85.9381 163.569 85.2618C164.539 84.5855 166.414 85.2647 167.757 86.7769C169.1 88.2898 169.402 90.0628 168.431 90.7384C167.461 91.4139 165.586 90.7362 164.242 89.2233Z" fill="#DD7D90"/>
<path fill-rule="evenodd" clip-rule="evenodd" d="M179.043 107.263C179.27 105.335 180.328 103.877 181.409 104.008C182.49 104.138 183.183 105.807 182.957 107.735C182.731 109.664 181.672 111.121 180.591 110.992C179.51 110.861 178.817 109.193 179.043 107.263Z" fill="#DD7D90"/>
<path fill-rule="evenodd" clip-rule="evenodd" d="M167.734 95.2166C167.023 94.4892 166.787 93.5783 167.21 93.1826C167.634 92.787 168.554 93.0553 169.266 93.7834C169.978 94.5114 170.213 95.4216 169.789 95.8179C169.367 96.213 168.446 95.9439 167.734 95.2166Z" fill="#DD7D90"/>
<path fill-rule="evenodd" clip-rule="evenodd" d="M160.445 84.9938C159.618 84.932 158.97 84.4382 159.001 83.8889C159.031 83.3406 159.726 82.9454 160.554 83.0062C161.382 83.067 162.029 83.5618 161.999 84.1101C161.968 84.6604 161.274 85.0546 160.445 84.9938Z" fill="#DD7D90"/>
<path fill-rule="evenodd" clip-rule="evenodd" d="M175.217 103.383C174.788 102.3 175.015 101.25 175.723 101.037C176.432 100.826 177.354 101.533 177.783 102.616C178.212 103.7 177.985 104.75 177.277 104.963C176.568 105.174 175.646 104.467 175.217 103.383Z" fill="#DD7D90"/>
<path fill-rule="evenodd" clip-rule="evenodd" d="M182.029 101.619C181.897 100.794 182.224 100.071 182.761 100.005C183.297 99.9403 183.839 100.556 183.971 101.382C184.103 102.208 183.776 102.93 183.239 102.995C182.703 103.061 182.162 102.445 182.029 101.619Z" fill="#DD7D90"/>
<path fill-rule="evenodd" clip-rule="evenodd" d="M172.526 103.515C172.04 103.041 171.858 102.427 172.119 102.142C172.382 101.859 172.988 102.013 173.475 102.487C173.96 102.96 174.143 103.574 173.88 103.858C173.619 104.142 173.012 103.987 172.526 103.515Z" fill="#DD7D90"/>
<path fill-rule="evenodd" clip-rule="evenodd" d="M179.132 112.713C179.472 111.62 180.36 110.862 181.115 111.021C181.87 111.18 182.207 112.195 181.868 113.287C181.528 114.38 180.64 115.138 179.885 114.979C179.129 114.82 178.793 113.805 179.132 112.713Z" fill="#DD7D90"/>
<path fill-rule="evenodd" clip-rule="evenodd" d="M163.072 83.6038C162.279 83.0426 161.827 82.094 162.062 81.4843C162.299 80.8747 163.133 80.8352 163.927 81.3965C164.722 81.9577 165.174 82.9072 164.937 83.5168C164.702 84.1256 163.867 84.1642 163.072 83.6038Z" fill="#DD7D90"/>
<defs>
<filter id="filter0_d" x="262.406" y="72.9457" width="30.9453" height="154.632" filterUnits="userSpaceOnUse" color-interpolation-filters="sRGB">
<feFlood flood-opacity="0" result="BackgroundImageFix"/>
<feColorMatrix in="SourceAlpha" type="matrix" values="0 0 0 0 0 0 0 0 0 0 0 0 0 0 0 0 0 0 127 0"/>
<feOffset dx="1" dy="1"/>
<feGaussianBlur stdDeviation="1"/>
<feColorMatrix type="matrix" values="0 0 0 0 0 0 0 0 0 0 0 0 0 0 0 0 0 0 0.15 0"/>
<feBlend mode="normal" in2="BackgroundImageFix" result="effect1_dropShadow"/>
<feBlend mode="normal" in="SourceGraphic" in2="effect1_dropShadow" result="shape"/>
</filter>
<radialGradient id="paint0_radial" cx="0" cy="0" r="1" gradientUnits="userSpaceOnUse" gradientTransform="translate(150 150) rotate(90) scale(150)">
<stop offset="0.296875" stop-color="white" stop-opacity="0"/>
<stop offset="0.947917" stop-color="#9E00FF" stop-opacity="0.83"/>
</radialGradient>
</defs>
</svg>
