<svg width="300" height="300" viewBox="0 0 300 300" fill="none" xmlns="http://www.w3.org/2000/svg">
<rect width="300" height="300" fill="white"/>
<rect width="300" height="300" fill="white"/>
<rect width="300" height="300" fill="white"/>
<rect width="300" height="300" fill="url(#paint0_radial)" fill-opacity="0.11"/>
<g filter="url(#filter0_d)">
<path d="M280.482 218.804L289.5 218.804L289.5 224.078L263.906 224.078L263.906 214.093C263.906 212.171 264.258 210.484 264.961 209.031C265.664 207.566 266.666 206.441 267.967 205.656C269.256 204.871 270.727 204.478 272.379 204.478C274.887 204.478 276.867 205.339 278.32 207.062C279.762 208.773 280.482 211.146 280.482 214.181L280.482 218.804ZM276.211 218.804L276.211 214.093C276.211 212.699 275.883 211.638 275.227 210.912C274.57 210.173 273.633 209.804 272.414 209.804C271.16 209.804 270.146 210.173 269.373 210.912C268.6 211.65 268.201 212.67 268.178 213.97L268.178 218.804L276.211 218.804ZM263.906 177.508L280.764 177.508C283.564 177.508 285.779 178.387 287.408 180.145C289.037 181.891 289.852 184.282 289.852 187.317C289.852 190.305 289.061 192.678 287.479 194.436C285.896 196.194 283.723 197.09 280.957 197.126L263.906 197.126L263.906 191.852L280.799 191.852C282.475 191.852 283.699 191.454 284.473 190.657C285.234 189.848 285.615 188.735 285.615 187.317C285.615 184.352 284.057 182.846 280.939 182.799L263.906 182.799L263.906 177.508ZM280.131 159.75L280.131 163.951L289.5 163.951L289.5 169.224L263.906 169.224L263.906 159.714C263.906 156.691 264.58 154.359 265.928 152.718C267.275 151.078 269.18 150.257 271.641 150.257C273.387 150.257 274.846 150.638 276.018 151.4C277.178 152.15 278.104 153.293 278.795 154.828L289.254 149.291L289.5 149.291L289.5 154.951L280.131 159.75ZM275.859 163.951L275.859 159.697C275.859 158.373 275.525 157.347 274.857 156.621C274.178 155.894 273.246 155.531 272.062 155.531C270.855 155.531 269.906 155.876 269.215 156.568C268.523 157.248 268.178 158.296 268.178 159.714L268.178 163.951L275.859 163.951ZM280.482 136.999L289.5 136.999L289.5 142.272L263.906 142.272L263.906 132.288C263.906 130.366 264.258 128.678 264.961 127.225C265.664 125.76 266.666 124.635 267.967 123.85C269.256 123.065 270.727 122.672 272.379 122.672C274.887 122.672 276.867 123.534 278.32 125.256C279.762 126.967 280.482 129.34 280.482 132.375L280.482 136.999ZM276.211 136.999L276.211 132.288C276.211 130.893 275.883 129.833 275.227 129.106C274.57 128.368 273.633 127.999 272.414 127.999C271.16 127.999 270.146 128.368 269.373 129.106C268.6 129.844 268.201 130.864 268.178 132.165L268.178 136.999L276.211 136.999ZM285.264 109.8L285.264 98.603L289.5 98.603L289.5 115.074L263.906 115.074L263.906 109.8L285.264 109.8ZM278.408 76.2035L278.408 86.3285L285.264 86.3285L285.264 74.4457L289.5 74.4457L289.5 91.602L263.906 91.602L263.906 74.4809L268.178 74.4809L268.178 86.3285L274.277 86.3285L274.277 76.2035L278.408 76.2035Z" fill="white"/>
<path d="M280.482 218.804L279.982 218.804L279.982 219.304L280.482 219.304L280.482 218.804ZM289.5 218.804L290 218.804L290 218.304L289.5 218.304L289.5 218.804ZM289.5 224.078L289.5 224.578L290 224.578L290 224.078L289.5 224.078ZM263.906 224.078L263.406 224.078L263.406 224.578L263.906 224.578L263.906 224.078ZM264.961 209.031L265.411 209.249L265.412 209.247L264.961 209.031ZM267.967 205.656L268.225 206.084L268.227 206.083L267.967 205.656ZM278.32 207.062L278.703 206.74L278.702 206.74L278.32 207.062ZM276.211 218.804L276.211 219.304L276.711 219.304L276.711 218.804L276.211 218.804ZM275.227 210.912L274.853 211.244L274.856 211.247L275.227 210.912ZM268.178 213.97L267.678 213.961L267.678 213.97L268.178 213.97ZM268.178 218.804L267.678 218.804L267.678 219.304L268.178 219.304L268.178 218.804ZM280.482 219.304L289.5 219.304L289.5 218.304L280.482 218.304L280.482 219.304ZM289 218.804L289 224.078L290 224.078L290 218.804L289 218.804ZM289.5 223.578L263.906 223.578L263.906 224.578L289.5 224.578L289.5 223.578ZM264.406 224.078L264.406 214.093L263.406 214.093L263.406 224.078L264.406 224.078ZM264.406 214.093C264.406 212.233 264.746 210.622 265.411 209.249L264.511 208.813C263.769 210.346 263.406 212.11 263.406 214.093L264.406 214.093ZM265.412 209.247C266.076 207.864 267.014 206.815 268.225 206.084L267.708 205.228C266.318 206.067 265.252 207.268 264.51 208.814L265.412 209.247ZM268.227 206.083C269.43 205.35 270.809 204.978 272.379 204.978L272.379 203.978C270.644 203.978 269.081 204.391 267.707 205.229L268.227 206.083ZM272.379 204.978C274.758 204.978 276.591 205.788 277.938 207.384L278.702 206.74C277.143 204.891 275.015 203.978 272.379 203.978L272.379 204.978ZM277.938 207.384C279.28 208.977 279.982 211.222 279.982 214.181L280.982 214.181C280.982 211.07 280.243 208.569 278.703 206.74L277.938 207.384ZM279.982 214.181L279.982 218.804L280.982 218.804L280.982 214.181L279.982 214.181ZM276.711 218.804L276.711 214.093L275.711 214.093L275.711 218.804L276.711 218.804ZM276.711 214.093C276.711 212.627 276.366 211.428 275.598 210.577L274.856 211.247C275.399 211.849 275.711 212.77 275.711 214.093L276.711 214.093ZM275.6 210.58C274.828 209.71 273.74 209.304 272.414 209.304L272.414 210.304C273.526 210.304 274.313 210.637 274.853 211.244L275.6 210.58ZM272.414 209.304C271.055 209.304 269.91 209.708 269.028 210.55L269.718 211.273C270.383 210.639 271.265 210.304 272.414 210.304L272.414 209.304ZM269.028 210.55C268.138 211.4 267.703 212.558 267.678 213.961L268.678 213.979C268.699 212.781 269.062 211.9 269.718 211.273L269.028 210.55ZM267.678 213.97L267.678 218.804L268.678 218.804L268.678 213.97L267.678 213.97ZM268.178 219.304L276.211 219.304L276.211 218.304L268.178 218.304L268.178 219.304ZM263.906 177.508L263.906 177.008L263.406 177.008L263.406 177.508L263.906 177.508ZM287.408 180.145L287.041 180.485L287.043 180.486L287.408 180.145ZM280.957 197.126L280.957 197.626L280.963 197.626L280.957 197.126ZM263.906 197.126L263.406 197.126L263.406 197.626L263.906 197.626L263.906 197.126ZM263.906 191.852L263.906 191.352L263.406 191.352L263.406 191.852L263.906 191.852ZM284.473 190.657L284.831 191.005L284.837 191L284.473 190.657ZM280.939 182.799L280.947 182.299L280.939 182.299L280.939 182.799ZM263.906 182.799L263.406 182.799L263.406 183.299L263.906 183.299L263.906 182.799ZM263.906 178.008L280.764 178.008L280.764 177.008L263.906 177.008L263.906 178.008ZM280.764 178.008C283.451 178.008 285.523 178.847 287.041 180.485L287.775 179.805C286.035 177.928 283.678 177.008 280.764 177.008L280.764 178.008ZM287.043 180.486C288.564 182.117 289.352 184.373 289.352 187.317L290.352 187.317C290.352 184.191 289.511 181.666 287.774 179.804L287.043 180.486ZM289.352 187.317C289.352 190.215 288.586 192.458 287.107 194.102L287.85 194.771C289.535 192.899 290.352 190.395 290.352 187.317L289.352 187.317ZM287.107 194.102C285.634 195.738 283.603 196.592 280.951 196.626L280.963 197.626C283.843 197.589 286.159 196.65 287.85 194.771L287.107 194.102ZM280.957 196.626L263.906 196.626L263.906 197.626L280.957 197.626L280.957 196.626ZM264.406 197.126L264.406 191.852L263.406 191.852L263.406 197.126L264.406 197.126ZM263.906 192.352L280.799 192.352L280.799 191.352L263.906 191.352L263.906 192.352ZM280.799 192.352C282.542 192.352 283.925 191.939 284.831 191.005L284.114 190.309C283.473 190.969 282.408 191.352 280.799 191.352L280.799 192.352ZM284.837 191C285.708 190.075 286.115 188.826 286.115 187.317L285.115 187.317C285.115 188.644 284.761 189.622 284.109 190.314L284.837 191ZM286.115 187.317C286.115 185.75 285.702 184.482 284.794 183.604C283.89 182.731 282.577 182.324 280.947 182.299L280.932 183.299C282.419 183.322 283.444 183.691 284.099 184.324C284.749 184.952 285.115 185.919 285.115 187.317L286.115 187.317ZM280.939 182.299L263.906 182.299L263.906 183.299L280.939 183.299L280.939 182.299ZM264.406 182.799L264.406 177.508L263.406 177.508L263.406 182.799L264.406 182.799ZM280.131 159.75L279.903 159.305L279.631 159.444L279.631 159.75L280.131 159.75ZM280.131 163.951L279.631 163.951L279.631 164.451L280.131 164.451L280.131 163.951ZM289.5 163.951L290 163.951L290 163.451L289.5 163.451L289.5 163.951ZM289.5 169.224L289.5 169.724L290 169.724L290 169.224L289.5 169.224ZM263.906 169.224L263.406 169.224L263.406 169.724L263.906 169.724L263.906 169.224ZM276.018 151.4L275.745 151.819L275.746 151.82L276.018 151.4ZM278.795 154.828L278.339 155.033L278.558 155.519L279.029 155.27L278.795 154.828ZM289.254 149.291L289.254 148.791L289.13 148.791L289.02 148.849L289.254 149.291ZM289.5 149.291L290 149.291L290 148.791L289.5 148.791L289.5 149.291ZM289.5 154.951L289.728 155.396L290 155.256L290 154.951L289.5 154.951ZM275.859 163.951L275.859 164.451L276.359 164.451L276.359 163.951L275.859 163.951ZM274.857 156.621L275.226 156.282L275.223 156.279L274.857 156.621ZM269.215 156.568L269.565 156.924L269.568 156.921L269.215 156.568ZM268.178 163.951L267.678 163.951L267.678 164.451L268.178 164.451L268.178 163.951ZM279.631 159.75L279.631 163.951L280.631 163.951L280.631 159.75L279.631 159.75ZM280.131 164.451L289.5 164.451L289.5 163.451L280.131 163.451L280.131 164.451ZM289 163.951L289 169.224L290 169.224L290 163.951L289 163.951ZM289.5 168.724L263.906 168.724L263.906 169.724L289.5 169.724L289.5 168.724ZM264.406 169.224L264.406 159.714L263.406 159.714L263.406 169.224L264.406 169.224ZM264.406 159.714C264.406 156.759 265.066 154.556 266.314 153.036L265.541 152.401C264.095 154.162 263.406 156.623 263.406 159.714L264.406 159.714ZM266.314 153.036C267.551 151.53 269.303 150.757 271.641 150.757L271.641 149.757C269.057 149.757 267 150.626 265.541 152.401L266.314 153.036ZM271.641 150.757C273.314 150.757 274.672 151.122 275.745 151.819L276.29 150.981C275.019 150.155 273.459 149.757 271.641 149.757L271.641 150.757ZM275.746 151.82C276.809 152.507 277.678 153.566 278.339 155.033L279.251 154.622C278.529 153.019 277.546 151.793 276.289 150.98L275.746 151.82ZM279.029 155.27L289.488 149.732L289.02 148.849L278.561 154.386L279.029 155.27ZM289.254 149.791L289.5 149.791L289.5 148.791L289.254 148.791L289.254 149.791ZM289 149.291L289 154.951L290 154.951L290 149.291L289 149.291ZM289.272 154.506L279.903 159.305L280.359 160.195L289.728 155.396L289.272 154.506ZM276.359 163.951L276.359 159.697L275.359 159.697L275.359 163.951L276.359 163.951ZM276.359 159.697C276.359 158.291 276.004 157.129 275.225 156.282L274.489 156.959C275.047 157.566 275.359 158.454 275.359 159.697L276.359 159.697ZM275.223 156.279C274.43 155.432 273.356 155.031 272.062 155.031L272.062 156.031C273.136 156.031 273.925 156.356 274.492 156.962L275.223 156.279ZM272.062 155.031C270.756 155.031 269.667 155.408 268.861 156.214L269.568 156.921C270.145 156.345 270.955 156.031 272.062 156.031L272.062 155.031ZM268.864 156.211C268.041 157.021 267.678 158.224 267.678 159.714L268.678 159.714C268.678 158.368 269.006 157.474 269.565 156.924L268.864 156.211ZM267.678 159.714L267.678 163.951L268.678 163.951L268.678 159.714L267.678 159.714ZM268.178 164.451L275.859 164.451L275.859 163.451L268.178 163.451L268.178 164.451ZM280.482 136.999L279.982 136.999L279.982 137.499L280.482 137.499L280.482 136.999ZM289.5 136.999L290 136.999L290 136.499L289.5 136.499L289.5 136.999ZM289.5 142.272L289.5 142.772L290 142.772L290 142.272L289.5 142.272ZM263.906 142.272L263.406 142.272L263.406 142.772L263.906 142.772L263.906 142.272ZM264.961 127.225L265.411 127.443L265.412 127.441L264.961 127.225ZM267.967 123.85L268.225 124.278L268.227 124.277L267.967 123.85ZM278.32 125.256L278.703 124.934L278.702 124.934L278.32 125.256ZM276.211 136.999L276.211 137.499L276.711 137.499L276.711 136.999L276.211 136.999ZM275.227 129.106L274.853 129.438L274.856 129.441L275.227 129.106ZM268.178 132.165L267.678 132.156L267.678 132.165L268.178 132.165ZM268.178 136.999L267.678 136.999L267.678 137.499L268.178 137.499L268.178 136.999ZM280.482 137.499L289.5 137.499L289.5 136.499L280.482 136.499L280.482 137.499ZM289 136.999L289 142.272L290 142.272L290 136.999L289 136.999ZM289.5 141.772L263.906 141.772L263.906 142.772L289.5 142.772L289.5 141.772ZM264.406 142.272L264.406 132.288L263.406 132.288L263.406 142.272L264.406 142.272ZM264.406 132.288C264.406 130.427 264.746 128.816 265.411 127.443L264.511 127.007C263.769 128.54 263.406 130.305 263.406 132.288L264.406 132.288ZM265.412 127.441C266.076 126.058 267.014 125.009 268.225 124.278L267.708 123.422C266.318 124.261 265.252 125.462 264.51 127.009L265.412 127.441ZM268.227 124.277C269.43 123.544 270.809 123.172 272.379 123.172L272.379 122.172C270.644 122.172 269.081 122.586 267.707 123.423L268.227 124.277ZM272.379 123.172C274.758 123.172 276.591 123.982 277.938 125.579L278.702 124.934C277.143 123.085 275.015 122.172 272.379 122.172L272.379 123.172ZM277.938 125.578C279.28 127.172 279.982 129.416 279.982 132.375L280.982 132.375C280.982 129.265 280.243 126.763 278.703 124.934L277.938 125.578ZM279.982 132.375L279.982 136.999L280.982 136.999L280.982 132.375L279.982 132.375ZM276.711 136.999L276.711 132.288L275.711 132.288L275.711 136.999L276.711 136.999ZM276.711 132.288C276.711 130.821 276.366 129.622 275.598 128.771L274.856 129.441C275.399 130.043 275.711 130.965 275.711 132.288L276.711 132.288ZM275.6 128.774C274.828 127.904 273.74 127.499 272.414 127.499L272.414 128.499C273.526 128.499 274.313 128.831 274.853 129.438L275.6 128.774ZM272.414 127.499C271.055 127.499 269.91 127.902 269.028 128.744L269.718 129.468C270.383 128.833 271.265 128.499 272.414 128.499L272.414 127.499ZM269.028 128.744C268.138 129.594 267.703 130.752 267.678 132.156L268.678 132.174C268.699 130.975 269.062 130.094 269.718 129.468L269.028 128.744ZM267.678 132.165L267.678 136.999L268.678 136.999L268.678 132.165L267.678 132.165ZM268.178 137.499L276.211 137.499L276.211 136.499L268.178 136.499L268.178 137.499ZM285.264 109.8L285.264 110.3L285.764 110.3L285.764 109.8L285.264 109.8ZM285.264 98.603L285.264 98.103L284.764 98.103L284.764 98.603L285.264 98.603ZM289.5 98.603L290 98.603L290 98.103L289.5 98.103L289.5 98.603ZM289.5 115.074L289.5 115.574L290 115.574L290 115.074L289.5 115.074ZM263.906 115.074L263.406 115.074L263.406 115.574L263.906 115.574L263.906 115.074ZM263.906 109.8L263.906 109.3L263.406 109.3L263.406 109.8L263.906 109.8ZM285.764 109.8L285.764 98.603L284.764 98.603L284.764 109.8L285.764 109.8ZM285.264 99.103L289.5 99.103L289.5 98.103L285.264 98.103L285.264 99.103ZM289 98.603L289 115.074L290 115.074L290 98.603L289 98.603ZM289.5 114.574L263.906 114.574L263.906 115.574L289.5 115.574L289.5 114.574ZM264.406 115.074L264.406 109.8L263.406 109.8L263.406 115.074L264.406 115.074ZM263.906 110.3L285.264 110.3L285.264 109.3L263.906 109.3L263.906 110.3ZM278.408 76.2035L278.908 76.2035L278.908 75.7035L278.408 75.7035L278.408 76.2035ZM278.408 86.3285L277.908 86.3285L277.908 86.8285L278.408 86.8285L278.408 86.3285ZM285.264 86.3285L285.264 86.8285L285.764 86.8285L285.764 86.3285L285.264 86.3285ZM285.264 74.4457L285.264 73.9457L284.764 73.9457L284.764 74.4457L285.264 74.4457ZM289.5 74.4457L290 74.4457L290 73.9457L289.5 73.9457L289.5 74.4457ZM289.5 91.602L289.5 92.102L290 92.102L290 91.602L289.5 91.602ZM263.906 91.602L263.406 91.602L263.406 92.102L263.906 92.102L263.906 91.602ZM263.906 74.4809L263.906 73.9809L263.406 73.9809L263.406 74.4809L263.906 74.4809ZM268.178 74.4809L268.678 74.4809L268.678 73.9809L268.178 73.9809L268.178 74.4809ZM268.178 86.3285L267.678 86.3285L267.678 86.8285L268.178 86.8285L268.178 86.3285ZM274.277 86.3285L274.277 86.8285L274.777 86.8285L274.777 86.3285L274.277 86.3285ZM274.277 76.2035L274.277 75.7035L273.777 75.7035L273.777 76.2035L274.277 76.2035ZM277.908 76.2035L277.908 86.3285L278.908 86.3285L278.908 76.2035L277.908 76.2035ZM278.408 86.8285L285.264 86.8285L285.264 85.8285L278.408 85.8285L278.408 86.8285ZM285.764 86.3285L285.764 74.4457L284.764 74.4457L284.764 86.3285L285.764 86.3285ZM285.264 74.9457L289.5 74.9457L289.5 73.9457L285.264 73.9457L285.264 74.9457ZM289 74.4457L289 91.602L290 91.602L290 74.4457L289 74.4457ZM289.5 91.102L263.906 91.102L263.906 92.102L289.5 92.102L289.5 91.102ZM264.406 91.602L264.406 74.4809L263.406 74.4809L263.406 91.602L264.406 91.602ZM263.906 74.9809L268.178 74.9809L268.178 73.9809L263.906 73.9809L263.906 74.9809ZM267.678 74.4809L267.678 86.3285L268.678 86.3285L268.678 74.4809L267.678 74.4809ZM268.178 86.8285L274.277 86.8285L274.277 85.8285L268.178 85.8285L268.178 86.8285ZM274.777 86.3285L274.777 76.2035L273.777 76.2035L273.777 86.3285L274.777 86.3285ZM274.277 76.7035L278.408 76.7035L278.408 75.7035L274.277 75.7035L274.277 76.7035Z" fill="#C902DA"/>
</g>
<path d="M28.0078 265.703V285H14.2969V228.125H36.9922C41.3411 228.125 45.1823 228.932 48.5156 230.547C51.875 232.135 54.4661 234.414 56.2891 237.383C58.138 240.326 59.0625 243.672 59.0625 247.422C59.0625 252.969 57.0703 257.409 53.0859 260.742C49.1276 264.049 43.6849 265.703 36.7578 265.703H28.0078ZM28.0078 255.117H36.9922C39.6484 255.117 41.6667 254.453 43.0469 253.125C44.4531 251.797 45.1562 249.922 45.1562 247.5C45.1562 244.844 44.4401 242.721 43.0078 241.133C41.5755 239.544 39.6224 238.737 37.1484 238.711H28.0078V255.117ZM72.4437 279.727H63.1977L61.4398 285H55.8324L65.3598 259.406H70.2465L79.8266 285H74.2191L72.4437 279.727ZM64.6215 275.455H71.0199L67.8031 265.875L64.6215 275.455ZM90.3446 285H85.0712V259.406H90.3446V285ZM103.042 280.764H114.24V285H97.7689V259.406H103.042V280.764Z" fill="black"/>
<path d="M135.525 20.126H131.139V32H130.058V20.126H125.681V19.2031H135.525V20.126ZM148.79 26.2959C148.79 27.4736 148.585 28.5078 148.175 29.3984C147.771 30.2891 147.191 30.9746 146.435 31.4551C145.679 31.9355 144.806 32.1758 143.816 32.1758C142.322 32.1758 141.114 31.6426 140.195 30.5762C139.275 29.5039 138.815 28.0596 138.815 26.2432V24.9248C138.815 23.7588 139.02 22.7275 139.43 21.8311C139.846 20.9287 140.432 20.2373 141.188 19.7568C141.944 19.2705 142.814 19.0273 143.798 19.0273C144.782 19.0273 145.65 19.2646 146.4 19.7393C147.156 20.2139 147.739 20.8848 148.149 21.752C148.559 22.6191 148.773 23.624 148.79 24.7666V26.2959ZM147.709 24.9072C147.709 23.3662 147.361 22.1592 146.663 21.2861C145.966 20.4131 145.011 19.9766 143.798 19.9766C142.609 19.9766 141.659 20.416 140.95 21.2949C140.247 22.168 139.896 23.3896 139.896 24.96V26.2959C139.896 27.8135 140.247 29.0176 140.95 29.9082C141.654 30.793 142.609 31.2354 143.816 31.2354C145.04 31.2354 145.995 30.7988 146.681 29.9258C147.366 29.0469 147.709 27.8252 147.709 26.2607V24.9072ZM156.861 26.1816L160.772 19.2031H162.02L157.397 27.1836V32H156.316V27.1836L151.702 19.2031H152.985L156.861 26.1816ZM172.965 28.8535C172.965 28.1445 172.716 27.585 172.218 27.1748C171.72 26.7588 170.809 26.3662 169.485 25.9971C168.16 25.6221 167.194 25.2148 166.584 24.7754C165.717 24.1543 165.283 23.3398 165.283 22.332C165.283 21.3535 165.685 20.5596 166.488 19.9502C167.296 19.335 168.327 19.0273 169.581 19.0273C170.431 19.0273 171.19 19.1914 171.858 19.5195C172.532 19.8477 173.053 20.3047 173.422 20.8906C173.791 21.4766 173.976 22.1299 173.976 22.8506H172.886C172.886 21.9775 172.587 21.2773 171.99 20.75C171.392 20.2168 170.589 19.9502 169.581 19.9502C168.603 19.9502 167.824 20.1699 167.243 20.6094C166.663 21.043 166.373 21.6113 166.373 22.3145C166.373 22.9648 166.634 23.4951 167.156 23.9053C167.677 24.3154 168.512 24.6787 169.66 24.9951C170.809 25.3057 171.679 25.6309 172.271 25.9707C172.863 26.3047 173.308 26.7061 173.607 27.1748C173.906 27.6436 174.055 28.1973 174.055 28.8359C174.055 29.8438 173.651 30.6523 172.842 31.2617C172.039 31.8711 170.979 32.1758 169.66 32.1758C168.758 32.1758 167.929 32.0146 167.173 31.6924C166.423 31.3701 165.852 30.9189 165.459 30.3389C165.073 29.7588 164.879 29.0938 164.879 28.3438H165.96C165.96 29.2461 166.297 29.958 166.971 30.4795C167.645 31.001 168.541 31.2617 169.66 31.2617C170.657 31.2617 171.456 31.042 172.06 30.6025C172.663 30.1631 172.965 29.5801 172.965 28.8535Z" fill="black"/>
<path fill-rule="evenodd" clip-rule="evenodd" d="M113.822 96.2621H199.188C195.771 70.0155 177.66 50.4347 156.505 50.4347C135.349 50.4347 117.237 70.0155 113.822 96.2621ZM202.579 99.3613H110.43L110.608 97.6469C113.607 68.9655 133.339 47.3355 156.505 47.3355C179.672 47.3355 199.4 68.9655 202.402 97.6469L202.579 99.3613Z" fill="#9200CC"/>
<path fill-rule="evenodd" clip-rule="evenodd" d="M165.431 43.051C159.462 44.2146 154.7 44.2277 148.663 43.051C146.161 42.5614 144.037 45.6802 144.037 48.923C144.037 52.1658 146.267 55.6404 148.663 54.7934C154.381 52.7746 159.294 52.6244 165.431 54.7934C167.825 55.6404 170.056 52.1658 170.056 48.923C170.056 45.6802 167.936 42.5614 165.431 43.051Z" fill="#FDA035"/>
<path fill-rule="evenodd" clip-rule="evenodd" d="M109.382 92.6186C109.075 91.0047 110.76 85.4972 113.364 84.3574C115.967 83.2206 119.795 87.9672 121.17 92.904C122.551 97.8392 109.382 92.6186 109.382 92.6186Z" fill="#CB8F79"/>
<path fill-rule="evenodd" clip-rule="evenodd" d="M204.712 92.6186C205.018 91.0047 203.336 85.4972 200.731 84.3574C198.129 83.2206 194.3 87.9672 192.924 92.904C191.544 97.8392 204.712 92.6186 204.712 92.6186Z" fill="#CB8F79"/>
<path fill-rule="evenodd" clip-rule="evenodd" d="M107.178 92.8581L123.244 178.939C123.584 180.751 125.013 182.143 126.805 182.407C148.611 185.63 163.036 186.027 185.846 182.492C187.854 182.182 189.451 180.615 189.831 178.584L205.832 92.8581C168.056 96.932 144.92 98.051 107.178 92.8581Z" fill="#7986CB"/>
<path fill-rule="evenodd" clip-rule="evenodd" d="M107.178 92.8581L123.244 178.939C123.584 180.751 125.013 182.143 126.805 182.407C148.611 185.63 163.036 186.027 185.846 182.492C187.854 182.182 189.451 180.615 189.831 178.584L205.832 92.8581C168.056 96.932 144.92 98.051 107.178 92.8581Z" fill="#9200CC"/>
<path fill-rule="evenodd" clip-rule="evenodd" d="M111.199 111.619C146.204 114.102 168.323 114.013 202.849 111.647L205.832 95.3851C205.229 95.1331 204.577 95.0062 203.913 95.061C195.07 95.7675 187.053 96.2888 179.444 96.6284C159.849 98.0705 142.889 98.0637 121.908 95.8258C118.292 95.5909 114.573 95.332 110.669 95.037C109.822 94.9736 108.987 95.1811 108.262 95.6081L111.199 111.619Z" fill="#E5A3FF"/>
<path fill-rule="evenodd" clip-rule="evenodd" d="M116.935 143.8L123.474 178.918C123.812 180.735 125.245 182.132 127.04 182.399C148.878 185.632 163.328 186.031 186.173 182.483C188.183 182.171 189.783 180.599 190.162 178.562L193.907 158.463C164.575 171.819 137.852 160.5 116.935 143.8Z" fill="#58007B"/>
<path fill-rule="evenodd" clip-rule="evenodd" d="M166.405 126.35C165.063 132.275 160.692 139.073 157.367 138.324C154.041 137.573 153.027 129.557 154.368 123.635C155.712 117.712 158.901 116.127 162.226 116.876C165.549 117.628 167.744 120.431 166.405 126.35Z" fill="white"/>
<path fill-rule="evenodd" clip-rule="evenodd" d="M174.915 137.741C169.816 141 162.169 143.023 160.591 140.493C159.014 137.962 164.111 131.845 169.208 128.584C174.303 125.329 177.467 126.171 179.045 128.7C180.622 131.228 180.014 134.485 174.915 137.741Z" fill="white"/>
<path fill-rule="evenodd" clip-rule="evenodd" d="M140.651 130.708C143.856 135.782 149.965 140.79 152.568 139.146C155.175 137.501 153.285 129.827 150.084 124.755C146.886 119.687 143.589 119.138 140.983 120.785C138.38 122.43 137.454 125.639 140.651 130.708Z" fill="white"/>
<path fill-rule="evenodd" clip-rule="evenodd" d="M146.616 162.51C147.858 156.575 151.612 149.686 154.325 150.347C157.04 151.012 157.682 158.972 156.438 164.91C155.195 170.844 152.535 172.505 149.824 171.845C147.111 171.18 145.37 168.447 146.616 162.51Z" fill="white"/>
<path fill-rule="evenodd" clip-rule="evenodd" d="M173.504 153.149C167.571 151.857 160.727 147.79 161.434 144.771C162.14 141.752 170.131 140.93 176.062 142.222C181.995 143.518 183.617 146.444 182.911 149.461C182.205 152.479 179.435 154.445 173.504 153.149Z" fill="white"/>
<path fill-rule="evenodd" clip-rule="evenodd" d="M138.377 134.471C144.31 135.802 151.178 139.898 150.495 142.9C149.81 145.901 141.831 146.668 135.897 145.342C129.964 144.01 128.32 141.083 129.005 138.084C129.692 135.082 132.443 133.142 138.377 134.471Z" fill="white"/>
<path fill-rule="evenodd" clip-rule="evenodd" d="M136.915 149.676C141.987 146.477 149.665 144.589 151.307 147.191C152.954 149.797 147.943 155.908 142.871 159.108C137.797 162.303 134.589 161.38 132.944 158.775C131.297 156.171 131.839 152.878 136.915 149.676Z" fill="white"/>
<path fill-rule="evenodd" clip-rule="evenodd" d="M171.228 158.049C167.998 152.965 161.88 147.914 159.313 149.524C156.745 151.137 158.699 158.798 161.928 163.882C165.155 168.965 168.436 169.54 171.002 167.931C173.572 166.322 174.455 163.135 171.228 158.049Z" fill="white"/>
<path fill-rule="evenodd" clip-rule="evenodd" d="M162.306 146.318C161.515 149.819 158.03 152.018 154.529 151.226C151.025 150.435 148.827 146.952 149.62 143.451C150.414 139.948 153.897 137.752 157.399 138.541C160.9 139.335 163.098 142.813 162.306 146.318Z" fill="#FDD835"/>
<path fill-rule="evenodd" clip-rule="evenodd" d="M164.971 55.859C166.596 56.5156 168.144 54.8946 168.972 52.6281C161.24 48.9514 146.593 51.1843 144.08 52.0965C144.08 52.0965 144.048 52.1002 144.037 52.1002C144.807 54.6353 146.461 56.566 148.21 55.859C153.925 53.5515 158.837 53.3799 164.971 55.859Z" fill="#FDD835"/>
<path fill-rule="evenodd" clip-rule="evenodd" d="M168.972 45.397C168.14 43.7951 166.831 42.7471 165.376 43.0531C159.548 44.2721 154.9 44.2858 149.006 43.0531C147.368 42.7094 145.913 44.0806 145.121 46.0364C148.071 46.8024 159.571 48.8403 168.972 45.397Z" fill="#FDD835"/>
<path fill-rule="evenodd" clip-rule="evenodd" d="M208 103.891C208 106.209 206.259 108.121 204.014 108.277C167.98 110.781 145.556 110.892 109.219 108.301C106.843 108.133 105.009 106.103 105.009 103.651V96.1723C105.009 94.9483 105.504 93.7826 106.375 92.9495C107.245 92.1181 108.414 91.6981 109.598 91.7856C145.473 94.482 167.78 94.638 203.393 91.8096C204.58 91.7136 205.751 92.1353 206.626 92.9667C207.499 93.7981 208 94.9689 208 96.1946V103.891Z" fill="#58007B"/>
<path fill-rule="evenodd" clip-rule="evenodd" d="M145.858 186.471C146.295 183.286 146.656 179.844 144.744 176.466C142.902 174.561 141.141 173.75 139.012 172.198C136.929 170.679 134.812 168.961 132.338 168.162C130.817 167.669 130.005 166.494 129.749 165.223C110.267 158.675 92 171.032 92 171.032C93.6674 173.173 95.9689 178.628 98.6647 182.632C100.914 185.969 119.756 195.857 131.086 196.906C138.597 197.116 144.151 189.261 145.858 186.471Z" fill="#6D248B"/>
<path fill-rule="evenodd" clip-rule="evenodd" d="M182.567 205.261C181.557 204.835 180.998 203.851 181.317 203.051C181.639 202.256 182.719 201.951 183.731 202.374C184.743 202.802 185.298 203.789 184.984 204.582C184.66 205.383 183.577 205.684 182.567 205.261ZM184.081 199.684C179.551 197.687 146.989 183.625 143.249 181.735C143.137 181.744 143.028 181.754 142.919 181.762L141.067 184.09C140.812 184.976 140.758 185.916 140.927 186.688C140.948 186.789 139.68 188.3 139.701 188.396C146.047 192.27 170.249 204.348 178.826 209.398C188.906 215.337 191.83 203.099 184.081 199.684Z" fill="#6D248B"/>
<path fill-rule="evenodd" clip-rule="evenodd" d="M144.794 175.385C148.529 179.886 145.27 191.319 129.986 187.454C114.703 183.591 92.3381 171.466 92.006 171.164C91.6739 170.864 105.217 152.471 105.217 152.471C105.217 152.471 131.448 159.296 144.794 175.385Z" fill="#D589F3"/>
<defs>
<filter id="filter0_d" x="262.406" y="72.9457" width="30.9453" height="154.632" filterUnits="userSpaceOnUse" color-interpolation-filters="sRGB">
<feFlood flood-opacity="0" result="BackgroundImageFix"/>
<feColorMatrix in="SourceAlpha" type="matrix" values="0 0 0 0 0 0 0 0 0 0 0 0 0 0 0 0 0 0 127 0"/>
<feOffset dx="1" dy="1"/>
<feGaussianBlur stdDeviation="1"/>
<feColorMatrix type="matrix" values="0 0 0 0 0 0 0 0 0 0 0 0 0 0 0 0 0 0 0.15 0"/>
<feBlend mode="normal" in2="BackgroundImageFix" result="effect1_dropShadow"/>
<feBlend mode="normal" in="SourceGraphic" in2="effect1_dropShadow" result="shape"/>
</filter>
<radialGradient id="paint0_radial" cx="0" cy="0" r="1" gradientUnits="userSpaceOnUse" gradientTransform="translate(150 150) rotate(90) scale(150)">
<stop offset="0.296875" stop-color="white" stop-opacity="0"/>
<stop offset="0.947917" stop-color="#9E00FF" stop-opacity="0.83"/>
</radialGradient>
</defs>
</svg>
