<svg width="300" height="300" viewBox="0 0 300 300" fill="none" xmlns="http://www.w3.org/2000/svg">
<rect width="300" height="300" fill="white"/>
<rect width="300" height="300" fill="white"/>
<rect width="300" height="300" fill="white"/>
<rect width="300" height="300" fill="url(#paint0_radial)" fill-opacity="0.2"/>
<g filter="url(#filter0_d)">
<path d="M286.266 178.422C287.402 179.372 288.287 180.713 288.92 182.448C289.541 184.182 289.852 186.104 289.852 188.213C289.852 190.428 289.371 192.374 288.41 194.049C287.437 195.713 286.031 197.003 284.191 197.917C282.352 198.819 280.189 199.282 277.705 199.305L275.965 199.305C273.41 199.305 271.201 198.878 269.338 198.022C267.463 197.155 266.033 195.913 265.049 194.295C264.053 192.667 263.555 190.762 263.555 188.583C263.555 185.547 264.281 183.174 265.734 181.463C267.176 179.753 269.279 178.739 272.045 178.422L272.045 183.555C270.58 183.79 269.508 184.311 268.828 185.12C268.148 185.917 267.809 187.018 267.809 188.424C267.809 190.217 268.482 191.583 269.83 192.52C271.178 193.458 273.182 193.932 275.842 193.944L277.477 193.944C280.16 193.944 282.187 193.434 283.559 192.415C284.93 191.395 285.615 189.901 285.615 187.932C285.615 185.952 285.193 184.54 284.35 183.696L279.937 183.696L279.937 188.495L276.053 188.495L276.053 178.422L286.266 178.422ZM280.131 160.699L280.131 164.9L289.5 164.9L289.5 170.173L263.906 170.173L263.906 160.664C263.906 157.64 264.58 155.308 265.928 153.668C267.275 152.027 269.18 151.207 271.641 151.207C273.387 151.207 274.846 151.587 276.018 152.349C277.178 153.099 278.104 154.242 278.795 155.777L289.254 150.24L289.5 150.24L289.5 155.9L280.131 160.699ZM275.859 164.9L275.859 160.646C275.859 159.322 275.525 158.296 274.857 157.57C274.178 156.843 273.246 156.48 272.062 156.48C270.855 156.48 269.906 156.826 269.215 157.517C268.523 158.197 268.178 159.246 268.178 160.664L268.178 164.9L275.859 164.9ZM278.408 127.823L278.408 137.948L285.264 137.948L285.264 126.065L289.5 126.065L289.5 143.221L263.906 143.221L263.906 126.1L268.178 126.1L268.178 137.948L274.277 137.948L274.277 127.823L278.408 127.823ZM275.437 110.187L263.906 104.861L263.906 99.0952L280.219 107.497L289.5 107.497L289.5 112.859L280.219 112.859L263.906 121.261L263.906 115.478L275.437 110.187Z" fill="white"/>
<path d="M286.266 178.422L286.586 178.039L286.447 177.922L286.266 177.922L286.266 178.422ZM288.92 182.448L289.391 182.279L289.39 182.276L288.92 182.448ZM288.41 194.049L288.842 194.302L288.844 194.298L288.41 194.049ZM284.191 197.917L284.412 198.365L284.414 198.364L284.191 197.917ZM277.705 199.305L277.705 199.805L277.71 199.805L277.705 199.305ZM269.338 198.022L269.128 198.476L269.129 198.476L269.338 198.022ZM265.049 194.295L265.476 194.035L265.475 194.035L265.049 194.295ZM265.734 181.463L266.115 181.787L266.117 181.786L265.734 181.463ZM272.045 178.422L272.545 178.422L272.545 177.862L271.988 177.926L272.045 178.422ZM272.045 183.555L272.124 184.049L272.545 183.982L272.545 183.555L272.045 183.555ZM268.828 185.12L269.209 185.444L269.211 185.441L268.828 185.12ZM275.842 193.944L275.84 194.444L275.842 194.444L275.842 193.944ZM284.35 183.696L284.703 183.342L284.557 183.196L284.35 183.196L284.35 183.696ZM279.937 183.696L279.937 183.196L279.437 183.196L279.437 183.696L279.937 183.696ZM279.937 188.495L279.937 188.995L280.437 188.995L280.437 188.495L279.937 188.495ZM276.053 188.495L275.553 188.495L275.553 188.995L276.053 188.995L276.053 188.495ZM276.053 178.422L276.053 177.922L275.553 177.922L275.553 178.422L276.053 178.422ZM285.945 178.806C287 179.687 287.84 180.947 288.45 182.619L289.39 182.276C288.734 180.48 287.805 179.057 286.586 178.039L285.945 178.806ZM288.449 182.616C289.048 184.289 289.352 186.153 289.352 188.213L290.352 188.213C290.352 186.055 290.034 184.075 289.391 182.279L288.449 182.616ZM289.352 188.213C289.352 190.354 288.888 192.211 287.976 193.801L288.844 194.298C289.854 192.536 290.352 190.503 290.352 188.213L289.352 188.213ZM287.978 193.797C287.058 195.371 285.728 196.595 283.969 197.469L284.414 198.364C286.335 197.41 287.817 196.056 288.842 194.302L287.978 193.797ZM283.971 197.468C282.211 198.331 280.126 198.782 277.7 198.805L277.71 199.805C280.253 199.781 282.492 199.307 284.412 198.365L283.971 197.468ZM277.705 198.805L275.965 198.805L275.965 199.805L277.705 199.805L277.705 198.805ZM275.965 198.805C273.465 198.805 271.33 198.387 269.547 197.568L269.129 198.476C271.072 199.368 273.355 199.805 275.965 199.805L275.965 198.805ZM269.548 197.568C267.754 196.739 266.404 195.56 265.476 194.035L264.622 194.555C265.662 196.265 267.172 197.571 269.128 198.476L269.548 197.568ZM265.475 194.035C264.534 192.495 264.055 190.684 264.055 188.583L263.055 188.583C263.055 190.841 263.572 192.838 264.622 194.556L265.475 194.035ZM264.055 188.583C264.055 185.624 264.762 183.38 266.115 181.787L265.353 181.14C263.8 182.969 263.055 185.471 263.055 188.583L264.055 188.583ZM266.117 181.786C267.457 180.195 269.43 179.225 272.102 178.919L271.988 177.926C269.128 178.253 266.895 179.31 265.352 181.141L266.117 181.786ZM271.545 178.422L271.545 183.555L272.545 183.555L272.545 178.422L271.545 178.422ZM271.966 183.062C270.43 183.307 269.229 183.866 268.445 184.798L269.211 185.441C269.787 184.756 270.73 184.272 272.124 184.049L271.966 183.062ZM268.448 184.795C267.668 185.71 267.309 186.94 267.309 188.424L268.309 188.424C268.309 187.096 268.629 186.124 269.209 185.444L268.448 184.795ZM267.309 188.424C267.309 190.363 268.049 191.89 269.545 192.931L270.116 192.11C268.916 191.275 268.309 190.071 268.309 188.424L267.309 188.424ZM269.545 192.931C271.013 193.952 273.135 194.432 275.84 194.444L275.844 193.444C273.228 193.432 271.343 192.963 270.116 192.11L269.545 192.931ZM275.842 194.444L277.477 194.444L277.477 193.444L275.842 193.444L275.842 194.444ZM277.477 194.444C280.21 194.444 282.363 193.927 283.857 192.816L283.26 192.013C282.012 192.941 280.11 193.444 277.477 193.444L277.477 194.444ZM283.857 192.816C285.375 191.687 286.115 190.032 286.115 187.932L285.115 187.932C285.115 189.77 284.484 191.103 283.26 192.013L283.857 192.816ZM286.115 187.932C286.115 185.902 285.686 184.326 284.703 183.342L283.996 184.049C284.7 184.754 285.115 186.001 285.115 187.932L286.115 187.932ZM284.35 183.196L279.937 183.196L279.937 184.196L284.35 184.196L284.35 183.196ZM279.437 183.696L279.437 188.495L280.437 188.495L280.437 183.696L279.437 183.696ZM279.937 187.995L276.053 187.995L276.053 188.995L279.937 188.995L279.937 187.995ZM276.553 188.495L276.553 178.422L275.553 178.422L275.553 188.495L276.553 188.495ZM276.053 178.922L286.266 178.922L286.266 177.922L276.053 177.922L276.053 178.922ZM280.131 160.699L279.903 160.254L279.631 160.393L279.631 160.699L280.131 160.699ZM280.131 164.9L279.631 164.9L279.631 165.4L280.131 165.4L280.131 164.9ZM289.5 164.9L290 164.9L290 164.4L289.5 164.4L289.5 164.9ZM289.5 170.173L289.5 170.673L290 170.673L290 170.173L289.5 170.173ZM263.906 170.173L263.406 170.173L263.406 170.673L263.906 170.673L263.906 170.173ZM276.018 152.349L275.745 152.768L275.746 152.769L276.018 152.349ZM278.795 155.777L278.339 155.982L278.558 156.468L279.029 156.219L278.795 155.777ZM289.254 150.24L289.254 149.74L289.13 149.74L289.02 149.798L289.254 150.24ZM289.5 150.24L290 150.24L290 149.74L289.5 149.74L289.5 150.24ZM289.5 155.9L289.728 156.345L290 156.206L290 155.9L289.5 155.9ZM275.859 164.9L275.859 165.4L276.359 165.4L276.359 164.9L275.859 164.9ZM274.857 157.57L275.226 157.231L275.223 157.228L274.857 157.57ZM269.215 157.517L269.565 157.874L269.568 157.871L269.215 157.517ZM268.178 164.9L267.678 164.9L267.678 165.4L268.178 165.4L268.178 164.9ZM279.631 160.699L279.631 164.9L280.631 164.9L280.631 160.699L279.631 160.699ZM280.131 165.4L289.5 165.4L289.5 164.4L280.131 164.4L280.131 165.4ZM289 164.9L289 170.173L290 170.173L290 164.9L289 164.9ZM289.5 169.673L263.906 169.673L263.906 170.673L289.5 170.673L289.5 169.673ZM264.406 170.173L264.406 160.664L263.406 160.664L263.406 170.173L264.406 170.173ZM264.406 160.664C264.406 157.708 265.066 155.505 266.314 153.985L265.541 153.35C264.095 155.111 263.406 157.573 263.406 160.664L264.406 160.664ZM266.314 153.985C267.551 152.479 269.303 151.707 271.641 151.707L271.641 150.707C269.057 150.707 267 151.575 265.541 153.35L266.314 153.985ZM271.641 151.707C273.314 151.707 274.672 152.071 275.745 152.768L276.29 151.93C275.019 151.104 273.459 150.707 271.641 150.707L271.641 151.707ZM275.746 152.769C276.809 153.456 277.678 154.516 278.339 155.982L279.251 155.572C278.529 153.968 277.546 152.742 276.289 151.929L275.746 152.769ZM279.029 156.219L289.488 150.682L289.02 149.798L278.561 155.335L279.029 156.219ZM289.254 150.74L289.5 150.74L289.5 149.74L289.254 149.74L289.254 150.74ZM289 150.24L289 155.9L290 155.9L290 150.24L289 150.24ZM289.272 155.455L279.903 160.254L280.359 161.144L289.728 156.345L289.272 155.455ZM276.359 164.9L276.359 160.646L275.359 160.646L275.359 164.9L276.359 164.9ZM276.359 160.646C276.359 159.24 276.004 158.078 275.225 157.231L274.489 157.908C275.047 158.515 275.359 159.404 275.359 160.646L276.359 160.646ZM275.223 157.228C274.43 156.382 273.356 155.98 272.062 155.98L272.062 156.98C273.136 156.98 273.925 157.305 274.492 157.911L275.223 157.228ZM272.062 155.98C270.756 155.98 269.667 156.357 268.861 157.164L269.568 157.871C270.145 157.294 270.955 156.98 272.062 156.98L272.062 155.98ZM268.864 157.161C268.041 157.97 267.678 159.174 267.678 160.664L268.678 160.664C268.678 159.318 269.006 158.423 269.565 157.874L268.864 157.161ZM267.678 160.664L267.678 164.9L268.678 164.9L268.678 160.664L267.678 160.664ZM268.178 165.4L275.859 165.4L275.859 164.4L268.178 164.4L268.178 165.4ZM278.408 127.823L278.908 127.823L278.908 127.323L278.408 127.323L278.408 127.823ZM278.408 137.948L277.908 137.948L277.908 138.448L278.408 138.448L278.408 137.948ZM285.264 137.948L285.264 138.448L285.764 138.448L285.764 137.948L285.264 137.948ZM285.264 126.065L285.264 125.565L284.764 125.565L284.764 126.065L285.264 126.065ZM289.5 126.065L290 126.065L290 125.565L289.5 125.565L289.5 126.065ZM289.5 143.221L289.5 143.721L290 143.721L290 143.221L289.5 143.221ZM263.906 143.221L263.406 143.221L263.406 143.721L263.906 143.721L263.906 143.221ZM263.906 126.1L263.906 125.6L263.406 125.6L263.406 126.1L263.906 126.1ZM268.178 126.1L268.678 126.1L268.678 125.6L268.178 125.6L268.178 126.1ZM268.178 137.948L267.678 137.948L267.678 138.448L268.178 138.448L268.178 137.948ZM274.277 137.948L274.277 138.448L274.777 138.448L274.777 137.948L274.277 137.948ZM274.277 127.823L274.277 127.323L273.777 127.323L273.777 127.823L274.277 127.823ZM277.908 127.823L277.908 137.948L278.908 137.948L278.908 127.823L277.908 127.823ZM278.408 138.448L285.264 138.448L285.264 137.448L278.408 137.448L278.408 138.448ZM285.764 137.948L285.764 126.065L284.764 126.065L284.764 137.948L285.764 137.948ZM285.264 126.565L289.5 126.565L289.5 125.565L285.264 125.565L285.264 126.565ZM289 126.065L289 143.221L290 143.221L290 126.065L289 126.065ZM289.5 142.721L263.906 142.721L263.906 143.721L289.5 143.721L289.5 142.721ZM264.406 143.221L264.406 126.1L263.406 126.1L263.406 143.221L264.406 143.221ZM263.906 126.6L268.178 126.6L268.178 125.6L263.906 125.6L263.906 126.6ZM267.678 126.1L267.678 137.948L268.678 137.948L268.678 126.1L267.678 126.1ZM268.178 138.448L274.277 138.448L274.277 137.448L268.178 137.448L268.178 138.448ZM274.777 137.948L274.777 127.823L273.777 127.823L273.777 137.948L274.777 137.948ZM274.277 128.323L278.408 128.323L278.408 127.323L274.277 127.323L274.277 128.323ZM275.437 110.187L275.646 110.641L276.633 110.188L275.647 109.733L275.437 110.187ZM263.906 104.861L263.406 104.861L263.406 105.181L263.697 105.315L263.906 104.861ZM263.906 99.0952L264.135 98.6507L263.406 98.2752L263.406 99.0952L263.906 99.0952ZM280.219 107.497L279.99 107.942L280.098 107.997L280.219 107.997L280.219 107.497ZM289.5 107.497L290 107.497L290 106.997L289.5 106.997L289.5 107.497ZM289.5 112.859L289.5 113.359L290 113.359L290 112.859L289.5 112.859ZM280.219 112.859L280.219 112.359L280.098 112.359L279.99 112.414L280.219 112.859ZM263.906 121.261L263.406 121.261L263.406 122.081L264.135 121.706L263.906 121.261ZM263.906 115.478L263.698 115.024L263.406 115.157L263.406 115.478L263.906 115.478ZM275.647 109.733L264.116 104.407L263.697 105.315L275.228 110.641L275.647 109.733ZM264.406 104.861L264.406 99.0952L263.406 99.0952L263.406 104.861L264.406 104.861ZM263.677 99.5397L279.99 107.942L280.448 107.053L264.135 98.6507L263.677 99.5397ZM280.219 107.997L289.5 107.997L289.5 106.997L280.219 106.997L280.219 107.997ZM289 107.497L289 112.859L290 112.859L290 107.497L289 107.497ZM289.5 112.359L280.219 112.359L280.219 113.359L289.5 113.359L289.5 112.359ZM279.99 112.414L263.677 120.817L264.135 121.706L280.448 113.303L279.99 112.414ZM264.406 121.261L264.406 115.478L263.406 115.478L263.406 121.261L264.406 121.261ZM264.115 115.932L275.646 110.641L275.229 109.733L263.698 115.024L264.115 115.932Z" fill="#766F00"/>
</g>
<path d="M28.0078 265.703V285H14.2969V228.125H36.9922C41.3411 228.125 45.1823 228.932 48.5156 230.547C51.875 232.135 54.4661 234.414 56.2891 237.383C58.138 240.326 59.0625 243.672 59.0625 247.422C59.0625 252.969 57.0703 257.409 53.0859 260.742C49.1276 264.049 43.6849 265.703 36.7578 265.703H28.0078ZM28.0078 255.117H36.9922C39.6484 255.117 41.6667 254.453 43.0469 253.125C44.4531 251.797 45.1562 249.922 45.1562 247.5C45.1562 244.844 44.4401 242.721 43.0078 241.133C41.5755 239.544 39.6224 238.737 37.1484 238.711H28.0078V255.117ZM78.0438 279.727H68.7977L67.0398 285H61.4324L70.9598 259.406H75.8465L85.4266 285H79.8191L78.0438 279.727ZM70.2215 275.455H76.6199L73.4031 265.875L70.2215 275.455ZM112.59 285H107.316L97.0506 268.16V285H91.7772V259.406H97.0506L107.334 276.281V259.406H112.59V285ZM139.893 263.678H132.054V285H126.78V263.678H119.046V259.406H139.893V263.678ZM159.867 278.285C159.867 277.289 159.516 276.527 158.812 276C158.109 275.461 156.844 274.898 155.016 274.312C153.187 273.715 151.74 273.129 150.674 272.555C147.768 270.984 146.314 268.869 146.314 266.209C146.314 264.826 146.701 263.596 147.475 262.518C148.26 261.428 149.379 260.578 150.832 259.969C152.297 259.359 153.937 259.055 155.754 259.055C157.582 259.055 159.211 259.389 160.641 260.057C162.07 260.713 163.178 261.645 163.963 262.852C164.76 264.059 165.158 265.43 165.158 266.965H159.885C159.885 265.793 159.516 264.885 158.777 264.24C158.039 263.584 157.002 263.256 155.666 263.256C154.377 263.256 153.375 263.531 152.66 264.082C151.945 264.621 151.588 265.336 151.588 266.227C151.588 267.059 152.004 267.756 152.836 268.318C153.68 268.881 154.916 269.408 156.545 269.9C159.545 270.803 161.73 271.922 163.101 273.258C164.473 274.594 165.158 276.258 165.158 278.25C165.158 280.465 164.32 282.205 162.644 283.471C160.969 284.725 158.713 285.352 155.877 285.352C153.908 285.352 152.115 284.994 150.498 284.279C148.881 283.553 147.644 282.562 146.789 281.309C145.945 280.055 145.523 278.602 145.523 276.949H150.814C150.814 279.773 152.502 281.186 155.877 281.186C157.131 281.186 158.109 280.934 158.812 280.43C159.516 279.914 159.867 279.199 159.867 278.285Z" fill="black"/>
<path d="M116.26 28.0098C116.114 29.3574 115.63 30.3887 114.81 31.1035C113.996 31.8184 112.909 32.1758 111.549 32.1758C110.6 32.1758 109.759 31.9385 109.027 31.4639C108.3 30.9893 107.738 30.3184 107.339 29.4512C106.941 28.5781 106.739 27.582 106.733 26.4629V24.8018C106.733 23.665 106.932 22.6572 107.331 21.7783C107.729 20.8994 108.3 20.2227 109.044 19.748C109.794 19.2676 110.656 19.0273 111.628 19.0273C112.999 19.0273 114.081 19.3994 114.872 20.1436C115.668 20.8818 116.131 21.9043 116.26 23.2109H115.17C114.901 21.0371 113.72 19.9502 111.628 19.9502C110.468 19.9502 109.542 20.3838 108.851 21.251C108.165 22.1182 107.823 23.3164 107.823 24.8457V26.4102C107.823 27.8867 108.157 29.0645 108.825 29.9434C109.498 30.8223 110.407 31.2617 111.549 31.2617C112.68 31.2617 113.533 30.9922 114.107 30.4531C114.681 29.9082 115.036 29.0938 115.17 28.0098H116.26ZM121.958 31.0859H128.277V32H120.868V19.2031H121.958V31.0859ZM141.217 26.2959C141.217 27.4736 141.012 28.5078 140.602 29.3984C140.198 30.2891 139.618 30.9746 138.862 31.4551C138.106 31.9355 137.233 32.1758 136.243 32.1758C134.749 32.1758 133.541 31.6426 132.622 30.5762C131.702 29.5039 131.242 28.0596 131.242 26.2432V24.9248C131.242 23.7588 131.447 22.7275 131.857 21.8311C132.273 20.9287 132.859 20.2373 133.615 19.7568C134.371 19.2705 135.241 19.0273 136.225 19.0273C137.209 19.0273 138.077 19.2646 138.827 19.7393C139.582 20.2139 140.165 20.8848 140.576 21.752C140.986 22.6191 141.2 23.624 141.217 24.7666V26.2959ZM140.136 24.9072C140.136 23.3662 139.788 22.1592 139.09 21.2861C138.393 20.4131 137.438 19.9766 136.225 19.9766C135.036 19.9766 134.086 20.416 133.377 21.2949C132.674 22.168 132.323 23.3896 132.323 24.96V26.2959C132.323 27.8135 132.674 29.0176 133.377 29.9082C134.081 30.793 135.036 31.2354 136.243 31.2354C137.467 31.2354 138.422 30.7988 139.108 29.9258C139.793 29.0469 140.136 27.8252 140.136 26.2607V24.9072ZM154.359 20.126H149.974V32H148.893V20.126H144.516V19.2031H154.359V20.126ZM167.897 32H166.807V25.8652H159.495V32H158.414V19.2031H159.495V24.9512H166.807V19.2031H167.897V32ZM180.204 25.8652H174.219V31.0859H181.101V32H173.138V19.2031H181.057V20.126H174.219V24.9512H180.204V25.8652ZM192.608 28.8535C192.608 28.1445 192.359 27.585 191.861 27.1748C191.363 26.7588 190.452 26.3662 189.128 25.9971C187.803 25.6221 186.836 25.2148 186.227 24.7754C185.36 24.1543 184.926 23.3398 184.926 22.332C184.926 21.3535 185.328 20.5596 186.13 19.9502C186.939 19.335 187.97 19.0273 189.224 19.0273C190.074 19.0273 190.833 19.1914 191.501 19.5195C192.174 19.8477 192.696 20.3047 193.065 20.8906C193.434 21.4766 193.619 22.1299 193.619 22.8506H192.529C192.529 21.9775 192.23 21.2773 191.632 20.75C191.035 20.2168 190.232 19.9502 189.224 19.9502C188.246 19.9502 187.466 20.1699 186.886 20.6094C186.306 21.043 186.016 21.6113 186.016 22.3145C186.016 22.9648 186.277 23.4951 186.798 23.9053C187.32 24.3154 188.155 24.6787 189.303 24.9951C190.452 25.3057 191.322 25.6309 191.914 25.9707C192.505 26.3047 192.951 26.7061 193.25 27.1748C193.548 27.6436 193.698 28.1973 193.698 28.8359C193.698 29.8438 193.294 30.6523 192.485 31.2617C191.682 31.8711 190.622 32.1758 189.303 32.1758C188.401 32.1758 187.572 32.0146 186.816 31.6924C186.066 31.3701 185.495 30.9189 185.102 30.3389C184.715 29.7588 184.522 29.0938 184.522 28.3438H185.603C185.603 29.2461 185.94 29.958 186.614 30.4795C187.288 31.001 188.184 31.2617 189.303 31.2617C190.299 31.2617 191.099 31.042 191.703 30.6025C192.306 30.1631 192.608 29.5801 192.608 28.8535Z" fill="black"/>
<g clip-path="url(#clip0)">
<path fill-rule="evenodd" clip-rule="evenodd" d="M148.319 74.0192C148.34 74.0719 148.356 74.1293 148.366 74.182C148.4 74.3513 148.395 74.5264 148.35 74.6882C148.348 74.692 148.348 74.6976 148.346 74.7033C148.274 74.9648 148.107 75.1925 147.851 75.3403C147.297 75.663 146.617 75.4155 146.344 74.8359C146.31 74.7654 146.285 74.692 146.267 74.6233C146.254 74.5696 146.245 74.5179 146.244 74.4643C146.204 74.054 146.419 73.6739 146.751 73.4433C147.242 73.2203 147.865 73.2899 148.195 73.7792C148.248 73.8545 148.288 73.9354 148.319 74.0192Z" fill="#151062"/>
<path fill-rule="evenodd" clip-rule="evenodd" d="M146.662 74.6317C146.584 74.0987 146.785 73.6371 147.119 73.3701C147.352 73.12 147.653 72.993 147.954 72.993C148.333 72.993 148.707 73.1964 148.932 73.6074C149.008 73.7443 149.061 73.8922 149.093 74.0391C149.108 74.1007 149.119 74.1662 149.126 74.2317C149.5 74.3002 149.858 74.3855 150.179 74.453C150.202 74.459 150.195 74.4957 150.175 74.4977C149.846 74.5294 149.485 74.6029 149.108 74.6793C149.025 75.1339 148.75 75.5359 148.326 75.7195C148.183 75.7821 148.037 75.8099 147.892 75.8099C147.304 75.8099 146.762 75.3285 146.662 74.6317ZM150.142 76.5583C150.545 76.5533 150.95 76.5473 151.351 76.5364C151.372 76.1503 151.394 75.7622 151.416 75.3771C151.421 75.3116 151.424 75.2441 151.429 75.1776C151.435 75.0486 151.444 74.9175 151.451 74.7875C151.454 74.7448 151.456 74.6992 151.459 74.6565C151.507 73.8803 151.559 73.1041 151.612 72.3269C150.393 72.3299 149.177 72.3269 147.96 72.3101C146.702 72.2982 145.445 72.2733 144.191 72.2416C144.17 72.9106 144.156 73.5766 144.141 74.2456C144.135 74.3587 144.133 74.4719 144.13 74.586C144.127 74.7051 144.125 74.8272 144.124 74.9463C144.116 75.1895 144.111 75.4357 144.105 75.6798C144.1 75.92 144.095 76.1622 144.09 76.4034C145.349 76.4848 146.614 76.5334 147.876 76.5563C148.631 76.5642 149.387 76.5672 150.142 76.5583Z" fill="#151062"/>
<path fill-rule="evenodd" clip-rule="evenodd" d="M138.716 76.0922C139.025 76.1263 139.331 76.1604 139.641 76.1945C141.035 76.355 142.433 76.4774 143.833 76.5637C143.842 76.332 143.857 76.0982 143.871 75.8654C143.884 75.6156 143.898 75.3668 143.914 75.115C143.922 74.9795 143.931 74.8451 143.939 74.7107C143.945 74.6013 143.953 74.4899 143.96 74.3816C144.001 73.7144 144.046 73.0432 144.09 72.376C142.531 72.3409 140.974 72.2978 139.418 72.2416C139.365 72.8024 139.293 73.3673 139.2 73.9231C139.191 73.9773 139.181 74.0314 139.172 74.0836C139.115 74.4067 139.052 74.7307 138.981 75.0488C138.921 75.3237 138.852 75.5986 138.779 75.8715C138.76 75.9457 138.737 76.0199 138.716 76.0922Z" fill="#4D4D52"/>
<path fill-rule="evenodd" clip-rule="evenodd" d="M135.541 76.039C135.509 76.6642 135.495 77.2902 135.493 77.9307C135.955 78.3769 136.47 78.6967 137.083 78.7247C137.414 77.9614 137.697 77.1854 137.924 76.3877C137.992 76.1556 138.053 75.9234 138.11 75.6858C138.125 75.6262 138.139 75.5702 138.152 75.5106C138.209 75.2658 138.262 75.0173 138.306 74.768C138.35 74.5331 138.39 74.2974 138.425 74.058C138.433 73.9929 138.443 73.9261 138.451 73.8619C138.459 73.8177 138.463 73.7716 138.467 73.7282C138.532 73.2332 138.578 72.7345 138.613 72.2368C138.62 72.113 138.628 71.9866 138.635 71.8628C138.642 71.7463 138.649 71.6306 138.655 71.5141C138.655 71.4969 138.658 71.4807 138.658 71.4635C138.662 71.3858 138.664 71.3081 138.669 71.2332C138.671 71.1952 138.674 71.1564 138.676 71.1175L138.687 70.8257L138.693 70.6686L138.716 70.1419C137.983 70.0877 137.269 70.0597 136.537 70.0985C136.436 70.4255 136.341 70.7544 136.259 71.0814C136.256 71.0868 136.256 71.0922 136.254 71.0958C136.232 71.1817 136.209 71.2639 136.191 71.3497C136.191 71.3524 136.191 71.3524 136.191 71.3524C136.177 71.403 136.164 71.4554 136.152 71.5069C136.137 71.5737 136.12 71.6406 136.107 71.7074C136.076 71.8492 136.044 71.992 136.015 72.1338C135.846 72.9514 135.728 73.7689 135.647 74.5973C135.619 74.8556 135.6 75.1131 135.581 75.3715C135.581 75.3796 135.581 75.3859 135.579 75.394C135.563 75.609 135.552 75.8231 135.541 76.039Z" fill="#4D4D52"/>
<path fill-rule="evenodd" clip-rule="evenodd" d="M162.399 71.1175C162.401 71.1564 162.404 71.1952 162.405 71.2332C162.407 71.2594 162.407 71.2874 162.41 71.3136C162.412 71.3804 162.417 71.4473 162.419 71.5141C162.427 71.6306 162.433 71.7463 162.439 71.8628C162.446 71.9893 162.456 72.1175 162.464 72.2449C162.498 72.74 162.542 73.2359 162.607 73.7282C162.612 73.7716 162.616 73.8177 162.623 73.8619C162.632 73.9261 162.642 73.9929 162.65 74.058C162.684 74.2974 162.726 74.5331 162.768 74.768C162.814 75.0146 162.865 75.2603 162.92 75.5024C162.92 75.5052 162.922 75.5079 162.922 75.5106C162.961 75.6732 162.999 75.8358 163.042 75.9948C163.287 76.9316 163.606 77.8367 163.991 78.7247C164.606 78.6967 165.12 78.3769 165.582 77.9307C165.58 77.152 165.56 76.3877 165.51 75.6289C165.505 75.5413 165.501 75.4564 165.494 75.3715C165.487 75.273 165.481 75.1754 165.471 75.077C165.46 74.9171 165.444 74.7572 165.428 74.5973C165.346 73.7617 165.224 72.9315 165.055 72.1058C165.028 71.9712 164.998 71.8402 164.969 71.7074C164.955 71.6406 164.939 71.5737 164.923 71.5069C164.898 71.3985 164.871 71.2928 164.843 71.1844C164.837 71.1564 164.828 71.1257 164.821 71.0958C164.819 71.0922 164.819 71.0868 164.816 71.0814C164.736 70.7544 164.64 70.4255 164.538 70.0985C163.806 70.0597 163.092 70.0877 162.358 70.1419L162.38 70.6686L162.388 70.8257L162.399 71.1175Z" fill="#4D4D52"/>
<path fill-rule="evenodd" clip-rule="evenodd" d="M166.657 74.2921C166.627 74.1558 166.599 74.0204 166.574 73.8831C166.405 72.9993 166.292 72.0866 166.234 71.161C166.017 71.1779 165.8 71.1949 165.582 71.2118C165.804 72.0986 165.976 73.0132 166.084 73.9378C166.103 74.0911 166.121 74.2474 166.136 74.4026C166.311 74.3658 166.484 74.329 166.657 74.2921Z" fill="#4D4D52"/>
<path fill-rule="evenodd" clip-rule="evenodd" d="M134.962 75.4778C134.979 75.2206 135.005 74.9626 135.037 74.7082C135.136 73.8836 135.29 73.0635 135.493 72.2732C135.292 72.2659 135.094 72.2551 134.896 72.2416H134.894C134.839 73.0635 134.736 73.8728 134.583 74.6586C134.533 74.9139 134.48 75.1638 134.418 75.4137C134.598 75.4363 134.781 75.4606 134.962 75.4832C134.962 75.4805 134.962 75.4805 134.962 75.4778Z" fill="#4D4D52"/>
<path fill-rule="evenodd" clip-rule="evenodd" d="M128.986 80.818C131.098 79.6977 132.772 77.8882 133.65 75.7592C133.663 75.7324 133.677 75.703 133.688 75.6753C133.736 75.5549 133.781 75.4302 133.823 75.3073C133.826 75.3021 133.829 75.2952 133.829 75.29C133.912 75.0502 133.986 74.8121 134.045 74.5705C134.248 73.8164 134.357 73.0468 134.418 72.2736C134.169 72.2632 133.92 72.2537 133.674 72.2416C133.716 73.2771 133.506 74.2831 133.103 75.2155C133.042 75.3541 132.977 75.4908 132.909 75.6233C131.882 77.6631 129.928 79.315 127.715 80.141C125.038 81.1392 121.962 81.018 119.396 79.8492C119.386 80.173 119.379 80.4994 119.373 80.8258C119.389 80.8336 119.402 80.8396 119.415 80.8448C119.504 80.8899 119.592 80.9349 119.685 80.9738C122.58 82.2993 126.099 82.3461 128.986 80.818Z" fill="#4D4D52"/>
<path fill-rule="evenodd" clip-rule="evenodd" d="M132.278 74.8943C132.341 74.7726 132.401 74.6509 132.458 74.5275C132.882 73.6182 133.177 72.6282 133.343 71.5877C129.092 71.3843 124.851 71.0227 120.763 70.0804C120.597 70.6046 120.448 71.1287 120.318 71.6546C120.287 71.7833 120.256 71.9154 120.225 72.0441C119.703 74.2763 119.462 76.5345 119.373 78.8441C121.816 79.8463 124.479 80.1818 127.129 79.2822C129.55 78.4608 131.245 76.89 132.278 74.8943Z" fill="#4D4D52"/>
<path fill-rule="evenodd" clip-rule="evenodd" d="M162.351 75.7528C162.284 75.4881 162.222 75.2213 162.166 74.9546C162.101 74.646 162.044 74.3316 161.991 74.0181C161.984 73.9675 161.973 73.9149 161.966 73.8624C161.882 73.326 161.817 72.7838 161.769 72.2416C158.762 72.3769 155.749 72.4421 152.737 72.4499C152.719 73.2034 152.712 73.9568 152.704 74.7073C152.704 74.7648 152.702 74.8242 152.702 74.8816C152.699 74.9906 152.699 75.0987 152.699 75.2048C152.699 75.2934 152.697 75.3858 152.697 75.4744C152.692 75.8385 152.689 76.1997 152.687 76.5637C155.517 76.481 158.344 76.2658 161.16 75.9358C161.56 75.8891 161.959 75.8356 162.358 75.7801C162.356 75.7713 162.353 75.7606 162.351 75.7528Z" fill="#4D4D52"/>
<path fill-rule="evenodd" clip-rule="evenodd" d="M167.257 74.6665C167.267 74.6987 167.278 74.7338 167.289 74.7661C167.323 74.8696 167.357 74.9702 167.393 75.0698C168.262 77.4435 169.952 79.4632 172.092 80.7074C174.978 82.3826 178.495 82.3313 181.391 80.8783C181.481 80.8356 181.57 80.7862 181.66 80.7368C181.672 80.7312 181.686 80.7245 181.702 80.716C181.7 80.4806 181.694 80.2443 181.689 80.0117C179.294 81.2664 176.233 81.4695 173.847 80.4445C171.421 79.4015 169.307 77.1493 168.377 74.5526C168.318 74.3817 168.26 74.2109 168.21 74.0382C168.079 73.5902 167.982 73.1346 167.927 72.6743C167.927 72.6572 167.948 72.6572 167.953 72.6715C168.085 73.1318 168.233 73.5769 168.403 74.0078C168.469 74.1758 168.538 74.3381 168.609 74.5013C169.739 77.062 171.622 79.0266 174.36 79.9757C176.929 80.865 179.381 80.5508 181.669 79.466C181.589 76.8617 181.348 74.3115 180.805 71.7955C180.774 71.655 180.743 71.5107 180.711 71.3703C180.612 70.9394 180.505 70.5085 180.384 70.0804C176.4 70.6119 172.364 70.8559 168.375 71.1539C167.801 71.1966 167.23 71.2374 166.657 71.2735C166.717 72.1457 166.827 73.0103 167.034 73.8588C167.063 73.9774 167.091 74.097 167.123 74.2137C167.165 74.3656 167.21 74.5165 167.257 74.6665Z" fill="#4D4D52"/>
<mask id="mask0" mask-type="alpha" maskUnits="userSpaceOnUse" x="114" y="69" width="72" height="161">
<path d="M114.778 69.3777H185.97V230H114.778V69.3777Z" fill="white"/>
</mask>
<g mask="url(#mask0)">
<path fill-rule="evenodd" clip-rule="evenodd" d="M177.504 221.604C174.03 222.605 168.665 223.132 167.283 218.812C167.278 218.794 167.309 218.775 167.322 218.803C169.235 221.85 174.342 221.777 177.483 221.45C177.572 221.441 177.584 221.577 177.504 221.604ZM167.312 197.972C167.255 197.875 167.393 197.761 167.471 197.85C170.084 200.899 172.067 204.162 176.142 205.365C176.184 205.377 176.167 205.434 176.125 205.43C174.308 205.141 172.546 204.401 171.119 203.227C169.436 201.839 168.392 199.827 167.312 197.972ZM161.25 110.773C159.447 110.386 157.204 109.962 155.798 108.697C155.665 108.578 155.773 108.351 155.941 108.351C157.864 108.357 159.905 109.416 161.701 110.043C163.728 110.747 165.776 111.349 167.885 111.775C167.942 111.786 167.916 111.87 167.859 111.861C165.647 111.563 163.434 111.243 161.25 110.773ZM155.879 103.317C157.709 101.929 159.793 101.123 161.851 100.138C161.888 100.121 161.922 100.172 161.886 100.196C159.942 101.398 158.125 102.721 155.96 103.51C155.838 103.554 155.793 103.382 155.879 103.317ZM165.863 103.089C165.959 103.058 165.992 103.204 165.901 103.237C163.929 104.014 162.091 105.04 160.147 105.863C158.832 106.422 157.604 106.661 156.288 105.988C155.996 105.841 156.155 105.422 156.446 105.406C158.037 105.326 159.582 104.666 161.13 104.341C162.734 104.003 164.301 103.585 165.863 103.089ZM144.953 108.697C143.546 109.962 141.304 110.386 139.497 110.773C137.317 111.243 135.102 111.563 132.89 111.861C132.836 111.87 132.808 111.786 132.867 111.775C134.971 111.349 137.022 110.747 139.05 110.043C140.843 109.416 142.884 108.357 144.807 108.351C144.979 108.351 145.086 108.578 144.953 108.697ZM133.439 197.972C132.358 199.827 131.313 201.839 129.629 203.227C128.202 204.401 126.441 205.141 124.624 205.43C124.585 205.434 124.566 205.377 124.605 205.365C128.681 204.162 130.665 200.899 133.281 197.85C133.355 197.761 133.496 197.875 133.439 197.972ZM133.428 218.803C133.439 218.775 133.473 218.794 133.465 218.812C132.085 223.132 126.719 222.605 123.247 221.604C123.166 221.577 123.177 221.441 123.268 221.45C126.41 221.777 131.512 221.85 133.428 218.803ZM134.888 103.089C136.447 103.585 138.017 104.003 139.617 104.341C141.169 104.666 142.714 105.326 144.305 105.406C144.596 105.422 144.755 105.841 144.461 105.988C143.146 106.661 141.918 106.422 140.601 105.863C138.657 105.04 136.819 104.014 134.847 103.237C134.756 103.204 134.792 103.058 134.888 103.089ZM138.897 100.138C140.958 101.123 143.04 101.929 144.87 103.317C144.957 103.382 144.912 103.554 144.789 103.51C142.626 102.721 140.81 101.398 138.866 100.196C138.829 100.172 138.86 100.121 138.897 100.138ZM183.862 126.532C184.942 118.934 184.399 111.422 183.825 103.809C183.514 99.6372 183.352 95.4585 183.027 91.2934C182.797 88.39 182.496 85.5229 181.764 82.7432C181.692 82.4648 181.616 82.1874 181.532 81.9118V81.9063C181.47 81.6989 181.408 81.4934 181.337 81.2878C178.539 82.8805 175.031 83.0415 171.978 81.4679C169.243 80.0571 167.57 77.7713 166.706 75.1298C166.458 75.1743 166.209 75.2153 165.961 75.2544C166.016 75.8693 166.027 76.4851 165.992 77.0954C165.985 77.2464 165.971 77.3947 165.959 77.5448V77.5475C165.782 77.7476 165.594 77.935 165.393 78.1033C164.905 78.5189 164.348 78.8127 163.762 78.8464C163.717 78.8519 163.671 78.8519 163.624 78.8519C163.557 78.7527 163.491 78.6545 163.431 78.5535C163.416 78.5271 163.398 78.498 163.382 78.4698C162.877 77.6339 162.479 76.7188 162.174 75.7574C161.709 75.8129 161.24 75.8647 160.777 75.9166C157.843 76.244 154.895 76.4432 151.943 76.5187C151.923 78.6408 151.912 80.7629 151.887 82.8878C151.856 85.2964 151.761 87.7296 151.853 90.1382C151.94 92.3822 152.371 94.5507 152.659 96.772C152.667 96.8238 152.62 96.8557 152.574 96.8557C152.545 96.8557 152.513 96.842 152.501 96.8138C151.521 94.92 151.334 92.7197 151.218 90.6212C151.082 88.2162 151.085 85.8103 151.118 83.4026C151.152 81.1086 151.251 78.8228 151.389 76.5351C150.9 76.546 150.411 76.5524 149.922 76.5551C147.912 76.5715 145.895 76.5469 143.878 76.4751C143.789 80.5246 143.766 84.5796 143.917 88.621C144.029 91.6473 143.784 95.2111 145.169 97.9999C146.869 101.425 151.166 99.4135 152.813 97.0349C152.847 96.9876 152.878 96.9375 152.909 96.892C153 96.7511 153.211 96.8757 153.133 97.0239C151.923 99.3407 149.229 100.64 146.632 100.208C143.753 99.7309 143.163 95.6996 142.996 93.3537C142.707 89.3123 143.18 85.1663 143.303 81.1195C143.35 79.5659 143.42 78.0132 143.504 76.4623C141.934 76.3996 140.369 76.3086 138.813 76.1785C138.691 76.1676 138.568 76.1585 138.446 76.1449C138.159 76.9653 137.801 77.7476 137.366 78.4698C137.291 78.5999 137.21 78.7272 137.125 78.8519C137.077 78.8519 137.03 78.8519 136.986 78.8464C136.401 78.8127 135.843 78.5189 135.354 78.1033C135.154 77.935 134.966 77.7476 134.79 77.5475V77.5448C134.776 77.3947 134.763 77.2464 134.756 77.0954C134.727 76.6206 134.73 76.1422 134.756 75.6619C134.474 75.6155 134.194 75.5655 133.912 75.5163C133.009 77.9941 131.369 80.1271 128.77 81.4679C125.717 83.0415 122.208 82.8805 119.41 81.2878C119.34 81.4934 119.278 81.6989 119.215 81.9063V81.9118C119.132 82.1874 119.056 82.4648 118.984 82.7432C118.253 85.5229 117.951 88.39 117.722 91.2934C117.396 95.4585 117.235 99.6372 116.923 103.809C116.351 111.422 115.806 118.934 116.886 126.532C117.898 133.675 119.603 140.735 120.209 147.935C120.855 155.562 119.46 162.998 118.755 170.56C118.404 174.337 118.333 178.049 118.676 181.721V181.734C118.863 183.753 119.173 185.759 119.632 187.758C119.632 187.763 119.634 187.772 119.634 187.777C119.762 188.536 119.894 189.291 120.03 190.046C120.134 190.636 120.24 191.229 120.344 191.821C120.751 194.127 121.125 196.442 121.302 198.775C121.576 202.353 120.899 205.683 120.47 209.215C120.167 211.699 120.389 214.291 121.71 216.356C122.099 215.219 122.286 214.018 122.461 212.79C122.473 212.699 122.625 212.727 122.627 212.818C122.674 214.118 122.705 215.437 122.38 216.711C122.347 216.847 122.305 216.974 122.257 217.102C122.172 217.338 122.062 217.566 121.946 217.784C121.542 218.53 121.014 219.203 120.724 220.012C120.352 221.059 120.581 222.041 121.167 222.805C121.222 222.878 121.279 222.95 121.341 223.014C121.766 223.487 122.333 223.86 122.971 224.087C124.467 224.606 126.041 224.442 127.591 224.479C127.635 224.479 127.64 224.533 127.601 224.551C125.67 225.161 123.057 225.388 121.358 224.224C121.365 224.988 121.378 225.761 121.389 226.525C121.4 227.235 121.516 227.826 121.699 228.408C122.07 228.363 122.45 228.335 122.836 228.344C124.306 228.344 125.652 228.881 127.078 229.154C128.78 229.481 131.174 229.572 132.859 229.063C133.803 228.772 134.092 227.908 134.084 226.925C133.631 227.444 133.025 227.771 132.218 227.753C132.2 227.753 132.197 227.726 132.213 227.717C133.096 227.344 133.652 226.762 134.011 226.043C134.073 225.925 134.129 225.798 134.18 225.67C134.552 224.742 134.655 223.66 134.735 222.605C134.865 220.949 134.769 219.303 134.131 217.748C134.118 217.711 134.104 217.684 134.092 217.657C134.042 217.657 133.993 217.629 133.97 217.566C133.85 217.275 133.741 216.983 133.639 216.683H133.636C132.643 214.737 131.403 213.109 131.643 210.707C131.651 210.625 131.76 210.625 131.766 210.707C131.846 211.899 132.364 213.072 132.947 214.191C131.476 207.185 133.621 199.707 134.756 192.772C135.382 188.924 135.79 185.042 135.552 181.142C135.303 177.02 134.655 172.927 134.641 168.792C134.63 164.927 135.421 161.349 136.627 157.697C137.939 153.728 138.846 149.736 139.36 145.585C140.284 138.055 140.151 130.459 141.658 122.994C142.369 119.469 143.32 115.936 144.974 112.724C146.254 110.235 147.688 107.612 150.117 106.139C150.202 106.084 150.288 106.034 150.377 105.988C150.465 106.034 150.551 106.086 150.634 106.139C153.062 107.614 154.497 110.235 155.775 112.724C157.427 115.936 158.379 119.469 159.09 122.994C160.598 130.459 160.465 138.055 161.392 145.585C161.901 149.736 162.812 153.728 164.121 157.697C165.329 161.349 166.12 164.927 166.106 168.792C166.094 172.927 165.449 177.02 165.196 181.142C164.96 185.042 165.365 188.924 165.995 192.772C167.13 199.71 169.274 207.188 167.801 214.191C168.384 213.072 168.902 211.899 168.983 210.707C168.989 210.625 169.097 210.625 169.105 210.707C169.344 213.109 168.106 214.737 167.111 216.683H167.109C167.008 216.983 166.898 217.275 166.779 217.566C166.755 217.629 166.706 217.657 166.657 217.657L166.617 217.748C165.979 219.303 165.883 220.949 166.013 222.605C166.094 223.66 166.195 224.742 166.567 225.67C166.62 225.798 166.674 225.925 166.737 226.043C167.096 226.762 167.653 227.344 168.535 227.717C168.551 227.726 168.548 227.753 168.53 227.753C167.723 227.771 167.117 227.444 166.664 226.925C166.657 227.908 166.945 228.772 167.89 229.063C169.574 229.572 171.968 229.481 173.67 229.154C175.097 228.881 176.442 228.344 177.913 228.344C178.298 228.335 178.677 228.363 179.051 228.408C179.232 227.826 179.35 227.235 179.36 226.525C179.37 225.761 179.383 224.988 179.392 224.224C177.691 225.388 175.078 225.161 173.147 224.551C173.108 224.533 173.113 224.479 173.158 224.479C174.706 224.442 176.281 224.606 177.777 224.087C178.415 223.86 178.982 223.487 179.406 223.014C179.469 222.95 179.526 222.878 179.581 222.805C180.166 222.041 180.395 221.059 180.023 220.012C179.735 219.203 179.206 218.53 178.803 217.784C178.685 217.566 178.576 217.338 178.49 217.102C178.444 216.974 178.402 216.847 178.368 216.711C178.043 215.437 178.074 214.118 178.121 212.818C178.124 212.727 178.274 212.699 178.288 212.79C178.462 214.018 178.649 215.219 179.04 216.356C180.359 214.291 180.58 211.699 180.278 209.215C179.849 205.683 179.172 202.353 179.445 198.775C179.623 196.442 179.998 194.127 180.403 191.821C180.507 191.229 180.614 190.636 180.719 190.046C180.853 189.291 180.986 188.536 181.113 187.777C181.113 187.772 181.116 187.763 181.116 187.758C181.574 185.759 181.884 183.753 182.072 181.734V181.721C182.416 178.049 182.345 174.337 181.994 170.56C181.288 162.998 179.893 155.562 180.538 147.935C181.145 140.735 182.85 133.675 183.862 126.532Z" fill="#7C7C7C"/>
<path fill-rule="evenodd" clip-rule="evenodd" d="M181.994 170.56C182.345 174.337 182.416 178.049 182.072 181.721V181.735C181.884 183.753 181.574 185.759 181.116 187.758C181.116 187.763 181.113 187.772 181.113 187.777C180.986 188.536 180.853 189.292 180.719 190.046C180.614 190.636 180.507 191.229 180.403 191.821C179.998 194.127 179.623 196.442 179.445 198.775C179.172 202.353 179.849 205.684 180.278 209.215C180.58 211.699 180.359 214.291 179.04 216.356C178.649 215.219 178.462 214.018 178.288 212.79C178.274 212.699 178.124 212.727 178.121 212.818C178.074 214.118 178.043 215.437 178.368 216.711C178.402 216.847 178.444 216.974 178.49 217.102C178.576 217.338 178.685 217.566 178.803 217.784C179.206 218.53 179.735 219.203 180.023 220.012C180.395 221.059 180.166 222.041 179.581 222.805C179.526 222.878 179.469 222.951 179.406 223.014C178.982 223.487 178.415 223.86 177.777 224.088C176.281 224.606 174.706 224.442 173.158 224.479C173.113 224.479 173.108 224.533 173.147 224.551C175.078 225.161 177.691 225.388 179.392 224.224C179.383 224.988 179.37 225.761 179.36 226.525C179.35 227.235 179.232 227.826 179.051 228.408C178.677 228.363 178.298 228.335 177.913 228.344C176.442 228.344 175.097 228.881 173.67 229.154C171.968 229.481 169.574 229.572 167.89 229.063C166.945 228.772 166.657 227.908 166.664 226.926C167.117 227.444 167.723 227.771 168.53 227.753C168.548 227.753 168.551 227.726 168.535 227.717C167.653 227.344 167.096 226.762 166.737 226.043C166.674 225.925 166.62 225.798 166.567 225.67C166.195 224.742 166.094 223.66 166.013 222.605C165.883 220.949 165.979 219.303 166.617 217.748L166.657 217.657C166.706 217.657 166.755 217.629 166.779 217.566C166.898 217.275 167.008 216.984 167.109 216.683H167.111C168.106 214.737 169.344 213.109 169.105 210.707C169.097 210.625 168.989 210.625 168.983 210.707C168.902 211.899 168.384 213.072 167.801 214.191C169.274 207.188 167.13 199.71 165.995 192.772C165.365 188.924 164.96 185.042 165.196 181.142C165.449 177.02 166.094 172.927 166.106 168.792C166.12 164.927 165.329 161.349 164.121 157.697C162.812 153.728 161.901 149.736 161.392 145.585C160.465 138.055 160.598 130.459 159.09 122.994C158.379 119.469 157.427 115.936 155.775 112.724C154.497 110.235 153.062 107.614 150.634 106.139C150.551 106.086 150.465 106.035 150.377 105.988C150.288 106.035 150.202 106.084 150.117 106.139C147.688 107.612 146.254 110.235 144.974 112.724C143.32 115.936 142.369 119.469 141.658 122.994C140.151 130.459 140.284 138.055 139.36 145.585C138.846 149.736 137.939 153.728 136.627 157.697C135.421 161.349 134.63 164.927 134.641 168.792C134.655 172.927 135.303 177.02 135.552 181.142C135.79 185.042 135.382 188.924 134.756 192.772C133.621 199.707 131.476 207.185 132.947 214.191C132.364 213.072 131.846 211.899 131.766 210.707C131.76 210.625 131.651 210.625 131.643 210.707C131.403 213.109 132.643 214.737 133.636 216.683H133.639C133.741 216.984 133.85 217.275 133.97 217.566C133.993 217.629 134.042 217.657 134.092 217.657C134.104 217.684 134.118 217.711 134.131 217.748C134.769 219.303 134.865 220.949 134.735 222.605C134.655 223.66 134.552 224.742 134.18 225.67C134.129 225.798 134.073 225.925 134.011 226.043C133.652 226.762 133.096 227.344 132.213 227.717C132.197 227.726 132.2 227.753 132.218 227.753C133.025 227.771 133.631 227.444 134.084 226.926C134.092 227.908 133.803 228.772 132.859 229.063C131.174 229.572 128.78 229.481 127.078 229.154C125.652 228.881 124.306 228.344 122.836 228.344C122.45 228.335 122.07 228.363 121.699 228.408C121.516 227.826 121.4 227.235 121.389 226.525C121.378 225.761 121.365 224.988 121.358 224.224C123.057 225.388 125.67 225.161 127.601 224.551C127.64 224.533 127.635 224.479 127.591 224.479C126.041 224.442 124.467 224.606 122.971 224.088C122.333 223.86 121.766 223.487 121.341 223.014C121.279 222.951 121.222 222.878 121.167 222.805C120.581 222.041 120.352 221.059 120.724 220.012C121.014 219.203 121.542 218.53 121.946 217.784C122.062 217.566 122.172 217.338 122.257 217.102C122.305 216.974 122.347 216.847 122.38 216.711C122.705 215.437 122.674 214.118 122.627 212.818C122.625 212.727 122.473 212.699 122.461 212.79C122.286 214.018 122.099 215.219 121.71 216.356C120.389 214.291 120.167 211.699 120.47 209.215C120.899 205.684 121.576 202.353 121.302 198.775C121.125 196.442 120.751 194.127 120.344 191.821C120.24 191.229 120.134 190.636 120.03 190.046C119.894 189.292 119.762 188.536 119.634 187.777C119.634 187.772 119.632 187.763 119.632 187.758C119.173 185.759 118.863 183.753 118.676 181.735V181.721C118.333 178.049 118.404 174.337 118.755 170.56C119.46 162.998 120.855 155.562 120.209 147.935C119.603 140.735 117.898 133.675 116.886 126.532C115.806 118.935 116.351 111.422 116.923 103.809C117.235 99.6373 117.396 95.4585 117.722 91.2935C117.951 88.39 118.253 85.5229 118.984 82.7432C119.056 82.4648 119.132 82.1874 119.215 81.9118V81.9063C119.278 81.699 119.34 81.4934 119.41 81.2878C122.208 82.8805 125.717 83.0415 128.77 81.4679C131.369 80.1272 133.009 77.9941 133.912 75.5164C134.194 75.5655 134.474 75.6155 134.756 75.6619C134.73 76.1422 134.727 76.6206 134.756 77.0954C134.763 77.2464 134.776 77.3947 134.79 77.5448V77.5475C134.966 77.7476 135.154 77.935 135.354 78.1033C135.843 78.519 136.401 78.8128 136.986 78.8464C137.03 78.8519 137.077 78.8519 137.125 78.8519C137.21 78.7273 137.291 78.5999 137.366 78.4699C137.801 77.7476 138.159 76.9654 138.446 76.1449C138.568 76.1586 138.691 76.1677 138.813 76.1786C140.369 76.3086 141.934 76.3996 143.504 76.4624C143.42 78.0132 143.35 79.5659 143.303 81.1195C143.18 85.1664 142.707 89.3123 142.996 93.3537C143.163 95.6996 143.753 99.731 146.632 100.208C149.229 100.64 151.923 99.3407 153.133 97.024C153.211 96.8757 153 96.7511 152.909 96.8921C152.878 96.9376 152.847 96.9876 152.813 97.0349C151.166 99.4135 146.868 101.425 145.169 98C143.784 95.2111 144.029 91.6473 143.917 88.621C143.766 84.5797 143.789 80.5247 143.878 76.4751C145.895 76.547 147.912 76.5715 149.922 76.5551C150.411 76.5524 150.9 76.546 151.389 76.5351C151.251 78.8228 151.152 81.1086 151.118 83.4026C151.085 85.8104 151.082 88.2163 151.218 90.6213C151.334 92.7197 151.521 94.9201 152.501 96.8139C152.513 96.8421 152.545 96.8557 152.574 96.8557C152.62 96.8557 152.667 96.8239 152.659 96.772C152.371 94.5508 151.94 92.3823 151.853 90.1383C151.761 87.7296 151.856 85.2964 151.887 82.8878C151.912 80.763 151.923 78.6409 151.943 76.5188C154.895 76.4433 157.843 76.2441 160.777 75.9166C161.24 75.8648 161.709 75.8129 162.174 75.7574C162.479 76.7189 162.877 77.6339 163.382 78.4699C163.398 78.4981 163.416 78.5272 163.431 78.5535C163.491 78.6545 163.557 78.7527 163.624 78.8519C163.671 78.8519 163.717 78.8519 163.762 78.8464C164.348 78.8128 164.905 78.519 165.393 78.1033C165.594 77.935 165.782 77.7476 165.959 77.5475V77.5448C165.971 77.3947 165.985 77.2464 165.992 77.0954C166.027 76.4851 166.016 75.8693 165.961 75.2544C166.209 75.2153 166.458 75.1744 166.706 75.1298C167.57 77.7713 169.243 80.0571 171.978 81.4679C175.031 83.0415 178.539 82.8805 181.337 81.2878C181.408 81.4934 181.47 81.699 181.532 81.9063V81.9118C181.616 82.1874 181.692 82.4648 181.764 82.7432C182.496 85.5229 182.797 88.39 183.027 91.2935C183.352 95.4585 183.514 99.6373 183.825 103.809C184.399 111.422 184.942 118.935 183.862 126.532C182.85 133.675 181.145 140.735 180.538 147.935C179.893 155.562 181.288 162.998 181.994 170.56ZM119.249 79.7197C121.797 80.9476 124.853 81.075 127.512 80.0262C129.71 79.1584 131.651 77.4229 132.671 75.2799C132.738 75.1407 132.803 74.997 132.864 74.8515C133.264 73.8718 133.473 72.8149 133.431 71.727C133.675 71.7397 133.923 71.7497 134.17 71.7606C134.11 72.5729 134.001 73.3815 133.8 74.1738C133.741 74.4276 133.668 74.6777 133.585 74.9297C133.585 74.9351 133.582 74.9424 133.579 74.9479C133.538 75.077 133.493 75.208 133.445 75.3345C133.434 75.3636 133.42 75.3945 133.407 75.4227C132.535 77.6594 130.873 79.5605 128.775 80.7375C125.906 82.343 122.411 82.2938 119.536 80.9012C119.444 80.8603 119.356 80.813 119.268 80.7657C119.254 80.7602 119.241 80.7539 119.226 80.7457C119.231 80.4028 119.239 80.0598 119.249 79.7197ZM120.116 72.1963C120.147 72.0617 120.178 71.9234 120.209 71.7888C120.34 71.2385 120.488 70.69 120.654 70.1415C124.741 71.1275 128.981 71.5059 133.23 71.7188C133.065 72.8076 132.769 73.8436 132.345 74.7951C132.288 74.9242 132.229 75.0516 132.166 75.1789C131.132 77.2674 129.438 78.911 127.018 79.7706C124.369 80.712 121.707 80.3609 119.265 79.3122C119.354 76.8953 119.595 74.5322 120.116 72.1963ZM134.309 74.2202C134.509 73.4279 134.644 72.612 134.717 71.7834H134.72C134.979 71.797 135.239 71.8079 135.503 71.8152C135.236 72.612 135.034 73.4388 134.904 74.2702C134.862 74.5267 134.828 74.7869 134.805 75.0461C134.805 75.0488 134.805 75.0488 134.805 75.0516C134.568 75.0288 134.329 75.0043 134.092 74.9815C134.173 74.7296 134.243 74.4776 134.309 74.2202ZM135.951 71.8334C135.985 71.6906 136.021 71.5469 136.058 71.4041C136.072 71.3367 136.091 71.2694 136.109 71.2021C136.122 71.1503 136.138 71.0975 136.153 71.0466C136.153 71.0466 136.153 71.0466 136.153 71.0439C136.174 70.9574 136.201 70.8747 136.226 70.7883C136.229 70.7846 136.229 70.7792 136.232 70.7737C136.326 70.4444 136.435 70.1133 136.552 69.784C137.393 69.7449 138.212 69.7731 139.055 69.8277L139.029 70.358L139.021 70.5163L139.009 70.8101C139.006 70.8492 139.003 70.8883 139 70.9265C138.995 71.002 138.992 71.0802 138.988 71.1585C138.988 71.1757 138.985 71.1921 138.985 71.2094C138.978 71.3267 138.969 71.4432 138.961 71.5605C138.953 71.6851 138.944 71.8125 138.936 71.9371C138.897 72.4383 138.844 72.9404 138.769 73.4388C138.763 73.4825 138.759 73.5289 138.751 73.5735C138.741 73.638 138.73 73.7054 138.72 73.7708C138.681 74.0119 138.634 74.2493 138.584 74.4858C138.533 74.7368 138.472 74.987 138.407 75.2335C138.392 75.2935 138.376 75.3499 138.358 75.41C138.293 75.6492 138.223 75.8829 138.145 76.1167C137.884 76.9199 137.559 77.7012 137.179 78.4699C136.474 78.4417 135.883 78.1197 135.351 77.6703C135.354 77.0254 135.37 76.3951 135.407 75.7656C135.42 75.5482 135.432 75.3326 135.451 75.1162C135.453 75.108 135.453 75.1016 135.453 75.0934C135.474 74.8333 135.497 74.574 135.529 74.3139C135.622 73.4798 135.758 72.6566 135.951 71.8334ZM139.104 73.6208C139.113 73.5735 139.123 73.5243 139.131 73.4752C139.219 72.9713 139.288 72.4592 139.339 71.9507C140.82 72.0017 142.301 72.0408 143.784 72.0726C143.742 72.6775 143.7 73.286 143.661 73.8909C143.654 73.9892 143.647 74.0901 143.641 74.1893C143.633 74.3112 143.625 74.433 143.618 74.5558C143.602 74.7841 143.588 75.0097 143.577 75.2362C143.563 75.4472 143.549 75.6592 143.54 75.8693C142.208 75.7911 140.877 75.6801 139.55 75.5346C139.256 75.5036 138.964 75.4727 138.671 75.4418C138.691 75.3763 138.712 75.309 138.73 75.2417C138.8 74.9943 138.866 74.745 138.922 74.4958C138.99 74.2075 139.05 73.9137 139.104 73.6208ZM147.905 72.1399C149.167 72.1554 150.428 72.1581 151.693 72.1554C151.639 72.8676 151.584 73.5789 151.535 74.2902C151.532 74.3293 151.529 74.3712 151.527 74.4103C151.519 74.5295 151.509 74.6495 151.504 74.7678C151.498 74.8287 151.496 74.8906 151.49 74.9506C151.467 75.3035 151.445 75.6592 151.423 76.013C151.006 76.023 150.587 76.0285 150.169 76.033C149.386 76.0412 148.601 76.0385 147.818 76.0312C146.509 76.0103 145.197 75.9657 143.89 75.8911C143.896 75.6701 143.901 75.4482 143.906 75.228C143.912 75.0043 143.917 74.7787 143.926 74.5558C143.927 74.4467 143.929 74.3348 143.932 74.2256C143.935 74.121 143.937 74.0173 143.943 73.9137C143.959 73.3006 143.974 72.6902 143.995 72.0772C145.296 72.1063 146.601 72.129 147.905 72.1399ZM161.412 71.9607C161.462 72.4674 161.529 72.974 161.618 73.4752C161.625 73.5243 161.636 73.5735 161.643 73.6208C161.699 73.9137 161.758 74.2075 161.825 74.4958C161.884 74.745 161.948 74.9943 162.019 75.2417C162.02 75.249 162.023 75.259 162.026 75.2671C161.609 75.319 161.194 75.369 160.777 75.4127C157.843 75.721 154.898 75.9221 151.949 75.9994C151.951 75.6592 151.954 75.3217 151.96 74.9815C151.96 74.8988 151.961 74.8123 151.961 74.7296C151.961 74.6304 151.961 74.5295 151.964 74.4276C151.964 74.3739 151.967 74.3184 151.967 74.2648C151.975 73.5635 151.982 72.8594 152.001 72.1554C155.139 72.1481 158.279 72.0872 161.412 71.9607ZM164.197 69.784C164.314 70.1133 164.424 70.4444 164.517 70.7737C164.519 70.7792 164.519 70.7846 164.522 70.7883C164.529 70.8183 164.54 70.8492 164.548 70.8774C164.58 70.9865 164.611 71.093 164.639 71.2021C164.658 71.2694 164.675 71.3367 164.692 71.4041C164.725 71.5378 164.759 71.6697 164.79 71.8052C164.985 72.6366 165.126 73.4725 165.219 74.3139C165.238 74.4749 165.256 74.6359 165.269 74.7969C165.28 74.896 165.287 74.9943 165.295 75.0934C165.303 75.1789 165.308 75.2644 165.313 75.3526C165.371 76.1167 165.393 76.8862 165.396 77.6703C164.866 78.1197 164.275 78.4417 163.569 78.4699C163.127 77.5757 162.76 76.6643 162.479 75.721C162.43 75.5609 162.385 75.3972 162.341 75.2335C162.341 75.2308 162.338 75.228 162.338 75.2253C162.276 74.9815 162.216 74.7341 162.163 74.4858C162.115 74.2493 162.068 74.0119 162.029 73.7708C162.019 73.7054 162.008 73.638 161.998 73.5735C161.989 73.5289 161.985 73.4825 161.979 73.4388C161.904 72.9431 161.854 72.4437 161.814 71.9453C161.805 71.817 161.794 71.6879 161.786 71.5605C161.779 71.4432 161.772 71.3267 161.763 71.2094C161.761 71.1421 161.755 71.0748 161.752 71.0075C161.75 70.9811 161.75 70.9529 161.747 70.9265C161.745 70.8883 161.742 70.8492 161.74 70.8101L161.727 70.5163L161.719 70.358L161.693 69.8277C162.536 69.7731 163.357 69.7449 164.197 69.784ZM166.027 71.7324C166.097 72.5784 166.235 73.4125 166.441 74.2202C166.472 74.3457 166.505 74.4694 166.542 74.594C166.331 74.6277 166.12 74.6613 165.907 74.695C165.888 74.5531 165.867 74.4103 165.844 74.2702C165.712 73.4252 165.503 72.5893 165.232 71.7788C165.497 71.7633 165.762 71.7479 166.027 71.7324ZM168.28 71.5814C172.244 71.2958 176.255 71.062 180.214 70.5527C180.333 70.9629 180.44 71.3759 180.538 71.7888C180.57 71.9234 180.601 72.0617 180.632 72.1963C181.171 74.6077 181.41 77.0518 181.49 79.5477C179.217 80.5874 176.78 80.8885 174.228 80.0362C171.507 79.1266 169.636 77.2437 168.512 74.7896C168.442 74.6332 168.374 74.4776 168.308 74.3166C168.139 73.9036 167.992 73.477 167.861 73.0359C167.856 73.0222 167.835 73.0222 167.835 73.0386C167.89 73.4798 167.986 73.9164 168.117 74.3457C168.166 74.5113 168.223 74.675 168.283 74.8387C169.207 77.3274 171.307 79.4859 173.717 80.4855C176.089 81.4679 179.13 81.2733 181.51 80.0708C181.515 80.2936 181.521 80.5201 181.522 80.7457C181.507 80.7539 181.493 80.7602 181.481 80.7657C181.392 80.813 181.304 80.8603 181.213 80.9012C178.336 82.2938 174.841 82.343 171.974 80.7375C169.847 79.545 168.168 77.6094 167.305 75.3345C167.268 75.2389 167.234 75.1425 167.201 75.0434C167.19 75.0125 167.179 74.9788 167.169 74.9479C167.122 74.8042 167.078 74.6595 167.036 74.514C167.005 74.4021 166.977 74.2875 166.947 74.1738C166.742 73.3606 166.633 72.532 166.573 71.696C167.142 71.6615 167.71 71.6224 168.28 71.5814ZM185.699 122.841C186.434 115.136 185.512 107.386 184.846 99.71C184.536 96.1098 184.195 92.4805 183.67 88.9067C183.315 86.5144 182.806 84.1294 181.941 81.8781V81.8754C182.006 81.5243 182.056 81.1696 182.095 80.813C182.11 80.6757 182.124 80.5347 182.137 80.3946C182.158 80.1581 182.173 79.9243 182.18 79.6887C182.191 79.525 182.197 79.3604 182.2 79.1975C182.245 76.7944 181.832 74.3575 181.101 72.038C181.065 71.9171 181.023 71.7943 180.981 71.6724C180.851 71.2794 180.713 70.891 180.565 70.5063C180.473 70.2643 180.378 70.026 180.276 69.7895C180.266 69.7631 180.255 69.7367 180.245 69.7113H180.242C180.214 69.6412 180.184 69.573 180.155 69.5057C180.073 69.5166 179.987 69.5266 179.904 69.5366C179.508 69.5885 179.115 69.6385 178.719 69.6858C178.716 69.6876 178.712 69.6876 178.71 69.6876C174.644 70.1888 170.591 70.5736 166.514 70.7319C166.331 70.74 166.148 70.7482 165.967 70.7519C165.602 70.7655 165.238 70.7764 164.871 70.7846C164.866 70.7737 164.86 70.7601 164.855 70.75C164.723 70.4253 164.582 70.1079 164.431 69.7968C164.416 69.7631 164.399 69.7286 164.382 69.6949C164.36 69.6494 164.337 69.6021 164.314 69.5548C164.241 69.5394 164.17 69.5239 164.097 69.5112C163.298 69.3602 162.468 69.332 161.672 69.4539C161.545 69.4748 161.417 69.4975 161.292 69.5266C161.292 69.6385 161.292 69.7477 161.295 69.8568C161.298 70.0278 161.3 70.1997 161.308 70.3707C161.308 70.4444 161.31 70.519 161.316 70.5918C161.316 70.6618 161.32 70.7346 161.323 70.8046C161.326 70.8519 161.326 70.8956 161.331 70.942C161.331 70.9711 161.333 70.9966 161.336 71.0257C160.082 71.0775 158.83 71.1248 157.576 71.1585C157.57 71.1612 157.565 71.1612 157.559 71.1585C157.078 71.173 156.595 71.1867 156.114 71.1948C155.993 71.1994 155.873 71.2021 155.754 71.2039C154.51 71.2312 153.264 71.254 152.016 71.2676C151.933 71.2694 151.847 71.2722 151.761 71.2722C149.734 71.2958 147.701 71.3031 145.666 71.2904C145.117 71.2876 144.571 71.2822 144.021 71.2776C143.961 71.2749 143.901 71.2749 143.842 71.2749C142.691 71.2567 141.541 71.2358 140.39 71.2021C140.059 71.1948 139.732 71.1839 139.404 71.173C139.411 71.0975 139.414 71.0175 139.417 70.942C139.422 70.8956 139.422 70.8519 139.425 70.8046C139.428 70.7346 139.432 70.6618 139.432 70.5918C139.438 70.519 139.441 70.4444 139.441 70.3707C139.448 70.1997 139.451 70.0278 139.453 69.8568C139.456 69.7477 139.456 69.6385 139.456 69.5266C139.331 69.4975 139.204 69.4748 139.076 69.4539C138.28 69.332 137.449 69.3602 136.65 69.5112C136.577 69.5239 136.508 69.5394 136.435 69.5548C136.41 69.6021 136.387 69.6494 136.367 69.6949C136.348 69.7286 136.333 69.7631 136.317 69.7968C136.166 70.1079 136.027 70.4253 135.893 70.75C135.888 70.7601 135.883 70.7737 135.877 70.7846C135.846 70.8637 135.815 70.9474 135.784 71.0275C135.445 71.0102 135.11 70.9938 134.774 70.9756C134.588 70.9656 134.407 70.9556 134.225 70.942C131.968 70.8155 129.714 70.6464 127.471 70.428C126.292 70.3134 125.103 70.1806 123.911 70.0151C123.898 70.0124 123.887 70.0124 123.874 70.0096H123.867C123.257 69.9087 122.648 69.8013 122.039 69.6876C122.037 69.6876 122.031 69.6876 122.028 69.6858C121.704 69.6467 121.378 69.6076 121.053 69.563C120.983 69.5548 120.915 69.5476 120.845 69.5366C120.762 69.5266 120.676 69.5166 120.592 69.5057C120.564 69.573 120.535 69.6412 120.506 69.7113H120.504C120.455 69.8304 120.404 69.9505 120.358 70.0688H120.355C120.142 70.5963 119.944 71.1294 119.767 71.6724C119.725 71.7943 119.684 71.9171 119.648 72.038C118.937 74.2875 118.525 76.6461 118.547 78.9783C118.547 79.1011 118.55 79.223 118.554 79.3458C118.562 79.696 118.583 80.0462 118.612 80.3946C118.624 80.5347 118.637 80.6757 118.653 80.813C118.692 81.1696 118.742 81.5243 118.807 81.8754V81.8781C117.943 84.1294 117.432 86.5144 117.079 88.9067C116.553 92.4805 116.212 96.1098 115.902 99.71C115.236 107.386 114.314 115.136 115.048 122.841C115.762 130.319 117.765 137.579 118.689 145.029C119.665 152.92 118.685 160.677 117.904 168.539C117.204 175.594 116.568 183.463 119.418 190.156C119.858 193.658 120.324 197.156 120.303 200.686C120.282 204.509 118.908 208.255 119.132 212.063C119.246 214.009 119.905 216.01 121.324 217.302C121.164 217.638 120.986 217.957 120.774 218.275C119.926 219.567 119.387 220.804 119.939 222.35C120.178 223.014 120.54 223.533 120.986 223.933C120.972 224.006 120.961 224.078 120.949 224.16C120.763 225.316 120.61 226.471 120.671 227.608C120.686 227.917 120.72 228.244 120.79 228.545C120.866 228.881 120.98 229.19 121.159 229.454C121.459 229.436 121.761 229.409 122.059 229.391C123.078 229.336 124.093 229.336 125.103 229.481C127.13 229.782 128.891 230.155 130.972 229.936C131.947 229.836 133.808 229.945 134.337 228.936C134.616 228.399 134.608 227.644 134.467 226.862C134.446 226.744 134.423 226.616 134.396 226.498C135.407 224.861 135.407 222.023 135.318 220.576C135.216 218.976 134.696 217.584 133.988 216.165C132.983 209.024 134.386 202.003 135.641 194.953C136.247 191.54 136.799 188.084 136.796 184.604C136.79 180.628 136.226 176.684 135.888 172.729C135.542 168.666 135.581 164.674 136.7 160.721C137.712 157.144 138.951 153.679 139.623 150.011C140.975 142.603 141.129 135.042 142.043 127.581C142.529 123.623 143.295 119.709 144.644 115.947C145.807 112.696 147.441 108.49 150.377 106.324C150.4 106.341 150.426 106.359 150.449 106.377C153.338 108.562 154.954 112.724 156.108 115.947C157.453 119.709 158.221 123.623 158.705 127.581C159.618 135.042 159.772 142.603 161.128 150.011C161.8 153.679 163.038 157.144 164.051 160.721C165.167 164.674 165.209 168.666 164.86 172.729C164.522 176.684 163.96 180.628 163.954 184.604C163.949 188.084 164.504 191.54 165.111 194.953C166.362 202.003 167.768 209.015 166.762 216.156C166.762 216.165 166.76 216.165 166.76 216.165C166.052 217.584 165.532 218.976 165.43 220.576C165.342 222.023 165.342 224.861 166.351 226.498C166.326 226.616 166.302 226.744 166.281 226.862C166.142 227.644 166.134 228.399 166.411 228.936C166.939 229.945 168.8 229.836 169.777 229.936C171.856 230.155 173.619 229.782 175.646 229.481C176.656 229.336 177.671 229.336 178.688 229.391C178.987 229.409 179.289 229.436 179.588 229.454C179.769 229.19 179.883 228.881 179.958 228.545C180.029 228.244 180.062 227.917 180.079 227.608C180.138 226.471 179.984 225.316 179.8 224.16C179.786 224.078 179.775 224.006 179.763 223.933C180.208 223.533 180.57 223.014 180.809 222.35C181.361 220.804 180.822 219.567 179.974 218.275C179.763 217.957 179.584 217.638 179.425 217.302C180.842 216.01 181.501 214.009 181.616 212.063C181.84 208.255 180.465 204.509 180.445 200.686C180.424 197.156 180.89 193.658 181.33 190.156C184.18 183.463 183.545 175.594 182.845 168.539C182.064 160.677 181.082 152.92 182.058 145.029C182.982 137.579 184.987 130.319 185.699 122.841Z" fill="#0A0B09"/>
</g>
<path fill-rule="evenodd" clip-rule="evenodd" d="M167.701 112.141C165.654 111.748 163.666 111.192 161.697 110.542C159.955 109.963 157.974 108.985 156.107 108.98C155.944 108.98 155.839 109.189 155.969 109.299C157.333 110.467 159.51 110.859 161.26 111.216C163.38 111.65 165.528 111.945 167.675 112.221C167.731 112.229 167.756 112.151 167.701 112.141Z" fill="#0A0B09"/>
<path fill-rule="evenodd" clip-rule="evenodd" d="M171.435 202.958C172.819 204.125 174.527 204.861 176.288 205.147C176.329 205.152 176.346 205.095 176.305 205.083C172.354 203.887 170.432 200.645 167.898 197.616C167.823 197.527 167.689 197.641 167.745 197.737C168.792 199.58 169.804 201.58 171.435 202.958Z" fill="#0A0B09"/>
<path fill-rule="evenodd" clip-rule="evenodd" d="M177.325 221.651C174.04 221.953 168.699 222.021 166.698 219.207C166.685 219.182 166.652 219.199 166.657 219.216C168.103 223.205 173.713 222.718 177.347 221.794C177.431 221.769 177.418 221.643 177.325 221.651Z" fill="#0A0B09"/>
<path fill-rule="evenodd" clip-rule="evenodd" d="M156.219 105.848C155.932 105.864 155.776 106.274 156.063 106.418C157.359 107.077 158.569 106.843 159.863 106.296C161.777 105.491 163.587 104.487 165.53 103.726C165.619 103.693 165.586 103.551 165.492 103.581C163.954 104.066 162.411 104.476 160.831 104.806C159.307 105.125 157.785 105.77 156.219 105.848Z" fill="#0A0B09"/>
<path fill-rule="evenodd" clip-rule="evenodd" d="M156.044 103.57C158.345 102.814 160.276 101.546 162.342 100.394C162.38 100.371 162.345 100.322 162.305 100.339C160.118 101.282 157.903 102.055 155.958 103.386C155.867 103.448 155.914 103.612 156.044 103.57Z" fill="#0A0B09"/>
<path fill-rule="evenodd" clip-rule="evenodd" d="M146.854 73.6374C147.28 73.4569 147.82 73.5133 148.107 73.9092C148.153 73.9702 148.188 74.0356 148.215 74.1034C148.233 74.1461 148.247 74.1918 148.256 74.2352C148.285 74.3722 148.28 74.5139 148.242 74.6448C148.24 74.6479 148.24 74.6524 148.238 74.657C148.176 74.8687 148.03 75.053 147.809 75.1725C147.328 75.4337 146.738 75.2335 146.501 74.7644C146.471 74.7073 146.45 74.6479 146.435 74.5923C146.423 74.5489 146.415 74.507 146.414 74.4636C146.38 74.1316 146.566 73.824 146.854 73.6374ZM147.372 75.4832C147.504 75.4832 147.636 75.4619 147.766 75.4139C148.151 75.273 148.402 74.9647 148.477 74.6159C148.819 74.5573 149.147 74.5009 149.446 74.4765C149.464 74.475 149.471 74.4468 149.45 74.4423C149.158 74.3905 148.833 74.325 148.493 74.2725C148.486 74.2222 148.477 74.172 148.463 74.1247C148.434 74.012 148.386 73.8986 148.317 73.7935C148.112 73.4782 147.773 73.3221 147.429 73.3221C147.155 73.3221 146.881 73.4196 146.669 73.6115C146.366 73.8163 146.183 74.1704 146.254 74.5793C146.345 75.1139 146.838 75.4832 147.372 75.4832Z" fill="#0A0B09"/>
<path fill-rule="evenodd" clip-rule="evenodd" d="M145.03 103.57C145.161 103.612 145.209 103.448 145.116 103.386C143.171 102.055 140.958 101.282 138.767 100.339C138.728 100.322 138.695 100.371 138.734 100.394C140.8 101.546 142.731 102.814 145.03 103.57Z" fill="#0A0B09"/>
<path fill-rule="evenodd" clip-rule="evenodd" d="M134.47 103.726C136.412 104.487 138.221 105.491 140.135 106.296C141.431 106.843 142.641 107.077 143.935 106.418C144.225 106.274 144.069 105.864 143.782 105.848C142.216 105.77 140.694 105.125 139.167 104.806C137.591 104.476 136.045 104.066 134.51 103.581C134.415 103.551 134.38 103.693 134.47 103.726Z" fill="#0A0B09"/>
<path fill-rule="evenodd" clip-rule="evenodd" d="M144.965 108.98C143.098 108.985 141.117 109.963 139.376 110.542C137.408 111.192 135.418 111.748 133.375 112.141C133.318 112.151 133.345 112.229 133.397 112.221C135.544 111.945 137.695 111.65 139.811 111.216C141.565 110.859 143.74 110.467 145.106 109.299C145.235 109.189 145.132 108.98 144.965 108.98Z" fill="#0A0B09"/>
<path fill-rule="evenodd" clip-rule="evenodd" d="M133.177 197.616C130.641 200.645 128.718 203.887 124.767 205.083C124.729 205.095 124.748 205.152 124.786 205.147C126.547 204.861 128.254 204.125 129.637 202.958C131.27 201.58 132.283 199.58 133.331 197.737C133.385 197.641 133.249 197.527 133.177 197.616Z" fill="#0A0B09"/>
<path fill-rule="evenodd" clip-rule="evenodd" d="M122.676 221.651C122.581 221.643 122.569 221.769 122.654 221.794C126.286 222.718 131.899 223.205 133.342 219.216C133.351 219.199 133.315 219.182 133.304 219.207C131.3 222.021 125.962 221.953 122.676 221.651Z" fill="#0A0B09"/>
</g>
<defs>
<filter id="filter0_d" x="262.055" y="97.2751" width="31.2969" height="105.53" filterUnits="userSpaceOnUse" color-interpolation-filters="sRGB">
<feFlood flood-opacity="0" result="BackgroundImageFix"/>
<feColorMatrix in="SourceAlpha" type="matrix" values="0 0 0 0 0 0 0 0 0 0 0 0 0 0 0 0 0 0 127 0"/>
<feOffset dx="1" dy="1"/>
<feGaussianBlur stdDeviation="1"/>
<feColorMatrix type="matrix" values="0 0 0 0 0 0 0 0 0 0 0 0 0 0 0 0 0 0 0.15 0"/>
<feBlend mode="normal" in2="BackgroundImageFix" result="effect1_dropShadow"/>
<feBlend mode="normal" in="SourceGraphic" in2="effect1_dropShadow" result="shape"/>
</filter>
<radialGradient id="paint0_radial" cx="0" cy="0" r="1" gradientUnits="userSpaceOnUse" gradientTransform="translate(150 150) rotate(90) scale(150)">
<stop offset="0.296875" stop-color="white" stop-opacity="0"/>
<stop offset="0.947917" stop-color="#838383" stop-opacity="0.83"/>
</radialGradient>
<clipPath id="clip0">
<rect width="72" height="161" fill="white" transform="translate(114 69)"/>
</clipPath>
</defs>
</svg>
