<svg width="300" height="300" viewBox="0 0 300 300" fill="none" xmlns="http://www.w3.org/2000/svg">
<rect width="300" height="300" fill="white"/>
<rect width="300" height="300" fill="white"/>
<rect width="300" height="300" fill="white"/>
<rect width="300" height="300" fill="url(#paint0_radial)" fill-opacity="0.11"/>
<g filter="url(#filter0_d)">
<path d="M280.482 218.804L289.5 218.804L289.5 224.078L263.906 224.078L263.906 214.093C263.906 212.171 264.258 210.484 264.961 209.031C265.664 207.566 266.666 206.441 267.967 205.656C269.256 204.871 270.727 204.478 272.379 204.478C274.887 204.478 276.867 205.339 278.32 207.062C279.762 208.773 280.482 211.146 280.482 214.181L280.482 218.804ZM276.211 218.804L276.211 214.093C276.211 212.699 275.883 211.638 275.227 210.912C274.57 210.173 273.633 209.804 272.414 209.804C271.16 209.804 270.146 210.173 269.373 210.912C268.6 211.65 268.201 212.67 268.178 213.97L268.178 218.804L276.211 218.804ZM263.906 177.508L280.764 177.508C283.564 177.508 285.779 178.387 287.408 180.145C289.037 181.891 289.852 184.282 289.852 187.317C289.852 190.305 289.061 192.678 287.479 194.436C285.896 196.194 283.723 197.09 280.957 197.126L263.906 197.126L263.906 191.852L280.799 191.852C282.475 191.852 283.699 191.454 284.473 190.657C285.234 189.848 285.615 188.735 285.615 187.317C285.615 184.352 284.057 182.846 280.939 182.799L263.906 182.799L263.906 177.508ZM280.131 159.75L280.131 163.951L289.5 163.951L289.5 169.224L263.906 169.224L263.906 159.714C263.906 156.691 264.58 154.359 265.928 152.718C267.275 151.078 269.18 150.257 271.641 150.257C273.387 150.257 274.846 150.638 276.018 151.4C277.178 152.15 278.104 153.293 278.795 154.828L289.254 149.291L289.5 149.291L289.5 154.951L280.131 159.75ZM275.859 163.951L275.859 159.697C275.859 158.373 275.525 157.347 274.857 156.621C274.178 155.894 273.246 155.531 272.062 155.531C270.855 155.531 269.906 155.876 269.215 156.568C268.523 157.248 268.178 158.296 268.178 159.714L268.178 163.951L275.859 163.951ZM280.482 136.999L289.5 136.999L289.5 142.272L263.906 142.272L263.906 132.288C263.906 130.366 264.258 128.678 264.961 127.225C265.664 125.76 266.666 124.635 267.967 123.85C269.256 123.065 270.727 122.672 272.379 122.672C274.887 122.672 276.867 123.534 278.32 125.256C279.762 126.967 280.482 129.34 280.482 132.375L280.482 136.999ZM276.211 136.999L276.211 132.288C276.211 130.893 275.883 129.833 275.227 129.106C274.57 128.368 273.633 127.999 272.414 127.999C271.16 127.999 270.146 128.368 269.373 129.106C268.6 129.844 268.201 130.864 268.178 132.165L268.178 136.999L276.211 136.999ZM285.264 109.8L285.264 98.603L289.5 98.603L289.5 115.074L263.906 115.074L263.906 109.8L285.264 109.8ZM278.408 76.2035L278.408 86.3285L285.264 86.3285L285.264 74.4457L289.5 74.4457L289.5 91.602L263.906 91.602L263.906 74.4809L268.178 74.4809L268.178 86.3285L274.277 86.3285L274.277 76.2035L278.408 76.2035Z" fill="white"/>
<path d="M280.482 218.804L279.982 218.804L279.982 219.304L280.482 219.304L280.482 218.804ZM289.5 218.804L290 218.804L290 218.304L289.5 218.304L289.5 218.804ZM289.5 224.078L289.5 224.578L290 224.578L290 224.078L289.5 224.078ZM263.906 224.078L263.406 224.078L263.406 224.578L263.906 224.578L263.906 224.078ZM264.961 209.031L265.411 209.249L265.412 209.247L264.961 209.031ZM267.967 205.656L268.225 206.084L268.227 206.083L267.967 205.656ZM278.32 207.062L278.703 206.74L278.702 206.74L278.32 207.062ZM276.211 218.804L276.211 219.304L276.711 219.304L276.711 218.804L276.211 218.804ZM275.227 210.912L274.853 211.244L274.856 211.247L275.227 210.912ZM268.178 213.97L267.678 213.961L267.678 213.97L268.178 213.97ZM268.178 218.804L267.678 218.804L267.678 219.304L268.178 219.304L268.178 218.804ZM280.482 219.304L289.5 219.304L289.5 218.304L280.482 218.304L280.482 219.304ZM289 218.804L289 224.078L290 224.078L290 218.804L289 218.804ZM289.5 223.578L263.906 223.578L263.906 224.578L289.5 224.578L289.5 223.578ZM264.406 224.078L264.406 214.093L263.406 214.093L263.406 224.078L264.406 224.078ZM264.406 214.093C264.406 212.233 264.746 210.622 265.411 209.249L264.511 208.813C263.769 210.346 263.406 212.11 263.406 214.093L264.406 214.093ZM265.412 209.247C266.076 207.864 267.014 206.815 268.225 206.084L267.708 205.228C266.318 206.067 265.252 207.268 264.51 208.814L265.412 209.247ZM268.227 206.083C269.43 205.35 270.809 204.978 272.379 204.978L272.379 203.978C270.644 203.978 269.081 204.391 267.707 205.229L268.227 206.083ZM272.379 204.978C274.758 204.978 276.591 205.788 277.938 207.384L278.702 206.74C277.143 204.891 275.015 203.978 272.379 203.978L272.379 204.978ZM277.938 207.384C279.28 208.977 279.982 211.222 279.982 214.181L280.982 214.181C280.982 211.07 280.243 208.569 278.703 206.74L277.938 207.384ZM279.982 214.181L279.982 218.804L280.982 218.804L280.982 214.181L279.982 214.181ZM276.711 218.804L276.711 214.093L275.711 214.093L275.711 218.804L276.711 218.804ZM276.711 214.093C276.711 212.627 276.366 211.428 275.598 210.577L274.856 211.247C275.399 211.849 275.711 212.77 275.711 214.093L276.711 214.093ZM275.6 210.58C274.828 209.71 273.74 209.304 272.414 209.304L272.414 210.304C273.526 210.304 274.313 210.637 274.853 211.244L275.6 210.58ZM272.414 209.304C271.055 209.304 269.91 209.708 269.028 210.55L269.718 211.273C270.383 210.639 271.265 210.304 272.414 210.304L272.414 209.304ZM269.028 210.55C268.138 211.4 267.703 212.558 267.678 213.961L268.678 213.979C268.699 212.781 269.062 211.9 269.718 211.273L269.028 210.55ZM267.678 213.97L267.678 218.804L268.678 218.804L268.678 213.97L267.678 213.97ZM268.178 219.304L276.211 219.304L276.211 218.304L268.178 218.304L268.178 219.304ZM263.906 177.508L263.906 177.008L263.406 177.008L263.406 177.508L263.906 177.508ZM287.408 180.145L287.041 180.485L287.043 180.486L287.408 180.145ZM280.957 197.126L280.957 197.626L280.963 197.626L280.957 197.126ZM263.906 197.126L263.406 197.126L263.406 197.626L263.906 197.626L263.906 197.126ZM263.906 191.852L263.906 191.352L263.406 191.352L263.406 191.852L263.906 191.852ZM284.473 190.657L284.831 191.005L284.837 191L284.473 190.657ZM280.939 182.799L280.947 182.299L280.939 182.299L280.939 182.799ZM263.906 182.799L263.406 182.799L263.406 183.299L263.906 183.299L263.906 182.799ZM263.906 178.008L280.764 178.008L280.764 177.008L263.906 177.008L263.906 178.008ZM280.764 178.008C283.451 178.008 285.523 178.847 287.041 180.485L287.775 179.805C286.035 177.928 283.678 177.008 280.764 177.008L280.764 178.008ZM287.043 180.486C288.564 182.117 289.352 184.373 289.352 187.317L290.352 187.317C290.352 184.191 289.511 181.666 287.774 179.804L287.043 180.486ZM289.352 187.317C289.352 190.215 288.586 192.458 287.107 194.102L287.85 194.771C289.535 192.899 290.352 190.395 290.352 187.317L289.352 187.317ZM287.107 194.102C285.634 195.738 283.603 196.592 280.951 196.626L280.963 197.626C283.843 197.589 286.159 196.65 287.85 194.771L287.107 194.102ZM280.957 196.626L263.906 196.626L263.906 197.626L280.957 197.626L280.957 196.626ZM264.406 197.126L264.406 191.852L263.406 191.852L263.406 197.126L264.406 197.126ZM263.906 192.352L280.799 192.352L280.799 191.352L263.906 191.352L263.906 192.352ZM280.799 192.352C282.542 192.352 283.925 191.939 284.831 191.005L284.114 190.309C283.473 190.969 282.408 191.352 280.799 191.352L280.799 192.352ZM284.837 191C285.708 190.075 286.115 188.826 286.115 187.317L285.115 187.317C285.115 188.644 284.761 189.622 284.109 190.314L284.837 191ZM286.115 187.317C286.115 185.75 285.702 184.482 284.794 183.604C283.89 182.731 282.577 182.324 280.947 182.299L280.932 183.299C282.419 183.322 283.444 183.691 284.099 184.324C284.749 184.952 285.115 185.919 285.115 187.317L286.115 187.317ZM280.939 182.299L263.906 182.299L263.906 183.299L280.939 183.299L280.939 182.299ZM264.406 182.799L264.406 177.508L263.406 177.508L263.406 182.799L264.406 182.799ZM280.131 159.75L279.903 159.305L279.631 159.444L279.631 159.75L280.131 159.75ZM280.131 163.951L279.631 163.951L279.631 164.451L280.131 164.451L280.131 163.951ZM289.5 163.951L290 163.951L290 163.451L289.5 163.451L289.5 163.951ZM289.5 169.224L289.5 169.724L290 169.724L290 169.224L289.5 169.224ZM263.906 169.224L263.406 169.224L263.406 169.724L263.906 169.724L263.906 169.224ZM276.018 151.4L275.745 151.819L275.746 151.82L276.018 151.4ZM278.795 154.828L278.339 155.033L278.558 155.519L279.029 155.27L278.795 154.828ZM289.254 149.291L289.254 148.791L289.13 148.791L289.02 148.849L289.254 149.291ZM289.5 149.291L290 149.291L290 148.791L289.5 148.791L289.5 149.291ZM289.5 154.951L289.728 155.396L290 155.256L290 154.951L289.5 154.951ZM275.859 163.951L275.859 164.451L276.359 164.451L276.359 163.951L275.859 163.951ZM274.857 156.621L275.226 156.282L275.223 156.279L274.857 156.621ZM269.215 156.568L269.565 156.924L269.568 156.921L269.215 156.568ZM268.178 163.951L267.678 163.951L267.678 164.451L268.178 164.451L268.178 163.951ZM279.631 159.75L279.631 163.951L280.631 163.951L280.631 159.75L279.631 159.75ZM280.131 164.451L289.5 164.451L289.5 163.451L280.131 163.451L280.131 164.451ZM289 163.951L289 169.224L290 169.224L290 163.951L289 163.951ZM289.5 168.724L263.906 168.724L263.906 169.724L289.5 169.724L289.5 168.724ZM264.406 169.224L264.406 159.714L263.406 159.714L263.406 169.224L264.406 169.224ZM264.406 159.714C264.406 156.759 265.066 154.556 266.314 153.036L265.541 152.401C264.095 154.162 263.406 156.623 263.406 159.714L264.406 159.714ZM266.314 153.036C267.551 151.53 269.303 150.757 271.641 150.757L271.641 149.757C269.057 149.757 267 150.626 265.541 152.401L266.314 153.036ZM271.641 150.757C273.314 150.757 274.672 151.122 275.745 151.819L276.29 150.981C275.019 150.155 273.459 149.757 271.641 149.757L271.641 150.757ZM275.746 151.82C276.809 152.507 277.678 153.566 278.339 155.033L279.251 154.622C278.529 153.019 277.546 151.793 276.289 150.98L275.746 151.82ZM279.029 155.27L289.488 149.732L289.02 148.849L278.561 154.386L279.029 155.27ZM289.254 149.791L289.5 149.791L289.5 148.791L289.254 148.791L289.254 149.791ZM289 149.291L289 154.951L290 154.951L290 149.291L289 149.291ZM289.272 154.506L279.903 159.305L280.359 160.195L289.728 155.396L289.272 154.506ZM276.359 163.951L276.359 159.697L275.359 159.697L275.359 163.951L276.359 163.951ZM276.359 159.697C276.359 158.291 276.004 157.129 275.225 156.282L274.489 156.959C275.047 157.566 275.359 158.454 275.359 159.697L276.359 159.697ZM275.223 156.279C274.43 155.432 273.356 155.031 272.062 155.031L272.062 156.031C273.136 156.031 273.925 156.356 274.492 156.962L275.223 156.279ZM272.062 155.031C270.756 155.031 269.667 155.408 268.861 156.214L269.568 156.921C270.145 156.345 270.955 156.031 272.062 156.031L272.062 155.031ZM268.864 156.211C268.041 157.021 267.678 158.224 267.678 159.714L268.678 159.714C268.678 158.368 269.006 157.474 269.565 156.924L268.864 156.211ZM267.678 159.714L267.678 163.951L268.678 163.951L268.678 159.714L267.678 159.714ZM268.178 164.451L275.859 164.451L275.859 163.451L268.178 163.451L268.178 164.451ZM280.482 136.999L279.982 136.999L279.982 137.499L280.482 137.499L280.482 136.999ZM289.5 136.999L290 136.999L290 136.499L289.5 136.499L289.5 136.999ZM289.5 142.272L289.5 142.772L290 142.772L290 142.272L289.5 142.272ZM263.906 142.272L263.406 142.272L263.406 142.772L263.906 142.772L263.906 142.272ZM264.961 127.225L265.411 127.443L265.412 127.441L264.961 127.225ZM267.967 123.85L268.225 124.278L268.227 124.277L267.967 123.85ZM278.32 125.256L278.703 124.934L278.702 124.934L278.32 125.256ZM276.211 136.999L276.211 137.499L276.711 137.499L276.711 136.999L276.211 136.999ZM275.227 129.106L274.853 129.438L274.856 129.441L275.227 129.106ZM268.178 132.165L267.678 132.156L267.678 132.165L268.178 132.165ZM268.178 136.999L267.678 136.999L267.678 137.499L268.178 137.499L268.178 136.999ZM280.482 137.499L289.5 137.499L289.5 136.499L280.482 136.499L280.482 137.499ZM289 136.999L289 142.272L290 142.272L290 136.999L289 136.999ZM289.5 141.772L263.906 141.772L263.906 142.772L289.5 142.772L289.5 141.772ZM264.406 142.272L264.406 132.288L263.406 132.288L263.406 142.272L264.406 142.272ZM264.406 132.288C264.406 130.427 264.746 128.816 265.411 127.443L264.511 127.007C263.769 128.54 263.406 130.305 263.406 132.288L264.406 132.288ZM265.412 127.441C266.076 126.058 267.014 125.009 268.225 124.278L267.708 123.422C266.318 124.261 265.252 125.462 264.51 127.009L265.412 127.441ZM268.227 124.277C269.43 123.544 270.809 123.172 272.379 123.172L272.379 122.172C270.644 122.172 269.081 122.586 267.707 123.423L268.227 124.277ZM272.379 123.172C274.758 123.172 276.591 123.982 277.938 125.579L278.702 124.934C277.143 123.085 275.015 122.172 272.379 122.172L272.379 123.172ZM277.938 125.578C279.28 127.172 279.982 129.416 279.982 132.375L280.982 132.375C280.982 129.265 280.243 126.763 278.703 124.934L277.938 125.578ZM279.982 132.375L279.982 136.999L280.982 136.999L280.982 132.375L279.982 132.375ZM276.711 136.999L276.711 132.288L275.711 132.288L275.711 136.999L276.711 136.999ZM276.711 132.288C276.711 130.821 276.366 129.622 275.598 128.771L274.856 129.441C275.399 130.043 275.711 130.965 275.711 132.288L276.711 132.288ZM275.6 128.774C274.828 127.904 273.74 127.499 272.414 127.499L272.414 128.499C273.526 128.499 274.313 128.831 274.853 129.438L275.6 128.774ZM272.414 127.499C271.055 127.499 269.91 127.902 269.028 128.744L269.718 129.468C270.383 128.833 271.265 128.499 272.414 128.499L272.414 127.499ZM269.028 128.744C268.138 129.594 267.703 130.752 267.678 132.156L268.678 132.174C268.699 130.975 269.062 130.094 269.718 129.468L269.028 128.744ZM267.678 132.165L267.678 136.999L268.678 136.999L268.678 132.165L267.678 132.165ZM268.178 137.499L276.211 137.499L276.211 136.499L268.178 136.499L268.178 137.499ZM285.264 109.8L285.264 110.3L285.764 110.3L285.764 109.8L285.264 109.8ZM285.264 98.603L285.264 98.103L284.764 98.103L284.764 98.603L285.264 98.603ZM289.5 98.603L290 98.603L290 98.103L289.5 98.103L289.5 98.603ZM289.5 115.074L289.5 115.574L290 115.574L290 115.074L289.5 115.074ZM263.906 115.074L263.406 115.074L263.406 115.574L263.906 115.574L263.906 115.074ZM263.906 109.8L263.906 109.3L263.406 109.3L263.406 109.8L263.906 109.8ZM285.764 109.8L285.764 98.603L284.764 98.603L284.764 109.8L285.764 109.8ZM285.264 99.103L289.5 99.103L289.5 98.103L285.264 98.103L285.264 99.103ZM289 98.603L289 115.074L290 115.074L290 98.603L289 98.603ZM289.5 114.574L263.906 114.574L263.906 115.574L289.5 115.574L289.5 114.574ZM264.406 115.074L264.406 109.8L263.406 109.8L263.406 115.074L264.406 115.074ZM263.906 110.3L285.264 110.3L285.264 109.3L263.906 109.3L263.906 110.3ZM278.408 76.2035L278.908 76.2035L278.908 75.7035L278.408 75.7035L278.408 76.2035ZM278.408 86.3285L277.908 86.3285L277.908 86.8285L278.408 86.8285L278.408 86.3285ZM285.264 86.3285L285.264 86.8285L285.764 86.8285L285.764 86.3285L285.264 86.3285ZM285.264 74.4457L285.264 73.9457L284.764 73.9457L284.764 74.4457L285.264 74.4457ZM289.5 74.4457L290 74.4457L290 73.9457L289.5 73.9457L289.5 74.4457ZM289.5 91.602L289.5 92.102L290 92.102L290 91.602L289.5 91.602ZM263.906 91.602L263.406 91.602L263.406 92.102L263.906 92.102L263.906 91.602ZM263.906 74.4809L263.906 73.9809L263.406 73.9809L263.406 74.4809L263.906 74.4809ZM268.178 74.4809L268.678 74.4809L268.678 73.9809L268.178 73.9809L268.178 74.4809ZM268.178 86.3285L267.678 86.3285L267.678 86.8285L268.178 86.8285L268.178 86.3285ZM274.277 86.3285L274.277 86.8285L274.777 86.8285L274.777 86.3285L274.277 86.3285ZM274.277 76.2035L274.277 75.7035L273.777 75.7035L273.777 76.2035L274.277 76.2035ZM277.908 76.2035L277.908 86.3285L278.908 86.3285L278.908 76.2035L277.908 76.2035ZM278.408 86.8285L285.264 86.8285L285.264 85.8285L278.408 85.8285L278.408 86.8285ZM285.764 86.3285L285.764 74.4457L284.764 74.4457L284.764 86.3285L285.764 86.3285ZM285.264 74.9457L289.5 74.9457L289.5 73.9457L285.264 73.9457L285.264 74.9457ZM289 74.4457L289 91.602L290 91.602L290 74.4457L289 74.4457ZM289.5 91.102L263.906 91.102L263.906 92.102L289.5 92.102L289.5 91.102ZM264.406 91.602L264.406 74.4809L263.406 74.4809L263.406 91.602L264.406 91.602ZM263.906 74.9809L268.178 74.9809L268.178 73.9809L263.906 73.9809L263.906 74.9809ZM267.678 74.4809L267.678 86.3285L268.678 86.3285L268.678 74.4809L267.678 74.4809ZM268.178 86.8285L274.277 86.8285L274.277 85.8285L268.178 85.8285L268.178 86.8285ZM274.777 86.3285L274.777 76.2035L273.777 76.2035L273.777 86.3285L274.777 86.3285ZM274.277 76.7035L278.408 76.7035L278.408 75.7035L274.277 75.7035L274.277 76.7035Z" fill="#C902DA"/>
</g>
<path d="M28.0078 265.703V285H14.2969V228.125H36.9922C41.3411 228.125 45.1823 228.932 48.5156 230.547C51.875 232.135 54.4661 234.414 56.2891 237.383C58.138 240.326 59.0625 243.672 59.0625 247.422C59.0625 252.969 57.0703 257.409 53.0859 260.742C49.1276 264.049 43.6849 265.703 36.7578 265.703H28.0078ZM28.0078 255.117H36.9922C39.6484 255.117 41.6667 254.453 43.0469 253.125C44.4531 251.797 45.1562 249.922 45.1562 247.5C45.1562 244.844 44.4401 242.721 43.0078 241.133C41.5755 239.544 39.6224 238.737 37.1484 238.711H28.0078V255.117ZM72.4437 279.727H63.1977L61.4398 285H55.8324L65.3598 259.406H70.2465L79.8266 285H74.2191L72.4437 279.727ZM64.6215 275.455H71.0199L67.8031 265.875L64.6215 275.455ZM90.0106 275.982V285H84.7372V259.406H94.7216C96.6434 259.406 98.3309 259.758 99.7841 260.461C101.249 261.164 102.374 262.166 103.159 263.467C103.944 264.756 104.337 266.227 104.337 267.879C104.337 270.387 103.475 272.367 101.753 273.82C100.042 275.262 97.6688 275.982 94.6337 275.982H90.0106ZM90.0106 271.711H94.7216C96.1161 271.711 97.1766 271.383 97.9032 270.727C98.6415 270.07 99.0106 269.133 99.0106 267.914C99.0106 266.66 98.6415 265.646 97.9032 264.873C97.1649 264.1 96.1454 263.701 94.8446 263.678H90.0106V271.711ZM125.894 273.908H115.769V280.764H127.652V285H110.495V259.406H127.617V263.678H115.769V269.777H125.894V273.908ZM142.74 275.631H138.539V285H133.265V259.406H142.775C145.799 259.406 148.131 260.08 149.771 261.428C151.412 262.775 152.232 264.68 152.232 267.141C152.232 268.887 151.851 270.346 151.09 271.518C150.34 272.678 149.197 273.604 147.662 274.295L153.199 284.754V285H147.539L142.74 275.631ZM138.539 271.359H142.793C144.117 271.359 145.142 271.025 145.869 270.357C146.596 269.678 146.959 268.746 146.959 267.562C146.959 266.355 146.613 265.406 145.922 264.715C145.242 264.023 144.193 263.678 142.775 263.678H138.539V271.359ZM178.869 276.475C178.67 279.229 177.651 281.396 175.811 282.979C173.983 284.561 171.569 285.352 168.569 285.352C165.287 285.352 162.703 284.25 160.817 282.047C158.942 279.832 158.004 276.797 158.004 272.941V271.377C158.004 268.916 158.438 266.748 159.305 264.873C160.172 262.998 161.409 261.562 163.014 260.566C164.631 259.559 166.506 259.055 168.639 259.055C171.592 259.055 173.971 259.846 175.776 261.428C177.58 263.01 178.623 265.23 178.905 268.09H173.631C173.502 266.438 173.039 265.242 172.242 264.504C171.457 263.754 170.256 263.379 168.639 263.379C166.881 263.379 165.563 264.012 164.684 265.277C163.817 266.531 163.371 268.482 163.348 271.131V273.064C163.348 275.83 163.764 277.852 164.596 279.129C165.44 280.406 166.764 281.045 168.569 281.045C170.198 281.045 171.41 280.676 172.207 279.938C173.016 279.188 173.479 278.033 173.596 276.475H178.869ZM190.126 280.764H201.323V285H184.852V259.406H190.126V280.764ZM212.491 285H207.218V259.406H212.491V285ZM225.189 275.982V285H219.916V259.406H229.9C231.822 259.406 233.51 259.758 234.963 260.461C236.428 261.164 237.553 262.166 238.338 263.467C239.123 264.756 239.515 266.227 239.515 267.879C239.515 270.387 238.654 272.367 236.931 273.82C235.22 275.262 232.847 275.982 229.812 275.982H225.189ZM225.189 271.711H229.9C231.295 271.711 232.355 271.383 233.082 270.727C233.82 270.07 234.189 269.133 234.189 267.914C234.189 266.66 233.82 265.646 233.082 264.873C232.344 264.1 231.324 263.701 230.023 263.678H225.189V271.711Z" fill="black"/>
<path d="M68.3851 28.8535C68.3851 28.1445 68.1361 27.585 67.638 27.1748C67.14 26.7588 66.2289 26.3662 64.9046 25.9971C63.5804 25.6221 62.6136 25.2148 62.0043 24.7754C61.1371 24.1543 60.7035 23.3398 60.7035 22.332C60.7035 21.3535 61.1048 20.5596 61.9076 19.9502C62.7162 19.335 63.7474 19.0273 65.0013 19.0273C65.8509 19.0273 66.6097 19.1914 67.2777 19.5195C67.9515 19.8477 68.473 20.3047 68.8421 20.8906C69.2113 21.4766 69.3959 22.1299 69.3959 22.8506H68.306C68.306 21.9775 68.0072 21.2773 67.4095 20.75C66.8119 20.2168 66.0091 19.9502 65.0013 19.9502C64.0228 19.9502 63.2435 20.1699 62.6634 20.6094C62.0834 21.043 61.7933 21.6113 61.7933 22.3145C61.7933 22.9648 62.0541 23.4951 62.5755 23.9053C63.097 24.3154 63.932 24.6787 65.0804 24.9951C66.2289 25.3057 67.099 25.6309 67.6908 25.9707C68.2826 26.3047 68.7279 26.7061 69.0267 27.1748C69.3255 27.6436 69.475 28.1973 69.475 28.8359C69.475 29.8438 69.0707 30.6523 68.2621 31.2617C67.4593 31.8711 66.3988 32.1758 65.0804 32.1758C64.1781 32.1758 63.349 32.0146 62.5931 31.6924C61.8431 31.3701 61.2718 30.9189 60.8793 30.3389C60.4925 29.7588 60.2992 29.0938 60.2992 28.3438H61.3802C61.3802 29.2461 61.7171 29.958 62.391 30.4795C63.0648 31.001 63.9613 31.2617 65.0804 31.2617C66.0765 31.2617 66.8763 31.042 67.4798 30.6025C68.0834 30.1631 68.3851 29.5801 68.3851 28.8535ZM82.8544 28.0098C82.7079 29.3574 82.2245 30.3887 81.4042 31.1035C80.5897 31.8184 79.5028 32.1758 78.1434 32.1758C77.1942 32.1758 76.3534 31.9385 75.621 31.4639C74.8944 30.9893 74.3319 30.3184 73.9335 29.4512C73.535 28.5781 73.3329 27.582 73.327 26.4629V24.8018C73.327 23.665 73.5262 22.6572 73.9247 21.7783C74.3231 20.8994 74.8944 20.2227 75.6385 19.748C76.3885 19.2676 77.2499 19.0273 78.2225 19.0273C79.5936 19.0273 80.6747 19.3994 81.4657 20.1436C82.2626 20.8818 82.7255 21.9043 82.8544 23.2109H81.7645C81.495 21.0371 80.3143 19.9502 78.2225 19.9502C77.0624 19.9502 76.1366 20.3838 75.4452 21.251C74.7596 22.1182 74.4169 23.3164 74.4169 24.8457V26.4102C74.4169 27.8867 74.7509 29.0645 75.4188 29.9434C76.0927 30.8223 77.0009 31.2617 78.1434 31.2617C79.2743 31.2617 80.1268 30.9922 80.701 30.4531C81.2753 29.9082 81.6298 29.0938 81.7645 28.0098H82.8544ZM96.9457 32H95.8559V25.8652H88.5434V32H87.4623V19.2031H88.5434V24.9512H95.8559V19.2031H96.9457V32ZM111.643 26.2959C111.643 27.4736 111.438 28.5078 111.028 29.3984C110.624 30.2891 110.044 30.9746 109.288 31.4551C108.532 31.9355 107.659 32.1758 106.669 32.1758C105.175 32.1758 103.968 31.6426 103.048 30.5762C102.128 29.5039 101.668 28.0596 101.668 26.2432V24.9248C101.668 23.7588 101.873 22.7275 102.283 21.8311C102.699 20.9287 103.285 20.2373 104.041 19.7568C104.797 19.2705 105.667 19.0273 106.651 19.0273C107.636 19.0273 108.503 19.2646 109.253 19.7393C110.009 20.2139 110.592 20.8848 111.002 21.752C111.412 22.6191 111.626 23.624 111.643 24.7666V26.2959ZM110.562 24.9072C110.562 23.3662 110.214 22.1592 109.517 21.2861C108.819 20.4131 107.864 19.9766 106.651 19.9766C105.462 19.9766 104.513 20.416 103.804 21.2949C103.101 22.168 102.749 23.3896 102.749 24.96V26.2959C102.749 27.8135 103.101 29.0176 103.804 29.9082C104.507 30.793 105.462 31.2354 106.669 31.2354C107.893 31.2354 108.849 30.7988 109.534 29.9258C110.22 29.0469 110.562 27.8252 110.562 26.2607V24.9072ZM125.805 26.2959C125.805 27.4736 125.6 28.5078 125.19 29.3984C124.786 30.2891 124.206 30.9746 123.45 31.4551C122.694 31.9355 121.821 32.1758 120.831 32.1758C119.336 32.1758 118.129 31.6426 117.209 30.5762C116.289 29.5039 115.83 28.0596 115.83 26.2432V24.9248C115.83 23.7588 116.035 22.7275 116.445 21.8311C116.861 20.9287 117.447 20.2373 118.203 19.7568C118.958 19.2705 119.829 19.0273 120.813 19.0273C121.797 19.0273 122.664 19.2646 123.414 19.7393C124.17 20.2139 124.753 20.8848 125.164 21.752C125.574 22.6191 125.788 23.624 125.805 24.7666V26.2959ZM124.724 24.9072C124.724 23.3662 124.375 22.1592 123.678 21.2861C122.981 20.4131 122.026 19.9766 120.813 19.9766C119.623 19.9766 118.674 20.416 117.965 21.2949C117.262 22.168 116.911 23.3896 116.911 24.96V26.2959C116.911 27.8135 117.262 29.0176 117.965 29.9082C118.668 30.793 119.623 31.2354 120.831 31.2354C122.055 31.2354 123.01 30.7988 123.696 29.9258C124.381 29.0469 124.724 27.8252 124.724 26.2607V24.9072ZM131.6 31.0859H137.919V32H130.51V19.2031H131.6V31.0859ZM155.581 28.8535C155.581 28.1445 155.332 27.585 154.834 27.1748C154.336 26.7588 153.425 26.3662 152.101 25.9971C150.776 25.6221 149.81 25.2148 149.2 24.7754C148.333 24.1543 147.899 23.3398 147.899 22.332C147.899 21.3535 148.301 20.5596 149.104 19.9502C149.912 19.335 150.943 19.0273 152.197 19.0273C153.047 19.0273 153.806 19.1914 154.474 19.5195C155.147 19.8477 155.669 20.3047 156.038 20.8906C156.407 21.4766 156.592 22.1299 156.592 22.8506H155.502C155.502 21.9775 155.203 21.2773 154.605 20.75C154.008 20.2168 153.205 19.9502 152.197 19.9502C151.219 19.9502 150.439 20.1699 149.859 20.6094C149.279 21.043 148.989 21.6113 148.989 22.3145C148.989 22.9648 149.25 23.4951 149.771 23.9053C150.293 24.3154 151.128 24.6787 152.276 24.9951C153.425 25.3057 154.295 25.6309 154.887 25.9707C155.479 26.3047 155.924 26.7061 156.223 27.1748C156.521 27.6436 156.671 28.1973 156.671 28.8359C156.671 29.8438 156.267 30.6523 155.458 31.2617C154.655 31.8711 153.595 32.1758 152.276 32.1758C151.374 32.1758 150.545 32.0146 149.789 31.6924C149.039 31.3701 148.468 30.9189 148.075 30.3389C147.688 29.7588 147.495 29.0938 147.495 28.3438H148.576C148.576 29.2461 148.913 29.958 149.587 30.4795C150.261 31.001 151.157 31.2617 152.276 31.2617C153.272 31.2617 154.072 31.042 154.676 30.6025C155.279 30.1631 155.581 29.5801 155.581 28.8535ZM169.804 19.2031V27.9395C169.798 28.8008 169.608 29.5508 169.233 30.1895C168.858 30.8281 168.328 31.3203 167.642 31.666C166.962 32.0059 166.18 32.1758 165.295 32.1758C163.948 32.1758 162.867 31.8096 162.052 31.0771C161.244 30.3389 160.825 29.3193 160.795 28.0186V19.2031H161.868V27.8604C161.868 28.9385 162.175 29.7764 162.791 30.374C163.406 30.9658 164.241 31.2617 165.295 31.2617C166.35 31.2617 167.182 30.9629 167.792 30.3652C168.407 29.7676 168.714 28.9355 168.714 27.8691V19.2031H169.804ZM175.88 26.7881V32H174.799V19.2031H179.158C180.488 19.2031 181.537 19.543 182.305 20.2227C183.078 20.9023 183.465 21.8369 183.465 23.0264C183.465 24.2275 183.093 25.1562 182.349 25.8125C181.61 26.4629 180.538 26.7881 179.132 26.7881H175.88ZM175.88 25.874H179.158C180.207 25.874 181.007 25.625 181.558 25.127C182.108 24.6289 182.384 23.9346 182.384 23.0439C182.384 22.1592 182.108 21.4561 181.558 20.9346C181.013 20.4072 180.236 20.1377 179.229 20.126H175.88V25.874ZM188.952 26.7881V32H187.871V19.2031H192.23C193.56 19.2031 194.609 19.543 195.377 20.2227C196.15 20.9023 196.537 21.8369 196.537 23.0264C196.537 24.2275 196.165 25.1562 195.42 25.8125C194.682 26.4629 193.61 26.7881 192.204 26.7881H188.952ZM188.952 25.874H192.23C193.279 25.874 194.079 25.625 194.629 25.127C195.18 24.6289 195.456 23.9346 195.456 23.0439C195.456 22.1592 195.18 21.4561 194.629 20.9346C194.085 20.4072 193.308 20.1377 192.3 20.126H188.952V25.874ZM202.032 31.0859H208.352V32H200.942V19.2031H202.032V31.0859ZM213.733 32H212.652V19.2031H213.733V32ZM226.26 25.8652H220.275V31.0859H227.156V32H219.193V19.2031H227.112V20.126H220.275V24.9512H226.26V25.8652ZM238.664 28.8535C238.664 28.1445 238.415 27.585 237.917 27.1748C237.419 26.7588 236.507 26.3662 235.183 25.9971C233.859 25.6221 232.892 25.2148 232.283 24.7754C231.416 24.1543 230.982 23.3398 230.982 22.332C230.982 21.3535 231.383 20.5596 232.186 19.9502C232.995 19.335 234.026 19.0273 235.28 19.0273C236.13 19.0273 236.888 19.1914 237.556 19.5195C238.23 19.8477 238.752 20.3047 239.121 20.8906C239.49 21.4766 239.674 22.1299 239.674 22.8506H238.585C238.585 21.9775 238.286 21.2773 237.688 20.75C237.09 20.2168 236.288 19.9502 235.28 19.9502C234.301 19.9502 233.522 20.1699 232.942 20.6094C232.362 21.043 232.072 21.6113 232.072 22.3145C232.072 22.9648 232.333 23.4951 232.854 23.9053C233.376 24.3154 234.211 24.6787 235.359 24.9951C236.507 25.3057 237.378 25.6309 237.969 25.9707C238.561 26.3047 239.006 26.7061 239.305 27.1748C239.604 27.6436 239.754 28.1973 239.754 28.8359C239.754 29.8438 239.349 30.6523 238.541 31.2617C237.738 31.8711 236.677 32.1758 235.359 32.1758C234.457 32.1758 233.628 32.0146 232.872 31.6924C232.122 31.3701 231.55 30.9189 231.158 30.3389C230.771 29.7588 230.578 29.0938 230.578 28.3438H231.659C231.659 29.2461 231.996 29.958 232.67 30.4795C233.343 31.001 234.24 31.2617 235.359 31.2617C236.355 31.2617 237.155 31.042 237.758 30.6025C238.362 30.1631 238.664 29.5801 238.664 28.8535Z" fill="black"/>
<g clip-path="url(#clip0)">
<path fill-rule="evenodd" clip-rule="evenodd" d="M229.671 160.048L92.6647 199.713L90.763 193.017L227.769 153.352C231.435 152.291 234.383 149.519 235.633 145.935L236.198 144.347C237.915 139.452 238.373 134.392 237.681 129.551C236.534 121.473 232.211 114.013 225.254 108.932C222.364 106.831 218.573 106.164 215.108 107.168L69.5276 149.315C64.7544 150.697 61.508 154.84 61.0694 159.479C60.9323 160.862 61.0448 162.295 61.4459 163.707L65.4403 177.771C67.1837 183.91 73.6471 187.443 79.8466 185.648L197.755 151.512C201.424 150.45 204.362 147.683 205.623 144.099L205.916 143.249C206.852 140.585 207.002 137.814 206.435 135.223C205.698 131.82 203.737 128.725 200.758 126.548C197.875 124.437 194.084 123.778 190.621 124.781L80.4427 156.679L78.5409 149.983L188.72 118.085C194.264 116.48 200.338 117.532 204.956 120.905C209.604 124.301 212.565 129.228 213.486 134.589C214.103 138.131 213.821 141.87 212.554 145.484L212.251 146.337C210.816 150.415 208.023 153.84 204.414 156.086C202.951 156.999 201.349 157.724 199.658 158.213L81.7496 192.349C71.8224 195.223 61.4703 189.561 58.6778 179.729L54.6834 165.665C54.1559 163.807 53.9397 161.928 53.994 160.083C54.239 152.185 59.576 144.946 67.6252 142.616L213.205 100.469C218.759 98.8614 224.826 99.926 229.452 103.296C238.07 109.587 243.382 118.872 244.699 128.888C245.466 134.681 244.882 140.728 242.828 146.582L242.27 148.17C240.255 153.907 235.546 158.347 229.671 160.048Z" fill="#60007E"/>
<path fill-rule="evenodd" clip-rule="evenodd" d="M228.581 155.952L91.9973 195.492L91.1556 192.528L226.99 153.205C230.645 152.147 233.584 149.388 234.832 145.82L235.398 144.238C237.109 139.364 237.567 134.326 236.879 129.506C236.759 120 232.254 110.93 224.196 105.059C221.316 102.968 217.537 102.306 214.083 103.306L68.9485 145.321C62.8671 147.081 59.2684 153.342 60.8179 159.363C60.6814 160.743 60.7954 162.168 61.1948 163.574L65.1717 177.576C66.9075 183.688 73.3468 187.204 79.5272 185.414L197.075 151.385C200.73 150.327 203.66 147.571 204.918 144.003L205.213 143.155C206.144 140.503 206.294 137.745 205.73 135.165C206.015 130.31 203.862 125.587 199.773 122.609C196.897 120.507 193.121 119.854 189.666 120.854L79.8294 152.651L78.987 149.685L188.076 118.104C193.606 116.504 199.658 117.552 204.261 120.909C208.893 124.289 211.843 129.194 212.759 134.531C212.731 136.832 212.326 139.17 211.524 141.457L211.221 142.306C209.212 148.018 204.517 152.441 198.665 154.135L81.1171 188.164C71.2228 191.028 60.9055 185.395 58.1259 175.609L54.149 161.607C53.9953 161.066 53.8636 160.521 53.7655 159.969C54.0124 152.105 59.3349 144.896 67.3592 142.574L212.491 100.559C218.028 98.9563 224.074 100.012 228.687 103.368C237.276 109.628 242.566 118.871 243.875 128.844C243.998 133.385 243.297 138.022 241.701 142.539L241.145 144.121C239.133 149.834 234.439 154.256 228.581 155.952Z" fill="#B84AFF"/>
</g>
<defs>
<filter id="filter0_d" x="262.406" y="72.9457" width="30.9453" height="154.632" filterUnits="userSpaceOnUse" color-interpolation-filters="sRGB">
<feFlood flood-opacity="0" result="BackgroundImageFix"/>
<feColorMatrix in="SourceAlpha" type="matrix" values="0 0 0 0 0 0 0 0 0 0 0 0 0 0 0 0 0 0 127 0"/>
<feOffset dx="1" dy="1"/>
<feGaussianBlur stdDeviation="1"/>
<feColorMatrix type="matrix" values="0 0 0 0 0 0 0 0 0 0 0 0 0 0 0 0 0 0 0.15 0"/>
<feBlend mode="normal" in2="BackgroundImageFix" result="effect1_dropShadow"/>
<feBlend mode="normal" in="SourceGraphic" in2="effect1_dropShadow" result="shape"/>
</filter>
<radialGradient id="paint0_radial" cx="0" cy="0" r="1" gradientUnits="userSpaceOnUse" gradientTransform="translate(150 150) rotate(90) scale(150)">
<stop offset="0.296875" stop-color="white" stop-opacity="0"/>
<stop offset="0.947917" stop-color="#9E00FF" stop-opacity="0.83"/>
</radialGradient>
<clipPath id="clip0">
<rect width="193" height="102" fill="white" transform="translate(53 99)"/>
</clipPath>
</defs>
</svg>
