<svg width="300" height="300" viewBox="0 0 300 300" fill="none" xmlns="http://www.w3.org/2000/svg">
<rect width="300" height="300" fill="white"/>
<rect width="300" height="300" fill="white"/>
<rect width="300" height="300" fill="white"/>
<rect width="300" height="300" fill="url(#paint0_radial)" fill-opacity="0.2"/>
<g filter="url(#filter0_d)">
<path d="M275.437 217.17L263.906 211.843L263.906 206.078L280.219 214.48L289.5 214.48L289.5 219.841L280.219 219.841L263.906 228.244L263.906 222.461L275.437 217.17ZM278.408 184.381L278.408 194.506L285.264 194.506L285.264 182.624L289.5 182.624L289.5 199.78L263.906 199.78L263.906 182.659L268.178 182.659L268.178 194.506L274.277 194.506L274.277 184.381L278.408 184.381ZM285.264 170.296L285.264 159.099L289.5 159.099L289.5 175.57L263.906 175.57L263.906 170.296L285.264 170.296ZM285.264 146.825L285.264 135.627L289.5 135.627L289.5 152.098L263.906 152.098L263.906 146.825L285.264 146.825ZM277.283 108.728C279.803 108.728 282.012 109.173 283.91 110.064C285.809 110.955 287.273 112.232 288.305 113.896C289.336 115.548 289.852 117.447 289.852 119.591C289.852 121.712 289.342 123.605 288.322 125.269C287.303 126.933 285.85 128.222 283.963 129.136C282.064 130.05 279.885 130.513 277.424 130.525L276.158 130.525C273.639 130.525 271.424 130.074 269.514 129.171C267.592 128.257 266.121 126.974 265.102 125.322C264.07 123.658 263.555 121.759 263.555 119.626C263.555 117.494 264.07 115.601 265.102 113.949C266.121 112.285 267.592 111.001 269.514 110.099C271.424 109.185 273.633 108.728 276.141 108.728L277.283 108.728ZM276.123 114.072C273.439 114.072 271.4 114.552 270.006 115.513C268.611 116.474 267.914 117.845 267.914 119.626C267.914 121.396 268.605 122.761 269.988 123.722C271.359 124.683 273.375 125.169 276.035 125.181L277.283 125.181C279.896 125.181 281.924 124.701 283.365 123.74C284.807 122.779 285.527 121.396 285.527 119.591C285.527 117.822 284.836 116.462 283.453 115.513C282.059 114.564 280.031 114.083 277.371 114.072L276.123 114.072ZM282.117 81.0023L263.906 77.557L263.906 72.3012L289.5 77.9789L289.5 83.2875L272.379 87.4535L289.5 91.6195L289.5 96.9281L263.906 102.606L263.906 97.35L282.082 93.8871L263.906 89.6684L263.906 85.2035L282.117 81.0023Z" fill="white"/>
<path d="M275.437 217.17L275.646 217.624L276.633 217.171L275.647 216.716L275.437 217.17ZM263.906 211.843L263.406 211.843L263.406 212.163L263.697 212.297L263.906 211.843ZM263.906 206.078L264.135 205.633L263.406 205.258L263.406 206.078L263.906 206.078ZM280.219 214.48L279.99 214.925L280.098 214.98L280.219 214.98L280.219 214.48ZM289.5 214.48L290 214.48L290 213.98L289.5 213.98L289.5 214.48ZM289.5 219.841L289.5 220.341L290 220.341L290 219.841L289.5 219.841ZM280.219 219.841L280.219 219.341L280.098 219.341L279.99 219.397L280.219 219.841ZM263.906 228.244L263.406 228.244L263.406 229.064L264.135 228.688L263.906 228.244ZM263.906 222.461L263.698 222.006L263.406 222.14L263.406 222.461L263.906 222.461ZM275.647 216.716L264.116 211.389L263.697 212.297L275.228 217.623L275.647 216.716ZM264.406 211.843L264.406 206.078L263.406 206.078L263.406 211.843L264.406 211.843ZM263.677 206.522L279.99 214.925L280.448 214.036L264.135 205.633L263.677 206.522ZM280.219 214.98L289.5 214.98L289.5 213.98L280.219 213.98L280.219 214.98ZM289 214.48L289 219.841L290 219.841L290 214.48L289 214.48ZM289.5 219.341L280.219 219.341L280.219 220.341L289.5 220.341L289.5 219.341ZM279.99 219.397L263.677 227.799L264.135 228.688L280.448 220.286L279.99 219.397ZM264.406 228.244L264.406 222.461L263.406 222.461L263.406 228.244L264.406 228.244ZM264.115 222.915L275.646 217.624L275.229 216.715L263.698 222.006L264.115 222.915ZM278.408 184.381L278.908 184.381L278.908 183.881L278.408 183.881L278.408 184.381ZM278.408 194.506L277.908 194.506L277.908 195.006L278.408 195.006L278.408 194.506ZM285.264 194.506L285.264 195.006L285.764 195.006L285.764 194.506L285.264 194.506ZM285.264 182.624L285.264 182.124L284.764 182.124L284.764 182.624L285.264 182.624ZM289.5 182.624L290 182.624L290 182.124L289.5 182.124L289.5 182.624ZM289.5 199.78L289.5 200.28L290 200.28L290 199.78L289.5 199.78ZM263.906 199.78L263.406 199.78L263.406 200.28L263.906 200.28L263.906 199.78ZM263.906 182.659L263.906 182.159L263.406 182.159L263.406 182.659L263.906 182.659ZM268.178 182.659L268.678 182.659L268.678 182.159L268.178 182.159L268.178 182.659ZM268.178 194.506L267.678 194.506L267.678 195.006L268.178 195.006L268.178 194.506ZM274.277 194.506L274.277 195.006L274.777 195.006L274.777 194.506L274.277 194.506ZM274.277 184.381L274.277 183.881L273.777 183.881L273.777 184.381L274.277 184.381ZM277.908 184.381L277.908 194.506L278.908 194.506L278.908 184.381L277.908 184.381ZM278.408 195.006L285.264 195.006L285.264 194.006L278.408 194.006L278.408 195.006ZM285.764 194.506L285.764 182.624L284.764 182.624L284.764 194.506L285.764 194.506ZM285.264 183.124L289.5 183.124L289.5 182.124L285.264 182.124L285.264 183.124ZM289 182.624L289 199.78L290 199.78L290 182.624L289 182.624ZM289.5 199.28L263.906 199.28L263.906 200.28L289.5 200.28L289.5 199.28ZM264.406 199.78L264.406 182.659L263.406 182.659L263.406 199.78L264.406 199.78ZM263.906 183.159L268.178 183.159L268.178 182.159L263.906 182.159L263.906 183.159ZM267.678 182.659L267.678 194.506L268.678 194.506L268.678 182.659L267.678 182.659ZM268.178 195.006L274.277 195.006L274.277 194.006L268.178 194.006L268.178 195.006ZM274.777 194.506L274.777 184.381L273.777 184.381L273.777 194.506L274.777 194.506ZM274.277 184.881L278.408 184.881L278.408 183.881L274.277 183.881L274.277 184.881ZM285.264 170.296L285.264 170.796L285.764 170.796L285.764 170.296L285.264 170.296ZM285.264 159.099L285.264 158.599L284.764 158.599L284.764 159.099L285.264 159.099ZM289.5 159.099L290 159.099L290 158.599L289.5 158.599L289.5 159.099ZM289.5 175.57L289.5 176.07L290 176.07L290 175.57L289.5 175.57ZM263.906 175.57L263.406 175.57L263.406 176.07L263.906 176.07L263.906 175.57ZM263.906 170.296L263.906 169.796L263.406 169.796L263.406 170.296L263.906 170.296ZM285.764 170.296L285.764 159.099L284.764 159.099L284.764 170.296L285.764 170.296ZM285.264 159.599L289.5 159.599L289.5 158.599L285.264 158.599L285.264 159.599ZM289 159.099L289 175.57L290 175.57L290 159.099L289 159.099ZM289.5 175.07L263.906 175.07L263.906 176.07L289.5 176.07L289.5 175.07ZM264.406 175.57L264.406 170.296L263.406 170.296L263.406 175.57L264.406 175.57ZM263.906 170.796L285.264 170.796L285.264 169.796L263.906 169.796L263.906 170.796ZM285.264 146.825L285.264 147.325L285.764 147.325L285.764 146.825L285.264 146.825ZM285.264 135.627L285.264 135.127L284.764 135.127L284.764 135.627L285.264 135.627ZM289.5 135.627L290 135.627L290 135.127L289.5 135.127L289.5 135.627ZM289.5 152.098L289.5 152.598L290 152.598L290 152.098L289.5 152.098ZM263.906 152.098L263.406 152.098L263.406 152.598L263.906 152.598L263.906 152.098ZM263.906 146.825L263.906 146.325L263.406 146.325L263.406 146.825L263.906 146.825ZM285.764 146.825L285.764 135.627L284.764 135.627L284.764 146.825L285.764 146.825ZM285.264 136.127L289.5 136.127L289.5 135.127L285.264 135.127L285.264 136.127ZM289 135.627L289 152.098L290 152.098L290 135.627L289 135.627ZM289.5 151.598L263.906 151.598L263.906 152.598L289.5 152.598L289.5 151.598ZM264.406 152.098L264.406 146.825L263.406 146.825L263.406 152.098L264.406 152.098ZM263.906 147.325L285.264 147.325L285.264 146.325L263.906 146.325L263.906 147.325ZM288.305 113.896L287.88 114.159L287.881 114.161L288.305 113.896ZM283.963 129.136L284.18 129.587L284.181 129.586L283.963 129.136ZM277.424 130.525L277.424 131.025L277.426 131.025L277.424 130.525ZM269.514 129.171L269.299 129.623L269.3 129.623L269.514 129.171ZM265.102 125.322L265.527 125.059L265.527 125.058L265.102 125.322ZM265.102 113.949L265.526 114.213L265.528 114.21L265.102 113.949ZM269.514 110.099L269.726 110.552L269.729 110.55L269.514 110.099ZM269.988 123.722L270.275 123.313L270.274 123.312L269.988 123.722ZM276.035 125.181L276.033 125.681L276.035 125.681L276.035 125.181ZM283.453 115.513L283.736 115.101L283.734 115.1L283.453 115.513ZM277.371 114.072L277.373 113.572L277.371 113.572L277.371 114.072ZM277.283 109.228C279.744 109.228 281.878 109.663 283.698 110.517L284.123 109.611C282.146 108.684 279.862 108.228 277.283 108.228L277.283 109.228ZM283.698 110.517C285.515 111.369 286.903 112.584 287.88 114.159L288.73 113.633C287.644 111.88 286.102 110.54 284.123 109.611L283.698 110.517ZM287.881 114.161C288.857 115.726 289.352 117.531 289.352 119.591L290.352 119.591C290.352 117.363 289.815 115.371 288.729 113.631L287.881 114.161ZM289.352 119.591C289.352 121.628 288.863 123.429 287.896 125.008L288.749 125.53C289.82 123.781 290.352 121.796 290.352 119.591L289.352 119.591ZM287.896 125.008C286.93 126.584 285.552 127.811 283.745 128.686L284.181 129.586C286.147 128.634 287.675 127.282 288.749 125.53L287.896 125.008ZM283.746 128.686C281.925 129.563 279.82 130.013 277.421 130.025L277.426 131.025C279.949 131.013 282.204 130.538 284.18 129.587L283.746 128.686ZM277.424 130.025L276.158 130.025L276.158 131.025L277.424 131.025L277.424 130.025ZM276.158 130.025C273.698 130.025 271.559 129.585 269.727 128.719L269.3 129.623C271.289 130.563 273.579 131.025 276.158 131.025L276.158 130.025ZM269.728 128.72C267.885 127.843 266.491 126.622 265.527 125.059L264.676 125.584C265.751 127.326 267.299 128.672 269.299 129.623L269.728 128.72ZM265.527 125.058C264.549 123.48 264.055 121.675 264.055 119.626L263.055 119.626C263.055 121.844 263.592 123.835 264.677 125.585L265.527 125.058ZM264.055 119.626C264.055 117.578 264.549 115.779 265.526 114.213L264.677 113.684C263.592 115.423 263.055 117.409 263.055 119.626L264.055 119.626ZM265.528 114.21C266.492 112.636 267.885 111.416 269.726 110.552L269.301 109.646C267.299 110.587 265.75 111.933 264.675 113.687L265.528 114.21ZM269.729 110.55C271.561 109.674 273.694 109.228 276.141 109.228L276.141 108.228C273.572 108.228 271.287 108.696 269.298 109.648L269.729 110.55ZM276.141 109.228L277.283 109.228L277.283 108.228L276.141 108.228L276.141 109.228ZM276.123 113.572C273.393 113.572 271.236 114.058 269.722 115.101L270.29 115.925C271.565 115.046 273.486 114.572 276.123 114.572L276.123 113.572ZM269.722 115.101C268.184 116.161 267.414 117.691 267.414 119.626L268.414 119.626C268.414 118 269.039 116.787 270.29 115.925L269.722 115.101ZM267.414 119.626C267.414 121.55 268.178 123.073 269.703 124.133L270.274 123.312C269.033 122.45 268.414 121.242 268.414 119.626L267.414 119.626ZM269.701 124.132C271.192 125.176 273.326 125.669 276.033 125.681L276.037 124.681C273.424 124.67 271.527 124.19 270.275 123.313L269.701 124.132ZM276.035 125.681L277.283 125.681L277.283 124.681L276.035 124.681L276.035 125.681ZM277.283 125.681C279.948 125.681 282.087 125.193 283.643 124.156L283.088 123.324C281.761 124.209 279.845 124.681 277.283 124.681L277.283 125.681ZM283.643 124.156C285.23 123.097 286.027 121.555 286.027 119.591L285.027 119.591C285.027 121.237 284.383 122.46 283.088 123.324L283.643 124.156ZM286.027 119.591C286.027 117.668 285.263 116.149 283.736 115.101L283.17 115.925C284.408 116.775 285.027 117.976 285.027 119.591L286.027 119.591ZM283.734 115.1C282.223 114.071 280.08 113.584 277.373 113.572L277.369 114.572C279.982 114.583 281.895 115.057 283.172 115.926L283.734 115.1ZM277.371 113.572L276.123 113.572L276.123 114.572L277.371 114.572L277.371 113.572ZM282.117 81.0023L282.23 81.4896L282.21 80.5111L282.117 81.0023ZM263.906 77.557L263.406 77.557L263.406 77.9713L263.813 78.0483L263.906 77.557ZM263.906 72.3012L264.015 71.813L263.406 71.6781L263.406 72.3012L263.906 72.3012ZM289.5 77.9789L290 77.9789L290 77.5777L289.608 77.4908L289.5 77.9789ZM289.5 83.2875L289.618 83.7733L290 83.6804L290 83.2875L289.5 83.2875ZM272.379 87.4535L272.261 86.9677L272.261 87.9393L272.379 87.4535ZM289.5 91.6195L290 91.6195L290 91.2266L289.618 91.1337L289.5 91.6195ZM289.5 96.9281L289.608 97.4163L290 97.3294L290 96.9281L289.5 96.9281ZM263.906 102.606L263.406 102.606L263.406 103.229L264.015 103.094L263.906 102.606ZM263.906 97.35L263.813 96.8588L263.406 96.9363L263.406 97.35L263.906 97.35ZM282.082 93.8871L282.176 94.3783L282.195 93.4001L282.082 93.8871ZM263.906 89.6684L263.406 89.6684L263.406 90.0656L263.793 90.1554L263.906 89.6684ZM263.906 85.2035L263.794 84.7163L263.406 84.8057L263.406 85.2035L263.906 85.2035ZM282.21 80.5111L263.999 77.0658L263.813 78.0483L282.024 81.4936L282.21 80.5111ZM264.406 77.557L264.406 72.3012L263.406 72.3012L263.406 77.557L264.406 77.557ZM263.798 72.7893L289.392 78.467L289.608 77.4908L264.015 71.813L263.798 72.7893ZM289 77.9789L289 83.2875L290 83.2875L290 77.9789L289 77.9789ZM289.382 82.8017L272.261 86.9677L272.497 87.9393L289.618 83.7733L289.382 82.8017ZM272.261 87.9393L289.382 92.1054L289.618 91.1337L272.497 86.9677L272.261 87.9393ZM289 91.6195L289 96.9281L290 96.9281L290 91.6195L289 91.6195ZM289.392 96.44L263.798 102.118L264.015 103.094L289.608 97.4163L289.392 96.44ZM264.406 102.606L264.406 97.35L263.406 97.35L263.406 102.606L264.406 102.606ZM264 97.8412L282.176 94.3783L281.988 93.3959L263.813 96.8588L264 97.8412ZM282.195 93.4001L264.019 89.1813L263.793 90.1554L281.969 94.3742L282.195 93.4001ZM264.406 89.6684L264.406 85.2035L263.406 85.2035L263.406 89.6684L264.406 89.6684ZM264.019 85.6907L282.23 81.4896L282.005 80.5151L263.794 84.7163L264.019 85.6907Z" fill="#DCCE00"/>
</g>
<path d="M28.0078 265.703V285H14.2969V228.125H36.9922C41.3411 228.125 45.1823 228.932 48.5156 230.547C51.875 232.135 54.4661 234.414 56.2891 237.383C58.138 240.326 59.0625 243.672 59.0625 247.422C59.0625 252.969 57.0703 257.409 53.0859 260.742C49.1276 264.049 43.6849 265.703 36.7578 265.703H28.0078ZM28.0078 255.117H36.9922C39.6484 255.117 41.6667 254.453 43.0469 253.125C44.4531 251.797 45.1562 249.922 45.1562 247.5C45.1562 244.844 44.4401 242.721 43.0078 241.133C41.5755 239.544 39.6224 238.737 37.1484 238.711H28.0078V255.117ZM77.393 273.908H67.268V280.764H79.1508V285H61.9945V259.406H79.1156V263.678H67.268V269.777H77.393V273.908ZM107.017 285H101.744L91.478 268.16V285H86.2045V259.406H91.478L101.761 276.281V259.406H107.017V285ZM135.674 276.475C135.475 279.229 134.456 281.396 132.616 282.979C130.788 284.561 128.374 285.352 125.374 285.352C122.092 285.352 119.508 284.25 117.622 282.047C115.747 279.832 114.809 276.797 114.809 272.941V271.377C114.809 268.916 115.243 266.748 116.11 264.873C116.977 262.998 118.213 261.562 119.819 260.566C121.436 259.559 123.311 259.055 125.444 259.055C128.397 259.055 130.776 259.846 132.581 261.428C134.385 263.01 135.428 265.23 135.709 268.09H130.436C130.307 266.438 129.844 265.242 129.047 264.504C128.262 263.754 127.061 263.379 125.444 263.379C123.686 263.379 122.368 264.012 121.489 265.277C120.622 266.531 120.176 268.482 120.153 271.131V273.064C120.153 275.83 120.569 277.852 121.401 279.129C122.245 280.406 123.569 281.045 125.374 281.045C127.002 281.045 128.215 280.676 129.012 279.938C129.821 279.188 130.284 278.033 130.401 276.475H135.674ZM148.705 285H143.431V259.406H148.705V285ZM162.842 280.764H174.04V285H157.569V259.406H162.842V280.764Z" fill="black"/>
<path d="M68.3851 28.8535C68.3851 28.1445 68.1361 27.585 67.638 27.1748C67.14 26.7588 66.2289 26.3662 64.9046 25.9971C63.5804 25.6221 62.6136 25.2148 62.0043 24.7754C61.1371 24.1543 60.7035 23.3398 60.7035 22.332C60.7035 21.3535 61.1048 20.5596 61.9076 19.9502C62.7162 19.335 63.7474 19.0273 65.0013 19.0273C65.8509 19.0273 66.6097 19.1914 67.2777 19.5195C67.9515 19.8477 68.473 20.3047 68.8421 20.8906C69.2113 21.4766 69.3959 22.1299 69.3959 22.8506H68.306C68.306 21.9775 68.0072 21.2773 67.4095 20.75C66.8119 20.2168 66.0091 19.9502 65.0013 19.9502C64.0228 19.9502 63.2435 20.1699 62.6634 20.6094C62.0834 21.043 61.7933 21.6113 61.7933 22.3145C61.7933 22.9648 62.0541 23.4951 62.5755 23.9053C63.097 24.3154 63.932 24.6787 65.0804 24.9951C66.2289 25.3057 67.099 25.6309 67.6908 25.9707C68.2826 26.3047 68.7279 26.7061 69.0267 27.1748C69.3255 27.6436 69.475 28.1973 69.475 28.8359C69.475 29.8438 69.0707 30.6523 68.2621 31.2617C67.4593 31.8711 66.3988 32.1758 65.0804 32.1758C64.1781 32.1758 63.349 32.0146 62.5931 31.6924C61.8431 31.3701 61.2718 30.9189 60.8793 30.3389C60.4925 29.7588 60.2992 29.0938 60.2992 28.3438H61.3802C61.3802 29.2461 61.7171 29.958 62.391 30.4795C63.0648 31.001 63.9613 31.2617 65.0804 31.2617C66.0765 31.2617 66.8763 31.042 67.4798 30.6025C68.0834 30.1631 68.3851 29.5801 68.3851 28.8535ZM82.8544 28.0098C82.7079 29.3574 82.2245 30.3887 81.4042 31.1035C80.5897 31.8184 79.5028 32.1758 78.1434 32.1758C77.1942 32.1758 76.3534 31.9385 75.621 31.4639C74.8944 30.9893 74.3319 30.3184 73.9335 29.4512C73.535 28.5781 73.3329 27.582 73.327 26.4629V24.8018C73.327 23.665 73.5262 22.6572 73.9247 21.7783C74.3231 20.8994 74.8944 20.2227 75.6385 19.748C76.3885 19.2676 77.2499 19.0273 78.2225 19.0273C79.5936 19.0273 80.6747 19.3994 81.4657 20.1436C82.2626 20.8818 82.7255 21.9043 82.8544 23.2109H81.7645C81.495 21.0371 80.3143 19.9502 78.2225 19.9502C77.0624 19.9502 76.1366 20.3838 75.4452 21.251C74.7596 22.1182 74.4169 23.3164 74.4169 24.8457V26.4102C74.4169 27.8867 74.7509 29.0645 75.4188 29.9434C76.0927 30.8223 77.0009 31.2617 78.1434 31.2617C79.2743 31.2617 80.1268 30.9922 80.701 30.4531C81.2753 29.9082 81.6298 29.0938 81.7645 28.0098H82.8544ZM96.9457 32H95.8559V25.8652H88.5434V32H87.4623V19.2031H88.5434V24.9512H95.8559V19.2031H96.9457V32ZM111.643 26.2959C111.643 27.4736 111.438 28.5078 111.028 29.3984C110.624 30.2891 110.044 30.9746 109.288 31.4551C108.532 31.9355 107.659 32.1758 106.669 32.1758C105.175 32.1758 103.968 31.6426 103.048 30.5762C102.128 29.5039 101.668 28.0596 101.668 26.2432V24.9248C101.668 23.7588 101.873 22.7275 102.283 21.8311C102.699 20.9287 103.285 20.2373 104.041 19.7568C104.797 19.2705 105.667 19.0273 106.651 19.0273C107.636 19.0273 108.503 19.2646 109.253 19.7393C110.009 20.2139 110.592 20.8848 111.002 21.752C111.412 22.6191 111.626 23.624 111.643 24.7666V26.2959ZM110.562 24.9072C110.562 23.3662 110.214 22.1592 109.517 21.2861C108.819 20.4131 107.864 19.9766 106.651 19.9766C105.462 19.9766 104.513 20.416 103.804 21.2949C103.101 22.168 102.749 23.3896 102.749 24.96V26.2959C102.749 27.8135 103.101 29.0176 103.804 29.9082C104.507 30.793 105.462 31.2354 106.669 31.2354C107.893 31.2354 108.849 30.7988 109.534 29.9258C110.22 29.0469 110.562 27.8252 110.562 26.2607V24.9072ZM125.805 26.2959C125.805 27.4736 125.6 28.5078 125.19 29.3984C124.786 30.2891 124.206 30.9746 123.45 31.4551C122.694 31.9355 121.821 32.1758 120.831 32.1758C119.336 32.1758 118.129 31.6426 117.209 30.5762C116.289 29.5039 115.83 28.0596 115.83 26.2432V24.9248C115.83 23.7588 116.035 22.7275 116.445 21.8311C116.861 20.9287 117.447 20.2373 118.203 19.7568C118.958 19.2705 119.829 19.0273 120.813 19.0273C121.797 19.0273 122.664 19.2646 123.414 19.7393C124.17 20.2139 124.753 20.8848 125.164 21.752C125.574 22.6191 125.788 23.624 125.805 24.7666V26.2959ZM124.724 24.9072C124.724 23.3662 124.375 22.1592 123.678 21.2861C122.981 20.4131 122.026 19.9766 120.813 19.9766C119.623 19.9766 118.674 20.416 117.965 21.2949C117.262 22.168 116.911 23.3896 116.911 24.96V26.2959C116.911 27.8135 117.262 29.0176 117.965 29.9082C118.668 30.793 119.623 31.2354 120.831 31.2354C122.055 31.2354 123.01 30.7988 123.696 29.9258C124.381 29.0469 124.724 27.8252 124.724 26.2607V24.9072ZM131.6 31.0859H137.919V32H130.51V19.2031H131.6V31.0859ZM155.581 28.8535C155.581 28.1445 155.332 27.585 154.834 27.1748C154.336 26.7588 153.425 26.3662 152.101 25.9971C150.776 25.6221 149.81 25.2148 149.2 24.7754C148.333 24.1543 147.899 23.3398 147.899 22.332C147.899 21.3535 148.301 20.5596 149.104 19.9502C149.912 19.335 150.943 19.0273 152.197 19.0273C153.047 19.0273 153.806 19.1914 154.474 19.5195C155.147 19.8477 155.669 20.3047 156.038 20.8906C156.407 21.4766 156.592 22.1299 156.592 22.8506H155.502C155.502 21.9775 155.203 21.2773 154.605 20.75C154.008 20.2168 153.205 19.9502 152.197 19.9502C151.219 19.9502 150.439 20.1699 149.859 20.6094C149.279 21.043 148.989 21.6113 148.989 22.3145C148.989 22.9648 149.25 23.4951 149.771 23.9053C150.293 24.3154 151.128 24.6787 152.276 24.9951C153.425 25.3057 154.295 25.6309 154.887 25.9707C155.479 26.3047 155.924 26.7061 156.223 27.1748C156.521 27.6436 156.671 28.1973 156.671 28.8359C156.671 29.8438 156.267 30.6523 155.458 31.2617C154.655 31.8711 153.595 32.1758 152.276 32.1758C151.374 32.1758 150.545 32.0146 149.789 31.6924C149.039 31.3701 148.468 30.9189 148.075 30.3389C147.688 29.7588 147.495 29.0938 147.495 28.3438H148.576C148.576 29.2461 148.913 29.958 149.587 30.4795C150.261 31.001 151.157 31.2617 152.276 31.2617C153.272 31.2617 154.072 31.042 154.676 30.6025C155.279 30.1631 155.581 29.5801 155.581 28.8535ZM169.804 19.2031V27.9395C169.798 28.8008 169.608 29.5508 169.233 30.1895C168.858 30.8281 168.328 31.3203 167.642 31.666C166.962 32.0059 166.18 32.1758 165.295 32.1758C163.948 32.1758 162.867 31.8096 162.052 31.0771C161.244 30.3389 160.825 29.3193 160.795 28.0186V19.2031H161.868V27.8604C161.868 28.9385 162.175 29.7764 162.791 30.374C163.406 30.9658 164.241 31.2617 165.295 31.2617C166.35 31.2617 167.182 30.9629 167.792 30.3652C168.407 29.7676 168.714 28.9355 168.714 27.8691V19.2031H169.804ZM175.88 26.7881V32H174.799V19.2031H179.158C180.488 19.2031 181.537 19.543 182.305 20.2227C183.078 20.9023 183.465 21.8369 183.465 23.0264C183.465 24.2275 183.093 25.1562 182.349 25.8125C181.61 26.4629 180.538 26.7881 179.132 26.7881H175.88ZM175.88 25.874H179.158C180.207 25.874 181.007 25.625 181.558 25.127C182.108 24.6289 182.384 23.9346 182.384 23.0439C182.384 22.1592 182.108 21.4561 181.558 20.9346C181.013 20.4072 180.236 20.1377 179.229 20.126H175.88V25.874ZM188.952 26.7881V32H187.871V19.2031H192.23C193.56 19.2031 194.609 19.543 195.377 20.2227C196.15 20.9023 196.537 21.8369 196.537 23.0264C196.537 24.2275 196.165 25.1562 195.42 25.8125C194.682 26.4629 193.61 26.7881 192.204 26.7881H188.952ZM188.952 25.874H192.23C193.279 25.874 194.079 25.625 194.629 25.127C195.18 24.6289 195.456 23.9346 195.456 23.0439C195.456 22.1592 195.18 21.4561 194.629 20.9346C194.085 20.4072 193.308 20.1377 192.3 20.126H188.952V25.874ZM202.032 31.0859H208.352V32H200.942V19.2031H202.032V31.0859ZM213.733 32H212.652V19.2031H213.733V32ZM226.26 25.8652H220.275V31.0859H227.156V32H219.193V19.2031H227.112V20.126H220.275V24.9512H226.26V25.8652ZM238.664 28.8535C238.664 28.1445 238.415 27.585 237.917 27.1748C237.419 26.7588 236.507 26.3662 235.183 25.9971C233.859 25.6221 232.892 25.2148 232.283 24.7754C231.416 24.1543 230.982 23.3398 230.982 22.332C230.982 21.3535 231.383 20.5596 232.186 19.9502C232.995 19.335 234.026 19.0273 235.28 19.0273C236.13 19.0273 236.888 19.1914 237.556 19.5195C238.23 19.8477 238.752 20.3047 239.121 20.8906C239.49 21.4766 239.674 22.1299 239.674 22.8506H238.585C238.585 21.9775 238.286 21.2773 237.688 20.75C237.09 20.2168 236.288 19.9502 235.28 19.9502C234.301 19.9502 233.522 20.1699 232.942 20.6094C232.362 21.043 232.072 21.6113 232.072 22.3145C232.072 22.9648 232.333 23.4951 232.854 23.9053C233.376 24.3154 234.211 24.6787 235.359 24.9951C236.507 25.3057 237.378 25.6309 237.969 25.9707C238.561 26.3047 239.006 26.7061 239.305 27.1748C239.604 27.6436 239.754 28.1973 239.754 28.8359C239.754 29.8438 239.349 30.6523 238.541 31.2617C237.738 31.8711 236.677 32.1758 235.359 32.1758C234.457 32.1758 233.628 32.0146 232.872 31.6924C232.122 31.3701 231.55 30.9189 231.158 30.3389C230.771 29.7588 230.578 29.0938 230.578 28.3438H231.659C231.659 29.2461 231.996 29.958 232.67 30.4795C233.343 31.001 234.24 31.2617 235.359 31.2617C236.355 31.2617 237.155 31.042 237.758 30.6025C238.362 30.1631 238.664 29.5801 238.664 28.8535Z" fill="black"/>
<g clip-path="url(#clip0)">
<path fill-rule="evenodd" clip-rule="evenodd" d="M60.7582 179.706C60.7316 179.72 60.7046 179.734 60.6806 179.747C60.7086 179.732 60.7347 179.718 60.7582 179.706Z" fill="black"/>
<path fill-rule="evenodd" clip-rule="evenodd" d="M60.8957 179.632C60.6848 179.746 60.5777 179.804 60.5431 179.822C60.5917 179.797 60.7429 179.714 60.8957 179.632Z" fill="black"/>
<path fill-rule="evenodd" clip-rule="evenodd" d="M235.258 95.7195L229.93 85.8971L67.4433 174.098L72.7709 183.921L235.258 95.7195Z" fill="#FFC100"/>
<path fill-rule="evenodd" clip-rule="evenodd" d="M72.8537 184.149L71.6191 184.821L70.9681 185.173L69.0674 186.204L68.4195 186.554L66.8658 187.397L61.4325 177.385L62.9542 176.561L63.6021 176.211L65.5024 175.179L66.1534 174.827L67.4205 174.138L72.8537 184.149Z" fill="#AFAFAF"/>
<path fill-rule="evenodd" clip-rule="evenodd" d="M249.991 82.1368C249.884 81.9403 230.232 86.3685 230.232 86.3685L235.675 96.4021C235.675 96.4021 250.098 82.3337 249.991 82.1368Z" fill="#FF924A"/>
<path fill-rule="evenodd" clip-rule="evenodd" d="M66.8285 187.445L63.7732 181.796L62.399 179.251L61.4081 177.418L54.6471 181.096C53.4217 181.762 52.7966 182.985 53.252 183.829L53.4309 184.156L54.8051 186.701L57.0198 190.804C57.4793 191.644 58.8421 191.789 60.0671 191.122L66.8285 187.445Z" fill="#FF7B7A"/>
<path fill-rule="evenodd" clip-rule="evenodd" d="M57.582 184.695L63.5826 181.413L61.9478 178.404L55.9479 181.686L57.582 184.695Z" fill="white"/>
<path fill-rule="evenodd" clip-rule="evenodd" d="M62.8936 180.134L61.4 177.403L230.292 85.7863L249.962 82.0834L231.813 88.5024L62.8936 180.134Z" fill="#FFEAA0"/>
<path fill-rule="evenodd" clip-rule="evenodd" d="M65.7533 185.363L67.1137 187.85L236.035 96.2053L249.962 82.0834L234.678 93.7162L65.7533 185.363Z" fill="black"/>
<path fill-rule="evenodd" clip-rule="evenodd" d="M249.97 82.0978C249.862 81.9003 246.41 82.725 246.41 82.725L247.53 84.7146C247.53 84.7146 250.077 82.2958 249.97 82.0978Z" fill="#282828"/>
<path fill-rule="evenodd" clip-rule="evenodd" d="M71.8146 184.718L70.9516 185.186L65.4761 175.174L66.3391 174.706L71.8146 184.718Z" fill="black"/>
<path fill-rule="evenodd" clip-rule="evenodd" d="M68.8081 186.362L67.9491 186.828L62.4736 176.816L63.3326 176.35L68.8081 186.362Z" fill="black"/>
</g>
<defs>
<filter id="filter0_d" x="262.055" y="70.6781" width="31.2969" height="161.386" filterUnits="userSpaceOnUse" color-interpolation-filters="sRGB">
<feFlood flood-opacity="0" result="BackgroundImageFix"/>
<feColorMatrix in="SourceAlpha" type="matrix" values="0 0 0 0 0 0 0 0 0 0 0 0 0 0 0 0 0 0 127 0"/>
<feOffset dx="1" dy="1"/>
<feGaussianBlur stdDeviation="1"/>
<feColorMatrix type="matrix" values="0 0 0 0 0 0 0 0 0 0 0 0 0 0 0 0 0 0 0.15 0"/>
<feBlend mode="normal" in2="BackgroundImageFix" result="effect1_dropShadow"/>
<feBlend mode="normal" in="SourceGraphic" in2="effect1_dropShadow" result="shape"/>
</filter>
<radialGradient id="paint0_radial" cx="0" cy="0" r="1" gradientUnits="userSpaceOnUse" gradientTransform="translate(150 150) rotate(90) scale(150)">
<stop offset="0.369792" stop-color="white" stop-opacity="0"/>
<stop offset="1" stop-color="#FFFF00"/>
</radialGradient>
<clipPath id="clip0">
<rect width="194.052" height="117.573" fill="white" transform="translate(49.3394 186.819) rotate(-58.6746)"/>
</clipPath>
</defs>
</svg>
