<svg width="300" height="300" viewBox="0 0 300 300" fill="none" xmlns="http://www.w3.org/2000/svg">
<rect width="300" height="300" fill="white"/>
<rect width="300" height="300" fill="white"/>
<rect width="300" height="300" fill="white"/>
<rect width="300" height="300" fill="url(#paint0_radial)" fill-opacity="0.09"/>
<g filter="url(#filter0_d)">
<path d="M280.131 175.528L280.131 179.73L289.5 179.73L289.5 185.003L263.906 185.003L263.906 175.493C263.906 172.47 264.58 170.138 265.928 168.497C267.275 166.856 269.18 166.036 271.641 166.036C273.387 166.036 274.846 166.417 276.018 167.179C277.178 167.929 278.104 169.071 278.795 170.606L289.254 165.069L289.5 165.069L289.5 170.73L280.131 175.528ZM275.859 179.73L275.859 175.476C275.859 174.151 275.525 173.126 274.857 172.399C274.178 171.673 273.246 171.31 272.062 171.31C270.855 171.31 269.906 171.655 269.215 172.347C268.523 173.026 268.178 174.075 268.178 175.493L268.178 179.73L275.859 179.73ZM278.408 142.652L278.408 152.777L285.264 152.777L285.264 140.895L289.5 140.895L289.5 158.051L263.906 158.051L263.906 140.93L268.178 140.93L268.178 152.777L274.277 152.777L274.277 142.652L278.408 142.652ZM289.5 133.841L263.906 133.841L263.906 125.966C263.906 123.716 264.416 121.706 265.436 119.936C266.443 118.155 267.885 116.767 269.76 115.77C271.623 114.774 273.744 114.276 276.123 114.276L277.301 114.276C279.68 114.276 281.795 114.769 283.646 115.753C285.498 116.726 286.934 118.103 287.953 119.884C288.973 121.665 289.488 123.675 289.5 125.913L289.5 133.841ZM268.178 128.567L285.264 128.567L285.264 126.019C285.264 123.956 284.59 122.38 283.242 121.29C281.895 120.2 279.967 119.644 277.459 119.62L276.105 119.62C273.504 119.62 271.535 120.159 270.199 121.237C268.852 122.315 268.178 123.892 268.178 125.966L268.178 128.567Z" fill="white"/>
<path d="M280.131 175.528L279.903 175.083L279.631 175.223L279.631 175.528L280.131 175.528ZM280.131 179.73L279.631 179.73L279.631 180.23L280.131 180.23L280.131 179.73ZM289.5 179.73L290 179.73L290 179.23L289.5 179.23L289.5 179.73ZM289.5 185.003L289.5 185.503L290 185.503L290 185.003L289.5 185.003ZM263.906 185.003L263.406 185.003L263.406 185.503L263.906 185.503L263.906 185.003ZM276.018 167.179L275.745 167.598L275.746 167.599L276.018 167.179ZM278.795 170.606L278.339 170.812L278.558 171.298L279.029 171.048L278.795 170.606ZM289.254 165.069L289.254 164.569L289.13 164.569L289.02 164.627L289.254 165.069ZM289.5 165.069L290 165.069L290 164.569L289.5 164.569L289.5 165.069ZM289.5 170.73L289.728 171.175L290 171.035L290 170.73L289.5 170.73ZM275.859 179.73L275.859 180.23L276.359 180.23L276.359 179.73L275.859 179.73ZM274.857 172.399L275.226 172.061L275.223 172.058L274.857 172.399ZM269.215 172.347L269.565 172.703L269.568 172.7L269.215 172.347ZM268.178 179.73L267.678 179.73L267.678 180.23L268.178 180.23L268.178 179.73ZM279.631 175.528L279.631 179.73L280.631 179.73L280.631 175.528L279.631 175.528ZM280.131 180.23L289.5 180.23L289.5 179.23L280.131 179.23L280.131 180.23ZM289 179.73L289 185.003L290 185.003L290 179.73L289 179.73ZM289.5 184.503L263.906 184.503L263.906 185.503L289.5 185.503L289.5 184.503ZM264.406 185.003L264.406 175.493L263.406 175.493L263.406 185.003L264.406 185.003ZM264.406 175.493C264.406 172.537 265.066 170.334 266.314 168.814L265.541 168.18C264.095 169.941 263.406 172.402 263.406 175.493L264.406 175.493ZM266.314 168.814C267.551 167.309 269.303 166.536 271.641 166.536L271.641 165.536C269.057 165.536 267 166.404 265.541 168.18L266.314 168.814ZM271.641 166.536C273.314 166.536 274.672 166.901 275.745 167.598L276.29 166.76C275.019 165.933 273.459 165.536 271.641 165.536L271.641 166.536ZM275.746 167.599C276.809 168.286 277.678 169.345 278.339 170.812L279.251 170.401C278.529 168.798 277.546 167.572 276.289 166.759L275.746 167.599ZM279.029 171.048L289.488 165.511L289.02 164.627L278.561 170.165L279.029 171.048ZM289.254 165.569L289.5 165.569L289.5 164.569L289.254 164.569L289.254 165.569ZM289 165.069L289 170.73L290 170.73L290 165.069L289 165.069ZM289.272 170.285L279.903 175.083L280.359 175.973L289.728 171.175L289.272 170.285ZM276.359 179.73L276.359 175.476L275.359 175.476L275.359 179.73L276.359 179.73ZM276.359 175.476C276.359 174.07 276.004 172.908 275.226 172.061L274.489 172.738C275.047 173.344 275.359 174.233 275.359 175.476L276.359 175.476ZM275.223 172.058C274.43 171.211 273.356 170.81 272.062 170.81L272.062 171.81C273.136 171.81 273.925 172.135 274.492 172.741L275.223 172.058ZM272.062 170.81C270.756 170.81 269.667 171.187 268.861 171.993L269.568 172.7C270.145 172.124 270.955 171.81 272.062 171.81L272.062 170.81ZM268.864 171.99C268.041 172.8 267.678 174.003 267.678 175.493L268.678 175.493C268.678 174.147 269.006 173.253 269.565 172.703L268.864 171.99ZM267.678 175.493L267.678 179.73L268.678 179.73L268.678 175.493L267.678 175.493ZM268.178 180.23L275.859 180.23L275.859 179.23L268.178 179.23L268.178 180.23ZM278.408 142.652L278.908 142.652L278.908 142.152L278.408 142.152L278.408 142.652ZM278.408 152.777L277.908 152.777L277.908 153.277L278.408 153.277L278.408 152.777ZM285.264 152.777L285.264 153.277L285.764 153.277L285.764 152.777L285.264 152.777ZM285.264 140.895L285.264 140.395L284.764 140.395L284.764 140.895L285.264 140.895ZM289.5 140.895L290 140.895L290 140.395L289.5 140.395L289.5 140.895ZM289.5 158.051L289.5 158.551L290 158.551L290 158.051L289.5 158.051ZM263.906 158.051L263.406 158.051L263.406 158.551L263.906 158.551L263.906 158.051ZM263.906 140.93L263.906 140.43L263.406 140.43L263.406 140.93L263.906 140.93ZM268.178 140.93L268.678 140.93L268.678 140.43L268.178 140.43L268.178 140.93ZM268.178 152.777L267.678 152.777L267.678 153.277L268.178 153.277L268.178 152.777ZM274.277 152.777L274.277 153.277L274.777 153.277L274.777 152.777L274.277 152.777ZM274.277 142.652L274.277 142.152L273.777 142.152L273.777 142.652L274.277 142.652ZM277.908 142.652L277.908 152.777L278.908 152.777L278.908 142.652L277.908 142.652ZM278.408 153.277L285.264 153.277L285.264 152.277L278.408 152.277L278.408 153.277ZM285.764 152.777L285.764 140.895L284.764 140.895L284.764 152.777L285.764 152.777ZM285.264 141.395L289.5 141.395L289.5 140.395L285.264 140.395L285.264 141.395ZM289 140.895L289 158.051L290 158.051L290 140.895L289 140.895ZM289.5 157.551L263.906 157.551L263.906 158.551L289.5 158.551L289.5 157.551ZM264.406 158.051L264.406 140.93L263.406 140.93L263.406 158.051L264.406 158.051ZM263.906 141.43L268.178 141.43L268.178 140.43L263.906 140.43L263.906 141.43ZM267.678 140.93L267.678 152.777L268.678 152.777L268.678 140.93L267.678 140.93ZM268.178 153.277L274.277 153.277L274.277 152.277L268.178 152.277L268.178 153.277ZM274.777 152.777L274.777 142.652L273.777 142.652L273.777 152.777L274.777 152.777ZM274.277 143.152L278.408 143.152L278.408 142.152L274.277 142.152L274.277 143.152ZM289.5 133.841L289.5 134.341L290 134.341L290 133.841L289.5 133.841ZM263.906 133.841L263.406 133.841L263.406 134.341L263.906 134.341L263.906 133.841ZM265.436 119.936L265.869 120.186L265.871 120.183L265.436 119.936ZM269.76 115.77L269.994 116.212L269.995 116.211L269.76 115.77ZM283.646 115.753L283.412 116.194L283.414 116.196L283.646 115.753ZM289.5 125.913L290 125.913L290 125.91L289.5 125.913ZM268.178 128.567L267.678 128.567L267.678 129.067L268.178 129.067L268.178 128.567ZM285.264 128.567L285.264 129.067L285.764 129.067L285.764 128.567L285.264 128.567ZM277.459 119.62L277.464 119.12L277.459 119.12L277.459 119.62ZM270.199 121.237L270.512 121.628L270.513 121.626L270.199 121.237ZM289.5 133.341L263.906 133.341L263.906 134.341L289.5 134.341L289.5 133.341ZM264.406 133.841L264.406 125.966L263.406 125.966L263.406 133.841L264.406 133.841ZM264.406 125.966C264.406 123.794 264.897 121.872 265.869 120.186L265.002 119.687C263.935 121.54 263.406 123.637 263.406 125.966L264.406 125.966ZM265.871 120.183C266.83 118.488 268.2 117.165 269.994 116.212L269.525 115.329C267.569 116.368 266.057 117.823 265 119.69L265.871 120.183ZM269.995 116.211C271.778 115.259 273.816 114.776 276.123 114.776L276.123 113.776C273.672 113.776 271.469 114.29 269.524 115.33L269.995 116.211ZM276.123 114.776L277.301 114.776L277.301 113.776L276.123 113.776L276.123 114.776ZM277.301 114.776C279.609 114.776 281.642 115.253 283.412 116.194L283.881 115.311C281.948 114.284 279.75 113.776 277.301 113.776L277.301 114.776ZM283.414 116.196C285.183 117.125 286.548 118.435 287.519 120.132L288.387 119.635C287.319 117.77 285.813 116.326 283.879 115.31L283.414 116.196ZM287.519 120.132C288.492 121.832 288.989 123.756 289 125.916L290 125.91C289.988 123.594 289.453 121.498 288.387 119.635L287.519 120.132ZM289 125.913L289 133.841L290 133.841L290 125.913L289 125.913ZM268.178 129.067L285.264 129.067L285.264 128.067L268.178 128.067L268.178 129.067ZM285.764 128.567L285.764 126.019L284.764 126.019L284.764 128.567L285.764 128.567ZM285.764 126.019C285.764 123.837 285.044 122.104 283.557 120.901L282.928 121.679C284.135 122.655 284.764 124.075 284.764 126.019L285.764 126.019ZM283.557 120.901C282.089 119.715 280.035 119.144 277.464 119.12L277.454 120.12C279.898 120.143 281.7 120.686 282.928 121.679L283.557 120.901ZM277.459 119.12L276.105 119.12L276.105 120.12L277.459 120.12L277.459 119.12ZM276.105 119.12C273.446 119.12 271.346 119.67 269.885 120.848L270.513 121.626C271.725 120.649 273.562 120.12 276.105 120.12L276.105 119.12ZM269.887 120.847C268.396 122.039 267.678 123.774 267.678 125.966L268.678 125.966C268.678 124.009 269.307 122.592 270.512 121.628L269.887 120.847ZM267.678 125.966L267.678 128.567L268.678 128.567L268.678 125.966L267.678 125.966Z" fill="#B50000"/>
</g>
<path d="M28.0078 265.703V285H14.2969V228.125H36.9922C41.3411 228.125 45.1823 228.932 48.5156 230.547C51.875 232.135 54.4661 234.414 56.2891 237.383C58.138 240.326 59.0625 243.672 59.0625 247.422C59.0625 252.969 57.0703 257.409 53.0859 260.742C49.1276 264.049 43.6849 265.703 36.7578 265.703H28.0078ZM28.0078 255.117H36.9922C39.6484 255.117 41.6667 254.453 43.0469 253.125C44.4531 251.797 45.1562 249.922 45.1562 247.5C45.1562 244.844 44.4401 242.721 43.0078 241.133C41.5755 239.544 39.6224 238.737 37.1484 238.711H28.0078V255.117ZM70.802 285H65.5285V259.406H70.802V285ZM94.0719 279.727H84.8258L83.068 285H77.4605L86.9879 259.406H91.8746L101.455 285H95.8473L94.0719 279.727ZM86.2496 275.455H92.648L89.4313 265.875L86.2496 275.455ZM128.258 285H122.984L112.719 268.16V285H107.445V259.406H112.719L123.002 276.281V259.406H128.258V285ZM157.487 272.783C157.487 275.303 157.041 277.512 156.151 279.41C155.26 281.309 153.983 282.773 152.319 283.805C150.666 284.836 148.768 285.352 146.623 285.352C144.502 285.352 142.61 284.842 140.946 283.822C139.282 282.803 137.993 281.35 137.079 279.463C136.164 277.564 135.702 275.385 135.69 272.924V271.658C135.69 269.139 136.141 266.924 137.043 265.014C137.957 263.092 139.241 261.621 140.893 260.602C142.557 259.57 144.455 259.055 146.588 259.055C148.721 259.055 150.614 259.57 152.266 260.602C153.93 261.621 155.213 263.092 156.116 265.014C157.03 266.924 157.487 269.133 157.487 271.641V272.783ZM152.143 271.623C152.143 268.939 151.662 266.9 150.702 265.506C149.741 264.111 148.37 263.414 146.588 263.414C144.819 263.414 143.454 264.105 142.493 265.488C141.532 266.859 141.045 268.875 141.034 271.535V272.783C141.034 275.396 141.514 277.424 142.475 278.865C143.436 280.307 144.819 281.027 146.623 281.027C148.393 281.027 149.752 280.336 150.702 278.953C151.651 277.559 152.131 275.531 152.143 272.871V271.623Z" fill="black"/>
<path d="M34.4456 19.2031L39.1654 30.4971L43.9027 19.2031H45.3441V32H44.263V26.4277L44.3509 20.7148L39.5872 32H38.7523L34.0062 20.7588L34.0941 26.3926V32H33.013V19.2031H34.4456ZM59.3827 19.2031V27.9395C59.3768 28.8008 59.1864 29.5508 58.8114 30.1895C58.4364 30.8281 57.9061 31.3203 57.2205 31.666C56.5409 32.0059 55.7586 32.1758 54.8739 32.1758C53.5262 32.1758 52.4452 31.8096 51.6307 31.0771C50.8221 30.3389 50.4032 29.3193 50.3739 28.0186V19.2031H51.4461V27.8604C51.4461 28.9385 51.7537 29.7764 52.369 30.374C52.9842 30.9658 53.8192 31.2617 54.8739 31.2617C55.9286 31.2617 56.7606 30.9629 57.37 30.3652C57.9852 29.7676 58.2928 28.9355 58.2928 27.8691V19.2031H59.3827ZM71.6195 28.8535C71.6195 28.1445 71.3705 27.585 70.8724 27.1748C70.3744 26.7588 69.4632 26.3662 68.139 25.9971C66.8148 25.6221 65.848 25.2148 65.2386 24.7754C64.3714 24.1543 63.9379 23.3398 63.9379 22.332C63.9379 21.3535 64.3392 20.5596 65.142 19.9502C65.9505 19.335 66.9818 19.0273 68.2357 19.0273C69.0853 19.0273 69.8441 19.1914 70.5121 19.5195C71.1859 19.8477 71.7074 20.3047 72.0765 20.8906C72.4457 21.4766 72.6302 22.1299 72.6302 22.8506H71.5404C71.5404 21.9775 71.2416 21.2773 70.6439 20.75C70.0462 20.2168 69.2435 19.9502 68.2357 19.9502C67.2572 19.9502 66.4779 20.1699 65.8978 20.6094C65.3177 21.043 65.0277 21.6113 65.0277 22.3145C65.0277 22.9648 65.2884 23.4951 65.8099 23.9053C66.3314 24.3154 67.1664 24.6787 68.3148 24.9951C69.4632 25.3057 70.3334 25.6309 70.9252 25.9707C71.517 26.3047 71.9623 26.7061 72.2611 27.1748C72.5599 27.6436 72.7093 28.1973 72.7093 28.8359C72.7093 29.8438 72.305 30.6523 71.4964 31.2617C70.6937 31.8711 69.6332 32.1758 68.3148 32.1758C67.4125 32.1758 66.5834 32.0146 65.8275 31.6924C65.0775 31.3701 64.5062 30.9189 64.1136 30.3389C63.7269 29.7588 63.5336 29.0938 63.5336 28.3438H64.6146C64.6146 29.2461 64.9515 29.958 65.6254 30.4795C66.2992 31.001 67.1957 31.2617 68.3148 31.2617C69.3109 31.2617 70.1107 31.042 70.7142 30.6025C71.3177 30.1631 71.6195 29.5801 71.6195 28.8535ZM78.3456 32H77.2645V19.2031H78.3456V32ZM92.8676 28.0098C92.7211 29.3574 92.2377 30.3887 91.4174 31.1035C90.6029 31.8184 89.516 32.1758 88.1566 32.1758C87.2074 32.1758 86.3666 31.9385 85.6342 31.4639C84.9076 30.9893 84.3451 30.3184 83.9467 29.4512C83.5482 28.5781 83.3461 27.582 83.3402 26.4629V24.8018C83.3402 23.665 83.5395 22.6572 83.9379 21.7783C84.3363 20.8994 84.9076 20.2227 85.6518 19.748C86.4018 19.2676 87.2631 19.0273 88.2357 19.0273C89.6068 19.0273 90.6879 19.3994 91.4789 20.1436C92.2758 20.8818 92.7387 21.9043 92.8676 23.2109H91.7777C91.5082 21.0371 90.3275 19.9502 88.2357 19.9502C87.0756 19.9502 86.1498 20.3838 85.4584 21.251C84.7729 22.1182 84.4301 23.3164 84.4301 24.8457V26.4102C84.4301 27.8867 84.7641 29.0645 85.432 29.9434C86.1059 30.8223 87.0141 31.2617 88.1566 31.2617C89.2875 31.2617 90.14 30.9922 90.7143 30.4531C91.2885 29.9082 91.643 29.0938 91.7777 28.0098H92.8676ZM104.384 28.4141H98.5741L97.2558 32H96.122L100.965 19.2031H101.993L106.836 32H105.711L104.384 28.4141ZM98.9081 27.4912H104.041L101.475 20.5215L98.9081 27.4912ZM111.795 31.0859H118.115V32H110.706V19.2031H111.795V31.0859ZM129.853 32H128.772V19.2031H129.853V32ZM144.841 32H143.76L136.403 21.0488V32H135.313V19.2031H136.403L143.769 30.1631V19.2031H144.841V32ZM157.315 28.8535C157.315 28.1445 157.066 27.585 156.568 27.1748C156.07 26.7588 155.159 26.3662 153.835 25.9971C152.51 25.6221 151.543 25.2148 150.934 24.7754C150.067 24.1543 149.633 23.3398 149.633 22.332C149.633 21.3535 150.035 20.5596 150.837 19.9502C151.646 19.335 152.677 19.0273 153.931 19.0273C154.781 19.0273 155.54 19.1914 156.208 19.5195C156.881 19.8477 157.403 20.3047 157.772 20.8906C158.141 21.4766 158.326 22.1299 158.326 22.8506H157.236C157.236 21.9775 156.937 21.2773 156.339 20.75C155.742 20.2168 154.939 19.9502 153.931 19.9502C152.953 19.9502 152.173 20.1699 151.593 20.6094C151.013 21.043 150.723 21.6113 150.723 22.3145C150.723 22.9648 150.984 23.4951 151.505 23.9053C152.027 24.3154 152.862 24.6787 154.01 24.9951C155.159 25.3057 156.029 25.6309 156.621 25.9707C157.212 26.3047 157.658 26.7061 157.957 27.1748C158.255 27.6436 158.405 28.1973 158.405 28.8359C158.405 29.8438 158.001 30.6523 157.192 31.2617C156.389 31.8711 155.329 32.1758 154.01 32.1758C153.108 32.1758 152.279 32.0146 151.523 31.6924C150.773 31.3701 150.202 30.9189 149.809 30.3389C149.422 29.7588 149.229 29.0938 149.229 28.3438H150.31C150.31 29.2461 150.647 29.958 151.321 30.4795C151.995 31.001 152.891 31.2617 154.01 31.2617C155.006 31.2617 155.806 31.042 156.41 30.6025C157.013 30.1631 157.315 29.5801 157.315 28.8535ZM171.406 20.126H167.021V32H165.939V20.126H161.563V19.2031H171.406V20.126ZM180.242 26.6738H176.524V32H175.434V19.2031H179.591C180.957 19.2031 182.023 19.5342 182.791 20.1963C183.558 20.8584 183.942 21.7842 183.942 22.9736C183.942 23.7939 183.702 24.5176 183.221 25.1445C182.741 25.7715 182.096 26.2051 181.288 26.4453L184.487 31.8857V32H183.336L180.242 26.6738ZM176.524 25.751H179.837C180.746 25.751 181.475 25.4932 182.026 24.9775C182.577 24.4619 182.852 23.7939 182.852 22.9736C182.852 22.0713 182.565 21.3711 181.991 20.873C181.417 20.375 180.611 20.126 179.574 20.126H176.524V25.751ZM197.682 19.2031V27.9395C197.676 28.8008 197.485 29.5508 197.11 30.1895C196.735 30.8281 196.205 31.3203 195.52 31.666C194.84 32.0059 194.058 32.1758 193.173 32.1758C191.825 32.1758 190.744 31.8096 189.93 31.0771C189.121 30.3389 188.702 29.3193 188.673 28.0186V19.2031H189.745V27.8604C189.745 28.9385 190.053 29.7764 190.668 30.374C191.283 30.9658 192.118 31.2617 193.173 31.2617C194.228 31.2617 195.06 30.9629 195.669 30.3652C196.284 29.7676 196.592 28.9355 196.592 27.8691V19.2031H197.682ZM204.109 19.2031L208.829 30.4971L213.566 19.2031H215.007V32H213.926V26.4277L214.014 20.7148L209.251 32H208.416L203.67 20.7588L203.757 26.3926V32H202.676V19.2031H204.109ZM227.297 25.8652H221.312V31.0859H228.193V32H220.231V19.2031H228.15V20.126H221.312V24.9512H227.297V25.8652ZM241.986 32H240.905L233.548 21.0488V32H232.459V19.2031H233.548L240.914 30.1631V19.2031H241.986V32ZM255.638 20.126H251.252V32H250.171V20.126H245.794V19.2031H255.638V20.126ZM266.794 28.8535C266.794 28.1445 266.545 27.585 266.047 27.1748C265.549 26.7588 264.637 26.3662 263.313 25.9971C261.989 25.6221 261.022 25.2148 260.413 24.7754C259.546 24.1543 259.112 23.3398 259.112 22.332C259.112 21.3535 259.513 20.5596 260.316 19.9502C261.125 19.335 262.156 19.0273 263.41 19.0273C264.259 19.0273 265.018 19.1914 265.686 19.5195C266.36 19.8477 266.882 20.3047 267.251 20.8906C267.62 21.4766 267.804 22.1299 267.804 22.8506H266.715C266.715 21.9775 266.416 21.2773 265.818 20.75C265.22 20.2168 264.418 19.9502 263.41 19.9502C262.431 19.9502 261.652 20.1699 261.072 20.6094C260.492 21.043 260.202 21.6113 260.202 22.3145C260.202 22.9648 260.463 23.4951 260.984 23.9053C261.506 24.3154 262.341 24.6787 263.489 24.9951C264.637 25.3057 265.508 25.6309 266.099 25.9707C266.691 26.3047 267.136 26.7061 267.435 27.1748C267.734 27.6436 267.883 28.1973 267.883 28.8359C267.883 29.8438 267.479 30.6523 266.671 31.2617C265.868 31.8711 264.807 32.1758 263.489 32.1758C262.587 32.1758 261.758 32.0146 261.002 31.6924C260.252 31.3701 259.68 30.9189 259.288 30.3389C258.901 29.7588 258.708 29.0938 258.708 28.3438H259.789C259.789 29.2461 260.126 29.958 260.799 30.4795C261.473 31.001 262.37 31.2617 263.489 31.2617C264.485 31.2617 265.285 31.042 265.888 30.6025C266.492 30.1631 266.794 29.5801 266.794 28.8535Z" fill="black"/>
<mask id="mask0" mask-type="alpha" maskUnits="userSpaceOnUse" x="60" y="49" width="168" height="185">
<path d="M60.7085 49.1351H228V233.619H60.7085V49.1351Z" fill="white"/>
</mask>
<g mask="url(#mask0)">
<path fill-rule="evenodd" clip-rule="evenodd" d="M140.013 167.123C140.03 170.731 140.033 174.355 139.925 177.974C139.835 181.019 139.731 184.062 139.682 187.096C138.498 189.262 137.395 191.022 136.071 193.555C136.408 189.619 136.494 185.48 136.713 181.531C136.775 180.413 136.865 179.291 136.933 178.167C137.156 174.492 137.249 170.786 137.351 167.144C138.274 167.309 138.96 167.189 140.013 167.123ZM150.116 164.964C149.124 167.192 148.361 169.381 147.343 171.588C146.469 173.483 145.475 175.754 144.667 177.513C144.735 174.829 145.155 167.723 145.289 165.987C146.344 165.742 149.405 165.156 150.116 164.964ZM144.57 180.166C146.026 177.34 147.195 174.756 148.382 172.041C149.446 169.604 150.305 167.449 151.37 164.783C151.754 164.699 152.154 164.616 152.522 164.531C152.547 167.027 152.756 169.424 152.884 171.923C152.946 173.129 153.213 173.96 153.841 174.587C153.807 174.706 152.819 176.809 152.674 177.091C151.354 179.668 150.054 182.212 148.677 184.761C147.097 187.688 145.66 190.684 144.089 193.602C144.265 189.14 144.395 184.629 144.57 180.166ZM136.763 194.792C137.533 193.368 138.808 190.85 139.613 189.643C139.511 191.588 139.349 194.025 139.156 195.94C138.342 195.573 137.576 195.175 136.763 194.792ZM184.839 102.892C184.929 103.492 184.992 104.042 185.094 104.571C181.329 104.506 176.949 104.386 173.132 104.251C176.895 103.784 181.112 103.341 184.839 102.892ZM201.942 62.0967C202.74 61.1983 204.693 59.1528 206.299 57.7895C208.384 56.0192 210.593 54.4096 212.927 52.6146C215.672 50.5037 214.157 50.1572 211.449 49.9145C204.569 49.2966 197.475 49.2788 190.55 49.1624C187.45 49.1079 184.349 49.1254 181.251 49.3036C179.555 49.401 178.79 49.7692 177.962 50.4769C175.371 52.6914 173.036 55.394 170.506 57.787C167.752 60.3911 165.037 63.087 162.334 65.8073C158.63 69.535 154.946 73.3082 151.214 76.9535C147.462 80.6163 143.718 84.2361 140.062 88.0043C137.25 90.9042 134.336 93.7734 131.478 96.4151C128.749 96.441 125.321 96.8168 123.432 97.3551C121.186 97.995 120.552 98.8501 119.969 100.8C119.393 102.722 118.77 105.026 117.566 107.504C112.725 107.87 103.181 108.576 99.5296 109.646C98.0565 109.322 95.7667 108.748 95.8573 111.479C95.9049 112.907 97.1548 113.814 98.724 114.264C98.648 117.07 97.5616 119.566 96.0798 121.883C94.7126 124.02 93.2541 124.822 91.1514 125.412C88.7373 126.09 86.023 126.419 84.7394 128.447C83.7582 129.998 83.4767 132.041 83.5062 133.861C83.5329 135.499 83.6648 137.15 83.8637 138.774C84.1657 141.229 84.6034 141.08 87.9175 140.748C89.9157 141.617 92.7262 143.025 95.4061 144.463C97.9767 145.843 101.151 147.658 103.655 149.062C103.471 152.668 104.104 154.355 105.162 155.353C105.245 158.19 105.31 163.644 105.467 166.439C105.697 170.531 105.488 174.621 105.546 178.715C97.8493 174.656 90.5596 171.161 84.3139 168.187C82.5468 167.346 80.9224 167.67 79.3521 168.156C77.7291 168.658 76.1273 169.224 74.5407 169.83C71.4821 170.997 68.6331 172.335 65.6685 173.738C63.4773 174.775 62.2854 175.828 62.3027 178.171C60.4579 178.63 61.0053 181.913 61.0733 183.366C61.1969 186.015 61.0906 188.449 60.8383 191.094C60.6582 192.959 60.3669 193.44 61.8595 194.324C61.5728 196.827 61.3631 198.936 62.4016 200.652C62.4537 202.544 62.1031 209.278 62.7675 210.824C62.7439 213.125 62.5734 215.094 64.9101 215.199C66.8584 215.286 66.9122 213.017 66.7806 211.094C67.3002 208.482 67.6005 204.453 67.673 201.117C68.1051 200.853 68.5515 200.196 68.8361 199.104C76.4122 204.246 83.7002 209.036 91.8359 214.441C91.7855 216.742 91.9799 218.854 93.4377 219.718C93.4728 222.357 93.0941 226.956 93.6498 228.743C93.4027 230.846 93.6925 233.378 96.186 233.633C97.69 233.787 98.7049 231.384 98.3252 228.621C98.7188 225.45 98.9361 222.517 99.1148 219.309C100.112 217.921 100.066 216.123 100.189 214.573C100.613 213.944 110.248 206.91 110.677 206.68C110.892 206.929 111.166 207.179 111.332 207.692C111.8 210 111.703 215.507 111.632 216.671C111.689 218.581 111.686 219.988 113.764 220.049C115.587 220.104 115.499 218.221 115.424 216.317C115.283 213.531 115.696 209.953 115.881 206.977C116.383 206.054 116.416 204.865 116.498 202.454C117.651 201.668 117.671 201.213 117.681 199.775C117.709 195.974 117.637 192.033 117.549 188.225C117.532 187.486 117.238 186.763 116.902 186.529C116.889 184.608 114.544 183.632 113.129 182.838C113.503 177.419 113.702 171.978 114.13 166.566C114.437 162.678 114.891 157.954 114.928 156.626C115.181 156.311 115.53 155.859 115.783 155.544C119.45 157.402 126.742 161.124 132.722 163.443C132.692 169.258 132.452 175.003 132.317 180.813C132.212 185.358 131.332 190.16 131.329 194.29C127.846 195.055 128.484 198.342 128.575 198.953C127.425 199.097 126.056 199.499 124.665 200.1C123.073 200.787 123.047 201.89 123.749 202.64C124.388 203.323 125.034 203.474 125.941 203.27C124.693 205.201 126.526 206.376 128.474 206.421C127.701 208.701 129.449 210.196 131.998 209.443C133.533 208.988 135.184 207.597 136.157 206.772C137.804 207.682 139.842 208.144 142.458 207.639C145.228 207.105 147.025 206.749 147.045 203.64C147.068 199.932 145.168 198.78 143.97 198.02C143.979 197.676 144.023 196.031 144.033 195.687C145.343 193.401 147.966 188.291 149.63 185.235C151.116 182.506 154.337 176.152 154.454 176.101C154.544 181.04 154.778 186.118 154.925 191.086C155.094 196.793 155.014 202.514 155.129 208.226C155.205 212.03 155.32 215.432 155.704 216.332C154.85 218.077 155.361 220.466 157.377 221.01C156.461 221.884 156.027 222.824 156.352 224.077C156.995 226.562 160.104 226.539 161.323 224.963C162.522 223.412 161.436 221.734 160.998 221.188C164.5 220.293 163.264 217.401 162.694 216.388C163.325 215.413 163.573 211.249 163.698 208.264C163.937 202.589 164.289 196.93 164.938 191.238C165.549 185.882 165.871 180.243 166.164 174.531C167.194 173.75 167.249 172.932 167.276 171.465C167.334 168.31 167.198 164.843 167.372 161.71C172.323 160.802 178.402 160.202 183.385 159.485C187.641 158.871 192.688 157.872 196.015 156.96C198.157 156.372 199.955 155.696 201.644 154.349C201.802 154.421 202.052 154.495 202.21 154.566C202.125 158.412 202.354 162.247 202.497 166.089C202.625 169.546 202.159 172.99 202.342 176.431C202.471 178.866 202.433 181.863 202.723 184.271C202.286 185.576 201.89 186.861 203.874 187.85C203.199 188.86 203.407 190.993 205.498 191.111C207.703 191.236 208.41 189.706 207.701 187.993C209.904 187 209.294 185.95 208.82 184.649C209.153 182.378 209.718 179.303 209.808 176.731C209.929 173.293 210.401 169.89 210.499 166.454C210.617 162.308 211.126 158.199 211.238 154.057C212.038 153.558 212.718 152.827 212.802 150.888C212.899 148.692 213.077 146.556 213.137 144.356C216.225 143.54 220.512 143.707 224.289 142.485C227.21 141.541 228.24 139.653 227.955 136.783C227.557 132.777 227.599 128.391 227.641 124.196C227.675 120.681 227.219 117.181 227.293 113.634C227.365 110.232 224.357 109.219 221.195 108.256C216.006 106.674 210.968 105.811 205.594 105.378C200.265 104.949 194.958 104.473 189.628 104.659C189.425 103.703 189.081 102.806 188.903 101.871C193.731 100.865 198.739 99.1959 203.418 97.4714C208.614 95.5566 213.582 93.7978 218.173 90.3411C221.521 87.8202 223.753 85.7223 225.11 81.5789C225.787 79.5083 225.955 77.8082 225.436 75.702C225.144 74.5133 224.524 73.4497 223.674 72.5527C220.826 69.5487 215.696 69.7645 210.895 68.2091C208.577 67.4581 203.408 65.9142 201.942 62.0967Z" fill="#0B0D0B"/>
</g>
<path fill-rule="evenodd" clip-rule="evenodd" d="M190.299 51.3258C197.287 51.4315 204.062 51.4606 211.253 52.0698C212.286 52.1574 212.978 52.1422 211.841 52.9649C209.815 54.4309 207.671 56.1133 205.505 57.9908C203.879 59.3997 201.854 61.5082 201.056 62.321C199.858 60.0085 199.106 58.7153 198.558 57.8031C196.561 54.84 193.971 53.2771 190.727 52.6555C187.652 52.0662 184.202 52.0315 180.873 51.8711C180.869 51.6245 180.712 51.3971 180.611 51.4046C183.828 51.3357 187.084 51.2765 190.299 51.3258Z" fill="#581010"/>
<path fill-rule="evenodd" clip-rule="evenodd" d="M132.887 97.6168C135.674 94.7524 138.389 92.2513 140.87 89.6655C144.514 85.8675 148.362 82.2537 152.102 78.5604C158.566 72.1774 165.034 65.5532 171.589 59.2996C174.2 56.8087 177.19 53.3566 179.79 51.434C180.28 51.0716 180.889 51.5578 180.472 52.02C178.001 54.7602 175.243 57.4634 172.579 60.2142C169.226 63.6744 165.955 67.125 162.631 70.5312C155.913 77.4153 148.722 83.7091 141.9 90.4662C139.525 92.82 136.377 95.7717 134.266 97.8086C133.754 97.7137 133.162 97.6559 132.887 97.6168Z" fill="#B24242"/>
<path fill-rule="evenodd" clip-rule="evenodd" d="M190.727 53.2397C193.697 53.7738 196.097 55.2838 197.83 57.8616C198.828 59.3467 199.57 60.8111 200.306 62.4314C202.294 66.8051 206.341 68.489 210.504 69.8057C214.337 71.0184 220.086 71.1155 222.863 73.785C223.607 74.4995 224.053 75.4789 224.378 76.5989C224.874 78.3074 224.686 79.741 224.12 81.4656C222.844 85.3533 220.732 87.3908 217.559 89.7989C213.091 93.1902 207.981 94.901 202.884 96.7992C198.262 98.5208 193.307 100.065 188.515 101.072C187.61 96.9306 186.617 92.392 185.733 88.0535C185.007 84.4911 184.304 80.9405 183.463 77.4158C182.707 74.2489 181.323 68.5709 180.891 65.5364C181.894 65.2858 182.639 62.0501 179.649 60.9608C178.423 60.5141 176.45 60.7648 175.433 62.1745C174.248 63.8183 175.116 66.5714 177.321 66.6222C178.111 70.6433 178.942 74.7509 179.887 78.6105C180.71 81.971 181.367 85.4902 182.06 88.8929C182.926 93.1425 183.915 97.6735 184.458 101.949C180.176 102.55 175.8 103.111 171.679 103.514C172.118 101.99 172.137 101.346 169.945 101.393C169.197 101.409 168.417 101.391 167.89 101.39C166.04 101.383 165.969 101.878 165.518 103.037C165.344 103.484 165.201 103.998 164.964 104.562C160.382 104.456 156.708 104.788 152.412 105.151C151.162 104.11 149.899 103.129 148.582 102.251C146.09 100.591 143.61 99.6028 140.776 98.7825C138.571 98.1447 136.154 97.5255 135.334 97.3731C136.048 96.5127 139.372 93.4515 142.276 90.5892C149.681 83.2881 157.583 76.5841 164.88 69.1295C167.521 66.4321 170.136 63.7467 172.802 60.9909C176.092 57.5892 180.889 52.6627 180.926 52.5314C184.161 52.5825 187.533 52.6655 190.727 53.2397Z" fill="#B24242"/>
<path fill-rule="evenodd" clip-rule="evenodd" d="M180.38 62.4612C181.825 62.9143 182.083 64.2732 181.635 64.806C180.701 62.8766 177.579 63.5282 177.951 65.9922C176.873 65.5061 176.678 64.4351 177.267 63.3624C177.803 62.3837 179.303 62.1241 180.38 62.4612Z" fill="#7C693C"/>
<path fill-rule="evenodd" clip-rule="evenodd" d="M181.092 78.9113C180.042 74.6987 179.016 70.5913 178.21 66.287C177.876 64.5068 179.459 64.1994 179.812 65.859C180.689 69.9769 181.735 74.2819 182.757 78.3798C183.644 81.9448 184.452 85.5574 185.216 89.1483C186.14 93.4921 187.043 98.0034 188.102 102.299C188.565 104.178 189.213 106.219 189.649 108.317C188.756 108.845 188.699 109.608 188.896 110.772C189.453 114.061 190.297 117.145 191.002 120.3C191.503 122.539 192.54 126.558 192.848 128.249C192.285 128.312 191.749 128.412 191.227 128.4C190.97 127.054 190.001 122.59 189.637 120.562C189.067 117.396 188.445 114.303 187.72 111.168C187.081 108.406 186.68 105.57 186.113 102.786C185.21 98.3576 184.384 93.8754 183.414 89.469C182.647 85.9802 181.958 82.383 181.092 78.9113Z" fill="#581010"/>
<path fill-rule="evenodd" clip-rule="evenodd" d="M172.004 103.319C171.876 103.912 171.706 104.539 171.584 105.099C170.142 105.089 168.592 105.125 167.15 105.151C167.281 104.707 167.434 104.215 167.581 103.736C167.891 102.728 167.911 102.772 168.82 102.727C169.623 102.687 170.425 102.706 171.225 102.727C171.934 102.746 172.145 102.665 172.004 103.319Z" fill="#7C693C"/>
<path fill-rule="evenodd" clip-rule="evenodd" d="M211.676 112.464C208.355 111.845 205.235 111.359 201.996 111.216C198.398 111.057 195.018 111.04 191.535 111.06C191.221 109.134 190.759 107.714 189.518 107.721C189.473 107.384 189.222 106.759 189.177 106.422C194.533 106.222 199.886 106.694 205.274 107.166C210.771 107.649 215.216 108.388 220.696 110.096C222.939 110.795 226.064 111.605 225.881 114.219C225.587 115.392 221.484 116.199 219.934 116.163C219.023 114.114 213.903 112.88 211.676 112.464Z" fill="#581010"/>
<path fill-rule="evenodd" clip-rule="evenodd" d="M172.014 106.375C176.624 106.471 181.278 106.646 185.92 106.784C186.096 107.449 186.566 109.901 186.73 110.702C181.607 110.813 176.626 110.659 170.489 110.832C164.977 110.987 158.998 111.011 154.011 111.269C155.273 108.882 155.181 108.64 153.69 106.979C157.468 106.648 161.528 106.344 165.078 106.55C165.015 108.632 165.063 109.217 167.231 109.096C168.059 109.05 168.888 109.028 169.716 108.985C171.941 108.87 172.195 108.766 172.014 106.375Z" fill="#581010"/>
<path fill-rule="evenodd" clip-rule="evenodd" d="M170.774 106.41C170.854 108.527 171.001 108.568 169.585 108.643C168.716 108.689 167.861 108.828 166.982 108.822C165.748 108.813 165.898 108.518 165.979 106.417C167.607 106.422 169.383 106.324 170.774 106.41Z" fill="#645233"/>
<path fill-rule="evenodd" clip-rule="evenodd" d="M115.755 115.334C116.487 113.197 117.397 111.188 118.339 109.151C119.279 107.116 119.954 104.646 120.734 102.455C121.23 101.062 121.585 100.288 123.398 99.8025C126.657 98.9292 131.115 98.7448 134.508 99.5287C137.826 100.296 141.163 101.088 144.271 102.548C146.849 103.758 149.205 105.324 151.342 107.431C153.027 109.092 152.538 109.229 151.686 111.305C150.627 113.888 149.784 116.538 148.846 119.165C148.041 121.418 147.006 123.797 146.132 125.954C142.439 124.737 139.13 123.458 135.656 122.291C128.878 119.874 122.454 117.59 115.755 115.334Z" fill="#581010"/>
<path fill-rule="evenodd" clip-rule="evenodd" d="M192.405 120.42C192.985 122.897 193.67 126.567 194.072 128.211C193.808 128.263 193.052 128.349 192.789 128.401C192.759 127.906 191.959 124.297 191.118 120.56C190.211 116.525 189.308 112.234 189.219 111.212C189.166 110.597 189.067 110.158 189.634 110.061C190.156 109.972 190.444 110.28 190.544 110.857C191.037 113.702 191.702 117.425 192.405 120.42Z" fill="#581010"/>
<path fill-rule="evenodd" clip-rule="evenodd" d="M101.07 111.471C105.832 110.864 112.151 110.295 116.978 110.046C116.309 111.578 115.445 113.379 114.775 114.94C109.285 113.562 103.806 112.072 101.07 111.471Z" fill="#7A1818"/>
<path fill-rule="evenodd" clip-rule="evenodd" d="M211.673 117.388C211.593 117.386 208.679 115.737 207.588 115.127C205.938 114.203 204.186 113.287 202.638 112.493C204.666 112.583 208.446 113.069 211.753 113.682C214.958 114.277 217.859 115.373 218.546 116.371C216.57 116.786 213.277 117.247 211.673 117.388Z" fill="#645233"/>
<path fill-rule="evenodd" clip-rule="evenodd" d="M199.756 112.579C200.215 112.836 201.266 113.33 201.414 113.534C197.853 113.623 194.635 113.77 191.822 113.697C191.749 113.369 191.677 113.018 191.625 112.59C193.968 112.466 197.319 112.46 199.756 112.579Z" fill="#554830"/>
<path fill-rule="evenodd" clip-rule="evenodd" d="M152.466 116.164C152.7 115.37 153.022 114.055 153.284 113.28C159.108 112.845 164.239 112.793 170.03 112.58C174.888 112.4 179.673 112.554 186.371 112.565C186.475 113.342 186.625 114.184 186.73 114.961C181.504 114.807 175.633 115.075 170.124 115.215C164.162 115.367 158.156 115.964 152.466 116.164Z" fill="#554830"/>
<path fill-rule="evenodd" clip-rule="evenodd" d="M97.4047 112.099C97.3129 111.081 98.3476 111.232 98.966 111.364C101.57 111.919 104.323 112.74 106.963 113.516C114.63 115.77 122.181 118.255 129.611 121.122C135.488 123.389 141.763 125.429 147.999 127.825C150.009 128.597 153.119 129.695 154.528 131.215C155.663 132.439 154.042 133.498 152.868 133.263C151.396 132.969 148.572 131.607 147.059 131.009C136.741 126.928 126.454 122.883 115.99 119.231C110.708 117.388 105.277 115.708 100.01 114.052C98.9673 113.858 97.5302 113.488 97.4047 112.099Z" fill="#B24242"/>
<path fill-rule="evenodd" clip-rule="evenodd" d="M203.941 113.717C204.334 113.814 205.332 114.538 206.309 115.392C202.118 115.602 196.882 116.387 193.124 116.103C193.012 115.482 192.96 114.882 192.848 114.261C195.992 114.114 200.531 113.797 203.941 113.717Z" fill="#645233"/>
<path fill-rule="evenodd" clip-rule="evenodd" d="M151.898 116.151C158.206 115.654 164.254 115.322 170.575 115.147C176.26 114.989 182.043 114.85 187.73 115.014C187.789 115.522 187.894 116.15 187.953 116.658C182.215 116.728 176.475 117.306 170.643 117.499C163.055 117.749 157.234 118.328 151.242 118.612C151.474 117.891 151.666 116.872 151.898 116.151Z" fill="#645233"/>
<path fill-rule="evenodd" clip-rule="evenodd" d="M194.072 116.844C198.609 116.836 204.151 116.323 208.713 116.164C209.222 116.176 210.798 117.124 211.204 117.449C208.257 117.803 203.828 118.031 202.407 118.612C201.179 117.651 200.985 117.672 199.413 117.732C197.637 117.8 195.416 117.902 194.307 117.885C194.259 117.639 194.129 117.282 194.072 116.844Z" fill="#554830"/>
<path fill-rule="evenodd" clip-rule="evenodd" d="M152.466 119.179C157.602 118.748 164.268 118.437 170.462 118.118C176.206 117.821 181.944 117.315 187.706 117.397C187.795 117.839 187.886 118.573 187.953 119.254C182.302 119.664 176.378 120.025 170.728 120.359C167.593 120.544 161.016 120.951 157.329 121.059C155.52 120.427 154.031 119.846 152.466 119.179Z" fill="#554830"/>
<path fill-rule="evenodd" clip-rule="evenodd" d="M102.027 129.123C101.315 128.815 100.33 128.406 99.9615 128.293C99.9647 123.971 100.074 119.256 99.8464 114.941C106.494 117.233 110.737 118.383 115.104 119.941C125.581 123.68 136.023 127.632 146.299 131.956C147.724 132.556 151.212 134.005 152.466 134.347C152.182 136.919 151.86 139.872 151.333 142.193C150.792 144.572 149.507 146.964 147.068 147.981C146.841 147.278 146.062 146.397 144.623 147.047C143.907 146.783 143.394 146.512 142.747 146.268C142.52 145.493 141.409 144.692 140.309 145.242C139.665 144.985 138.987 144.674 138.342 144.417C138.334 143.081 136.645 142.681 135.774 143.33C135.268 143.104 133.308 142.256 132.922 142.085C133.165 141.478 132.054 140.105 130.572 141.141C129.834 140.857 128.932 140.426 128.319 140.196C128.37 139.297 127.488 138.606 126.146 139.324C125.72 139.128 125.293 138.932 124.866 138.736C125.131 137.556 123.663 137.255 122.751 137.876C122.326 137.675 121.873 137.528 121.448 137.328C121.449 135.986 120.049 136.118 119.17 136.331C118.59 136.103 118.126 135.915 117.508 135.665C117.531 134.796 116.574 134.432 115.33 134.738C115.327 134.737 113.286 133.835 113.14 133.755C112.986 133.07 112.2 132.048 110.475 132.726C109.759 132.403 109.07 132.095 108.476 131.883C108.486 130.278 107.214 130.911 106.615 131.072C106.045 130.816 104.861 130.37 104.573 130.198C104.524 128.468 103.449 128.903 102.027 129.123Z" fill="#6C1414"/>
<path fill-rule="evenodd" clip-rule="evenodd" d="M195.625 124.52C195.933 124.954 197.626 124.69 197.929 124.497C198.322 123.98 197.262 123.477 196.595 123.599C196.122 123.589 195.293 124.049 195.625 124.52ZM199.876 120.514C199.004 121.684 199.055 122.469 200.557 124.187C201.205 124.929 201.938 125.731 200.881 126.462C199.454 127.447 196.028 128.318 194.711 128.401C194.105 125.666 193.454 122.834 192.848 120.098C194.553 120.043 196.261 119.843 197.964 119.836C198.918 119.832 199.296 119.861 199.876 120.514Z" fill="#7C693C"/>
<path fill-rule="evenodd" clip-rule="evenodd" d="M226.444 116.164C226.683 119.27 226.806 122.357 226.834 125.459C226.872 129.622 226.774 133.753 227.087 137.914C227.259 140.197 226.565 141.912 224.203 142.576C220.645 143.577 217.157 143.599 213.606 144.25C211.517 144.632 209.645 144.911 207.685 145.334C206.242 145.645 205.02 145.943 203.805 146.757C203.904 143.085 203.952 139.835 203.883 136.153C203.82 132.797 203.512 128.409 203.468 125.947C203.443 124.507 203.405 124.28 202.294 122.816C201.786 122.147 200.964 121.554 201.72 120.724C202.699 119.65 207.53 119.481 210.633 119.133C213.494 118.812 216.845 118.212 219.137 117.8C221.659 117.346 225.303 116.968 226.444 116.164Z" fill="#7A1818"/>
<path fill-rule="evenodd" clip-rule="evenodd" d="M174.52 123.042C174.992 122.463 174.038 122.301 173.275 122.297C172.725 122.294 172.201 122.652 172.439 123.049C172.697 123.478 174.161 123.482 174.52 123.042ZM161.032 121.162C164.243 121.081 168.326 120.855 171.613 120.688C177.195 120.405 183.3 119.961 188.812 119.835C188.962 120.604 189.201 121.554 189.305 122.322C186.544 121.414 182.158 121.434 179.468 122.131C176.304 122.951 176.668 125.734 179.674 126.299C183.122 126.948 186.652 126.969 190.067 126.051C190.161 126.506 190.368 127.202 190.401 127.67C187.567 128.061 183.88 128.343 180.69 128.401C178.016 127.423 173.845 125.826 171.765 125.084C168.233 123.825 164.899 122.482 161.032 121.162Z" fill="#7C693C"/>
<path fill-rule="evenodd" clip-rule="evenodd" d="M179.522 124.082C181.735 123.416 187.128 122.972 188.946 124.835C189.018 125.298 189.191 125.689 189.176 126.317C185.836 127.569 182.589 127.245 179.727 126.662C177.99 126.309 177.404 124.719 179.522 124.082Z" fill="#554830"/>
<path fill-rule="evenodd" clip-rule="evenodd" d="M151.75 119.835C154.739 120.606 157.667 121.694 160.58 122.721C164.12 123.968 167.807 125.305 171.278 126.599C174.484 127.793 177.513 128.922 178.164 129.154C176.666 129.12 169.956 129.511 164.648 129.951C160.605 130.287 156.893 130.642 156.442 130.849C155.099 129.321 151.22 127.726 148.795 126.948C149.735 124.635 150.763 122.148 151.75 119.835Z" fill="#7A1818"/>
<path fill-rule="evenodd" clip-rule="evenodd" d="M99.8046 117.388C99.9102 120.981 99.7875 124.572 99.744 128.158C95.0891 129.583 91.957 129.258 88.2416 130.421C85.7014 131.215 86.2015 132.895 86.6201 134.199C86.4082 136.246 86.3536 138.543 86.2093 140.596C84.8158 140.567 84.5094 141.022 84.3265 139.507C84.1294 137.878 83.945 136.256 83.9382 134.613C83.9328 133.079 84.0937 131.07 84.9385 129.776C86.1249 127.957 88.735 127.529 91.1535 126.915C93.9257 126.211 95.559 125.298 97.1574 122.866C98.3316 121.079 99.3823 118.916 99.8046 117.388Z" fill="#6C1414"/>
<path fill-rule="evenodd" clip-rule="evenodd" d="M155.949 132.536C158.464 132.027 161.115 131.788 163.87 131.556C168.399 131.175 172.981 130.836 177.522 130.769C183.572 130.679 189.875 129.958 195.895 129.143C198.138 128.839 200.843 128.151 202.256 127.178C202.369 130.289 202.556 133.194 202.618 136.586C202.684 140.202 202.571 143.803 202.485 147.414C202.451 148.824 202.381 150.257 202.232 151.665C202.079 153.098 201.728 154.074 201.131 154.781C199.994 156.131 198.227 156.75 195.835 157.403C191.881 158.481 187.402 159.355 183.257 159.922C177.593 160.697 171.87 161.286 166.231 162.188C161.592 162.931 156.96 163.834 152.359 164.814C149.555 165.411 146.75 166.062 143.919 166.563C141.808 166.937 138.911 167.827 137.082 167.482C135.439 167.171 135.303 166.115 135.339 164.686C135.406 161.973 135.45 159.257 135.551 156.547C135.649 153.886 136.192 152.733 137.554 151.824C138.995 150.862 140.79 150.362 142.593 150.512C144.322 150.656 146.166 150.18 147.777 149.517C150.38 148.447 152.023 145.944 152.674 143.099C153.208 140.765 153.643 137.291 153.926 135.016C155.081 134.724 156.118 133.52 155.949 132.536Z" fill="#A01F1F"/>
<path fill-rule="evenodd" clip-rule="evenodd" d="M89.4891 134.52C88.8825 134.35 88.2812 133.95 87.8795 133.838C87.3501 132.68 87.5785 132.114 88.744 131.723C90.5598 131.114 93.0944 130.934 95.2766 130.639C96.7999 130.434 98.8541 129.892 100.065 129.625C100.418 129.723 100.858 129.877 101.07 129.955C97.622 130.735 96.1134 130.815 96.0947 132.047C94.5724 132.307 93.1379 132.542 91.6505 132.708C90.5288 132.834 89.4543 133.288 89.4891 134.52Z" fill="#DAD5BF"/>
<path fill-rule="evenodd" clip-rule="evenodd" d="M92.4946 134.298C96.8333 133.794 100.625 132.879 104.873 132.072C105.212 132.194 105.514 132.334 105.965 132.458C102.199 133.11 100.228 133.329 100.433 134.438C98.8477 134.793 97.7639 135.115 96.4098 135.402C95.2386 135.651 94.5458 136.04 94.669 136.967C93.9038 136.696 92.0717 135.86 91.3062 135.563C91.1457 134.628 91.7592 134.383 92.4946 134.298Z" fill="#DAD5BF"/>
<path fill-rule="evenodd" clip-rule="evenodd" d="M108.31 133.296C108.515 133.379 109.282 133.679 109.636 133.864C108.415 134.158 107.23 134.597 106.007 134.883C104.877 135.148 103.758 135.449 103.828 136.378C102.773 136.59 101.132 137.082 99.8999 137.448C98.8889 137.748 98.2125 138.52 98.1871 139.415C97.1853 138.838 96.0389 138.428 95.0371 137.852C94.7946 136.844 95.0754 136.553 95.7813 136.368C99.9378 135.275 104.091 134.332 108.31 133.296Z" fill="#DAD5BF"/>
<path fill-rule="evenodd" clip-rule="evenodd" d="M112.883 135.744C113.246 135.854 113.998 136.233 114.531 136.425C113.26 137.062 110.642 138.093 109.02 138.719C107.725 139.219 106.428 139.588 105.092 139.894C103.697 140.214 102.94 140.092 102.958 141.862C101.934 141.484 100.536 140.94 99.8464 140.445C99.8698 139.613 99.9192 139.352 100.812 138.978C102.462 138.287 104.26 138.026 105.982 137.594C107.903 137.111 111.016 136.188 112.883 135.744Z" fill="#DAD5BF"/>
<path fill-rule="evenodd" clip-rule="evenodd" d="M88.0874 135.744C93.0988 138.017 97.9583 140.552 102.946 142.896C113.729 147.963 124.729 152.763 135.334 157.123C135.274 159.25 135.291 161.768 135.127 163.889C128.394 161.424 121.414 158.18 115.419 155.035C112.012 153.247 108.116 151.393 104.728 149.618C98.9213 146.576 93.4096 143.61 87.6093 141.046C87.7099 139.819 87.9294 136.944 88.0874 135.744Z" fill="#6C1414"/>
<path fill-rule="evenodd" clip-rule="evenodd" d="M112.527 140.472C114.415 139.889 117.332 138.396 118.172 138.191C118.513 138.319 119.016 138.464 119.426 138.64C118.084 139.283 116.752 139.684 115.484 140.142C114.256 140.585 114.039 140.653 113.975 141.164C112.836 141.568 110.905 142.098 109.681 142.461C108.432 142.832 107.977 143.046 107.876 144.309C106.633 143.899 105.646 143.411 104.806 143.031C104.521 141.589 105.205 141.588 106.255 141.341C107.735 140.992 108.706 140.789 110.392 140.257C111.199 140.789 111.586 140.763 112.527 140.472Z" fill="#DAD5BF"/>
<path fill-rule="evenodd" clip-rule="evenodd" d="M115.054 141.057C116.912 140.462 121.484 138.501 121.883 138.191C122.18 138.342 122.742 138.538 123.097 138.64C122.27 138.96 120.967 139.616 120.073 139.954C118.551 140.531 118.679 141.196 118.472 141.59C117.488 142.026 115.881 142.443 114.849 142.631C112.354 143.086 112.622 143.697 112.728 145.533C111.288 144.929 109.899 144.24 108.412 143.625C108.424 142.633 108.351 142.533 109.337 142.18C110.885 141.627 113.707 140.886 113.707 140.886C114.194 141.327 114.417 141.262 115.054 141.057Z" fill="#DAD5BF"/>
<path fill-rule="evenodd" clip-rule="evenodd" d="M115.625 143.23C117.344 142.853 119.139 142.335 120.787 141.723C122.267 141.174 124.472 139.923 125.733 139.415C125.947 139.483 126.554 139.742 126.768 139.81C125.882 140.388 124.843 140.963 124.078 141.314C122.99 141.813 122.431 142.518 122.456 143.239C121.695 143.608 120.586 143.833 119.224 144.223C117.619 144.683 117.736 145.335 117.693 146.757C116.667 146.391 115.689 145.982 114.666 145.489C114.432 143.706 114.367 143.507 115.625 143.23Z" fill="#DAD5BF"/>
<path fill-rule="evenodd" clip-rule="evenodd" d="M117.69 146.68C119.233 146.289 121.006 145.817 122.386 145.014C124.068 144.035 126.043 142.648 127.548 141.862C128.032 142.071 128.465 142.233 129.215 142.545C127.79 143.237 126.839 143.679 125.911 144.127C124.62 144.75 124.327 145.356 124.523 146.027C123.854 146.44 123.184 146.853 122.515 147.265C120.513 148.5 120.878 148.133 120.6 150.428C119.813 150.11 117.975 149.447 116.978 148.861C117.009 147.735 117.018 146.85 117.69 146.68Z" fill="#DAD5BF"/>
<path fill-rule="evenodd" clip-rule="evenodd" d="M123.097 150.222C123.208 148.288 123.298 148.285 124.55 147.565C125.726 146.888 126.809 146.194 128.004 145.632C129.616 144.872 131.603 143.943 132.881 143.086C133.673 143.429 134.63 143.802 135.334 144.104C135.199 144.27 133.468 145.162 132.301 145.727C131.592 146.07 130.756 146.319 130.57 147.15C129.796 147.533 129.076 148.023 128.308 148.407C126.431 149.346 126.464 150.016 126.36 151.652C125.969 151.499 124.344 150.924 123.097 150.222Z" fill="#DAD5BF"/>
<path fill-rule="evenodd" clip-rule="evenodd" d="M133.821 148.193C135.483 147.33 138.641 145.533 138.679 145.533C139.246 145.755 139.734 145.927 140.229 146.167C137.331 147.65 135.414 148.614 135.621 149.658C134.89 149.978 134.338 150.294 133.543 150.737C131.928 151.637 131.864 152.348 131.817 154.099C130.068 153.414 129.055 153.067 127.992 152.435C128.14 150.745 128.015 150.383 129.447 149.592C130.101 149.231 130.919 148.811 131.472 148.438C132.759 148.684 132.917 148.662 133.821 148.193Z" fill="#DAD5BF"/>
<path fill-rule="evenodd" clip-rule="evenodd" d="M203.734 148.058C205.11 147.04 206.205 146.699 207.869 146.358C209.167 146.092 210.784 145.674 212.428 145.533C212.37 147.663 212.273 149.81 212.036 151.932C211.889 153.249 211.785 154.031 210.428 154.583C208.119 155.523 204.243 155.656 202.638 154.463C203.163 153.307 203.424 152.467 203.492 151.225C203.55 150.152 203.711 148.917 203.734 148.058Z" fill="#A01F1F"/>
<path fill-rule="evenodd" clip-rule="evenodd" d="M132.872 152.428C135.513 151.005 141.579 148.257 142.409 147.981C142.946 148.18 143.324 148.373 143.9 148.599C143.446 149.053 142.903 149.319 142.45 149.773C140.379 149.717 138.202 150.248 136.637 151.349C134.902 152.571 134.296 154.488 134.239 156.547C133.891 156.454 132.121 155.783 131.663 155.521C131.775 153.921 131.644 153.091 132.872 152.428Z" fill="#DAD5BF"/>
<path fill-rule="evenodd" clip-rule="evenodd" d="M104.753 150.428C107.982 151.876 111.303 153.288 114.531 154.737C114.319 154.915 114.056 155.331 113.735 155.323C111.419 155.258 108.392 155.203 106.255 154.447C104.749 153.914 104.702 152.002 104.753 150.428Z" fill="#A01F1F"/>
<path fill-rule="evenodd" clip-rule="evenodd" d="M209.98 156.547C209.819 160.347 209.555 164.107 209.357 167.921C209.183 171.28 208.931 174.621 208.741 177.982C208.611 180.283 208.283 183.147 207.857 185.43C206.452 186.339 205.103 185.782 204.329 185.29C204.06 182.732 203.99 180.25 203.948 177.727C203.892 174.37 204.147 170.997 204.096 167.622C204.041 164.025 203.709 159.929 203.946 156.822C205.587 157.451 208.066 157.085 209.98 156.547Z" fill="#7A1818"/>
<path fill-rule="evenodd" clip-rule="evenodd" d="M112.15 177.19C112.049 179.115 111.954 181.327 111.779 183.468C109.916 182.381 108.065 181.329 106.237 180.311C106.229 179.151 106.243 178.04 106.237 177.08C106.216 173.826 106.225 170.595 106.146 167.346C106.058 163.763 105.901 160.138 105.993 156.547C107.687 157.259 110.865 157.363 113.307 157.422C113.221 160.767 112.841 164.048 112.663 167.411C112.492 170.671 112.319 173.96 112.15 177.19Z" fill="#7A1818"/>
<path fill-rule="evenodd" clip-rule="evenodd" d="M133.775 182.229C134.003 176.524 134.034 170.822 134.161 165.113C134.373 165.201 134.682 165.358 134.908 165.447C134.883 166.767 135.634 167.746 136.552 168.143C136.607 172.485 136.23 178.008 135.966 182.642C135.724 186.904 135.544 191.994 135.181 196.532C135.004 198.757 133.031 198.601 132.926 196.616C132.689 192.157 133.593 186.776 133.775 182.229Z" fill="#581010"/>
<path fill-rule="evenodd" clip-rule="evenodd" d="M153.723 165.076C157.166 164.186 161.693 163.151 165.925 162.665C165.918 165.943 165.958 169.258 165.847 172.543C165.803 173.866 165.753 174.461 164.536 174.98C162.191 175.981 158.124 176.731 155.733 175.44C154.363 174.701 154.21 174.344 154.076 172.755C153.871 170.342 153.592 166.249 153.723 165.076Z" fill="#A01F1F"/>
<path fill-rule="evenodd" clip-rule="evenodd" d="M141.203 168.188C142.102 167.987 142.868 167.733 143.9 167.56C143.806 171.282 143.394 174.993 143.3 178.724C143.245 180.886 143.19 183.048 143.136 185.21C143.034 189.22 142.909 193.229 142.718 197.239C142.677 198.098 142.888 201.858 141.504 201.824C139.762 201.78 140.281 198.259 140.369 197.146C140.608 194.108 140.709 191.129 140.79 188.077C140.817 187.046 140.844 186.014 140.871 184.983C140.918 183.116 141.006 181.017 141.058 179.139C141.157 175.48 141.111 171.842 141.203 168.188Z" fill="#581010"/>
<path fill-rule="evenodd" clip-rule="evenodd" d="M156.166 176.638C159.355 177.557 162.475 177.076 165.927 176.126C165.778 181.358 165.374 186.843 164.761 192.054C164.096 197.707 163.851 203.334 163.441 208.907C163.295 210.887 163.215 212.863 162.95 214.811C162.736 216.377 162.116 217.828 159.97 217.727C157.744 217.623 157.267 216.91 157.068 214.628C156.906 212.769 156.832 210.936 156.821 209.086C156.788 203.358 156.587 197.682 156.511 191.952C156.444 186.912 156.024 181.63 156.166 176.638Z" fill="#7A1818"/>
<path fill-rule="evenodd" clip-rule="evenodd" d="M207.619 188.076C206.553 188.515 205.794 188.448 204.823 187.89C203.826 187.318 203.75 186.758 203.952 185.916C204.883 186.498 206.48 187.282 208.524 186.179C209.157 187.39 208.377 187.765 207.619 188.076Z" fill="#645233"/>
<path fill-rule="evenodd" clip-rule="evenodd" d="M204.221 189.587C204.396 189.695 205.33 189.829 205.966 189.636C206.764 190.862 206.074 192.218 204.87 192.014C203.621 191.801 203.694 190.146 204.221 189.587Z" fill="#7C693C"/>
<path fill-rule="evenodd" clip-rule="evenodd" d="M137.566 207.084C138.368 206.066 138.779 205.7 137.879 204.707C137.426 204.206 136.858 203.849 136.426 203.337C135.523 202.265 134.8 202.105 133.688 202.002C133.116 200.399 131.76 199.921 130.535 200.043C130.275 198.691 130.462 197.262 132.108 196.929C132.465 200.18 136.175 200.203 136.595 197.127C137.655 197.593 138.536 197.978 139.592 198.567C139.523 200.674 139.542 203.201 142.059 203.394C143.312 203.489 144.137 202.157 144.355 200.725C146.382 202.144 146.284 203.461 146.343 204.896C146.443 207.267 144.612 207.294 142.855 207.701C140.884 208.158 139.378 207.974 137.566 207.084Z" fill="#581010"/>
<path fill-rule="evenodd" clip-rule="evenodd" d="M124.954 201.697C125.961 201.054 127.737 200.676 128.883 200.605C129.296 200.58 130.166 200.605 130.439 201.652C129.255 201.811 127.273 202.452 126.418 202.919C125.851 203.009 124.867 203.245 124.44 202.698C124.232 202.432 124.234 202.156 124.954 201.697Z" fill="#581010"/>
<path fill-rule="evenodd" clip-rule="evenodd" d="M127.405 204.656C128.414 203.775 130.441 203.457 131.708 203.17C133.081 202.86 133.749 203.158 134.11 203.847C132.705 203.95 130.065 204.816 129.049 206.561C128.048 207.097 125.62 206.215 127.405 204.656Z" fill="#581010"/>
<path fill-rule="evenodd" clip-rule="evenodd" d="M130.659 207.163C131.462 205.242 134.062 204.247 135.982 204.272C136.684 205.046 136.768 204.943 136.101 205.841C135.186 207.072 133.6 208.634 132.463 209.027C131.304 209.428 129.888 209.008 130.659 207.163Z" fill="#581010"/>
<path fill-rule="evenodd" clip-rule="evenodd" d="M156.217 217.732C157.081 219.373 159.644 219.011 160.726 217.957C161.736 220.546 160.055 221.537 158.446 221.389C156.971 221.253 155.816 220.342 156.217 217.732Z" fill="#645233"/>
<path fill-rule="evenodd" clip-rule="evenodd" d="M157.413 225.025C157.141 223.794 157.958 222.6 159.114 222.627C160.445 222.659 161.631 224.226 160.699 225.521C159.939 226.576 157.782 226.69 157.413 225.025Z" fill="#7C693C"/>
<path fill-rule="evenodd" clip-rule="evenodd" d="M74.7917 173.217C76.3783 172.667 78.0281 172.062 79.6342 171.597C81.0151 171.198 82.2748 171.013 83.5829 171.634C93.8374 176.495 104.576 181.062 114.328 186.886C116.233 188.024 116.155 188.782 114.542 189.866C114.23 190.076 113.899 190.25 113.638 190.401C111.104 191.86 108.5 193.198 105.978 194.668C102.911 196.455 99.409 197.954 96.4199 199.326C96.555 198.471 96.8072 197.726 96.3559 196.908C95.8021 195.902 95.2144 196.609 95.3033 197.401C95.4152 198.394 95.2511 198.861 95.0412 199.376C93.9084 199.107 90.7546 197.273 88.2844 195.885C82.0037 192.358 75.8657 188.958 69.7677 185.08C67.9226 183.907 64.9178 181.641 63.1879 180.416C62.8828 178.744 63.9239 177.822 65.7298 177.049C68.7083 175.773 71.7425 174.274 74.7917 173.217Z" fill="#350202"/>
<path fill-rule="evenodd" clip-rule="evenodd" d="M62.534 193.906C61.7076 193.244 61.9077 193.038 62.0061 191.97C62.2652 189.169 62.3993 186.542 62.2708 183.73C62.2415 183.088 61.8421 179.685 62.8615 179.8C64.6421 180.619 67.787 183.4 69.7051 184.589C75.9185 188.442 81.7937 192.353 88.1984 195.893C90.231 197.017 94.9261 200.075 96.1743 200.035C96.1879 205.507 96.0604 211.036 96.0744 216.508C89.9413 212.388 83.887 208.442 77.9222 204.447C72.8396 201.043 67.3262 197.746 62.534 193.906Z" fill="#A01F1F"/>
<path fill-rule="evenodd" clip-rule="evenodd" d="M63.2931 195.705C63.3088 195.71 67.9267 198.688 68.03 198.803C67.9138 199.378 67.6569 200.333 66.8327 200.513C66.0481 200.685 64.7833 200.609 64.0808 200.23C62.703 199.488 63.2134 197.23 63.2931 195.705Z" fill="#A01F1F"/>
<path fill-rule="evenodd" clip-rule="evenodd" d="M97.5723 198.899C99.8961 197.76 104.479 195.783 107.024 194.117C109.158 192.721 115.094 189.727 116.74 188.363C117.008 188.404 117.039 195.88 116.888 199.811C116.842 201.012 116.961 200.898 115.739 201.772C111.717 204.651 97.7179 215.205 97.399 215.285C97.5023 209.818 97.4558 204.249 97.5723 198.899Z" fill="#581010"/>
<path fill-rule="evenodd" clip-rule="evenodd" d="M63.6896 212.812C62.7691 210.58 63.2634 204.588 63.3028 203.047C64.5283 203.475 65.5451 203.321 66.8063 203.353C66.7892 204.015 66.5018 211.617 65.8509 212.837C65.4994 212.828 64.041 212.821 63.6896 212.812Z" fill="#581010"/>
<path fill-rule="evenodd" clip-rule="evenodd" d="M112.083 206.932C112.761 206.41 115.068 204.808 115.755 204.271C115.73 205.368 115.766 207.361 114.909 207.56C114.316 207.698 113.864 207.88 113.331 207.929C112.846 207.974 112.567 207.959 112.083 206.932Z" fill="#A01F1F"/>
<path fill-rule="evenodd" clip-rule="evenodd" d="M114.531 209.166C114.459 211.688 114.248 214.443 114.114 216.963C114.074 217.709 112.346 218.141 112.309 217.171C112.229 215.15 112.297 211.716 112.083 209.577C112.841 209.512 113.771 209.32 114.531 209.166Z" fill="#581010"/>
<path fill-rule="evenodd" clip-rule="evenodd" d="M66.8063 212.837C66.7753 214.067 66.9095 215.257 65.793 215.284C64.1963 215.323 64.3477 213.905 64.3753 212.839C65.1528 212.859 66.1178 212.87 66.8063 212.837Z" fill="#A01F1F"/>
<path fill-rule="evenodd" clip-rule="evenodd" d="M98.6227 216.738C98.5897 218.476 98.1679 220.016 97.5313 220.09C96.6909 220.186 96.0624 220.25 95.2634 220.037C93.7519 219.632 93.705 217.953 93.7325 216.508C96.5424 218.698 96.2419 218.878 98.6227 216.738Z" fill="#A01F1F"/>
<path fill-rule="evenodd" clip-rule="evenodd" d="M114.497 217.732C114.574 218.917 114.627 220.137 113.386 220.178C112.13 220.22 112.228 219.092 112.083 217.874C112.882 218.337 113.575 218.362 114.497 217.732Z" fill="#A01F1F"/>
<path fill-rule="evenodd" clip-rule="evenodd" d="M95.138 229.704C94.7082 227.342 95.1568 223.911 95.1524 221.403C96.2862 221.731 97.3523 221.585 98.6227 221.515C98.4549 224.028 98.382 227.434 97.8731 229.963C97.4977 231.827 95.4527 231.436 95.138 229.704Z" fill="#581010"/>
<path fill-rule="evenodd" clip-rule="evenodd" d="M94.9534 231.193C96.1158 231.898 97.3587 232.07 98.6227 231.368C98.2955 232.832 98.0236 233.592 96.9478 233.638C95.64 233.695 94.9105 232.419 94.9534 231.193Z" fill="#A01F1F"/>
<defs>
<filter id="filter0_d" x="262.406" y="112.776" width="30.5938" height="75.7266" filterUnits="userSpaceOnUse" color-interpolation-filters="sRGB">
<feFlood flood-opacity="0" result="BackgroundImageFix"/>
<feColorMatrix in="SourceAlpha" type="matrix" values="0 0 0 0 0 0 0 0 0 0 0 0 0 0 0 0 0 0 127 0"/>
<feOffset dx="1" dy="1"/>
<feGaussianBlur stdDeviation="1"/>
<feColorMatrix type="matrix" values="0 0 0 0 0 0 0 0 0 0 0 0 0 0 0 0 0 0 0.15 0"/>
<feBlend mode="normal" in2="BackgroundImageFix" result="effect1_dropShadow"/>
<feBlend mode="normal" in="SourceGraphic" in2="effect1_dropShadow" result="shape"/>
</filter>
<radialGradient id="paint0_radial" cx="0" cy="0" r="1" gradientUnits="userSpaceOnUse" gradientTransform="translate(150 150) rotate(90) scale(150)">
<stop offset="0.369792" stop-color="white" stop-opacity="0"/>
<stop offset="1" stop-color="#FF0000"/>
</radialGradient>
</defs>
</svg>
