<svg width="300" height="300" viewBox="0 0 300 300" fill="none" xmlns="http://www.w3.org/2000/svg">
<rect width="300" height="300" fill="white"/>
<rect width="300" height="300" fill="white"/>
<rect width="300" height="300" fill="white"/>
<rect width="300" height="300" fill="url(#paint0_radial)" fill-opacity="0.2"/>
<g filter="url(#filter0_d)">
<path d="M289.5 219.514L263.906 219.514L263.906 210.549C263.906 207.443 264.504 205.088 265.699 203.482C266.883 201.877 268.623 201.074 270.92 201.074C272.174 201.074 273.281 201.397 274.242 202.041C275.191 202.686 275.889 203.582 276.334 204.731C276.662 203.418 277.324 202.387 278.32 201.637C279.316 200.875 280.535 200.494 281.977 200.494C284.437 200.494 286.301 201.279 287.566 202.85C288.832 204.42 289.477 206.658 289.5 209.565L289.5 219.514ZM278.355 214.24L285.264 214.24L285.264 209.723C285.264 208.481 284.971 207.514 284.385 206.822C283.787 206.119 282.967 205.768 281.924 205.768C279.58 205.768 278.391 206.981 278.355 209.406L278.355 214.24ZM274.629 214.24L274.629 210.338C274.582 207.678 273.521 206.348 271.447 206.348C270.287 206.348 269.455 206.688 268.951 207.367C268.436 208.035 268.178 209.096 268.178 210.549L268.178 214.24L274.629 214.24ZM280.131 183.087L280.131 187.288L289.5 187.288L289.5 192.562L263.906 192.562L263.906 183.052C263.906 180.028 264.58 177.696 265.928 176.056C267.275 174.415 269.18 173.595 271.641 173.595C273.387 173.595 274.846 173.976 276.018 174.737C277.178 175.487 278.104 176.63 278.795 178.165L289.254 172.628L289.5 172.628L289.5 178.288L280.131 183.087ZM275.859 187.288L275.859 183.034C275.859 181.71 275.525 180.685 274.857 179.958C274.178 179.231 273.246 178.868 272.062 178.868C270.855 178.868 269.906 179.214 269.215 179.905C268.523 180.585 268.178 181.634 268.178 183.052L268.178 187.288L275.859 187.288ZM277.283 144.586C279.803 144.586 282.012 145.031 283.91 145.922C285.809 146.812 287.273 148.09 288.305 149.754C289.336 151.406 289.852 153.305 289.852 155.449C289.852 157.57 289.342 159.463 288.322 161.127C287.303 162.791 285.85 164.08 283.963 164.994C282.064 165.908 279.885 166.371 277.424 166.383L276.158 166.383C273.639 166.383 271.424 165.932 269.514 165.029C267.592 164.115 266.121 162.832 265.102 161.18C264.07 159.516 263.555 157.617 263.555 155.484C263.555 153.352 264.07 151.459 265.102 149.807C266.121 148.143 267.592 146.859 269.514 145.957C271.424 145.043 273.633 144.586 276.141 144.586L277.283 144.586ZM276.123 149.93C273.439 149.93 271.4 150.41 270.006 151.371C268.611 152.332 267.914 153.703 267.914 155.484C267.914 157.254 268.605 158.619 269.988 159.58C271.359 160.541 273.375 161.027 276.035 161.039L277.283 161.039C279.896 161.039 281.924 160.559 283.365 159.598C284.807 158.637 285.527 157.254 285.527 155.449C285.527 153.68 284.836 152.32 283.453 151.371C282.059 150.422 280.031 149.941 277.371 149.93L276.123 149.93ZM282.117 116.86L263.906 113.415L263.906 108.159L289.5 113.837L289.5 119.145L272.379 123.311L289.5 127.478L289.5 132.786L263.906 138.464L263.906 133.208L282.082 129.745L263.906 125.526L263.906 121.061L282.117 116.86ZM289.5 80.5214L289.5 85.7948L272.66 96.0605L289.5 96.0605L289.5 101.334L263.906 101.334L263.906 96.0605L280.781 85.7773L263.906 85.7773L263.906 80.5214L289.5 80.5214Z" fill="white"/>
<path d="M289.5 219.514L289.5 220.014L290 220.014L290 219.514L289.5 219.514ZM263.906 219.514L263.406 219.514L263.406 220.014L263.906 220.014L263.906 219.514ZM265.699 203.482L266.1 203.781L266.102 203.779L265.699 203.482ZM274.242 202.041L274.523 201.627L274.521 201.626L274.242 202.041ZM276.334 204.731L275.868 204.911L276.437 206.38L276.819 204.852L276.334 204.731ZM278.32 201.637L278.621 202.036L278.624 202.034L278.32 201.637ZM289.5 209.565L290 209.565L290 209.56L289.5 209.565ZM278.355 214.24L277.855 214.24L277.855 214.74L278.355 214.74L278.355 214.24ZM285.264 214.24L285.264 214.74L285.764 214.74L285.764 214.24L285.264 214.24ZM284.385 206.822L284.766 206.499L284.766 206.499L284.385 206.822ZM278.355 209.406L277.855 209.399L277.855 209.406L278.355 209.406ZM274.629 214.24L274.629 214.74L275.129 214.74L275.129 214.24L274.629 214.24ZM274.629 210.338L275.129 210.338L275.129 210.329L274.629 210.338ZM268.951 207.367L269.347 207.673L269.353 207.665L268.951 207.367ZM268.178 214.24L267.678 214.24L267.678 214.74L268.178 214.74L268.178 214.24ZM289.5 219.014L263.906 219.014L263.906 220.014L289.5 220.014L289.5 219.014ZM264.406 219.514L264.406 210.549L263.406 210.549L263.406 219.514L264.406 219.514ZM264.406 210.549C264.406 207.495 264.996 205.264 266.1 203.781L265.298 203.184C264.012 204.912 263.406 207.391 263.406 210.549L264.406 210.549ZM266.102 203.779C267.176 202.322 268.754 201.574 270.92 201.574L270.92 200.574C268.492 200.574 266.59 201.432 265.297 203.186L266.102 203.779ZM270.92 201.574C272.083 201.574 273.092 201.872 273.964 202.456L274.521 201.626C273.47 200.921 272.264 200.574 270.92 200.574L270.92 201.574ZM273.961 202.455C274.82 203.038 275.456 203.85 275.868 204.911L276.8 204.55C276.321 203.314 275.563 202.333 274.523 201.627L273.961 202.455ZM276.819 204.852C277.122 203.64 277.724 202.711 278.621 202.036L278.02 201.237C276.924 202.062 276.202 203.196 275.849 204.609L276.819 204.852ZM278.624 202.034C279.52 201.349 280.628 200.994 281.977 200.994L281.977 199.994C280.443 199.994 279.113 200.401 278.017 201.24L278.624 202.034ZM281.977 200.994C284.323 200.994 286.027 201.737 287.177 203.163L287.956 202.536C286.574 200.822 284.552 199.994 281.977 199.994L281.977 200.994ZM287.177 203.163C288.347 204.615 288.977 206.727 289 209.569L290 209.56C289.976 206.59 289.317 204.225 287.956 202.536L287.177 203.163ZM289 209.565L289 219.514L290 219.514L290 209.565L289 209.565ZM278.355 214.74L285.264 214.74L285.264 213.74L278.355 213.74L278.355 214.74ZM285.764 214.24L285.764 209.723L284.764 209.723L284.764 214.24L285.764 214.24ZM285.764 209.723C285.764 208.406 285.453 207.309 284.766 206.499L284.003 207.146C284.488 207.718 284.764 208.555 284.764 209.723L285.764 209.723ZM284.766 206.499C284.06 205.668 283.092 205.268 281.924 205.268L281.924 206.268C282.841 206.268 283.514 206.57 284.004 207.146L284.766 206.499ZM281.924 205.268C280.67 205.268 279.637 205.593 278.917 206.327C278.2 207.058 277.874 208.113 277.856 209.399L278.855 209.414C278.872 208.274 279.158 207.509 279.631 207.027C280.1 206.549 280.834 206.268 281.924 206.268L281.924 205.268ZM277.855 209.406L277.855 214.24L278.855 214.24L278.855 209.406L277.855 209.406ZM275.129 214.24L275.129 210.338L274.129 210.338L274.129 214.24L275.129 214.24ZM275.129 210.329C275.104 208.947 274.817 207.821 274.189 207.034C273.543 206.223 272.6 205.848 271.447 205.848L271.447 206.848C272.369 206.848 272.993 207.137 273.407 207.657C273.84 208.199 274.106 209.069 274.129 210.347L275.129 210.329ZM271.447 205.848C270.192 205.848 269.18 206.219 268.55 207.069L269.353 207.665C269.73 207.156 270.382 206.848 271.447 206.848L271.447 205.848ZM268.555 207.062C267.939 207.861 267.678 209.057 267.678 210.549L268.678 210.549C268.678 209.134 268.933 208.21 269.347 207.673L268.555 207.062ZM267.678 210.549L267.678 214.24L268.678 214.24L268.678 210.549L267.678 210.549ZM268.178 214.74L274.629 214.74L274.629 213.74L268.178 213.74L268.178 214.74ZM280.131 183.087L279.903 182.642L279.631 182.781L279.631 183.087L280.131 183.087ZM280.131 187.288L279.631 187.288L279.631 187.788L280.131 187.788L280.131 187.288ZM289.5 187.288L290 187.288L290 186.788L289.5 186.788L289.5 187.288ZM289.5 192.562L289.5 193.062L290 193.062L290 192.562L289.5 192.562ZM263.906 192.562L263.406 192.562L263.406 193.062L263.906 193.062L263.906 192.562ZM276.018 174.737L275.745 175.157L275.746 175.157L276.018 174.737ZM278.795 178.165L278.339 178.37L278.558 178.856L279.029 178.607L278.795 178.165ZM289.254 172.628L289.254 172.128L289.13 172.128L289.02 172.186L289.254 172.628ZM289.5 172.628L290 172.628L290 172.128L289.5 172.128L289.5 172.628ZM289.5 178.288L289.728 178.733L290 178.594L290 178.288L289.5 178.288ZM275.859 187.288L275.859 187.788L276.359 187.788L276.359 187.288L275.859 187.288ZM274.857 179.958L275.226 179.62L275.223 179.616L274.857 179.958ZM269.215 179.905L269.565 180.262L269.568 180.259L269.215 179.905ZM268.178 187.288L267.678 187.288L267.678 187.788L268.178 187.788L268.178 187.288ZM279.631 183.087L279.631 187.288L280.631 187.288L280.631 183.087L279.631 183.087ZM280.131 187.788L289.5 187.788L289.5 186.788L280.131 186.788L280.131 187.788ZM289 187.288L289 192.562L290 192.562L290 187.288L289 187.288ZM289.5 192.062L263.906 192.062L263.906 193.062L289.5 193.062L289.5 192.062ZM264.406 192.562L264.406 183.052L263.406 183.052L263.406 192.562L264.406 192.562ZM264.406 183.052C264.406 180.096 265.066 177.893 266.314 176.373L265.541 175.738C264.095 177.5 263.406 179.961 263.406 183.052L264.406 183.052ZM266.314 176.373C267.551 174.867 269.303 174.095 271.641 174.095L271.641 173.095C269.057 173.095 267 173.963 265.541 175.738L266.314 176.373ZM271.641 174.095C273.314 174.095 274.672 174.459 275.745 175.157L276.29 174.318C275.019 173.492 273.459 173.095 271.641 173.095L271.641 174.095ZM275.746 175.157C276.809 175.845 277.678 176.904 278.339 178.37L279.251 177.96C278.529 176.356 277.546 175.13 276.289 174.317L275.746 175.157ZM279.029 178.607L289.488 173.07L289.02 172.186L278.561 177.723L279.029 178.607ZM289.254 173.128L289.5 173.128L289.5 172.128L289.254 172.128L289.254 173.128ZM289 172.628L289 178.288L290 178.288L290 172.628L289 172.628ZM289.272 177.843L279.903 182.642L280.359 183.532L289.728 178.733L289.272 177.843ZM276.359 187.288L276.359 183.034L275.359 183.034L275.359 187.288L276.359 187.288ZM276.359 183.034C276.359 181.628 276.004 180.466 275.226 179.62L274.489 180.296C275.047 180.903 275.359 181.792 275.359 183.034L276.359 183.034ZM275.223 179.616C274.43 178.77 273.356 178.368 272.062 178.368L272.062 179.368C273.136 179.368 273.925 179.693 274.492 180.3L275.223 179.616ZM272.062 178.368C270.756 178.368 269.667 178.746 268.861 179.552L269.568 180.259C270.145 179.682 270.955 179.368 272.062 179.368L272.062 178.368ZM268.864 179.549C268.041 180.358 267.678 181.562 267.678 183.052L268.678 183.052C268.678 181.706 269.006 180.812 269.565 180.262L268.864 179.549ZM267.678 183.052L267.678 187.288L268.678 187.288L268.678 183.052L267.678 183.052ZM268.178 187.788L275.859 187.788L275.859 186.788L268.178 186.788L268.178 187.788ZM288.305 149.754L287.88 150.017L287.881 150.019L288.305 149.754ZM283.963 164.994L284.18 165.445L284.181 165.444L283.963 164.994ZM277.424 166.383L277.424 166.883L277.426 166.883L277.424 166.383ZM269.514 165.029L269.299 165.481L269.3 165.481L269.514 165.029ZM265.102 161.18L265.527 160.917L265.527 160.916L265.102 161.18ZM265.102 149.807L265.526 150.071L265.528 150.068L265.102 149.807ZM269.514 145.957L269.726 146.41L269.729 146.408L269.514 145.957ZM269.988 159.58L270.275 159.171L270.274 159.169L269.988 159.58ZM276.035 161.039L276.033 161.539L276.035 161.539L276.035 161.039ZM283.453 151.371L283.736 150.959L283.734 150.958L283.453 151.371ZM277.371 149.93L277.373 149.43L277.371 149.43L277.371 149.93ZM277.283 145.086C279.744 145.086 281.878 145.521 283.698 146.375L284.123 145.469C282.146 144.542 279.862 144.086 277.283 144.086L277.283 145.086ZM283.698 146.375C285.515 147.227 286.903 148.442 287.88 150.017L288.73 149.491C287.644 147.738 286.102 146.398 284.123 145.469L283.698 146.375ZM287.881 150.019C288.857 151.584 289.352 153.389 289.352 155.449L290.352 155.449C290.352 153.221 289.815 151.229 288.729 149.489L287.881 150.019ZM289.352 155.449C289.352 157.486 288.863 159.287 287.896 160.866L288.749 161.388C289.82 159.639 290.352 157.654 290.352 155.449L289.352 155.449ZM287.896 160.866C286.93 162.442 285.552 163.669 283.745 164.544L284.181 165.444C286.147 164.492 287.675 163.14 288.749 161.388L287.896 160.866ZM283.746 164.544C281.925 165.42 279.82 165.871 277.421 165.883L277.426 166.883C279.949 166.871 282.204 166.396 284.18 165.445L283.746 164.544ZM277.424 165.883L276.158 165.883L276.158 166.883L277.424 166.883L277.424 165.883ZM276.158 165.883C273.698 165.883 271.559 165.443 269.727 164.577L269.3 165.481C271.289 166.421 273.579 166.883 276.158 166.883L276.158 165.883ZM269.728 164.578C267.885 163.701 266.491 162.48 265.527 160.917L264.676 161.442C265.751 163.184 267.299 164.53 269.299 165.481L269.728 164.578ZM265.527 160.916C264.549 159.338 264.055 157.533 264.055 155.484L263.055 155.484C263.055 157.702 263.592 159.693 264.677 161.443L265.527 160.916ZM264.055 155.484C264.055 153.436 264.549 151.637 265.526 150.071L264.677 149.542C263.592 151.281 263.055 153.267 263.055 155.484L264.055 155.484ZM265.528 150.068C266.492 148.494 267.885 147.274 269.726 146.41L269.301 145.504C267.299 146.444 265.75 147.791 264.675 149.545L265.528 150.068ZM269.729 146.408C271.561 145.532 273.694 145.086 276.141 145.086L276.141 144.086C273.572 144.086 271.287 144.554 269.298 145.506L269.729 146.408ZM276.141 145.086L277.283 145.086L277.283 144.086L276.141 144.086L276.141 145.086ZM276.123 149.43C273.393 149.43 271.236 149.916 269.722 150.959L270.29 151.783C271.565 150.904 273.486 150.43 276.123 150.43L276.123 149.43ZM269.722 150.959C268.184 152.019 267.414 153.549 267.414 155.484L268.414 155.484C268.414 153.857 269.039 152.645 270.29 151.783L269.722 150.959ZM267.414 155.484C267.414 157.408 268.178 158.931 269.703 159.991L270.274 159.169C269.033 158.307 268.414 157.1 268.414 155.484L267.414 155.484ZM269.701 159.99C271.192 161.034 273.326 161.527 276.033 161.539L276.037 160.539C273.424 160.528 271.527 160.048 270.275 159.171L269.701 159.99ZM276.035 161.539L277.283 161.539L277.283 160.539L276.035 160.539L276.035 161.539ZM277.283 161.539C279.948 161.539 282.087 161.051 283.643 160.014L283.088 159.182C281.761 160.067 279.845 160.539 277.283 160.539L277.283 161.539ZM283.643 160.014C285.23 158.955 286.027 157.413 286.027 155.449L285.027 155.449C285.027 157.095 284.383 158.318 283.088 159.182L283.643 160.014ZM286.027 155.449C286.027 153.526 285.263 152.007 283.736 150.959L283.17 151.783C284.408 152.633 285.027 153.834 285.027 155.449L286.027 155.449ZM283.734 150.958C282.223 149.929 280.08 149.442 277.373 149.43L277.369 150.43C279.982 150.441 281.895 150.915 283.172 151.784L283.734 150.958ZM277.371 149.43L276.123 149.43L276.123 150.43L277.371 150.43L277.371 149.43ZM282.117 116.86L282.23 117.348L282.21 116.369L282.117 116.86ZM263.906 113.415L263.406 113.415L263.406 113.829L263.813 113.906L263.906 113.415ZM263.906 108.159L264.015 107.671L263.406 107.536L263.406 108.159L263.906 108.159ZM289.5 113.837L290 113.837L290 113.436L289.608 113.349L289.5 113.837ZM289.5 119.145L289.618 119.631L290 119.538L290 119.145L289.5 119.145ZM272.379 123.311L272.261 122.826L272.261 123.797L272.379 123.311ZM289.5 127.478L290 127.478L290 127.085L289.618 126.992L289.5 127.478ZM289.5 132.786L289.608 133.274L290 133.187L290 132.786L289.5 132.786ZM263.906 138.464L263.406 138.464L263.406 139.087L264.015 138.952L263.906 138.464ZM263.906 133.208L263.813 132.717L263.406 132.794L263.406 133.208L263.906 133.208ZM282.082 129.745L282.176 130.236L282.195 129.258L282.082 129.745ZM263.906 125.526L263.406 125.526L263.406 125.924L263.793 126.013L263.906 125.526ZM263.906 121.061L263.794 120.574L263.406 120.664L263.406 121.061L263.906 121.061ZM282.21 116.369L263.999 112.924L263.813 113.906L282.024 117.352L282.21 116.369ZM264.406 113.415L264.406 108.159L263.406 108.159L263.406 113.415L264.406 113.415ZM263.798 108.647L289.392 114.325L289.608 113.349L264.015 107.671L263.798 108.647ZM289 113.837L289 119.145L290 119.145L290 113.837L289 113.837ZM289.382 118.66L272.261 122.826L272.497 123.797L289.618 119.631L289.382 118.66ZM272.261 123.797L289.382 127.963L289.618 126.992L272.497 122.826L272.261 123.797ZM289 127.478L289 132.786L290 132.786L290 127.478L289 127.478ZM289.392 132.298L263.798 137.976L264.015 138.952L289.608 133.274L289.392 132.298ZM264.406 138.464L264.406 133.208L263.406 133.208L263.406 138.464L264.406 138.464ZM264 133.699L282.176 130.236L281.988 129.254L263.813 132.717L264 133.699ZM282.195 129.258L264.019 125.039L263.793 126.013L281.969 130.232L282.195 129.258ZM264.406 125.526L264.406 121.061L263.406 121.061L263.406 125.526L264.406 125.526ZM264.019 121.549L282.23 117.348L282.005 116.373L263.794 120.574L264.019 121.549ZM289.5 80.5214L290 80.5214L290 80.0214L289.5 80.0214L289.5 80.5214ZM289.5 85.7948L289.76 86.2218L290 86.0756L290 85.7948L289.5 85.7948ZM272.66 96.0605L272.4 95.6335L270.879 96.5605L272.66 96.5605L272.66 96.0605ZM289.5 96.0605L290 96.0605L290 95.5605L289.5 95.5605L289.5 96.0605ZM289.5 101.334L289.5 101.834L290 101.834L290 101.334L289.5 101.334ZM263.906 101.334L263.406 101.334L263.406 101.834L263.906 101.834L263.906 101.334ZM263.906 96.0605L263.646 95.6335L263.406 95.7796L263.406 96.0605L263.906 96.0605ZM280.781 85.7773L281.041 86.2042L282.563 85.2773L280.781 85.2773L280.781 85.7773ZM263.906 85.7773L263.406 85.7773L263.406 86.2773L263.906 86.2773L263.906 85.7773ZM263.906 80.5214L263.906 80.0214L263.406 80.0214L263.406 80.5214L263.906 80.5214ZM289 80.5214L289 85.7948L290 85.7948L290 80.5214L289 80.5214ZM289.24 85.3679L272.4 95.6335L272.92 96.4874L289.76 86.2218L289.24 85.3679ZM272.66 96.5605L289.5 96.5605L289.5 95.5605L272.66 95.5605L272.66 96.5605ZM289 96.0605L289 101.334L290 101.334L290 96.0605L289 96.0605ZM289.5 100.834L263.906 100.834L263.906 101.834L289.5 101.834L289.5 100.834ZM264.406 101.334L264.406 96.0605L263.406 96.0605L263.406 101.334L264.406 101.334ZM264.166 96.4874L281.041 86.2042L280.521 85.3503L263.646 95.6335L264.166 96.4874ZM280.781 85.2773L263.906 85.2773L263.906 86.2773L280.781 86.2773L280.781 85.2773ZM264.406 85.7773L264.406 80.5214L263.406 80.5214L263.406 85.7773L264.406 85.7773ZM263.906 81.0214L289.5 81.0214L289.5 80.0214L263.906 80.0214L263.906 81.0214Z" fill="#78491F"/>
</g>
<path d="M28.0078 265.703V285H14.2969V228.125H36.9922C41.3411 228.125 45.1823 228.932 48.5156 230.547C51.875 232.135 54.4661 234.414 56.2891 237.383C58.138 240.326 59.0625 243.672 59.0625 247.422C59.0625 252.969 57.0703 257.409 53.0859 260.742C49.1276 264.049 43.6849 265.703 36.7578 265.703H28.0078ZM28.0078 255.117H36.9922C39.6484 255.117 41.6667 254.453 43.0469 253.125C44.4531 251.797 45.1562 249.922 45.1562 247.5C45.1562 244.844 44.4401 242.721 43.0078 241.133C41.5755 239.544 39.6224 238.737 37.1484 238.711H28.0078V255.117ZM81.418 272.783C81.418 275.303 80.9727 277.512 80.082 279.41C79.1914 281.309 77.9141 282.773 76.25 283.805C74.5977 284.836 72.6992 285.352 70.5547 285.352C68.4336 285.352 66.541 284.842 64.877 283.822C63.2129 282.803 61.9238 281.35 61.0098 279.463C60.0957 277.564 59.6328 275.385 59.6211 272.924V271.658C59.6211 269.139 60.0723 266.924 60.9746 265.014C61.8887 263.092 63.1719 261.621 64.8242 260.602C66.4883 259.57 68.3867 259.055 70.5195 259.055C72.6523 259.055 74.5449 259.57 76.1973 260.602C77.8613 261.621 79.1445 263.092 80.0469 265.014C80.9609 266.924 81.418 269.133 81.418 271.641V272.783ZM76.0742 271.623C76.0742 268.939 75.5938 266.9 74.6328 265.506C73.6719 264.111 72.3008 263.414 70.5195 263.414C68.75 263.414 67.3848 264.105 66.4238 265.488C65.4629 266.859 64.9766 268.875 64.9648 271.535V272.783C64.9648 275.396 65.4453 277.424 66.4062 278.865C67.3672 280.307 68.75 281.027 70.5547 281.027C72.3242 281.027 73.6836 280.336 74.6328 278.953C75.582 277.559 76.0625 275.531 76.0742 272.871V271.623ZM105.524 263.678H97.6841V285H92.4106V263.678H84.6762V259.406H105.524V263.678ZM123.407 279.727H114.161L112.403 285H106.796L116.323 259.406H121.21L130.79 285H125.183L123.407 279.727ZM115.585 275.455H121.983L118.767 265.875L115.585 275.455ZM152.857 263.678H145.017V285H139.744V263.678H132.009V259.406H152.857V263.678ZM178.932 272.783C178.932 275.303 178.486 277.512 177.596 279.41C176.705 281.309 175.428 282.773 173.764 283.805C172.111 284.836 170.213 285.352 168.068 285.352C165.947 285.352 164.055 284.842 162.391 283.822C160.726 282.803 159.437 281.35 158.523 279.463C157.609 277.564 157.146 275.385 157.135 272.924V271.658C157.135 269.139 157.586 266.924 158.488 265.014C159.402 263.092 160.685 261.621 162.338 260.602C164.002 259.57 165.9 259.055 168.033 259.055C170.166 259.055 172.059 259.57 173.711 260.602C175.375 261.621 176.658 263.092 177.56 265.014C178.475 266.924 178.932 269.133 178.932 271.641V272.783ZM173.588 271.623C173.588 268.939 173.107 266.9 172.146 265.506C171.185 264.111 169.814 263.414 168.033 263.414C166.264 263.414 164.898 264.105 163.937 265.488C162.976 266.859 162.49 268.875 162.478 271.535V272.783C162.478 275.396 162.959 277.424 163.92 278.865C164.881 280.307 166.264 281.027 168.068 281.027C169.838 281.027 171.197 280.336 172.146 278.953C173.096 277.559 173.576 275.531 173.588 272.871V271.623Z" fill="black"/>
<path d="M106.627 26.7881V32H105.546V19.2031H109.906C111.236 19.2031 112.285 19.543 113.052 20.2227C113.826 20.9023 114.212 21.8369 114.212 23.0264C114.212 24.2275 113.84 25.1562 113.096 25.8125C112.358 26.4629 111.286 26.7881 109.879 26.7881H106.627ZM106.627 25.874H109.906C110.955 25.874 111.754 25.625 112.305 25.127C112.856 24.6289 113.131 23.9346 113.131 23.0439C113.131 22.1592 112.856 21.4561 112.305 20.9346C111.76 20.4072 110.984 20.1377 109.976 20.126H106.627V25.874ZM123.399 26.6738H119.682V32H118.592V19.2031H122.749C124.114 19.2031 125.181 19.5342 125.948 20.1963C126.716 20.8584 127.1 21.7842 127.1 22.9736C127.1 23.7939 126.859 24.5176 126.379 25.1445C125.898 25.7715 125.254 26.2051 124.445 26.4453L127.644 31.8857V32H126.493L123.399 26.6738ZM119.682 25.751H122.995C123.903 25.751 124.633 25.4932 125.184 24.9775C125.734 24.4619 126.01 23.7939 126.01 22.9736C126.01 22.0713 125.723 21.3711 125.148 20.873C124.574 20.375 123.769 20.126 122.731 20.126H119.682V25.751ZM141.481 26.2959C141.481 27.4736 141.276 28.5078 140.866 29.3984C140.461 30.2891 139.881 30.9746 139.125 31.4551C138.37 31.9355 137.497 32.1758 136.506 32.1758C135.012 32.1758 133.805 31.6426 132.885 30.5762C131.965 29.5039 131.505 28.0596 131.505 26.2432V24.9248C131.505 23.7588 131.71 22.7275 132.121 21.8311C132.537 20.9287 133.123 20.2373 133.878 19.7568C134.634 19.2705 135.504 19.0273 136.489 19.0273C137.473 19.0273 138.34 19.2646 139.09 19.7393C139.846 20.2139 140.429 20.8848 140.839 21.752C141.249 22.6191 141.463 23.624 141.481 24.7666V26.2959ZM140.4 24.9072C140.4 23.3662 140.051 22.1592 139.354 21.2861C138.657 20.4131 137.702 19.9766 136.489 19.9766C135.299 19.9766 134.35 20.416 133.641 21.2949C132.938 22.168 132.586 23.3896 132.586 24.96V26.2959C132.586 27.8135 132.938 29.0176 133.641 29.9082C134.344 30.793 135.299 31.2354 136.506 31.2354C137.731 31.2354 138.686 30.7988 139.372 29.9258C140.057 29.0469 140.4 27.8252 140.4 26.2607V24.9072ZM146.186 32V19.2031H149.763C150.812 19.2031 151.752 19.4434 152.584 19.9238C153.416 20.3984 154.063 21.0811 154.526 21.9717C154.995 22.8623 155.229 23.876 155.229 25.0127V26.1904C155.229 27.333 154.998 28.3467 154.535 29.2314C154.072 30.1162 153.419 30.7988 152.575 31.2793C151.737 31.7598 150.773 32 149.684 32H146.186ZM147.267 20.126V31.0859H149.692C151.04 31.0859 152.121 30.6406 152.936 29.75C153.75 28.8535 154.157 27.6436 154.157 26.1201V24.9951C154.157 23.5244 153.756 22.3467 152.953 21.4619C152.15 20.5771 151.093 20.1318 149.78 20.126H147.267ZM168.776 19.2031V27.9395C168.77 28.8008 168.58 29.5508 168.205 30.1895C167.83 30.8281 167.299 31.3203 166.614 31.666C165.934 32.0059 165.152 32.1758 164.267 32.1758C162.919 32.1758 161.838 31.8096 161.024 31.0771C160.215 30.3389 159.796 29.3193 159.767 28.0186V19.2031H160.839V27.8604C160.839 28.9385 161.147 29.7764 161.762 30.374C162.377 30.9658 163.212 31.2617 164.267 31.2617C165.322 31.2617 166.154 30.9629 166.763 30.3652C167.378 29.7676 167.686 28.9355 167.686 27.8691V19.2031H168.776ZM182.832 28.0098C182.686 29.3574 182.202 30.3887 181.382 31.1035C180.567 31.8184 179.48 32.1758 178.121 32.1758C177.172 32.1758 176.331 31.9385 175.599 31.4639C174.872 30.9893 174.31 30.3184 173.911 29.4512C173.513 28.5781 173.311 27.582 173.305 26.4629V24.8018C173.305 23.665 173.504 22.6572 173.902 21.7783C174.301 20.8994 174.872 20.2227 175.616 19.748C176.366 19.2676 177.228 19.0273 178.2 19.0273C179.571 19.0273 180.652 19.3994 181.443 20.1436C182.24 20.8818 182.703 21.9043 182.832 23.2109H181.742C181.473 21.0371 180.292 19.9502 178.2 19.9502C177.04 19.9502 176.114 20.3838 175.423 21.251C174.737 22.1182 174.395 23.3164 174.395 24.8457V26.4102C174.395 27.8867 174.729 29.0645 175.397 29.9434C176.07 30.8223 176.979 31.2617 178.121 31.2617C179.252 31.2617 180.105 30.9922 180.679 30.4531C181.253 29.9082 181.607 29.0938 181.742 28.0098H182.832ZM194.506 25.8652H188.521V31.0859H195.403V32H187.44V19.2031H195.359V20.126H188.521V24.9512H194.506V25.8652Z" fill="black"/>
<g clip-path="url(#clip0)">
<path fill-rule="evenodd" clip-rule="evenodd" d="M244.826 124.994C241.389 107.299 226.984 97.7995 210.083 94.8563C199.361 92.9919 188.47 91.009 177.593 91C122.743 90.9586 105.079 105.014 73.4497 120.456C57.7909 128.1 52.9614 148.798 55.7445 165.942C58.6345 183.749 71.4359 197.292 87.8996 203.789C106.564 211.155 127.242 208.902 146.78 207.767C165.745 206.667 185.312 206.818 204.054 203.499C220.788 200.532 234.887 191.66 241.059 175.341C244.166 167.121 244.924 158.099 245.541 149.406C246.127 141.243 246.394 133.074 244.826 124.994Z" fill="#754D27"/>
<path fill-rule="evenodd" clip-rule="evenodd" d="M158.714 101.129C141.64 102.156 125.289 106.434 109.7 113.417C104.878 115.574 105.049 120.478 107.627 123.762C107.745 124.708 108.082 125.643 108.716 126.512C118.718 140.203 139.242 136.079 153.839 134.219C162.923 133.062 172.083 131.534 180.901 129.022C187.651 127.099 194.629 123.151 195.125 115.271C196.218 97.9074 169.726 100.465 158.714 101.129Z" fill="#85542B"/>
<path fill-rule="evenodd" clip-rule="evenodd" d="M235.589 147.653C235.027 147.879 234.527 148.294 234.134 148.937C215.075 180.224 189.696 187.024 173.926 193.285C170.982 194.453 170.944 199.779 174.754 199.373C189.476 197.811 207.839 198.866 219.98 189.135C231.395 179.99 238.072 165.246 240.453 151.133C240.962 148.116 237.494 146.441 235.589 147.653Z" fill="#6A4123"/>
<path fill-rule="evenodd" clip-rule="evenodd" d="M77.4469 177.658C76.2947 176.889 75.2058 178.345 75.7608 179.338C75.7548 179.468 75.7488 179.594 75.791 179.739C76.8798 183.458 78.8736 186.744 81.6968 189.456C82.4358 190.166 83.9288 189.686 83.8534 188.586C83.5428 184.095 81.2564 180.193 77.4469 177.658Z" fill="#57341E"/>
<path fill-rule="evenodd" clip-rule="evenodd" d="M96.78 147.491C95.867 146.789 94.988 147.792 95.0759 148.747C94.9427 148.936 94.8434 149.165 94.8491 149.472C94.8973 152.424 96.2356 154.99 98.5181 156.658C99.3319 157.251 100.217 156.435 100.302 155.571C100.616 152.358 99.2099 149.367 96.78 147.491Z" fill="#57341E"/>
<path fill-rule="evenodd" clip-rule="evenodd" d="M122.447 179.311C121.947 179.433 121.515 179.809 121.487 180.455C121.312 184.995 121.136 189.535 120.958 194.072C120.9 195.517 123.027 195.711 123.445 194.403C124.952 189.693 125.424 184.897 124.831 179.988C124.676 178.695 122.955 178.471 122.447 179.311Z" fill="#57341E"/>
<path fill-rule="evenodd" clip-rule="evenodd" d="M151.423 147.514C150.163 146.838 148.876 147.568 148.553 148.799C148.55 148.81 148.553 148.822 148.55 148.834C148.387 149.019 148.261 149.243 148.233 149.538C147.846 153.85 147.459 158.159 147.068 162.468C146.998 163.255 147.95 163.914 148.697 163.669C150.467 163.1 151.26 161.92 151.595 160.165C152.127 157.411 152.152 154.491 152.413 151.704C152.542 150.315 152.954 148.337 151.423 147.514Z" fill="#57341E"/>
<path fill-rule="evenodd" clip-rule="evenodd" d="M123.812 121.364C123.38 121.543 123.112 121.829 122.948 122.165C122.569 122.325 122.289 122.653 122.336 123.177C122.542 125.36 122.742 127.543 122.948 129.726C123.061 130.964 123.013 132.62 124.427 133.248C128.094 134.879 127.942 129.092 127.743 127.431C127.552 125.861 126.854 120.108 123.812 121.364Z" fill="#57341E"/>
<path fill-rule="evenodd" clip-rule="evenodd" d="M188.618 176.295C188.289 176.391 187.988 176.611 187.838 177.024C187.067 179.122 185.649 181.651 185.543 183.918C185.473 185.412 186.445 187.074 188.042 187.046C192.073 186.979 191.082 179.302 190.441 176.92C190.237 176.163 189.186 175.803 188.618 176.295Z" fill="#57341E"/>
<path fill-rule="evenodd" clip-rule="evenodd" d="M206.888 114.518C206.007 112.871 203.231 112.206 202.175 114.113C201.879 114.649 202.067 115.148 202.433 115.477C202.421 115.608 202.412 115.741 202.449 115.885C202.96 117.828 203.471 119.772 203.982 121.715C204.219 122.614 205.893 122.927 206.337 121.99C207.383 119.789 208.107 116.8 206.888 114.518Z" fill="#57341E"/>
</g>
<defs>
<filter id="filter0_d" x="262.055" y="79.0214" width="31.2969" height="143.992" filterUnits="userSpaceOnUse" color-interpolation-filters="sRGB">
<feFlood flood-opacity="0" result="BackgroundImageFix"/>
<feColorMatrix in="SourceAlpha" type="matrix" values="0 0 0 0 0 0 0 0 0 0 0 0 0 0 0 0 0 0 127 0"/>
<feOffset dx="1" dy="1"/>
<feGaussianBlur stdDeviation="1"/>
<feColorMatrix type="matrix" values="0 0 0 0 0 0 0 0 0 0 0 0 0 0 0 0 0 0 0.15 0"/>
<feBlend mode="normal" in2="BackgroundImageFix" result="effect1_dropShadow"/>
<feBlend mode="normal" in="SourceGraphic" in2="effect1_dropShadow" result="shape"/>
</filter>
<radialGradient id="paint0_radial" cx="0" cy="0" r="1" gradientUnits="userSpaceOnUse" gradientTransform="translate(150 150) rotate(90) scale(150)">
<stop offset="0.296875" stop-color="white" stop-opacity="0"/>
<stop offset="0.947917" stop-color="#826419" stop-opacity="0.83"/>
</radialGradient>
<clipPath id="clip0">
<rect width="191" height="118" fill="white" transform="translate(55 91)"/>
</clipPath>
</defs>
</svg>
