<svg width="300" height="300" viewBox="0 0 300 300" fill="none" xmlns="http://www.w3.org/2000/svg">
<rect width="300" height="300" fill="white"/>
<rect width="300" height="300" fill="white"/>
<rect width="300" height="300" fill="white"/>
<rect width="300" height="300" fill="url(#paint0_radial)" fill-opacity="0.2"/>
<g filter="url(#filter0_d)">
<path d="M286.266 178.422C287.402 179.372 288.287 180.713 288.92 182.448C289.541 184.182 289.852 186.104 289.852 188.213C289.852 190.428 289.371 192.374 288.41 194.049C287.437 195.713 286.031 197.003 284.191 197.917C282.352 198.819 280.189 199.282 277.705 199.305L275.965 199.305C273.41 199.305 271.201 198.878 269.338 198.022C267.463 197.155 266.033 195.913 265.049 194.295C264.053 192.667 263.555 190.762 263.555 188.583C263.555 185.547 264.281 183.174 265.734 181.463C267.176 179.753 269.279 178.739 272.045 178.422L272.045 183.555C270.58 183.79 269.508 184.311 268.828 185.12C268.148 185.917 267.809 187.018 267.809 188.424C267.809 190.217 268.482 191.583 269.83 192.52C271.178 193.458 273.182 193.932 275.842 193.944L277.477 193.944C280.16 193.944 282.187 193.434 283.559 192.415C284.93 191.395 285.615 189.901 285.615 187.932C285.615 185.952 285.193 184.54 284.35 183.696L279.937 183.696L279.937 188.495L276.053 188.495L276.053 178.422L286.266 178.422ZM280.131 160.699L280.131 164.9L289.5 164.9L289.5 170.173L263.906 170.173L263.906 160.664C263.906 157.64 264.58 155.308 265.928 153.668C267.275 152.027 269.18 151.207 271.641 151.207C273.387 151.207 274.846 151.587 276.018 152.349C277.178 153.099 278.104 154.242 278.795 155.777L289.254 150.24L289.5 150.24L289.5 155.9L280.131 160.699ZM275.859 164.9L275.859 160.646C275.859 159.322 275.525 158.296 274.857 157.57C274.178 156.843 273.246 156.48 272.062 156.48C270.855 156.48 269.906 156.826 269.215 157.517C268.523 158.197 268.178 159.246 268.178 160.664L268.178 164.9L275.859 164.9ZM278.408 127.823L278.408 137.948L285.264 137.948L285.264 126.065L289.5 126.065L289.5 143.221L263.906 143.221L263.906 126.1L268.178 126.1L268.178 137.948L274.277 137.948L274.277 127.823L278.408 127.823ZM275.437 110.187L263.906 104.861L263.906 99.0952L280.219 107.497L289.5 107.497L289.5 112.859L280.219 112.859L263.906 121.261L263.906 115.478L275.437 110.187Z" fill="white"/>
<path d="M286.266 178.422L286.586 178.039L286.447 177.922L286.266 177.922L286.266 178.422ZM288.92 182.448L289.391 182.279L289.39 182.276L288.92 182.448ZM288.41 194.049L288.842 194.302L288.844 194.298L288.41 194.049ZM284.191 197.917L284.412 198.365L284.414 198.364L284.191 197.917ZM277.705 199.305L277.705 199.805L277.71 199.805L277.705 199.305ZM269.338 198.022L269.128 198.476L269.129 198.476L269.338 198.022ZM265.049 194.295L265.476 194.035L265.475 194.035L265.049 194.295ZM265.734 181.463L266.115 181.787L266.117 181.786L265.734 181.463ZM272.045 178.422L272.545 178.422L272.545 177.862L271.988 177.926L272.045 178.422ZM272.045 183.555L272.124 184.049L272.545 183.982L272.545 183.555L272.045 183.555ZM268.828 185.12L269.209 185.444L269.211 185.441L268.828 185.12ZM275.842 193.944L275.84 194.444L275.842 194.444L275.842 193.944ZM284.35 183.696L284.703 183.342L284.557 183.196L284.35 183.196L284.35 183.696ZM279.937 183.696L279.937 183.196L279.437 183.196L279.437 183.696L279.937 183.696ZM279.937 188.495L279.937 188.995L280.437 188.995L280.437 188.495L279.937 188.495ZM276.053 188.495L275.553 188.495L275.553 188.995L276.053 188.995L276.053 188.495ZM276.053 178.422L276.053 177.922L275.553 177.922L275.553 178.422L276.053 178.422ZM285.945 178.806C287 179.687 287.84 180.947 288.45 182.619L289.39 182.276C288.734 180.48 287.805 179.057 286.586 178.039L285.945 178.806ZM288.449 182.616C289.048 184.289 289.352 186.153 289.352 188.213L290.352 188.213C290.352 186.055 290.034 184.075 289.391 182.279L288.449 182.616ZM289.352 188.213C289.352 190.354 288.888 192.211 287.976 193.801L288.844 194.298C289.854 192.536 290.352 190.503 290.352 188.213L289.352 188.213ZM287.978 193.797C287.058 195.371 285.728 196.595 283.969 197.469L284.414 198.364C286.335 197.41 287.817 196.056 288.842 194.302L287.978 193.797ZM283.971 197.468C282.211 198.331 280.126 198.782 277.7 198.805L277.71 199.805C280.253 199.781 282.492 199.307 284.412 198.365L283.971 197.468ZM277.705 198.805L275.965 198.805L275.965 199.805L277.705 199.805L277.705 198.805ZM275.965 198.805C273.465 198.805 271.33 198.387 269.547 197.568L269.129 198.476C271.072 199.368 273.355 199.805 275.965 199.805L275.965 198.805ZM269.548 197.568C267.754 196.739 266.404 195.56 265.476 194.035L264.622 194.555C265.662 196.265 267.172 197.571 269.128 198.476L269.548 197.568ZM265.475 194.035C264.534 192.495 264.055 190.684 264.055 188.583L263.055 188.583C263.055 190.841 263.572 192.838 264.622 194.556L265.475 194.035ZM264.055 188.583C264.055 185.624 264.762 183.38 266.115 181.787L265.353 181.14C263.8 182.969 263.055 185.471 263.055 188.583L264.055 188.583ZM266.117 181.786C267.457 180.195 269.43 179.225 272.102 178.919L271.988 177.926C269.128 178.253 266.895 179.31 265.352 181.141L266.117 181.786ZM271.545 178.422L271.545 183.555L272.545 183.555L272.545 178.422L271.545 178.422ZM271.966 183.062C270.43 183.307 269.229 183.866 268.445 184.798L269.211 185.441C269.787 184.756 270.73 184.272 272.124 184.049L271.966 183.062ZM268.448 184.795C267.668 185.71 267.309 186.94 267.309 188.424L268.309 188.424C268.309 187.096 268.629 186.124 269.209 185.444L268.448 184.795ZM267.309 188.424C267.309 190.363 268.049 191.89 269.545 192.931L270.116 192.11C268.916 191.275 268.309 190.071 268.309 188.424L267.309 188.424ZM269.545 192.931C271.013 193.952 273.135 194.432 275.84 194.444L275.844 193.444C273.228 193.432 271.343 192.963 270.116 192.11L269.545 192.931ZM275.842 194.444L277.477 194.444L277.477 193.444L275.842 193.444L275.842 194.444ZM277.477 194.444C280.21 194.444 282.363 193.927 283.857 192.816L283.26 192.013C282.012 192.941 280.11 193.444 277.477 193.444L277.477 194.444ZM283.857 192.816C285.375 191.687 286.115 190.032 286.115 187.932L285.115 187.932C285.115 189.77 284.484 191.103 283.26 192.013L283.857 192.816ZM286.115 187.932C286.115 185.902 285.686 184.326 284.703 183.342L283.996 184.049C284.7 184.754 285.115 186.001 285.115 187.932L286.115 187.932ZM284.35 183.196L279.937 183.196L279.937 184.196L284.35 184.196L284.35 183.196ZM279.437 183.696L279.437 188.495L280.437 188.495L280.437 183.696L279.437 183.696ZM279.937 187.995L276.053 187.995L276.053 188.995L279.937 188.995L279.937 187.995ZM276.553 188.495L276.553 178.422L275.553 178.422L275.553 188.495L276.553 188.495ZM276.053 178.922L286.266 178.922L286.266 177.922L276.053 177.922L276.053 178.922ZM280.131 160.699L279.903 160.254L279.631 160.393L279.631 160.699L280.131 160.699ZM280.131 164.9L279.631 164.9L279.631 165.4L280.131 165.4L280.131 164.9ZM289.5 164.9L290 164.9L290 164.4L289.5 164.4L289.5 164.9ZM289.5 170.173L289.5 170.673L290 170.673L290 170.173L289.5 170.173ZM263.906 170.173L263.406 170.173L263.406 170.673L263.906 170.673L263.906 170.173ZM276.018 152.349L275.745 152.768L275.746 152.769L276.018 152.349ZM278.795 155.777L278.339 155.982L278.558 156.468L279.029 156.219L278.795 155.777ZM289.254 150.24L289.254 149.74L289.13 149.74L289.02 149.798L289.254 150.24ZM289.5 150.24L290 150.24L290 149.74L289.5 149.74L289.5 150.24ZM289.5 155.9L289.728 156.345L290 156.206L290 155.9L289.5 155.9ZM275.859 164.9L275.859 165.4L276.359 165.4L276.359 164.9L275.859 164.9ZM274.857 157.57L275.226 157.231L275.223 157.228L274.857 157.57ZM269.215 157.517L269.565 157.874L269.568 157.871L269.215 157.517ZM268.178 164.9L267.678 164.9L267.678 165.4L268.178 165.4L268.178 164.9ZM279.631 160.699L279.631 164.9L280.631 164.9L280.631 160.699L279.631 160.699ZM280.131 165.4L289.5 165.4L289.5 164.4L280.131 164.4L280.131 165.4ZM289 164.9L289 170.173L290 170.173L290 164.9L289 164.9ZM289.5 169.673L263.906 169.673L263.906 170.673L289.5 170.673L289.5 169.673ZM264.406 170.173L264.406 160.664L263.406 160.664L263.406 170.173L264.406 170.173ZM264.406 160.664C264.406 157.708 265.066 155.505 266.314 153.985L265.541 153.35C264.095 155.111 263.406 157.573 263.406 160.664L264.406 160.664ZM266.314 153.985C267.551 152.479 269.303 151.707 271.641 151.707L271.641 150.707C269.057 150.707 267 151.575 265.541 153.35L266.314 153.985ZM271.641 151.707C273.314 151.707 274.672 152.071 275.745 152.768L276.29 151.93C275.019 151.104 273.459 150.707 271.641 150.707L271.641 151.707ZM275.746 152.769C276.809 153.456 277.678 154.516 278.339 155.982L279.251 155.572C278.529 153.968 277.546 152.742 276.289 151.929L275.746 152.769ZM279.029 156.219L289.488 150.682L289.02 149.798L278.561 155.335L279.029 156.219ZM289.254 150.74L289.5 150.74L289.5 149.74L289.254 149.74L289.254 150.74ZM289 150.24L289 155.9L290 155.9L290 150.24L289 150.24ZM289.272 155.455L279.903 160.254L280.359 161.144L289.728 156.345L289.272 155.455ZM276.359 164.9L276.359 160.646L275.359 160.646L275.359 164.9L276.359 164.9ZM276.359 160.646C276.359 159.24 276.004 158.078 275.225 157.231L274.489 157.908C275.047 158.515 275.359 159.404 275.359 160.646L276.359 160.646ZM275.223 157.228C274.43 156.382 273.356 155.98 272.062 155.98L272.062 156.98C273.136 156.98 273.925 157.305 274.492 157.911L275.223 157.228ZM272.062 155.98C270.756 155.98 269.667 156.357 268.861 157.164L269.568 157.871C270.145 157.294 270.955 156.98 272.062 156.98L272.062 155.98ZM268.864 157.161C268.041 157.97 267.678 159.174 267.678 160.664L268.678 160.664C268.678 159.318 269.006 158.423 269.565 157.874L268.864 157.161ZM267.678 160.664L267.678 164.9L268.678 164.9L268.678 160.664L267.678 160.664ZM268.178 165.4L275.859 165.4L275.859 164.4L268.178 164.4L268.178 165.4ZM278.408 127.823L278.908 127.823L278.908 127.323L278.408 127.323L278.408 127.823ZM278.408 137.948L277.908 137.948L277.908 138.448L278.408 138.448L278.408 137.948ZM285.264 137.948L285.264 138.448L285.764 138.448L285.764 137.948L285.264 137.948ZM285.264 126.065L285.264 125.565L284.764 125.565L284.764 126.065L285.264 126.065ZM289.5 126.065L290 126.065L290 125.565L289.5 125.565L289.5 126.065ZM289.5 143.221L289.5 143.721L290 143.721L290 143.221L289.5 143.221ZM263.906 143.221L263.406 143.221L263.406 143.721L263.906 143.721L263.906 143.221ZM263.906 126.1L263.906 125.6L263.406 125.6L263.406 126.1L263.906 126.1ZM268.178 126.1L268.678 126.1L268.678 125.6L268.178 125.6L268.178 126.1ZM268.178 137.948L267.678 137.948L267.678 138.448L268.178 138.448L268.178 137.948ZM274.277 137.948L274.277 138.448L274.777 138.448L274.777 137.948L274.277 137.948ZM274.277 127.823L274.277 127.323L273.777 127.323L273.777 127.823L274.277 127.823ZM277.908 127.823L277.908 137.948L278.908 137.948L278.908 127.823L277.908 127.823ZM278.408 138.448L285.264 138.448L285.264 137.448L278.408 137.448L278.408 138.448ZM285.764 137.948L285.764 126.065L284.764 126.065L284.764 137.948L285.764 137.948ZM285.264 126.565L289.5 126.565L289.5 125.565L285.264 125.565L285.264 126.565ZM289 126.065L289 143.221L290 143.221L290 126.065L289 126.065ZM289.5 142.721L263.906 142.721L263.906 143.721L289.5 143.721L289.5 142.721ZM264.406 143.221L264.406 126.1L263.406 126.1L263.406 143.221L264.406 143.221ZM263.906 126.6L268.178 126.6L268.178 125.6L263.906 125.6L263.906 126.6ZM267.678 126.1L267.678 137.948L268.678 137.948L268.678 126.1L267.678 126.1ZM268.178 138.448L274.277 138.448L274.277 137.448L268.178 137.448L268.178 138.448ZM274.777 137.948L274.777 127.823L273.777 127.823L273.777 137.948L274.777 137.948ZM274.277 128.323L278.408 128.323L278.408 127.323L274.277 127.323L274.277 128.323ZM275.437 110.187L275.646 110.641L276.633 110.188L275.647 109.733L275.437 110.187ZM263.906 104.861L263.406 104.861L263.406 105.181L263.697 105.315L263.906 104.861ZM263.906 99.0952L264.135 98.6507L263.406 98.2752L263.406 99.0952L263.906 99.0952ZM280.219 107.497L279.99 107.942L280.098 107.997L280.219 107.997L280.219 107.497ZM289.5 107.497L290 107.497L290 106.997L289.5 106.997L289.5 107.497ZM289.5 112.859L289.5 113.359L290 113.359L290 112.859L289.5 112.859ZM280.219 112.859L280.219 112.359L280.098 112.359L279.99 112.414L280.219 112.859ZM263.906 121.261L263.406 121.261L263.406 122.081L264.135 121.706L263.906 121.261ZM263.906 115.478L263.698 115.024L263.406 115.157L263.406 115.478L263.906 115.478ZM275.647 109.733L264.116 104.407L263.697 105.315L275.228 110.641L275.647 109.733ZM264.406 104.861L264.406 99.0952L263.406 99.0952L263.406 104.861L264.406 104.861ZM263.677 99.5397L279.99 107.942L280.448 107.053L264.135 98.6507L263.677 99.5397ZM280.219 107.997L289.5 107.997L289.5 106.997L280.219 106.997L280.219 107.997ZM289 107.497L289 112.859L290 112.859L290 107.497L289 107.497ZM289.5 112.359L280.219 112.359L280.219 113.359L289.5 113.359L289.5 112.359ZM279.99 112.414L263.677 120.817L264.135 121.706L280.448 113.303L279.99 112.414ZM264.406 121.261L264.406 115.478L263.406 115.478L263.406 121.261L264.406 121.261ZM264.115 115.932L275.646 110.641L275.229 109.733L263.698 115.024L264.115 115.932Z" fill="#766F00"/>
</g>
<path d="M35.4297 264.922H28.0078V285H14.2969V228.125H36.6797C43.4245 228.125 48.6979 229.622 52.5 232.617C56.3021 235.612 58.2031 239.844 58.2031 245.312C58.2031 249.271 57.3958 252.552 55.7812 255.156C54.1927 257.76 51.6927 259.87 48.2812 261.484L60.1562 284.414V285H45.4688L35.4297 264.922ZM28.0078 254.336H36.6797C39.2839 254.336 41.237 253.659 42.5391 252.305C43.8672 250.924 44.5312 249.01 44.5312 246.562C44.5312 244.115 43.8672 242.201 42.5391 240.82C41.2109 239.414 39.2578 238.711 36.6797 238.711H28.0078V254.336ZM87.8961 272.783C87.8961 275.303 87.4508 277.512 86.5602 279.41C85.6695 281.309 84.3922 282.773 82.7281 283.805C81.0758 284.836 79.1773 285.352 77.0328 285.352C74.9117 285.352 73.0191 284.842 71.3551 283.822C69.691 282.803 68.402 281.35 67.4879 279.463C66.5738 277.564 66.1109 275.385 66.0992 272.924V271.658C66.0992 269.139 66.5504 266.924 67.4527 265.014C68.3668 263.092 69.65 261.621 71.3023 260.602C72.9664 259.57 74.8648 259.055 76.9977 259.055C79.1305 259.055 81.023 259.57 82.6754 260.602C84.3395 261.621 85.6227 263.092 86.525 265.014C87.4391 266.924 87.8961 269.133 87.8961 271.641V272.783ZM82.5523 271.623C82.5523 268.939 82.0719 266.9 81.1109 265.506C80.15 264.111 78.7789 263.414 76.9977 263.414C75.2281 263.414 73.8629 264.105 72.902 265.488C71.941 266.859 71.4547 268.875 71.443 271.535V272.783C71.443 275.396 71.9234 277.424 72.8844 278.865C73.8453 280.307 75.2281 281.027 77.0328 281.027C78.8023 281.027 80.1617 280.336 81.1109 278.953C82.0602 277.559 82.5406 275.531 82.5523 272.871V271.623ZM95.6881 285V259.406H104.653C107.758 259.406 110.114 260.004 111.719 261.199C113.325 262.383 114.128 264.123 114.128 266.42C114.128 267.674 113.805 268.781 113.161 269.742C112.516 270.691 111.62 271.389 110.471 271.834C111.784 272.162 112.815 272.824 113.565 273.82C114.327 274.816 114.708 276.035 114.708 277.477C114.708 279.938 113.923 281.801 112.352 283.066C110.782 284.332 108.544 284.977 105.637 285H95.6881ZM100.962 273.855V280.764H105.479C106.721 280.764 107.688 280.471 108.38 279.885C109.083 279.287 109.434 278.467 109.434 277.424C109.434 275.08 108.221 273.891 105.796 273.855H100.962ZM100.962 270.129H104.864C107.524 270.082 108.854 269.021 108.854 266.947C108.854 265.787 108.514 264.955 107.835 264.451C107.167 263.936 106.106 263.678 104.653 263.678H100.962V270.129ZM143.664 272.783C143.664 275.303 143.218 277.512 142.328 279.41C141.437 281.309 140.16 282.773 138.496 283.805C136.843 284.836 134.945 285.352 132.8 285.352C130.679 285.352 128.787 284.842 127.123 283.822C125.459 282.803 124.17 281.35 123.256 279.463C122.341 277.564 121.879 275.385 121.867 272.924V271.658C121.867 269.139 122.318 266.924 123.22 265.014C124.134 263.092 125.418 261.621 127.07 260.602C128.734 259.57 130.632 259.055 132.765 259.055C134.898 259.055 136.791 259.57 138.443 260.602C140.107 261.621 141.39 263.092 142.293 265.014C143.207 266.924 143.664 269.133 143.664 271.641V272.783ZM138.32 271.623C138.32 268.939 137.84 266.9 136.879 265.506C135.918 264.111 134.547 263.414 132.765 263.414C130.996 263.414 129.631 264.105 128.67 265.488C127.709 266.859 127.222 268.875 127.211 271.535V272.783C127.211 275.396 127.691 277.424 128.652 278.865C129.613 280.307 130.996 281.027 132.8 281.027C134.57 281.027 135.929 280.336 136.879 278.953C137.828 277.559 138.308 275.531 138.32 272.871V271.623ZM169.21 263.678H161.37V285H156.096V263.678H148.362V259.406H169.21V263.678Z" fill="black"/>
<path d="M135.525 20.126H131.139V32H130.058V20.126H125.681V19.2031H135.525V20.126ZM148.79 26.2959C148.79 27.4736 148.585 28.5078 148.175 29.3984C147.771 30.2891 147.191 30.9746 146.435 31.4551C145.679 31.9355 144.806 32.1758 143.816 32.1758C142.322 32.1758 141.114 31.6426 140.195 30.5762C139.275 29.5039 138.815 28.0596 138.815 26.2432V24.9248C138.815 23.7588 139.02 22.7275 139.43 21.8311C139.846 20.9287 140.432 20.2373 141.188 19.7568C141.944 19.2705 142.814 19.0273 143.798 19.0273C144.782 19.0273 145.65 19.2646 146.4 19.7393C147.156 20.2139 147.739 20.8848 148.149 21.752C148.559 22.6191 148.773 23.624 148.79 24.7666V26.2959ZM147.709 24.9072C147.709 23.3662 147.361 22.1592 146.663 21.2861C145.966 20.4131 145.011 19.9766 143.798 19.9766C142.609 19.9766 141.659 20.416 140.95 21.2949C140.247 22.168 139.896 23.3896 139.896 24.96V26.2959C139.896 27.8135 140.247 29.0176 140.95 29.9082C141.654 30.793 142.609 31.2354 143.816 31.2354C145.04 31.2354 145.995 30.7988 146.681 29.9258C147.366 29.0469 147.709 27.8252 147.709 26.2607V24.9072ZM156.861 26.1816L160.772 19.2031H162.02L157.397 27.1836V32H156.316V27.1836L151.702 19.2031H152.985L156.861 26.1816ZM172.965 28.8535C172.965 28.1445 172.716 27.585 172.218 27.1748C171.72 26.7588 170.809 26.3662 169.485 25.9971C168.16 25.6221 167.194 25.2148 166.584 24.7754C165.717 24.1543 165.283 23.3398 165.283 22.332C165.283 21.3535 165.685 20.5596 166.488 19.9502C167.296 19.335 168.327 19.0273 169.581 19.0273C170.431 19.0273 171.19 19.1914 171.858 19.5195C172.532 19.8477 173.053 20.3047 173.422 20.8906C173.791 21.4766 173.976 22.1299 173.976 22.8506H172.886C172.886 21.9775 172.587 21.2773 171.99 20.75C171.392 20.2168 170.589 19.9502 169.581 19.9502C168.603 19.9502 167.824 20.1699 167.243 20.6094C166.663 21.043 166.373 21.6113 166.373 22.3145C166.373 22.9648 166.634 23.4951 167.156 23.9053C167.677 24.3154 168.512 24.6787 169.66 24.9951C170.809 25.3057 171.679 25.6309 172.271 25.9707C172.863 26.3047 173.308 26.7061 173.607 27.1748C173.906 27.6436 174.055 28.1973 174.055 28.8359C174.055 29.8438 173.651 30.6523 172.842 31.2617C172.039 31.8711 170.979 32.1758 169.66 32.1758C168.758 32.1758 167.929 32.0146 167.173 31.6924C166.423 31.3701 165.852 30.9189 165.459 30.3389C165.073 29.7588 164.879 29.0938 164.879 28.3438H165.96C165.96 29.2461 166.297 29.958 166.971 30.4795C167.645 31.001 168.541 31.2617 169.66 31.2617C170.657 31.2617 171.456 31.042 172.06 30.6025C172.663 30.1631 172.965 29.5801 172.965 28.8535Z" fill="black"/>
<path fill-rule="evenodd" clip-rule="evenodd" d="M129.862 219.414L129.51 218.92L128.744 219.151C128.508 218.353 128.493 218.305 135.479 215.755C135.914 215.597 136.377 215.427 136.848 215.255C136.353 215.343 135.868 215.433 135.412 215.517C128.111 216.854 128.095 216.809 127.905 215.996C127.713 215.186 127.702 215.138 134.809 213.003C135.234 212.876 135.684 212.74 136.139 212.602C135.667 212.661 135.2 212.721 134.763 212.775C127.407 213.706 127.401 213.655 127.253 212.84C127.106 212.022 127.097 211.973 134.295 210.218C134.695 210.121 135.117 210.017 135.549 209.912C135.11 209.944 134.68 209.978 134.272 210.009C126.883 210.573 126.873 210.522 126.765 209.7C126.658 208.876 126.65 208.827 133.935 207.404C134.3 207.333 134.686 207.257 135.079 207.18C134.671 207.193 134.271 207.206 133.891 207.219C126.499 207.46 126.495 207.413 126.418 206.589C126.344 205.761 126.34 205.711 133.678 204.59C134.027 204.536 134.396 204.48 134.772 204.422C134.379 204.418 133.998 204.417 133.632 204.415C126.246 204.366 126.243 204.316 126.198 203.49C126.154 202.66 126.15 202.609 133.538 201.761C133.854 201.724 134.184 201.686 134.522 201.647C134.165 201.632 133.821 201.619 133.488 201.604C126.102 201.302 126.102 201.252 126.089 200.422C126.069 199.596 126.069 199.545 133.479 198.949C133.787 198.924 134.112 198.898 134.442 198.87C134.095 198.844 133.756 198.82 133.429 198.794C126.067 198.245 126.069 198.197 126.082 197.369C126.088 196.543 126.089 196.492 133.522 196.129C133.798 196.116 134.088 196.103 134.381 196.088C134.062 196.054 133.749 196.021 133.45 195.989C126.125 195.228 126.126 195.18 126.161 194.353C126.193 193.525 126.195 193.475 133.662 193.316C133.929 193.311 134.204 193.305 134.486 193.3C134.165 193.257 133.85 193.216 133.548 193.177C126.268 192.218 126.27 192.184 126.326 191.347C126.381 190.515 126.401 190.467 133.859 190.512C134.123 190.514 134.396 190.515 134.676 190.517C134.352 190.467 134.035 190.415 133.73 190.366C126.486 189.21 126.49 189.178 126.571 188.341C126.647 187.513 126.652 187.464 134.164 187.709C134.409 187.716 134.665 187.725 134.927 187.733C134.595 187.671 134.272 187.612 133.963 187.554C126.785 186.213 126.787 186.181 126.886 185.351C126.984 184.52 126.992 184.471 134.523 184.913C134.745 184.924 134.973 184.939 135.208 184.952C134.872 184.881 134.547 184.811 134.234 184.745C127.15 183.244 127.154 183.21 127.274 182.388C127.397 181.554 127.407 181.506 135.012 182.138C135.221 182.155 135.436 182.174 135.654 182.192C135.254 182.095 134.863 182.002 134.492 181.914C127.72 180.301 127.595 180.255 127.737 179.428C127.875 178.599 127.89 178.533 135.704 179.389C135.901 179.41 136.101 179.432 136.302 179.455C135.682 179.287 135.075 179.124 134.527 178.977C128.124 177.261 128.124 177.261 128.283 176.454C128.478 175.454 129.393 175.484 136.449 176.726C138.646 177.112 141.648 177.651 142.168 177.549L142.267 178.102L143.09 178.298C142.891 179.179 142.166 179.119 136.82 178.179C142.775 179.794 142.749 179.932 142.618 180.678C142.463 181.487 142.459 181.502 135.558 180.749C135.521 180.745 135.481 180.739 135.442 180.736C142.323 182.379 142.31 182.465 142.173 183.261C142.057 184.059 142.053 184.094 134.986 183.509C141.919 184.98 141.909 185.044 141.806 185.847C141.705 186.662 141.699 186.703 134.632 186.288C141.594 187.591 141.587 187.653 141.494 188.462C141.411 189.271 141.406 189.313 134.365 189.083C141.323 190.196 141.319 190.26 141.251 191.066C141.188 191.864 141.192 191.925 134.193 191.882C141.122 192.798 141.12 192.861 141.078 193.665C141.033 194.469 141.03 194.529 134.044 194.678C140.989 195.401 140.987 195.465 140.969 196.267C140.95 197.084 140.948 197.132 134.07 197.472C140.937 197.986 140.935 198.052 140.935 198.855C140.943 199.646 140.943 199.715 134.171 200.263C140.954 200.545 140.956 200.614 140.987 201.408C141.011 202.205 141.013 202.274 134.282 203.051C141.061 203.098 141.065 203.169 141.118 203.963C141.179 204.747 141.185 204.819 134.623 205.828C141.255 205.61 141.26 205.687 141.347 206.474C141.432 207.251 141.439 207.328 135.056 208.577C141.546 208.089 141.553 208.165 141.675 208.939C141.793 209.702 141.806 209.786 135.717 211.278C141.93 210.5 141.948 210.582 142.107 211.334C142.26 212.087 142.278 212.176 136.434 213.939C142.441 212.848 142.459 212.935 142.657 213.67C142.863 214.459 142.876 214.508 135.938 217.04C133.551 217.911 130.284 219.105 129.862 219.414Z" fill="#141414"/>
<path fill-rule="evenodd" clip-rule="evenodd" d="M149.155 226.87C149.353 226.246 149.469 225.599 149.469 224.933C149.469 220.122 143.996 216.219 137.244 216.219C130.488 216.219 125.018 220.122 125.018 224.933C125.018 225.599 125.131 226.246 125.33 226.87H149.155Z" fill="#999999"/>
<path fill-rule="evenodd" clip-rule="evenodd" d="M125.018 229H148.405V226.87H125.018V229Z" fill="#212121"/>
<path fill-rule="evenodd" clip-rule="evenodd" d="M168.591 218.349C168.068 218.112 164.671 217.928 162.188 217.796C155.404 217.431 154.784 217.311 154.784 216.382C154.784 215.453 155.406 215.333 162.196 214.967C162.452 214.954 162.718 214.939 162.991 214.924C162.718 214.911 162.452 214.896 162.196 214.883C155.406 214.516 154.784 214.399 154.784 213.469C154.784 212.542 155.404 212.424 162.183 212.06C162.423 212.047 162.67 212.034 162.925 212.021C162.676 212.006 162.432 211.994 162.196 211.981C155.406 211.619 154.784 211.499 154.784 210.574C154.784 209.644 155.406 209.527 162.196 209.162C162.438 209.149 162.687 209.136 162.941 209.121C162.685 209.108 162.432 209.095 162.188 209.082C155.404 208.719 154.784 208.599 154.784 207.672C154.784 206.746 155.404 206.627 162.175 206.266C162.423 206.251 162.677 206.238 162.938 206.225C162.685 206.21 162.436 206.197 162.196 206.184C155.406 205.821 154.784 205.701 154.784 204.774C154.784 203.849 155.404 203.729 162.188 203.366C162.426 203.353 162.674 203.342 162.927 203.327C162.676 203.314 162.432 203.301 162.196 203.288C155.406 202.925 154.784 202.805 154.784 201.876C154.784 200.943 155.334 200.839 162.17 200.476C162.399 200.463 162.633 200.452 162.873 200.437C162.644 200.425 162.419 200.414 162.201 200.401C155.406 200.04 154.784 199.922 154.784 198.993C154.784 198.058 155.336 197.954 162.196 197.589C162.417 197.576 162.646 197.565 162.879 197.552C162.646 197.539 162.417 197.528 162.196 197.514C155.406 197.152 154.784 197.034 154.784 196.107C154.784 195.179 155.404 195.06 162.188 194.699C162.423 194.686 162.663 194.673 162.91 194.66C162.666 194.646 162.426 194.633 162.196 194.622C155.406 194.258 154.784 194.14 154.784 193.213C154.784 192.278 155.334 192.173 162.175 191.807C162.417 191.794 162.666 191.78 162.921 191.767C162.67 191.752 162.426 191.741 162.188 191.728C155.404 191.365 154.784 191.246 154.784 190.32C154.784 189.393 155.404 189.275 162.188 188.912C162.421 188.901 162.661 188.888 162.904 188.873C162.655 188.86 162.412 188.847 162.175 188.834C155.334 188.471 154.784 188.365 154.784 187.432C154.784 186.504 155.404 186.387 162.188 186.024C162.426 186.011 162.672 185.998 162.923 185.985C162.67 185.972 162.421 185.959 162.183 185.945C155.404 185.583 154.784 185.465 154.784 184.538C154.784 183.61 155.406 183.493 162.196 183.13C162.421 183.119 162.653 183.106 162.892 183.092C162.65 183.079 162.412 183.066 162.183 183.055C155.336 182.689 154.784 182.584 154.784 181.649C154.784 180.716 155.334 180.61 162.175 180.247C162.406 180.234 162.644 180.221 162.888 180.208C162.65 180.195 162.415 180.182 162.188 180.17C155.336 179.806 154.784 179.701 154.784 178.764C154.784 177.831 155.334 177.725 162.175 177.362C164.663 177.228 168.07 177.046 168.593 176.811L168.818 177.323H169.667C169.667 178.25 169.043 178.368 162.247 178.731C162.033 178.742 161.812 178.753 161.587 178.766C161.816 178.777 162.043 178.789 162.26 178.802C169.113 179.166 169.667 179.271 169.667 180.208C169.667 181.135 169.043 181.253 162.247 181.615C162.031 181.627 161.81 181.638 161.585 181.651C161.814 181.662 162.037 181.673 162.253 181.687C169.043 182.047 169.667 182.167 169.667 183.094C169.667 184.029 169.113 184.134 162.266 184.5C162.031 184.511 161.788 184.525 161.542 184.538C161.784 184.551 162.022 184.564 162.253 184.577C169.043 184.94 169.667 185.057 169.667 185.985C169.667 186.912 169.045 187.032 162.26 187.393C162.037 187.406 161.806 187.417 161.57 187.43C161.801 187.443 162.028 187.454 162.247 187.465C169.043 187.828 169.667 187.946 169.667 188.873C169.667 189.801 169.045 189.918 162.26 190.281C162.028 190.294 161.786 190.305 161.542 190.32C161.786 190.333 162.028 190.346 162.26 190.358C169.045 190.72 169.667 190.84 169.667 191.765C169.667 192.693 169.043 192.812 162.247 193.175C162.019 193.188 161.782 193.199 161.541 193.214C161.788 193.226 162.031 193.241 162.266 193.252C169.045 193.616 169.667 193.732 169.667 194.66C169.667 195.587 169.045 195.705 162.26 196.067C162.022 196.08 161.779 196.094 161.528 196.107C161.78 196.12 162.028 196.133 162.266 196.146C169.045 196.509 169.667 196.626 169.667 197.554C169.667 198.487 169.113 198.593 162.266 198.958C162.039 198.969 161.803 198.982 161.563 198.995C161.804 199.008 162.043 199.021 162.273 199.033C169.115 199.397 169.667 199.502 169.667 200.437C169.667 201.364 169.043 201.484 162.242 201.844C162.019 201.856 161.788 201.869 161.553 201.88C161.797 201.895 162.035 201.908 162.266 201.919C169.045 202.284 169.667 202.402 169.667 203.329C169.667 204.254 169.045 204.374 162.26 204.737C162.022 204.75 161.779 204.761 161.528 204.776C161.78 204.789 162.028 204.802 162.266 204.815C169.045 205.178 169.667 205.296 169.667 206.223C169.667 207.15 169.043 207.27 162.247 207.635C162.015 207.646 161.771 207.659 161.522 207.674C161.775 207.687 162.02 207.7 162.26 207.713C169.045 208.076 169.667 208.194 169.667 209.121C169.667 210.05 169.045 210.168 162.266 210.53C162.022 210.544 161.771 210.559 161.513 210.572C161.771 210.585 162.022 210.598 162.266 210.611C169.113 210.977 169.667 211.082 169.667 212.017C169.667 212.946 169.043 213.064 162.253 213.428C162.004 213.441 161.744 213.456 161.478 213.471C161.747 213.484 162.013 213.499 162.266 213.512C169.045 213.877 169.667 213.997 169.667 214.924C169.667 215.853 169.045 215.971 162.266 216.337C161.998 216.351 161.718 216.365 161.432 216.382C161.716 216.397 161.995 216.412 162.26 216.427C169.045 216.792 169.667 216.91 169.667 217.841H168.316H168.991L168.591 218.349Z" fill="#141414"/>
<path fill-rule="evenodd" clip-rule="evenodd" d="M174.672 226.87C174.874 226.246 174.982 225.599 174.982 224.933C174.982 220.122 169.512 216.219 162.758 216.219C156.006 216.219 150.531 220.122 150.531 224.933C150.531 225.599 150.645 226.246 150.845 226.87H174.672Z" fill="#999999"/>
<path fill-rule="evenodd" clip-rule="evenodd" d="M150.531 229H173.919V226.87H150.531V229Z" fill="#212121"/>
<path fill-rule="evenodd" clip-rule="evenodd" d="M125.018 182.136H146.279V171.485H125.018V182.136Z" fill="#4C4C4C"/>
<path fill-rule="evenodd" clip-rule="evenodd" d="M150.531 182.136H171.793V171.485H150.531V182.136Z" fill="#4C4C4C"/>
<path fill-rule="evenodd" clip-rule="evenodd" d="M93.2009 159.769L92.9685 159.21L92.1794 159.267C92.1213 158.472 92.3237 158.445 97.5248 157.738C98.0028 157.672 98.5388 157.6 99.0861 157.522C98.8743 157.511 98.6682 157.498 98.4714 157.487C92.4343 157.135 92.0745 157.066 92.0631 156.247C92.0557 155.423 92.3837 155.397 97.8585 154.958C98.1284 154.936 98.4114 154.913 98.7 154.89C98.5557 154.875 98.4151 154.86 98.2783 154.847C92.3575 154.235 92.0688 154.164 92.0988 153.349C92.1195 152.523 92.5674 152.504 98.0496 152.286C98.2671 152.277 98.492 152.268 98.7225 152.259C98.5763 152.237 98.432 152.218 98.2896 152.198C92.6161 151.392 92.1888 151.312 92.245 150.486C92.3088 149.654 92.7605 149.652 98.2858 149.635C98.4882 149.635 98.6981 149.635 98.9137 149.633C98.7581 149.606 98.6063 149.578 98.4582 149.552C92.8373 148.538 92.4137 148.442 92.5074 147.617C92.6011 146.789 93.051 146.803 98.5988 147.005C98.7975 147.012 99.0055 147.019 99.2173 147.027C99.0505 146.99 98.8856 146.953 98.7281 146.918C93.1822 145.691 92.7642 145.578 92.8823 144.765C93.0079 143.964 93.2384 143.951 99.0186 144.39C99.2229 144.405 99.4366 144.422 99.6521 144.438C99.4628 144.388 99.2773 144.339 99.0974 144.291C93.4352 142.787 93.2234 142.699 93.3846 141.9C93.5439 141.11 93.7744 141.108 99.5509 141.806C99.7684 141.831 99.9951 141.859 100.228 141.887C100.021 141.82 99.819 141.756 99.624 141.695C94.0331 139.922 93.8232 139.822 94.0256 139.031C94.2168 138.247 94.451 138.256 100.19 139.236C100.432 139.276 100.683 139.319 100.94 139.363C100.705 139.274 100.475 139.188 100.254 139.105C94.7828 137.053 94.5785 136.944 94.8222 136.166C95.0639 135.393 95.2926 135.411 100.977 136.706C101.238 136.765 101.511 136.826 101.791 136.891C101.534 136.776 101.285 136.666 101.047 136.561C95.7106 134.197 95.5156 134.076 95.8005 133.314C96.091 132.546 96.3216 132.583 101.916 134.234C102.212 134.323 102.525 134.413 102.846 134.507C102.555 134.354 102.271 134.203 102.002 134.061C97.0469 131.439 96.6402 131.223 97.0019 130.454C97.3599 129.685 97.7891 129.849 103.037 131.827C103.354 131.947 103.689 132.074 104.032 132.203C103.716 132.002 103.404 131.803 103.112 131.618C98.4095 128.633 98.0272 128.39 98.4451 127.652C98.8743 126.908 99.2885 127.109 104.34 129.524C104.686 129.69 105.059 129.867 105.436 130.048C105.099 129.786 104.765 129.528 104.454 129.288C100.057 125.884 99.6971 125.608 100.188 124.912C100.674 124.228 101.05 124.432 105.88 127.368C106.236 127.583 106.619 127.816 107.007 128.05C106.677 127.731 106.349 127.416 106.045 127.122C102.023 123.254 101.695 122.936 102.269 122.296C102.84 121.652 103.202 121.938 107.601 125.357C107.974 125.644 108.379 125.96 108.785 126.274C108.467 125.879 108.148 125.486 107.856 125.124C104.347 120.794 104.06 120.44 104.72 119.876C105.371 119.315 105.689 119.639 109.61 123.602C109.957 123.953 110.335 124.336 110.714 124.717C110.442 124.263 110.167 123.807 109.916 123.392C107.029 118.621 106.793 118.23 107.526 117.759C108.24 117.287 108.517 117.649 111.831 122.117C112.131 122.521 112.459 122.964 112.789 123.405C112.583 122.912 112.375 122.42 112.185 121.969C110.017 116.828 109.839 116.407 110.63 116.04C111.409 115.68 111.627 116.07 114.245 120.936C114.487 121.385 114.751 121.875 115.016 122.364C114.886 121.861 114.755 121.359 114.637 120.898C113.22 115.448 113.132 115.029 113.949 114.778C114.779 114.529 114.931 114.952 116.824 120.106C116.993 120.566 117.177 121.067 117.362 121.565C117.306 121.082 117.25 120.599 117.197 120.154C116.539 114.557 116.509 114.129 117.353 113.99C118.202 113.854 118.301 114.282 119.506 119.632C119.943 121.565 120.539 124.217 120.766 124.615L120.25 124.897L120.335 125.692C119.726 125.761 119.523 125.609 118.875 122.92C119.165 125.698 119.032 125.868 118.427 126.006C117.857 126.139 117.64 126.036 116.783 123.851C117.332 126.157 117.207 126.333 116.659 126.541C116.131 126.742 115.896 126.679 114.819 124.796C115.623 126.838 115.512 127.028 115.012 127.301C114.524 127.574 114.283 127.545 112.933 125.822C114.033 127.742 113.953 127.945 113.501 128.29C113.027 128.644 112.808 128.659 111.003 126.899C112.551 128.88 112.513 129.094 112.086 129.513C111.642 129.954 111.426 129.971 109.053 128.17C111.147 130.236 111.179 130.478 110.791 130.965C110.386 131.484 110.171 131.508 107.234 129.749C109.918 131.858 109.97 132.065 109.616 132.624C109.248 133.207 109.029 133.225 105.539 131.576C108.664 133.581 108.883 133.849 108.557 134.469C108.24 135.101 108.028 135.123 104.064 133.64C107.788 135.627 107.912 135.801 107.637 136.457C107.355 137.123 107.14 137.157 102.853 135.9C106.928 137.716 107.071 137.876 106.836 138.562C106.596 139.263 106.381 139.295 101.804 138.26C106.19 139.913 106.353 140.057 106.156 140.769C105.953 141.483 105.687 141.516 100.957 140.717C105.573 142.188 105.747 142.319 105.586 143.047C105.421 143.778 105.209 143.824 100.355 143.245C105.074 144.503 105.256 144.623 105.131 145.359C104.996 146.102 104.731 146.156 99.7721 145.783C104.675 146.874 104.866 146.979 104.767 147.73C104.67 148.477 104.407 148.543 99.3954 148.366C104.375 149.268 104.57 149.364 104.501 150.121C104.433 150.873 104.167 150.945 99.0992 150.965C104.169 151.689 104.37 151.775 104.328 152.535C104.289 153.288 104.027 153.375 99.0036 153.582C103.849 154.083 104.257 154.155 104.252 154.934C104.237 155.688 103.98 155.795 99.1423 156.192C103.942 156.471 104.24 156.519 104.276 157.28C104.306 158.103 103.875 158.22 97.7085 159.057C95.8642 159.308 93.5664 159.622 93.2009 159.769Z" fill="#141414"/>
<path fill-rule="evenodd" clip-rule="evenodd" d="M195.706 158.704L195.541 158.122L194.76 158.06C194.819 157.311 195.006 157.278 199.585 157.152C195.123 156.663 194.834 156.523 194.845 155.78C194.852 154.998 195.15 154.943 199.987 154.534C195.097 154.23 194.839 154.133 194.817 153.371C194.789 152.576 195.195 152.495 200.009 151.888C195.008 151.771 194.745 151.692 194.691 150.927C194.641 150.159 194.836 150.068 199.802 149.246C194.81 149.328 194.558 149.256 194.473 148.501C194.391 147.734 194.584 147.631 199.469 146.623C194.665 146.89 194.276 146.854 194.165 146.083C194.052 145.329 194.238 145.217 199.019 144.025C194.121 144.505 193.904 144.457 193.762 143.706C193.614 142.965 193.789 142.838 198.409 141.461C193.645 142.16 193.432 142.117 193.256 141.377C193.078 140.651 193.243 140.513 197.691 138.935C193.236 139.831 192.858 139.841 192.636 139.11C192.427 138.403 192.577 138.248 196.728 136.506C192.377 137.656 192.165 137.626 191.908 136.933C191.654 136.252 191.788 136.082 195.639 134.156C191.573 135.54 191.351 135.516 191.054 134.855C190.762 134.211 190.869 134.024 194.328 131.955C190.634 133.548 190.423 133.527 190.079 132.911C189.751 132.319 189.855 132.089 192.777 129.964C189.606 131.692 189.36 131.682 188.975 131.133C188.61 130.601 188.666 130.358 191.023 128.243C188.382 130.065 188.179 130.037 187.749 129.552C187.353 129.094 187.358 128.848 189.127 126.82C187.105 128.596 186.866 128.601 186.412 128.198C185.979 127.815 185.92 127.602 187.223 125.623C185.683 127.373 185.44 127.395 184.964 127.078C184.498 126.766 184.403 126.566 185.327 124.592C184.142 126.392 183.903 126.431 183.407 126.194C182.892 125.948 182.776 125.763 183.442 123.58C182.483 125.628 182.246 125.703 181.72 125.537C181.153 125.363 181.022 125.19 181.442 122.643C180.7 125.076 180.5 125.21 179.909 125.111C179.133 124.977 179.115 124.751 179.413 119.028C179.518 117.031 179.661 114.298 179.554 113.851C179.554 113.851 179.494 112.968 180.211 112.91C181.05 112.841 181.044 113.431 180.75 119.099C180.726 119.543 180.7 120.027 180.678 120.512C180.818 120.021 180.959 119.532 181.087 119.082C182.626 113.713 182.77 113.301 183.577 113.48C184.418 113.681 184.335 114.135 183.324 119.689C183.24 120.157 183.148 120.667 183.055 121.179C183.281 120.671 183.505 120.159 183.709 119.694C185.933 114.621 186.109 114.206 186.91 114.514C187.701 114.822 187.583 115.239 185.805 120.622C185.651 121.089 185.483 121.597 185.32 122.107C185.616 121.632 185.912 121.154 186.181 120.717C189.11 115.991 189.356 115.609 190.101 116.031C190.851 116.454 190.647 116.865 188.142 121.892C187.92 122.336 187.677 122.824 187.438 123.309C187.799 122.88 188.164 122.448 188.495 122.054C192.065 117.804 192.36 117.459 193.038 117.986C193.717 118.512 193.458 118.888 190.292 123.492C190.021 123.886 189.725 124.318 189.429 124.749C189.819 124.398 190.208 124.045 190.567 123.722C194.695 119.98 195.034 119.676 195.632 120.292C196.236 120.904 195.93 121.244 192.195 125.395C191.901 125.724 191.58 126.079 191.26 126.437C191.654 126.163 192.041 125.89 192.402 125.638C196.969 122.428 197.341 122.172 197.863 122.848C198.387 123.53 198.048 123.83 193.878 127.505C193.573 127.774 193.245 128.063 192.914 128.357C193.299 128.144 193.68 127.935 194.034 127.739C198.883 125.061 199.291 124.831 199.746 125.565C200.198 126.293 199.83 126.557 195.319 129.793C195.023 130.005 194.704 130.231 194.382 130.463C194.739 130.31 195.087 130.159 195.415 130.017C200.731 127.699 200.946 127.645 201.317 128.377C201.685 129.117 201.507 129.259 196.532 132.211C196.258 132.373 195.967 132.547 195.667 132.722C195.997 132.61 196.321 132.5 196.624 132.396C201.861 130.601 202.294 130.448 202.618 131.247C202.941 132.035 202.535 132.237 197.561 134.705C197.304 134.832 197.035 134.967 196.76 135.103C197.056 135.025 197.345 134.948 197.619 134.875C203.205 133.387 203.426 133.361 203.69 134.136C203.953 134.918 203.757 135.034 198.426 137.256C198.196 137.351 197.956 137.452 197.711 137.555C197.976 137.503 198.234 137.45 198.482 137.4C204.12 136.255 204.35 136.242 204.566 137.03C204.779 137.826 204.577 137.932 199.117 139.861C198.908 139.934 198.693 140.011 198.472 140.089C198.715 140.052 198.954 140.018 199.182 139.984C204.864 139.142 205.092 139.14 205.274 139.936C205.448 140.742 205.237 140.838 199.694 142.485C199.504 142.541 199.304 142.6 199.102 142.66C199.326 142.638 199.546 142.617 199.757 142.597C205.248 142.053 205.698 142.007 205.838 142.845C205.975 143.652 205.763 143.738 200.124 145.138C199.961 145.179 199.794 145.22 199.622 145.263C199.832 145.252 200.035 145.241 200.231 145.23C205.705 144.916 206.161 144.892 206.264 145.734C206.372 146.561 205.955 146.666 200.452 147.797C200.296 147.829 200.139 147.861 199.978 147.894C200.178 147.891 200.374 147.889 200.561 147.885C206.287 147.79 206.507 147.818 206.581 148.628C206.655 149.465 206.235 149.554 200.654 150.473C200.513 150.495 200.369 150.52 200.22 150.544C200.441 150.55 200.656 150.555 200.861 150.559C206.298 150.682 206.74 150.692 206.781 151.532C206.829 152.37 206.401 152.443 200.75 153.154C200.62 153.171 200.489 153.188 200.356 153.205C200.6 153.22 200.839 153.235 201.068 153.248C206.429 153.573 206.866 153.599 206.874 154.435C206.886 155.263 206.598 155.328 200.668 155.828C200.526 155.842 200.378 155.855 200.23 155.866C200.587 155.905 200.935 155.942 201.267 155.978C206.557 156.542 206.874 156.575 206.846 157.399C206.814 158.256 206.442 158.318 200.2 158.486C198.365 158.536 196.08 158.596 195.706 158.704Z" fill="#141414"/>
<path fill-rule="evenodd" clip-rule="evenodd" d="M145.216 116.101H153.721V106.515H145.216V116.101Z" fill="#512DA8"/>
<path fill-rule="evenodd" clip-rule="evenodd" d="M148.53 67.1065H150.407V52.1953H148.53V67.1065Z" fill="#512DA8"/>
<path fill-rule="evenodd" clip-rule="evenodd" d="M176.045 85.7465C176.045 97.2158 163.91 106.515 148.94 106.515C133.965 106.515 121.829 97.2158 121.829 85.7465C121.829 74.2753 133.965 64.9763 148.94 64.9763C163.91 64.9763 176.045 74.2753 176.045 85.7465Z" fill="#999999"/>
<path fill-rule="evenodd" clip-rule="evenodd" d="M142.027 94.0302C141.971 93.4592 155.842 93.8888 155.842 93.8888C155.918 97.3872 155.056 102.287 149.365 102.254C145.115 102.231 142.632 100.17 142.027 94.0302Z" fill="#6D2C4B"/>
<path fill-rule="evenodd" clip-rule="evenodd" d="M147.594 81.2657C138.886 81.2657 130.644 80.5504 123.267 79.2758C122.348 81.3604 121.829 83.5844 121.829 85.9068C121.829 88.2831 122.38 90.5572 123.338 92.6845C130.893 94.0371 139.392 94.7988 148.38 94.7988C157.855 94.7988 166.787 93.9497 174.649 92.4541C175.545 90.3937 176.045 88.1957 176.045 85.9068C176.045 83.4134 175.446 81.0353 174.391 78.8225C166.406 80.3776 157.284 81.2657 147.594 81.2657Z" fill="#01579B"/>
<path fill-rule="evenodd" clip-rule="evenodd" d="M143.09 86.8107C143.09 90.0469 140.472 92.6686 137.244 92.6686C134.015 92.6686 131.396 90.0469 131.396 86.8107C131.396 83.5764 134.015 80.9527 137.244 80.9527C140.472 80.9527 143.09 83.5764 143.09 86.8107Z" fill="#6D2C4B"/>
<path fill-rule="evenodd" clip-rule="evenodd" d="M138.838 87.3432C138.838 88.5207 137.883 89.4734 136.712 89.4734C135.54 89.4734 134.586 88.5207 134.586 87.3432C134.586 86.1674 135.54 85.213 136.712 85.213C137.883 85.213 138.838 86.1674 138.838 87.3432Z" fill="white"/>
<path fill-rule="evenodd" clip-rule="evenodd" d="M137.764 86.2781C137.764 86.8575 137.294 87.3325 136.714 87.3325C136.127 87.3325 135.659 86.8575 135.659 86.2781C135.659 85.6966 136.127 85.2237 136.714 85.2237C137.294 85.2237 137.764 85.6966 137.764 86.2781Z" fill="black"/>
<path fill-rule="evenodd" clip-rule="evenodd" d="M154.784 86.8107C154.784 90.0469 157.399 92.6686 160.632 92.6686C163.862 92.6686 166.478 90.0469 166.478 86.8107C166.478 83.5764 163.862 80.9527 160.632 80.9527C157.399 80.9527 154.784 83.5764 154.784 86.8107Z" fill="#6D2C4B"/>
<path fill-rule="evenodd" clip-rule="evenodd" d="M159.036 87.3432C159.036 88.5207 159.988 89.4734 161.164 89.4734C162.34 89.4734 163.288 88.5207 163.288 87.3432C163.288 86.1674 162.34 85.213 161.164 85.213C159.988 85.213 159.036 86.1674 159.036 87.3432Z" fill="white"/>
<path fill-rule="evenodd" clip-rule="evenodd" d="M160.108 86.2781C160.108 86.8575 160.582 87.3325 161.162 87.3325C161.745 87.3325 162.217 86.8575 162.217 86.2781C162.217 85.6966 161.745 85.2237 161.162 85.2237C160.582 85.2237 160.108 85.6966 160.108 86.2781Z" fill="black"/>
<path fill-rule="evenodd" clip-rule="evenodd" d="M155.847 55.9231C155.847 59.7443 152.754 62.8462 148.941 62.8462C145.124 62.8462 142.027 59.7443 142.027 55.9231C142.027 52.1 145.124 49 148.941 49C152.754 49 155.847 52.1 155.847 55.9231Z" fill="#01579B"/>
<path fill-rule="evenodd" clip-rule="evenodd" d="M154.784 55.3914C154.784 58.3326 152.162 60.716 148.936 60.716C145.71 60.716 143.09 58.3326 143.09 55.3914C143.09 52.4502 145.71 50.0651 148.936 50.0651C152.162 50.0651 154.784 52.4502 154.784 55.3914Z" fill="#94DBFB"/>
<path fill-rule="evenodd" clip-rule="evenodd" d="M154.784 55.3914C154.784 58.3326 152.162 60.716 148.936 60.716C145.71 60.716 143.09 58.3326 143.09 55.3914C143.09 52.4502 145.71 50.0651 148.936 50.0651C152.162 50.0651 154.784 52.4502 154.784 55.3914Z" fill="#94DBFB"/>
<path fill-rule="evenodd" clip-rule="evenodd" d="M183.817 122.781C177.872 106.773 121.267 106.773 115.32 122.781C111.557 132.92 120.555 150.236 118.189 165.464C115.962 179.785 186.482 178.789 181.035 164.699C175.32 149.926 187.583 132.92 183.817 122.781Z" fill="#999999"/>
<path fill-rule="evenodd" clip-rule="evenodd" d="M101.401 162.91L101.945 160.978L101.401 162.91L101.945 160.978L101.397 162.91C101.332 162.892 101.268 162.873 101.203 162.858C100.818 162.766 100.424 162.719 100.032 162.719V158.704C100.77 158.704 101.506 158.795 102.226 158.975C102.311 158.997 102.396 159.019 102.479 159.043L101.401 162.91ZM108.728 170.229L104.872 169.132C105 168.682 105.064 168.217 105.064 167.754C105.064 165.515 103.561 163.525 101.408 162.912L102.488 159.047C106.372 160.149 109.072 163.727 109.072 167.752C109.072 168.586 108.957 169.421 108.728 170.229ZM100.027 176.811C99.6662 176.811 99.3055 176.788 98.9449 176.746C98.9431 176.744 98.9412 176.744 98.9394 176.744C98.9357 176.744 98.9338 176.742 98.9283 176.742H98.9209C98.9116 176.744 98.9079 176.74 98.9005 176.738C98.8968 176.738 98.8913 176.738 98.8857 176.737C98.4641 176.683 98.0443 176.598 97.63 176.483L97.569 176.466C93.7019 175.367 91 171.787 91 167.763C91 166.927 91.1147 166.095 91.3458 165.286L91.3662 165.213C91.368 165.206 91.3699 165.199 91.3717 165.191C92.498 161.372 96.0543 158.704 100.029 158.704H100.03V162.719C97.8186 162.719 95.8398 164.205 95.2147 166.333L95.2129 166.342L91.3551 165.249L95.2073 166.36L91.3847 165.299L95.1999 166.383C95.0723 166.835 95.0076 167.298 95.0076 167.763C95.0076 170.001 96.5111 171.991 98.6638 172.603L98.1164 174.533L98.6657 172.603L97.5838 176.47L98.6749 172.606L97.6078 176.477L98.6878 172.61L97.6208 176.481L98.6952 172.612L97.63 176.483L98.7026 172.614C99.1372 172.734 99.5829 172.795 100.029 172.795L100.027 176.811ZM100.029 176.811V172.795L100.167 172.794L100.225 174.8L100.173 172.794L100.232 174.8L100.18 172.794L100.304 176.807L100.232 174.8L100.291 176.807L100.225 174.8L100.284 176.807L100.029 176.811Z" fill="#999999"/>
<path fill-rule="evenodd" clip-rule="evenodd" d="M191.442 169.703C191.1 168.732 190.928 167.718 190.928 166.695C190.928 162.863 193.352 159.431 196.959 158.156L197.642 160.044L196.978 158.149C197.945 157.811 198.949 157.639 199.96 157.639H199.962V161.655C199.4 161.655 198.84 161.751 198.302 161.94C196.285 162.652 194.935 164.562 194.935 166.695C194.937 167.264 195.031 167.825 195.223 168.368L191.442 169.703ZM200.262 175.746L200.127 171.732C200.641 171.715 201.147 171.619 201.634 171.446C203.644 170.737 204.993 168.828 204.991 166.695C204.991 166.128 204.893 165.565 204.705 165.024L206.593 164.355L204.703 165.022L206.593 164.355L204.703 165.022L206.593 164.355L204.694 164.992C204.692 164.99 204.692 164.988 204.69 164.985C204.688 164.981 204.686 164.975 204.686 164.972C204.684 164.972 204.684 164.97 204.684 164.97C204.683 164.964 204.681 164.959 204.679 164.953C203.954 162.98 202.064 161.655 199.962 161.655V157.639H199.964C203.723 157.639 207.105 159.994 208.421 163.513V163.515C208.423 163.521 208.425 163.524 208.427 163.528L208.436 163.56L208.442 163.573L208.458 163.615C208.46 163.625 208.464 163.632 208.466 163.639L206.593 164.355L208.482 163.686C208.824 164.659 208.998 165.67 209 166.693C209 170.527 206.576 173.959 202.965 175.234C202.092 175.544 201.183 175.716 200.262 175.746Z" fill="#999999"/>
<path fill-rule="evenodd" clip-rule="evenodd" d="M168.604 140.065C168.604 150.949 159.8 159.769 148.939 159.769C138.075 159.769 129.27 150.949 129.27 140.065C129.27 129.183 138.075 120.361 148.939 120.361C159.8 120.361 168.604 129.183 168.604 140.065Z" fill="#6D2C4B"/>
<path fill-rule="evenodd" clip-rule="evenodd" d="M166.477 140.608C166.474 150.019 158.615 157.646 148.927 157.639C139.24 157.635 131.389 149.999 131.396 140.586C131.4 131.172 139.259 123.551 148.943 123.556C158.635 123.56 166.481 131.194 166.477 140.608Z" fill="#C8C8C8"/>
<path fill-rule="evenodd" clip-rule="evenodd" d="M155.152 124.621C149.189 131.828 140.413 142.449 134.586 149.524C135.473 150.964 136.57 152.263 137.831 153.379L160.099 127.354C158.628 126.186 156.959 125.264 155.152 124.621Z" fill="#ECEFF1"/>
<path fill-rule="evenodd" clip-rule="evenodd" d="M163.288 130.036C162.985 129.635 162.664 129.252 162.33 128.882C156.115 136.666 146.722 148.44 140.964 155.682C141.488 156.007 142.03 156.307 142.591 156.574L163.288 130.036Z" fill="#ECEFF1"/>
<path fill-rule="evenodd" clip-rule="evenodd" d="M150.092 50.0651C148.178 52.4407 146.017 55.1179 144.153 57.4385C144.413 58.2734 144.84 59.0304 145.422 59.6509L152.658 50.9759C151.913 50.4692 151.032 50.1638 150.092 50.0651Z" fill="#ECEFF1"/>
<path fill-rule="evenodd" clip-rule="evenodd" d="M153.721 54.0071C153.633 53.7466 153.522 53.5035 153.407 53.2604C151.451 55.9404 149.198 59.0277 147.342 61.5785C147.608 61.6692 147.884 61.7405 148.167 61.7811L153.721 54.0071Z" fill="#ECEFF1"/>
<path fill-rule="evenodd" clip-rule="evenodd" d="M153.721 52.7251C153.576 52.5402 153.425 52.3607 153.258 52.1953C151.026 54.7985 148.384 57.8752 146.279 60.3358C146.511 60.4766 146.751 60.6086 147.012 60.716L153.721 52.7251Z" fill="#ECEFF1"/>
<defs>
<filter id="filter0_d" x="262.055" y="97.2752" width="31.2969" height="105.53" filterUnits="userSpaceOnUse" color-interpolation-filters="sRGB">
<feFlood flood-opacity="0" result="BackgroundImageFix"/>
<feColorMatrix in="SourceAlpha" type="matrix" values="0 0 0 0 0 0 0 0 0 0 0 0 0 0 0 0 0 0 127 0"/>
<feOffset dx="1" dy="1"/>
<feGaussianBlur stdDeviation="1"/>
<feColorMatrix type="matrix" values="0 0 0 0 0 0 0 0 0 0 0 0 0 0 0 0 0 0 0.15 0"/>
<feBlend mode="normal" in2="BackgroundImageFix" result="effect1_dropShadow"/>
<feBlend mode="normal" in="SourceGraphic" in2="effect1_dropShadow" result="shape"/>
</filter>
<radialGradient id="paint0_radial" cx="0" cy="0" r="1" gradientUnits="userSpaceOnUse" gradientTransform="translate(150 150) rotate(90) scale(150)">
<stop offset="0.296875" stop-color="white" stop-opacity="0"/>
<stop offset="0.947917" stop-color="#838383" stop-opacity="0.83"/>
</radialGradient>
</defs>
</svg>
