<svg width="300" height="300" viewBox="0 0 300 300" fill="none" xmlns="http://www.w3.org/2000/svg">
<rect width="300" height="300" fill="white"/>
<rect width="300" height="300" fill="white"/>
<rect width="300" height="300" fill="white"/>
<rect width="300" height="300" fill="url(#paint0_radial)" fill-opacity="0.2"/>
<g filter="url(#filter0_d)">
<path d="M277.283 207.73C279.803 207.73 282.012 208.175 283.91 209.066C285.809 209.957 287.273 211.234 288.305 212.898C289.336 214.55 289.852 216.449 289.852 218.593C289.852 220.714 289.342 222.607 288.322 224.271C287.303 225.935 285.85 227.224 283.963 228.138C282.064 229.052 279.885 229.515 277.424 229.527L276.158 229.527C273.639 229.527 271.424 229.076 269.514 228.173C267.592 227.259 266.121 225.976 265.102 224.324C264.07 222.66 263.555 220.761 263.555 218.629C263.555 216.496 264.07 214.603 265.102 212.951C266.121 211.287 267.592 210.004 269.514 209.101C271.424 208.187 273.633 207.73 276.141 207.73L277.283 207.73ZM276.123 213.074C273.439 213.074 271.4 213.554 270.006 214.515C268.611 215.476 267.914 216.847 267.914 218.629C267.914 220.398 268.605 221.763 269.988 222.724C271.359 223.685 273.375 224.171 276.035 224.183L277.283 224.183C279.896 224.183 281.924 223.703 283.365 222.742C284.807 221.781 285.527 220.398 285.527 218.593C285.527 216.824 284.836 215.464 283.453 214.515C282.059 213.566 280.031 213.086 277.371 213.074L276.123 213.074ZM280.131 190.463L280.131 194.665L289.5 194.665L289.5 199.938L263.906 199.938L263.906 190.428C263.906 187.405 264.58 185.073 265.928 183.432C267.275 181.792 269.18 180.971 271.641 180.971C273.387 180.971 274.846 181.352 276.018 182.114C277.178 182.864 278.104 184.006 278.795 185.542L289.254 180.004L289.5 180.004L289.5 185.665L280.131 190.463ZM275.859 194.665L275.859 190.411C275.859 189.086 275.525 188.061 274.857 187.335C274.178 186.608 273.246 186.245 272.062 186.245C270.855 186.245 269.906 186.59 269.215 187.282C268.523 187.961 268.178 189.01 268.178 190.428L268.178 194.665L275.859 194.665ZM284.227 158.537L284.227 167.783L289.5 169.541L289.5 175.148L263.906 165.621L263.906 160.734L289.5 151.154L289.5 156.761L284.227 158.537ZM279.955 166.359L279.955 159.96L270.375 163.177L279.955 166.359ZM289.5 123.991L289.5 129.264L272.66 139.53L289.5 139.53L289.5 144.803L263.906 144.803L263.906 139.53L280.781 129.247L263.906 129.247L263.906 123.991L289.5 123.991ZM286.266 95.1752C287.402 96.1244 288.287 97.4662 288.92 99.2006C289.541 100.935 289.852 102.857 289.852 104.966C289.852 107.181 289.371 109.126 288.41 110.802C287.437 112.466 286.031 113.755 284.191 114.669C282.352 115.572 280.189 116.035 277.705 116.058L275.965 116.058C273.41 116.058 271.201 115.63 269.338 114.775C267.463 113.908 266.033 112.665 265.049 111.048C264.053 109.419 263.555 107.515 263.555 105.335C263.555 102.3 264.281 99.9272 265.734 98.2162C267.176 96.5053 269.279 95.4916 272.045 95.1752L272.045 100.308C270.58 100.542 269.508 101.064 268.828 101.872C268.148 102.669 267.809 103.771 267.809 105.177C267.809 106.97 268.482 108.335 269.83 109.273C271.178 110.21 273.182 110.685 275.842 110.697L277.477 110.697C280.16 110.697 282.187 110.187 283.559 109.167C284.93 108.148 285.615 106.654 285.615 104.685C285.615 102.705 285.193 101.292 284.35 100.449L279.937 100.449L279.937 105.247L276.053 105.247L276.053 95.1752L286.266 95.1752ZM278.408 71.5277L278.408 81.6527L285.264 81.6527L285.264 69.7699L289.5 69.7699L289.5 86.9262L263.906 86.9262L263.906 69.8051L268.178 69.8051L268.178 81.6527L274.277 81.6527L274.277 71.5277L278.408 71.5277Z" fill="white"/>
<path d="M288.305 212.898L287.88 213.161L287.881 213.163L288.305 212.898ZM283.963 228.138L284.18 228.589L284.181 228.588L283.963 228.138ZM277.424 229.527L277.424 230.027L277.426 230.027L277.424 229.527ZM269.514 228.173L269.299 228.625L269.3 228.626L269.514 228.173ZM265.102 224.324L265.527 224.061L265.527 224.06L265.102 224.324ZM265.102 212.951L265.526 213.216L265.528 213.212L265.102 212.951ZM269.514 209.101L269.726 209.554L269.729 209.552L269.514 209.101ZM269.988 222.724L270.275 222.315L270.274 222.314L269.988 222.724ZM276.035 224.183L276.033 224.683L276.035 224.683L276.035 224.183ZM283.453 214.515L283.736 214.103L283.734 214.102L283.453 214.515ZM277.371 213.074L277.373 212.574L277.371 212.574L277.371 213.074ZM277.283 208.23C279.744 208.23 281.878 208.665 283.698 209.519L284.123 208.613C282.146 207.686 279.862 207.23 277.283 207.23L277.283 208.23ZM283.698 209.519C285.515 210.371 286.903 211.586 287.88 213.161L288.73 212.635C287.644 210.882 286.102 209.542 284.123 208.613L283.698 209.519ZM287.881 213.163C288.857 214.728 289.352 216.533 289.352 218.593L290.352 218.593C290.352 216.365 289.815 214.373 288.729 212.633L287.881 213.163ZM289.352 218.593C289.352 220.631 288.863 222.431 287.896 224.01L288.749 224.532C289.82 222.783 290.352 220.798 290.352 218.593L289.352 218.593ZM287.896 224.01C286.93 225.586 285.552 226.813 283.745 227.688L284.181 228.588C286.147 227.636 287.675 226.284 288.749 224.532L287.896 224.01ZM283.746 227.688C281.925 228.565 279.82 229.016 277.421 229.027L277.426 230.027C279.949 230.015 282.204 229.54 284.18 228.589L283.746 227.688ZM277.424 229.027L276.158 229.027L276.158 230.027L277.424 230.027L277.424 229.027ZM276.158 229.027C273.698 229.027 271.559 228.587 269.727 227.721L269.3 228.626C271.289 229.565 273.579 230.027 276.158 230.027L276.158 229.027ZM269.728 227.722C267.885 226.845 266.491 225.624 265.527 224.061L264.676 224.586C265.751 226.329 267.299 227.674 269.299 228.625L269.728 227.722ZM265.527 224.06C264.549 222.483 264.055 220.677 264.055 218.629L263.055 218.629C263.055 220.846 263.592 222.837 264.677 224.587L265.527 224.06ZM264.055 218.629C264.055 216.58 264.549 214.781 265.526 213.216L264.677 212.686C263.592 214.425 263.055 216.411 263.055 218.629L264.055 218.629ZM265.528 213.212C266.492 211.639 267.885 210.418 269.726 209.554L269.301 208.649C267.299 209.589 265.75 210.935 264.675 212.69L265.528 213.212ZM269.729 209.552C271.561 208.676 273.694 208.23 276.141 208.23L276.141 207.23C273.572 207.23 271.287 207.698 269.298 208.65L269.729 209.552ZM276.141 208.23L277.283 208.23L277.283 207.23L276.141 207.23L276.141 208.23ZM276.123 212.574C273.393 212.574 271.236 213.06 269.722 214.104L270.29 214.927C271.565 214.048 273.486 213.574 276.123 213.574L276.123 212.574ZM269.722 214.104C268.184 215.163 267.414 216.693 267.414 218.629L268.414 218.629C268.414 217.002 269.039 215.789 270.29 214.927L269.722 214.104ZM267.414 218.629C267.414 220.552 268.178 222.075 269.703 223.135L270.274 222.314C269.033 221.452 268.414 220.244 268.414 218.629L267.414 218.629ZM269.701 223.134C271.192 224.178 273.326 224.671 276.033 224.683L276.037 223.683C273.424 223.672 271.527 223.192 270.275 222.315L269.701 223.134ZM276.035 224.683L277.283 224.683L277.283 223.683L276.035 223.683L276.035 224.683ZM277.283 224.683C279.948 224.683 282.087 224.195 283.643 223.158L283.088 222.326C281.761 223.211 279.845 223.683 277.283 223.683L277.283 224.683ZM283.643 223.158C285.23 222.1 286.027 220.557 286.027 218.593L285.027 218.593C285.027 220.239 284.383 221.462 283.088 222.326L283.643 223.158ZM286.027 218.593C286.027 216.67 285.263 215.151 283.736 214.103L283.17 214.927C284.408 215.777 285.027 216.978 285.027 218.593L286.027 218.593ZM283.734 214.102C282.223 213.073 280.08 212.586 277.373 212.574L277.369 213.574C279.982 213.585 281.895 214.059 283.172 214.929L283.734 214.102ZM277.371 212.574L276.123 212.574L276.123 213.574L277.371 213.574L277.371 212.574ZM280.131 190.463L279.903 190.018L279.631 190.158L279.631 190.463L280.131 190.463ZM280.131 194.665L279.631 194.665L279.631 195.165L280.131 195.165L280.131 194.665ZM289.5 194.665L290 194.665L290 194.165L289.5 194.165L289.5 194.665ZM289.5 199.938L289.5 200.438L290 200.438L290 199.938L289.5 199.938ZM263.906 199.938L263.406 199.938L263.406 200.438L263.906 200.438L263.906 199.938ZM276.018 182.114L275.745 182.533L275.746 182.534L276.018 182.114ZM278.795 185.542L278.339 185.747L278.558 186.233L279.029 185.983L278.795 185.542ZM289.254 180.004L289.254 179.504L289.13 179.504L289.02 179.563L289.254 180.004ZM289.5 180.004L290 180.004L290 179.504L289.5 179.504L289.5 180.004ZM289.5 185.665L289.728 186.11L290 185.97L290 185.665L289.5 185.665ZM275.859 194.665L275.859 195.165L276.359 195.165L276.359 194.665L275.859 194.665ZM274.857 187.335L275.226 186.996L275.223 186.993L274.857 187.335ZM269.215 187.282L269.565 187.638L269.568 187.635L269.215 187.282ZM268.178 194.665L267.678 194.665L267.678 195.165L268.178 195.165L268.178 194.665ZM279.631 190.463L279.631 194.665L280.631 194.665L280.631 190.463L279.631 190.463ZM280.131 195.165L289.5 195.165L289.5 194.165L280.131 194.165L280.131 195.165ZM289 194.665L289 199.938L290 199.938L290 194.665L289 194.665ZM289.5 199.438L263.906 199.438L263.906 200.438L289.5 200.438L289.5 199.438ZM264.406 199.938L264.406 190.428L263.406 190.428L263.406 199.938L264.406 199.938ZM264.406 190.428C264.406 187.472 265.066 185.27 266.314 183.75L265.541 183.115C264.095 184.876 263.406 187.337 263.406 190.428L264.406 190.428ZM266.314 183.75C267.551 182.244 269.303 181.471 271.641 181.471L271.641 180.471C269.057 180.471 267 181.339 265.541 183.115L266.314 183.75ZM271.641 181.471C273.314 181.471 274.672 181.836 275.745 182.533L276.29 181.695C275.019 180.868 273.459 180.471 271.641 180.471L271.641 181.471ZM275.746 182.534C276.809 183.221 277.678 184.28 278.339 185.747L279.251 185.336C278.529 183.733 277.546 182.507 276.289 181.694L275.746 182.534ZM279.029 185.983L289.488 180.446L289.02 179.563L278.561 185.1L279.029 185.983ZM289.254 180.504L289.5 180.504L289.5 179.504L289.254 179.504L289.254 180.504ZM289 180.004L289 185.665L290 185.665L290 180.004L289 180.004ZM289.272 185.22L279.903 190.018L280.359 190.908L289.728 186.11L289.272 185.22ZM276.359 194.665L276.359 190.411L275.359 190.411L275.359 194.665L276.359 194.665ZM276.359 190.411C276.359 189.005 276.004 187.843 275.226 186.996L274.489 187.673C275.047 188.279 275.359 189.168 275.359 190.411L276.359 190.411ZM275.223 186.993C274.43 186.146 273.356 185.745 272.062 185.745L272.062 186.745C273.136 186.745 273.925 187.07 274.492 187.676L275.223 186.993ZM272.062 185.745C270.756 185.745 269.667 186.122 268.861 186.928L269.568 187.635C270.145 187.059 270.955 186.745 272.062 186.745L272.062 185.745ZM268.864 186.925C268.041 187.735 267.678 188.938 267.678 190.428L268.678 190.428C268.678 189.082 269.006 188.188 269.565 187.638L268.864 186.925ZM267.678 190.428L267.678 194.665L268.678 194.665L268.678 190.428L267.678 190.428ZM268.178 195.165L275.859 195.165L275.859 194.165L268.178 194.165L268.178 195.165ZM284.227 158.537L284.067 158.063L283.727 158.177L283.727 158.537L284.227 158.537ZM284.227 167.783L283.727 167.783L283.727 168.143L284.068 168.257L284.227 167.783ZM289.5 169.541L290 169.541L290 169.18L289.658 169.066L289.5 169.541ZM289.5 175.148L289.326 175.617L290 175.868L290 175.148L289.5 175.148ZM263.906 165.621L263.406 165.621L263.406 165.968L263.732 166.089L263.906 165.621ZM263.906 160.734L263.731 160.266L263.406 160.387L263.406 160.734L263.906 160.734ZM289.5 151.154L290 151.154L290 150.433L289.325 150.686L289.5 151.154ZM289.5 156.761L289.66 157.235L290 157.12L290 156.761L289.5 156.761ZM279.955 166.359L279.797 166.833L280.455 167.052L280.455 166.359L279.955 166.359ZM279.955 159.96L280.455 159.96L280.455 159.265L279.796 159.486L279.955 159.96ZM270.375 163.177L270.216 162.703L268.796 163.18L270.217 163.652L270.375 163.177ZM283.727 158.537L283.727 167.783L284.727 167.783L284.727 158.537L283.727 158.537ZM284.068 168.257L289.342 170.015L289.658 169.066L284.385 167.308L284.068 168.257ZM289 169.541L289 175.148L290 175.148L290 169.541L289 169.541ZM289.674 174.679L264.081 165.152L263.732 166.089L289.326 175.617L289.674 174.679ZM264.406 165.621L264.406 160.734L263.406 160.734L263.406 165.621L264.406 165.621ZM264.082 161.202L289.675 151.622L289.325 150.686L263.731 160.266L264.082 161.202ZM289 151.154L289 156.761L290 156.761L290 151.154L289 151.154ZM289.34 156.287L284.067 158.063L284.386 159.011L289.66 157.235L289.34 156.287ZM280.455 166.359L280.455 159.96L279.455 159.96L279.455 166.359L280.455 166.359ZM279.796 159.486L270.216 162.703L270.534 163.651L280.114 160.434L279.796 159.486ZM270.217 163.652L279.797 166.833L280.113 165.884L270.533 162.703L270.217 163.652ZM289.5 123.991L290 123.991L290 123.491L289.5 123.491L289.5 123.991ZM289.5 129.264L289.76 129.691L290 129.545L290 129.264L289.5 129.264ZM272.66 139.53L272.4 139.103L270.879 140.03L272.66 140.03L272.66 139.53ZM289.5 139.53L290 139.53L290 139.03L289.5 139.03L289.5 139.53ZM289.5 144.803L289.5 145.303L290 145.303L290 144.803L289.5 144.803ZM263.906 144.803L263.406 144.803L263.406 145.303L263.906 145.303L263.906 144.803ZM263.906 139.53L263.646 139.103L263.406 139.249L263.406 139.53L263.906 139.53ZM280.781 129.247L281.041 129.674L282.563 128.747L280.781 128.747L280.781 129.247ZM263.906 129.247L263.406 129.247L263.406 129.747L263.906 129.747L263.906 129.247ZM263.906 123.991L263.906 123.491L263.406 123.491L263.406 123.991L263.906 123.991ZM289 123.991L289 129.264L290 129.264L290 123.991L289 123.991ZM289.24 128.837L272.4 139.103L272.92 139.957L289.76 129.691L289.24 128.837ZM272.66 140.03L289.5 140.03L289.5 139.03L272.66 139.03L272.66 140.03ZM289 139.53L289 144.803L290 144.803L290 139.53L289 139.53ZM289.5 144.303L263.906 144.303L263.906 145.303L289.5 145.303L289.5 144.303ZM264.406 144.803L264.406 139.53L263.406 139.53L263.406 144.803L264.406 144.803ZM264.166 139.957L281.041 129.674L280.521 128.82L263.646 139.103L264.166 139.957ZM280.781 128.747L263.906 128.747L263.906 129.747L280.781 129.747L280.781 128.747ZM264.406 129.247L264.406 123.991L263.406 123.991L263.406 129.247L264.406 129.247ZM263.906 124.491L289.5 124.491L289.5 123.491L263.906 123.491L263.906 124.491ZM286.266 95.1752L286.586 94.7914L286.447 94.6752L286.266 94.6752L286.266 95.1752ZM288.92 99.2006L289.391 99.032L289.39 99.0292L288.92 99.2006ZM288.41 110.802L288.842 111.055L288.844 111.051L288.41 110.802ZM284.191 114.669L284.412 115.118L284.414 115.117L284.191 114.669ZM277.705 116.058L277.705 116.558L277.71 116.558L277.705 116.058ZM269.338 114.775L269.128 115.229L269.129 115.229L269.338 114.775ZM265.049 111.048L265.476 110.788L265.475 110.787L265.049 111.048ZM265.734 98.2162L266.115 98.5399L266.117 98.5384L265.734 98.2162ZM272.045 95.1752L272.545 95.1752L272.545 94.6148L271.988 94.6785L272.045 95.1752ZM272.045 100.308L272.124 100.802L272.545 100.734L272.545 100.308L272.045 100.308ZM268.828 101.872L269.209 102.197L269.211 102.194L268.828 101.872ZM275.842 110.697L275.84 111.197L275.842 111.197L275.842 110.697ZM284.35 100.449L284.703 100.095L284.557 99.9487L284.35 99.9487L284.35 100.449ZM279.937 100.449L279.937 99.9487L279.437 99.9487L279.437 100.449L279.937 100.449ZM279.937 105.247L279.937 105.747L280.437 105.747L280.437 105.247L279.937 105.247ZM276.053 105.247L275.553 105.247L275.553 105.747L276.053 105.747L276.053 105.247ZM276.053 95.1752L276.053 94.6752L275.553 94.6752L275.553 95.1752L276.053 95.1752ZM285.945 95.559C287 96.4395 287.84 97.7002 288.45 99.372L289.39 99.0292C288.734 97.2323 287.805 95.8094 286.586 94.7914L285.945 95.559ZM288.449 99.3692C289.048 101.042 289.352 102.906 289.352 104.966L290.352 104.966C290.352 102.808 290.034 100.828 289.391 99.0321L288.449 99.3692ZM289.352 104.966C289.352 107.107 288.888 108.964 287.976 110.553L288.844 111.051C289.854 109.289 290.352 107.255 290.352 104.966L289.352 104.966ZM287.978 110.55C287.058 112.124 285.728 113.348 283.969 114.222L284.414 115.117C286.335 114.163 287.817 112.808 288.842 111.054L287.978 110.55ZM283.971 114.22C282.211 115.084 280.126 115.535 277.7 115.558L277.71 116.558C280.253 116.534 282.492 116.06 284.412 115.118L283.971 114.22ZM277.705 115.558L275.965 115.558L275.965 116.558L277.705 116.558L277.705 115.558ZM275.965 115.558C273.465 115.558 271.33 115.139 269.547 114.32L269.129 115.229C271.072 116.121 273.355 116.558 275.965 116.558L275.965 115.558ZM269.548 114.321C267.754 113.492 266.404 112.313 265.476 110.788L264.622 111.308C265.662 113.018 267.172 114.324 269.128 115.229L269.548 114.321ZM265.475 110.787C264.534 109.248 264.055 107.436 264.055 105.335L263.055 105.335C263.055 107.594 263.572 109.591 264.622 111.309L265.475 110.787ZM264.055 105.335C264.055 102.377 264.762 100.133 266.115 98.5399L265.353 97.8926C263.8 99.7214 263.055 102.224 263.055 105.335L264.055 105.335ZM266.117 98.5384C267.457 96.9475 269.43 95.9776 272.102 95.672L271.988 94.6785C269.128 95.0057 266.895 96.0631 265.352 97.8941L266.117 98.5384ZM271.545 95.1752L271.545 100.308L272.545 100.308L272.545 95.1752L271.545 95.1752ZM271.966 99.8143C270.43 100.06 269.229 100.619 268.445 101.551L269.211 102.194C269.787 101.509 270.73 101.025 272.124 100.802L271.966 99.8143ZM268.448 101.548C267.668 102.462 267.309 103.693 267.309 105.177L268.309 105.177C268.309 103.849 268.629 102.876 269.209 102.197L268.448 101.548ZM267.309 105.177C267.309 107.116 268.049 108.643 269.545 109.683L270.116 108.862C268.916 108.028 268.309 106.824 268.309 105.177L267.309 105.177ZM269.545 109.683C271.013 110.705 273.135 111.185 275.84 111.197L275.844 110.197C273.228 110.185 271.343 109.716 270.116 108.862L269.545 109.683ZM275.842 111.197L277.477 111.197L277.477 110.197L275.842 110.197L275.842 111.197ZM277.477 111.197C280.21 111.197 282.363 110.68 283.857 109.569L283.26 108.766C282.012 109.694 280.11 110.197 277.477 110.197L277.477 111.197ZM283.857 109.569C285.375 108.44 286.115 106.784 286.115 104.685L285.115 104.685C285.115 106.523 284.484 107.856 283.26 108.766L283.857 109.569ZM286.115 104.685C286.115 102.655 285.686 101.078 284.703 100.095L283.996 100.802C284.7 101.507 285.115 102.754 285.115 104.685L286.115 104.685ZM284.35 99.9487L279.937 99.9487L279.937 100.949L284.35 100.949L284.35 99.9487ZM279.437 100.449L279.437 105.247L280.437 105.247L280.437 100.449L279.437 100.449ZM279.937 104.747L276.053 104.747L276.053 105.747L279.937 105.747L279.937 104.747ZM276.553 105.247L276.553 95.1752L275.553 95.1752L275.553 105.247L276.553 105.247ZM276.053 95.6752L286.266 95.6752L286.266 94.6752L276.053 94.6752L276.053 95.6752ZM278.408 71.5277L278.908 71.5277L278.908 71.0277L278.408 71.0277L278.408 71.5277ZM278.408 81.6527L277.908 81.6527L277.908 82.1527L278.408 82.1527L278.408 81.6527ZM285.264 81.6527L285.264 82.1527L285.764 82.1527L285.764 81.6527L285.264 81.6527ZM285.264 69.7699L285.264 69.2699L284.764 69.2699L284.764 69.7699L285.264 69.7699ZM289.5 69.7699L290 69.7699L290 69.2699L289.5 69.2699L289.5 69.7699ZM289.5 86.9262L289.5 87.4262L290 87.4262L290 86.9262L289.5 86.9262ZM263.906 86.9262L263.406 86.9262L263.406 87.4262L263.906 87.4262L263.906 86.9262ZM263.906 69.8051L263.906 69.3051L263.406 69.3051L263.406 69.8051L263.906 69.8051ZM268.178 69.8051L268.678 69.8051L268.678 69.3051L268.178 69.3051L268.178 69.8051ZM268.178 81.6527L267.678 81.6527L267.678 82.1527L268.178 82.1527L268.178 81.6527ZM274.277 81.6527L274.277 82.1527L274.777 82.1527L274.777 81.6527L274.277 81.6527ZM274.277 71.5277L274.277 71.0277L273.777 71.0277L273.777 71.5277L274.277 71.5277ZM277.908 71.5277L277.908 81.6527L278.908 81.6527L278.908 71.5277L277.908 71.5277ZM278.408 82.1527L285.264 82.1527L285.264 81.1527L278.408 81.1527L278.408 82.1527ZM285.764 81.6527L285.764 69.7699L284.764 69.7699L284.764 81.6527L285.764 81.6527ZM285.264 70.2699L289.5 70.2699L289.5 69.2699L285.264 69.2699L285.264 70.2699ZM289 69.7699L289 86.9262L290 86.9262L290 69.7699L289 69.7699ZM289.5 86.4262L263.906 86.4262L263.906 87.4262L289.5 87.4262L289.5 86.4262ZM264.406 86.9262L264.406 69.8051L263.406 69.8051L263.406 86.9262L264.406 86.9262ZM263.906 70.3051L268.178 70.3051L268.178 69.3051L263.906 69.3051L263.906 70.3051ZM267.678 69.8051L267.678 81.6527L268.678 81.6527L268.678 69.8051L267.678 69.8051ZM268.178 82.1527L274.277 82.1527L274.277 81.1527L268.178 81.1527L268.178 82.1527ZM274.777 81.6527L274.777 71.5277L273.777 71.5277L273.777 81.6527L274.777 81.6527ZM274.277 72.0277L278.408 72.0277L278.408 71.0277L274.277 71.0277L274.277 72.0277Z" fill="#D88100"/>
</g>
<path d="M35.4297 264.922H28.0078V285H14.2969V228.125H36.6797C43.4245 228.125 48.6979 229.622 52.5 232.617C56.3021 235.612 58.2031 239.844 58.2031 245.312C58.2031 249.271 57.3958 252.552 55.7812 255.156C54.1927 257.76 51.6927 259.87 48.2812 261.484L60.1562 284.414V285H45.4688L35.4297 264.922ZM28.0078 254.336H36.6797C39.2839 254.336 41.237 253.659 42.5391 252.305C43.8672 250.924 44.5312 249.01 44.5312 246.562C44.5312 244.115 43.8672 242.201 42.5391 240.82C41.2109 239.414 39.2578 238.711 36.6797 238.711H28.0078V254.336ZM87.8438 259.406V276.264C87.8438 279.064 86.9648 281.279 85.207 282.908C83.4609 284.537 81.0703 285.352 78.0352 285.352C75.0469 285.352 72.6738 284.561 70.916 282.979C69.1582 281.396 68.2617 279.223 68.2266 276.457V259.406H73.5V276.299C73.5 277.975 73.8984 279.199 74.6953 279.973C75.5039 280.734 76.6172 281.115 78.0352 281.115C81 281.115 82.5059 279.557 82.5527 276.439V259.406H87.8438ZM101.401 280.764H112.599V285H96.128V259.406H101.401V280.764ZM134.998 273.908H124.873V280.764H136.756V285H119.6V259.406H136.721V263.678H124.873V269.777H134.998V273.908ZM153.284 275.631H149.083V285H143.81V259.406H153.319C156.343 259.406 158.675 260.08 160.316 261.428C161.956 262.775 162.776 264.68 162.776 267.141C162.776 268.887 162.396 270.346 161.634 271.518C160.884 272.678 159.741 273.604 158.206 274.295L163.743 284.754V285H158.083L153.284 275.631ZM149.083 271.359H153.337C154.661 271.359 155.687 271.025 156.413 270.357C157.14 269.678 157.503 268.746 157.503 267.562C157.503 266.355 157.157 265.406 156.466 264.715C155.786 264.023 154.737 263.678 153.319 263.678H149.083V271.359Z" fill="black"/>
<path d="M68.3851 28.8535C68.3851 28.1445 68.1361 27.585 67.638 27.1748C67.14 26.7588 66.2289 26.3662 64.9046 25.9971C63.5804 25.6221 62.6136 25.2148 62.0043 24.7754C61.1371 24.1543 60.7035 23.3398 60.7035 22.332C60.7035 21.3535 61.1048 20.5596 61.9076 19.9502C62.7162 19.335 63.7474 19.0273 65.0013 19.0273C65.8509 19.0273 66.6097 19.1914 67.2777 19.5195C67.9515 19.8477 68.473 20.3047 68.8421 20.8906C69.2113 21.4766 69.3959 22.1299 69.3959 22.8506H68.306C68.306 21.9775 68.0072 21.2773 67.4095 20.75C66.8119 20.2168 66.0091 19.9502 65.0013 19.9502C64.0228 19.9502 63.2435 20.1699 62.6634 20.6094C62.0834 21.043 61.7933 21.6113 61.7933 22.3145C61.7933 22.9648 62.0541 23.4951 62.5755 23.9053C63.097 24.3154 63.932 24.6787 65.0804 24.9951C66.2289 25.3057 67.099 25.6309 67.6908 25.9707C68.2826 26.3047 68.7279 26.7061 69.0267 27.1748C69.3255 27.6436 69.475 28.1973 69.475 28.8359C69.475 29.8438 69.0707 30.6523 68.2621 31.2617C67.4593 31.8711 66.3988 32.1758 65.0804 32.1758C64.1781 32.1758 63.349 32.0146 62.5931 31.6924C61.8431 31.3701 61.2718 30.9189 60.8793 30.3389C60.4925 29.7588 60.2992 29.0938 60.2992 28.3438H61.3802C61.3802 29.2461 61.7171 29.958 62.391 30.4795C63.0648 31.001 63.9613 31.2617 65.0804 31.2617C66.0765 31.2617 66.8763 31.042 67.4798 30.6025C68.0834 30.1631 68.3851 29.5801 68.3851 28.8535ZM82.8544 28.0098C82.7079 29.3574 82.2245 30.3887 81.4042 31.1035C80.5897 31.8184 79.5028 32.1758 78.1434 32.1758C77.1942 32.1758 76.3534 31.9385 75.621 31.4639C74.8944 30.9893 74.3319 30.3184 73.9335 29.4512C73.535 28.5781 73.3329 27.582 73.327 26.4629V24.8018C73.327 23.665 73.5262 22.6572 73.9247 21.7783C74.3231 20.8994 74.8944 20.2227 75.6385 19.748C76.3885 19.2676 77.2499 19.0273 78.2225 19.0273C79.5936 19.0273 80.6747 19.3994 81.4657 20.1436C82.2626 20.8818 82.7255 21.9043 82.8544 23.2109H81.7645C81.495 21.0371 80.3143 19.9502 78.2225 19.9502C77.0624 19.9502 76.1366 20.3838 75.4452 21.251C74.7596 22.1182 74.4169 23.3164 74.4169 24.8457V26.4102C74.4169 27.8867 74.7509 29.0645 75.4188 29.9434C76.0927 30.8223 77.0009 31.2617 78.1434 31.2617C79.2743 31.2617 80.1268 30.9922 80.701 30.4531C81.2753 29.9082 81.6298 29.0938 81.7645 28.0098H82.8544ZM96.9457 32H95.8559V25.8652H88.5434V32H87.4623V19.2031H88.5434V24.9512H95.8559V19.2031H96.9457V32ZM111.643 26.2959C111.643 27.4736 111.438 28.5078 111.028 29.3984C110.624 30.2891 110.044 30.9746 109.288 31.4551C108.532 31.9355 107.659 32.1758 106.669 32.1758C105.175 32.1758 103.968 31.6426 103.048 30.5762C102.128 29.5039 101.668 28.0596 101.668 26.2432V24.9248C101.668 23.7588 101.873 22.7275 102.283 21.8311C102.699 20.9287 103.285 20.2373 104.041 19.7568C104.797 19.2705 105.667 19.0273 106.651 19.0273C107.636 19.0273 108.503 19.2646 109.253 19.7393C110.009 20.2139 110.592 20.8848 111.002 21.752C111.412 22.6191 111.626 23.624 111.643 24.7666V26.2959ZM110.562 24.9072C110.562 23.3662 110.214 22.1592 109.517 21.2861C108.819 20.4131 107.864 19.9766 106.651 19.9766C105.462 19.9766 104.513 20.416 103.804 21.2949C103.101 22.168 102.749 23.3896 102.749 24.96V26.2959C102.749 27.8135 103.101 29.0176 103.804 29.9082C104.507 30.793 105.462 31.2354 106.669 31.2354C107.893 31.2354 108.849 30.7988 109.534 29.9258C110.22 29.0469 110.562 27.8252 110.562 26.2607V24.9072ZM125.805 26.2959C125.805 27.4736 125.6 28.5078 125.19 29.3984C124.786 30.2891 124.206 30.9746 123.45 31.4551C122.694 31.9355 121.821 32.1758 120.831 32.1758C119.336 32.1758 118.129 31.6426 117.209 30.5762C116.289 29.5039 115.83 28.0596 115.83 26.2432V24.9248C115.83 23.7588 116.035 22.7275 116.445 21.8311C116.861 20.9287 117.447 20.2373 118.203 19.7568C118.958 19.2705 119.829 19.0273 120.813 19.0273C121.797 19.0273 122.664 19.2646 123.414 19.7393C124.17 20.2139 124.753 20.8848 125.164 21.752C125.574 22.6191 125.788 23.624 125.805 24.7666V26.2959ZM124.724 24.9072C124.724 23.3662 124.375 22.1592 123.678 21.2861C122.981 20.4131 122.026 19.9766 120.813 19.9766C119.623 19.9766 118.674 20.416 117.965 21.2949C117.262 22.168 116.911 23.3896 116.911 24.96V26.2959C116.911 27.8135 117.262 29.0176 117.965 29.9082C118.668 30.793 119.623 31.2354 120.831 31.2354C122.055 31.2354 123.01 30.7988 123.696 29.9258C124.381 29.0469 124.724 27.8252 124.724 26.2607V24.9072ZM131.6 31.0859H137.919V32H130.51V19.2031H131.6V31.0859ZM155.581 28.8535C155.581 28.1445 155.332 27.585 154.834 27.1748C154.336 26.7588 153.425 26.3662 152.101 25.9971C150.776 25.6221 149.81 25.2148 149.2 24.7754C148.333 24.1543 147.899 23.3398 147.899 22.332C147.899 21.3535 148.301 20.5596 149.104 19.9502C149.912 19.335 150.943 19.0273 152.197 19.0273C153.047 19.0273 153.806 19.1914 154.474 19.5195C155.147 19.8477 155.669 20.3047 156.038 20.8906C156.407 21.4766 156.592 22.1299 156.592 22.8506H155.502C155.502 21.9775 155.203 21.2773 154.605 20.75C154.008 20.2168 153.205 19.9502 152.197 19.9502C151.219 19.9502 150.439 20.1699 149.859 20.6094C149.279 21.043 148.989 21.6113 148.989 22.3145C148.989 22.9648 149.25 23.4951 149.771 23.9053C150.293 24.3154 151.128 24.6787 152.276 24.9951C153.425 25.3057 154.295 25.6309 154.887 25.9707C155.479 26.3047 155.924 26.7061 156.223 27.1748C156.521 27.6436 156.671 28.1973 156.671 28.8359C156.671 29.8438 156.267 30.6523 155.458 31.2617C154.655 31.8711 153.595 32.1758 152.276 32.1758C151.374 32.1758 150.545 32.0146 149.789 31.6924C149.039 31.3701 148.468 30.9189 148.075 30.3389C147.688 29.7588 147.495 29.0938 147.495 28.3438H148.576C148.576 29.2461 148.913 29.958 149.587 30.4795C150.261 31.001 151.157 31.2617 152.276 31.2617C153.272 31.2617 154.072 31.042 154.676 30.6025C155.279 30.1631 155.581 29.5801 155.581 28.8535ZM169.804 19.2031V27.9395C169.798 28.8008 169.608 29.5508 169.233 30.1895C168.858 30.8281 168.328 31.3203 167.642 31.666C166.962 32.0059 166.18 32.1758 165.295 32.1758C163.948 32.1758 162.867 31.8096 162.052 31.0771C161.244 30.3389 160.825 29.3193 160.795 28.0186V19.2031H161.868V27.8604C161.868 28.9385 162.175 29.7764 162.791 30.374C163.406 30.9658 164.241 31.2617 165.295 31.2617C166.35 31.2617 167.182 30.9629 167.792 30.3652C168.407 29.7676 168.714 28.9355 168.714 27.8691V19.2031H169.804ZM175.88 26.7881V32H174.799V19.2031H179.158C180.488 19.2031 181.537 19.543 182.305 20.2227C183.078 20.9023 183.465 21.8369 183.465 23.0264C183.465 24.2275 183.093 25.1562 182.349 25.8125C181.61 26.4629 180.538 26.7881 179.132 26.7881H175.88ZM175.88 25.874H179.158C180.207 25.874 181.007 25.625 181.558 25.127C182.108 24.6289 182.384 23.9346 182.384 23.0439C182.384 22.1592 182.108 21.4561 181.558 20.9346C181.013 20.4072 180.236 20.1377 179.229 20.126H175.88V25.874ZM188.952 26.7881V32H187.871V19.2031H192.23C193.56 19.2031 194.609 19.543 195.377 20.2227C196.15 20.9023 196.537 21.8369 196.537 23.0264C196.537 24.2275 196.165 25.1562 195.42 25.8125C194.682 26.4629 193.61 26.7881 192.204 26.7881H188.952ZM188.952 25.874H192.23C193.279 25.874 194.079 25.625 194.629 25.127C195.18 24.6289 195.456 23.9346 195.456 23.0439C195.456 22.1592 195.18 21.4561 194.629 20.9346C194.085 20.4072 193.308 20.1377 192.3 20.126H188.952V25.874ZM202.032 31.0859H208.352V32H200.942V19.2031H202.032V31.0859ZM213.733 32H212.652V19.2031H213.733V32ZM226.26 25.8652H220.275V31.0859H227.156V32H219.193V19.2031H227.112V20.126H220.275V24.9512H226.26V25.8652ZM238.664 28.8535C238.664 28.1445 238.415 27.585 237.917 27.1748C237.419 26.7588 236.507 26.3662 235.183 25.9971C233.859 25.6221 232.892 25.2148 232.283 24.7754C231.416 24.1543 230.982 23.3398 230.982 22.332C230.982 21.3535 231.383 20.5596 232.186 19.9502C232.995 19.335 234.026 19.0273 235.28 19.0273C236.13 19.0273 236.888 19.1914 237.556 19.5195C238.23 19.8477 238.752 20.3047 239.121 20.8906C239.49 21.4766 239.674 22.1299 239.674 22.8506H238.585C238.585 21.9775 238.286 21.2773 237.688 20.75C237.09 20.2168 236.288 19.9502 235.28 19.9502C234.301 19.9502 233.522 20.1699 232.942 20.6094C232.362 21.043 232.072 21.6113 232.072 22.3145C232.072 22.9648 232.333 23.4951 232.854 23.9053C233.376 24.3154 234.211 24.6787 235.359 24.9951C236.507 25.3057 237.378 25.6309 237.969 25.9707C238.561 26.3047 239.006 26.7061 239.305 27.1748C239.604 27.6436 239.754 28.1973 239.754 28.8359C239.754 29.8438 239.349 30.6523 238.541 31.2617C237.738 31.8711 236.677 32.1758 235.359 32.1758C234.457 32.1758 233.628 32.0146 232.872 31.6924C232.122 31.3701 231.55 30.9189 231.158 30.3389C230.771 29.7588 230.578 29.0938 230.578 28.3438H231.659C231.659 29.2461 231.996 29.958 232.67 30.4795C233.343 31.001 234.24 31.2617 235.359 31.2617C236.355 31.2617 237.155 31.042 237.758 30.6025C238.362 30.1631 238.664 29.5801 238.664 28.8535Z" fill="black"/>
<path fill-rule="evenodd" clip-rule="evenodd" d="M20.7685 194.284L252.404 122.407L246.033 101.258L14.3981 173.135L20.7685 194.284Z" fill="#FF7F3F"/>
<path fill-rule="evenodd" clip-rule="evenodd" d="M22.3644 199.011L253.963 127.219L251.176 117.978L19.5778 189.769L22.3644 199.011Z" fill="#DF6B31"/>
<path fill-rule="evenodd" clip-rule="evenodd" d="M21.712 185.805L23.1605 185.355L19.124 171.947L17.6755 172.396L21.712 185.805Z" fill="black"/>
<path fill-rule="evenodd" clip-rule="evenodd" d="M34.1515 181.953L35.6001 181.503L31.5636 168.095L30.1151 168.545L34.1515 181.953Z" fill="black"/>
<path fill-rule="evenodd" clip-rule="evenodd" d="M46.592 178.101L48.0405 177.651L44.004 164.243L42.5555 164.693L46.592 178.101Z" fill="black"/>
<path fill-rule="evenodd" clip-rule="evenodd" d="M59.0315 174.249L60.4801 173.799L56.4436 160.391L54.9951 160.841L59.0315 174.249Z" fill="black"/>
<path fill-rule="evenodd" clip-rule="evenodd" d="M71.472 170.397L72.9205 169.947L68.884 156.539L67.4355 156.988L71.472 170.397Z" fill="black"/>
<path fill-rule="evenodd" clip-rule="evenodd" d="M83.9116 166.545L85.3601 166.095L81.3236 152.687L79.8751 153.136L83.9116 166.545Z" fill="black"/>
<path fill-rule="evenodd" clip-rule="evenodd" d="M96.352 162.693L97.8005 162.243L93.764 148.835L92.3155 149.284L96.352 162.693Z" fill="black"/>
<path fill-rule="evenodd" clip-rule="evenodd" d="M108.792 158.841L110.24 158.391L106.204 144.983L104.755 145.432L108.792 158.841Z" fill="black"/>
<path fill-rule="evenodd" clip-rule="evenodd" d="M121.231 154.989L122.68 154.539L118.643 141.131L117.195 141.581L121.231 154.989Z" fill="black"/>
<path fill-rule="evenodd" clip-rule="evenodd" d="M133.672 151.137L135.121 150.687L131.084 137.279L129.636 137.728L133.672 151.137Z" fill="black"/>
<path fill-rule="evenodd" clip-rule="evenodd" d="M146.112 147.285L147.56 146.835L143.524 133.427L142.076 133.876L146.112 147.285Z" fill="black"/>
<path fill-rule="evenodd" clip-rule="evenodd" d="M158.552 143.433L160 142.983L155.964 129.575L154.515 130.025L158.552 143.433Z" fill="black"/>
<path fill-rule="evenodd" clip-rule="evenodd" d="M170.991 139.581L172.44 139.131L168.403 125.723L166.955 126.173L170.991 139.581Z" fill="black"/>
<path fill-rule="evenodd" clip-rule="evenodd" d="M183.432 135.729L184.88 135.279L180.844 121.871L179.395 122.321L183.432 135.729Z" fill="black"/>
<path fill-rule="evenodd" clip-rule="evenodd" d="M195.871 131.877L197.32 131.427L193.283 118.019L191.835 118.469L195.871 131.877Z" fill="black"/>
<path fill-rule="evenodd" clip-rule="evenodd" d="M208.312 128.025L209.76 127.575L205.724 114.167L204.275 114.617L208.312 128.025Z" fill="black"/>
<path fill-rule="evenodd" clip-rule="evenodd" d="M220.752 124.173L222.201 123.723L218.164 110.315L216.716 110.765L220.752 124.173Z" fill="black"/>
<path fill-rule="evenodd" clip-rule="evenodd" d="M233.192 120.321L234.64 119.871L230.604 106.463L229.155 106.913L233.192 120.321Z" fill="black"/>
<path fill-rule="evenodd" clip-rule="evenodd" d="M245.631 116.469L247.08 116.019L243.043 102.611L241.595 103.061L245.631 116.469Z" fill="black"/>
<path fill-rule="evenodd" clip-rule="evenodd" d="M25.8404 178.406L27.2848 177.958L24.8798 169.961L23.4354 170.41L25.8404 178.406Z" fill="black"/>
<path fill-rule="evenodd" clip-rule="evenodd" d="M38.2649 174.559L39.7093 174.11L37.3043 166.114L35.8599 166.563L38.2649 174.559Z" fill="black"/>
<path fill-rule="evenodd" clip-rule="evenodd" d="M50.6887 170.712L52.1331 170.263L49.7281 162.267L48.2837 162.716L50.6887 170.712Z" fill="black"/>
<path fill-rule="evenodd" clip-rule="evenodd" d="M63.1125 166.865L64.5569 166.416L62.1519 158.42L60.7075 158.869L63.1125 166.865Z" fill="black"/>
<path fill-rule="evenodd" clip-rule="evenodd" d="M75.537 163.018L76.9814 162.569L74.5764 154.573L73.132 155.022L75.537 163.018Z" fill="black"/>
<path fill-rule="evenodd" clip-rule="evenodd" d="M87.9608 159.171L89.4052 158.722L87.0002 150.726L85.5558 151.175L87.9608 159.171Z" fill="black"/>
<path fill-rule="evenodd" clip-rule="evenodd" d="M100.385 155.324L101.83 154.875L99.4248 146.879L97.9803 147.328L100.385 155.324Z" fill="black"/>
<path fill-rule="evenodd" clip-rule="evenodd" d="M112.81 151.477L114.254 151.028L111.849 143.032L110.405 143.48L112.81 151.477Z" fill="black"/>
<path fill-rule="evenodd" clip-rule="evenodd" d="M125.234 147.63L126.678 147.181L124.273 139.185L122.829 139.633L125.234 147.63Z" fill="black"/>
<path fill-rule="evenodd" clip-rule="evenodd" d="M137.658 143.783L139.102 143.334L136.697 135.338L135.253 135.786L137.658 143.783Z" fill="black"/>
<path fill-rule="evenodd" clip-rule="evenodd" d="M150.081 139.936L151.526 139.487L149.121 131.491L147.676 131.94L150.081 139.936Z" fill="black"/>
<path fill-rule="evenodd" clip-rule="evenodd" d="M162.506 136.089L163.95 135.64L161.545 127.643L160.101 128.092L162.506 136.089Z" fill="black"/>
<path fill-rule="evenodd" clip-rule="evenodd" d="M174.93 132.241L176.375 131.793L173.97 123.796L172.525 124.245L174.93 132.241Z" fill="black"/>
<path fill-rule="evenodd" clip-rule="evenodd" d="M187.354 128.394L188.799 127.946L186.394 119.949L184.949 120.398L187.354 128.394Z" fill="black"/>
<path fill-rule="evenodd" clip-rule="evenodd" d="M199.779 124.547L201.223 124.098L198.818 116.102L197.374 116.551L199.779 124.547Z" fill="black"/>
<path fill-rule="evenodd" clip-rule="evenodd" d="M212.203 120.7L213.647 120.251L211.242 112.255L209.798 112.704L212.203 120.7Z" fill="black"/>
<path fill-rule="evenodd" clip-rule="evenodd" d="M224.626 116.853L226.071 116.404L223.666 108.408L222.221 108.857L224.626 116.853Z" fill="black"/>
<path fill-rule="evenodd" clip-rule="evenodd" d="M237.051 113.006L238.495 112.557L236.09 104.561L234.646 105.01L237.051 113.006Z" fill="black"/>
<defs>
<filter id="filter0_d" x="262.055" y="68.2699" width="31.2969" height="164.757" filterUnits="userSpaceOnUse" color-interpolation-filters="sRGB">
<feFlood flood-opacity="0" result="BackgroundImageFix"/>
<feColorMatrix in="SourceAlpha" type="matrix" values="0 0 0 0 0 0 0 0 0 0 0 0 0 0 0 0 0 0 127 0"/>
<feOffset dx="1" dy="1"/>
<feGaussianBlur stdDeviation="1"/>
<feColorMatrix type="matrix" values="0 0 0 0 0 0 0 0 0 0 0 0 0 0 0 0 0 0 0.15 0"/>
<feBlend mode="normal" in2="BackgroundImageFix" result="effect1_dropShadow"/>
<feBlend mode="normal" in="SourceGraphic" in2="effect1_dropShadow" result="shape"/>
</filter>
<radialGradient id="paint0_radial" cx="0" cy="0" r="1" gradientUnits="userSpaceOnUse" gradientTransform="translate(150 150) rotate(90) scale(150)">
<stop offset="0.369792" stop-color="white" stop-opacity="0"/>
<stop offset="1" stop-color="#FFB800"/>
</radialGradient>
</defs>
</svg>
