<svg width="300" height="300" viewBox="0 0 300 300" fill="none" xmlns="http://www.w3.org/2000/svg">
<g clip-path="url(#clip0)">
<rect width="300" height="300" fill="white"/>
<rect width="300" height="300" fill="white"/>
<rect width="300" height="300" fill="white"/>
<rect width="300" height="300" fill="url(#paint0_radial)" fill-opacity="0.2"/>
<g filter="url(#filter0_d)">
<path d="M277.283 207.73C279.803 207.73 282.012 208.175 283.91 209.066C285.809 209.957 287.273 211.234 288.305 212.898C289.336 214.55 289.852 216.449 289.852 218.593C289.852 220.714 289.342 222.607 288.322 224.271C287.303 225.935 285.85 227.224 283.963 228.138C282.064 229.052 279.885 229.515 277.424 229.527L276.158 229.527C273.639 229.527 271.424 229.076 269.514 228.173C267.592 227.259 266.121 225.976 265.102 224.324C264.07 222.66 263.555 220.761 263.555 218.629C263.555 216.496 264.07 214.603 265.102 212.951C266.121 211.287 267.592 210.004 269.514 209.101C271.424 208.187 273.633 207.73 276.141 207.73L277.283 207.73ZM276.123 213.074C273.439 213.074 271.4 213.554 270.006 214.515C268.611 215.476 267.914 216.847 267.914 218.629C267.914 220.398 268.605 221.763 269.988 222.724C271.359 223.685 273.375 224.171 276.035 224.183L277.283 224.183C279.896 224.183 281.924 223.703 283.365 222.742C284.807 221.781 285.527 220.398 285.527 218.593C285.527 216.824 284.836 215.464 283.453 214.515C282.059 213.566 280.031 213.086 277.371 213.074L276.123 213.074ZM280.131 190.463L280.131 194.665L289.5 194.665L289.5 199.938L263.906 199.938L263.906 190.428C263.906 187.405 264.58 185.073 265.928 183.432C267.275 181.792 269.18 180.971 271.641 180.971C273.387 180.971 274.846 181.352 276.018 182.114C277.178 182.864 278.104 184.006 278.795 185.542L289.254 180.004L289.5 180.004L289.5 185.665L280.131 190.463ZM275.859 194.665L275.859 190.411C275.859 189.086 275.525 188.061 274.857 187.335C274.178 186.608 273.246 186.245 272.062 186.245C270.855 186.245 269.906 186.59 269.215 187.282C268.523 187.961 268.178 189.01 268.178 190.428L268.178 194.665L275.859 194.665ZM284.227 158.537L284.227 167.783L289.5 169.541L289.5 175.148L263.906 165.621L263.906 160.734L289.5 151.154L289.5 156.761L284.227 158.537ZM279.955 166.359L279.955 159.96L270.375 163.177L279.955 166.359ZM289.5 123.991L289.5 129.264L272.66 139.53L289.5 139.53L289.5 144.803L263.906 144.803L263.906 139.53L280.781 129.247L263.906 129.247L263.906 123.991L289.5 123.991ZM286.266 95.1752C287.402 96.1244 288.287 97.4662 288.92 99.2006C289.541 100.935 289.852 102.857 289.852 104.966C289.852 107.181 289.371 109.126 288.41 110.802C287.437 112.466 286.031 113.755 284.191 114.669C282.352 115.572 280.189 116.035 277.705 116.058L275.965 116.058C273.41 116.058 271.201 115.63 269.338 114.775C267.463 113.908 266.033 112.665 265.049 111.048C264.053 109.419 263.555 107.515 263.555 105.335C263.555 102.3 264.281 99.9272 265.734 98.2162C267.176 96.5053 269.279 95.4916 272.045 95.1752L272.045 100.308C270.58 100.542 269.508 101.064 268.828 101.872C268.148 102.669 267.809 103.771 267.809 105.177C267.809 106.97 268.482 108.335 269.83 109.273C271.178 110.21 273.182 110.685 275.842 110.697L277.477 110.697C280.16 110.697 282.187 110.187 283.559 109.167C284.93 108.148 285.615 106.654 285.615 104.685C285.615 102.705 285.193 101.292 284.35 100.449L279.937 100.449L279.937 105.247L276.053 105.247L276.053 95.1752L286.266 95.1752ZM278.408 71.5277L278.408 81.6527L285.264 81.6527L285.264 69.7699L289.5 69.7699L289.5 86.9262L263.906 86.9262L263.906 69.8051L268.178 69.8051L268.178 81.6527L274.277 81.6527L274.277 71.5277L278.408 71.5277Z" fill="white"/>
<path d="M288.305 212.898L287.88 213.161L287.881 213.163L288.305 212.898ZM283.963 228.138L284.18 228.589L284.181 228.588L283.963 228.138ZM277.424 229.527L277.424 230.027L277.426 230.027L277.424 229.527ZM269.514 228.173L269.299 228.625L269.3 228.626L269.514 228.173ZM265.102 224.324L265.527 224.061L265.527 224.06L265.102 224.324ZM265.102 212.951L265.526 213.216L265.528 213.212L265.102 212.951ZM269.514 209.101L269.726 209.554L269.729 209.552L269.514 209.101ZM269.988 222.724L270.275 222.315L270.274 222.314L269.988 222.724ZM276.035 224.183L276.033 224.683L276.035 224.683L276.035 224.183ZM283.453 214.515L283.736 214.103L283.734 214.102L283.453 214.515ZM277.371 213.074L277.373 212.574L277.371 212.574L277.371 213.074ZM277.283 208.23C279.744 208.23 281.878 208.665 283.698 209.519L284.123 208.613C282.146 207.686 279.862 207.23 277.283 207.23L277.283 208.23ZM283.698 209.519C285.515 210.371 286.903 211.586 287.88 213.161L288.73 212.635C287.644 210.882 286.102 209.542 284.123 208.613L283.698 209.519ZM287.881 213.163C288.857 214.728 289.352 216.533 289.352 218.593L290.352 218.593C290.352 216.365 289.815 214.373 288.729 212.633L287.881 213.163ZM289.352 218.593C289.352 220.631 288.863 222.431 287.896 224.01L288.749 224.532C289.82 222.783 290.352 220.798 290.352 218.593L289.352 218.593ZM287.896 224.01C286.93 225.586 285.552 226.813 283.745 227.688L284.181 228.588C286.147 227.636 287.675 226.284 288.749 224.532L287.896 224.01ZM283.746 227.688C281.925 228.565 279.82 229.016 277.421 229.027L277.426 230.027C279.949 230.015 282.204 229.54 284.18 228.589L283.746 227.688ZM277.424 229.027L276.158 229.027L276.158 230.027L277.424 230.027L277.424 229.027ZM276.158 229.027C273.698 229.027 271.559 228.587 269.727 227.721L269.3 228.626C271.289 229.565 273.579 230.027 276.158 230.027L276.158 229.027ZM269.728 227.722C267.885 226.845 266.491 225.624 265.527 224.061L264.676 224.586C265.751 226.329 267.299 227.674 269.299 228.625L269.728 227.722ZM265.527 224.06C264.549 222.483 264.055 220.677 264.055 218.629L263.055 218.629C263.055 220.846 263.592 222.837 264.677 224.587L265.527 224.06ZM264.055 218.629C264.055 216.58 264.549 214.781 265.526 213.216L264.677 212.686C263.592 214.425 263.055 216.411 263.055 218.629L264.055 218.629ZM265.528 213.212C266.492 211.639 267.885 210.418 269.726 209.554L269.301 208.649C267.299 209.589 265.75 210.935 264.675 212.69L265.528 213.212ZM269.729 209.552C271.561 208.676 273.694 208.23 276.141 208.23L276.141 207.23C273.572 207.23 271.287 207.698 269.298 208.65L269.729 209.552ZM276.141 208.23L277.283 208.23L277.283 207.23L276.141 207.23L276.141 208.23ZM276.123 212.574C273.393 212.574 271.236 213.06 269.722 214.104L270.29 214.927C271.565 214.048 273.486 213.574 276.123 213.574L276.123 212.574ZM269.722 214.104C268.184 215.163 267.414 216.693 267.414 218.629L268.414 218.629C268.414 217.002 269.039 215.789 270.29 214.927L269.722 214.104ZM267.414 218.629C267.414 220.552 268.178 222.075 269.703 223.135L270.274 222.314C269.033 221.452 268.414 220.244 268.414 218.629L267.414 218.629ZM269.701 223.134C271.192 224.178 273.326 224.671 276.033 224.683L276.037 223.683C273.424 223.672 271.527 223.192 270.275 222.315L269.701 223.134ZM276.035 224.683L277.283 224.683L277.283 223.683L276.035 223.683L276.035 224.683ZM277.283 224.683C279.948 224.683 282.087 224.195 283.643 223.158L283.088 222.326C281.761 223.211 279.845 223.683 277.283 223.683L277.283 224.683ZM283.643 223.158C285.23 222.1 286.027 220.557 286.027 218.593L285.027 218.593C285.027 220.239 284.383 221.462 283.088 222.326L283.643 223.158ZM286.027 218.593C286.027 216.67 285.263 215.151 283.736 214.103L283.17 214.927C284.408 215.777 285.027 216.978 285.027 218.593L286.027 218.593ZM283.734 214.102C282.223 213.073 280.08 212.586 277.373 212.574L277.369 213.574C279.982 213.585 281.895 214.059 283.172 214.929L283.734 214.102ZM277.371 212.574L276.123 212.574L276.123 213.574L277.371 213.574L277.371 212.574ZM280.131 190.463L279.903 190.018L279.631 190.158L279.631 190.463L280.131 190.463ZM280.131 194.665L279.631 194.665L279.631 195.165L280.131 195.165L280.131 194.665ZM289.5 194.665L290 194.665L290 194.165L289.5 194.165L289.5 194.665ZM289.5 199.938L289.5 200.438L290 200.438L290 199.938L289.5 199.938ZM263.906 199.938L263.406 199.938L263.406 200.438L263.906 200.438L263.906 199.938ZM276.018 182.114L275.745 182.533L275.746 182.534L276.018 182.114ZM278.795 185.542L278.339 185.747L278.558 186.233L279.029 185.983L278.795 185.542ZM289.254 180.004L289.254 179.504L289.13 179.504L289.02 179.563L289.254 180.004ZM289.5 180.004L290 180.004L290 179.504L289.5 179.504L289.5 180.004ZM289.5 185.665L289.728 186.11L290 185.97L290 185.665L289.5 185.665ZM275.859 194.665L275.859 195.165L276.359 195.165L276.359 194.665L275.859 194.665ZM274.857 187.335L275.226 186.996L275.223 186.993L274.857 187.335ZM269.215 187.282L269.565 187.638L269.568 187.635L269.215 187.282ZM268.178 194.665L267.678 194.665L267.678 195.165L268.178 195.165L268.178 194.665ZM279.631 190.463L279.631 194.665L280.631 194.665L280.631 190.463L279.631 190.463ZM280.131 195.165L289.5 195.165L289.5 194.165L280.131 194.165L280.131 195.165ZM289 194.665L289 199.938L290 199.938L290 194.665L289 194.665ZM289.5 199.438L263.906 199.438L263.906 200.438L289.5 200.438L289.5 199.438ZM264.406 199.938L264.406 190.428L263.406 190.428L263.406 199.938L264.406 199.938ZM264.406 190.428C264.406 187.472 265.066 185.27 266.314 183.75L265.541 183.115C264.095 184.876 263.406 187.337 263.406 190.428L264.406 190.428ZM266.314 183.75C267.551 182.244 269.303 181.471 271.641 181.471L271.641 180.471C269.057 180.471 267 181.339 265.541 183.115L266.314 183.75ZM271.641 181.471C273.314 181.471 274.672 181.836 275.745 182.533L276.29 181.695C275.019 180.868 273.459 180.471 271.641 180.471L271.641 181.471ZM275.746 182.534C276.809 183.221 277.678 184.28 278.339 185.747L279.251 185.336C278.529 183.733 277.546 182.507 276.289 181.694L275.746 182.534ZM279.029 185.983L289.488 180.446L289.02 179.563L278.561 185.1L279.029 185.983ZM289.254 180.504L289.5 180.504L289.5 179.504L289.254 179.504L289.254 180.504ZM289 180.004L289 185.665L290 185.665L290 180.004L289 180.004ZM289.272 185.22L279.903 190.018L280.359 190.908L289.728 186.11L289.272 185.22ZM276.359 194.665L276.359 190.411L275.359 190.411L275.359 194.665L276.359 194.665ZM276.359 190.411C276.359 189.005 276.004 187.843 275.226 186.996L274.489 187.673C275.047 188.279 275.359 189.168 275.359 190.411L276.359 190.411ZM275.223 186.993C274.43 186.146 273.356 185.745 272.062 185.745L272.062 186.745C273.136 186.745 273.925 187.07 274.492 187.676L275.223 186.993ZM272.062 185.745C270.756 185.745 269.667 186.122 268.861 186.928L269.568 187.635C270.145 187.059 270.955 186.745 272.062 186.745L272.062 185.745ZM268.864 186.925C268.041 187.735 267.678 188.938 267.678 190.428L268.678 190.428C268.678 189.082 269.006 188.188 269.565 187.638L268.864 186.925ZM267.678 190.428L267.678 194.665L268.678 194.665L268.678 190.428L267.678 190.428ZM268.178 195.165L275.859 195.165L275.859 194.165L268.178 194.165L268.178 195.165ZM284.227 158.537L284.067 158.063L283.727 158.177L283.727 158.537L284.227 158.537ZM284.227 167.783L283.727 167.783L283.727 168.143L284.068 168.257L284.227 167.783ZM289.5 169.541L290 169.541L290 169.18L289.658 169.066L289.5 169.541ZM289.5 175.148L289.326 175.617L290 175.868L290 175.148L289.5 175.148ZM263.906 165.621L263.406 165.621L263.406 165.968L263.732 166.089L263.906 165.621ZM263.906 160.734L263.731 160.266L263.406 160.387L263.406 160.734L263.906 160.734ZM289.5 151.154L290 151.154L290 150.433L289.325 150.686L289.5 151.154ZM289.5 156.761L289.66 157.235L290 157.12L290 156.761L289.5 156.761ZM279.955 166.359L279.797 166.833L280.455 167.052L280.455 166.359L279.955 166.359ZM279.955 159.96L280.455 159.96L280.455 159.265L279.796 159.486L279.955 159.96ZM270.375 163.177L270.216 162.703L268.796 163.18L270.217 163.652L270.375 163.177ZM283.727 158.537L283.727 167.783L284.727 167.783L284.727 158.537L283.727 158.537ZM284.068 168.257L289.342 170.015L289.658 169.066L284.385 167.308L284.068 168.257ZM289 169.541L289 175.148L290 175.148L290 169.541L289 169.541ZM289.674 174.679L264.081 165.152L263.732 166.089L289.326 175.617L289.674 174.679ZM264.406 165.621L264.406 160.734L263.406 160.734L263.406 165.621L264.406 165.621ZM264.082 161.202L289.675 151.622L289.325 150.686L263.731 160.266L264.082 161.202ZM289 151.154L289 156.761L290 156.761L290 151.154L289 151.154ZM289.34 156.287L284.067 158.063L284.386 159.011L289.66 157.235L289.34 156.287ZM280.455 166.359L280.455 159.96L279.455 159.96L279.455 166.359L280.455 166.359ZM279.796 159.486L270.216 162.703L270.534 163.651L280.114 160.434L279.796 159.486ZM270.217 163.652L279.797 166.833L280.113 165.884L270.533 162.703L270.217 163.652ZM289.5 123.991L290 123.991L290 123.491L289.5 123.491L289.5 123.991ZM289.5 129.264L289.76 129.691L290 129.545L290 129.264L289.5 129.264ZM272.66 139.53L272.4 139.103L270.879 140.03L272.66 140.03L272.66 139.53ZM289.5 139.53L290 139.53L290 139.03L289.5 139.03L289.5 139.53ZM289.5 144.803L289.5 145.303L290 145.303L290 144.803L289.5 144.803ZM263.906 144.803L263.406 144.803L263.406 145.303L263.906 145.303L263.906 144.803ZM263.906 139.53L263.646 139.103L263.406 139.249L263.406 139.53L263.906 139.53ZM280.781 129.247L281.041 129.674L282.563 128.747L280.781 128.747L280.781 129.247ZM263.906 129.247L263.406 129.247L263.406 129.747L263.906 129.747L263.906 129.247ZM263.906 123.991L263.906 123.491L263.406 123.491L263.406 123.991L263.906 123.991ZM289 123.991L289 129.264L290 129.264L290 123.991L289 123.991ZM289.24 128.837L272.4 139.103L272.92 139.957L289.76 129.691L289.24 128.837ZM272.66 140.03L289.5 140.03L289.5 139.03L272.66 139.03L272.66 140.03ZM289 139.53L289 144.803L290 144.803L290 139.53L289 139.53ZM289.5 144.303L263.906 144.303L263.906 145.303L289.5 145.303L289.5 144.303ZM264.406 144.803L264.406 139.53L263.406 139.53L263.406 144.803L264.406 144.803ZM264.166 139.957L281.041 129.674L280.521 128.82L263.646 139.103L264.166 139.957ZM280.781 128.747L263.906 128.747L263.906 129.747L280.781 129.747L280.781 128.747ZM264.406 129.247L264.406 123.991L263.406 123.991L263.406 129.247L264.406 129.247ZM263.906 124.491L289.5 124.491L289.5 123.491L263.906 123.491L263.906 124.491ZM286.266 95.1752L286.586 94.7914L286.447 94.6752L286.266 94.6752L286.266 95.1752ZM288.92 99.2006L289.391 99.032L289.39 99.0292L288.92 99.2006ZM288.41 110.802L288.842 111.055L288.844 111.051L288.41 110.802ZM284.191 114.669L284.412 115.118L284.414 115.117L284.191 114.669ZM277.705 116.058L277.705 116.558L277.71 116.558L277.705 116.058ZM269.338 114.775L269.128 115.229L269.129 115.229L269.338 114.775ZM265.049 111.048L265.476 110.788L265.475 110.787L265.049 111.048ZM265.734 98.2162L266.115 98.5399L266.117 98.5384L265.734 98.2162ZM272.045 95.1752L272.545 95.1752L272.545 94.6148L271.988 94.6785L272.045 95.1752ZM272.045 100.308L272.124 100.802L272.545 100.734L272.545 100.308L272.045 100.308ZM268.828 101.872L269.209 102.197L269.211 102.194L268.828 101.872ZM275.842 110.697L275.84 111.197L275.842 111.197L275.842 110.697ZM284.35 100.449L284.703 100.095L284.557 99.9487L284.35 99.9487L284.35 100.449ZM279.937 100.449L279.937 99.9487L279.437 99.9487L279.437 100.449L279.937 100.449ZM279.937 105.247L279.937 105.747L280.437 105.747L280.437 105.247L279.937 105.247ZM276.053 105.247L275.553 105.247L275.553 105.747L276.053 105.747L276.053 105.247ZM276.053 95.1752L276.053 94.6752L275.553 94.6752L275.553 95.1752L276.053 95.1752ZM285.945 95.559C287 96.4395 287.84 97.7002 288.45 99.372L289.39 99.0292C288.734 97.2323 287.805 95.8094 286.586 94.7914L285.945 95.559ZM288.449 99.3692C289.048 101.042 289.352 102.906 289.352 104.966L290.352 104.966C290.352 102.808 290.034 100.828 289.391 99.0321L288.449 99.3692ZM289.352 104.966C289.352 107.107 288.888 108.964 287.976 110.553L288.844 111.051C289.854 109.289 290.352 107.255 290.352 104.966L289.352 104.966ZM287.978 110.55C287.058 112.124 285.728 113.348 283.969 114.222L284.414 115.117C286.335 114.163 287.817 112.808 288.842 111.054L287.978 110.55ZM283.971 114.22C282.211 115.084 280.126 115.535 277.7 115.558L277.71 116.558C280.253 116.534 282.492 116.06 284.412 115.118L283.971 114.22ZM277.705 115.558L275.965 115.558L275.965 116.558L277.705 116.558L277.705 115.558ZM275.965 115.558C273.465 115.558 271.33 115.139 269.547 114.32L269.129 115.229C271.072 116.121 273.355 116.558 275.965 116.558L275.965 115.558ZM269.548 114.321C267.754 113.492 266.404 112.313 265.476 110.788L264.622 111.308C265.662 113.018 267.172 114.324 269.128 115.229L269.548 114.321ZM265.475 110.787C264.534 109.248 264.055 107.436 264.055 105.335L263.055 105.335C263.055 107.594 263.572 109.591 264.622 111.309L265.475 110.787ZM264.055 105.335C264.055 102.377 264.762 100.133 266.115 98.5399L265.353 97.8926C263.8 99.7214 263.055 102.224 263.055 105.335L264.055 105.335ZM266.117 98.5384C267.457 96.9475 269.43 95.9776 272.102 95.672L271.988 94.6785C269.128 95.0057 266.895 96.0631 265.352 97.8941L266.117 98.5384ZM271.545 95.1752L271.545 100.308L272.545 100.308L272.545 95.1752L271.545 95.1752ZM271.966 99.8143C270.43 100.06 269.229 100.619 268.445 101.551L269.211 102.194C269.787 101.509 270.73 101.025 272.124 100.802L271.966 99.8143ZM268.448 101.548C267.668 102.462 267.309 103.693 267.309 105.177L268.309 105.177C268.309 103.849 268.629 102.876 269.209 102.197L268.448 101.548ZM267.309 105.177C267.309 107.116 268.049 108.643 269.545 109.683L270.116 108.862C268.916 108.028 268.309 106.824 268.309 105.177L267.309 105.177ZM269.545 109.683C271.013 110.705 273.135 111.185 275.84 111.197L275.844 110.197C273.228 110.185 271.343 109.716 270.116 108.862L269.545 109.683ZM275.842 111.197L277.477 111.197L277.477 110.197L275.842 110.197L275.842 111.197ZM277.477 111.197C280.21 111.197 282.363 110.68 283.857 109.569L283.26 108.766C282.012 109.694 280.11 110.197 277.477 110.197L277.477 111.197ZM283.857 109.569C285.375 108.44 286.115 106.784 286.115 104.685L285.115 104.685C285.115 106.523 284.484 107.856 283.26 108.766L283.857 109.569ZM286.115 104.685C286.115 102.655 285.686 101.078 284.703 100.095L283.996 100.802C284.7 101.507 285.115 102.754 285.115 104.685L286.115 104.685ZM284.35 99.9487L279.937 99.9487L279.937 100.949L284.35 100.949L284.35 99.9487ZM279.437 100.449L279.437 105.247L280.437 105.247L280.437 100.449L279.437 100.449ZM279.937 104.747L276.053 104.747L276.053 105.747L279.937 105.747L279.937 104.747ZM276.553 105.247L276.553 95.1752L275.553 95.1752L275.553 105.247L276.553 105.247ZM276.053 95.6752L286.266 95.6752L286.266 94.6752L276.053 94.6752L276.053 95.6752ZM278.408 71.5277L278.908 71.5277L278.908 71.0277L278.408 71.0277L278.408 71.5277ZM278.408 81.6527L277.908 81.6527L277.908 82.1527L278.408 82.1527L278.408 81.6527ZM285.264 81.6527L285.264 82.1527L285.764 82.1527L285.764 81.6527L285.264 81.6527ZM285.264 69.7699L285.264 69.2699L284.764 69.2699L284.764 69.7699L285.264 69.7699ZM289.5 69.7699L290 69.7699L290 69.2699L289.5 69.2699L289.5 69.7699ZM289.5 86.9262L289.5 87.4262L290 87.4262L290 86.9262L289.5 86.9262ZM263.906 86.9262L263.406 86.9262L263.406 87.4262L263.906 87.4262L263.906 86.9262ZM263.906 69.8051L263.906 69.3051L263.406 69.3051L263.406 69.8051L263.906 69.8051ZM268.178 69.8051L268.678 69.8051L268.678 69.3051L268.178 69.3051L268.178 69.8051ZM268.178 81.6527L267.678 81.6527L267.678 82.1527L268.178 82.1527L268.178 81.6527ZM274.277 81.6527L274.277 82.1527L274.777 82.1527L274.777 81.6527L274.277 81.6527ZM274.277 71.5277L274.277 71.0277L273.777 71.0277L273.777 71.5277L274.277 71.5277ZM277.908 71.5277L277.908 81.6527L278.908 81.6527L278.908 71.5277L277.908 71.5277ZM278.408 82.1527L285.264 82.1527L285.264 81.1527L278.408 81.1527L278.408 82.1527ZM285.764 81.6527L285.764 69.7699L284.764 69.7699L284.764 81.6527L285.764 81.6527ZM285.264 70.2699L289.5 70.2699L289.5 69.2699L285.264 69.2699L285.264 70.2699ZM289 69.7699L289 86.9262L290 86.9262L290 69.7699L289 69.7699ZM289.5 86.4262L263.906 86.4262L263.906 87.4262L289.5 87.4262L289.5 86.4262ZM264.406 86.9262L264.406 69.8051L263.406 69.8051L263.406 86.9262L264.406 86.9262ZM263.906 70.3051L268.178 70.3051L268.178 69.3051L263.906 69.3051L263.906 70.3051ZM267.678 69.8051L267.678 81.6527L268.678 81.6527L268.678 69.8051L267.678 69.8051ZM268.178 82.1527L274.277 82.1527L274.277 81.1527L268.178 81.1527L268.178 82.1527ZM274.777 81.6527L274.777 71.5277L273.777 71.5277L273.777 81.6527L274.777 81.6527ZM274.277 72.0277L278.408 72.0277L278.408 71.0277L274.277 71.0277L274.277 72.0277Z" fill="#D88100"/>
</g>
<path d="M43.6328 269.883C43.6328 267.878 42.9167 266.315 41.4844 265.195C40.0781 264.076 37.5911 262.917 34.0234 261.719C30.4557 260.521 27.5391 259.362 25.2734 258.242C17.9036 254.622 14.2188 249.648 14.2188 243.32C14.2188 240.169 15.1302 237.396 16.9531 235C18.8021 232.578 21.4062 230.703 24.7656 229.375C28.125 228.021 31.901 227.344 36.0938 227.344C40.1823 227.344 43.8411 228.073 47.0703 229.531C50.3255 230.99 52.8516 233.073 54.6484 235.781C56.4453 238.464 57.3438 241.536 57.3438 245H43.6719C43.6719 242.682 42.9557 240.885 41.5234 239.609C40.1172 238.333 38.2031 237.695 35.7812 237.695C33.3333 237.695 31.3932 238.242 29.9609 239.336C28.5547 240.404 27.8516 241.771 27.8516 243.438C27.8516 244.896 28.6328 246.224 30.1953 247.422C31.7578 248.594 34.5052 249.818 38.4375 251.094C42.3698 252.344 45.599 253.698 48.125 255.156C54.2708 258.698 57.3438 263.581 57.3438 269.805C57.3438 274.779 55.4688 278.685 51.7188 281.523C47.9688 284.362 42.8255 285.781 36.2891 285.781C31.6797 285.781 27.5 284.961 23.75 283.32C20.026 281.654 17.2135 279.388 15.3125 276.523C13.4375 273.633 12.5 270.312 12.5 266.562H26.25C26.25 269.609 27.0312 271.862 28.5938 273.32C30.1823 274.753 32.7474 275.469 36.2891 275.469C38.5547 275.469 40.3385 274.987 41.6406 274.023C42.9688 273.034 43.6328 271.654 43.6328 269.883ZM87.1934 285H81.9199V274.031H71.6367V285H66.3633V259.406H71.6367V269.777H81.9199V259.406H87.1934V285ZM101.384 285H96.1104V259.406H101.384V285ZM119.723 275.631H115.522V285H110.248V259.406H119.758C122.781 259.406 125.113 260.08 126.754 261.428C128.395 262.775 129.215 264.68 129.215 267.141C129.215 268.887 128.834 270.346 128.072 271.518C127.322 272.678 126.18 273.604 124.645 274.295L130.182 284.754V285H124.522L119.723 275.631ZM115.522 271.359H119.775C121.1 271.359 122.125 271.025 122.852 270.357C123.578 269.678 123.941 268.746 123.941 267.562C123.941 266.355 123.596 265.406 122.904 264.715C122.225 264.023 121.176 263.678 119.758 263.678H115.522V271.359ZM155.587 263.678H147.747V285H142.474V263.678H134.739V259.406H155.587V263.678Z" fill="black"/>
<path d="M115.26 28.0098C115.114 29.3574 114.63 30.3887 113.81 31.1035C112.996 31.8184 111.909 32.1758 110.549 32.1758C109.6 32.1758 108.759 31.9385 108.027 31.4639C107.3 30.9893 106.738 30.3184 106.339 29.4512C105.941 28.5781 105.739 27.582 105.733 26.4629V24.8018C105.733 23.665 105.932 22.6572 106.331 21.7783C106.729 20.8994 107.3 20.2227 108.044 19.748C108.794 19.2676 109.656 19.0273 110.628 19.0273C111.999 19.0273 113.081 19.3994 113.872 20.1436C114.668 20.8818 115.131 21.9043 115.26 23.2109H114.17C113.901 21.0371 112.72 19.9502 110.628 19.9502C109.468 19.9502 108.542 20.3838 107.851 21.251C107.165 22.1182 106.823 23.3164 106.823 24.8457V26.4102C106.823 27.8867 107.157 29.0645 107.825 29.9434C108.498 30.8223 109.407 31.2617 110.549 31.2617C111.68 31.2617 112.533 30.9922 113.107 30.4531C113.681 29.9082 114.036 29.0938 114.17 28.0098H115.26ZM120.958 31.0859H127.277V32H119.868V19.2031H120.958V31.0859ZM140.217 26.2959C140.217 27.4736 140.012 28.5078 139.602 29.3984C139.198 30.2891 138.618 30.9746 137.862 31.4551C137.106 31.9355 136.233 32.1758 135.243 32.1758C133.749 32.1758 132.541 31.6426 131.622 30.5762C130.702 29.5039 130.242 28.0596 130.242 26.2432V24.9248C130.242 23.7588 130.447 22.7275 130.857 21.8311C131.273 20.9287 131.859 20.2373 132.615 19.7568C133.371 19.2705 134.241 19.0273 135.225 19.0273C136.209 19.0273 137.077 19.2646 137.827 19.7393C138.582 20.2139 139.165 20.8848 139.576 21.752C139.986 22.6191 140.2 23.624 140.217 24.7666V26.2959ZM139.136 24.9072C139.136 23.3662 138.788 22.1592 138.09 21.2861C137.393 20.4131 136.438 19.9766 135.225 19.9766C134.036 19.9766 133.086 20.416 132.377 21.2949C131.674 22.168 131.323 23.3896 131.323 24.96V26.2959C131.323 27.8135 131.674 29.0176 132.377 29.9082C133.081 30.793 134.036 31.2354 135.243 31.2354C136.467 31.2354 137.422 30.7988 138.108 29.9258C138.793 29.0469 139.136 27.8252 139.136 26.2607V24.9072ZM153.359 20.126H148.974V32H147.893V20.126H143.516V19.2031H153.359V20.126ZM166.897 32H165.807V25.8652H158.495V32H157.414V19.2031H158.495V24.9512H165.807V19.2031H166.897V32ZM179.204 25.8652H173.219V31.0859H180.101V32H172.138V19.2031H180.057V20.126H173.219V24.9512H179.204V25.8652ZM191.608 28.8535C191.608 28.1445 191.359 27.585 190.861 27.1748C190.363 26.7588 189.452 26.3662 188.128 25.9971C186.803 25.6221 185.836 25.2148 185.227 24.7754C184.36 24.1543 183.926 23.3398 183.926 22.332C183.926 21.3535 184.328 20.5596 185.13 19.9502C185.939 19.335 186.97 19.0273 188.224 19.0273C189.074 19.0273 189.833 19.1914 190.501 19.5195C191.174 19.8477 191.696 20.3047 192.065 20.8906C192.434 21.4766 192.619 22.1299 192.619 22.8506H191.529C191.529 21.9775 191.23 21.2773 190.632 20.75C190.035 20.2168 189.232 19.9502 188.224 19.9502C187.246 19.9502 186.466 20.1699 185.886 20.6094C185.306 21.043 185.016 21.6113 185.016 22.3145C185.016 22.9648 185.277 23.4951 185.798 23.9053C186.32 24.3154 187.155 24.6787 188.303 24.9951C189.452 25.3057 190.322 25.6309 190.914 25.9707C191.505 26.3047 191.951 26.7061 192.25 27.1748C192.548 27.6436 192.698 28.1973 192.698 28.8359C192.698 29.8438 192.294 30.6523 191.485 31.2617C190.682 31.8711 189.622 32.1758 188.303 32.1758C187.401 32.1758 186.572 32.0146 185.816 31.6924C185.066 31.3701 184.495 30.9189 184.102 30.3389C183.715 29.7588 183.522 29.0938 183.522 28.3438H184.603C184.603 29.2461 184.94 29.958 185.614 30.4795C186.288 31.001 187.184 31.2617 188.303 31.2617C189.299 31.2617 190.099 31.042 190.703 30.6025C191.306 30.1631 191.608 29.5801 191.608 28.8535Z" fill="black"/>
<path fill-rule="evenodd" clip-rule="evenodd" d="M151.571 81.5799C152.206 81.0573 152.529 80.1437 152.07 79.2554C151.257 77.6823 148.946 78.1863 148.599 79.8525C148.589 79.911 148.586 79.9629 148.578 80.0187C148.525 80.6676 148.775 81.3086 149.46 81.7421C150.185 82.2022 151.004 82.0479 151.571 81.5799Z" fill="#EEA32D"/>
<path fill-rule="evenodd" clip-rule="evenodd" d="M149.422 96.6322C150.061 97.0358 150.946 96.912 151.56 96.456C151.887 96.2098 152.139 95.8721 152.234 95.4632C152.34 95.0152 152.282 94.5228 152.074 94.1166C151.525 93.0619 150.177 92.8843 149.278 93.5677C148.269 94.3372 148.361 95.9636 149.422 96.6322Z" fill="#EEA32D"/>
<path fill-rule="evenodd" clip-rule="evenodd" d="M152.078 108.961C151.263 107.403 148.946 107.9 148.599 109.557C148.588 109.611 148.586 109.666 148.577 109.721C148.511 110.54 149.004 111.242 149.712 111.594C150.239 111.854 151.116 111.738 151.642 111.352C151.733 111.287 151.814 111.212 151.88 111.127C152.341 110.557 152.412 109.6 152.078 108.961Z" fill="#EEA32D"/>
<path fill-rule="evenodd" clip-rule="evenodd" d="M153.638 111.759C152.457 113.449 149.477 113.01 149.242 110.863C149.081 109.397 150.427 108.073 151.95 108.249C153.647 108.444 154.611 110.369 153.638 111.759ZM151.413 93.747C153.11 93.9404 154.077 95.8681 153.103 97.2582C151.937 98.923 148.939 98.4628 148.706 96.3617C148.545 94.8956 149.891 93.5722 151.413 93.747ZM148.101 81.0016C147.94 79.5369 149.286 78.2122 150.808 78.3869C152.505 78.5817 153.47 80.508 152.497 81.8981C151.889 82.7652 150.914 83.2094 149.836 82.9253C148.907 82.6812 148.202 81.9234 148.101 81.0016ZM155.763 94.7408C155.689 90.1184 155.721 85.4973 155.671 80.8789C155.643 78.1268 155.361 75.304 154.405 72.7333C153.265 72.8774 152.159 73.1949 151.049 73.5897C150.994 73.6084 150.937 73.6271 150.883 73.6498C150.87 73.6524 150.86 73.6551 150.851 73.6604C150.777 73.6858 150.702 73.7138 150.63 73.7418C150.567 73.7191 150.507 73.6951 150.444 73.6751C150.366 73.6444 150.286 73.6164 150.209 73.5897C150.011 73.519 149.813 73.4497 149.614 73.3856C149.529 73.3589 149.445 73.3309 149.36 73.3056C148.164 73.3856 146.977 73.4497 145.808 73.5804C145.155 74.4769 144.857 75.8016 144.857 76.8528C144.857 78.8071 145.004 80.7655 145.076 82.7199C145.224 86.6499 145.367 90.5773 145.506 94.5074C145.753 101.655 146.3 108.839 146.254 115.999C149.314 116.911 152.514 117.297 155.754 117.305C155.827 116.706 155.89 116.109 155.933 115.506C156.098 113.215 155.909 110.957 155.878 108.665C155.812 104.024 155.839 99.382 155.763 94.7408Z" fill="#31B9D2"/>
<path fill-rule="evenodd" clip-rule="evenodd" d="M128.603 67.3106C128.365 67.1392 128.133 66.9563 127.899 66.7695C127.789 66.6767 127.676 66.584 127.567 66.4899C124.497 63.8439 122.186 59.849 122.754 56.019C122.674 56.077 122.594 56.1363 122.515 56.1981C122.512 56.1981 122.512 56.2007 122.512 56.2007C122.263 56.3939 122.019 56.5923 121.776 56.7946C119.283 58.897 117.307 61.4774 115.922 64.3463C115.764 64.6619 115.617 64.9814 115.482 65.306C115.361 65.5766 115.249 65.8497 115.143 66.1254C116.598 69.9553 119.056 73.5045 121.856 76.5989C124.288 79.2849 127.107 81.5831 129.94 83.8762C131.194 80.2987 132.99 76.9132 136.276 74.4513C137.58 73.4723 139.308 72.6259 141.143 72.1428C139.617 71.9096 138.163 71.67 136.667 71.1882C133.785 70.2594 131.004 69.0523 128.603 67.3106Z" fill="#31B9D2"/>
<path fill-rule="evenodd" clip-rule="evenodd" d="M170.704 65.3048C174.338 62.4529 176.584 58.5664 176.42 54.1976C176.375 54.1881 176.33 54.18 176.286 54.172C176.279 54.172 176.27 54.1693 176.264 54.1693C174.851 53.9295 173.434 53.7234 172.003 53.563C168.127 53.132 164.172 52.9245 160.276 52.7143C156.996 52.5379 153.714 52.4058 150.429 52.3048C147.144 52.4058 143.86 52.5379 140.58 52.7143C136.684 52.9245 132.729 53.132 128.853 53.563C127.422 53.7234 126.004 53.9295 124.592 54.1693C124.586 54.1693 124.577 54.172 124.57 54.172C124.526 54.18 124.481 54.1881 124.437 54.1976C124.272 58.5664 126.518 62.4529 130.153 65.3048C132.469 65.0596 134.787 64.8616 137.11 64.6959C139.353 64.5383 141.597 64.4103 143.845 64.3079C146.016 64.2109 148.219 64.157 150.429 64.1638C152.639 64.157 154.841 64.2109 157.011 64.3079C159.259 64.4103 161.509 64.5383 163.751 64.6959C166.073 64.8616 168.389 65.0637 170.704 65.3048Z" fill="#31B9D2"/>
<path fill-rule="evenodd" clip-rule="evenodd" d="M183.518 65.306C183.383 64.9814 183.236 64.6619 183.08 64.3463C181.693 61.4774 179.716 58.897 177.224 56.7946C176.982 56.5923 176.738 56.3939 176.488 56.2007C176.488 56.2007 176.488 56.1981 176.485 56.1981C176.406 56.1363 176.326 56.077 176.246 56.019C176.814 59.849 174.503 63.8439 171.432 66.4899C171.323 66.584 171.212 66.6767 171.099 66.7695C170.868 66.9563 170.634 67.1392 170.396 67.3106C167.997 69.0523 165.214 70.2594 162.331 71.1882C160.837 71.67 159.382 71.9096 157.857 72.1428C159.69 72.6259 161.419 73.4723 162.723 74.4513C166.01 76.9132 167.805 80.2987 169.059 83.8762C171.891 81.5831 174.712 79.2849 177.144 76.5989C179.944 73.5045 182.402 69.9553 183.857 66.1254C183.751 65.8497 183.639 65.5766 183.518 65.306Z" fill="#31B9D2"/>
<path fill-rule="evenodd" clip-rule="evenodd" d="M139.916 70.1603C140.915 70.4579 141.876 70.782 142.865 71.0435C143.225 71.1381 143.591 71.2257 143.961 71.298H143.964C146.38 70.8724 148.853 71.177 150.699 72.7334C151.625 71.9517 152.707 71.4858 153.86 71.2688C153.969 71.2507 154.077 71.234 154.184 71.2173C154.193 71.2173 154.2 71.2132 154.208 71.2132C154.362 71.1895 154.511 71.1728 154.668 71.1617C155.571 71.0797 156.505 71.1353 157.431 71.298H157.434C157.805 71.2257 158.17 71.1381 158.53 71.0435C159.519 70.782 160.482 70.4579 161.479 70.1603C162.456 69.8682 163.419 69.533 164.36 69.1505C164.797 68.7597 165.13 68.2938 165.25 67.6498C165.429 66.6595 164.92 65.7276 164.018 65.3994C162.892 65.3632 161.768 65.3312 160.641 65.3104H160.622C157.323 65.3563 154.017 65.3312 150.711 65.3048H150.684C147.378 65.3312 144.072 65.3563 140.773 65.3104H140.756C139.631 65.3312 138.507 65.3632 137.383 65.3994C136.613 65.5538 135.903 66.0058 135.657 66.7694C135.39 67.5928 135.783 68.3258 136.376 68.8724C137.527 69.3703 138.708 69.7987 139.916 70.1603Z" fill="#EEA32D"/>
<path fill-rule="evenodd" clip-rule="evenodd" d="M244.396 124.956C243.252 121.837 242.021 118.744 240.66 115.704C238.024 109.833 234.857 104.133 231.367 98.6744C228.027 93.4563 224.229 88.4128 219.368 84.3348C214.209 79.9989 207.816 77.1352 201.747 74.1194C195.997 71.2623 190.276 68.4225 184.709 65.3048C184.67 65.453 184.629 65.6051 184.589 65.7532C184.535 65.9424 184.476 66.1328 184.417 66.3233V66.3246C183.303 69.9581 181.351 73.3099 178.792 76.335C176.153 79.4579 173.083 82.3441 169.761 84.9036C169.66 84.9843 169.563 85.061 169.464 85.1351C169.341 84.8123 169.215 84.4909 169.083 84.1721C169.062 84.1258 169.045 84.0782 169.024 84.0306C168.084 81.7634 166.946 79.5651 165.396 77.6445C162.702 74.9646 159.065 73.1565 155.215 72.3959C155.215 72.3959 155.215 72.3959 155.211 72.3959C155.091 72.4012 154.967 72.4065 154.847 72.4158C155.752 73.5917 156.071 75.2305 156.218 76.8323C156.329 77.3746 156.421 77.9249 156.503 78.4778C157.213 83.3123 157.142 88.3241 157.266 93.1984C157.395 98.1652 157.671 103.131 157.742 108.098C157.777 110.525 157.565 112.978 157.359 115.398C157.34 115.634 157.319 115.871 157.298 116.108C157.293 116.284 157.286 116.464 157.281 116.64C157.277 116.757 157.272 116.872 157.266 116.989C157.245 116.994 157.222 116.997 157.201 117.002C156.94 117.06 156.679 117.109 156.418 117.15C156.142 117.197 155.868 117.236 155.593 117.272C152.32 117.674 149.009 117.2 145.946 116.08C145.807 116.034 145.672 115.981 145.537 115.928C145.523 115.751 145.505 115.577 145.49 115.4C145.485 115.342 145.481 115.283 145.476 115.224C144.724 106.666 144.724 98.0065 144.351 89.4392C144.252 87.0834 144.158 84.7277 144.061 82.3719C143.97 80.155 143.671 77.8402 143.879 75.6273C143.952 74.8601 144.141 74.0718 144.548 73.4237C142.758 73.6671 141.017 74.0956 139.359 74.9673C137.559 75.9077 135.978 77.1868 134.678 78.6841C133.515 80.3402 132.605 82.1629 131.833 84.0306C131.813 84.0782 131.795 84.1258 131.774 84.1721C131.643 84.4909 131.516 84.8123 131.393 85.1351C131.294 85.061 131.197 84.9843 131.097 84.9036C127.775 82.3441 124.705 79.4579 122.065 76.335C119.506 73.3099 117.555 69.9581 116.44 66.3246V66.3233C116.381 66.1328 116.322 65.9424 116.27 65.7532C116.228 65.6051 116.187 65.453 116.148 65.3048C110.58 68.4225 104.86 71.2623 99.1101 74.1194C93.0408 77.1352 86.6481 79.9989 81.4886 84.3348C76.6276 88.4128 72.8297 93.4563 69.49 98.6744C65.9997 104.133 62.8328 109.833 60.1975 115.704C58.8359 118.744 57.6053 121.837 56.4611 124.956C55.6389 127.192 54.7447 129.395 53.8571 131.604C57.7205 135.729 62.3864 139.242 67.3181 142.035C72.7512 145.107 78.7799 146.855 84.9841 147.639C87.3969 145.452 89.4248 142.804 91.1896 140.209C93.3052 137.099 95.1368 133.85 96.9474 130.59C96.7418 123.404 97.1464 116.21 98.5681 109.019C98.5734 108.985 98.6349 108.99 98.6297 109.027C97.9044 115.476 97.7865 121.975 98.1361 128.45V128.453C98.1675 129.02 98.2002 129.588 98.2382 130.154C98.2513 130.352 98.2618 130.552 98.2775 130.752C98.3011 131.053 98.3207 131.359 98.3443 131.664C98.3508 131.758 98.36 131.85 98.3652 131.942C99.3628 144.627 102.04 157.189 104.023 169.76C104.416 172.255 104.808 174.751 105.165 177.253C105.28 175.071 105.337 172.883 105.304 170.681C105.304 170.649 105.373 170.649 105.377 170.681C105.753 175.275 106.273 179.897 106.389 184.493C106.413 185.445 106.415 186.397 106.398 187.35C106.337 190.998 106.008 194.651 105.638 198.286C105.524 199.421 105.394 200.55 105.257 201.683C104.423 208.545 103.172 215.383 101.605 222.178C100.743 225.922 99.9113 229.824 101.96 233.469C103.874 236.874 108.273 238.327 112.99 239.075C123.795 240.793 135.018 241.363 146.036 241.659C147.501 241.696 148.965 241.723 150.43 241.733C151.895 241.723 153.356 241.696 154.821 241.659C165.839 241.363 177.062 240.793 187.867 239.075C192.584 238.327 196.983 236.874 198.897 233.469C200.946 229.824 200.116 225.922 199.252 222.178C197.685 215.383 196.434 208.545 195.6 201.683C195.463 200.55 195.333 199.421 195.219 198.286C194.849 194.651 194.52 190.998 194.459 187.35C194.442 186.397 194.444 185.445 194.468 184.493C194.586 179.897 195.104 175.275 195.481 170.681C195.484 170.649 195.555 170.649 195.555 170.681C195.522 172.883 195.577 175.071 195.692 177.253C196.049 174.751 196.441 172.255 196.834 169.76C198.817 157.189 201.494 144.627 202.493 131.942C202.515 131.615 202.543 131.285 202.565 130.958C202.572 130.888 202.574 130.819 202.58 130.752C202.595 130.552 202.607 130.352 202.619 130.154C202.659 129.545 202.695 128.937 202.728 128.331C203.068 121.895 202.95 115.436 202.227 109.027C202.222 108.99 202.284 108.985 202.29 109.019C203.716 116.24 204.118 123.464 203.907 130.682V130.686C205.349 133.406 206.989 136.032 208.688 138.527C210.529 141.229 212.633 143.787 214.923 146.164C215.383 146.643 215.853 147.116 216.334 147.578C222.378 146.767 228.242 145.031 233.539 142.035C238.471 139.242 243.137 135.729 247 131.604C246.114 129.395 245.218 127.192 244.396 124.956Z" fill="#EEA32D"/>
<path fill-rule="evenodd" clip-rule="evenodd" d="M153.236 110.907C153.153 110.977 153.052 111.039 152.939 111.092C152.284 111.41 151.191 111.506 150.534 111.292C149.652 111.002 149.037 110.423 149.12 109.748C149.13 109.702 149.133 109.656 149.147 109.612C149.579 108.246 152.467 107.836 153.483 109.121C153.899 109.648 153.81 110.437 153.236 110.907ZM151.731 108.032C149.962 107.888 148.399 108.966 148.587 110.161C148.86 111.91 152.32 112.268 153.692 110.891C154.821 109.759 153.703 108.191 151.731 108.032Z" fill="#0A0B09"/>
<path fill-rule="evenodd" clip-rule="evenodd" d="M151.824 95.3636C151.708 95.6957 151.398 95.9698 150.995 96.1697C150.239 96.54 149.15 96.6405 148.365 96.3128C147.059 95.77 146.946 94.4493 148.188 93.8245C149.293 93.2696 150.952 93.4138 151.628 94.2702C151.883 94.6001 151.955 94.9999 151.824 95.3636ZM149.872 93.1746C148.105 93.0315 146.542 94.1151 146.73 95.3155C147 97.0359 150.481 97.4128 151.834 96.0496C152.966 94.9114 151.843 93.333 149.872 93.1746Z" fill="#0A0B09"/>
<path fill-rule="evenodd" clip-rule="evenodd" d="M151.625 79.3883C152.198 80.1018 151.795 80.8355 151.002 81.2552C150.293 81.6311 149.27 81.755 148.364 81.3855C147.508 81.0373 147.196 80.5226 147.263 80.0014C147.272 79.9565 147.276 79.9149 147.288 79.8679C147.722 78.5297 150.61 78.1249 151.625 79.3883ZM146.73 80.4104C146.847 81.1484 147.665 81.755 148.744 81.9505C149.996 82.178 151.128 81.8223 151.835 81.1281C152.965 80.0153 151.844 78.4731 149.873 78.3171C148.105 78.1772 146.542 79.2378 146.73 80.4104Z" fill="#0A0B09"/>
<path fill-rule="evenodd" clip-rule="evenodd" d="M232.509 142.365C227.219 145.365 221.362 147.104 215.325 147.916C214.845 147.454 214.376 146.98 213.916 146.5C211.629 144.12 209.527 141.558 207.689 138.852C205.992 136.353 204.353 133.724 202.913 130.999V130.995C203.124 123.766 202.723 116.532 201.299 109.301C201.292 109.266 201.231 109.272 201.236 109.309C201.958 115.727 202.075 122.195 201.735 128.641C201.703 129.248 201.667 129.857 201.627 130.466C201.615 130.665 201.603 130.865 201.588 131.065C201.582 131.133 201.58 131.202 201.573 131.272C201.551 131.599 201.524 131.93 201.501 132.257C200.504 144.961 197.83 157.541 195.849 170.131C195.456 172.629 195.065 175.129 194.708 177.635C194.593 175.449 194.538 173.258 194.571 171.053C194.571 171.021 194.5 171.021 194.498 171.053C194.121 175.653 193.603 180.283 193.486 184.885C193.462 185.839 193.46 186.793 193.477 187.746C193.538 191.4 193.866 195.059 194.236 198.699C194.35 199.835 194.48 200.967 194.617 202.1C195.45 208.973 196.699 215.821 198.264 222.626C199.127 226.375 199.956 230.283 197.909 233.934C195.998 237.343 191.604 238.799 186.893 239.548C176.101 241.268 164.892 241.839 153.887 242.136C152.424 242.173 150.964 242.2 149.501 242.21C148.038 242.2 146.576 242.173 145.113 242.136C134.108 241.839 122.899 241.268 112.107 239.548C107.396 238.799 103.002 237.343 101.091 233.934C99.0443 230.283 99.8746 226.375 100.736 222.626C102.301 215.821 103.55 208.973 104.383 202.1C104.52 200.967 104.65 199.835 104.764 198.699C105.134 195.059 105.462 191.4 105.523 187.746C105.54 186.793 105.538 185.839 105.514 184.885C105.398 180.283 104.879 175.653 104.503 171.053C104.499 171.021 104.43 171.021 104.43 171.053C104.463 173.258 104.407 175.449 104.292 177.635C103.935 175.129 103.544 172.629 103.151 170.131C101.17 157.541 98.4964 144.961 97.5 132.257C97.4948 132.165 97.4856 132.073 97.4791 131.979C97.4555 131.673 97.4359 131.367 97.4124 131.065C97.3967 130.865 97.3862 130.665 97.3732 130.466C97.3352 129.899 97.3026 129.331 97.2712 128.763V128.76C96.922 122.276 97.0397 115.767 97.7641 109.309C97.7694 109.272 97.7079 109.266 97.7027 109.301C96.2826 116.502 95.8786 123.707 96.0839 130.904C94.2755 134.168 92.4462 137.422 90.3331 140.537C88.5705 143.136 86.5451 145.787 84.1352 147.977C77.9385 147.192 71.9171 145.442 66.4906 142.365C61.565 139.568 56.9047 136.05 53.0461 131.918C53.9326 129.706 54.8257 127.5 55.6469 125.26C56.7897 122.137 58.0188 119.04 59.3787 115.996C62.0109 110.116 65.1739 104.408 68.6599 98.9406C71.9956 93.7148 75.7889 88.6638 80.6439 84.5799C85.7971 80.2376 92.1821 77.3697 98.244 74.3495C103.987 71.4882 109.7 68.6441 115.261 65.5219C115.3 65.6702 115.341 65.8226 115.383 65.9709C115.435 66.1604 115.494 66.3511 115.553 66.5419V66.5432C116.667 70.1821 118.615 73.5388 121.171 76.5683C123.807 79.6958 126.874 82.5862 130.192 85.1495C130.292 85.2303 130.388 85.3071 130.488 85.3813C130.611 85.0581 130.737 84.7362 130.868 84.4169C130.889 84.3706 130.907 84.3229 130.927 84.2752C131.699 82.4048 132.607 80.5794 133.768 78.9209C135.067 77.4214 136.646 76.1404 138.444 75.1986C140.1 74.3256 141.839 73.8964 143.626 73.6527C143.22 74.3018 143.031 75.0913 142.958 75.8596C142.75 78.0758 143.05 80.3939 143.14 82.6141C143.237 84.9733 143.331 87.3325 143.43 89.6918C143.803 98.2716 143.803 106.944 144.553 115.515C144.559 115.573 144.563 115.633 144.568 115.691C144.582 115.869 144.6 116.042 144.615 116.22C144.75 116.273 144.884 116.326 145.023 116.372C148.083 117.494 151.389 117.968 154.658 117.565C154.933 117.53 155.206 117.49 155.482 117.444C155.742 117.403 156.004 117.353 156.264 117.295C156.285 117.29 156.309 117.287 156.33 117.282C156.335 117.165 156.34 117.05 156.344 116.932C156.349 116.756 156.356 116.576 156.361 116.4C156.382 116.163 156.403 115.925 156.422 115.688C156.628 113.266 156.839 110.808 156.804 108.378C156.734 103.403 156.458 98.4306 156.33 93.4565C156.205 88.5751 156.276 83.5559 155.567 78.7142C155.485 78.1605 155.393 77.6095 155.282 77.0664C155.136 75.4622 154.817 73.8209 153.913 72.6433C154.033 72.634 154.156 72.6287 154.277 72.6234C154.281 72.6234 154.281 72.6234 154.281 72.6234C158.126 73.3851 161.759 75.1959 164.45 77.8797C165.998 79.8031 167.134 82.0047 168.073 84.2752C168.094 84.3229 168.111 84.3706 168.132 84.4169C168.264 84.7362 168.389 85.0581 168.512 85.3813C168.612 85.3071 168.708 85.2303 168.809 85.1495C172.126 82.5862 175.193 79.6958 177.829 76.5683C180.385 73.5388 182.335 70.1821 183.447 66.5432V66.5419C183.506 66.3511 183.565 66.1604 183.619 65.9709C183.659 65.8226 183.7 65.6702 183.739 65.5219C189.299 68.6441 195.013 71.4882 200.756 74.3495C206.818 77.3697 213.203 80.2376 218.356 84.5799C223.211 88.6638 227.004 93.7148 230.34 98.9406C233.826 104.408 236.989 110.116 239.621 115.996C240.981 119.04 242.21 122.137 243.353 125.26C244.174 127.5 245.069 129.706 245.954 131.918C242.095 136.05 237.435 139.568 232.509 142.365ZM116.129 65.0317C116.264 64.6979 116.41 64.3694 116.567 64.0449C117.947 61.0948 119.915 58.4415 122.396 56.2797C122.638 56.0717 122.882 55.8677 123.13 55.669C123.13 55.669 123.13 55.6663 123.133 55.6663C123.211 55.6027 123.291 55.5418 123.371 55.4822C122.804 59.4204 125.106 63.5282 128.163 66.2491C128.271 66.3458 128.384 66.4412 128.494 66.5366C128.726 66.7286 128.958 66.9167 129.195 67.0929C131.585 68.8839 134.354 70.1251 137.224 71.0802C138.714 71.5756 140.161 71.822 141.681 72.0618C139.854 72.5585 138.133 73.4288 136.835 74.4356C133.563 76.967 131.774 80.4482 130.526 84.1268C127.705 81.7689 124.898 79.4057 122.476 76.6438C119.688 73.4619 117.241 69.8125 115.792 65.8742C115.898 65.5907 116.009 65.3099 116.129 65.0317ZM123.986 55.1709C124.03 55.1616 124.074 55.1537 124.117 55.1457C124.124 55.1457 124.133 55.1431 124.138 55.1431C125.524 54.9073 126.917 54.7046 128.321 54.547C132.126 54.1231 136.008 53.9191 139.833 53.7124C143.052 53.5389 146.277 53.4091 149.501 53.3097C152.726 53.4091 155.948 53.5389 159.167 53.7124C162.992 53.9191 166.874 54.1231 170.679 54.547C172.083 54.7046 173.475 54.9073 174.862 55.1431C174.867 55.1431 174.876 55.1457 174.883 55.1457C174.926 55.1537 174.97 55.1616 175.015 55.1709C175.176 59.4668 172.971 63.2885 169.404 66.0928C167.131 65.8557 164.858 65.657 162.578 65.494C160.378 65.3391 158.169 65.2132 155.962 65.1125C153.832 65.0172 151.671 64.9642 149.501 64.9708C147.332 64.9642 145.169 65.0172 143.038 65.1125C140.831 65.2132 138.629 65.3391 136.427 65.494C134.146 65.657 131.871 65.8517 129.597 66.0928C126.029 63.2885 123.824 59.4668 123.986 55.1709ZM152.934 71.7028C152.926 71.7028 152.919 71.7067 152.91 71.7067C152.806 71.7226 152.7 71.7385 152.594 71.7558C151.465 71.9624 150.407 72.4062 149.501 73.1506C147.696 71.6683 145.276 71.3782 142.914 71.7836H142.911C142.549 71.7147 142.191 71.6312 141.839 71.5412C140.871 71.2921 139.931 70.9835 138.954 70.7C137.772 70.3556 136.618 69.9476 135.492 69.4734C134.911 68.9528 134.527 68.2547 134.788 67.4705C135.029 66.7432 135.723 66.3127 136.476 66.1657C137.576 66.1312 138.676 66.1007 139.775 66.0809H139.792C143.02 66.1246 146.253 66.1007 149.487 66.0756H149.513C152.747 66.1007 155.98 66.1246 159.207 66.0809H159.226C160.328 66.1007 161.428 66.1312 162.529 66.1657C163.411 66.4783 163.91 67.3658 163.734 68.309C163.617 68.9223 163.291 69.3661 162.864 69.7383C161.943 70.1026 161.002 70.4218 160.046 70.7C159.07 70.9835 158.129 71.2921 157.161 71.5412C156.809 71.6312 156.452 71.7147 156.089 71.7836H156.086C155.18 71.6286 154.267 71.5756 153.384 71.6538C153.231 71.6644 153.084 71.6803 152.934 71.7028ZM149.501 73.699C149.575 73.6712 149.652 73.6434 149.728 73.6182C149.737 73.6129 149.747 73.6103 149.76 73.6076C149.815 73.5851 149.874 73.5666 149.93 73.548C151.064 73.1559 152.195 72.8407 153.36 72.6976C154.338 75.2502 154.626 78.0532 154.654 80.786C154.705 85.372 154.673 89.9607 154.749 94.5507C154.826 99.1592 154.798 103.769 154.866 108.378C154.898 110.653 155.091 112.895 154.923 115.17C154.878 115.769 154.814 116.361 154.739 116.956C151.427 116.948 148.156 116.565 145.028 115.659C145.075 108.55 144.515 101.416 144.263 94.3188C144.122 90.4164 143.975 86.5165 143.824 82.6141C143.751 80.6734 143.6 78.7288 143.6 76.7882C143.6 75.7443 143.905 74.4289 144.572 73.5388C145.767 73.4089 146.98 73.3454 148.203 73.2659C148.29 73.291 148.375 73.3189 148.463 73.3454C148.666 73.4089 148.868 73.4778 149.071 73.548C149.15 73.5745 149.232 73.6023 149.312 73.6328C149.376 73.6527 149.437 73.6765 149.501 73.699ZM175.629 55.4822C175.709 55.5418 175.789 55.6027 175.867 55.6663C175.871 55.6663 175.871 55.669 175.871 55.669C176.12 55.8677 176.363 56.0717 176.604 56.2797C179.085 58.4415 181.053 61.0948 182.434 64.0449C182.59 64.3694 182.736 64.6979 182.871 65.0317C182.991 65.3099 183.102 65.5907 183.208 65.8742C181.759 69.8125 179.312 73.4619 176.524 76.6438C174.102 79.4057 171.293 81.7689 168.474 84.1268C167.226 80.4482 165.438 76.967 162.165 74.4356C160.867 73.4288 159.146 72.5585 157.321 72.0618C158.839 71.822 160.288 71.5756 161.776 71.0802C164.646 70.1251 167.417 68.8839 169.805 67.0929C170.042 66.9167 170.275 66.7286 170.505 66.5366C170.617 66.4412 170.729 66.3458 170.837 66.2491C173.894 63.5282 176.196 59.4204 175.629 55.4822ZM246.745 131.051C246.145 128.301 245.379 125.633 244.359 122.926C243.086 119.555 241.639 116.245 240.108 112.97C237.343 107.054 234.107 101.341 230.399 95.9018C226.849 90.6919 222.828 85.7747 217.664 81.8842C212.221 77.7777 205.71 74.9985 199.557 71.9823C194.255 69.3793 188.973 66.8333 183.551 64.5178C182.394 61.4777 180.373 58.7276 177.82 56.5141L177.817 56.5115C177.591 56.3194 177.363 56.126 177.128 55.9419C176.908 55.7657 176.685 55.5922 176.457 55.4239C176.292 55.2994 176.125 55.1775 175.955 55.0623C175.814 54.9629 175.674 54.8676 175.534 54.7735C175.518 54.7629 175.504 54.7536 175.49 54.743L174.982 54.6583C174.944 54.649 174.906 54.6437 174.867 54.6357C174.678 54.5973 174.489 54.5589 174.3 54.5218C173.127 54.29 171.949 54.0807 170.776 53.8807C168.231 53.4422 165.715 53.0753 163.168 52.8196C162.951 52.7945 162.729 52.7759 162.509 52.7521C162.509 52.7521 162.509 52.7521 162.505 52.7521C161.582 52.6646 160.652 52.5931 159.717 52.5375C156.33 52.3348 152.947 52.2792 149.563 52.3149C149.522 52.3123 149.48 52.3123 149.437 52.3149C146.055 52.2792 142.672 52.3348 139.283 52.5375C138.348 52.5931 137.418 52.6646 136.495 52.7521H136.492C136.299 52.7613 136.105 52.7719 135.912 52.7812C135.876 52.7839 135.848 52.7998 135.832 52.8196C133.285 53.0753 130.769 53.4422 128.226 53.8807C127.051 54.0807 125.875 54.29 124.702 54.5218C124.511 54.5589 124.324 54.5973 124.133 54.6357C124.094 54.6437 124.056 54.649 124.018 54.6583L123.512 54.743C123.496 54.7536 123.482 54.7629 123.467 54.7735C123.326 54.8676 123.186 54.9629 123.045 55.0623C122.875 55.1775 122.708 55.2994 122.543 55.4239C122.315 55.5922 122.092 55.7657 121.872 55.9419C121.638 56.126 121.409 56.3194 121.183 56.5115L121.18 56.5141C118.627 58.7276 116.608 61.4777 115.449 64.5178C110.025 66.8333 104.747 69.3793 99.4431 71.9823C93.2896 74.9985 86.7791 77.7777 81.3356 81.8842C76.1733 85.7747 72.1512 90.6919 68.6011 95.9018C64.8928 101.341 61.6565 107.054 58.8923 112.97C57.3624 116.245 55.9136 119.555 54.6413 122.926C53.6214 125.633 52.8565 128.301 52.255 131.051C52.1674 131.455 52.0824 131.86 52 132.272C52.1961 132.533 52.3962 132.795 52.595 133.052C54.7904 135.858 57.3441 138.401 60.3084 140.539C66.6515 145.115 74.6421 148.27 82.5844 149.27C82.6458 149.281 82.7047 149.286 82.7661 149.295C83.2813 149.359 83.8004 149.41 84.3196 149.454C84.3902 149.463 84.4568 149.469 84.5275 149.474C84.7589 149.494 84.9903 149.51 85.2231 149.527H85.2257C85.8625 149.176 86.4509 148.752 87.0027 148.273C87.6526 147.707 88.2423 147.066 88.7575 146.396C91.4838 142.849 93.589 138.784 95.876 134.978C95.9937 134.78 96.1127 134.583 96.2303 134.385C97.1796 151.787 101.34 169.163 103.111 186.44C103.215 187.458 103.316 188.476 103.413 189.499C103.266 191.878 103.132 194.262 102.915 196.639C102.134 205.223 100.777 213.763 98.7801 222.238C97.9341 225.85 97.0188 229.638 98.499 233.245C99.804 236.425 102.984 238.765 107.221 240.014C111.958 241.41 117.349 241.788 122.377 242.271C128.134 242.825 133.912 243.226 139.71 243.441C142.937 243.56 146.183 243.602 149.425 243.588H149.575C152.817 243.602 156.061 243.56 159.29 243.441C165.088 243.226 170.866 242.825 176.625 242.271C181.651 241.788 187.042 241.41 191.779 240.014C196.016 238.765 199.196 236.425 200.501 233.245C201.981 229.638 201.067 225.85 200.22 222.238C198.223 213.763 196.866 205.223 196.085 196.639C195.87 194.262 195.734 191.878 195.588 189.499C195.684 188.476 195.783 187.458 195.89 186.44C197.661 169.163 201.82 151.787 202.77 134.385C202.864 134.545 202.961 134.705 203.057 134.866C203.848 136.568 204.766 138.238 205.833 139.873C206.223 140.473 206.624 141.065 207.038 141.651C208.035 143.284 209.081 144.885 210.243 146.396C210.759 147.066 211.347 147.707 211.999 148.273C212.52 148.727 213.077 149.132 213.675 149.469C213.708 149.491 213.743 149.507 213.774 149.527H213.778C214.008 149.51 214.241 149.494 214.473 149.474C215.062 149.425 215.651 149.367 216.234 149.295C216.399 149.277 216.559 149.254 216.724 149.228C224.563 148.186 232.427 145.056 238.692 140.539C241.656 138.401 244.21 135.858 246.405 133.052C246.605 132.795 246.804 132.533 247 132.272C246.918 131.86 246.834 131.455 246.745 131.051Z" fill="#0A0B09"/>
</g>
<defs>
<filter id="filter0_d" x="262.055" y="68.2699" width="31.2969" height="164.757" filterUnits="userSpaceOnUse" color-interpolation-filters="sRGB">
<feFlood flood-opacity="0" result="BackgroundImageFix"/>
<feColorMatrix in="SourceAlpha" type="matrix" values="0 0 0 0 0 0 0 0 0 0 0 0 0 0 0 0 0 0 127 0"/>
<feOffset dx="1" dy="1"/>
<feGaussianBlur stdDeviation="1"/>
<feColorMatrix type="matrix" values="0 0 0 0 0 0 0 0 0 0 0 0 0 0 0 0 0 0 0.15 0"/>
<feBlend mode="normal" in2="BackgroundImageFix" result="effect1_dropShadow"/>
<feBlend mode="normal" in="SourceGraphic" in2="effect1_dropShadow" result="shape"/>
</filter>
<radialGradient id="paint0_radial" cx="0" cy="0" r="1" gradientUnits="userSpaceOnUse" gradientTransform="translate(150 150) rotate(90) scale(150)">
<stop offset="0.369792" stop-color="white" stop-opacity="0"/>
<stop offset="1" stop-color="#FFB800"/>
</radialGradient>
<clipPath id="clip0">
<rect width="300" height="300" fill="white"/>
</clipPath>
</defs>
</svg>
