<svg width="300" height="300" viewBox="0 0 300 300" fill="none" xmlns="http://www.w3.org/2000/svg">
<rect width="300" height="300" fill="white"/>
<rect width="300" height="300" fill="white"/>
<rect width="300" height="300" fill="white"/>
<rect width="300" height="300" fill="url(#paint0_radial)" fill-opacity="0.2"/>
<g filter="url(#filter0_d)">
<path d="M275.437 217.17L263.906 211.843L263.906 206.078L280.219 214.48L289.5 214.48L289.5 219.841L280.219 219.841L263.906 228.244L263.906 222.461L275.437 217.17ZM278.408 184.381L278.408 194.506L285.264 194.506L285.264 182.624L289.5 182.624L289.5 199.78L263.906 199.78L263.906 182.659L268.178 182.659L268.178 194.506L274.277 194.506L274.277 184.381L278.408 184.381ZM285.264 170.296L285.264 159.099L289.5 159.099L289.5 175.57L263.906 175.57L263.906 170.296L285.264 170.296ZM285.264 146.825L285.264 135.627L289.5 135.627L289.5 152.098L263.906 152.098L263.906 146.825L285.264 146.825ZM277.283 108.728C279.803 108.728 282.012 109.173 283.91 110.064C285.809 110.955 287.273 112.232 288.305 113.896C289.336 115.548 289.852 117.447 289.852 119.591C289.852 121.712 289.342 123.605 288.322 125.269C287.303 126.933 285.85 128.222 283.963 129.136C282.064 130.05 279.885 130.513 277.424 130.525L276.158 130.525C273.639 130.525 271.424 130.074 269.514 129.171C267.592 128.257 266.121 126.974 265.102 125.322C264.07 123.658 263.555 121.759 263.555 119.626C263.555 117.494 264.07 115.601 265.102 113.949C266.121 112.285 267.592 111.001 269.514 110.099C271.424 109.185 273.633 108.728 276.141 108.728L277.283 108.728ZM276.123 114.072C273.439 114.072 271.4 114.552 270.006 115.513C268.611 116.474 267.914 117.845 267.914 119.626C267.914 121.396 268.605 122.761 269.988 123.722C271.359 124.683 273.375 125.169 276.035 125.181L277.283 125.181C279.896 125.181 281.924 124.701 283.365 123.74C284.807 122.779 285.527 121.396 285.527 119.591C285.527 117.822 284.836 116.462 283.453 115.513C282.059 114.564 280.031 114.083 277.371 114.072L276.123 114.072ZM282.117 81.0023L263.906 77.557L263.906 72.3012L289.5 77.9789L289.5 83.2875L272.379 87.4535L289.5 91.6195L289.5 96.9281L263.906 102.606L263.906 97.35L282.082 93.8871L263.906 89.6684L263.906 85.2035L282.117 81.0023Z" fill="white"/>
<path d="M275.437 217.17L275.646 217.624L276.633 217.171L275.647 216.716L275.437 217.17ZM263.906 211.843L263.406 211.843L263.406 212.163L263.697 212.297L263.906 211.843ZM263.906 206.078L264.135 205.633L263.406 205.258L263.406 206.078L263.906 206.078ZM280.219 214.48L279.99 214.925L280.098 214.98L280.219 214.98L280.219 214.48ZM289.5 214.48L290 214.48L290 213.98L289.5 213.98L289.5 214.48ZM289.5 219.841L289.5 220.341L290 220.341L290 219.841L289.5 219.841ZM280.219 219.841L280.219 219.341L280.098 219.341L279.99 219.397L280.219 219.841ZM263.906 228.244L263.406 228.244L263.406 229.064L264.135 228.688L263.906 228.244ZM263.906 222.461L263.698 222.006L263.406 222.14L263.406 222.461L263.906 222.461ZM275.647 216.716L264.116 211.389L263.697 212.297L275.228 217.623L275.647 216.716ZM264.406 211.843L264.406 206.078L263.406 206.078L263.406 211.843L264.406 211.843ZM263.677 206.522L279.99 214.925L280.448 214.036L264.135 205.633L263.677 206.522ZM280.219 214.98L289.5 214.98L289.5 213.98L280.219 213.98L280.219 214.98ZM289 214.48L289 219.841L290 219.841L290 214.48L289 214.48ZM289.5 219.341L280.219 219.341L280.219 220.341L289.5 220.341L289.5 219.341ZM279.99 219.397L263.677 227.799L264.135 228.688L280.448 220.286L279.99 219.397ZM264.406 228.244L264.406 222.461L263.406 222.461L263.406 228.244L264.406 228.244ZM264.115 222.915L275.646 217.624L275.229 216.715L263.698 222.006L264.115 222.915ZM278.408 184.381L278.908 184.381L278.908 183.881L278.408 183.881L278.408 184.381ZM278.408 194.506L277.908 194.506L277.908 195.006L278.408 195.006L278.408 194.506ZM285.264 194.506L285.264 195.006L285.764 195.006L285.764 194.506L285.264 194.506ZM285.264 182.624L285.264 182.124L284.764 182.124L284.764 182.624L285.264 182.624ZM289.5 182.624L290 182.624L290 182.124L289.5 182.124L289.5 182.624ZM289.5 199.78L289.5 200.28L290 200.28L290 199.78L289.5 199.78ZM263.906 199.78L263.406 199.78L263.406 200.28L263.906 200.28L263.906 199.78ZM263.906 182.659L263.906 182.159L263.406 182.159L263.406 182.659L263.906 182.659ZM268.178 182.659L268.678 182.659L268.678 182.159L268.178 182.159L268.178 182.659ZM268.178 194.506L267.678 194.506L267.678 195.006L268.178 195.006L268.178 194.506ZM274.277 194.506L274.277 195.006L274.777 195.006L274.777 194.506L274.277 194.506ZM274.277 184.381L274.277 183.881L273.777 183.881L273.777 184.381L274.277 184.381ZM277.908 184.381L277.908 194.506L278.908 194.506L278.908 184.381L277.908 184.381ZM278.408 195.006L285.264 195.006L285.264 194.006L278.408 194.006L278.408 195.006ZM285.764 194.506L285.764 182.624L284.764 182.624L284.764 194.506L285.764 194.506ZM285.264 183.124L289.5 183.124L289.5 182.124L285.264 182.124L285.264 183.124ZM289 182.624L289 199.78L290 199.78L290 182.624L289 182.624ZM289.5 199.28L263.906 199.28L263.906 200.28L289.5 200.28L289.5 199.28ZM264.406 199.78L264.406 182.659L263.406 182.659L263.406 199.78L264.406 199.78ZM263.906 183.159L268.178 183.159L268.178 182.159L263.906 182.159L263.906 183.159ZM267.678 182.659L267.678 194.506L268.678 194.506L268.678 182.659L267.678 182.659ZM268.178 195.006L274.277 195.006L274.277 194.006L268.178 194.006L268.178 195.006ZM274.777 194.506L274.777 184.381L273.777 184.381L273.777 194.506L274.777 194.506ZM274.277 184.881L278.408 184.881L278.408 183.881L274.277 183.881L274.277 184.881ZM285.264 170.296L285.264 170.796L285.764 170.796L285.764 170.296L285.264 170.296ZM285.264 159.099L285.264 158.599L284.764 158.599L284.764 159.099L285.264 159.099ZM289.5 159.099L290 159.099L290 158.599L289.5 158.599L289.5 159.099ZM289.5 175.57L289.5 176.07L290 176.07L290 175.57L289.5 175.57ZM263.906 175.57L263.406 175.57L263.406 176.07L263.906 176.07L263.906 175.57ZM263.906 170.296L263.906 169.796L263.406 169.796L263.406 170.296L263.906 170.296ZM285.764 170.296L285.764 159.099L284.764 159.099L284.764 170.296L285.764 170.296ZM285.264 159.599L289.5 159.599L289.5 158.599L285.264 158.599L285.264 159.599ZM289 159.099L289 175.57L290 175.57L290 159.099L289 159.099ZM289.5 175.07L263.906 175.07L263.906 176.07L289.5 176.07L289.5 175.07ZM264.406 175.57L264.406 170.296L263.406 170.296L263.406 175.57L264.406 175.57ZM263.906 170.796L285.264 170.796L285.264 169.796L263.906 169.796L263.906 170.796ZM285.264 146.825L285.264 147.325L285.764 147.325L285.764 146.825L285.264 146.825ZM285.264 135.627L285.264 135.127L284.764 135.127L284.764 135.627L285.264 135.627ZM289.5 135.627L290 135.627L290 135.127L289.5 135.127L289.5 135.627ZM289.5 152.098L289.5 152.598L290 152.598L290 152.098L289.5 152.098ZM263.906 152.098L263.406 152.098L263.406 152.598L263.906 152.598L263.906 152.098ZM263.906 146.825L263.906 146.325L263.406 146.325L263.406 146.825L263.906 146.825ZM285.764 146.825L285.764 135.627L284.764 135.627L284.764 146.825L285.764 146.825ZM285.264 136.127L289.5 136.127L289.5 135.127L285.264 135.127L285.264 136.127ZM289 135.627L289 152.098L290 152.098L290 135.627L289 135.627ZM289.5 151.598L263.906 151.598L263.906 152.598L289.5 152.598L289.5 151.598ZM264.406 152.098L264.406 146.825L263.406 146.825L263.406 152.098L264.406 152.098ZM263.906 147.325L285.264 147.325L285.264 146.325L263.906 146.325L263.906 147.325ZM288.305 113.896L287.88 114.159L287.881 114.161L288.305 113.896ZM283.963 129.136L284.18 129.587L284.181 129.586L283.963 129.136ZM277.424 130.525L277.424 131.025L277.426 131.025L277.424 130.525ZM269.514 129.171L269.299 129.623L269.3 129.623L269.514 129.171ZM265.102 125.322L265.527 125.059L265.527 125.058L265.102 125.322ZM265.102 113.949L265.526 114.213L265.528 114.21L265.102 113.949ZM269.514 110.099L269.726 110.552L269.729 110.55L269.514 110.099ZM269.988 123.722L270.275 123.313L270.274 123.312L269.988 123.722ZM276.035 125.181L276.033 125.681L276.035 125.681L276.035 125.181ZM283.453 115.513L283.736 115.101L283.734 115.1L283.453 115.513ZM277.371 114.072L277.373 113.572L277.371 113.572L277.371 114.072ZM277.283 109.228C279.744 109.228 281.878 109.663 283.698 110.517L284.123 109.611C282.146 108.684 279.862 108.228 277.283 108.228L277.283 109.228ZM283.698 110.517C285.515 111.369 286.903 112.584 287.88 114.159L288.73 113.633C287.644 111.88 286.102 110.54 284.123 109.611L283.698 110.517ZM287.881 114.161C288.857 115.726 289.352 117.531 289.352 119.591L290.352 119.591C290.352 117.363 289.815 115.371 288.729 113.631L287.881 114.161ZM289.352 119.591C289.352 121.628 288.863 123.429 287.896 125.008L288.749 125.53C289.82 123.781 290.352 121.796 290.352 119.591L289.352 119.591ZM287.896 125.008C286.93 126.584 285.552 127.811 283.745 128.686L284.181 129.586C286.147 128.634 287.675 127.282 288.749 125.53L287.896 125.008ZM283.746 128.686C281.925 129.563 279.82 130.013 277.421 130.025L277.426 131.025C279.949 131.013 282.204 130.538 284.18 129.587L283.746 128.686ZM277.424 130.025L276.158 130.025L276.158 131.025L277.424 131.025L277.424 130.025ZM276.158 130.025C273.698 130.025 271.559 129.585 269.727 128.719L269.3 129.623C271.289 130.563 273.579 131.025 276.158 131.025L276.158 130.025ZM269.728 128.72C267.885 127.843 266.491 126.622 265.527 125.059L264.676 125.584C265.751 127.326 267.299 128.672 269.299 129.623L269.728 128.72ZM265.527 125.058C264.549 123.48 264.055 121.675 264.055 119.626L263.055 119.626C263.055 121.844 263.592 123.835 264.677 125.585L265.527 125.058ZM264.055 119.626C264.055 117.578 264.549 115.779 265.526 114.213L264.677 113.684C263.592 115.423 263.055 117.409 263.055 119.626L264.055 119.626ZM265.528 114.21C266.492 112.636 267.885 111.416 269.726 110.552L269.301 109.646C267.299 110.587 265.75 111.933 264.675 113.687L265.528 114.21ZM269.729 110.55C271.561 109.674 273.694 109.228 276.141 109.228L276.141 108.228C273.572 108.228 271.287 108.696 269.298 109.648L269.729 110.55ZM276.141 109.228L277.283 109.228L277.283 108.228L276.141 108.228L276.141 109.228ZM276.123 113.572C273.393 113.572 271.236 114.058 269.722 115.101L270.29 115.925C271.565 115.046 273.486 114.572 276.123 114.572L276.123 113.572ZM269.722 115.101C268.184 116.161 267.414 117.691 267.414 119.626L268.414 119.626C268.414 118 269.039 116.787 270.29 115.925L269.722 115.101ZM267.414 119.626C267.414 121.55 268.178 123.073 269.703 124.133L270.274 123.312C269.033 122.45 268.414 121.242 268.414 119.626L267.414 119.626ZM269.701 124.132C271.192 125.176 273.326 125.669 276.033 125.681L276.037 124.681C273.424 124.67 271.527 124.19 270.275 123.313L269.701 124.132ZM276.035 125.681L277.283 125.681L277.283 124.681L276.035 124.681L276.035 125.681ZM277.283 125.681C279.948 125.681 282.087 125.193 283.643 124.156L283.088 123.324C281.761 124.209 279.845 124.681 277.283 124.681L277.283 125.681ZM283.643 124.156C285.23 123.097 286.027 121.555 286.027 119.591L285.027 119.591C285.027 121.237 284.383 122.46 283.088 123.324L283.643 124.156ZM286.027 119.591C286.027 117.668 285.263 116.149 283.736 115.101L283.17 115.925C284.408 116.775 285.027 117.976 285.027 119.591L286.027 119.591ZM283.734 115.1C282.223 114.071 280.08 113.584 277.373 113.572L277.369 114.572C279.982 114.583 281.895 115.057 283.172 115.926L283.734 115.1ZM277.371 113.572L276.123 113.572L276.123 114.572L277.371 114.572L277.371 113.572ZM282.117 81.0023L282.23 81.4896L282.21 80.5111L282.117 81.0023ZM263.906 77.557L263.406 77.557L263.406 77.9713L263.813 78.0483L263.906 77.557ZM263.906 72.3012L264.015 71.813L263.406 71.6781L263.406 72.3012L263.906 72.3012ZM289.5 77.9789L290 77.9789L290 77.5777L289.608 77.4908L289.5 77.9789ZM289.5 83.2875L289.618 83.7733L290 83.6804L290 83.2875L289.5 83.2875ZM272.379 87.4535L272.261 86.9677L272.261 87.9393L272.379 87.4535ZM289.5 91.6195L290 91.6195L290 91.2266L289.618 91.1337L289.5 91.6195ZM289.5 96.9281L289.608 97.4163L290 97.3294L290 96.9281L289.5 96.9281ZM263.906 102.606L263.406 102.606L263.406 103.229L264.015 103.094L263.906 102.606ZM263.906 97.35L263.813 96.8588L263.406 96.9363L263.406 97.35L263.906 97.35ZM282.082 93.8871L282.176 94.3783L282.195 93.4001L282.082 93.8871ZM263.906 89.6684L263.406 89.6684L263.406 90.0656L263.793 90.1554L263.906 89.6684ZM263.906 85.2035L263.794 84.7163L263.406 84.8057L263.406 85.2035L263.906 85.2035ZM282.21 80.5111L263.999 77.0658L263.813 78.0483L282.024 81.4936L282.21 80.5111ZM264.406 77.557L264.406 72.3012L263.406 72.3012L263.406 77.557L264.406 77.557ZM263.798 72.7893L289.392 78.467L289.608 77.4908L264.015 71.813L263.798 72.7893ZM289 77.9789L289 83.2875L290 83.2875L290 77.9789L289 77.9789ZM289.382 82.8017L272.261 86.9677L272.497 87.9393L289.618 83.7733L289.382 82.8017ZM272.261 87.9393L289.382 92.1054L289.618 91.1337L272.497 86.9677L272.261 87.9393ZM289 91.6195L289 96.9281L290 96.9281L290 91.6195L289 91.6195ZM289.392 96.44L263.798 102.118L264.015 103.094L289.608 97.4163L289.392 96.44ZM264.406 102.606L264.406 97.35L263.406 97.35L263.406 102.606L264.406 102.606ZM264 97.8412L282.176 94.3783L281.988 93.3959L263.813 96.8588L264 97.8412ZM282.195 93.4001L264.019 89.1813L263.793 90.1554L281.969 94.3742L282.195 93.4001ZM264.406 89.6684L264.406 85.2035L263.406 85.2035L263.406 89.6684L264.406 89.6684ZM264.019 85.6907L282.23 81.4896L282.005 80.5151L263.794 84.7163L264.019 85.6907Z" fill="#DCCE00"/>
</g>
<path d="M43.6328 269.883C43.6328 267.878 42.9167 266.315 41.4844 265.195C40.0781 264.076 37.5911 262.917 34.0234 261.719C30.4557 260.521 27.5391 259.362 25.2734 258.242C17.9036 254.622 14.2188 249.648 14.2188 243.32C14.2188 240.169 15.1302 237.396 16.9531 235C18.8021 232.578 21.4062 230.703 24.7656 229.375C28.125 228.021 31.901 227.344 36.0938 227.344C40.1823 227.344 43.8411 228.073 47.0703 229.531C50.3255 230.99 52.8516 233.073 54.6484 235.781C56.4453 238.464 57.3438 241.536 57.3438 245H43.6719C43.6719 242.682 42.9557 240.885 41.5234 239.609C40.1172 238.333 38.2031 237.695 35.7812 237.695C33.3333 237.695 31.3932 238.242 29.9609 239.336C28.5547 240.404 27.8516 241.771 27.8516 243.438C27.8516 244.896 28.6328 246.224 30.1953 247.422C31.7578 248.594 34.5052 249.818 38.4375 251.094C42.3698 252.344 45.599 253.698 48.125 255.156C54.2708 258.698 57.3438 263.581 57.3438 269.805C57.3438 274.779 55.4688 278.685 51.7188 281.523C47.9688 284.362 42.8255 285.781 36.2891 285.781C31.6797 285.781 27.5 284.961 23.75 283.32C20.026 281.654 17.2135 279.388 15.3125 276.523C13.4375 273.633 12.5 270.312 12.5 266.562H26.25C26.25 269.609 27.0312 271.862 28.5938 273.32C30.1823 274.753 32.7474 275.469 36.2891 275.469C38.5547 275.469 40.3385 274.987 41.6406 274.023C42.9688 273.034 43.6328 271.654 43.6328 269.883ZM87.1934 285H81.9199V274.031H71.6367V285H66.3633V259.406H71.6367V269.777H81.9199V259.406H87.1934V285ZM116.8 272.783C116.8 275.303 116.355 277.512 115.464 279.41C114.573 281.309 113.296 282.773 111.632 283.805C109.98 284.836 108.081 285.352 105.937 285.352C103.815 285.352 101.923 284.842 100.259 283.822C98.5948 282.803 97.3057 281.35 96.3916 279.463C95.4776 277.564 95.0147 275.385 95.003 272.924V271.658C95.003 269.139 95.4541 266.924 96.3565 265.014C97.2705 263.092 98.5537 261.621 100.206 260.602C101.87 259.57 103.769 259.055 105.901 259.055C108.034 259.055 109.927 259.57 111.579 260.602C113.243 261.621 114.526 263.092 115.429 265.014C116.343 266.924 116.8 269.133 116.8 271.641V272.783ZM111.456 271.623C111.456 268.939 110.976 266.9 110.015 265.506C109.054 264.111 107.683 263.414 105.901 263.414C104.132 263.414 102.767 264.105 101.806 265.488C100.845 266.859 100.358 268.875 100.347 271.535V272.783C100.347 275.396 100.827 277.424 101.788 278.865C102.749 280.307 104.132 281.027 105.937 281.027C107.706 281.027 109.065 280.336 110.015 278.953C110.964 277.559 111.444 275.531 111.456 272.871V271.623ZM139.99 273.908H129.865V280.764H141.748V285H124.592V259.406H141.713V263.678H129.865V269.777H139.99V273.908Z" fill="black"/>
<path d="M116.26 28.0098C116.114 29.3574 115.63 30.3887 114.81 31.1035C113.996 31.8184 112.909 32.1758 111.549 32.1758C110.6 32.1758 109.759 31.9385 109.027 31.4639C108.3 30.9893 107.738 30.3184 107.339 29.4512C106.941 28.5781 106.739 27.582 106.733 26.4629V24.8018C106.733 23.665 106.932 22.6572 107.331 21.7783C107.729 20.8994 108.3 20.2227 109.044 19.748C109.794 19.2676 110.656 19.0273 111.628 19.0273C112.999 19.0273 114.081 19.3994 114.872 20.1436C115.668 20.8818 116.131 21.9043 116.26 23.2109H115.17C114.901 21.0371 113.72 19.9502 111.628 19.9502C110.468 19.9502 109.542 20.3838 108.851 21.251C108.165 22.1182 107.823 23.3164 107.823 24.8457V26.4102C107.823 27.8867 108.157 29.0645 108.825 29.9434C109.498 30.8223 110.407 31.2617 111.549 31.2617C112.68 31.2617 113.533 30.9922 114.107 30.4531C114.681 29.9082 115.036 29.0938 115.17 28.0098H116.26ZM121.958 31.0859H128.277V32H120.868V19.2031H121.958V31.0859ZM141.217 26.2959C141.217 27.4736 141.012 28.5078 140.602 29.3984C140.198 30.2891 139.618 30.9746 138.862 31.4551C138.106 31.9355 137.233 32.1758 136.243 32.1758C134.749 32.1758 133.541 31.6426 132.622 30.5762C131.702 29.5039 131.242 28.0596 131.242 26.2432V24.9248C131.242 23.7588 131.447 22.7275 131.857 21.8311C132.273 20.9287 132.859 20.2373 133.615 19.7568C134.371 19.2705 135.241 19.0273 136.225 19.0273C137.209 19.0273 138.077 19.2646 138.827 19.7393C139.582 20.2139 140.165 20.8848 140.576 21.752C140.986 22.6191 141.2 23.624 141.217 24.7666V26.2959ZM140.136 24.9072C140.136 23.3662 139.788 22.1592 139.09 21.2861C138.393 20.4131 137.438 19.9766 136.225 19.9766C135.036 19.9766 134.086 20.416 133.377 21.2949C132.674 22.168 132.323 23.3896 132.323 24.96V26.2959C132.323 27.8135 132.674 29.0176 133.377 29.9082C134.081 30.793 135.036 31.2354 136.243 31.2354C137.467 31.2354 138.422 30.7988 139.108 29.9258C139.793 29.0469 140.136 27.8252 140.136 26.2607V24.9072ZM154.359 20.126H149.974V32H148.893V20.126H144.516V19.2031H154.359V20.126ZM167.897 32H166.807V25.8652H159.495V32H158.414V19.2031H159.495V24.9512H166.807V19.2031H167.897V32ZM180.204 25.8652H174.219V31.0859H181.101V32H173.138V19.2031H181.057V20.126H174.219V24.9512H180.204V25.8652ZM192.608 28.8535C192.608 28.1445 192.359 27.585 191.861 27.1748C191.363 26.7588 190.452 26.3662 189.128 25.9971C187.803 25.6221 186.836 25.2148 186.227 24.7754C185.36 24.1543 184.926 23.3398 184.926 22.332C184.926 21.3535 185.328 20.5596 186.13 19.9502C186.939 19.335 187.97 19.0273 189.224 19.0273C190.074 19.0273 190.833 19.1914 191.501 19.5195C192.174 19.8477 192.696 20.3047 193.065 20.8906C193.434 21.4766 193.619 22.1299 193.619 22.8506H192.529C192.529 21.9775 192.23 21.2773 191.632 20.75C191.035 20.2168 190.232 19.9502 189.224 19.9502C188.246 19.9502 187.466 20.1699 186.886 20.6094C186.306 21.043 186.016 21.6113 186.016 22.3145C186.016 22.9648 186.277 23.4951 186.798 23.9053C187.32 24.3154 188.155 24.6787 189.303 24.9951C190.452 25.3057 191.322 25.6309 191.914 25.9707C192.505 26.3047 192.951 26.7061 193.25 27.1748C193.548 27.6436 193.698 28.1973 193.698 28.8359C193.698 29.8438 193.294 30.6523 192.485 31.2617C191.682 31.8711 190.622 32.1758 189.303 32.1758C188.401 32.1758 187.572 32.0146 186.816 31.6924C186.066 31.3701 185.495 30.9189 185.102 30.3389C184.715 29.7588 184.522 29.0938 184.522 28.3438H185.603C185.603 29.2461 185.94 29.958 186.614 30.4795C187.288 31.001 188.184 31.2617 189.303 31.2617C190.299 31.2617 191.099 31.042 191.703 30.6025C192.306 30.1631 192.608 29.5801 192.608 28.8535Z" fill="black"/>
<path fill-rule="evenodd" clip-rule="evenodd" d="M194.981 112.731C191.133 122.754 187.304 132.782 183.454 142.801C182.684 144.803 181.916 146.807 181.146 148.809C179.479 153.146 177.81 157.48 176.144 161.819C174.426 166.293 172.785 170.811 170.837 175.195C169.719 177.487 168.545 179.753 167.382 182.036C167.32 182.158 167.26 182.275 167.194 182.396C163.784 188.157 159.08 193.437 152.436 195.086C150.775 195.498 149.081 195.649 147.391 195.612C147.562 195.529 147.729 195.441 147.895 195.35C149.723 194.394 151.424 193.164 152.956 191.683C158.88 185.945 161.767 177.903 164.095 170.194C166.581 161.952 169.003 153.899 172.637 146.066C176.113 138.573 180.305 131.409 185.146 124.71C188.193 120.489 191.512 116.546 194.981 112.731Z" fill="#ACA547"/>
<path fill-rule="evenodd" clip-rule="evenodd" d="M208.204 141.189C204.307 145.661 200.461 150.082 197.265 155.117V155.121C196.887 163.307 196.72 171.476 196.982 179.7C197.285 189.306 198.945 198.638 200.547 208.052C201.693 208.661 202.898 209.169 204.145 209.623C203.48 206.589 202.962 203.533 202.564 200.529C202.117 197.159 201.658 193.743 201.412 190.355C201.163 186.863 201.368 183.349 201.572 179.862C201.977 172.948 203.156 166.018 204.896 159.316C205.747 156.028 206.806 152.817 207.965 149.629C209.026 146.714 209.777 143.675 208.204 141.189Z" fill="#4E1E3D"/>
<path fill-rule="evenodd" clip-rule="evenodd" d="M205.789 85.0856C206.692 82.7889 207.348 80.6397 207.507 78.1782C207.514 78.0873 207.511 78.0049 207.507 77.9201C207.388 76.3438 205.157 76.0106 203.894 76.1803C202.924 76.3131 201.95 76.7864 201.052 77.3951C200.033 78.091 199.108 78.9565 198.402 79.6991C181.176 97.7901 165.046 116.877 151.648 137.881C140.975 154.617 130.977 174.06 112.914 183.939C115.096 184.393 117.218 185.063 119.295 185.857C120.035 186.133 120.77 186.428 121.497 186.738C123.484 187.574 125.443 188.49 127.387 189.404C131.28 191.233 134.902 193.391 139.053 194.571C141.179 195.177 143.68 195.343 145.905 195.532C146.463 195.272 147.012 194.988 147.551 194.685C151.318 192.545 154.552 189.333 156.954 185.41C161.596 177.842 163.056 168.927 165.648 160.564C167.93 153.195 170.832 146.069 174.426 139.239C180.059 128.534 187.344 117.984 196.238 109.456C196.883 107.773 197.526 106.093 198.175 104.409C200.665 97.95 203.262 91.5307 205.789 85.0856Z" fill="#4E361E"/>
<path fill-rule="evenodd" clip-rule="evenodd" d="M223.13 106.029C223.933 108.949 224.449 111.963 224.422 114.997C224.4 118.227 223.642 120.985 222.477 123.965C220.905 127.887 219.271 131.685 217.425 135.491C215.56 139.341 213.674 143.191 212.196 147.208C207.196 160.795 204.61 176.057 206.234 190.506C206.673 194.414 207.275 198.32 208.018 202.178C208.405 204.187 208.811 206.184 209.332 208.143C207.859 208.668 206.393 209.233 204.929 209.834C204.491 207.84 204.115 205.828 203.827 203.775C203.424 200.888 203.031 198.002 202.883 195.086C202.731 192.177 202.898 189.212 202.887 186.291C202.857 174.582 204.834 162.996 208.556 151.897C209.417 149.337 210.663 146.615 210.285 143.846C210.118 142.639 209.61 141.406 208.761 140.555C208.534 140.331 208.284 140.131 208.011 139.968C207.855 140.089 207.707 140.218 207.556 140.347C203.872 143.497 200.787 147.363 198.031 151.328C197.819 151.63 197.611 151.933 197.407 152.243C197.163 152.594 196.929 152.946 196.697 153.305C194.017 157.394 191.698 161.722 189.868 166.253C187.692 171.647 186.085 177.283 185.172 183.025C184.141 189.47 184.21 196.081 182.533 202.424C180.935 208.477 177.595 214.04 171.637 216.598C165.553 219.208 158.273 219.569 151.773 220.33C137.631 221.979 123.283 222.569 109.051 222.285C101.489 222.134 93.9088 222.141 86.3813 221.299C83.2052 220.944 79.9047 220.368 76.9072 219.192C75.9697 217.576 75.3414 215.754 75.0198 213.942C74.0872 208.665 76.3122 203.673 79.9577 199.917C88.0913 191.539 101.539 189.612 111.692 184.764C112.034 184.601 123.488 188.963 134.316 194.791C139.792 197.742 150.488 198.902 157.962 195.075C163.803 192.087 166.944 186.55 169.597 180.857C170.345 179.389 170.993 177.899 171.646 176.352C171.887 175.78 172.13 175.199 172.376 174.607C175.021 168.266 177.44 161.604 179.884 155.181C180.642 153.188 181.408 151.194 182.173 149.201C184.471 143.222 186.789 137.234 189.117 131.246C193.43 120.144 197.743 109.032 201.894 97.9193C203.084 94.7299 204.884 90.5213 206.092 87.2558C207.173 84.3246 208.458 81.1131 208.341 77.9103C208.333 77.7726 208.326 77.6373 208.317 77.5021C211.737 80.1603 214.374 85.4705 216.193 89.2918C218.789 94.741 221.518 100.189 223.13 106.029Z" fill="#FFE433"/>
<path fill-rule="evenodd" clip-rule="evenodd" d="M222.477 123.965C220.905 127.887 219.271 131.685 217.425 135.491C215.56 139.341 213.674 143.191 212.196 147.208C207.196 160.795 204.61 176.057 206.234 190.506C206.673 194.414 207.275 198.32 208.018 202.178C208.405 204.187 208.811 206.184 209.332 208.143C207.859 208.668 206.393 209.233 204.929 209.834C204.491 207.84 204.115 205.828 203.827 203.775C203.424 200.888 203.031 198.002 202.883 195.086C202.731 192.177 202.898 189.211 202.887 186.291C202.857 174.582 204.834 162.996 208.556 151.897C209.417 149.337 210.663 146.615 210.285 143.846C210.118 142.639 209.61 141.406 208.761 140.555C208.534 140.331 208.284 140.131 208.011 139.968C207.855 140.089 207.707 140.218 207.556 140.347C203.872 143.497 200.787 147.363 198.031 151.328C197.819 151.63 197.611 151.933 197.407 152.243C197.163 152.594 196.929 152.946 196.697 153.305C194.017 157.394 191.698 161.722 189.868 166.253C187.692 171.647 186.085 177.283 185.172 183.025C184.141 189.47 184.21 196.081 182.533 202.424C180.935 208.477 177.595 214.04 171.637 216.598C165.553 219.208 158.273 219.569 151.773 220.33C137.631 221.979 123.283 222.569 109.051 222.285C101.489 222.134 93.9088 222.141 86.3813 221.299C83.2052 220.944 79.9047 220.368 76.9072 219.192C75.9697 217.576 75.3414 215.754 75.0198 213.942C74.0872 208.665 76.3122 203.673 79.9577 199.917C88.0913 191.539 101.539 189.612 111.692 184.764C112.034 184.601 123.488 188.963 134.316 194.791C139.792 197.742 150.488 198.902 157.962 195.075C163.803 192.087 166.944 186.55 169.597 180.857C170.345 179.389 170.993 177.899 171.646 176.352C171.887 175.78 172.13 175.199 172.376 174.607C175.021 168.266 177.44 161.604 179.884 155.181C180.642 153.188 181.408 151.194 182.173 149.201C184.471 143.222 186.789 137.234 189.117 131.246C193.43 120.144 197.743 109.032 201.894 97.9193C203.084 94.7299 204.884 90.5213 206.092 87.2557C207.173 84.3246 208.458 81.1131 208.341 77.9102C208.333 77.7725 208.326 77.6373 208.317 77.502C211.737 80.1602 214.374 85.4705 216.193 89.2918C218.789 94.741 221.518 100.189 223.13 106.029C223.933 108.949 224.449 111.963 224.422 114.997C224.4 118.227 223.642 120.985 222.477 123.965ZM200.547 208.052C198.945 198.638 197.285 189.306 196.982 179.7C196.72 171.476 196.887 163.307 197.265 155.121V155.117C200.461 150.082 204.307 145.661 208.204 141.189C209.777 143.675 209.026 146.714 207.965 149.629C206.806 152.817 205.747 156.028 204.896 159.316C203.156 166.018 201.977 172.948 201.572 179.862C201.368 183.349 201.163 186.863 201.412 190.355C201.658 193.743 202.117 197.159 202.564 200.529C202.962 203.533 203.48 206.589 204.145 209.623C202.898 209.169 201.693 208.661 200.547 208.052ZM194.981 112.731C191.133 122.754 187.304 132.782 183.454 142.801C182.684 144.803 181.916 146.807 181.146 148.809C179.479 153.146 177.811 157.48 176.144 161.819C174.426 166.293 172.785 170.811 170.837 175.195C169.719 177.487 168.545 179.753 167.382 182.036C167.32 182.158 167.26 182.275 167.194 182.396C163.784 188.157 159.08 193.437 152.436 195.086C150.775 195.498 149.081 195.649 147.391 195.612C147.562 195.529 147.729 195.441 147.895 195.35C149.723 194.394 151.424 193.164 152.956 191.683C158.88 185.945 161.767 177.902 164.095 170.193C166.581 161.952 169.003 153.899 172.637 146.066C176.113 138.573 180.305 131.409 185.146 124.71C188.193 120.489 191.512 116.546 194.981 112.731ZM151.648 137.881C165.046 116.877 181.176 97.7902 198.402 79.6992C199.108 78.9566 200.033 78.091 201.052 77.3951C201.95 76.7865 202.924 76.3131 203.894 76.1803C205.157 76.0107 207.388 76.3439 207.507 77.9201C207.511 78.0049 207.514 78.0873 207.507 78.1783C207.348 80.6398 206.692 82.7889 205.789 85.0857C203.262 91.5307 200.665 97.95 198.175 104.409C197.526 106.093 196.883 107.773 196.238 109.456C187.344 117.984 180.059 128.534 174.426 139.239C170.832 146.069 167.93 153.195 165.648 160.564C163.056 168.927 161.596 177.842 156.954 185.41C154.552 189.333 151.318 192.545 147.551 194.685C147.012 194.988 146.463 195.272 145.905 195.532C143.68 195.343 141.179 195.177 139.053 194.571C134.902 193.391 131.28 191.233 127.387 189.405C125.443 188.49 123.484 187.574 121.497 186.738C120.77 186.428 120.035 186.133 119.295 185.857C117.218 185.063 115.096 184.393 112.914 183.939C130.977 174.06 140.975 154.617 151.648 137.881ZM225.9 114.123C225.893 113.267 225.847 112.416 225.767 111.562C224.944 102.472 220.582 93.5041 216.473 85.6549C215.075 82.982 213.49 80.1984 211.422 77.9816C209.512 75.9393 207.302 75 204.409 75C203.285 75 201.836 75.7303 200.195 76.9488C195.272 80.5906 188.586 88.5947 183.478 94.291C174.49 104.319 166.123 114.61 158.363 125.607C151.258 135.679 145.219 146.444 138.277 156.622C134.179 162.626 129.317 168.973 124.063 174.022C118.284 179.575 110.95 184.034 103.408 186.692C95.572 189.454 86.3789 191.607 80.0981 197.277C76.4477 200.571 73.4576 205.079 73.0486 210.08C72.8355 212.75 73.3209 215.632 74.5492 218.099C74.7389 218.474 74.9397 218.836 75.159 219.188C75.626 219.445 76.104 219.684 76.5918 219.899C76.9405 220.059 77.2966 220.205 77.6563 220.345C78.7762 220.777 79.9355 221.128 81.1096 221.412C87.1821 222.88 93.538 223.068 99.7498 223.469C114.653 224.427 129.517 223.893 144.372 222.452C151.387 221.768 158.466 221.007 165.398 219.707C170.993 218.655 176.131 216.57 179.61 211.884C183.219 207.031 184.463 201.021 185.106 195.132C185.842 188.425 186.486 181.848 188.31 175.327C190.132 168.805 192.885 162.436 196.359 156.607C195.663 164.406 195.667 172.312 196.217 180.059C196.863 189.151 197.599 198.524 199.57 207.508C199.627 207.768 199.683 208.027 199.744 208.287C199.9 208.393 200.059 208.495 200.222 208.593C200.373 208.688 200.529 208.783 200.685 208.869C201.704 209.46 202.784 209.932 203.918 210.253C204.046 210.288 204.179 210.322 204.307 210.355C204.369 210.371 204.425 210.386 204.486 210.398C204.663 210.345 204.842 210.293 205.016 210.24C205.176 210.193 205.331 210.144 205.49 210.091C206.844 209.682 208.182 209.248 209.507 208.783C209.803 208.681 210.099 208.579 210.391 208.472C210.725 208.355 211.058 208.234 211.387 208.113C211.334 207.901 211.281 207.685 211.232 207.475C210.595 204.821 210.061 202.151 209.626 199.47L209.615 199.414C209.273 197.307 208.996 195.195 208.781 193.078C208.75 192.673 208.723 192.264 208.705 191.855C208.348 184.507 208.469 177.192 209.217 169.869C209.967 162.527 211.631 155.396 214.074 148.426C214.973 145.858 215.951 143.327 216.956 140.805C218.081 138.296 219.28 135.815 220.488 133.327C222.841 128.481 225.055 123.488 225.702 118.087C225.862 116.766 225.923 115.443 225.9 114.123Z" fill="#0A0B09"/>
<defs>
<filter id="filter0_d" x="262.055" y="70.6781" width="31.2969" height="161.386" filterUnits="userSpaceOnUse" color-interpolation-filters="sRGB">
<feFlood flood-opacity="0" result="BackgroundImageFix"/>
<feColorMatrix in="SourceAlpha" type="matrix" values="0 0 0 0 0 0 0 0 0 0 0 0 0 0 0 0 0 0 127 0"/>
<feOffset dx="1" dy="1"/>
<feGaussianBlur stdDeviation="1"/>
<feColorMatrix type="matrix" values="0 0 0 0 0 0 0 0 0 0 0 0 0 0 0 0 0 0 0.15 0"/>
<feBlend mode="normal" in2="BackgroundImageFix" result="effect1_dropShadow"/>
<feBlend mode="normal" in="SourceGraphic" in2="effect1_dropShadow" result="shape"/>
</filter>
<radialGradient id="paint0_radial" cx="0" cy="0" r="1" gradientUnits="userSpaceOnUse" gradientTransform="translate(150 150) rotate(90) scale(150)">
<stop offset="0.369792" stop-color="white" stop-opacity="0"/>
<stop offset="1" stop-color="#FFFF00"/>
</radialGradient>
</defs>
</svg>
