<svg width="300" height="300" viewBox="0 0 300 300" fill="none" xmlns="http://www.w3.org/2000/svg">
<rect width="300" height="300" fill="white"/>
<rect width="300" height="300" fill="white"/>
<rect width="300" height="300" fill="white"/>
<rect width="300" height="300" fill="url(#paint0_radial)" fill-opacity="0.11"/>
<g filter="url(#filter0_d)">
<path d="M286.266 192.109C287.402 193.059 288.287 194.4 288.92 196.135C289.541 197.869 289.852 199.791 289.852 201.9C289.852 204.115 289.371 206.061 288.41 207.736C287.437 209.4 286.031 210.69 284.191 211.604C282.352 212.506 280.189 212.969 277.705 212.992L275.965 212.992C273.41 212.992 271.201 212.565 269.338 211.709C267.463 210.842 266.033 209.6 265.049 207.982C264.053 206.354 263.555 204.449 263.555 202.27C263.555 199.234 264.281 196.861 265.734 195.15C267.176 193.44 269.279 192.426 272.045 192.109L272.045 197.242C270.58 197.477 269.508 197.998 268.828 198.807C268.148 199.604 267.809 200.705 267.809 202.111C267.809 203.904 268.482 205.27 269.83 206.207C271.178 207.145 273.182 207.619 275.842 207.631L277.477 207.631C280.16 207.631 282.187 207.121 283.559 206.102C284.93 205.082 285.615 203.588 285.615 201.619C285.615 199.639 285.193 198.227 284.35 197.383L279.937 197.383L279.937 202.182L276.053 202.182L276.053 192.109L286.266 192.109ZM280.131 174.386L280.131 178.587L289.5 178.587L289.5 183.86L263.906 183.86L263.906 174.351C263.906 171.327 264.58 168.995 265.928 167.355C267.275 165.714 269.18 164.894 271.641 164.894C273.387 164.894 274.846 165.274 276.018 166.036C277.178 166.786 278.104 167.929 278.795 169.464L289.254 163.927L289.5 163.927L289.5 169.587L280.131 174.386ZM275.859 178.587L275.859 174.333C275.859 173.009 275.525 171.983 274.857 171.257C274.178 170.53 273.246 170.167 272.062 170.167C270.855 170.167 269.906 170.513 269.215 171.204C268.523 171.884 268.178 172.933 268.178 174.351L268.178 178.587L275.859 178.587ZM278.408 141.51L278.408 151.635L285.264 151.635L285.264 139.752L289.5 139.752L289.5 156.908L263.906 156.908L263.906 139.787L268.178 139.787L268.178 151.635L274.277 151.635L274.277 141.51L278.408 141.51ZM278.408 117.3L278.408 127.425L285.264 127.425L285.264 115.542L289.5 115.542L289.5 132.698L263.906 132.698L263.906 115.577L268.178 115.577L268.178 127.425L274.277 127.425L274.277 117.3L278.408 117.3ZM289.5 87.6757L289.5 92.9491L272.66 103.215L289.5 103.215L289.5 108.488L263.906 108.488L263.906 103.215L280.781 92.9316L263.906 92.9316L263.906 87.6757L289.5 87.6757Z" fill="white"/>
<path d="M286.266 192.109L286.586 191.726L286.447 191.609L286.266 191.609L286.266 192.109ZM288.92 196.135L289.391 195.966L289.39 195.963L288.92 196.135ZM288.41 207.736L288.842 207.989L288.844 207.985L288.41 207.736ZM284.191 211.604L284.412 212.053L284.414 212.051L284.191 211.604ZM277.705 212.992L277.705 213.492L277.71 213.492L277.705 212.992ZM269.338 211.709L269.128 212.163L269.129 212.163L269.338 211.709ZM265.049 207.982L265.476 207.723L265.475 207.722L265.049 207.982ZM265.734 195.15L266.115 195.474L266.117 195.473L265.734 195.15ZM272.045 192.109L272.545 192.109L272.545 191.549L271.988 191.613L272.045 192.109ZM272.045 197.242L272.124 197.736L272.545 197.669L272.545 197.242L272.045 197.242ZM268.828 198.807L269.209 199.131L269.211 199.128L268.828 198.807ZM275.842 207.631L275.84 208.131L275.842 208.131L275.842 207.631ZM284.35 197.383L284.703 197.029L284.557 196.883L284.35 196.883L284.35 197.383ZM279.937 197.383L279.937 196.883L279.437 196.883L279.437 197.383L279.937 197.383ZM279.937 202.182L279.937 202.682L280.437 202.682L280.437 202.182L279.937 202.182ZM276.053 202.182L275.553 202.182L275.553 202.682L276.053 202.682L276.053 202.182ZM276.053 192.109L276.053 191.609L275.553 191.609L275.553 192.109L276.053 192.109ZM285.945 192.493C287 193.374 287.84 194.634 288.45 196.306L289.39 195.963C288.734 194.167 287.805 192.744 286.586 191.726L285.945 192.493ZM288.449 196.303C289.048 197.976 289.352 199.84 289.352 201.9L290.352 201.9C290.352 199.742 290.034 197.762 289.391 195.966L288.449 196.303ZM289.352 201.9C289.352 204.041 288.888 205.898 287.976 207.488L288.844 207.985C289.854 206.223 290.352 204.19 290.352 201.9L289.352 201.9ZM287.978 207.484C287.058 209.058 285.728 210.282 283.969 211.156L284.414 212.051C286.335 211.097 287.817 209.743 288.842 207.989L287.978 207.484ZM283.971 211.155C282.211 212.018 280.126 212.469 277.7 212.492L277.71 213.492C280.253 213.468 282.492 212.994 284.412 212.053L283.971 211.155ZM277.705 212.492L275.965 212.492L275.965 213.492L277.705 213.492L277.705 212.492ZM275.965 212.492C273.465 212.492 271.33 212.074 269.547 211.255L269.129 212.163C271.072 213.055 273.355 213.492 275.965 213.492L275.965 212.492ZM269.548 211.255C267.754 210.426 266.404 209.247 265.476 207.723L264.622 208.242C265.662 209.952 267.172 211.258 269.128 212.163L269.548 211.255ZM265.475 207.722C264.534 206.182 264.055 204.371 264.055 202.27L263.055 202.27C263.055 204.528 263.572 206.525 264.622 208.243L265.475 207.722ZM264.055 202.27C264.055 199.311 264.762 197.067 266.115 195.474L265.353 194.827C263.8 196.656 263.055 199.158 263.055 202.27L264.055 202.27ZM266.117 195.473C267.457 193.882 269.43 192.912 272.102 192.606L271.988 191.613C269.128 191.94 266.895 192.997 265.352 194.828L266.117 195.473ZM271.545 192.109L271.545 197.242L272.545 197.242L272.545 192.109L271.545 192.109ZM271.966 196.749C270.43 196.994 269.229 197.553 268.445 198.485L269.211 199.128C269.787 198.443 270.73 197.959 272.124 197.736L271.966 196.749ZM268.448 198.482C267.668 199.397 267.309 200.627 267.309 202.111L268.309 202.111C268.309 200.783 268.629 199.811 269.209 199.131L268.448 198.482ZM267.309 202.111C267.309 204.05 268.049 205.577 269.545 206.618L270.116 205.797C268.916 204.962 268.309 203.758 268.309 202.111L267.309 202.111ZM269.545 206.618C271.013 207.639 273.135 208.119 275.84 208.131L275.844 207.131C273.228 207.119 271.343 206.65 270.116 205.797L269.545 206.618ZM275.842 208.131L277.477 208.131L277.477 207.131L275.842 207.131L275.842 208.131ZM277.477 208.131C280.21 208.131 282.363 207.614 283.857 206.503L283.26 205.7C282.012 206.628 280.11 207.131 277.477 207.131L277.477 208.131ZM283.857 206.503C285.375 205.374 286.115 203.719 286.115 201.619L285.115 201.619C285.115 203.457 284.484 204.79 283.26 205.7L283.857 206.503ZM286.115 201.619C286.115 199.589 285.686 198.013 284.703 197.029L283.996 197.736C284.7 198.441 285.115 199.688 285.115 201.619L286.115 201.619ZM284.35 196.883L279.937 196.883L279.937 197.883L284.35 197.883L284.35 196.883ZM279.437 197.383L279.437 202.182L280.437 202.182L280.437 197.383L279.437 197.383ZM279.937 201.682L276.053 201.682L276.053 202.682L279.937 202.682L279.937 201.682ZM276.553 202.182L276.553 192.109L275.553 192.109L275.553 202.182L276.553 202.182ZM276.053 192.609L286.266 192.609L286.266 191.609L276.053 191.609L276.053 192.609ZM280.131 174.386L279.903 173.941L279.631 174.08L279.631 174.386L280.131 174.386ZM280.131 178.587L279.631 178.587L279.631 179.087L280.131 179.087L280.131 178.587ZM289.5 178.587L290 178.587L290 178.087L289.5 178.087L289.5 178.587ZM289.5 183.86L289.5 184.36L290 184.36L290 183.86L289.5 183.86ZM263.906 183.86L263.406 183.86L263.406 184.36L263.906 184.36L263.906 183.86ZM276.018 166.036L275.745 166.455L275.746 166.456L276.018 166.036ZM278.795 169.464L278.339 169.669L278.558 170.155L279.029 169.906L278.795 169.464ZM289.254 163.927L289.254 163.427L289.13 163.427L289.02 163.485L289.254 163.927ZM289.5 163.927L290 163.927L290 163.427L289.5 163.427L289.5 163.927ZM289.5 169.587L289.728 170.032L290 169.893L290 169.587L289.5 169.587ZM275.859 178.587L275.859 179.087L276.359 179.087L276.359 178.587L275.859 178.587ZM274.857 171.257L275.226 170.918L275.223 170.915L274.857 171.257ZM269.215 171.204L269.565 171.561L269.568 171.558L269.215 171.204ZM268.178 178.587L267.678 178.587L267.678 179.087L268.178 179.087L268.178 178.587ZM279.631 174.386L279.631 178.587L280.631 178.587L280.631 174.386L279.631 174.386ZM280.131 179.087L289.5 179.087L289.5 178.087L280.131 178.087L280.131 179.087ZM289 178.587L289 183.86L290 183.86L290 178.587L289 178.587ZM289.5 183.36L263.906 183.36L263.906 184.36L289.5 184.36L289.5 183.36ZM264.406 183.86L264.406 174.351L263.406 174.351L263.406 183.86L264.406 183.86ZM264.406 174.351C264.406 171.395 265.066 169.192 266.314 167.672L265.541 167.037C264.095 168.798 263.406 171.26 263.406 174.351L264.406 174.351ZM266.314 167.672C267.551 166.166 269.303 165.394 271.641 165.394L271.641 164.394C269.057 164.394 267 165.262 265.541 167.037L266.314 167.672ZM271.641 165.394C273.314 165.394 274.672 165.758 275.745 166.455L276.29 165.617C275.019 164.791 273.459 164.394 271.641 164.394L271.641 165.394ZM275.746 166.456C276.809 167.143 277.678 168.203 278.339 169.669L279.251 169.259C278.529 167.655 277.546 166.429 276.289 165.616L275.746 166.456ZM279.029 169.906L289.488 164.369L289.02 163.485L278.561 169.022L279.029 169.906ZM289.254 164.427L289.5 164.427L289.5 163.427L289.254 163.427L289.254 164.427ZM289 163.927L289 169.587L290 169.587L290 163.927L289 163.927ZM289.272 169.142L279.903 173.941L280.359 174.831L289.728 170.032L289.272 169.142ZM276.359 178.587L276.359 174.333L275.359 174.333L275.359 178.587L276.359 178.587ZM276.359 174.333C276.359 172.927 276.004 171.765 275.226 170.918L274.489 171.595C275.047 172.202 275.359 173.091 275.359 174.333L276.359 174.333ZM275.223 170.915C274.43 170.069 273.356 169.667 272.062 169.667L272.062 170.667C273.136 170.667 273.925 170.992 274.492 171.598L275.223 170.915ZM272.062 169.667C270.756 169.667 269.667 170.044 268.861 170.851L269.568 171.558C270.145 170.981 270.955 170.667 272.062 170.667L272.062 169.667ZM268.864 170.848C268.041 171.657 267.678 172.861 267.678 174.351L268.678 174.351C268.678 173.005 269.006 172.11 269.565 171.561L268.864 170.848ZM267.678 174.351L267.678 178.587L268.678 178.587L268.678 174.351L267.678 174.351ZM268.178 179.087L275.859 179.087L275.859 178.087L268.178 178.087L268.178 179.087ZM278.408 141.51L278.908 141.51L278.908 141.01L278.408 141.01L278.408 141.51ZM278.408 151.635L277.908 151.635L277.908 152.135L278.408 152.135L278.408 151.635ZM285.264 151.635L285.264 152.135L285.764 152.135L285.764 151.635L285.264 151.635ZM285.264 139.752L285.264 139.252L284.764 139.252L284.764 139.752L285.264 139.752ZM289.5 139.752L290 139.752L290 139.252L289.5 139.252L289.5 139.752ZM289.5 156.908L289.5 157.408L290 157.408L290 156.908L289.5 156.908ZM263.906 156.908L263.406 156.908L263.406 157.408L263.906 157.408L263.906 156.908ZM263.906 139.787L263.906 139.287L263.406 139.287L263.406 139.787L263.906 139.787ZM268.178 139.787L268.678 139.787L268.678 139.287L268.178 139.287L268.178 139.787ZM268.178 151.635L267.678 151.635L267.678 152.135L268.178 152.135L268.178 151.635ZM274.277 151.635L274.277 152.135L274.777 152.135L274.777 151.635L274.277 151.635ZM274.277 141.51L274.277 141.01L273.777 141.01L273.777 141.51L274.277 141.51ZM277.908 141.51L277.908 151.635L278.908 151.635L278.908 141.51L277.908 141.51ZM278.408 152.135L285.264 152.135L285.264 151.135L278.408 151.135L278.408 152.135ZM285.764 151.635L285.764 139.752L284.764 139.752L284.764 151.635L285.764 151.635ZM285.264 140.252L289.5 140.252L289.5 139.252L285.264 139.252L285.264 140.252ZM289 139.752L289 156.908L290 156.908L290 139.752L289 139.752ZM289.5 156.408L263.906 156.408L263.906 157.408L289.5 157.408L289.5 156.408ZM264.406 156.908L264.406 139.787L263.406 139.787L263.406 156.908L264.406 156.908ZM263.906 140.287L268.178 140.287L268.178 139.287L263.906 139.287L263.906 140.287ZM267.678 139.787L267.678 151.635L268.678 151.635L268.678 139.787L267.678 139.787ZM268.178 152.135L274.277 152.135L274.277 151.135L268.178 151.135L268.178 152.135ZM274.777 151.635L274.777 141.51L273.777 141.51L273.777 151.635L274.777 151.635ZM274.277 142.01L278.408 142.01L278.408 141.01L274.277 141.01L274.277 142.01ZM278.408 117.3L278.908 117.3L278.908 116.8L278.408 116.8L278.408 117.3ZM278.408 127.425L277.908 127.425L277.908 127.925L278.408 127.925L278.408 127.425ZM285.264 127.425L285.264 127.925L285.764 127.925L285.764 127.425L285.264 127.425ZM285.264 115.542L285.264 115.042L284.764 115.042L284.764 115.542L285.264 115.542ZM289.5 115.542L290 115.542L290 115.042L289.5 115.042L289.5 115.542ZM289.5 132.698L289.5 133.198L290 133.198L290 132.698L289.5 132.698ZM263.906 132.698L263.406 132.698L263.406 133.198L263.906 133.198L263.906 132.698ZM263.906 115.577L263.906 115.077L263.406 115.077L263.406 115.577L263.906 115.577ZM268.178 115.577L268.678 115.577L268.678 115.077L268.178 115.077L268.178 115.577ZM268.178 127.425L267.678 127.425L267.678 127.925L268.178 127.925L268.178 127.425ZM274.277 127.425L274.277 127.925L274.777 127.925L274.777 127.425L274.277 127.425ZM274.277 117.3L274.277 116.8L273.777 116.8L273.777 117.3L274.277 117.3ZM277.908 117.3L277.908 127.425L278.908 127.425L278.908 117.3L277.908 117.3ZM278.408 127.925L285.264 127.925L285.264 126.925L278.408 126.925L278.408 127.925ZM285.764 127.425L285.764 115.542L284.764 115.542L284.764 127.425L285.764 127.425ZM285.264 116.042L289.5 116.042L289.5 115.042L285.264 115.042L285.264 116.042ZM289 115.542L289 132.698L290 132.698L290 115.542L289 115.542ZM289.5 132.198L263.906 132.198L263.906 133.198L289.5 133.198L289.5 132.198ZM264.406 132.698L264.406 115.577L263.406 115.577L263.406 132.698L264.406 132.698ZM263.906 116.077L268.178 116.077L268.178 115.077L263.906 115.077L263.906 116.077ZM267.678 115.577L267.678 127.425L268.678 127.425L268.678 115.577L267.678 115.577ZM268.178 127.925L274.277 127.925L274.277 126.925L268.178 126.925L268.178 127.925ZM274.777 127.425L274.777 117.3L273.777 117.3L273.777 127.425L274.777 127.425ZM274.277 117.8L278.408 117.8L278.408 116.8L274.277 116.8L274.277 117.8ZM289.5 87.6757L290 87.6757L290 87.1757L289.5 87.1757L289.5 87.6757ZM289.5 92.9491L289.76 93.3761L290 93.2299L290 92.9491L289.5 92.9491ZM272.66 103.215L272.4 102.788L270.879 103.715L272.66 103.715L272.66 103.215ZM289.5 103.215L290 103.215L290 102.715L289.5 102.715L289.5 103.215ZM289.5 108.488L289.5 108.988L290 108.988L290 108.488L289.5 108.488ZM263.906 108.488L263.406 108.488L263.406 108.988L263.906 108.988L263.906 108.488ZM263.906 103.215L263.646 102.788L263.406 102.934L263.406 103.215L263.906 103.215ZM280.781 92.9316L281.041 93.3585L282.563 92.4316L280.781 92.4316L280.781 92.9316ZM263.906 92.9316L263.406 92.9316L263.406 93.4316L263.906 93.4316L263.906 92.9316ZM263.906 87.6757L263.906 87.1757L263.406 87.1757L263.406 87.6757L263.906 87.6757ZM289 87.6757L289 92.9491L290 92.9491L290 87.6757L289 87.6757ZM289.24 92.5222L272.4 102.788L272.92 103.642L289.76 93.3761L289.24 92.5222ZM272.66 103.715L289.5 103.715L289.5 102.715L272.66 102.715L272.66 103.715ZM289 103.215L289 108.488L290 108.488L290 103.215L289 103.215ZM289.5 107.988L263.906 107.988L263.906 108.988L289.5 108.988L289.5 107.988ZM264.406 108.488L264.406 103.215L263.406 103.215L263.406 108.488L264.406 108.488ZM264.166 103.642L281.041 93.3585L280.521 92.5046L263.646 102.788L264.166 103.642ZM280.781 92.4316L263.906 92.4316L263.906 93.4316L280.781 93.4316L280.781 92.4316ZM264.406 92.9316L264.406 87.6757L263.406 87.6757L263.406 92.9316L264.406 92.9316ZM263.906 88.1757L289.5 88.1757L289.5 87.1757L263.906 87.1757L263.906 88.1757Z" fill="#297504"/>
</g>
<path d="M43.6328 269.883C43.6328 267.878 42.9167 266.315 41.4844 265.195C40.0781 264.076 37.5911 262.917 34.0234 261.719C30.4557 260.521 27.5391 259.362 25.2734 258.242C17.9036 254.622 14.2188 249.648 14.2188 243.32C14.2188 240.169 15.1302 237.396 16.9531 235C18.8021 232.578 21.4062 230.703 24.7656 229.375C28.125 228.021 31.901 227.344 36.0938 227.344C40.1823 227.344 43.8411 228.073 47.0703 229.531C50.3255 230.99 52.8516 233.073 54.6484 235.781C56.4453 238.464 57.3438 241.536 57.3438 245H43.6719C43.6719 242.682 42.9557 240.885 41.5234 239.609C40.1172 238.333 38.2031 237.695 35.7812 237.695C33.3333 237.695 31.3932 238.242 29.9609 239.336C28.5547 240.404 27.8516 241.771 27.8516 243.438C27.8516 244.896 28.6328 246.224 30.1953 247.422C31.7578 248.594 34.5052 249.818 38.4375 251.094C42.3698 252.344 45.599 253.698 48.125 255.156C54.2708 258.698 57.3438 263.581 57.3438 269.805C57.3438 274.779 55.4688 278.685 51.7188 281.523C47.9688 284.362 42.8255 285.781 36.2891 285.781C31.6797 285.781 27.5 284.961 23.75 283.32C20.026 281.654 17.2135 279.388 15.3125 276.523C13.4375 273.633 12.5 270.312 12.5 266.562H26.25C26.25 269.609 27.0312 271.862 28.5938 273.32C30.1823 274.753 32.7474 275.469 36.2891 275.469C38.5547 275.469 40.3385 274.987 41.6406 274.023C42.9688 273.034 43.6328 271.654 43.6328 269.883ZM84.0289 263.678H76.1891V285H70.9156V263.678H63.1813V259.406H84.0289V263.678ZM102.992 279.727H93.7461L91.9883 285H86.3809L95.9082 259.406H100.795L110.375 285H104.768L102.992 279.727ZM95.1699 275.455H101.568L98.3516 265.875L95.1699 275.455ZM121.639 275.982V285H116.366V259.406H126.35C128.272 259.406 129.959 259.758 131.412 260.461C132.877 261.164 134.002 262.166 134.787 263.467C135.573 264.756 135.965 266.227 135.965 267.879C135.965 270.387 135.104 272.367 133.381 273.82C131.67 275.262 129.297 275.982 126.262 275.982H121.639ZM121.639 271.711H126.35C127.745 271.711 128.805 271.383 129.532 270.727C130.27 270.07 130.639 269.133 130.639 267.914C130.639 266.66 130.27 265.646 129.532 264.873C128.793 264.1 127.774 263.701 126.473 263.678H121.639V271.711ZM148.477 280.764H159.675V285H143.204V259.406H148.477V280.764ZM181.714 273.908H171.589V280.764H183.472V285H166.316V259.406H183.437V263.678H171.589V269.777H181.714V273.908ZM199.64 275.631H195.439V285H190.166V259.406H199.675C202.699 259.406 205.031 260.08 206.671 261.428C208.312 262.775 209.132 264.68 209.132 267.141C209.132 268.887 208.752 270.346 207.99 271.518C207.24 272.678 206.097 273.604 204.562 274.295L210.099 284.754V285H204.439L199.64 275.631ZM195.439 271.359H199.693C201.017 271.359 202.043 271.025 202.769 270.357C203.496 269.678 203.859 268.746 203.859 267.562C203.859 266.355 203.513 265.406 202.822 264.715C202.142 264.023 201.093 263.678 199.675 263.678H195.439V271.359Z" fill="black"/>
<path d="M68.3851 28.8535C68.3851 28.1445 68.1361 27.585 67.638 27.1748C67.14 26.7588 66.2289 26.3662 64.9046 25.9971C63.5804 25.6221 62.6136 25.2148 62.0043 24.7754C61.1371 24.1543 60.7035 23.3398 60.7035 22.332C60.7035 21.3535 61.1048 20.5596 61.9076 19.9502C62.7162 19.335 63.7474 19.0273 65.0013 19.0273C65.8509 19.0273 66.6097 19.1914 67.2777 19.5195C67.9515 19.8477 68.473 20.3047 68.8421 20.8906C69.2113 21.4766 69.3959 22.1299 69.3959 22.8506H68.306C68.306 21.9775 68.0072 21.2773 67.4095 20.75C66.8119 20.2168 66.0091 19.9502 65.0013 19.9502C64.0228 19.9502 63.2435 20.1699 62.6634 20.6094C62.0834 21.043 61.7933 21.6113 61.7933 22.3145C61.7933 22.9648 62.0541 23.4951 62.5755 23.9053C63.097 24.3154 63.932 24.6787 65.0804 24.9951C66.2289 25.3057 67.099 25.6309 67.6908 25.9707C68.2826 26.3047 68.7279 26.7061 69.0267 27.1748C69.3255 27.6436 69.475 28.1973 69.475 28.8359C69.475 29.8438 69.0707 30.6523 68.2621 31.2617C67.4593 31.8711 66.3988 32.1758 65.0804 32.1758C64.1781 32.1758 63.349 32.0146 62.5931 31.6924C61.8431 31.3701 61.2718 30.9189 60.8793 30.3389C60.4925 29.7588 60.2992 29.0938 60.2992 28.3438H61.3802C61.3802 29.2461 61.7171 29.958 62.391 30.4795C63.0648 31.001 63.9613 31.2617 65.0804 31.2617C66.0765 31.2617 66.8763 31.042 67.4798 30.6025C68.0834 30.1631 68.3851 29.5801 68.3851 28.8535ZM82.8544 28.0098C82.7079 29.3574 82.2245 30.3887 81.4042 31.1035C80.5897 31.8184 79.5028 32.1758 78.1434 32.1758C77.1942 32.1758 76.3534 31.9385 75.621 31.4639C74.8944 30.9893 74.3319 30.3184 73.9335 29.4512C73.535 28.5781 73.3329 27.582 73.327 26.4629V24.8018C73.327 23.665 73.5262 22.6572 73.9247 21.7783C74.3231 20.8994 74.8944 20.2227 75.6385 19.748C76.3885 19.2676 77.2499 19.0273 78.2225 19.0273C79.5936 19.0273 80.6747 19.3994 81.4657 20.1436C82.2626 20.8818 82.7255 21.9043 82.8544 23.2109H81.7645C81.495 21.0371 80.3143 19.9502 78.2225 19.9502C77.0624 19.9502 76.1366 20.3838 75.4452 21.251C74.7596 22.1182 74.4169 23.3164 74.4169 24.8457V26.4102C74.4169 27.8867 74.7509 29.0645 75.4188 29.9434C76.0927 30.8223 77.0009 31.2617 78.1434 31.2617C79.2743 31.2617 80.1268 30.9922 80.701 30.4531C81.2753 29.9082 81.6298 29.0938 81.7645 28.0098H82.8544ZM96.9457 32H95.8559V25.8652H88.5434V32H87.4623V19.2031H88.5434V24.9512H95.8559V19.2031H96.9457V32ZM111.643 26.2959C111.643 27.4736 111.438 28.5078 111.028 29.3984C110.624 30.2891 110.044 30.9746 109.288 31.4551C108.532 31.9355 107.659 32.1758 106.669 32.1758C105.175 32.1758 103.968 31.6426 103.048 30.5762C102.128 29.5039 101.668 28.0596 101.668 26.2432V24.9248C101.668 23.7588 101.873 22.7275 102.283 21.8311C102.699 20.9287 103.285 20.2373 104.041 19.7568C104.797 19.2705 105.667 19.0273 106.651 19.0273C107.636 19.0273 108.503 19.2646 109.253 19.7393C110.009 20.2139 110.592 20.8848 111.002 21.752C111.412 22.6191 111.626 23.624 111.643 24.7666V26.2959ZM110.562 24.9072C110.562 23.3662 110.214 22.1592 109.517 21.2861C108.819 20.4131 107.864 19.9766 106.651 19.9766C105.462 19.9766 104.513 20.416 103.804 21.2949C103.101 22.168 102.749 23.3896 102.749 24.96V26.2959C102.749 27.8135 103.101 29.0176 103.804 29.9082C104.507 30.793 105.462 31.2354 106.669 31.2354C107.893 31.2354 108.849 30.7988 109.534 29.9258C110.22 29.0469 110.562 27.8252 110.562 26.2607V24.9072ZM125.805 26.2959C125.805 27.4736 125.6 28.5078 125.19 29.3984C124.786 30.2891 124.206 30.9746 123.45 31.4551C122.694 31.9355 121.821 32.1758 120.831 32.1758C119.336 32.1758 118.129 31.6426 117.209 30.5762C116.289 29.5039 115.83 28.0596 115.83 26.2432V24.9248C115.83 23.7588 116.035 22.7275 116.445 21.8311C116.861 20.9287 117.447 20.2373 118.203 19.7568C118.958 19.2705 119.829 19.0273 120.813 19.0273C121.797 19.0273 122.664 19.2646 123.414 19.7393C124.17 20.2139 124.753 20.8848 125.164 21.752C125.574 22.6191 125.788 23.624 125.805 24.7666V26.2959ZM124.724 24.9072C124.724 23.3662 124.375 22.1592 123.678 21.2861C122.981 20.4131 122.026 19.9766 120.813 19.9766C119.623 19.9766 118.674 20.416 117.965 21.2949C117.262 22.168 116.911 23.3896 116.911 24.96V26.2959C116.911 27.8135 117.262 29.0176 117.965 29.9082C118.668 30.793 119.623 31.2354 120.831 31.2354C122.055 31.2354 123.01 30.7988 123.696 29.9258C124.381 29.0469 124.724 27.8252 124.724 26.2607V24.9072ZM131.6 31.0859H137.919V32H130.51V19.2031H131.6V31.0859ZM155.581 28.8535C155.581 28.1445 155.332 27.585 154.834 27.1748C154.336 26.7588 153.425 26.3662 152.101 25.9971C150.776 25.6221 149.81 25.2148 149.2 24.7754C148.333 24.1543 147.899 23.3398 147.899 22.332C147.899 21.3535 148.301 20.5596 149.104 19.9502C149.912 19.335 150.943 19.0273 152.197 19.0273C153.047 19.0273 153.806 19.1914 154.474 19.5195C155.147 19.8477 155.669 20.3047 156.038 20.8906C156.407 21.4766 156.592 22.1299 156.592 22.8506H155.502C155.502 21.9775 155.203 21.2773 154.605 20.75C154.008 20.2168 153.205 19.9502 152.197 19.9502C151.219 19.9502 150.439 20.1699 149.859 20.6094C149.279 21.043 148.989 21.6113 148.989 22.3145C148.989 22.9648 149.25 23.4951 149.771 23.9053C150.293 24.3154 151.128 24.6787 152.276 24.9951C153.425 25.3057 154.295 25.6309 154.887 25.9707C155.479 26.3047 155.924 26.7061 156.223 27.1748C156.521 27.6436 156.671 28.1973 156.671 28.8359C156.671 29.8438 156.267 30.6523 155.458 31.2617C154.655 31.8711 153.595 32.1758 152.276 32.1758C151.374 32.1758 150.545 32.0146 149.789 31.6924C149.039 31.3701 148.468 30.9189 148.075 30.3389C147.688 29.7588 147.495 29.0938 147.495 28.3438H148.576C148.576 29.2461 148.913 29.958 149.587 30.4795C150.261 31.001 151.157 31.2617 152.276 31.2617C153.272 31.2617 154.072 31.042 154.676 30.6025C155.279 30.1631 155.581 29.5801 155.581 28.8535ZM169.804 19.2031V27.9395C169.798 28.8008 169.608 29.5508 169.233 30.1895C168.858 30.8281 168.328 31.3203 167.642 31.666C166.962 32.0059 166.18 32.1758 165.295 32.1758C163.948 32.1758 162.867 31.8096 162.052 31.0771C161.244 30.3389 160.825 29.3193 160.795 28.0186V19.2031H161.868V27.8604C161.868 28.9385 162.175 29.7764 162.791 30.374C163.406 30.9658 164.241 31.2617 165.295 31.2617C166.35 31.2617 167.182 30.9629 167.792 30.3652C168.407 29.7676 168.714 28.9355 168.714 27.8691V19.2031H169.804ZM175.88 26.7881V32H174.799V19.2031H179.158C180.488 19.2031 181.537 19.543 182.305 20.2227C183.078 20.9023 183.465 21.8369 183.465 23.0264C183.465 24.2275 183.093 25.1562 182.349 25.8125C181.61 26.4629 180.538 26.7881 179.132 26.7881H175.88ZM175.88 25.874H179.158C180.207 25.874 181.007 25.625 181.558 25.127C182.108 24.6289 182.384 23.9346 182.384 23.0439C182.384 22.1592 182.108 21.4561 181.558 20.9346C181.013 20.4072 180.236 20.1377 179.229 20.126H175.88V25.874ZM188.952 26.7881V32H187.871V19.2031H192.23C193.56 19.2031 194.609 19.543 195.377 20.2227C196.15 20.9023 196.537 21.8369 196.537 23.0264C196.537 24.2275 196.165 25.1562 195.42 25.8125C194.682 26.4629 193.61 26.7881 192.204 26.7881H188.952ZM188.952 25.874H192.23C193.279 25.874 194.079 25.625 194.629 25.127C195.18 24.6289 195.456 23.9346 195.456 23.0439C195.456 22.1592 195.18 21.4561 194.629 20.9346C194.085 20.4072 193.308 20.1377 192.3 20.126H188.952V25.874ZM202.032 31.0859H208.352V32H200.942V19.2031H202.032V31.0859ZM213.733 32H212.652V19.2031H213.733V32ZM226.26 25.8652H220.275V31.0859H227.156V32H219.193V19.2031H227.112V20.126H220.275V24.9512H226.26V25.8652ZM238.664 28.8535C238.664 28.1445 238.415 27.585 237.917 27.1748C237.419 26.7588 236.507 26.3662 235.183 25.9971C233.859 25.6221 232.892 25.2148 232.283 24.7754C231.416 24.1543 230.982 23.3398 230.982 22.332C230.982 21.3535 231.383 20.5596 232.186 19.9502C232.995 19.335 234.026 19.0273 235.28 19.0273C236.13 19.0273 236.888 19.1914 237.556 19.5195C238.23 19.8477 238.752 20.3047 239.121 20.8906C239.49 21.4766 239.674 22.1299 239.674 22.8506H238.585C238.585 21.9775 238.286 21.2773 237.688 20.75C237.09 20.2168 236.288 19.9502 235.28 19.9502C234.301 19.9502 233.522 20.1699 232.942 20.6094C232.362 21.043 232.072 21.6113 232.072 22.3145C232.072 22.9648 232.333 23.4951 232.854 23.9053C233.376 24.3154 234.211 24.6787 235.359 24.9951C236.507 25.3057 237.378 25.6309 237.969 25.9707C238.561 26.3047 239.006 26.7061 239.305 27.1748C239.604 27.6436 239.754 28.1973 239.754 28.8359C239.754 29.8438 239.349 30.6523 238.541 31.2617C237.738 31.8711 236.677 32.1758 235.359 32.1758C234.457 32.1758 233.628 32.0146 232.872 31.6924C232.122 31.3701 231.55 30.9189 231.158 30.3389C230.771 29.7588 230.578 29.0938 230.578 28.3438H231.659C231.659 29.2461 231.996 29.958 232.67 30.4795C233.343 31.001 234.24 31.2617 235.359 31.2617C236.355 31.2617 237.155 31.042 237.758 30.6025C238.362 30.1631 238.664 29.5801 238.664 28.8535Z" fill="black"/>
<path fill-rule="evenodd" clip-rule="evenodd" d="M121.398 136.4H56.5475V164H131.71L121.398 136.4Z" fill="#A5A5A5"/>
<path fill-rule="evenodd" clip-rule="evenodd" d="M121.398 136.4H56.5475V164H131.71L121.398 136.4Z" fill="black"/>
<path fill-rule="evenodd" clip-rule="evenodd" d="M254.151 160.4H242.028V159.833C242.028 158.158 243.284 156.8 244.832 156.8H251.346C252.895 156.8 254.151 158.158 254.151 159.833V160.4Z" fill="#A5A5A5"/>
<path fill-rule="evenodd" clip-rule="evenodd" d="M256.575 134.467L119.123 149.972L111.784 150.8L109.888 134.732L254.683 118.4L255.522 125.525L256.575 134.467Z" fill="#A5A5A5"/>
<path fill-rule="evenodd" clip-rule="evenodd" d="M255.363 125.526C255.278 125.541 255.192 125.554 255.104 125.563L147.628 137.7C143.293 138.19 139.12 139.597 135.397 141.823L130.524 144.738C126.92 146.895 123.093 148.648 119.113 149.972L111.783 150.8L109.888 134.733L254.525 118.4L255.363 125.526Z" fill="black"/>
<path fill-rule="evenodd" clip-rule="evenodd" d="M54.8063 151.988L54.8117 151.994C54.8225 151.994 54.8333 151.995 54.8442 151.995C56.5096 152.095 57.8523 150.648 57.6618 148.993L55.198 127.675C55.0076 126.02 56.2003 124.519 57.8577 124.328L253.155 101.84C254.155 101.726 254.51 100.455 253.716 99.8364C253.202 99.4359 252.557 99.2 251.862 99.2C251.746 99.2 251.627 99.2067 251.51 99.2202L54.3781 121.919C52.7208 122.111 51.5267 123.612 51.7185 125.268L54.8063 151.988Z" fill="#F2F2F2"/>
<path fill-rule="evenodd" clip-rule="evenodd" d="M245.64 129.987C245.871 131.964 244.439 133.749 242.445 133.976C240.45 134.204 238.646 132.788 238.415 130.813C238.186 128.836 239.616 127.051 241.612 126.824C243.606 126.596 245.409 128.012 245.64 129.987Z" fill="black"/>
<path fill-rule="evenodd" clip-rule="evenodd" d="M253.106 135.2L255.363 134.995L253.982 125.6L251.726 125.804L253.106 135.2Z" fill="black"/>
<path fill-rule="evenodd" clip-rule="evenodd" d="M43.5443 159.2H61.3966V162.8H43.5443C42.6919 162.8 42 162.12 42 161.283V160.717C42 159.88 42.6919 159.2 43.5443 159.2Z" fill="#A5A5A5"/>
<path fill-rule="evenodd" clip-rule="evenodd" d="M254.601 170H57.308C54.8794 170 52.9106 167.963 52.9106 165.449V163.75C52.9106 161.237 54.8794 159.2 57.308 159.2H254.601C257.03 159.2 259 161.237 259 163.75V165.449C259 167.963 257.03 170 254.601 170Z" fill="#3D8D10"/>
<path fill-rule="evenodd" clip-rule="evenodd" d="M60.1844 167.6H57.8668C56.4678 167.6 55.3352 166.468 55.3352 165.071V164.127C55.3352 162.732 56.4678 161.6 57.8668 161.6H60.1844V167.6Z" fill="#F2F2F2"/>
<path fill-rule="evenodd" clip-rule="evenodd" d="M245.665 159.2H242.028V159.011C242.028 158.452 242.577 158 243.254 158H245.665V159.2Z" fill="#F2F2F2"/>
<path fill-rule="evenodd" clip-rule="evenodd" d="M49.2737 161.6H44.0049C43.5672 161.6 43.2123 161.373 43.2123 161.095V160.906C43.2123 160.626 43.5672 160.4 44.0049 160.4H49.2737V161.6Z" fill="#F2F2F2"/>
<path fill-rule="evenodd" clip-rule="evenodd" d="M146.762 136.425L254.003 124.269C256.347 124.004 258.029 121.921 257.759 119.617L255.657 101.719C255.388 99.4157 253.268 97.763 250.924 98.0279L54.2711 120.32C51.9265 120.585 50.2449 122.668 50.5144 124.973L53.8156 153.081C54.0851 155.384 56.2047 157.037 58.5492 156.772L106.446 151.343C114.684 150.409 122.618 147.724 129.695 143.476L134.558 140.556C138.273 138.326 142.438 136.915 146.762 136.425Z" fill="#3D8D10"/>
<defs>
<filter id="filter0_d" x="262.055" y="86.1757" width="31.2969" height="130.317" filterUnits="userSpaceOnUse" color-interpolation-filters="sRGB">
<feFlood flood-opacity="0" result="BackgroundImageFix"/>
<feColorMatrix in="SourceAlpha" type="matrix" values="0 0 0 0 0 0 0 0 0 0 0 0 0 0 0 0 0 0 127 0"/>
<feOffset dx="1" dy="1"/>
<feGaussianBlur stdDeviation="1"/>
<feColorMatrix type="matrix" values="0 0 0 0 0 0 0 0 0 0 0 0 0 0 0 0 0 0 0.15 0"/>
<feBlend mode="normal" in2="BackgroundImageFix" result="effect1_dropShadow"/>
<feBlend mode="normal" in="SourceGraphic" in2="effect1_dropShadow" result="shape"/>
</filter>
<radialGradient id="paint0_radial" cx="0" cy="0" r="1" gradientUnits="userSpaceOnUse" gradientTransform="translate(150 150) rotate(90) scale(150)">
<stop offset="0.369792" stop-color="white" stop-opacity="0"/>
<stop offset="1" stop-color="#00FF0A" stop-opacity="0.83"/>
</radialGradient>
</defs>
</svg>
