<svg width="300" height="300" viewBox="0 0 300 300" fill="none" xmlns="http://www.w3.org/2000/svg">
<rect width="300" height="300" fill="white"/>
<rect width="300" height="300" fill="white"/>
<rect width="300" height="300" fill="white"/>
<rect width="300" height="300" fill="url(#paint0_radial)" fill-opacity="0.11"/>
<g filter="url(#filter0_d)">
<path d="M280.482 218.804L289.5 218.804L289.5 224.078L263.906 224.078L263.906 214.093C263.906 212.171 264.258 210.484 264.961 209.031C265.664 207.566 266.666 206.441 267.967 205.656C269.256 204.871 270.727 204.478 272.379 204.478C274.887 204.478 276.867 205.339 278.32 207.062C279.762 208.773 280.482 211.146 280.482 214.181L280.482 218.804ZM276.211 218.804L276.211 214.093C276.211 212.699 275.883 211.638 275.227 210.912C274.57 210.173 273.633 209.804 272.414 209.804C271.16 209.804 270.146 210.173 269.373 210.912C268.6 211.65 268.201 212.67 268.178 213.97L268.178 218.804L276.211 218.804ZM263.906 177.508L280.764 177.508C283.564 177.508 285.779 178.387 287.408 180.145C289.037 181.891 289.852 184.282 289.852 187.317C289.852 190.305 289.061 192.678 287.479 194.436C285.896 196.194 283.723 197.09 280.957 197.126L263.906 197.126L263.906 191.852L280.799 191.852C282.475 191.852 283.699 191.454 284.473 190.657C285.234 189.848 285.615 188.735 285.615 187.317C285.615 184.352 284.057 182.846 280.939 182.799L263.906 182.799L263.906 177.508ZM280.131 159.75L280.131 163.951L289.5 163.951L289.5 169.224L263.906 169.224L263.906 159.714C263.906 156.691 264.58 154.359 265.928 152.718C267.275 151.078 269.18 150.257 271.641 150.257C273.387 150.257 274.846 150.638 276.018 151.4C277.178 152.15 278.104 153.293 278.795 154.828L289.254 149.291L289.5 149.291L289.5 154.951L280.131 159.75ZM275.859 163.951L275.859 159.697C275.859 158.373 275.525 157.347 274.857 156.621C274.178 155.894 273.246 155.531 272.062 155.531C270.855 155.531 269.906 155.876 269.215 156.568C268.523 157.248 268.178 158.296 268.178 159.714L268.178 163.951L275.859 163.951ZM280.482 136.999L289.5 136.999L289.5 142.272L263.906 142.272L263.906 132.288C263.906 130.366 264.258 128.678 264.961 127.225C265.664 125.76 266.666 124.635 267.967 123.85C269.256 123.065 270.727 122.672 272.379 122.672C274.887 122.672 276.867 123.534 278.32 125.256C279.762 126.967 280.482 129.34 280.482 132.375L280.482 136.999ZM276.211 136.999L276.211 132.288C276.211 130.893 275.883 129.833 275.227 129.106C274.57 128.368 273.633 127.999 272.414 127.999C271.16 127.999 270.146 128.368 269.373 129.106C268.6 129.844 268.201 130.864 268.178 132.165L268.178 136.999L276.211 136.999ZM285.264 109.8L285.264 98.603L289.5 98.603L289.5 115.074L263.906 115.074L263.906 109.8L285.264 109.8ZM278.408 76.2035L278.408 86.3285L285.264 86.3285L285.264 74.4457L289.5 74.4457L289.5 91.602L263.906 91.602L263.906 74.4809L268.178 74.4809L268.178 86.3285L274.277 86.3285L274.277 76.2035L278.408 76.2035Z" fill="white"/>
<path d="M280.482 218.804L279.982 218.804L279.982 219.304L280.482 219.304L280.482 218.804ZM289.5 218.804L290 218.804L290 218.304L289.5 218.304L289.5 218.804ZM289.5 224.078L289.5 224.578L290 224.578L290 224.078L289.5 224.078ZM263.906 224.078L263.406 224.078L263.406 224.578L263.906 224.578L263.906 224.078ZM264.961 209.031L265.411 209.249L265.412 209.247L264.961 209.031ZM267.967 205.656L268.225 206.084L268.227 206.083L267.967 205.656ZM278.32 207.062L278.703 206.74L278.702 206.74L278.32 207.062ZM276.211 218.804L276.211 219.304L276.711 219.304L276.711 218.804L276.211 218.804ZM275.227 210.912L274.853 211.244L274.856 211.247L275.227 210.912ZM268.178 213.97L267.678 213.961L267.678 213.97L268.178 213.97ZM268.178 218.804L267.678 218.804L267.678 219.304L268.178 219.304L268.178 218.804ZM280.482 219.304L289.5 219.304L289.5 218.304L280.482 218.304L280.482 219.304ZM289 218.804L289 224.078L290 224.078L290 218.804L289 218.804ZM289.5 223.578L263.906 223.578L263.906 224.578L289.5 224.578L289.5 223.578ZM264.406 224.078L264.406 214.093L263.406 214.093L263.406 224.078L264.406 224.078ZM264.406 214.093C264.406 212.233 264.746 210.622 265.411 209.249L264.511 208.813C263.769 210.346 263.406 212.11 263.406 214.093L264.406 214.093ZM265.412 209.247C266.076 207.864 267.014 206.815 268.225 206.084L267.708 205.228C266.318 206.067 265.252 207.268 264.51 208.814L265.412 209.247ZM268.227 206.083C269.43 205.35 270.809 204.978 272.379 204.978L272.379 203.978C270.644 203.978 269.081 204.391 267.707 205.229L268.227 206.083ZM272.379 204.978C274.758 204.978 276.591 205.788 277.938 207.384L278.702 206.74C277.143 204.891 275.015 203.978 272.379 203.978L272.379 204.978ZM277.938 207.384C279.28 208.977 279.982 211.222 279.982 214.181L280.982 214.181C280.982 211.07 280.243 208.569 278.703 206.74L277.938 207.384ZM279.982 214.181L279.982 218.804L280.982 218.804L280.982 214.181L279.982 214.181ZM276.711 218.804L276.711 214.093L275.711 214.093L275.711 218.804L276.711 218.804ZM276.711 214.093C276.711 212.627 276.366 211.428 275.598 210.577L274.856 211.247C275.399 211.849 275.711 212.77 275.711 214.093L276.711 214.093ZM275.6 210.58C274.828 209.71 273.74 209.304 272.414 209.304L272.414 210.304C273.526 210.304 274.313 210.637 274.853 211.244L275.6 210.58ZM272.414 209.304C271.055 209.304 269.91 209.708 269.028 210.55L269.718 211.273C270.383 210.639 271.265 210.304 272.414 210.304L272.414 209.304ZM269.028 210.55C268.138 211.4 267.703 212.558 267.678 213.961L268.678 213.979C268.699 212.781 269.062 211.9 269.718 211.273L269.028 210.55ZM267.678 213.97L267.678 218.804L268.678 218.804L268.678 213.97L267.678 213.97ZM268.178 219.304L276.211 219.304L276.211 218.304L268.178 218.304L268.178 219.304ZM263.906 177.508L263.906 177.008L263.406 177.008L263.406 177.508L263.906 177.508ZM287.408 180.145L287.041 180.485L287.043 180.486L287.408 180.145ZM280.957 197.126L280.957 197.626L280.963 197.626L280.957 197.126ZM263.906 197.126L263.406 197.126L263.406 197.626L263.906 197.626L263.906 197.126ZM263.906 191.852L263.906 191.352L263.406 191.352L263.406 191.852L263.906 191.852ZM284.473 190.657L284.831 191.005L284.837 191L284.473 190.657ZM280.939 182.799L280.947 182.299L280.939 182.299L280.939 182.799ZM263.906 182.799L263.406 182.799L263.406 183.299L263.906 183.299L263.906 182.799ZM263.906 178.008L280.764 178.008L280.764 177.008L263.906 177.008L263.906 178.008ZM280.764 178.008C283.451 178.008 285.523 178.847 287.041 180.485L287.775 179.805C286.035 177.928 283.678 177.008 280.764 177.008L280.764 178.008ZM287.043 180.486C288.564 182.117 289.352 184.373 289.352 187.317L290.352 187.317C290.352 184.191 289.511 181.666 287.774 179.804L287.043 180.486ZM289.352 187.317C289.352 190.215 288.586 192.458 287.107 194.102L287.85 194.771C289.535 192.899 290.352 190.395 290.352 187.317L289.352 187.317ZM287.107 194.102C285.634 195.738 283.603 196.592 280.951 196.626L280.963 197.626C283.843 197.589 286.159 196.65 287.85 194.771L287.107 194.102ZM280.957 196.626L263.906 196.626L263.906 197.626L280.957 197.626L280.957 196.626ZM264.406 197.126L264.406 191.852L263.406 191.852L263.406 197.126L264.406 197.126ZM263.906 192.352L280.799 192.352L280.799 191.352L263.906 191.352L263.906 192.352ZM280.799 192.352C282.542 192.352 283.925 191.939 284.831 191.005L284.114 190.309C283.473 190.969 282.408 191.352 280.799 191.352L280.799 192.352ZM284.837 191C285.708 190.075 286.115 188.826 286.115 187.317L285.115 187.317C285.115 188.644 284.761 189.622 284.109 190.314L284.837 191ZM286.115 187.317C286.115 185.75 285.702 184.482 284.794 183.604C283.89 182.731 282.577 182.324 280.947 182.299L280.932 183.299C282.419 183.322 283.444 183.691 284.099 184.324C284.749 184.952 285.115 185.919 285.115 187.317L286.115 187.317ZM280.939 182.299L263.906 182.299L263.906 183.299L280.939 183.299L280.939 182.299ZM264.406 182.799L264.406 177.508L263.406 177.508L263.406 182.799L264.406 182.799ZM280.131 159.75L279.903 159.305L279.631 159.444L279.631 159.75L280.131 159.75ZM280.131 163.951L279.631 163.951L279.631 164.451L280.131 164.451L280.131 163.951ZM289.5 163.951L290 163.951L290 163.451L289.5 163.451L289.5 163.951ZM289.5 169.224L289.5 169.724L290 169.724L290 169.224L289.5 169.224ZM263.906 169.224L263.406 169.224L263.406 169.724L263.906 169.724L263.906 169.224ZM276.018 151.4L275.745 151.819L275.746 151.82L276.018 151.4ZM278.795 154.828L278.339 155.033L278.558 155.519L279.029 155.27L278.795 154.828ZM289.254 149.291L289.254 148.791L289.13 148.791L289.02 148.849L289.254 149.291ZM289.5 149.291L290 149.291L290 148.791L289.5 148.791L289.5 149.291ZM289.5 154.951L289.728 155.396L290 155.256L290 154.951L289.5 154.951ZM275.859 163.951L275.859 164.451L276.359 164.451L276.359 163.951L275.859 163.951ZM274.857 156.621L275.226 156.282L275.223 156.279L274.857 156.621ZM269.215 156.568L269.565 156.924L269.568 156.921L269.215 156.568ZM268.178 163.951L267.678 163.951L267.678 164.451L268.178 164.451L268.178 163.951ZM279.631 159.75L279.631 163.951L280.631 163.951L280.631 159.75L279.631 159.75ZM280.131 164.451L289.5 164.451L289.5 163.451L280.131 163.451L280.131 164.451ZM289 163.951L289 169.224L290 169.224L290 163.951L289 163.951ZM289.5 168.724L263.906 168.724L263.906 169.724L289.5 169.724L289.5 168.724ZM264.406 169.224L264.406 159.714L263.406 159.714L263.406 169.224L264.406 169.224ZM264.406 159.714C264.406 156.759 265.066 154.556 266.314 153.036L265.541 152.401C264.095 154.162 263.406 156.623 263.406 159.714L264.406 159.714ZM266.314 153.036C267.551 151.53 269.303 150.757 271.641 150.757L271.641 149.757C269.057 149.757 267 150.626 265.541 152.401L266.314 153.036ZM271.641 150.757C273.314 150.757 274.672 151.122 275.745 151.819L276.29 150.981C275.019 150.155 273.459 149.757 271.641 149.757L271.641 150.757ZM275.746 151.82C276.809 152.507 277.678 153.566 278.339 155.033L279.251 154.622C278.529 153.019 277.546 151.793 276.289 150.98L275.746 151.82ZM279.029 155.27L289.488 149.732L289.02 148.849L278.561 154.386L279.029 155.27ZM289.254 149.791L289.5 149.791L289.5 148.791L289.254 148.791L289.254 149.791ZM289 149.291L289 154.951L290 154.951L290 149.291L289 149.291ZM289.272 154.506L279.903 159.305L280.359 160.195L289.728 155.396L289.272 154.506ZM276.359 163.951L276.359 159.697L275.359 159.697L275.359 163.951L276.359 163.951ZM276.359 159.697C276.359 158.291 276.004 157.129 275.225 156.282L274.489 156.959C275.047 157.566 275.359 158.454 275.359 159.697L276.359 159.697ZM275.223 156.279C274.43 155.432 273.356 155.031 272.062 155.031L272.062 156.031C273.136 156.031 273.925 156.356 274.492 156.962L275.223 156.279ZM272.062 155.031C270.756 155.031 269.667 155.408 268.861 156.214L269.568 156.921C270.145 156.345 270.955 156.031 272.062 156.031L272.062 155.031ZM268.864 156.211C268.041 157.021 267.678 158.224 267.678 159.714L268.678 159.714C268.678 158.368 269.006 157.474 269.565 156.924L268.864 156.211ZM267.678 159.714L267.678 163.951L268.678 163.951L268.678 159.714L267.678 159.714ZM268.178 164.451L275.859 164.451L275.859 163.451L268.178 163.451L268.178 164.451ZM280.482 136.999L279.982 136.999L279.982 137.499L280.482 137.499L280.482 136.999ZM289.5 136.999L290 136.999L290 136.499L289.5 136.499L289.5 136.999ZM289.5 142.272L289.5 142.772L290 142.772L290 142.272L289.5 142.272ZM263.906 142.272L263.406 142.272L263.406 142.772L263.906 142.772L263.906 142.272ZM264.961 127.225L265.411 127.443L265.412 127.441L264.961 127.225ZM267.967 123.85L268.225 124.278L268.227 124.277L267.967 123.85ZM278.32 125.256L278.703 124.934L278.702 124.934L278.32 125.256ZM276.211 136.999L276.211 137.499L276.711 137.499L276.711 136.999L276.211 136.999ZM275.227 129.106L274.853 129.438L274.856 129.441L275.227 129.106ZM268.178 132.165L267.678 132.156L267.678 132.165L268.178 132.165ZM268.178 136.999L267.678 136.999L267.678 137.499L268.178 137.499L268.178 136.999ZM280.482 137.499L289.5 137.499L289.5 136.499L280.482 136.499L280.482 137.499ZM289 136.999L289 142.272L290 142.272L290 136.999L289 136.999ZM289.5 141.772L263.906 141.772L263.906 142.772L289.5 142.772L289.5 141.772ZM264.406 142.272L264.406 132.288L263.406 132.288L263.406 142.272L264.406 142.272ZM264.406 132.288C264.406 130.427 264.746 128.816 265.411 127.443L264.511 127.007C263.769 128.54 263.406 130.305 263.406 132.288L264.406 132.288ZM265.412 127.441C266.076 126.058 267.014 125.009 268.225 124.278L267.708 123.422C266.318 124.261 265.252 125.462 264.51 127.009L265.412 127.441ZM268.227 124.277C269.43 123.544 270.809 123.172 272.379 123.172L272.379 122.172C270.644 122.172 269.081 122.586 267.707 123.423L268.227 124.277ZM272.379 123.172C274.758 123.172 276.591 123.982 277.938 125.579L278.702 124.934C277.143 123.085 275.015 122.172 272.379 122.172L272.379 123.172ZM277.938 125.578C279.28 127.172 279.982 129.416 279.982 132.375L280.982 132.375C280.982 129.265 280.243 126.763 278.703 124.934L277.938 125.578ZM279.982 132.375L279.982 136.999L280.982 136.999L280.982 132.375L279.982 132.375ZM276.711 136.999L276.711 132.288L275.711 132.288L275.711 136.999L276.711 136.999ZM276.711 132.288C276.711 130.821 276.366 129.622 275.598 128.771L274.856 129.441C275.399 130.043 275.711 130.965 275.711 132.288L276.711 132.288ZM275.6 128.774C274.828 127.904 273.74 127.499 272.414 127.499L272.414 128.499C273.526 128.499 274.313 128.831 274.853 129.438L275.6 128.774ZM272.414 127.499C271.055 127.499 269.91 127.902 269.028 128.744L269.718 129.468C270.383 128.833 271.265 128.499 272.414 128.499L272.414 127.499ZM269.028 128.744C268.138 129.594 267.703 130.752 267.678 132.156L268.678 132.174C268.699 130.975 269.062 130.094 269.718 129.468L269.028 128.744ZM267.678 132.165L267.678 136.999L268.678 136.999L268.678 132.165L267.678 132.165ZM268.178 137.499L276.211 137.499L276.211 136.499L268.178 136.499L268.178 137.499ZM285.264 109.8L285.264 110.3L285.764 110.3L285.764 109.8L285.264 109.8ZM285.264 98.603L285.264 98.103L284.764 98.103L284.764 98.603L285.264 98.603ZM289.5 98.603L290 98.603L290 98.103L289.5 98.103L289.5 98.603ZM289.5 115.074L289.5 115.574L290 115.574L290 115.074L289.5 115.074ZM263.906 115.074L263.406 115.074L263.406 115.574L263.906 115.574L263.906 115.074ZM263.906 109.8L263.906 109.3L263.406 109.3L263.406 109.8L263.906 109.8ZM285.764 109.8L285.764 98.603L284.764 98.603L284.764 109.8L285.764 109.8ZM285.264 99.103L289.5 99.103L289.5 98.103L285.264 98.103L285.264 99.103ZM289 98.603L289 115.074L290 115.074L290 98.603L289 98.603ZM289.5 114.574L263.906 114.574L263.906 115.574L289.5 115.574L289.5 114.574ZM264.406 115.074L264.406 109.8L263.406 109.8L263.406 115.074L264.406 115.074ZM263.906 110.3L285.264 110.3L285.264 109.3L263.906 109.3L263.906 110.3ZM278.408 76.2035L278.908 76.2035L278.908 75.7035L278.408 75.7035L278.408 76.2035ZM278.408 86.3285L277.908 86.3285L277.908 86.8285L278.408 86.8285L278.408 86.3285ZM285.264 86.3285L285.264 86.8285L285.764 86.8285L285.764 86.3285L285.264 86.3285ZM285.264 74.4457L285.264 73.9457L284.764 73.9457L284.764 74.4457L285.264 74.4457ZM289.5 74.4457L290 74.4457L290 73.9457L289.5 73.9457L289.5 74.4457ZM289.5 91.602L289.5 92.102L290 92.102L290 91.602L289.5 91.602ZM263.906 91.602L263.406 91.602L263.406 92.102L263.906 92.102L263.906 91.602ZM263.906 74.4809L263.906 73.9809L263.406 73.9809L263.406 74.4809L263.906 74.4809ZM268.178 74.4809L268.678 74.4809L268.678 73.9809L268.178 73.9809L268.178 74.4809ZM268.178 86.3285L267.678 86.3285L267.678 86.8285L268.178 86.8285L268.178 86.3285ZM274.277 86.3285L274.277 86.8285L274.777 86.8285L274.777 86.3285L274.277 86.3285ZM274.277 76.2035L274.277 75.7035L273.777 75.7035L273.777 76.2035L274.277 76.2035ZM277.908 76.2035L277.908 86.3285L278.908 86.3285L278.908 76.2035L277.908 76.2035ZM278.408 86.8285L285.264 86.8285L285.264 85.8285L278.408 85.8285L278.408 86.8285ZM285.764 86.3285L285.764 74.4457L284.764 74.4457L284.764 86.3285L285.764 86.3285ZM285.264 74.9457L289.5 74.9457L289.5 73.9457L285.264 73.9457L285.264 74.9457ZM289 74.4457L289 91.602L290 91.602L290 74.4457L289 74.4457ZM289.5 91.102L263.906 91.102L263.906 92.102L289.5 92.102L289.5 91.102ZM264.406 91.602L264.406 74.4809L263.406 74.4809L263.406 91.602L264.406 91.602ZM263.906 74.9809L268.178 74.9809L268.178 73.9809L263.906 73.9809L263.906 74.9809ZM267.678 74.4809L267.678 86.3285L268.678 86.3285L268.678 74.4809L267.678 74.4809ZM268.178 86.8285L274.277 86.8285L274.277 85.8285L268.178 85.8285L268.178 86.8285ZM274.777 86.3285L274.777 76.2035L273.777 76.2035L273.777 86.3285L274.777 86.3285ZM274.277 76.7035L278.408 76.7035L278.408 75.7035L274.277 75.7035L274.277 76.7035Z" fill="#C902DA"/>
</g>
<path d="M58.9453 238.711H41.875V285H28.1641V238.711H11.4062V228.125H58.9453V238.711ZM61.9613 285H56.6879V259.406H61.9613V285ZM84.7841 273.908H74.6591V280.764H86.5419V285H69.3856V259.406H86.5067V263.678H74.6591V269.777H84.7841V273.908Z" fill="black"/>
<path d="M116.26 28.0098C116.114 29.3574 115.63 30.3887 114.81 31.1035C113.996 31.8184 112.909 32.1758 111.549 32.1758C110.6 32.1758 109.759 31.9385 109.027 31.4639C108.3 30.9893 107.738 30.3184 107.339 29.4512C106.941 28.5781 106.739 27.582 106.733 26.4629V24.8018C106.733 23.665 106.932 22.6572 107.331 21.7783C107.729 20.8994 108.3 20.2227 109.044 19.748C109.794 19.2676 110.656 19.0273 111.628 19.0273C112.999 19.0273 114.081 19.3994 114.872 20.1436C115.668 20.8818 116.131 21.9043 116.26 23.2109H115.17C114.901 21.0371 113.72 19.9502 111.628 19.9502C110.468 19.9502 109.542 20.3838 108.851 21.251C108.165 22.1182 107.823 23.3164 107.823 24.8457V26.4102C107.823 27.8867 108.157 29.0645 108.825 29.9434C109.498 30.8223 110.407 31.2617 111.549 31.2617C112.68 31.2617 113.533 30.9922 114.107 30.4531C114.681 29.9082 115.036 29.0938 115.17 28.0098H116.26ZM121.958 31.0859H128.277V32H120.868V19.2031H121.958V31.0859ZM141.217 26.2959C141.217 27.4736 141.012 28.5078 140.602 29.3984C140.198 30.2891 139.618 30.9746 138.862 31.4551C138.106 31.9355 137.233 32.1758 136.243 32.1758C134.749 32.1758 133.541 31.6426 132.622 30.5762C131.702 29.5039 131.242 28.0596 131.242 26.2432V24.9248C131.242 23.7588 131.447 22.7275 131.857 21.8311C132.273 20.9287 132.859 20.2373 133.615 19.7568C134.371 19.2705 135.241 19.0273 136.225 19.0273C137.209 19.0273 138.077 19.2646 138.827 19.7393C139.582 20.2139 140.165 20.8848 140.576 21.752C140.986 22.6191 141.2 23.624 141.217 24.7666V26.2959ZM140.136 24.9072C140.136 23.3662 139.788 22.1592 139.09 21.2861C138.393 20.4131 137.438 19.9766 136.225 19.9766C135.036 19.9766 134.086 20.416 133.377 21.2949C132.674 22.168 132.323 23.3896 132.323 24.96V26.2959C132.323 27.8135 132.674 29.0176 133.377 29.9082C134.081 30.793 135.036 31.2354 136.243 31.2354C137.467 31.2354 138.422 30.7988 139.108 29.9258C139.793 29.0469 140.136 27.8252 140.136 26.2607V24.9072ZM154.359 20.126H149.974V32H148.893V20.126H144.516V19.2031H154.359V20.126ZM167.897 32H166.807V25.8652H159.495V32H158.414V19.2031H159.495V24.9512H166.807V19.2031H167.897V32ZM180.204 25.8652H174.219V31.0859H181.101V32H173.138V19.2031H181.057V20.126H174.219V24.9512H180.204V25.8652ZM192.608 28.8535C192.608 28.1445 192.359 27.585 191.861 27.1748C191.363 26.7588 190.452 26.3662 189.128 25.9971C187.803 25.6221 186.836 25.2148 186.227 24.7754C185.36 24.1543 184.926 23.3398 184.926 22.332C184.926 21.3535 185.328 20.5596 186.13 19.9502C186.939 19.335 187.97 19.0273 189.224 19.0273C190.074 19.0273 190.833 19.1914 191.501 19.5195C192.174 19.8477 192.696 20.3047 193.065 20.8906C193.434 21.4766 193.619 22.1299 193.619 22.8506H192.529C192.529 21.9775 192.23 21.2773 191.632 20.75C191.035 20.2168 190.232 19.9502 189.224 19.9502C188.246 19.9502 187.466 20.1699 186.886 20.6094C186.306 21.043 186.016 21.6113 186.016 22.3145C186.016 22.9648 186.277 23.4951 186.798 23.9053C187.32 24.3154 188.155 24.6787 189.303 24.9951C190.452 25.3057 191.322 25.6309 191.914 25.9707C192.505 26.3047 192.951 26.7061 193.25 27.1748C193.548 27.6436 193.698 28.1973 193.698 28.8359C193.698 29.8438 193.294 30.6523 192.485 31.2617C191.682 31.8711 190.622 32.1758 189.303 32.1758C188.401 32.1758 187.572 32.0146 186.816 31.6924C186.066 31.3701 185.495 30.9189 185.102 30.3389C184.715 29.7588 184.522 29.0938 184.522 28.3438H185.603C185.603 29.2461 185.94 29.958 186.614 30.4795C187.288 31.001 188.184 31.2617 189.303 31.2617C190.299 31.2617 191.099 31.042 191.703 30.6025C192.306 30.1631 192.608 29.5801 192.608 28.8535Z" fill="black"/>
<g clip-path="url(#clip0)">
<path fill-rule="evenodd" clip-rule="evenodd" d="M151.841 194.486C144.319 190.565 136.419 187.575 128.286 185.245C127.942 186.61 127.598 187.995 127.245 189.381C134.141 191.482 140.861 194.462 147.065 197.729C152.018 200.337 156.889 203.236 161.398 206.56C163.017 207.754 164.679 208.981 166.308 210.276C167.258 208.762 168.147 207.195 168.987 205.605C163.495 201.583 157.973 197.681 151.841 194.486Z" fill="#8A619A"/>
<path fill-rule="evenodd" clip-rule="evenodd" d="M133.602 162.492C138.578 163.495 143.469 164.903 148.207 166.752C152.782 168.533 157.691 170.64 162.128 173.276C161.761 171.69 161.398 170.104 161.045 168.514C160.987 168.256 160.925 167.994 160.873 167.736C160.873 167.736 160.873 167.731 160.868 167.731C160.591 166.489 160.314 165.247 160.042 164.001C156.951 162.325 153.752 160.853 150.451 159.617C145.494 157.763 140.326 156.373 135.087 155.495C134.767 157.076 134.437 158.656 134.093 160.237C133.931 160.987 133.769 161.742 133.602 162.492Z" fill="#8A619A"/>
<path fill-rule="evenodd" clip-rule="evenodd" d="M139.032 131.519C142.418 132.259 145.742 133.277 148.961 134.59C150.986 135.416 153.064 136.343 155.079 137.398C154.912 136.243 154.75 135.087 154.597 133.931C149.773 131.285 144.778 129.074 139.519 127.454C139.366 128.811 139.204 130.162 139.032 131.519Z" fill="#8A619A"/>
<path fill-rule="evenodd" clip-rule="evenodd" d="M139.839 118.079C140.035 118.113 140.236 118.141 140.436 118.151C141.205 118.199 142.012 118.07 142.881 117.817C143.426 117.659 143.951 117.473 144.467 117.301C144.472 117.296 144.477 117.296 144.481 117.296C144.486 117.291 144.491 117.291 144.496 117.291C145.169 116.904 145.966 116.732 146.821 116.684H146.869C146.874 116.68 146.874 116.68 146.883 116.684C146.883 116.684 146.883 116.684 146.888 116.684H146.893C147.065 116.665 147.237 116.656 147.414 116.656C149.787 114.268 151.77 111.541 153.226 108.446C154.253 106.259 155.041 103.899 155.442 101.511C155.624 100.441 155.648 99.3569 155.676 98.2829C155.294 98.0489 154.883 97.8479 154.444 97.6759C154.224 97.5899 154.004 97.5139 153.785 97.4519C150.905 105.146 144.309 112.62 136.486 115.71C136.744 116.059 137.021 116.389 137.317 116.68C138.12 117.473 138.951 117.907 139.839 118.079Z" fill="#8A619A"/>
<path fill-rule="evenodd" clip-rule="evenodd" d="M130.091 82.8369C131.71 82.3969 133.229 82.0439 134.657 81.7629C130.588 79.0499 126.285 77.2249 121.599 76.5989C119.961 77.7549 118.404 79.0739 116.947 80.5489C116.942 80.5539 116.938 80.5589 116.933 80.5679C116.838 80.6639 116.742 80.7589 116.652 80.8549C120.945 80.3439 125.42 81.0169 129.15 83.0989C129.461 83.0089 129.776 82.9229 130.091 82.8369Z" fill="#8A619A"/>
<path fill-rule="evenodd" clip-rule="evenodd" d="M163.193 85.3729C163.236 85.3919 163.28 85.4109 163.323 85.4309C163.881 85.6739 164.44 85.9269 164.989 86.1989C165.396 84.5609 165.782 82.9179 165.84 81.1459C165.887 79.5029 165.773 77.8749 165.52 76.2699C164.484 75.5579 163.413 74.9089 162.315 74.3209C163.428 77.8079 163.91 81.8289 163.193 85.3729Z" fill="#8A619A"/>
<path fill-rule="evenodd" clip-rule="evenodd" d="M184.275 167.784C183.626 167.234 182.957 166.718 182.269 166.236C176.194 167.449 168.968 163.79 164.732 159.941C162.807 158.193 161.183 156.202 159.793 154.052C160.152 155.963 160.514 157.873 160.882 159.779C161.149 161.159 161.426 162.539 161.713 163.915C161.79 164.302 161.871 164.683 161.952 165.071V165.076C162.343 166.924 162.745 168.767 163.165 170.611C163.356 170.821 163.547 171.026 163.748 171.227C166.098 173.653 168.896 175.64 172.01 177.073C175.344 178.601 179.017 179.375 182.68 179.375H182.685C185.345 177.483 187.356 174.814 188.301 171.709V171.704C186.974 170.386 185.708 169.001 184.275 167.784Z" fill="#683AAC"/>
<path fill-rule="evenodd" clip-rule="evenodd" d="M146.774 198.23C140.378 194.792 133.812 192.28 127.049 190.154C125.921 194.581 124.709 199.042 123.156 203.317C125.597 208.246 128.424 212.993 131.997 217.029C135.789 221.318 141.057 224.981 146.659 227.106C152.261 224.981 157.524 221.318 161.317 217.029C162.907 215.238 164.35 213.299 165.672 211.269C163.829 209.679 161.957 208.117 159.98 206.665C155.753 203.57 151.392 200.714 146.774 198.23Z" fill="#683AAC"/>
<path fill-rule="evenodd" clip-rule="evenodd" d="M162.43 174.565C161.111 173.739 159.779 172.922 158.403 172.187C154.802 170.252 151.077 168.576 147.261 167.1C142.781 165.367 138.191 163.948 133.525 162.85C131.954 170.037 130.32 177.206 128.515 184.337C128.458 184.557 128.405 184.776 128.348 184.996C136.443 187.05 144.3 190.078 151.784 193.784C157.84 196.784 164.077 200.217 169.617 204.382C169.804 204.029 169.981 203.675 170.157 203.317C167.922 197.161 166.389 190.618 164.799 184.337C163.977 181.084 163.189 177.832 162.43 174.565Z" fill="#683AAC"/>
<path fill-rule="evenodd" clip-rule="evenodd" d="M159.788 162.845C159.597 161.975 159.411 161.106 159.22 160.237C158.394 156.431 157.634 152.624 156.947 148.808C156.947 148.804 156.942 148.804 156.942 148.799C156.808 148.073 156.679 147.347 156.555 146.621C156.097 143.999 155.667 141.367 155.275 138.736V138.731C153.131 137.513 150.939 136.371 148.627 135.383C145.48 134.045 142.256 132.923 138.97 132.02C137.986 139.705 136.725 147.347 135.192 154.969C140.603 155.638 145.904 156.937 151.063 158.895C154.047 160.027 156.971 161.34 159.788 162.845Z" fill="#683AAC"/>
<path fill-rule="evenodd" clip-rule="evenodd" d="M140.068 102.934C140.001 102.887 139.93 102.844 139.858 102.796C137.551 101.282 134.934 100.25 132.422 101.984C131.023 102.949 130.721 104.286 130.994 105.724C131.032 105.943 131.085 106.163 131.151 106.383C131.452 107.438 132.011 108.527 132.613 109.554C132.881 110.013 133.162 110.452 133.429 110.877C133.458 110.915 133.482 110.953 133.506 110.992C133.692 111.278 133.874 111.56 134.041 111.823C134.208 112.08 134.365 112.319 134.504 112.549C134.748 112.945 134.991 113.37 135.249 113.8C135.359 113.986 135.469 114.177 135.588 114.364C135.722 114.583 135.86 114.808 136.004 115.022C139.438 113.236 142.638 111.302 145.542 108.451C148.837 105.222 151.416 101.459 153.417 97.347C148.579 96.052 144.094 98.832 140.699 102.28C140.608 102.371 140.517 102.466 140.426 102.557C141.32 103.302 142.136 104.133 142.853 104.935C142.867 104.955 142.848 104.988 142.824 104.969C141.988 104.339 141.057 103.599 140.068 102.934Z" fill="#683AAC"/>
<path fill-rule="evenodd" clip-rule="evenodd" d="M158.828 110.662C158.934 110.308 159.02 109.955 159.091 109.592C159.129 109.434 159.158 109.272 159.182 109.115C159.235 108.819 159.278 108.522 159.316 108.222C159.382 107.62 159.421 107.008 159.43 106.397C159.435 106.077 159.435 105.762 159.421 105.442C159.397 104.52 159.311 103.594 159.177 102.682C158.604 101.139 157.701 99.787 156.426 98.798C156.216 102.094 154.926 105.69 153.728 108.317C152.299 111.455 150.294 114.316 147.796 116.665C147.906 116.675 148.02 116.684 148.135 116.699C148.145 116.699 148.154 116.704 148.159 116.704H148.164C149.787 116.823 151.325 117.234 152.796 117.11C152.968 117.1 153.14 117.076 153.307 117.048C154.282 116.876 155.227 116.427 156.149 115.457C157.463 114.067 158.322 112.429 158.828 110.662Z" fill="#683AAC"/>
<path fill-rule="evenodd" clip-rule="evenodd" d="M147.209 117.487H147.199C147.055 117.516 146.907 117.544 146.764 117.582H146.759C146.616 117.616 146.482 117.649 146.339 117.692C145.26 117.984 144.171 118.404 143.087 118.729C143.082 118.734 143.077 118.738 143.072 118.743C143.063 118.753 143.044 118.748 143.044 118.738C142.136 119.006 141.234 119.206 140.345 119.187C140.126 121.757 139.868 124.322 139.581 126.881C144.73 128.162 149.763 130.043 154.415 132.575C153.809 127.899 153.302 123.204 152.906 118.49C151.139 118.719 149.1 117.817 147.209 117.487Z" fill="#683AAC"/>
<path fill-rule="evenodd" clip-rule="evenodd" d="M171.681 102.677C168.299 105.213 164.512 106.12 160.586 106.349C160.548 107.018 160.476 107.686 160.361 108.346C161.283 108.427 162.2 108.446 163.155 108.441C163.198 108.441 163.203 108.498 163.165 108.513C162.272 108.819 161.254 109.038 160.223 109.1C160.185 109.325 160.132 109.544 160.075 109.764C161.021 109.998 161.942 110.399 162.769 110.896C162.807 110.915 162.783 110.973 162.74 110.963C161.756 110.734 160.792 110.657 159.836 110.648C159.635 111.33 159.392 111.999 159.11 112.644C159.001 112.902 158.886 113.155 158.761 113.404C158.761 113.404 158.761 113.408 158.757 113.408C164.063 112.807 168.92 117.329 174.183 115.615C177.918 114.397 178.396 110.49 177.847 107.118C177.512 105.074 177.149 103.187 177.154 101.201C176.228 104.267 174.809 107.281 173.782 110.251C173.706 110.466 173.367 110.437 173.371 110.194C173.429 106.774 175.678 103.632 176.643 100.427C177.321 98.1779 177.579 95.8559 177.474 93.5449C176.954 97.1649 174.694 100.417 171.681 102.677Z" fill="#683AAC"/>
<path fill-rule="evenodd" clip-rule="evenodd" d="M132.881 111.88C130.841 112.014 128.835 112.276 126.853 112.964C126.82 112.974 126.8 112.926 126.829 112.907C128.467 111.842 130.311 111.097 132.207 110.92C132.202 110.915 132.197 110.906 132.192 110.896C130.683 110.634 129.256 109.836 128.195 108.704C128.128 108.632 128.195 108.494 128.296 108.527C129.227 108.833 130.158 109.062 131.094 109.258C130.774 108.756 130.464 108.245 130.177 107.72C129.948 107.295 129.766 106.855 129.642 106.407C124.785 106.44 120.047 105.776 115.911 102.677C114.837 101.879 113.862 100.948 113.027 99.9259C113.122 100.141 113.222 100.35 113.327 100.565C114.999 103.851 116.761 107.042 115.209 110.705C115.113 110.925 114.794 110.758 114.841 110.547C115.414 107.873 114.502 105.514 113.341 103.197C112.153 109.244 112.678 117.391 120.138 118.59C125.372 119.431 129.256 114.368 134.217 113.838C133.783 113.179 133.334 112.53 132.881 111.88Z" fill="#683AAC"/>
<path fill-rule="evenodd" clip-rule="evenodd" d="M116.398 91.4339C119.087 87.0299 123.175 84.9569 127.817 83.5009C124.159 81.8389 120.272 80.9599 116.288 81.2419C115.873 81.6809 115.477 82.1349 115.094 82.6029C113.055 85.1249 111.508 88.0859 111.412 91.3859C111.331 94.4139 112.625 97.1839 114.622 99.3709C113.686 96.7829 114.889 93.9079 116.398 91.4339Z" fill="#683AAC"/>
<path fill-rule="evenodd" clip-rule="evenodd" d="M150.661 81.3419C154.731 82.0779 158.699 83.3289 162.415 85.0379C162.425 85.0429 162.439 85.0479 162.449 85.0529C162.697 83.4149 162.912 81.7819 162.84 80.0719C162.759 78.0179 162.396 76.0209 161.833 74.0679C156.293 71.1979 150.089 69.8319 143.794 69.7889C136.042 69.8409 128.42 71.9099 122.015 76.3079C126.872 76.8479 131.677 78.6049 135.421 81.6089C143.846 80.0479 148.813 81.0079 150.661 81.3419Z" fill="#683AAC"/>
<path fill-rule="evenodd" clip-rule="evenodd" d="M170.993 90.689C172.87 93.043 173.868 96.473 173.123 99.195C175.033 97.036 176.256 94.333 176.175 91.386C176.146 90.254 175.946 89.165 175.607 88.119C175.32 87.217 174.933 86.347 174.47 85.516C174.465 85.512 174.465 85.507 174.465 85.502C173.548 83.84 172.34 82.321 171.046 80.96C169.426 79.265 167.674 77.769 165.82 76.475C166.117 78.147 166.265 79.842 166.236 81.562C166.207 83.119 166.126 84.91 165.787 86.605C167.755 87.641 169.57 88.912 170.993 90.689Z" fill="#683AAC"/>
<path fill-rule="evenodd" clip-rule="evenodd" d="M188.301 171.709C187.356 174.814 185.345 177.483 182.685 179.375H182.68C179.017 179.375 175.344 178.601 172.01 177.073C168.896 175.64 166.098 173.653 163.748 171.227C163.547 171.026 163.356 170.821 163.165 170.611C162.745 168.767 162.343 166.924 161.952 165.076V165.071C161.871 164.683 161.79 164.302 161.713 163.915C161.426 162.539 161.149 161.159 160.882 159.779C160.514 157.873 160.152 155.963 159.793 154.052C161.183 156.202 162.807 158.193 164.732 159.941C168.968 163.79 176.194 167.449 182.269 166.236C182.957 166.718 183.626 167.234 184.275 167.784C185.708 169.001 186.974 170.386 188.301 171.704V171.709ZM148.207 166.752C143.469 164.903 138.578 163.495 133.602 162.492C133.769 161.742 133.931 160.987 134.093 160.237C134.437 158.656 134.767 157.076 135.087 155.495C140.326 156.373 145.494 157.763 150.451 159.617C153.752 160.853 156.951 162.325 160.042 164.001C160.314 165.247 160.591 166.489 160.868 167.731C160.873 167.731 160.873 167.736 160.873 167.736C160.925 167.994 160.987 168.256 161.045 168.514C161.398 170.104 161.761 171.69 162.128 173.276C157.691 170.64 152.782 168.533 148.207 166.752ZM164.799 184.337C166.389 190.618 167.922 197.161 170.157 203.317C169.981 203.675 169.804 204.029 169.617 204.382C164.077 200.217 157.84 196.784 151.784 193.784C144.3 190.078 136.443 187.05 128.348 184.996C128.405 184.776 128.458 184.557 128.515 184.337C130.32 177.206 131.954 170.037 133.525 162.85C138.191 163.948 142.781 165.367 147.261 167.1C151.077 168.576 154.802 170.252 158.403 172.187C159.779 172.922 161.111 173.739 162.43 174.565C163.189 177.832 163.977 181.084 164.799 184.337ZM166.308 210.276C164.679 208.981 163.017 207.754 161.398 206.56C156.889 203.236 152.018 200.337 147.065 197.729C140.861 194.462 134.141 191.482 127.245 189.381C127.598 187.995 127.942 186.61 128.286 185.245C136.419 187.575 144.319 190.565 151.841 194.486C157.973 197.681 163.495 201.583 168.987 205.605C168.147 207.195 167.258 208.762 166.308 210.276ZM161.317 217.029C157.524 221.318 152.261 224.981 146.659 227.106C141.057 224.981 135.789 221.318 131.997 217.029C128.424 212.993 125.597 208.246 123.156 203.317C124.709 199.042 125.921 194.581 127.049 190.154C133.812 192.28 140.378 194.792 146.774 198.23C151.392 200.714 155.753 203.57 159.98 206.665C161.957 208.117 163.829 209.679 165.672 211.269C164.35 213.299 162.907 215.238 161.317 217.029ZM138.97 132.02C142.256 132.923 145.48 134.045 148.627 135.383C150.939 136.371 153.131 137.513 155.275 138.731V138.736C155.667 141.367 156.097 143.999 156.555 146.621C156.679 147.347 156.808 148.073 156.942 148.799C156.942 148.804 156.947 148.804 156.947 148.808C157.634 152.624 158.394 156.431 159.22 160.237C159.411 161.106 159.597 161.975 159.788 162.845C156.971 161.34 154.047 160.027 151.063 158.895C145.904 156.937 140.603 155.638 135.192 154.969C136.725 147.347 137.986 139.705 138.97 132.02ZM139.519 127.454C144.778 129.074 149.773 131.285 154.597 133.931C154.75 135.087 154.912 136.243 155.079 137.398C153.064 136.343 150.986 135.416 148.961 134.59C145.742 133.277 142.418 132.259 139.032 131.519C139.204 130.162 139.366 128.811 139.519 127.454ZM140.345 119.187C141.234 119.206 142.136 119.006 143.044 118.738C143.044 118.748 143.063 118.753 143.072 118.743C143.077 118.738 143.082 118.734 143.087 118.729C144.171 118.404 145.26 117.984 146.339 117.692C146.482 117.649 146.616 117.616 146.759 117.582H146.764C146.907 117.544 147.055 117.516 147.199 117.487H147.209C149.1 117.817 151.139 118.719 152.906 118.49C153.302 123.204 153.809 127.899 154.415 132.575C149.763 130.043 144.73 128.162 139.581 126.881C139.868 124.322 140.126 121.757 140.345 119.187ZM137.317 116.68C137.021 116.389 136.744 116.059 136.486 115.71C144.309 112.62 150.905 105.146 153.785 97.4519C154.004 97.5139 154.224 97.5899 154.444 97.6759C154.883 97.8479 155.294 98.0489 155.676 98.2829C155.648 99.3569 155.624 100.441 155.442 101.511C155.041 103.899 154.253 106.259 153.226 108.446C151.77 111.541 149.787 114.268 147.414 116.656C147.237 116.656 147.065 116.665 146.893 116.684H146.888C146.883 116.684 146.883 116.684 146.883 116.684C146.874 116.68 146.874 116.68 146.869 116.684H146.821C145.966 116.732 145.169 116.904 144.496 117.291C144.491 117.291 144.486 117.291 144.481 117.296C144.477 117.296 144.472 117.296 144.467 117.301C143.951 117.473 143.426 117.659 142.881 117.817C142.012 118.07 141.205 118.199 140.436 118.151C140.236 118.141 140.035 118.113 139.839 118.079C138.951 117.907 138.12 117.473 137.317 116.68ZM135.588 114.364C135.469 114.177 135.359 113.986 135.249 113.8C134.991 113.37 134.748 112.945 134.504 112.549C134.365 112.319 134.208 112.08 134.041 111.823C133.874 111.56 133.692 111.278 133.506 110.992C133.482 110.953 133.458 110.915 133.429 110.877C133.162 110.452 132.881 110.013 132.613 109.554C132.011 108.527 131.452 107.438 131.151 106.383C131.085 106.163 131.032 105.943 130.994 105.724C130.721 104.286 131.023 102.949 132.422 101.984C134.934 100.25 137.551 101.282 139.858 102.796C139.93 102.844 140.001 102.887 140.068 102.934C141.057 103.599 141.988 104.339 142.824 104.969C142.848 104.988 142.867 104.955 142.853 104.935C142.136 104.133 141.32 103.302 140.426 102.557C140.517 102.466 140.608 102.371 140.699 102.28C144.094 98.8319 148.579 96.0519 153.417 97.3469C151.416 101.459 148.837 105.222 145.542 108.451C142.638 111.302 139.438 113.236 136.004 115.022C135.86 114.808 135.722 114.583 135.588 114.364ZM120.138 118.59C112.678 117.391 112.153 109.244 113.341 103.197C114.502 105.514 115.414 107.873 114.841 110.547C114.794 110.758 115.113 110.925 115.209 110.705C116.761 107.042 114.999 103.851 113.327 100.565C113.222 100.35 113.122 100.141 113.027 99.9259C113.862 100.948 114.837 101.879 115.911 102.677C120.047 105.776 124.785 106.44 129.642 106.407C129.766 106.855 129.948 107.295 130.177 107.72C130.464 108.245 130.774 108.756 131.094 109.258C130.158 109.062 129.227 108.833 128.296 108.527C128.195 108.494 128.128 108.632 128.195 108.704C129.256 109.836 130.683 110.634 132.192 110.896C132.197 110.906 132.202 110.915 132.207 110.92C130.311 111.097 128.467 111.842 126.829 112.907C126.8 112.926 126.82 112.974 126.853 112.964C128.835 112.276 130.841 112.014 132.881 111.88C133.334 112.53 133.783 113.179 134.217 113.838C129.256 114.368 125.372 119.431 120.138 118.59ZM115.094 82.6029C115.477 82.1349 115.873 81.6809 116.288 81.2419C120.272 80.9599 124.159 81.8389 127.817 83.5009C123.175 84.9569 119.087 87.0299 116.398 91.4339C114.889 93.9079 113.686 96.7829 114.622 99.3709C112.625 97.1839 111.331 94.4139 111.412 91.3859C111.508 88.0859 113.055 85.1249 115.094 82.6029ZM116.933 80.5679C116.938 80.5589 116.942 80.5539 116.947 80.5489C118.404 79.0739 119.961 77.7549 121.599 76.5989C126.285 77.2249 130.588 79.0499 134.657 81.7629C133.229 82.0439 131.71 82.3969 130.091 82.8369C129.776 82.9229 129.461 83.0089 129.15 83.0989C125.42 81.0169 120.945 80.3439 116.652 80.8549C116.742 80.7589 116.838 80.6639 116.933 80.5679ZM143.794 69.7889C150.089 69.8319 156.293 71.1979 161.833 74.0679C162.396 76.0209 162.759 78.0179 162.84 80.0719C162.912 81.7819 162.697 83.4149 162.449 85.0529C162.439 85.0479 162.425 85.0429 162.415 85.0379C158.699 83.3289 154.731 82.0779 150.661 81.3419C148.813 81.0079 143.846 80.0479 135.421 81.6089C131.677 78.6049 126.872 76.8479 122.015 76.3079C128.42 71.9099 136.042 69.8409 143.794 69.7889ZM165.52 76.2699C165.773 77.8749 165.887 79.5029 165.84 81.1459C165.782 82.9179 165.396 84.5609 164.989 86.1989C164.44 85.9269 163.881 85.6739 163.323 85.4309C163.28 85.4109 163.236 85.3919 163.193 85.3729C163.91 81.8289 163.428 77.8079 162.315 74.3209C163.413 74.9089 164.484 75.5579 165.52 76.2699ZM171.046 80.9599C172.34 82.3209 173.548 83.8399 174.465 85.5019C174.465 85.5069 174.465 85.5119 174.47 85.5159C174.933 86.3469 175.32 87.2169 175.607 88.1189C175.946 89.1649 176.146 90.2539 176.175 91.3859C176.256 94.3329 175.033 97.0359 173.123 99.1949C173.868 96.4729 172.87 93.0429 170.993 90.6889C169.57 88.9119 167.755 87.6409 165.787 86.6049C166.126 84.9099 166.207 83.1189 166.236 81.5619C166.265 79.8419 166.117 78.1469 165.82 76.4749C167.674 77.7689 169.426 79.2649 171.046 80.9599ZM177.474 93.5449C177.579 95.8559 177.321 98.1779 176.643 100.427C175.678 103.632 173.429 106.774 173.371 110.194C173.367 110.437 173.706 110.466 173.782 110.251C174.809 107.281 176.228 104.267 177.154 101.201C177.149 103.187 177.512 105.074 177.847 107.118C178.396 110.49 177.918 114.397 174.183 115.615C168.92 117.329 164.063 112.807 158.757 113.408C158.761 113.408 158.761 113.404 158.761 113.404C158.886 113.155 159.001 112.902 159.11 112.644C159.392 111.999 159.635 111.33 159.836 110.648C160.792 110.657 161.756 110.734 162.74 110.963C162.783 110.973 162.807 110.915 162.769 110.896C161.942 110.399 161.021 109.998 160.075 109.764C160.132 109.544 160.185 109.325 160.223 109.1C161.254 109.038 162.272 108.819 163.165 108.513C163.203 108.498 163.198 108.441 163.155 108.441C162.2 108.446 161.283 108.427 160.361 108.346C160.476 107.686 160.548 107.018 160.586 106.349C164.512 106.12 168.299 105.213 171.681 102.677C174.694 100.417 176.954 97.1649 177.474 93.5449ZM154.047 95.9899C148.736 94.6099 143.756 97.9859 140.431 102.065C140.345 102.165 140.269 102.266 140.188 102.366C138.134 100.718 135.674 99.5579 133.033 100.169C130.244 100.814 129.107 103.192 129.461 105.595C125.53 105.194 121.613 104.291 118.323 102.342C114.397 99.0419 116.006 92.9049 119.555 89.4949C122.091 87.0489 125.301 85.6449 128.577 84.3989C128.792 84.3219 129.002 84.2459 129.213 84.1739C129.256 84.1549 129.303 84.1409 129.346 84.1259C129.666 84.0159 129.986 83.9069 130.306 83.8069C132.054 83.2379 133.821 82.7749 135.603 82.4069C135.808 82.3689 136.018 82.3259 136.223 82.2869C138.769 81.7909 141.348 81.4899 143.937 81.3509C143.956 81.3469 143.97 81.3509 143.989 81.3509C148.426 81.5859 152.82 82.3109 157.109 83.6489C158.876 84.3369 160.629 85.0579 162.32 85.8979C162.549 86.0079 162.769 86.1229 162.993 86.2419C163.586 86.5479 164.168 86.8679 164.741 87.2119C165.004 87.3699 165.267 87.5269 165.529 87.6939C166.15 88.0909 166.757 88.5109 167.349 88.9599C169.613 90.6789 171.604 93.0579 171.905 95.9899C172.115 98.0539 170.898 100.795 169.312 102.318C166.704 103.87 163.705 104.759 160.615 105.265C160.61 103.98 160.471 102.701 160.185 101.459C159.76 100.265 159.115 99.1759 158.193 98.2679C157.691 97.7669 157.104 97.3229 156.426 96.9449C156.211 96.8259 155.986 96.7109 155.753 96.6059C155.686 96.5729 155.624 96.5439 155.557 96.5159C155.127 96.3289 154.697 96.1759 154.267 96.0569C154.196 96.0329 154.119 96.0139 154.047 95.9899ZM156.149 115.457C155.227 116.427 154.282 116.876 153.307 117.048C153.14 117.076 152.968 117.1 152.796 117.11C151.325 117.234 149.787 116.823 148.164 116.704H148.159C148.154 116.704 148.145 116.699 148.135 116.699C148.02 116.684 147.906 116.675 147.796 116.665C150.294 114.316 152.299 111.455 153.728 108.317C154.926 105.69 156.216 102.094 156.426 98.7979C157.701 99.7869 158.604 101.139 159.177 102.682C159.311 103.594 159.397 104.52 159.421 105.442C159.435 105.762 159.435 106.077 159.43 106.397C159.421 107.008 159.382 107.62 159.316 108.222C159.278 108.522 159.235 108.819 159.182 109.115C159.158 109.272 159.129 109.434 159.091 109.592C159.02 109.955 158.934 110.308 158.828 110.662C158.322 112.429 157.463 114.067 156.149 115.457ZM188.65 170.305C187.308 168.528 185.503 167.072 183.511 165.916C182.914 165.567 182.302 165.243 181.682 164.951C181.266 164.999 180.851 165.042 180.435 165.071H180.43C178.067 165.257 175.75 165.142 173.324 164.307C169.77 163.084 166.532 160.911 163.929 158.212C162.2 156.416 160.739 154.439 159.473 152.328C159.468 152.328 159.468 152.323 159.468 152.323C158.69 148.168 157.935 144.008 157.195 139.849C157.109 139.371 157.028 138.898 156.942 138.425V138.42C156.736 137.245 156.531 136.076 156.326 134.9C156.245 134.442 156.163 133.979 156.087 133.52C155.208 128.481 154.358 123.429 153.522 118.385C153.522 118.38 153.522 118.38 153.522 118.375C155.8 117.802 157.443 115.868 158.528 113.857C158.551 113.809 158.58 113.762 158.599 113.714C158.637 113.719 158.68 113.724 158.718 113.728C162.807 114.235 167.502 117.062 171.772 117.062C173.357 117.062 174.88 116.675 176.295 115.634C180.989 112.185 178.238 106.039 177.55 101.148C177.503 100.819 177.464 100.494 177.441 100.179C177.574 99.6579 177.698 99.1329 177.794 98.6069C178.276 95.9999 178.152 93.3729 177.526 90.8369V90.8319C177.526 90.8319 177.526 90.8319 177.526 90.8269C177.479 90.3489 177.398 89.8719 177.283 89.3899C175.984 83.9399 171.155 79.4979 166.757 76.3849C166.394 76.1269 166.026 75.8779 165.653 75.6349C165.563 75.5729 165.472 75.5149 165.377 75.4529C164.311 74.7659 163.203 74.1299 162.057 73.5479C161.909 73.4659 161.761 73.3949 161.613 73.3229C158.666 71.8519 155.49 70.7199 152.228 69.9849C152.17 69.9659 152.113 69.9509 152.051 69.9419C149.372 69.2829 146.592 68.9819 143.799 69C141 68.9819 138.22 69.2829 135.541 69.9419C135.483 69.9509 135.421 69.9659 135.364 69.9849C130.201 71.1449 125.262 73.2989 121.079 76.2169C120.998 76.2699 120.916 76.3269 120.835 76.3849C120.787 76.4179 120.735 76.4559 120.687 76.4899C118.862 77.7929 116.966 79.3219 115.29 81.0559C115.19 81.1609 115.085 81.2699 114.989 81.3749C112.797 83.7059 111.016 86.3949 110.304 89.3899C109.946 90.8899 109.917 92.3649 110.151 93.7839C110.151 93.8079 110.156 93.8309 110.156 93.8549V93.8599C110.17 94.7819 110.271 95.7029 110.471 96.6249C110.939 98.7699 112.095 100.761 113.127 102.772C111.04 108.126 111.46 114.593 116.48 118.218C122.908 122.865 128.429 115.71 134.638 114.497C134.662 114.531 134.681 114.569 134.705 114.602C134.872 114.874 135.039 115.152 135.211 115.429C135.34 115.634 135.469 115.839 135.603 116.04C136.252 117.019 136.992 117.941 138.01 118.542C138.549 118.863 139.104 119.049 139.662 119.135C139.252 121.623 138.836 124.111 138.411 126.599C138.387 126.767 138.359 126.929 138.325 127.097V127.101C138.096 128.476 137.861 129.848 137.623 131.223C137.599 131.361 137.575 131.5 137.551 131.639V131.643C136.223 139.366 134.843 147.075 133.391 154.768C133.358 154.917 133.334 155.065 133.305 155.213C133.014 156.736 132.723 158.255 132.431 159.779C132.278 160.577 132.121 161.379 131.959 162.176C131.94 162.277 131.916 162.382 131.897 162.482C130.502 169.369 128.887 176.208 127.163 183.014C127.03 183.544 126.891 184.07 126.748 184.6C126.734 184.666 126.719 184.733 126.695 184.8C126.342 186.162 125.964 187.523 125.583 188.889C125.516 189.137 125.444 189.385 125.377 189.639C124.283 193.54 123.156 197.452 122.22 201.388C122.129 201.765 122.044 202.142 121.958 202.519C122.087 202.834 122.211 203.155 122.344 203.47C122.478 203.79 122.612 204.105 122.746 204.415C124.928 209.545 127.517 214.445 131.17 218.896C133.898 222.225 137.145 225.143 140.938 227.206C141.659 227.598 142.38 227.937 143.115 228.229C144.276 228.692 145.456 229.026 146.659 229.251C147.863 229.026 149.038 228.692 150.198 228.229C150.934 227.937 151.655 227.598 152.376 227.206C156.168 225.143 159.416 222.225 162.143 218.896C163.9 216.757 165.405 214.521 166.737 212.196C166.948 211.837 167.153 211.479 167.349 211.116C168.232 209.512 169.035 207.864 169.789 206.192C169.976 205.777 170.162 205.356 170.343 204.936C170.42 204.764 170.491 204.587 170.568 204.415C170.84 203.79 171.103 203.155 171.356 202.519C171.27 202.142 171.184 201.765 171.093 201.388C169.627 195.226 167.697 189.118 166.15 183.014C165.544 180.612 164.946 178.204 164.373 175.793V175.788C164.264 175.353 164.163 174.919 164.058 174.484C163.829 173.519 163.605 172.55 163.385 171.585C165.835 174.36 168.853 176.609 172.316 178.095C174.995 179.246 178.119 180.019 181.295 180.254C181.911 180.301 182.532 180.325 183.148 180.33C183.716 180.019 184.251 179.662 184.743 179.269C186.907 177.541 188.349 175.081 188.889 172.282V172.278C188.975 171.828 189.042 171.375 189.08 170.912C188.946 170.706 188.798 170.501 188.65 170.305Z" fill="#0A0B09"/>
</g>
<defs>
<filter id="filter0_d" x="262.406" y="72.9457" width="30.9453" height="154.632" filterUnits="userSpaceOnUse" color-interpolation-filters="sRGB">
<feFlood flood-opacity="0" result="BackgroundImageFix"/>
<feColorMatrix in="SourceAlpha" type="matrix" values="0 0 0 0 0 0 0 0 0 0 0 0 0 0 0 0 0 0 127 0"/>
<feOffset dx="1" dy="1"/>
<feGaussianBlur stdDeviation="1"/>
<feColorMatrix type="matrix" values="0 0 0 0 0 0 0 0 0 0 0 0 0 0 0 0 0 0 0.15 0"/>
<feBlend mode="normal" in2="BackgroundImageFix" result="effect1_dropShadow"/>
<feBlend mode="normal" in="SourceGraphic" in2="effect1_dropShadow" result="shape"/>
</filter>
<radialGradient id="paint0_radial" cx="0" cy="0" r="1" gradientUnits="userSpaceOnUse" gradientTransform="translate(150 150) rotate(90) scale(150)">
<stop offset="0.296875" stop-color="white" stop-opacity="0"/>
<stop offset="0.947917" stop-color="#9E00FF" stop-opacity="0.83"/>
</radialGradient>
<clipPath id="clip0">
<rect width="80" height="161" fill="white" transform="translate(110 69)"/>
</clipPath>
</defs>
</svg>
