<svg width="300" height="300" viewBox="0 0 300 300" fill="none" xmlns="http://www.w3.org/2000/svg">
<rect width="300" height="300" fill="white"/>
<rect width="300" height="300" fill="white"/>
<rect width="300" height="300" fill="white"/>
<rect width="300" height="300" fill="url(#paint0_radial)" fill-opacity="0.2"/>
<g filter="url(#filter0_d)">
<path d="M286.266 178.422C287.402 179.372 288.287 180.713 288.92 182.448C289.541 184.182 289.852 186.104 289.852 188.213C289.852 190.428 289.371 192.374 288.41 194.049C287.437 195.713 286.031 197.003 284.191 197.917C282.352 198.819 280.189 199.282 277.705 199.305L275.965 199.305C273.41 199.305 271.201 198.878 269.338 198.022C267.463 197.155 266.033 195.913 265.049 194.295C264.053 192.667 263.555 190.762 263.555 188.583C263.555 185.547 264.281 183.174 265.734 181.463C267.176 179.753 269.279 178.739 272.045 178.422L272.045 183.555C270.58 183.79 269.508 184.311 268.828 185.12C268.148 185.917 267.809 187.018 267.809 188.424C267.809 190.217 268.482 191.583 269.83 192.52C271.178 193.458 273.182 193.932 275.842 193.944L277.477 193.944C280.16 193.944 282.187 193.434 283.559 192.415C284.93 191.395 285.615 189.901 285.615 187.932C285.615 185.952 285.193 184.54 284.35 183.696L279.937 183.696L279.937 188.495L276.053 188.495L276.053 178.422L286.266 178.422ZM280.131 160.699L280.131 164.9L289.5 164.9L289.5 170.173L263.906 170.173L263.906 160.664C263.906 157.64 264.58 155.308 265.928 153.668C267.275 152.027 269.18 151.207 271.641 151.207C273.387 151.207 274.846 151.587 276.018 152.349C277.178 153.099 278.104 154.242 278.795 155.777L289.254 150.24L289.5 150.24L289.5 155.9L280.131 160.699ZM275.859 164.9L275.859 160.646C275.859 159.322 275.525 158.296 274.857 157.57C274.178 156.843 273.246 156.48 272.062 156.48C270.855 156.48 269.906 156.826 269.215 157.517C268.523 158.197 268.178 159.246 268.178 160.664L268.178 164.9L275.859 164.9ZM278.408 127.823L278.408 137.948L285.264 137.948L285.264 126.065L289.5 126.065L289.5 143.221L263.906 143.221L263.906 126.1L268.178 126.1L268.178 137.948L274.277 137.948L274.277 127.823L278.408 127.823ZM275.437 110.187L263.906 104.861L263.906 99.0952L280.219 107.497L289.5 107.497L289.5 112.859L280.219 112.859L263.906 121.261L263.906 115.478L275.437 110.187Z" fill="white"/>
<path d="M286.266 178.422L286.586 178.039L286.447 177.922L286.266 177.922L286.266 178.422ZM288.92 182.448L289.391 182.279L289.39 182.276L288.92 182.448ZM288.41 194.049L288.842 194.302L288.844 194.298L288.41 194.049ZM284.191 197.917L284.412 198.365L284.414 198.364L284.191 197.917ZM277.705 199.305L277.705 199.805L277.71 199.805L277.705 199.305ZM269.338 198.022L269.128 198.476L269.129 198.476L269.338 198.022ZM265.049 194.295L265.476 194.035L265.475 194.035L265.049 194.295ZM265.734 181.463L266.115 181.787L266.117 181.786L265.734 181.463ZM272.045 178.422L272.545 178.422L272.545 177.862L271.988 177.926L272.045 178.422ZM272.045 183.555L272.124 184.049L272.545 183.982L272.545 183.555L272.045 183.555ZM268.828 185.12L269.209 185.444L269.211 185.441L268.828 185.12ZM275.842 193.944L275.84 194.444L275.842 194.444L275.842 193.944ZM284.35 183.696L284.703 183.342L284.557 183.196L284.35 183.196L284.35 183.696ZM279.937 183.696L279.937 183.196L279.437 183.196L279.437 183.696L279.937 183.696ZM279.937 188.495L279.937 188.995L280.437 188.995L280.437 188.495L279.937 188.495ZM276.053 188.495L275.553 188.495L275.553 188.995L276.053 188.995L276.053 188.495ZM276.053 178.422L276.053 177.922L275.553 177.922L275.553 178.422L276.053 178.422ZM285.945 178.806C287 179.687 287.84 180.947 288.45 182.619L289.39 182.276C288.734 180.48 287.805 179.057 286.586 178.039L285.945 178.806ZM288.449 182.616C289.048 184.289 289.352 186.153 289.352 188.213L290.352 188.213C290.352 186.055 290.034 184.075 289.391 182.279L288.449 182.616ZM289.352 188.213C289.352 190.354 288.888 192.211 287.976 193.801L288.844 194.298C289.854 192.536 290.352 190.503 290.352 188.213L289.352 188.213ZM287.978 193.797C287.058 195.371 285.728 196.595 283.969 197.469L284.414 198.364C286.335 197.41 287.817 196.056 288.842 194.302L287.978 193.797ZM283.971 197.468C282.211 198.331 280.126 198.782 277.7 198.805L277.71 199.805C280.253 199.781 282.492 199.307 284.412 198.365L283.971 197.468ZM277.705 198.805L275.965 198.805L275.965 199.805L277.705 199.805L277.705 198.805ZM275.965 198.805C273.465 198.805 271.33 198.387 269.547 197.568L269.129 198.476C271.072 199.368 273.355 199.805 275.965 199.805L275.965 198.805ZM269.548 197.568C267.754 196.739 266.404 195.56 265.476 194.035L264.622 194.555C265.662 196.265 267.172 197.571 269.128 198.476L269.548 197.568ZM265.475 194.035C264.534 192.495 264.055 190.684 264.055 188.583L263.055 188.583C263.055 190.841 263.572 192.838 264.622 194.556L265.475 194.035ZM264.055 188.583C264.055 185.624 264.762 183.38 266.115 181.787L265.353 181.14C263.8 182.969 263.055 185.471 263.055 188.583L264.055 188.583ZM266.117 181.786C267.457 180.195 269.43 179.225 272.102 178.919L271.988 177.926C269.128 178.253 266.895 179.31 265.352 181.141L266.117 181.786ZM271.545 178.422L271.545 183.555L272.545 183.555L272.545 178.422L271.545 178.422ZM271.966 183.062C270.43 183.307 269.229 183.866 268.445 184.798L269.211 185.441C269.787 184.756 270.73 184.272 272.124 184.049L271.966 183.062ZM268.448 184.795C267.668 185.71 267.309 186.94 267.309 188.424L268.309 188.424C268.309 187.096 268.629 186.124 269.209 185.444L268.448 184.795ZM267.309 188.424C267.309 190.363 268.049 191.89 269.545 192.931L270.116 192.11C268.916 191.275 268.309 190.071 268.309 188.424L267.309 188.424ZM269.545 192.931C271.013 193.952 273.135 194.432 275.84 194.444L275.844 193.444C273.228 193.432 271.343 192.963 270.116 192.11L269.545 192.931ZM275.842 194.444L277.477 194.444L277.477 193.444L275.842 193.444L275.842 194.444ZM277.477 194.444C280.21 194.444 282.363 193.927 283.857 192.816L283.26 192.013C282.012 192.941 280.11 193.444 277.477 193.444L277.477 194.444ZM283.857 192.816C285.375 191.687 286.115 190.032 286.115 187.932L285.115 187.932C285.115 189.77 284.484 191.103 283.26 192.013L283.857 192.816ZM286.115 187.932C286.115 185.902 285.686 184.326 284.703 183.342L283.996 184.049C284.7 184.754 285.115 186.001 285.115 187.932L286.115 187.932ZM284.35 183.196L279.937 183.196L279.937 184.196L284.35 184.196L284.35 183.196ZM279.437 183.696L279.437 188.495L280.437 188.495L280.437 183.696L279.437 183.696ZM279.937 187.995L276.053 187.995L276.053 188.995L279.937 188.995L279.937 187.995ZM276.553 188.495L276.553 178.422L275.553 178.422L275.553 188.495L276.553 188.495ZM276.053 178.922L286.266 178.922L286.266 177.922L276.053 177.922L276.053 178.922ZM280.131 160.699L279.903 160.254L279.631 160.393L279.631 160.699L280.131 160.699ZM280.131 164.9L279.631 164.9L279.631 165.4L280.131 165.4L280.131 164.9ZM289.5 164.9L290 164.9L290 164.4L289.5 164.4L289.5 164.9ZM289.5 170.173L289.5 170.673L290 170.673L290 170.173L289.5 170.173ZM263.906 170.173L263.406 170.173L263.406 170.673L263.906 170.673L263.906 170.173ZM276.018 152.349L275.745 152.768L275.746 152.769L276.018 152.349ZM278.795 155.777L278.339 155.982L278.558 156.468L279.029 156.219L278.795 155.777ZM289.254 150.24L289.254 149.74L289.13 149.74L289.02 149.798L289.254 150.24ZM289.5 150.24L290 150.24L290 149.74L289.5 149.74L289.5 150.24ZM289.5 155.9L289.728 156.345L290 156.206L290 155.9L289.5 155.9ZM275.859 164.9L275.859 165.4L276.359 165.4L276.359 164.9L275.859 164.9ZM274.857 157.57L275.226 157.231L275.223 157.228L274.857 157.57ZM269.215 157.517L269.565 157.874L269.568 157.871L269.215 157.517ZM268.178 164.9L267.678 164.9L267.678 165.4L268.178 165.4L268.178 164.9ZM279.631 160.699L279.631 164.9L280.631 164.9L280.631 160.699L279.631 160.699ZM280.131 165.4L289.5 165.4L289.5 164.4L280.131 164.4L280.131 165.4ZM289 164.9L289 170.173L290 170.173L290 164.9L289 164.9ZM289.5 169.673L263.906 169.673L263.906 170.673L289.5 170.673L289.5 169.673ZM264.406 170.173L264.406 160.664L263.406 160.664L263.406 170.173L264.406 170.173ZM264.406 160.664C264.406 157.708 265.066 155.505 266.314 153.985L265.541 153.35C264.095 155.111 263.406 157.573 263.406 160.664L264.406 160.664ZM266.314 153.985C267.551 152.479 269.303 151.707 271.641 151.707L271.641 150.707C269.057 150.707 267 151.575 265.541 153.35L266.314 153.985ZM271.641 151.707C273.314 151.707 274.672 152.071 275.745 152.768L276.29 151.93C275.019 151.104 273.459 150.707 271.641 150.707L271.641 151.707ZM275.746 152.769C276.809 153.456 277.678 154.516 278.339 155.982L279.251 155.572C278.529 153.968 277.546 152.742 276.289 151.929L275.746 152.769ZM279.029 156.219L289.488 150.682L289.02 149.798L278.561 155.335L279.029 156.219ZM289.254 150.74L289.5 150.74L289.5 149.74L289.254 149.74L289.254 150.74ZM289 150.24L289 155.9L290 155.9L290 150.24L289 150.24ZM289.272 155.455L279.903 160.254L280.359 161.144L289.728 156.345L289.272 155.455ZM276.359 164.9L276.359 160.646L275.359 160.646L275.359 164.9L276.359 164.9ZM276.359 160.646C276.359 159.24 276.004 158.078 275.225 157.231L274.489 157.908C275.047 158.515 275.359 159.404 275.359 160.646L276.359 160.646ZM275.223 157.228C274.43 156.382 273.356 155.98 272.062 155.98L272.062 156.98C273.136 156.98 273.925 157.305 274.492 157.911L275.223 157.228ZM272.062 155.98C270.756 155.98 269.667 156.357 268.861 157.164L269.568 157.871C270.145 157.294 270.955 156.98 272.062 156.98L272.062 155.98ZM268.864 157.161C268.041 157.97 267.678 159.174 267.678 160.664L268.678 160.664C268.678 159.318 269.006 158.423 269.565 157.874L268.864 157.161ZM267.678 160.664L267.678 164.9L268.678 164.9L268.678 160.664L267.678 160.664ZM268.178 165.4L275.859 165.4L275.859 164.4L268.178 164.4L268.178 165.4ZM278.408 127.823L278.908 127.823L278.908 127.323L278.408 127.323L278.408 127.823ZM278.408 137.948L277.908 137.948L277.908 138.448L278.408 138.448L278.408 137.948ZM285.264 137.948L285.264 138.448L285.764 138.448L285.764 137.948L285.264 137.948ZM285.264 126.065L285.264 125.565L284.764 125.565L284.764 126.065L285.264 126.065ZM289.5 126.065L290 126.065L290 125.565L289.5 125.565L289.5 126.065ZM289.5 143.221L289.5 143.721L290 143.721L290 143.221L289.5 143.221ZM263.906 143.221L263.406 143.221L263.406 143.721L263.906 143.721L263.906 143.221ZM263.906 126.1L263.906 125.6L263.406 125.6L263.406 126.1L263.906 126.1ZM268.178 126.1L268.678 126.1L268.678 125.6L268.178 125.6L268.178 126.1ZM268.178 137.948L267.678 137.948L267.678 138.448L268.178 138.448L268.178 137.948ZM274.277 137.948L274.277 138.448L274.777 138.448L274.777 137.948L274.277 137.948ZM274.277 127.823L274.277 127.323L273.777 127.323L273.777 127.823L274.277 127.823ZM277.908 127.823L277.908 137.948L278.908 137.948L278.908 127.823L277.908 127.823ZM278.408 138.448L285.264 138.448L285.264 137.448L278.408 137.448L278.408 138.448ZM285.764 137.948L285.764 126.065L284.764 126.065L284.764 137.948L285.764 137.948ZM285.264 126.565L289.5 126.565L289.5 125.565L285.264 125.565L285.264 126.565ZM289 126.065L289 143.221L290 143.221L290 126.065L289 126.065ZM289.5 142.721L263.906 142.721L263.906 143.721L289.5 143.721L289.5 142.721ZM264.406 143.221L264.406 126.1L263.406 126.1L263.406 143.221L264.406 143.221ZM263.906 126.6L268.178 126.6L268.178 125.6L263.906 125.6L263.906 126.6ZM267.678 126.1L267.678 137.948L268.678 137.948L268.678 126.1L267.678 126.1ZM268.178 138.448L274.277 138.448L274.277 137.448L268.178 137.448L268.178 138.448ZM274.777 137.948L274.777 127.823L273.777 127.823L273.777 137.948L274.777 137.948ZM274.277 128.323L278.408 128.323L278.408 127.323L274.277 127.323L274.277 128.323ZM275.437 110.187L275.646 110.641L276.633 110.188L275.647 109.733L275.437 110.187ZM263.906 104.861L263.406 104.861L263.406 105.181L263.697 105.315L263.906 104.861ZM263.906 99.0952L264.135 98.6507L263.406 98.2752L263.406 99.0952L263.906 99.0952ZM280.219 107.497L279.99 107.942L280.098 107.997L280.219 107.997L280.219 107.497ZM289.5 107.497L290 107.497L290 106.997L289.5 106.997L289.5 107.497ZM289.5 112.859L289.5 113.359L290 113.359L290 112.859L289.5 112.859ZM280.219 112.859L280.219 112.359L280.098 112.359L279.99 112.414L280.219 112.859ZM263.906 121.261L263.406 121.261L263.406 122.081L264.135 121.706L263.906 121.261ZM263.906 115.478L263.698 115.024L263.406 115.157L263.406 115.478L263.906 115.478ZM275.647 109.733L264.116 104.407L263.697 105.315L275.228 110.641L275.647 109.733ZM264.406 104.861L264.406 99.0952L263.406 99.0952L263.406 104.861L264.406 104.861ZM263.677 99.5397L279.99 107.942L280.448 107.053L264.135 98.6507L263.677 99.5397ZM280.219 107.997L289.5 107.997L289.5 106.997L280.219 106.997L280.219 107.997ZM289 107.497L289 112.859L290 112.859L290 107.497L289 107.497ZM289.5 112.359L280.219 112.359L280.219 113.359L289.5 113.359L289.5 112.359ZM279.99 112.414L263.677 120.817L264.135 121.706L280.448 113.303L279.99 112.414ZM264.406 121.261L264.406 115.478L263.406 115.478L263.406 121.261L264.406 121.261ZM264.115 115.932L275.646 110.641L275.229 109.733L263.698 115.024L264.115 115.932Z" fill="#766F00"/>
</g>
<path d="M58.9453 238.711H41.875V285H28.1641V238.711H11.4062V228.125H58.9453V238.711ZM69.8285 275.631H65.6273V285H60.3539V259.406H69.8637C72.8871 259.406 75.2191 260.08 76.8598 261.428C78.5004 262.775 79.3207 264.68 79.3207 267.141C79.3207 268.887 78.9398 270.346 78.1781 271.518C77.4281 272.678 76.2855 273.604 74.7504 274.295L80.2875 284.754V285H74.6273L69.8285 275.631ZM65.6273 271.359H69.8812C71.2055 271.359 72.2309 271.025 72.9574 270.357C73.684 269.678 74.0473 268.746 74.0473 267.562C74.0473 266.355 73.7016 265.406 73.0102 264.715C72.3305 264.023 71.2816 263.678 69.8637 263.678H65.6273V271.359ZM101.395 279.727H92.1492L90.3914 285H84.784L94.3113 259.406H99.198L108.778 285H103.171L101.395 279.727ZM93.573 275.455H99.9715L96.7547 265.875L93.573 275.455ZM120.376 285H115.103V259.406H120.376V285ZM149.693 285H144.42L134.154 268.16V285H128.88V259.406H134.154L144.437 276.281V259.406H149.693V285Z" fill="black"/>
<path d="M71.6515 20.126H67.2657V32H66.1847V20.126H61.8077V19.2031H71.6515V20.126ZM80.487 26.6738H76.7692V32H75.6793V19.2031H79.8366C81.2018 19.2031 82.2682 19.5342 83.0358 20.1963C83.8034 20.8584 84.1871 21.7842 84.1871 22.9736C84.1871 23.7939 83.9469 24.5176 83.4664 25.1445C82.986 25.7715 82.3414 26.2051 81.5329 26.4453L84.7321 31.8857V32H83.5807L80.487 26.6738ZM76.7692 25.751H80.0827C80.9909 25.751 81.7204 25.4932 82.2711 24.9775C82.8219 24.4619 83.0973 23.7939 83.0973 22.9736C83.0973 22.0713 82.8102 21.3711 82.236 20.873C81.6618 20.375 80.8561 20.126 79.819 20.126H76.7692V25.751ZM96.0197 28.4141H90.2101L88.8918 32H87.758L92.6007 19.2031H93.6291L98.4718 32H97.3468L96.0197 28.4141ZM90.5441 27.4912H95.6769L93.1105 20.5215L90.5441 27.4912ZM111.869 32H110.788L103.431 21.0488V32H102.341V19.2031H103.431L110.797 30.1631V19.2031H111.869V32ZM124.343 28.8535C124.343 28.1445 124.094 27.585 123.596 27.1748C123.098 26.7588 122.187 26.3662 120.862 25.9971C119.538 25.6221 118.571 25.2148 117.962 24.7754C117.095 24.1543 116.661 23.3398 116.661 22.332C116.661 21.3535 117.063 20.5596 117.865 19.9502C118.674 19.335 119.705 19.0273 120.959 19.0273C121.809 19.0273 122.568 19.1914 123.236 19.5195C123.909 19.8477 124.431 20.3047 124.8 20.8906C125.169 21.4766 125.354 22.1299 125.354 22.8506H124.264C124.264 21.9775 123.965 21.2773 123.367 20.75C122.77 20.2168 121.967 19.9502 120.959 19.9502C119.981 19.9502 119.201 20.1699 118.621 20.6094C118.041 21.043 117.751 21.6113 117.751 22.3145C117.751 22.9648 118.012 23.4951 118.533 23.9053C119.055 24.3154 119.89 24.6787 121.038 24.9951C122.187 25.3057 123.057 25.6309 123.649 25.9707C124.24 26.3047 124.686 26.7061 124.985 27.1748C125.283 27.6436 125.433 28.1973 125.433 28.8359C125.433 29.8438 125.029 30.6523 124.22 31.2617C123.417 31.8711 122.357 32.1758 121.038 32.1758C120.136 32.1758 119.307 32.0146 118.551 31.6924C117.801 31.3701 117.23 30.9189 116.837 30.3389C116.45 29.7588 116.257 29.0938 116.257 28.3438H117.338C117.338 29.2461 117.675 29.958 118.349 30.4795C119.023 31.001 119.919 31.2617 121.038 31.2617C122.034 31.2617 122.834 31.042 123.438 30.6025C124.041 30.1631 124.343 29.5801 124.343 28.8535ZM130.832 26.7881V32H129.751V19.2031H134.11C135.44 19.2031 136.489 19.543 137.257 20.2227C138.03 20.9023 138.417 21.8369 138.417 23.0264C138.417 24.2275 138.045 25.1562 137.301 25.8125C136.562 26.4629 135.49 26.7881 134.084 26.7881H130.832ZM130.832 25.874H134.11C135.159 25.874 135.959 25.625 136.509 25.127C137.06 24.6289 137.336 23.9346 137.336 23.0439C137.336 22.1592 137.06 21.4561 136.509 20.9346C135.965 20.4072 135.188 20.1377 134.18 20.126H130.832V25.874ZM152.28 26.2959C152.28 27.4736 152.074 28.5078 151.664 29.3984C151.26 30.2891 150.68 30.9746 149.924 31.4551C149.168 31.9355 148.295 32.1758 147.305 32.1758C145.811 32.1758 144.604 31.6426 143.684 30.5762C142.764 29.5039 142.304 28.0596 142.304 26.2432V24.9248C142.304 23.7588 142.509 22.7275 142.919 21.8311C143.335 20.9287 143.921 20.2373 144.677 19.7568C145.433 19.2705 146.303 19.0273 147.287 19.0273C148.272 19.0273 149.139 19.2646 149.889 19.7393C150.645 20.2139 151.228 20.8848 151.638 21.752C152.048 22.6191 152.262 23.624 152.28 24.7666V26.2959ZM151.198 24.9072C151.198 23.3662 150.85 22.1592 150.153 21.2861C149.455 20.4131 148.5 19.9766 147.287 19.9766C146.098 19.9766 145.149 20.416 144.44 21.2949C143.737 22.168 143.385 23.3896 143.385 24.96V26.2959C143.385 27.8135 143.737 29.0176 144.44 29.9082C145.143 30.793 146.098 31.2354 147.305 31.2354C148.53 31.2354 149.485 30.7988 150.17 29.9258C150.856 29.0469 151.198 27.8252 151.198 26.2607V24.9072ZM161.765 26.6738H158.048V32H156.958V19.2031H161.115C162.48 19.2031 163.547 19.5342 164.314 20.1963C165.082 20.8584 165.466 21.7842 165.466 22.9736C165.466 23.7939 165.225 24.5176 164.745 25.1445C164.264 25.7715 163.62 26.2051 162.811 26.4453L166.01 31.8857V32H164.859L161.765 26.6738ZM158.048 25.751H161.361C162.269 25.751 162.999 25.4932 163.55 24.9775C164.1 24.4619 164.376 23.7939 164.376 22.9736C164.376 22.0713 164.089 21.3711 163.514 20.873C162.94 20.375 162.135 20.126 161.097 20.126H158.048V25.751ZM178.37 20.126H173.985V32H172.904V20.126H168.527V19.2031H178.37V20.126ZM188.63 28.4141H182.82L181.502 32H180.368L185.211 19.2031H186.239L191.082 32H189.957L188.63 28.4141ZM183.154 27.4912H188.287L185.721 20.5215L183.154 27.4912ZM202.492 20.126H198.107V32H197.026V20.126H192.649V19.2031H202.492V20.126ZM207.865 32H206.784V19.2031H207.865V32ZM222.783 26.2959C222.783 27.4736 222.577 28.5078 222.167 29.3984C221.763 30.2891 221.183 30.9746 220.427 31.4551C219.671 31.9355 218.798 32.1758 217.808 32.1758C216.314 32.1758 215.107 31.6426 214.187 30.5762C213.267 29.5039 212.807 28.0596 212.807 26.2432V24.9248C212.807 23.7588 213.012 22.7275 213.422 21.8311C213.838 20.9287 214.424 20.2373 215.18 19.7568C215.936 19.2705 216.806 19.0273 217.79 19.0273C218.775 19.0273 219.642 19.2646 220.392 19.7393C221.148 20.2139 221.731 20.8848 222.141 21.752C222.551 22.6191 222.765 23.624 222.783 24.7666V26.2959ZM221.702 24.9072C221.702 23.3662 221.353 22.1592 220.656 21.2861C219.958 20.4131 219.003 19.9766 217.79 19.9766C216.601 19.9766 215.652 20.416 214.943 21.2949C214.24 22.168 213.888 23.3896 213.888 24.96V26.2959C213.888 27.8135 214.24 29.0176 214.943 29.9082C215.646 30.793 216.601 31.2354 217.808 31.2354C219.033 31.2354 219.988 30.7988 220.673 29.9258C221.359 29.0469 221.702 27.8252 221.702 26.2607V24.9072ZM237.015 32H235.933L228.577 21.0488V32H227.487V19.2031H228.577L235.942 30.1631V19.2031H237.015V32Z" fill="black"/>
<g clip-path="url(#clip0)">
<mask id="mask0" mask-type="alpha" maskUnits="userSpaceOnUse" x="42" y="141" width="174" height="65">
<path d="M42.017 141.355H215.726V206H42.017V141.355Z" fill="white"/>
</mask>
<g mask="url(#mask0)">
<path fill-rule="evenodd" clip-rule="evenodd" d="M210.647 206C210.647 206 132.171 141.37 41.9997 141.678V141.396C41.9997 141.396 137.403 137.634 215.725 202.565L210.647 206Z" fill="#161715"/>
</g>
<path fill-rule="evenodd" clip-rule="evenodd" d="M44.3978 142.286C46.0067 142.283 47.6032 142.289 49.1933 142.299C46.0819 142.255 44.3978 142.286 44.3978 142.286Z" fill="#161715"/>
<path fill-rule="evenodd" clip-rule="evenodd" d="M255.403 198.272V197.957C255.403 197.957 251.554 194.784 246.886 191.513C244.657 190.037 242.008 188.359 238.933 186.533C238.357 186.225 237.929 185.972 237.632 185.767C209.345 169.241 147.592 141.734 49.1934 141.085C72.366 141.419 176.041 146.064 251.246 201.192L255.403 198.272Z" fill="#161715"/>
<path fill-rule="evenodd" clip-rule="evenodd" d="M250.88 201.192C250.88 201.192 228.959 184.836 195.458 170.861L196.23 168.734C196.23 168.734 220.107 176.785 251.807 198.862L250.88 201.192Z" fill="#2D2E2C"/>
<path fill-rule="evenodd" clip-rule="evenodd" d="M255.172 198.006C255.172 198.006 244.996 189.874 236.842 185.562C236.257 185.28 235.867 185.12 235.649 185.067C235.146 184.786 234.642 184.508 234.137 184.231C233.657 183.996 233.264 183.781 232.95 183.586C215.125 173.977 197.036 167.532 197.036 167.532H194.26C221.257 175.502 251.726 198.709 251.726 198.709L253.356 198.559L253.655 198.787L254.26 198.476L255.403 198.371C255.286 198.27 255.166 198.17 255.047 198.071L255.172 198.006Z" fill="#5F605C"/>
<path fill-rule="evenodd" clip-rule="evenodd" d="M98.2894 149.715C158.838 164.977 211.214 205.983 211.214 205.983L211.224 206L215.84 202.908L212.615 205.067L210.751 203.487C210.751 203.487 161.238 155.77 71.9724 144.691C77.3852 145.481 82.7227 146.465 87.9693 147.61C90.6463 147.962 94.0539 148.647 98.2894 149.715Z" fill="#2D2E2C"/>
<path fill-rule="evenodd" clip-rule="evenodd" d="M122.232 153.096C120.849 152.677 119.551 152.267 118.334 151.868C87.9763 143.314 62.6653 141.444 50.3923 141.085V141.474C57.9094 141.763 65.33 142.486 72.6146 143.564C161.814 154.799 211.291 203.195 211.291 203.195L213.154 204.798L215.84 202.972C214.922 202.137 180.005 170.61 122.232 153.096Z" fill="#5F605C"/>
<path fill-rule="evenodd" clip-rule="evenodd" d="M133.116 154.909C133.116 157.233 131.506 159.117 129.519 159.117C127.533 159.117 125.923 157.233 125.923 154.909C125.923 152.586 127.533 150.702 129.519 150.702C131.506 150.702 133.116 152.586 133.116 154.909Z" fill="#161715"/>
<path fill-rule="evenodd" clip-rule="evenodd" d="M131.917 154.909C131.917 157.234 130.575 159.117 128.92 159.117C127.265 159.117 125.923 157.234 125.923 154.909C125.923 152.586 127.265 150.702 128.92 150.702C130.575 150.702 131.917 152.586 131.917 154.909Z" fill="#2D2E2C"/>
<path fill-rule="evenodd" clip-rule="evenodd" d="M130.718 155.511C130.718 156.839 129.644 157.915 128.32 157.915C126.996 157.915 125.923 156.839 125.923 155.511C125.923 154.183 126.996 153.106 128.32 153.106C129.644 153.106 130.718 154.183 130.718 155.511Z" fill="#161715"/>
<path fill-rule="evenodd" clip-rule="evenodd" d="M130.718 155.511C130.718 156.839 129.913 157.915 128.92 157.915C127.927 157.915 127.122 156.839 127.122 155.511C127.122 154.183 127.927 153.106 128.92 153.106C129.913 153.106 130.718 154.183 130.718 155.511Z" fill="#2D2E2C"/>
<path fill-rule="evenodd" clip-rule="evenodd" d="M139.11 157.314C139.11 159.638 137.5 161.521 135.514 161.521C133.528 161.521 131.917 159.638 131.917 157.314C131.917 154.99 133.528 153.106 135.514 153.106C137.5 153.106 139.11 154.99 139.11 157.314Z" fill="#161715"/>
<path fill-rule="evenodd" clip-rule="evenodd" d="M137.912 157.314C137.912 159.638 136.569 161.521 134.914 161.521C133.259 161.521 131.917 159.638 131.917 157.314C131.917 154.99 133.259 153.106 134.914 153.106C136.569 153.106 137.912 154.99 137.912 157.314Z" fill="#2D2E2C"/>
<path fill-rule="evenodd" clip-rule="evenodd" d="M136.713 157.915C136.713 159.243 135.639 160.319 134.315 160.319C132.991 160.319 131.917 159.243 131.917 157.915C131.917 156.587 132.991 155.511 134.315 155.511C135.639 155.511 136.713 156.587 136.713 157.915Z" fill="#161715"/>
<path fill-rule="evenodd" clip-rule="evenodd" d="M136.713 157.915C136.713 159.243 135.907 160.319 134.915 160.319C133.921 160.319 133.116 159.243 133.116 157.915C133.116 156.587 133.921 155.511 134.915 155.511C135.907 155.511 136.713 156.587 136.713 157.915Z" fill="#2D2E2C"/>
<path fill-rule="evenodd" clip-rule="evenodd" d="M145.105 159.718C145.105 162.042 143.494 163.926 141.508 163.926C139.522 163.926 137.912 162.042 137.912 159.718C137.912 157.394 139.522 155.511 141.508 155.511C143.494 155.511 145.105 157.394 145.105 159.718Z" fill="#161715"/>
<path fill-rule="evenodd" clip-rule="evenodd" d="M143.906 159.718C143.906 162.042 142.564 163.926 140.909 163.926C139.254 163.926 137.912 162.042 137.912 159.718C137.912 157.394 139.254 155.511 140.909 155.511C142.564 155.511 143.906 157.394 143.906 159.718Z" fill="#2D2E2C"/>
<path fill-rule="evenodd" clip-rule="evenodd" d="M143.906 160.319C143.906 161.647 142.833 162.723 141.509 162.723C140.184 162.723 139.11 161.647 139.11 160.319C139.11 158.991 140.184 157.915 141.509 157.915C142.833 157.915 143.906 158.991 143.906 160.319Z" fill="#161715"/>
<path fill-rule="evenodd" clip-rule="evenodd" d="M142.707 160.319C142.707 161.647 141.902 162.723 140.909 162.723C139.916 162.723 139.11 161.647 139.11 160.319C139.11 158.991 139.916 157.915 140.909 157.915C141.902 157.915 142.707 158.991 142.707 160.319Z" fill="#2D2E2C"/>
<path fill-rule="evenodd" clip-rule="evenodd" d="M211.044 203.006V206L215.84 205.36V202.394L211.044 203.006Z" fill="#161715"/>
<path fill-rule="evenodd" clip-rule="evenodd" d="M210.798 203.669V205.893L215.021 205.418V203.213L210.798 203.669Z" fill="#464644"/>
<path fill-rule="evenodd" clip-rule="evenodd" d="M256.306 164.221C256.306 164.221 256.718 158.825 255.716 151.16C254.719 143.536 252.324 133.669 246.734 124.635C235.523 106.52 219.705 96.7137 212.641 94.9588C212.641 94.9588 212.363 94.7739 211.888 94.5028C210.882 93.964 208.914 93.1362 206.245 93.1008H171.692C169.298 93.1642 167.798 93.2038 167.798 93.2038C167.798 93.2038 164.112 93.5654 161.911 96.5587C161.911 96.5587 152.748 96.2232 147.373 98.0038C141.998 99.7844 109.85 112.094 109.85 112.094L90.1929 119.939L76.1156 125.1L66.1332 128.428L58.762 130.88L52.7726 132.532L47.142 133.874L45.606 135.886V140.635L47.0928 141.869C48.5045 141.899 49.9137 141.94 51.3192 142L52.5167 141.976L58.4037 142.338L65.0586 143.06L74.9255 144.338L88.3501 146.828L106.753 151.576L114.461 154.743L123.901 154.504L124.054 154.531L144.148 161.145V166.265L150.498 170.216L177.115 186.724C177.115 186.724 184.076 191.213 191.678 190.981C199.28 190.749 239.593 186.955 239.593 186.955C239.593 186.955 249.088 185.588 254.566 177.072C254.566 177.072 258.2 175.111 258.712 170.879C259.224 166.646 256.306 164.221 256.306 164.221Z" fill="#161715"/>
<path fill-rule="evenodd" clip-rule="evenodd" d="M127.122 152.505C127.122 154.829 125.511 156.713 123.525 156.713C121.538 156.713 119.928 154.829 119.928 152.505C119.928 150.182 121.538 148.298 123.525 148.298C125.511 148.298 127.122 150.182 127.122 152.505Z" fill="#161715"/>
<path fill-rule="evenodd" clip-rule="evenodd" d="M125.923 152.505C125.923 154.829 124.581 156.713 122.926 156.713C121.27 156.713 119.928 154.829 119.928 152.505C119.928 150.181 121.27 148.298 122.926 148.298C124.581 148.298 125.923 150.181 125.923 152.505Z" fill="#2D2E2C"/>
<path fill-rule="evenodd" clip-rule="evenodd" d="M124.724 153.106C124.724 154.434 123.65 155.511 122.326 155.511C121.002 155.511 119.928 154.434 119.928 153.106C119.928 151.778 121.002 150.702 122.326 150.702C123.65 150.702 124.724 151.778 124.724 153.106Z" fill="#161715"/>
<path fill-rule="evenodd" clip-rule="evenodd" d="M124.724 153.106C124.724 154.434 123.919 155.511 122.925 155.511C121.932 155.511 121.127 154.434 121.127 153.106C121.127 151.778 121.932 150.702 122.925 150.702C123.919 150.702 124.724 151.778 124.724 153.106Z" fill="#2D2E2C"/>
<path fill-rule="evenodd" clip-rule="evenodd" d="M144.257 153.603V112.422L145.799 112.001V153.564L144.257 153.603Z" fill="#161715"/>
<path fill-rule="evenodd" clip-rule="evenodd" d="M143.429 157.267H145.298V156.67H143.429V157.267ZM143.409 109.731H144.938V109.205H143.409V109.731ZM256.196 164.091C256.196 164.091 260.359 120.593 215.491 96.6104C215.491 96.6104 233.273 109.141 242.73 127.012C252.187 144.884 249.72 156.182 249.72 156.182C249.72 156.182 247.947 160.291 245.094 161.215C242.242 162.139 227.209 164.527 216.801 163.68C206.394 162.833 205.314 162.293 203.773 158.904C202.231 155.514 188.2 109.603 162.451 97.4318C162.451 97.4318 154.537 96.5073 148.677 98.3563C142.818 100.205 108.898 112.839 108.898 112.839L75.9534 125.395L58.8002 130.749L52.4788 132.482L47.0437 133.74L45.6817 135.537V140.134L46.9365 141.182C48.0885 141.196 49.4411 141.224 50.9747 141.274L51.3618 140.262L52.2802 140.283L52.7141 141.339C53.9908 141.392 55.3724 141.46 56.8528 141.547L57.1575 140.486L58.4009 140.561L58.697 141.683L63.218 142.147L63.9415 140.915L65.0159 140.99L65.7521 142.414L72.2494 143.158L72.9007 141.635L74.7492 141.828L75.3962 143.548L84.747 145.142L85.8186 143.109L88.879 143.523L89.8587 146.141L99.9862 148.558L102.602 145.864L107.66 147.06L110.244 151.624L114.683 153.386L114.654 152.742L115.733 151.047L143.422 159.816V159.816H145.273V160.496H145.018L145.774 165.529L145.795 165.73L146.647 166.068L178.564 185.48C178.564 185.48 181.366 186.971 185.629 188.002C188.15 188.612 191.18 189.061 194.445 188.946C195.348 188.915 196.568 188.846 198.024 188.749C210.725 187.902 241.625 184.864 241.625 184.864C241.625 184.864 250.722 182.861 253.652 176.39C253.652 176.39 258.611 174.31 258.868 170.099C259.125 165.888 256.196 164.091 256.196 164.091Z" fill="#B9C2C5"/>
<path fill-rule="evenodd" clip-rule="evenodd" d="M104.414 123.008L86.3401 127.4L73.5758 130.12L64.3856 132.316L56.9315 133.885L51.4426 134.983L45.5967 135.882V136.276L51.3661 135.506L56.9569 134.564L64.4878 133.309L73.4482 131.453L86.5442 129.257L104.695 125.805L142.707 117.464V113.436C127.35 117.152 104.414 123.008 104.414 123.008Z" fill="#304451"/>
<path fill-rule="evenodd" clip-rule="evenodd" d="M51.8314 133.686L57.668 132.455L64.4355 130.683L73.7137 128.038L87.0499 124.039L105.542 118.673L144.119 107.459V107.455L145.54 107.044L151.099 97.8086C150.223 97.967 149.359 98.1674 148.536 98.4235C142.68 100.246 108.778 112.699 108.778 112.699L75.8519 125.077L58.708 130.354L52.3901 132.063L46.9579 133.303L45.5967 135.075L45.6285 135.033L51.8314 133.686Z" fill="#CBD3D4"/>
<path fill-rule="evenodd" clip-rule="evenodd" d="M57.5532 132.554L64.4302 130.793L73.6335 128.295L86.6372 124.668L105.044 119.41L144.753 108.371L146.304 107.94V106.756L145.64 106.709L145.168 106.223L144.753 106.347V106.352L105.923 117.997L87.3092 123.57L73.8854 127.723L64.5464 130.471L57.7343 132.311L51.8595 133.589L45.6615 134.978L45.5967 135.063V135.074L51.5039 133.789L57.5532 132.554Z" fill="#94A0A5"/>
<path fill-rule="evenodd" clip-rule="evenodd" d="M51.5221 133.9V139.88L51.6602 139.883V133.872L51.5221 133.9Z" fill="#FFFFFE"/>
<path fill-rule="evenodd" clip-rule="evenodd" d="M51.6811 133.872L52.7901 132.67L52.6371 132.698L51.5912 133.832L51.6811 133.872Z" fill="#FFFFFE"/>
<path fill-rule="evenodd" clip-rule="evenodd" d="M57.4702 132.726V139.869L57.7011 139.883V132.67L57.4702 132.726Z" fill="#FFFFFE"/>
<path fill-rule="evenodd" clip-rule="evenodd" d="M57.6915 132.67L58.7845 130.266L58.5946 130.345L57.5856 132.564L57.6915 132.67Z" fill="#FFFFFE"/>
<path fill-rule="evenodd" clip-rule="evenodd" d="M64.6607 131.543L64.6372 131.55V141.064L64.9209 141.085V131.468L64.6607 131.543Z" fill="#FFFFFE"/>
<path fill-rule="evenodd" clip-rule="evenodd" d="M64.8323 131.446L64.8842 131.468L65.9779 129.064L65.7724 129.149L64.779 131.334L64.8323 131.446Z" fill="#FFFFFE"/>
<path fill-rule="evenodd" clip-rule="evenodd" d="M72.928 129.205L72.8876 129.215V142.23L73.4549 142.287V129.064L72.928 129.205Z" fill="#FFFFFE"/>
<path fill-rule="evenodd" clip-rule="evenodd" d="M73.3398 128.841C73.3398 128.841 73.3742 128.944 73.412 129.064L75.5691 125.458L74.9505 125.653L73.1713 128.628L73.3398 128.841Z" fill="#FFFFFE"/>
<path fill-rule="evenodd" clip-rule="evenodd" d="M86.3591 125.694V143.376L87.558 143.489V125.458L86.3591 125.694Z" fill="#FFFFFE"/>
<path fill-rule="evenodd" clip-rule="evenodd" d="M86.5749 125.048L86.7212 125.457L89.9558 120.649L88.9289 121L86.3591 124.82L86.5749 125.048Z" fill="#FFFFFE"/>
<path fill-rule="evenodd" clip-rule="evenodd" d="M104.343 120.941V146.842L105.541 147.096V120.649L104.343 120.941Z" fill="#FFFFFE"/>
<path fill-rule="evenodd" clip-rule="evenodd" d="M104.831 119.447L109.138 112.234C108.581 112.443 108.277 112.558 108.277 112.558L107.939 112.687L104.343 118.71L104.626 119.057L104.831 119.447Z" fill="#FFFFFE"/>
<path fill-rule="evenodd" clip-rule="evenodd" d="M144.93 157.915L145.105 157.35L144.995 157.321H143.819V157.003L116.095 149.5L113.934 153.404L114.517 153.621L114.488 153.007L115.588 151.391L115.732 151.434L116.416 150.199L144.93 157.915Z" fill="#FFFFFE"/>
<path fill-rule="evenodd" clip-rule="evenodd" d="M200.768 183.605C188.293 183.143 181.828 179.909 181.763 179.875L145.315 161.521L145.105 162.114L181.491 180.437C181.556 180.47 188.124 183.765 200.746 184.232C202.944 184.313 205.656 184.362 208.689 184.362C222.296 184.361 242.334 183.384 251.045 180.009C251.312 179.697 251.564 179.368 251.799 179.026L251.807 179.015C242.177 183.488 213.193 184.065 200.768 183.605Z" fill="#EFF3F2"/>
<path fill-rule="evenodd" clip-rule="evenodd" d="M142.979 109.362H144.503V108.84H142.979V109.362ZM143.57 107.865V107.869L105.156 118.91L86.7412 124.193L73.4612 128.131L64.2218 130.735L57.4827 132.48L51.6707 133.692L45.5967 134.996V135.074L51.319 133.882L57.3038 132.71L64.1069 131.041L73.2117 128.673L86.0763 125.234L104.286 120.249L145.105 109.375V107.426L143.57 107.865Z" fill="#FFFFFE"/>
<path fill-rule="evenodd" clip-rule="evenodd" d="M150.31 97.9468L150.294 97.95C150.043 97.9979 149.793 98.0502 149.545 98.1063L144.327 107.071L144.159 107.243L142.707 109.723H144.058V109.83L144.097 109.819V109.588L151.099 97.8086C150.836 97.8507 150.572 97.8968 150.31 97.9468Z" fill="#FFFFFE"/>
<path fill-rule="evenodd" clip-rule="evenodd" d="M142.707 156.713H143.906V109.83H142.707V156.713Z" fill="#FFFFFE"/>
<path fill-rule="evenodd" clip-rule="evenodd" d="M142.795 159.816H143.613V157.267H142.795V159.816Z" fill="#FFFFFE"/>
<path fill-rule="evenodd" clip-rule="evenodd" d="M193.558 188.946C194.457 188.915 195.671 188.846 197.119 188.749C209.759 187.902 240.51 184.864 240.51 184.864C240.51 184.864 249.563 182.861 252.479 176.39C252.479 176.39 257.414 174.31 257.67 170.099C257.926 165.888 255.011 164.091 255.011 164.091C255.011 164.091 259.153 120.593 214.502 96.6104C214.502 96.6104 232.199 109.141 241.61 127.012C251.021 144.884 248.566 156.182 248.566 156.182C248.566 156.182 246.801 160.291 243.962 161.215C241.124 162.139 226.164 164.527 215.806 163.68C205.449 162.833 204.375 162.293 202.841 158.904C201.306 155.514 187.343 109.603 161.719 97.4318C161.719 97.4318 156.953 96.873 152.091 97.4948L145.147 109.074C145.147 109.074 154.891 106.291 166.169 113.146C177.446 120.002 192.305 144.987 194.76 156.696C197.151 168.101 192.554 183.399 186.453 188.362C188.588 188.775 190.998 189.037 193.558 188.946Z" fill="#EFF3F2"/>
<path fill-rule="evenodd" clip-rule="evenodd" d="M193.558 188.946C194.457 188.915 195.671 188.846 197.119 188.749C209.759 187.902 240.51 184.864 240.51 184.864C240.51 184.864 249.563 182.861 252.479 176.39C252.479 176.39 257.414 174.31 257.67 170.099C257.926 165.888 255.011 164.091 255.011 164.091C255.011 164.091 259.153 120.593 214.502 96.6104C214.502 96.6104 232.199 109.141 241.61 127.012C251.021 144.884 248.566 156.182 248.566 156.182C248.566 156.182 246.801 160.291 243.962 161.215C241.124 162.139 226.164 164.527 215.806 163.68C205.449 162.833 204.375 162.293 202.841 158.904C201.306 155.514 187.343 109.603 161.719 97.4318C161.719 97.4318 156.953 96.873 152.091 97.4948L145.147 109.074C145.147 109.074 154.891 106.291 166.169 113.146C177.446 120.002 192.305 144.987 194.76 156.696C197.151 168.101 192.554 183.399 186.453 188.362C188.588 188.775 190.998 189.037 193.558 188.946Z" fill="#EFF3F2"/>
<path fill-rule="evenodd" clip-rule="evenodd" d="M256.398 164.293L256.499 164.263C257.123 164.749 258.942 166.44 258.998 169.647C259.067 166.427 257.341 164.66 256.603 164.053V163.909L256.678 163.887V162.521C256.678 162.521 256.415 160.78 256.373 161.892C256.328 161.862 256.295 162.033 256.295 162.614C256.295 162.792 256.282 162.949 256.262 163.095C256.104 163.67 255.796 163.938 255.565 164.056C255.48 164.087 255.386 164.119 255.286 164.154L255.278 164.155L255.277 164.157C252.493 165.106 244.052 167.541 228.801 168.301C214.383 169.02 205.098 170.41 197.64 165.418C197.475 165.3 197.309 165.182 197.145 165.057C197.241 165.136 197.339 165.207 197.436 165.283C197.174 165.103 196.915 164.916 196.657 164.72C197.166 165.134 197.685 165.511 198.211 165.859C205.602 171.067 214.795 169.656 229.176 168.93C247.131 168.025 255.504 164.734 256.22 164.44L256.218 164.453C256.218 164.453 258.835 166.103 258.902 169.936C258.975 166.537 257.027 164.773 256.398 164.293Z" fill="#161715"/>
<path fill-rule="evenodd" clip-rule="evenodd" d="M187.066 188.552C189.199 188.976 191.606 189.245 194.161 189.152C195.059 189.119 196.272 189.049 197.718 188.949C210.34 188.079 241.047 184.959 241.047 184.959C241.047 184.959 250.088 182.903 252.999 176.258C252.999 176.258 255.075 175.357 256.602 173.542H194.705C193.141 180.088 190.318 185.832 187.066 188.552Z" fill="#94A0A5"/>
<path fill-rule="evenodd" clip-rule="evenodd" d="M201.301 182.479C197.773 182.363 194.721 182.053 192.15 181.665C192.055 181.843 191.959 182.019 191.862 182.192C194.497 182.597 197.638 182.923 201.278 183.043C203.505 183.116 206.252 183.16 209.326 183.16C223.11 183.159 243.409 182.281 252.235 179.245C252.504 178.964 252.759 178.669 252.998 178.36L253.004 178.352L253.006 178.351C243.25 182.374 213.888 182.893 201.301 182.479Z" fill="#5F605C"/>
<path fill-rule="evenodd" clip-rule="evenodd" d="M252.797 141.085L253.006 141.025C252.871 140.624 252.731 140.22 252.585 139.813C251.767 139.029 250.148 138.025 247.011 137.479C247.092 137.689 247.169 137.896 247.245 138.103C252.009 139.032 252.787 141.058 252.797 141.085Z" fill="#FFFFFE"/>
<path fill-rule="evenodd" clip-rule="evenodd" d="M195.105 157.064C195.248 157.735 195.364 158.421 195.459 159.117C194.444 151.247 189.088 121.638 164.55 103.665C164.55 103.665 162.326 101.599 166.271 100.559C164.81 99.6104 163.309 98.7629 161.763 98.0383C161.763 98.0383 156.954 97.4818 152.048 98.1011L151.099 99.6613L156.414 109.752C159.386 110.394 162.746 111.585 166.253 113.69C177.634 120.518 192.628 145.402 195.105 157.064Z" fill="#FFFFFE"/>
<path fill-rule="evenodd" clip-rule="evenodd" d="M152.162 97.8086C152.132 97.812 152.103 97.8152 152.074 97.8192L145.105 109.481C145.105 109.481 154.883 106.678 166.201 113.583C177.519 120.488 192.43 145.652 194.894 157.445C195.168 158.759 195.347 160.126 195.446 161.521L195.459 161.517C195.459 161.517 193.152 121.246 152.162 97.8086Z" fill="#CBD3D4"/>
<path fill-rule="evenodd" clip-rule="evenodd" d="M256.313 164.547C255.597 164.833 247.22 168.042 229.255 168.925C210.446 169.849 200.503 171.929 191.869 159.219C183.236 146.508 165.352 109.609 152.711 112.382C150.676 112.828 148.06 113.43 145.105 114.123V118.112L152.197 116.593C152.197 116.593 161.807 116.08 173.831 143.812C185.857 171.544 186.473 177.398 206.207 180.018C224.839 182.49 249.652 178.051 253.748 176.899L253.768 176.859C253.768 176.859 258.727 174.779 258.984 170.568C259.241 166.357 256.312 164.559 256.312 164.559L256.313 164.547Z" fill="#6E7F8E"/>
<path fill-rule="evenodd" clip-rule="evenodd" d="M192.093 159.283C183.418 146.555 165.449 109.606 152.747 112.383C150.703 112.829 148.074 113.431 145.105 114.126V118.12L152.231 116.599C152.231 116.599 161.887 116.085 173.969 143.855C182.961 164.523 185.607 173.055 194.544 177.149C195.801 173.219 196.579 168.831 196.657 164.557C195.074 163.173 193.564 161.441 192.093 159.283Z" fill="#3F484E"/>
<path fill-rule="evenodd" clip-rule="evenodd" d="M177.475 152.556V176.847L178.123 177.149V152.556C178.123 146.349 181.536 141.863 188.265 139.221C188.16 139.041 188.054 138.861 187.947 138.681C181.096 141.396 177.475 146.189 177.475 152.556Z" fill="#839194"/>
<path fill-rule="evenodd" clip-rule="evenodd" d="M195.173 136.277C193.343 136.601 191.106 137.146 188.878 138.065C188.816 138.091 188.755 138.119 188.693 138.145C188.501 138.226 188.313 138.309 188.127 138.393C184.219 140.163 181.442 142.701 179.873 145.894C181.573 142.891 184.441 140.516 188.404 138.878L188.448 138.955C188.632 138.873 188.818 138.792 189.007 138.713C189.04 138.699 189.072 138.685 189.105 138.671C191.363 137.736 193.632 137.196 195.459 136.882C195.363 136.68 195.27 136.48 195.173 136.277Z" fill="#FFFFFE"/>
<path fill-rule="evenodd" clip-rule="evenodd" d="M181.072 142.514C181.03 142.438 180.987 142.363 180.945 142.287C180.027 143.39 179.268 144.593 178.674 145.894C179.315 144.673 180.118 143.546 181.072 142.514Z" fill="#74B4D7"/>
<path fill-rule="evenodd" clip-rule="evenodd" d="M178.452 173.392L178.622 173.409L178.674 173.313L167.604 167.456L165.54 155.53L144.012 151.904L143.906 152.519L164.994 156.071L167.034 167.862L177.771 173.543L178.452 173.392Z" fill="#EFF3F2"/>
<path fill-rule="evenodd" clip-rule="evenodd" d="M195.459 138.055C195.368 137.864 195.275 137.671 195.183 137.479C193.301 137.77 190.866 138.301 188.446 139.27C188.385 139.295 188.326 139.32 188.265 139.346C188.368 139.525 188.47 139.704 188.571 139.883C188.604 139.87 188.635 139.856 188.667 139.843C191.12 138.859 193.591 138.334 195.459 138.055Z" fill="#94A0A5"/>
<path fill-rule="evenodd" clip-rule="evenodd" d="M242.214 137.48C231.873 137.582 199.16 137.482 198.823 137.48C198.773 137.481 193.747 137.608 188.789 139.64C182.172 142.353 178.674 147.198 178.674 153.651V178.047L179.29 178.351V153.651C179.29 147.387 182.559 142.867 189.007 140.219C193.86 138.225 198.787 138.099 198.828 138.098C199.157 138.099 231.875 138.2 242.22 138.098C242.349 138.097 242.476 138.096 242.602 138.096C252.296 138.096 253.604 141.809 253.616 141.847L254.204 141.665C254.152 141.49 252.799 137.383 242.214 137.48Z" fill="#161715"/>
<path fill-rule="evenodd" clip-rule="evenodd" d="M251.803 139.868C250.988 139.005 249.542 138.021 247.011 137.479C247.046 137.601 247.08 137.723 247.115 137.845C249.439 138.288 250.897 139.098 251.807 139.883L251.803 139.868Z" fill="#94A0A5"/>
<path fill-rule="evenodd" clip-rule="evenodd" d="M255.251 163.937L255.252 163.926C254.546 164.198 246.28 167.257 228.553 168.098C218.632 168.569 211.211 169.354 205.15 168.132C205.088 168.295 205.05 168.392 205.05 168.392L206.115 171.99L207.889 171.868C207.889 171.868 234.663 174.217 250.484 168.441C250.484 168.441 256.51 165.438 257.801 167.96C257.314 165.16 255.251 163.937 255.251 163.937Z" fill="#74B4D7"/>
<path fill-rule="evenodd" clip-rule="evenodd" d="M257.657 168.734C257.701 172.078 252.441 173.42 252.441 173.42C231.727 178.738 206.718 176.383 206.718 176.383L205.72 177.447L205.767 178.008L202.652 179.473L202.779 179.668C203.571 179.796 204.396 179.916 205.26 180.03C205.485 180.059 205.715 180.082 205.941 180.11L205.941 180.115C206.281 180.156 206.623 180.195 206.966 180.231C207.067 180.242 207.168 180.252 207.269 180.263C207.784 180.316 208.303 180.365 208.825 180.409C208.867 180.413 208.909 180.418 208.952 180.421L208.954 180.42C226.933 181.91 248.764 178.016 252.575 176.954L252.594 176.915C252.594 176.915 257.53 174.863 257.786 170.711C257.83 169.978 257.776 169.322 257.657 168.734Z" fill="#40596A"/>
<path fill-rule="evenodd" clip-rule="evenodd" d="M252.615 176.965L252.634 176.926C252.634 176.926 257.532 174.882 257.786 170.744C257.803 170.464 257.805 170.195 257.795 169.936C257.77 170.077 257.748 170.225 257.735 170.391C257.431 174.327 252.507 176.144 252.507 176.144C228.55 181.797 206.725 178.592 206.725 178.592L205.05 178.138V179.947C205.252 179.975 205.453 180.003 205.659 180.03C224.062 182.46 248.569 178.097 252.615 176.965Z" fill="#1E6083"/>
<path fill-rule="evenodd" clip-rule="evenodd" d="M253.287 176.493L253.307 176.449C253.307 176.449 253.67 176.281 254.204 175.947C226.941 182.916 204.343 179.173 204.343 179.173C204.343 179.173 204.143 179.393 203.851 179.707C204.34 179.787 204.839 179.865 205.353 179.94C224.139 182.673 249.157 177.766 253.287 176.493Z" fill="#1A324D"/>
<path fill-rule="evenodd" clip-rule="evenodd" d="M208.646 174.144C208.646 171.156 206.499 168.734 203.85 168.734C201.202 168.734 199.055 171.156 199.055 174.144C199.055 177.131 201.202 179.553 203.85 179.553C206.499 179.553 208.646 177.131 208.646 174.144Z" fill="#1A324D"/>
<path fill-rule="evenodd" clip-rule="evenodd" d="M199.274 173.824C199.274 171.721 200.198 169.89 201.568 168.908C201.207 168.83 200.759 168.733 200.258 168.625C191.254 169.529 186.321 167.685 185.932 167.532L185.867 168.028C185.867 168.028 186.072 180.45 203.851 179.502C201.323 179.5 199.274 176.958 199.274 173.824Z" fill="#5087BA"/>
<path fill-rule="evenodd" clip-rule="evenodd" d="M203.368 169.923C191.789 171.251 186.889 168.276 185.867 167.532C189.149 173.803 199.645 173.494 199.645 173.494L204.399 174.745C204.399 174.745 207.057 171.409 207.448 169.278C206.469 169.502 205.14 169.72 203.368 169.923Z" fill="#6E7F8E"/>
<path fill-rule="evenodd" clip-rule="evenodd" d="M203.903 135.472H204.521V132.831H203.903V135.472ZM216.17 98.2886C216.065 98.188 215.96 98.0914 215.855 97.9948C214.807 97.0589 211.239 94.2021 206.696 94.2021H170.502C165.792 94.3565 163.088 97.2093 163.088 97.2093C190.787 110.934 202.938 154.626 204.482 158.686C206.027 162.747 210.609 162.953 210.609 162.953C221.575 165.523 240.213 162.285 243.971 161.411C247.729 160.537 249.042 156.81 249.042 156.81C249.815 151.259 250.047 145.322 242.555 129.13C235.064 112.939 221.009 102.967 216.17 98.2886Z" fill="#C1C1C1"/>
<path fill-rule="evenodd" clip-rule="evenodd" d="M245.856 154.37C243.798 135.39 233.09 120.023 224.219 110.295C216.869 102.236 209.602 96.6794 206.146 94.2227C205.968 94.214 205.792 94.2021 205.611 94.2021H205.044C208.071 96.3009 215.859 102.049 223.753 110.705C232.915 120.752 244.053 136.852 245.439 156.723C239.349 160.039 225.917 160.028 218.608 159.481C218.204 159.419 217.7 159.359 217.065 159.307C213.358 159.001 212.278 155.675 212.278 155.675C210.667 150.002 208.598 143.829 204.826 135.683C204.407 134.443 205.444 134.42 205.444 134.42L238.24 133.655H203.872C203.73 133.359 203.582 133.055 203.436 132.754V134.188C208.372 144.546 210.592 151.75 212.426 158.572C212.194 158.51 211.971 158.447 211.758 158.381C207.875 156.872 206.301 152.37 206.22 152.132C204.732 147.44 201.173 137.901 193.394 123.83C186.922 112.126 180.402 105.142 175.657 101.072C175.615 101.019 175.562 100.961 175.482 100.892C173.667 99.3251 171.042 97.0311 170.463 95.7316C169.884 94.4316 172.934 94.2021 172.934 94.2021H169.42C167.871 94.2526 166.544 94.5942 165.454 95.0276C165.479 95.1789 165.507 95.3238 165.536 95.463C163.951 96.2668 163.088 97.1579 163.088 97.1579C190.537 110.646 202.577 153.585 204.108 157.575C205.638 161.566 210.179 161.768 210.179 161.768C210.386 161.817 210.596 161.861 210.808 161.905C210.626 162.099 210.438 162.278 210.243 162.427C210.493 162.482 210.747 162.535 211.004 162.585C211.181 162.417 211.351 162.233 211.513 162.043C222.441 164.034 239.494 161.107 243.184 160.265C242.871 160.537 242.53 160.79 242.162 161.005C242.441 160.948 242.684 160.895 242.883 160.849C243.197 160.776 243.493 160.683 243.774 160.575C244.043 160.328 244.289 160.071 244.514 159.815C246.107 159.077 247.113 157.826 247.677 156.901C247.867 156.528 247.953 156.287 247.953 156.287C248.053 155.575 248.143 154.857 248.21 154.112C247.927 154.702 247.49 155.233 246.93 155.713C246.275 156.135 245.974 155.031 245.856 154.37Z" fill="#6F6F6F"/>
<path fill-rule="evenodd" clip-rule="evenodd" d="M203.756 132.63H203.851C202.063 128.927 199.942 124.836 197.387 120.232C188.782 104.727 178.168 96.4622 174.971 94.2021H173.878C175.517 95.2819 187.384 103.489 196.841 120.528C199.617 125.531 201.879 129.926 203.756 133.872V132.63Z" fill="#791F22"/>
<path fill-rule="evenodd" clip-rule="evenodd" d="M186.963 103.849C186.963 103.849 187.739 104.934 189.33 104.934C190.239 104.934 199.494 104.965 207.448 105.021C195.726 103.234 189.328 93.9195 188.722 93H175.077C175.355 93.2071 175.693 93.4645 176.078 93.7678C177.306 94.5312 181.708 97.5017 186.963 103.849Z" fill="#6B6262"/>
<path fill-rule="evenodd" clip-rule="evenodd" d="M213.413 159.32C211.475 152.205 209.196 144.778 203.851 133.872V135.323C208.738 145.487 210.914 152.577 212.766 159.367C212.54 159.813 211.547 161.681 210.367 162.567C210.622 162.621 210.88 162.674 211.143 162.723C212.413 161.548 213.349 159.621 213.395 159.525L213.442 159.426L213.413 159.32Z" fill="#791F22"/>
<path fill-rule="evenodd" clip-rule="evenodd" d="M245.779 157.879L245.812 157.808L245.808 157.73C244.634 137.303 233.408 120.774 224.196 110.505C216.779 102.237 209.444 96.5914 206.13 94.2135C206.032 94.2109 205.936 94.2021 205.837 94.2021H205.05C207.868 96.1721 215.749 102.012 223.736 110.915C232.87 121.097 243.999 137.472 245.187 157.685C244.971 158.112 243.718 160.439 241.687 161.521C242.248 161.41 242.708 161.313 243.046 161.234C243.117 161.218 243.185 161.198 243.254 161.18C244.852 159.804 245.732 157.978 245.779 157.879Z" fill="#791F22"/>
<path fill-rule="evenodd" clip-rule="evenodd" d="M255.403 197.585L250.608 198.136V201.192L255.403 200.617V197.585Z" fill="#161715"/>
<path fill-rule="evenodd" clip-rule="evenodd" d="M254.204 198.787L250.608 199.184V201.192L254.204 200.777V198.787Z" fill="#464644"/>
<path fill-rule="evenodd" clip-rule="evenodd" d="M208.646 174.144C208.646 171.156 206.499 168.734 203.851 168.734C201.203 168.734 199.055 171.156 199.055 174.144C199.055 177.131 201.203 179.553 203.851 179.553C206.499 179.553 208.646 177.131 208.646 174.144Z" fill="#1E6083"/>
<path fill-rule="evenodd" clip-rule="evenodd" d="M207.448 174.144C207.448 171.156 205.569 168.734 203.251 168.734C200.934 168.734 199.055 171.156 199.055 174.144C199.055 177.131 200.934 179.553 203.251 179.553C205.569 179.553 207.448 177.131 207.448 174.144Z" fill="#161715"/>
<path fill-rule="evenodd" clip-rule="evenodd" d="M207.448 173.543C207.448 170.887 205.569 168.734 203.251 168.734C200.934 168.734 199.055 170.887 199.055 173.543C199.055 176.198 200.934 178.351 203.251 178.351C205.569 178.351 207.448 176.198 207.448 173.543Z" fill="#FFFFFE"/>
<path fill-rule="evenodd" clip-rule="evenodd" d="M207.225 174.202C207.225 174.385 207.213 174.565 207.194 174.745C207.272 174.736 207.348 174.726 207.422 174.713C207.438 174.545 207.447 174.374 207.447 174.202C207.447 172.34 206.471 170.729 205.05 169.936C205.129 170.051 205.206 170.184 205.27 170.353C206.443 171.158 207.225 172.578 207.225 174.202Z" fill="#2D2E2C"/>
<path fill-rule="evenodd" clip-rule="evenodd" d="M206.102 174.251C206.102 174.415 206.091 174.577 206.075 174.738C206.124 174.74 206.174 174.745 206.223 174.745C206.238 174.582 206.249 174.419 206.249 174.251C206.249 172.97 205.776 171.838 205.05 171.138C205.063 171.22 205.068 171.314 205.074 171.405C205.701 172.076 206.102 173.1 206.102 174.251Z" fill="#2D2E2C"/>
<path fill-rule="evenodd" clip-rule="evenodd" d="M206.07 174.183C206.07 174.367 206.043 174.543 206.021 174.721C206.084 174.73 206.148 174.738 206.212 174.745C206.232 174.562 206.249 174.373 206.249 174.183C206.249 172.973 205.793 171.891 205.075 171.138C205.07 171.223 205.062 171.308 205.05 171.395C205.678 172.104 206.07 173.088 206.07 174.183Z" fill="#2D2E2C"/>
<path fill-rule="evenodd" clip-rule="evenodd" d="M206.039 174.343C206.039 174.471 206.009 174.594 205.985 174.719C206.054 174.728 206.123 174.737 206.192 174.745C206.218 174.612 206.249 174.481 206.249 174.343C206.249 173.566 205.817 172.866 205.125 172.34C205.103 172.396 205.08 172.452 205.05 172.509C205.659 173.001 206.039 173.637 206.039 174.343Z" fill="#2D2E2C"/>
<path fill-rule="evenodd" clip-rule="evenodd" d="M206.418 174.337C206.418 174.464 206.401 174.585 206.39 174.708C206.429 174.722 206.466 174.733 206.503 174.745C206.516 174.608 206.532 174.477 206.532 174.337C206.532 173.578 206.336 172.889 206.018 172.34C206.001 172.394 205.986 172.447 205.965 172.5C206.245 173.012 206.418 173.644 206.418 174.337Z" fill="#2D2E2C"/>
<path fill-rule="evenodd" clip-rule="evenodd" d="M205.125 173.351C205.125 173.407 205.116 173.463 205.112 173.519C205.133 173.527 205.155 173.535 205.176 173.542C205.182 173.479 205.192 173.416 205.192 173.351C205.192 172.973 205.099 172.626 204.945 172.34C204.932 172.366 204.922 172.392 204.908 172.42C205.045 172.684 205.125 173.005 205.125 173.351Z" fill="#2D2E2C"/>
<path fill-rule="evenodd" clip-rule="evenodd" d="M205.117 173.379C205.117 173.425 205.109 173.467 205.107 173.513C205.131 173.522 205.154 173.533 205.178 173.542C205.182 173.487 205.192 173.436 205.192 173.379C205.192 172.996 205.104 172.641 204.958 172.34C204.94 172.369 204.925 172.396 204.908 172.425C205.038 172.702 205.117 173.027 205.117 173.379Z" fill="#2D2E2C"/>
<path fill-rule="evenodd" clip-rule="evenodd" d="M205.102 174.627L205.097 174.709L205.169 174.745C205.171 174.704 205.177 174.667 205.177 174.627C205.177 174.228 205.101 173.861 204.976 173.542L204.923 173.623C205.035 173.923 205.102 174.261 205.102 174.627Z" fill="#2D2E2C"/>
<path fill-rule="evenodd" clip-rule="evenodd" d="M205.083 173.493L205.146 173.542L205.147 173.514C205.147 173.09 205.09 172.692 204.999 172.34L204.953 172.434C205.032 172.755 205.081 173.114 205.083 173.493Z" fill="#2D2E2C"/>
<path fill-rule="evenodd" clip-rule="evenodd" d="M205.066 173.797L205.124 173.826C205.119 173.624 205.081 173.433 205.02 173.259L204.975 173.308C205.028 173.458 205.058 173.622 205.066 173.797Z" fill="#2D2E2C"/>
<path fill-rule="evenodd" clip-rule="evenodd" d="M205.053 173.663L205.106 173.685C205.095 173.586 205.074 173.489 205.034 173.401L204.994 173.433C205.025 173.504 205.042 173.583 205.053 173.663Z" fill="#2D2E2C"/>
<path fill-rule="evenodd" clip-rule="evenodd" d="M203.851 178.293C203.866 178.368 203.878 178.437 203.892 178.493C204.292 178.487 204.676 178.447 205.05 178.382C204.985 178.326 204.919 178.269 204.86 178.209C204.534 178.259 204.197 178.288 203.851 178.293Z" fill="#2D2E2C"/>
<path fill-rule="evenodd" clip-rule="evenodd" d="M203.567 177.079C203.574 177.147 203.58 177.214 203.586 177.275C203.773 177.272 203.957 177.249 204.134 177.205C204.107 177.146 204.082 177.084 204.058 177.023C203.898 177.058 203.735 177.079 203.567 177.079Z" fill="#2D2E2C"/>
<path fill-rule="evenodd" clip-rule="evenodd" d="M203.57 177.087H203.567C203.573 177.146 203.578 177.203 203.583 177.261C203.772 177.259 203.954 177.241 204.134 177.213C204.11 177.155 204.084 177.096 204.063 177.037C203.901 177.062 203.739 177.087 203.57 177.087Z" fill="#2D2E2C"/>
<path fill-rule="evenodd" clip-rule="evenodd" d="M203.725 177.09L203.709 177.088C203.711 177.14 203.712 177.193 203.713 177.243L203.725 177.244C203.817 177.244 203.904 177.221 203.993 177.203C203.983 177.153 203.973 177.103 203.964 177.053C203.885 177.068 203.806 177.09 203.725 177.09Z" fill="#2D2E2C"/>
<path fill-rule="evenodd" clip-rule="evenodd" d="M203.738 177.095L203.713 177.093C203.713 177.138 203.714 177.183 203.714 177.23L203.738 177.231C203.824 177.231 203.906 177.213 203.989 177.202C203.98 177.156 203.972 177.112 203.965 177.066C203.889 177.078 203.817 177.095 203.738 177.095Z" fill="#2D2E2C"/>
<path fill-rule="evenodd" clip-rule="evenodd" d="M203.764 175.899L203.745 175.896C203.743 175.936 203.743 175.976 203.742 176.016L203.764 176.018C203.831 176.018 203.895 176.001 203.959 175.993C203.954 175.954 203.947 175.915 203.943 175.876C203.883 175.884 203.825 175.899 203.764 175.899Z" fill="#2D2E2C"/>
<path fill-rule="evenodd" clip-rule="evenodd" d="M203.777 175.903H203.774C203.771 175.939 203.77 175.971 203.767 176.006L203.777 176.008C203.832 176.008 203.882 175.995 203.935 175.989C203.932 175.953 203.928 175.919 203.924 175.886C203.875 175.892 203.828 175.903 203.777 175.903Z" fill="#2D2E2C"/>
<path fill-rule="evenodd" clip-rule="evenodd" d="M203.797 175.909C203.794 175.939 203.791 175.971 203.788 176C203.832 176 203.872 175.991 203.913 175.985C203.911 175.954 203.909 175.923 203.907 175.893C203.87 175.899 203.835 175.909 203.797 175.909Z" fill="#2D2E2C"/>
<path fill-rule="evenodd" clip-rule="evenodd" d="M203.824 175.911C203.82 175.938 203.816 175.964 203.811 175.991C203.838 175.991 203.863 175.986 203.891 175.981C203.889 175.953 203.888 175.93 203.887 175.903L203.824 175.911Z" fill="#2D2E2C"/>
<path fill-rule="evenodd" clip-rule="evenodd" d="M203.847 174.708L203.831 174.782L203.871 174.777L203.868 174.707L203.847 174.708Z" fill="#2D2E2C"/>
<path fill-rule="evenodd" clip-rule="evenodd" d="M204.766 178.383C204.794 178.481 204.818 178.566 204.84 178.635C205.011 178.53 205.176 178.401 205.333 178.243C205.28 178.193 205.228 178.134 205.178 178.067C205.047 178.193 204.908 178.299 204.766 178.383Z" fill="#2D2E2C"/>
<path fill-rule="evenodd" clip-rule="evenodd" d="M205.184 177.007C205.049 177.058 204.911 177.107 204.766 177.143C204.796 177.194 204.825 177.247 204.85 177.291C205.019 177.247 205.178 177.19 205.333 177.126C205.281 177.089 205.233 177.049 205.184 177.007Z" fill="#2D2E2C"/>
<path fill-rule="evenodd" clip-rule="evenodd" d="M204.908 177.114C204.924 177.172 204.941 177.232 204.957 177.287C205.037 177.25 205.116 177.207 205.192 177.157C205.166 177.108 205.142 177.06 205.118 177.011C205.05 177.054 204.978 177.082 204.908 177.114Z" fill="#2D2E2C"/>
<path fill-rule="evenodd" clip-rule="evenodd" d="M203.716 177.114C203.732 177.163 203.745 177.211 203.759 177.259C203.837 177.233 203.913 177.206 203.986 177.173C203.962 177.128 203.937 177.083 203.915 177.039C203.85 177.068 203.784 177.092 203.716 177.114Z" fill="#2D2E2C"/>
<path fill-rule="evenodd" clip-rule="evenodd" d="M203.752 175.909C203.765 175.952 203.774 175.995 203.786 176.039C203.842 176.02 203.895 175.998 203.95 175.977C203.929 175.935 203.912 175.894 203.894 175.855C203.847 175.876 203.801 175.894 203.752 175.909Z" fill="#2D2E2C"/>
<path fill-rule="evenodd" clip-rule="evenodd" d="M203.784 175.908C203.792 175.944 203.803 175.983 203.811 176.021C203.848 176.009 203.882 175.994 203.918 175.981C203.903 175.943 203.888 175.906 203.874 175.873C203.844 175.886 203.815 175.898 203.784 175.908Z" fill="#2D2E2C"/>
<path fill-rule="evenodd" clip-rule="evenodd" d="M203.817 175.903C203.822 175.937 203.826 175.971 203.831 176.004L203.885 175.985C203.873 175.952 203.861 175.918 203.85 175.889L203.817 175.903Z" fill="#2D2E2C"/>
<path fill-rule="evenodd" clip-rule="evenodd" d="M203.251 177.892C203.039 177.892 202.833 177.866 202.63 177.827C202.433 177.692 201.757 177.12 201.64 175.537C201.685 174.893 201.845 174.264 202.252 173.932C202.252 173.932 202.435 173.686 202.968 174.006C203.045 174.064 203.132 174.105 203.231 174.105C203.51 174.105 203.734 173.848 203.734 173.531C203.734 173.213 203.51 172.954 203.231 172.954C203.091 172.954 202.965 173.022 202.873 173.129L202.871 173.127C202.871 173.127 201.131 172.475 201.432 170.96C201.672 169.751 202.302 169.388 202.676 169.249C202.864 169.217 203.056 169.194 203.251 169.194C205.347 169.194 207.046 171.143 207.046 173.544C207.046 175.944 205.347 177.892 203.251 177.892ZM204.054 168.825C203.793 168.767 203.527 168.734 203.251 168.734C202.945 168.734 202.646 168.775 202.359 168.846C200.471 169.316 199.055 171.239 199.055 173.544C199.055 176.198 200.934 178.351 203.251 178.351C205.569 178.351 207.448 176.198 207.448 173.544C207.448 171.204 205.987 169.254 204.054 168.825Z" fill="#2D2E2C"/>
<path fill-rule="evenodd" clip-rule="evenodd" d="M257.801 170.537C257.801 167.55 255.922 165.128 253.604 165.128C251.288 165.128 249.409 167.55 249.409 170.537C249.409 173.525 251.288 175.947 253.604 175.947C255.922 175.947 257.801 173.525 257.801 170.537Z" fill="#1E6083"/>
<path fill-rule="evenodd" clip-rule="evenodd" d="M143.906 110.25V165.72L145.105 166.33V109.83L143.906 110.25Z" fill="#161715"/>
<path fill-rule="evenodd" clip-rule="evenodd" d="M104.343 120.94V146.843L105.541 147.096V120.649L104.343 120.94Z" fill="#161715"/>
<path fill-rule="evenodd" clip-rule="evenodd" d="M86.3591 125.693V143.376L87.558 143.489V125.458L86.3591 125.693Z" fill="#161715"/>
<path fill-rule="evenodd" clip-rule="evenodd" d="M72.928 129.204L72.8876 129.215V142.23L73.4549 142.287V129.064L72.928 129.204Z" fill="#161715"/>
<path fill-rule="evenodd" clip-rule="evenodd" d="M64.6607 131.543L64.6372 131.55V141.064L64.9209 141.085V131.468L64.6607 131.543Z" fill="#161715"/>
<path fill-rule="evenodd" clip-rule="evenodd" d="M57.4702 133.928V141.072L57.7011 141.085V133.872L57.4702 133.928Z" fill="#161715"/>
<path fill-rule="evenodd" clip-rule="evenodd" d="M51.5222 133.9V139.88L51.6601 139.883V133.872L51.5222 133.9Z" fill="#161715"/>
<path fill-rule="evenodd" clip-rule="evenodd" d="M143.573 107.884V107.888L105.21 119.397L86.8202 124.905L73.5578 129.009L64.3311 131.724L57.6011 133.542L51.7969 134.806L45.6283 136.189L45.5967 136.231V136.277L51.4455 135.004L57.422 133.783L64.2162 132.042L73.3087 129.574L86.1562 125.989L104.341 120.793L145.105 109.457V107.426L143.573 107.884Z" fill="#161715"/>
<path fill-rule="evenodd" clip-rule="evenodd" d="M152.298 97.8086L145.418 109.41L143.906 109.83L150.812 98.0132L152.298 97.8086Z" fill="#161715"/>
<path fill-rule="evenodd" clip-rule="evenodd" d="M110.337 112.234L105.408 120.37L104.343 120.649L109.272 112.513L110.337 112.234Z" fill="#161715"/>
<path fill-rule="evenodd" clip-rule="evenodd" d="M87.0976 125.301L89.9558 120.649L89.1216 120.961L86.3591 125.457L87.0976 125.301Z" fill="#161715"/>
<path fill-rule="evenodd" clip-rule="evenodd" d="M75.5691 125.458L73.6315 128.943L73.1713 129.064L75.1088 125.579L75.5691 125.458Z" fill="#161715"/>
<path fill-rule="evenodd" clip-rule="evenodd" d="M65.9779 127.867L63.8544 131.468L63.5801 131.462L65.704 127.862L65.9779 127.867Z" fill="#161715"/>
<path fill-rule="evenodd" clip-rule="evenodd" d="M57.7269 132.641L58.7845 130.266L58.6218 130.343L57.5856 132.67L57.7269 132.641Z" fill="#161715"/>
<path fill-rule="evenodd" clip-rule="evenodd" d="M52.7901 131.468L51.7059 133.872H51.5912L52.6753 131.468H52.7901Z" fill="#161715"/>
<path fill-rule="evenodd" clip-rule="evenodd" d="M133.116 129.064L127.122 129.951V145.116L133.116 145.894V129.064Z" fill="#161715"/>
<path fill-rule="evenodd" clip-rule="evenodd" d="M117.53 131.068V143.988L123.525 144.691V130.266L117.53 131.068Z" fill="#161715"/>
<path fill-rule="evenodd" clip-rule="evenodd" d="M109.138 132.163V142.88L113.934 143.489V131.468L109.138 132.163Z" fill="#161715"/>
<path fill-rule="evenodd" clip-rule="evenodd" d="M95.9503 132.992V140.857L98.3481 141.085V132.67L95.9503 132.992Z" fill="#161715"/>
<path fill-rule="evenodd" clip-rule="evenodd" d="M99.547 133.057V142.012L103.144 142.287V132.67L99.547 133.057Z" fill="#161715"/>
<path fill-rule="evenodd" clip-rule="evenodd" d="M91.1547 134.142V140.894L93.5525 141.085V133.872L91.1547 134.142Z" fill="#161715"/>
<path fill-rule="evenodd" clip-rule="evenodd" d="M87.558 134.128V140.903L89.9558 141.085V133.872L87.558 134.128Z" fill="#161715"/>
<path fill-rule="evenodd" clip-rule="evenodd" d="M79.1658 135.272V140.96L81.5636 141.085V135.074L79.1658 135.272Z" fill="#161715"/>
<path fill-rule="evenodd" clip-rule="evenodd" d="M82.7625 134.085V139.748L85.1602 139.883V133.872L82.7625 134.085Z" fill="#161715"/>
<path fill-rule="evenodd" clip-rule="evenodd" d="M76.7679 135.226V139.787L79.1657 139.883V135.074L76.7679 135.226Z" fill="#161715"/>
<path fill-rule="evenodd" clip-rule="evenodd" d="M74.3702 135.216V139.793L75.5691 139.883V135.074L74.3702 135.216Z" fill="#161715"/>
<path fill-rule="evenodd" clip-rule="evenodd" d="M68.3757 136.435V139.767L69.5746 139.883V136.277L68.3757 136.435Z" fill="#161715"/>
<path fill-rule="evenodd" clip-rule="evenodd" d="M70.7735 135.293V139.723L73.1713 139.883V135.074L70.7735 135.293Z" fill="#161715"/>
<path fill-rule="evenodd" clip-rule="evenodd" d="M65.9779 136.434V139.768L67.1768 139.883V136.277L65.9779 136.434Z" fill="#161715"/>
<path fill-rule="evenodd" clip-rule="evenodd" d="M65.3433 136.33L64.779 136.371V138.615L64.9841 138.619L65.9779 138.681V136.277L65.3433 136.33Z" fill="#161715"/>
<path fill-rule="evenodd" clip-rule="evenodd" d="M61.1823 136.377V138.649L62.3812 138.681V136.277L61.1823 136.377Z" fill="#161715"/>
<path fill-rule="evenodd" clip-rule="evenodd" d="M62.3812 136.384V138.647L63.5801 138.681V136.277L62.3812 136.384Z" fill="#161715"/>
<path fill-rule="evenodd" clip-rule="evenodd" d="M58.7845 136.373V138.65L59.9834 138.681V136.277L58.7845 136.373Z" fill="#161715"/>
<path fill-rule="evenodd" clip-rule="evenodd" d="M57.5856 136.367V138.653L58.7845 138.681V136.277L57.5856 136.367Z" fill="#161715"/>
<path fill-rule="evenodd" clip-rule="evenodd" d="M53.989 137.549V138.681H55.1878V137.479L53.989 137.549Z" fill="#161715"/>
<path fill-rule="evenodd" clip-rule="evenodd" d="M56.3867 136.426V138.681H57.5856V136.277L56.3867 136.426Z" fill="#161715"/>
<path fill-rule="evenodd" clip-rule="evenodd" d="M52.79 137.547V138.681H53.9889V137.479L52.79 137.547Z" fill="#161715"/>
<path fill-rule="evenodd" clip-rule="evenodd" d="M51.5912 137.543V138.681H52.7901V137.479L51.5912 137.543Z" fill="#161715"/>
<path fill-rule="evenodd" clip-rule="evenodd" d="M47.9944 137.551V138.681L49.1933 138.669V137.479L47.9944 137.551Z" fill="#161715"/>
<path fill-rule="evenodd" clip-rule="evenodd" d="M50.3923 137.557V138.681L51.5912 138.668V137.479L50.3923 137.557Z" fill="#161715"/>
<path fill-rule="evenodd" clip-rule="evenodd" d="M46.7956 137.548V138.681L47.9945 138.67V137.479L46.7956 137.548Z" fill="#161715"/>
<path fill-rule="evenodd" clip-rule="evenodd" d="M45.5967 137.543V138.681L46.7956 138.671V137.479L45.5967 137.543Z" fill="#161715"/>
<path fill-rule="evenodd" clip-rule="evenodd" d="M128.32 144.103V129.735L133.116 129.064V144.692L128.32 144.103Z" fill="#162A32"/>
<path fill-rule="evenodd" clip-rule="evenodd" d="M118.729 141.822V130.796L122.326 130.266V142.287L118.729 141.822Z" fill="#162A32"/>
<path fill-rule="evenodd" clip-rule="evenodd" d="M109.138 141.917V133.093L112.735 132.67V142.287L109.138 141.917Z" fill="#162A32"/>
<path fill-rule="evenodd" clip-rule="evenodd" d="M128.8 130.275L133.116 129.717V129.064L128.32 129.735V144.103L133.116 144.692V144.047L128.8 143.557V130.275Z" fill="#111D20"/>
<path fill-rule="evenodd" clip-rule="evenodd" d="M119.161 131.203L122.326 130.772V130.266L118.729 130.796V141.822L122.326 142.287V141.775L119.161 141.397V131.203Z" fill="#111D20"/>
<path fill-rule="evenodd" clip-rule="evenodd" d="M109.678 133.411L112.735 133.079V132.67L109.138 133.093V141.917L112.735 142.287V141.86L109.678 141.568V133.411Z" fill="#111D20"/>
<path fill-rule="evenodd" clip-rule="evenodd" d="M95.9503 140.95V134.063L97.1492 133.872V141.085L95.9503 140.95Z" fill="#162A32"/>
<path fill-rule="evenodd" clip-rule="evenodd" d="M100.746 140.93V134.09L103.144 133.872V141.085L100.746 140.93Z" fill="#162A32"/>
<path fill-rule="evenodd" clip-rule="evenodd" d="M92.3536 139.782V134.016L93.5525 133.872V139.883L92.3536 139.782Z" fill="#162A32"/>
<path fill-rule="evenodd" clip-rule="evenodd" d="M88.757 139.798V133.991L89.9559 133.872V139.883L88.757 139.798Z" fill="#162A32"/>
<path fill-rule="evenodd" clip-rule="evenodd" d="M96.1742 134.328L97.1492 134.186V133.872L95.9503 134.063V140.95L97.1492 141.085V140.768L96.1742 140.667V134.328Z" fill="#111D20"/>
<path fill-rule="evenodd" clip-rule="evenodd" d="M101.09 134.36L103.144 134.188V133.872L100.746 134.09V140.93L103.144 141.085V140.777L101.09 140.655V134.36Z" fill="#111D20"/>
<path fill-rule="evenodd" clip-rule="evenodd" d="M92.5856 134.232L93.5525 134.126V133.872L92.3536 134.016V139.782L93.5525 139.883V139.614L92.5856 139.539V134.232Z" fill="#111D20"/>
<path fill-rule="evenodd" clip-rule="evenodd" d="M89.1184 134.204L89.9559 134.127V133.872L88.757 133.991V139.798L89.9559 139.883V139.602L89.1184 139.548V134.204Z" fill="#111D20"/>
<path fill-rule="evenodd" clip-rule="evenodd" d="M80.3646 139.827V135.163L81.5635 135.074V139.883L80.3646 139.827Z" fill="#162A32"/>
<path fill-rule="evenodd" clip-rule="evenodd" d="M83.9613 139.812V135.186L85.1602 135.074V139.883L83.9613 139.812Z" fill="#162A32"/>
<path fill-rule="evenodd" clip-rule="evenodd" d="M76.7679 139.849V136.331L77.9668 136.277V139.883L76.7679 139.849Z" fill="#162A32"/>
<path fill-rule="evenodd" clip-rule="evenodd" d="M74.3702 139.86V136.314L75.5691 136.277V139.883L74.3702 139.86Z" fill="#162A32"/>
<path fill-rule="evenodd" clip-rule="evenodd" d="M80.549 135.425L81.5635 135.358V135.074L80.3646 135.163V139.827L81.5635 139.883V139.589L80.549 139.547V135.425Z" fill="#111D20"/>
<path fill-rule="evenodd" clip-rule="evenodd" d="M84.1092 135.452L85.1602 135.366V135.074L83.9613 135.186V139.812L85.1602 139.883V139.596L84.1092 139.542V135.452Z" fill="#111D20"/>
<path fill-rule="evenodd" clip-rule="evenodd" d="M76.977 136.522L77.9668 136.482V136.277L76.7679 136.331V139.849L77.9668 139.883V139.657L76.977 139.632V136.522Z" fill="#111D20"/>
<path fill-rule="evenodd" clip-rule="evenodd" d="M74.6362 136.501L75.5691 136.475V136.277L74.3702 136.314V139.86L75.5691 139.883V139.652L74.6362 139.636V136.501Z" fill="#111D20"/>
<path fill-rule="evenodd" clip-rule="evenodd" d="M68.3757 139.797V136.394L69.5746 136.277V139.883L68.3757 139.797Z" fill="#162A32"/>
<path fill-rule="evenodd" clip-rule="evenodd" d="M71.9724 139.788V136.407L73.1712 136.277V139.883L71.9724 139.788Z" fill="#162A32"/>
<path fill-rule="evenodd" clip-rule="evenodd" d="M65.9779 138.627V136.35L67.1768 136.277V138.681L65.9779 138.627Z" fill="#162A32"/>
<path fill-rule="evenodd" clip-rule="evenodd" d="M64.4954 138.634V136.336L64.7713 136.31L65.0627 136.277V138.681L64.4954 138.634Z" fill="#162A32"/>
<path fill-rule="evenodd" clip-rule="evenodd" d="M68.5844 136.535L69.5746 136.447V136.277L68.3757 136.394V139.797L69.5746 139.883V139.71L68.5844 139.645V136.535Z" fill="#111D20"/>
<path fill-rule="evenodd" clip-rule="evenodd" d="M72.1345 136.55L73.1712 136.448V136.277L71.9724 136.407V139.788L73.1712 139.883V139.716L72.1345 139.641V136.55Z" fill="#111D20"/>
<path fill-rule="evenodd" clip-rule="evenodd" d="M66.2374 136.441L67.1768 136.389V136.277L65.9779 136.35V138.627L67.1768 138.681V138.561L66.2374 138.523V136.441Z" fill="#111D20"/>
<path fill-rule="evenodd" clip-rule="evenodd" d="M64.6573 136.425L64.9333 136.401L65.0627 136.388V136.277L64.7713 136.31L64.4954 136.336V138.634L65.0627 138.681V138.556L64.6573 138.525V136.425Z" fill="#111D20"/>
<path fill-rule="evenodd" clip-rule="evenodd" d="M60.8987 138.661V136.34L61.466 136.277V138.681L60.8987 138.661Z" fill="#162A32"/>
<path fill-rule="evenodd" clip-rule="evenodd" d="M62.3812 138.657V136.353L63.5801 136.277V138.681L62.3812 138.657Z" fill="#162A32"/>
<path fill-rule="evenodd" clip-rule="evenodd" d="M59.6998 138.673V137.505L60.2671 137.479V138.681L59.6998 138.673Z" fill="#162A32"/>
<path fill-rule="evenodd" clip-rule="evenodd" d="M57.302 138.675V137.498L57.8693 137.479V138.681L57.302 138.675Z" fill="#162A32"/>
<path fill-rule="evenodd" clip-rule="evenodd" d="M60.9939 136.44L61.466 136.393V136.277L60.8987 136.34V138.661L61.466 138.681V138.556L60.9939 138.54V136.44Z" fill="#111D20"/>
<path fill-rule="evenodd" clip-rule="evenodd" d="M62.5554 136.461L63.5801 136.401V136.277L62.3812 136.353V138.657L63.5801 138.681V138.564L62.5554 138.545V136.461Z" fill="#111D20"/>
<path fill-rule="evenodd" clip-rule="evenodd" d="M59.7949 137.551L60.2671 137.531V137.479L59.6998 137.505V138.673L60.2671 138.681V138.614L59.7949 138.608V137.551Z" fill="#111D20"/>
<path fill-rule="evenodd" clip-rule="evenodd" d="M57.4246 137.541L57.8693 137.527V137.479L57.302 137.498V138.675L57.8693 138.681V138.61L57.4246 138.606V137.541Z" fill="#111D20"/>
<path fill-rule="evenodd" clip-rule="evenodd" d="M54.9042 138.681V137.52L55.4715 137.479V138.681H54.9042Z" fill="#162A32"/>
<path fill-rule="evenodd" clip-rule="evenodd" d="M55.1879 138.681V137.531L56.3868 137.479V138.681H55.1879Z" fill="#162A32"/>
<path fill-rule="evenodd" clip-rule="evenodd" d="M52.5064 138.681V137.511L53.0737 137.479V138.681H52.5064Z" fill="#162A32"/>
<path fill-rule="evenodd" clip-rule="evenodd" d="M52.5064 138.681V137.498L53.0737 137.479V138.681H52.5064Z" fill="#162A32"/>
<path fill-rule="evenodd" clip-rule="evenodd" d="M54.9897 137.581L55.4715 137.551V137.479L54.9042 137.52V138.681H55.4715V138.597H54.9897V137.581Z" fill="#111D20"/>
<path fill-rule="evenodd" clip-rule="evenodd" d="M55.3353 137.601L56.3868 137.561V137.479L55.1879 137.531V138.681H56.3868V138.606H55.3353V137.601Z" fill="#111D20"/>
<path fill-rule="evenodd" clip-rule="evenodd" d="M52.5998 137.561L53.0737 137.538V137.479L52.5064 137.511V138.681H53.0737V138.584H52.5998V137.561Z" fill="#111D20"/>
<path fill-rule="evenodd" clip-rule="evenodd" d="M52.6176 137.54L53.0737 137.526V137.479L52.5064 137.498V138.681H53.0737V138.574H52.6176V137.54Z" fill="#111D20"/>
<path fill-rule="evenodd" clip-rule="evenodd" d="M48.9097 137.536L49.477 137.479V138.671L48.9097 138.681V137.536Z" fill="#162A32"/>
<path fill-rule="evenodd" clip-rule="evenodd" d="M49.1934 137.55L50.3923 137.479V138.669L49.1934 138.681V137.55Z" fill="#162A32"/>
<path fill-rule="evenodd" clip-rule="evenodd" d="M46.512 137.525L47.0793 137.479V138.673L46.512 138.681V137.525Z" fill="#162A32"/>
<path fill-rule="evenodd" clip-rule="evenodd" d="M46.512 137.507L47.0793 137.479V138.676L46.512 138.681V137.507Z" fill="#162A32"/>
<path fill-rule="evenodd" clip-rule="evenodd" d="M48.9811 137.6L49.477 137.556V137.479L48.9097 137.536V138.681L49.477 138.671V138.596L48.9811 138.603V137.6Z" fill="#111D20"/>
<path fill-rule="evenodd" clip-rule="evenodd" d="M49.3193 137.621L50.3923 137.565V137.479L49.1934 137.55V138.681L50.3923 138.669V138.603L49.3193 138.612V137.621Z" fill="#111D20"/>
<path fill-rule="evenodd" clip-rule="evenodd" d="M46.5966 137.577L47.0793 137.542V137.479L46.512 137.525V138.681L47.0793 138.673V138.584L46.5966 138.59V137.577Z" fill="#111D20"/>
<path fill-rule="evenodd" clip-rule="evenodd" d="M46.6128 137.553L47.0793 137.533V137.479L46.512 137.507V138.681L47.0793 138.676V138.578L46.6128 138.582V137.553Z" fill="#111D20"/>
<path fill-rule="evenodd" clip-rule="evenodd" d="M161.89 97.1733C189.605 110.905 201.763 154.621 203.309 158.683C204.854 162.746 209.439 162.952 209.439 162.952C220.412 165.524 239.061 162.284 242.821 161.41C246.582 160.535 247.896 156.806 247.896 156.806C248.029 155.845 248.146 154.87 248.21 153.834C247.409 162.19 221.474 161.26 214.591 160.278C207.559 159.275 206.4 156.575 206.4 156.575C206.4 156.575 204.081 145.466 192.49 124.328C180.899 103.191 169.153 97.1733 167.531 96.0163C165.908 94.859 168.767 94.242 168.767 94.242C168.767 94.242 168.766 94.228 168.764 94.2021C164.391 94.5468 161.89 97.1733 161.89 97.1733Z" fill="#545454"/>
<path fill-rule="evenodd" clip-rule="evenodd" d="M212.197 159.413L212.243 159.314L212.215 159.208C209.656 149.462 206.49 139.141 196.011 120.166C187.47 104.7 176.936 96.4565 173.764 94.2021H172.68C174.306 95.2791 186.083 103.465 195.469 120.461C205.875 139.305 209.044 149.579 211.588 159.254C211.358 159.726 210.303 161.781 209.081 162.601C209.463 162.664 209.7 162.675 209.7 162.675C209.771 162.692 209.844 162.707 209.916 162.723C211.198 161.554 212.151 159.513 212.197 159.413Z" fill="#161715"/>
<path fill-rule="evenodd" clip-rule="evenodd" d="M245.779 157.71L245.812 157.64L245.808 157.562C244.634 137.188 233.407 120.703 224.196 110.462C216.767 102.203 209.421 96.5678 206.114 94.2021H205.05C207.868 96.1669 215.749 101.991 223.736 110.871C232.87 121.026 243.999 137.357 245.187 157.516C244.961 157.963 243.597 160.495 241.389 161.493L241.402 161.521C242.027 161.406 242.568 161.3 243.01 161.207C244.765 159.819 245.73 157.814 245.779 157.71Z" fill="#161715"/>
<path fill-rule="evenodd" clip-rule="evenodd" d="M147.503 118.211V132.67L153.497 132.305V117.042L147.503 118.211Z" fill="#161715"/>
<path fill-rule="evenodd" clip-rule="evenodd" d="M136.713 120.49V133.872L141.508 133.546V119.447L136.713 120.49Z" fill="#161715"/>
<path fill-rule="evenodd" clip-rule="evenodd" d="M148.702 120.153L152.298 119.447V132.45L148.702 132.67V120.153Z" fill="#162A32"/>
<path fill-rule="evenodd" clip-rule="evenodd" d="M137.912 121.22L140.309 120.649V132.492L137.912 132.67V121.22Z" fill="#162A32"/>
<path fill-rule="evenodd" clip-rule="evenodd" d="M148.702 120.153L152.298 119.447V132.45L148.702 132.67V120.153Z" fill="#162A32"/>
<path fill-rule="evenodd" clip-rule="evenodd" d="M152.298 120.202V119.447L148.702 120.153V132.67L149.431 132.626V120.765L152.298 120.202Z" fill="#111D20"/>
<path fill-rule="evenodd" clip-rule="evenodd" d="M140.309 121.428V120.649L137.912 121.22V132.67L138.533 132.624V121.851L140.309 121.428Z" fill="#111D20"/>
<path fill-rule="evenodd" clip-rule="evenodd" d="M203.818 179.504C202.12 179.504 200.643 178.395 199.873 176.756C186.615 176.834 185.867 168.734 185.867 168.734C185.867 168.734 186.071 180.376 203.851 179.507L203.849 179.503L203.818 179.504Z" fill="#40596A"/>
<path fill-rule="evenodd" clip-rule="evenodd" d="M211.386 171.112C211.386 171.112 233.534 171.53 245.313 169.053C245.313 169.053 246.872 168.593 244.48 168.778C242.089 168.964 226.945 170.14 213.019 170.753C213.019 170.753 210.06 170.868 211.386 171.112Z" fill="#C2E2EE"/>
<path fill-rule="evenodd" clip-rule="evenodd" d="M203.851 179.507L203.849 179.503L203.818 179.504C202.919 179.504 202.084 179.191 201.38 178.655C186.682 178.928 185.867 168.734 185.867 168.734C185.867 168.734 186.071 180.376 203.851 179.507Z" fill="#1E6083"/>
<path fill-rule="evenodd" clip-rule="evenodd" d="M200.048 128.156C200.109 128.273 200.169 128.389 200.229 128.506C200.432 128.896 200.631 129.283 200.826 129.666C200.851 129.714 200.877 129.764 200.902 129.812C201.135 130.271 201.364 130.723 201.587 131.17C201.602 131.198 201.615 131.226 201.629 131.255C201.838 131.672 202.043 132.085 202.243 132.492C202.471 132.958 202.696 133.419 202.914 133.872H238.619C238.415 133.437 238.201 133.011 237.989 132.583H237.995C237.948 132.487 237.898 132.395 237.851 132.299C237.672 131.939 237.491 131.581 237.307 131.226C237.176 130.973 237.043 130.723 236.911 130.473C236.725 130.121 236.539 129.769 236.348 129.423C236.208 129.167 236.063 128.916 235.921 128.663C235.598 128.091 235.271 127.526 234.939 126.968C234.77 126.684 234.602 126.401 234.431 126.121C234.357 125.999 234.285 125.873 234.21 125.752H234.202C230.684 120.056 226.747 115.156 223.118 111.207C221.473 109.417 219.833 107.756 218.239 106.223H185.867C189.141 109.995 192.621 114.69 195.823 120.372C197.049 122.546 198.171 124.602 199.208 126.557C199.274 126.681 199.34 126.805 199.404 126.928C199.623 127.342 199.837 127.751 200.048 128.156Z" fill="#161715"/>
<path fill-rule="evenodd" clip-rule="evenodd" d="M219.436 105.079L219.367 105.021H187.066C187.463 105.41 187.863 105.811 188.265 106.223H219.436V105.079Z" fill="#791F22"/>
<path fill-rule="evenodd" clip-rule="evenodd" d="M202.267 106.203C210.749 106.142 218.238 105.815 218.238 105.815C217.241 105.655 190.2 105.561 188.616 105.561C187.031 105.561 186.259 104.477 186.259 104.477C180.076 96.985 175.077 94.2021 175.077 94.2021C177.486 95.5553 183.158 101.681 185.679 104.472L185.679 104.477C185.679 104.477 186.51 105.481 186.722 105.742C186.935 106.003 187.302 106.143 187.959 106.143C188.29 106.143 191.919 106.164 195.44 106.184C197.038 106.207 198.661 106.215 200.268 106.212C201.481 106.219 202.276 106.223 202.276 106.223L202.267 106.203Z" fill="#DA554F"/>
<path fill-rule="evenodd" clip-rule="evenodd" d="M193.628 113.061C193.628 113.061 199.575 121.551 202.512 128.313C202.512 128.313 203.32 130.266 206.11 130.266C208.9 130.266 231.515 130.266 231.515 130.266C231.515 130.266 234.33 130.016 233.743 127.862C233.155 125.708 226.449 115.878 223.035 112.122C223.035 112.122 220.979 109.83 215.031 109.83C209.084 109.83 195.243 109.83 195.243 109.83C195.243 109.83 191.719 109.718 193.628 113.061Z" fill="#162A32"/>
<path fill-rule="evenodd" clip-rule="evenodd" d="M193.628 113.061C193.628 113.061 199.575 121.551 202.512 128.313C202.512 128.313 203.32 130.266 206.11 130.266C208.9 130.266 231.515 130.266 231.515 130.266C231.515 130.266 234.33 130.016 233.743 127.862C233.155 125.708 226.449 115.878 223.035 112.122C223.035 112.122 220.979 109.83 215.031 109.83C209.084 109.83 195.243 109.83 195.243 109.83C195.243 109.83 191.719 109.718 193.628 113.061Z" fill="#162A32"/>
<path fill-rule="evenodd" clip-rule="evenodd" d="M233.743 128.24C233.155 126.041 226.448 116.005 223.033 112.17C223.033 112.17 220.977 109.83 215.029 109.83C209.081 109.83 195.239 109.83 195.239 109.83C195.239 109.83 193.149 109.764 193.061 111.293C193.658 111.036 194.326 111.057 194.326 111.057C194.326 111.057 208.169 111.057 214.116 111.057C220.065 111.057 222.121 113.397 222.121 113.397C225.536 117.232 232.243 127.268 232.83 129.467C232.911 129.769 232.926 130.033 232.894 130.266C233.505 129.922 234.029 129.313 233.743 128.24Z" fill="#111D20"/>
<mask id="mask1" mask-type="alpha" maskUnits="userSpaceOnUse" x="197" y="109" width="37" height="22">
<path d="M213.784 109.838C209.872 109.838 202.58 109.838 197.966 109.838C201.486 114.064 210.139 123.849 219.68 130.114C225.711 130.114 231.365 130.114 231.365 130.114C231.365 130.114 233.696 129.898 233.697 128.173C233.697 127.992 233.672 127.795 233.616 127.58C233.905 128.688 233.376 129.317 232.758 129.672C232.79 129.432 232.775 129.159 232.694 128.847C232.1 126.577 225.323 116.214 221.872 112.254C221.872 112.254 219.795 109.838 213.784 109.838Z" fill="white"/>
</mask>
<g mask="url(#mask1)">
<path fill-rule="evenodd" clip-rule="evenodd" d="M197.966 130.114H233.905V109.838H197.966V130.114Z" fill="#21424B"/>
</g>
<path fill-rule="evenodd" clip-rule="evenodd" d="M215.827 109.83C211.248 109.83 202.09 109.83 197.856 109.83C198.127 110.151 198.479 110.565 198.907 111.057C203.571 111.057 210.941 111.057 214.895 111.057C220.97 111.057 223.07 113.397 223.07 113.397C226.558 117.232 233.408 127.268 234.008 129.467C234.09 129.769 234.105 130.033 234.073 130.266C234.697 129.922 235.232 129.313 234.94 128.24C234.34 126.041 227.49 116.005 224.002 112.169C224.002 112.169 221.902 109.83 215.827 109.83Z" fill="#183338"/>
<path fill-rule="evenodd" clip-rule="evenodd" d="M214.641 96.6064C214.641 96.6064 221.171 101.326 228.396 109.117C236.749 115.056 244.482 123.917 250.391 137C250.464 137.163 250.535 137.318 250.608 137.479C245.706 123.907 235.543 108.065 214.641 96.6064Z" fill="#FFFFFE"/>
<path fill-rule="evenodd" clip-rule="evenodd" d="M144.932 157.915L116.703 150.199L114.487 154.243L113.934 153.973L116.385 149.5L145.105 157.35L144.932 157.915Z" fill="#161715"/>
<path fill-rule="evenodd" clip-rule="evenodd" d="M253.879 177.186C245.814 182.236 214.308 182.888 201.173 182.411C188.606 181.954 182.093 178.754 182.027 178.722L145.027 160.425L145.007 160.416L116.014 150.897L115.42 150.702L115.133 151.261L115.727 151.455L144.774 160.991L181.753 179.277C181.819 179.31 188.435 182.569 201.151 183.031C203.365 183.112 206.097 183.16 209.153 183.16C224.311 183.16 247.394 181.977 254.204 177.712L253.879 177.186Z" fill="#161715"/>
<path fill-rule="evenodd" clip-rule="evenodd" d="M178.386 172.34L167.435 166.427L165.465 154.808L145.105 151.308L145.207 150.702L165.993 154.275L167.986 166.027L178.674 171.798L178.386 172.34Z" fill="#161715"/>
<path fill-rule="evenodd" clip-rule="evenodd" d="M152.298 118.245L149.901 118.682L152.298 118.245V131.384V118.245ZM152.298 131.384L150.821 131.468V131.468L152.298 131.384Z" fill="#292A28"/>
<path fill-rule="evenodd" clip-rule="evenodd" d="M152.298 119.447L149.902 119.87C149.886 122.789 150.018 127.391 150.827 131.468L152.298 131.387V119.447Z" fill="#21424B"/>
<path fill-rule="evenodd" clip-rule="evenodd" d="M152.298 118.245L149.908 118.682C149.905 118.922 149.902 119.177 149.901 119.447L152.298 119.008V118.245Z" fill="#183338"/>
<path fill-rule="evenodd" clip-rule="evenodd" d="M140.309 120.649L139.11 120.937L140.309 120.649V132.67V120.649Z" fill="#292A28"/>
<path fill-rule="evenodd" clip-rule="evenodd" d="M140.309 121.851L139.11 122.126C139.15 125.165 139.331 129.14 139.907 132.67L140.309 132.641V121.851Z" fill="#21424B"/>
<path fill-rule="evenodd" clip-rule="evenodd" d="M140.309 120.649L139.11 120.97C139.112 121.255 139.114 121.549 139.117 121.851L140.309 121.531V120.649Z" fill="#183338"/>
<path fill-rule="evenodd" clip-rule="evenodd" d="M205.151 135.382C208.952 143.415 211.037 149.501 212.659 155.099L212.66 155.096C212.66 155.096 213.749 158.375 217.485 158.677C218.125 158.728 218.633 158.787 219.04 158.848C224.117 159.22 232.122 159.341 238.619 158.309C223.899 152.231 218.588 137.823 217.382 133.872L205.773 134.137C205.773 134.137 204.727 134.16 205.151 135.382Z" fill="#6B6262"/>
<path fill-rule="evenodd" clip-rule="evenodd" d="M203.851 179.503C203.34 179.503 202.85 179.398 202.391 179.213C186.989 179.835 185.879 168.734 185.879 168.734L185.867 168.746C186.069 170.721 187.868 180.328 203.851 179.503Z" fill="#1A324D"/>
<path fill-rule="evenodd" clip-rule="evenodd" d="M133.116 129.064L129.519 129.555L133.116 129.064V144.692V129.064ZM132.292 144.593L133.116 144.692L132.292 144.593Z" fill="#292A28"/>
<path fill-rule="evenodd" clip-rule="evenodd" d="M133.116 130.266L129.519 130.684C129.583 133.948 130.038 139.08 131.995 143.375L133.116 143.489V130.266Z" fill="#21424B"/>
<path fill-rule="evenodd" clip-rule="evenodd" d="M133.116 129.064L129.519 129.555C129.52 129.752 129.523 129.957 129.527 130.169L133.116 129.717V129.064ZM131.997 143.923C132.092 144.149 132.19 144.372 132.292 144.593L133.116 144.692V144.047L131.997 143.923Z" fill="#183338"/>
<path fill-rule="evenodd" clip-rule="evenodd" d="M121.127 143.439L122.326 143.539L121.127 143.439Z" fill="#292A28"/>
<path fill-rule="evenodd" clip-rule="evenodd" d="M122.326 131.468L119.928 131.775C119.979 134.485 120.272 138.453 121.369 142.18L122.326 142.287V131.468Z" fill="#21424B"/>
<path fill-rule="evenodd" clip-rule="evenodd" d="M122.326 130.266L119.928 130.604C119.93 130.759 119.932 130.919 119.935 131.084L122.326 130.772V130.266ZM121.371 141.665C121.422 141.84 121.474 142.015 121.528 142.188L122.326 142.287V141.775L121.371 141.665Z" fill="#183338"/>
<path fill-rule="evenodd" clip-rule="evenodd" d="M112.735 132.67L111.536 132.91L112.735 132.67V142.287V132.67Z" fill="#292A28"/>
<path fill-rule="evenodd" clip-rule="evenodd" d="M112.735 132.67L111.536 132.881C111.586 135.125 111.764 138.085 112.272 141.013L112.735 141.085V132.67Z" fill="#21424B"/>
<path fill-rule="evenodd" clip-rule="evenodd" d="M112.735 132.67L111.536 132.91C111.538 133.038 111.54 133.168 111.543 133.3L112.735 133.079V132.67ZM112.275 141.785C112.299 141.93 112.324 142.075 112.349 142.219L112.735 142.287V141.86L112.275 141.785Z" fill="#183338"/>
<path fill-rule="evenodd" clip-rule="evenodd" d="M256.602 171.138C256.602 168.483 254.992 166.33 253.005 166.33C251.019 166.33 249.409 168.483 249.409 171.138C249.409 173.794 251.019 175.947 253.005 175.947C254.992 175.947 256.602 173.794 256.602 171.138Z" fill="#161715"/>
<path fill-rule="evenodd" clip-rule="evenodd" d="M256.602 171.138C256.602 168.483 254.992 166.33 253.006 166.33C251.019 166.33 249.409 168.483 249.409 171.138C249.409 173.794 251.019 175.947 253.006 175.947C254.992 175.947 256.602 173.794 256.602 171.138Z" fill="#FFFFFE"/>
<path fill-rule="evenodd" clip-rule="evenodd" d="M255.292 170.595C255.292 170.779 255.286 170.959 255.277 171.138C255.315 171.13 255.353 171.12 255.391 171.107C255.399 170.939 255.403 170.768 255.403 170.595C255.403 168.733 254.915 167.123 254.204 166.33C254.244 166.445 254.283 166.578 254.315 166.747C254.901 167.552 255.292 168.971 255.292 170.595Z" fill="#2D2E2C"/>
<path fill-rule="evenodd" clip-rule="evenodd" d="M255.257 170.644C255.257 170.808 255.246 170.97 255.229 171.131C255.278 171.134 255.328 171.138 255.377 171.138C255.393 170.975 255.403 170.812 255.403 170.644C255.403 169.364 254.93 168.232 254.204 167.532C254.218 167.614 254.223 167.708 254.229 167.798C254.856 168.469 255.257 169.494 255.257 170.644Z" fill="#2D2E2C"/>
<path fill-rule="evenodd" clip-rule="evenodd" d="M255.224 170.764C255.224 170.887 255.198 171.004 255.176 171.123C255.239 171.129 255.303 171.134 255.366 171.138C255.387 171.017 255.403 170.89 255.403 170.764C255.403 169.957 254.948 169.236 254.229 168.734C254.225 168.79 254.217 168.847 254.204 168.905C254.832 169.378 255.224 170.034 255.224 170.764Z" fill="#2D2E2C"/>
<path fill-rule="evenodd" clip-rule="evenodd" d="M254.389 170.737C254.389 170.865 254.375 170.988 254.364 171.113C254.396 171.123 254.429 171.131 254.461 171.138C254.474 171.006 254.488 170.875 254.488 170.737C254.488 169.961 254.284 169.261 253.957 168.734C253.946 168.789 253.935 168.846 253.921 168.903C254.209 169.395 254.389 170.031 254.389 170.737Z" fill="#2D2E2C"/>
<path fill-rule="evenodd" clip-rule="evenodd" d="M254.373 170.731C254.373 170.857 254.357 170.979 254.347 171.102C254.385 171.116 254.422 171.127 254.459 171.138C254.472 171.002 254.488 170.87 254.488 170.731C254.488 169.972 254.291 169.283 253.974 168.734C253.956 168.788 253.941 168.842 253.921 168.894C254.201 169.406 254.373 170.037 254.373 170.731Z" fill="#2D2E2C"/>
<path fill-rule="evenodd" clip-rule="evenodd" d="M254.28 170.947C254.28 171.003 254.271 171.059 254.267 171.115C254.288 171.124 254.31 171.131 254.331 171.138C254.337 171.075 254.346 171.012 254.346 170.947C254.346 170.568 254.253 170.222 254.099 169.936C254.087 169.963 254.077 169.988 254.063 170.016C254.2 170.28 254.28 170.601 254.28 170.947Z" fill="#2D2E2C"/>
<path fill-rule="evenodd" clip-rule="evenodd" d="M254.27 170.975C254.27 171.021 254.262 171.063 254.259 171.109L254.329 171.138C254.332 171.083 254.341 171.031 254.341 170.975C254.341 170.591 254.258 170.236 254.116 169.936C254.099 169.964 254.084 169.992 254.068 170.02C254.193 170.298 254.27 170.622 254.27 170.975Z" fill="#2D2E2C"/>
<path fill-rule="evenodd" clip-rule="evenodd" d="M254.25 171.02L254.245 171.103L254.307 171.138C254.309 171.099 254.314 171.061 254.314 171.02C254.314 170.622 254.248 170.254 254.141 169.936L254.095 170.016C254.192 170.317 254.25 170.654 254.25 171.02Z" fill="#2D2E2C"/>
<path fill-rule="evenodd" clip-rule="evenodd" d="M254.233 171.089L254.288 171.138L254.288 171.11C254.288 170.685 254.24 170.287 254.16 169.936L254.121 170.03C254.189 170.35 254.231 170.709 254.233 171.089Z" fill="#2D2E2C"/>
<path fill-rule="evenodd" clip-rule="evenodd" d="M253.02 170.191L253.07 170.22C253.066 170.018 253.033 169.828 252.98 169.652L252.941 169.702C252.987 169.852 253.013 170.017 253.02 170.191Z" fill="#2D2E2C"/>
<path fill-rule="evenodd" clip-rule="evenodd" d="M253.008 170.056L253.054 170.078C253.045 169.979 253.026 169.882 252.992 169.794L252.957 169.826C252.985 169.897 252.999 169.976 253.008 170.056Z" fill="#2D2E2C"/>
<path fill-rule="evenodd" clip-rule="evenodd" d="M252.722 174.688C252.729 174.761 252.735 174.831 252.742 174.887C252.931 174.881 253.112 174.841 253.289 174.776C253.258 174.72 253.227 174.663 253.199 174.603C253.045 174.654 252.886 174.682 252.722 174.688Z" fill="#2D2E2C"/>
<path fill-rule="evenodd" clip-rule="evenodd" d="M252.722 174.677C252.728 174.743 252.734 174.807 252.74 174.866C252.928 174.863 253.112 174.841 253.289 174.799C253.262 174.742 253.237 174.682 253.213 174.624C253.053 174.658 252.889 174.677 252.722 174.677Z" fill="#2D2E2C"/>
<path fill-rule="evenodd" clip-rule="evenodd" d="M252.865 173.482H252.864C252.867 173.54 252.869 173.594 252.871 173.65C252.966 173.648 253.057 173.63 253.147 173.604C253.135 173.548 253.122 173.491 253.112 173.435C253.031 173.459 252.95 173.482 252.865 173.482Z" fill="#2D2E2C"/>
<path fill-rule="evenodd" clip-rule="evenodd" d="M252.879 173.486L252.864 173.484C252.866 173.534 252.866 173.585 252.868 173.633L252.879 173.634C252.972 173.634 253.059 173.612 253.147 173.595C253.138 173.546 253.128 173.499 253.118 173.451C253.039 173.465 252.961 173.486 252.879 173.486Z" fill="#2D2E2C"/>
<path fill-rule="evenodd" clip-rule="evenodd" d="M252.908 173.491L252.887 173.489C252.887 173.533 252.888 173.576 252.888 173.621L252.908 173.622C252.982 173.622 253.053 173.604 253.124 173.593C253.117 173.55 253.11 173.507 253.103 173.464C253.039 173.474 252.976 173.491 252.908 173.491Z" fill="#2D2E2C"/>
<path fill-rule="evenodd" clip-rule="evenodd" d="M252.931 172.295L252.914 172.292C252.912 172.329 252.912 172.368 252.912 172.407L252.931 172.409C252.988 172.409 253.043 172.392 253.099 172.384C253.094 172.347 253.089 172.31 253.085 172.272C253.033 172.28 252.983 172.295 252.931 172.295Z" fill="#2D2E2C"/>
<path fill-rule="evenodd" clip-rule="evenodd" d="M252.942 172.298H252.939C252.937 172.333 252.935 172.364 252.933 172.398L252.942 172.399C252.989 172.399 253.033 172.387 253.078 172.381C253.075 172.346 253.072 172.314 253.068 172.282C253.026 172.287 252.985 172.298 252.942 172.298Z" fill="#2D2E2C"/>
<path fill-rule="evenodd" clip-rule="evenodd" d="M252.959 172.304C252.957 172.333 252.954 172.363 252.952 172.391C252.989 172.391 253.024 172.382 253.059 172.377C253.057 172.347 253.056 172.318 253.054 172.29C253.022 172.294 252.992 172.304 252.959 172.304Z" fill="#2D2E2C"/>
<path fill-rule="evenodd" clip-rule="evenodd" d="M252.982 172.306C252.979 172.332 252.976 172.357 252.972 172.383L253.04 172.374C253.038 172.346 253.037 172.324 253.037 172.298L252.982 172.306Z" fill="#2D2E2C"/>
<path fill-rule="evenodd" clip-rule="evenodd" d="M253.002 172.305L252.988 172.376L253.023 172.371L253.02 172.304L253.002 172.305Z" fill="#2D2E2C"/>
<path fill-rule="evenodd" clip-rule="evenodd" d="M253.921 174.761C253.948 174.81 253.973 174.852 253.995 174.887C254.166 174.835 254.331 174.77 254.488 174.691C254.434 174.666 254.383 174.636 254.333 174.603C254.201 174.666 254.063 174.718 253.921 174.761Z" fill="#2D2E2C"/>
<path fill-rule="evenodd" clip-rule="evenodd" d="M253.073 173.401C253.005 173.452 252.936 173.501 252.864 173.536C252.879 173.588 252.893 173.641 252.906 173.685C252.99 173.641 253.069 173.583 253.147 173.519C253.121 173.482 253.097 173.442 253.073 173.401Z" fill="#2D2E2C"/>
<path fill-rule="evenodd" clip-rule="evenodd" d="M252.864 173.508C252.88 173.565 252.897 173.622 252.913 173.674C252.993 173.639 253.072 173.598 253.147 173.55C253.122 173.504 253.098 173.457 253.074 173.411C253.006 173.451 252.934 173.478 252.864 173.508Z" fill="#2D2E2C"/>
<path fill-rule="evenodd" clip-rule="evenodd" d="M252.889 173.509C252.903 173.556 252.914 173.602 252.927 173.649C252.993 173.622 253.06 173.597 253.122 173.565C253.101 173.523 253.08 173.479 253.061 173.437C253.005 173.465 252.948 173.487 252.889 173.509Z" fill="#2D2E2C"/>
<path fill-rule="evenodd" clip-rule="evenodd" d="M252.921 173.506C252.931 173.547 252.939 173.589 252.95 173.63C252.998 173.613 253.044 173.592 253.091 173.572C253.073 173.531 253.058 173.492 253.043 173.455C253.002 173.474 252.963 173.492 252.921 173.506Z" fill="#2D2E2C"/>
<path fill-rule="evenodd" clip-rule="evenodd" d="M252.948 172.303C252.955 172.338 252.965 172.375 252.971 172.412C253.003 172.4 253.033 172.386 253.063 172.373C253.05 172.337 253.037 172.301 253.025 172.269C253 172.283 252.975 172.293 252.948 172.303Z" fill="#2D2E2C"/>
<path fill-rule="evenodd" clip-rule="evenodd" d="M252.977 172.298C252.981 172.33 252.985 172.364 252.988 172.396L253.034 172.377C253.024 172.345 253.014 172.312 253.005 172.285L252.977 172.298Z" fill="#2D2E2C"/>
<path fill-rule="evenodd" clip-rule="evenodd" d="M253.005 175.487C252.824 175.487 252.647 175.461 252.473 175.422C252.304 175.288 251.725 174.716 251.625 173.133C251.663 172.489 251.8 171.859 252.149 171.528C252.149 171.528 252.306 171.282 252.762 171.602C252.828 171.659 252.903 171.701 252.988 171.701C253.227 171.701 253.419 171.444 253.419 171.127C253.419 170.808 253.227 170.55 252.988 170.55C252.868 170.55 252.76 170.618 252.681 170.725L252.68 170.722C252.68 170.722 251.188 170.071 251.447 168.556C251.652 167.347 252.192 166.985 252.513 166.845C252.673 166.813 252.838 166.79 253.005 166.79C254.802 166.79 256.258 168.739 256.258 171.139C256.258 173.539 254.802 175.487 253.005 175.487ZM253.694 166.42C253.47 166.363 253.241 166.33 253.005 166.33C252.743 166.33 252.487 166.371 252.24 166.442C250.622 166.911 249.409 168.835 249.409 171.139C249.409 173.794 251.019 175.947 253.005 175.947C254.992 175.947 256.602 173.794 256.602 171.139C256.602 168.8 255.351 166.85 253.694 166.42Z" fill="#2D2E2C"/>
<path fill-rule="evenodd" clip-rule="evenodd" d="M244.35 194.417L244.344 194.417C243.184 193.577 241.829 192.64 240.314 191.633L240.227 191.574L206.249 195.291L206.868 195.798C208.106 196.81 209.354 197.85 210.577 198.891C210.973 199.227 211.368 199.565 211.762 199.905L211.86 199.989L244.613 196.135V194.604L244.35 194.417Z" fill="#161715"/>
<path fill-rule="evenodd" clip-rule="evenodd" d="M211.044 198.992C211.441 199.323 211.836 199.655 212.232 199.989L244.613 196.248V195.181L211.044 198.992Z" fill="#464644"/>
<path fill-rule="evenodd" clip-rule="evenodd" d="M236.221 189.734L236.121 189.681C234.647 188.901 233.478 188.3 232.912 188.011L232.828 187.968L200.822 190.632L199.055 190.814L199.726 191.243C200.731 191.887 201.638 192.475 202.496 193.041C202.934 193.33 203.372 193.622 203.81 193.914L203.905 193.979L236.221 191.12V189.734Z" fill="#161715"/>
<path fill-rule="evenodd" clip-rule="evenodd" d="M235.022 190.066V189.17L203.437 191.871L202.652 191.937C203.08 192.215 203.506 192.495 203.933 192.777L235.022 190.066Z" fill="#464644"/>
<path fill-rule="evenodd" clip-rule="evenodd" d="M207.448 196.016C208.687 196.924 209.923 197.848 211.156 198.787L244.613 195.322C243.317 194.478 241.899 193.606 240.507 192.777L207.448 196.016Z" fill="#5F605C"/>
<path fill-rule="evenodd" clip-rule="evenodd" d="M201.204 190.772L200.254 190.875C201.178 191.502 202.1 192.134 203.02 192.777H203.021H203.02L203.825 192.704L236.18 189.732L236.221 189.728C234.711 188.882 233.536 188.244 233.025 187.968L201.204 190.772Z" fill="#5F605C"/>
</g>
<defs>
<filter id="filter0_d" x="262.055" y="97.2751" width="31.2969" height="105.53" filterUnits="userSpaceOnUse" color-interpolation-filters="sRGB">
<feFlood flood-opacity="0" result="BackgroundImageFix"/>
<feColorMatrix in="SourceAlpha" type="matrix" values="0 0 0 0 0 0 0 0 0 0 0 0 0 0 0 0 0 0 127 0"/>
<feOffset dx="1" dy="1"/>
<feGaussianBlur stdDeviation="1"/>
<feColorMatrix type="matrix" values="0 0 0 0 0 0 0 0 0 0 0 0 0 0 0 0 0 0 0.15 0"/>
<feBlend mode="normal" in2="BackgroundImageFix" result="effect1_dropShadow"/>
<feBlend mode="normal" in="SourceGraphic" in2="effect1_dropShadow" result="shape"/>
</filter>
<radialGradient id="paint0_radial" cx="0" cy="0" r="1" gradientUnits="userSpaceOnUse" gradientTransform="translate(150 150) rotate(90) scale(150)">
<stop offset="0.296875" stop-color="white" stop-opacity="0"/>
<stop offset="0.947917" stop-color="#838383" stop-opacity="0.83"/>
</radialGradient>
<clipPath id="clip0">
<rect width="217" height="113" fill="white" transform="translate(42 93)"/>
</clipPath>
</defs>
</svg>
