<svg width="300" height="300" viewBox="0 0 300 300" fill="none" xmlns="http://www.w3.org/2000/svg">
<rect width="300" height="300" fill="white"/>
<rect width="300" height="300" fill="white"/>
<rect width="300" height="300" fill="white"/>
<rect width="300" height="300" fill="url(#paint0_radial)" fill-opacity="0.2"/>
<g filter="url(#filter0_d)">
<path d="M289.5 219.514L263.906 219.514L263.906 210.549C263.906 207.443 264.504 205.088 265.699 203.482C266.883 201.877 268.623 201.074 270.92 201.074C272.174 201.074 273.281 201.397 274.242 202.041C275.191 202.686 275.889 203.582 276.334 204.731C276.662 203.418 277.324 202.387 278.32 201.637C279.316 200.875 280.535 200.494 281.977 200.494C284.437 200.494 286.301 201.279 287.566 202.85C288.832 204.42 289.477 206.658 289.5 209.565L289.5 219.514ZM278.355 214.24L285.264 214.24L285.264 209.723C285.264 208.481 284.971 207.514 284.385 206.822C283.787 206.119 282.967 205.768 281.924 205.768C279.58 205.768 278.391 206.981 278.355 209.406L278.355 214.24ZM274.629 214.24L274.629 210.338C274.582 207.678 273.521 206.348 271.447 206.348C270.287 206.348 269.455 206.688 268.951 207.367C268.436 208.035 268.178 209.096 268.178 210.549L268.178 214.24L274.629 214.24ZM280.131 183.087L280.131 187.288L289.5 187.288L289.5 192.562L263.906 192.562L263.906 183.052C263.906 180.028 264.58 177.696 265.928 176.056C267.275 174.415 269.18 173.595 271.641 173.595C273.387 173.595 274.846 173.976 276.018 174.737C277.178 175.487 278.104 176.63 278.795 178.165L289.254 172.628L289.5 172.628L289.5 178.288L280.131 183.087ZM275.859 187.288L275.859 183.034C275.859 181.71 275.525 180.685 274.857 179.958C274.178 179.231 273.246 178.868 272.062 178.868C270.855 178.868 269.906 179.214 269.215 179.905C268.523 180.585 268.178 181.634 268.178 183.052L268.178 187.288L275.859 187.288ZM277.283 144.586C279.803 144.586 282.012 145.031 283.91 145.922C285.809 146.812 287.273 148.09 288.305 149.754C289.336 151.406 289.852 153.305 289.852 155.449C289.852 157.57 289.342 159.463 288.322 161.127C287.303 162.791 285.85 164.08 283.963 164.994C282.064 165.908 279.885 166.371 277.424 166.383L276.158 166.383C273.639 166.383 271.424 165.932 269.514 165.029C267.592 164.115 266.121 162.832 265.102 161.18C264.07 159.516 263.555 157.617 263.555 155.484C263.555 153.352 264.07 151.459 265.102 149.807C266.121 148.143 267.592 146.859 269.514 145.957C271.424 145.043 273.633 144.586 276.141 144.586L277.283 144.586ZM276.123 149.93C273.439 149.93 271.4 150.41 270.006 151.371C268.611 152.332 267.914 153.703 267.914 155.484C267.914 157.254 268.605 158.619 269.988 159.58C271.359 160.541 273.375 161.027 276.035 161.039L277.283 161.039C279.896 161.039 281.924 160.559 283.365 159.598C284.807 158.637 285.527 157.254 285.527 155.449C285.527 153.68 284.836 152.32 283.453 151.371C282.059 150.422 280.031 149.941 277.371 149.93L276.123 149.93ZM282.117 116.86L263.906 113.415L263.906 108.159L289.5 113.837L289.5 119.145L272.379 123.311L289.5 127.478L289.5 132.786L263.906 138.464L263.906 133.208L282.082 129.745L263.906 125.526L263.906 121.061L282.117 116.86ZM289.5 80.5214L289.5 85.7948L272.66 96.0605L289.5 96.0605L289.5 101.334L263.906 101.334L263.906 96.0605L280.781 85.7773L263.906 85.7773L263.906 80.5214L289.5 80.5214Z" fill="white"/>
<path d="M289.5 219.514L289.5 220.014L290 220.014L290 219.514L289.5 219.514ZM263.906 219.514L263.406 219.514L263.406 220.014L263.906 220.014L263.906 219.514ZM265.699 203.482L266.1 203.781L266.102 203.779L265.699 203.482ZM274.242 202.041L274.523 201.627L274.521 201.626L274.242 202.041ZM276.334 204.731L275.868 204.911L276.437 206.38L276.819 204.852L276.334 204.731ZM278.32 201.637L278.621 202.036L278.624 202.034L278.32 201.637ZM289.5 209.565L290 209.565L290 209.56L289.5 209.565ZM278.355 214.24L277.855 214.24L277.855 214.74L278.355 214.74L278.355 214.24ZM285.264 214.24L285.264 214.74L285.764 214.74L285.764 214.24L285.264 214.24ZM284.385 206.822L284.766 206.499L284.766 206.499L284.385 206.822ZM278.355 209.406L277.855 209.399L277.855 209.406L278.355 209.406ZM274.629 214.24L274.629 214.74L275.129 214.74L275.129 214.24L274.629 214.24ZM274.629 210.338L275.129 210.338L275.129 210.329L274.629 210.338ZM268.951 207.367L269.347 207.673L269.353 207.665L268.951 207.367ZM268.178 214.24L267.678 214.24L267.678 214.74L268.178 214.74L268.178 214.24ZM289.5 219.014L263.906 219.014L263.906 220.014L289.5 220.014L289.5 219.014ZM264.406 219.514L264.406 210.549L263.406 210.549L263.406 219.514L264.406 219.514ZM264.406 210.549C264.406 207.495 264.996 205.264 266.1 203.781L265.298 203.184C264.012 204.912 263.406 207.391 263.406 210.549L264.406 210.549ZM266.102 203.779C267.176 202.322 268.754 201.574 270.92 201.574L270.92 200.574C268.492 200.574 266.59 201.432 265.297 203.186L266.102 203.779ZM270.92 201.574C272.083 201.574 273.092 201.872 273.964 202.456L274.521 201.626C273.47 200.921 272.264 200.574 270.92 200.574L270.92 201.574ZM273.961 202.455C274.82 203.038 275.456 203.85 275.868 204.911L276.8 204.55C276.321 203.314 275.563 202.333 274.523 201.627L273.961 202.455ZM276.819 204.852C277.122 203.64 277.724 202.711 278.621 202.036L278.02 201.237C276.924 202.062 276.202 203.196 275.849 204.609L276.819 204.852ZM278.624 202.034C279.52 201.349 280.628 200.994 281.977 200.994L281.977 199.994C280.443 199.994 279.113 200.401 278.017 201.24L278.624 202.034ZM281.977 200.994C284.323 200.994 286.027 201.737 287.177 203.163L287.956 202.536C286.574 200.822 284.552 199.994 281.977 199.994L281.977 200.994ZM287.177 203.163C288.347 204.615 288.977 206.727 289 209.569L290 209.56C289.976 206.59 289.317 204.225 287.956 202.536L287.177 203.163ZM289 209.565L289 219.514L290 219.514L290 209.565L289 209.565ZM278.355 214.74L285.264 214.74L285.264 213.74L278.355 213.74L278.355 214.74ZM285.764 214.24L285.764 209.723L284.764 209.723L284.764 214.24L285.764 214.24ZM285.764 209.723C285.764 208.406 285.453 207.309 284.766 206.499L284.003 207.146C284.488 207.718 284.764 208.555 284.764 209.723L285.764 209.723ZM284.766 206.499C284.06 205.668 283.092 205.268 281.924 205.268L281.924 206.268C282.841 206.268 283.514 206.57 284.004 207.146L284.766 206.499ZM281.924 205.268C280.67 205.268 279.637 205.593 278.917 206.327C278.2 207.058 277.874 208.113 277.856 209.399L278.855 209.414C278.872 208.274 279.158 207.509 279.631 207.027C280.1 206.549 280.834 206.268 281.924 206.268L281.924 205.268ZM277.855 209.406L277.855 214.24L278.855 214.24L278.855 209.406L277.855 209.406ZM275.129 214.24L275.129 210.338L274.129 210.338L274.129 214.24L275.129 214.24ZM275.129 210.329C275.104 208.947 274.817 207.821 274.189 207.034C273.543 206.223 272.6 205.848 271.447 205.848L271.447 206.848C272.369 206.848 272.993 207.137 273.407 207.657C273.84 208.199 274.106 209.069 274.129 210.347L275.129 210.329ZM271.447 205.848C270.192 205.848 269.18 206.219 268.55 207.069L269.353 207.665C269.73 207.156 270.382 206.848 271.447 206.848L271.447 205.848ZM268.555 207.062C267.939 207.861 267.678 209.057 267.678 210.549L268.678 210.549C268.678 209.134 268.933 208.21 269.347 207.673L268.555 207.062ZM267.678 210.549L267.678 214.24L268.678 214.24L268.678 210.549L267.678 210.549ZM268.178 214.74L274.629 214.74L274.629 213.74L268.178 213.74L268.178 214.74ZM280.131 183.087L279.903 182.642L279.631 182.781L279.631 183.087L280.131 183.087ZM280.131 187.288L279.631 187.288L279.631 187.788L280.131 187.788L280.131 187.288ZM289.5 187.288L290 187.288L290 186.788L289.5 186.788L289.5 187.288ZM289.5 192.562L289.5 193.062L290 193.062L290 192.562L289.5 192.562ZM263.906 192.562L263.406 192.562L263.406 193.062L263.906 193.062L263.906 192.562ZM276.018 174.737L275.745 175.157L275.746 175.157L276.018 174.737ZM278.795 178.165L278.339 178.37L278.558 178.856L279.029 178.607L278.795 178.165ZM289.254 172.628L289.254 172.128L289.13 172.128L289.02 172.186L289.254 172.628ZM289.5 172.628L290 172.628L290 172.128L289.5 172.128L289.5 172.628ZM289.5 178.288L289.728 178.733L290 178.594L290 178.288L289.5 178.288ZM275.859 187.288L275.859 187.788L276.359 187.788L276.359 187.288L275.859 187.288ZM274.857 179.958L275.226 179.62L275.223 179.616L274.857 179.958ZM269.215 179.905L269.565 180.262L269.568 180.259L269.215 179.905ZM268.178 187.288L267.678 187.288L267.678 187.788L268.178 187.788L268.178 187.288ZM279.631 183.087L279.631 187.288L280.631 187.288L280.631 183.087L279.631 183.087ZM280.131 187.788L289.5 187.788L289.5 186.788L280.131 186.788L280.131 187.788ZM289 187.288L289 192.562L290 192.562L290 187.288L289 187.288ZM289.5 192.062L263.906 192.062L263.906 193.062L289.5 193.062L289.5 192.062ZM264.406 192.562L264.406 183.052L263.406 183.052L263.406 192.562L264.406 192.562ZM264.406 183.052C264.406 180.096 265.066 177.893 266.314 176.373L265.541 175.738C264.095 177.5 263.406 179.961 263.406 183.052L264.406 183.052ZM266.314 176.373C267.551 174.867 269.303 174.095 271.641 174.095L271.641 173.095C269.057 173.095 267 173.963 265.541 175.738L266.314 176.373ZM271.641 174.095C273.314 174.095 274.672 174.459 275.745 175.157L276.29 174.318C275.019 173.492 273.459 173.095 271.641 173.095L271.641 174.095ZM275.746 175.157C276.809 175.845 277.678 176.904 278.339 178.37L279.251 177.96C278.529 176.356 277.546 175.13 276.289 174.317L275.746 175.157ZM279.029 178.607L289.488 173.07L289.02 172.186L278.561 177.723L279.029 178.607ZM289.254 173.128L289.5 173.128L289.5 172.128L289.254 172.128L289.254 173.128ZM289 172.628L289 178.288L290 178.288L290 172.628L289 172.628ZM289.272 177.843L279.903 182.642L280.359 183.532L289.728 178.733L289.272 177.843ZM276.359 187.288L276.359 183.034L275.359 183.034L275.359 187.288L276.359 187.288ZM276.359 183.034C276.359 181.628 276.004 180.466 275.226 179.62L274.489 180.296C275.047 180.903 275.359 181.792 275.359 183.034L276.359 183.034ZM275.223 179.616C274.43 178.77 273.356 178.368 272.062 178.368L272.062 179.368C273.136 179.368 273.925 179.693 274.492 180.3L275.223 179.616ZM272.062 178.368C270.756 178.368 269.667 178.746 268.861 179.552L269.568 180.259C270.145 179.682 270.955 179.368 272.062 179.368L272.062 178.368ZM268.864 179.549C268.041 180.358 267.678 181.562 267.678 183.052L268.678 183.052C268.678 181.706 269.006 180.812 269.565 180.262L268.864 179.549ZM267.678 183.052L267.678 187.288L268.678 187.288L268.678 183.052L267.678 183.052ZM268.178 187.788L275.859 187.788L275.859 186.788L268.178 186.788L268.178 187.788ZM288.305 149.754L287.88 150.017L287.881 150.019L288.305 149.754ZM283.963 164.994L284.18 165.445L284.181 165.444L283.963 164.994ZM277.424 166.383L277.424 166.883L277.426 166.883L277.424 166.383ZM269.514 165.029L269.299 165.481L269.3 165.481L269.514 165.029ZM265.102 161.18L265.527 160.917L265.527 160.916L265.102 161.18ZM265.102 149.807L265.526 150.071L265.528 150.068L265.102 149.807ZM269.514 145.957L269.726 146.41L269.729 146.408L269.514 145.957ZM269.988 159.58L270.275 159.171L270.274 159.169L269.988 159.58ZM276.035 161.039L276.033 161.539L276.035 161.539L276.035 161.039ZM283.453 151.371L283.736 150.959L283.734 150.958L283.453 151.371ZM277.371 149.93L277.373 149.43L277.371 149.43L277.371 149.93ZM277.283 145.086C279.744 145.086 281.878 145.521 283.698 146.375L284.123 145.469C282.146 144.542 279.862 144.086 277.283 144.086L277.283 145.086ZM283.698 146.375C285.515 147.227 286.903 148.442 287.88 150.017L288.73 149.491C287.644 147.738 286.102 146.398 284.123 145.469L283.698 146.375ZM287.881 150.019C288.857 151.584 289.352 153.389 289.352 155.449L290.352 155.449C290.352 153.221 289.815 151.229 288.729 149.489L287.881 150.019ZM289.352 155.449C289.352 157.486 288.863 159.287 287.896 160.866L288.749 161.388C289.82 159.639 290.352 157.654 290.352 155.449L289.352 155.449ZM287.896 160.866C286.93 162.442 285.552 163.669 283.745 164.544L284.181 165.444C286.147 164.492 287.675 163.14 288.749 161.388L287.896 160.866ZM283.746 164.544C281.925 165.42 279.82 165.871 277.421 165.883L277.426 166.883C279.949 166.871 282.204 166.396 284.18 165.445L283.746 164.544ZM277.424 165.883L276.158 165.883L276.158 166.883L277.424 166.883L277.424 165.883ZM276.158 165.883C273.698 165.883 271.559 165.443 269.727 164.577L269.3 165.481C271.289 166.421 273.579 166.883 276.158 166.883L276.158 165.883ZM269.728 164.578C267.885 163.701 266.491 162.48 265.527 160.917L264.676 161.442C265.751 163.184 267.299 164.53 269.299 165.481L269.728 164.578ZM265.527 160.916C264.549 159.338 264.055 157.533 264.055 155.484L263.055 155.484C263.055 157.702 263.592 159.693 264.677 161.443L265.527 160.916ZM264.055 155.484C264.055 153.436 264.549 151.637 265.526 150.071L264.677 149.542C263.592 151.281 263.055 153.267 263.055 155.484L264.055 155.484ZM265.528 150.068C266.492 148.494 267.885 147.274 269.726 146.41L269.301 145.504C267.299 146.444 265.75 147.791 264.675 149.545L265.528 150.068ZM269.729 146.408C271.561 145.532 273.694 145.086 276.141 145.086L276.141 144.086C273.572 144.086 271.287 144.554 269.298 145.506L269.729 146.408ZM276.141 145.086L277.283 145.086L277.283 144.086L276.141 144.086L276.141 145.086ZM276.123 149.43C273.393 149.43 271.236 149.916 269.722 150.959L270.29 151.783C271.565 150.904 273.486 150.43 276.123 150.43L276.123 149.43ZM269.722 150.959C268.184 152.019 267.414 153.549 267.414 155.484L268.414 155.484C268.414 153.857 269.039 152.645 270.29 151.783L269.722 150.959ZM267.414 155.484C267.414 157.408 268.178 158.931 269.703 159.991L270.274 159.169C269.033 158.307 268.414 157.1 268.414 155.484L267.414 155.484ZM269.701 159.99C271.192 161.034 273.326 161.527 276.033 161.539L276.037 160.539C273.424 160.528 271.527 160.048 270.275 159.171L269.701 159.99ZM276.035 161.539L277.283 161.539L277.283 160.539L276.035 160.539L276.035 161.539ZM277.283 161.539C279.948 161.539 282.087 161.051 283.643 160.014L283.088 159.182C281.761 160.067 279.845 160.539 277.283 160.539L277.283 161.539ZM283.643 160.014C285.23 158.955 286.027 157.413 286.027 155.449L285.027 155.449C285.027 157.095 284.383 158.318 283.088 159.182L283.643 160.014ZM286.027 155.449C286.027 153.526 285.263 152.007 283.736 150.959L283.17 151.783C284.408 152.633 285.027 153.834 285.027 155.449L286.027 155.449ZM283.734 150.958C282.223 149.929 280.08 149.442 277.373 149.43L277.369 150.43C279.982 150.441 281.895 150.915 283.172 151.784L283.734 150.958ZM277.371 149.43L276.123 149.43L276.123 150.43L277.371 150.43L277.371 149.43ZM282.117 116.86L282.23 117.348L282.21 116.369L282.117 116.86ZM263.906 113.415L263.406 113.415L263.406 113.829L263.813 113.906L263.906 113.415ZM263.906 108.159L264.015 107.671L263.406 107.536L263.406 108.159L263.906 108.159ZM289.5 113.837L290 113.837L290 113.436L289.608 113.349L289.5 113.837ZM289.5 119.145L289.618 119.631L290 119.538L290 119.145L289.5 119.145ZM272.379 123.311L272.261 122.826L272.261 123.797L272.379 123.311ZM289.5 127.478L290 127.478L290 127.085L289.618 126.992L289.5 127.478ZM289.5 132.786L289.608 133.274L290 133.187L290 132.786L289.5 132.786ZM263.906 138.464L263.406 138.464L263.406 139.087L264.015 138.952L263.906 138.464ZM263.906 133.208L263.813 132.717L263.406 132.794L263.406 133.208L263.906 133.208ZM282.082 129.745L282.176 130.236L282.195 129.258L282.082 129.745ZM263.906 125.526L263.406 125.526L263.406 125.924L263.793 126.013L263.906 125.526ZM263.906 121.061L263.794 120.574L263.406 120.664L263.406 121.061L263.906 121.061ZM282.21 116.369L263.999 112.924L263.813 113.906L282.024 117.352L282.21 116.369ZM264.406 113.415L264.406 108.159L263.406 108.159L263.406 113.415L264.406 113.415ZM263.798 108.647L289.392 114.325L289.608 113.349L264.015 107.671L263.798 108.647ZM289 113.837L289 119.145L290 119.145L290 113.837L289 113.837ZM289.382 118.66L272.261 122.826L272.497 123.797L289.618 119.631L289.382 118.66ZM272.261 123.797L289.382 127.963L289.618 126.992L272.497 122.826L272.261 123.797ZM289 127.478L289 132.786L290 132.786L290 127.478L289 127.478ZM289.392 132.298L263.798 137.976L264.015 138.952L289.608 133.274L289.392 132.298ZM264.406 138.464L264.406 133.208L263.406 133.208L263.406 138.464L264.406 138.464ZM264 133.699L282.176 130.236L281.988 129.254L263.813 132.717L264 133.699ZM282.195 129.258L264.019 125.039L263.793 126.013L281.969 130.232L282.195 129.258ZM264.406 125.526L264.406 121.061L263.406 121.061L263.406 125.526L264.406 125.526ZM264.019 121.549L282.23 117.348L282.005 116.373L263.794 120.574L264.019 121.549ZM289.5 80.5214L290 80.5214L290 80.0214L289.5 80.0214L289.5 80.5214ZM289.5 85.7948L289.76 86.2218L290 86.0756L290 85.7948L289.5 85.7948ZM272.66 96.0605L272.4 95.6335L270.879 96.5605L272.66 96.5605L272.66 96.0605ZM289.5 96.0605L290 96.0605L290 95.5605L289.5 95.5605L289.5 96.0605ZM289.5 101.334L289.5 101.834L290 101.834L290 101.334L289.5 101.334ZM263.906 101.334L263.406 101.334L263.406 101.834L263.906 101.834L263.906 101.334ZM263.906 96.0605L263.646 95.6335L263.406 95.7796L263.406 96.0605L263.906 96.0605ZM280.781 85.7773L281.041 86.2042L282.563 85.2773L280.781 85.2773L280.781 85.7773ZM263.906 85.7773L263.406 85.7773L263.406 86.2773L263.906 86.2773L263.906 85.7773ZM263.906 80.5214L263.906 80.0214L263.406 80.0214L263.406 80.5214L263.906 80.5214ZM289 80.5214L289 85.7948L290 85.7948L290 80.5214L289 80.5214ZM289.24 85.3679L272.4 95.6335L272.92 96.4874L289.76 86.2218L289.24 85.3679ZM272.66 96.5605L289.5 96.5605L289.5 95.5605L272.66 95.5605L272.66 96.5605ZM289 96.0605L289 101.334L290 101.334L290 96.0605L289 96.0605ZM289.5 100.834L263.906 100.834L263.906 101.834L289.5 101.834L289.5 100.834ZM264.406 101.334L264.406 96.0605L263.406 96.0605L263.406 101.334L264.406 101.334ZM264.166 96.4874L281.041 86.2042L280.521 85.3503L263.646 95.6335L264.166 96.4874ZM280.781 85.2773L263.906 85.2773L263.906 86.2773L280.781 86.2773L280.781 85.2773ZM264.406 85.7773L264.406 80.5214L263.406 80.5214L263.406 85.7773L264.406 85.7773ZM263.906 81.0214L289.5 81.0214L289.5 80.0214L263.906 80.0214L263.906 81.0214Z" fill="#78491F"/>
</g>
<path d="M58.9453 238.711H41.875V285H28.1641V238.711H11.4062V228.125H58.9453V238.711ZM65.8285 275.631H61.6273V285H56.3539V259.406H65.8637C68.8871 259.406 71.2191 260.08 72.8598 261.428C74.5004 262.775 75.3207 264.68 75.3207 267.141C75.3207 268.887 74.9398 270.346 74.1781 271.518C73.4281 272.678 72.2855 273.604 70.7504 274.295L76.2875 284.754V285H70.6273L65.8285 275.631ZM61.6273 271.359H65.8812C67.2055 271.359 68.2309 271.025 68.9574 270.357C69.684 269.678 70.0473 268.746 70.0473 267.562C70.0473 266.355 69.7016 265.406 69.0102 264.715C68.3305 264.023 67.2816 263.678 65.8637 263.678H61.6273V271.359ZM101.237 259.406V276.264C101.237 279.064 100.358 281.279 98.6005 282.908C96.8544 284.537 94.4638 285.352 91.4286 285.352C88.4403 285.352 86.0673 284.561 84.3095 282.979C82.5516 281.396 81.6552 279.223 81.62 276.457V259.406H86.8934V276.299C86.8934 277.975 87.2919 279.199 88.0888 279.973C88.8973 280.734 90.0106 281.115 91.4286 281.115C94.3934 281.115 95.8993 279.557 95.9462 276.439V259.406H101.237ZM128.173 276.475C127.974 279.229 126.954 281.396 125.115 282.979C123.286 284.561 120.872 285.352 117.872 285.352C114.591 285.352 112.007 284.25 110.12 282.047C108.245 279.832 107.308 276.797 107.308 272.941V271.377C107.308 268.916 107.742 266.748 108.609 264.873C109.476 262.998 110.712 261.562 112.318 260.566C113.935 259.559 115.81 259.055 117.943 259.055C120.896 259.055 123.275 259.846 125.079 261.428C126.884 263.01 127.927 265.23 128.208 268.09H122.935C122.806 266.438 122.343 265.242 121.546 264.504C120.761 263.754 119.56 263.379 117.943 263.379C116.185 263.379 114.867 264.012 113.988 265.277C113.12 266.531 112.675 268.482 112.652 271.131V273.064C112.652 275.83 113.068 277.852 113.9 279.129C114.744 280.406 116.068 281.045 117.872 281.045C119.501 281.045 120.714 280.676 121.511 279.938C122.32 279.188 122.783 278.033 122.9 276.475H128.173ZM142.172 274.734L139.43 277.688V285H134.156V259.406H139.43V271.008L141.75 267.826L148.271 259.406H154.758L145.67 270.779L155.021 285H148.746L142.172 274.734Z" fill="black"/>
<path d="M71.6515 20.126H67.2657V32H66.1847V20.126H61.8077V19.2031H71.6515V20.126ZM80.487 26.6738H76.7692V32H75.6793V19.2031H79.8366C81.2018 19.2031 82.2682 19.5342 83.0358 20.1963C83.8034 20.8584 84.1871 21.7842 84.1871 22.9736C84.1871 23.7939 83.9469 24.5176 83.4664 25.1445C82.986 25.7715 82.3414 26.2051 81.5329 26.4453L84.7321 31.8857V32H83.5807L80.487 26.6738ZM76.7692 25.751H80.0827C80.9909 25.751 81.7204 25.4932 82.2711 24.9775C82.8219 24.4619 83.0973 23.7939 83.0973 22.9736C83.0973 22.0713 82.8102 21.3711 82.236 20.873C81.6618 20.375 80.8561 20.126 79.819 20.126H76.7692V25.751ZM96.0197 28.4141H90.2101L88.8918 32H87.758L92.6007 19.2031H93.6291L98.4718 32H97.3468L96.0197 28.4141ZM90.5441 27.4912H95.6769L93.1105 20.5215L90.5441 27.4912ZM111.869 32H110.788L103.431 21.0488V32H102.341V19.2031H103.431L110.797 30.1631V19.2031H111.869V32ZM124.343 28.8535C124.343 28.1445 124.094 27.585 123.596 27.1748C123.098 26.7588 122.187 26.3662 120.862 25.9971C119.538 25.6221 118.571 25.2148 117.962 24.7754C117.095 24.1543 116.661 23.3398 116.661 22.332C116.661 21.3535 117.063 20.5596 117.865 19.9502C118.674 19.335 119.705 19.0273 120.959 19.0273C121.809 19.0273 122.568 19.1914 123.236 19.5195C123.909 19.8477 124.431 20.3047 124.8 20.8906C125.169 21.4766 125.354 22.1299 125.354 22.8506H124.264C124.264 21.9775 123.965 21.2773 123.367 20.75C122.77 20.2168 121.967 19.9502 120.959 19.9502C119.981 19.9502 119.201 20.1699 118.621 20.6094C118.041 21.043 117.751 21.6113 117.751 22.3145C117.751 22.9648 118.012 23.4951 118.533 23.9053C119.055 24.3154 119.89 24.6787 121.038 24.9951C122.187 25.3057 123.057 25.6309 123.649 25.9707C124.24 26.3047 124.686 26.7061 124.985 27.1748C125.283 27.6436 125.433 28.1973 125.433 28.8359C125.433 29.8438 125.029 30.6523 124.22 31.2617C123.417 31.8711 122.357 32.1758 121.038 32.1758C120.136 32.1758 119.307 32.0146 118.551 31.6924C117.801 31.3701 117.23 30.9189 116.837 30.3389C116.45 29.7588 116.257 29.0938 116.257 28.3438H117.338C117.338 29.2461 117.675 29.958 118.349 30.4795C119.023 31.001 119.919 31.2617 121.038 31.2617C122.034 31.2617 122.834 31.042 123.438 30.6025C124.041 30.1631 124.343 29.5801 124.343 28.8535ZM130.832 26.7881V32H129.751V19.2031H134.11C135.44 19.2031 136.489 19.543 137.257 20.2227C138.03 20.9023 138.417 21.8369 138.417 23.0264C138.417 24.2275 138.045 25.1562 137.301 25.8125C136.562 26.4629 135.49 26.7881 134.084 26.7881H130.832ZM130.832 25.874H134.11C135.159 25.874 135.959 25.625 136.509 25.127C137.06 24.6289 137.336 23.9346 137.336 23.0439C137.336 22.1592 137.06 21.4561 136.509 20.9346C135.965 20.4072 135.188 20.1377 134.18 20.126H130.832V25.874ZM152.28 26.2959C152.28 27.4736 152.074 28.5078 151.664 29.3984C151.26 30.2891 150.68 30.9746 149.924 31.4551C149.168 31.9355 148.295 32.1758 147.305 32.1758C145.811 32.1758 144.604 31.6426 143.684 30.5762C142.764 29.5039 142.304 28.0596 142.304 26.2432V24.9248C142.304 23.7588 142.509 22.7275 142.919 21.8311C143.335 20.9287 143.921 20.2373 144.677 19.7568C145.433 19.2705 146.303 19.0273 147.287 19.0273C148.272 19.0273 149.139 19.2646 149.889 19.7393C150.645 20.2139 151.228 20.8848 151.638 21.752C152.048 22.6191 152.262 23.624 152.28 24.7666V26.2959ZM151.198 24.9072C151.198 23.3662 150.85 22.1592 150.153 21.2861C149.455 20.4131 148.5 19.9766 147.287 19.9766C146.098 19.9766 145.149 20.416 144.44 21.2949C143.737 22.168 143.385 23.3896 143.385 24.96V26.2959C143.385 27.8135 143.737 29.0176 144.44 29.9082C145.143 30.793 146.098 31.2354 147.305 31.2354C148.53 31.2354 149.485 30.7988 150.17 29.9258C150.856 29.0469 151.198 27.8252 151.198 26.2607V24.9072ZM161.765 26.6738H158.048V32H156.958V19.2031H161.115C162.48 19.2031 163.547 19.5342 164.314 20.1963C165.082 20.8584 165.466 21.7842 165.466 22.9736C165.466 23.7939 165.225 24.5176 164.745 25.1445C164.264 25.7715 163.62 26.2051 162.811 26.4453L166.01 31.8857V32H164.859L161.765 26.6738ZM158.048 25.751H161.361C162.269 25.751 162.999 25.4932 163.55 24.9775C164.1 24.4619 164.376 23.7939 164.376 22.9736C164.376 22.0713 164.089 21.3711 163.514 20.873C162.94 20.375 162.135 20.126 161.097 20.126H158.048V25.751ZM178.37 20.126H173.985V32H172.904V20.126H168.527V19.2031H178.37V20.126ZM188.63 28.4141H182.82L181.502 32H180.368L185.211 19.2031H186.239L191.082 32H189.957L188.63 28.4141ZM183.154 27.4912H188.287L185.721 20.5215L183.154 27.4912ZM202.492 20.126H198.107V32H197.026V20.126H192.649V19.2031H202.492V20.126ZM207.865 32H206.784V19.2031H207.865V32ZM222.783 26.2959C222.783 27.4736 222.577 28.5078 222.167 29.3984C221.763 30.2891 221.183 30.9746 220.427 31.4551C219.671 31.9355 218.798 32.1758 217.808 32.1758C216.314 32.1758 215.107 31.6426 214.187 30.5762C213.267 29.5039 212.807 28.0596 212.807 26.2432V24.9248C212.807 23.7588 213.012 22.7275 213.422 21.8311C213.838 20.9287 214.424 20.2373 215.18 19.7568C215.936 19.2705 216.806 19.0273 217.79 19.0273C218.775 19.0273 219.642 19.2646 220.392 19.7393C221.148 20.2139 221.731 20.8848 222.141 21.752C222.551 22.6191 222.765 23.624 222.783 24.7666V26.2959ZM221.702 24.9072C221.702 23.3662 221.353 22.1592 220.656 21.2861C219.958 20.4131 219.003 19.9766 217.79 19.9766C216.601 19.9766 215.652 20.416 214.943 21.2949C214.24 22.168 213.888 23.3896 213.888 24.96V26.2959C213.888 27.8135 214.24 29.0176 214.943 29.9082C215.646 30.793 216.601 31.2354 217.808 31.2354C219.033 31.2354 219.988 30.7988 220.673 29.9258C221.359 29.0469 221.702 27.8252 221.702 26.2607V24.9072ZM237.015 32H235.933L228.577 21.0488V32H227.487V19.2031H228.577L235.942 30.1631V19.2031H237.015V32Z" fill="black"/>
<path fill-rule="evenodd" clip-rule="evenodd" d="M220.919 113.113H201.709C200.985 113.113 200.398 112.518 200.398 111.784V110.385C200.398 109.651 200.985 109.056 201.709 109.056H220.919C221.642 109.056 222.229 109.651 222.229 110.385V111.784C222.229 112.518 221.642 113.113 220.919 113.113Z" fill="#707070"/>
<mask id="mask0" mask-type="alpha" maskUnits="userSpaceOnUse" x="52" y="97" width="196" height="74">
<path d="M248 171H52V97.0471H248V171Z" fill="white"/>
</mask>
<g mask="url(#mask0)">
<path fill-rule="evenodd" clip-rule="evenodd" d="M108.99 149.664H107.081V146.446H108.99V149.664Z" fill="#4D2800"/>
<path fill-rule="evenodd" clip-rule="evenodd" d="M181.678 149.664H179.769V146.446H181.678V149.664Z" fill="#4D2800"/>
<path fill-rule="evenodd" clip-rule="evenodd" d="M144.584 149.664H142.675V146.446H144.584V149.664Z" fill="#4D2800"/>
</g>
<mask id="mask1" mask-type="alpha" maskUnits="userSpaceOnUse" x="54" y="124" width="183" height="24">
<path d="M234.195 124.401C234.515 124.696 236.138 139.967 236.138 139.967L231.536 147.795H56.2195L54.4141 132.76L60.0806 125.808L103.232 124.401C103.232 124.401 161.296 124.27 200.1 124.27C219.5 124.27 234.089 124.303 234.195 124.401Z" fill="white"/>
</mask>
<g mask="url(#mask1)">
<path fill-rule="evenodd" clip-rule="evenodd" d="M234.195 124.401C234.515 124.696 236.138 139.967 236.138 139.967L231.536 147.795H56.2195L54.4141 132.76L60.0806 125.808L103.232 124.401C103.232 124.401 161.296 124.27 200.1 124.27C219.5 124.27 234.089 124.303 234.195 124.401Z" fill="url(#paint1_linear)"/>
</g>
<path fill-rule="evenodd" clip-rule="evenodd" d="M122.631 99.5481L113.172 121.123H105.108L104.571 118.948L103.692 115.316L110.62 101.853L114.287 100.179L115.66 99.5481H122.631Z" fill="#1B7EAE"/>
<path fill-rule="evenodd" clip-rule="evenodd" d="M114.287 100.179L106.051 118.948H104.571L103.692 115.316L110.62 101.853L114.287 100.179Z" fill="#3C7D93"/>
<path fill-rule="evenodd" clip-rule="evenodd" d="M110.624 122.566H64.8552V122.324C64.8552 118.453 69.874 115.316 76.0647 115.316H103.701L110.624 122.566Z" fill="#93552F"/>
<path fill-rule="evenodd" clip-rule="evenodd" d="M69.3074 116.766C66.6181 118.046 64.8557 120.048 64.8557 122.324V122.566H110.624L105.085 116.766H69.3074Z" fill="#4D2800"/>
<path fill-rule="evenodd" clip-rule="evenodd" d="M183.685 153.235H103.815C102.27 153.235 100.864 152.366 100.209 151.005L99.0478 148.596H188.453L187.291 151.005C186.635 152.366 185.23 153.235 183.685 153.235Z" fill="#864116"/>
<path fill-rule="evenodd" clip-rule="evenodd" d="M100.129 150.84L100.209 151.005C100.865 152.366 102.27 153.235 103.815 153.235H183.685C185.23 153.235 186.636 152.366 187.291 151.005L187.371 150.84H100.129Z" fill="#4D2800"/>
<mask id="mask2" mask-type="alpha" maskUnits="userSpaceOnUse" x="53" y="97" width="195" height="51">
<path d="M248 97.0471H53.0942V147.396H248V97.0471Z" fill="white"/>
</mask>
<g mask="url(#mask2)">
<path fill-rule="evenodd" clip-rule="evenodd" d="M248 124.364L247.484 126.995L245.082 139.24L243.474 147.396H231.398V141.459C231.398 134.673 225.972 129.192 219.28 129.192H200.598C193.927 129.192 188.5 134.673 188.5 141.459V147.396H99.0369V141.459C99.0369 134.673 93.6318 129.192 86.9401 129.192H68.2581C68.0866 129.192 67.936 129.192 67.765 129.214C62.8316 129.409 58.6708 132.563 56.9761 137C56.4402 138.37 56.1395 139.893 56.1395 141.459V147.396C54.4667 147.396 53.0942 146.004 53.0942 144.307V133.651C53.0942 131.302 53.6301 129.062 54.6168 127.06C57.1049 121.819 62.5308 118.187 68.8164 118.187H107.081L115.531 101.853H109.891C108.947 101.853 108.196 101.092 108.196 100.136C108.196 98.4388 109.569 97.0471 111.241 97.0471H176.146C178.677 97.0471 180.715 99.135 180.715 101.68V118.187H241.715C243.496 118.187 245.104 118.905 246.219 120.079C247.335 121.21 248 122.689 248 124.364Z" fill="#864116"/>
</g>
<path fill-rule="evenodd" clip-rule="evenodd" d="M248 124.364L247.484 126.995L245.082 139.24L243.474 147.396H241.243L246.219 120.079C247.335 121.21 248 122.689 248 124.364Z" fill="#4D2800"/>
<path fill-rule="evenodd" clip-rule="evenodd" d="M106.41 118.187H68.8163C62.5308 118.187 57.1048 121.819 54.6167 127.06C53.63 129.062 53.0941 131.302 53.0941 133.651V144.307C53.0941 146.004 54.4671 147.396 56.1394 147.396V147.29C54.8362 146.954 53.8604 145.79 53.8604 144.405V134.086C53.8604 131.811 54.3947 129.642 55.3778 127.705C57.8555 122.629 63.2616 119.112 69.5206 119.112H106.41V118.187Z" fill="#B17F4A"/>
<mask id="mask3" mask-type="alpha" maskUnits="userSpaceOnUse" x="108" y="97" width="72" height="2">
<path d="M179.568 97.0471H108.595V98.6417H179.568V97.0471Z" fill="white"/>
</mask>
<g mask="url(#mask3)">
<path fill-rule="evenodd" clip-rule="evenodd" d="M179.568 98.6418C178.733 97.6735 177.519 97.0471 176.147 97.0471H111.241C110.104 97.0471 109.119 97.6973 108.595 98.6418H179.568Z" fill="#B17F4A"/>
</g>
<path fill-rule="evenodd" clip-rule="evenodd" d="M155.047 141.697H116.35C110.936 141.697 106.531 137.26 106.531 131.806V118.187L107.582 116.755V131.806C107.582 136.676 111.515 140.638 116.35 140.638H155.047V141.697Z" fill="#B17F4A"/>
<path fill-rule="evenodd" clip-rule="evenodd" d="M180.723 118.183V101.688C180.723 100.267 180.079 99.0104 179.086 98.1594V147.393H182.054V118.183H180.723Z" fill="#B17F4A"/>
<path fill-rule="evenodd" clip-rule="evenodd" d="M246.213 120.084C245.077 118.915 243.485 118.183 241.708 118.183H180.713V120.084H246.213Z" fill="#B17F4A"/>
<path fill-rule="evenodd" clip-rule="evenodd" d="M186.849 138.758C187.321 138.758 187.753 138.44 187.883 137.956C189.441 132.15 194.673 128.094 200.607 128.094H219.285C222.157 128.094 224.889 129.019 227.185 130.768C227.659 131.127 228.33 131.033 228.687 130.551C229.043 130.071 228.947 129.39 228.474 129.029C225.802 126.995 222.625 125.918 219.285 125.918H200.607C193.708 125.918 187.624 130.634 185.814 137.385C185.658 137.965 185.995 138.562 186.567 138.719C186.661 138.746 186.756 138.758 186.849 138.758Z" fill="#B17F4A"/>
<path fill-rule="evenodd" clip-rule="evenodd" d="M233.303 139.929C233.368 139.929 233.432 139.923 233.498 139.912C234.081 139.803 234.465 139.236 234.359 138.645C233.87 135.944 232.671 133.411 230.89 131.319C230.503 130.864 229.826 130.813 229.377 131.206C228.928 131.598 228.879 132.285 229.266 132.739C230.797 134.539 231.829 136.717 232.249 139.038C232.345 139.563 232.796 139.929 233.303 139.929Z" fill="#B17F4A"/>
<path fill-rule="evenodd" clip-rule="evenodd" d="M55.2442 136.652C55.655 136.652 56.0459 136.413 56.2237 136.01C58.35 131.201 63.0743 128.094 68.2589 128.094H86.9384C88.6106 128.094 90.2412 128.408 91.7836 129.029C92.331 129.25 92.9576 128.979 93.176 128.419C93.3939 127.861 93.1249 127.228 92.5744 127.007C90.7781 126.285 88.8822 125.919 86.9384 125.919H68.2589C62.2309 125.919 56.7387 129.53 54.2668 135.12C54.0244 135.668 54.2658 136.311 54.8064 136.557C54.9492 136.622 55.0977 136.652 55.2442 136.652Z" fill="#B17F4A"/>
<path fill-rule="evenodd" clip-rule="evenodd" d="M101.07 140.659C101.117 140.659 101.164 140.656 101.211 140.649C101.798 140.572 102.212 140.025 102.135 139.431C101.625 135.492 99.6612 131.932 96.6039 129.406C96.1426 129.025 95.4686 129.097 95.0953 129.562C94.7206 130.028 94.7899 130.713 95.2486 131.092C97.8795 133.266 99.57 136.328 100.008 139.713C100.079 140.26 100.54 140.659 101.07 140.659Z" fill="#B17F4A"/>
<path fill-rule="evenodd" clip-rule="evenodd" d="M112.353 119.271C111.297 119.271 110.342 118.731 109.862 117.863C109.433 117.088 109.45 116.171 109.909 115.41L117.378 101.705C117.692 101.129 118.29 100.771 118.939 100.771H148.875C149.974 100.771 150.811 101.769 150.635 102.869L148.252 117.752C148.113 118.628 147.367 119.271 146.492 119.271H112.353Z" fill="#4D2800"/>
<path fill-rule="evenodd" clip-rule="evenodd" d="M149.506 103.137L148.863 107.247L147.254 117.252C147.168 117.796 146.697 118.187 146.161 118.187H112.357C111.049 118.187 110.212 116.969 110.834 115.968L118.212 102.441C118.405 102.071 118.771 101.853 119.157 101.853H148.434C149.099 101.853 149.614 102.463 149.506 103.137Z" fill="#00384A"/>
<path fill-rule="evenodd" clip-rule="evenodd" d="M148.863 107.247L147.254 117.252C147.168 117.796 146.697 118.187 146.16 118.187H112.529L118.234 107.726C118.427 107.378 118.791 107.16 119.2 107.16H148.456C148.606 107.16 148.735 107.182 148.863 107.247Z" fill="#1B7EAE"/>
<path fill-rule="evenodd" clip-rule="evenodd" d="M99.0478 141.778V147.393H180.723H188.497V141.778H99.0478Z" fill="#4D2800"/>
<path fill-rule="evenodd" clip-rule="evenodd" d="M53.1011 141.778V144.302C53.1011 146.009 54.4658 147.393 56.15 147.393V141.778H53.1011Z" fill="#4D2800"/>
<path fill-rule="evenodd" clip-rule="evenodd" d="M231.395 141.778V147.393H243.47L244.573 141.778H231.395Z" fill="#4D2800"/>
<mask id="mask4" mask-type="alpha" maskUnits="userSpaceOnUse" x="52" y="97" width="196" height="74">
<path d="M248 171H52V97.0471H248V171Z" fill="white"/>
</mask>
<g mask="url(#mask4)">
<path fill-rule="evenodd" clip-rule="evenodd" d="M183.045 144.789H180.723V118.184H183.045V144.789Z" fill="#4D2800"/>
<path fill-rule="evenodd" clip-rule="evenodd" d="M155.918 144.789H155.048V97.0471H155.918V144.789Z" fill="#4D2800"/>
<path fill-rule="evenodd" clip-rule="evenodd" d="M152.96 139.616C152.208 139.616 151.598 138.998 151.598 138.236V102.152C151.598 101.39 152.208 100.772 152.96 100.772C153.712 100.772 154.321 101.39 154.321 102.152V138.236C154.321 138.998 153.712 139.616 152.96 139.616Z" fill="#B17F4A"/>
<path fill-rule="evenodd" clip-rule="evenodd" d="M247.485 126.995L247.314 127.909L245.083 139.24H240.407C239.077 139.196 237.983 138.087 237.983 136.695V129.562C237.983 128.148 239.12 126.995 240.493 126.995H247.485Z" fill="#D12F00"/>
<path fill-rule="evenodd" clip-rule="evenodd" d="M247.313 127.909L245.082 139.24H240.407C240.042 138.805 239.828 138.24 239.828 137.609V130.475C239.828 129.062 240.965 127.909 242.337 127.909H247.313Z" fill="#E17859"/>
<path fill-rule="evenodd" clip-rule="evenodd" d="M126.529 118.206H124.572V101.854H126.529V118.206Z" fill="#00384A"/>
<path fill-rule="evenodd" clip-rule="evenodd" d="M155.483 142.321H116.014C110.493 142.321 106 137.766 106 132.167V118.187H107.072V132.167C107.072 137.166 111.083 141.233 116.014 141.233H155.483V142.321Z" fill="#4D2800"/>
<path fill-rule="evenodd" clip-rule="evenodd" d="M106.035 118.187L114.542 101.853H115.531L107.081 118.187H106.035Z" fill="#B17F4A"/>
<path fill-rule="evenodd" clip-rule="evenodd" d="M173.711 119.271H160.585C159.313 119.271 158.281 118.225 158.281 116.935V103.107C158.281 101.817 159.313 100.771 160.585 100.771H173.711C174.983 100.771 176.014 101.817 176.014 103.107V116.935C176.014 118.225 174.983 119.271 173.711 119.271Z" fill="#4D2800"/>
<path fill-rule="evenodd" clip-rule="evenodd" d="M159.354 116.935V103.107C159.354 102.418 159.905 101.859 160.585 101.859H173.711C174.388 101.859 174.942 102.42 174.942 103.107V116.935C174.942 117.624 174.391 118.184 173.71 118.184H160.586C159.908 118.184 159.354 117.622 159.354 116.935Z" fill="#1B7EAE"/>
<path fill-rule="evenodd" clip-rule="evenodd" d="M174.942 107.128V103.107C174.942 102.418 174.389 101.859 173.71 101.859H160.585C159.907 101.859 159.354 102.418 159.354 103.107V107.128H174.942Z" fill="#00384A"/>
<path fill-rule="evenodd" clip-rule="evenodd" d="M143.63 101.854L139.018 118.187H129.087L138.568 101.854H143.63Z" fill="white"/>
<path fill-rule="evenodd" clip-rule="evenodd" d="M172.052 101.854L168.835 118.187H161.907L168.521 101.854H172.052Z" fill="white"/>
<path fill-rule="evenodd" clip-rule="evenodd" d="M146.826 101.854L143.287 118.187H141.12L145.517 101.854H146.826Z" fill="white"/>
<path fill-rule="evenodd" clip-rule="evenodd" d="M103.701 115.316L106.035 118.187H107.081L103.701 115.316Z" fill="#4D2800"/>
<path fill-rule="evenodd" clip-rule="evenodd" d="M145.901 128.015C144.807 128.261 143.973 129.204 143.973 130.388V134.523C143.973 135.707 144.807 136.65 145.901 136.897V128.015Z" fill="#4D2800"/>
<path fill-rule="evenodd" clip-rule="evenodd" d="M146.934 128.015V136.897C148.028 136.65 148.863 135.707 148.863 134.523V130.388C148.863 129.204 148.028 128.261 146.934 128.015Z" fill="#4D2800"/>
<path fill-rule="evenodd" clip-rule="evenodd" d="M173.052 128.015C171.959 128.261 171.124 129.204 171.124 130.388V134.523C171.124 135.707 171.959 136.65 173.052 136.897V128.015Z" fill="#4D2800"/>
<path fill-rule="evenodd" clip-rule="evenodd" d="M174.085 128.015V136.897C175.18 136.65 176.014 135.707 176.014 134.523V130.388C176.014 129.204 175.18 128.261 174.085 128.015Z" fill="#4D2800"/>
<path fill-rule="evenodd" clip-rule="evenodd" d="M118.878 124.695H146.934C147.23 124.695 147.47 124.452 147.47 124.152C147.47 123.852 147.23 123.608 146.934 123.608H118.878C118.583 123.608 118.342 123.852 118.342 124.152C118.342 124.452 118.583 124.695 118.878 124.695Z" fill="#B17F4A"/>
<path fill-rule="evenodd" clip-rule="evenodd" d="M110.624 124.695H115.531C115.827 124.695 116.066 124.452 116.066 124.152C116.066 123.852 115.827 123.608 115.531 123.608H110.624C110.328 123.608 110.088 123.852 110.088 124.152C110.088 124.452 110.328 124.695 110.624 124.695Z" fill="#B17F4A"/>
<path fill-rule="evenodd" clip-rule="evenodd" d="M110.624 151.383H180.723C181.019 151.383 181.259 151.139 181.259 150.84C181.259 150.539 181.019 150.296 180.723 150.296H110.624C110.328 150.296 110.088 150.539 110.088 150.84C110.088 151.139 110.328 151.383 110.624 151.383Z" fill="#B17F4A"/>
<path fill-rule="evenodd" clip-rule="evenodd" d="M158.282 124.695H176.014C176.31 124.695 176.55 124.452 176.55 124.152C176.55 123.852 176.31 123.608 176.014 123.608H158.282C157.986 123.608 157.746 123.852 157.746 124.152C157.746 124.452 157.986 124.695 158.282 124.695Z" fill="#B17F4A"/>
<path fill-rule="evenodd" clip-rule="evenodd" d="M153.848 102.213C153.848 102.711 153.45 103.114 152.96 103.114C152.469 103.114 152.071 102.711 152.071 102.213C152.071 101.716 152.469 101.312 152.96 101.312C153.45 101.312 153.848 101.716 153.848 102.213Z" fill="#4D2800"/>
<path fill-rule="evenodd" clip-rule="evenodd" d="M60.0004 126.995C56.1825 129.04 53.5657 132.389 53.1581 136.238C53.1367 136.217 53.1153 136.217 53.094 136.195C52.8365 135.956 52.6222 135.695 52.4507 135.39C52.1499 134.933 51.9998 134.39 51.9998 133.781V130.236C51.9998 129.409 52.3001 128.67 52.7932 128.104C53.2655 127.56 53.8874 127.191 54.6166 127.06C54.81 127.017 55.0029 126.995 55.1958 126.995H60.0004Z" fill="#FF7000"/>
<path fill-rule="evenodd" clip-rule="evenodd" d="M57.0406 127.909C54.8101 129.649 53.1582 132.302 52.4503 135.39C52.15 134.933 51.9999 134.39 51.9999 133.781V130.236C51.9999 129.409 52.2996 128.67 52.7933 128.104C52.9007 128.039 53.008 127.996 53.1154 127.974C53.2442 127.93 53.3943 127.909 53.5439 127.909H57.0406Z" fill="#FFB800"/>
<path fill-rule="evenodd" clip-rule="evenodd" d="M228.484 150.759C228.525 150.664 228.581 150.574 228.569 150.464L228.451 149.336C228.61 149.191 228.719 149 228.674 148.772L228.453 147.633C228.4 147.362 228.171 147.211 227.916 147.173C227.94 147.068 227.979 146.964 227.944 146.854L227.612 145.771C227.74 145.597 227.81 145.388 227.724 145.173L227.289 144.1C227.187 143.846 226.935 143.744 226.679 143.754C226.681 143.651 226.7 143.546 226.648 143.449L226.115 142.45C226.208 142.255 226.237 142.036 226.111 141.843L225.479 140.874C225.321 140.632 225.033 140.579 224.772 140.662C224.772 140.521 224.744 140.376 224.648 140.259L223.929 139.389C223.981 139.179 223.966 138.959 223.804 138.795L222.995 137.974C222.804 137.78 222.533 137.783 222.301 137.893C222.263 137.797 222.241 137.693 222.156 137.623L221.285 136.911C221.296 136.695 221.24 136.481 221.05 136.351L220.099 135.706C219.872 135.551 219.606 135.608 219.399 135.765C219.343 135.673 219.298 135.572 219.197 135.518L218.206 134.991C218.176 134.776 218.08 134.578 217.869 134.489L216.812 134.041C216.562 133.935 216.313 134.043 216.14 134.234C216.069 134.16 216.009 134.072 215.904 134.041L214.831 133.717C214.761 133.513 214.629 133.336 214.404 133.29L213.283 133.058C213.003 133 212.762 133.169 212.636 133.415C212.538 133.315 212.416 133.232 212.266 133.219L211.151 133.119C211.042 132.933 210.878 132.788 210.648 132.788H209.504C209.233 132.788 209.045 132.984 208.957 133.229C208.863 133.188 208.775 133.13 208.666 133.142L207.553 133.262C207.41 133.102 207.222 132.991 206.997 133.036L205.874 133.26C205.607 133.314 205.458 133.546 205.42 133.805C205.317 133.78 205.215 133.741 205.106 133.776L204.037 134.113C203.867 133.983 203.66 133.912 203.448 134L202.39 134.441C202.139 134.545 202.038 134.8 202.049 135.059C201.946 135.058 201.843 135.038 201.747 135.091L200.763 135.631C200.57 135.537 200.354 135.508 200.163 135.636L199.209 136.276C198.97 136.436 198.918 136.728 199 136.992C198.86 136.992 198.717 137.021 198.602 137.119L197.744 137.848C197.536 137.795 197.319 137.81 197.157 137.974L196.348 138.795C196.156 138.989 196.16 139.263 196.269 139.498C196.174 139.537 196.071 139.56 196.002 139.646L195.3 140.529C195.086 140.518 194.876 140.574 194.748 140.768L194.111 141.731C193.959 141.961 194.016 142.231 194.169 142.442C194.079 142.498 193.98 142.544 193.927 142.646L193.406 143.651C193.196 143.681 193 143.779 192.911 143.993L192.471 145.064C192.365 145.318 192.471 145.57 192.66 145.746C192.586 145.818 192.5 145.878 192.468 145.985L192.149 147.072C191.948 147.144 191.775 147.278 191.729 147.505L191.5 148.642C191.443 148.927 191.61 149.171 191.852 149.298C191.754 149.399 191.672 149.522 191.659 149.674L191.561 150.804C191.378 150.915 191.235 151.082 191.235 151.314V152.474C191.235 152.75 191.428 152.941 191.669 153.029C191.629 153.125 191.571 153.214 191.583 153.324L191.703 154.452C191.543 154.598 191.434 154.789 191.479 155.017L191.7 156.155C191.752 156.427 191.981 156.577 192.236 156.615C192.213 156.72 192.174 156.824 192.208 156.935L192.54 158.018C192.413 158.191 192.342 158.4 192.429 158.615L192.864 159.689C192.967 159.943 193.218 160.045 193.473 160.035C193.472 160.138 193.453 160.242 193.505 160.34L194.038 161.339C193.945 161.534 193.916 161.752 194.042 161.946L194.673 162.914C194.831 163.156 195.12 163.209 195.38 163.126C195.38 163.267 195.408 163.412 195.505 163.53L196.224 164.4C196.172 164.609 196.186 164.83 196.348 164.994L197.157 165.814C197.349 166.009 197.62 166.005 197.852 165.895C197.89 165.991 197.912 166.095 197.997 166.165L198.868 166.878C198.857 167.094 198.913 167.307 199.103 167.437L200.054 168.083C200.28 168.238 200.547 168.18 200.754 168.023C200.81 168.115 200.855 168.216 200.956 168.27L201.947 168.797C201.977 169.012 202.073 169.21 202.285 169.3L203.341 169.747C203.59 169.853 203.84 169.746 204.013 169.554C204.084 169.629 204.143 169.716 204.248 169.748L205.321 170.072C205.392 170.276 205.524 170.452 205.748 170.499L206.87 170.73C207.15 170.788 207.391 170.619 207.517 170.373C207.615 170.473 207.737 170.555 207.887 170.569L209.001 170.669C209.111 170.855 209.275 171 209.504 171H210.648C210.92 171 211.108 170.804 211.195 170.56C211.289 170.6 211.378 170.658 211.487 170.646L212.599 170.526C212.742 170.686 212.931 170.797 213.156 170.752L214.279 170.528C214.547 170.474 214.695 170.242 214.733 169.983C214.836 170.008 214.938 170.047 215.047 170.012L216.116 169.675C216.287 169.805 216.493 169.877 216.704 169.788L217.763 169.348C218.014 169.243 218.114 168.989 218.104 168.729C218.206 168.731 218.309 168.75 218.406 168.698L219.39 168.157C219.582 168.251 219.798 168.28 219.989 168.152L220.944 167.513C221.183 167.353 221.236 167.06 221.153 166.797C221.293 166.797 221.436 166.768 221.551 166.669L222.409 165.94C222.616 165.993 222.833 165.978 222.995 165.814L223.804 164.994C223.996 164.799 223.993 164.525 223.884 164.29C223.979 164.251 224.082 164.229 224.15 164.143L224.853 163.259C225.066 163.271 225.277 163.213 225.404 163.021L226.042 162.057C226.194 161.828 226.138 161.557 225.983 161.347C226.074 161.29 226.173 161.245 226.226 161.143L226.747 160.137C226.958 160.107 227.153 160.009 227.242 159.795L227.683 158.724C227.788 158.471 227.682 158.218 227.492 158.042C227.566 157.971 227.653 157.91 227.684 157.804L228.003 156.716C228.205 156.644 228.378 156.511 228.424 156.283L228.652 155.146C228.71 154.862 228.542 154.617 228.3 154.49C228.399 154.389 228.48 154.267 228.493 154.115L228.592 152.984C228.775 152.873 228.919 152.707 228.919 152.474V151.314C228.919 151.039 228.725 150.848 228.484 150.759Z" fill="#404040"/>
<path fill-rule="evenodd" clip-rule="evenodd" d="M223.961 151.894C223.961 159.67 217.745 165.973 210.076 165.973C202.408 165.973 196.192 159.67 196.192 151.894C196.192 144.118 202.408 137.815 210.076 137.815C217.745 137.815 223.961 144.118 223.961 151.894Z" fill="#222222"/>
<path fill-rule="evenodd" clip-rule="evenodd" d="M193.712 152.166C193.86 152.166 193.98 152.044 193.98 151.894C193.98 145.452 197.732 139.596 203.537 136.976C203.672 136.915 203.733 136.754 203.673 136.617C203.612 136.479 203.451 136.419 203.319 136.479C197.32 139.187 193.444 145.237 193.444 151.894C193.444 152.044 193.564 152.166 193.712 152.166Z" fill="#797978"/>
<path fill-rule="evenodd" clip-rule="evenodd" d="M222.239 151.898C222.239 158.705 216.791 164.208 210.078 164.208C208.984 164.208 207.933 164.056 206.925 163.795C203.686 162.903 200.984 160.728 199.396 157.814V157.792C198.882 156.835 198.474 155.791 198.238 154.704C198.024 153.812 197.916 152.855 197.916 151.898C197.916 146.809 200.962 142.416 205.317 140.567C206.367 140.088 207.482 139.784 208.663 139.653C209.113 139.588 209.606 139.566 210.078 139.566C212.244 139.566 214.282 140.154 216.041 141.154V141.176C219.751 143.264 222.239 147.287 222.239 151.898Z" fill="#707070"/>
<path fill-rule="evenodd" clip-rule="evenodd" d="M208.662 139.653L199.397 157.792C198.882 156.835 198.475 155.791 198.238 154.704L205.316 140.567C206.367 140.088 207.483 139.784 208.662 139.653Z" fill="#616161"/>
<path fill-rule="evenodd" clip-rule="evenodd" d="M222.239 151.898C222.239 158.705 216.791 164.208 210.078 164.208C208.984 164.208 207.933 164.056 206.925 163.795L216.041 141.176C219.751 143.264 222.239 147.287 222.239 151.898Z" fill="#616161"/>
<path fill-rule="evenodd" clip-rule="evenodd" d="M218.807 151.898C218.807 156.797 214.909 160.749 210.078 160.749C208.901 160.749 207.773 160.501 206.743 160.079C203.58 158.76 201.348 155.603 201.348 151.898C201.348 147 205.247 143.046 210.078 143.046C211.451 143.046 212.726 143.369 213.879 143.941C216.797 145.358 218.807 148.392 218.807 151.898Z" fill="#2C2C2C"/>
<path fill-rule="evenodd" clip-rule="evenodd" d="M217.714 151.898C217.714 156.182 214.303 159.64 210.077 159.64C209.048 159.64 208.062 159.423 207.161 159.053C204.394 157.9 202.442 155.138 202.442 151.898C202.442 147.614 205.852 144.155 210.077 144.155C211.279 144.155 212.394 144.438 213.402 144.938C215.955 146.178 217.714 148.831 217.714 151.898Z" fill="#343434"/>
<path fill-rule="evenodd" clip-rule="evenodd" d="M217.714 151.898C217.714 156.183 214.303 159.64 210.077 159.64C209.048 159.64 208.062 159.423 207.161 159.053L213.402 144.938C215.955 146.178 217.714 148.831 217.714 151.898Z" fill="#464646"/>
<path fill-rule="evenodd" clip-rule="evenodd" d="M205.98 136.097C206.003 136.097 206.025 136.094 206.047 136.088C207.357 135.746 208.712 135.573 210.077 135.573C210.225 135.573 210.344 135.451 210.344 135.3C210.344 135.15 210.225 135.029 210.077 135.029C208.668 135.029 207.267 135.208 205.914 135.561C205.77 135.599 205.684 135.747 205.72 135.892C205.753 136.015 205.861 136.097 205.98 136.097Z" fill="#797978"/>
<path fill-rule="evenodd" clip-rule="evenodd" d="M96.4516 150.759C96.4918 150.664 96.5491 150.574 96.5371 150.464L96.4182 149.336C96.5772 149.191 96.6862 149 96.6419 148.772L96.4209 147.633C96.3682 147.362 96.1388 147.211 95.8839 147.173C95.9079 147.068 95.9465 146.964 95.9126 146.854L95.5795 145.771C95.7083 145.597 95.7781 145.388 95.6916 145.173L95.2568 144.1C95.1541 143.846 94.9024 143.744 94.6469 143.754C94.6485 143.651 94.6673 143.546 94.6162 143.449L94.0824 142.45C94.1757 142.255 94.2044 142.036 94.0782 141.843L93.447 140.874C93.289 140.632 93.0008 140.579 92.7406 140.662C92.7406 140.521 92.7125 140.376 92.6155 140.259L91.8967 139.389C91.9488 139.179 91.9342 138.959 91.7721 138.795L90.9631 137.974C90.7712 137.78 90.5007 137.783 90.2693 137.893C90.2307 137.797 90.2083 137.693 90.1238 137.623L89.2523 136.911C89.2642 136.695 89.2079 136.481 89.0172 136.351L88.0669 135.706C87.8401 135.551 87.5737 135.608 87.3668 135.765C87.311 135.673 87.2657 135.572 87.1651 135.518L86.1731 134.991C86.1439 134.776 86.048 134.578 85.8363 134.489L84.7797 134.041C84.5295 133.935 84.2808 134.043 84.1073 134.234C84.0364 134.16 83.9769 134.072 83.8722 134.041L82.7994 133.717C82.729 133.513 82.5971 133.336 82.3719 133.29L81.2512 133.058C80.9707 133 80.7299 133.169 80.6043 133.415C80.5052 133.315 80.3843 133.232 80.2336 133.219L79.1186 133.119C79.0092 132.933 78.8455 132.788 78.6161 132.788H77.4719C77.2003 132.788 77.0122 132.984 76.9246 133.229C76.8308 133.188 76.7421 133.13 76.6332 133.142L75.5208 133.262C75.3774 133.102 75.1893 132.991 74.9646 133.036L73.8418 133.26C73.5743 133.314 73.4258 133.546 73.3877 133.805C73.285 133.78 73.1823 133.741 73.0734 133.776L72.0053 134.113C71.8338 133.983 71.6279 133.912 71.4157 134L70.357 134.441C70.1068 134.545 70.0057 134.8 70.0166 135.059C69.9139 135.058 69.8112 135.038 69.7143 135.091L68.7306 135.631C68.5378 135.537 68.322 135.508 68.1312 135.636L67.1762 136.276C66.9374 136.436 66.8848 136.728 66.9677 136.992C66.828 136.992 66.6852 137.021 66.5694 137.119L65.7114 137.848C65.5045 137.795 65.2871 137.81 65.125 137.974L64.3165 138.795C64.1241 138.989 64.1278 139.263 64.2367 139.498C64.1413 139.537 64.0386 139.56 63.9698 139.646L63.2677 140.529C63.0545 140.518 62.8433 140.574 62.7156 140.768L62.0786 141.731C61.9269 141.961 61.9832 142.231 62.1375 142.442C62.0474 142.498 61.9478 142.544 61.8946 142.646L61.3744 143.651C61.1633 143.681 60.9673 143.779 60.8786 143.993L60.4376 145.064C60.3334 145.318 60.4392 145.57 60.6274 145.746C60.5544 145.818 60.4679 145.878 60.4361 145.985L60.1176 147.072C59.9159 147.144 59.7423 147.278 59.6964 147.505L59.4681 148.642C59.4107 148.927 59.5775 149.171 59.8205 149.298C59.7214 149.399 59.6406 149.522 59.6271 149.674L59.5291 150.804C59.3456 150.915 59.2022 151.082 59.2022 151.314V152.474C59.2022 152.75 59.3961 152.941 59.637 153.029C59.5963 153.125 59.539 153.214 59.551 153.324L59.6698 154.452C59.5114 154.598 59.4024 154.789 59.4462 155.017L59.6677 156.155C59.7199 156.427 59.9492 156.577 60.2046 156.615C60.1801 156.72 60.1421 156.824 60.176 156.935L60.508 158.018C60.3803 158.191 60.3099 158.4 60.397 158.615L60.8317 159.689C60.9349 159.943 61.1857 160.045 61.4411 160.035C61.4401 160.138 61.4208 160.242 61.4724 160.34L62.0057 161.339C61.9129 161.534 61.8842 161.752 62.0103 161.946L62.6411 162.914C62.799 163.156 63.0868 163.209 63.3474 163.126C63.3474 163.267 63.3761 163.412 63.473 163.53L64.1914 164.4C64.1392 164.609 64.1538 164.83 64.3165 164.994L65.125 165.814C65.3168 166.009 65.5874 166.005 65.8193 165.895C65.8579 165.991 65.8798 166.095 65.9647 166.165L66.8363 166.878C66.8243 167.094 66.8806 167.307 67.0714 167.437L68.0217 168.083C68.2479 168.238 68.5148 168.18 68.7218 168.023C68.7776 168.115 68.8229 168.216 68.9235 168.27L69.9145 168.797C69.9447 169.012 70.0406 169.21 70.2522 169.3L71.3089 169.747C71.558 169.853 71.8077 169.746 71.9808 169.554C72.0512 169.629 72.1116 169.716 72.2159 169.748L73.2887 170.072C73.3596 170.276 73.4915 170.452 73.7161 170.499L74.8374 170.73C75.1178 170.788 75.3587 170.619 75.4843 170.373C75.5833 170.473 75.7043 170.555 75.8539 170.569L76.9689 170.669C77.0789 170.855 77.2431 171 77.4719 171H78.6161C78.8877 171 79.0759 170.804 79.1635 170.56C79.2573 170.6 79.3459 170.658 79.4549 170.646L80.5673 170.526C80.7101 170.686 80.8988 170.797 81.1235 170.752L82.2458 170.528C82.5142 170.474 82.6628 170.242 82.7003 169.983C82.8035 170.008 82.9062 170.047 83.0152 170.012L84.0833 169.675C84.2548 169.805 84.4607 169.877 84.6718 169.788L85.731 169.348C85.9818 169.243 86.0819 168.989 86.0719 168.729C86.1741 168.731 86.2768 168.75 86.3738 168.698L87.3579 168.157C87.5503 168.251 87.7666 168.28 87.9569 168.152L88.9124 167.513C89.1506 167.353 89.2033 167.06 89.1209 166.797C89.2601 166.797 89.4034 166.768 89.5186 166.669L90.3772 165.94C90.5836 165.993 90.801 165.978 90.9631 165.814L91.7721 164.994C91.9645 164.799 91.9603 164.525 91.8519 164.29C91.9467 164.251 92.0494 164.229 92.1182 164.143L92.8209 163.259C93.0341 163.271 93.2452 163.213 93.3724 163.021L94.01 162.057C94.1616 161.828 94.1053 161.557 93.951 161.347C94.0412 161.29 94.1408 161.245 94.194 161.143L94.7142 160.137C94.9258 160.107 95.1208 160.009 95.2094 159.795L95.6504 158.724C95.7552 158.471 95.6494 158.218 95.4607 158.042C95.5336 157.971 95.6202 157.91 95.6514 157.804L95.971 156.716C96.1727 156.644 96.3458 156.511 96.3917 156.283L96.6205 155.146C96.6778 154.862 96.51 154.617 96.2681 154.49C96.3672 154.389 96.448 154.267 96.4615 154.115L96.5595 152.984C96.743 152.873 96.8864 152.707 96.8864 152.474V151.314C96.8864 151.039 96.6924 150.848 96.4516 150.759Z" fill="#404040"/>
<path fill-rule="evenodd" clip-rule="evenodd" d="M91.9291 151.894C91.9291 159.67 85.7123 165.973 78.0438 165.973C70.3758 165.973 64.1596 159.67 64.1596 151.894C64.1596 144.118 70.3758 137.815 78.0438 137.815C85.7123 137.815 91.9291 144.118 91.9291 151.894Z" fill="#222222"/>
<path fill-rule="evenodd" clip-rule="evenodd" d="M61.6798 152.166C61.8283 152.166 61.9477 152.044 61.9477 151.893C61.9477 145.452 65.6983 139.596 71.5043 136.976C71.6398 136.915 71.7013 136.754 71.6398 136.617C71.5804 136.479 71.4224 136.417 71.2869 136.479C65.2875 139.187 61.4113 145.237 61.4113 151.893C61.4113 152.044 61.5312 152.166 61.6798 152.166Z" fill="#797978"/>
<path fill-rule="evenodd" clip-rule="evenodd" d="M90.2069 151.898C90.2069 158.705 84.7596 164.208 78.0455 164.208C76.9519 164.208 75.901 164.056 74.8928 163.795C71.6536 162.903 68.9513 160.728 67.3646 157.814V157.792C66.849 156.835 66.4419 155.791 66.2058 154.704C65.9915 153.812 65.8842 152.855 65.8842 151.898C65.8842 146.809 68.93 142.416 73.2842 140.567C74.3351 140.088 75.4501 139.784 76.6303 139.653C77.0806 139.588 77.5743 139.566 78.0455 139.566C80.212 139.566 82.2496 140.154 84.0084 141.154V141.176C87.7194 143.264 90.2069 147.287 90.2069 151.898Z" fill="#707070"/>
<path fill-rule="evenodd" clip-rule="evenodd" d="M76.6304 139.653L67.3647 157.792C66.8491 156.835 66.442 155.791 66.2059 154.704L73.2843 140.567C74.3352 140.088 75.4502 139.784 76.6304 139.653Z" fill="#616161"/>
<path fill-rule="evenodd" clip-rule="evenodd" d="M90.2069 151.898C90.2069 158.705 84.7596 164.208 78.0455 164.208C76.9519 164.208 75.901 164.056 74.8929 163.795L84.0084 141.176C87.7194 143.264 90.2069 147.287 90.2069 151.898Z" fill="#616161"/>
<path fill-rule="evenodd" clip-rule="evenodd" d="M86.7748 151.898C86.7748 156.797 82.8762 160.749 78.0455 160.749C76.8679 160.749 75.7404 160.501 74.7104 160.079C71.5473 158.76 69.3162 155.603 69.3162 151.898C69.3162 147 73.2143 143.046 78.0455 143.046C79.4185 143.046 80.6936 143.369 81.8461 143.941C84.7647 145.358 86.7748 148.392 86.7748 151.898Z" fill="#2C2C2C"/>
<path fill-rule="evenodd" clip-rule="evenodd" d="M85.6814 151.898C85.6814 156.182 82.2712 159.64 78.0457 159.64C77.0157 159.64 76.0289 159.423 75.1287 159.053C72.3612 157.9 70.4096 155.138 70.4096 151.898C70.4096 147.614 73.8197 144.155 78.0457 144.155C79.2462 144.155 80.3618 144.438 81.3699 144.938C83.9226 146.178 85.6814 148.831 85.6814 151.898Z" fill="#343434"/>
<path fill-rule="evenodd" clip-rule="evenodd" d="M85.6814 151.898C85.6814 156.183 82.2712 159.64 78.0457 159.64C77.0157 159.64 76.0289 159.423 75.1287 159.053L81.3699 144.938C83.9226 146.178 85.6814 148.831 85.6814 151.898Z" fill="#464646"/>
<path fill-rule="evenodd" clip-rule="evenodd" d="M73.9481 136.097C73.9706 136.097 73.9924 136.094 74.0149 136.088C75.3259 135.746 76.6807 135.573 78.0438 135.573C78.1929 135.573 78.3123 135.451 78.3123 135.3C78.3123 135.15 78.1929 135.029 78.0438 135.029C76.6358 135.029 75.2357 135.208 73.8814 135.561C73.7375 135.599 73.652 135.747 73.688 135.892C73.7198 136.015 73.8288 136.097 73.9481 136.097Z" fill="#797978"/>
<path fill-rule="evenodd" clip-rule="evenodd" d="M146.425 137.607C146.721 137.607 146.961 137.364 146.961 137.064V127.916C146.961 127.616 146.721 127.373 146.425 127.373C146.129 127.373 145.889 127.616 145.889 127.916V137.064C145.889 137.364 146.129 137.607 146.425 137.607Z" fill="#B17F4A"/>
<path fill-rule="evenodd" clip-rule="evenodd" d="M173.505 137.607C173.801 137.607 174.041 137.364 174.041 137.064V127.916C174.041 127.616 173.801 127.373 173.505 127.373C173.209 127.373 172.969 127.616 172.969 127.916V137.064C172.969 137.364 173.209 137.607 173.505 137.607Z" fill="#B17F4A"/>
<path fill-rule="evenodd" clip-rule="evenodd" d="M244.683 147.393H236.927C235.893 147.393 235.055 146.544 235.055 145.495C235.055 144.447 235.893 143.597 236.927 143.597H244.683C245.717 143.597 246.554 144.447 246.554 145.495C246.554 146.544 245.717 147.393 244.683 147.393Z" fill="#4D2800"/>
<path fill-rule="evenodd" clip-rule="evenodd" d="M226.601 118.183H196.027C194.748 118.183 193.712 117.133 193.712 115.837V112.683C193.712 111.386 194.748 110.336 196.027 110.336H226.601C227.879 110.336 228.915 111.386 228.915 112.683V115.837C228.915 117.133 227.879 118.183 226.601 118.183Z" fill="#404040"/>
<path fill-rule="evenodd" clip-rule="evenodd" d="M193.796 116.256C193.997 117.344 194.895 118.183 196.027 118.183H226.6C227.733 118.183 228.631 117.344 228.832 116.256H193.796Z" fill="#222222"/>
</g>
<defs>
<filter id="filter0_d" x="262.055" y="79.0215" width="31.2969" height="143.992" filterUnits="userSpaceOnUse" color-interpolation-filters="sRGB">
<feFlood flood-opacity="0" result="BackgroundImageFix"/>
<feColorMatrix in="SourceAlpha" type="matrix" values="0 0 0 0 0 0 0 0 0 0 0 0 0 0 0 0 0 0 127 0"/>
<feOffset dx="1" dy="1"/>
<feGaussianBlur stdDeviation="1"/>
<feColorMatrix type="matrix" values="0 0 0 0 0 0 0 0 0 0 0 0 0 0 0 0 0 0 0.15 0"/>
<feBlend mode="normal" in2="BackgroundImageFix" result="effect1_dropShadow"/>
<feBlend mode="normal" in="SourceGraphic" in2="effect1_dropShadow" result="shape"/>
</filter>
<radialGradient id="paint0_radial" cx="0" cy="0" r="1" gradientUnits="userSpaceOnUse" gradientTransform="translate(150 150) rotate(90) scale(150)">
<stop offset="0.296875" stop-color="white" stop-opacity="0"/>
<stop offset="0.947917" stop-color="#826419" stop-opacity="0.83"/>
</radialGradient>
<linearGradient id="paint1_linear" x1="54.4143" y1="136.033" x2="236.138" y2="136.033" gradientUnits="userSpaceOnUse">
<stop stop-color="#1C1C1A"/>
<stop offset="1" stop-color="#1C1C1A"/>
</linearGradient>
</defs>
</svg>
