<svg width="300" height="300" viewBox="0 0 300 300" fill="none" xmlns="http://www.w3.org/2000/svg">
<rect width="300" height="300" fill="white"/>
<rect width="300" height="300" fill="white"/>
<rect width="300" height="300" fill="white"/>
<rect width="300" height="300" fill="url(#paint0_radial)" fill-opacity="0.2"/>
<g filter="url(#filter0_d)">
<path d="M275.437 217.17L263.906 211.843L263.906 206.078L280.219 214.48L289.5 214.48L289.5 219.841L280.219 219.841L263.906 228.244L263.906 222.461L275.437 217.17ZM278.408 184.381L278.408 194.506L285.264 194.506L285.264 182.624L289.5 182.624L289.5 199.78L263.906 199.78L263.906 182.659L268.178 182.659L268.178 194.506L274.277 194.506L274.277 184.381L278.408 184.381ZM285.264 170.296L285.264 159.099L289.5 159.099L289.5 175.57L263.906 175.57L263.906 170.296L285.264 170.296ZM285.264 146.825L285.264 135.627L289.5 135.627L289.5 152.098L263.906 152.098L263.906 146.825L285.264 146.825ZM277.283 108.728C279.803 108.728 282.012 109.173 283.91 110.064C285.809 110.955 287.273 112.232 288.305 113.896C289.336 115.548 289.852 117.447 289.852 119.591C289.852 121.712 289.342 123.605 288.322 125.269C287.303 126.933 285.85 128.222 283.963 129.136C282.064 130.05 279.885 130.513 277.424 130.525L276.158 130.525C273.639 130.525 271.424 130.074 269.514 129.171C267.592 128.257 266.121 126.974 265.102 125.322C264.07 123.658 263.555 121.759 263.555 119.626C263.555 117.494 264.07 115.601 265.102 113.949C266.121 112.285 267.592 111.001 269.514 110.099C271.424 109.185 273.633 108.728 276.141 108.728L277.283 108.728ZM276.123 114.072C273.439 114.072 271.4 114.552 270.006 115.513C268.611 116.474 267.914 117.845 267.914 119.626C267.914 121.396 268.605 122.761 269.988 123.722C271.359 124.683 273.375 125.169 276.035 125.181L277.283 125.181C279.896 125.181 281.924 124.701 283.365 123.74C284.807 122.779 285.527 121.396 285.527 119.591C285.527 117.822 284.836 116.462 283.453 115.513C282.059 114.564 280.031 114.083 277.371 114.072L276.123 114.072ZM282.117 81.0023L263.906 77.557L263.906 72.3012L289.5 77.9789L289.5 83.2875L272.379 87.4535L289.5 91.6195L289.5 96.9281L263.906 102.606L263.906 97.35L282.082 93.8871L263.906 89.6684L263.906 85.2035L282.117 81.0023Z" fill="white"/>
<path d="M275.437 217.17L275.646 217.624L276.633 217.171L275.647 216.716L275.437 217.17ZM263.906 211.843L263.406 211.843L263.406 212.163L263.697 212.297L263.906 211.843ZM263.906 206.078L264.135 205.633L263.406 205.258L263.406 206.078L263.906 206.078ZM280.219 214.48L279.99 214.925L280.098 214.98L280.219 214.98L280.219 214.48ZM289.5 214.48L290 214.48L290 213.98L289.5 213.98L289.5 214.48ZM289.5 219.841L289.5 220.341L290 220.341L290 219.841L289.5 219.841ZM280.219 219.841L280.219 219.341L280.098 219.341L279.99 219.397L280.219 219.841ZM263.906 228.244L263.406 228.244L263.406 229.064L264.135 228.688L263.906 228.244ZM263.906 222.461L263.698 222.006L263.406 222.14L263.406 222.461L263.906 222.461ZM275.647 216.716L264.116 211.389L263.697 212.297L275.228 217.623L275.647 216.716ZM264.406 211.843L264.406 206.078L263.406 206.078L263.406 211.843L264.406 211.843ZM263.677 206.522L279.99 214.925L280.448 214.036L264.135 205.633L263.677 206.522ZM280.219 214.98L289.5 214.98L289.5 213.98L280.219 213.98L280.219 214.98ZM289 214.48L289 219.841L290 219.841L290 214.48L289 214.48ZM289.5 219.341L280.219 219.341L280.219 220.341L289.5 220.341L289.5 219.341ZM279.99 219.397L263.677 227.799L264.135 228.688L280.448 220.286L279.99 219.397ZM264.406 228.244L264.406 222.461L263.406 222.461L263.406 228.244L264.406 228.244ZM264.115 222.915L275.646 217.624L275.229 216.715L263.698 222.006L264.115 222.915ZM278.408 184.381L278.908 184.381L278.908 183.881L278.408 183.881L278.408 184.381ZM278.408 194.506L277.908 194.506L277.908 195.006L278.408 195.006L278.408 194.506ZM285.264 194.506L285.264 195.006L285.764 195.006L285.764 194.506L285.264 194.506ZM285.264 182.624L285.264 182.124L284.764 182.124L284.764 182.624L285.264 182.624ZM289.5 182.624L290 182.624L290 182.124L289.5 182.124L289.5 182.624ZM289.5 199.78L289.5 200.28L290 200.28L290 199.78L289.5 199.78ZM263.906 199.78L263.406 199.78L263.406 200.28L263.906 200.28L263.906 199.78ZM263.906 182.659L263.906 182.159L263.406 182.159L263.406 182.659L263.906 182.659ZM268.178 182.659L268.678 182.659L268.678 182.159L268.178 182.159L268.178 182.659ZM268.178 194.506L267.678 194.506L267.678 195.006L268.178 195.006L268.178 194.506ZM274.277 194.506L274.277 195.006L274.777 195.006L274.777 194.506L274.277 194.506ZM274.277 184.381L274.277 183.881L273.777 183.881L273.777 184.381L274.277 184.381ZM277.908 184.381L277.908 194.506L278.908 194.506L278.908 184.381L277.908 184.381ZM278.408 195.006L285.264 195.006L285.264 194.006L278.408 194.006L278.408 195.006ZM285.764 194.506L285.764 182.624L284.764 182.624L284.764 194.506L285.764 194.506ZM285.264 183.124L289.5 183.124L289.5 182.124L285.264 182.124L285.264 183.124ZM289 182.624L289 199.78L290 199.78L290 182.624L289 182.624ZM289.5 199.28L263.906 199.28L263.906 200.28L289.5 200.28L289.5 199.28ZM264.406 199.78L264.406 182.659L263.406 182.659L263.406 199.78L264.406 199.78ZM263.906 183.159L268.178 183.159L268.178 182.159L263.906 182.159L263.906 183.159ZM267.678 182.659L267.678 194.506L268.678 194.506L268.678 182.659L267.678 182.659ZM268.178 195.006L274.277 195.006L274.277 194.006L268.178 194.006L268.178 195.006ZM274.777 194.506L274.777 184.381L273.777 184.381L273.777 194.506L274.777 194.506ZM274.277 184.881L278.408 184.881L278.408 183.881L274.277 183.881L274.277 184.881ZM285.264 170.296L285.264 170.796L285.764 170.796L285.764 170.296L285.264 170.296ZM285.264 159.099L285.264 158.599L284.764 158.599L284.764 159.099L285.264 159.099ZM289.5 159.099L290 159.099L290 158.599L289.5 158.599L289.5 159.099ZM289.5 175.57L289.5 176.07L290 176.07L290 175.57L289.5 175.57ZM263.906 175.57L263.406 175.57L263.406 176.07L263.906 176.07L263.906 175.57ZM263.906 170.296L263.906 169.796L263.406 169.796L263.406 170.296L263.906 170.296ZM285.764 170.296L285.764 159.099L284.764 159.099L284.764 170.296L285.764 170.296ZM285.264 159.599L289.5 159.599L289.5 158.599L285.264 158.599L285.264 159.599ZM289 159.099L289 175.57L290 175.57L290 159.099L289 159.099ZM289.5 175.07L263.906 175.07L263.906 176.07L289.5 176.07L289.5 175.07ZM264.406 175.57L264.406 170.296L263.406 170.296L263.406 175.57L264.406 175.57ZM263.906 170.796L285.264 170.796L285.264 169.796L263.906 169.796L263.906 170.796ZM285.264 146.825L285.264 147.325L285.764 147.325L285.764 146.825L285.264 146.825ZM285.264 135.627L285.264 135.127L284.764 135.127L284.764 135.627L285.264 135.627ZM289.5 135.627L290 135.627L290 135.127L289.5 135.127L289.5 135.627ZM289.5 152.098L289.5 152.598L290 152.598L290 152.098L289.5 152.098ZM263.906 152.098L263.406 152.098L263.406 152.598L263.906 152.598L263.906 152.098ZM263.906 146.825L263.906 146.325L263.406 146.325L263.406 146.825L263.906 146.825ZM285.764 146.825L285.764 135.627L284.764 135.627L284.764 146.825L285.764 146.825ZM285.264 136.127L289.5 136.127L289.5 135.127L285.264 135.127L285.264 136.127ZM289 135.627L289 152.098L290 152.098L290 135.627L289 135.627ZM289.5 151.598L263.906 151.598L263.906 152.598L289.5 152.598L289.5 151.598ZM264.406 152.098L264.406 146.825L263.406 146.825L263.406 152.098L264.406 152.098ZM263.906 147.325L285.264 147.325L285.264 146.325L263.906 146.325L263.906 147.325ZM288.305 113.896L287.88 114.159L287.881 114.161L288.305 113.896ZM283.963 129.136L284.18 129.587L284.181 129.586L283.963 129.136ZM277.424 130.525L277.424 131.025L277.426 131.025L277.424 130.525ZM269.514 129.171L269.299 129.623L269.3 129.623L269.514 129.171ZM265.102 125.322L265.527 125.059L265.527 125.058L265.102 125.322ZM265.102 113.949L265.526 114.213L265.528 114.21L265.102 113.949ZM269.514 110.099L269.726 110.552L269.729 110.55L269.514 110.099ZM269.988 123.722L270.275 123.313L270.274 123.312L269.988 123.722ZM276.035 125.181L276.033 125.681L276.035 125.681L276.035 125.181ZM283.453 115.513L283.736 115.101L283.734 115.1L283.453 115.513ZM277.371 114.072L277.373 113.572L277.371 113.572L277.371 114.072ZM277.283 109.228C279.744 109.228 281.878 109.663 283.698 110.517L284.123 109.611C282.146 108.684 279.862 108.228 277.283 108.228L277.283 109.228ZM283.698 110.517C285.515 111.369 286.903 112.584 287.88 114.159L288.73 113.633C287.644 111.88 286.102 110.54 284.123 109.611L283.698 110.517ZM287.881 114.161C288.857 115.726 289.352 117.531 289.352 119.591L290.352 119.591C290.352 117.363 289.815 115.371 288.729 113.631L287.881 114.161ZM289.352 119.591C289.352 121.628 288.863 123.429 287.896 125.008L288.749 125.53C289.82 123.781 290.352 121.796 290.352 119.591L289.352 119.591ZM287.896 125.008C286.93 126.584 285.552 127.811 283.745 128.686L284.181 129.586C286.147 128.634 287.675 127.282 288.749 125.53L287.896 125.008ZM283.746 128.686C281.925 129.563 279.82 130.013 277.421 130.025L277.426 131.025C279.949 131.013 282.204 130.538 284.18 129.587L283.746 128.686ZM277.424 130.025L276.158 130.025L276.158 131.025L277.424 131.025L277.424 130.025ZM276.158 130.025C273.698 130.025 271.559 129.585 269.727 128.719L269.3 129.623C271.289 130.563 273.579 131.025 276.158 131.025L276.158 130.025ZM269.728 128.72C267.885 127.843 266.491 126.622 265.527 125.059L264.676 125.584C265.751 127.326 267.299 128.672 269.299 129.623L269.728 128.72ZM265.527 125.058C264.549 123.48 264.055 121.675 264.055 119.626L263.055 119.626C263.055 121.844 263.592 123.835 264.677 125.585L265.527 125.058ZM264.055 119.626C264.055 117.578 264.549 115.779 265.526 114.213L264.677 113.684C263.592 115.423 263.055 117.409 263.055 119.626L264.055 119.626ZM265.528 114.21C266.492 112.636 267.885 111.416 269.726 110.552L269.301 109.646C267.299 110.587 265.75 111.933 264.675 113.687L265.528 114.21ZM269.729 110.55C271.561 109.674 273.694 109.228 276.141 109.228L276.141 108.228C273.572 108.228 271.287 108.696 269.298 109.648L269.729 110.55ZM276.141 109.228L277.283 109.228L277.283 108.228L276.141 108.228L276.141 109.228ZM276.123 113.572C273.393 113.572 271.236 114.058 269.722 115.101L270.29 115.925C271.565 115.046 273.486 114.572 276.123 114.572L276.123 113.572ZM269.722 115.101C268.184 116.161 267.414 117.691 267.414 119.626L268.414 119.626C268.414 118 269.039 116.787 270.29 115.925L269.722 115.101ZM267.414 119.626C267.414 121.55 268.178 123.073 269.703 124.133L270.274 123.312C269.033 122.45 268.414 121.242 268.414 119.626L267.414 119.626ZM269.701 124.132C271.192 125.176 273.326 125.669 276.033 125.681L276.037 124.681C273.424 124.67 271.527 124.19 270.275 123.313L269.701 124.132ZM276.035 125.681L277.283 125.681L277.283 124.681L276.035 124.681L276.035 125.681ZM277.283 125.681C279.948 125.681 282.087 125.193 283.643 124.156L283.088 123.324C281.761 124.209 279.845 124.681 277.283 124.681L277.283 125.681ZM283.643 124.156C285.23 123.097 286.027 121.555 286.027 119.591L285.027 119.591C285.027 121.237 284.383 122.46 283.088 123.324L283.643 124.156ZM286.027 119.591C286.027 117.668 285.263 116.149 283.736 115.101L283.17 115.925C284.408 116.775 285.027 117.976 285.027 119.591L286.027 119.591ZM283.734 115.1C282.223 114.071 280.08 113.584 277.373 113.572L277.369 114.572C279.982 114.583 281.895 115.057 283.172 115.926L283.734 115.1ZM277.371 113.572L276.123 113.572L276.123 114.572L277.371 114.572L277.371 113.572ZM282.117 81.0023L282.23 81.4896L282.21 80.5111L282.117 81.0023ZM263.906 77.557L263.406 77.557L263.406 77.9713L263.813 78.0483L263.906 77.557ZM263.906 72.3012L264.015 71.813L263.406 71.6781L263.406 72.3012L263.906 72.3012ZM289.5 77.9789L290 77.9789L290 77.5777L289.608 77.4908L289.5 77.9789ZM289.5 83.2875L289.618 83.7733L290 83.6804L290 83.2875L289.5 83.2875ZM272.379 87.4535L272.261 86.9677L272.261 87.9393L272.379 87.4535ZM289.5 91.6195L290 91.6195L290 91.2266L289.618 91.1337L289.5 91.6195ZM289.5 96.9281L289.608 97.4163L290 97.3294L290 96.9281L289.5 96.9281ZM263.906 102.606L263.406 102.606L263.406 103.229L264.015 103.094L263.906 102.606ZM263.906 97.35L263.813 96.8588L263.406 96.9363L263.406 97.35L263.906 97.35ZM282.082 93.8871L282.176 94.3783L282.195 93.4001L282.082 93.8871ZM263.906 89.6684L263.406 89.6684L263.406 90.0656L263.793 90.1554L263.906 89.6684ZM263.906 85.2035L263.794 84.7163L263.406 84.8057L263.406 85.2035L263.906 85.2035ZM282.21 80.5111L263.999 77.0658L263.813 78.0483L282.024 81.4936L282.21 80.5111ZM264.406 77.557L264.406 72.3012L263.406 72.3012L263.406 77.557L264.406 77.557ZM263.798 72.7893L289.392 78.467L289.608 77.4908L264.015 71.813L263.798 72.7893ZM289 77.9789L289 83.2875L290 83.2875L290 77.9789L289 77.9789ZM289.382 82.8017L272.261 86.9677L272.497 87.9393L289.618 83.7733L289.382 82.8017ZM272.261 87.9393L289.382 92.1054L289.618 91.1337L272.497 86.9677L272.261 87.9393ZM289 91.6195L289 96.9281L290 96.9281L290 91.6195L289 91.6195ZM289.392 96.44L263.798 102.118L264.015 103.094L289.608 97.4163L289.392 96.44ZM264.406 102.606L264.406 97.35L263.406 97.35L263.406 102.606L264.406 102.606ZM264 97.8412L282.176 94.3783L281.988 93.3959L263.813 96.8588L264 97.8412ZM282.195 93.4001L264.019 89.1813L263.793 90.1554L281.969 94.3742L282.195 93.4001ZM264.406 89.6684L264.406 85.2035L263.406 85.2035L263.406 89.6684L264.406 89.6684ZM264.019 85.6907L282.23 81.4896L282.005 80.5151L263.794 84.7163L264.019 85.6907Z" fill="#DCCE00"/>
</g>
<path d="M58.9453 238.711H41.875V285H28.1641V238.711H11.4062V228.125H58.9453V238.711ZM66.6285 275.631H62.4273V285H57.1539V259.406H66.6637C69.6871 259.406 72.0191 260.08 73.6598 261.428C75.3004 262.775 76.1207 264.68 76.1207 267.141C76.1207 268.887 75.7398 270.346 74.9781 271.518C74.2281 272.678 73.0855 273.604 71.5504 274.295L77.0875 284.754V285H71.4273L66.6285 275.631ZM62.4273 271.359H66.6813C68.0055 271.359 69.0309 271.025 69.7574 270.357C70.484 269.678 70.8473 268.746 70.8473 267.562C70.8473 266.355 70.5016 265.406 69.8102 264.715C69.1305 264.023 68.0816 263.678 66.6637 263.678H62.4273V271.359ZM103.477 259.406V276.264C103.477 279.064 102.598 281.279 100.84 282.908C99.0944 284.537 96.7038 285.352 93.6686 285.352C90.6803 285.352 88.3073 284.561 86.5495 282.979C84.7916 281.396 83.8952 279.223 83.86 276.457V259.406H89.1334V276.299C89.1334 277.975 89.5319 279.199 90.3288 279.973C91.1373 280.734 92.2506 281.115 93.6686 281.115C96.6334 281.115 98.1393 279.557 98.1862 276.439V259.406H103.477ZM118.652 259.406L125.226 277.969L131.765 259.406H138.691V285H133.4V278.004L133.927 265.928L127.019 285H123.398L116.507 265.945L117.035 278.004V285H111.761V259.406H118.652ZM152.53 275.982V285H147.257V259.406H157.241C159.163 259.406 160.85 259.758 162.303 260.461C163.768 261.164 164.893 262.166 165.678 263.467C166.464 264.756 166.856 266.227 166.856 267.879C166.856 270.387 165.995 272.367 164.272 273.82C162.561 275.262 160.188 275.982 157.153 275.982H152.53ZM152.53 271.711H157.241C158.635 271.711 159.696 271.383 160.423 270.727C161.161 270.07 161.53 269.133 161.53 267.914C161.53 266.66 161.161 265.646 160.423 264.873C159.684 264.1 158.665 263.701 157.364 263.678H152.53V271.711ZM189.853 273.908H179.728V280.764H191.611V285H174.455V259.406H191.576V263.678H179.728V269.777H189.853V273.908ZM218.282 263.678H210.442V285H205.169V263.678H197.434V259.406H218.282V263.678Z" fill="black"/>
<path d="M34.4456 19.2031L39.1654 30.4971L43.9027 19.2031H45.3441V32H44.263V26.4277L44.3509 20.7148L39.5872 32H38.7523L34.0062 20.7588L34.0941 26.3926V32H33.013V19.2031H34.4456ZM59.3827 19.2031V27.9395C59.3768 28.8008 59.1864 29.5508 58.8114 30.1895C58.4364 30.8281 57.9061 31.3203 57.2205 31.666C56.5409 32.0059 55.7586 32.1758 54.8739 32.1758C53.5262 32.1758 52.4452 31.8096 51.6307 31.0771C50.8221 30.3389 50.4032 29.3193 50.3739 28.0186V19.2031H51.4461V27.8604C51.4461 28.9385 51.7537 29.7764 52.369 30.374C52.9842 30.9658 53.8192 31.2617 54.8739 31.2617C55.9286 31.2617 56.7606 30.9629 57.37 30.3652C57.9852 29.7676 58.2928 28.9355 58.2928 27.8691V19.2031H59.3827ZM71.6195 28.8535C71.6195 28.1445 71.3705 27.585 70.8724 27.1748C70.3744 26.7588 69.4632 26.3662 68.139 25.9971C66.8148 25.6221 65.848 25.2148 65.2386 24.7754C64.3714 24.1543 63.9379 23.3398 63.9379 22.332C63.9379 21.3535 64.3392 20.5596 65.142 19.9502C65.9505 19.335 66.9818 19.0273 68.2357 19.0273C69.0853 19.0273 69.8441 19.1914 70.5121 19.5195C71.1859 19.8477 71.7074 20.3047 72.0765 20.8906C72.4457 21.4766 72.6302 22.1299 72.6302 22.8506H71.5404C71.5404 21.9775 71.2416 21.2773 70.6439 20.75C70.0462 20.2168 69.2435 19.9502 68.2357 19.9502C67.2572 19.9502 66.4779 20.1699 65.8978 20.6094C65.3177 21.043 65.0277 21.6113 65.0277 22.3145C65.0277 22.9648 65.2884 23.4951 65.8099 23.9053C66.3314 24.3154 67.1664 24.6787 68.3148 24.9951C69.4632 25.3057 70.3334 25.6309 70.9252 25.9707C71.517 26.3047 71.9623 26.7061 72.2611 27.1748C72.5599 27.6436 72.7093 28.1973 72.7093 28.8359C72.7093 29.8438 72.305 30.6523 71.4964 31.2617C70.6937 31.8711 69.6332 32.1758 68.3148 32.1758C67.4125 32.1758 66.5834 32.0146 65.8275 31.6924C65.0775 31.3701 64.5062 30.9189 64.1136 30.3389C63.7269 29.7588 63.5336 29.0938 63.5336 28.3438H64.6146C64.6146 29.2461 64.9515 29.958 65.6254 30.4795C66.2992 31.001 67.1957 31.2617 68.3148 31.2617C69.3109 31.2617 70.1107 31.042 70.7142 30.6025C71.3177 30.1631 71.6195 29.5801 71.6195 28.8535ZM78.3456 32H77.2645V19.2031H78.3456V32ZM92.8676 28.0098C92.7211 29.3574 92.2377 30.3887 91.4174 31.1035C90.6029 31.8184 89.516 32.1758 88.1566 32.1758C87.2074 32.1758 86.3666 31.9385 85.6342 31.4639C84.9076 30.9893 84.3451 30.3184 83.9467 29.4512C83.5482 28.5781 83.3461 27.582 83.3402 26.4629V24.8018C83.3402 23.665 83.5395 22.6572 83.9379 21.7783C84.3363 20.8994 84.9076 20.2227 85.6518 19.748C86.4018 19.2676 87.2631 19.0273 88.2357 19.0273C89.6068 19.0273 90.6879 19.3994 91.4789 20.1436C92.2758 20.8818 92.7387 21.9043 92.8676 23.2109H91.7777C91.5082 21.0371 90.3275 19.9502 88.2357 19.9502C87.0756 19.9502 86.1498 20.3838 85.4584 21.251C84.7729 22.1182 84.4301 23.3164 84.4301 24.8457V26.4102C84.4301 27.8867 84.7641 29.0645 85.432 29.9434C86.1059 30.8223 87.0141 31.2617 88.1566 31.2617C89.2875 31.2617 90.14 30.9922 90.7143 30.4531C91.2885 29.9082 91.643 29.0938 91.7777 28.0098H92.8676ZM104.384 28.4141H98.5741L97.2558 32H96.122L100.965 19.2031H101.993L106.836 32H105.711L104.384 28.4141ZM98.9081 27.4912H104.041L101.475 20.5215L98.9081 27.4912ZM111.795 31.0859H118.115V32H110.706V19.2031H111.795V31.0859ZM129.853 32H128.772V19.2031H129.853V32ZM144.841 32H143.76L136.403 21.0488V32H135.313V19.2031H136.403L143.769 30.1631V19.2031H144.841V32ZM157.315 28.8535C157.315 28.1445 157.066 27.585 156.568 27.1748C156.07 26.7588 155.159 26.3662 153.835 25.9971C152.51 25.6221 151.543 25.2148 150.934 24.7754C150.067 24.1543 149.633 23.3398 149.633 22.332C149.633 21.3535 150.035 20.5596 150.837 19.9502C151.646 19.335 152.677 19.0273 153.931 19.0273C154.781 19.0273 155.54 19.1914 156.208 19.5195C156.881 19.8477 157.403 20.3047 157.772 20.8906C158.141 21.4766 158.326 22.1299 158.326 22.8506H157.236C157.236 21.9775 156.937 21.2773 156.339 20.75C155.742 20.2168 154.939 19.9502 153.931 19.9502C152.953 19.9502 152.173 20.1699 151.593 20.6094C151.013 21.043 150.723 21.6113 150.723 22.3145C150.723 22.9648 150.984 23.4951 151.505 23.9053C152.027 24.3154 152.862 24.6787 154.01 24.9951C155.159 25.3057 156.029 25.6309 156.621 25.9707C157.212 26.3047 157.658 26.7061 157.957 27.1748C158.255 27.6436 158.405 28.1973 158.405 28.8359C158.405 29.8438 158.001 30.6523 157.192 31.2617C156.389 31.8711 155.329 32.1758 154.01 32.1758C153.108 32.1758 152.279 32.0146 151.523 31.6924C150.773 31.3701 150.202 30.9189 149.809 30.3389C149.422 29.7588 149.229 29.0938 149.229 28.3438H150.31C150.31 29.2461 150.647 29.958 151.321 30.4795C151.995 31.001 152.891 31.2617 154.01 31.2617C155.006 31.2617 155.806 31.042 156.41 30.6025C157.013 30.1631 157.315 29.5801 157.315 28.8535ZM171.406 20.126H167.021V32H165.939V20.126H161.563V19.2031H171.406V20.126ZM180.242 26.6738H176.524V32H175.434V19.2031H179.591C180.957 19.2031 182.023 19.5342 182.791 20.1963C183.558 20.8584 183.942 21.7842 183.942 22.9736C183.942 23.7939 183.702 24.5176 183.221 25.1445C182.741 25.7715 182.096 26.2051 181.288 26.4453L184.487 31.8857V32H183.336L180.242 26.6738ZM176.524 25.751H179.837C180.746 25.751 181.475 25.4932 182.026 24.9775C182.577 24.4619 182.852 23.7939 182.852 22.9736C182.852 22.0713 182.565 21.3711 181.991 20.873C181.417 20.375 180.611 20.126 179.574 20.126H176.524V25.751ZM197.682 19.2031V27.9395C197.676 28.8008 197.485 29.5508 197.11 30.1895C196.735 30.8281 196.205 31.3203 195.52 31.666C194.84 32.0059 194.058 32.1758 193.173 32.1758C191.825 32.1758 190.744 31.8096 189.93 31.0771C189.121 30.3389 188.702 29.3193 188.673 28.0186V19.2031H189.745V27.8604C189.745 28.9385 190.053 29.7764 190.668 30.374C191.283 30.9658 192.118 31.2617 193.173 31.2617C194.228 31.2617 195.06 30.9629 195.669 30.3652C196.284 29.7676 196.592 28.9355 196.592 27.8691V19.2031H197.682ZM204.109 19.2031L208.829 30.4971L213.566 19.2031H215.007V32H213.926V26.4277L214.014 20.7148L209.251 32H208.416L203.67 20.7588L203.757 26.3926V32H202.676V19.2031H204.109ZM227.297 25.8652H221.312V31.0859H228.193V32H220.231V19.2031H228.15V20.126H221.312V24.9512H227.297V25.8652ZM241.986 32H240.905L233.548 21.0488V32H232.459V19.2031H233.548L240.914 30.1631V19.2031H241.986V32ZM255.638 20.126H251.252V32H250.171V20.126H245.794V19.2031H255.638V20.126ZM266.794 28.8535C266.794 28.1445 266.545 27.585 266.047 27.1748C265.549 26.7588 264.637 26.3662 263.313 25.9971C261.989 25.6221 261.022 25.2148 260.413 24.7754C259.546 24.1543 259.112 23.3398 259.112 22.332C259.112 21.3535 259.513 20.5596 260.316 19.9502C261.125 19.335 262.156 19.0273 263.41 19.0273C264.259 19.0273 265.018 19.1914 265.686 19.5195C266.36 19.8477 266.882 20.3047 267.251 20.8906C267.62 21.4766 267.804 22.1299 267.804 22.8506H266.715C266.715 21.9775 266.416 21.2773 265.818 20.75C265.22 20.2168 264.418 19.9502 263.41 19.9502C262.431 19.9502 261.652 20.1699 261.072 20.6094C260.492 21.043 260.202 21.6113 260.202 22.3145C260.202 22.9648 260.463 23.4951 260.984 23.9053C261.506 24.3154 262.341 24.6787 263.489 24.9951C264.637 25.3057 265.508 25.6309 266.099 25.9707C266.691 26.3047 267.136 26.7061 267.435 27.1748C267.734 27.6436 267.883 28.1973 267.883 28.8359C267.883 29.8438 267.479 30.6523 266.671 31.2617C265.868 31.8711 264.807 32.1758 263.489 32.1758C262.587 32.1758 261.758 32.0146 261.002 31.6924C260.252 31.3701 259.68 30.9189 259.288 30.3389C258.901 29.7588 258.708 29.0938 258.708 28.3438H259.789C259.789 29.2461 260.126 29.958 260.799 30.4795C261.473 31.001 262.37 31.2617 263.489 31.2617C264.485 31.2617 265.285 31.042 265.888 30.6025C266.492 30.1631 266.794 29.5801 266.794 28.8535Z" fill="black"/>
<g clip-path="url(#clip0)">
<path fill-rule="evenodd" clip-rule="evenodd" d="M155.511 120.228C153.936 114.172 156.784 111.145 159.703 110.392L163.879 109.315C164.597 109.128 165.329 109.554 165.512 110.265C165.696 110.974 165.265 111.698 164.549 111.883L160.373 112.96C159.497 113.186 156.744 114.329 158.105 119.559C159.515 124.978 161.076 126.071 165.7 124.879C166.416 124.694 167.149 125.12 167.333 125.829C167.517 126.538 167.086 127.262 166.369 127.449C159.362 129.256 157.018 126.025 155.511 120.228Z" fill="#CCAF61"/>
<path fill-rule="evenodd" clip-rule="evenodd" d="M102.515 162.919L101.478 158.689C101.3 157.963 101.747 157.212 102.475 157.014C103.203 156.815 103.938 157.242 104.115 157.968L105.155 162.2C105.371 163.089 106.498 165.868 111.87 164.405C113.427 163.979 114.394 163.423 114.819 162.704C115.586 161.416 114.974 158.967 114.216 155.86L114.07 155.256C113.89 154.529 114.338 153.781 115.066 153.583C115.792 153.383 116.529 153.811 116.707 154.537L116.856 155.137C117.797 158.999 118.492 161.783 117.144 164.053C116.311 165.453 114.84 166.399 112.514 167.033C106.294 168.73 103.24 165.877 102.515 162.919Z" fill="#CCAF61"/>
<path fill-rule="evenodd" clip-rule="evenodd" d="M175.04 144.369C174.459 142.127 172.142 140.778 169.877 141.365C167.612 141.952 166.242 144.253 166.822 146.496C167.403 148.738 169.721 150.086 171.986 149.5C174.251 148.913 175.621 146.611 175.04 144.369ZM164.199 147.177C163.247 143.501 165.493 139.729 169.206 138.767C172.919 137.805 176.712 140.015 177.663 143.688C178.615 147.364 176.37 151.136 172.657 152.097C168.945 153.057 165.153 150.851 164.199 147.177Z" fill="#CCAF61"/>
<path fill-rule="evenodd" clip-rule="evenodd" d="M263.251 121.87C250.4 116.761 230.65 119.729 183.807 131.051C173.823 133.466 90.4449 154.565 86.028 155.703C80.2719 157.187 73.9111 159.229 69.7358 163.707C65.9039 167.817 65.379 173.84 67.3466 178.873C69.6349 184.738 74.665 187.566 80.8801 187.831C84.8629 188.001 88.7358 187.239 92.5515 186.134C96.9496 184.864 133.556 175.434 133.556 175.434C133.853 175.667 135.12 181.573 135.12 181.573C135.12 181.573 109.596 188.443 102.531 190.298C94.6209 192.377 86.8461 195.26 78.5677 194.356C71.7254 193.61 65.3802 190.296 62.0984 184.117C60.3695 180.859 59.3175 177.107 59.1977 173.398C59.0137 167.575 61.2725 162.217 65.4452 158.097C70.8585 152.75 77.9913 150.249 85.2064 148.445C93.254 146.434 172.593 124.652 181.388 122.093C227.674 108.634 246.6 99.4972 255.587 91.7996C257.627 99.8046 262.963 120.74 263.251 121.87Z" fill="#FFE730"/>
<path fill-rule="evenodd" clip-rule="evenodd" d="M61.3559 174.067C60.3449 168.049 62.0013 162.28 66.6242 158.114C71.7046 153.537 78.5437 151.173 85.0769 149.438C99.742 145.54 114.362 141.478 129 137.488C158.323 129.494 187.775 121.876 216.688 112.524C230.215 108.147 243.475 103.246 256.242 97.0218C256.792 98.1193 257.34 99.2134 257.89 100.311C246.411 105.703 234.575 110.077 222.473 113.916C208.269 118.423 193.903 122.572 179.465 126.295C149.725 133.964 119.975 141.594 90.2286 149.245C82.8223 151.149 75.0374 152.81 68.7735 157.4C65.6518 159.688 63.1901 162.686 62.1538 166.438C61.7126 168.028 61.5443 169.683 61.6013 171.337C61.6232 171.989 62.3276 174.199 61.3559 174.067Z" fill="#E6B816"/>
<path fill-rule="evenodd" clip-rule="evenodd" d="M233.861 116.167C233.861 116.167 240.636 114.682 247.53 113.6C254.421 112.48 261.397 111.85 261.397 111.85L261.609 115.525C261.609 115.525 254.698 115.363 247.782 115.688C240.866 115.983 233.95 116.684 233.95 116.684L233.861 116.167Z" fill="#CB9E5C"/>
<path fill-rule="evenodd" clip-rule="evenodd" d="M64.9139 180.279C67.1204 185.199 71.279 188.122 76.618 189.068C82.7594 190.158 88.8987 188.538 94.785 187.031C105.744 184.224 116.714 181.459 127.678 178.675C129.122 178.308 130.568 177.94 132.012 177.574C133.068 177.307 132.833 177.612 133.137 178.703C126.186 180.396 119.236 182.086 112.285 183.778C106.06 185.292 99.8328 186.802 93.6107 188.33C87.9113 189.729 81.9203 190.984 76.0388 189.764C73.039 189.141 70.1581 187.895 67.8931 185.816C66.7563 184.771 65.8203 183.529 65.092 182.18C64.9203 181.861 64.3398 181.072 64.4019 180.722C64.4586 180.4 64.4336 180.482 64.9139 180.279Z" fill="#E6B816"/>
<path fill-rule="evenodd" clip-rule="evenodd" d="M263.283 128.14L252.129 85.0738C251.925 84.2861 252.405 83.4792 253.201 83.2732C253.998 83.0649 254.809 83.5372 255.012 84.327L266.17 127.392C266.372 128.182 265.892 128.989 265.096 129.195C264.301 129.401 263.489 128.929 263.283 128.14Z" fill="#CCAF61"/>
<path fill-rule="evenodd" clip-rule="evenodd" d="M144.02 172.375C143.599 170.671 144.645 168.914 146.355 168.453L202.666 153.203C202.701 153.194 202.735 153.185 202.772 153.176C203.507 152.994 205.861 152.13 206.767 150.647C207.031 150.214 207.343 149.484 207.011 148.149C206.756 147.115 206.301 146.75 205.934 146.545C204.499 145.752 201.951 146.276 201.17 146.521C201.128 146.537 201.069 146.553 201.024 146.566L155.991 158.761C154.282 159.226 152.554 158.221 152.133 156.517C151.712 154.813 152.757 153.058 154.468 152.595L199.434 140.419C200.329 140.138 205.183 138.783 209.079 140.911C211.161 142.048 212.587 143.973 213.203 146.474C213.871 149.166 213.507 151.744 212.155 153.932C209.718 157.869 204.949 159.184 204.144 159.382L147.878 174.62C146.17 175.082 144.442 174.077 144.02 172.375Z" fill="#E1C80D"/>
<path fill-rule="evenodd" clip-rule="evenodd" d="M132.78 171.835L131.316 166.183L138.93 164.211L140.394 169.863L132.78 171.835Z" fill="#E1C80D"/>
<path fill-rule="evenodd" clip-rule="evenodd" d="M153.394 154.568C153.301 154.201 153.524 153.825 153.893 153.729L199.544 141.624C199.747 141.565 204.946 140.088 208.471 142.042C209.903 142.836 210.859 144.079 211.307 145.731C211.385 146.093 211.19 146.476 210.823 146.579C210.456 146.681 210.079 146.471 209.978 146.108C209.627 144.801 208.908 143.866 207.793 143.246C204.767 141.565 199.944 142.933 199.895 142.946L154.227 155.053C153.86 155.152 153.484 154.934 153.394 154.568Z" fill="#E6B816"/>
<path fill-rule="evenodd" clip-rule="evenodd" d="M92.4558 179.089C91.8132 176.605 92.1478 174.227 93.4223 172.21C95.8065 168.431 100.668 167.213 101.581 167.013L126.966 160.428C128.673 159.988 130.412 160.999 130.851 162.688C131.286 164.378 130.257 166.107 128.551 166.551L103.097 173.148C103.045 173.161 102.99 173.175 102.933 173.186C102.154 173.354 99.6906 174.155 98.8163 175.555C98.5933 175.915 98.3706 176.461 98.636 177.486C98.9786 178.81 99.5947 179.291 100.026 179.536C101.516 180.38 103.972 179.97 104.712 179.76C104.736 179.754 104.779 179.741 104.803 179.734L129.978 173.208C131.686 172.765 133.422 173.776 133.86 175.467C134.299 177.156 133.269 178.885 131.563 179.325L106.428 185.843C105.635 186.069 100.864 187.282 96.8877 185.058C94.6799 183.826 93.1472 181.761 92.4558 179.089Z" fill="#E1C80D"/>
<path fill-rule="evenodd" clip-rule="evenodd" d="M92.3489 177.288C92.348 177.284 92.3448 177.279 92.3438 177.276C91.9206 175.587 92.1497 174.017 93.0262 172.612C95.1857 169.153 100.544 167.924 100.771 167.874L127.331 161.301C127.707 161.21 128.093 161.435 128.193 161.803C128.294 162.175 128.07 162.55 127.694 162.642L101.118 169.222C101.053 169.234 96.0825 170.378 94.2284 173.35C93.5456 174.445 93.377 175.627 93.7136 176.961C93.8085 177.333 93.5769 177.707 93.2007 177.792C92.8245 177.878 92.4478 177.653 92.3489 177.288Z" fill="#E6B816"/>
<path fill-rule="evenodd" clip-rule="evenodd" d="M157.687 168.851C157.595 168.484 157.819 168.107 158.189 168.008L204.118 155.946C204.16 155.935 208.475 154.762 209.165 152.056C209.261 151.685 209.638 151.46 210.008 151.551C210.377 151.641 210.6 152.014 210.508 152.381C209.61 155.886 204.668 157.221 204.458 157.276L158.527 169.34C158.159 169.437 157.782 169.218 157.687 168.851Z" fill="#E6B816"/>
<path fill-rule="evenodd" clip-rule="evenodd" d="M141.415 128.574L156.416 186.491L164.526 184.39L149.525 126.473L141.415 128.574Z" fill="#FFE730"/>
<path fill-rule="evenodd" clip-rule="evenodd" d="M145.165 128.295L160.193 186.319L162.486 185.725L147.457 127.701L145.165 128.295Z" fill="#E6B816"/>
<path fill-rule="evenodd" clip-rule="evenodd" d="M143.437 128.033L141.203 119.414L143.918 118.711L146.15 127.328L143.437 128.033Z" fill="#C4A45A"/>
<path fill-rule="evenodd" clip-rule="evenodd" d="M138.08 119.486L138.215 120.009C138.375 120.619 139.004 120.985 139.621 120.827L145.446 119.316C146.063 119.158 146.436 118.53 146.278 117.918L146.141 117.397C145.983 116.785 145.354 116.419 144.735 116.579L138.912 118.088C138.294 118.248 137.922 118.874 138.08 119.486Z" fill="#E8D484"/>
<path fill-rule="evenodd" clip-rule="evenodd" d="M155.878 187.067C155.763 186.62 156.034 186.165 156.483 186.051L165.599 183.689C166.05 183.572 166.508 183.839 166.623 184.285C166.738 184.728 166.467 185.183 166.018 185.301L156.902 187.662C156.452 187.779 155.994 187.513 155.878 187.067Z" fill="#DFC068"/>
<path fill-rule="evenodd" clip-rule="evenodd" d="M140.882 129.161C140.764 128.714 141.035 128.259 141.487 128.144L150.602 125.783C151.05 125.665 151.508 125.932 151.623 126.378C151.739 126.824 151.468 127.279 151.018 127.396L141.903 129.756C141.453 129.873 140.995 129.606 140.882 129.161Z" fill="#DFC068"/>
<path fill-rule="evenodd" clip-rule="evenodd" d="M129.303 131.711L144.304 189.628L152.416 187.525L137.413 129.61L129.303 131.711Z" fill="#FFE730"/>
<path fill-rule="evenodd" clip-rule="evenodd" d="M133.24 131.117L148.4 189.642L150.187 189.177L135.029 130.654L133.24 131.117Z" fill="#E6B816"/>
<path fill-rule="evenodd" clip-rule="evenodd" d="M131.324 131.169L129.091 122.551L131.805 121.848L134.037 130.468L131.324 131.169Z" fill="#C4A45A"/>
<path fill-rule="evenodd" clip-rule="evenodd" d="M125.968 122.623L126.104 123.146C126.261 123.755 126.891 124.121 127.508 123.963L133.333 122.453C133.951 122.295 134.323 121.669 134.165 121.057L134.031 120.535C133.873 119.923 133.243 119.557 132.627 119.718L126.8 121.225C126.182 121.385 125.81 122.011 125.968 122.623Z" fill="#E8D484"/>
<path fill-rule="evenodd" clip-rule="evenodd" d="M142.421 190.552C142.304 190.108 142.576 189.651 143.025 189.536L152.142 187.175C152.592 187.058 153.05 187.325 153.164 187.77C153.281 188.214 153.008 188.671 152.559 188.786L143.445 191.148C142.994 191.265 142.536 190.999 142.421 190.552Z" fill="#DFC068"/>
<path fill-rule="evenodd" clip-rule="evenodd" d="M127.422 132.646C127.307 132.2 127.578 131.745 128.028 131.628L137.142 129.266C137.592 129.152 138.05 129.418 138.166 129.862C138.282 130.308 138.011 130.763 137.56 130.88L128.444 133.241C127.994 133.358 127.536 133.091 127.422 132.646Z" fill="#DFC068"/>
<path fill-rule="evenodd" clip-rule="evenodd" d="M115.845 135.196L130.844 193.112L138.956 191.013L123.955 133.095L115.845 135.196Z" fill="#FFE730"/>
<path fill-rule="evenodd" clip-rule="evenodd" d="M119.782 134.603L134.94 193.126L136.729 192.663L121.571 134.14L119.782 134.603Z" fill="#E6B816"/>
<path fill-rule="evenodd" clip-rule="evenodd" d="M117.866 134.655L115.634 126.037L118.348 125.334L120.58 133.952L117.866 134.655Z" fill="#C4A45A"/>
<path fill-rule="evenodd" clip-rule="evenodd" d="M112.51 126.109L112.647 126.63C112.805 127.243 113.435 127.609 114.051 127.447L119.877 125.94C120.494 125.778 120.866 125.153 120.708 124.544L120.573 124.021C120.414 123.408 119.785 123.042 119.166 123.202L113.342 124.711C112.724 124.871 112.351 125.497 112.51 126.109Z" fill="#E8D484"/>
<path fill-rule="evenodd" clip-rule="evenodd" d="M130.309 193.689C130.192 193.245 130.463 192.79 130.913 192.673L140.031 190.311C140.48 190.196 140.938 190.462 141.053 190.905C141.168 191.351 140.896 191.809 140.447 191.923L131.331 194.284C130.882 194.402 130.424 194.136 130.309 193.689Z" fill="#DFC068"/>
<path fill-rule="evenodd" clip-rule="evenodd" d="M114.366 136.027C114.252 135.582 114.523 135.127 114.972 135.009L124.087 132.648C124.537 132.533 124.995 132.799 125.111 133.243C125.227 133.69 124.956 134.145 124.505 134.261L115.39 136.623C114.939 136.739 114.481 136.473 114.366 136.027Z" fill="#DFC068"/>
<path fill-rule="evenodd" clip-rule="evenodd" d="M37.3704 167.087C37.0608 165.861 37.8109 164.601 39.0454 164.274L216.993 117.318C217.702 117.092 220.698 116.312 224.045 118.067C227.574 119.914 230.123 123.84 231.618 129.734C235.63 145.518 225.158 148.603 225.052 148.633L155.227 167.059C153.991 167.385 152.737 166.656 152.425 165.428C152.114 164.201 152.864 162.941 154.1 162.615L223.899 144.198C224.087 144.135 229.997 142.142 227.142 130.915C226.008 126.443 224.209 123.427 221.944 122.189C220.065 121.161 218.42 121.672 218.352 121.695C218.312 121.707 218.234 121.73 218.194 121.742L40.1746 168.719C38.938 169.045 37.6821 168.315 37.3704 167.087Z" fill="#E1C80D"/>
<path fill-rule="evenodd" clip-rule="evenodd" d="M39.3269 167.176C39.2326 166.806 39.4575 166.428 39.8305 166.33L218.148 119.394C218.228 119.364 221.379 118.294 224.796 120.101C227.95 121.767 230.223 125.266 231.559 130.5C230.438 127.517 228.025 122.473 225.026 120.946C222.114 119.462 218.567 120.703 218.544 120.713L40.1689 167.666C39.7994 167.763 39.4202 167.542 39.3269 167.176Z" fill="#E6B816"/>
<path fill-rule="evenodd" clip-rule="evenodd" d="M155.285 164.705C155.191 164.342 155.415 163.966 155.782 163.871L224.443 145.743C224.447 145.74 227.637 144.83 228.679 143.63C227.936 145.707 225.717 146.814 222.327 147.711L156.117 165.189C155.748 165.287 155.376 165.07 155.285 164.705Z" fill="#E6B816"/>
<path fill-rule="evenodd" clip-rule="evenodd" d="M35.6711 169.189L34.7342 165.579L38.7002 164.55L39.6357 168.162L35.6711 169.189Z" fill="#CCAF61"/>
<path fill-rule="evenodd" clip-rule="evenodd" d="M35.6551 168.945L35.5952 167.793L39.0613 166.126L39.1227 167.275L35.6551 168.945Z" fill="#E6B816"/>
<path fill-rule="evenodd" clip-rule="evenodd" d="M33.4064 171.74L31.6635 165.011L33.6841 164.488C34.6153 164.247 35.563 164.798 35.8018 165.72L36.6803 169.112C36.9191 170.034 36.3582 170.976 35.427 171.217L33.4064 171.74Z" fill="#E8D484"/>
<path fill-rule="evenodd" clip-rule="evenodd" d="M32.2031 167.947L31.9407 167.102L34.4872 166.565C35.3103 166.391 36.1749 166.894 36.4203 167.69C36.4203 167.69 35.5703 167.234 34.7472 167.408L32.2031 167.947Z" fill="#E6B816"/>
</g>
<defs>
<filter id="filter0_d" x="262.055" y="70.6781" width="31.2969" height="161.386" filterUnits="userSpaceOnUse" color-interpolation-filters="sRGB">
<feFlood flood-opacity="0" result="BackgroundImageFix"/>
<feColorMatrix in="SourceAlpha" type="matrix" values="0 0 0 0 0 0 0 0 0 0 0 0 0 0 0 0 0 0 127 0"/>
<feOffset dx="1" dy="1"/>
<feGaussianBlur stdDeviation="1"/>
<feColorMatrix type="matrix" values="0 0 0 0 0 0 0 0 0 0 0 0 0 0 0 0 0 0 0.15 0"/>
<feBlend mode="normal" in2="BackgroundImageFix" result="effect1_dropShadow"/>
<feBlend mode="normal" in="SourceGraphic" in2="effect1_dropShadow" result="shape"/>
</filter>
<radialGradient id="paint0_radial" cx="0" cy="0" r="1" gradientUnits="userSpaceOnUse" gradientTransform="translate(150 150) rotate(90) scale(150)">
<stop offset="0.369792" stop-color="white" stop-opacity="0"/>
<stop offset="1" stop-color="#FFFF00"/>
</radialGradient>
<clipPath id="clip0">
<rect width="237.723" height="78.4485" fill="white" transform="translate(25 142) rotate(-14.521)"/>
</clipPath>
</defs>
</svg>
